<svg width="186" height="24" viewBox="0 0 186 24" fill="none" xmlns="http://www.w3.org/2000/svg">
<g id="Brand-Logo &#226;&#156;&#133;" clip-path="url(#clip0_269_2765)">
<g id="Vector">
<path d="M47.328 5.3088V1.872C47.328 1.0512 47.9952 0.384001 48.816 0.384001H57.144C58.776 0.384001 59.2224 2.6304 57.7104 3.2496L49.3824 6.6864C48.4032 7.0896 47.3232 6.3696 47.3232 5.3088" fill="#CF163E"/>
<path d="M26.7984 23.3184H34.4544L22.1136 0.504001H12.4848L0 23.3184H9.2064L19.8624 18.8736C21.3072 18.2784 20.88 16.1232 19.3152 16.1232H11.1696L17.28 4.0368L26.7984 23.3184Z" fill="black" fill-opacity="0.88"/>
<path d="M86.5584 2.9664L84.4417 7.3968C81.12 5.64 76.8192 4.7568 72.9456 4.7568C69.0721 4.7568 66.9216 5.472 66.9216 6.7776C66.9216 8.2752 69.6913 8.7312 75.1632 9.1536C82.752 9.7392 87.5376 11.4 87.5376 15.9936C87.5376 20.5872 82.1617 23.7792 73.3392 23.7792C67.2144 23.7792 62.496 22.248 59.3329 19.6128L62.592 15.768C65.0352 17.8512 69.5616 18.9936 73.9249 18.9936C78.288 18.9936 80.7648 17.9856 80.7648 16.5504C80.7648 14.8896 77.736 14.4672 71.8417 14.0112C65.424 13.5216 60.1488 11.8944 60.1488 7.3008C60.1488 3.1008 65.0689 0.00479736 73.5024 0.00479736C78.2593 0.00479736 82.848 0.916796 86.5632 2.9664" fill="black" fill-opacity="0.88"/>
<path d="M100.622 23.3184V5.1792H89.2223V0.455999H118.502V5.1792H107.102V23.3184H100.622Z" fill="black" fill-opacity="0.88"/>
<path d="M153.053 11.856C153.053 19.0848 146.28 23.7744 136.282 23.7744C126.283 23.7744 119.573 19.0848 119.573 11.856C119.573 4.6272 126.475 0 136.282 0C146.088 0 153.053 4.4928 153.053 11.856ZM126.413 11.7888C126.413 16.2192 130.421 19.0512 136.282 19.0512C142.142 19.0512 146.05 16.2192 146.05 11.7888C146.05 7.0032 142.075 4.752 136.282 4.752C130.488 4.752 126.413 6.9984 126.413 11.7888Z" fill="black" fill-opacity="0.88"/>
<path d="M185.27 23.3184L175.574 14.7552C181.2 14.7552 184.781 11.304 184.781 7.6224C184.781 3.552 181.037 0.455999 172.57 0.455999H157.555V23.3184H164.069V5.0832H171.658C175.795 5.0832 177.878 5.9952 177.878 8.0784C177.878 10.1616 176.299 11.4336 171.998 11.4336H168.288C167.419 11.4336 166.882 11.6352 166.637 12.216C166.426 12.72 166.608 13.2432 167.51 14.2368L176.232 23.3184H185.27Z" fill="black" fill-opacity="0.88"/>
<path d="M43.4736 0.460803H36.9936V23.2752H43.4736V0.460803Z" fill="black" fill-opacity="0.88"/>
</g>
</g>
<defs>
<clipPath id="clip0_269_2765">
<rect width="185.28" height="24" fill="white"/>
</clipPath>
</defs>
</svg>
