<svg id="Layer_1" data-name="Layer 1" xmlns="http://www.w3.org/2000/svg" viewBox="0 0 19.24 20"><defs><style>.cls-1{fill:#686868;}</style></defs><title>Add link_icon</title><path class="cls-1" d="M748,355.08a1.93,1.93,0,0,1-.33-.31,4.33,4.33,0,0,1-1.26-2.89,3.89,3.89,0,0,1,1.13-2.91l4.75-4.75a4.25,4.25,0,0,1,6,6L755.53,353l-1.19-1.2,2.75-2.75a2.55,2.55,0,0,0-3.59-3.6l-4.75,4.75a2.21,2.21,0,0,0-.63,1.65,2.61,2.61,0,0,0,.79,1.78Z" transform="translate(-740.18 -343.09)"/><path class="cls-1" d="M744.53,363.09a4.38,4.38,0,0,1-4.34-4.2,3.87,3.87,0,0,1,1.13-2.92l2.75-2.75,1.2,1.19-2.75,2.76a2.18,2.18,0,0,0-.64,1.66,2.67,2.67,0,0,0,.79,1.78,2.44,2.44,0,0,0,3.44.15l4.75-4.74a2.21,2.21,0,0,0,.63-1.66,2.67,2.67,0,0,0-.79-1.78l.9-1.47a1.93,1.93,0,0,1,.33.31,4.25,4.25,0,0,1,1.25,2.88,3.87,3.87,0,0,1-1.13,2.92L747.31,362A3.89,3.89,0,0,1,744.53,363.09Z" transform="translate(-740.18 -343.09)"/></svg>