<?xml version="1.0" encoding="utf-8"?>
<!-- Generator: Adobe Illustrator 25.4.1, SVG Export Plug-In . SVG Version: 6.00 Build 0)  -->
<svg version="1.1" id="Capa_1" xmlns="http://www.w3.org/2000/svg" xmlns:xlink="http://www.w3.org/1999/xlink" x="0px" y="0px"
	 viewBox="0 0 1315.7 1646.6" style="enable-background:new 0 0 1315.7 1646.6;" xml:space="preserve">
<style type="text/css">
	.st0{fill:#2680AF;}
	.st1{fill:#F9F9F9;stroke:#C1C1C1;stroke-width:5;stroke-miterlimit:10;}
	.st2{fill:#434343;}
	.st3{fill:#F5F5F5;}
	.st4{fill:#FFFFFF;stroke:#434343;stroke-width:2;stroke-miterlimit:10;}
	.st5{fill:#C83B51;}
	.st6{fill:#FFFFFF;}
	.st7{fill:#D88A3D;}
	.st8{fill:#7FC63C;}
	.st9{opacity:9.000000e-02;fill:#2680AF;enable-background:new    ;}
	.st10{fill:url(#SVGID_1_);}
	.st11{fill:url(#SVGID_00000080188731573606214560000016482543379588494764_);}
	.st12{fill:#F9F9F9;stroke:#C1C1C1;stroke-miterlimit:10;stroke-dasharray:7;}
</style>
<path class="st0" d="M-8357.1-1661.6v206.8h3.9c1.2,0,1.8,1.4,0.9,2.3l-4.9,4.9c-0.5,0.5-1.4,0.5-1.9,0l-4.9-4.9
	c-0.8-0.8-0.2-2.3,0.9-2.3h4v-206.8H-8357.1z"/>
<path class="st1" d="M578.8,886.4c-29.3,0-53.2-23.8-53.2-53.2s23.8-53.2,53.2-53.2c2.9,0,5.7,0.2,8.4,0.7
	c8.8-29.5,36.2-51.1,68.6-51.1c39.5,0,71.5,32,71.5,71.5c0,1.1,0,2.2-0.1,3.4c5.6-2.6,11.9-4,18.5-4c24.5,0,44.3,19.8,44.3,44.3
	s-19.8,44.3-44.3,44.3L578.8,886.4z"/>
<g>
	<path class="st2" d="M607.3,841.6h-4.6l-12.4-16.4v16.4h-4.9v-24.5h4.6l12.4,16.4v-16.4h4.9V841.6L607.3,841.6z"/>
	<path class="st2" d="M628.2,833.1c0,0.5,0,1.2-0.1,1.5h-12c0.5,2.5,2.2,3.5,4.4,3.5c1.5,0,3.1-0.6,4.3-1.6l2.7,2.9
		c-1.9,1.8-4.4,2.6-7.2,2.6c-5.2,0-8.8-3.5-8.8-8.9c0-5.3,3.5-9,8.6-9C625,824.2,628.2,827.8,628.2,833.1z M616.2,831.6h7.5
		c-0.4-2.2-1.7-3.4-3.7-3.4C617.8,828.2,616.7,829.5,616.2,831.6z"/>
	<path class="st2" d="M644.2,828.7h-6.1v6.2c0,2.1,1.1,2.9,2.5,2.9c1.1,0,2.3-0.5,3.2-1.1l1.7,3.6c-1.5,1-3.2,1.8-5.6,1.8
		c-4.2,0-6.3-2.4-6.3-6.8v-6.6h-3.3v-4.1h3.3v-5h4.6v5h6.1L644.2,828.7L644.2,828.7z"/>
	<path class="st2" d="M667.1,836.6l3.6-11.9h4.8l-5.7,17h-5.2l-3.8-11.5l-3.7,11.5h-5.2l-5.7-17h4.9l3.6,11.8l3.8-11.8h4.8
		L667.1,836.6z"/>
	<path class="st2" d="M695.2,833.2c0,5.1-3.9,8.9-9.2,8.9c-5.3,0-9.2-3.8-9.2-8.9s3.9-8.9,9.2-8.9
		C691.3,824.2,695.2,828,695.2,833.2z M681.6,833.2c0,2.8,1.9,4.7,4.5,4.7s4.5-1.9,4.5-4.7s-1.9-4.7-4.5-4.7
		S681.6,830.4,681.6,833.2z"/>
	<path class="st2" d="M710.6,824.6l-0.7,4.5c-0.8-0.3-1.8-0.5-2.8-0.5c-2.1,0-3.6,1.3-3.6,3.8v9.2h-4.6v-17h4.4v1.8
		c1.1-1.6,2.7-2.3,4.8-2.3C709.2,824.2,710,824.4,710.6,824.6z"/>
	<path class="st2" d="M718.2,830.7h1.6l4.8-6h5.6l-6.7,8l6.7,9h-5.6l-4.9-6.9h-1.5v6.9h-4.6v-25.2h4.6V830.7L718.2,830.7z"/>
</g>
<path class="st3" d="M811.2,497.1H504.5c-4.9,0-9-4-9-9v-37.5c0-4.9,4-9,9-9h306.6c4.9,0,9,4,9,9v37.5
	C820.1,493.1,816.1,497.1,811.2,497.1z"/>
<g>
	<path class="st4" d="M775.8,167.9H518c-7.2,0-13.1-5.9-13.1-13.1V58.7c0-7.2,5.9-13.1,13.1-13.1h257.8c7.2,0,13.1,5.9,13.1,13.1
		v96.2C788.8,162.1,783,167.9,775.8,167.9z"/>
	<path class="st4" d="M786.8,182.9H529c-7.2,0-13.1-5.9-13.1-13.1V73.7c0-7.2,5.9-13.1,13.1-13.1h257.8c7.2,0,13.1,5.9,13.1,13.1
		v96.2C799.8,177.1,794,182.9,786.8,182.9z"/>
	<path class="st4" d="M797.8,197.9H540c-7.2,0-13.1-5.9-13.1-13.1V88.7c0-7.2,5.9-13.1,13.1-13.1h257.8c7.2,0,13.1,5.9,13.1,13.1
		v96.2C810.8,192.1,805,197.9,797.8,197.9z"/>
	<g>
		<path class="st2" d="M598,145.4h-3.7l-1.5-4.1h-7.5l-1.5,4.1h-3.6l6.8-17.5h4.2L598,145.4z M586.5,138.1h5.1l-2.5-6.8L586.5,138.1
			z"/>
		<path class="st2" d="M612.6,139.3c0,3.6-2.5,6.4-5.9,6.4c-1.6,0-2.8-0.6-3.6-1.6v6.3H600v-17.1h3.2v1.3c0.8-1,2-1.7,3.6-1.7
			C610.1,133,612.6,135.7,612.6,139.3z M603.1,139.3c0,1.9,1.3,3.3,3.1,3.3c1.9,0,3.1-1.5,3.1-3.3s-1.2-3.3-3.1-3.3
			S603.1,137.4,603.1,139.3z"/>
		<path class="st2" d="M628,139.3c0,3.6-2.5,6.4-5.9,6.4c-1.6,0-2.8-0.6-3.6-1.6v6.3h-3.2v-17.1h3.2v1.3c0.8-1,2-1.7,3.6-1.7
			C625.5,133,628,135.7,628,139.3z M618.5,139.3c0,1.9,1.3,3.3,3.1,3.3c1.9,0,3.1-1.5,3.1-3.3s-1.2-3.3-3.1-3.3
			C619.8,136,618.5,137.4,618.5,139.3z"/>
		<path class="st2" d="M634,145.4h-3.3v-18h3.3V145.4z"/>
		<path class="st2" d="M641,129.3c0,1.2-0.9,2.1-2.1,2.1s-2.1-0.9-2.1-2.1s0.9-2.1,2.1-2.1S641,128.2,641,129.3z M640.6,145.4h-3.3
			v-12.1h3.3V145.4z"/>
		<path class="st2" d="M654.6,135.2l-2.3,2c-0.7-0.8-1.5-1.2-2.6-1.2c-1.7,0-3,1.3-3,3.3s1.3,3.3,3,3.3c1,0,2-0.5,2.6-1.2l2.3,2
			c-1.1,1.5-2.8,2.3-4.9,2.3c-3.9,0-6.5-2.7-6.5-6.4s2.6-6.4,6.5-6.4C651.8,133,653.5,133.8,654.6,135.2z"/>
		<path class="st2" d="M668.6,145.4h-3.2v-1.3c-0.8,1-2,1.6-3.6,1.6c-3.3,0-5.9-2.7-5.9-6.4s2.5-6.4,5.9-6.4c1.7,0,2.8,0.7,3.6,1.7
			v-1.3h3.2V145.4z M659.3,139.3c0,1.9,1.2,3.3,3.1,3.3c1.9,0,3.1-1.4,3.1-3.3s-1.3-3.3-3.1-3.3C660.5,136,659.3,137.5,659.3,139.3z
			"/>
		<path class="st2" d="M680.8,136.2h-4.4v4.4c0,1.5,0.8,2.1,1.8,2.1c0.8,0,1.6-0.4,2.3-0.8l1.2,2.6c-1.1,0.7-2.3,1.3-4,1.3
			c-3,0-4.5-1.7-4.5-4.8v-4.7h-2.3v-2.9h2.3v-3.6h3.3v3.6h4.4L680.8,136.2L680.8,136.2z"/>
		<path class="st2" d="M687.5,129.3c0,1.2-0.9,2.1-2.1,2.1s-2.1-0.9-2.1-2.1s0.9-2.1,2.1-2.1S687.5,128.2,687.5,129.3z M687,145.4
			h-3.3v-12.1h3.3V145.4z"/>
		<path class="st2" d="M702.8,139.3c0,3.6-2.8,6.4-6.6,6.4s-6.5-2.7-6.5-6.4s2.8-6.4,6.5-6.4C700,133,702.8,135.7,702.8,139.3z
			 M693,139.3c0,2,1.4,3.3,3.2,3.3s3.2-1.4,3.2-3.3s-1.4-3.3-3.2-3.3S693,137.4,693,139.3z"/>
		<path class="st2" d="M716.8,137.7v7.7h-3.3v-6.7c0-1.8-0.9-2.7-2.4-2.7c-1.4,0-2.6,0.9-2.6,2.7v6.6h-3.3v-12.1h3.2v1.4
			c0.9-1.3,2.2-1.8,3.6-1.8C715,133,716.8,134.9,716.8,137.7z"/>
		<path class="st2" d="M734.5,130.2c-3.2,1.5-4.9,4.6-4.9,8.1s1.7,6.6,4.9,8.1l-1,2.9c-4.4-1.7-7.3-5.9-7.3-11s3-9.3,7.3-11
			L734.5,130.2z"/>
		<path class="st2" d="M745.3,136.7c-1-0.5-2.5-1-3.9-1c-1.2,0-1.9,0.4-1.9,1.1c0,0.7,0.9,0.9,2,1l1.1,0.2c2.6,0.4,4.1,1.6,4.1,3.6
			c0,2.5-2,4.1-5.6,4.1c-1.7,0-3.8-0.3-5.4-1.4l1.3-2.5c1,0.7,2.3,1.2,4.1,1.2c1.5,0,2.2-0.4,2.2-1.1c0-0.6-0.6-0.9-2-1.1l-1-0.1
			c-2.8-0.4-4.2-1.6-4.2-3.7c0-2.5,1.9-4,5.1-4c1.9,0,3.5,0.4,5.1,1.2L745.3,136.7z"/>
		<path class="st2" d="M748.2,146.4c3.2-1.5,4.9-4.6,4.9-8.1s-1.7-6.6-4.9-8.1l1-2.9c4.4,1.7,7.3,5.9,7.3,11s-3,9.3-7.3,11
			L748.2,146.4z"/>
	</g>
</g>
<g>
	<path class="st2" d="M523.4,463h1.3v5h0.1c0.1-0.2,0.2-0.4,0.3-0.6s0.3-0.4,0.5-0.5s0.4-0.2,0.7-0.3s0.6-0.1,0.9-0.1
		c0.9,0,1.6,0.3,2.1,0.8c0.5,0.6,0.8,1.3,0.8,2.4v5.4h-1.3V470c0-0.8-0.2-1.3-0.5-1.7c-0.3-0.4-0.8-0.6-1.5-0.6
		c-0.3,0-0.5,0-0.8,0.1c-0.2,0.1-0.5,0.2-0.7,0.3s-0.3,0.3-0.5,0.5c-0.1,0.2-0.2,0.4-0.2,0.7v5.8h-1.3V463H523.4z"/>
	<path class="st2" d="M536.8,475c-0.6,0-1.1-0.2-1.4-0.5c-0.3-0.4-0.4-0.8-0.4-1.4v-5.3h-2.8v-1.1h2.1c0.3,0,0.5-0.1,0.6-0.2
		s0.2-0.3,0.2-0.6v-2.2h1.2v2.9h3.8v1.1h-3.8v6.1h3.8v1.1h-3.3V475z"/>
	<path class="st2" d="M546.5,475c-0.6,0-1.1-0.2-1.4-0.5c-0.3-0.4-0.4-0.8-0.4-1.4v-5.3h-2.8v-1.1h2.1c0.3,0,0.5-0.1,0.6-0.2
		s0.2-0.3,0.2-0.6v-2.2h1.2v2.9h3.8v1.1h-3.8v6.1h3.8v1.1h-3.3V475z"/>
	<path class="st2" d="M552.5,466.6h1.3v1.4h0.1c0.5-1,1.4-1.5,2.6-1.5c1,0,1.8,0.4,2.4,1.1c0.6,0.8,0.9,1.8,0.9,3.2
		s-0.3,2.5-0.9,3.2s-1.4,1.1-2.4,1.1c-1.2,0-2-0.5-2.6-1.5h-0.1v4.6h-1.3V466.6z M556,474c0.8,0,1.3-0.2,1.8-0.7
		c0.4-0.5,0.6-1.1,0.6-1.8v-1.4c0-0.8-0.2-1.4-0.6-1.8s-1-0.7-1.8-0.7c-0.3,0-0.6,0-0.8,0.1c-0.3,0.1-0.5,0.2-0.7,0.3
		c-0.2,0.1-0.3,0.3-0.5,0.5s-0.2,0.5-0.2,0.7v3c0,0.3,0.1,0.5,0.2,0.7s0.3,0.4,0.5,0.5s0.4,0.3,0.7,0.3C555.4,474,555.7,474,556,474
		z"/>
	<path class="st2" d="M565.6,475.1c-0.9,0-1.6-0.1-2.3-0.5c-0.6-0.3-1.2-0.7-1.6-1.2l0.9-0.8c0.4,0.4,0.8,0.7,1.3,1s1,0.3,1.7,0.3
		s1.2-0.1,1.6-0.4s0.6-0.6,0.6-1.1c0-0.2,0-0.4-0.1-0.5s-0.2-0.3-0.3-0.4s-0.3-0.1-0.5-0.2s-0.4-0.1-0.5-0.1l-1.3-0.2
		c-0.3,0-0.6-0.1-1-0.2s-0.7-0.2-0.9-0.4c-0.3-0.2-0.5-0.4-0.7-0.7c-0.2-0.3-0.3-0.6-0.3-1.1c0-0.4,0.1-0.8,0.2-1.1s0.4-0.6,0.7-0.8
		s0.7-0.4,1.1-0.5c0.4-0.1,0.9-0.1,1.3-0.1c0.8,0,1.4,0.1,2,0.4s1,0.6,1.4,1l-0.8,0.8c-0.1-0.1-0.2-0.2-0.4-0.4
		c-0.2-0.1-0.3-0.2-0.5-0.3s-0.5-0.2-0.7-0.2c-0.3-0.1-0.6-0.1-1-0.1c-0.7,0-1.2,0.1-1.5,0.3s-0.5,0.6-0.5,1c0,0.2,0,0.4,0.1,0.5
		s0.2,0.3,0.3,0.4s0.3,0.1,0.5,0.2c0.2,0,0.4,0.1,0.5,0.1l1.3,0.2c0.3,0,0.6,0.1,1,0.2s0.6,0.2,0.9,0.4c0.3,0.2,0.5,0.4,0.7,0.7
		s0.3,0.6,0.3,1.1c0,0.8-0.3,1.5-1,1.9S566.7,475.1,565.6,475.1z"/>
	<path class="st2" d="M575.2,468.7c-0.4,0-0.8-0.1-0.9-0.3s-0.3-0.4-0.3-0.7v-0.3c0-0.3,0.1-0.5,0.3-0.7s0.5-0.3,0.9-0.3
		s0.8,0.1,0.9,0.3s0.3,0.4,0.3,0.7v0.3c0,0.3-0.1,0.5-0.3,0.7C576,468.6,575.7,468.7,575.2,468.7z M575.2,475.1
		c-0.4,0-0.8-0.1-0.9-0.3s-0.3-0.4-0.3-0.7v-0.3c0-0.3,0.1-0.5,0.3-0.7s0.5-0.3,0.9-0.3s0.8,0.1,0.9,0.3s0.3,0.4,0.3,0.7v0.3
		c0,0.3-0.1,0.5-0.3,0.7S575.7,475.1,575.2,475.1z"/>
	<path class="st2" d="M581.6,477.2l5.6-14.5h1.2l-5.6,14.5H581.6z"/>
	<path class="st2" d="M591.2,477.2l5.6-14.5h1.2l-5.6,14.5H591.2z"/>
	<path class="st2" d="M600.4,475v-8.4h1.2v1h0.1c0.1-0.3,0.3-0.6,0.5-0.8c0.2-0.2,0.6-0.3,1-0.3c0.5,0,0.8,0.1,1.1,0.4
		c0.2,0.2,0.4,0.6,0.4,1l0,0c0.2-0.4,0.4-0.7,0.7-0.9s0.7-0.4,1.2-0.4c0.7,0,1.1,0.2,1.4,0.7c0.2,0.5,0.3,1.1,0.3,2v5.8h-1.2v-5.6
		c0-0.7-0.1-1.2-0.2-1.5s-0.4-0.4-0.8-0.4c-0.3,0-0.6,0.1-0.8,0.3c-0.2,0.2-0.3,0.6-0.3,1v6.1h-1.2v-5.6c0-0.7-0.1-1.2-0.2-1.5
		s-0.4-0.4-0.8-0.4c-0.3,0-0.6,0.1-0.8,0.3s-0.3,0.6-0.3,1v6.1L600.4,475L600.4,475z"/>
	<path class="st2" d="M610.9,473.8h3v-6.1h-3v-1.1h4.3v7.2h2.8v1.1h-7.1V473.8L610.9,473.8z M614.6,464.8c-0.4,0-0.6-0.1-0.8-0.2
		c-0.2-0.2-0.2-0.4-0.2-0.6v-0.3c0-0.2,0.1-0.4,0.2-0.6c0.2-0.2,0.4-0.2,0.8-0.2s0.6,0.1,0.8,0.2c0.2,0.2,0.2,0.4,0.2,0.6v0.3
		c0,0.2-0.1,0.4-0.2,0.6C615.2,464.7,615,464.8,614.6,464.8z"/>
	<path class="st2" d="M620.5,475v-8.4h1.3v1.4h0.1c0.1-0.2,0.2-0.4,0.3-0.6s0.3-0.4,0.5-0.5s0.4-0.2,0.7-0.3s0.6-0.1,0.9-0.1
		c0.9,0,1.6,0.3,2.1,0.8c0.5,0.6,0.8,1.3,0.8,2.4v5.4h-1.3V470c0-0.8-0.2-1.3-0.5-1.7c-0.3-0.4-0.8-0.6-1.5-0.6
		c-0.3,0-0.5,0-0.8,0.1c-0.2,0.1-0.5,0.2-0.7,0.3s-0.3,0.3-0.5,0.5c-0.1,0.2-0.2,0.4-0.2,0.7v5.8L620.5,475L620.5,475z"/>
	<path class="st2" d="M630.2,473.8h3v-6.1h-3v-1.1h4.3v7.2h2.8v1.1h-7.1V473.8L630.2,473.8z M634,464.8c-0.4,0-0.6-0.1-0.8-0.2
		c-0.2-0.2-0.2-0.4-0.2-0.6v-0.3c0-0.2,0.1-0.4,0.2-0.6c0.2-0.2,0.4-0.2,0.8-0.2s0.6,0.1,0.8,0.2c0.2,0.2,0.2,0.4,0.2,0.6v0.3
		c0,0.2-0.1,0.4-0.2,0.6C634.6,464.7,634.4,464.8,634,464.8z"/>
	<path class="st2" d="M643.2,475.1c-0.6,0-1.1-0.1-1.6-0.3s-0.9-0.5-1.2-0.9s-0.6-0.8-0.8-1.4c-0.2-0.5-0.3-1.1-0.3-1.8
		c0-0.7,0.1-1.3,0.3-1.8s0.4-1,0.8-1.4s0.7-0.7,1.2-0.9c0.5-0.2,1-0.3,1.6-0.3s1.1,0.1,1.6,0.3c0.5,0.2,0.9,0.5,1.2,0.9
		s0.6,0.8,0.8,1.4s0.3,1.1,0.3,1.8c0,0.7-0.1,1.3-0.3,1.8s-0.4,1-0.8,1.4c-0.3,0.4-0.7,0.7-1.2,0.9S643.8,475.1,643.2,475.1z
		 M643.2,474c0.7,0,1.3-0.2,1.8-0.6c0.4-0.4,0.7-1.1,0.7-2v-1.2c0-0.9-0.2-1.6-0.7-2c-0.4-0.4-1-0.6-1.8-0.6c-0.7,0-1.3,0.2-1.8,0.6
		s-0.7,1.1-0.7,2v1.2c0,0.9,0.2,1.6,0.7,2S642.5,474,643.2,474z"/>
	<path class="st2" d="M650.5,470.7v-1.4h4.7v1.4H650.5z"/>
	<path class="st2" d="M662.6,475.1c-0.7,0-1.3-0.1-1.8-0.4s-0.9-0.6-1.2-1.1s-0.6-1.1-0.7-1.8s-0.2-1.5-0.2-2.5
		c0-0.9,0.1-1.7,0.2-2.5s0.4-1.3,0.7-1.8s0.7-0.9,1.2-1.1s1.1-0.4,1.8-0.4s1.3,0.1,1.8,0.4s0.9,0.6,1.2,1.1s0.6,1.1,0.7,1.8
		s0.2,1.5,0.2,2.5c0,0.9-0.1,1.8-0.2,2.5c-0.2,0.7-0.4,1.3-0.7,1.8s-0.7,0.9-1.2,1.1S663.2,475.1,662.6,475.1z M662.6,474
		c0.5,0,0.8-0.1,1.2-0.3c0.3-0.2,0.6-0.4,0.8-0.8s0.3-0.7,0.4-1.2s0.2-1,0.2-1.5v-1.8c0-0.6,0-1.1-0.2-1.5c-0.1-0.5-0.2-0.9-0.4-1.2
		c-0.2-0.3-0.5-0.6-0.8-0.8s-0.7-0.3-1.2-0.3s-0.8,0.1-1.2,0.3c-0.3,0.2-0.6,0.4-0.8,0.8c-0.2,0.3-0.3,0.7-0.4,1.2
		c-0.1,0.5-0.2,1-0.2,1.5v1.8c0,0.6,0,1.1,0.2,1.5s0.2,0.9,0.4,1.2c0.2,0.3,0.5,0.6,0.8,0.8C661.8,473.9,662.2,474,662.6,474z
		 M662.6,470.3c-0.4,0-0.6-0.1-0.8-0.2s-0.2-0.3-0.2-0.5v-0.4c0-0.2,0.1-0.4,0.2-0.5s0.4-0.2,0.8-0.2s0.6,0.1,0.8,0.2
		s0.2,0.3,0.2,0.5v0.4c0,0.2-0.1,0.4-0.2,0.5C663.2,470.2,663,470.3,662.6,470.3z"/>
	<path class="st2" d="M668.8,475v-1.2h3.2v-9.1h-0.1l-2.8,2.6l-0.8-0.9l3-2.8h2.1v10.1h3v1.2L668.8,475L668.8,475z"/>
	<path class="st2" d="M682,475.1c-0.4,0-0.8-0.1-0.9-0.3s-0.3-0.4-0.3-0.7v-0.3c0-0.3,0.1-0.5,0.3-0.7s0.5-0.3,0.9-0.3
		s0.8,0.1,0.9,0.3s0.3,0.4,0.3,0.7v0.3c0,0.3-0.1,0.5-0.3,0.7S682.4,475.1,682,475.1z"/>
	<path class="st2" d="M691.9,475.1c-0.6,0-1.2-0.1-1.6-0.3c-0.5-0.2-0.9-0.5-1.2-0.9s-0.6-0.8-0.8-1.4c-0.2-0.5-0.3-1.1-0.3-1.8
		c0-0.7,0.1-1.3,0.3-1.8s0.5-1,0.8-1.4s0.7-0.7,1.2-0.9c0.5-0.2,1-0.3,1.6-0.3s1.1,0.1,1.5,0.3s0.8,0.5,1.2,0.9
		c0.3,0.4,0.6,0.8,0.7,1.3s0.3,1,0.3,1.6v0.6h-6.2v0.4c0,0.4,0.1,0.7,0.2,1s0.3,0.6,0.5,0.8c0.2,0.2,0.5,0.4,0.8,0.5
		s0.7,0.2,1.1,0.2c0.6,0,1-0.1,1.5-0.4c0.4-0.3,0.7-0.6,0.9-1.1l1,0.6c-0.2,0.6-0.7,1-1.2,1.4C693.4,475,692.7,475.1,691.9,475.1z
		 M691.8,467.5c-0.4,0-0.7,0.1-1,0.2s-0.6,0.3-0.8,0.5s-0.4,0.5-0.5,0.8s-0.2,0.6-0.2,1v0.1h4.8v-0.2c0-0.4-0.1-0.7-0.2-1
		s-0.3-0.6-0.5-0.8c-0.2-0.2-0.4-0.4-0.7-0.5C692.4,467.5,692.1,467.5,691.8,467.5z"/>
	<path class="st2" d="M697.6,475l3.1-4.2l-3-4.1h1.5l1.3,1.8l1,1.4h0.1l1-1.4l1.2-1.8h1.5l-3.1,4.1l3.1,4.2h-1.5l-1.4-2l-1-1.3h-0.1
		l-0.9,1.3l-1.4,2H697.6L697.6,475z"/>
	<path class="st2" d="M714.2,475c-0.5,0-0.9-0.1-1.1-0.4c-0.2-0.3-0.3-0.6-0.4-1h-0.1c-0.2,0.5-0.5,0.9-0.9,1.1s-1,0.4-1.6,0.4
		c-0.9,0-1.6-0.2-2.1-0.7s-0.8-1.1-0.8-1.9s0.3-1.4,0.8-1.8c0.6-0.4,1.5-0.6,2.7-0.6h1.8v-0.8c0-0.6-0.2-1.1-0.5-1.4
		s-0.8-0.5-1.5-0.5c-0.6,0-1,0.1-1.4,0.3s-0.6,0.5-0.9,0.9l-0.9-0.6c0.1-0.2,0.2-0.4,0.4-0.6s0.4-0.4,0.7-0.5
		c0.3-0.2,0.6-0.3,0.9-0.4c0.3-0.1,0.7-0.1,1.2-0.1c1,0,1.8,0.2,2.3,0.8s0.9,1.2,0.9,2.1v4.6h1.2v1.1H714.2L714.2,475z M710.4,474.1
		c0.3,0,0.6,0,0.9-0.1c0.3-0.1,0.5-0.2,0.7-0.3c0.2-0.1,0.4-0.3,0.5-0.5s0.2-0.4,0.2-0.6v-1.4h-1.8c-0.8,0-1.3,0.1-1.7,0.3
		c-0.4,0.2-0.5,0.5-0.5,0.9v0.3c0,0.4,0.2,0.8,0.5,1C709.5,474,709.9,474.1,710.4,474.1z"/>
	<path class="st2" d="M716.9,475v-8.4h1.2v1h0.1c0.1-0.3,0.3-0.6,0.5-0.8c0.2-0.2,0.6-0.3,1-0.3c0.5,0,0.8,0.1,1.1,0.4
		c0.2,0.2,0.4,0.6,0.4,1l0,0c0.2-0.4,0.4-0.7,0.7-0.9s0.7-0.4,1.2-0.4c0.7,0,1.1,0.2,1.4,0.7c0.2,0.5,0.3,1.1,0.3,2v5.8h-1.2v-5.6
		c0-0.7-0.1-1.2-0.2-1.5s-0.4-0.4-0.8-0.4c-0.3,0-0.6,0.1-0.8,0.3c-0.2,0.2-0.3,0.6-0.3,1v6.1h-1.3v-5.6c0-0.7-0.1-1.2-0.2-1.5
		s-0.4-0.4-0.8-0.4c-0.3,0-0.6,0.1-0.8,0.3s-0.3,0.6-0.3,1v6.1L716.9,475L716.9,475z"/>
	<path class="st2" d="M727.2,466.6h1.3v1.4h0.1c0.5-1,1.4-1.5,2.6-1.5c1,0,1.8,0.4,2.4,1.1c0.6,0.8,0.9,1.8,0.9,3.2
		s-0.3,2.5-0.9,3.2s-1.4,1.1-2.4,1.1c-1.2,0-2-0.5-2.6-1.5h-0.1v4.6h-1.3V466.6z M730.7,474c0.8,0,1.3-0.2,1.8-0.7
		c0.4-0.5,0.6-1.1,0.6-1.8v-1.4c0-0.8-0.2-1.4-0.6-1.8s-1-0.7-1.8-0.7c-0.3,0-0.6,0-0.8,0.1c-0.3,0.1-0.5,0.2-0.7,0.3
		c-0.2,0.1-0.3,0.3-0.5,0.5s-0.2,0.5-0.2,0.7v3c0,0.3,0.1,0.5,0.2,0.7s0.3,0.4,0.5,0.5s0.4,0.3,0.7,0.3
		C730.1,474,730.4,474,730.7,474z"/>
	<path class="st2" d="M736.7,473.8h2.9v-9.7h-2.9V463h4.2v10.9h2.9v1.1h-7.1L736.7,473.8L736.7,473.8z"/>
	<path class="st2" d="M750.1,475.1c-0.6,0-1.2-0.1-1.6-0.3c-0.5-0.2-0.9-0.5-1.2-0.9s-0.6-0.8-0.8-1.4c-0.2-0.5-0.3-1.1-0.3-1.8
		c0-0.7,0.1-1.3,0.3-1.8s0.5-1,0.8-1.4s0.7-0.7,1.2-0.9c0.5-0.2,1-0.3,1.6-0.3s1.1,0.1,1.5,0.3s0.8,0.5,1.2,0.9
		c0.3,0.4,0.6,0.8,0.7,1.3s0.3,1,0.3,1.6v0.6h-6.2v0.4c0,0.4,0.1,0.7,0.2,1s0.3,0.6,0.5,0.8c0.2,0.2,0.5,0.4,0.8,0.5
		s0.7,0.2,1.1,0.2c0.6,0,1-0.1,1.5-0.4c0.4-0.3,0.7-0.6,0.9-1.1l1,0.6c-0.2,0.6-0.7,1-1.2,1.4C751.6,475,750.9,475.1,750.1,475.1z
		 M750,467.5c-0.4,0-0.7,0.1-1,0.2s-0.6,0.3-0.8,0.5s-0.4,0.5-0.5,0.8s-0.2,0.6-0.2,1v0.1h4.8v-0.2c0-0.4-0.1-0.7-0.2-1
		s-0.3-0.6-0.5-0.8c-0.2-0.2-0.4-0.4-0.7-0.5C750.7,467.5,750.4,467.5,750,467.5z"/>
	<path class="st2" d="M759.7,475.1c-0.4,0-0.8-0.1-0.9-0.3s-0.3-0.4-0.3-0.7v-0.3c0-0.3,0.1-0.5,0.3-0.7s0.5-0.3,0.9-0.3
		s0.8,0.1,0.9,0.3s0.3,0.4,0.3,0.7v0.3c0,0.3-0.1,0.5-0.3,0.7S760.1,475.1,759.7,475.1z"/>
	<path class="st2" d="M766.1,475v-8.4h1.3v1.4h0.1c0.1-0.2,0.2-0.4,0.3-0.6s0.3-0.4,0.5-0.5s0.4-0.2,0.7-0.3s0.6-0.1,0.9-0.1
		c0.9,0,1.6,0.3,2.1,0.8c0.5,0.6,0.8,1.3,0.8,2.4v5.4h-1.3V470c0-0.8-0.2-1.3-0.5-1.7c-0.3-0.4-0.8-0.6-1.5-0.6
		c-0.3,0-0.5,0-0.8,0.1c-0.2,0.1-0.5,0.2-0.7,0.3s-0.3,0.3-0.5,0.5c-0.1,0.2-0.2,0.4-0.2,0.7v5.8L766.1,475L766.1,475z"/>
	<path class="st2" d="M779.2,475.1c-0.6,0-1.2-0.1-1.6-0.3c-0.5-0.2-0.9-0.5-1.2-0.9s-0.6-0.8-0.8-1.4c-0.2-0.5-0.3-1.1-0.3-1.8
		c0-0.7,0.1-1.3,0.3-1.8s0.5-1,0.8-1.4s0.7-0.7,1.2-0.9c0.5-0.2,1-0.3,1.6-0.3s1.1,0.1,1.5,0.3s0.8,0.5,1.2,0.9
		c0.3,0.4,0.6,0.8,0.7,1.3s0.3,1,0.3,1.6v0.6h-6.2v0.4c0,0.4,0.1,0.7,0.2,1s0.3,0.6,0.5,0.8c0.2,0.2,0.5,0.4,0.8,0.5
		s0.7,0.2,1.1,0.2c0.6,0,1-0.1,1.5-0.4c0.4-0.3,0.7-0.6,0.9-1.1l1,0.6c-0.2,0.6-0.7,1-1.2,1.4C780.7,475,780,475.1,779.2,475.1z
		 M779.1,467.5c-0.4,0-0.7,0.1-1,0.2s-0.6,0.3-0.8,0.5s-0.4,0.5-0.5,0.8s-0.2,0.6-0.2,1v0.1h4.8v-0.2c0-0.4-0.1-0.7-0.2-1
		s-0.3-0.6-0.5-0.8c-0.2-0.2-0.4-0.4-0.7-0.5C779.8,467.5,779.5,467.5,779.1,467.5z"/>
	<path class="st2" d="M789.2,475c-0.6,0-1.1-0.2-1.4-0.5c-0.3-0.4-0.4-0.8-0.4-1.4v-5.3h-2.8v-1.1h2.1c0.3,0,0.5-0.1,0.6-0.2
		s0.2-0.3,0.2-0.6v-2.2h1.2v2.9h3.8v1.1h-3.8v6.1h3.8v1.1h-3.3V475z"/>
</g>
<g>
	<g>
		<path class="st5" d="M809.3,421.2h-303c-6.6,0-12-5.4-12-12V301.3c0-6.6,5.4-12,12-12h303.1c6.6,0,12,5.4,12,12v107.9
			C821.3,415.8,815.9,421.2,809.3,421.2z M506.3,295.4c-3.3,0-6,2.7-6,6v107.9c0,3.3,2.7,6,6,6h303.1c3.3,0,6-2.7,6-6v-108
			c0-3.3-2.7-6-6-6L506.3,295.4L506.3,295.4z"/>
	</g>
	<path class="st5" d="M637.6,347.4H517.2c-3.3,0-6.1-2.7-6.1-6.1v-28.8c0-3.4,2.7-6.1,6.1-6.1h120.4c3.3,0,6.1,2.7,6.1,6.1v28.8
		C643.7,344.7,641,347.4,637.6,347.4z"/>
	<circle class="st6" cx="577.4" cy="326.3" r="8.4"/>
	<path class="st6" d="M528.9,340.8v-27.6c0-0.3,0.3-0.6,0.6-0.6h4.9c0.3,0,0.6,0.3,0.6,0.6v27.6c0,0.3-0.3,0.6-0.6,0.6h-4.9
		C529.2,341.3,528.9,341.1,528.9,340.8z"/>
	<path class="st6" d="M539.7,340.8v-27.6c0-0.3,0.3-0.6,0.6-0.6h4.9c0.3,0,0.6,0.3,0.6,0.6v27.6c0,0.3-0.3,0.6-0.6,0.6h-4.9
		C539.9,341.3,539.7,341.1,539.7,340.8z"/>
	<path class="st6" d="M518.2,340.8v-27.6c0-0.3,0.3-0.6,0.6-0.6h4.9c0.3,0,0.6,0.3,0.6,0.6v27.6c0,0.3-0.3,0.6-0.6,0.6h-4.9
		C518.4,341.3,518.2,341.1,518.2,340.8z"/>
	<path class="st6" d="M620.1,340.8v-27.6c0-0.3,0.3-0.6,0.6-0.6h4.9c0.3,0,0.6,0.3,0.6,0.6v27.6c0,0.3-0.3,0.6-0.6,0.6h-4.9
		C620.3,341.3,620.1,341.1,620.1,340.8z"/>
	<path class="st6" d="M630.8,340.8v-27.6c0-0.3,0.3-0.6,0.6-0.6h4.9c0.3,0,0.6,0.3,0.6,0.6v27.6c0,0.3-0.3,0.6-0.6,0.6h-4.9
		C631.1,341.3,630.8,341.1,630.8,340.8z"/>
	<path class="st6" d="M609.3,340.8v-27.6c0-0.3,0.3-0.6,0.6-0.6h4.9c0.3,0,0.6,0.3,0.6,0.6v27.6c0,0.3-0.3,0.6-0.6,0.6h-4.9
		C609.6,341.3,609.3,341.1,609.3,340.8z"/>
	<g>
		<path class="st5" d="M637.6,402.5H517.2c-3.3,0-6.1-2.7-6.1-6.1v-28.8c0-3.4,2.7-6.1,6.1-6.1h120.4c3.3,0,6.1,2.7,6.1,6.1v28.8
			C643.7,399.8,641,402.5,637.6,402.5z"/>
		<circle class="st6" cx="577.4" cy="381.4" r="8.4"/>
		<path class="st6" d="M528.9,395.8v-27.6c0-0.3,0.3-0.6,0.6-0.6h4.9c0.3,0,0.6,0.3,0.6,0.6v27.6c0,0.3-0.3,0.6-0.6,0.6h-4.9
			C529.2,396.4,528.9,396.1,528.9,395.8z"/>
		<path class="st6" d="M539.7,395.8v-27.6c0-0.3,0.3-0.6,0.6-0.6h4.9c0.3,0,0.6,0.3,0.6,0.6v27.6c0,0.3-0.3,0.6-0.6,0.6h-4.9
			C539.9,396.4,539.7,396.1,539.7,395.8z"/>
		<path class="st6" d="M518.2,395.8v-27.6c0-0.3,0.3-0.6,0.6-0.6h4.9c0.3,0,0.6,0.3,0.6,0.6v27.6c0,0.3-0.3,0.6-0.6,0.6h-4.9
			C518.4,396.4,518.2,396.1,518.2,395.8z"/>
		<path class="st6" d="M620.1,395.8v-27.6c0-0.3,0.3-0.6,0.6-0.6h4.9c0.3,0,0.6,0.3,0.6,0.6v27.6c0,0.3-0.3,0.6-0.6,0.6h-4.9
			C620.3,396.4,620.1,396.1,620.1,395.8z"/>
		<path class="st6" d="M630.8,395.8v-27.6c0-0.3,0.3-0.6,0.6-0.6h4.9c0.3,0,0.6,0.3,0.6,0.6v27.6c0,0.3-0.3,0.6-0.6,0.6h-4.9
			C631.1,396.4,630.8,396.1,630.8,395.8z"/>
		<path class="st6" d="M609.3,395.8v-27.6c0-0.3,0.3-0.6,0.6-0.6h4.9c0.3,0,0.6,0.3,0.6,0.6v27.6c0,0.3-0.3,0.6-0.6,0.6h-4.9
			C609.6,396.4,609.3,396.1,609.3,395.8z"/>
	</g>
	<path class="st5" d="M798.1,347.4H677.7c-3.3,0-6.1-2.7-6.1-6.1v-28.8c0-3.4,2.7-6.1,6.1-6.1h120.4c3.3,0,6.1,2.7,6.1,6.1v28.8
		C804.2,344.7,801.5,347.4,798.1,347.4z"/>
	<circle class="st6" cx="737.9" cy="326.3" r="8.4"/>
	<path class="st6" d="M689.4,340.8v-27.6c0-0.3,0.3-0.6,0.6-0.6h4.9c0.3,0,0.6,0.3,0.6,0.6v27.6c0,0.3-0.3,0.6-0.6,0.6H690
		C689.7,341.3,689.4,341.1,689.4,340.8z"/>
	<path class="st6" d="M700.2,340.8v-27.6c0-0.3,0.3-0.6,0.6-0.6h4.9c0.3,0,0.6,0.3,0.6,0.6v27.6c0,0.3-0.3,0.6-0.6,0.6h-4.9
		C700.4,341.3,700.2,341.1,700.2,340.8z"/>
	<path class="st6" d="M678.6,340.8v-27.6c0-0.3,0.3-0.6,0.6-0.6h4.9c0.3,0,0.6,0.3,0.6,0.6v27.6c0,0.3-0.3,0.6-0.6,0.6h-4.9
		C678.9,341.3,678.6,341.1,678.6,340.8z"/>
	<path class="st6" d="M780.5,340.8v-27.6c0-0.3,0.3-0.6,0.6-0.6h4.9c0.3,0,0.6,0.3,0.6,0.6v27.6c0,0.3-0.3,0.6-0.6,0.6h-4.9
		C780.8,341.3,780.5,341.1,780.5,340.8z"/>
	<path class="st6" d="M791.3,340.8v-27.6c0-0.3,0.3-0.6,0.6-0.6h4.9c0.3,0,0.6,0.3,0.6,0.6v27.6c0,0.3-0.3,0.6-0.6,0.6h-4.9
		C791.6,341.3,791.3,341.1,791.3,340.8z"/>
	<path class="st6" d="M769.8,340.8v-27.6c0-0.3,0.3-0.6,0.6-0.6h4.9c0.3,0,0.6,0.3,0.6,0.6v27.6c0,0.3-0.3,0.6-0.6,0.6h-4.9
		C770,341.3,769.8,341.1,769.8,340.8z"/>
	<g>
		<path class="st5" d="M798.1,402.5H677.7c-3.3,0-6.1-2.7-6.1-6.1v-28.8c0-3.4,2.7-6.1,6.1-6.1h120.4c3.3,0,6.1,2.7,6.1,6.1v28.8
			C804.2,399.8,801.5,402.5,798.1,402.5z"/>
		<circle class="st6" cx="737.9" cy="381.4" r="8.4"/>
		<path class="st6" d="M689.4,395.8v-27.6c0-0.3,0.3-0.6,0.6-0.6h4.9c0.3,0,0.6,0.3,0.6,0.6v27.6c0,0.3-0.3,0.6-0.6,0.6H690
			C689.7,396.4,689.4,396.1,689.4,395.8z"/>
		<path class="st6" d="M700.2,395.8v-27.6c0-0.3,0.3-0.6,0.6-0.6h4.9c0.3,0,0.6,0.3,0.6,0.6v27.6c0,0.3-0.3,0.6-0.6,0.6h-4.9
			C700.4,396.4,700.2,396.1,700.2,395.8z"/>
		<path class="st6" d="M678.6,395.8v-27.6c0-0.3,0.3-0.6,0.6-0.6h4.9c0.3,0,0.6,0.3,0.6,0.6v27.6c0,0.3-0.3,0.6-0.6,0.6h-4.9
			C678.9,396.4,678.6,396.1,678.6,395.8z"/>
		<path class="st6" d="M780.5,395.8v-27.6c0-0.3,0.3-0.6,0.6-0.6h4.9c0.3,0,0.6,0.3,0.6,0.6v27.6c0,0.3-0.3,0.6-0.6,0.6h-4.9
			C780.8,396.4,780.5,396.1,780.5,395.8z"/>
		<path class="st6" d="M791.3,395.8v-27.6c0-0.3,0.3-0.6,0.6-0.6h4.9c0.3,0,0.6,0.3,0.6,0.6v27.6c0,0.3-0.3,0.6-0.6,0.6h-4.9
			C791.6,396.4,791.3,396.1,791.3,395.8z"/>
		<path class="st6" d="M769.8,395.8v-27.6c0-0.3,0.3-0.6,0.6-0.6h4.9c0.3,0,0.6,0.3,0.6,0.6v27.6c0,0.3-0.3,0.6-0.6,0.6h-4.9
			C770,396.4,769.8,396.1,769.8,395.8z"/>
	</g>
</g>
<path class="st0" d="M662.8,706.2h-3.4v-33.6h3.4c1.2,0,1.8-1.4,0.9-2.3l-4.9-5c-0.5-0.5-1.4-0.5-1.9,0l-4.9,5
	c-0.8,0.8-0.2,2.3,0.9,2.3h3.7v33.6h-3.7c-1.2,0-1.8,1.4-0.9,2.3l4.9,5c0.5,0.5,1.4,0.5,1.9,0l4.9-5
	C664.6,707.7,664,706.2,662.8,706.2z"/>
<path class="st0" d="M662.8,945h-3.4v-33.6h3.4c1.2,0,1.8-1.4,0.9-2.3l-4.9-5c-0.5-0.5-1.4-0.5-1.9,0l-4.9,5
	c-0.8,0.8-0.2,2.3,0.9,2.3h3.7V945h-3.7c-1.2,0-1.8,1.4-0.9,2.3l4.9,5c0.5,0.5,1.4,0.5,1.9,0l4.9-5C664.6,946.5,664,945,662.8,945z"
	/>
<g>
	<path class="st7" d="M648.1,1384.3h-3.4v-33.6h3.4c1.2,0,1.8-1.4,0.9-2.3l-4.9-5c-0.5-0.5-1.4-0.5-1.9,0l-4.9,5
		c-0.8,0.8-0.2,2.3,0.9,2.3h3.7v33.6h-3.7c-1.2,0-1.8,1.4-0.9,2.3l4.9,5c0.5,0.5,1.4,0.5,1.9,0l4.9-5
		C649.9,1385.8,649.3,1384.3,648.1,1384.3z"/>
	<path class="st8" d="M677.5,1384.3h-3.4v-33.6h3.4c1.2,0,1.8-1.4,0.9-2.3l-4.9-5c-0.5-0.5-1.4-0.5-1.9,0l-4.9,5
		c-0.8,0.8-0.2,2.3,0.9,2.3h3.7v33.6h-3.7c-1.2,0-1.8,1.4-0.9,2.3l4.9,5c0.5,0.5,1.4,0.5,1.9,0l4.9-5
		C679.3,1385.8,678.7,1384.3,677.5,1384.3z"/>
</g>
<rect x="612.6" y="533.2" class="st9" width="93.7" height="110.1"/>
<g>
	<g>
		<path class="st2" d="M632.3,604.5c-0.8,0-1.5-0.2-2.1-0.4s-1.1-0.7-1.5-1.3c-0.4-0.5-0.7-1.2-0.9-2s-0.3-1.7-0.3-2.8
			c0-1,0.1-1.9,0.3-2.8c0.2-0.8,0.5-1.5,0.9-2s0.9-1,1.5-1.3s1.3-0.4,2.1-0.4c1.6,0,2.8,0.6,3.6,1.7c0.8,1.1,1.2,2.7,1.2,4.8
			s-0.4,3.7-1.2,4.8C635.1,604,633.9,604.5,632.3,604.5z M632.3,602.6c0.4,0,0.8-0.1,1.1-0.2s0.5-0.4,0.7-0.7s0.3-0.7,0.4-1.1
			s0.1-0.9,0.1-1.5V597c0-1.1-0.2-1.9-0.5-2.6s-0.9-0.9-1.8-0.9s-1.4,0.3-1.8,0.9s-0.5,1.5-0.5,2.6v2.2c0,1.1,0.2,1.9,0.5,2.6
			C630.9,602.3,631.5,602.6,632.3,602.6z"/>
		<path class="st2" d="M639.2,591.7h4.4c1.2,0,2.1,0.3,2.8,0.9c0.6,0.6,1,1.4,1,2.4c0,0.7-0.2,1.3-0.5,1.7s-0.8,0.7-1.5,0.9v0.1
			c0.8,0.2,1.3,0.5,1.8,1s0.7,1.1,0.7,2c0,0.5-0.1,1-0.3,1.4s-0.4,0.8-0.7,1.1s-0.7,0.5-1.2,0.7s-1,0.2-1.5,0.2h-4.8L639.2,591.7
			L639.2,591.7z M643,597.1c0.6,0,1.1-0.1,1.4-0.3c0.3-0.2,0.5-0.6,0.5-1.2V595c0-0.6-0.2-1-0.5-1.2s-0.8-0.3-1.4-0.3h-1.5v3.7
			L643,597.1L643,597.1z M643.2,602.6c0.7,0,1.2-0.1,1.5-0.4s0.5-0.7,0.5-1.3v-0.6c0-0.6-0.2-1-0.5-1.2s-0.8-0.4-1.5-0.4h-1.8v3.8
			L643.2,602.6L643.2,602.6z"/>
		<path class="st2" d="M657.5,591.7v9.1c0,0.6-0.1,1.1-0.3,1.5s-0.5,0.8-0.8,1.1s-0.8,0.6-1.3,0.7s-1,0.3-1.7,0.3
			c-1.2,0-2.1-0.3-2.8-0.9c-0.7-0.6-1.1-1.4-1.3-2.4l2.2-0.5c0.1,0.5,0.3,1,0.6,1.3s0.7,0.5,1.3,0.5c0.5,0,1-0.2,1.2-0.5
			s0.4-0.8,0.4-1.5v-6.9h-4.2v-1.9L657.5,591.7L657.5,591.7z"/>
		<path class="st2" d="M660.8,604.3v-12.6h7.9v1.9h-5.6v3.3h5.4v1.9h-5.4v3.5h5.6v1.9L660.8,604.3L660.8,604.3z"/>
		<path class="st2" d="M675.8,604.5c-1.6,0-2.9-0.6-3.7-1.7c-0.8-1.1-1.2-2.7-1.2-4.8s0.4-3.7,1.2-4.8s2-1.7,3.7-1.7
			c0.6,0,1.2,0.1,1.7,0.2c0.5,0.2,0.9,0.4,1.2,0.7s0.6,0.6,0.9,1c0.2,0.4,0.4,0.9,0.5,1.4l-2.2,0.6c-0.1-0.3-0.2-0.6-0.3-0.8
			s-0.2-0.5-0.4-0.7s-0.4-0.3-0.6-0.4s-0.5-0.2-0.9-0.2c-0.8,0-1.4,0.3-1.8,0.9s-0.5,1.5-0.5,2.6v2.2c0,1.1,0.2,1.9,0.5,2.6
			c0.3,0.6,0.9,0.9,1.8,0.9c0.3,0,0.6,0,0.9-0.2c0.2-0.1,0.4-0.2,0.6-0.4c0.2-0.2,0.3-0.4,0.4-0.7s0.2-0.5,0.3-0.8l2.2,0.6
			c-0.1,0.5-0.3,0.9-0.5,1.4c-0.2,0.4-0.5,0.8-0.9,1c-0.3,0.3-0.8,0.5-1.2,0.7C677,604.4,676.5,604.5,675.8,604.5z"/>
		<path class="st2" d="M687.5,593.7v10.6h-2.3v-10.6h-3.8v-1.9h9.9v1.9H687.5z"/>
	</g>
</g>
<linearGradient id="SVGID_1_" gradientUnits="userSpaceOnUse" x1="659.4231" y1="86.6" x2="659.4231" y2="-12.0878" gradientTransform="matrix(1 0 0 1 0 566)">
	<stop  offset="0" style="stop-color:#10535A"/>
	<stop  offset="1" style="stop-color:#102E46"/>
</linearGradient>
<path class="st10" d="M711.4,566.7c0.2-7.6,0.5-15.5-0.2-23c-0.5-5.6-3-10.4-8.6-12.4c-0.8-0.3-1.6-0.5-2.4-0.7
	c-3.1-0.7-6.5-0.8-9.6-0.9c-5.6-0.2-11.3,0.2-16.9,0.2c-11.3,0-22.5,0.2-33.8,0.2c-1.3,0-2.7,0-4.1,0c-6.8,0-13.5,0-20.3,0
	c-4.6,0-8.3,3.7-8.3,8.3v105.9c0,4.6,3.7,8.3,8.3,8.3h87.6c4.6,0,8.3-3.7,8.3-8.3c0-5.6,0-11.3,0-16.9c0-12,0-23.9,0-35.9
	C711.4,583.2,711.2,574.9,711.4,566.7z M701.3,636.8c0,4-3.2,7.2-7.2,7.2H623c-4,0-7.2-3.2-7.2-7.2v-91c0-4,3.2-7.2,7.2-7.2h47.8
	v12.2c0,10,8.1,18.1,18.1,18.1h12.5L701.3,636.8L701.3,636.8z M701.3,561.1h-12.5c-5.6,0-10.2-4.6-10.2-10.2v-12.2h15.5
	c4,0,7.2,3.2,7.2,7.2V561.1L701.3,561.1z"/>
<rect x="609.4" y="973.9" class="st9" width="93.7" height="110.1"/>
<g>
	<path class="st4" d="M777,1531H519.2c-7.2,0-13.1-5.9-13.1-13.1v-96.2c0-7.2,5.9-13.1,13.1-13.1H777c7.2,0,13.1,5.9,13.1,13.1v96.2
		C790.1,1525.2,784.2,1531,777,1531z"/>
	<path class="st4" d="M788,1546H530.2c-7.2,0-13.1-5.9-13.1-13.1v-96.2c0-7.2,5.9-13.1,13.1-13.1H788c7.2,0,13.1,5.9,13.1,13.1v96.2
		C801.1,1540.2,795.2,1546,788,1546z"/>
	<path class="st4" d="M799,1561H541.2c-7.2,0-13.1-5.9-13.1-13.1v-96.2c0-7.2,5.9-13.1,13.1-13.1H799c7.2,0,13.1,5.9,13.1,13.1v96.2
		C812.1,1555.2,806.2,1561,799,1561z"/>
	<g>
		<path class="st2" d="M599.3,1508.5h-3.7l-1.5-4.1h-7.5l-1.5,4.1h-3.6l6.8-17.5h4.2L599.3,1508.5z M587.8,1501.2h5.1l-2.5-6.8
			L587.8,1501.2z"/>
		<path class="st2" d="M614,1502.4c0,3.6-2.5,6.4-5.9,6.4c-1.6,0-2.8-0.6-3.6-1.6v6.3h-3.2v-17.1h3.2v1.3c0.8-1,2-1.7,3.6-1.7
			C611.4,1496.1,614,1498.8,614,1502.4z M604.4,1502.4c0,1.9,1.3,3.3,3.1,3.3c1.9,0,3.1-1.5,3.1-3.3s-1.2-3.3-3.1-3.3
			C605.6,1499.1,604.4,1500.5,604.4,1502.4z"/>
		<path class="st2" d="M629.3,1502.4c0,3.6-2.5,6.4-5.9,6.4c-1.6,0-2.8-0.6-3.6-1.6v6.3h-3.2v-17.1h3.2v1.3c0.8-1,2-1.7,3.6-1.7
			C626.8,1496.1,629.3,1498.8,629.3,1502.4z M619.7,1502.4c0,1.9,1.3,3.3,3.1,3.3c1.9,0,3.1-1.5,3.1-3.3s-1.2-3.3-3.1-3.3
			C621,1499.1,619.7,1500.5,619.7,1502.4z"/>
		<path class="st2" d="M635.2,1508.5H632v-18h3.3L635.2,1508.5L635.2,1508.5z"/>
		<path class="st2" d="M642.3,1492.4c0,1.2-0.9,2.1-2.1,2.1s-2.1-0.9-2.1-2.1s0.9-2.1,2.1-2.1S642.3,1491.2,642.3,1492.4z
			 M641.9,1508.5h-3.3v-12.1h3.3V1508.5z"/>
		<path class="st2" d="M655.9,1498.3l-2.3,2c-0.7-0.8-1.5-1.2-2.6-1.2c-1.7,0-3,1.3-3,3.3s1.3,3.3,3,3.3c1,0,2-0.5,2.6-1.2l2.3,2
			c-1.1,1.5-2.8,2.3-4.9,2.3c-3.9,0-6.5-2.7-6.5-6.4c0-3.7,2.6-6.4,6.5-6.4C653.1,1496.1,654.8,1496.9,655.9,1498.3z"/>
		<path class="st2" d="M669.9,1508.5h-3.2v-1.3c-0.8,1-2,1.7-3.6,1.7c-3.3,0-5.9-2.7-5.9-6.4s2.5-6.4,5.9-6.4c1.7,0,2.8,0.7,3.6,1.7
			v-1.3h3.2V1508.5z M660.6,1502.4c0,1.8,1.2,3.3,3.1,3.3c1.9,0,3.1-1.4,3.1-3.3s-1.3-3.3-3.1-3.3
			C661.8,1499.1,660.6,1500.6,660.6,1502.4z"/>
		<path class="st2" d="M682.1,1499.3h-4.4v4.4c0,1.5,0.8,2.1,1.8,2.1c0.8,0,1.6-0.4,2.3-0.8l1.2,2.6c-1.1,0.7-2.3,1.3-4,1.3
			c-3,0-4.5-1.7-4.5-4.8v-4.7h-2.3v-2.9h2.3v-3.6h3.3v3.6h4.4L682.1,1499.3L682.1,1499.3z"/>
		<path class="st2" d="M688.7,1492.4c0,1.2-0.9,2.1-2.1,2.1s-2.1-0.9-2.1-2.1s0.9-2.1,2.1-2.1S688.7,1491.2,688.7,1492.4z
			 M688.3,1508.5H685v-12.1h3.3V1508.5z"/>
		<path class="st2" d="M704,1502.4c0,3.7-2.8,6.4-6.6,6.4s-6.5-2.7-6.5-6.4s2.8-6.4,6.5-6.4C701.2,1496.1,704,1498.8,704,1502.4z
			 M694.3,1502.4c0,2,1.4,3.3,3.2,3.3s3.2-1.4,3.2-3.3s-1.4-3.3-3.2-3.3S694.3,1500.5,694.3,1502.4z"/>
		<path class="st2" d="M718.2,1500.8v7.7h-3.3v-6.7c0-1.8-0.9-2.7-2.4-2.7c-1.4,0-2.6,0.9-2.6,2.7v6.6h-3.3v-12.1h3.2v1.4
			c0.9-1.3,2.2-1.8,3.6-1.8C716.2,1496.1,718.2,1498,718.2,1500.8z"/>
		<path class="st2" d="M735.7,1493.3c-3.2,1.5-4.9,4.6-4.9,8.1s1.7,6.6,4.9,8.1l-1,2.9c-4.4-1.7-7.3-5.9-7.3-11s3-9.3,7.3-11
			L735.7,1493.3z"/>
		<path class="st2" d="M746.7,1499.8c-1-0.5-2.5-1-3.9-1c-1.2,0-1.9,0.4-1.9,1.1s0.9,0.9,2,1l1.1,0.2c2.6,0.4,4.1,1.6,4.1,3.6
			c0,2.5-2,4.1-5.6,4.1c-1.7,0-3.8-0.3-5.4-1.4l1.3-2.5c1,0.7,2.3,1.2,4.1,1.2c1.5,0,2.2-0.4,2.2-1.1c0-0.6-0.6-0.9-2-1.1l-1-0.1
			c-2.8-0.4-4.2-1.6-4.2-3.7c0-2.5,1.9-4,5.1-4c1.9,0,3.5,0.4,5.1,1.2L746.7,1499.8z"/>
		<path class="st2" d="M749.5,1509.5c3.2-1.5,4.9-4.6,4.9-8.1s-1.7-6.6-4.9-8.1l1-2.9c4.4,1.7,7.3,5.9,7.3,11s-3,9.3-7.3,11
			L749.5,1509.5z"/>
	</g>
</g>
<g>
	<g>
		<path class="st2" d="M630.8,1043.3c-0.8,0-1.5-0.2-2.1-0.4s-1.1-0.7-1.5-1.3c-0.4-0.6-0.7-1.2-0.9-2c-0.2-0.8-0.3-1.7-0.3-2.8
			c0-1,0.1-1.9,0.3-2.8c0.2-0.8,0.5-1.5,0.9-2s0.9-1,1.5-1.3s1.3-0.4,2.1-0.4c1.6,0,2.8,0.6,3.6,1.7c0.8,1.1,1.2,2.7,1.2,4.8
			s-0.4,3.7-1.2,4.8C633.5,1042.7,632.3,1043.3,630.8,1043.3z M630.8,1041.4c0.4,0,0.8-0.1,1.1-0.2c0.3-0.1,0.5-0.4,0.7-0.7
			c0.2-0.3,0.3-0.7,0.4-1.1c0.1-0.4,0.1-0.9,0.1-1.5v-2.2c0-1.1-0.2-1.9-0.5-2.6c-0.3-0.7-0.9-0.9-1.8-0.9c-0.9,0-1.4,0.3-1.8,0.9
			c-0.3,0.6-0.5,1.5-0.5,2.6v2.2c0,1.1,0.2,1.9,0.5,2.6C629.3,1041.1,629.9,1041.4,630.8,1041.4z"/>
		<path class="st2" d="M637.6,1030.5h4.4c1.2,0,2.1,0.3,2.8,0.9c0.6,0.6,1,1.4,1,2.4c0,0.7-0.2,1.3-0.5,1.7
			c-0.3,0.4-0.8,0.7-1.5,0.9v0.1c0.8,0.2,1.3,0.5,1.8,1s0.7,1.1,0.7,2c0,0.5-0.1,1-0.3,1.4c-0.2,0.4-0.4,0.8-0.7,1.1
			c-0.3,0.3-0.7,0.6-1.2,0.7c-0.5,0.2-1,0.2-1.5,0.2h-4.8L637.6,1030.5L637.6,1030.5z M641.3,1035.9c0.6,0,1.1-0.1,1.4-0.3
			c0.3-0.2,0.5-0.6,0.5-1.2v-0.6c0-0.6-0.2-1-0.5-1.2c-0.3-0.2-0.8-0.3-1.4-0.3h-1.5v3.7L641.3,1035.9L641.3,1035.9z M641.8,1041.4
			c0.7,0,1.2-0.1,1.5-0.4c0.3-0.3,0.5-0.7,0.5-1.3v-0.6c0-0.6-0.2-1-0.5-1.2c-0.3-0.2-0.8-0.4-1.5-0.4h-1.8v3.8L641.8,1041.4
			L641.8,1041.4z"/>
		<path class="st2" d="M656,1030.5v9.1c0,0.6-0.1,1.1-0.3,1.5c-0.2,0.4-0.5,0.8-0.8,1.1c-0.3,0.3-0.8,0.6-1.3,0.7s-1,0.3-1.7,0.3
			c-1.2,0-2.1-0.3-2.8-0.9c-0.7-0.6-1.1-1.4-1.3-2.4l2.2-0.5c0.1,0.5,0.3,1,0.6,1.3c0.3,0.3,0.7,0.5,1.3,0.5c0.5,0,1-0.2,1.2-0.5
			c0.2-0.3,0.4-0.8,0.4-1.5v-6.9h-4.2v-1.9L656,1030.5L656,1030.5z"/>
		<path class="st2" d="M659.2,1043.1v-12.6h7.9v1.9h-5.6v3.3h5.4v1.9h-5.4v3.5h5.6v1.9L659.2,1043.1L659.2,1043.1z"/>
		<path class="st2" d="M674.2,1043.3c-1.6,0-2.9-0.6-3.7-1.7c-0.8-1.1-1.2-2.7-1.2-4.8c0-2.1,0.4-3.7,1.2-4.8c0.8-1.1,2-1.7,3.7-1.7
			c0.6,0,1.2,0.1,1.7,0.2c0.5,0.2,0.9,0.4,1.2,0.7c0.3,0.3,0.6,0.6,0.9,1.1c0.2,0.4,0.4,0.9,0.5,1.4l-2.2,0.6
			c-0.1-0.3-0.2-0.6-0.3-0.8s-0.2-0.5-0.4-0.7c-0.2-0.2-0.4-0.3-0.6-0.4c-0.2-0.1-0.5-0.2-0.9-0.2c-0.8,0-1.4,0.3-1.8,0.9
			c-0.3,0.6-0.5,1.5-0.5,2.6v2.2c0,1.1,0.2,1.9,0.5,2.6c0.3,0.6,0.9,0.9,1.8,0.9c0.3,0,0.6-0.1,0.9-0.2s0.4-0.2,0.6-0.4
			c0.2-0.2,0.3-0.4,0.4-0.7c0.1-0.3,0.2-0.5,0.3-0.8l2.2,0.6c-0.1,0.5-0.3,0.9-0.5,1.4c-0.2,0.4-0.5,0.8-0.9,1.1
			c-0.3,0.3-0.8,0.5-1.2,0.7C675.4,1043.2,674.9,1043.3,674.2,1043.3z"/>
		<path class="st2" d="M685.9,1032.5v10.6h-2.3v-10.6h-3.8v-1.9h9.9v1.9H685.9z"/>
	</g>
</g>
<g>
	<g>
		<path class="st5" d="M809.3,1316.3h-303c-6.6,0-12-5.4-12-11.9v-107.9c0-6.6,5.4-11.9,12-11.9h303.1c6.6,0,12,5.4,12,11.9v107.9
			C821.3,1311,815.9,1316.3,809.3,1316.3z M506.3,1190.5c-3.3,0-6,2.7-6,5.9v107.9c0,3.3,2.7,5.9,6,5.9h303.1c3.3,0,6-2.7,6-5.9
			v-107.9c0-3.3-2.7-5.9-6-5.9H506.3z"/>
	</g>
	<path class="st5" d="M637.6,1242.6H517.2c-3.3,0-6.1-2.7-6.1-6.1v-28.8c0-3.3,2.7-6.1,6.1-6.1h120.4c3.3,0,6.1,2.7,6.1,6.1v28.8
		C643.7,1239.8,640.9,1242.6,637.6,1242.6z"/>
	<circle class="st6" cx="577.4" cy="1221.5" r="8.4"/>
	<path class="st6" d="M528.9,1235.9v-27.6c0-0.3,0.3-0.6,0.6-0.6h4.9c0.3,0,0.6,0.3,0.6,0.6v27.6c0,0.3-0.3,0.6-0.6,0.6h-4.9
		C529.1,1236.5,528.9,1236.2,528.9,1235.9z"/>
	<path class="st6" d="M539.7,1235.9v-27.6c0-0.3,0.3-0.6,0.6-0.6h4.9c0.3,0,0.6,0.3,0.6,0.6v27.6c0,0.3-0.3,0.6-0.6,0.6h-4.9
		C539.9,1236.5,539.7,1236.2,539.7,1235.9z"/>
	<path class="st6" d="M518.1,1235.9v-27.6c0-0.3,0.3-0.6,0.6-0.6h4.9c0.3,0,0.6,0.3,0.6,0.6v27.6c0,0.3-0.3,0.6-0.6,0.6h-4.9
		C518.4,1236.5,518.1,1236.2,518.1,1235.9z"/>
	<path class="st6" d="M620,1235.9v-27.6c0-0.3,0.3-0.6,0.6-0.6h4.9c0.3,0,0.6,0.3,0.6,0.6v27.6c0,0.3-0.3,0.6-0.6,0.6h-4.9
		C620.3,1236.5,620,1236.2,620,1235.9z"/>
	<path class="st6" d="M630.8,1235.9v-27.6c0-0.3,0.3-0.6,0.6-0.6h4.9c0.3,0,0.6,0.3,0.6,0.6v27.6c0,0.3-0.3,0.6-0.6,0.6h-4.9
		C631.1,1236.5,630.8,1236.2,630.8,1235.9z"/>
	<path class="st6" d="M609.3,1235.9v-27.6c0-0.3,0.3-0.6,0.6-0.6h4.9c0.3,0,0.6,0.3,0.6,0.6v27.6c0,0.3-0.3,0.6-0.6,0.6h-4.9
		C609.5,1236.5,609.3,1236.2,609.3,1235.9z"/>
	<g>
		<path class="st5" d="M637.6,1297.6H517.2c-3.3,0-6.1-2.7-6.1-6.1v-28.8c0-3.3,2.7-6.1,6.1-6.1h120.4c3.3,0,6.1,2.7,6.1,6.1v28.8
			C643.7,1294.9,640.9,1297.6,637.6,1297.6z"/>
		<circle class="st6" cx="577.4" cy="1276.6" r="8.4"/>
		<path class="st6" d="M528.9,1291v-27.6c0-0.3,0.3-0.6,0.6-0.6h4.9c0.3,0,0.6,0.3,0.6,0.6v27.6c0,0.3-0.3,0.6-0.6,0.6h-4.9
			C529.1,1291.6,528.9,1291.3,528.9,1291z"/>
		<path class="st6" d="M539.7,1291v-27.6c0-0.3,0.3-0.6,0.6-0.6h4.9c0.3,0,0.6,0.3,0.6,0.6v27.6c0,0.3-0.3,0.6-0.6,0.6h-4.9
			C539.9,1291.6,539.7,1291.3,539.7,1291z"/>
		<path class="st6" d="M518.1,1291v-27.6c0-0.3,0.3-0.6,0.6-0.6h4.9c0.3,0,0.6,0.3,0.6,0.6v27.6c0,0.3-0.3,0.6-0.6,0.6h-4.9
			C518.4,1291.6,518.1,1291.3,518.1,1291z"/>
		<path class="st6" d="M620,1291v-27.6c0-0.3,0.3-0.6,0.6-0.6h4.9c0.3,0,0.6,0.3,0.6,0.6v27.6c0,0.3-0.3,0.6-0.6,0.6h-4.9
			C620.3,1291.6,620,1291.3,620,1291z"/>
		<path class="st6" d="M630.8,1291v-27.6c0-0.3,0.3-0.6,0.6-0.6h4.9c0.3,0,0.6,0.3,0.6,0.6v27.6c0,0.3-0.3,0.6-0.6,0.6h-4.9
			C631.1,1291.6,630.8,1291.3,630.8,1291z"/>
		<path class="st6" d="M609.3,1291v-27.6c0-0.3,0.3-0.6,0.6-0.6h4.9c0.3,0,0.6,0.3,0.6,0.6v27.6c0,0.3-0.3,0.6-0.6,0.6h-4.9
			C609.5,1291.6,609.3,1291.3,609.3,1291z"/>
	</g>
	<path class="st5" d="M798.1,1242.6H677.6c-3.3,0-6.1-2.7-6.1-6.1v-28.8c0-3.3,2.7-6.1,6.1-6.1H798c3.3,0,6.1,2.7,6.1,6.1v28.8
		C804.1,1239.8,801.4,1242.6,798.1,1242.6z"/>
	<circle class="st6" cx="737.9" cy="1221.5" r="8.4"/>
	<path class="st6" d="M689.4,1235.9v-27.6c0-0.3,0.3-0.6,0.6-0.6h4.9c0.3,0,0.6,0.3,0.6,0.6v27.6c0,0.3-0.3,0.6-0.6,0.6H690
		C689.6,1236.5,689.4,1236.2,689.4,1235.9z"/>
	<path class="st6" d="M700.1,1235.9v-27.6c0-0.3,0.3-0.6,0.6-0.6h4.9c0.3,0,0.6,0.3,0.6,0.6v27.6c0,0.3-0.3,0.6-0.6,0.6h-4.9
		C700.4,1236.5,700.1,1236.2,700.1,1235.9z"/>
	<path class="st6" d="M678.6,1235.9v-27.6c0-0.3,0.3-0.6,0.6-0.6h4.9c0.3,0,0.6,0.3,0.6,0.6v27.6c0,0.3-0.3,0.6-0.6,0.6h-4.9
		C678.9,1236.5,678.6,1236.2,678.6,1235.9z"/>
	<path class="st6" d="M780.5,1235.9v-27.6c0-0.3,0.3-0.6,0.6-0.6h4.9c0.3,0,0.6,0.3,0.6,0.6v27.6c0,0.3-0.3,0.6-0.6,0.6h-4.9
		C780.8,1236.5,780.5,1236.2,780.5,1235.9z"/>
	<path class="st6" d="M791.3,1235.9v-27.6c0-0.3,0.3-0.6,0.6-0.6h4.9c0.3,0,0.6,0.3,0.6,0.6v27.6c0,0.3-0.3,0.6-0.6,0.6h-4.9
		C791.6,1236.5,791.3,1236.2,791.3,1235.9z"/>
	<path class="st6" d="M769.8,1235.9v-27.6c0-0.3,0.3-0.6,0.6-0.6h4.9c0.3,0,0.6,0.3,0.6,0.6v27.6c0,0.3-0.3,0.6-0.6,0.6h-4.9
		C770,1236.5,769.8,1236.2,769.8,1235.9z"/>
	<g>
		<path class="st5" d="M798.1,1297.6H677.6c-3.3,0-6.1-2.7-6.1-6.1v-28.8c0-3.3,2.7-6.1,6.1-6.1H798c3.3,0,6.1,2.7,6.1,6.1v28.8
			C804.1,1294.9,801.4,1297.6,798.1,1297.6z"/>
		<circle class="st6" cx="737.9" cy="1276.6" r="8.4"/>
		<path class="st6" d="M689.4,1291v-27.6c0-0.3,0.3-0.6,0.6-0.6h4.9c0.3,0,0.6,0.3,0.6,0.6v27.6c0,0.3-0.3,0.6-0.6,0.6H690
			C689.6,1291.6,689.4,1291.3,689.4,1291z"/>
		<path class="st6" d="M700.1,1291v-27.6c0-0.3,0.3-0.6,0.6-0.6h4.9c0.3,0,0.6,0.3,0.6,0.6v27.6c0,0.3-0.3,0.6-0.6,0.6h-4.9
			C700.4,1291.6,700.1,1291.3,700.1,1291z"/>
		<path class="st6" d="M678.6,1291v-27.6c0-0.3,0.3-0.6,0.6-0.6h4.9c0.3,0,0.6,0.3,0.6,0.6v27.6c0,0.3-0.3,0.6-0.6,0.6h-4.9
			C678.9,1291.6,678.6,1291.3,678.6,1291z"/>
		<path class="st6" d="M780.5,1291v-27.6c0-0.3,0.3-0.6,0.6-0.6h4.9c0.3,0,0.6,0.3,0.6,0.6v27.6c0,0.3-0.3,0.6-0.6,0.6h-4.9
			C780.8,1291.6,780.5,1291.3,780.5,1291z"/>
		<path class="st6" d="M791.3,1291v-27.6c0-0.3,0.3-0.6,0.6-0.6h4.9c0.3,0,0.6,0.3,0.6,0.6v27.6c0,0.3-0.3,0.6-0.6,0.6h-4.9
			C791.6,1291.6,791.3,1291.3,791.3,1291z"/>
		<path class="st6" d="M769.8,1291v-27.6c0-0.3,0.3-0.6,0.6-0.6h4.9c0.3,0,0.6,0.3,0.6,0.6v27.6c0,0.3-0.3,0.6-0.6,0.6h-4.9
			C770,1291.6,769.8,1291.3,769.8,1291z"/>
	</g>
</g>
<linearGradient id="SVGID_00000041266035267890473280000017046929354633395584_" gradientUnits="userSpaceOnUse" x1="656.2847" y1="395.3613" x2="656.2847" y2="540.9617" gradientTransform="matrix(1 0 0 1 0 566)">
	<stop  offset="0" style="stop-color:#10535A"/>
	<stop  offset="1" style="stop-color:#102E46"/>
</linearGradient>
<path style="fill:url(#SVGID_00000041266035267890473280000017046929354633395584_);" d="M708.3,1005.5c0.2-7.6,0.5-15.5-0.2-23
	c-0.5-5.6-3-10.4-8.6-12.4c-0.8-0.3-1.6-0.5-2.4-0.7c-3.1-0.7-6.5-0.8-9.6-0.9c-5.6-0.2-11.3,0.2-16.9,0.2
	c-11.3,0-22.5,0.2-33.8,0.2c-1.3,0-2.7,0-4.1,0c-6.8,0-13.5,0-20.3,0c-4.6,0-8.3,3.7-8.3,8.3v105.9c0,4.6,3.7,8.3,8.3,8.3H700
	c4.6,0,8.3-3.7,8.3-8.3c0-5.6,0-11.3,0-16.9c0-11.9,0-23.9,0-35.9C708.4,1022,708.1,1013.7,708.3,1005.5z M698.3,1075.6
	c0,3.9-3.2,7.2-7.2,7.2h-71.2c-4,0-7.2-3.2-7.2-7.2v-91c0-4,3.2-7.2,7.2-7.2h47.8v12.2c0,10,8.1,18.1,18.1,18.1h12.5L698.3,1075.6
	L698.3,1075.6z M698.3,999.9h-12.5c-5.6,0-10.2-4.6-10.2-10.2v-12.2h15.5c4,0,7.2,3.2,7.2,7.2V999.9L698.3,999.9z"/>
<path class="st3" d="M811.1,1165.6H504.5c-4.9,0-9-4-9-8.9v-37.5c0-4.9,4-8.9,9-8.9h306.6c4.9,0,9,4,9,8.9v37.5
	C820,1161.6,816,1165.6,811.1,1165.6z"/>
<g>
	<path class="st2" d="M523.5,1129.8h1.3v5h0.1c0.1-0.2,0.2-0.4,0.3-0.6s0.3-0.3,0.5-0.5s0.4-0.2,0.7-0.3s0.6-0.1,0.9-0.1
		c0.9,0,1.6,0.3,2.1,0.8c0.5,0.6,0.8,1.3,0.8,2.3v5.3h-1.4v-5.1c0-0.8-0.2-1.3-0.5-1.7s-0.8-0.6-1.5-0.6c-0.3,0-0.5,0-0.8,0.1
		c-0.2,0.1-0.5,0.2-0.7,0.3s-0.3,0.3-0.5,0.5c-0.1,0.2-0.2,0.4-0.2,0.7v5.8h-1.3L523.5,1129.8L523.5,1129.8z"/>
	<path class="st2" d="M536.8,1141.7c-0.6,0-1.1-0.2-1.4-0.5c-0.3-0.3-0.4-0.8-0.4-1.4v-5.3h-2.8v-1.1h2.1c0.3,0,0.5-0.1,0.6-0.2
		s0.2-0.3,0.2-0.6v-2.2h1.2v2.9h3.8v1.1h-3.8v6.1h3.8v1.1L536.8,1141.7L536.8,1141.7z"/>
	<path class="st2" d="M546.6,1141.7c-0.6,0-1.1-0.2-1.4-0.5c-0.3-0.3-0.5-0.8-0.5-1.4v-5.3h-2.8v-1.1h2.1c0.3,0,0.5-0.1,0.6-0.2
		s0.2-0.3,0.2-0.6v-2.2h1.2v2.9h3.8v1.1H546v6.1h3.8v1.1L546.6,1141.7L546.6,1141.7z"/>
	<path class="st2" d="M552.6,1133.4h1.3v1.4h0.1c0.5-1,1.4-1.6,2.6-1.6c1,0,1.8,0.4,2.4,1.2s0.9,1.8,0.9,3.2s-0.3,2.4-0.9,3.2
		s-1.4,1.2-2.4,1.2c-1.2,0-2-0.5-2.6-1.6h-0.2v4.6h-1.3L552.6,1133.4L552.6,1133.4z M556,1140.8c0.8,0,1.3-0.2,1.8-0.7
		c0.4-0.5,0.6-1.1,0.6-1.8v-1.4c0-0.8-0.2-1.4-0.6-1.8s-1-0.7-1.8-0.7c-0.3,0-0.6,0-0.8,0.1c-0.3,0.1-0.5,0.2-0.7,0.3
		s-0.3,0.3-0.5,0.5s-0.2,0.5-0.2,0.7v3c0,0.3,0.1,0.5,0.2,0.7s0.3,0.4,0.5,0.5s0.4,0.3,0.7,0.3
		C555.4,1140.7,555.7,1140.8,556,1140.8z"/>
	<path class="st2" d="M565.7,1141.9c-0.9,0-1.6-0.2-2.3-0.4c-0.6-0.3-1.2-0.7-1.6-1.2l0.9-0.8c0.4,0.4,0.8,0.7,1.3,1s1,0.3,1.7,0.3
		s1.2-0.1,1.6-0.3s0.6-0.6,0.6-1.1c0-0.2,0-0.4-0.1-0.5c-0.1-0.2-0.2-0.3-0.3-0.3s-0.3-0.2-0.5-0.2c-0.2-0.1-0.4-0.1-0.5-0.1
		l-1.3-0.2c-0.3,0-0.6-0.1-1-0.2c-0.3-0.1-0.7-0.2-0.9-0.4c-0.3-0.2-0.5-0.4-0.7-0.7c-0.2-0.3-0.3-0.7-0.3-1.1s0.1-0.8,0.2-1.1
		c0.2-0.3,0.4-0.6,0.7-0.8s0.7-0.4,1.1-0.5s0.9-0.2,1.3-0.2c0.8,0,1.4,0.1,2,0.4c0.5,0.2,1,0.6,1.4,1l-0.8,0.8
		c-0.1-0.1-0.2-0.2-0.4-0.4c-0.2-0.1-0.3-0.2-0.5-0.3s-0.5-0.2-0.7-0.2c-0.3-0.1-0.6-0.1-1-0.1c-0.7,0-1.2,0.1-1.5,0.3
		s-0.5,0.6-0.5,1c0,0.2,0,0.4,0.1,0.5c0.1,0.2,0.2,0.3,0.3,0.3s0.3,0.2,0.5,0.2c0.2,0.1,0.4,0.1,0.5,0.1l1.3,0.2
		c0.3,0,0.6,0.1,1,0.2c0.3,0.1,0.6,0.2,0.9,0.4c0.3,0.2,0.5,0.4,0.7,0.7s0.3,0.7,0.3,1.1c0,0.8-0.3,1.5-1,1.9
		S566.7,1141.9,565.7,1141.9z"/>
	<path class="st2" d="M575.3,1135.5c-0.4,0-0.8-0.1-0.9-0.3s-0.3-0.4-0.3-0.7v-0.3c0-0.3,0.1-0.5,0.3-0.7s0.5-0.3,0.9-0.3
		s0.8,0.1,0.9,0.3s0.3,0.4,0.3,0.7v0.3c0,0.3-0.1,0.5-0.3,0.7C576,1135.4,575.7,1135.5,575.3,1135.5z M575.3,1141.9
		c-0.4,0-0.8-0.1-0.9-0.3s-0.3-0.4-0.3-0.7v-0.3c0-0.3,0.1-0.5,0.3-0.7s0.5-0.3,0.9-0.3s0.8,0.1,0.9,0.3s0.3,0.4,0.3,0.7v0.3
		c0,0.3-0.1,0.5-0.3,0.7S575.7,1141.9,575.3,1141.9z"/>
	<path class="st2" d="M581.6,1144l5.6-14.5h1.2l-5.6,14.5H581.6z"/>
	<path class="st2" d="M591.3,1144l5.6-14.5h1.2l-5.6,14.5H591.3z"/>
	<path class="st2" d="M600.4,1141.7v-8.3h1.2v1h0.1c0.1-0.3,0.3-0.6,0.5-0.8s0.6-0.3,1-0.3c0.5,0,0.8,0.1,1.1,0.4
		c0.2,0.2,0.4,0.6,0.4,0.9l0,0c0.2-0.4,0.4-0.7,0.7-0.9s0.7-0.4,1.2-0.4c0.7,0,1.1,0.2,1.4,0.7c0.2,0.5,0.3,1.2,0.3,2v5.8h-1.2v-5.6
		c0-0.7-0.1-1.2-0.2-1.5s-0.4-0.4-0.8-0.4c-0.3,0-0.6,0.1-0.8,0.3c-0.2,0.2-0.3,0.6-0.3,1v6.1h-1.2v-5.6c0-0.7-0.1-1.2-0.2-1.5
		s-0.4-0.4-0.8-0.4c-0.3,0-0.6,0.1-0.8,0.3s-0.3,0.6-0.3,1v6.1L600.4,1141.7L600.4,1141.7z"/>
	<path class="st2" d="M611,1140.6h3v-6.1h-3v-1.1h4.3v7.2h2.8v1.1H611V1140.6z M614.6,1131.5c-0.4,0-0.6-0.1-0.8-0.2
		s-0.2-0.3-0.2-0.6v-0.3c0-0.2,0.1-0.4,0.2-0.6c0.2-0.2,0.4-0.2,0.8-0.2c0.4,0,0.6,0.1,0.8,0.2c0.2,0.2,0.2,0.3,0.2,0.6v0.3
		c0,0.2-0.1,0.4-0.2,0.6S615,1131.5,614.6,1131.5z"/>
	<path class="st2" d="M620.5,1141.7v-8.3h1.3v1.4h0.1c0.1-0.2,0.2-0.4,0.3-0.6s0.3-0.3,0.5-0.5s0.4-0.2,0.7-0.3s0.6-0.1,0.9-0.1
		c0.9,0,1.6,0.3,2.1,0.8c0.5,0.6,0.8,1.3,0.8,2.3v5.3h-1.3v-5.1c0-0.8-0.2-1.3-0.5-1.7c-0.3-0.4-0.8-0.6-1.5-0.6
		c-0.3,0-0.5,0-0.8,0.1c-0.2,0.1-0.5,0.2-0.7,0.3s-0.3,0.3-0.5,0.5c-0.1,0.2-0.2,0.4-0.2,0.7v5.8L620.5,1141.7L620.5,1141.7z"/>
	<path class="st2" d="M630.4,1140.6h3v-6.1h-3v-1.1h4.3v7.2h2.8v1.1h-7.1V1140.6L630.4,1140.6z M634,1131.5c-0.4,0-0.6-0.1-0.8-0.2
		c-0.2-0.2-0.2-0.3-0.2-0.6v-0.3c0-0.2,0.1-0.4,0.2-0.6c0.2-0.2,0.4-0.2,0.8-0.2c0.4,0,0.6,0.1,0.8,0.2c0.2,0.2,0.2,0.3,0.2,0.6v0.3
		c0,0.2-0.1,0.4-0.2,0.6S634.4,1131.5,634,1131.5z"/>
	<path class="st2" d="M643.2,1141.9c-0.6,0-1.1-0.1-1.6-0.3c-0.5-0.2-0.9-0.5-1.2-0.9s-0.6-0.8-0.8-1.4c-0.2-0.5-0.3-1.1-0.3-1.8
		c0-0.7,0.1-1.3,0.3-1.8s0.4-1,0.8-1.4s0.7-0.7,1.2-0.9c0.5-0.2,1-0.3,1.6-0.3s1.1,0.1,1.6,0.3c0.5,0.2,0.9,0.5,1.2,0.9
		s0.6,0.8,0.8,1.4s0.3,1.1,0.3,1.8c0,0.7-0.1,1.3-0.3,1.8s-0.4,1-0.8,1.4s-0.7,0.7-1.2,0.9S643.8,1141.9,643.2,1141.9z
		 M643.2,1140.8c0.7,0,1.3-0.2,1.8-0.7c0.4-0.4,0.7-1.1,0.7-2v-1.2c0-0.9-0.2-1.6-0.7-2c-0.4-0.4-1-0.7-1.8-0.7s-1.3,0.2-1.8,0.7
		c-0.4,0.4-0.7,1.1-0.7,2v1.2c0,0.9,0.2,1.6,0.7,2C641.9,1140.6,642.5,1140.8,643.2,1140.8z"/>
	<path class="st2" d="M650.6,1137.5v-1.4h4.7v1.4H650.6z"/>
	<path class="st2" d="M662.6,1141.9c-0.7,0-1.3-0.1-1.8-0.4s-0.9-0.6-1.2-1.1s-0.6-1.1-0.7-1.8c-0.2-0.7-0.2-1.6-0.2-2.5
		s0.1-1.7,0.2-2.5c0.2-0.7,0.4-1.3,0.7-1.8s0.7-0.9,1.2-1.1s1.1-0.4,1.8-0.4s1.3,0.1,1.8,0.4s0.9,0.6,1.2,1.1s0.6,1.1,0.7,1.8
		s0.2,1.6,0.2,2.5s-0.1,1.8-0.2,2.5c-0.2,0.7-0.4,1.3-0.7,1.8s-0.7,0.9-1.2,1.1S663.3,1141.9,662.6,1141.9z M662.6,1140.7
		c0.5,0,0.8-0.1,1.2-0.3c0.3-0.2,0.6-0.4,0.8-0.8c0.2-0.3,0.3-0.7,0.4-1.2c0.1-0.5,0.2-1,0.2-1.5v-1.8c0-0.6,0-1.1-0.2-1.5
		c-0.1-0.5-0.2-0.9-0.4-1.2c-0.2-0.3-0.5-0.6-0.8-0.8c-0.3-0.2-0.7-0.3-1.2-0.3s-0.8,0.1-1.2,0.3c-0.3,0.2-0.6,0.4-0.8,0.8
		s-0.3,0.7-0.5,1.2c-0.1,0.5-0.2,1-0.2,1.5v1.8c0,0.6,0,1.1,0.2,1.5c0.1,0.5,0.2,0.8,0.5,1.2c0.2,0.3,0.5,0.6,0.8,0.8
		C661.8,1140.7,662.2,1140.7,662.6,1140.7z M662.6,1137c-0.4,0-0.6-0.1-0.8-0.2c-0.2-0.2-0.2-0.3-0.2-0.6v-0.4
		c0-0.2,0.1-0.4,0.2-0.6s0.4-0.2,0.8-0.2s0.6,0.1,0.8,0.2s0.2,0.3,0.2,0.6v0.4c0,0.2-0.1,0.4-0.2,0.6
		C663.3,1137,663,1137,662.6,1137z"/>
	<path class="st2" d="M676.2,1141.7h-7.5v-1.4l3.8-3.4c0.5-0.5,1-1,1.4-1.5s0.5-1.1,0.5-1.7v-0.2c0-0.7-0.2-1.2-0.5-1.6
		c-0.4-0.4-0.9-0.6-1.6-0.6c-0.7,0-1.2,0.2-1.6,0.5s-0.7,0.8-0.8,1.4l-1.2-0.4c0.1-0.3,0.3-0.7,0.5-1s0.4-0.6,0.7-0.8
		s0.6-0.4,1.1-0.6s0.9-0.2,1.5-0.2s1.1,0.1,1.5,0.2s0.8,0.4,1.1,0.7s0.5,0.6,0.7,1s0.2,0.8,0.2,1.3c0,0.4-0.1,0.8-0.2,1.2
		s-0.3,0.7-0.5,1.1c-0.2,0.3-0.5,0.7-0.8,1s-0.7,0.7-1,1l-3.2,2.8h6.1L676.2,1141.7L676.2,1141.7z"/>
	<path class="st2" d="M682,1141.9c-0.4,0-0.8-0.1-0.9-0.3s-0.3-0.4-0.3-0.7v-0.3c0-0.3,0.1-0.5,0.3-0.7s0.5-0.3,0.9-0.3
		s0.8,0.1,0.9,0.3s0.3,0.4,0.3,0.7v0.3c0,0.3-0.1,0.5-0.3,0.7S682.5,1141.9,682,1141.9z"/>
	<path class="st2" d="M691.9,1141.9c-0.6,0-1.2-0.1-1.6-0.3c-0.5-0.2-0.9-0.5-1.2-0.9s-0.6-0.8-0.8-1.4c-0.2-0.5-0.3-1.1-0.3-1.8
		c0-0.7,0.1-1.3,0.3-1.8s0.5-1,0.8-1.4s0.7-0.7,1.2-0.9c0.5-0.2,1-0.3,1.6-0.3s1.1,0.1,1.5,0.3c0.5,0.2,0.8,0.5,1.2,0.8
		s0.6,0.8,0.7,1.3s0.3,1,0.3,1.6v0.6h-6.2v0.4c0,0.4,0.1,0.7,0.2,1s0.3,0.6,0.5,0.8s0.5,0.4,0.8,0.5s0.7,0.2,1.1,0.2
		c0.6,0,1-0.1,1.5-0.4c0.4-0.3,0.7-0.6,0.9-1.1l1,0.7c-0.2,0.6-0.7,1-1.2,1.4C693.4,1141.7,692.7,1141.9,691.9,1141.9z
		 M691.8,1134.2c-0.4,0-0.7,0.1-1,0.2s-0.6,0.3-0.8,0.5s-0.4,0.5-0.5,0.8s-0.2,0.6-0.2,1v0.1h4.8v-0.2c0-0.4-0.1-0.7-0.2-1
		s-0.3-0.6-0.5-0.8c-0.2-0.2-0.4-0.4-0.7-0.5C692.5,1134.3,692.1,1134.2,691.8,1134.2z"/>
	<path class="st2" d="M697.6,1141.7l3.1-4.2l-3-4.1h1.5l1.3,1.8l1,1.4h0.1l1-1.4l1.2-1.8h1.5l-3.1,4.1l3.1,4.2h-1.5l-1.4-2l-1-1.3
		h-0.1l-0.9,1.3l-1.4,2H697.6L697.6,1141.7z"/>
	<path class="st2" d="M714.3,1141.7c-0.5,0-0.9-0.1-1.1-0.4s-0.3-0.6-0.4-1h-0.1c-0.2,0.5-0.5,0.9-0.9,1.1s-1,0.4-1.6,0.4
		c-0.9,0-1.6-0.2-2.1-0.7s-0.8-1.1-0.8-1.9s0.3-1.4,0.8-1.8c0.6-0.4,1.5-0.6,2.7-0.6h1.8v-0.8c0-0.6-0.2-1.1-0.5-1.4
		s-0.8-0.5-1.5-0.5c-0.6,0-1,0.1-1.4,0.3s-0.6,0.5-0.9,0.9l-0.9-0.7c0.1-0.2,0.2-0.4,0.4-0.6s0.4-0.4,0.7-0.6s0.6-0.3,0.9-0.4
		c0.3-0.1,0.7-0.1,1.2-0.1c1,0,1.8,0.2,2.3,0.8s0.9,1.2,0.9,2.1v4.6h1.2v1.1L714.3,1141.7L714.3,1141.7z M710.5,1140.8
		c0.3,0,0.6,0,0.9-0.1c0.3-0.1,0.5-0.2,0.7-0.3c0.2-0.1,0.4-0.3,0.5-0.5s0.2-0.4,0.2-0.6v-1.4H711c-0.8,0-1.3,0.1-1.7,0.3
		c-0.4,0.2-0.5,0.5-0.5,0.9v0.3c0,0.4,0.2,0.8,0.5,1S709.9,1140.8,710.5,1140.8z"/>
	<path class="st2" d="M716.9,1141.7v-8.3h1.2v1h0.1c0.1-0.3,0.3-0.6,0.5-0.8s0.6-0.3,1-0.3c0.5,0,0.8,0.1,1.1,0.4
		c0.2,0.2,0.4,0.6,0.4,0.9l0,0c0.2-0.4,0.4-0.7,0.7-0.9s0.7-0.4,1.2-0.4c0.7,0,1.1,0.2,1.4,0.7c0.2,0.5,0.3,1.2,0.3,2v5.8h-1.2v-5.6
		c0-0.7-0.1-1.2-0.2-1.5s-0.4-0.4-0.8-0.4c-0.3,0-0.6,0.1-0.8,0.3c-0.2,0.2-0.3,0.6-0.3,1v6.1h-1.2v-5.6c0-0.7-0.1-1.2-0.2-1.5
		s-0.4-0.4-0.8-0.4c-0.3,0-0.6,0.1-0.8,0.3s-0.3,0.6-0.3,1v6.1L716.9,1141.7L716.9,1141.7z"/>
	<path class="st2" d="M727.3,1133.4h1.3v1.4h0.1c0.5-1,1.4-1.6,2.6-1.6c1,0,1.8,0.4,2.4,1.2s0.9,1.8,0.9,3.2s-0.3,2.4-0.9,3.2
		s-1.4,1.2-2.4,1.2c-1.2,0-2-0.5-2.6-1.6h-0.1v4.6h-1.3V1133.4z M730.7,1140.8c0.8,0,1.3-0.2,1.8-0.7c0.4-0.5,0.6-1.1,0.6-1.8v-1.4
		c0-0.8-0.2-1.4-0.6-1.8s-1-0.7-1.8-0.7c-0.3,0-0.6,0-0.8,0.1c-0.3,0.1-0.5,0.2-0.7,0.3s-0.3,0.3-0.5,0.5s-0.2,0.5-0.2,0.7v3
		c0,0.3,0.1,0.5,0.2,0.7s0.3,0.4,0.5,0.5s0.4,0.3,0.7,0.3C730.1,1140.7,730.4,1140.8,730.7,1140.8z"/>
	<path class="st2" d="M736.7,1140.6h2.9v-9.7h-2.9v-1.1h4.2v10.8h2.9v1.1h-7.1L736.7,1140.6L736.7,1140.6z"/>
	<path class="st2" d="M750.1,1141.9c-0.6,0-1.2-0.1-1.6-0.3c-0.5-0.2-0.9-0.5-1.2-0.9s-0.6-0.8-0.8-1.4c-0.2-0.5-0.3-1.1-0.3-1.8
		c0-0.7,0.1-1.3,0.3-1.8s0.5-1,0.8-1.4s0.7-0.7,1.2-0.9c0.5-0.2,1-0.3,1.6-0.3s1.1,0.1,1.5,0.3c0.5,0.2,0.8,0.5,1.2,0.8
		s0.6,0.8,0.7,1.3s0.3,1,0.3,1.6v0.6h-6.2v0.4c0,0.4,0.1,0.7,0.2,1s0.3,0.6,0.5,0.8s0.5,0.4,0.8,0.5s0.7,0.2,1.1,0.2
		c0.6,0,1-0.1,1.5-0.4c0.4-0.3,0.7-0.6,0.9-1.1l1,0.7c-0.2,0.6-0.7,1-1.2,1.4C751.7,1141.7,751,1141.9,750.1,1141.9z M750,1134.2
		c-0.4,0-0.7,0.1-1,0.2s-0.6,0.3-0.8,0.5s-0.4,0.5-0.5,0.8s-0.2,0.6-0.2,1v0.1h4.8v-0.2c0-0.4-0.1-0.7-0.2-1s-0.3-0.6-0.5-0.8
		c-0.2-0.2-0.4-0.4-0.7-0.5C750.7,1134.3,750.4,1134.2,750,1134.2z"/>
	<path class="st2" d="M759.7,1141.9c-0.4,0-0.8-0.1-0.9-0.3s-0.3-0.4-0.3-0.7v-0.3c0-0.3,0.1-0.5,0.3-0.7s0.5-0.3,0.9-0.3
		s0.8,0.1,0.9,0.3s0.3,0.4,0.3,0.7v0.3c0,0.3-0.1,0.5-0.3,0.7S760.1,1141.9,759.7,1141.9z"/>
	<path class="st2" d="M766.1,1141.7v-8.3h1.3v1.4h0.1c0.1-0.2,0.2-0.4,0.3-0.6s0.3-0.3,0.5-0.5s0.4-0.2,0.7-0.3s0.6-0.1,0.9-0.1
		c0.9,0,1.6,0.3,2.1,0.8c0.5,0.6,0.8,1.3,0.8,2.3v5.3h-1.3v-5.1c0-0.8-0.2-1.3-0.5-1.7c-0.3-0.4-0.8-0.6-1.5-0.6
		c-0.3,0-0.5,0-0.8,0.1c-0.2,0.1-0.5,0.2-0.7,0.3s-0.3,0.3-0.5,0.5c-0.1,0.2-0.2,0.4-0.2,0.7v5.8L766.1,1141.7L766.1,1141.7z"/>
	<path class="st2" d="M779.2,1141.9c-0.6,0-1.2-0.1-1.6-0.3s-0.9-0.5-1.2-0.9s-0.6-0.8-0.8-1.4c-0.2-0.5-0.3-1.1-0.3-1.8
		c0-0.7,0.1-1.3,0.3-1.8s0.5-1,0.8-1.4s0.7-0.7,1.2-0.9c0.5-0.2,1-0.3,1.6-0.3s1.1,0.1,1.5,0.3c0.5,0.2,0.8,0.5,1.2,0.8
		s0.6,0.8,0.7,1.3s0.3,1,0.3,1.6v0.6h-6.2v0.4c0,0.4,0.1,0.7,0.2,1s0.3,0.6,0.5,0.8c0.2,0.2,0.5,0.4,0.8,0.5s0.7,0.2,1.1,0.2
		c0.6,0,1-0.1,1.5-0.4c0.4-0.3,0.7-0.6,0.9-1.1l1,0.7c-0.2,0.6-0.7,1-1.2,1.4C780.8,1141.7,780.1,1141.9,779.2,1141.9z
		 M779.2,1134.2c-0.4,0-0.7,0.1-1,0.2s-0.6,0.3-0.8,0.5s-0.4,0.5-0.5,0.8s-0.2,0.6-0.2,1v0.1h4.8v-0.2c0-0.4-0.1-0.7-0.2-1
		s-0.3-0.6-0.5-0.8c-0.2-0.2-0.4-0.4-0.7-0.5C779.8,1134.3,779.5,1134.2,779.2,1134.2z"/>
	<path class="st2" d="M789.2,1141.7c-0.6,0-1.1-0.2-1.4-0.5c-0.3-0.3-0.5-0.8-0.5-1.4v-5.3h-2.8v-1.1h2.1c0.3,0,0.5-0.1,0.6-0.2
		s0.2-0.3,0.2-0.6v-2.2h1.2v2.9h3.8v1.1h-3.8v6.1h3.8v1.1L789.2,1141.7L789.2,1141.7z"/>
</g>
<rect x="865.2" y="1441.4" class="st12" width="326.6" height="119"/>
<g>
	<g>
		<g>
			<path class="st2" d="M940.7,1474.8l-1.1,1c-0.9-1.1-2.2-1.8-3.8-1.8c-2.8,0-5,2.1-5,5.1s2.2,5.1,4.9,5.1s4.3-1.6,4.5-4.2h-3.9
				v-1.3h5.5c0,0.1,0,0.2,0,0.4c0,3.7-2.3,6.5-6.1,6.5c-3.3,0-6.5-2.4-6.5-6.5c0-3.8,2.8-6.5,6.5-6.5
				C937.8,1472.7,939.5,1473.5,940.7,1474.8z"/>
			<path class="st2" d="M950,1477l-0.3,1.3c-0.4-0.2-1-0.3-1.5-0.3c-1.3,0-2.3,1-2.3,2.7v4.8h-1.3v-8.5h1.3v1.2
				c0.6-0.9,1.5-1.4,2.5-1.4C949,1476.8,949.5,1476.8,950,1477z"/>
			<path class="st2" d="M959.2,1481.2c0,0.2,0,0.3,0,0.5h-6.8c0.2,1.8,1.5,2.8,3,2.8c1,0,2-0.4,2.7-1.1l0.7,0.9
				c-1.1,1-2.2,1.3-3.5,1.3c-2.5,0-4.3-1.8-4.3-4.4s1.8-4.4,4.2-4.4C957.5,1476.8,959.2,1478.6,959.2,1481.2z M952.4,1480.6h5.5
				c-0.2-1.6-1.2-2.6-2.7-2.6C953.6,1477.9,952.6,1479,952.4,1480.6z"/>
			<path class="st2" d="M969.3,1481.2c0,0.2,0,0.3,0,0.5h-6.8c0.2,1.8,1.5,2.8,3,2.8c1,0,2-0.4,2.7-1.1l0.7,0.9
				c-1.1,1-2.2,1.3-3.5,1.3c-2.5,0-4.3-1.8-4.3-4.4s1.8-4.4,4.2-4.4C967.6,1476.8,969.3,1478.6,969.3,1481.2z M962.5,1480.6h5.5
				c-0.2-1.6-1.2-2.6-2.7-2.6C963.7,1477.9,962.7,1479,962.5,1480.6z"/>
			<path class="st2" d="M979.6,1480.2v5.3h-1.3v-4.8c0-1.6-0.9-2.6-2.5-2.6c-1.4,0-2.6,1-2.6,2.6v4.8h-1.3v-8.5h1.3v1.2
				c0.7-1,1.8-1.4,2.9-1.4C978.1,1476.8,979.6,1478.1,979.6,1480.2z"/>
			<path class="st2" d="M1028.8,1479.6h-7.8v-1.2h7.8V1479.6z M1028.8,1483h-7.8v-1.2h7.8V1483z"/>
			<path class="st2" d="M1039.1,1480.8v4.6h-2.5v-12.6h5.1c3,0,4.6,1.6,4.6,4s-1.6,4-4.6,4H1039.1L1039.1,1480.8z M1039.1,1475.2
				v3.4h2.6c1.4,0,2.1-0.6,2.1-1.7s-0.7-1.7-2.1-1.7L1039.1,1475.2L1039.1,1475.2z"/>
			<path class="st2" d="M1059.1,1480.4c0,3.5-2.2,5.3-5.4,5.3c-3.2,0-5.4-1.8-5.4-5.3v-7.6h2.5v7.4c0,2.1,1.2,3,2.9,3s2.9-0.9,2.9-3
				v-7.4h2.5V1480.4z"/>
			<path class="st2" d="M1071,1475.2h-3.9v10.2h-2.5v-10.2h-3.9v-2.3h10.3V1475.2L1071,1475.2z"/>
			<path class="st2" d="M934.9,1493.9c2.7,0,4.6,0.9,4.6,3.3c0,1.4-0.8,2.4-1.9,2.8c1.3,0.4,2.2,1.4,2.2,3c0,2.4-1.8,3.5-4.6,3.5
				H930v-12.6L934.9,1493.9L934.9,1493.9z M931.5,1495.2v4.2h3.4c1.7,0,3.1-0.4,3.1-2.1s-1.3-2.1-3.1-2.1H931.5L931.5,1495.2z
				 M931.5,1500.7v4.4h3.6c1.9,0,3.1-0.5,3.1-2.2s-1.2-2.2-3.1-2.2L931.5,1500.7L931.5,1500.7z"/>
			<path class="st2" d="M943.8,1506.4h-1.3v-13h1.3V1506.4z"/>
			<path class="st2" d="M954.5,1502.9c0,2.5-1.8,3.7-3.9,3.7c-2.1,0-3.9-1.2-3.9-3.7v-5h1.3v4.8c0,1.8,1.1,2.6,2.5,2.6
				s2.5-0.8,2.5-2.6v-4.8h1.3L954.5,1502.9L954.5,1502.9z"/>
			<path class="st2" d="M965.2,1502.2c0,0.2,0,0.3,0,0.5h-6.8c0.2,1.8,1.5,2.8,3,2.8c1,0,2-0.4,2.7-1.1l0.7,0.9
				c-1.1,1-2.2,1.3-3.5,1.3c-2.5,0-4.3-1.8-4.3-4.4s1.8-4.4,4.2-4.4C963.5,1497.8,965.2,1499.6,965.2,1502.2z M958.3,1501.6h5.5
				c-0.2-1.6-1.2-2.6-2.7-2.6C959.6,1498.9,958.6,1500,958.3,1501.6z"/>
			<path class="st2" d="M1028.3,1500.6h-7.8v-1.2h7.8V1500.6z M1028.3,1504h-7.8v-1.2h7.8V1504z"/>
			<path class="st2" d="M1041.3,1493.9c3,0,4.6,1.4,4.6,3.8c0,2.1-1.4,3.5-3.9,3.7l3.9,5.1h-3l-3.7-5h-0.7v5h-2.5v-12.6H1041.3z
				 M1038.5,1496.2v3.1h2.8c1.4,0,2.1-0.5,2.1-1.6c0-1-0.8-1.5-2.1-1.5H1038.5z"/>
			<path class="st2" d="M1057.7,1506.4h-9.4v-12.6h9.3v2.3h-6.8v2.8h6.5v2.3h-6.5v2.9h6.9V1506.4L1057.7,1506.4z"/>
			<path class="st2" d="M1062.8,1501.8v4.6h-2.5v-12.6h5.1c3,0,4.6,1.6,4.6,4s-1.6,4-4.6,4H1062.8L1062.8,1501.8z M1062.8,1496.2
				v3.4h2.6c1.4,0,2.1-0.6,2.1-1.7s-0.7-1.7-2.1-1.7L1062.8,1496.2L1062.8,1496.2z"/>
			<path class="st2" d="M1081.3,1506.4h-9.2v-12.6h2.5v10.2h6.7V1506.4z"/>
			<path class="st2" d="M1085.5,1506.4h-2.5v-12.6h2.5V1506.4z"/>
			<path class="st2" d="M1099.8,1496.4l-2.2,1.3c-0.7-1.1-1.8-1.7-3.3-1.7c-2.3,0-4,1.7-4,4.1c0,2.5,1.8,4.1,4,4.1
				c1.4,0,2.5-0.6,3.3-1.7l2.1,1.5c-1.1,1.6-3,2.7-5.3,2.7c-3.9,0-6.6-2.8-6.6-6.5s2.7-6.5,6.6-6.5
				C1096.7,1493.6,1098.8,1494.7,1099.8,1496.4z"/>
			<path class="st2" d="M1113.5,1506.4h-2.7l-1.1-2.9h-5.4l-1.1,2.9h-2.6l4.9-12.6h3.1L1113.5,1506.4z M1105.2,1501.2h3.7l-1.8-4.9
				L1105.2,1501.2z"/>
			<path class="st2" d="M1123.2,1496.2h-3.9v10.2h-2.5v-10.2h-3.9v-2.3h10.3V1496.2L1123.2,1496.2z"/>
			<path class="st2" d="M1127.4,1506.4h-2.5v-12.6h2.5V1506.4z"/>
			<path class="st2" d="M1142.9,1500.2c0,3.8-2.8,6.5-6.6,6.5s-6.6-2.8-6.6-6.5c0-3.8,2.7-6.5,6.6-6.5S1142.9,1496.4,1142.9,1500.2z
				 M1132.3,1500.2c0,2.4,1.7,4.1,4,4.1s4-1.7,4-4.1s-1.7-4.1-4-4.1C1134,1496,1132.3,1497.7,1132.3,1500.2z"/>
			<path class="st2" d="M1156.4,1506.4h-2.4l-6.4-8.4v8.4h-2.5v-12.6h2.3l6.4,8.4v-8.4h2.5L1156.4,1506.4L1156.4,1506.4z"/>
			<path class="st2" d="M942.3,1521.2c0,3.8-2.8,6.5-6.5,6.5s-6.5-2.7-6.5-6.5s2.8-6.5,6.5-6.5
				C939.6,1514.7,942.3,1517.4,942.3,1521.2z M930.8,1521.2c0,3,2.2,5.1,5,5.1s5-2.1,5-5.1s-2.2-5.1-5-5.1
				S930.8,1518.1,930.8,1521.2z"/>
			<path class="st2" d="M950.4,1519l-0.3,1.3c-0.4-0.2-1-0.3-1.5-0.3c-1.3,0-2.3,1-2.3,2.7v4.8H945v-8.5h1.3v1.2
				c0.6-0.9,1.5-1.4,2.5-1.4C949.5,1518.8,950,1518.8,950.4,1519z"/>
			<path class="st2" d="M960.2,1527.4h-1.3v-1.3c-0.7,0.9-1.7,1.4-3.1,1.4c-2.4,0-4.3-1.9-4.3-4.4c0-2.6,1.9-4.4,4.3-4.4
				c1.4,0,2.4,0.6,3.1,1.4v-1.3h1.3V1527.4z M952.8,1523.2c0,1.8,1.2,3.2,3,3.2s3-1.4,3-3.2c0-1.8-1.3-3.2-3-3.2
				C954,1520,952.8,1521.4,952.8,1523.2z"/>
			<path class="st2" d="M971.1,1522.2v5.3h-1.3v-4.8c0-1.6-0.9-2.6-2.5-2.6c-1.4,0-2.6,1-2.6,2.6v4.8h-1.3v-8.5h1.3v1.2
				c0.7-1,1.8-1.4,2.9-1.4C969.6,1518.8,971.1,1520.1,971.1,1522.2z"/>
			<path class="st2" d="M980.7,1520.2v-1.3h1.3v7.9c0,2.8-1.9,4.3-4.5,4.3c-1.4,0-2.7-0.4-3.6-1.1l0.6-1.1c0.8,0.6,1.8,1,3,1
				c1.8,0,3.2-1.1,3.2-3v-0.9c-0.7,0.9-1.7,1.4-3,1.4c-2.4,0-4.2-1.8-4.2-4.4s1.8-4.4,4.2-4.4
				C979.1,1518.8,980.1,1519.3,980.7,1520.2z M974.8,1523.1c0,1.7,1.2,3.1,3,3.1s3-1.3,3-3.1c0-1.8-1.2-3.1-3-3.1
				S974.8,1521.4,974.8,1523.1z"/>
			<path class="st2" d="M992.8,1523.2c0,0.2,0,0.3,0,0.5H986c0.2,1.8,1.5,2.8,3,2.8c1,0,2-0.4,2.7-1.1l0.7,0.9
				c-1.1,1-2.2,1.3-3.5,1.3c-2.5,0-4.3-1.8-4.3-4.4s1.8-4.4,4.2-4.4C991.1,1518.8,992.8,1520.6,992.8,1523.2z M986,1522.6h5.5
				c-0.2-1.6-1.2-2.6-2.7-2.6C987.2,1519.9,986.2,1521,986,1522.6z"/>
			<path class="st2" d="M1027.1,1521.6h-7.8v-1.2h7.8V1521.6z M1027.1,1525h-7.8v-1.2h7.8V1525z"/>
			<path class="st2" d="M1045.6,1516.5l-1.8,1.8c-0.7-0.8-1.8-1.3-3-1.3c-2.3,0-4,1.7-4,4.2c0,2.6,1.8,4.2,3.9,4.2s3.2-1,3.6-2.8
				h-3.2v-2.1h5.8c0,0.2,0,0.5,0,0.7c0,3.8-2.6,6.5-6.2,6.5c-3.5,0-6.6-2.5-6.6-6.5c0-3.8,2.8-6.5,6.7-6.5
				C1042.9,1514.6,1044.5,1515.3,1045.6,1516.5z"/>
			<path class="st2" d="M1058.6,1527.4h-9.4v-12.6h9.3v2.3h-6.8v2.8h6.5v2.3h-6.5v2.9h6.9V1527.4L1058.6,1527.4z"/>
			<path class="st2" d="M1070.4,1517.2h-3.9v10.2h-2.5v-10.2h-3.9v-2.3h10.3V1517.2L1070.4,1517.2z"/>
		</g>
	</g>
	<circle class="st8" cx="905.6" cy="1478.3" r="6"/>
	<circle class="st0" cx="905.6" cy="1500.3" r="6"/>
	<circle class="st7" cx="905.6" cy="1522.3" r="6"/>
</g>
<g>
	<path class="st7" d="M648.1,261.4h-3.4v-33.6h3.4c1.2,0,1.8-1.4,0.9-2.3l-4.9-5c-0.5-0.5-1.4-0.5-1.9,0l-4.9,5
		c-0.8,0.8-0.2,2.3,0.9,2.3h3.7v33.6h-3.7c-1.2,0-1.8,1.4-0.9,2.3l4.9,5c0.5,0.5,1.4,0.5,1.9,0l4.9-5
		C649.9,262.9,649.3,261.4,648.1,261.4z"/>
	<path class="st8" d="M677.5,261.4h-3.4v-33.6h3.4c1.2,0,1.8-1.4,0.9-2.3l-4.9-5c-0.5-0.5-1.4-0.5-1.9,0l-4.9,5
		c-0.8,0.8-0.2,2.3,0.9,2.3h3.7v33.6h-3.7c-1.2,0-1.8,1.4-0.9,2.3l4.9,5c0.5,0.5,1.4,0.5,1.9,0l4.9-5
		C679.3,262.9,678.7,261.4,677.5,261.4z"/>
</g>
</svg>
