<?xml version="1.0" encoding="utf-8"?>
<!-- Generator: Adobe Illustrator 26.3.1, SVG Export Plug-In . SVG Version: 6.00 Build 0)  -->
<svg version="1.1"
	 id="Capa_1" xmlns:svg="http://www.w3.org/2000/svg" xmlns:sodipodi="http://sodipodi.sourceforge.net/DTD/sodipodi-0.dtd" xmlns:inkscape="http://www.inkscape.org/namespaces/inkscape" sodipodi:docname="active-passive-oneway-replication.svg" inkscape:version="1.1.1 (3bf5ae0d25, 2021-09-20)"
	 xmlns="http://www.w3.org/2000/svg" xmlns:xlink="http://www.w3.org/1999/xlink" x="0px" y="0px" viewBox="0 0 1545.2 370.6"
	 style="enable-background:new 0 0 1545.2 370.6;" xml:space="preserve">
<style type="text/css">
	.st0{fill:#2680AF;}
	.st1{fill:#F9F9F9;stroke:#C1C1C1;stroke-width:5;stroke-miterlimit:10;}
	.st2{fill:#434343;}
	.st3{fill:#F5F5F5;}
	.st4{fill:#FFFFFF;stroke:#434343;stroke-width:2;stroke-miterlimit:10;}
	.st5{fill:#C83B51;}
	.st6{fill:#FFFFFF;}
	.st7{opacity:9.000000e-02;fill:#2680AF;enable-background:new    ;}
	.st8{fill:url(#path339_00000052100835594286947940000003839678902277681052_);}
	.st9{fill:url(#path366_00000055681390987884859020000012217234009783043242_);}
	.st10{fill:#F9F9F9;stroke:#C1C1C1;stroke-miterlimit:10;stroke-dasharray:7;}
	.st11{fill:#7FC63C;}
	.st12{fill:#D88A3D;}
</style>
<sodipodi:namedview  bordercolor="#666666" borderopacity="1.0" id="namedview537" inkscape:current-layer="Capa_1" inkscape:cx="648.81014" inkscape:cy="538.54992" inkscape:pagecheckerboard="0" inkscape:pageopacity="0.0" inkscape:pageshadow="2" inkscape:window-height="1131" inkscape:window-maximized="1" inkscape:window-width="1920" inkscape:window-x="0" inkscape:window-y="0" inkscape:zoom="0.66660487" pagecolor="#ffffff" showgrid="false">
	</sodipodi:namedview>
<path id="path4" class="st0" d="M-8357.1-2023v206.8h3.9c1.2,0,1.8,1.4,0.9,2.3l-4.9,4.9c-0.5,0.5-1.4,0.5-1.9,0l-4.9-4.9
	c-0.8-0.8-0.2-2.3,0.9-2.3h4V-2023H-8357.1z"/>
<g id="g24">
	<path id="path6" class="st1" d="M883.6,146.3c-24.9,0-45.1-20.2-45.1-45.1s20.2-45.1,45.1-45.1c2.5,0,4.8,0.2,7.1,0.6
		c7.5-25,30.7-43.4,58.2-43.4c33.5,0,60.7,27.2,60.7,60.7c0,0.9,0,1.9-0.1,2.9c4.8-2.2,10.1-3.4,15.7-3.4
		c20.8,0,37.6,16.8,37.6,37.6s-16.8,37.5-37.6,37.5L883.6,146.3z"/>
	<g id="g22">
		<path id="path8" class="st2" d="M907.8,108.3h-3.9l-10.5-13.9v13.9h-4.2V87.5h3.9l10.5,13.9V87.5h4.2V108.3L907.8,108.3z"/>
		<path id="path10" class="st2" d="M925.5,101.1c0,0.4,0,1-0.1,1.3h-10.2c0.4,2.1,1.9,3,3.7,3c1.3,0,2.6-0.5,3.6-1.4l2.3,2.5
			c-1.6,1.5-3.7,2.2-6.1,2.2c-4.4,0-7.5-3-7.5-7.6c0-4.5,3-7.6,7.3-7.6C922.7,93.5,925.5,96.6,925.5,101.1z M915.3,99.8h6.4
			c-0.3-1.9-1.4-2.9-3.1-2.9C916.7,96.9,915.7,98,915.3,99.8z"/>
		<path id="path12" class="st2" d="M939,97.3h-5.2v5.3c0,1.8,0.9,2.5,2.1,2.5c0.9,0,2-0.4,2.7-0.9l1.4,3.1c-1.3,0.8-2.7,1.5-4.8,1.5
			c-3.6,0-5.3-2-5.3-5.8v-5.6h-2.8v-3.5h2.8v-4.3h3.9v4.2h5.2L939,97.3L939,97.3z"/>
		<path id="path14" class="st2" d="M958.4,104.1l3.1-10.1h4.1l-4.8,14.4h-4.4l-3.2-9.8l-3.1,9.8h-4.4L940.9,94h4.2l3.1,10l3.2-10
			h4.1L958.4,104.1z"/>
		<path id="path16" class="st2" d="M982.4,101.2c0,4.3-3.3,7.6-7.8,7.6s-7.8-3.2-7.8-7.6c0-4.3,3.3-7.6,7.8-7.6
			C979.1,93.5,982.4,96.8,982.4,101.2z M970.7,101.2c0,2.4,1.6,4,3.8,4s3.8-1.6,3.8-4s-1.6-4-3.8-4S970.7,98.8,970.7,101.2z"/>
		<path id="path18" class="st2" d="M995.3,93.9l-0.6,3.8c-0.7-0.3-1.5-0.4-2.4-0.4c-1.8,0-3.1,1.1-3.1,3.2v7.8h-3.9V93.9h3.7v1.5
			c0.9-1.4,2.3-2,4.1-2C994.2,93.5,994.8,93.7,995.3,93.9z"/>
		<path id="path20" class="st2" d="M1001.9,99h1.4l4.1-5.1h4.8l-5.7,6.8l5.7,7.6h-4.8l-4.2-5.9h-1.3v5.9H998V86.9h3.9V99L1001.9,99z
			"/>
	</g>
</g>
<path id="path26" class="st3" d="M1521.9,243.4h-260.3c-4.2,0-7.6-3.4-7.6-7.6V204c0-4.2,3.4-7.6,7.6-7.6h260.2
	c4.2,0,7.6,3.4,7.6,7.6v31.8C1529.4,240,1526,243.4,1521.9,243.4z"/>
<g id="g102">
	<path id="path66" class="st4" d="M272.2,160.6H53.5c-6.1,0-11.1-5-11.1-11.1V67.9c0-6.1,5-11.1,11.1-11.1h218.8
		c6.1,0,11.1,5,11.1,11.1v81.7C283.3,155.7,278.3,160.6,272.2,160.6z"/>
	<path id="path68" class="st4" d="M281.6,173.4H62.8c-6.1,0-11.1-5-11.1-11.1V80.7c0-6.1,5-11.1,11.1-11.1h218.8
		c6.1,0,11.1,5,11.1,11.1v81.6C292.7,168.4,287.7,173.4,281.6,173.4z"/>
	<path id="path70" class="st4" d="M290.9,186.1H72.1c-6.1,0-11.1-5-11.1-11.1V93.4c0-6.1,5-11.1,11.1-11.1h218.8
		c6.1,0,11.1,5,11.1,11.1V175C302,181.2,297,186.1,290.9,186.1z"/>
	<g id="g100">
		<path id="path72" class="st2" d="M121.4,141.5h-3.1L117,138h-6.4l-1.3,3.5h-3.1l5.8-14.9h3.6L121.4,141.5z M111.7,135.3h4.3
			l-2.1-5.8L111.7,135.3z"/>
		<path id="path74" class="st2" d="M133.8,136.4c0,3.1-2.1,5.4-5,5.4c-1.4,0-2.4-0.5-3.1-1.4v5.3h-2.6v-14.5h2.7v1.1
			c0.7-0.8,1.7-1.4,3.1-1.4C131.7,131,133.8,133.3,133.8,136.4z M125.8,136.4c0,1.6,1.1,2.8,2.6,2.8c1.6,0,2.6-1.3,2.6-2.8
			s-1-2.8-2.6-2.8S125.8,134.7,125.8,136.4z"/>
		<path id="path76" class="st2" d="M146.9,136.4c0,3.1-2.1,5.4-5,5.4c-1.4,0-2.4-0.5-3.1-1.4v5.3h-2.7v-14.5h2.7v1.1
			c0.7-0.8,1.7-1.4,3.1-1.4C144.8,131,146.9,133.3,146.9,136.4z M138.7,136.4c0,1.6,1.1,2.8,2.6,2.8c1.6,0,2.6-1.3,2.6-2.8
			s-1-2.8-2.6-2.8C139.8,133.6,138.7,134.7,138.7,136.4z"/>
		<path id="path78" class="st2" d="M151.9,141.5h-2.8v-15.3h2.8V141.5z"/>
		<path id="path80" class="st2" d="M157.9,127.9c0,1-0.8,1.8-1.8,1.8s-1.8-0.8-1.8-1.8c0-1,0.8-1.8,1.8-1.8S157.9,126.9,157.9,127.9
			z M157.6,141.5h-2.8v-10.3h2.8V141.5z"/>
		<path id="path82" class="st2" d="M169.5,132.9l-2,1.7c-0.6-0.7-1.3-1-2.2-1c-1.4,0-2.5,1.1-2.5,2.8s1.1,2.8,2.5,2.8
			c0.8,0,1.7-0.4,2.2-1l2,1.7c-0.9,1.3-2.4,2-4.2,2c-3.3,0-5.5-2.3-5.5-5.4s2.2-5.4,5.5-5.4C167.1,131,168.5,131.7,169.5,132.9z"/>
		<path id="path84" class="st2" d="M181.3,141.5h-2.7v-1.1c-0.7,0.8-1.7,1.4-3.1,1.4c-2.8,0-5-2.3-5-5.4s2.1-5.4,5-5.4
			c1.4,0,2.4,0.6,3.1,1.4v-1.1h2.7V141.5z M173.4,136.4c0,1.6,1,2.8,2.6,2.8s2.6-1.2,2.6-2.8c0-1.6-1.1-2.8-2.6-2.8
			S173.4,134.8,173.4,136.4z"/>
		<path id="path86" class="st2" d="M191.7,133.7H188v3.7c0,1.3,0.7,1.8,1.5,1.8c0.7,0,1.4-0.3,2-0.7l1,2.2c-0.9,0.6-2,1.1-3.4,1.1
			c-2.5,0-3.8-1.4-3.8-4.1v-4h-2v-2.5h2v-3.1h2.8v3.1h3.7L191.7,133.7L191.7,133.7z"/>
		<path id="path88" class="st2" d="M197.3,127.9c0,1-0.8,1.8-1.8,1.8s-1.8-0.8-1.8-1.8c0-1,0.8-1.8,1.8-1.8S197.3,126.9,197.3,127.9
			z M197,141.5h-2.8v-10.3h2.8V141.5z"/>
		<path id="path90" class="st2" d="M210.3,136.4c0,3.1-2.4,5.4-5.6,5.4c-3.2,0-5.5-2.3-5.5-5.4s2.4-5.4,5.5-5.4
			C207.9,131,210.3,133.3,210.3,136.4z M202,136.4c0,1.7,1.2,2.8,2.7,2.8s2.7-1.2,2.7-2.8c0-1.6-1.2-2.8-2.7-2.8
			S202,134.7,202,136.4z"/>
		<path id="path92" class="st2" d="M222.2,135v6.5h-2.8v-5.7c0-1.5-0.8-2.3-2-2.3s-2.2,0.8-2.2,2.3v5.6h-2.8v-10.3h2.7v1.2
			c0.8-1.1,1.9-1.5,3.1-1.5C220.6,131,222.2,132.6,222.2,135z"/>
		<path id="path94" class="st2" d="M237.2,128.6c-2.7,1.3-4.2,3.9-4.2,6.9s1.4,5.6,4.2,6.9l-0.8,2.5c-3.7-1.4-6.2-5-6.2-9.3
			s2.5-7.9,6.2-9.3L237.2,128.6z"/>
		<path id="path96" class="st2" d="M246.4,134.1c-0.8-0.4-2.1-0.8-3.3-0.8c-1,0-1.6,0.3-1.6,0.9s0.8,0.8,1.7,0.8l0.9,0.2
			c2.2,0.3,3.5,1.4,3.5,3.1c0,2.1-1.7,3.5-4.8,3.5c-1.4,0-3.2-0.3-4.6-1.2l1.1-2.1c0.8,0.6,2,1,3.5,1c1.3,0,1.9-0.3,1.9-0.9
			c0-0.5-0.5-0.8-1.7-0.9l-0.8-0.1c-2.4-0.3-3.6-1.4-3.6-3.1c0-2.1,1.6-3.4,4.3-3.4c1.6,0,3,0.3,4.3,1L246.4,134.1z"/>
		<path id="path98" class="st2" d="M248.9,142.4c2.7-1.3,4.2-3.9,4.2-6.9s-1.4-5.6-4.2-6.9l0.8-2.5c3.7,1.4,6.2,5,6.2,9.3
			s-2.5,7.9-6.2,9.3L248.9,142.4z"/>
	</g>
</g>
<g id="g176">
	<g id="g106">
		<path id="path104" class="st5" d="M1520.3,179h-257.1c-5.6,0-10.2-4.6-10.2-10.2V77.2c0-5.6,4.6-10.2,10.2-10.2h257.2
			c5.6,0,10.2,4.6,10.2,10.2v91.6C1530.5,174.4,1525.9,179,1520.3,179z M1263.1,72.2c-2.8,0-5.1,2.3-5.1,5.1v91.6
			c0,2.8,2.3,5.1,5.1,5.1h257.2c2.8,0,5.1-2.3,5.1-5.1V77.2c0-2.8-2.3-5.1-5.1-5.1L1263.1,72.2L1263.1,72.2z"/>
	</g>
	<path id="path108" class="st5" d="M1374.6,116.4h-102.2c-2.8,0-5.2-2.3-5.2-5.2V86.8c0-2.9,2.3-5.2,5.2-5.2h102.2
		c2.8,0,5.2,2.3,5.2,5.2v24.4C1379.7,114.1,1377.5,116.4,1374.6,116.4z"/>
	<circle id="circle110" class="st6" cx="1323.5" cy="98.5" r="7.1"/>
	<path id="path112" class="st6" d="M1282.3,110.8V87.4c0-0.3,0.3-0.5,0.5-0.5h4.2c0.3,0,0.5,0.3,0.5,0.5v23.4c0,0.3-0.3,0.5-0.5,0.5
		h-4.2C1282.6,111.2,1282.3,111,1282.3,110.8z"/>
	<path id="path114" class="st6" d="M1291.5,110.8V87.4c0-0.3,0.3-0.5,0.5-0.5h4.2c0.3,0,0.5,0.3,0.5,0.5v23.4c0,0.3-0.3,0.5-0.5,0.5
		h-4.2C1291.7,111.2,1291.5,111,1291.5,110.8z"/>
	<path id="path116" class="st6" d="M1273.2,110.8V87.4c0-0.3,0.3-0.5,0.5-0.5h4.2c0.3,0,0.5,0.3,0.5,0.5v23.4c0,0.3-0.3,0.5-0.5,0.5
		h-4.2C1273.4,111.2,1273.2,111,1273.2,110.8z"/>
	<path id="path118" class="st6" d="M1359.7,110.8V87.4c0-0.3,0.3-0.5,0.5-0.5h4.2c0.3,0,0.5,0.3,0.5,0.5v23.4c0,0.3-0.3,0.5-0.5,0.5
		h-4.2C1359.9,111.2,1359.7,111,1359.7,110.8z"/>
	<path id="path120" class="st6" d="M1368.8,110.8V87.4c0-0.3,0.3-0.5,0.5-0.5h4.2c0.3,0,0.5,0.3,0.5,0.5v23.4c0,0.3-0.3,0.5-0.5,0.5
		h-4.2C1369.1,111.2,1368.8,111,1368.8,110.8z"/>
	<path id="path122" class="st6" d="M1350.6,110.8V87.4c0-0.3,0.3-0.5,0.5-0.5h4.2c0.3,0,0.5,0.3,0.5,0.5v23.4c0,0.3-0.3,0.5-0.5,0.5
		h-4.2C1350.8,111.2,1350.6,111,1350.6,110.8z"/>
	<g id="g140">
		<path id="path124" class="st5" d="M1374.6,163.1h-102.2c-2.8,0-5.2-2.3-5.2-5.2v-24.4c0-2.9,2.3-5.2,5.2-5.2h102.2
			c2.8,0,5.2,2.3,5.2,5.2v24.4C1379.7,160.8,1377.5,163.1,1374.6,163.1z"/>
		<circle id="circle126" class="st6" cx="1323.5" cy="145.2" r="7.1"/>
		<path id="path128" class="st6" d="M1282.3,157.4V134c0-0.3,0.3-0.5,0.5-0.5h4.2c0.3,0,0.5,0.3,0.5,0.5v23.4c0,0.3-0.3,0.5-0.5,0.5
			h-4.2C1282.6,158,1282.3,157.7,1282.3,157.4z"/>
		<path id="path130" class="st6" d="M1291.5,157.4V134c0-0.3,0.3-0.5,0.5-0.5h4.2c0.3,0,0.5,0.3,0.5,0.5v23.4c0,0.3-0.3,0.5-0.5,0.5
			h-4.2C1291.7,158,1291.5,157.7,1291.5,157.4z"/>
		<path id="path132" class="st6" d="M1273.2,157.4V134c0-0.3,0.3-0.5,0.5-0.5h4.2c0.3,0,0.5,0.3,0.5,0.5v23.4c0,0.3-0.3,0.5-0.5,0.5
			h-4.2C1273.4,158,1273.2,157.7,1273.2,157.4z"/>
		<path id="path134" class="st6" d="M1359.7,157.4V134c0-0.3,0.3-0.5,0.5-0.5h4.2c0.3,0,0.5,0.3,0.5,0.5v23.4c0,0.3-0.3,0.5-0.5,0.5
			h-4.2C1359.9,158,1359.7,157.7,1359.7,157.4z"/>
		<path id="path136" class="st6" d="M1368.8,157.4V134c0-0.3,0.3-0.5,0.5-0.5h4.2c0.3,0,0.5,0.3,0.5,0.5v23.4c0,0.3-0.3,0.5-0.5,0.5
			h-4.2C1369.1,158,1368.8,157.7,1368.8,157.4z"/>
		<path id="path138" class="st6" d="M1350.6,157.4V134c0-0.3,0.3-0.5,0.5-0.5h4.2c0.3,0,0.5,0.3,0.5,0.5v23.4c0,0.3-0.3,0.5-0.5,0.5
			h-4.2C1350.8,158,1350.6,157.7,1350.6,157.4z"/>
	</g>
	<path id="path142" class="st5" d="M1510.8,116.4h-102.2c-2.8,0-5.2-2.3-5.2-5.2V86.8c0-2.9,2.3-5.2,5.2-5.2h102.2
		c2.8,0,5.2,2.3,5.2,5.2v24.4C1515.9,114.1,1513.7,116.4,1510.8,116.4z"/>
	<circle id="circle144" class="st6" cx="1459.7" cy="98.5" r="7.1"/>
	<path id="path146" class="st6" d="M1418.5,110.8V87.4c0-0.3,0.3-0.5,0.5-0.5h4.2c0.3,0,0.5,0.3,0.5,0.5v23.4c0,0.3-0.3,0.5-0.5,0.5
		h-4.2C1418.8,111.2,1418.5,111,1418.5,110.8z"/>
	<path id="path148" class="st6" d="M1427.7,110.8V87.4c0-0.3,0.3-0.5,0.5-0.5h4.2c0.3,0,0.5,0.3,0.5,0.5v23.4c0,0.3-0.3,0.5-0.5,0.5
		h-4.2C1427.9,111.2,1427.7,111,1427.7,110.8z"/>
	<path id="path150" class="st6" d="M1409.4,110.8V87.4c0-0.3,0.3-0.5,0.5-0.5h4.2c0.3,0,0.5,0.3,0.5,0.5v23.4c0,0.3-0.3,0.5-0.5,0.5
		h-4.2C1409.6,111.2,1409.4,111,1409.4,110.8z"/>
	<path id="path152" class="st6" d="M1495.8,110.8V87.4c0-0.3,0.3-0.5,0.5-0.5h4.2c0.3,0,0.5,0.3,0.5,0.5v23.4c0,0.3-0.3,0.5-0.5,0.5
		h-4.2C1496.1,111.2,1495.8,111,1495.8,110.8z"/>
	<path id="path154" class="st6" d="M1505,110.8V87.4c0-0.3,0.3-0.5,0.5-0.5h4.2c0.3,0,0.5,0.3,0.5,0.5v23.4c0,0.3-0.3,0.5-0.5,0.5
		h-4.2C1505.3,111.2,1505,111,1505,110.8z"/>
	<path id="path156" class="st6" d="M1486.8,110.8V87.4c0-0.3,0.3-0.5,0.5-0.5h4.2c0.3,0,0.5,0.3,0.5,0.5v23.4c0,0.3-0.3,0.5-0.5,0.5
		h-4.2C1486.9,111.2,1486.8,111,1486.8,110.8z"/>
	<g id="g174">
		<path id="path158" class="st5" d="M1510.8,163.1h-102.2c-2.8,0-5.2-2.3-5.2-5.2v-24.4c0-2.9,2.3-5.2,5.2-5.2h102.2
			c2.8,0,5.2,2.3,5.2,5.2v24.4C1515.9,160.8,1513.7,163.1,1510.8,163.1z"/>
		<circle id="circle160" class="st6" cx="1459.7" cy="145.2" r="7.1"/>
		<path id="path162" class="st6" d="M1418.5,157.4V134c0-0.3,0.3-0.5,0.5-0.5h4.2c0.3,0,0.5,0.3,0.5,0.5v23.4c0,0.3-0.3,0.5-0.5,0.5
			h-4.2C1418.8,158,1418.5,157.7,1418.5,157.4z"/>
		<path id="path164" class="st6" d="M1427.7,157.4V134c0-0.3,0.3-0.5,0.5-0.5h4.2c0.3,0,0.5,0.3,0.5,0.5v23.4c0,0.3-0.3,0.5-0.5,0.5
			h-4.2C1427.9,158,1427.7,157.7,1427.7,157.4z"/>
		<path id="path166" class="st6" d="M1409.4,157.4V134c0-0.3,0.3-0.5,0.5-0.5h4.2c0.3,0,0.5,0.3,0.5,0.5v23.4c0,0.3-0.3,0.5-0.5,0.5
			h-4.2C1409.6,158,1409.4,157.7,1409.4,157.4z"/>
		<path id="path168" class="st6" d="M1495.8,157.4V134c0-0.3,0.3-0.5,0.5-0.5h4.2c0.3,0,0.5,0.3,0.5,0.5v23.4c0,0.3-0.3,0.5-0.5,0.5
			h-4.2C1496.1,158,1495.8,157.7,1495.8,157.4z"/>
		<path id="path170" class="st6" d="M1505,157.4V134c0-0.3,0.3-0.5,0.5-0.5h4.2c0.3,0,0.5,0.3,0.5,0.5v23.4c0,0.3-0.3,0.5-0.5,0.5
			h-4.2C1505.3,158,1505,157.7,1505,157.4z"/>
		<path id="path172" class="st6" d="M1486.8,157.4V134c0-0.3,0.3-0.5,0.5-0.5h4.2c0.3,0,0.5,0.3,0.5,0.5v23.4c0,0.3-0.3,0.5-0.5,0.5
			h-4.2C1486.9,158,1486.8,157.7,1486.8,157.4z"/>
	</g>
</g>
<path id="path178" class="st3" d="M647,243.4H386.8c-4.2,0-7.6-3.4-7.6-7.6V204c0-4.2,3.4-7.6,7.6-7.6H647c4.2,0,7.6,3.4,7.6,7.6
	v31.8C654.6,240,651.2,243.4,647,243.4z"/>
<g id="g236">
	<path id="path180" class="st2" d="M402.7,214.5h1.1v4.2h0.1c0.1-0.2,0.2-0.3,0.3-0.5c0.1-0.2,0.3-0.3,0.4-0.4
		c0.2-0.1,0.3-0.2,0.6-0.3s0.5-0.1,0.8-0.1c0.8,0,1.4,0.3,1.8,0.7c0.4,0.5,0.7,1.1,0.7,2v4.6h-1.1v-4.3c0-0.7-0.2-1.1-0.4-1.4
		c-0.3-0.3-0.7-0.5-1.3-0.5c-0.3,0-0.4,0-0.7,0.1c-0.2,0.1-0.4,0.2-0.6,0.3s-0.3,0.3-0.4,0.4c-0.1,0.2-0.2,0.3-0.2,0.6v4.9h-1.1
		L402.7,214.5L402.7,214.5L402.7,214.5z"/>
	<path id="path182" class="st2" d="M414.1,224.7c-0.5,0-0.9-0.2-1.2-0.4c-0.3-0.3-0.3-0.7-0.3-1.2v-4.5h-2.4v-1h1.8
		c0.3,0,0.4-0.1,0.5-0.2c0.1-0.1,0.2-0.3,0.2-0.5V215h1v2.5h3.2v0.9h-3.2v5.2h3.2v0.9L414.1,224.7L414.1,224.7L414.1,224.7z"/>
	<path id="path184" class="st2" d="M422.3,224.7c-0.5,0-0.9-0.2-1.2-0.4c-0.3-0.3-0.3-0.7-0.3-1.2v-4.5h-2.4v-1h1.8
		c0.3,0,0.4-0.1,0.5-0.2c0.1-0.1,0.2-0.3,0.2-0.5V215h1v2.5h3.2v0.9h-3.2v5.2h3.2v0.9L422.3,224.7L422.3,224.7z"/>
	<path id="path186" class="st2" d="M427.4,217.5h1.1v1.2h0.1c0.4-0.8,1.2-1.3,2.2-1.3c0.8,0,1.5,0.3,2,0.9c0.5,0.7,0.8,1.5,0.8,2.7
		s-0.3,2.1-0.8,2.7c-0.5,0.6-1.2,0.9-2,0.9c-1,0-1.7-0.4-2.2-1.3h-0.1v3.9h-1.1V217.5z M430.4,223.8c0.7,0,1.1-0.2,1.5-0.6
		c0.3-0.4,0.5-0.9,0.5-1.5v-1.2c0-0.7-0.2-1.2-0.5-1.5s-0.8-0.6-1.5-0.6c-0.3,0-0.5,0-0.7,0.1c-0.3,0.1-0.4,0.2-0.6,0.3
		s-0.3,0.3-0.4,0.4c-0.2,0.2-0.2,0.4-0.2,0.6v2.5c0,0.3,0.1,0.4,0.2,0.6c0.1,0.2,0.3,0.3,0.4,0.4c0.2,0.1,0.3,0.3,0.6,0.3
		C429.9,223.8,430.1,223.8,430.4,223.8z"/>
	<path id="path188" class="st2" d="M438.5,224.7c-0.8,0-1.4-0.1-2-0.4c-0.5-0.3-1-0.6-1.4-1l0.8-0.7c0.3,0.3,0.7,0.6,1.1,0.8
		s0.8,0.3,1.4,0.3s1-0.1,1.4-0.3s0.5-0.5,0.5-0.9c0-0.2,0-0.3-0.1-0.4c-0.1-0.1-0.2-0.3-0.3-0.3c-0.1-0.1-0.3-0.1-0.4-0.2
		c-0.2-0.1-0.3-0.1-0.4-0.1l-1.1-0.2c-0.3,0-0.5-0.1-0.8-0.2c-0.3-0.1-0.6-0.2-0.8-0.3c-0.3-0.2-0.4-0.3-0.6-0.6s-0.3-0.5-0.3-0.9
		c0-0.3,0.1-0.7,0.2-0.9s0.3-0.5,0.6-0.7s0.6-0.3,0.9-0.4c0.3-0.1,0.8-0.1,1.1-0.1c0.7,0,1.2,0.1,1.7,0.3c0.5,0.3,0.8,0.5,1.2,0.8
		l-0.7,0.7c-0.1-0.1-0.2-0.2-0.3-0.3c-0.2-0.1-0.3-0.2-0.4-0.3c-0.2-0.1-0.4-0.2-0.6-0.2c-0.3-0.1-0.5-0.1-0.8-0.1
		c-0.6,0-1,0.1-1.3,0.3s-0.4,0.5-0.4,0.8c0,0.2,0,0.3,0.1,0.4s0.2,0.3,0.3,0.3c0.1,0.1,0.3,0.1,0.4,0.2c0.2,0,0.3,0.1,0.4,0.1
		l1.1,0.2c0.3,0,0.5,0.1,0.8,0.2c0.3,0.1,0.5,0.2,0.8,0.3c0.3,0.2,0.4,0.3,0.6,0.6s0.3,0.5,0.3,0.9c0,0.7-0.3,1.3-0.8,1.6
		C440.1,224.4,439.5,224.7,438.5,224.7z"/>
	<path id="path190" class="st2" d="M446.7,219.3c-0.3,0-0.7-0.1-0.8-0.3s-0.3-0.3-0.3-0.6v-0.3c0-0.3,0.1-0.4,0.3-0.6
		s0.4-0.3,0.8-0.3s0.7,0.1,0.8,0.3c0.1,0.2,0.3,0.3,0.3,0.6v0.3c0,0.3-0.1,0.4-0.3,0.6C447.4,219.2,447.1,219.3,446.7,219.3z
		 M446.7,224.7c-0.3,0-0.7-0.1-0.8-0.3s-0.3-0.3-0.3-0.6v-0.2c0-0.3,0.1-0.4,0.3-0.6s0.4-0.3,0.8-0.3s0.7,0.1,0.8,0.3
		c0.1,0.2,0.3,0.3,0.3,0.6v0.3c0,0.3-0.1,0.4-0.3,0.6C447.3,224.7,447.1,224.7,446.7,224.7z"/>
	<path id="path192" class="st2" d="M452.1,226.5l4.8-12.3h1l-4.8,12.3H452.1z"/>
	<path id="path194" class="st2" d="M460.3,226.5l4.8-12.3h1l-4.8,12.3H460.3z"/>
	<path id="path196" class="st2" d="M468.1,224.7v-7.1h1v0.8h0.1c0.1-0.3,0.3-0.5,0.4-0.7c0.2-0.2,0.5-0.3,0.8-0.3
		c0.4,0,0.7,0.1,0.9,0.3c0.2,0.2,0.3,0.5,0.3,0.8l0,0c0.2-0.3,0.3-0.6,0.6-0.8s0.6-0.3,1-0.3c0.6,0,0.9,0.2,1.2,0.6
		c0.2,0.4,0.3,0.9,0.3,1.7v4.9h-1v-4.8c0-0.6-0.1-1-0.2-1.3s-0.3-0.3-0.7-0.3c-0.3,0-0.5,0.1-0.7,0.3s-0.3,0.5-0.3,0.8v5.2h-1v-4.8
		c0-0.6-0.1-1-0.2-1.3s-0.3-0.3-0.7-0.3c-0.3,0-0.5,0.1-0.7,0.3s-0.3,0.5-0.3,0.8v5.2L468.1,224.7L468.1,224.7z"/>
	<path id="path198" class="st2" d="M477,223.6h2.5v-5.2H477v-0.9h3.6v6.1h2.4v0.9h-6V223.6L477,223.6z M480.1,216
		c-0.3,0-0.5-0.1-0.7-0.2c-0.2-0.2-0.2-0.3-0.2-0.5V215c0-0.2,0.1-0.3,0.2-0.5c0.2-0.2,0.3-0.2,0.7-0.2s0.5,0.1,0.7,0.2
		c0.2,0.2,0.2,0.3,0.2,0.5v0.3c0,0.2-0.1,0.3-0.2,0.5C480.6,215.9,480.5,216,480.1,216z"/>
	<path id="path200" class="st2" d="M485.1,224.7v-7.1h1.1v1.2h0.1c0.1-0.2,0.2-0.3,0.3-0.5c0.1-0.2,0.3-0.3,0.4-0.4
		c0.2-0.1,0.3-0.2,0.6-0.3c0.3-0.1,0.5-0.1,0.8-0.1c0.8,0,1.4,0.3,1.8,0.7c0.4,0.5,0.7,1.1,0.7,2v4.6h-1.1v-4.3
		c0-0.7-0.2-1.1-0.4-1.4c-0.3-0.3-0.7-0.5-1.3-0.5c-0.3,0-0.4,0-0.7,0.1c-0.2,0.1-0.4,0.2-0.6,0.3s-0.3,0.3-0.4,0.4
		c-0.1,0.2-0.2,0.3-0.2,0.6v4.9L485.1,224.7L485.1,224.7z"/>
	<path id="path202" class="st2" d="M493.4,223.6h2.5v-5.2h-2.5v-0.9h3.6v6.1h2.4v0.9h-6V223.6L493.4,223.6z M496.6,216
		c-0.3,0-0.5-0.1-0.7-0.2c-0.2-0.2-0.2-0.3-0.2-0.5V215c0-0.2,0.1-0.3,0.2-0.5c0.2-0.2,0.3-0.2,0.7-0.2s0.5,0.1,0.7,0.2
		c0.2,0.2,0.2,0.3,0.2,0.5v0.3c0,0.2-0.1,0.3-0.2,0.5C497.1,215.9,496.9,216,496.6,216z"/>
	<path id="path204" class="st2" d="M504.4,224.7c-0.5,0-0.9-0.1-1.4-0.3s-0.8-0.4-1-0.8s-0.5-0.7-0.7-1.2c-0.2-0.4-0.3-0.9-0.3-1.5
		s0.1-1.1,0.3-1.5s0.3-0.8,0.7-1.2c0.3-0.3,0.6-0.6,1-0.8s0.8-0.3,1.4-0.3c0.5,0,0.9,0.1,1.4,0.3c0.4,0.2,0.8,0.4,1,0.8
		c0.3,0.3,0.5,0.7,0.7,1.2s0.3,0.9,0.3,1.5s-0.1,1.1-0.3,1.5c-0.2,0.4-0.3,0.8-0.7,1.2c-0.3,0.3-0.6,0.6-1,0.8
		C505.3,224.7,504.9,224.7,504.4,224.7z M504.4,223.8c0.6,0,1.1-0.2,1.5-0.5c0.3-0.3,0.6-0.9,0.6-1.7v-1c0-0.8-0.2-1.4-0.6-1.7
		c-0.3-0.3-0.8-0.5-1.5-0.5c-0.6,0-1.1,0.2-1.5,0.5s-0.6,0.9-0.6,1.7v1c0,0.8,0.2,1.4,0.6,1.7S503.8,223.8,504.4,223.8z"/>
	<path id="path206" class="st2" d="M510.6,221v-1.2h4v1.2H510.6z"/>
	<path id="path208" class="st2" d="M520.9,224.7c-0.6,0-1.1-0.1-1.5-0.3s-0.8-0.5-1-0.9s-0.5-0.9-0.6-1.5s-0.2-1.3-0.2-2.1
		s0.1-1.4,0.2-2.1c0.1-0.7,0.3-1.1,0.6-1.5s0.6-0.8,1-0.9s0.9-0.3,1.5-0.3s1.1,0.1,1.5,0.3s0.8,0.5,1,0.9c0.3,0.4,0.5,0.9,0.6,1.5
		s0.2,1.3,0.2,2.1s-0.1,1.5-0.2,2.1c-0.2,0.6-0.3,1.1-0.6,1.5s-0.6,0.8-1,0.9S521.4,224.7,520.9,224.7z M520.9,223.8
		c0.4,0,0.7-0.1,1-0.3s0.5-0.3,0.7-0.7c0.2-0.3,0.3-0.6,0.3-1c0.1-0.4,0.2-0.8,0.2-1.3V219c0-0.5,0-0.9-0.2-1.3
		c-0.1-0.4-0.2-0.8-0.3-1c-0.2-0.3-0.4-0.5-0.7-0.7s-0.6-0.3-1-0.3s-0.7,0.1-1,0.3s-0.5,0.3-0.7,0.7c-0.2,0.3-0.3,0.6-0.3,1
		c-0.1,0.4-0.2,0.8-0.2,1.3v1.5c0,0.5,0,0.9,0.2,1.3c0.2,0.3,0.2,0.8,0.3,1s0.4,0.5,0.7,0.7C520.2,223.7,520.5,223.8,520.9,223.8z
		 M520.9,220.7c-0.3,0-0.5-0.1-0.7-0.2c-0.2-0.1-0.2-0.3-0.2-0.4v-0.3c0-0.2,0.1-0.3,0.2-0.4c0.1-0.1,0.3-0.2,0.7-0.2
		c0.3,0,0.5,0.1,0.7,0.2c0.2,0.1,0.2,0.3,0.2,0.4v0.3c0,0.2-0.1,0.3-0.2,0.4C521.4,220.6,521.2,220.7,520.9,220.7z"/>
	<path id="path210" class="st2" d="M526.1,224.7v-1h2.7V216h-0.1l-2.4,2.2l-0.7-0.8l2.5-2.4h1.8v8.6h2.5v1L526.1,224.7L526.1,224.7z
		"/>
	<path id="path212" class="st2" d="M537.3,224.7c-0.3,0-0.7-0.1-0.8-0.3s-0.3-0.3-0.3-0.6v-0.2c0-0.3,0.1-0.4,0.3-0.6
		c0.2-0.2,0.4-0.3,0.8-0.3c0.3,0,0.7,0.1,0.8,0.3s0.3,0.3,0.3,0.6v0.3c0,0.3-0.1,0.4-0.3,0.6C537.9,224.7,537.7,224.7,537.3,224.7z"
		/>
	<path id="path214" class="st2" d="M545.7,224.7c-0.5,0-1-0.1-1.4-0.3s-0.8-0.4-1-0.8c-0.3-0.3-0.5-0.7-0.7-1.2
		c-0.2-0.4-0.3-0.9-0.3-1.5s0.1-1.1,0.3-1.5s0.4-0.8,0.7-1.2c0.3-0.3,0.6-0.6,1-0.8s0.8-0.3,1.4-0.3s0.9,0.1,1.3,0.3
		c0.3,0.2,0.7,0.4,1,0.8c0.3,0.3,0.5,0.7,0.6,1.1c0.1,0.4,0.3,0.8,0.3,1.4v0.5h-5.3v0.3c0,0.3,0.1,0.6,0.2,0.8
		c0.1,0.3,0.3,0.5,0.4,0.7c0.2,0.2,0.4,0.3,0.7,0.4s0.6,0.2,0.9,0.2c0.5,0,0.8-0.1,1.3-0.3c0.3-0.3,0.6-0.5,0.8-0.9l0.8,0.5
		c-0.2,0.5-0.6,0.8-1,1.2C547,224.7,546.4,224.7,545.7,224.7z M545.6,218.3c-0.3,0-0.6,0.1-0.8,0.2c-0.3,0.1-0.5,0.3-0.7,0.4
		c-0.2,0.2-0.3,0.4-0.4,0.7s-0.2,0.5-0.2,0.8v0.1h4.1v-0.2c0-0.3-0.1-0.6-0.2-0.8c-0.1-0.3-0.3-0.5-0.4-0.7
		c-0.2-0.2-0.3-0.3-0.6-0.4C546.1,218.3,545.9,218.3,545.6,218.3z"/>
	<path id="path216" class="st2" d="M550.6,224.7l2.6-3.6l-2.5-3.5h1.3l1.1,1.5l0.8,1.2h0.1l0.8-1.2l1-1.5h1.3l-2.6,3.5l2.6,3.6h-1.3
		l-1.2-1.7l-0.8-1.1h-0.1l-0.8,1.1l-1.2,1.7H550.6L550.6,224.7z"/>
	<path id="path218" class="st2" d="M564.7,224.7c-0.4,0-0.8-0.1-0.9-0.3c-0.2-0.3-0.3-0.5-0.3-0.8h-0.1c-0.2,0.4-0.4,0.8-0.8,0.9
		c-0.3,0.2-0.8,0.3-1.4,0.3c-0.8,0-1.4-0.2-1.8-0.6s-0.7-0.9-0.7-1.6c0-0.7,0.3-1.2,0.7-1.5c0.5-0.3,1.3-0.5,2.3-0.5h1.5v-0.7
		c0-0.5-0.2-0.9-0.4-1.2c-0.3-0.3-0.7-0.4-1.3-0.4c-0.5,0-0.8,0.1-1.2,0.3c-0.3,0.2-0.5,0.4-0.8,0.8l-0.8-0.5
		c0.1-0.2,0.2-0.3,0.3-0.5c0.2-0.2,0.3-0.3,0.6-0.4c0.3-0.2,0.5-0.3,0.8-0.3c0.3-0.1,0.6-0.1,1-0.1c0.8,0,1.5,0.2,2,0.7
		s0.8,1,0.8,1.8v3.9h1v0.9L564.7,224.7L564.7,224.7z M561.4,223.9c0.3,0,0.5,0,0.8-0.1s0.4-0.2,0.6-0.3s0.3-0.3,0.4-0.4
		c0.1-0.2,0.2-0.3,0.2-0.5v-1.2h-1.5c-0.7,0-1.1,0.1-1.4,0.3c-0.3,0.2-0.4,0.4-0.4,0.8v0.3c0,0.3,0.2,0.7,0.4,0.8
		C560.7,223.8,561,223.9,561.4,223.9z"/>
	<path id="path220" class="st2" d="M566.9,224.7v-7.1h1v0.8h0.1c0.1-0.3,0.3-0.5,0.4-0.7c0.2-0.2,0.5-0.3,0.8-0.3
		c0.4,0,0.7,0.1,0.9,0.3s0.3,0.5,0.3,0.8l0,0c0.2-0.3,0.3-0.6,0.6-0.8s0.6-0.3,1-0.3c0.6,0,0.9,0.2,1.2,0.6c0.2,0.4,0.3,0.9,0.3,1.7
		v4.9h-1v-4.8c0-0.6-0.1-1-0.2-1.3c-0.1-0.3-0.3-0.3-0.7-0.3c-0.3,0-0.5,0.1-0.7,0.3s-0.3,0.5-0.3,0.8v5.2h-1.1v-4.8
		c0-0.6-0.1-1-0.2-1.3c-0.1-0.3-0.3-0.3-0.7-0.3c-0.3,0-0.5,0.1-0.7,0.3s-0.3,0.5-0.3,0.8v5.2L566.9,224.7L566.9,224.7z"/>
	<path id="path222" class="st2" d="M575.7,217.5h1.1v1.2h0.1c0.4-0.8,1.2-1.3,2.2-1.3c0.8,0,1.5,0.3,2,0.9c0.5,0.7,0.8,1.5,0.8,2.7
		s-0.3,2.1-0.8,2.7c-0.5,0.6-1.2,0.9-2,0.9c-1,0-1.7-0.4-2.2-1.3h-0.1v3.9h-1.1V217.5z M578.6,223.8c0.7,0,1.1-0.2,1.5-0.6
		c0.3-0.4,0.5-0.9,0.5-1.5v-1.2c0-0.7-0.2-1.2-0.5-1.5s-0.8-0.6-1.5-0.6c-0.3,0-0.5,0-0.7,0.1c-0.3,0.1-0.4,0.2-0.6,0.3
		s-0.3,0.3-0.4,0.4c-0.2,0.2-0.2,0.4-0.2,0.6v2.5c0,0.3,0.1,0.4,0.2,0.6c0.1,0.2,0.3,0.3,0.4,0.4s0.3,0.3,0.6,0.3
		C578.1,223.8,578.4,223.8,578.6,223.8z"/>
	<path id="path224" class="st2" d="M583.7,223.6h2.5v-8.2h-2.5v-0.9h3.6v9.2h2.5v0.9h-6L583.7,223.6L583.7,223.6z"/>
	<path id="path226" class="st2" d="M595.1,224.7c-0.5,0-1-0.1-1.4-0.3s-0.8-0.4-1-0.8c-0.3-0.3-0.5-0.7-0.7-1.2
		c-0.2-0.4-0.3-0.9-0.3-1.5s0.1-1.1,0.3-1.5s0.4-0.8,0.7-1.2c0.3-0.3,0.6-0.6,1-0.8s0.8-0.3,1.4-0.3c0.5,0,0.9,0.1,1.3,0.3
		c0.3,0.2,0.7,0.4,1,0.8c0.3,0.3,0.5,0.7,0.6,1.1c0.1,0.4,0.3,0.8,0.3,1.4v0.5H593v0.3c0,0.3,0.1,0.6,0.2,0.8
		c0.1,0.3,0.3,0.5,0.4,0.7c0.2,0.2,0.4,0.3,0.7,0.4s0.6,0.2,0.9,0.2c0.5,0,0.8-0.1,1.3-0.3c0.3-0.3,0.6-0.5,0.8-0.9l0.8,0.5
		c-0.2,0.5-0.6,0.8-1,1.2C596.4,224.7,595.8,224.7,595.1,224.7z M595,218.3c-0.3,0-0.6,0.1-0.8,0.2c-0.3,0.1-0.5,0.3-0.7,0.4
		c-0.2,0.2-0.3,0.4-0.4,0.7c-0.1,0.3-0.2,0.5-0.2,0.8v0.1h4.1v-0.2c0-0.3-0.1-0.6-0.2-0.8c-0.1-0.3-0.3-0.5-0.4-0.7
		c-0.2-0.2-0.3-0.3-0.6-0.4C595.6,218.3,595.4,218.3,595,218.3z"/>
	<path id="path228" class="st2" d="M603.3,224.7c-0.3,0-0.7-0.1-0.8-0.3s-0.3-0.3-0.3-0.6v-0.2c0-0.3,0.1-0.4,0.3-0.6
		c0.2-0.2,0.4-0.3,0.8-0.3c0.3,0,0.7,0.1,0.8,0.3s0.3,0.3,0.3,0.6v0.3c0,0.3-0.1,0.4-0.3,0.6C603.8,224.7,603.6,224.7,603.3,224.7z"
		/>
	<path id="path230" class="st2" d="M608.7,224.7v-7.1h1.1v1.2h0.1c0.1-0.2,0.2-0.3,0.3-0.5s0.3-0.3,0.4-0.4s0.3-0.2,0.6-0.3
		s0.5-0.1,0.8-0.1c0.8,0,1.4,0.3,1.8,0.7c0.4,0.5,0.7,1.1,0.7,2v4.6h-1.1v-4.3c0-0.7-0.2-1.1-0.4-1.4s-0.7-0.5-1.3-0.5
		c-0.3,0-0.4,0-0.7,0.1c-0.2,0.1-0.4,0.2-0.6,0.3s-0.3,0.3-0.4,0.4c-0.1,0.2-0.2,0.3-0.2,0.6v4.9L608.7,224.7L608.7,224.7z"/>
	<path id="path232" class="st2" d="M619.8,224.7c-0.5,0-1-0.1-1.4-0.3s-0.8-0.4-1-0.8c-0.3-0.3-0.5-0.7-0.7-1.2
		c-0.2-0.4-0.3-0.9-0.3-1.5s0.1-1.1,0.3-1.5s0.4-0.8,0.7-1.2c0.3-0.3,0.6-0.6,1-0.8s0.8-0.3,1.4-0.3c0.5,0,0.9,0.1,1.3,0.3
		s0.7,0.4,1,0.8c0.3,0.3,0.5,0.7,0.6,1.1c0.1,0.4,0.3,0.8,0.3,1.4v0.5h-5.3v0.3c0,0.3,0.1,0.6,0.2,0.8c0.1,0.3,0.3,0.5,0.4,0.7
		c0.2,0.2,0.4,0.3,0.7,0.4c0.3,0.1,0.6,0.2,0.9,0.2c0.5,0,0.8-0.1,1.3-0.3c0.3-0.3,0.6-0.5,0.8-0.9l0.8,0.5c-0.2,0.5-0.6,0.8-1,1.2
		C621.1,224.7,620.5,224.7,619.8,224.7z M619.7,218.3c-0.3,0-0.6,0.1-0.8,0.2c-0.3,0.1-0.5,0.3-0.7,0.4c-0.2,0.2-0.3,0.4-0.4,0.7
		c-0.1,0.3-0.2,0.5-0.2,0.8v0.1h4.1v-0.2c0-0.3-0.1-0.6-0.2-0.8c-0.1-0.3-0.3-0.5-0.4-0.7c-0.2-0.2-0.3-0.3-0.6-0.4
		C620.3,218.3,620.1,218.3,619.7,218.3z"/>
	<path id="path234" class="st2" d="M628.3,224.7c-0.5,0-0.9-0.2-1.2-0.4c-0.3-0.3-0.3-0.7-0.3-1.2v-4.5h-2.4v-1h1.8
		c0.3,0,0.4-0.1,0.5-0.2c0.1-0.1,0.2-0.3,0.2-0.5V215h1v2.5h3.2v0.9h-3.2v5.2h3.2v0.9L628.3,224.7L628.3,224.7L628.3,224.7z"/>
</g>
<g id="g310">
	<g id="g240">
		<path id="path238" class="st5" d="M645.4,179H388.3c-5.6,0-10.2-4.6-10.2-10.2V77.2c0-5.6,4.6-10.2,10.2-10.2h257.2
			c5.6,0,10.2,4.6,10.2,10.2v91.6C655.6,174.4,651,179,645.4,179z M388.3,72.2c-2.8,0-5.1,2.3-5.1,5.1v91.6c0,2.8,2.3,5.1,5.1,5.1
			h257.2c2.8,0,5.1-2.3,5.1-5.1V77.2c0-2.8-2.3-5.1-5.1-5.1L388.3,72.2L388.3,72.2z"/>
	</g>
	<path id="path242" class="st5" d="M499.7,116.4H397.6c-2.8,0-5.2-2.3-5.2-5.2V86.8c0-2.9,2.3-5.2,5.2-5.2h102.2
		c2.8,0,5.2,2.3,5.2,5.2v24.4C504.9,114.1,502.6,116.4,499.7,116.4z"/>
	<circle id="circle244" class="st6" cx="448.6" cy="98.5" r="7.1"/>
	<path id="path246" class="st6" d="M407.5,110.8V87.4c0-0.3,0.3-0.5,0.5-0.5h4.2c0.3,0,0.5,0.3,0.5,0.5v23.4c0,0.3-0.3,0.5-0.5,0.5
		H408C407.7,111.2,407.5,111,407.5,110.8z"/>
	<path id="path248" class="st6" d="M416.6,110.8V87.4c0-0.3,0.3-0.5,0.5-0.5h4.2c0.3,0,0.5,0.3,0.5,0.5v23.4c0,0.3-0.3,0.5-0.5,0.5
		h-4.2C416.8,111.2,416.6,111,416.6,110.8z"/>
	<path id="path250" class="st6" d="M398.4,110.8V87.4c0-0.3,0.3-0.5,0.5-0.5h4.2c0.3,0,0.5,0.3,0.5,0.5v23.4c0,0.3-0.3,0.5-0.5,0.5
		h-4.2C398.6,111.2,398.4,111,398.4,110.8z"/>
	<path id="path252" class="st6" d="M484.9,110.8V87.4c0-0.3,0.3-0.5,0.5-0.5h4.2c0.3,0,0.5,0.3,0.5,0.5v23.4c0,0.3-0.3,0.5-0.5,0.5
		h-4.2C485,111.2,484.9,111,484.9,110.8z"/>
	<path id="path254" class="st6" d="M494,110.8V87.4c0-0.3,0.3-0.5,0.5-0.5h4.2c0.3,0,0.5,0.3,0.5,0.5v23.4c0,0.3-0.3,0.5-0.5,0.5
		h-4.2C494.2,111.2,494,111,494,110.8z"/>
	<path id="path256" class="st6" d="M475.7,110.8V87.4c0-0.3,0.3-0.5,0.5-0.5h4.2c0.3,0,0.5,0.3,0.5,0.5v23.4c0,0.3-0.3,0.5-0.5,0.5
		h-4.2C476,111.2,475.7,111,475.7,110.8z"/>
	<g id="g274">
		<path id="path258" class="st5" d="M499.7,163.1H397.6c-2.8,0-5.2-2.3-5.2-5.2v-24.4c0-2.9,2.3-5.2,5.2-5.2h102.2
			c2.8,0,5.2,2.3,5.2,5.2v24.4C504.9,160.8,502.6,163.1,499.7,163.1z"/>
		<circle id="circle260" class="st6" cx="448.6" cy="145.2" r="7.1"/>
		<path id="path262" class="st6" d="M407.5,157.4V134c0-0.3,0.3-0.5,0.5-0.5h4.2c0.3,0,0.5,0.3,0.5,0.5v23.4c0,0.3-0.3,0.5-0.5,0.5
			H408C407.7,158,407.5,157.7,407.5,157.4z"/>
		<path id="path264" class="st6" d="M416.6,157.4V134c0-0.3,0.3-0.5,0.5-0.5h4.2c0.3,0,0.5,0.3,0.5,0.5v23.4c0,0.3-0.3,0.5-0.5,0.5
			h-4.2C416.8,158,416.6,157.7,416.6,157.4z"/>
		<path id="path266" class="st6" d="M398.4,157.4V134c0-0.3,0.3-0.5,0.5-0.5h4.2c0.3,0,0.5,0.3,0.5,0.5v23.4c0,0.3-0.3,0.5-0.5,0.5
			h-4.2C398.6,158,398.4,157.7,398.4,157.4z"/>
		<path id="path268" class="st6" d="M484.9,157.4V134c0-0.3,0.3-0.5,0.5-0.5h4.2c0.3,0,0.5,0.3,0.5,0.5v23.4c0,0.3-0.3,0.5-0.5,0.5
			h-4.2C485,158,484.9,157.7,484.9,157.4z"/>
		<path id="path270" class="st6" d="M494,157.4V134c0-0.3,0.3-0.5,0.5-0.5h4.2c0.3,0,0.5,0.3,0.5,0.5v23.4c0,0.3-0.3,0.5-0.5,0.5
			h-4.2C494.2,158,494,157.7,494,157.4z"/>
		<path id="path272" class="st6" d="M475.7,157.4V134c0-0.3,0.3-0.5,0.5-0.5h4.2c0.3,0,0.5,0.3,0.5,0.5v23.4c0,0.3-0.3,0.5-0.5,0.5
			h-4.2C476,158,475.7,157.7,475.7,157.4z"/>
	</g>
	<path id="path276" class="st5" d="M635.9,116.4H533.8c-2.8,0-5.2-2.3-5.2-5.2V86.8c0-2.9,2.3-5.2,5.2-5.2H636
		c2.8,0,5.2,2.3,5.2,5.2v24.4C641.1,114.1,638.8,116.4,635.9,116.4z"/>
	<circle id="circle278" class="st6" cx="584.8" cy="98.5" r="7.1"/>
	<path id="path280" class="st6" d="M543.7,110.8V87.4c0-0.3,0.3-0.5,0.5-0.5h4.2c0.3,0,0.5,0.3,0.5,0.5v23.4c0,0.3-0.3,0.5-0.5,0.5
		h-4.2C543.9,111.2,543.7,111,543.7,110.8z"/>
	<path id="path282" class="st6" d="M552.8,110.8V87.4c0-0.3,0.3-0.5,0.5-0.5h4.2c0.3,0,0.5,0.3,0.5,0.5v23.4c0,0.3-0.3,0.5-0.5,0.5
		h-4.2C553,111.2,552.8,111,552.8,110.8z"/>
	<path id="path284" class="st6" d="M534.5,110.8V87.4c0-0.3,0.3-0.5,0.5-0.5h4.2c0.3,0,0.5,0.3,0.5,0.5v23.4c0,0.3-0.3,0.5-0.5,0.5
		H535C534.8,111.2,534.5,111,534.5,110.8z"/>
	<path id="path286" class="st6" d="M621,110.8V87.4c0-0.3,0.3-0.5,0.5-0.5h4.2c0.3,0,0.5,0.3,0.5,0.5v23.4c0,0.3-0.3,0.5-0.5,0.5
		h-4.2C621.2,111.2,621,111,621,110.8z"/>
	<path id="path288" class="st6" d="M630.2,110.8V87.4c0-0.3,0.3-0.5,0.5-0.5h4.2c0.3,0,0.5,0.3,0.5,0.5v23.4c0,0.3-0.3,0.5-0.5,0.5
		h-4.2C630.4,111.2,630.2,111,630.2,110.8z"/>
	<path id="path290" class="st6" d="M611.9,110.8V87.4c0-0.3,0.3-0.5,0.5-0.5h4.2c0.3,0,0.5,0.3,0.5,0.5v23.4c0,0.3-0.3,0.5-0.5,0.5
		h-4.2C612.1,111.2,611.9,111,611.9,110.8z"/>
	<g id="g308">
		<path id="path292" class="st5" d="M635.9,163.1H533.8c-2.8,0-5.2-2.3-5.2-5.2v-24.4c0-2.9,2.3-5.2,5.2-5.2H636
			c2.8,0,5.2,2.3,5.2,5.2v24.4C641.1,160.8,638.8,163.1,635.9,163.1z"/>
		<circle id="circle294" class="st6" cx="584.8" cy="145.2" r="7.1"/>
		<path id="path296" class="st6" d="M543.7,157.4V134c0-0.3,0.3-0.5,0.5-0.5h4.2c0.3,0,0.5,0.3,0.5,0.5v23.4c0,0.3-0.3,0.5-0.5,0.5
			h-4.2C543.9,158,543.7,157.7,543.7,157.4z"/>
		<path id="path298" class="st6" d="M552.8,157.4V134c0-0.3,0.3-0.5,0.5-0.5h4.2c0.3,0,0.5,0.3,0.5,0.5v23.4c0,0.3-0.3,0.5-0.5,0.5
			h-4.2C553,158,552.8,157.7,552.8,157.4z"/>
		<path id="path300" class="st6" d="M534.5,157.4V134c0-0.3,0.3-0.5,0.5-0.5h4.2c0.3,0,0.5,0.3,0.5,0.5v23.4c0,0.3-0.3,0.5-0.5,0.5
			H535C534.8,158,534.5,157.7,534.5,157.4z"/>
		<path id="path302" class="st6" d="M621,157.4V134c0-0.3,0.3-0.5,0.5-0.5h4.2c0.3,0,0.5,0.3,0.5,0.5v23.4c0,0.3-0.3,0.5-0.5,0.5
			h-4.2C621.2,158,621,157.7,621,157.4z"/>
		<path id="path304" class="st6" d="M630.2,157.4V134c0-0.3,0.3-0.5,0.5-0.5h4.2c0.3,0,0.5,0.3,0.5,0.5v23.4c0,0.3-0.3,0.5-0.5,0.5
			h-4.2C630.4,158,630.2,157.7,630.2,157.4z"/>
		<path id="path306" class="st6" d="M611.9,157.4V134c0-0.3,0.3-0.5,0.5-0.5h4.2c0.3,0,0.5,0.3,0.5,0.5v23.4c0,0.3-0.3,0.5-0.5,0.5
			h-4.2C612.1,158,611.9,157.7,611.9,157.4z"/>
	</g>
</g>
<path id="path312_00000083805657476473881850000006430766333907658910_" class="st0" d="M1087.4,121.4h28.5v2.9c0,1,1.2,1.5,2,0.8
	l4.2-4.2c0.4-0.4,0.4-1.2,0-1.6l-4.2-4.2c-0.7-0.7-2-0.2-2,0.8v3.1h-28.5"/>
<path id="path314_00000005966101680056134310000007330531147118794630_" class="st0" d="M791.7,121.4h28.5v2.9c0,1,1.2,1.5,2,0.8
	l4.2-4.2c0.4-0.4,0.4-1.2,0-1.6l-4.2-4.2c-0.7-0.7-2-0.2-2,0.8v3.1h-28.5"/>
<g id="g341">
	<rect id="rect316" x="1145.2" y="71.8" class="st7" width="79.5" height="93.4"/>
	<g id="g332">
		<g id="g330">
			<path id="path318" class="st2" d="M1161.9,130.6c-0.7,0-1.3-0.2-1.8-0.3c-0.5-0.2-0.9-0.6-1.3-1.1c-0.3-0.4-0.6-1-0.8-1.7
				c-0.2-0.7-0.3-1.4-0.3-2.4c0-0.8,0.1-1.6,0.3-2.4c0.2-0.7,0.4-1.3,0.8-1.7c0.3-0.4,0.8-0.8,1.3-1.1c0.5-0.3,1.1-0.3,1.8-0.3
				c1.4,0,2.4,0.5,3.1,1.4s1,2.3,1,4.1c0,1.8-0.3,3.1-1,4.1S1163.3,130.6,1161.9,130.6z M1161.9,129c0.3,0,0.7-0.1,0.9-0.2
				c0.3-0.1,0.4-0.3,0.6-0.6c0.2-0.3,0.3-0.6,0.3-0.9s0.1-0.8,0.1-1.3v-1.8c0-0.9-0.2-1.6-0.4-2.2c-0.3-0.6-0.8-0.8-1.5-0.8
				c-0.8,0-1.2,0.3-1.5,0.8s-0.4,1.3-0.4,2.2v1.9c0,0.9,0.2,1.6,0.4,2.2C1160.8,128.7,1161.3,129,1161.9,129z"/>
			<path id="path320" class="st2" d="M1167.8,119.7h3.7c1,0,1.8,0.3,2.4,0.8c0.5,0.5,0.8,1.2,0.8,2c0,0.6-0.2,1.1-0.4,1.4
				c-0.3,0.3-0.7,0.6-1.3,0.8v0.1c0.7,0.2,1.1,0.4,1.5,0.8s0.6,0.9,0.6,1.7c0,0.4-0.1,0.8-0.3,1.2c-0.2,0.3-0.3,0.7-0.6,0.9
				c-0.3,0.3-0.6,0.4-1,0.6s-0.8,0.2-1.3,0.2h-4.1L1167.8,119.7L1167.8,119.7z M1171,124.3c0.5,0,0.9-0.1,1.2-0.3
				c0.3-0.2,0.4-0.5,0.4-1v-0.5c0-0.5-0.2-0.8-0.4-1c-0.3-0.2-0.7-0.3-1.2-0.3h-1.3v3.1L1171,124.3L1171,124.3z M1171.2,129
				c0.6,0,1-0.1,1.3-0.3c0.3-0.3,0.4-0.6,0.4-1.1v-0.5c0-0.5-0.2-0.8-0.4-1c-0.3-0.2-0.7-0.3-1.3-0.3h-1.5v3.2L1171.2,129
				L1171.2,129z"/>
			<path id="path322" class="st2" d="M1183.3,119.7v7.7c0,0.5-0.1,0.9-0.3,1.3c-0.2,0.3-0.4,0.7-0.7,0.9c-0.3,0.3-0.7,0.5-1.1,0.6
				s-0.8,0.3-1.4,0.3c-1,0-1.8-0.3-2.4-0.8s-0.9-1.2-1.1-2l1.9-0.4c0.1,0.4,0.3,0.8,0.5,1.1c0.3,0.3,0.6,0.4,1.1,0.4
				c0.4,0,0.8-0.2,1-0.4c0.2-0.3,0.3-0.7,0.3-1.3v-5.9h-3.6v-1.6L1183.3,119.7L1183.3,119.7z"/>
			<path id="path324" class="st2" d="M1186.1,130.4v-10.7h6.7v1.6h-4.8v2.8h4.6v1.6h-4.6v3h4.8v1.6L1186.1,130.4L1186.1,130.4z"/>
			<path id="path326" class="st2" d="M1198.9,130.6c-1.4,0-2.5-0.5-3.1-1.4c-0.7-0.9-1-2.3-1-4.1c0-1.8,0.3-3.1,1-4.1
				c0.7-0.9,1.7-1.4,3.1-1.4c0.5,0,1,0.1,1.4,0.2c0.4,0.2,0.8,0.3,1,0.6c0.3,0.3,0.5,0.5,0.8,0.8c0.2,0.3,0.3,0.8,0.4,1.2l-1.9,0.5
				c-0.1-0.3-0.2-0.5-0.3-0.7s-0.2-0.4-0.3-0.6c-0.2-0.2-0.3-0.3-0.5-0.3c-0.2-0.1-0.4-0.2-0.8-0.2c-0.7,0-1.2,0.3-1.5,0.8
				s-0.4,1.3-0.4,2.2v1.9c0,0.9,0.2,1.6,0.4,2.2c0.3,0.5,0.8,0.8,1.5,0.8c0.3,0,0.5,0,0.8-0.2c0.2-0.1,0.3-0.2,0.5-0.3
				c0.2-0.2,0.3-0.3,0.3-0.6c0.1-0.3,0.2-0.4,0.3-0.7l1.9,0.5c-0.1,0.4-0.3,0.8-0.4,1.2c-0.2,0.3-0.4,0.7-0.8,0.8
				c-0.3,0.3-0.7,0.4-1,0.6C1199.9,130.5,1199.4,130.6,1198.9,130.6z"/>
			<path id="path328" class="st2" d="M1208.8,121.4v9h-2v-9h-3.2v-1.6h8.4v1.6H1208.8z"/>
		</g>
	</g>
	
		<linearGradient id="path339_00000137840303452531480660000002425051970209244545_" gradientUnits="userSpaceOnUse" x1="1184.95" y1="-1104.6042" x2="1184.95" y2="-1188.3145" gradientTransform="matrix(1 0 0 1 0 1276)">
		<stop  offset="0" style="stop-color:#10535A"/>
		<stop  offset="1" style="stop-color:#102E46"/>
	</linearGradient>
	<path id="path339" style="fill:url(#path339_00000137840303452531480660000002425051970209244545_);" d="M1147.7,67.5
		c-3.9,0-7,3.1-7,7v89.9c0,3.9,3.1,7,7,7h74.3c3.9,0,7-3.1,7-7c0-4.8,0-9.6,0-14.3c0-10.2,0-20.3,0-30.5c0-7-0.2-14.1,0-21
		c0.2-6.4,0.4-13.2-0.2-19.5c-0.4-4.8-2.5-8.8-7.3-10.5c-0.7-0.3-1.4-0.4-2-0.6c-2.6-0.6-5.5-0.7-8.1-0.8L1147.7,67.5z M1220.5,158
		c0,3.4-2.7,6.1-6.1,6.1H1154c-3.4,0-6.1-2.7-6.1-6.1V80.8c0-3.4,2.7-6.1,6.1-6.1h40.6v10.4c0,8.5,6.9,15.4,15.4,15.4h10.6
		L1220.5,158L1220.5,158z M1220.5,93.8h-10.6c-4.8,0-8.7-3.9-8.7-8.7V74.7h13.2c3.4,0,6.1,2.7,6.1,6.1V93.8L1220.5,93.8z"/>
</g>
<g id="g368">
	<rect id="rect343" x="684.1" y="71.8" class="st7" width="79.5" height="93.4"/>
	<g id="g359">
		<g id="g357">
			<path id="path345" class="st2" d="M700.8,130.6c-0.7,0-1.3-0.2-1.8-0.3c-0.5-0.2-0.9-0.6-1.3-1.1c-0.3-0.4-0.6-1-0.8-1.7
				c-0.2-0.7-0.3-1.4-0.3-2.4c0-0.8,0.1-1.6,0.3-2.4c0.2-0.7,0.4-1.3,0.8-1.7c0.3-0.4,0.8-0.8,1.3-1.1c0.5-0.3,1.1-0.3,1.8-0.3
				c1.4,0,2.4,0.5,3.1,1.4c0.7,0.9,1,2.3,1,4.1c0,1.8-0.3,3.1-1,4.1C703.2,130.2,702.2,130.6,700.8,130.6z M700.8,129
				c0.3,0,0.7-0.1,0.9-0.2c0.3-0.1,0.4-0.3,0.6-0.6c0.2-0.3,0.3-0.6,0.3-0.9c0.1-0.3,0.1-0.8,0.1-1.3v-1.8c0-0.9-0.2-1.6-0.4-2.2
				c-0.3-0.6-0.8-0.8-1.5-0.8c-0.8,0-1.2,0.3-1.5,0.8s-0.4,1.3-0.4,2.2v1.9c0,0.9,0.2,1.6,0.4,2.2C699.7,128.7,700.2,129,700.8,129z
				"/>
			<path id="path347" class="st2" d="M706.7,119.7h3.7c1,0,1.8,0.3,2.4,0.8c0.5,0.5,0.8,1.2,0.8,2c0,0.6-0.2,1.1-0.4,1.4
				c-0.3,0.3-0.7,0.6-1.3,0.8v0.1c0.7,0.2,1.1,0.4,1.5,0.8s0.6,0.9,0.6,1.7c0,0.4-0.1,0.8-0.3,1.2c-0.2,0.3-0.3,0.7-0.6,0.9
				c-0.3,0.3-0.6,0.4-1,0.6s-0.8,0.2-1.3,0.2h-4.1L706.7,119.7L706.7,119.7z M709.9,124.3c0.5,0,0.9-0.1,1.2-0.3
				c0.3-0.2,0.4-0.5,0.4-1v-0.5c0-0.5-0.2-0.8-0.4-1s-0.7-0.3-1.2-0.3h-1.3v3.1L709.9,124.3L709.9,124.3z M710.1,129
				c0.6,0,1-0.1,1.3-0.3c0.3-0.3,0.4-0.6,0.4-1.1v-0.5c0-0.5-0.2-0.8-0.4-1s-0.7-0.3-1.3-0.3h-1.5v3.2L710.1,129L710.1,129z"/>
			<path id="path349" class="st2" d="M722.2,119.7v7.7c0,0.5-0.1,0.9-0.3,1.3c-0.2,0.3-0.4,0.7-0.7,0.9s-0.7,0.5-1.1,0.6
				s-0.8,0.3-1.4,0.3c-1,0-1.8-0.3-2.4-0.8c-0.6-0.5-0.9-1.2-1.1-2l1.9-0.4c0.1,0.4,0.3,0.8,0.5,1.1c0.3,0.3,0.6,0.4,1.1,0.4
				c0.4,0,0.8-0.2,1-0.4s0.3-0.7,0.3-1.3v-5.9h-3.6v-1.6L722.2,119.7L722.2,119.7z"/>
			<path id="path351" class="st2" d="M725,130.4v-10.7h6.7v1.6H727v2.8h4.6v1.6H727v3h4.8v1.6L725,130.4L725,130.4z"/>
			<path id="path353" class="st2" d="M737.8,130.6c-1.4,0-2.5-0.5-3.1-1.4c-0.7-0.9-1-2.3-1-4.1c0-1.8,0.3-3.1,1-4.1
				c0.7-0.9,1.7-1.4,3.1-1.4c0.5,0,1,0.1,1.4,0.2c0.4,0.2,0.8,0.3,1,0.6s0.5,0.5,0.8,0.8c0.2,0.3,0.3,0.8,0.4,1.2l-1.9,0.5
				c-0.1-0.3-0.2-0.5-0.3-0.7s-0.2-0.4-0.3-0.6c-0.2-0.2-0.3-0.3-0.5-0.3c-0.2-0.1-0.4-0.2-0.8-0.2c-0.7,0-1.2,0.3-1.5,0.8
				s-0.4,1.3-0.4,2.2v1.9c0,0.9,0.2,1.6,0.4,2.2c0.3,0.5,0.8,0.8,1.5,0.8c0.3,0,0.5,0,0.8-0.2c0.2-0.1,0.3-0.2,0.5-0.3
				s0.3-0.3,0.3-0.6c0.1-0.3,0.2-0.4,0.3-0.7l1.9,0.5c-0.1,0.4-0.3,0.8-0.4,1.2c-0.2,0.3-0.4,0.7-0.8,0.8c-0.3,0.3-0.7,0.4-1,0.6
				C738.8,130.5,738.4,130.6,737.8,130.6z"/>
			<path id="path355" class="st2" d="M747.7,121.4v9h-2v-9h-3.2v-1.6h8.4v1.6H747.7z"/>
		</g>
	</g>
	
		<linearGradient id="path366_00000109031198166393471630000001525688707052100015_" gradientUnits="userSpaceOnUse" x1="723.85" y1="-1104.6042" x2="723.85" y2="-1188.3145" gradientTransform="matrix(1 0 0 1 0 1276)">
		<stop  offset="0" style="stop-color:#10535A"/>
		<stop  offset="1" style="stop-color:#102E46"/>
	</linearGradient>
	<path id="path366" style="fill:url(#path366_00000109031198166393471630000001525688707052100015_);" d="M686.6,67.5
		c-3.9,0-7,3.1-7,7v89.9c0,3.9,3.1,7,7,7h74.3c3.9,0,7-3.1,7-7c0-4.8,0-9.6,0-14.3c0-10.2,0-20.3,0-30.5c0-7-0.2-14.1,0-21
		c0.2-6.4,0.4-13.2-0.2-19.5c-0.4-4.8-2.5-8.8-7.3-10.5c-0.7-0.3-1.4-0.4-2-0.6c-2.6-0.6-5.5-0.7-8.1-0.8L686.6,67.5z M759.4,158
		c0,3.4-2.7,6.1-6.1,6.1H693c-3.4,0-6.1-2.7-6.1-6.1V80.8c0-3.4,2.7-6.1,6.1-6.1h40.6v10.4c0,8.5,6.9,15.4,15.4,15.4h10.6L759.4,158
		L759.4,158z M759.4,93.8h-10.6c-4.8,0-8.7-3.9-8.7-8.7V74.7h13.2c3.4,0,6.1,2.7,6.1,6.1V93.8L759.4,93.8z"/>
</g>
<g id="g464">
	<rect id="rect370" x="682.1" y="311.7" class="st10" width="555.8" height="50.5"/>
	<g id="g392">
		<path id="path372" class="st2" d="M735.2,334.1l-0.9,0.8c-0.8-0.9-1.9-1.5-3.2-1.5c-2.4,0-4.2,1.8-4.2,4.3s1.9,4.3,4.2,4.3
			s3.6-1.4,3.8-3.6h-3.3v-1.1h4.7c0,0.1,0,0.2,0,0.3c0,3.1-2,5.5-5.2,5.5c-2.8,0-5.5-2-5.5-5.5c0-3.2,2.4-5.5,5.5-5.5
			C732.7,332.4,734.1,333,735.2,334.1z"/>
		<path id="path374" class="st2" d="M743,336l-0.3,1.1c-0.3-0.2-0.8-0.3-1.3-0.3c-1.1,0-2,0.8-2,2.3v4.1h-1.1V336h1.1v1
			c0.5-0.8,1.3-1.2,2.1-1.2C742.2,335.8,742.6,335.8,743,336z"/>
		<path id="path376" class="st2" d="M750.9,339.6c0,0.2,0,0.3,0,0.4h-5.8c0.2,1.5,1.3,2.4,2.5,2.4c0.8,0,1.7-0.3,2.3-0.9l0.6,0.8
			c-0.9,0.8-1.9,1.1-3,1.1c-2.1,0-3.6-1.5-3.6-3.7s1.5-3.7,3.6-3.7C749.4,335.8,750.9,337.4,750.9,339.6z M745.1,339.1h4.7
			c-0.2-1.4-1-2.2-2.3-2.2C746.1,336.8,745.3,337.7,745.1,339.1z"/>
		<path id="path378" class="st2" d="M759.4,339.6c0,0.2,0,0.3,0,0.4h-5.8c0.2,1.5,1.3,2.4,2.5,2.4c0.8,0,1.7-0.3,2.3-0.9l0.6,0.8
			c-0.9,0.8-1.9,1.1-3,1.1c-2.1,0-3.6-1.5-3.6-3.7s1.5-3.7,3.6-3.7C758,335.8,759.4,337.4,759.4,339.6z M753.7,339.1h4.7
			c-0.2-1.4-1-2.2-2.3-2.2C754.7,336.8,753.8,337.7,753.7,339.1z"/>
		<path id="path380" class="st2" d="M768.2,338.7v4.5h-1.1v-4.1c0-1.4-0.8-2.2-2.1-2.2c-1.2,0-2.2,0.8-2.2,2.2v4.1h-1.1V336h1.1v1
			c0.6-0.8,1.5-1.2,2.5-1.2C766.9,335.8,768.2,336.9,768.2,338.7z"/>
		<g id="g390">
			<path id="path382" class="st2" d="M789.9,338.2h-6.6v-1h6.6V338.2z M789.9,341.1h-6.6v-1h6.6V341.1z"/>
			<path id="path384" class="st2" d="M798.7,339.2v3.9h-2.1v-10.7h4.3c2.5,0,3.9,1.4,3.9,3.4s-1.4,3.4-3.9,3.4L798.7,339.2
				L798.7,339.2z M798.7,334.5v2.9h2.2c1.2,0,1.8-0.5,1.8-1.4s-0.6-1.4-1.8-1.4L798.7,334.5L798.7,334.5z"/>
			<path id="path386" class="st2" d="M815.6,338.9c0,3-1.9,4.5-4.6,4.5c-2.7,0-4.6-1.5-4.6-4.5v-6.4h2.1v6.3c0,1.8,1,2.5,2.5,2.5
				c1.4,0,2.5-0.8,2.5-2.5v-6.3h2.1V338.9z"/>
			<path id="path388" class="st2" d="M825.7,334.5h-3.3v8.7h-2.1v-8.7H817v-2h8.7V334.5L825.7,334.5z"/>
		</g>
	</g>
	<g id="g430">
		<g id="g402">
			<path id="path394" class="st2" d="M886,331.7c2.3,0,3.9,0.8,3.9,2.8c0,1.2-0.7,2-1.6,2.4c1.1,0.3,1.9,1.2,1.9,2.5
				c0,2-1.5,3-3.9,3h-4.4v-10.7H886L886,331.7z M883.1,332.8v3.6h2.9c1.4,0,2.6-0.3,2.6-1.8c0-1.4-1.1-1.8-2.6-1.8H883.1
				L883.1,332.8z M883.1,337.4v3.7h3.1c1.6,0,2.6-0.4,2.6-1.9s-1-1.9-2.6-1.9L883.1,337.4L883.1,337.4z"/>
			<path id="path396" class="st2" d="M893.6,342.3h-1.1v-11h1.1V342.3z"/>
			<path id="path398" class="st2" d="M902.6,339.3c0,2.1-1.5,3.1-3.3,3.1s-3.3-1-3.3-3.1v-4.2h1.1v4.1c0,1.5,0.9,2.2,2.1,2.2
				c1.2,0,2.1-0.7,2.1-2.2v-4.1h1.1L902.6,339.3L902.6,339.3z"/>
			<path id="path400" class="st2" d="M911.7,338.7c0,0.2,0,0.3,0,0.4H906c0.2,1.5,1.3,2.4,2.5,2.4c0.8,0,1.7-0.3,2.3-0.9l0.6,0.8
				c-0.9,0.8-1.9,1.1-3,1.1c-2.1,0-3.6-1.5-3.6-3.7s1.5-3.7,3.6-3.7C910.3,335,911.7,336.5,911.7,338.7z M905.9,338.2h4.7
				c-0.2-1.4-1-2.2-2.3-2.2C907,335.9,906.1,336.9,905.9,338.2z"/>
		</g>
		<g id="g428">
			<path id="path404" class="st2" d="M945.3,337.4h-6.6v-1h6.6V337.4z M945.3,340.2h-6.6v-1h6.6V340.2z"/>
			<path id="path406" class="st2" d="M956.3,331.7c2.5,0,3.9,1.2,3.9,3.2c0,1.8-1.2,3-3.3,3.1l3.3,4.3h-2.5l-3.1-4.2H954v4.2h-2.1
				v-10.7h4.4V331.7z M953.9,333.6v2.6h2.4c1.2,0,1.8-0.4,1.8-1.4c0-0.8-0.7-1.3-1.8-1.3h-2.4V333.6z"/>
			<path id="path408" class="st2" d="M970.2,342.3h-8v-10.7h7.9v2h-5.8v2.4h5.5v2h-5.5v2.5h5.9L970.2,342.3L970.2,342.3z"/>
			<path id="path410" class="st2" d="M974.6,338.4v3.9h-2.1v-10.7h4.3c2.5,0,3.9,1.4,3.9,3.4s-1.4,3.4-3.9,3.4L974.6,338.4
				L974.6,338.4z M974.6,333.6v2.9h2.2c1.2,0,1.8-0.5,1.8-1.4s-0.6-1.4-1.8-1.4L974.6,333.6L974.6,333.6z"/>
			<path id="path412" class="st2" d="M990.3,342.3h-7.8v-10.7h2.1v8.7h5.7V342.3z"/>
			<path id="path414" class="st2" d="M993.8,342.3h-2.1v-10.7h2.1V342.3z"/>
			<path id="path416" class="st2" d="M1006,333.8l-1.9,1.1c-0.6-0.9-1.5-1.4-2.8-1.4c-2,0-3.4,1.4-3.4,3.5s1.5,3.5,3.4,3.5
				c1.2,0,2.1-0.5,2.8-1.4l1.8,1.3c-0.9,1.4-2.5,2.3-4.5,2.3c-3.3,0-5.6-2.4-5.6-5.5s2.3-5.5,5.6-5.5
				C1003.3,331.4,1005.1,332.4,1006,333.8z"/>
			<path id="path418" class="st2" d="M1017.6,342.3h-2.3l-0.9-2.5h-4.6l-0.9,2.5h-2.2l4.2-10.7h2.6L1017.6,342.3z M1010.5,337.9h3.1
				l-1.5-4.2L1010.5,337.9z"/>
			<path id="path420" class="st2" d="M1025.8,333.6h-3.3v8.7h-2.1v-8.7h-3.3v-2h8.7V333.6L1025.8,333.6z"/>
			<path id="path422" class="st2" d="M1029.4,342.3h-2.1v-10.7h2.1V342.3z"/>
			<path id="path424" class="st2" d="M1042.5,337c0,3.2-2.4,5.5-5.6,5.5s-5.6-2.4-5.6-5.5c0-3.2,2.3-5.5,5.6-5.5
				S1042.5,333.8,1042.5,337z M1033.5,337c0,2,1.4,3.5,3.4,3.5s3.4-1.4,3.4-3.5c0-2-1.4-3.5-3.4-3.5
				C1035,333.5,1033.5,334.9,1033.5,337z"/>
			<path id="path426" class="st2" d="M1054,342.3h-2l-5.4-7.1v7.1h-2.1v-10.7h2l5.4,7.1v-7.1h2.1V342.3L1054,342.3z"/>
		</g>
	</g>
	<g id="g456">
		<g id="g444">
			<path id="path432" class="st2" d="M1118.1,335.9c0,3.2-2.4,5.5-5.5,5.5s-5.5-2.3-5.5-5.5s2.4-5.5,5.5-5.5
				C1115.8,330.4,1118.1,332.7,1118.1,335.9z M1108.3,335.9c0,2.5,1.9,4.3,4.2,4.3c2.4,0,4.2-1.8,4.2-4.3s-1.9-4.3-4.2-4.3
				C1110.2,331.6,1108.3,333.3,1108.3,335.9z"/>
			<path id="path434" class="st2" d="M1124.9,334.1l-0.3,1.1c-0.3-0.2-0.8-0.3-1.3-0.3c-1.1,0-2,0.8-2,2.3v4.1h-1.1v-7.2h1.1v1
				c0.5-0.8,1.3-1.2,2.1-1.2C1124.2,333.9,1124.6,333.9,1124.9,334.1z"/>
			<path id="path436" class="st2" d="M1133.3,341.2h-1.1v-1.1c-0.6,0.8-1.4,1.2-2.6,1.2c-2,0-3.6-1.6-3.6-3.7c0-2.2,1.6-3.7,3.6-3.7
				c1.2,0,2,0.5,2.6,1.2V334h1.1V341.2z M1127,337.6c0,1.5,1,2.7,2.5,2.7s2.5-1.2,2.5-2.7s-1.1-2.7-2.5-2.7
				C1128,334.9,1127,336.1,1127,337.6z"/>
			<path id="path438" class="st2" d="M1142.5,336.8v4.5h-1.1v-4.1c0-1.4-0.8-2.2-2.1-2.2c-1.2,0-2.2,0.8-2.2,2.2v4.1h-1.1v-7.2h1.1
				v1c0.6-0.8,1.5-1.2,2.5-1.2C1141.2,333.9,1142.5,335,1142.5,336.8z"/>
			<path id="path440" class="st2" d="M1150.7,335.1V334h1.1v6.7c0,2.4-1.6,3.6-3.8,3.6c-1.2,0-2.3-0.3-3.1-0.9l0.5-0.9
				c0.7,0.5,1.5,0.8,2.5,0.8c1.5,0,2.7-0.9,2.7-2.5V340c-0.6,0.8-1.4,1.2-2.5,1.2c-2,0-3.6-1.5-3.6-3.7s1.5-3.7,3.6-3.7
				C1149.3,333.9,1150.1,334.3,1150.7,335.1z M1145.6,337.5c0,1.4,1,2.6,2.5,2.6s2.5-1.1,2.5-2.6s-1-2.6-2.5-2.6
				S1145.6,336.1,1145.6,337.5z"/>
			<path id="path442" class="st2" d="M1160.9,337.6c0,0.2,0,0.3,0,0.4h-5.8c0.2,1.5,1.3,2.4,2.5,2.4c0.8,0,1.7-0.3,2.3-0.9l0.6,0.8
				c-0.9,0.8-1.9,1.1-3,1.1c-2.1,0-3.6-1.5-3.6-3.7s1.5-3.7,3.6-3.7C1159.5,333.9,1160.9,335.4,1160.9,337.6z M1155.2,337.1h4.7
				c-0.2-1.4-1-2.2-2.3-2.2C1156.2,334.8,1155.3,335.8,1155.2,337.1z"/>
		</g>
		<g id="g454">
			<path id="path446" class="st2" d="M1180,336.3h-6.6v-1h6.6V336.3z M1180,339.2h-6.6v-1h6.6V339.2z"/>
			<path id="path448" class="st2" d="M1195.7,331.9l-1.5,1.5c-0.6-0.7-1.5-1.1-2.5-1.1c-2,0-3.4,1.4-3.4,3.6c0,2.2,1.5,3.6,3.3,3.6
				s2.7-0.8,3.1-2.4h-2.7v-1.8h4.9c0,0.2,0,0.4,0,0.6c0,3.2-2.2,5.5-5.3,5.5c-3,0-5.6-2.1-5.6-5.5c0-3.2,2.4-5.5,5.7-5.5
				C1193.4,330.3,1194.8,330.9,1195.7,331.9z"/>
			<path id="path450" class="st2" d="M1206.8,341.2h-8v-10.7h7.9v2h-5.8v2.4h5.5v2h-5.5v2.5h5.9V341.2L1206.8,341.2z"/>
			<path id="path452" class="st2" d="M1216.8,332.5h-3.3v8.7h-2.1v-8.7h-3.3v-2h8.7L1216.8,332.5L1216.8,332.5z"/>
		</g>
	</g>
	<circle id="circle458" class="st11" cx="705.4" cy="337.1" r="5.1"/>
	<circle id="circle460" class="st0" cx="861.2" cy="337.1" r="5.1"/>
	<circle id="circle462" class="st12" cx="1086.9" cy="336.9" r="5.1"/>
</g>
<g id="g476">
	<path id="path472" class="st12" d="M325,112v-2.9h28.5v2.9c0,1,1.2,1.5,2,0.8l4.2-4.2c0.4-0.4,0.4-1.2,0-1.6l-4.2-4.2
		c-0.7-0.7-2-0.2-2,0.8v3.1H325v-3.1c0-1-1.2-1.5-2-0.8l-4.2,4.2c-0.4,0.4-0.4,1.2,0,1.6l4.2,4.2C323.8,113.5,325,113,325,112z"/>
	<path id="path474" class="st11" d="M325,137v-2.9h28.5v2.9c0,1,1.2,1.5,2,0.8l4.2-4.2c0.4-0.4,0.4-1.2,0-1.6l-4.2-4.2
		c-0.7-0.7-2-0.2-2,0.8v3.1H325v-3.1c0-1-1.2-1.5-2-0.8l-4.2,4.2c-0.4,0.4-0.4,1.2,0,1.6l4.2,4.2C323.8,138.5,325,138,325,137z"/>
</g>
<g id="g534">
	<path id="path478" class="st2" d="M1277.7,214.6h1.1v4.2h0.1c0.1-0.2,0.2-0.3,0.3-0.5s0.3-0.3,0.4-0.4c0.2-0.2,0.3-0.2,0.6-0.3
		c0.3-0.1,0.5-0.1,0.8-0.1c0.8,0,1.4,0.3,1.8,0.7c0.4,0.5,0.7,1.1,0.7,2v4.5h-1.2v-4.3c0-0.7-0.2-1.1-0.4-1.4
		c-0.3-0.3-0.7-0.5-1.3-0.5c-0.3,0-0.4,0-0.7,0.1c-0.2,0.1-0.4,0.2-0.6,0.3s-0.3,0.3-0.4,0.4c-0.1,0.2-0.2,0.3-0.2,0.6v4.9h-1.1
		L1277.7,214.6L1277.7,214.6z"/>
	<path id="path480" class="st2" d="M1288.9,224.7c-0.5,0-0.9-0.2-1.2-0.4c-0.3-0.3-0.3-0.7-0.3-1.2v-4.5h-2.4v-1h1.8
		c0.3,0,0.4-0.1,0.5-0.2s0.2-0.3,0.2-0.5V215h1v2.5h3.2v0.9h-3.2v5.2h3.2v0.9L1288.9,224.7L1288.9,224.7z"/>
	<path id="path482" class="st2" d="M1297.3,224.7c-0.5,0-0.9-0.2-1.2-0.4c-0.3-0.3-0.4-0.7-0.4-1.2v-4.5h-2.4v-1h1.8
		c0.3,0,0.4-0.1,0.5-0.2c0.1-0.1,0.2-0.3,0.2-0.5V215h1v2.5h3.2v0.9h-3.2v5.2h3.2v0.9L1297.3,224.7L1297.3,224.7z"/>
	<path id="path484" class="st2" d="M1302.3,217.6h1.1v1.2h0.1c0.4-0.8,1.2-1.4,2.2-1.4c0.8,0,1.5,0.3,2,1s0.8,1.5,0.8,2.7
		s-0.3,2-0.8,2.7s-1.2,1-2,1c-1,0-1.7-0.4-2.2-1.4h-0.2v3.9h-1.1L1302.3,217.6L1302.3,217.6z M1305.2,223.9c0.7,0,1.1-0.2,1.5-0.6
		c0.3-0.4,0.5-0.9,0.5-1.5v-1.2c0-0.7-0.2-1.2-0.5-1.5s-0.8-0.6-1.5-0.6c-0.3,0-0.5,0-0.7,0.1c-0.3,0.1-0.4,0.2-0.6,0.3
		s-0.3,0.3-0.4,0.4c-0.2,0.2-0.2,0.4-0.2,0.6v2.5c0,0.3,0.1,0.4,0.2,0.6s0.3,0.3,0.4,0.4c0.2,0.1,0.3,0.3,0.6,0.3
		C1304.7,223.8,1305,223.9,1305.2,223.9z"/>
	<path id="path486" class="st2" d="M1313.5,224.8c-0.8,0-1.4-0.2-2-0.3c-0.5-0.3-1-0.6-1.4-1l0.8-0.7c0.3,0.3,0.7,0.6,1.1,0.8
		c0.4,0.3,0.8,0.3,1.4,0.3s1-0.1,1.4-0.3c0.3-0.2,0.5-0.5,0.5-0.9c0-0.2,0-0.3-0.1-0.4c-0.1-0.2-0.2-0.3-0.3-0.3
		c-0.1,0-0.3-0.2-0.4-0.2c-0.2-0.1-0.3-0.1-0.4-0.1l-1.1-0.2c-0.3,0-0.5-0.1-0.8-0.2c-0.3-0.1-0.6-0.2-0.8-0.3
		c-0.3-0.2-0.4-0.3-0.6-0.6s-0.3-0.6-0.3-0.9s0.1-0.7,0.2-0.9c0.2-0.3,0.3-0.5,0.6-0.7c0.3-0.2,0.6-0.3,0.9-0.4
		c0.3-0.1,0.8-0.2,1.1-0.2c0.7,0,1.2,0.1,1.7,0.3c0.4,0.2,0.8,0.5,1.2,0.8l-0.7,0.7c-0.1-0.1-0.2-0.2-0.3-0.3
		c-0.2-0.1-0.3-0.2-0.4-0.3c-0.2-0.1-0.4-0.2-0.6-0.2c-0.3-0.1-0.5-0.1-0.8-0.1c-0.6,0-1,0.1-1.3,0.3s-0.4,0.5-0.4,0.8
		c0,0.2,0,0.3,0.1,0.4c0.1,0.2,0.2,0.3,0.3,0.3s0.3,0.2,0.4,0.2c0.2,0.1,0.3,0.1,0.4,0.1l1.1,0.2c0.3,0,0.5,0.1,0.8,0.2
		c0.3,0.1,0.5,0.2,0.8,0.3c0.3,0.2,0.4,0.3,0.6,0.6s0.3,0.6,0.3,0.9c0,0.7-0.3,1.3-0.8,1.6S1314.3,224.8,1313.5,224.8z"/>
	<path id="path488" class="st2" d="M1321.6,219.4c-0.3,0-0.7-0.1-0.8-0.3c-0.1-0.2-0.3-0.3-0.3-0.6v-0.3c0-0.3,0.1-0.4,0.3-0.6
		c0.2-0.2,0.4-0.3,0.8-0.3c0.3,0,0.7,0.1,0.8,0.3s0.3,0.3,0.3,0.6v0.3c0,0.3-0.1,0.4-0.3,0.6C1322.2,219.3,1322,219.4,1321.6,219.4z
		 M1321.6,224.8c-0.3,0-0.7-0.1-0.8-0.3c-0.1-0.2-0.3-0.3-0.3-0.6v-0.3c0-0.3,0.1-0.4,0.3-0.6c0.2-0.2,0.4-0.3,0.8-0.3
		c0.3,0,0.7,0.1,0.8,0.3c0.1,0.2,0.3,0.3,0.3,0.6v0.3c0,0.3-0.1,0.4-0.3,0.6S1322,224.8,1321.6,224.8z"/>
	<path id="path490" class="st2" d="M1327,226.6l4.8-12.3h1l-4.8,12.3H1327z"/>
	<path id="path492" class="st2" d="M1335.2,226.6l4.8-12.3h1l-4.8,12.3H1335.2z"/>
	<path id="path494" class="st2" d="M1342.9,224.7v-7h1v0.8h0.1c0.1-0.3,0.3-0.5,0.4-0.7c0.2-0.2,0.5-0.3,0.8-0.3
		c0.4,0,0.7,0.1,0.9,0.3c0.2,0.2,0.3,0.5,0.3,0.8l0,0c0.2-0.3,0.3-0.6,0.6-0.8c0.3-0.2,0.6-0.3,1-0.3c0.6,0,0.9,0.2,1.2,0.6
		c0.2,0.4,0.3,1,0.3,1.7v4.9h-1v-4.8c0-0.6-0.1-1-0.2-1.3s-0.3-0.3-0.7-0.3c-0.3,0-0.5,0.1-0.7,0.3s-0.3,0.5-0.3,0.8v5.2h-1v-4.8
		c0-0.6-0.1-1-0.2-1.3s-0.3-0.3-0.7-0.3c-0.3,0-0.5,0.1-0.7,0.3s-0.3,0.5-0.3,0.8v5.2L1342.9,224.7L1342.9,224.7z"/>
	<path id="path496" class="st2" d="M1351.9,223.7h2.5v-5.2h-2.5v-0.9h3.6v6.1h2.4v0.9h-6V223.7z M1355,216c-0.3,0-0.5-0.1-0.7-0.2
		c-0.2-0.1-0.2-0.3-0.2-0.5V215c0-0.2,0.1-0.3,0.2-0.5c0.2-0.2,0.3-0.2,0.7-0.2c0.3,0,0.5,0.1,0.7,0.2c0.2,0.2,0.2,0.3,0.2,0.5v0.3
		c0,0.2-0.1,0.3-0.2,0.5S1355.3,216,1355,216z"/>
	<path id="path498" class="st2" d="M1360,224.7v-7h1.1v1.2h0.1c0.1-0.2,0.2-0.3,0.3-0.5s0.3-0.3,0.4-0.4c0.2-0.2,0.3-0.2,0.6-0.3
		c0.3-0.1,0.5-0.1,0.8-0.1c0.8,0,1.4,0.3,1.8,0.7c0.4,0.5,0.7,1.1,0.7,2v4.5h-1.1v-4.3c0-0.7-0.2-1.1-0.4-1.4
		c-0.3-0.3-0.7-0.5-1.3-0.5c-0.3,0-0.4,0-0.7,0.1c-0.2,0.1-0.4,0.2-0.6,0.3s-0.3,0.3-0.4,0.4c-0.1,0.2-0.2,0.3-0.2,0.6v4.9
		L1360,224.7L1360,224.7z"/>
	<path id="path500" class="st2" d="M1368.4,223.7h2.5v-5.2h-2.5v-0.9h3.6v6.1h2.4v0.9h-6V223.7L1368.4,223.7z M1371.4,216
		c-0.3,0-0.5-0.1-0.7-0.2c-0.2-0.2-0.2-0.3-0.2-0.5V215c0-0.2,0.1-0.3,0.2-0.5c0.2-0.2,0.3-0.2,0.7-0.2c0.3,0,0.5,0.1,0.7,0.2
		c0.2,0.2,0.2,0.3,0.2,0.5v0.3c0,0.2-0.1,0.3-0.2,0.5S1371.8,216,1371.4,216z"/>
	<path id="path502" class="st2" d="M1379.2,224.8c-0.5,0-0.9-0.1-1.4-0.3c-0.4-0.2-0.8-0.4-1-0.8c-0.3-0.3-0.5-0.7-0.7-1.2
		c-0.2-0.4-0.3-0.9-0.3-1.5s0.1-1.1,0.3-1.5s0.3-0.8,0.7-1.2c0.3-0.3,0.6-0.6,1-0.8s0.8-0.3,1.4-0.3s0.9,0.1,1.4,0.3
		c0.4,0.2,0.8,0.4,1,0.8c0.3,0.3,0.5,0.7,0.7,1.2s0.3,0.9,0.3,1.5s-0.1,1.1-0.3,1.5c-0.2,0.4-0.3,0.8-0.7,1.2
		c-0.3,0.3-0.6,0.6-1,0.8C1380.2,224.7,1379.7,224.8,1379.2,224.8z M1379.2,223.9c0.6,0,1.1-0.2,1.5-0.6c0.3-0.3,0.6-0.9,0.6-1.7v-1
		c0-0.8-0.2-1.4-0.6-1.7c-0.3-0.3-0.8-0.6-1.5-0.6s-1.1,0.2-1.5,0.6c-0.3,0.3-0.6,0.9-0.6,1.7v1c0,0.8,0.2,1.4,0.6,1.7
		C1378.1,223.7,1378.6,223.9,1379.2,223.9z"/>
	<path id="path504" class="st2" d="M1385.5,221.1v-1.2h4v1.2H1385.5z"/>
	<path id="path506" class="st2" d="M1395.7,224.8c-0.6,0-1.1-0.1-1.5-0.3s-0.8-0.5-1-0.9c-0.3-0.4-0.5-0.9-0.6-1.5
		c-0.2-0.6-0.2-1.4-0.2-2.1c0-0.8,0.1-1.4,0.2-2.1c0.2-0.6,0.3-1.1,0.6-1.5c0.3-0.4,0.6-0.8,1-0.9s0.9-0.3,1.5-0.3s1.1,0.1,1.5,0.3
		s0.8,0.5,1,0.9c0.3,0.4,0.5,0.9,0.6,1.5s0.2,1.4,0.2,2.1c0,0.8-0.1,1.5-0.2,2.1c-0.2,0.6-0.3,1.1-0.6,1.5c-0.3,0.4-0.6,0.8-1,0.9
		S1396.3,224.8,1395.7,224.8z M1395.7,223.8c0.4,0,0.7-0.1,1-0.3s0.5-0.3,0.7-0.7c0.2-0.3,0.3-0.6,0.3-1s0.2-0.8,0.2-1.3V219
		c0-0.5,0-0.9-0.2-1.3c-0.1-0.4-0.2-0.8-0.3-1c-0.2-0.3-0.4-0.5-0.7-0.7c-0.3-0.2-0.6-0.3-1-0.3s-0.7,0.1-1,0.3s-0.5,0.3-0.7,0.7
		s-0.3,0.6-0.4,1s-0.2,0.8-0.2,1.3v1.5c0,0.5,0,0.9,0.2,1.3c0.1,0.4,0.2,0.7,0.4,1c0.2,0.3,0.4,0.5,0.7,0.7
		C1395,223.8,1395.4,223.8,1395.7,223.8z M1395.7,220.7c-0.3,0-0.5-0.1-0.7-0.2c-0.2-0.2-0.2-0.3-0.2-0.5v-0.4
		c0-0.2,0.1-0.3,0.2-0.5s0.3-0.2,0.7-0.2c0.3,0,0.5,0.1,0.7,0.2s0.2,0.3,0.2,0.5v0.3c0,0.2-0.1,0.3-0.2,0.5S1396,220.7,1395.7,220.7
		z"/>
	<path id="path508" class="st2" d="M1407.2,224.7h-6.4v-1.2l3.2-2.9c0.4-0.4,0.8-0.8,1.2-1.3c0.3-0.4,0.4-0.9,0.4-1.4v-0.2
		c0-0.6-0.2-1-0.4-1.4c-0.3-0.3-0.8-0.5-1.4-0.5s-1,0.2-1.4,0.4c-0.3,0.3-0.6,0.7-0.7,1.2l-1-0.3c0.1-0.3,0.3-0.6,0.4-0.8
		c0.2-0.3,0.3-0.5,0.6-0.7c0.3-0.2,0.5-0.3,0.9-0.5s0.8-0.2,1.3-0.2s0.9,0.1,1.3,0.2s0.7,0.3,0.9,0.6s0.4,0.5,0.6,0.8
		s0.2,0.7,0.2,1.1c0,0.3-0.1,0.7-0.2,1s-0.3,0.6-0.4,0.9c-0.2,0.3-0.4,0.6-0.7,0.8s-0.6,0.6-0.8,0.8l-2.7,2.4h5.2L1407.2,224.7
		L1407.2,224.7z"/>
	<path id="path510" class="st2" d="M1412.2,224.8c-0.3,0-0.7-0.1-0.8-0.3c-0.1-0.2-0.3-0.3-0.3-0.6v-0.3c0-0.3,0.1-0.4,0.3-0.6
		c0.2-0.2,0.4-0.3,0.8-0.3s0.7,0.1,0.8,0.3c0.1,0.2,0.3,0.3,0.3,0.6v0.3c0,0.3-0.1,0.4-0.3,0.6S1412.6,224.8,1412.2,224.8z"/>
	<path id="path512" class="st2" d="M1420.6,224.8c-0.5,0-1-0.1-1.4-0.3s-0.8-0.4-1-0.8c-0.3-0.3-0.5-0.7-0.7-1.2
		c-0.2-0.4-0.3-0.9-0.3-1.5s0.1-1.1,0.3-1.5s0.4-0.8,0.7-1.2c0.3-0.3,0.6-0.6,1-0.8s0.8-0.3,1.4-0.3s0.9,0.1,1.3,0.3s0.7,0.4,1,0.7
		s0.5,0.7,0.6,1.1c0.1,0.4,0.3,0.8,0.3,1.4v0.5h-5.3v0.3c0,0.3,0.1,0.6,0.2,0.8c0.1,0.3,0.3,0.5,0.4,0.7c0.2,0.2,0.4,0.3,0.7,0.4
		c0.3,0.1,0.6,0.2,0.9,0.2c0.5,0,0.8-0.1,1.3-0.3c0.3-0.3,0.6-0.5,0.8-0.9l0.8,0.6c-0.2,0.5-0.6,0.8-1,1.2
		C1421.8,224.7,1421.2,224.8,1420.6,224.8z M1420.5,218.3c-0.3,0-0.6,0.1-0.8,0.2c-0.3,0.1-0.5,0.3-0.7,0.4
		c-0.2,0.2-0.3,0.4-0.4,0.7s-0.2,0.5-0.2,0.8v0.1h4.1v-0.2c0-0.3-0.1-0.6-0.2-0.8c-0.1-0.3-0.3-0.5-0.4-0.7
		c-0.2-0.2-0.3-0.3-0.6-0.4C1421.1,218.4,1420.7,218.3,1420.5,218.3z"/>
	<path id="path514" class="st2" d="M1425.4,224.7l2.6-3.6l-2.5-3.5h1.3l1.1,1.5l0.8,1.2h0.1l0.8-1.2l1-1.5h1.3l-2.6,3.5l2.6,3.6
		h-1.3l-1.2-1.7l-0.8-1.1h-0.1l-0.8,1.1l-1.2,1.7H1425.4L1425.4,224.7z"/>
	<path id="path516" class="st2" d="M1439.6,224.7c-0.4,0-0.8-0.1-0.9-0.3s-0.3-0.5-0.3-0.8h-0.1c-0.2,0.4-0.4,0.8-0.8,0.9
		c-0.3,0.2-0.8,0.3-1.4,0.3c-0.8,0-1.4-0.2-1.8-0.6s-0.7-0.9-0.7-1.6c0-0.7,0.3-1.2,0.7-1.5c0.5-0.3,1.3-0.5,2.3-0.5h1.5v-0.7
		c0-0.5-0.2-0.9-0.4-1.2c-0.3-0.3-0.7-0.4-1.3-0.4c-0.5,0-0.8,0.1-1.2,0.3c-0.3,0.2-0.5,0.4-0.8,0.8l-0.8-0.6
		c0.1-0.2,0.2-0.3,0.3-0.5s0.3-0.3,0.6-0.5c0.3-0.2,0.5-0.3,0.8-0.3c0.3-0.1,0.6-0.1,1-0.1c0.8,0,1.5,0.2,2,0.7
		c0.4,0.5,0.8,1,0.8,1.8v3.9h1v0.9L1439.6,224.7L1439.6,224.7z M1436.3,223.9c0.3,0,0.5,0,0.8-0.1s0.4-0.2,0.6-0.3s0.3-0.3,0.4-0.4
		s0.2-0.3,0.2-0.5v-1.2h-1.5c-0.7,0-1.1,0.1-1.4,0.3s-0.4,0.4-0.4,0.8v0.3c0,0.3,0.2,0.7,0.4,0.8
		C1435.6,223.7,1435.8,223.9,1436.3,223.9z"/>
	<path id="path518" class="st2" d="M1441.8,224.7v-7h1v0.8h0.1c0.1-0.3,0.3-0.5,0.4-0.7c0.2-0.2,0.5-0.3,0.8-0.3
		c0.4,0,0.7,0.1,0.9,0.3c0.2,0.2,0.3,0.5,0.3,0.8l0,0c0.2-0.3,0.3-0.6,0.6-0.8c0.3-0.2,0.6-0.3,1-0.3c0.6,0,0.9,0.2,1.2,0.6
		c0.2,0.4,0.3,1,0.3,1.7v4.9h-1v-4.8c0-0.6-0.1-1-0.2-1.3s-0.3-0.3-0.7-0.3c-0.3,0-0.5,0.1-0.7,0.3s-0.3,0.5-0.3,0.8v5.2h-1v-4.8
		c0-0.6-0.1-1-0.2-1.3s-0.3-0.3-0.7-0.3c-0.3,0-0.5,0.1-0.7,0.3s-0.3,0.5-0.3,0.8v5.2L1441.8,224.7L1441.8,224.7z"/>
	<path id="path520" class="st2" d="M1450.6,217.6h1.1v1.2h0.1c0.4-0.8,1.2-1.4,2.2-1.4c0.8,0,1.5,0.3,2,1s0.8,1.5,0.8,2.7
		s-0.3,2-0.8,2.7s-1.2,1-2,1c-1,0-1.7-0.4-2.2-1.4h-0.1v3.9h-1.1V217.6z M1453.5,223.9c0.7,0,1.1-0.2,1.5-0.6
		c0.3-0.4,0.5-0.9,0.5-1.5v-1.2c0-0.7-0.2-1.2-0.5-1.5s-0.8-0.6-1.5-0.6c-0.3,0-0.5,0-0.7,0.1c-0.3,0.1-0.4,0.2-0.6,0.3
		s-0.3,0.3-0.4,0.4c-0.2,0.2-0.2,0.4-0.2,0.6v2.5c0,0.3,0.1,0.4,0.2,0.6c0.1,0.2,0.3,0.3,0.4,0.4c0.2,0.1,0.3,0.3,0.6,0.3
		C1453,223.8,1453.2,223.9,1453.5,223.9z"/>
	<path id="path522" class="st2" d="M1458.6,223.7h2.5v-8.2h-2.5v-0.9h3.6v9.2h2.5v0.9h-6L1458.6,223.7L1458.6,223.7z"/>
	<path id="path524" class="st2" d="M1470,224.8c-0.5,0-1-0.1-1.4-0.3s-0.8-0.4-1-0.8c-0.3-0.3-0.5-0.7-0.7-1.2
		c-0.2-0.4-0.3-0.9-0.3-1.5s0.1-1.1,0.3-1.5s0.4-0.8,0.7-1.2c0.3-0.3,0.6-0.6,1-0.8s0.8-0.3,1.4-0.3s0.9,0.1,1.3,0.3s0.7,0.4,1,0.7
		s0.5,0.7,0.6,1.1c0.1,0.4,0.3,0.8,0.3,1.4v0.5h-5.3v0.3c0,0.3,0.1,0.6,0.2,0.8c0.1,0.3,0.3,0.5,0.4,0.7c0.2,0.2,0.4,0.3,0.7,0.4
		c0.3,0.1,0.6,0.2,0.9,0.2c0.5,0,0.8-0.1,1.3-0.3c0.3-0.3,0.6-0.5,0.8-0.9l0.8,0.6c-0.2,0.5-0.6,0.8-1,1.2
		C1471.3,224.7,1470.7,224.8,1470,224.8z M1469.9,218.3c-0.3,0-0.6,0.1-0.8,0.2c-0.3,0.1-0.5,0.3-0.7,0.4c-0.2,0.2-0.3,0.4-0.4,0.7
		s-0.2,0.5-0.2,0.8v0.1h4.1v-0.2c0-0.3-0.1-0.6-0.2-0.8c-0.1-0.3-0.3-0.5-0.4-0.7c-0.2-0.2-0.3-0.3-0.6-0.4
		C1470.5,218.4,1470.2,218.3,1469.9,218.3z"/>
	<path id="path526" class="st2" d="M1478.1,224.8c-0.3,0-0.7-0.1-0.8-0.3c-0.1-0.2-0.3-0.3-0.3-0.6v-0.3c0-0.3,0.1-0.4,0.3-0.6
		c0.2-0.2,0.4-0.3,0.8-0.3s0.7,0.1,0.8,0.3c0.1,0.2,0.3,0.3,0.3,0.6v0.3c0,0.3-0.1,0.4-0.3,0.6S1478.4,224.8,1478.1,224.8z"/>
	<path id="path528" class="st2" d="M1483.5,224.7v-7h1.1v1.2h0.1c0.1-0.2,0.2-0.3,0.3-0.5s0.3-0.3,0.4-0.4c0.2-0.2,0.3-0.2,0.6-0.3
		c0.3-0.1,0.5-0.1,0.8-0.1c0.8,0,1.4,0.3,1.8,0.7c0.4,0.5,0.7,1.1,0.7,2v4.5h-1.1v-4.3c0-0.7-0.2-1.1-0.4-1.4
		c-0.3-0.3-0.7-0.5-1.3-0.5c-0.3,0-0.4,0-0.7,0.1c-0.2,0.1-0.4,0.2-0.6,0.3s-0.3,0.3-0.4,0.4c-0.1,0.2-0.2,0.3-0.2,0.6v4.9
		L1483.5,224.7L1483.5,224.7z"/>
	<path id="path530" class="st2" d="M1494.6,224.8c-0.5,0-1-0.1-1.4-0.3c-0.3-0.2-0.8-0.4-1-0.8c-0.3-0.3-0.5-0.7-0.7-1.2
		c-0.2-0.4-0.3-0.9-0.3-1.5s0.1-1.1,0.3-1.5s0.4-0.8,0.7-1.2c0.3-0.3,0.6-0.6,1-0.8s0.8-0.3,1.4-0.3s0.9,0.1,1.3,0.3s0.7,0.4,1,0.7
		s0.5,0.7,0.6,1.1c0.1,0.4,0.3,0.8,0.3,1.4v0.5h-5.3v0.3c0,0.3,0.1,0.6,0.2,0.8c0.1,0.3,0.3,0.5,0.4,0.7c0.2,0.2,0.4,0.3,0.7,0.4
		c0.3,0.1,0.6,0.2,0.9,0.2c0.5,0,0.8-0.1,1.3-0.3c0.3-0.3,0.6-0.5,0.8-0.9l0.8,0.6c-0.2,0.5-0.6,0.8-1,1.2
		C1496,224.7,1495.4,224.8,1494.6,224.8z M1494.6,218.3c-0.3,0-0.6,0.1-0.8,0.2c-0.3,0.1-0.5,0.3-0.7,0.4c-0.2,0.2-0.3,0.4-0.4,0.7
		s-0.2,0.5-0.2,0.8v0.1h4.1v-0.2c0-0.3-0.1-0.6-0.2-0.8c-0.1-0.3-0.3-0.5-0.4-0.7c-0.2-0.2-0.3-0.3-0.6-0.4
		C1495.2,218.4,1494.9,218.3,1494.6,218.3z"/>
	<path id="path532" class="st2" d="M1503.1,224.7c-0.5,0-0.9-0.2-1.2-0.4c-0.3-0.3-0.4-0.7-0.4-1.2v-4.5h-2.4v-1h1.8
		c0.3,0,0.4-0.1,0.5-0.2s0.2-0.3,0.2-0.5V215h1v2.5h3.2v0.9h-3.2v5.2h3.2v0.9L1503.1,224.7L1503.1,224.7z"/>
</g>
</svg>
