<?xml version="1.0" encoding="utf-8"?>
<!-- Generator: Adobe Illustrator 26.3.1, SVG Export Plug-In . SVG Version: 6.00 Build 0)  -->
<svg version="1.1" id="Capa_1" xmlns="http://www.w3.org/2000/svg" xmlns:xlink="http://www.w3.org/1999/xlink" x="0px" y="0px"
	 viewBox="0 0 1922.5 367.5" style="enable-background:new 0 0 1922.5 367.5;" xml:space="preserve">
<style type="text/css">
	.st0{fill:#2680AF;}
	.st1{fill:#F9F9F9;stroke:#C1C1C1;stroke-width:5;stroke-miterlimit:10;}
	.st2{fill:#434343;}
	.st3{fill:#F5F5F5;}
	.st4{fill:#FFFFFF;stroke:#434343;stroke-width:2;stroke-miterlimit:10;}
	.st5{fill:#C83B51;}
	.st6{fill:#FFFFFF;}
	.st7{opacity:9.000000e-02;fill:#2680AF;enable-background:new    ;}
	.st8{fill:url(#SVGID_1_);}
	.st9{fill:url(#SVGID_00000044166456006318599210000001003902033111710116_);}
	.st10{fill:#F9F9F9;stroke:#C1C1C1;stroke-miterlimit:10;stroke-dasharray:7;}
	.st11{fill:#7FC63C;}
	.st12{fill:#D88A3D;}
</style>
<path class="st0" d="M-8357.1-2024.5v206.8h3.9c1.2,0,1.8,1.4,0.9,2.3l-4.9,4.9c-0.5,0.5-1.4,0.5-1.9,0l-4.9-4.9
	c-0.8-0.8-0.2-2.3,0.9-2.3h4v-206.8H-8357.1z"/>
<g>
	<path class="st1" d="M883.5,142.8c-25.1,0-45.6-20.4-45.6-45.6s20.4-45.6,45.6-45.6c2.5,0,4.9,0.2,7.2,0.6
		c7.5-25.3,31-43.8,58.8-43.8c33.8,0,61.2,27.4,61.2,61.2c0,0.9,0,1.9-0.1,2.9c4.8-2.2,10.2-3.4,15.8-3.4c21,0,37.9,17,37.9,37.9
		c0,21-17,37.9-37.9,37.9L883.5,142.8z"/>
	<g>
		<path class="st2" d="M907.9,104.4H904l-10.6-14v14h-4.2v-21h3.9l10.6,14v-14h4.2V104.4L907.9,104.4z"/>
		<path class="st2" d="M925.8,97.1c0,0.4,0,1-0.1,1.3h-10.3c0.4,2.1,1.9,3,3.8,3c1.3,0,2.7-0.5,3.7-1.4l2.3,2.5
			c-1.6,1.5-3.8,2.2-6.2,2.2c-4.5,0-7.5-3-7.5-7.6c0-4.5,3-7.7,7.4-7.7C923,89.5,925.8,92.6,925.8,97.1z M915.5,95.9h6.4
			c-0.3-1.9-1.5-2.9-3.2-2.9C916.9,92.9,915.8,94.1,915.5,95.9z"/>
		<path class="st2" d="M939.4,93.4h-5.2v5.3c0,1.8,0.9,2.5,2.1,2.5c0.9,0,2-0.4,2.7-0.9l1.5,3.1c-1.3,0.9-2.7,1.5-4.8,1.5
			c-3.6,0-5.4-2.1-5.4-5.8v-5.7h-2.8v-3.5h2.8v-4.3h3.9v4.3h5.2V93.4L939.4,93.4z"/>
		<path class="st2" d="M959,100.1l3.1-10.2h4.1l-4.9,14.6h-4.5l-3.3-9.9l-3.2,9.9H946l-4.9-14.6h4.2l3.1,10.1l3.3-10.1h4.1
			L959,100.1z"/>
		<path class="st2" d="M983.2,97.2c0,4.4-3.3,7.6-7.9,7.6c-4.5,0-7.9-3.3-7.9-7.6c0-4.4,3.3-7.6,7.9-7.6
			C979.8,89.5,983.2,92.8,983.2,97.2z M971.4,97.2c0,2.4,1.6,4,3.9,4s3.9-1.6,3.9-4s-1.6-4-3.9-4S971.4,94.8,971.4,97.2z"/>
		<path class="st2" d="M996.3,89.9l-0.6,3.9c-0.7-0.3-1.5-0.4-2.4-0.4c-1.8,0-3.1,1.1-3.1,3.3v7.9h-3.9V90h3.8v1.5
			c0.9-1.4,2.3-2,4.1-2C995.1,89.5,995.8,89.7,996.3,89.9z"/>
		<path class="st2" d="M1002.9,95.1h1.4l4.1-5.1h4.8l-5.7,6.9l5.7,7.7h-4.8l-4.2-5.9h-1.3v5.9H999V83h3.9V95.1L1002.9,95.1z"/>
	</g>
</g>
<path class="st3" d="M1527.7,240.8H1265c-4.2,0-7.7-3.4-7.7-7.7V201c0-4.2,3.4-7.7,7.7-7.7h262.6c4.2,0,7.7,3.4,7.7,7.7v32.1
	C1535.4,237.4,1531.9,240.8,1527.7,240.8z"/>
<g>
	<path class="st4" d="M266.4,157.2H45.6c-6.2,0-11.2-5.1-11.2-11.2V63.7c0-6.2,5.1-11.2,11.2-11.2h220.8c6.2,0,11.2,5.1,11.2,11.2
		v82.4C277.6,152.3,272.6,157.2,266.4,157.2z"/>
	<path class="st4" d="M275.8,170.1H55c-6.2,0-11.2-5.1-11.2-11.2V76.6c0-6.2,5.1-11.2,11.2-11.2h220.8c6.2,0,11.2,5.1,11.2,11.2V159
		C287,165.1,282,170.1,275.8,170.1z"/>
	<path class="st4" d="M285.2,182.9H64.4c-6.2,0-11.2-5.1-11.2-11.2V89.4c0-6.2,5.1-11.2,11.2-11.2h220.8c6.2,0,11.2,5.1,11.2,11.2
		v82.4C296.5,178,291.4,182.9,285.2,182.9z"/>
	<g>
		<path class="st2" d="M114.2,138H111l-1.3-3.5h-6.4L102,138h-3.1l5.8-15h3.6L114.2,138z M104.3,131.7h4.4l-2.1-5.8L104.3,131.7z"/>
		<path class="st2" d="M126.7,132.7c0,3.1-2.1,5.5-5.1,5.5c-1.4,0-2.4-0.5-3.1-1.4v5.4h-2.7v-14.6h2.7v1.1c0.7-0.9,1.7-1.5,3.1-1.5
			C124.6,127.3,126.7,129.7,126.7,132.7z M118.6,132.7c0,1.6,1.1,2.8,2.7,2.8s2.7-1.3,2.7-2.8s-1-2.8-2.7-2.8
			C119.6,129.9,118.6,131.1,118.6,132.7z"/>
		<path class="st2" d="M139.9,132.7c0,3.1-2.1,5.5-5.1,5.5c-1.4,0-2.4-0.5-3.1-1.4v5.4H129v-14.6h2.7v1.1c0.7-0.9,1.7-1.5,3.1-1.5
			C137.7,127.3,139.9,129.7,139.9,132.7z M131.7,132.7c0,1.6,1.1,2.8,2.7,2.8c1.6,0,2.7-1.3,2.7-2.8s-1-2.8-2.7-2.8
			C132.8,129.9,131.7,131.1,131.7,132.7z"/>
		<path class="st2" d="M144.9,138h-2.8v-15.4h2.8V138z"/>
		<path class="st2" d="M151,124.2c0,1-0.8,1.8-1.8,1.8s-1.8-0.8-1.8-1.8s0.8-1.8,1.8-1.8S151,123.2,151,124.2z M150.7,138h-2.8
			v-10.4h2.8V138z"/>
		<path class="st2" d="M162.7,129.2l-2,1.7c-0.6-0.7-1.3-1-2.2-1c-1.5,0-2.6,1.1-2.6,2.8s1.1,2.8,2.6,2.8c0.9,0,1.7-0.4,2.2-1l2,1.7
			c-0.9,1.3-2.4,2-4.2,2c-3.3,0-5.6-2.3-5.6-5.5s2.2-5.5,5.6-5.5C160.3,127.3,161.7,128,162.7,129.2z"/>
		<path class="st2" d="M174.7,138H172v-1.1c-0.7,0.9-1.7,1.4-3.1,1.4c-2.8,0-5.1-2.3-5.1-5.5s2.1-5.5,5.1-5.5c1.5,0,2.4,0.6,3.1,1.5
			v-1.1h2.7V138z M166.7,132.7c0,1.6,1,2.8,2.7,2.8c1.6,0,2.7-1.2,2.7-2.8c0-1.6-1.1-2.8-2.7-2.8
			C167.7,129.9,166.7,131.2,166.7,132.7z"/>
		<path class="st2" d="M185.1,130.1h-3.8v3.8c0,1.3,0.7,1.8,1.5,1.8c0.7,0,1.4-0.3,2-0.7l1,2.2c-0.9,0.6-2,1.1-3.4,1.1
			c-2.6,0-3.9-1.5-3.9-4.1v-4h-2v-2.5h2v-3.1h2.8v3.1h3.8L185.1,130.1L185.1,130.1z"/>
		<path class="st2" d="M190.8,124.2c0,1-0.8,1.8-1.8,1.8s-1.8-0.8-1.8-1.8s0.8-1.8,1.8-1.8C190,122.4,190.8,123.2,190.8,124.2z
			 M190.4,138h-2.8v-10.4h2.8V138z"/>
		<path class="st2" d="M203.9,132.7c0,3.1-2.4,5.5-5.7,5.5s-5.6-2.3-5.6-5.5s2.4-5.5,5.6-5.5C201.5,127.3,203.9,129.7,203.9,132.7z
			 M195.6,132.7c0,1.7,1.2,2.8,2.7,2.8s2.7-1.2,2.7-2.8c0-1.6-1.2-2.8-2.7-2.8S195.6,131.1,195.6,132.7z"/>
		<path class="st2" d="M215.9,131.4v6.6h-2.8v-5.7c0-1.5-0.8-2.3-2.1-2.3c-1.2,0-2.2,0.8-2.2,2.3v5.7H206v-10.4h2.7v1.2
			c0.8-1.1,1.9-1.5,3.1-1.5C214.3,127.3,215.9,129,215.9,131.4z"/>
		<path class="st2" d="M231,124.9c-2.7,1.3-4.2,3.9-4.2,6.9s1.5,5.7,4.2,6.9l-0.9,2.5c-3.8-1.5-6.3-5.1-6.3-9.4c0-4.4,2.6-8,6.3-9.4
			L231,124.9z"/>
		<path class="st2" d="M240.4,130.5c-0.9-0.4-2.1-0.9-3.3-0.9c-1,0-1.6,0.3-1.6,0.9s0.8,0.8,1.7,0.9l0.9,0.2
			c2.2,0.3,3.5,1.4,3.5,3.1c0,2.1-1.7,3.5-4.8,3.5c-1.5,0-3.3-0.3-4.6-1.2l1.1-2.1c0.9,0.6,2,1,3.5,1c1.3,0,1.9-0.3,1.9-0.9
			c0-0.5-0.5-0.8-1.7-0.9l-0.9-0.1c-2.4-0.3-3.6-1.4-3.6-3.2c0-2.1,1.6-3.4,4.4-3.4c1.6,0,3,0.3,4.4,1L240.4,130.5z"/>
		<path class="st2" d="M242.8,138.8c2.7-1.3,4.2-3.9,4.2-6.9s-1.5-5.7-4.2-6.9l0.9-2.5c3.8,1.5,6.3,5.1,6.3,9.4c0,4.3-2.6,8-6.3,9.4
			L242.8,138.8z"/>
	</g>
</g>
<g>
	<g>
		<path class="st5" d="M1526.1,175.8h-259.5c-5.7,0-10.3-4.6-10.3-10.3V73.1c0-5.7,4.6-10.3,10.3-10.3h259.6
			c5.7,0,10.3,4.6,10.3,10.3v92.4C1536.4,171.2,1531.8,175.8,1526.1,175.8z M1266.6,68c-2.8,0-5.1,2.3-5.1,5.1v92.4
			c0,2.8,2.3,5.1,5.1,5.1h259.6c2.8,0,5.1-2.3,5.1-5.1V73.1c0-2.8-2.3-5.1-5.1-5.1H1266.6L1266.6,68z"/>
	</g>
	<path class="st5" d="M1379,112.6h-103.1c-2.8,0-5.2-2.3-5.2-5.2V82.7c0-2.9,2.3-5.2,5.2-5.2H1379c2.8,0,5.2,2.3,5.2,5.2v24.7
		C1384.3,110.3,1382,112.6,1379,112.6z"/>
	<circle class="st6" cx="1327.5" cy="94.5" r="7.2"/>
	<path class="st6" d="M1285.9,106.9V83.3c0-0.3,0.3-0.5,0.5-0.5h4.2c0.3,0,0.5,0.3,0.5,0.5v23.6c0,0.3-0.3,0.5-0.5,0.5h-4.2
		C1286.2,107.3,1285.9,107.2,1285.9,106.9z"/>
	<path class="st6" d="M1295.2,106.9V83.3c0-0.3,0.3-0.5,0.5-0.5h4.2c0.3,0,0.5,0.3,0.5,0.5v23.6c0,0.3-0.3,0.5-0.5,0.5h-4.2
		C1295.4,107.3,1295.2,107.2,1295.2,106.9z"/>
	<path class="st6" d="M1276.8,106.9V83.3c0-0.3,0.3-0.5,0.5-0.5h4.2c0.3,0,0.5,0.3,0.5,0.5v23.6c0,0.3-0.3,0.5-0.5,0.5h-4.2
		C1276.9,107.3,1276.8,107.2,1276.8,106.9z"/>
	<path class="st6" d="M1364.1,106.9V83.3c0-0.3,0.3-0.5,0.5-0.5h4.2c0.3,0,0.5,0.3,0.5,0.5v23.6c0,0.3-0.3,0.5-0.5,0.5h-4.2
		C1364.2,107.3,1364.1,107.2,1364.1,106.9z"/>
	<path class="st6" d="M1373.2,106.9V83.3c0-0.3,0.3-0.5,0.5-0.5h4.2c0.3,0,0.5,0.3,0.5,0.5v23.6c0,0.3-0.3,0.5-0.5,0.5h-4.2
		C1373.5,107.3,1373.2,107.2,1373.2,106.9z"/>
	<path class="st6" d="M1354.8,106.9V83.3c0-0.3,0.3-0.5,0.5-0.5h4.2c0.3,0,0.5,0.3,0.5,0.5v23.6c0,0.3-0.3,0.5-0.5,0.5h-4.2
		C1355.1,107.3,1354.8,107.2,1354.8,106.9z"/>
	<g>
		<path class="st5" d="M1379,159.8h-103.1c-2.8,0-5.2-2.3-5.2-5.2v-24.7c0-2.9,2.3-5.2,5.2-5.2H1379c2.8,0,5.2,2.3,5.2,5.2v24.7
			C1384.3,157.5,1382,159.8,1379,159.8z"/>
		<circle class="st6" cx="1327.5" cy="141.7" r="7.2"/>
		<path class="st6" d="M1285.9,154v-23.6c0-0.3,0.3-0.5,0.5-0.5h4.2c0.3,0,0.5,0.3,0.5,0.5V154c0,0.3-0.3,0.5-0.5,0.5h-4.2
			C1286.2,154.5,1285.9,154.3,1285.9,154z"/>
		<path class="st6" d="M1295.2,154v-23.6c0-0.3,0.3-0.5,0.5-0.5h4.2c0.3,0,0.5,0.3,0.5,0.5V154c0,0.3-0.3,0.5-0.5,0.5h-4.2
			C1295.4,154.5,1295.2,154.3,1295.2,154z"/>
		<path class="st6" d="M1276.8,154v-23.6c0-0.3,0.3-0.5,0.5-0.5h4.2c0.3,0,0.5,0.3,0.5,0.5V154c0,0.3-0.3,0.5-0.5,0.5h-4.2
			C1276.9,154.5,1276.8,154.3,1276.8,154z"/>
		<path class="st6" d="M1364.1,154v-23.6c0-0.3,0.3-0.5,0.5-0.5h4.2c0.3,0,0.5,0.3,0.5,0.5V154c0,0.3-0.3,0.5-0.5,0.5h-4.2
			C1364.2,154.5,1364.1,154.3,1364.1,154z"/>
		<path class="st6" d="M1373.2,154v-23.6c0-0.3,0.3-0.5,0.5-0.5h4.2c0.3,0,0.5,0.3,0.5,0.5V154c0,0.3-0.3,0.5-0.5,0.5h-4.2
			C1373.5,154.5,1373.2,154.3,1373.2,154z"/>
		<path class="st6" d="M1354.8,154v-23.6c0-0.3,0.3-0.5,0.5-0.5h4.2c0.3,0,0.5,0.3,0.5,0.5V154c0,0.3-0.3,0.5-0.5,0.5h-4.2
			C1355.1,154.5,1354.8,154.3,1354.8,154z"/>
	</g>
	<path class="st5" d="M1516.5,112.6h-103.1c-2.8,0-5.2-2.3-5.2-5.2V82.7c0-2.9,2.3-5.2,5.2-5.2h103.1c2.8,0,5.2,2.3,5.2,5.2v24.7
		C1521.7,110.3,1519.4,112.6,1516.5,112.6z"/>
	<circle class="st6" cx="1465" cy="94.5" r="7.2"/>
	<path class="st6" d="M1423.4,106.9V83.3c0-0.3,0.3-0.5,0.5-0.5h4.2c0.3,0,0.5,0.3,0.5,0.5v23.6c0,0.3-0.3,0.5-0.5,0.5h-4.2
		C1423.7,107.3,1423.4,107.2,1423.4,106.9z"/>
	<path class="st6" d="M1432.7,106.9V83.3c0-0.3,0.3-0.5,0.5-0.5h4.2c0.3,0,0.5,0.3,0.5,0.5v23.6c0,0.3-0.3,0.5-0.5,0.5h-4.2
		C1432.8,107.3,1432.7,107.2,1432.7,106.9z"/>
	<path class="st6" d="M1414.2,106.9V83.3c0-0.3,0.3-0.5,0.5-0.5h4.2c0.3,0,0.5,0.3,0.5,0.5v23.6c0,0.3-0.3,0.5-0.5,0.5h-4.2
		C1414.4,107.3,1414.2,107.2,1414.2,106.9z"/>
	<path class="st6" d="M1501.4,106.9V83.3c0-0.3,0.3-0.5,0.5-0.5h4.2c0.3,0,0.5,0.3,0.5,0.5v23.6c0,0.3-0.3,0.5-0.5,0.5h-4.2
		C1501.7,107.3,1501.4,107.2,1501.4,106.9z"/>
	<path class="st6" d="M1510.7,106.9V83.3c0-0.3,0.3-0.5,0.5-0.5h4.2c0.3,0,0.5,0.3,0.5,0.5v23.6c0,0.3-0.3,0.5-0.5,0.5h-4.2
		C1511,107.3,1510.7,107.2,1510.7,106.9z"/>
	<path class="st6" d="M1492.3,106.9V83.3c0-0.3,0.3-0.5,0.5-0.5h4.2c0.3,0,0.5,0.3,0.5,0.5v23.6c0,0.3-0.3,0.5-0.5,0.5h-4.2
		C1492.5,107.3,1492.3,107.2,1492.3,106.9z"/>
	<g>
		<path class="st5" d="M1516.5,159.8h-103.1c-2.8,0-5.2-2.3-5.2-5.2v-24.7c0-2.9,2.3-5.2,5.2-5.2h103.1c2.8,0,5.2,2.3,5.2,5.2v24.7
			C1521.7,157.5,1519.4,159.8,1516.5,159.8z"/>
		<circle class="st6" cx="1465" cy="141.7" r="7.2"/>
		<path class="st6" d="M1423.4,154v-23.6c0-0.3,0.3-0.5,0.5-0.5h4.2c0.3,0,0.5,0.3,0.5,0.5V154c0,0.3-0.3,0.5-0.5,0.5h-4.2
			C1423.7,154.5,1423.4,154.3,1423.4,154z"/>
		<path class="st6" d="M1432.7,154v-23.6c0-0.3,0.3-0.5,0.5-0.5h4.2c0.3,0,0.5,0.3,0.5,0.5V154c0,0.3-0.3,0.5-0.5,0.5h-4.2
			C1432.8,154.5,1432.7,154.3,1432.7,154z"/>
		<path class="st6" d="M1414.2,154v-23.6c0-0.3,0.3-0.5,0.5-0.5h4.2c0.3,0,0.5,0.3,0.5,0.5V154c0,0.3-0.3,0.5-0.5,0.5h-4.2
			C1414.4,154.5,1414.2,154.3,1414.2,154z"/>
		<path class="st6" d="M1501.4,154v-23.6c0-0.3,0.3-0.5,0.5-0.5h4.2c0.3,0,0.5,0.3,0.5,0.5V154c0,0.3-0.3,0.5-0.5,0.5h-4.2
			C1501.7,154.5,1501.4,154.3,1501.4,154z"/>
		<path class="st6" d="M1510.7,154v-23.6c0-0.3,0.3-0.5,0.5-0.5h4.2c0.3,0,0.5,0.3,0.5,0.5V154c0,0.3-0.3,0.5-0.5,0.5h-4.2
			C1511,154.5,1510.7,154.3,1510.7,154z"/>
		<path class="st6" d="M1492.3,154v-23.6c0-0.3,0.3-0.5,0.5-0.5h4.2c0.3,0,0.5,0.3,0.5,0.5V154c0,0.3-0.3,0.5-0.5,0.5h-4.2
			C1492.5,154.5,1492.3,154.3,1492.3,154z"/>
	</g>
</g>
<path class="st3" d="M644.7,240.8H382c-4.2,0-7.7-3.4-7.7-7.7V201c0-4.2,3.4-7.7,7.7-7.7h262.6c4.2,0,7.7,3.4,7.7,7.7v32.1
	C652.3,237.4,648.9,240.8,644.7,240.8z"/>
<g>
	<path class="st2" d="M398.1,211.6h1.1v4.3h0.1c0.1-0.2,0.2-0.3,0.3-0.5c0.1-0.2,0.3-0.3,0.4-0.4c0.2-0.1,0.3-0.2,0.6-0.3
		s0.5-0.1,0.8-0.1c0.8,0,1.4,0.3,1.8,0.7c0.4,0.5,0.7,1.1,0.7,2.1v4.6h-1.1v-4.4c0-0.7-0.2-1.1-0.4-1.5c-0.3-0.3-0.7-0.5-1.3-0.5
		c-0.3,0-0.4,0-0.7,0.1c-0.2,0.1-0.4,0.2-0.6,0.3s-0.3,0.3-0.4,0.4c-0.1,0.2-0.2,0.3-0.2,0.6v5H398L398.1,211.6L398.1,211.6
		L398.1,211.6z"/>
	<path class="st2" d="M409.6,221.9c-0.5,0-0.9-0.2-1.2-0.4c-0.3-0.3-0.3-0.7-0.3-1.2v-4.5h-2.4v-0.9h1.8c0.3,0,0.4-0.1,0.5-0.2
		c0.1-0.1,0.2-0.3,0.2-0.5v-1.9h1v2.5h3.3v0.9h-3.3v5.2h3.3v0.9L409.6,221.9L409.6,221.9L409.6,221.9z"/>
	<path class="st2" d="M417.9,221.9c-0.5,0-0.9-0.2-1.2-0.4c-0.3-0.3-0.3-0.7-0.3-1.2v-4.5H414v-0.9h1.8c0.3,0,0.4-0.1,0.5-0.2
		c0.1-0.1,0.2-0.3,0.2-0.5v-1.9h1v2.5h3.3v0.9h-3.3v5.2h3.3v0.9L417.9,221.9L417.9,221.9z"/>
	<path class="st2" d="M423,214.7h1.1v1.2h0.1c0.4-0.9,1.2-1.3,2.2-1.3c0.9,0,1.5,0.3,2.1,0.9c0.5,0.7,0.8,1.5,0.8,2.7
		s-0.3,2.1-0.8,2.7s-1.2,0.9-2.1,0.9c-1,0-1.7-0.4-2.2-1.3h-0.1v3.9H423V214.7z M426,221c0.7,0,1.1-0.2,1.5-0.6
		c0.3-0.4,0.5-0.9,0.5-1.5v-1.2c0-0.7-0.2-1.2-0.5-1.5s-0.9-0.6-1.5-0.6c-0.3,0-0.5,0-0.7,0.1c-0.3,0.1-0.4,0.2-0.6,0.3
		s-0.3,0.3-0.4,0.4c-0.2,0.2-0.2,0.4-0.2,0.6v2.6c0,0.3,0.1,0.4,0.2,0.6c0.1,0.2,0.3,0.3,0.4,0.4c0.2,0.1,0.3,0.3,0.6,0.3
		C425.5,221,425.8,221,426,221z"/>
	<path class="st2" d="M434.3,222c-0.8,0-1.4-0.1-2-0.4c-0.5-0.3-1-0.6-1.4-1l0.8-0.7c0.3,0.3,0.7,0.6,1.1,0.9s0.9,0.3,1.5,0.3
		s1-0.1,1.4-0.3c0.3-0.3,0.5-0.5,0.5-0.9c0-0.2,0-0.3-0.1-0.4s-0.2-0.3-0.3-0.3c-0.1-0.1-0.3-0.1-0.4-0.2c-0.2-0.1-0.3-0.1-0.4-0.1
		l-1.1-0.2c-0.3,0-0.5-0.1-0.9-0.2c-0.3-0.1-0.6-0.2-0.8-0.3c-0.3-0.2-0.4-0.3-0.6-0.6s-0.3-0.5-0.3-0.9c0-0.3,0.1-0.7,0.2-0.9
		s0.3-0.5,0.6-0.7s0.6-0.3,0.9-0.4c0.3-0.1,0.8-0.1,1.1-0.1c0.7,0,1.2,0.1,1.7,0.3c0.5,0.3,0.9,0.5,1.2,0.9l-0.7,0.7
		c-0.1-0.1-0.2-0.2-0.3-0.3c-0.2-0.1-0.3-0.2-0.4-0.3c-0.2-0.1-0.4-0.2-0.6-0.2c-0.3-0.1-0.5-0.1-0.9-0.1c-0.6,0-1,0.1-1.3,0.3
		s-0.4,0.5-0.4,0.9c0,0.2,0,0.3,0.1,0.4s0.2,0.3,0.3,0.3c0.1,0.1,0.3,0.1,0.4,0.2c0.2,0,0.3,0.1,0.4,0.1l1.1,0.2
		c0.3,0,0.5,0.1,0.9,0.2c0.3,0.1,0.5,0.2,0.8,0.3c0.3,0.2,0.4,0.3,0.6,0.6s0.3,0.5,0.3,0.9c0,0.7-0.3,1.3-0.9,1.6
		C435.8,221.6,435.2,222,434.3,222z"/>
	<path class="st2" d="M442.5,216.5c-0.3,0-0.7-0.1-0.8-0.3s-0.3-0.3-0.3-0.6v-0.3c0-0.3,0.1-0.4,0.3-0.6c0.2-0.2,0.4-0.3,0.8-0.3
		s0.7,0.1,0.8,0.3c0.1,0.2,0.3,0.3,0.3,0.6v0.3c0,0.3-0.1,0.4-0.3,0.6C443.2,216.4,442.9,216.5,442.5,216.5z M442.5,222
		c-0.3,0-0.7-0.1-0.8-0.3s-0.3-0.3-0.3-0.6v-0.3c0-0.3,0.1-0.4,0.3-0.6c0.2-0.2,0.4-0.3,0.8-0.3s0.7,0.1,0.8,0.3
		c0.1,0.2,0.3,0.3,0.3,0.6v0.3c0,0.3-0.1,0.4-0.3,0.6S442.9,222,442.5,222z"/>
	<path class="st2" d="M448,223.8l4.8-12.4h1l-4.8,12.4H448z"/>
	<path class="st2" d="M456.3,223.8l4.8-12.4h1l-4.8,12.4H456.3z"/>
	<path class="st2" d="M464.1,221.9v-7.2h1v0.9h0.1c0.1-0.3,0.3-0.5,0.4-0.7s0.5-0.3,0.9-0.3s0.7,0.1,0.9,0.3
		c0.2,0.2,0.3,0.5,0.3,0.9l0,0c0.2-0.3,0.3-0.6,0.6-0.8s0.6-0.3,1-0.3c0.6,0,0.9,0.2,1.2,0.6c0.2,0.4,0.3,0.9,0.3,1.7v5h-1v-4.8
		c0-0.6-0.1-1-0.2-1.3s-0.3-0.3-0.7-0.3c-0.3,0-0.5,0.1-0.7,0.3s-0.3,0.5-0.3,0.9v5.2h-1v-4.9c0-0.6-0.1-1-0.2-1.3s-0.3-0.3-0.7-0.3
		c-0.3,0-0.5,0.1-0.7,0.3s-0.3,0.5-0.3,0.9v5.2L464.1,221.9L464.1,221.9z"/>
	<path class="st2" d="M473.1,220.8h2.6v-5.2h-2.6v-0.9h3.7v6.2h2.4v0.9h-6.1V220.8L473.1,220.8z M476.2,213.1
		c-0.3,0-0.5-0.1-0.7-0.2c-0.2-0.2-0.2-0.3-0.2-0.5v-0.3c0-0.2,0.1-0.3,0.2-0.5c0.2-0.2,0.3-0.2,0.7-0.2s0.5,0.1,0.7,0.2
		c0.2,0.2,0.2,0.3,0.2,0.5v0.3c0,0.2-0.1,0.3-0.2,0.5C476.8,213,476.6,213.1,476.2,213.1z"/>
	<path class="st2" d="M481.3,221.9v-7.2h1.1v1.2h0.1c0.1-0.2,0.2-0.3,0.3-0.5c0.1-0.2,0.3-0.3,0.4-0.4c0.2-0.1,0.3-0.2,0.6-0.3
		c0.3-0.1,0.5-0.1,0.8-0.1c0.8,0,1.4,0.3,1.8,0.7c0.4,0.5,0.7,1.1,0.7,2.1v4.6H486v-4.4c0-0.7-0.2-1.1-0.4-1.5s-0.7-0.5-1.3-0.5
		c-0.3,0-0.4,0-0.7,0.1c-0.2,0.1-0.4,0.2-0.6,0.3s-0.3,0.3-0.4,0.4c-0.1,0.2-0.2,0.3-0.2,0.6v5L481.3,221.9L481.3,221.9z"/>
	<path class="st2" d="M489.7,220.8h2.6v-5.2h-2.6v-0.9h3.7v6.2h2.4v0.9h-6.1V220.8L489.7,220.8z M492.9,213.1
		c-0.3,0-0.5-0.1-0.7-0.2c-0.2-0.2-0.2-0.3-0.2-0.5v-0.3c0-0.2,0.1-0.3,0.2-0.5c0.2-0.2,0.3-0.2,0.7-0.2s0.5,0.1,0.7,0.2
		c0.2,0.2,0.2,0.3,0.2,0.5v0.3c0,0.2-0.1,0.3-0.2,0.5C493.4,213,493.2,213.1,492.9,213.1z"/>
	<path class="st2" d="M500.7,222c-0.5,0-0.9-0.1-1.4-0.3c-0.4-0.2-0.8-0.4-1-0.8c-0.3-0.3-0.5-0.7-0.7-1.2c-0.2-0.4-0.3-0.9-0.3-1.5
		s0.1-1.1,0.3-1.5s0.3-0.9,0.7-1.2c0.3-0.3,0.6-0.6,1-0.8s0.9-0.3,1.4-0.3s0.9,0.1,1.4,0.3s0.8,0.4,1,0.8c0.3,0.3,0.5,0.7,0.7,1.2
		s0.3,0.9,0.3,1.5s-0.1,1.1-0.3,1.5c-0.2,0.4-0.3,0.9-0.7,1.2c-0.3,0.3-0.6,0.6-1,0.8C501.7,221.9,501.2,222,500.7,222z M500.7,221
		c0.6,0,1.1-0.2,1.5-0.5c0.3-0.3,0.6-0.9,0.6-1.7v-1c0-0.8-0.2-1.4-0.6-1.7c-0.3-0.3-0.9-0.5-1.5-0.5s-1.1,0.2-1.5,0.5
		s-0.6,0.9-0.6,1.7v1c0,0.8,0.2,1.4,0.6,1.7S500.1,221,500.7,221z"/>
	<path class="st2" d="M507,218.2V217h4v1.2H507z"/>
	<path class="st2" d="M517.4,222c-0.6,0-1.1-0.1-1.5-0.3c-0.4-0.3-0.8-0.5-1-0.9c-0.3-0.4-0.5-0.9-0.6-1.5s-0.2-1.3-0.2-2.1
		s0.1-1.5,0.2-2.1c0.1-0.7,0.3-1.1,0.6-1.5s0.6-0.8,1-0.9c0.4-0.2,0.9-0.3,1.5-0.3s1.1,0.1,1.5,0.3s0.8,0.5,1,0.9
		c0.3,0.4,0.5,0.9,0.6,1.5s0.2,1.3,0.2,2.1s-0.1,1.5-0.2,2.1c-0.2,0.6-0.3,1.1-0.6,1.5s-0.6,0.8-1,0.9S518,222,517.4,222z
		 M517.4,221c0.4,0,0.7-0.1,1-0.3s0.5-0.3,0.7-0.7c0.2-0.3,0.3-0.6,0.3-1c0.1-0.4,0.2-0.9,0.2-1.3v-1.5c0-0.5,0-0.9-0.2-1.3
		c-0.1-0.4-0.2-0.8-0.3-1c-0.2-0.3-0.4-0.5-0.7-0.7s-0.6-0.3-1-0.3s-0.7,0.1-1,0.3s-0.5,0.3-0.7,0.7c-0.2,0.3-0.3,0.6-0.3,1
		c-0.1,0.4-0.2,0.9-0.2,1.3v1.5c0,0.5,0,0.9,0.2,1.3c0.2,0.3,0.2,0.8,0.3,1c0.2,0.3,0.4,0.5,0.7,0.7C516.7,220.9,517,221,517.4,221z
		 M517.4,217.8c-0.3,0-0.5-0.1-0.7-0.2c-0.2-0.1-0.2-0.3-0.2-0.4v-0.3c0-0.2,0.1-0.3,0.2-0.4c0.1-0.1,0.3-0.2,0.7-0.2
		c0.3,0,0.5,0.1,0.7,0.2c0.2,0.1,0.2,0.3,0.2,0.4v0.3c0,0.2-0.1,0.3-0.2,0.4C517.9,217.8,517.7,217.8,517.4,217.8z"/>
	<path class="st2" d="M522.7,221.9v-1h2.7v-7.8h-0.1l-2.4,2.2l-0.7-0.8l2.6-2.4h1.8v8.7h2.6v1L522.7,221.9L522.7,221.9z"/>
	<path class="st2" d="M534,222c-0.3,0-0.7-0.1-0.8-0.3s-0.3-0.3-0.3-0.6v-0.3c0-0.3,0.1-0.4,0.3-0.6c0.2-0.2,0.4-0.3,0.8-0.3
		c0.3,0,0.7,0.1,0.8,0.3s0.3,0.3,0.3,0.6v0.3c0,0.3-0.1,0.4-0.3,0.6S534.3,222,534,222z"/>
	<path class="st2" d="M542.4,222c-0.5,0-1-0.1-1.4-0.3s-0.8-0.4-1-0.8s-0.5-0.7-0.7-1.2c-0.2-0.4-0.3-0.9-0.3-1.5s0.1-1.1,0.3-1.5
		s0.4-0.9,0.7-1.2s0.6-0.6,1-0.8s0.9-0.3,1.4-0.3s0.9,0.1,1.3,0.3c0.3,0.2,0.7,0.4,1,0.8c0.3,0.3,0.5,0.7,0.6,1.1
		c0.1,0.4,0.3,0.9,0.3,1.4v0.5h-5.3v0.3c0,0.3,0.1,0.6,0.2,0.9c0.1,0.3,0.3,0.5,0.4,0.7s0.4,0.3,0.7,0.4s0.6,0.2,0.9,0.2
		c0.5,0,0.9-0.1,1.3-0.3c0.3-0.3,0.6-0.5,0.8-0.9l0.9,0.5c-0.2,0.5-0.6,0.9-1,1.2C543.7,221.9,543.1,222,542.4,222z M542.4,215.4
		c-0.3,0-0.6,0.1-0.9,0.2c-0.3,0.1-0.5,0.3-0.7,0.4c-0.2,0.2-0.3,0.4-0.4,0.7c-0.1,0.3-0.2,0.5-0.2,0.9v0.1h4.1v-0.2
		c0-0.3-0.1-0.6-0.2-0.9c-0.1-0.3-0.3-0.5-0.4-0.7c-0.2-0.2-0.3-0.3-0.6-0.4C542.9,215.4,542.6,215.4,542.4,215.4z"/>
	<path class="st2" d="M547.3,221.9l2.7-3.6l-2.6-3.5h1.3l1.1,1.5l0.9,1.2h0.1l0.9-1.2l1-1.5h1.3l-2.7,3.5l2.7,3.6h-1.3l-1.2-1.7
		l-0.9-1.1h-0.1l-0.8,1.1l-1.2,1.7H547.3L547.3,221.9z"/>
	<path class="st2" d="M561.6,221.9c-0.4,0-0.8-0.1-0.9-0.3c-0.2-0.3-0.3-0.5-0.3-0.9h-0.1c-0.2,0.4-0.4,0.8-0.8,0.9
		c-0.3,0.2-0.9,0.3-1.4,0.3c-0.8,0-1.4-0.2-1.8-0.6s-0.7-0.9-0.7-1.6c0-0.7,0.3-1.2,0.7-1.5c0.5-0.3,1.3-0.5,2.3-0.5h1.5V217
		c0-0.5-0.2-0.9-0.4-1.2c-0.3-0.3-0.7-0.4-1.3-0.4c-0.5,0-0.9,0.1-1.2,0.3s-0.5,0.4-0.8,0.8l-0.8-0.5c0.1-0.2,0.2-0.3,0.3-0.5
		c0.2-0.2,0.3-0.3,0.6-0.4c0.3-0.2,0.5-0.3,0.8-0.3c0.3-0.1,0.6-0.1,1-0.1c0.9,0,1.5,0.2,2,0.7s0.8,1,0.8,1.8v3.9h1v0.9L561.6,221.9
		L561.6,221.9z M558.3,221.1c0.3,0,0.5,0,0.8-0.1s0.4-0.2,0.6-0.3s0.3-0.3,0.4-0.4c0.1-0.2,0.2-0.3,0.2-0.5v-1.2h-1.5
		c-0.7,0-1.1,0.1-1.5,0.3c-0.3,0.2-0.4,0.4-0.4,0.8v0.3c0,0.3,0.2,0.7,0.4,0.9C557.5,221,557.9,221.1,558.3,221.1z"/>
	<path class="st2" d="M563.9,221.9v-7.2h1v0.9h0.1c0.1-0.3,0.3-0.5,0.4-0.7s0.5-0.3,0.9-0.3s0.7,0.1,0.9,0.3s0.3,0.5,0.3,0.9l0,0
		c0.2-0.3,0.3-0.6,0.6-0.8s0.6-0.3,1-0.3c0.6,0,0.9,0.2,1.2,0.6c0.2,0.4,0.3,0.9,0.3,1.7v5h-1v-4.8c0-0.6-0.1-1-0.2-1.3
		c-0.1-0.3-0.3-0.3-0.7-0.3c-0.3,0-0.5,0.1-0.7,0.3s-0.3,0.5-0.3,0.9v5.2h-1.1v-4.9c0-0.6-0.1-1-0.2-1.3c-0.1-0.3-0.3-0.3-0.7-0.3
		c-0.3,0-0.5,0.1-0.7,0.3s-0.3,0.5-0.3,0.9v5.2L563.9,221.9L563.9,221.9z"/>
	<path class="st2" d="M572.7,214.7h1.1v1.2h0.1c0.4-0.9,1.2-1.3,2.2-1.3c0.9,0,1.5,0.3,2.1,0.9c0.5,0.7,0.8,1.5,0.8,2.7
		s-0.3,2.1-0.8,2.7c-0.5,0.6-1.2,0.9-2.1,0.9c-1,0-1.7-0.4-2.2-1.3h-0.1v3.9h-1.1V214.7z M575.7,221c0.7,0,1.1-0.2,1.5-0.6
		c0.3-0.4,0.5-0.9,0.5-1.5v-1.2c0-0.7-0.2-1.2-0.5-1.5s-0.9-0.6-1.5-0.6c-0.3,0-0.5,0-0.7,0.1c-0.3,0.1-0.4,0.2-0.6,0.3
		s-0.3,0.3-0.4,0.4c-0.2,0.2-0.2,0.4-0.2,0.6v2.6c0,0.3,0.1,0.4,0.2,0.6c0.1,0.2,0.3,0.3,0.4,0.4s0.3,0.3,0.6,0.3
		C575.2,221,575.4,221,575.7,221z"/>
	<path class="st2" d="M580.8,220.8h2.5v-8.3h-2.5v-0.9h3.6v9.3h2.5v0.9h-6.1V220.8L580.8,220.8z"/>
	<path class="st2" d="M592.3,222c-0.5,0-1-0.1-1.4-0.3s-0.8-0.4-1-0.8c-0.3-0.3-0.5-0.7-0.7-1.2c-0.2-0.4-0.3-0.9-0.3-1.5
		s0.1-1.1,0.3-1.5s0.4-0.9,0.7-1.2s0.6-0.6,1-0.8s0.9-0.3,1.4-0.3s0.9,0.1,1.3,0.3c0.3,0.2,0.7,0.4,1,0.8c0.3,0.3,0.5,0.7,0.6,1.1
		c0.1,0.4,0.3,0.9,0.3,1.4v0.5h-5.3v0.3c0,0.3,0.1,0.6,0.2,0.9c0.1,0.3,0.3,0.5,0.4,0.7s0.4,0.3,0.7,0.4s0.6,0.2,0.9,0.2
		c0.5,0,0.9-0.1,1.3-0.3c0.3-0.3,0.6-0.5,0.8-0.9l0.9,0.5c-0.2,0.5-0.6,0.9-1,1.2C593.6,221.9,593,222,592.3,222z M592.2,215.4
		c-0.3,0-0.6,0.1-0.9,0.2c-0.3,0.1-0.5,0.3-0.7,0.4c-0.2,0.2-0.3,0.4-0.4,0.7c-0.1,0.3-0.2,0.5-0.2,0.9v0.1h4.1v-0.2
		c0-0.3-0.1-0.6-0.2-0.9c-0.1-0.3-0.3-0.5-0.4-0.7c-0.2-0.2-0.3-0.3-0.6-0.4C592.8,215.4,592.6,215.4,592.2,215.4z"/>
	<path class="st2" d="M600.5,222c-0.3,0-0.7-0.1-0.8-0.3s-0.3-0.3-0.3-0.6v-0.3c0-0.3,0.1-0.4,0.3-0.6c0.2-0.2,0.4-0.3,0.8-0.3
		c0.3,0,0.7,0.1,0.8,0.3s0.3,0.3,0.3,0.6v0.3c0,0.3-0.1,0.4-0.3,0.6S600.9,222,600.5,222z"/>
	<path class="st2" d="M606,221.9v-7.2h1.1v1.2h0.1c0.1-0.2,0.2-0.3,0.3-0.5s0.3-0.3,0.4-0.4s0.3-0.2,0.6-0.3s0.5-0.1,0.8-0.1
		c0.8,0,1.4,0.3,1.8,0.7c0.4,0.5,0.7,1.1,0.7,2.1v4.6h-1.1v-4.4c0-0.7-0.2-1.1-0.4-1.5s-0.7-0.5-1.3-0.5c-0.3,0-0.4,0-0.7,0.1
		c-0.2,0.1-0.4,0.2-0.6,0.3s-0.3,0.3-0.4,0.4c-0.1,0.2-0.2,0.3-0.2,0.6v5L606,221.9L606,221.9z"/>
	<path class="st2" d="M617.2,222c-0.5,0-1-0.1-1.4-0.3s-0.8-0.4-1-0.8c-0.3-0.3-0.5-0.7-0.7-1.2c-0.2-0.4-0.3-0.9-0.3-1.5
		s0.1-1.1,0.3-1.5s0.4-0.9,0.7-1.2s0.6-0.6,1-0.8s0.9-0.3,1.4-0.3s0.9,0.1,1.3,0.3c0.3,0.2,0.7,0.4,1,0.8c0.3,0.3,0.5,0.7,0.6,1.1
		c0.1,0.4,0.3,0.9,0.3,1.4v0.5h-5.3v0.3c0,0.3,0.1,0.6,0.2,0.9c0.1,0.3,0.3,0.5,0.4,0.7c0.2,0.2,0.4,0.3,0.7,0.4s0.6,0.2,0.9,0.2
		c0.5,0,0.9-0.1,1.3-0.3c0.3-0.3,0.6-0.5,0.8-0.9l0.9,0.5c-0.2,0.5-0.6,0.9-1,1.2C618.5,221.9,617.9,222,617.2,222z M617.1,215.4
		c-0.3,0-0.6,0.1-0.9,0.2c-0.3,0.1-0.5,0.3-0.7,0.4c-0.2,0.2-0.3,0.4-0.4,0.7c-0.1,0.3-0.2,0.5-0.2,0.9v0.1h4.1v-0.2
		c0-0.3-0.1-0.6-0.2-0.9c-0.1-0.3-0.3-0.5-0.4-0.7c-0.2-0.2-0.3-0.3-0.6-0.4C617.7,215.4,617.5,215.4,617.1,215.4z"/>
	<path class="st2" d="M625.8,221.9c-0.5,0-0.9-0.2-1.2-0.4c-0.3-0.3-0.3-0.7-0.3-1.2v-4.5h-2.4v-0.9h1.8c0.3,0,0.4-0.1,0.5-0.2
		c0.1-0.1,0.2-0.3,0.2-0.5v-1.9h1v2.5h3.3v0.9h-3.3v5.2h3.3v0.9L625.8,221.9L625.8,221.9L625.8,221.9z"/>
</g>
<g>
	<g>
		<path class="st5" d="M643.1,175.8H383.6c-5.7,0-10.3-4.6-10.3-10.3V73.1c0-5.7,4.6-10.3,10.3-10.3h259.6c5.7,0,10.3,4.6,10.3,10.3
			v92.4C653.4,171.2,648.7,175.8,643.1,175.8z M383.6,68c-2.8,0-5.1,2.3-5.1,5.1v92.4c0,2.8,2.3,5.1,5.1,5.1h259.6
			c2.8,0,5.1-2.3,5.1-5.1V73.1c0-2.8-2.3-5.1-5.1-5.1H383.6L383.6,68z"/>
	</g>
	<path class="st5" d="M496,112.6H392.9c-2.8,0-5.2-2.3-5.2-5.2V82.7c0-2.9,2.3-5.2,5.2-5.2H496c2.8,0,5.2,2.3,5.2,5.2v24.7
		C501.2,110.3,498.9,112.6,496,112.6z"/>
	<circle class="st6" cx="444.5" cy="94.5" r="7.2"/>
	<path class="st6" d="M402.9,106.9V83.3c0-0.3,0.3-0.5,0.5-0.5h4.2c0.3,0,0.5,0.3,0.5,0.5v23.6c0,0.3-0.3,0.5-0.5,0.5h-4.2
		C403.2,107.3,402.9,107.2,402.9,106.9z"/>
	<path class="st6" d="M412.2,106.9V83.3c0-0.3,0.3-0.5,0.5-0.5h4.2c0.3,0,0.5,0.3,0.5,0.5v23.6c0,0.3-0.3,0.5-0.5,0.5h-4.2
		C412.3,107.3,412.2,107.2,412.2,106.9z"/>
	<path class="st6" d="M393.7,106.9V83.3c0-0.3,0.3-0.5,0.5-0.5h4.2c0.3,0,0.5,0.3,0.5,0.5v23.6c0,0.3-0.3,0.5-0.5,0.5h-4.2
		C393.9,107.3,393.7,107.2,393.7,106.9z"/>
	<path class="st6" d="M481,106.9V83.3c0-0.3,0.3-0.5,0.5-0.5h4.2c0.3,0,0.5,0.3,0.5,0.5v23.6c0,0.3-0.3,0.5-0.5,0.5h-4.2
		C481.2,107.3,481,107.2,481,106.9z"/>
	<path class="st6" d="M490.2,106.9V83.3c0-0.3,0.3-0.5,0.5-0.5h4.2c0.3,0,0.5,0.3,0.5,0.5v23.6c0,0.3-0.3,0.5-0.5,0.5h-4.2
		C490.5,107.3,490.2,107.2,490.2,106.9z"/>
	<path class="st6" d="M471.8,106.9V83.3c0-0.3,0.3-0.5,0.5-0.5h4.2c0.3,0,0.5,0.3,0.5,0.5v23.6c0,0.3-0.3,0.5-0.5,0.5h-4.2
		C472,107.3,471.8,107.2,471.8,106.9z"/>
	<g>
		<path class="st5" d="M496,159.8H392.9c-2.8,0-5.2-2.3-5.2-5.2v-24.7c0-2.9,2.3-5.2,5.2-5.2H496c2.8,0,5.2,2.3,5.2,5.2v24.7
			C501.2,157.5,498.9,159.8,496,159.8z"/>
		<circle class="st6" cx="444.5" cy="141.7" r="7.2"/>
		<path class="st6" d="M402.9,154v-23.6c0-0.3,0.3-0.5,0.5-0.5h4.2c0.3,0,0.5,0.3,0.5,0.5V154c0,0.3-0.3,0.5-0.5,0.5h-4.2
			C403.2,154.5,402.9,154.3,402.9,154z"/>
		<path class="st6" d="M412.2,154v-23.6c0-0.3,0.3-0.5,0.5-0.5h4.2c0.3,0,0.5,0.3,0.5,0.5V154c0,0.3-0.3,0.5-0.5,0.5h-4.2
			C412.3,154.5,412.2,154.3,412.2,154z"/>
		<path class="st6" d="M393.7,154v-23.6c0-0.3,0.3-0.5,0.5-0.5h4.2c0.3,0,0.5,0.3,0.5,0.5V154c0,0.3-0.3,0.5-0.5,0.5h-4.2
			C393.9,154.5,393.7,154.3,393.7,154z"/>
		<path class="st6" d="M481,154v-23.6c0-0.3,0.3-0.5,0.5-0.5h4.2c0.3,0,0.5,0.3,0.5,0.5V154c0,0.3-0.3,0.5-0.5,0.5h-4.2
			C481.2,154.5,481,154.3,481,154z"/>
		<path class="st6" d="M490.2,154v-23.6c0-0.3,0.3-0.5,0.5-0.5h4.2c0.3,0,0.5,0.3,0.5,0.5V154c0,0.3-0.3,0.5-0.5,0.5h-4.2
			C490.5,154.5,490.2,154.3,490.2,154z"/>
		<path class="st6" d="M471.8,154v-23.6c0-0.3,0.3-0.5,0.5-0.5h4.2c0.3,0,0.5,0.3,0.5,0.5V154c0,0.3-0.3,0.5-0.5,0.5h-4.2
			C472,154.5,471.8,154.3,471.8,154z"/>
	</g>
	<path class="st5" d="M633.5,112.6H530.4c-2.8,0-5.2-2.3-5.2-5.2V82.7c0-2.9,2.3-5.2,5.2-5.2h103.1c2.8,0,5.2,2.3,5.2,5.2v24.7
		C638.7,110.3,636.4,112.6,633.5,112.6z"/>
	<circle class="st6" cx="581.9" cy="94.5" r="7.2"/>
	<path class="st6" d="M540.4,106.9V83.3c0-0.3,0.3-0.5,0.5-0.5h4.2c0.3,0,0.5,0.3,0.5,0.5v23.6c0,0.3-0.3,0.5-0.5,0.5h-4.2
		C540.6,107.3,540.4,107.2,540.4,106.9z"/>
	<path class="st6" d="M549.6,106.9V83.3c0-0.3,0.3-0.5,0.5-0.5h4.2c0.3,0,0.5,0.3,0.5,0.5v23.6c0,0.3-0.3,0.5-0.5,0.5h-4.2
		C549.8,107.3,549.6,107.2,549.6,106.9z"/>
	<path class="st6" d="M531.1,106.9V83.3c0-0.3,0.3-0.5,0.5-0.5h4.2c0.3,0,0.5,0.3,0.5,0.5v23.6c0,0.3-0.3,0.5-0.5,0.5h-4.2
		C531.4,107.3,531.1,107.2,531.1,106.9z"/>
	<path class="st6" d="M618.4,106.9V83.3c0-0.3,0.3-0.5,0.5-0.5h4.2c0.3,0,0.5,0.3,0.5,0.5v23.6c0,0.3-0.3,0.5-0.5,0.5h-4.2
		C618.7,107.3,618.4,107.2,618.4,106.9z"/>
	<path class="st6" d="M627.7,106.9V83.3c0-0.3,0.3-0.5,0.5-0.5h4.2c0.3,0,0.5,0.3,0.5,0.5v23.6c0,0.3-0.3,0.5-0.5,0.5h-4.2
		C627.9,107.3,627.7,107.2,627.7,106.9z"/>
	<path class="st6" d="M609.3,106.9V83.3c0-0.3,0.3-0.5,0.5-0.5h4.2c0.3,0,0.5,0.3,0.5,0.5v23.6c0,0.3-0.3,0.5-0.5,0.5h-4.2
		C609.4,107.3,609.3,107.2,609.3,106.9z"/>
	<g>
		<path class="st5" d="M633.5,159.8H530.4c-2.8,0-5.2-2.3-5.2-5.2v-24.7c0-2.9,2.3-5.2,5.2-5.2h103.1c2.8,0,5.2,2.3,5.2,5.2v24.7
			C638.7,157.5,636.4,159.8,633.5,159.8z"/>
		<circle class="st6" cx="581.9" cy="141.7" r="7.2"/>
		<path class="st6" d="M540.4,154v-23.6c0-0.3,0.3-0.5,0.5-0.5h4.2c0.3,0,0.5,0.3,0.5,0.5V154c0,0.3-0.3,0.5-0.5,0.5h-4.2
			C540.6,154.5,540.4,154.3,540.4,154z"/>
		<path class="st6" d="M549.6,154v-23.6c0-0.3,0.3-0.5,0.5-0.5h4.2c0.3,0,0.5,0.3,0.5,0.5V154c0,0.3-0.3,0.5-0.5,0.5h-4.2
			C549.8,154.5,549.6,154.3,549.6,154z"/>
		<path class="st6" d="M531.1,154v-23.6c0-0.3,0.3-0.5,0.5-0.5h4.2c0.3,0,0.5,0.3,0.5,0.5V154c0,0.3-0.3,0.5-0.5,0.5h-4.2
			C531.4,154.5,531.1,154.3,531.1,154z"/>
		<path class="st6" d="M618.4,154v-23.6c0-0.3,0.3-0.5,0.5-0.5h4.2c0.3,0,0.5,0.3,0.5,0.5V154c0,0.3-0.3,0.5-0.5,0.5h-4.2
			C618.7,154.5,618.4,154.3,618.4,154z"/>
		<path class="st6" d="M627.7,154v-23.6c0-0.3,0.3-0.5,0.5-0.5h4.2c0.3,0,0.5,0.3,0.5,0.5V154c0,0.3-0.3,0.5-0.5,0.5h-4.2
			C627.9,154.5,627.7,154.3,627.7,154z"/>
		<path class="st6" d="M609.3,154v-23.6c0-0.3,0.3-0.5,0.5-0.5h4.2c0.3,0,0.5,0.3,0.5,0.5V154c0,0.3-0.3,0.5-0.5,0.5h-4.2
			C609.4,154.5,609.3,154.3,609.3,154z"/>
	</g>
</g>
<path class="st0" d="M1089.1,120.6v-2.9h28.8v2.9c0,1,1.2,1.5,2,0.8l4.3-4.2c0.4-0.4,0.4-1.2,0-1.6l-4.3-4.2c-0.7-0.7-2-0.2-2,0.8
	v3.2h-28.8v-3.3c0-1-1.2-1.5-2-0.8l-4.3,4.2c-0.4,0.4-0.4,1.2,0,1.6l4.3,4.2C1087.9,122.1,1089.1,121.6,1089.1,120.6z"/>
<path class="st0" d="M790.7,120.6v-2.9h28.8v2.9c0,1,1.2,1.5,2,0.8l4.3-4.2c0.4-0.4,0.4-1.2,0-1.6l-4.3-4.2c-0.7-0.7-2-0.2-2,0.8
	v3.2h-28.8v-3.3c0-1-1.2-1.5-2-0.8l-4.3,4.2c-0.4,0.4-0.4,1.2,0,1.6l4.3,4.2C789.4,122.1,790.7,121.6,790.7,120.6z"/>
<g>
	<rect x="1147.6" y="67.6" class="st7" width="80.3" height="94.3"/>
	<g>
		<g>
			<path class="st2" d="M1164.4,126.9c-0.7,0-1.3-0.2-1.8-0.3c-0.5-0.2-0.9-0.6-1.3-1.1c-0.3-0.4-0.6-1-0.8-1.7
				c-0.2-0.7-0.3-1.5-0.3-2.4s0.1-1.6,0.3-2.4c0.2-0.7,0.4-1.3,0.8-1.7c0.3-0.4,0.8-0.9,1.3-1.1c0.5-0.3,1.1-0.3,1.8-0.3
				c1.4,0,2.4,0.5,3.1,1.5c0.7,0.9,1,2.3,1,4.1c0,1.8-0.3,3.2-1,4.1S1165.8,126.9,1164.4,126.9z M1164.4,125.3
				c0.3,0,0.7-0.1,0.9-0.2c0.3-0.1,0.4-0.3,0.6-0.6c0.2-0.3,0.3-0.6,0.3-0.9s0.1-0.8,0.1-1.3v-1.8c0-0.9-0.2-1.6-0.4-2.2
				c-0.3-0.6-0.8-0.8-1.5-0.8s-1.2,0.3-1.5,0.8s-0.4,1.3-0.4,2.2v1.9c0,0.9,0.2,1.6,0.4,2.2C1163.2,125,1163.7,125.3,1164.4,125.3z"
				/>
			<path class="st2" d="M1170.3,116h3.8c1,0,1.8,0.3,2.4,0.8c0.5,0.5,0.9,1.2,0.9,2.1c0,0.6-0.2,1.1-0.4,1.5
				c-0.3,0.3-0.7,0.6-1.3,0.8v0.1c0.7,0.2,1.1,0.4,1.5,0.9c0.4,0.4,0.6,0.9,0.6,1.7c0,0.4-0.1,0.9-0.3,1.2c-0.2,0.3-0.3,0.7-0.6,0.9
				c-0.3,0.3-0.6,0.4-1,0.6s-0.9,0.2-1.3,0.2h-4.1L1170.3,116L1170.3,116z M1173.6,120.6c0.5,0,0.9-0.1,1.2-0.3s0.4-0.5,0.4-1v-0.5
				c0-0.5-0.2-0.9-0.4-1s-0.7-0.3-1.2-0.3h-1.3v3.2L1173.6,120.6L1173.6,120.6z M1173.8,125.3c0.6,0,1-0.1,1.3-0.3
				c0.3-0.3,0.4-0.6,0.4-1.1v-0.5c0-0.5-0.2-0.9-0.4-1s-0.7-0.3-1.3-0.3h-1.5v3.3L1173.8,125.3L1173.8,125.3z"/>
			<path class="st2" d="M1186,116v7.8c0,0.5-0.1,0.9-0.3,1.3c-0.2,0.3-0.4,0.7-0.7,0.9s-0.7,0.5-1.1,0.6s-0.9,0.3-1.5,0.3
				c-1,0-1.8-0.3-2.4-0.8s-0.9-1.2-1.1-2.1l1.9-0.4c0.1,0.4,0.3,0.9,0.5,1.1s0.6,0.4,1.1,0.4c0.4,0,0.9-0.2,1-0.4
				c0.2-0.3,0.3-0.7,0.3-1.3v-5.9h-3.6v-1.6L1186,116L1186,116z"/>
			<path class="st2" d="M1188.8,126.8V116h6.8v1.6h-4.8v2.8h4.6v1.6h-4.6v3h4.8v1.6L1188.8,126.8L1188.8,126.8z"/>
			<path class="st2" d="M1201.7,126.9c-1.4,0-2.5-0.5-3.2-1.5c-0.7-0.9-1-2.3-1-4.1c0-1.8,0.3-3.2,1-4.1s1.7-1.5,3.2-1.5
				c0.5,0,1,0.1,1.5,0.2c0.4,0.2,0.8,0.3,1,0.6s0.5,0.5,0.8,0.9c0.2,0.3,0.3,0.8,0.4,1.2l-1.9,0.5c-0.1-0.3-0.2-0.5-0.3-0.7
				c-0.1-0.2-0.2-0.4-0.3-0.6c-0.2-0.2-0.3-0.3-0.5-0.3c-0.2-0.1-0.4-0.2-0.8-0.2c-0.7,0-1.2,0.3-1.5,0.8s-0.4,1.3-0.4,2.2v1.9
				c0,0.9,0.2,1.6,0.4,2.2c0.3,0.5,0.8,0.8,1.5,0.8c0.3,0,0.5,0,0.8-0.2c0.2-0.1,0.3-0.2,0.5-0.3c0.2-0.2,0.3-0.3,0.3-0.6
				c0.1-0.3,0.2-0.4,0.3-0.7l1.9,0.5c-0.1,0.4-0.3,0.8-0.4,1.2c-0.2,0.3-0.4,0.7-0.8,0.9c-0.3,0.3-0.7,0.4-1,0.6
				C1202.7,126.8,1202.3,126.9,1201.7,126.9z"/>
			<path class="st2" d="M1211.7,117.7v9.1h-2v-9.1h-3.3v-1.6h8.5v1.6H1211.7z"/>
		</g>
	</g>
	
		<linearGradient id="SVGID_1_" gradientUnits="userSpaceOnUse" x1="1187.6" y1="-1251.9485" x2="1187.6" y2="-1336.4414" gradientTransform="matrix(1 0 0 1 0 1420)">
		<stop  offset="0" style="stop-color:#10535A"/>
		<stop  offset="1" style="stop-color:#102E46"/>
	</linearGradient>
	<path class="st8" d="M1150,63.2c-3.9,0-7.1,3.2-7.1,7.1V161c0,3.9,3.2,7.1,7.1,7.1h75c3.9,0,7.1-3.2,7.1-7.1c0-4.8,0-9.7,0-14.5
		c0-10.3,0-20.5,0-30.8c0-7.1-0.2-14.2,0-21.2c0.2-6.5,0.4-13.3-0.2-19.7c-0.4-4.8-2.6-8.9-7.4-10.6c-0.7-0.3-1.4-0.4-2.1-0.6
		c-2.7-0.6-5.6-0.7-8.2-0.8L1150,63.2z M1223.5,154.6c0,3.4-2.7,6.2-6.2,6.2h-60.9c-3.4,0-6.2-2.7-6.2-6.2V76.7
		c0-3.4,2.7-6.2,6.2-6.2h40.9v10.4c0,8.6,6.9,15.5,15.5,15.5h10.7V154.6L1223.5,154.6z M1223.5,89.7h-10.7c-4.8,0-8.7-3.9-8.7-8.7
		V70.6h13.3c3.4,0,6.2,2.7,6.2,6.2v12.9H1223.5z"/>
</g>
<g>
	<rect x="682.1" y="67.6" class="st7" width="80.3" height="94.3"/>
	<g>
		<g>
			<path class="st2" d="M699,126.9c-0.7,0-1.3-0.2-1.8-0.3c-0.5-0.2-0.9-0.6-1.3-1.1c-0.3-0.4-0.6-1-0.8-1.7s-0.3-1.5-0.3-2.4
				s0.1-1.6,0.3-2.4c0.2-0.7,0.4-1.3,0.8-1.7c0.3-0.4,0.8-0.9,1.3-1.1c0.5-0.3,1.1-0.3,1.8-0.3c1.4,0,2.4,0.5,3.1,1.5
				c0.7,0.9,1,2.3,1,4.1c0,1.8-0.3,3.2-1,4.1C701.4,126.5,700.4,126.9,699,126.9z M699,125.3c0.3,0,0.7-0.1,0.9-0.2
				c0.3-0.1,0.4-0.3,0.6-0.6s0.3-0.6,0.3-0.9c0.1-0.3,0.1-0.8,0.1-1.3v-1.8c0-0.9-0.2-1.6-0.4-2.2s-0.8-0.8-1.5-0.8
				c-0.8,0-1.2,0.3-1.5,0.8s-0.4,1.3-0.4,2.2v1.9c0,0.9,0.2,1.6,0.4,2.2C697.8,125,698.3,125.3,699,125.3z"/>
			<path class="st2" d="M704.9,116h3.8c1,0,1.8,0.3,2.4,0.8c0.5,0.5,0.9,1.2,0.9,2.1c0,0.6-0.2,1.1-0.4,1.5
				c-0.3,0.3-0.7,0.6-1.3,0.8v0.1c0.7,0.2,1.1,0.4,1.5,0.9s0.6,0.9,0.6,1.7c0,0.4-0.1,0.9-0.3,1.2c-0.2,0.3-0.3,0.7-0.6,0.9
				c-0.3,0.3-0.6,0.4-1,0.6s-0.9,0.2-1.3,0.2h-4.1L704.9,116L704.9,116z M708.2,120.6c0.5,0,0.9-0.1,1.2-0.3s0.4-0.5,0.4-1v-0.5
				c0-0.5-0.2-0.9-0.4-1s-0.7-0.3-1.2-0.3h-1.3v3.2L708.2,120.6L708.2,120.6z M708.4,125.3c0.6,0,1-0.1,1.3-0.3
				c0.3-0.3,0.4-0.6,0.4-1.1v-0.5c0-0.5-0.2-0.9-0.4-1s-0.7-0.3-1.3-0.3h-1.5v3.3L708.4,125.3L708.4,125.3z"/>
			<path class="st2" d="M720.6,116v7.8c0,0.5-0.1,0.9-0.3,1.3c-0.2,0.3-0.4,0.7-0.7,0.9c-0.3,0.3-0.7,0.5-1.1,0.6s-0.9,0.3-1.5,0.3
				c-1,0-1.8-0.3-2.4-0.8c-0.6-0.5-0.9-1.2-1.1-2.1l1.9-0.4c0.1,0.4,0.3,0.9,0.5,1.1c0.3,0.3,0.6,0.4,1.1,0.4c0.4,0,0.9-0.2,1-0.4
				s0.3-0.7,0.3-1.3v-5.9h-3.6v-1.6L720.6,116L720.6,116z"/>
			<path class="st2" d="M723.4,126.8V116h6.8v1.6h-4.8v2.8h4.6v1.6h-4.6v3h4.8v1.6L723.4,126.8L723.4,126.8z"/>
			<path class="st2" d="M736.3,126.9c-1.4,0-2.5-0.5-3.2-1.5c-0.7-0.9-1-2.3-1-4.1c0-1.8,0.3-3.2,1-4.1s1.7-1.5,3.2-1.5
				c0.5,0,1,0.1,1.5,0.2c0.4,0.2,0.8,0.3,1,0.6c0.3,0.3,0.5,0.5,0.8,0.9c0.2,0.3,0.3,0.8,0.4,1.2l-1.9,0.5c-0.1-0.3-0.2-0.5-0.3-0.7
				s-0.2-0.4-0.3-0.6c-0.2-0.2-0.3-0.3-0.5-0.3c-0.2-0.1-0.4-0.2-0.8-0.2c-0.7,0-1.2,0.3-1.5,0.8s-0.4,1.3-0.4,2.2v1.9
				c0,0.9,0.2,1.6,0.4,2.2c0.3,0.5,0.8,0.8,1.5,0.8c0.3,0,0.5,0,0.8-0.2c0.2-0.1,0.3-0.2,0.5-0.3s0.3-0.3,0.3-0.6
				c0.1-0.3,0.2-0.4,0.3-0.7l1.9,0.5c-0.1,0.4-0.3,0.8-0.4,1.2c-0.2,0.3-0.4,0.7-0.8,0.9c-0.3,0.3-0.7,0.4-1,0.6
				C737.3,126.8,736.9,126.9,736.3,126.9z"/>
			<path class="st2" d="M746.3,117.7v9.1h-2v-9.1H741v-1.6h8.5v1.6H746.3z"/>
		</g>
	</g>
	
		<linearGradient id="SVGID_00000172441728200171518670000000106618206534248334_" gradientUnits="userSpaceOnUse" x1="722.2" y1="-1251.9485" x2="722.2" y2="-1336.4414" gradientTransform="matrix(1 0 0 1 0 1420)">
		<stop  offset="0" style="stop-color:#10535A"/>
		<stop  offset="1" style="stop-color:#102E46"/>
	</linearGradient>
	<path style="fill:url(#SVGID_00000172441728200171518670000000106618206534248334_);" d="M684.6,63.2c-3.9,0-7.1,3.2-7.1,7.1V161
		c0,3.9,3.2,7.1,7.1,7.1h75c3.9,0,7.1-3.2,7.1-7.1c0-4.8,0-9.7,0-14.5c0-10.3,0-20.5,0-30.8c0-7.1-0.2-14.2,0-21.2
		c0.2-6.5,0.4-13.3-0.2-19.7c-0.4-4.8-2.6-8.9-7.4-10.6c-0.7-0.3-1.4-0.4-2.1-0.6c-2.7-0.6-5.6-0.7-8.2-0.8L684.6,63.2z
		 M758.1,154.6c0,3.4-2.7,6.2-6.2,6.2H691c-3.4,0-6.2-2.7-6.2-6.2V76.7c0-3.4,2.7-6.2,6.2-6.2h41v10.4c0,8.6,6.9,15.5,15.5,15.5
		h10.7L758.1,154.6L758.1,154.6z M758.1,89.7h-10.7c-4.8,0-8.7-3.9-8.7-8.7V70.6H752c3.4,0,6.2,2.7,6.2,6.2v12.9H758.1z"/>
</g>
<g>
	<rect x="680.1" y="309.8" class="st10" width="561" height="51"/>
	<g>
		<path class="st2" d="M733.7,332.4l-0.9,0.9c-0.8-0.9-1.9-1.5-3.3-1.5c-2.4,0-4.3,1.8-4.3,4.4c0,2.6,1.9,4.4,4.2,4.4
			s3.7-1.4,3.9-3.6H730v-1.1h4.7c0,0.1,0,0.2,0,0.3c0,3.2-2,5.6-5.2,5.6c-2.8,0-5.6-2.1-5.6-5.6c0-3.3,2.4-5.6,5.6-5.6
			C731.2,330.6,732.6,331.3,733.7,332.4z"/>
		<path class="st2" d="M741.6,334.3l-0.3,1.1c-0.3-0.2-0.9-0.3-1.3-0.3c-1.1,0-2,0.9-2,2.3v4.1h-1v-7.3h1.1v1
			c0.5-0.8,1.3-1.2,2.1-1.2C740.8,334.1,741.2,334.1,741.6,334.3z"/>
		<path class="st2" d="M749.5,337.9c0,0.2,0,0.3,0,0.4h-5.8c0.2,1.5,1.3,2.4,2.6,2.4c0.9,0,1.7-0.3,2.3-0.9l0.6,0.8
			c-0.9,0.9-1.9,1.1-3,1.1c-2.1,0-3.7-1.5-3.7-3.8c0-2.2,1.5-3.8,3.6-3.8C748,334.1,749.5,335.6,749.5,337.9z M743.7,337.3h4.7
			c-0.2-1.4-1-2.2-2.3-2.2C744.7,335,743.8,336,743.7,337.3z"/>
		<path class="st2" d="M758.2,337.9c0,0.2,0,0.3,0,0.4h-5.8c0.2,1.5,1.3,2.4,2.6,2.4c0.9,0,1.7-0.3,2.3-0.9l0.6,0.8
			c-0.9,0.9-1.9,1.1-3,1.1c-2.1,0-3.7-1.5-3.7-3.8c0-2.2,1.5-3.8,3.6-3.8C756.7,334.1,758.2,335.6,758.2,337.9z M752.3,337.3h4.7
			c-0.2-1.4-1-2.2-2.3-2.2C753.4,335,752.5,336,752.3,337.3z"/>
		<path class="st2" d="M767,337v4.5h-1.1v-4.1c0-1.4-0.8-2.2-2.1-2.2c-1.2,0-2.2,0.9-2.2,2.2v4.1h-1.1v-7.3h1.1v1
			c0.6-0.9,1.5-1.2,2.5-1.2C765.7,334.1,767,335.2,767,337z"/>
		<g>
			<path class="st2" d="M788.9,336.5h-6.7v-1h6.7V336.5z M788.9,339.4h-6.7v-1h6.7V339.4z"/>
			<path class="st2" d="M797.8,337.5v3.9h-2.1v-10.8h4.4c2.6,0,3.9,1.4,3.9,3.4c0,2.1-1.4,3.4-3.9,3.4L797.8,337.5L797.8,337.5z
				 M797.8,332.7v2.9h2.2c1.2,0,1.8-0.5,1.8-1.5s-0.6-1.5-1.8-1.5L797.8,332.7L797.8,332.7z"/>
			<path class="st2" d="M814.9,337.2c0,3-1.9,4.5-4.6,4.5s-4.6-1.5-4.6-4.5v-6.5h2.1v6.3c0,1.8,1,2.6,2.5,2.6s2.5-0.8,2.5-2.6v-6.3
				h2.1V337.2z"/>
			<path class="st2" d="M825.1,332.7h-3.3v8.7h-2.1v-8.7h-3.3v-2h8.8L825.1,332.7L825.1,332.7z"/>
		</g>
	</g>
	<g>
		<g>
			<path class="st2" d="M885.9,329.9c2.3,0,3.9,0.8,3.9,2.8c0,1.2-0.7,2.1-1.6,2.4c1.1,0.3,1.9,1.2,1.9,2.6c0,2.1-1.5,3-3.9,3h-4.5
				v-10.8H885.9L885.9,329.9z M883,331v3.6h2.9c1.5,0,2.7-0.3,2.7-1.8s-1.1-1.8-2.7-1.8H883L883,331z M883,335.7v3.8h3.1
				c1.6,0,2.7-0.4,2.7-1.9s-1-1.9-2.7-1.9L883,335.7L883,335.7z"/>
			<path class="st2" d="M893.5,340.6h-1.1v-11.1h1.1V340.6z"/>
			<path class="st2" d="M902.7,337.6c0,2.1-1.5,3.2-3.3,3.2s-3.3-1-3.3-3.2v-4.3h1.1v4.1c0,1.5,0.9,2.2,2.1,2.2
				c1.2,0,2.1-0.7,2.1-2.2v-4.1h1.1L902.7,337.6L902.7,337.6z"/>
			<path class="st2" d="M911.9,337c0,0.2,0,0.3,0,0.4h-5.8c0.2,1.5,1.3,2.4,2.6,2.4c0.9,0,1.7-0.3,2.3-0.9l0.6,0.8
				c-0.9,0.9-1.9,1.1-3,1.1c-2.1,0-3.7-1.5-3.7-3.8c0-2.2,1.5-3.8,3.6-3.8C910.4,333.2,911.9,334.8,911.9,337z M906,336.5h4.7
				c-0.2-1.4-1-2.2-2.3-2.2C907.1,334.2,906.2,335.1,906,336.5z"/>
		</g>
		<g>
			<path class="st2" d="M945.7,335.6H939v-1h6.7V335.6z M945.7,338.5H939v-1h6.7V338.5z"/>
			<path class="st2" d="M956.9,329.9c2.6,0,3.9,1.2,3.9,3.3c0,1.8-1.2,3-3.3,3.2l3.3,4.4h-2.6l-3.2-4.3h-0.6v4.3h-2.1V330h4.6V329.9
				z M954.5,331.9v2.7h2.4c1.2,0,1.8-0.4,1.8-1.4c0-0.9-0.7-1.3-1.8-1.3H954.5z"/>
			<path class="st2" d="M970.9,340.6h-8.1v-10.8h8v2H965v2.4h5.6v2H965v2.5h5.9V340.6L970.9,340.6z"/>
			<path class="st2" d="M975.3,336.7v3.9h-2.1v-10.8h4.4c2.6,0,3.9,1.4,3.9,3.4c0,2.1-1.4,3.4-3.9,3.4L975.3,336.7L975.3,336.7z
				 M975.3,331.9v2.9h2.2c1.2,0,1.8-0.5,1.8-1.5c0-0.9-0.6-1.5-1.8-1.5L975.3,331.9L975.3,331.9z"/>
			<path class="st2" d="M991.1,340.6h-7.9v-10.8h2.1v8.7h5.7v2.1H991.1z"/>
			<path class="st2" d="M994.7,340.6h-2.1v-10.8h2.1V340.6z"/>
			<path class="st2" d="M1007,332l-1.9,1.1c-0.6-0.9-1.5-1.5-2.8-1.5c-2,0-3.4,1.5-3.4,3.5c0,2.1,1.5,3.5,3.4,3.5
				c1.2,0,2.1-0.5,2.8-1.5l1.8,1.3c-0.9,1.4-2.6,2.3-4.5,2.3c-3.3,0-5.7-2.4-5.7-5.6s2.3-5.6,5.7-5.6
				C1004.3,329.6,1006.1,330.6,1007,332z"/>
			<path class="st2" d="M1018.7,340.6h-2.3l-0.9-2.5h-4.6l-0.9,2.5h-2.2l4.2-10.8h2.7L1018.7,340.6z M1011.6,336.1h3.2l-1.5-4.2
				L1011.6,336.1z"/>
			<path class="st2" d="M1027,331.9h-3.3v8.7h-2.1v-8.7h-3.3v-2h8.8L1027,331.9L1027,331.9z"/>
			<path class="st2" d="M1030.6,340.6h-2.1v-10.8h2.1V340.6z"/>
			<path class="st2" d="M1043.9,335.3c0,3.3-2.4,5.6-5.7,5.6s-5.7-2.4-5.7-5.6c0-3.3,2.3-5.6,5.7-5.6
				C1041.6,329.7,1043.9,332,1043.9,335.3z M1034.8,335.3c0,2.1,1.5,3.5,3.4,3.5s3.4-1.5,3.4-3.5c0-2.1-1.5-3.5-3.4-3.5
				C1036.3,331.7,1034.8,333.1,1034.8,335.3z"/>
			<path class="st2" d="M1055.5,340.6h-2.1l-5.5-7.2v7.2h-2.1v-10.8h2l5.5,7.2v-7.2h2.1L1055.5,340.6L1055.5,340.6z"/>
		</g>
	</g>
	<g>
		<g>
			<path class="st2" d="M1120.1,334.2c0,3.3-2.4,5.6-5.6,5.6s-5.6-2.3-5.6-5.6s2.4-5.6,5.6-5.6
				C1117.8,328.6,1120.1,330.9,1120.1,334.2z M1110.3,334.2c0,2.6,1.9,4.4,4.3,4.4s4.3-1.8,4.3-4.4c0-2.6-1.9-4.4-4.3-4.4
				S1110.3,331.5,1110.3,334.2z"/>
			<path class="st2" d="M1127.1,332.3l-0.3,1.1c-0.3-0.2-0.9-0.3-1.3-0.3c-1.1,0-2,0.9-2,2.3v4.1h-1.1v-7.3h1.1v1
				c0.5-0.8,1.3-1.2,2.1-1.2C1126.3,332.1,1126.7,332.1,1127.1,332.3z"/>
			<path class="st2" d="M1135.5,339.5h-1.1v-1.1c-0.6,0.8-1.5,1.2-2.7,1.2c-2.1,0-3.7-1.6-3.7-3.8s1.6-3.8,3.7-3.8
				c1.2,0,2.1,0.5,2.7,1.2v-1.1h1.1V339.5z M1129.1,335.9c0,1.5,1,2.7,2.6,2.7s2.6-1.2,2.6-2.7s-1.1-2.7-2.6-2.7
				S1129.1,334.4,1129.1,335.9z"/>
			<path class="st2" d="M1144.8,335v4.5h-1.1v-4.1c0-1.4-0.8-2.2-2.1-2.2c-1.2,0-2.2,0.9-2.2,2.2v4.1h-1.1v-7.3h1.1v1
				c0.6-0.9,1.5-1.2,2.5-1.2C1143.5,332.1,1144.8,333.2,1144.8,335z"/>
			<path class="st2" d="M1153,333.3v-1.1h1.1v6.8c0,2.4-1.6,3.7-3.9,3.7c-1.2,0-2.3-0.3-3.1-0.9l0.5-0.9c0.7,0.5,1.5,0.9,2.6,0.9
				c1.5,0,2.7-0.9,2.7-2.6v-0.8c-0.6,0.8-1.5,1.2-2.6,1.2c-2.1,0-3.6-1.5-3.6-3.8c0-2.2,1.5-3.8,3.6-3.8
				C1151.7,332.1,1152.5,332.6,1153,333.3z M1148,335.8c0,1.5,1,2.7,2.6,2.7c1.5,0,2.6-1.1,2.6-2.7c0-1.5-1-2.7-2.6-2.7
				C1149,333.2,1148,334.4,1148,335.8z"/>
			<path class="st2" d="M1163.4,335.9c0,0.2,0,0.3,0,0.4h-5.8c0.2,1.5,1.3,2.4,2.6,2.4c0.9,0,1.7-0.3,2.3-0.9l0.6,0.8
				c-0.9,0.9-1.9,1.1-3,1.1c-2.1,0-3.7-1.5-3.7-3.8c0-2.2,1.5-3.8,3.6-3.8C1161.9,332.1,1163.4,333.7,1163.4,335.9z M1157.6,335.4
				h4.7c-0.2-1.4-1-2.2-2.3-2.2C1158.6,333.1,1157.8,334,1157.6,335.4z"/>
		</g>
		<g>
			<path class="st2" d="M1182.7,334.5h-6.7v-1h6.7V334.5z M1182.7,337.4h-6.7v-1h6.7V337.4z"/>
			<path class="st2" d="M1198.5,330.2l-1.5,1.5c-0.6-0.7-1.5-1.1-2.6-1.1c-2,0-3.4,1.5-3.4,3.6c0,2.2,1.5,3.6,3.3,3.6
				s2.7-0.9,3.1-2.4h-2.7v-1.8h5c0,0.2,0,0.4,0,0.6c0,3.3-2.2,5.6-5.3,5.6c-3,0-5.7-2.1-5.7-5.6c0-3.3,2.4-5.6,5.7-5.6
				C1196.2,328.5,1197.6,329.1,1198.5,330.2z"/>
			<path class="st2" d="M1209.7,339.5h-8.1v-10.8h8v2h-5.8v2.4h5.6v2h-5.6v2.5h5.9V339.5L1209.7,339.5z"/>
			<path class="st2" d="M1219.8,330.8h-3.3v8.7h-2.1v-8.7h-3.3v-2h8.8L1219.8,330.8L1219.8,330.8z"/>
		</g>
	</g>
	<circle class="st11" cx="703.6" cy="335.4" r="5.1"/>
	<circle class="st0" cx="860.8" cy="335.4" r="5.1"/>
	<circle class="st12" cx="1088.7" cy="335.1" r="5.1"/>
</g>
<g>
	<path class="st12" d="M319.7,108.2v-2.9h28.8v2.9c0,1,1.2,1.5,2,0.8l4.3-4.2c0.4-0.4,0.4-1.2,0-1.6l-4.3-4.2c-0.7-0.7-2-0.2-2,0.8
		v3.2h-28.8v-3.2c0-1-1.2-1.5-2-0.8l-4.3,4.2c-0.4,0.4-0.4,1.2,0,1.6l4.3,4.2C318.4,109.7,319.7,109.2,319.7,108.2z"/>
	<path class="st11" d="M319.7,133.3v-2.9h28.8v2.9c0,1,1.2,1.5,2,0.8l4.3-4.2c0.4-0.4,0.4-1.2,0-1.6l-4.3-4.2c-0.7-0.7-2-0.2-2,0.8
		v3.2h-28.8v-3.2c0-1-1.2-1.5-2-0.8l-4.3,4.2c-0.4,0.4-0.4,1.2,0,1.6l4.3,4.2C318.4,134.9,319.7,134.4,319.7,133.3z"/>
</g>
<g>
	<path class="st4" d="M1868.9,157.2h-220.8c-6.2,0-11.2-5.1-11.2-11.2V63.7c0-6.2,5.1-11.2,11.2-11.2h220.8
		c6.2,0,11.2,5.1,11.2,11.2v82.4C1880.1,152.3,1875.1,157.2,1868.9,157.2z"/>
	<path class="st4" d="M1878.3,170.1h-220.8c-6.2,0-11.2-5.1-11.2-11.2V76.6c0-6.2,5.1-11.2,11.2-11.2h220.8
		c6.2,0,11.2,5.1,11.2,11.2V159C1889.6,165.1,1884.5,170.1,1878.3,170.1z"/>
	<path class="st4" d="M1887.8,182.9H1667c-6.2,0-11.2-5.1-11.2-11.2V89.4c0-6.2,5.1-11.2,11.2-11.2h220.8c6.2,0,11.2,5.1,11.2,11.2
		v82.4C1899,178,1893.9,182.9,1887.8,182.9z"/>
	<g>
		<path class="st2" d="M1716.7,138h-3.2l-1.3-3.5h-6.4l-1.3,3.5h-3.1l5.8-15h3.6L1716.7,138z M1706.9,131.7h4.4l-2.1-5.8
			L1706.9,131.7z"/>
		<path class="st2" d="M1729.2,132.7c0,3.1-2.1,5.5-5.1,5.5c-1.4,0-2.4-0.5-3.1-1.4v5.4h-2.7v-14.6h2.7v1.1c0.7-0.9,1.7-1.5,3.1-1.5
			C1727.1,127.3,1729.2,129.7,1729.2,132.7z M1721.1,132.7c0,1.6,1.1,2.8,2.7,2.8s2.7-1.3,2.7-2.8s-1-2.8-2.7-2.8
			S1721.1,131.1,1721.1,132.7z"/>
		<path class="st2" d="M1742.4,132.7c0,3.1-2.1,5.5-5.1,5.5c-1.4,0-2.4-0.5-3.1-1.4v5.4h-2.7v-14.6h2.7v1.1c0.7-0.9,1.7-1.5,3.1-1.5
			C1740.3,127.3,1742.4,129.7,1742.4,132.7z M1734.2,132.7c0,1.6,1.1,2.8,2.7,2.8s2.7-1.3,2.7-2.8s-1-2.8-2.7-2.8
			C1735.3,129.9,1734.2,131.1,1734.2,132.7z"/>
		<path class="st2" d="M1747.5,138h-2.8v-15.4h2.8V138z"/>
		<path class="st2" d="M1753.5,124.2c0,1-0.8,1.8-1.8,1.8s-1.8-0.8-1.8-1.8s0.8-1.8,1.8-1.8C1752.8,122.4,1753.5,123.2,1753.5,124.2
			z M1753.2,138h-2.8v-10.4h2.8V138z"/>
		<path class="st2" d="M1765.2,129.2l-2,1.7c-0.6-0.7-1.3-1-2.2-1c-1.5,0-2.6,1.1-2.6,2.8s1.1,2.8,2.6,2.8c0.9,0,1.7-0.4,2.2-1
			l2,1.7c-0.9,1.3-2.4,2-4.2,2c-3.3,0-5.6-2.3-5.6-5.5s2.2-5.5,5.6-5.5C1762.8,127.3,1764.2,128,1765.2,129.2z"/>
		<path class="st2" d="M1777.2,138h-2.7v-1.1c-0.7,0.9-1.7,1.4-3.1,1.4c-2.8,0-5.1-2.3-5.1-5.5s2.1-5.5,5.1-5.5
			c1.5,0,2.4,0.6,3.1,1.5v-1.1h2.7V138z M1769.2,132.7c0,1.6,1,2.8,2.7,2.8s2.7-1.2,2.7-2.8c0-1.6-1.1-2.8-2.7-2.8
			C1770.2,129.9,1769.2,131.2,1769.2,132.7z"/>
		<path class="st2" d="M1787.6,130.1h-3.8v3.8c0,1.3,0.7,1.8,1.5,1.8c0.7,0,1.4-0.3,2-0.7l1,2.2c-0.9,0.6-2,1.1-3.4,1.1
			c-2.6,0-3.9-1.5-3.9-4.1v-4h-2v-2.5h2v-3.1h2.8v3.1h3.8V130.1L1787.6,130.1z"/>
		<path class="st2" d="M1793.3,124.2c0,1-0.8,1.8-1.8,1.8s-1.8-0.8-1.8-1.8s0.8-1.8,1.8-1.8S1793.3,123.2,1793.3,124.2z M1792.9,138
			h-2.8v-10.4h2.8V138z"/>
		<path class="st2" d="M1806.4,132.7c0,3.1-2.4,5.5-5.7,5.5c-3.3,0-5.6-2.3-5.6-5.5s2.4-5.5,5.6-5.5
			C1804,127.3,1806.4,129.7,1806.4,132.7z M1798.1,132.7c0,1.7,1.2,2.8,2.7,2.8s2.7-1.2,2.7-2.8c0-1.6-1.2-2.8-2.7-2.8
			C1799.3,129.9,1798.1,131.1,1798.1,132.7z"/>
		<path class="st2" d="M1818.5,131.4v6.6h-2.8v-5.7c0-1.5-0.8-2.3-2.1-2.3c-1.2,0-2.2,0.8-2.2,2.3v5.7h-2.8v-10.4h2.7v1.2
			c0.8-1.1,1.9-1.5,3.1-1.5C1816.8,127.3,1818.5,129,1818.5,131.4z"/>
		<path class="st2" d="M1833.5,124.9c-2.7,1.3-4.2,3.9-4.2,6.9s1.5,5.7,4.2,6.9l-0.9,2.5c-3.8-1.5-6.3-5.1-6.3-9.4
			c0-4.4,2.6-8,6.3-9.4L1833.5,124.9z"/>
		<path class="st2" d="M1842.9,130.5c-0.9-0.4-2.1-0.9-3.3-0.9c-1,0-1.6,0.3-1.6,0.9s0.8,0.8,1.7,0.9l0.9,0.2
			c2.2,0.3,3.5,1.4,3.5,3.1c0,2.1-1.7,3.5-4.8,3.5c-1.5,0-3.3-0.3-4.6-1.2l1.1-2.1c0.9,0.6,2,1,3.5,1c1.3,0,1.9-0.3,1.9-0.9
			c0-0.5-0.5-0.8-1.7-0.9l-0.9-0.1c-2.4-0.3-3.6-1.4-3.6-3.2c0-2.1,1.6-3.4,4.4-3.4c1.6,0,3,0.3,4.4,1L1842.9,130.5z"/>
		<path class="st2" d="M1845.4,138.8c2.7-1.3,4.2-3.9,4.2-6.9s-1.5-5.7-4.2-6.9l0.9-2.5c3.8,1.5,6.3,5.1,6.3,9.4
			c0,4.3-2.6,8-6.3,9.4L1845.4,138.8z"/>
	</g>
</g>
<g>
	<path class="st12" d="M1569.5,108.2v-2.9h28.8v2.9c0,1,1.2,1.5,2,0.8l4.3-4.2c0.4-0.4,0.4-1.2,0-1.6l-4.3-4.2c-0.7-0.7-2-0.2-2,0.8
		v3.2h-28.8v-3.2c0-1-1.2-1.5-2-0.8l-4.3,4.2c-0.4,0.4-0.4,1.2,0,1.6l4.3,4.2C1568.2,109.7,1569.5,109.2,1569.5,108.2z"/>
	<path class="st11" d="M1569.5,133.3v-2.9h28.8v2.9c0,1,1.2,1.5,2,0.8l4.3-4.2c0.4-0.4,0.4-1.2,0-1.6l-4.3-4.2c-0.7-0.7-2-0.2-2,0.8
		v3.2h-28.8v-3.2c0-1-1.2-1.5-2-0.8l-4.3,4.2c-0.4,0.4-0.4,1.2,0,1.6l4.3,4.2C1568.2,134.9,1569.5,134.4,1569.5,133.3z"/>
</g>
<g>
	<path class="st2" d="M1281.2,211.7h1.1v4.3h0.1c0.1-0.2,0.2-0.3,0.3-0.5s0.3-0.3,0.4-0.4c0.2-0.2,0.3-0.2,0.6-0.3s0.5-0.1,0.8-0.1
		c0.8,0,1.4,0.3,1.8,0.7c0.4,0.5,0.7,1.1,0.7,2v4.5h-1.2v-4.4c0-0.7-0.2-1.1-0.4-1.5c-0.3-0.3-0.7-0.5-1.3-0.5c-0.3,0-0.4,0-0.7,0.1
		c-0.2,0.1-0.4,0.2-0.6,0.3s-0.3,0.3-0.4,0.4c-0.1,0.2-0.2,0.3-0.2,0.6v5h-1.1L1281.2,211.7L1281.2,211.7z"/>
	<path class="st2" d="M1292.6,221.9c-0.5,0-0.9-0.2-1.2-0.4s-0.3-0.7-0.3-1.2v-4.5h-2.4v-0.9h1.8c0.3,0,0.4-0.1,0.5-0.2
		s0.2-0.3,0.2-0.5v-1.9h1v2.5h3.3v0.9h-3.3v5.2h3.3v0.9L1292.6,221.9L1292.6,221.9z"/>
	<path class="st2" d="M1301,221.9c-0.5,0-0.9-0.2-1.2-0.4s-0.4-0.7-0.4-1.2v-4.5h-2.4v-0.9h1.8c0.3,0,0.4-0.1,0.5-0.2
		c0.1-0.1,0.2-0.3,0.2-0.5v-1.9h1v2.5h3.3v0.9h-3.3v5.2h3.3v0.9L1301,221.9L1301,221.9z"/>
	<path class="st2" d="M1306.2,214.8h1.1v1.2h0.1c0.4-0.9,1.2-1.4,2.2-1.4c0.9,0,1.5,0.3,2.1,1s0.8,1.5,0.8,2.7s-0.3,2.1-0.8,2.7
		s-1.2,1-2.1,1c-1,0-1.7-0.4-2.2-1.4h-0.2v3.9h-1.1L1306.2,214.8L1306.2,214.8z M1309.1,221.1c0.7,0,1.1-0.2,1.5-0.6
		c0.3-0.4,0.5-0.9,0.5-1.5v-1.2c0-0.7-0.2-1.2-0.5-1.5s-0.9-0.6-1.5-0.6c-0.3,0-0.5,0-0.7,0.1c-0.3,0.1-0.4,0.2-0.6,0.3
		s-0.3,0.3-0.4,0.4c-0.2,0.2-0.2,0.4-0.2,0.6v2.6c0,0.3,0.1,0.4,0.2,0.6c0.1,0.2,0.3,0.3,0.4,0.4s0.3,0.3,0.6,0.3
		C1308.6,221,1308.8,221.1,1309.1,221.1z"/>
	<path class="st2" d="M1317.4,222c-0.8,0-1.4-0.2-2-0.3c-0.5-0.3-1-0.6-1.4-1l0.8-0.7c0.3,0.3,0.7,0.6,1.1,0.9
		c0.4,0.3,0.9,0.3,1.5,0.3s1-0.1,1.4-0.3c0.3-0.2,0.5-0.5,0.5-0.9c0-0.2,0-0.3-0.1-0.4c-0.1-0.2-0.2-0.3-0.3-0.3
		c-0.1,0-0.3-0.2-0.4-0.2c-0.2-0.1-0.3-0.1-0.4-0.1l-1.1-0.2c-0.3,0-0.5-0.1-0.9-0.2c-0.3-0.1-0.6-0.2-0.8-0.3
		c-0.3-0.2-0.4-0.3-0.6-0.6s-0.3-0.6-0.3-0.9s0.1-0.7,0.2-0.9c0.2-0.3,0.3-0.5,0.6-0.7c0.3-0.2,0.6-0.3,0.9-0.4
		c0.3-0.1,0.8-0.2,1.1-0.2c0.7,0,1.2,0.1,1.7,0.3c0.4,0.2,0.9,0.5,1.2,0.9l-0.7,0.7c-0.1-0.1-0.2-0.2-0.3-0.3
		c-0.2-0.1-0.3-0.2-0.4-0.3c-0.2-0.1-0.4-0.2-0.6-0.2c-0.3-0.1-0.5-0.1-0.9-0.1c-0.6,0-1,0.1-1.3,0.3s-0.4,0.5-0.4,0.9
		c0,0.2,0,0.3,0.1,0.4c0.1,0.2,0.2,0.3,0.3,0.3c0.1,0,0.3,0.2,0.4,0.2c0.2,0.1,0.3,0.1,0.4,0.1l1.1,0.2c0.3,0,0.5,0.1,0.9,0.2
		c0.3,0.1,0.5,0.2,0.8,0.3c0.3,0.2,0.4,0.3,0.6,0.6s0.3,0.6,0.3,0.9c0,0.7-0.3,1.3-0.9,1.6S1318.2,222,1317.4,222z"/>
	<path class="st2" d="M1325.6,216.6c-0.3,0-0.7-0.1-0.8-0.3c-0.1-0.2-0.3-0.3-0.3-0.6v-0.3c0-0.3,0.1-0.4,0.3-0.6s0.4-0.3,0.8-0.3
		s0.7,0.1,0.8,0.3c0.1,0.2,0.3,0.3,0.3,0.6v0.3c0,0.3-0.1,0.4-0.3,0.6C1326.2,216.5,1325.9,216.6,1325.6,216.6z M1325.6,222
		c-0.3,0-0.7-0.1-0.8-0.3c-0.1-0.2-0.3-0.3-0.3-0.6v-0.3c0-0.3,0.1-0.4,0.3-0.6c0.2-0.2,0.4-0.3,0.8-0.3s0.7,0.1,0.8,0.3
		c0.1,0.2,0.3,0.3,0.3,0.6v0.3c0,0.3-0.1,0.4-0.3,0.6C1326.2,222,1325.9,222,1325.6,222z"/>
	<path class="st2" d="M1331,223.8l4.8-12.4h1l-4.8,12.4H1331z"/>
	<path class="st2" d="M1339.3,223.8l4.8-12.4h1l-4.8,12.4H1339.3z"/>
	<path class="st2" d="M1347.1,221.9v-7.1h1v0.9h0.1c0.1-0.3,0.3-0.5,0.4-0.7c0.2-0.2,0.5-0.3,0.9-0.3s0.7,0.1,0.9,0.3
		c0.2,0.2,0.3,0.5,0.3,0.8l0,0c0.2-0.3,0.3-0.6,0.6-0.8s0.6-0.3,1-0.3c0.6,0,0.9,0.2,1.2,0.6c0.2,0.4,0.3,1,0.3,1.7v5h-1v-4.8
		c0-0.6-0.1-1-0.2-1.3s-0.3-0.3-0.7-0.3c-0.3,0-0.5,0.1-0.7,0.3s-0.3,0.5-0.3,0.9v5.2h-1v-4.9c0-0.6-0.1-1-0.2-1.3s-0.3-0.3-0.7-0.3
		c-0.3,0-0.5,0.1-0.7,0.3s-0.3,0.5-0.3,0.9v5.2L1347.1,221.9L1347.1,221.9z"/>
	<path class="st2" d="M1356.2,220.9h2.6v-5.2h-2.6v-0.9h3.7v6.2h2.4v0.9h-6.1V220.9z M1359.3,213.1c-0.3,0-0.5-0.1-0.7-0.2
		c-0.2-0.1-0.2-0.3-0.2-0.5v-0.3c0-0.2,0.1-0.3,0.2-0.5c0.2-0.2,0.3-0.2,0.7-0.2s0.5,0.1,0.7,0.2c0.2,0.2,0.2,0.3,0.2,0.5v0.3
		c0,0.2-0.1,0.3-0.2,0.5S1359.6,213.1,1359.3,213.1z"/>
	<path class="st2" d="M1364.3,221.9v-7.1h1.1v1.2h0.1c0.1-0.2,0.2-0.3,0.3-0.5c0.1-0.2,0.3-0.3,0.4-0.4s0.3-0.2,0.6-0.3
		s0.5-0.1,0.8-0.1c0.8,0,1.4,0.3,1.8,0.7c0.4,0.5,0.7,1.1,0.7,2v4.5h-1.1v-4.4c0-0.7-0.2-1.1-0.4-1.5c-0.3-0.3-0.7-0.5-1.3-0.5
		c-0.3,0-0.4,0-0.7,0.1c-0.2,0.1-0.4,0.2-0.6,0.3s-0.3,0.3-0.4,0.4c-0.1,0.2-0.2,0.3-0.2,0.6v5H1364.3L1364.3,221.9z"/>
	<path class="st2" d="M1372.8,220.9h2.6v-5.2h-2.6v-0.9h3.7v6.2h2.4v0.9h-6.1V220.9L1372.8,220.9z M1375.9,213.1
		c-0.3,0-0.5-0.1-0.7-0.2c-0.2-0.2-0.2-0.3-0.2-0.5v-0.3c0-0.2,0.1-0.3,0.2-0.5c0.2-0.2,0.3-0.2,0.7-0.2c0.3,0,0.5,0.1,0.7,0.2
		c0.2,0.2,0.2,0.3,0.2,0.5v0.3c0,0.2-0.1,0.3-0.2,0.5S1376.2,213.1,1375.9,213.1z"/>
	<path class="st2" d="M1383.8,222c-0.5,0-0.9-0.1-1.4-0.3c-0.4-0.2-0.8-0.4-1-0.8c-0.3-0.3-0.5-0.7-0.7-1.2
		c-0.2-0.4-0.3-0.9-0.3-1.5s0.1-1.1,0.3-1.5s0.3-0.9,0.7-1.2c0.3-0.3,0.6-0.6,1-0.8s0.9-0.3,1.4-0.3s0.9,0.1,1.4,0.3
		c0.4,0.2,0.8,0.4,1,0.8c0.3,0.3,0.5,0.7,0.7,1.2s0.3,0.9,0.3,1.5s-0.1,1.1-0.3,1.5s-0.3,0.9-0.7,1.2c-0.3,0.3-0.6,0.6-1,0.8
		C1384.7,222,1384.3,222,1383.8,222z M1383.8,221.1c0.6,0,1.1-0.2,1.5-0.6c0.3-0.3,0.6-0.9,0.6-1.7v-1c0-0.8-0.2-1.4-0.6-1.7
		c-0.3-0.3-0.9-0.6-1.5-0.6s-1.1,0.2-1.5,0.6c-0.3,0.3-0.6,0.9-0.6,1.7v1c0,0.8,0.2,1.4,0.6,1.7
		C1382.6,220.9,1383.2,221.1,1383.8,221.1z"/>
	<path class="st2" d="M1390.1,218.3v-1.2h4v1.2H1390.1z"/>
	<path class="st2" d="M1400.4,222c-0.6,0-1.1-0.1-1.5-0.3c-0.4-0.3-0.8-0.5-1-0.9c-0.3-0.4-0.5-0.9-0.6-1.5
		c-0.2-0.6-0.2-1.4-0.2-2.1c0-0.8,0.1-1.5,0.2-2.1c0.2-0.6,0.3-1.1,0.6-1.5c0.3-0.4,0.6-0.8,1-0.9c0.4-0.2,0.9-0.3,1.5-0.3
		s1.1,0.1,1.5,0.3c0.4,0.3,0.8,0.5,1,0.9c0.3,0.4,0.5,0.9,0.6,1.5s0.2,1.4,0.2,2.1c0,0.8-0.1,1.5-0.2,2.1c-0.2,0.6-0.3,1.1-0.6,1.5
		c-0.3,0.4-0.6,0.8-1,0.9C1401.5,221.9,1401,222,1400.4,222z M1400.4,221c0.4,0,0.7-0.1,1-0.3s0.5-0.3,0.7-0.7
		c0.2-0.3,0.3-0.6,0.3-1c0.1-0.4,0.2-0.9,0.2-1.3v-1.5c0-0.5,0-0.9-0.2-1.3c-0.1-0.4-0.2-0.8-0.3-1c-0.2-0.3-0.4-0.5-0.7-0.7
		c-0.3-0.2-0.6-0.3-1-0.3s-0.7,0.1-1,0.3s-0.5,0.3-0.7,0.7s-0.3,0.6-0.4,1s-0.2,0.9-0.2,1.3v1.5c0,0.5,0,0.9,0.2,1.3
		c0.1,0.4,0.2,0.7,0.4,1c0.2,0.3,0.4,0.5,0.7,0.7C1399.7,221,1400,221,1400.4,221z M1400.4,217.8c-0.3,0-0.5-0.1-0.7-0.2
		c-0.2-0.2-0.2-0.3-0.2-0.5v-0.3c0-0.2,0.1-0.3,0.2-0.5s0.3-0.2,0.7-0.2s0.5,0.1,0.7,0.2c0.2,0.1,0.2,0.3,0.2,0.5v0.3
		c0,0.2-0.1,0.3-0.2,0.5S1400.7,217.8,1400.4,217.8z"/>
	<path class="st2" d="M1412,221.9h-6.4v-1.2l3.3-2.9c0.4-0.4,0.9-0.9,1.2-1.3c0.3-0.4,0.4-0.9,0.4-1.5v-0.2c0-0.6-0.2-1-0.4-1.4
		c-0.3-0.3-0.8-0.5-1.4-0.5s-1,0.2-1.4,0.4c-0.3,0.3-0.6,0.7-0.7,1.2l-1-0.3c0.1-0.3,0.3-0.6,0.4-0.9s0.3-0.5,0.6-0.7
		s0.5-0.3,0.9-0.5s0.8-0.2,1.3-0.2s0.9,0.1,1.3,0.2s0.7,0.3,0.9,0.6s0.4,0.5,0.6,0.9c0.2,0.3,0.2,0.7,0.2,1.1c0,0.3-0.1,0.7-0.2,1
		s-0.3,0.6-0.4,0.9c-0.2,0.3-0.4,0.6-0.7,0.9s-0.6,0.6-0.9,0.9l-2.7,2.4h5.2L1412,221.9L1412,221.9z"/>
	<path class="st2" d="M1417,222c-0.3,0-0.7-0.1-0.8-0.3c-0.1-0.2-0.3-0.3-0.3-0.6v-0.3c0-0.3,0.1-0.4,0.3-0.6
		c0.2-0.2,0.4-0.3,0.8-0.3c0.3,0,0.7,0.1,0.8,0.3c0.1,0.2,0.3,0.3,0.3,0.6v0.3c0,0.3-0.1,0.4-0.3,0.6
		C1417.6,222,1417.4,222,1417,222z"/>
	<path class="st2" d="M1425.5,222c-0.5,0-1-0.1-1.4-0.3s-0.8-0.4-1-0.8c-0.3-0.3-0.5-0.7-0.7-1.2c-0.2-0.4-0.3-0.9-0.3-1.5
		s0.1-1.1,0.3-1.5s0.4-0.9,0.7-1.2s0.6-0.6,1-0.8s0.9-0.3,1.4-0.3s0.9,0.1,1.3,0.3s0.7,0.4,1,0.7s0.5,0.7,0.6,1.1
		c0.1,0.4,0.3,0.9,0.3,1.4v0.5h-5.3v0.3c0,0.3,0.1,0.6,0.2,0.9s0.3,0.5,0.4,0.7c0.2,0.2,0.4,0.3,0.7,0.4s0.6,0.2,0.9,0.2
		c0.5,0,0.9-0.1,1.3-0.3c0.3-0.3,0.6-0.5,0.8-0.9l0.9,0.6c-0.2,0.5-0.6,0.9-1,1.2C1426.8,221.9,1426.2,222,1425.5,222z
		 M1425.4,215.4c-0.3,0-0.6,0.1-0.9,0.2s-0.5,0.3-0.7,0.4c-0.2,0.2-0.3,0.4-0.4,0.7s-0.2,0.5-0.2,0.9v0.1h4.1v-0.2
		c0-0.3-0.1-0.6-0.2-0.9c-0.1-0.3-0.3-0.5-0.4-0.7c-0.2-0.2-0.3-0.3-0.6-0.4C1426,215.5,1425.6,215.4,1425.4,215.4z"/>
	<path class="st2" d="M1430.4,221.9l2.7-3.6l-2.6-3.5h1.3l1.1,1.5l0.9,1.2h0.1l0.9-1.2l1-1.5h1.3l-2.7,3.5l2.7,3.6h-1.3l-1.2-1.7
		l-0.9-1.1h-0.1l-0.8,1.1l-1.2,1.7H1430.4L1430.4,221.9z"/>
	<path class="st2" d="M1444.7,221.9c-0.4,0-0.8-0.1-0.9-0.3c-0.2-0.3-0.3-0.5-0.3-0.9h-0.1c-0.2,0.4-0.4,0.8-0.8,0.9
		s-0.9,0.3-1.4,0.3c-0.8,0-1.4-0.2-1.8-0.6c-0.4-0.4-0.7-0.9-0.7-1.6c0-0.7,0.3-1.2,0.7-1.5c0.5-0.3,1.3-0.5,2.3-0.5h1.5V217
		c0-0.5-0.2-0.9-0.4-1.2s-0.7-0.4-1.3-0.4c-0.5,0-0.9,0.1-1.2,0.3s-0.5,0.4-0.8,0.8l-0.8-0.6c0.1-0.2,0.2-0.3,0.3-0.5
		s0.3-0.3,0.6-0.5s0.5-0.3,0.8-0.3s0.6-0.1,1-0.1c0.9,0,1.5,0.2,2,0.7c0.4,0.5,0.8,1,0.8,1.8v3.9h1v0.9L1444.7,221.9L1444.7,221.9z
		 M1441.4,221.1c0.3,0,0.5,0,0.8-0.1s0.4-0.2,0.6-0.3s0.3-0.3,0.4-0.4c0.1-0.2,0.2-0.3,0.2-0.5v-1.2h-1.5c-0.7,0-1.1,0.1-1.5,0.3
		c-0.3,0.2-0.4,0.4-0.4,0.8v0.3c0,0.3,0.2,0.7,0.4,0.9S1440.9,221.1,1441.4,221.1z"/>
	<path class="st2" d="M1446.9,221.9v-7.1h1v0.9h0.1c0.1-0.3,0.3-0.5,0.4-0.7c0.2-0.2,0.5-0.3,0.9-0.3s0.7,0.1,0.9,0.3
		c0.2,0.2,0.3,0.5,0.3,0.8l0,0c0.2-0.3,0.3-0.6,0.6-0.8c0.3-0.2,0.6-0.3,1-0.3c0.6,0,0.9,0.2,1.2,0.6c0.2,0.4,0.3,1,0.3,1.7v5h-1
		v-4.8c0-0.6-0.1-1-0.2-1.3s-0.3-0.3-0.7-0.3c-0.3,0-0.5,0.1-0.7,0.3s-0.3,0.5-0.3,0.9v5.2h-1v-4.9c0-0.6-0.1-1-0.2-1.3
		s-0.3-0.3-0.7-0.3c-0.3,0-0.5,0.1-0.7,0.3s-0.3,0.5-0.3,0.9v5.2L1446.9,221.9L1446.9,221.9z"/>
	<path class="st2" d="M1455.8,214.8h1.1v1.2h0.1c0.4-0.9,1.2-1.4,2.2-1.4c0.9,0,1.5,0.3,2.1,1c0.5,0.7,0.8,1.5,0.8,2.7
		s-0.3,2.1-0.8,2.7c-0.5,0.7-1.2,1-2.1,1c-1,0-1.7-0.4-2.2-1.4h-0.1v3.9h-1.1V214.8z M1458.7,221.1c0.7,0,1.1-0.2,1.5-0.6
		c0.3-0.4,0.5-0.9,0.5-1.5v-1.2c0-0.7-0.2-1.2-0.5-1.5s-0.9-0.6-1.5-0.6c-0.3,0-0.5,0-0.7,0.1c-0.3,0.1-0.4,0.2-0.6,0.3
		s-0.3,0.3-0.4,0.4c-0.2,0.2-0.2,0.4-0.2,0.6v2.6c0,0.3,0.1,0.4,0.2,0.6s0.3,0.3,0.4,0.4c0.2,0.1,0.3,0.3,0.6,0.3
		C1458.2,221,1458.4,221.1,1458.7,221.1z"/>
	<path class="st2" d="M1463.8,220.9h2.5v-8.3h-2.5v-0.9h3.6v9.3h2.5v0.9h-6.1V220.9L1463.8,220.9z"/>
	<path class="st2" d="M1475.3,222c-0.5,0-1-0.1-1.4-0.3s-0.8-0.4-1-0.8c-0.3-0.3-0.5-0.7-0.7-1.2c-0.2-0.4-0.3-0.9-0.3-1.5
		s0.1-1.1,0.3-1.5s0.4-0.9,0.7-1.2s0.6-0.6,1-0.8s0.9-0.3,1.4-0.3s0.9,0.1,1.3,0.3s0.7,0.4,1,0.7s0.5,0.7,0.6,1.1
		c0.1,0.4,0.3,0.9,0.3,1.4v0.5h-5.3v0.3c0,0.3,0.1,0.6,0.2,0.9s0.3,0.5,0.4,0.7c0.2,0.2,0.4,0.3,0.7,0.4s0.6,0.2,0.9,0.2
		c0.5,0,0.9-0.1,1.3-0.3c0.3-0.3,0.6-0.5,0.8-0.9l0.9,0.6c-0.2,0.5-0.6,0.9-1,1.2C1476.7,221.9,1476.1,222,1475.3,222z
		 M1475.2,215.4c-0.3,0-0.6,0.1-0.9,0.2s-0.5,0.3-0.7,0.4s-0.3,0.4-0.4,0.7s-0.2,0.5-0.2,0.9v0.1h4.1v-0.2c0-0.3-0.1-0.6-0.2-0.9
		c-0.1-0.3-0.3-0.5-0.4-0.7c-0.2-0.2-0.3-0.3-0.6-0.4C1475.8,215.5,1475.6,215.4,1475.2,215.4z"/>
	<path class="st2" d="M1483.5,222c-0.3,0-0.7-0.1-0.8-0.3c-0.1-0.2-0.3-0.3-0.3-0.6v-0.3c0-0.3,0.1-0.4,0.3-0.6
		c0.2-0.2,0.4-0.3,0.8-0.3s0.7,0.1,0.8,0.3c0.1,0.2,0.3,0.3,0.3,0.6v0.3c0,0.3-0.1,0.4-0.3,0.6S1483.9,222,1483.5,222z"/>
	<path class="st2" d="M1489,221.9v-7.1h1.1v1.2h0.1c0.1-0.2,0.2-0.3,0.3-0.5c0.1-0.2,0.3-0.3,0.4-0.4c0.2-0.2,0.3-0.2,0.6-0.3
		s0.5-0.1,0.8-0.1c0.8,0,1.4,0.3,1.8,0.7c0.4,0.5,0.7,1.1,0.7,2v4.5h-1.1v-4.4c0-0.7-0.2-1.1-0.4-1.5c-0.3-0.3-0.7-0.5-1.3-0.5
		c-0.3,0-0.4,0-0.7,0.1c-0.2,0.1-0.4,0.2-0.6,0.3s-0.3,0.3-0.4,0.4c-0.1,0.2-0.2,0.3-0.2,0.6v5H1489L1489,221.9z"/>
	<path class="st2" d="M1500.2,222c-0.5,0-1-0.1-1.4-0.3c-0.3-0.2-0.8-0.4-1-0.8c-0.3-0.3-0.5-0.7-0.7-1.2c-0.2-0.4-0.3-0.9-0.3-1.5
		s0.1-1.1,0.3-1.5c0.2-0.4,0.4-0.9,0.7-1.2s0.6-0.6,1-0.8s0.9-0.3,1.4-0.3s0.9,0.1,1.3,0.3s0.7,0.4,1,0.7s0.5,0.7,0.6,1.1
		s0.3,0.9,0.3,1.4v0.5h-5.3v0.3c0,0.3,0.1,0.6,0.2,0.9c0.1,0.3,0.3,0.5,0.4,0.7c0.2,0.2,0.4,0.3,0.7,0.4s0.6,0.2,0.9,0.2
		c0.5,0,0.9-0.1,1.3-0.3c0.3-0.3,0.6-0.5,0.8-0.9l0.9,0.6c-0.2,0.5-0.6,0.9-1,1.2C1501.6,221.9,1501,222,1500.2,222z M1500.2,215.4
		c-0.3,0-0.6,0.1-0.9,0.2s-0.5,0.3-0.7,0.4s-0.3,0.4-0.4,0.7s-0.2,0.5-0.2,0.9v0.1h4.1v-0.2c0-0.3-0.1-0.6-0.2-0.9
		c-0.1-0.3-0.3-0.5-0.4-0.7c-0.2-0.2-0.3-0.3-0.6-0.4C1500.8,215.5,1500.5,215.4,1500.2,215.4z"/>
	<path class="st2" d="M1508.8,221.9c-0.5,0-0.9-0.2-1.2-0.4s-0.4-0.7-0.4-1.2v-4.5h-2.4v-0.9h1.8c0.3,0,0.4-0.1,0.5-0.2
		c0.1-0.1,0.2-0.3,0.2-0.5v-1.9h1v2.5h3.3v0.9h-3.3v5.2h3.3v0.9L1508.8,221.9L1508.8,221.9z"/>
</g>
</svg>
