<svg version="1.1" viewBox="0.0 0.0 960.0 540.0" fill="none" stroke="none" stroke-linecap="square" stroke-miterlimit="10" xmlns:xlink="http://www.w3.org/1999/xlink" xmlns="http://www.w3.org/2000/svg"><clipPath id="gf26a180bf0_0_0.0"><path d="m0 0l960.0 0l0 540.0l-960.0 0l0 -540.0z" clip-rule="nonzero"/></clipPath><g clip-path="url(#gf26a180bf0_0_0.0)"><path fill="#ffffff" d="m0 0l960.0 0l0 540.0l-960.0 0z" fill-rule="evenodd"/><path fill="#000000" fill-opacity="0.0" d="m306.11298 331.433l173.88977 0l0 0.06298828l173.88977 0" fill-rule="evenodd"/><path stroke="#595959" stroke-width="2.0" stroke-linejoin="round" stroke-linecap="butt" d="m306.11298 331.43304l173.88977 0l0 0.06298828l161.88977 0" fill-rule="evenodd"/><path fill="#595959" stroke="#595959" stroke-width="2.0" stroke-linecap="butt" d="m641.8925 334.7995l9.076172 -3.3034668l-9.076172 -3.3034668z" fill-rule="evenodd"/><path fill="#000000" fill-opacity="0.0" d="m162.54855 59.548557l0 115.88745l0.06298828 0l0 115.89209" fill-rule="evenodd"/><path stroke="#595959" stroke-width="2.0" stroke-linejoin="round" stroke-linecap="butt" d="m162.54855 59.548557l0 115.88745l0.06298828 0l0 103.89209" fill-rule="evenodd"/><path fill="#595959" stroke="#595959" stroke-width="2.0" stroke-linecap="butt" d="m159.30809 279.3281l3.3034515 9.076172l3.3034668 -9.076172z" fill-rule="evenodd"/><path fill="#edf7f7" d="m18.989618 291.3245l287.11664 0l0 80.34305l-287.11664 0z" fill-rule="evenodd"/><path stroke="#c72e49" stroke-width="2.0" stroke-linejoin="round" stroke-linecap="butt" d="m18.989618 291.3245l287.11664 0l0 80.34305l-287.11664 0z" fill-rule="evenodd"/><path fill="#ffffff" d="m34.520607 301.7622l105.48435 0l0 24.977386l-105.48435 0z" fill-rule="evenodd"/><path stroke="#c72e49" stroke-width="2.0" stroke-linejoin="round" stroke-linecap="butt" d="m34.520607 301.7622l105.48435 0l0 24.977386l-105.48435 0z" fill-rule="evenodd"/><path fill="#ffffff" d="m42.64302 308.693l2.7898865 0l0 11.115814l-2.7898865 0z" fill-rule="evenodd"/><path stroke="#c72e49" stroke-width="1.0" stroke-linejoin="round" stroke-linecap="butt" d="m42.64302 308.693l2.7898865 0l0 11.115814l-2.7898865 0z" fill-rule="evenodd"/><path fill="#ffffff" d="m58.055206 308.693l2.7898903 0l0 11.115814l-2.7898903 0z" fill-rule="evenodd"/><path stroke="#c72e49" stroke-width="1.0" stroke-linejoin="round" stroke-linecap="butt" d="m58.055206 308.693l2.7898903 0l0 11.115814l-2.7898903 0z" fill-rule="evenodd"/><path fill="#ffffff" d="m50.349113 308.693l2.7898865 0l0 11.115814l-2.7898865 0z" fill-rule="evenodd"/><path stroke="#c72e49" stroke-width="1.0" stroke-linejoin="round" stroke-linecap="butt" d="m50.349113 308.693l2.7898865 0l0 11.115814l-2.7898865 0z" fill-rule="evenodd"/><path fill="#ffffff" d="m84.28468 314.2509l0 0c0 -2.494751 2.022316 -4.5171814 4.51696 -4.5171814l0 0c1.1979752 0 2.3468857 0.47592163 3.1939774 1.3230591c0.8470917 0.84713745 1.3229904 1.9960938 1.3229904 3.1941223l0 0c0 2.4947815 -2.022316 4.517212 -4.516968 4.517212l0 0c-2.4946442 0 -4.51696 -2.0224304 -4.51696 -4.517212z" fill-rule="evenodd"/><path stroke="#c72e49" stroke-width="1.0" stroke-linejoin="round" stroke-linecap="butt" d="m84.28468 314.2509l0 0c0 -2.494751 2.022316 -4.5171814 4.51696 -4.5171814l0 0c1.1979752 0 2.3468857 0.47592163 3.1939774 1.3230591c0.8470917 0.84713745 1.3229904 1.9960938 1.3229904 3.1941223l0 0c0 2.4947815 -2.022316 4.517212 -4.516968 4.517212l0 0c-2.4946442 0 -4.51696 -2.0224304 -4.51696 -4.517212z" fill-rule="evenodd"/><path fill="#ffffff" d="m114.98982 308.693l2.7898865 0l0 11.115814l-2.7898865 0z" fill-rule="evenodd"/><path stroke="#c72e49" stroke-width="1.0" stroke-linejoin="round" stroke-linecap="butt" d="m114.98982 308.693l2.7898865 0l0 11.115814l-2.7898865 0z" fill-rule="evenodd"/><path fill="#ffffff" d="m130.40201 308.693l2.7898865 0l0 11.115814l-2.7898865 0z" fill-rule="evenodd"/><path stroke="#c72e49" stroke-width="1.0" stroke-linejoin="round" stroke-linecap="butt" d="m130.40201 308.693l2.7898865 0l0 11.115814l-2.7898865 0z" fill-rule="evenodd"/><path fill="#ffffff" d="m122.695915 308.693l2.7898865 0l0 11.115814l-2.7898865 0z" fill-rule="evenodd"/><path stroke="#c72e49" stroke-width="1.0" stroke-linejoin="round" stroke-linecap="butt" d="m122.695915 308.693l2.7898865 0l0 11.115814l-2.7898865 0z" fill-rule="evenodd"/><path fill="#ffffff" d="m180.84674 301.76224l105.484344 0l0 24.977386l-105.484344 0z" fill-rule="evenodd"/><path stroke="#c72e49" stroke-width="2.0" stroke-linejoin="round" stroke-linecap="butt" d="m180.84674 301.76224l105.484344 0l0 24.977386l-105.484344 0z" fill-rule="evenodd"/><path fill="#ffffff" d="m188.96915 308.693l2.7899017 0l0 11.115845l-2.7899017 0z" fill-rule="evenodd"/><path stroke="#c72e49" stroke-width="1.0" stroke-linejoin="round" stroke-linecap="butt" d="m188.96915 308.693l2.7899017 0l0 11.115845l-2.7899017 0z" fill-rule="evenodd"/><path fill="#ffffff" d="m204.38135 308.693l2.7898865 0l0 11.115845l-2.7898865 0z" fill-rule="evenodd"/><path stroke="#c72e49" stroke-width="1.0" stroke-linejoin="round" stroke-linecap="butt" d="m204.38135 308.693l2.7898865 0l0 11.115845l-2.7898865 0z" fill-rule="evenodd"/><path fill="#ffffff" d="m196.67525 308.693l2.7898865 0l0 11.115845l-2.7898865 0z" fill-rule="evenodd"/><path stroke="#c72e49" stroke-width="1.0" stroke-linejoin="round" stroke-linecap="butt" d="m196.67525 308.693l2.7898865 0l0 11.115845l-2.7898865 0z" fill-rule="evenodd"/><path fill="#ffffff" d="m230.61082 314.25092l0 0c0 -2.4947815 2.0223083 -4.5171814 4.5169525 -4.5171814l0 0c1.1979828 0 2.346878 0.47592163 3.193985 1.3230591c0.8470917 0.84713745 1.3229828 1.9960938 1.3229828 3.1941223l0 0c0 2.4947815 -2.0223083 4.5171814 -4.516968 4.5171814l0 0c-2.4946442 0 -4.5169525 -2.0224 -4.5169525 -4.5171814z" fill-rule="evenodd"/><path stroke="#c72e49" stroke-width="1.0" stroke-linejoin="round" stroke-linecap="butt" d="m230.61082 314.25092l0 0c0 -2.4947815 2.0223083 -4.5171814 4.5169525 -4.5171814l0 0c1.1979828 0 2.346878 0.47592163 3.193985 1.3230591c0.8470917 0.84713745 1.3229828 1.9960938 1.3229828 3.1941223l0 0c0 2.4947815 -2.0223083 4.5171814 -4.516968 4.5171814l0 0c-2.4946442 0 -4.5169525 -2.0224 -4.5169525 -4.5171814z" fill-rule="evenodd"/><path fill="#ffffff" d="m261.31595 308.693l2.7898865 0l0 11.115845l-2.7898865 0z" fill-rule="evenodd"/><path stroke="#c72e49" stroke-width="1.0" stroke-linejoin="round" stroke-linecap="butt" d="m261.31595 308.693l2.7898865 0l0 11.115845l-2.7898865 0z" fill-rule="evenodd"/><path fill="#ffffff" d="m276.72815 308.693l2.7898865 0l0 11.115845l-2.7898865 0z" fill-rule="evenodd"/><path stroke="#c72e49" stroke-width="1.0" stroke-linejoin="round" stroke-linecap="butt" d="m276.72815 308.693l2.7898865 0l0 11.115845l-2.7898865 0z" fill-rule="evenodd"/><path fill="#ffffff" d="m269.02206 308.693l2.7898865 0l0 11.115845l-2.7898865 0z" fill-rule="evenodd"/><path stroke="#c72e49" stroke-width="1.0" stroke-linejoin="round" stroke-linecap="butt" d="m269.02206 308.693l2.7898865 0l0 11.115845l-2.7898865 0z" fill-rule="evenodd"/><path fill="#ffffff" d="m34.520607 334.9818l105.48435 0l0 24.977386l-105.48435 0z" fill-rule="evenodd"/><path stroke="#c72e49" stroke-width="2.0" stroke-linejoin="round" stroke-linecap="butt" d="m34.520607 334.9818l105.48435 0l0 24.977386l-105.48435 0z" fill-rule="evenodd"/><path fill="#ffffff" d="m42.64302 341.9126l2.7898865 0l0 11.115814l-2.7898865 0z" fill-rule="evenodd"/><path stroke="#c72e49" stroke-width="1.0" stroke-linejoin="round" stroke-linecap="butt" d="m42.64302 341.9126l2.7898865 0l0 11.115814l-2.7898865 0z" fill-rule="evenodd"/><path fill="#ffffff" d="m58.055206 341.9126l2.7898903 0l0 11.115814l-2.7898903 0z" fill-rule="evenodd"/><path stroke="#c72e49" stroke-width="1.0" stroke-linejoin="round" stroke-linecap="butt" d="m58.055206 341.9126l2.7898903 0l0 11.115814l-2.7898903 0z" fill-rule="evenodd"/><path fill="#ffffff" d="m50.349113 341.9126l2.7898865 0l0 11.115814l-2.7898865 0z" fill-rule="evenodd"/><path stroke="#c72e49" stroke-width="1.0" stroke-linejoin="round" stroke-linecap="butt" d="m50.349113 341.9126l2.7898865 0l0 11.115814l-2.7898865 0z" fill-rule="evenodd"/><path fill="#ffffff" d="m84.28468 347.4705l0 0c0 -2.494751 2.022316 -4.5171814 4.51696 -4.5171814l0 0c1.1979752 0 2.3468857 0.47592163 3.1939774 1.3230591c0.8470917 0.84713745 1.3229904 1.9960938 1.3229904 3.1941223l0 0c0 2.4947815 -2.022316 4.517212 -4.516968 4.517212l0 0c-2.4946442 0 -4.51696 -2.0224304 -4.51696 -4.517212z" fill-rule="evenodd"/><path stroke="#c72e49" stroke-width="1.0" stroke-linejoin="round" stroke-linecap="butt" d="m84.28468 347.4705l0 0c0 -2.494751 2.022316 -4.5171814 4.51696 -4.5171814l0 0c1.1979752 0 2.3468857 0.47592163 3.1939774 1.3230591c0.8470917 0.84713745 1.3229904 1.9960938 1.3229904 3.1941223l0 0c0 2.4947815 -2.022316 4.517212 -4.516968 4.517212l0 0c-2.4946442 0 -4.51696 -2.0224304 -4.51696 -4.517212z" fill-rule="evenodd"/><path fill="#ffffff" d="m114.98982 341.9126l2.7898865 0l0 11.115814l-2.7898865 0z" fill-rule="evenodd"/><path stroke="#c72e49" stroke-width="1.0" stroke-linejoin="round" stroke-linecap="butt" d="m114.98982 341.9126l2.7898865 0l0 11.115814l-2.7898865 0z" fill-rule="evenodd"/><path fill="#ffffff" d="m130.40201 341.9126l2.7898865 0l0 11.115814l-2.7898865 0z" fill-rule="evenodd"/><path stroke="#c72e49" stroke-width="1.0" stroke-linejoin="round" stroke-linecap="butt" d="m130.40201 341.9126l2.7898865 0l0 11.115814l-2.7898865 0z" fill-rule="evenodd"/><path fill="#ffffff" d="m122.695915 341.9126l2.7898865 0l0 11.115814l-2.7898865 0z" fill-rule="evenodd"/><path stroke="#c72e49" stroke-width="1.0" stroke-linejoin="round" stroke-linecap="butt" d="m122.695915 341.9126l2.7898865 0l0 11.115814l-2.7898865 0z" fill-rule="evenodd"/><path fill="#ffffff" d="m180.84676 334.9818l105.48436 0l0 24.977386l-105.48436 0z" fill-rule="evenodd"/><path stroke="#c72e49" stroke-width="2.0" stroke-linejoin="round" stroke-linecap="butt" d="m180.84676 334.9818l105.48436 0l0 24.977386l-105.48436 0z" fill-rule="evenodd"/><path fill="#ffffff" d="m188.96918 341.9126l2.7898865 0l0 11.115814l-2.7898865 0z" fill-rule="evenodd"/><path stroke="#c72e49" stroke-width="1.0" stroke-linejoin="round" stroke-linecap="butt" d="m188.96918 341.9126l2.7898865 0l0 11.115814l-2.7898865 0z" fill-rule="evenodd"/><path fill="#ffffff" d="m204.38136 341.9126l2.7898865 0l0 11.115814l-2.7898865 0z" fill-rule="evenodd"/><path stroke="#c72e49" stroke-width="1.0" stroke-linejoin="round" stroke-linecap="butt" d="m204.38136 341.9126l2.7898865 0l0 11.115814l-2.7898865 0z" fill-rule="evenodd"/><path fill="#ffffff" d="m196.67526 341.9126l2.7898865 0l0 11.115814l-2.7898865 0z" fill-rule="evenodd"/><path stroke="#c72e49" stroke-width="1.0" stroke-linejoin="round" stroke-linecap="butt" d="m196.67526 341.9126l2.7898865 0l0 11.115814l-2.7898865 0z" fill-rule="evenodd"/><path fill="#ffffff" d="m230.61084 347.4705l0 0c0 -2.494751 2.0223083 -4.5171814 4.5169525 -4.5171814l0 0c1.1979828 0 2.3468933 0.47592163 3.193985 1.3230591c0.8470917 0.84713745 1.3229828 1.9960938 1.3229828 3.1941223l0 0c0 2.4947815 -2.0223083 4.517212 -4.516968 4.517212l0 0c-2.4946442 0 -4.5169525 -2.0224304 -4.5169525 -4.517212z" fill-rule="evenodd"/><path stroke="#c72e49" stroke-width="1.0" stroke-linejoin="round" stroke-linecap="butt" d="m230.61084 347.4705l0 0c0 -2.494751 2.0223083 -4.5171814 4.5169525 -4.5171814l0 0c1.1979828 0 2.3468933 0.47592163 3.193985 1.3230591c0.8470917 0.84713745 1.3229828 1.9960938 1.3229828 3.1941223l0 0c0 2.4947815 -2.0223083 4.517212 -4.516968 4.517212l0 0c-2.4946442 0 -4.5169525 -2.0224304 -4.5169525 -4.517212z" fill-rule="evenodd"/><path fill="#ffffff" d="m261.31598 341.9126l2.7898865 0l0 11.115814l-2.7898865 0z" fill-rule="evenodd"/><path stroke="#c72e49" stroke-width="1.0" stroke-linejoin="round" stroke-linecap="butt" d="m261.31598 341.9126l2.7898865 0l0 11.115814l-2.7898865 0z" fill-rule="evenodd"/><path fill="#ffffff" d="m276.72818 341.9126l2.7898865 0l0 11.115814l-2.7898865 0z" fill-rule="evenodd"/><path stroke="#c72e49" stroke-width="1.0" stroke-linejoin="round" stroke-linecap="butt" d="m276.72818 341.9126l2.7898865 0l0 11.115814l-2.7898865 0z" fill-rule="evenodd"/><path fill="#ffffff" d="m269.02206 341.9126l2.7898865 0l0 11.115814l-2.7898865 0z" fill-rule="evenodd"/><path stroke="#c72e49" stroke-width="1.0" stroke-linejoin="round" stroke-linecap="butt" d="m269.02206 341.9126l2.7898865 0l0 11.115814l-2.7898865 0z" fill-rule="evenodd"/><path fill="#000000" fill-opacity="0.0" d="m18.989502 371.66864l287.1181 0l0 42.015747l-287.1181 0z" fill-rule="evenodd"/><path fill="#ffffff" d="m31.954803 380.66864l261.1875 0l0 22.399994l-261.1875 0l0 -22.399994z" fill-rule="nonzero"/><path fill="#000000" fill-opacity="0.0" d="m31.954803 382.5629l261.1875 0l0 19.570435l-261.1875 0l0 -19.570435z" fill-rule="nonzero"/><path fill="#000000" d="m33.31418 386.18237l1.296875 0l0.171875 0l0 0.125q-0.109375 0.125 -0.140625 0.25q-0.015625 0.125 -0.015625 0.453125l0 4.5625q0.328125 -0.515625 0.78125 -0.890625q0.46875 -0.390625 0.96875 -0.609375q0.515625 -0.21875 1.046875 -0.21875q0.765625 0 1.34375 0.359375q0.59375 0.359375 0.921875 1.140625q0.328125 0.78125 0.328125 2.0625l0 5.171875l-1.3125 0l0 -5.125q0 -0.90625 -0.203125 -1.4375q-0.203125 -0.53125 -0.5625 -0.765625q-0.34375 -0.234375 -0.796875 -0.234375q-0.34375 0 -0.703125 0.125q-0.34375 0.109375 -0.671875 0.328125q-0.328125 0.21875 -0.59375 0.546875q-0.25 0.328125 -0.40625 0.75q-0.140625 0.40625 -0.140625 0.90625l0 4.90625l-1.3125 0l0 -12.40625zm13.546875 12.53125q-0.828125 0 -1.34375 -0.265625q-0.515625 -0.28125 -0.796875 -0.875q-0.28125 -0.59375 -0.375 -1.484375q-0.078125 -0.890625 -0.046875 -2.125l0.234375 -6.078125l1.390625 -0.171875l0.1875 -0.015625l0.015625 0.125q-0.09375 0.125 -0.15625 0.265625q-0.0625 0.125 -0.09375 0.4375l-0.171875 2.109375l0.0625 0.34375l-0.140625 3.078125q-0.046875 1.421875 0.078125 2.203125q0.125 0.765625 0.453125 1.0625q0.34375 0.28125 0.90625 0.28125q0.625 0 1.09375 -0.234375q0.46875 -0.25 1.0 -0.625l0.40625 1.0625q-0.625 0.46875 -1.296875 0.6875q-0.671875 0.21875 -1.40625 0.21875l0 0zm-4.265625 -8.65625l6.125 0l0 1.109375l-6.125 0l0 -1.109375zm13.59375 8.65625q-0.828125 0 -1.34375 -0.265625q-0.515625 -0.28125 -0.796875 -0.875q-0.28125 -0.59375 -0.375 -1.484375q-0.078125 -0.890625 -0.046875 -2.125l0.234375 -6.078125l1.390625 -0.171875l0.1875 -0.015625l0.015625 0.125q-0.09375 0.125 -0.15625 0.265625q-0.0625 0.125 -0.09375 0.4375l-0.171875 2.109375l0.0625 0.34375l-0.140625 3.078125q-0.046875 1.421875 0.078125 2.203125q0.125 0.765625 0.453125 1.0625q0.34375 0.28125 0.90625 0.28125q0.625 0 1.09375 -0.234375q0.46875 -0.25 1.0 -0.625l0.40625 1.0625q-0.625 0.46875 -1.296875 0.6875q-0.671875 0.21875 -1.40625 0.21875l0 0zm-4.265625 -8.65625l6.125 0l0 1.109375l-6.125 0l0 -1.109375zm9.140625 11.640625l0 -11.640625l1.359375 0l0 1.6875q0.203125 -0.65625 0.578125 -1.0625q0.390625 -0.421875 0.90625 -0.609375q0.515625 -0.203125 1.109375 -0.203125q0.703125 0 1.34375 0.28125q0.65625 0.265625 1.140625 0.8125q0.5 0.53125 0.78125 1.359375q0.296875 0.8125 0.296875 1.9375q0 1.125 -0.3125 1.984375q-0.3125 0.84375 -0.828125 1.421875q-0.5 0.5625 -1.15625 0.859375q-0.640625 0.28125 -1.3125 0.28125q-0.5 0 -0.984375 -0.15625q-0.46875 -0.15625 -0.859375 -0.453125q-0.390625 -0.3125 -0.6875 -0.734375l0 4.234375l-1.375 0zm3.6875 -4.078125q0.453125 0 0.875 -0.15625q0.4375 -0.15625 0.78125 -0.53125q0.359375 -0.375 0.5625 -1.015625q0.203125 -0.65625 0.203125 -1.59375q0 -1.03125 -0.265625 -1.75q-0.25 -0.71875 -0.75 -1.109375q-0.484375 -0.390625 -1.203125 -0.4375q-0.515625 -0.03125 -0.984375 0.15625q-0.453125 0.1875 -0.8125 0.625q-0.34375 0.421875 -0.546875 1.125q-0.1875 0.6875 -0.1875 1.6875q0.015625 0.59375 0.125 1.078125q0.109375 0.484375 0.3125 0.859375q0.21875 0.359375 0.484375 0.59375q0.28125 0.21875 0.640625 0.34375q0.359375 0.125 0.765625 0.125zm9.203125 1.15625q-0.71875 0 -1.359375 -0.15625q-0.640625 -0.140625 -1.21875 -0.4375q-0.5625 -0.296875 -1.046875 -0.75l0.75 -1.265625l0.109375 -0.171875l0.109375 0.078125q0.046875 0.140625 0.09375 0.3125q0.046875 0.15625 0.25 0.375q0.390625 0.390625 0.9375 0.640625q0.546875 0.25 1.40625 0.25q0.6875 0 1.15625 -0.15625q0.484375 -0.171875 0.75 -0.484375q0.265625 -0.3125 0.265625 -0.71875q0 -0.28125 -0.125 -0.484375q-0.109375 -0.21875 -0.359375 -0.40625q-0.25 -0.1875 -0.671875 -0.375q-0.40625 -0.1875 -1.0 -0.375q-0.96875 -0.28125 -1.703125 -0.65625q-0.71875 -0.375 -1.109375 -0.859375q-0.390625 -0.5 -0.390625 -1.125q0 -0.65625 0.34375 -1.125q0.359375 -0.484375 1.0625 -0.75q0.703125 -0.28125 1.734375 -0.28125q0.59375 0 1.078125 0.09375q0.484375 0.078125 0.890625 0.25q0.40625 0.15625 0.75 0.421875q0.359375 0.25 0.671875 0.578125l-0.765625 0.9375l-0.140625 0.140625l-0.078125 -0.09375q-0.03125 -0.140625 -0.09375 -0.28125q-0.0625 -0.140625 -0.265625 -0.34375q-0.4375 -0.34375 -0.984375 -0.515625q-0.53125 -0.171875 -1.03125 -0.171875q-0.75 0 -1.296875 0.265625q-0.53125 0.25 -0.53125 0.796875q0 0.28125 0.1875 0.546875q0.203125 0.265625 0.71875 0.546875q0.53125 0.265625 1.5 0.546875q1.0625 0.328125 1.703125 0.671875q0.640625 0.34375 0.921875 0.796875q0.296875 0.453125 0.296875 1.0625q0 0.71875 -0.390625 1.328125q-0.375 0.609375 -1.15625 0.984375q-0.78125 0.359375 -1.96875 0.359375l0 0zm9.078125 -5.9375q-0.421875 0 -0.765625 -0.3125q-0.328125 -0.3125 -0.328125 -0.75q0 -0.4375 0.328125 -0.75q0.34375 -0.328125 0.765625 -0.328125q0.4375 0 0.78125 0.328125q0.34375 0.3125 0.34375 0.75q0 0.4375 -0.34375 0.75q-0.328125 0.3125 -0.78125 0.3125zm0 5.953125q-0.46875 0 -0.78125 -0.296875q-0.3125 -0.3125 -0.3125 -0.765625q0 -0.453125 0.328125 -0.765625q0.34375 -0.3125 0.765625 -0.3125q0.4375 0 0.78125 0.3125q0.34375 0.3125 0.34375 0.765625q0 0.4375 -0.328125 0.75q-0.328125 0.3125 -0.796875 0.3125zm7.1875 0.578125l-1.109375 -0.53125l5.84375 -12.65625l1.125 0.578125l-5.859375 12.609375zm9.328125 0l-1.109375 -0.53125l5.84375 -12.65625l1.125 0.578125l-5.859375 12.609375zm7.734375 -0.78125l0 -8.53125l1.234375 0l0 0.84375q0.203125 -0.3125 0.46875 -0.546875q0.28125 -0.234375 0.609375 -0.359375q0.328125 -0.140625 0.65625 -0.140625q0.375 0 0.6875 0.171875q0.328125 0.15625 0.53125 0.4375q0.21875 0.265625 0.296875 0.640625q0.171875 -0.375 0.453125 -0.640625q0.296875 -0.28125 0.671875 -0.4375q0.390625 -0.171875 0.796875 -0.171875q0.421875 0 0.734375 0.171875q0.328125 0.171875 0.53125 0.46875q0.203125 0.28125 0.296875 0.6875q0.09375 0.390625 0.078125 0.859375l0 6.546875l-1.234375 0l0 -6.046875q0 -0.78125 -0.109375 -1.125q-0.09375 -0.359375 -0.28125 -0.46875q-0.1875 -0.109375 -0.40625 -0.109375q-0.359375 0 -0.671875 0.328125q-0.296875 0.328125 -0.5 0.8125q-0.1875 0.484375 -0.1875 0.96875l0 5.640625l-1.25 0l0 -5.9375q0 -1.0625 -0.203125 -1.40625q-0.1875 -0.359375 -0.734375 -0.359375q-0.203125 0 -0.421875 0.140625q-0.21875 0.140625 -0.40625 0.390625q-0.171875 0.25 -0.296875 0.625q-0.109375 0.375 -0.109375 0.859375l0 5.6875l-1.234375 0zm10.484375 0l0 -1.078125l2.1875 0l0 -6.359375l-2.0625 0l0 -1.09375l3.40625 0l0 7.453125l2.0 0l0 1.078125l-5.53125 0zm2.78125 -10.3125q-0.390625 0 -0.671875 -0.28125q-0.28125 -0.28125 -0.28125 -0.671875q0 -0.40625 0.265625 -0.6875q0.28125 -0.28125 0.6875 -0.28125q0.390625 0 0.671875 0.296875q0.296875 0.28125 0.296875 0.671875q0 0.390625 -0.296875 0.671875q-0.28125 0.28125 -0.671875 0.28125zm6.03125 10.3125l0 -8.53125l1.3125 0l0 1.515625q0.328125 -0.515625 0.765625 -0.890625q0.453125 -0.390625 1.0 -0.609375q0.546875 -0.21875 1.125 -0.21875q0.703125 0 1.265625 0.359375q0.5625 0.359375 0.890625 1.140625q0.34375 0.78125 0.34375 2.0625l0 5.171875l-1.3125 0l0 -5.125q0 -0.90625 -0.203125 -1.4375q-0.203125 -0.53125 -0.5625 -0.765625q-0.359375 -0.234375 -0.796875 -0.234375q-0.4375 0 -0.875 0.1875q-0.4375 0.1875 -0.8125 0.53125q-0.375 0.34375 -0.609375 0.84375q-0.21875 0.484375 -0.21875 1.09375l0 4.90625l-1.3125 0zm9.84375 0l0 -1.078125l2.1875 0l0 -6.359375l-2.0625 0l0 -1.09375l3.40625 0l0 7.453125l2.0 0l0 1.078125l-5.53125 0zm2.78125 -10.3125q-0.390625 0 -0.671875 -0.28125q-0.28125 -0.28125 -0.28125 -0.671875q0 -0.40625 0.265625 -0.6875q0.28125 -0.28125 0.6875 -0.28125q0.390625 0 0.671875 0.296875q0.296875 0.28125 0.296875 0.671875q0 0.390625 -0.296875 0.671875q-0.28125 0.28125 -0.671875 0.28125zm9.359375 10.46875q-1.171875 0 -2.0625 -0.5625q-0.875 -0.578125 -1.375 -1.578125q-0.5 -1.0 -0.5 -2.28125q0 -1.3125 0.5 -2.3125q0.5 -1.0 1.375 -1.5625q0.890625 -0.578125 2.0625 -0.578125q1.15625 0 2.03125 0.578125q0.890625 0.5625 1.390625 1.5625q0.5 1.0 0.5 2.3125q0 1.28125 -0.5 2.28125q-0.5 1.0 -1.390625 1.578125q-0.875 0.5625 -2.03125 0.5625zm0 -1.125q0.734375 0 1.296875 -0.421875q0.5625 -0.4375 0.890625 -1.1875q0.328125 -0.75 0.328125 -1.71875q0 -0.96875 -0.328125 -1.703125q-0.328125 -0.75 -0.890625 -1.171875q-0.5625 -0.421875 -1.296875 -0.421875q-0.734375 0 -1.3125 0.421875q-0.5625 0.421875 -0.890625 1.171875q-0.328125 0.734375 -0.328125 1.703125q0 0.96875 0.328125 1.71875q0.328125 0.75 0.890625 1.1875q0.578125 0.421875 1.3125 0.421875zm6.734375 -4.28125l0 -1.25l5.21875 0l0 1.25l-5.21875 0zm9.25 2.375l4.984375 -6.390625l0.421875 0.875l-4.984375 6.3125l-0.421875 -0.796875zm2.671875 3.078125q-1.171875 0 -1.96875 -0.6875q-0.796875 -0.6875 -1.21875 -2.015625q-0.421875 -1.34375 -0.421875 -3.25q0 -1.84375 0.421875 -3.171875q0.421875 -1.34375 1.21875 -2.0625q0.796875 -0.71875 1.96875 -0.71875q1.15625 0 1.953125 0.71875q0.796875 0.71875 1.21875 2.0625q0.421875 1.328125 0.421875 3.171875q0 1.90625 -0.421875 3.25q-0.421875 1.328125 -1.21875 2.015625q-0.796875 0.6875 -1.953125 0.6875zm0 -1.140625q0.703125 0 1.203125 -0.546875q0.5 -0.5625 0.765625 -1.640625q0.28125 -1.078125 0.28125 -2.625q0 -1.46875 -0.28125 -2.53125q-0.265625 -1.078125 -0.765625 -1.671875q-0.5 -0.609375 -1.203125 -0.609375q-0.71875 0 -1.21875 0.609375q-0.5 0.59375 -0.78125 1.671875q-0.265625 1.0625 -0.265625 2.53125q0 1.546875 0.265625 2.625q0.28125 1.078125 0.78125 1.640625q0.5 0.546875 1.21875 0.546875zm8.953125 0.9375l0 -10.015625l-2.359375 0.6875l-0.296875 -0.734375l3.046875 -1.578125l0.90625 0l0 11.640625l-1.296875 0zm9.46875 0.203125q-0.4375 0 -0.765625 -0.3125q-0.3125 -0.3125 -0.3125 -0.75q0 -0.421875 0.3125 -0.734375q0.328125 -0.328125 0.765625 -0.328125q0.4375 0 0.75 0.328125q0.3125 0.3125 0.3125 0.734375q0 0.4375 -0.3125 0.75q-0.3125 0.3125 -0.75 0.3125zm9.96875 -0.015625q-0.9375 0 -1.703125 -0.28125q-0.765625 -0.296875 -1.3125 -0.859375q-0.546875 -0.5625 -0.84375 -1.390625q-0.296875 -0.828125 -0.296875 -1.890625q0 -1.078125 0.296875 -1.921875q0.3125 -0.84375 0.84375 -1.40625q0.53125 -0.578125 1.25 -0.875q0.71875 -0.296875 1.515625 -0.296875q0.734375 0 1.359375 0.25q0.640625 0.234375 1.109375 0.734375q0.46875 0.5 0.734375 1.265625q0.265625 0.75 0.265625 1.796875q0 0.15625 -0.015625 0.3125q0 0.15625 -0.015625 0.3125l-6.0625 0q0.03125 0.8125 0.265625 1.421875q0.25 0.609375 0.640625 1.0q0.390625 0.375 0.90625 0.5625q0.515625 0.1875 1.09375 0.1875q0.453125 0 0.84375 -0.09375q0.390625 -0.109375 0.734375 -0.328125q0.34375 -0.21875 0.625 -0.53125l0.75 0.71875q-0.359375 0.4375 -0.8125 0.734375q-0.453125 0.296875 -1.0 0.4375q-0.546875 0.140625 -1.171875 0.140625zm-2.828125 -5.296875l4.6875 0q0 -0.59375 -0.15625 -1.0625q-0.15625 -0.484375 -0.453125 -0.828125q-0.28125 -0.34375 -0.6875 -0.515625q-0.390625 -0.1875 -0.90625 -0.1875q-0.4375 0 -0.84375 0.15625q-0.40625 0.140625 -0.75 0.46875q-0.328125 0.328125 -0.5625 0.8125q-0.234375 0.484375 -0.328125 1.15625zm7.953125 5.109375l3.0 -4.328125l-2.9375 -4.203125l1.46875 0l2.21875 3.15625l2.125 -3.15625l1.390625 0l-2.765625 4.140625l3.125 4.390625l-1.515625 0l-2.359375 -3.328125l-2.21875 3.328125l-1.53125 0zm12.390625 0.203125q-1.453125 0 -2.234375 -0.65625q-0.78125 -0.671875 -0.78125 -1.6875q0 -0.6875 0.328125 -1.234375q0.328125 -0.5625 0.921875 -0.9375q0.59375 -0.390625 1.375 -0.59375q0.78125 -0.203125 1.65625 -0.203125q0.3125 0 0.640625 0.015625q0.328125 0 0.6875 0.03125q0.375 0.03125 0.765625 0.078125l0.03125 1.03125q-0.328125 -0.0625 -0.671875 -0.078125q-0.34375 -0.03125 -0.6875 -0.046875q-0.328125 -0.03125 -0.65625 -0.03125q-0.671875 0 -1.234375 0.125q-0.546875 0.109375 -0.96875 0.328125q-0.40625 0.21875 -0.640625 0.578125q-0.21875 0.359375 -0.21875 0.859375q0 0.390625 0.140625 0.671875q0.140625 0.265625 0.375 0.421875q0.25 0.15625 0.578125 0.234375q0.328125 0.0625 0.71875 0.0625q0.734375 0 1.296875 -0.21875q0.578125 -0.234375 0.96875 -0.6875q0.40625 -0.453125 0.609375 -1.09375q0.203125 -0.65625 0.203125 -1.5q0 -1.265625 -0.296875 -1.96875q-0.296875 -0.71875 -0.890625 -1.015625q-0.578125 -0.296875 -1.5 -0.296875q-0.609375 0 -1.203125 0.234375q-0.59375 0.234375 -1.078125 0.71875l-0.65625 -0.859375q0.59375 -0.59375 1.375 -0.890625q0.78125 -0.3125 1.65625 -0.3125q0.84375 0 1.53125 0.21875q0.6875 0.203125 1.1875 0.6875q0.5 0.46875 0.765625 1.265625q0.265625 0.796875 0.265625 2.015625l0 4.53125l-1.453125 0l0 -1.3125q-0.234375 0.46875 -0.59375 0.765625q-0.34375 0.296875 -0.734375 0.46875q-0.390625 0.15625 -0.796875 0.21875q-0.40625 0.0625 -0.78125 0.0625zm6.09375 -0.203125l0 -8.53125l1.234375 0l0 0.84375q0.203125 -0.3125 0.46875 -0.546875q0.28125 -0.234375 0.609375 -0.359375q0.328125 -0.140625 0.65625 -0.140625q0.375 0 0.6875 0.171875q0.328125 0.15625 0.53125 0.4375q0.21875 0.265625 0.296875 0.640625q0.171875 -0.375 0.453125 -0.640625q0.296875 -0.28125 0.671875 -0.4375q0.390625 -0.171875 0.796875 -0.171875q0.421875 0 0.734375 0.171875q0.328125 0.171875 0.53125 0.46875q0.203125 0.28125 0.296875 0.6875q0.09375 0.390625 0.078125 0.859375l0 6.546875l-1.234375 0l0 -6.046875q0 -0.78125 -0.109375 -1.125q-0.09375 -0.359375 -0.28125 -0.46875q-0.1875 -0.109375 -0.40625 -0.109375q-0.359375 0 -0.671875 0.328125q-0.296875 0.328125 -0.5 0.8125q-0.1875 0.484375 -0.1875 0.96875l0 5.640625l-1.25 0l0 -5.9375q0 -1.0625 -0.203125 -1.40625q-0.1875 -0.359375 -0.734375 -0.359375q-0.203125 0 -0.421875 0.140625q-0.21875 0.140625 -0.40625 0.390625q-0.171875 0.25 -0.296875 0.625q-0.109375 0.375 -0.109375 0.859375l0 5.6875l-1.234375 0zm9.75 3.109375l0 -11.640625l1.359375 0l0 1.6875q0.203125 -0.65625 0.578125 -1.0625q0.390625 -0.421875 0.90625 -0.609375q0.515625 -0.203125 1.109375 -0.203125q0.703125 0 1.34375 0.28125q0.65625 0.265625 1.140625 0.8125q0.5 0.53125 0.78125 1.359375q0.296875 0.8125 0.296875 1.9375q0 1.125 -0.3125 1.984375q-0.3125 0.84375 -0.828125 1.421875q-0.5 0.5625 -1.15625 0.859375q-0.640625 0.28125 -1.3125 0.28125q-0.5 0 -0.984375 -0.15625q-0.46875 -0.15625 -0.859375 -0.453125q-0.390625 -0.3125 -0.6875 -0.734375l0 4.234375l-1.375 0zm3.6875 -4.078125q0.453125 0 0.875 -0.15625q0.4375 -0.15625 0.78125 -0.53125q0.359375 -0.375 0.5625 -1.015625q0.203125 -0.65625 0.203125 -1.59375q0 -1.03125 -0.265625 -1.75q-0.25 -0.71875 -0.75 -1.109375q-0.484375 -0.390625 -1.203125 -0.4375q-0.515625 -0.03125 -0.984375 0.15625q-0.453125 0.1875 -0.8125 0.625q-0.34375 0.421875 -0.546875 1.125q-0.1875 0.6875 -0.1875 1.6875q0.015625 0.59375 0.125 1.078125q0.109375 0.484375 0.3125 0.859375q0.21875 0.359375 0.484375 0.59375q0.28125 0.21875 0.640625 0.34375q0.359375 0.125 0.765625 0.125zm5.984375 0.96875l0 -1.078125l2.53125 0l0 -10.25l-2.421875 0l0 -1.078125l3.78125 0l0 11.328125l2.5 0l0 1.078125l-6.390625 0zm12.9375 0.1875q-0.9375 0 -1.703125 -0.28125q-0.765625 -0.296875 -1.3125 -0.859375q-0.546875 -0.5625 -0.84375 -1.390625q-0.296875 -0.828125 -0.296875 -1.890625q0 -1.078125 0.296875 -1.921875q0.3125 -0.84375 0.84375 -1.40625q0.53125 -0.578125 1.25 -0.875q0.71875 -0.296875 1.515625 -0.296875q0.734375 0 1.359375 0.25q0.640625 0.234375 1.109375 0.734375q0.46875 0.5 0.734375 1.265625q0.265625 0.75 0.265625 1.796875q0 0.15625 -0.015625 0.3125q0 0.15625 -0.015625 0.3125l-6.0625 0q0.03125 0.8125 0.265625 1.421875q0.25 0.609375 0.640625 1.0q0.390625 0.375 0.90625 0.5625q0.515625 0.1875 1.09375 0.1875q0.453125 0 0.84375 -0.09375q0.390625 -0.109375 0.734375 -0.328125q0.34375 -0.21875 0.625 -0.53125l0.75 0.71875q-0.359375 0.4375 -0.8125 0.734375q-0.453125 0.296875 -1.0 0.4375q-0.546875 0.140625 -1.171875 0.140625zm-2.828125 -5.296875l4.6875 0q0 -0.59375 -0.15625 -1.0625q-0.15625 -0.484375 -0.453125 -0.828125q-0.28125 -0.34375 -0.6875 -0.515625q-0.390625 -0.1875 -0.90625 -0.1875q-0.4375 0 -0.84375 0.15625q-0.40625 0.140625 -0.75 0.46875q-0.328125 0.328125 -0.5625 0.8125q-0.234375 0.484375 -0.328125 1.15625zm11.515625 5.3125q-0.4375 0 -0.765625 -0.3125q-0.3125 -0.3125 -0.3125 -0.75q0 -0.421875 0.3125 -0.734375q0.328125 -0.328125 0.765625 -0.328125q0.4375 0 0.75 0.328125q0.3125 0.3125 0.3125 0.734375q0 0.4375 -0.3125 0.75q-0.3125 0.3125 -0.75 0.3125zm6.234375 -0.203125l0 -8.53125l1.3125 0l0 1.515625q0.328125 -0.515625 0.765625 -0.890625q0.453125 -0.390625 1.0 -0.609375q0.546875 -0.21875 1.125 -0.21875q0.703125 0 1.265625 0.359375q0.5625 0.359375 0.890625 1.140625q0.34375 0.78125 0.34375 2.0625l0 5.171875l-1.3125 0l0 -5.125q0 -0.90625 -0.203125 -1.4375q-0.203125 -0.53125 -0.5625 -0.765625q-0.359375 -0.234375 -0.796875 -0.234375q-0.4375 0 -0.875 0.1875q-0.4375 0.1875 -0.8125 0.53125q-0.375 0.34375 -0.609375 0.84375q-0.21875 0.484375 -0.21875 1.09375l0 4.90625l-1.3125 0zm13.0625 0.1875q-0.9375 0 -1.703125 -0.28125q-0.765625 -0.296875 -1.3125 -0.859375q-0.546875 -0.5625 -0.84375 -1.390625q-0.296875 -0.828125 -0.296875 -1.890625q0 -1.078125 0.296875 -1.921875q0.3125 -0.84375 0.84375 -1.40625q0.53125 -0.578125 1.25 -0.875q0.71875 -0.296875 1.515625 -0.296875q0.734375 0 1.359375 0.25q0.640625 0.234375 1.109375 0.734375q0.46875 0.5 0.734375 1.265625q0.265625 0.75 0.265625 1.796875q0 0.15625 -0.015625 0.3125q0 0.15625 -0.015625 0.3125l-6.0625 0q0.03125 0.8125 0.265625 1.421875q0.25 0.609375 0.640625 1.0q0.390625 0.375 0.90625 0.5625q0.515625 0.1875 1.09375 0.1875q0.453125 0 0.84375 -0.09375q0.390625 -0.109375 0.734375 -0.328125q0.34375 -0.21875 0.625 -0.53125l0.75 0.71875q-0.359375 0.4375 -0.8125 0.734375q-0.453125 0.296875 -1.0 0.4375q-0.546875 0.140625 -1.171875 0.140625zm-2.828125 -5.296875l4.6875 0q0 -0.59375 -0.15625 -1.0625q-0.15625 -0.484375 -0.453125 -0.828125q-0.28125 -0.34375 -0.6875 -0.515625q-0.390625 -0.1875 -0.90625 -0.1875q-0.4375 0 -0.84375 0.15625q-0.40625 0.140625 -0.75 0.46875q-0.328125 0.328125 -0.5625 0.8125q-0.234375 0.484375 -0.328125 1.15625zm12.65625 5.234375q-0.828125 0 -1.34375 -0.265625q-0.515625 -0.28125 -0.796875 -0.875q-0.28125 -0.59375 -0.375 -1.484375q-0.078125 -0.890625 -0.046875 -2.125l0.234375 -6.078125l1.390625 -0.171875l0.1875 -0.015625l0.015625 0.125q-0.09375 0.125 -0.15625 0.265625q-0.0625 0.125 -0.09375 0.4375l-0.171875 2.109375l0.0625 0.34375l-0.140625 3.078125q-0.046875 1.421875 0.078125 2.203125q0.125 0.765625 0.453125 1.0625q0.34375 0.28125 0.90625 0.28125q0.625 0 1.09375 -0.234375q0.46875 -0.25 1.0 -0.625l0.40625 1.0625q-0.625 0.46875 -1.296875 0.6875q-0.671875 0.21875 -1.40625 0.21875l0 0zm-4.265625 -8.65625l6.125 0l0 1.109375l-6.125 0l0 -1.109375z" fill-rule="nonzero"/><path fill="#000000" fill-opacity="0.0" d="m293.1423 382.5629l0 0l0 19.570435l0 0l0 -19.570435z" fill-rule="nonzero"/><path fill="#edf7f7" d="m653.8925 291.3245l287.11664 0l0 80.34305l-287.11664 0z" fill-rule="evenodd"/><path stroke="#c72e49" stroke-width="2.0" stroke-linejoin="round" stroke-linecap="butt" d="m653.8925 291.3245l287.11664 0l0 80.34305l-287.11664 0z" fill-rule="evenodd"/><path fill="#ffffff" d="m669.4235 301.7622l105.484314 0l0 24.977386l-105.484314 0z" fill-rule="evenodd"/><path stroke="#c72e49" stroke-width="2.0" stroke-linejoin="round" stroke-linecap="butt" d="m669.4235 301.7622l105.484314 0l0 24.977386l-105.484314 0z" fill-rule="evenodd"/><path fill="#ffffff" d="m677.5459 308.693l2.789917 0l0 11.115814l-2.789917 0z" fill-rule="evenodd"/><path stroke="#c72e49" stroke-width="1.0" stroke-linejoin="round" stroke-linecap="butt" d="m677.5459 308.693l2.789917 0l0 11.115814l-2.789917 0z" fill-rule="evenodd"/><path fill="#ffffff" d="m692.95807 308.693l2.789917 0l0 11.115814l-2.789917 0z" fill-rule="evenodd"/><path stroke="#c72e49" stroke-width="1.0" stroke-linejoin="round" stroke-linecap="butt" d="m692.95807 308.693l2.789917 0l0 11.115814l-2.789917 0z" fill-rule="evenodd"/><path fill="#ffffff" d="m685.252 308.693l2.789856 0l0 11.115814l-2.789856 0z" fill-rule="evenodd"/><path stroke="#c72e49" stroke-width="1.0" stroke-linejoin="round" stroke-linecap="butt" d="m685.252 308.693l2.789856 0l0 11.115814l-2.789856 0z" fill-rule="evenodd"/><path fill="#ffffff" d="m719.18756 314.2509l0 0c0 -2.494751 2.0223389 -4.5171814 4.516968 -4.5171814l0 0c1.197998 0 2.3468628 0.47592163 3.1939697 1.3230591c0.84710693 0.84713745 1.322998 1.9960938 1.322998 3.1941223l0 0c0 2.4947815 -2.0223389 4.517212 -4.516968 4.517212l0 0c-2.494629 0 -4.516968 -2.0224304 -4.516968 -4.517212z" fill-rule="evenodd"/><path stroke="#c72e49" stroke-width="1.0" stroke-linejoin="round" stroke-linecap="butt" d="m719.18756 314.2509l0 0c0 -2.494751 2.0223389 -4.5171814 4.516968 -4.5171814l0 0c1.197998 0 2.3468628 0.47592163 3.1939697 1.3230591c0.84710693 0.84713745 1.322998 1.9960938 1.322998 3.1941223l0 0c0 2.4947815 -2.0223389 4.517212 -4.516968 4.517212l0 0c-2.494629 0 -4.516968 -2.0224304 -4.516968 -4.517212z" fill-rule="evenodd"/><path fill="#ffffff" d="m749.8927 308.693l2.789917 0l0 11.115814l-2.789917 0z" fill-rule="evenodd"/><path stroke="#c72e49" stroke-width="1.0" stroke-linejoin="round" stroke-linecap="butt" d="m749.8927 308.693l2.789917 0l0 11.115814l-2.789917 0z" fill-rule="evenodd"/><path fill="#ffffff" d="m765.3049 308.693l2.789917 0l0 11.115814l-2.789917 0z" fill-rule="evenodd"/><path stroke="#c72e49" stroke-width="1.0" stroke-linejoin="round" stroke-linecap="butt" d="m765.3049 308.693l2.789917 0l0 11.115814l-2.789917 0z" fill-rule="evenodd"/><path fill="#ffffff" d="m757.5988 308.693l2.789856 0l0 11.115814l-2.789856 0z" fill-rule="evenodd"/><path stroke="#c72e49" stroke-width="1.0" stroke-linejoin="round" stroke-linecap="butt" d="m757.5988 308.693l2.789856 0l0 11.115814l-2.789856 0z" fill-rule="evenodd"/><path fill="#ffffff" d="m815.74963 301.76224l105.484314 0l0 24.977386l-105.484314 0z" fill-rule="evenodd"/><path stroke="#c72e49" stroke-width="2.0" stroke-linejoin="round" stroke-linecap="butt" d="m815.74963 301.76224l105.484314 0l0 24.977386l-105.484314 0z" fill-rule="evenodd"/><path fill="#ffffff" d="m823.8721 308.693l2.789856 0l0 11.115845l-2.789856 0z" fill-rule="evenodd"/><path stroke="#c72e49" stroke-width="1.0" stroke-linejoin="round" stroke-linecap="butt" d="m823.8721 308.693l2.789856 0l0 11.115845l-2.789856 0z" fill-rule="evenodd"/><path fill="#ffffff" d="m839.28424 308.693l2.789856 0l0 11.115845l-2.789856 0z" fill-rule="evenodd"/><path stroke="#c72e49" stroke-width="1.0" stroke-linejoin="round" stroke-linecap="butt" d="m839.28424 308.693l2.789856 0l0 11.115845l-2.789856 0z" fill-rule="evenodd"/><path fill="#ffffff" d="m831.5781 308.693l2.789917 0l0 11.115845l-2.789917 0z" fill-rule="evenodd"/><path stroke="#c72e49" stroke-width="1.0" stroke-linejoin="round" stroke-linecap="butt" d="m831.5781 308.693l2.789917 0l0 11.115845l-2.789917 0z" fill-rule="evenodd"/><path fill="#ffffff" d="m865.51373 314.25092l0 0c0 -2.4947815 2.0222778 -4.5171814 4.5169067 -4.5171814l0 0c1.197998 0 2.3469238 0.47592163 3.1940308 1.3230591c0.8470459 0.84713745 1.322937 1.9960938 1.322937 3.1941223l0 0c0 2.4947815 -2.0222778 4.5171814 -4.516968 4.5171814l0 0c-2.494629 0 -4.5169067 -2.0224 -4.5169067 -4.5171814z" fill-rule="evenodd"/><path stroke="#c72e49" stroke-width="1.0" stroke-linejoin="round" stroke-linecap="butt" d="m865.51373 314.25092l0 0c0 -2.4947815 2.0222778 -4.5171814 4.5169067 -4.5171814l0 0c1.197998 0 2.3469238 0.47592163 3.1940308 1.3230591c0.8470459 0.84713745 1.322937 1.9960938 1.322937 3.1941223l0 0c0 2.4947815 -2.0222778 4.5171814 -4.516968 4.5171814l0 0c-2.494629 0 -4.5169067 -2.0224 -4.5169067 -4.5171814z" fill-rule="evenodd"/><path fill="#ffffff" d="m896.2189 308.693l2.789856 0l0 11.115845l-2.789856 0z" fill-rule="evenodd"/><path stroke="#c72e49" stroke-width="1.0" stroke-linejoin="round" stroke-linecap="butt" d="m896.2189 308.693l2.789856 0l0 11.115845l-2.789856 0z" fill-rule="evenodd"/><path fill="#ffffff" d="m911.63104 308.693l2.789856 0l0 11.115845l-2.789856 0z" fill-rule="evenodd"/><path stroke="#c72e49" stroke-width="1.0" stroke-linejoin="round" stroke-linecap="butt" d="m911.63104 308.693l2.789856 0l0 11.115845l-2.789856 0z" fill-rule="evenodd"/><path fill="#ffffff" d="m903.9249 308.693l2.789917 0l0 11.115845l-2.789917 0z" fill-rule="evenodd"/><path stroke="#c72e49" stroke-width="1.0" stroke-linejoin="round" stroke-linecap="butt" d="m903.9249 308.693l2.789917 0l0 11.115845l-2.789917 0z" fill-rule="evenodd"/><path fill="#ffffff" d="m669.4235 334.9818l105.484314 0l0 24.977386l-105.484314 0z" fill-rule="evenodd"/><path stroke="#c72e49" stroke-width="2.0" stroke-linejoin="round" stroke-linecap="butt" d="m669.4235 334.9818l105.484314 0l0 24.977386l-105.484314 0z" fill-rule="evenodd"/><path fill="#ffffff" d="m677.5459 341.9126l2.789917 0l0 11.115814l-2.789917 0z" fill-rule="evenodd"/><path stroke="#c72e49" stroke-width="1.0" stroke-linejoin="round" stroke-linecap="butt" d="m677.5459 341.9126l2.789917 0l0 11.115814l-2.789917 0z" fill-rule="evenodd"/><path fill="#ffffff" d="m692.95807 341.9126l2.789917 0l0 11.115814l-2.789917 0z" fill-rule="evenodd"/><path stroke="#c72e49" stroke-width="1.0" stroke-linejoin="round" stroke-linecap="butt" d="m692.95807 341.9126l2.789917 0l0 11.115814l-2.789917 0z" fill-rule="evenodd"/><path fill="#ffffff" d="m685.252 341.9126l2.789856 0l0 11.115814l-2.789856 0z" fill-rule="evenodd"/><path stroke="#c72e49" stroke-width="1.0" stroke-linejoin="round" stroke-linecap="butt" d="m685.252 341.9126l2.789856 0l0 11.115814l-2.789856 0z" fill-rule="evenodd"/><path fill="#ffffff" d="m719.18756 347.4705l0 0c0 -2.494751 2.0223389 -4.5171814 4.516968 -4.5171814l0 0c1.197998 0 2.3468628 0.47592163 3.1939697 1.3230591c0.84710693 0.84713745 1.322998 1.9960938 1.322998 3.1941223l0 0c0 2.4947815 -2.0223389 4.517212 -4.516968 4.517212l0 0c-2.494629 0 -4.516968 -2.0224304 -4.516968 -4.517212z" fill-rule="evenodd"/><path stroke="#c72e49" stroke-width="1.0" stroke-linejoin="round" stroke-linecap="butt" d="m719.18756 347.4705l0 0c0 -2.494751 2.0223389 -4.5171814 4.516968 -4.5171814l0 0c1.197998 0 2.3468628 0.47592163 3.1939697 1.3230591c0.84710693 0.84713745 1.322998 1.9960938 1.322998 3.1941223l0 0c0 2.4947815 -2.0223389 4.517212 -4.516968 4.517212l0 0c-2.494629 0 -4.516968 -2.0224304 -4.516968 -4.517212z" fill-rule="evenodd"/><path fill="#ffffff" d="m749.8927 341.9126l2.789917 0l0 11.115814l-2.789917 0z" fill-rule="evenodd"/><path stroke="#c72e49" stroke-width="1.0" stroke-linejoin="round" stroke-linecap="butt" d="m749.8927 341.9126l2.789917 0l0 11.115814l-2.789917 0z" fill-rule="evenodd"/><path fill="#ffffff" d="m765.3049 341.9126l2.789917 0l0 11.115814l-2.789917 0z" fill-rule="evenodd"/><path stroke="#c72e49" stroke-width="1.0" stroke-linejoin="round" stroke-linecap="butt" d="m765.3049 341.9126l2.789917 0l0 11.115814l-2.789917 0z" fill-rule="evenodd"/><path fill="#ffffff" d="m757.5988 341.9126l2.789856 0l0 11.115814l-2.789856 0z" fill-rule="evenodd"/><path stroke="#c72e49" stroke-width="1.0" stroke-linejoin="round" stroke-linecap="butt" d="m757.5988 341.9126l2.789856 0l0 11.115814l-2.789856 0z" fill-rule="evenodd"/><path fill="#ffffff" d="m815.74963 334.9818l105.484375 0l0 24.977386l-105.484375 0z" fill-rule="evenodd"/><path stroke="#c72e49" stroke-width="2.0" stroke-linejoin="round" stroke-linecap="butt" d="m815.74963 334.9818l105.484375 0l0 24.977386l-105.484375 0z" fill-rule="evenodd"/><path fill="#ffffff" d="m823.8721 341.9126l2.789856 0l0 11.115814l-2.789856 0z" fill-rule="evenodd"/><path stroke="#c72e49" stroke-width="1.0" stroke-linejoin="round" stroke-linecap="butt" d="m823.8721 341.9126l2.789856 0l0 11.115814l-2.789856 0z" fill-rule="evenodd"/><path fill="#ffffff" d="m839.28424 341.9126l2.789917 0l0 11.115814l-2.789917 0z" fill-rule="evenodd"/><path stroke="#c72e49" stroke-width="1.0" stroke-linejoin="round" stroke-linecap="butt" d="m839.28424 341.9126l2.789917 0l0 11.115814l-2.789917 0z" fill-rule="evenodd"/><path fill="#ffffff" d="m831.5781 341.9126l2.789917 0l0 11.115814l-2.789917 0z" fill-rule="evenodd"/><path stroke="#c72e49" stroke-width="1.0" stroke-linejoin="round" stroke-linecap="butt" d="m831.5781 341.9126l2.789917 0l0 11.115814l-2.789917 0z" fill-rule="evenodd"/><path fill="#ffffff" d="m865.51373 347.4705l0 0c0 -2.494751 2.0222778 -4.5171814 4.516968 -4.5171814l0 0c1.197937 0 2.3468628 0.47592163 3.1939697 1.3230591c0.84710693 0.84713745 1.322998 1.9960938 1.322998 3.1941223l0 0c0 2.4947815 -2.0223389 4.517212 -4.516968 4.517212l0 0c-2.49469 0 -4.516968 -2.0224304 -4.516968 -4.517212z" fill-rule="evenodd"/><path stroke="#c72e49" stroke-width="1.0" stroke-linejoin="round" stroke-linecap="butt" d="m865.51373 347.4705l0 0c0 -2.494751 2.0222778 -4.5171814 4.516968 -4.5171814l0 0c1.197937 0 2.3468628 0.47592163 3.1939697 1.3230591c0.84710693 0.84713745 1.322998 1.9960938 1.322998 3.1941223l0 0c0 2.4947815 -2.0223389 4.517212 -4.516968 4.517212l0 0c-2.49469 0 -4.516968 -2.0224304 -4.516968 -4.517212z" fill-rule="evenodd"/><path fill="#ffffff" d="m896.2189 341.9126l2.789856 0l0 11.115814l-2.789856 0z" fill-rule="evenodd"/><path stroke="#c72e49" stroke-width="1.0" stroke-linejoin="round" stroke-linecap="butt" d="m896.2189 341.9126l2.789856 0l0 11.115814l-2.789856 0z" fill-rule="evenodd"/><path fill="#ffffff" d="m911.63104 341.9126l2.789917 0l0 11.115814l-2.789917 0z" fill-rule="evenodd"/><path stroke="#c72e49" stroke-width="1.0" stroke-linejoin="round" stroke-linecap="butt" d="m911.63104 341.9126l2.789917 0l0 11.115814l-2.789917 0z" fill-rule="evenodd"/><path fill="#ffffff" d="m903.925 341.9126l2.789856 0l0 11.115814l-2.789856 0z" fill-rule="evenodd"/><path stroke="#c72e49" stroke-width="1.0" stroke-linejoin="round" stroke-linecap="butt" d="m903.925 341.9126l2.789856 0l0 11.115814l-2.789856 0z" fill-rule="evenodd"/><path fill="#000000" fill-opacity="0.0" d="m653.8924 371.66864l287.1181 0l0 42.015747l-287.1181 0z" fill-rule="evenodd"/><path fill="#ffffff" d="m666.85767 380.66864l261.1875 0l0 22.399994l-261.1875 0l0 -22.399994z" fill-rule="nonzero"/><path fill="#000000" fill-opacity="0.0" d="m666.85767 382.5629l261.1875 0l0 19.570435l-261.1875 0l0 -19.570435z" fill-rule="nonzero"/><path fill="#000000" d="m668.21704 386.18237l1.296875 0l0.171875 0l0 0.125q-0.109375 0.125 -0.140625 0.25q-0.015625 0.125 -0.015625 0.453125l0 4.5625q0.328125 -0.515625 0.78125 -0.890625q0.46875 -0.390625 0.96875 -0.609375q0.515625 -0.21875 1.046875 -0.21875q0.765625 0 1.34375 0.359375q0.59375 0.359375 0.921875 1.140625q0.328125 0.78125 0.328125 2.0625l0 5.171875l-1.3125 0l0 -5.125q0 -0.90625 -0.203125 -1.4375q-0.203125 -0.53125 -0.5625 -0.765625q-0.34375 -0.234375 -0.796875 -0.234375q-0.34375 0 -0.703125 0.125q-0.34375 0.109375 -0.671875 0.328125q-0.328125 0.21875 -0.59375 0.546875q-0.25 0.328125 -0.40625 0.75q-0.140625 0.40625 -0.140625 0.90625l0 4.90625l-1.3125 0l0 -12.40625zm13.546875 12.53125q-0.828125 0 -1.34375 -0.265625q-0.515625 -0.28125 -0.796875 -0.875q-0.28125 -0.59375 -0.375 -1.484375q-0.078125 -0.890625 -0.046875 -2.125l0.234375 -6.078125l1.390625 -0.171875l0.1875 -0.015625l0.015625 0.125q-0.09375 0.125 -0.15625 0.265625q-0.0625 0.125 -0.09375 0.4375l-0.171875 2.109375l0.0625 0.34375l-0.140625 3.078125q-0.046875 1.421875 0.078125 2.203125q0.125 0.765625 0.453125 1.0625q0.34375 0.28125 0.90625 0.28125q0.625 0 1.09375 -0.234375q0.46875 -0.25 1.0 -0.625l0.40625 1.0625q-0.625 0.46875 -1.296875 0.6875q-0.671875 0.21875 -1.40625 0.21875l0 0zm-4.265625 -8.65625l6.125 0l0 1.109375l-6.125 0l0 -1.109375zm13.59375 8.65625q-0.828125 0 -1.34375 -0.265625q-0.515625 -0.28125 -0.796875 -0.875q-0.28125 -0.59375 -0.375 -1.484375q-0.078125 -0.890625 -0.046875 -2.125l0.234375 -6.078125l1.390625 -0.171875l0.1875 -0.015625l0.015625 0.125q-0.09375 0.125 -0.15625 0.265625q-0.0625 0.125 -0.09375 0.4375l-0.171875 2.109375l0.0625 0.34375l-0.140625 3.078125q-0.046875 1.421875 0.078125 2.203125q0.125 0.765625 0.453125 1.0625q0.34375 0.28125 0.90625 0.28125q0.625 0 1.09375 -0.234375q0.46875 -0.25 1.0 -0.625l0.40625 1.0625q-0.625 0.46875 -1.296875 0.6875q-0.671875 0.21875 -1.40625 0.21875l0 0zm-4.265625 -8.65625l6.125 0l0 1.109375l-6.125 0l0 -1.109375zm9.140625 11.640625l0 -11.640625l1.359375 0l0 1.6875q0.203125 -0.65625 0.578125 -1.0625q0.390625 -0.421875 0.90625 -0.609375q0.515625 -0.203125 1.109375 -0.203125q0.703125 0 1.34375 0.28125q0.65625 0.265625 1.140625 0.8125q0.5 0.53125 0.78125 1.359375q0.296875 0.8125 0.296875 1.9375q0 1.125 -0.3125 1.984375q-0.3125 0.84375 -0.828125 1.421875q-0.5 0.5625 -1.15625 0.859375q-0.640625 0.28125 -1.3125 0.28125q-0.5 0 -0.984375 -0.15625q-0.46875 -0.15625 -0.859375 -0.453125q-0.390625 -0.3125 -0.6875 -0.734375l0 4.234375l-1.375 0zm3.6875 -4.078125q0.453125 0 0.875 -0.15625q0.4375 -0.15625 0.78125 -0.53125q0.359375 -0.375 0.5625 -1.015625q0.203125 -0.65625 0.203125 -1.59375q0 -1.03125 -0.265625 -1.75q-0.25 -0.71875 -0.75 -1.109375q-0.484375 -0.390625 -1.203125 -0.4375q-0.515625 -0.03125 -0.984375 0.15625q-0.453125 0.1875 -0.8125 0.625q-0.34375 0.421875 -0.546875 1.125q-0.1875 0.6875 -0.1875 1.6875q0.015625 0.59375 0.125 1.078125q0.109375 0.484375 0.3125 0.859375q0.21875 0.359375 0.484375 0.59375q0.28125 0.21875 0.640625 0.34375q0.359375 0.125 0.765625 0.125zm9.203125 1.15625q-0.71875 0 -1.359375 -0.15625q-0.640625 -0.140625 -1.21875 -0.4375q-0.5625 -0.296875 -1.046875 -0.75l0.75 -1.265625l0.109375 -0.171875l0.109375 0.078125q0.046875 0.140625 0.09375 0.3125q0.046875 0.15625 0.25 0.375q0.390625 0.390625 0.9375 0.640625q0.546875 0.25 1.40625 0.25q0.6875 0 1.15625 -0.15625q0.484375 -0.171875 0.75 -0.484375q0.265625 -0.3125 0.265625 -0.71875q0 -0.28125 -0.125 -0.484375q-0.109375 -0.21875 -0.359375 -0.40625q-0.25 -0.1875 -0.671875 -0.375q-0.40625 -0.1875 -1.0 -0.375q-0.96875 -0.28125 -1.703125 -0.65625q-0.71875 -0.375 -1.109375 -0.859375q-0.390625 -0.5 -0.390625 -1.125q0 -0.65625 0.34375 -1.125q0.359375 -0.484375 1.0625 -0.75q0.703125 -0.28125 1.734375 -0.28125q0.59375 0 1.078125 0.09375q0.484375 0.078125 0.890625 0.25q0.40625 0.15625 0.75 0.421875q0.359375 0.25 0.671875 0.578125l-0.765625 0.9375l-0.140625 0.140625l-0.078125 -0.09375q-0.03125 -0.140625 -0.09375 -0.28125q-0.0625 -0.140625 -0.265625 -0.34375q-0.4375 -0.34375 -0.984375 -0.515625q-0.53125 -0.171875 -1.03125 -0.171875q-0.75 0 -1.296875 0.265625q-0.53125 0.25 -0.53125 0.796875q0 0.28125 0.1875 0.546875q0.203125 0.265625 0.71875 0.546875q0.53125 0.265625 1.5 0.546875q1.0625 0.328125 1.703125 0.671875q0.640625 0.34375 0.921875 0.796875q0.296875 0.453125 0.296875 1.0625q0 0.71875 -0.390625 1.328125q-0.375 0.609375 -1.15625 0.984375q-0.78125 0.359375 -1.96875 0.359375l0 0zm9.078125 -5.9375q-0.421875 0 -0.765625 -0.3125q-0.328125 -0.3125 -0.328125 -0.75q0 -0.4375 0.328125 -0.75q0.34375 -0.328125 0.765625 -0.328125q0.4375 0 0.78125 0.328125q0.34375 0.3125 0.34375 0.75q0 0.4375 -0.34375 0.75q-0.328125 0.3125 -0.78125 0.3125zm0 5.953125q-0.46875 0 -0.78125 -0.296875q-0.3125 -0.3125 -0.3125 -0.765625q0 -0.453125 0.328125 -0.765625q0.34375 -0.3125 0.765625 -0.3125q0.4375 0 0.78125 0.3125q0.34375 0.3125 0.34375 0.765625q0 0.4375 -0.328125 0.75q-0.328125 0.3125 -0.796875 0.3125zm7.1875 0.578125l-1.109375 -0.53125l5.84375 -12.65625l1.125 0.578125l-5.859375 12.609375zm9.328125 0l-1.109375 -0.53125l5.84375 -12.65625l1.125 0.578125l-5.859375 12.609375zm7.734375 -0.78125l0 -8.53125l1.234375 0l0 0.84375q0.203125 -0.3125 0.46875 -0.546875q0.28125 -0.234375 0.609375 -0.359375q0.328125 -0.140625 0.65625 -0.140625q0.375 0 0.6875 0.171875q0.328125 0.15625 0.53125 0.4375q0.21875 0.265625 0.296875 0.640625q0.171875 -0.375 0.453125 -0.640625q0.296875 -0.28125 0.671875 -0.4375q0.390625 -0.171875 0.796875 -0.171875q0.421875 0 0.734375 0.171875q0.328125 0.171875 0.53125 0.46875q0.203125 0.28125 0.296875 0.6875q0.09375 0.390625 0.078125 0.859375l0 6.546875l-1.234375 0l0 -6.046875q0 -0.78125 -0.109375 -1.125q-0.09375 -0.359375 -0.28125 -0.46875q-0.1875 -0.109375 -0.40625 -0.109375q-0.359375 0 -0.671875 0.328125q-0.296875 0.328125 -0.5 0.8125q-0.1875 0.484375 -0.1875 0.96875l0 5.640625l-1.25 0l0 -5.9375q0 -1.0625 -0.203125 -1.40625q-0.1875 -0.359375 -0.734375 -0.359375q-0.203125 0 -0.421875 0.140625q-0.21875 0.140625 -0.40625 0.390625q-0.171875 0.25 -0.296875 0.625q-0.109375 0.375 -0.109375 0.859375l0 5.6875l-1.234375 0zm10.484375 0l0 -1.078125l2.1875 0l0 -6.359375l-2.0625 0l0 -1.09375l3.40625 0l0 7.453125l2.0 0l0 1.078125l-5.53125 0zm2.78125 -10.3125q-0.390625 0 -0.671875 -0.28125q-0.28125 -0.28125 -0.28125 -0.671875q0 -0.40625 0.265625 -0.6875q0.28125 -0.28125 0.6875 -0.28125q0.390625 0 0.671875 0.296875q0.296875 0.28125 0.296875 0.671875q0 0.390625 -0.296875 0.671875q-0.28125 0.28125 -0.671875 0.28125zm6.03125 10.3125l0 -8.53125l1.3125 0l0 1.515625q0.328125 -0.515625 0.765625 -0.890625q0.453125 -0.390625 1.0 -0.609375q0.546875 -0.21875 1.125 -0.21875q0.703125 0 1.265625 0.359375q0.5625 0.359375 0.890625 1.140625q0.34375 0.78125 0.34375 2.0625l0 5.171875l-1.3125 0l0 -5.125q0 -0.90625 -0.203125 -1.4375q-0.203125 -0.53125 -0.5625 -0.765625q-0.359375 -0.234375 -0.796875 -0.234375q-0.4375 0 -0.875 0.1875q-0.4375 0.1875 -0.8125 0.53125q-0.375 0.34375 -0.609375 0.84375q-0.21875 0.484375 -0.21875 1.09375l0 4.90625l-1.3125 0zm9.84375 0l0 -1.078125l2.1875 0l0 -6.359375l-2.0625 0l0 -1.09375l3.40625 0l0 7.453125l2.0 0l0 1.078125l-5.53125 0zm2.78125 -10.3125q-0.390625 0 -0.671875 -0.28125q-0.28125 -0.28125 -0.28125 -0.671875q0 -0.40625 0.265625 -0.6875q0.28125 -0.28125 0.6875 -0.28125q0.390625 0 0.671875 0.296875q0.296875 0.28125 0.296875 0.671875q0 0.390625 -0.296875 0.671875q-0.28125 0.28125 -0.671875 0.28125zm9.359375 10.46875q-1.171875 0 -2.0625 -0.5625q-0.875 -0.578125 -1.375 -1.578125q-0.5 -1.0 -0.5 -2.28125q0 -1.3125 0.5 -2.3125q0.5 -1.0 1.375 -1.5625q0.890625 -0.578125 2.0625 -0.578125q1.15625 0 2.03125 0.578125q0.890625 0.5625 1.390625 1.5625q0.5 1.0 0.5 2.3125q0 1.28125 -0.5 2.28125q-0.5 1.0 -1.390625 1.578125q-0.875 0.5625 -2.03125 0.5625zm0 -1.125q0.734375 0 1.296875 -0.421875q0.5625 -0.4375 0.890625 -1.1875q0.328125 -0.75 0.328125 -1.71875q0 -0.96875 -0.328125 -1.703125q-0.328125 -0.75 -0.890625 -1.171875q-0.5625 -0.421875 -1.296875 -0.421875q-0.734375 0 -1.3125 0.421875q-0.5625 0.421875 -0.890625 1.171875q-0.328125 0.734375 -0.328125 1.703125q0 0.96875 0.328125 1.71875q0.328125 0.75 0.890625 1.1875q0.578125 0.421875 1.3125 0.421875zm6.734375 -4.28125l0 -1.25l5.21875 0l0 1.25l-5.21875 0zm9.25 2.375l4.984375 -6.390625l0.421875 0.875l-4.984375 6.3125l-0.421875 -0.796875zm2.671875 3.078125q-1.171875 0 -1.96875 -0.6875q-0.796875 -0.6875 -1.21875 -2.015625q-0.421875 -1.34375 -0.421875 -3.25q0 -1.84375 0.421875 -3.171875q0.421875 -1.34375 1.21875 -2.0625q0.796875 -0.71875 1.96875 -0.71875q1.15625 0 1.953125 0.71875q0.796875 0.71875 1.21875 2.0625q0.421875 1.328125 0.421875 3.171875q0 1.90625 -0.421875 3.25q-0.421875 1.328125 -1.21875 2.015625q-0.796875 0.6875 -1.953125 0.6875zm0 -1.140625q0.703125 0 1.203125 -0.546875q0.5 -0.5625 0.765625 -1.640625q0.28125 -1.078125 0.28125 -2.625q0 -1.46875 -0.28125 -2.53125q-0.265625 -1.078125 -0.765625 -1.671875q-0.5 -0.609375 -1.203125 -0.609375q-0.71875 0 -1.21875 0.609375q-0.5 0.59375 -0.78125 1.671875q-0.265625 1.0625 -0.265625 2.53125q0 1.546875 0.265625 2.625q0.28125 1.078125 0.78125 1.640625q0.5 0.546875 1.21875 0.546875zm6.015625 -0.109375q1.015625 -1.03125 1.84375 -1.859375q0.84375 -0.84375 1.5 -1.5625q0.671875 -0.71875 1.140625 -1.359375q0.46875 -0.640625 0.703125 -1.265625q0.25 -0.625 0.25 -1.3125q0 -0.609375 -0.15625 -1.015625q-0.140625 -0.40625 -0.421875 -0.65625q-0.265625 -0.25 -0.640625 -0.359375q-0.359375 -0.125 -0.765625 -0.125q-0.453125 0 -0.859375 0.140625q-0.40625 0.125 -0.78125 0.375q-0.375 0.25 -0.6875 0.65625q-0.171875 0.265625 -0.21875 0.40625q-0.03125 0.140625 -0.015625 0.296875l-0.0625 0.09375l-0.15625 -0.09375l-0.953125 -0.75q0.375 -0.734375 0.9375 -1.234375q0.5625 -0.5 1.265625 -0.765625q0.71875 -0.265625 1.515625 -0.265625q0.984375 0 1.734375 0.40625q0.75 0.40625 1.171875 1.15625q0.4375 0.734375 0.4375 1.765625q0 0.765625 -0.28125 1.484375q-0.28125 0.71875 -0.765625 1.40625q-0.484375 0.6875 -1.140625 1.375q-0.65625 0.6875 -1.390625 1.4375q-0.734375 0.734375 -1.515625 1.53125l4.328125 0q0.3125 0 0.4375 -0.03125q0.140625 -0.046875 0.25 -0.15625l0.125 0l0 0.1875l0 1.140625l-6.828125 0l0 -1.046875zm12.40625 1.25q-0.4375 0 -0.765625 -0.3125q-0.3125 -0.3125 -0.3125 -0.75q0 -0.421875 0.3125 -0.734375q0.328125 -0.328125 0.765625 -0.328125q0.4375 0 0.75 0.328125q0.3125 0.3125 0.3125 0.734375q0 0.4375 -0.3125 0.75q-0.3125 0.3125 -0.75 0.3125zm9.96875 -0.015625q-0.9375 0 -1.703125 -0.28125q-0.765625 -0.296875 -1.3125 -0.859375q-0.546875 -0.5625 -0.84375 -1.390625q-0.296875 -0.828125 -0.296875 -1.890625q0 -1.078125 0.296875 -1.921875q0.3125 -0.84375 0.84375 -1.40625q0.53125 -0.578125 1.25 -0.875q0.71875 -0.296875 1.515625 -0.296875q0.734375 0 1.359375 0.25q0.640625 0.234375 1.109375 0.734375q0.46875 0.5 0.734375 1.265625q0.265625 0.75 0.265625 1.796875q0 0.15625 -0.015625 0.3125q0 0.15625 -0.015625 0.3125l-6.0625 0q0.03125 0.8125 0.265625 1.421875q0.25 0.609375 0.640625 1.0q0.390625 0.375 0.90625 0.5625q0.515625 0.1875 1.09375 0.1875q0.453125 0 0.84375 -0.09375q0.390625 -0.109375 0.734375 -0.328125q0.34375 -0.21875 0.625 -0.53125l0.75 0.71875q-0.359375 0.4375 -0.8125 0.734375q-0.453125 0.296875 -1.0 0.4375q-0.546875 0.140625 -1.171875 0.140625zm-2.828125 -5.296875l4.6875 0q0 -0.59375 -0.15625 -1.0625q-0.15625 -0.484375 -0.453125 -0.828125q-0.28125 -0.34375 -0.6875 -0.515625q-0.390625 -0.1875 -0.90625 -0.1875q-0.4375 0 -0.84375 0.15625q-0.40625 0.140625 -0.75 0.46875q-0.328125 0.328125 -0.5625 0.8125q-0.234375 0.484375 -0.328125 1.15625zm7.953125 5.109375l3.0 -4.328125l-2.9375 -4.203125l1.46875 0l2.21875 3.15625l2.125 -3.15625l1.390625 0l-2.765625 4.140625l3.125 4.390625l-1.515625 0l-2.359375 -3.328125l-2.21875 3.328125l-1.53125 0zm12.390625 0.203125q-1.453125 0 -2.234375 -0.65625q-0.78125 -0.671875 -0.78125 -1.6875q0 -0.6875 0.328125 -1.234375q0.328125 -0.5625 0.921875 -0.9375q0.59375 -0.390625 1.375 -0.59375q0.78125 -0.203125 1.65625 -0.203125q0.3125 0 0.640625 0.015625q0.328125 0 0.6875 0.03125q0.375 0.03125 0.765625 0.078125l0.03125 1.03125q-0.328125 -0.0625 -0.671875 -0.078125q-0.34375 -0.03125 -0.6875 -0.046875q-0.328125 -0.03125 -0.65625 -0.03125q-0.671875 0 -1.234375 0.125q-0.546875 0.109375 -0.96875 0.328125q-0.40625 0.21875 -0.640625 0.578125q-0.21875 0.359375 -0.21875 0.859375q0 0.390625 0.140625 0.671875q0.140625 0.265625 0.375 0.421875q0.25 0.15625 0.578125 0.234375q0.328125 0.0625 0.71875 0.0625q0.734375 0 1.296875 -0.21875q0.578125 -0.234375 0.96875 -0.6875q0.40625 -0.453125 0.609375 -1.09375q0.203125 -0.65625 0.203125 -1.5q0 -1.265625 -0.296875 -1.96875q-0.296875 -0.71875 -0.890625 -1.015625q-0.578125 -0.296875 -1.5 -0.296875q-0.609375 0 -1.203125 0.234375q-0.59375 0.234375 -1.078125 0.71875l-0.65625 -0.859375q0.59375 -0.59375 1.375 -0.890625q0.78125 -0.3125 1.65625 -0.3125q0.84375 0 1.53125 0.21875q0.6875 0.203125 1.1875 0.6875q0.5 0.46875 0.765625 1.265625q0.265625 0.796875 0.265625 2.015625l0 4.53125l-1.453125 0l0 -1.3125q-0.234375 0.46875 -0.59375 0.765625q-0.34375 0.296875 -0.734375 0.46875q-0.390625 0.15625 -0.796875 0.21875q-0.40625 0.0625 -0.78125 0.0625zm6.09375 -0.203125l0 -8.53125l1.234375 0l0 0.84375q0.203125 -0.3125 0.46875 -0.546875q0.28125 -0.234375 0.609375 -0.359375q0.328125 -0.140625 0.65625 -0.140625q0.375 0 0.6875 0.171875q0.328125 0.15625 0.53125 0.4375q0.21875 0.265625 0.296875 0.640625q0.171875 -0.375 0.453125 -0.640625q0.296875 -0.28125 0.671875 -0.4375q0.390625 -0.171875 0.796875 -0.171875q0.421875 0 0.734375 0.171875q0.328125 0.171875 0.53125 0.46875q0.203125 0.28125 0.296875 0.6875q0.09375 0.390625 0.078125 0.859375l0 6.546875l-1.234375 0l0 -6.046875q0 -0.78125 -0.109375 -1.125q-0.09375 -0.359375 -0.28125 -0.46875q-0.1875 -0.109375 -0.40625 -0.109375q-0.359375 0 -0.671875 0.328125q-0.296875 0.328125 -0.5 0.8125q-0.1875 0.484375 -0.1875 0.96875l0 5.640625l-1.25 0l0 -5.9375q0 -1.0625 -0.203125 -1.40625q-0.1875 -0.359375 -0.734375 -0.359375q-0.203125 0 -0.421875 0.140625q-0.21875 0.140625 -0.40625 0.390625q-0.171875 0.25 -0.296875 0.625q-0.109375 0.375 -0.109375 0.859375l0 5.6875l-1.234375 0zm9.75 3.109375l0 -11.640625l1.359375 0l0 1.6875q0.203125 -0.65625 0.578125 -1.0625q0.390625 -0.421875 0.90625 -0.609375q0.515625 -0.203125 1.109375 -0.203125q0.703125 0 1.34375 0.28125q0.65625 0.265625 1.140625 0.8125q0.5 0.53125 0.78125 1.359375q0.296875 0.8125 0.296875 1.9375q0 1.125 -0.3125 1.984375q-0.3125 0.84375 -0.828125 1.421875q-0.5 0.5625 -1.15625 0.859375q-0.640625 0.28125 -1.3125 0.28125q-0.5 0 -0.984375 -0.15625q-0.46875 -0.15625 -0.859375 -0.453125q-0.390625 -0.3125 -0.6875 -0.734375l0 4.234375l-1.375 0zm3.6875 -4.078125q0.453125 0 0.875 -0.15625q0.4375 -0.15625 0.78125 -0.53125q0.359375 -0.375 0.5625 -1.015625q0.203125 -0.65625 0.203125 -1.59375q0 -1.03125 -0.265625 -1.75q-0.25 -0.71875 -0.75 -1.109375q-0.484375 -0.390625 -1.203125 -0.4375q-0.515625 -0.03125 -0.984375 0.15625q-0.453125 0.1875 -0.8125 0.625q-0.34375 0.421875 -0.546875 1.125q-0.1875 0.6875 -0.1875 1.6875q0.015625 0.59375 0.125 1.078125q0.109375 0.484375 0.3125 0.859375q0.21875 0.359375 0.484375 0.59375q0.28125 0.21875 0.640625 0.34375q0.359375 0.125 0.765625 0.125zm5.984375 0.96875l0 -1.078125l2.53125 0l0 -10.25l-2.421875 0l0 -1.078125l3.78125 0l0 11.328125l2.5 0l0 1.078125l-6.390625 0zm12.9375 0.1875q-0.9375 0 -1.703125 -0.28125q-0.765625 -0.296875 -1.3125 -0.859375q-0.546875 -0.5625 -0.84375 -1.390625q-0.296875 -0.828125 -0.296875 -1.890625q0 -1.078125 0.296875 -1.921875q0.3125 -0.84375 0.84375 -1.40625q0.53125 -0.578125 1.25 -0.875q0.71875 -0.296875 1.515625 -0.296875q0.734375 0 1.359375 0.25q0.640625 0.234375 1.109375 0.734375q0.46875 0.5 0.734375 1.265625q0.265625 0.75 0.265625 1.796875q0 0.15625 -0.015625 0.3125q0 0.15625 -0.015625 0.3125l-6.0625 0q0.03125 0.8125 0.265625 1.421875q0.25 0.609375 0.640625 1.0q0.390625 0.375 0.90625 0.5625q0.515625 0.1875 1.09375 0.1875q0.453125 0 0.84375 -0.09375q0.390625 -0.109375 0.734375 -0.328125q0.34375 -0.21875 0.625 -0.53125l0.75 0.71875q-0.359375 0.4375 -0.8125 0.734375q-0.453125 0.296875 -1.0 0.4375q-0.546875 0.140625 -1.171875 0.140625zm-2.828125 -5.296875l4.6875 0q0 -0.59375 -0.15625 -1.0625q-0.15625 -0.484375 -0.453125 -0.828125q-0.28125 -0.34375 -0.6875 -0.515625q-0.390625 -0.1875 -0.90625 -0.1875q-0.4375 0 -0.84375 0.15625q-0.40625 0.140625 -0.75 0.46875q-0.328125 0.328125 -0.5625 0.8125q-0.234375 0.484375 -0.328125 1.15625zm11.515625 5.3125q-0.4375 0 -0.765625 -0.3125q-0.3125 -0.3125 -0.3125 -0.75q0 -0.421875 0.3125 -0.734375q0.328125 -0.328125 0.765625 -0.328125q0.4375 0 0.75 0.328125q0.3125 0.3125 0.3125 0.734375q0 0.4375 -0.3125 0.75q-0.3125 0.3125 -0.75 0.3125zm6.234375 -0.203125l0 -8.53125l1.3125 0l0 1.515625q0.328125 -0.515625 0.765625 -0.890625q0.453125 -0.390625 1.0 -0.609375q0.546875 -0.21875 1.125 -0.21875q0.703125 0 1.265625 0.359375q0.5625 0.359375 0.890625 1.140625q0.34375 0.78125 0.34375 2.0625l0 5.171875l-1.3125 0l0 -5.125q0 -0.90625 -0.203125 -1.4375q-0.203125 -0.53125 -0.5625 -0.765625q-0.359375 -0.234375 -0.796875 -0.234375q-0.4375 0 -0.875 0.1875q-0.4375 0.1875 -0.8125 0.53125q-0.375 0.34375 -0.609375 0.84375q-0.21875 0.484375 -0.21875 1.09375l0 4.90625l-1.3125 0zm13.0625 0.1875q-0.9375 0 -1.703125 -0.28125q-0.765625 -0.296875 -1.3125 -0.859375q-0.546875 -0.5625 -0.84375 -1.390625q-0.296875 -0.828125 -0.296875 -1.890625q0 -1.078125 0.296875 -1.921875q0.3125 -0.84375 0.84375 -1.40625q0.53125 -0.578125 1.25 -0.875q0.71875 -0.296875 1.515625 -0.296875q0.734375 0 1.359375 0.25q0.640625 0.234375 1.109375 0.734375q0.46875 0.5 0.734375 1.265625q0.265625 0.75 0.265625 1.796875q0 0.15625 -0.015625 0.3125q0 0.15625 -0.015625 0.3125l-6.0625 0q0.03125 0.8125 0.265625 1.421875q0.25 0.609375 0.640625 1.0q0.390625 0.375 0.90625 0.5625q0.515625 0.1875 1.09375 0.1875q0.453125 0 0.84375 -0.09375q0.390625 -0.109375 0.734375 -0.328125q0.34375 -0.21875 0.625 -0.53125l0.75 0.71875q-0.359375 0.4375 -0.8125 0.734375q-0.453125 0.296875 -1.0 0.4375q-0.546875 0.140625 -1.171875 0.140625zm-2.828125 -5.296875l4.6875 0q0 -0.59375 -0.15625 -1.0625q-0.15625 -0.484375 -0.453125 -0.828125q-0.28125 -0.34375 -0.6875 -0.515625q-0.390625 -0.1875 -0.90625 -0.1875q-0.4375 0 -0.84375 0.15625q-0.40625 0.140625 -0.75 0.46875q-0.328125 0.328125 -0.5625 0.8125q-0.234375 0.484375 -0.328125 1.15625zm12.65625 5.234375q-0.828125 0 -1.34375 -0.265625q-0.515625 -0.28125 -0.796875 -0.875q-0.28125 -0.59375 -0.375 -1.484375q-0.078125 -0.890625 -0.046875 -2.125l0.234375 -6.078125l1.390625 -0.171875l0.1875 -0.015625l0.015625 0.125q-0.09375 0.125 -0.15625 0.265625q-0.0625 0.125 -0.09375 0.4375l-0.171875 2.109375l0.0625 0.34375l-0.140625 3.078125q-0.046875 1.421875 0.078125 2.203125q0.125 0.765625 0.453125 1.0625q0.34375 0.28125 0.90625 0.28125q0.625 0 1.09375 -0.234375q0.46875 -0.25 1.0 -0.625l0.40625 1.0625q-0.625 0.46875 -1.296875 0.6875q-0.671875 0.21875 -1.40625 0.21875l0 0zm-4.265625 -8.65625l6.125 0l0 1.109375l-6.125 0l0 -1.109375z" fill-rule="nonzero"/><path fill="#000000" fill-opacity="0.0" d="m928.04517 382.5629l0 0l0 19.570435l0 0l0 -19.570435z" fill-rule="nonzero"/><path fill="#eeeeee" d="m424.21423 317.5529l0 0c-1.0977783 -7.619751 2.5064392 -15.162872 9.283264 -19.428497c6.7767944 -4.265625 15.53772 -4.5056763 22.565125 -0.61828613l0 0c2.4893188 -4.4304504 7.045532 -7.4893494 12.290436 -8.251465c5.244873 -0.762146 10.5624695 0.86203 14.344238 4.381256l0 0c2.1206055 -4.0169373 6.2843933 -6.71579 11.0138855 -7.1388855c4.729492 -0.42312622 9.355347 1.4894409 12.236053 5.0589294l0 0c3.8311462 -4.2579346 9.926605 -6.0506897 15.648834 -4.602539c5.722168 1.4481201 10.043396 5.877075 11.093811 11.370392l0 0c4.6938477 1.209259 8.603699 4.283386 10.71936 8.428131c2.1157227 4.1447144 2.2297363 8.953461 0.31256104 13.183777l0 0c4.6220703 5.681793 5.703247 13.252686 2.840149 19.88739c-2.8630981 6.6347046 -9.240356 11.336426 -16.751892 12.350555c-0.05291748 6.226898 -3.668579 11.940643 -9.453369 14.938904c-5.784729 2.99823 -12.835266 2.8127747 -18.43396 -0.48486328l0 0c-2.3847656 7.457794 -9.097076 12.94519 -17.236938 14.0914c-8.139893 1.1462097 -16.248108 -2.254242 -20.821625 -8.732239l0 0c-5.6061707 3.1930237 -12.333099 4.1128235 -18.66336 2.551941c-6.330261 -1.5608826 -11.73056 -5.4710083 -14.982758 -10.848297l0 0c-5.728821 0.6332092 -11.267792 -2.170227 -13.86795 -7.0188904c-2.6001282 -4.848694 -1.7079773 -10.71048 2.2337341 -14.6762085l0 0c-5.1102295 -2.8408508 -7.717804 -8.478027 -6.462921 -13.971985c1.2548828 -5.4939575 6.087799 -9.599731 11.978638 -10.1763z" fill-rule="evenodd"/><path fill="#000000" fill-opacity="0.0" d="m418.58527 341.99484l0 0c2.41156 1.3406067 5.1974487 1.9487305 7.9836426 1.7427368m3.6493225 19.95285c1.1981506 -0.13241577 2.372589 -0.4128723 3.4930115 -0.8340759m30.151459 9.130096c-0.8427124 -1.193634 -1.5482788 -2.4691162 -2.1046753 -3.8047485m40.164673 -1.5546265l0 0c0.43475342 -1.3596802 0.7164612 -2.7590637 0.84039307 -4.174835m27.045868 -10.278687c0.056396484 -6.6295166 -3.9302368 -12.699554 -10.247498 -15.602875m24.15918 -16.6344c-1.0230713 2.2574768 -2.5849 4.2600403 -4.5629883 5.850708m-6.4680176 -27.463196l0 0c0.1743164 0.9116211 0.25500488 1.8369446 0.24090576 2.7631226m-26.983124 -9.530701l0 0c-0.9556885 1.0621643 -1.743042 2.2490845 -2.337555 3.5238342m-20.912567 -1.4443665l0 0c-0.50930786 0.9647522 -0.8896179 1.9855957 -1.1321716 3.0390625m-25.5029 0.8312683l0 0c1.4869995 0.8225708 2.862671 1.8125916 4.0968018 2.9483948m-35.944794 17.09848l0 0c0.15130615 1.0502014 0.39035034 2.0874329 0.7149353 3.1020508" fill-rule="evenodd"/><path stroke="#595959" stroke-width="1.0" stroke-linejoin="round" stroke-linecap="butt" d="m424.21423 317.5529l0 0c-1.0977783 -7.619751 2.5064392 -15.162872 9.283264 -19.428497c6.7767944 -4.265625 15.53772 -4.5056763 22.565125 -0.61828613l0 0c2.4893188 -4.4304504 7.045532 -7.4893494 12.290436 -8.251465c5.244873 -0.762146 10.5624695 0.86203 14.344238 4.381256l0 0c2.1206055 -4.0169373 6.2843933 -6.71579 11.0138855 -7.1388855c4.729492 -0.42312622 9.355347 1.4894409 12.236053 5.0589294l0 0c3.8311462 -4.2579346 9.926605 -6.0506897 15.648834 -4.602539c5.722168 1.4481201 10.043396 5.877075 11.093811 11.370392l0 0c4.6938477 1.209259 8.603699 4.283386 10.71936 8.428131c2.1157227 4.1447144 2.2297363 8.953461 0.31256104 13.183777l0 0c4.6220703 5.681793 5.703247 13.252686 2.840149 19.88739c-2.8630981 6.6347046 -9.240356 11.336426 -16.751892 12.350555c-0.05291748 6.226898 -3.668579 11.940643 -9.453369 14.938904c-5.784729 2.99823 -12.835266 2.8127747 -18.43396 -0.48486328l0 0c-2.3847656 7.457794 -9.097076 12.94519 -17.236938 14.0914c-8.139893 1.1462097 -16.248108 -2.254242 -20.821625 -8.732239l0 0c-5.6061707 3.1930237 -12.333099 4.1128235 -18.66336 2.551941c-6.330261 -1.5608826 -11.73056 -5.4710083 -14.982758 -10.848297l0 0c-5.728821 0.6332092 -11.267792 -2.170227 -13.86795 -7.0188904c-2.6001282 -4.848694 -1.7079773 -10.71048 2.2337341 -14.6762085l0 0c-5.1102295 -2.8408508 -7.717804 -8.478027 -6.462921 -13.971985c1.2548828 -5.4939575 6.087799 -9.599731 11.978638 -10.1763z" fill-rule="evenodd"/><path stroke="#595959" stroke-width="1.0" stroke-linejoin="round" stroke-linecap="butt" d="m418.58527 341.99484l0 0c2.41156 1.3406067 5.1974487 1.9487305 7.9836426 1.7427368m3.6493225 19.95285c1.1981506 -0.13241577 2.372589 -0.4128723 3.4930115 -0.8340759m30.151459 9.130096c-0.8427124 -1.193634 -1.5482788 -2.4691162 -2.1046753 -3.8047485m40.164673 -1.5546265l0 0c0.43475342 -1.3596802 0.7164612 -2.7590637 0.84039307 -4.174835m27.045868 -10.278687c0.056396484 -6.6295166 -3.9302368 -12.699554 -10.247498 -15.602875m24.15918 -16.6344c-1.0230713 2.2574768 -2.5849 4.2600403 -4.5629883 5.850708m-6.4680176 -27.463196l0 0c0.1743164 0.9116211 0.25500488 1.8369446 0.24090576 2.7631226m-26.983124 -9.530701l0 0c-0.9556885 1.0621643 -1.743042 2.2490845 -2.337555 3.5238342m-20.912567 -1.4443665l0 0c-0.50930786 0.9647522 -0.8896179 1.9855957 -1.1321716 3.0390625m-25.5029 0.8312683l0 0c1.4869995 0.8225708 2.862671 1.8125916 4.0968018 2.9483948m-35.944794 17.09848l0 0c0.15130615 1.0502014 0.39035034 2.0874329 0.7149353 3.1020508" fill-rule="evenodd"/><path fill="#000000" d="m443.73068 338.0933l0 -9.671875l1.46875 0l0 1.375q1.0625 -1.59375 3.078125 -1.59375q0.875 0 1.609375 0.3125q0.734375 0.3125 1.09375 0.828125q0.375 0.5 0.515625 1.203125q0.09375 0.453125 0.09375 1.59375l0 5.953125l-1.640625 0l0 -5.890625q0 -1.0 -0.203125 -1.484375q-0.1875 -0.5 -0.671875 -0.796875q-0.484375 -0.296875 -1.140625 -0.296875q-1.046875 0 -1.8125 0.671875q-0.75 0.65625 -0.75 2.515625l0 5.28125l-1.640625 0zm17.000702 -3.109375l1.6875 0.203125q-0.40625 1.484375 -1.484375 2.3125q-1.078125 0.8125 -2.765625 0.8125q-2.125 0 -3.375 -1.296875q-1.234375 -1.3125 -1.234375 -3.671875q0 -2.453125 1.25 -3.796875q1.265625 -1.34375 3.265625 -1.34375q1.9375 0 3.15625 1.328125q1.234375 1.3125 1.234375 3.703125q0 0.15625 0 0.4375l-7.21875 0q0.09375 1.59375 0.90625 2.453125q0.8125 0.84375 2.015625 0.84375q0.90625 0 1.546875 -0.46875q0.640625 -0.484375 1.015625 -1.515625zm-5.390625 -2.65625l5.40625 0q-0.109375 -1.21875 -0.625 -1.828125q-0.78125 -0.953125 -2.03125 -0.953125q-1.125 0 -1.90625 0.765625q-0.765625 0.75 -0.84375 2.015625zm12.719482 4.296875l0.234375 1.453125q-0.6875 0.140625 -1.234375 0.140625q-0.890625 0 -1.390625 -0.28125q-0.484375 -0.28125 -0.6875 -0.734375q-0.203125 -0.46875 -0.203125 -1.9375l0 -5.578125l-1.203125 0l0 -1.265625l1.203125 0l0 -2.390625l1.625 -0.984375l0 3.375l1.65625 0l0 1.265625l-1.65625 0l0 5.671875q0 0.6875 0.078125 0.890625q0.09375 0.203125 0.28125 0.328125q0.203125 0.109375 0.578125 0.109375q0.265625 0 0.71875 -0.0625zm3.3864136 1.46875l-2.96875 -9.671875l1.703125 0l1.53125 5.578125l0.578125 2.078125q0.046875 -0.15625 0.5 -2.0l1.546875 -5.65625l1.6875 0l1.4375 5.609375l0.484375 1.84375l0.5625 -1.859375l1.65625 -5.59375l1.59375 0l-3.03125 9.671875l-1.703125 0l-1.53125 -5.796875l-0.375 -1.640625l-1.953125 7.4375l-1.71875 0zm11.082336 -4.84375q0 -2.6875 1.484375 -3.96875q1.25 -1.078125 3.046875 -1.078125q2.0 0 3.265625 1.3125q1.265625 1.296875 1.265625 3.609375q0 1.859375 -0.5625 2.9375q-0.5625 1.0625 -1.640625 1.65625q-1.0625 0.59375 -2.328125 0.59375q-2.03125 0 -3.28125 -1.296875q-1.25 -1.3125 -1.25 -3.765625zm1.6875 0q0 1.859375 0.796875 2.796875q0.8125 0.921875 2.046875 0.921875q1.21875 0 2.03125 -0.921875q0.8125 -0.9375 0.8125 -2.84375q0 -1.796875 -0.8125 -2.71875q-0.8125 -0.921875 -2.03125 -0.921875q-1.234375 0 -2.046875 0.921875q-0.796875 0.90625 -0.796875 2.765625zm9.281952 4.84375l0 -9.671875l1.46875 0l0 1.46875q0.5625 -1.03125 1.03125 -1.359375q0.484375 -0.328125 1.0625 -0.328125q0.828125 0 1.6875 0.53125l-0.5625 1.515625q-0.609375 -0.359375 -1.203125 -0.359375q-0.546875 0 -0.96875 0.328125q-0.421875 0.328125 -0.609375 0.890625q-0.28125 0.875 -0.28125 1.921875l0 5.0625l-1.625 0zm6.228302 0l0 -13.359375l1.640625 0l0 7.625l3.890625 -3.9375l2.109375 0l-3.6875 3.59375l4.0625 6.078125l-2.015625 0l-3.203125 -4.953125l-1.15625 1.125l0 3.828125l-1.640625 0z" fill-rule="nonzero"/><path fill="#eeeeee" d="m18.989502 22.194225l287.1181 0l0 37.354332l-287.1181 0z" fill-rule="evenodd"/><path stroke="#595959" stroke-width="1.0" stroke-linejoin="round" stroke-linecap="butt" d="m18.989502 22.194225l287.1181 0l0 37.354332l-287.1181 0z" fill-rule="evenodd"/><path fill="#000000" d="m95.30327 47.79139l5.125 -13.359375l1.90625 0l5.46875 13.359375l-2.015625 0l-1.546875 -4.046875l-5.59375 0l-1.46875 4.046875l-1.875 0zm3.859375 -5.484375l4.53125 0l-1.40625 -3.703125q-0.625 -1.6875 -0.9375 -2.765625q-0.265625 1.28125 -0.71875 2.546875l-1.46875 3.921875zm10.052948 5.484375l0 -13.359375l5.046875 0q1.328125 0 2.03125 0.125q0.96875 0.171875 1.640625 0.640625q0.671875 0.453125 1.078125 1.28125q0.40625 0.828125 0.40625 1.828125q0 1.703125 -1.09375 2.890625q-1.078125 1.171875 -3.921875 1.171875l-3.421875 0l0 5.421875l-1.765625 0zm1.765625 -7.0l3.453125 0q1.71875 0 2.4375 -0.640625q0.71875 -0.640625 0.71875 -1.796875q0 -0.84375 -0.421875 -1.4375q-0.421875 -0.59375 -1.125 -0.78125q-0.4375 -0.125 -1.640625 -0.125l-3.421875 0l0 4.78125zm10.677948 7.0l0 -13.359375l5.046875 0q1.328125 0 2.03125 0.125q0.96875 0.171875 1.640625 0.640625q0.671875 0.453125 1.078125 1.28125q0.40625 0.828125 0.40625 1.828125q0 1.703125 -1.09375 2.890625q-1.078125 1.171875 -3.921875 1.171875l-3.421875 0l0 5.421875l-1.765625 0zm1.765625 -7.0l3.453125 0q1.71875 0 2.4375 -0.640625q0.71875 -0.640625 0.71875 -1.796875q0 -0.84375 -0.421875 -1.4375q-0.421875 -0.59375 -1.125 -0.78125q-0.4375 -0.125 -1.640625 -0.125l-3.421875 0l0 4.78125zm10.599823 7.0l0 -13.359375l1.78125 0l0 11.78125l6.5625 0l0 1.578125l-8.34375 0zm10.750717 0l0 -13.359375l1.765625 0l0 13.359375l-1.765625 0zm14.417679 -4.6875l1.765625 0.453125q-0.5625 2.171875 -2.0 3.328125q-1.4375 1.140625 -3.53125 1.140625q-2.15625 0 -3.515625 -0.875q-1.34375 -0.890625 -2.0625 -2.546875q-0.703125 -1.671875 -0.703125 -3.59375q0 -2.078125 0.796875 -3.625q0.796875 -1.5625 2.265625 -2.359375q1.484375 -0.8125 3.25 -0.8125q2.0 0 3.359375 1.015625q1.375 1.015625 1.90625 2.875l-1.734375 0.40625q-0.46875 -1.453125 -1.359375 -2.109375q-0.875 -0.671875 -2.203125 -0.671875q-1.546875 0 -2.578125 0.734375q-1.03125 0.734375 -1.453125 1.984375q-0.421875 1.234375 -0.421875 2.5625q0 1.703125 0.5 2.96875q0.5 1.265625 1.546875 1.90625q1.046875 0.625 2.265625 0.625q1.484375 0 2.515625 -0.859375q1.03125 -0.859375 1.390625 -2.546875zm2.4729462 4.6875l5.125 -13.359375l1.90625 0l5.46875 13.359375l-2.015625 0l-1.546875 -4.046875l-5.59375 0l-1.46875 4.046875l-1.875 0zm3.859375 -5.484375l4.53125 0l-1.40625 -3.703125q-0.625 -1.6875 -0.9375 -2.765625q-0.265625 1.28125 -0.71875 2.546875l-1.46875 3.921875zm12.073776 5.484375l0 -11.78125l-4.40625 0l0 -1.578125l10.578125 0l0 1.578125l-4.40625 0l0 11.78125l-1.765625 0zm8.286606 0l0 -13.359375l1.765625 0l0 13.359375l-1.765625 0zm4.355179 -6.5q0 -3.328125 1.78125 -5.203125q1.78125 -1.890625 4.609375 -1.890625q1.84375 0 3.328125 0.890625q1.484375 0.875 2.265625 2.46875q0.78125 1.578125 0.78125 3.578125q0 2.03125 -0.828125 3.640625q-0.8125 1.59375 -2.3125 2.421875q-1.5 0.828125 -3.25 0.828125q-1.875 0 -3.359375 -0.90625q-1.484375 -0.921875 -2.25 -2.5q-0.765625 -1.578125 -0.765625 -3.328125zm1.8125 0.015625q0 2.421875 1.296875 3.8125q1.296875 1.390625 3.265625 1.390625q2.0 0 3.28125 -1.40625q1.28125 -1.40625 1.28125 -3.984375q0 -1.625 -0.546875 -2.84375q-0.546875 -1.21875 -1.609375 -1.875q-1.0625 -0.671875 -2.375 -0.671875q-1.890625 0 -3.25 1.296875q-1.34375 1.28125 -1.34375 4.28125zm13.214554 6.484375l0 -13.359375l1.8125 0l7.015625 10.484375l0 -10.484375l1.6875 0l0 13.359375l-1.8125 0l-7.015625 -10.5l0 10.5l-1.6875 0zm12.894821 -4.296875l1.65625 -0.140625q0.125 1.0 0.546875 1.640625q0.4375 0.640625 1.34375 1.046875q0.921875 0.390625 2.0625 0.390625q1.0 0 1.78125 -0.296875q0.78125 -0.296875 1.15625 -0.8125q0.375 -0.53125 0.375 -1.15625q0 -0.625 -0.375 -1.09375q-0.359375 -0.46875 -1.1875 -0.796875q-0.546875 -0.203125 -2.390625 -0.640625q-1.828125 -0.453125 -2.5625 -0.84375q-0.96875 -0.5 -1.4375 -1.234375q-0.46875 -0.75 -0.46875 -1.671875q0 -1.0 0.578125 -1.875q0.578125 -0.890625 1.671875 -1.34375q1.109375 -0.453125 2.453125 -0.453125q1.484375 0 2.609375 0.484375q1.140625 0.46875 1.75 1.40625q0.609375 0.921875 0.65625 2.09375l-1.6875 0.125q-0.140625 -1.265625 -0.9375 -1.90625q-0.78125 -0.65625 -2.3125 -0.65625q-1.609375 0 -2.34375 0.59375q-0.734375 0.59375 -0.734375 1.421875q0 0.71875 0.53125 1.171875q0.5 0.46875 2.65625 0.96875q2.15625 0.484375 2.953125 0.84375q1.171875 0.53125 1.71875 1.359375q0.5625 0.828125 0.5625 1.90625q0 1.0625 -0.609375 2.015625q-0.609375 0.9375 -1.75 1.46875q-1.140625 0.515625 -2.578125 0.515625q-1.8125 0 -3.046875 -0.53125q-1.21875 -0.53125 -1.921875 -1.59375q-0.6875 -1.0625 -0.71875 -2.40625z" fill-rule="nonzero"/><path fill="#76a5af" d="m126.07743 211.59317l76.661415 0l0 -70.092926l-24.36377 -24.363762l-52.297646 0z" fill-rule="evenodd"/><path fill="#5e838b" d="m178.37508 117.13648l4.872757 19.49102l19.491013 4.8727417z" fill-rule="evenodd"/><path fill="#000000" fill-opacity="0.0" d="m178.37508 117.13648l4.872757 19.49102l19.491013 4.8727417l-24.36377 -24.363762l-52.297646 0l0 94.45669l76.661415 0l0 -70.092926" fill-rule="evenodd"/><path stroke="#45818e" stroke-width="1.0" stroke-linejoin="round" stroke-linecap="butt" d="m178.37508 117.13648l4.872757 19.49102l19.491013 4.8727417l-24.36377 -24.363762l-52.297646 0l0 94.45669l76.661415 0l0 -70.092926" fill-rule="evenodd"/><path fill="#000000" fill-opacity="0.0" d="m126.09055 166.22572l76.661415 0l0 42.015747l-76.661415 0z" fill-rule="evenodd"/><path fill="#000000" d="m139.76242 193.30197q-1.171875 0 -2.0625 -0.5625q-0.875 -0.578125 -1.375 -1.578125q-0.5 -1.0 -0.5 -2.28125q0 -1.3125 0.5 -2.3125q0.5 -1.0 1.375 -1.5625q0.890625 -0.578125 2.0625 -0.578125q1.15625 0 2.03125 0.578125q0.890625 0.5625 1.390625 1.5625q0.5 1.0 0.5 2.3125q0 1.28125 -0.5 2.28125q-0.5 1.0 -1.390625 1.578125q-0.875 0.5625 -2.03125 0.5625zm0 -1.125q0.734375 0 1.296875 -0.421875q0.5625 -0.4375 0.890625 -1.1875q0.328125 -0.75 0.328125 -1.71875q0 -0.96875 -0.328125 -1.703125q-0.328125 -0.75 -0.890625 -1.171875q-0.5625 -0.421875 -1.296875 -0.421875q-0.734375 0 -1.3125 0.421875q-0.5625 0.421875 -0.890625 1.171875q-0.328125 0.734375 -0.328125 1.703125q0 0.96875 0.328125 1.71875q0.328125 0.75 0.890625 1.1875q0.578125 0.421875 1.3125 0.421875zm9.625 1.171875q-0.53125 0 -1.0 -0.15625q-0.46875 -0.15625 -0.84375 -0.453125q-0.375 -0.296875 -0.6875 -0.71875l-0.453125 1.125l-0.859375 0l0 -12.40625l1.34375 0l0.1875 0l0 0.125q-0.125 0.125 -0.15625 0.25q-0.015625 0.125 -0.015625 0.453125l0 4.359375q0.203125 -0.34375 0.484375 -0.609375q0.28125 -0.28125 0.609375 -0.484375q0.34375 -0.21875 0.71875 -0.3125q0.375 -0.109375 0.71875 -0.109375q0.78125 0 1.421875 0.28125q0.65625 0.265625 1.109375 0.8125q0.46875 0.546875 0.71875 1.375q0.265625 0.8125 0.265625 1.921875q0 1.140625 -0.3125 2.0q-0.296875 0.84375 -0.8125 1.421875q-0.5 0.5625 -1.140625 0.84375q-0.625 0.28125 -1.296875 0.28125l0 0zm-0.171875 -1.1875q0.453125 0 0.859375 -0.171875q0.421875 -0.171875 0.75 -0.546875q0.34375 -0.390625 0.53125 -1.015625q0.203125 -0.640625 0.203125 -1.546875q0 -0.84375 -0.171875 -1.46875q-0.15625 -0.625 -0.46875 -1.03125q-0.3125 -0.421875 -0.75 -0.609375q-0.421875 -0.203125 -0.921875 -0.203125q-0.6875 0 -1.21875 0.421875q-0.53125 0.421875 -0.828125 1.1875q-0.296875 0.75 -0.296875 1.734375q0 0.734375 0.125 1.328125q0.140625 0.59375 0.40625 1.03125q0.265625 0.421875 0.703125 0.65625q0.4375 0.234375 1.078125 0.234375l0 0zm8.15625 4.234375q-0.8125 0 -1.53125 -0.296875q-0.71875 -0.296875 -1.203125 -0.90625l0.75 -1.0l0.109375 -0.15625l0.109375 0.078125q0.046875 0.15625 0.09375 0.296875q0.0625 0.140625 0.265625 0.359375q0.265625 0.203125 0.609375 0.328125q0.34375 0.140625 0.765625 0.140625q0.5625 0 1.0 -0.265625q0.4375 -0.25 0.671875 -0.78125q0.25 -0.53125 0.25 -1.375l0 -7.09375l-3.171875 0l0 -1.109375l4.546875 0l0 8.125q0 1.28125 -0.453125 2.09375q-0.453125 0.8125 -1.1875 1.1875q-0.734375 0.375 -1.625 0.375l0 0zm2.46875 -13.5625q-0.390625 0 -0.671875 -0.28125q-0.28125 -0.28125 -0.28125 -0.671875q0 -0.40625 0.265625 -0.6875q0.28125 -0.28125 0.6875 -0.28125q0.390625 0 0.671875 0.296875q0.296875 0.28125 0.296875 0.671875q0 0.390625 -0.296875 0.671875q-0.28125 0.28125 -0.671875 0.28125zm8.3125 10.5q-0.9375 0 -1.703125 -0.28125q-0.765625 -0.296875 -1.3125 -0.859375q-0.546875 -0.5625 -0.84375 -1.390625q-0.296875 -0.828125 -0.296875 -1.890625q0 -1.078125 0.296875 -1.921875q0.3125 -0.84375 0.84375 -1.40625q0.53125 -0.578125 1.25 -0.875q0.71875 -0.296875 1.515625 -0.296875q0.734375 0 1.359375 0.25q0.640625 0.234375 1.109375 0.734375q0.46875 0.5 0.734375 1.265625q0.265625 0.75 0.265625 1.796875q0 0.15625 -0.015625 0.3125q0 0.15625 -0.015625 0.3125l-6.0625 0q0.03125 0.8125 0.265625 1.421875q0.25 0.609375 0.640625 1.0q0.390625 0.375 0.90625 0.5625q0.515625 0.1875 1.09375 0.1875q0.453125 0 0.84375 -0.09375q0.390625 -0.109375 0.734375 -0.328125q0.34375 -0.21875 0.625 -0.53125l0.75 0.71875q-0.359375 0.4375 -0.8125 0.734375q-0.453125 0.296875 -1.0 0.4375q-0.546875 0.140625 -1.171875 0.140625zm-2.828125 -5.296875l4.6875 0q0 -0.59375 -0.15625 -1.0625q-0.15625 -0.484375 -0.453125 -0.828125q-0.28125 -0.34375 -0.6875 -0.515625q-0.390625 -0.1875 -0.90625 -0.1875q-0.4375 0 -0.84375 0.15625q-0.40625 0.140625 -0.75 0.46875q-0.328125 0.328125 -0.5625 0.8125q-0.234375 0.484375 -0.328125 1.15625zm12.390625 5.3125q-0.921875 0 -1.71875 -0.328125q-0.78125 -0.34375 -1.359375 -0.9375q-0.5625 -0.59375 -0.875 -1.40625q-0.3125 -0.8125 -0.3125 -1.78125q0 -0.953125 0.3125 -1.765625q0.3125 -0.8125 0.875 -1.40625q0.578125 -0.59375 1.359375 -0.921875q0.796875 -0.34375 1.703125 -0.34375q1.046875 0 1.875 0.421875q0.828125 0.40625 1.359375 1.15625l-0.84375 0.828125l-0.125 0.125l-0.09375 -0.09375q0 -0.15625 -0.078125 -0.28125q-0.0625 -0.125 -0.28125 -0.359375q-0.40625 -0.359375 -0.875 -0.515625q-0.46875 -0.15625 -1.078125 -0.15625q-0.546875 0 -1.03125 0.234375q-0.484375 0.21875 -0.875 0.640625q-0.375 0.421875 -0.609375 1.015625q-0.21875 0.59375 -0.21875 1.328125q0 0.71875 0.21875 1.328125q0.234375 0.609375 0.625 1.0625q0.390625 0.4375 0.9375 0.703125q0.546875 0.25 1.1875 0.25q0.4375 0 0.828125 -0.125q0.390625 -0.125 0.734375 -0.359375q0.359375 -0.234375 0.65625 -0.5625l0.78125 0.90625q-0.625 0.671875 -1.40625 1.015625q-0.765625 0.328125 -1.671875 0.328125l0 0zm9.59375 -0.078125q-0.828125 0 -1.34375 -0.265625q-0.515625 -0.28125 -0.796875 -0.875q-0.28125 -0.59375 -0.375 -1.484375q-0.078125 -0.890625 -0.046875 -2.125l0.234375 -6.078125l1.390625 -0.171875l0.1875 -0.015625l0.015625 0.125q-0.09375 0.125 -0.15625 0.265625q-0.0625 0.125 -0.09375 0.4375l-0.171875 2.109375l0.0625 0.34375l-0.140625 3.078125q-0.046875 1.421875 0.078125 2.203125q0.125 0.765625 0.453125 1.0625q0.34375 0.28125 0.90625 0.28125q0.625 0 1.09375 -0.234375q0.46875 -0.25 1.0 -0.625l0.40625 1.0625q-0.625 0.46875 -1.296875 0.6875q-0.671875 0.21875 -1.40625 0.21875l0 0zm-4.265625 -8.65625l6.125 0l0 1.109375l-6.125 0l0 -1.109375z" fill-rule="nonzero"/><path fill="#76a5af" d="m579.1389 356.755l43.6817 0l0 -39.938965l-13.882507 -13.882446l-29.799194 0z" fill-rule="evenodd"/><path fill="#5e838b" d="m608.9381 302.9336l2.7764893 11.105957l11.106018 2.7764893z" fill-rule="evenodd"/><path fill="#000000" fill-opacity="0.0" d="m608.9381 302.9336l2.7764893 11.105957l11.106018 2.7764893l-13.882507 -13.882446l-29.799194 0l0 53.82141l43.6817 0l0 -39.938965" fill-rule="evenodd"/><path stroke="#45818e" stroke-width="1.0" stroke-linejoin="round" stroke-linecap="butt" d="m608.9381 302.9336l2.7764893 11.105957l11.106018 2.7764893l-13.882507 -13.882446l-29.799194 0l0 53.82141l43.6817 0l0 -39.938965" fill-rule="evenodd"/><path fill="#000000" fill-opacity="0.0" d="m579.1464 330.90463l43.68164 0l0 29.091187l-43.68164 0z" fill-rule="evenodd"/><path fill="#000000" d="m590.1464 347.64713q-0.5 0 -0.875 -0.234375q-0.375 -0.25 -0.59375 -0.671875q-0.21875 -0.4375 -0.21875 -0.984375q0 -0.5625 0.21875 -0.984375q0.21875 -0.4375 0.59375 -0.671875q0.375 -0.25 0.875 -0.25q0.5 0 0.875 0.25q0.375 0.234375 0.59375 0.671875q0.21875 0.421875 0.21875 0.984375q0 0.546875 -0.21875 0.984375q-0.21875 0.421875 -0.59375 0.671875q-0.375 0.234375 -0.875 0.234375zm0 -0.484375q0.3125 0 0.546875 -0.171875q0.25 -0.1875 0.390625 -0.5q0.140625 -0.328125 0.140625 -0.75q0 -0.40625 -0.140625 -0.71875q-0.140625 -0.328125 -0.390625 -0.5q-0.234375 -0.1875 -0.546875 -0.1875q-0.3125 0 -0.5625 0.1875q-0.234375 0.171875 -0.375 0.5q-0.140625 0.3125 -0.140625 0.71875q0 0.421875 0.140625 0.75q0.140625 0.3125 0.375 0.5q0.25 0.171875 0.5625 0.171875zm4.124939 0.515625q-0.21875 0 -0.421875 -0.078125q-0.203125 -0.0625 -0.375 -0.1875q-0.15625 -0.125 -0.28125 -0.3125l-0.203125 0.484375l-0.359375 0l0 -5.3125l0.578125 0l0.078125 0l0 0.046875q-0.046875 0.046875 -0.0625 0.109375q-0.015625 0.046875 -0.015625 0.1875l0 1.875q0.09375 -0.140625 0.203125 -0.265625q0.125 -0.125 0.265625 -0.203125q0.15625 -0.09375 0.3125 -0.140625q0.15625 -0.046875 0.3125 -0.046875q0.328125 0 0.609375 0.125q0.28125 0.109375 0.46875 0.34375q0.203125 0.234375 0.3125 0.59375q0.109375 0.34375 0.109375 0.828125q0 0.484375 -0.125 0.859375q-0.125 0.359375 -0.359375 0.609375q-0.21875 0.234375 -0.484375 0.359375q-0.265625 0.125 -0.5625 0.125l0 0zm-0.0625 -0.515625q0.1875 0 0.359375 -0.0625q0.1875 -0.078125 0.328125 -0.234375q0.140625 -0.171875 0.21875 -0.4375q0.09375 -0.28125 0.09375 -0.671875q0 -0.359375 -0.078125 -0.625q-0.0625 -0.28125 -0.203125 -0.453125q-0.125 -0.171875 -0.3125 -0.25q-0.1875 -0.09375 -0.390625 -0.09375q-0.296875 0 -0.53125 0.1875q-0.234375 0.171875 -0.359375 0.5q-0.125 0.328125 -0.125 0.75q0 0.3125 0.046875 0.578125q0.0625 0.25 0.171875 0.4375q0.125 0.171875 0.3125 0.28125q0.1875 0.09375 0.46875 0.09375l0 0zm3.484314 1.8125q-0.34375 0 -0.65625 -0.125q-0.296875 -0.125 -0.5 -0.390625l0.3125 -0.421875l0.046875 -0.0625l0.046875 0.03125q0.015625 0.0625 0.03125 0.109375q0.03125 0.0625 0.125 0.171875q0.109375 0.078125 0.25 0.125q0.15625 0.0625 0.34375 0.0625q0.234375 0 0.421875 -0.109375q0.1875 -0.09375 0.296875 -0.328125q0.109375 -0.234375 0.109375 -0.59375l0 -3.046875l-1.359375 0l0 -0.46875l1.9375 0l0 3.484375q0 0.546875 -0.203125 0.890625q-0.1875 0.359375 -0.5 0.515625q-0.3125 0.15625 -0.703125 0.15625l0 0zm1.0625 -5.8125q-0.171875 0 -0.296875 -0.109375q-0.109375 -0.125 -0.109375 -0.296875q0 -0.1875 0.109375 -0.296875q0.125 -0.125 0.296875 -0.125q0.171875 0 0.296875 0.125q0.125 0.125 0.125 0.296875q0 0.171875 -0.125 0.296875q-0.125 0.109375 -0.296875 0.109375zm3.5625 4.5q-0.390625 0 -0.71875 -0.125q-0.328125 -0.125 -0.578125 -0.359375q-0.234375 -0.234375 -0.359375 -0.59375q-0.125 -0.359375 -0.125 -0.8125q0 -0.46875 0.125 -0.828125q0.140625 -0.359375 0.359375 -0.59375q0.234375 -0.25 0.546875 -0.375q0.3125 -0.140625 0.65625 -0.140625q0.3125 0 0.578125 0.109375q0.265625 0.109375 0.46875 0.328125q0.203125 0.203125 0.3125 0.53125q0.125 0.328125 0.125 0.765625q0 0.078125 -0.015625 0.140625q0 0.0625 0 0.125l-2.609375 0q0.015625 0.359375 0.125 0.625q0.109375 0.25 0.265625 0.421875q0.171875 0.15625 0.390625 0.234375q0.21875 0.078125 0.46875 0.078125q0.203125 0 0.359375 -0.03125q0.171875 -0.046875 0.3125 -0.140625q0.15625 -0.09375 0.28125 -0.234375l0.3125 0.3125q-0.15625 0.1875 -0.359375 0.3125q-0.1875 0.125 -0.421875 0.1875q-0.21875 0.0625 -0.5 0.0625zm-1.203125 -2.265625l2.0 0q0 -0.265625 -0.0625 -0.46875q-0.0625 -0.203125 -0.1875 -0.34375q-0.125 -0.15625 -0.296875 -0.21875q-0.171875 -0.078125 -0.390625 -0.078125q-0.1875 0 -0.359375 0.0625q-0.171875 0.0625 -0.328125 0.203125q-0.140625 0.140625 -0.234375 0.34375q-0.09375 0.203125 -0.140625 0.5zm5.312439 2.28125q-0.40625 0 -0.75 -0.140625q-0.328125 -0.15625 -0.578125 -0.40625q-0.234375 -0.265625 -0.375 -0.609375q-0.125 -0.34375 -0.125 -0.765625q0 -0.40625 0.125 -0.75q0.140625 -0.34375 0.375 -0.59375q0.25 -0.265625 0.578125 -0.40625q0.34375 -0.15625 0.734375 -0.15625q0.453125 0 0.8125 0.1875q0.359375 0.171875 0.578125 0.5l-0.359375 0.34375l-0.0625 0.0625l-0.03125 -0.046875q0 -0.0625 -0.03125 -0.109375q-0.03125 -0.0625 -0.125 -0.15625q-0.171875 -0.15625 -0.375 -0.21875q-0.203125 -0.0625 -0.46875 -0.0625q-0.234375 0 -0.4375 0.09375q-0.203125 0.09375 -0.375 0.28125q-0.15625 0.171875 -0.25 0.4375q-0.09375 0.25 -0.09375 0.5625q0 0.3125 0.09375 0.578125q0.09375 0.25 0.25 0.453125q0.171875 0.1875 0.40625 0.296875q0.25 0.09375 0.515625 0.09375q0.1875 0 0.34375 -0.046875q0.171875 -0.046875 0.328125 -0.140625q0.15625 -0.109375 0.28125 -0.25l0.328125 0.390625q-0.265625 0.28125 -0.609375 0.4375q-0.328125 0.140625 -0.703125 0.140625l0 0zm4.109314 -0.03125q-0.34375 0 -0.578125 -0.125q-0.21875 -0.125 -0.34375 -0.375q-0.109375 -0.25 -0.15625 -0.625q-0.03125 -0.390625 -0.015625 -0.921875l0.09375 -2.609375l0.59375 -0.0625l0.09375 -0.015625l0 0.0625q-0.03125 0.046875 -0.0625 0.109375q-0.03125 0.046875 -0.046875 0.1875l-0.078125 0.90625l0.03125 0.140625l-0.0625 1.328125q-0.015625 0.59375 0.03125 0.9375q0.0625 0.328125 0.203125 0.453125q0.140625 0.125 0.390625 0.125q0.265625 0 0.46875 -0.09375q0.203125 -0.109375 0.421875 -0.28125l0.171875 0.453125q-0.265625 0.203125 -0.5625 0.3125q-0.28125 0.09375 -0.59375 0.09375l0 0zm-1.828125 -3.71875l2.625 0l0 0.46875l-2.625 0l0 -0.46875z" fill-rule="nonzero"/></g></svg>