<?xml version="1.0" encoding="UTF-8" standalone="no"?>
<!-- Generator: Adobe Illustrator 26.0.0, SVG Export Plug-In . SVG Version: 6.00 Build 0)  -->

<svg
   version="1.1"
   id="Capa_1"
   x="0px"
   y="0px"
   viewBox="0 0 1920 1078.6"
   style="enable-background:new 0 0 1920 1078.6;"
   xml:space="preserve"
   sodipodi:docname="active-passive-oneway-replication.svg"
   inkscape:version="1.1.1 (3bf5ae0d25, 2021-09-20)"
   xmlns:inkscape="http://www.inkscape.org/namespaces/inkscape"
   xmlns:sodipodi="http://sodipodi.sourceforge.net/DTD/sodipodi-0.dtd"
   xmlns="http://www.w3.org/2000/svg"
   xmlns:svg="http://www.w3.org/2000/svg"><defs
   id="defs539" /><sodipodi:namedview
   id="namedview537"
   pagecolor="#ffffff"
   bordercolor="#666666"
   borderopacity="1.0"
   inkscape:pageshadow="2"
   inkscape:pageopacity="0.0"
   inkscape:pagecheckerboard="0"
   showgrid="false"
   inkscape:zoom="0.66660487"
   inkscape:cx="648.81014"
   inkscape:cy="538.54992"
   inkscape:window-width="1920"
   inkscape:window-height="1131"
   inkscape:window-x="0"
   inkscape:window-y="0"
   inkscape:window-maximized="1"
   inkscape:current-layer="Capa_1" />
<style
   type="text/css"
   id="style2">
	.st0{fill:#2680AF;}
	.st1{fill:#F9F9F9;stroke:#C1C1C1;stroke-width:5;stroke-miterlimit:10;}
	.st2{fill:#434343;}
	.st3{fill:#F5F5F5;}
	.st4{fill:#FFFFFF;stroke:#434343;stroke-width:2;stroke-miterlimit:10;}
	.st5{fill:#C83B51;}
	.st6{fill:#FFFFFF;}
	.st7{opacity:9.000000e-02;fill:#2680AF;enable-background:new    ;}
	.st8{fill:url(#SVGID_1_);}
	.st9{fill:url(#SVGID_00000068645082824146626650000007044912814285524142_);}
	.st10{fill:#F9F9F9;stroke:#C1C1C1;stroke-miterlimit:10;stroke-dasharray:7;}
	.st11{fill:#7FC63C;}
	.st12{fill:#D88A3D;}
</style>
<path
   class="st0"
   d="M-8357.1-1661.6v206.8h3.9c1.2,0,1.8,1.4,0.9,2.3l-4.9,4.9c-0.5,0.5-1.4,0.5-1.9,0l-4.9-4.9  c-0.8-0.8-0.2-2.3,0.9-2.3h4v-206.8H-8357.1z"
   id="path4" />
<g
   id="g24">
	<path
   class="st1"
   d="M883.6,507.7c-24.9,0-45.1-20.2-45.1-45.1s20.2-45.1,45.1-45.1c2.5,0,4.8,0.2,7.1,0.6   c7.5-25,30.7-43.4,58.2-43.4c33.5,0,60.7,27.2,60.7,60.7c0,0.9,0,1.9-0.1,2.9c4.8-2.2,10.1-3.4,15.7-3.4   c20.8,0,37.6,16.8,37.6,37.6S1046,510,1025.2,510L883.6,507.7z"
   id="path6" />
	<g
   id="g22">
		<path
   class="st2"
   d="M907.8,469.7h-3.9l-10.5-13.9v13.9h-4.2v-20.8h3.9l10.5,13.9v-13.9h4.2V469.7L907.8,469.7z"
   id="path8" />
		<path
   class="st2"
   d="M925.5,462.5c0,0.4,0,1-0.1,1.3h-10.2c0.4,2.1,1.9,3,3.7,3c1.3,0,2.6-0.5,3.6-1.4l2.3,2.5    c-1.6,1.5-3.7,2.2-6.1,2.2c-4.4,0-7.5-3-7.5-7.6c0-4.5,3-7.6,7.3-7.6C922.7,454.9,925.5,458,925.5,462.5z M915.3,461.2h6.4    c-0.3-1.9-1.4-2.9-3.1-2.9C916.7,458.3,915.7,459.4,915.3,461.2z"
   id="path10" />
		<path
   class="st2"
   d="M939,458.7h-5.2v5.3c0,1.8,0.9,2.5,2.1,2.5c0.9,0,2-0.4,2.7-0.9l1.4,3.1c-1.3,0.8-2.7,1.5-4.8,1.5    c-3.6,0-5.3-2-5.3-5.8v-5.6h-2.8v-3.5h2.8V451h3.9v4.2h5.2L939,458.7L939,458.7z"
   id="path12" />
		<path
   class="st2"
   d="M958.4,465.5l3.1-10.1h4.1l-4.8,14.4h-4.4l-3.2-9.8l-3.1,9.8h-4.4l-4.8-14.4h4.2l3.1,10l3.2-10h4.1    L958.4,465.5z"
   id="path14" />
		<path
   class="st2"
   d="M982.4,462.6c0,4.3-3.3,7.6-7.8,7.6c-4.5,0-7.8-3.2-7.8-7.6c0-4.3,3.3-7.6,7.8-7.6    C979.1,454.9,982.4,458.2,982.4,462.6z M970.7,462.6c0,2.4,1.6,4,3.8,4s3.8-1.6,3.8-4s-1.6-4-3.8-4S970.7,460.2,970.7,462.6z"
   id="path16" />
		<path
   class="st2"
   d="M995.3,455.3l-0.6,3.8c-0.7-0.3-1.5-0.4-2.4-0.4c-1.8,0-3.1,1.1-3.1,3.2v7.8h-3.9v-14.4h3.7v1.5    c0.9-1.4,2.3-2,4.1-2C994.2,454.9,994.8,455.1,995.3,455.3z"
   id="path18" />
		<path
   class="st2"
   d="M1001.9,460.4h1.4l4.1-5.1h4.8l-5.7,6.8l5.7,7.6h-4.8l-4.2-5.9h-1.3v5.9H998v-21.4h3.9V460.4L1001.9,460.4z"
   id="path20" />
	</g>
</g>
<path
   class="st3"
   d="M1521.9,604.8h-260.3c-4.2,0-7.6-3.4-7.6-7.6v-31.8c0-4.2,3.4-7.6,7.6-7.6h260.2c4.2,0,7.6,3.4,7.6,7.6v31.8  C1529.4,601.4,1526,604.8,1521.9,604.8z"
   id="path26" />

<g
   id="g102">
	<path
   class="st4"
   d="M272.2,522H53.5c-6.1,0-11.1-5-11.1-11.1v-81.6c0-6.1,5-11.1,11.1-11.1h218.8c6.1,0,11.1,5,11.1,11.1V511   C283.3,517.1,278.3,522,272.2,522z"
   id="path66" />
	<path
   class="st4"
   d="M281.6,534.8H62.8c-6.1,0-11.1-5-11.1-11.1v-81.6c0-6.1,5-11.1,11.1-11.1h218.8c6.1,0,11.1,5,11.1,11.1v81.6   C292.7,529.8,287.7,534.8,281.6,534.8z"
   id="path68" />
	<path
   class="st4"
   d="M290.9,547.5H72.1c-6.1,0-11.1-5-11.1-11.1v-81.6c0-6.1,5-11.1,11.1-11.1h218.8c6.1,0,11.1,5,11.1,11.1v81.6   C302,542.6,297,547.5,290.9,547.5z"
   id="path70" />
	<g
   id="g100">
		<path
   class="st2"
   d="M121.4,502.9h-3.1l-1.3-3.5h-6.4l-1.3,3.5h-3.1l5.8-14.9h3.6L121.4,502.9z M111.7,496.7h4.3l-2.1-5.8    L111.7,496.7z"
   id="path72" />
		<path
   class="st2"
   d="M133.8,497.8c0,3.1-2.1,5.4-5,5.4c-1.4,0-2.4-0.5-3.1-1.4v5.3h-2.6v-14.5h2.7v1.1c0.7-0.8,1.7-1.4,3.1-1.4    C131.7,492.4,133.8,494.7,133.8,497.8z M125.8,497.8c0,1.6,1.1,2.8,2.6,2.8c1.6,0,2.6-1.3,2.6-2.8c0-1.5-1-2.8-2.6-2.8    C126.8,495,125.8,496.1,125.8,497.8z"
   id="path74" />
		<path
   class="st2"
   d="M146.9,497.8c0,3.1-2.1,5.4-5,5.4c-1.4,0-2.4-0.5-3.1-1.4v5.3h-2.7v-14.5h2.7v1.1c0.7-0.8,1.7-1.4,3.1-1.4    C144.8,492.4,146.9,494.7,146.9,497.8z M138.7,497.8c0,1.6,1.1,2.8,2.6,2.8c1.6,0,2.6-1.3,2.6-2.8c0-1.5-1-2.8-2.6-2.8    C139.8,495,138.7,496.1,138.7,497.8z"
   id="path76" />
		<path
   class="st2"
   d="M151.9,502.9h-2.8v-15.3h2.8V502.9z"
   id="path78" />
		<path
   class="st2"
   d="M157.9,489.3c0,1-0.8,1.8-1.8,1.8s-1.8-0.8-1.8-1.8c0-1,0.8-1.8,1.8-1.8S157.9,488.3,157.9,489.3z     M157.6,502.9h-2.8v-10.3h2.8V502.9z"
   id="path80" />
		<path
   class="st2"
   d="M169.5,494.3l-2,1.7c-0.6-0.7-1.3-1-2.2-1c-1.4,0-2.5,1.1-2.5,2.8s1.1,2.8,2.5,2.8c0.8,0,1.7-0.4,2.2-1l2,1.7    c-0.9,1.3-2.4,2-4.2,2c-3.3,0-5.5-2.3-5.5-5.4s2.2-5.4,5.5-5.4C167.1,492.4,168.5,493.1,169.5,494.3z"
   id="path82" />
		<path
   class="st2"
   d="M181.3,502.9h-2.7v-1.1c-0.7,0.8-1.7,1.4-3.1,1.4c-2.8,0-5-2.3-5-5.4s2.1-5.4,5-5.4c1.4,0,2.4,0.6,3.1,1.4    v-1.1h2.7V502.9z M173.4,497.8c0,1.6,1,2.8,2.6,2.8c1.6,0,2.6-1.2,2.6-2.8c0-1.6-1.1-2.8-2.6-2.8    C174.5,495,173.4,496.2,173.4,497.8z"
   id="path84" />
		<path
   class="st2"
   d="M191.7,495.1H188v3.7c0,1.3,0.7,1.8,1.5,1.8c0.7,0,1.4-0.3,2-0.7l1,2.2c-0.9,0.6-2,1.1-3.4,1.1    c-2.5,0-3.8-1.4-3.8-4.1v-4h-2v-2.5h2v-3.1h2.8v3.1h3.7L191.7,495.1L191.7,495.1z"
   id="path86" />
		<path
   class="st2"
   d="M197.3,489.3c0,1-0.8,1.8-1.8,1.8c-1,0-1.8-0.8-1.8-1.8c0-1,0.8-1.8,1.8-1.8    C196.5,487.5,197.3,488.3,197.3,489.3z M197,502.9h-2.8v-10.3h2.8V502.9z"
   id="path88" />
		<path
   class="st2"
   d="M210.3,497.8c0,3.1-2.4,5.4-5.6,5.4c-3.2,0-5.5-2.3-5.5-5.4s2.4-5.4,5.5-5.4    C207.9,492.4,210.3,494.7,210.3,497.8z M202,497.8c0,1.7,1.2,2.8,2.7,2.8c1.5,0,2.7-1.2,2.7-2.8c0-1.6-1.2-2.8-2.7-2.8    C203.2,495,202,496.1,202,497.8z"
   id="path90" />
		<path
   class="st2"
   d="M222.2,496.4v6.5h-2.8v-5.7c0-1.5-0.8-2.3-2-2.3c-1.2,0-2.2,0.8-2.2,2.3v5.6h-2.8v-10.3h2.7v1.2    c0.8-1.1,1.9-1.5,3.1-1.5C220.6,492.4,222.2,494,222.2,496.4z"
   id="path92" />
		<path
   class="st2"
   d="M237.2,490c-2.7,1.3-4.2,3.9-4.2,6.9c0,3,1.4,5.6,4.2,6.9l-0.8,2.5c-3.7-1.4-6.2-5-6.2-9.3    c0-4.3,2.5-7.9,6.2-9.3L237.2,490z"
   id="path94" />
		<path
   class="st2"
   d="M246.4,495.5c-0.8-0.4-2.1-0.8-3.3-0.8c-1,0-1.6,0.3-1.6,0.9s0.8,0.8,1.7,0.8l0.9,0.2    c2.2,0.3,3.5,1.4,3.5,3.1c0,2.1-1.7,3.5-4.8,3.5c-1.4,0-3.2-0.3-4.6-1.2l1.1-2.1c0.8,0.6,2,1,3.5,1c1.3,0,1.9-0.3,1.9-0.9    c0-0.5-0.5-0.8-1.7-0.9l-0.8-0.1c-2.4-0.3-3.6-1.4-3.6-3.1c0-2.1,1.6-3.4,4.3-3.4c1.6,0,3,0.3,4.3,1L246.4,495.5z"
   id="path96" />
		<path
   class="st2"
   d="M248.9,503.8c2.7-1.3,4.2-3.9,4.2-6.9c0-3-1.4-5.6-4.2-6.9l0.8-2.5c3.7,1.4,6.2,5,6.2,9.3s-2.5,7.9-6.2,9.3    L248.9,503.8z"
   id="path98" />
	</g>
</g>
<g
   id="g176">
	<g
   id="g106">
		<path
   class="st5"
   d="M1520.3,540.4h-257.1c-5.6,0-10.2-4.6-10.2-10.2v-91.6c0-5.6,4.6-10.2,10.2-10.2h257.2    c5.6,0,10.2,4.6,10.2,10.2v91.6C1530.5,535.8,1525.9,540.4,1520.3,540.4z M1263.1,433.6c-2.8,0-5.1,2.3-5.1,5.1v91.6    c0,2.8,2.3,5.1,5.1,5.1h257.2c2.8,0,5.1-2.3,5.1-5.1v-91.7c0-2.8-2.3-5.1-5.1-5.1L1263.1,433.6L1263.1,433.6z"
   id="path104" />
	</g>
	<path
   class="st5"
   d="M1374.6,477.8h-102.2c-2.8,0-5.2-2.3-5.2-5.2v-24.4c0-2.9,2.3-5.2,5.2-5.2h102.2c2.8,0,5.2,2.3,5.2,5.2v24.4   C1379.7,475.5,1377.5,477.8,1374.6,477.8z"
   id="path108" />
	<circle
   class="st6"
   cx="1323.5"
   cy="459.9"
   r="7.1"
   id="circle110" />
	<path
   class="st6"
   d="M1282.3,472.2v-23.4c0-0.3,0.3-0.5,0.5-0.5h4.2c0.3,0,0.5,0.3,0.5,0.5v23.4c0,0.3-0.3,0.5-0.5,0.5h-4.2   C1282.6,472.6,1282.3,472.4,1282.3,472.2z"
   id="path112" />
	<path
   class="st6"
   d="M1291.5,472.2v-23.4c0-0.3,0.3-0.5,0.5-0.5h4.2c0.3,0,0.5,0.3,0.5,0.5v23.4c0,0.3-0.3,0.5-0.5,0.5h-4.2   C1291.7,472.6,1291.5,472.4,1291.5,472.2z"
   id="path114" />
	<path
   class="st6"
   d="M1273.2,472.2v-23.4c0-0.3,0.3-0.5,0.5-0.5h4.2c0.3,0,0.5,0.3,0.5,0.5v23.4c0,0.3-0.3,0.5-0.5,0.5h-4.2   C1273.4,472.6,1273.2,472.4,1273.2,472.2z"
   id="path116" />
	<path
   class="st6"
   d="M1359.7,472.2v-23.4c0-0.3,0.3-0.5,0.5-0.5h4.2c0.3,0,0.5,0.3,0.5,0.5v23.4c0,0.3-0.3,0.5-0.5,0.5h-4.2   C1359.9,472.6,1359.7,472.4,1359.7,472.2z"
   id="path118" />
	<path
   class="st6"
   d="M1368.8,472.2v-23.4c0-0.3,0.3-0.5,0.5-0.5h4.2c0.3,0,0.5,0.3,0.5,0.5v23.4c0,0.3-0.3,0.5-0.5,0.5h-4.2   C1369.1,472.6,1368.8,472.4,1368.8,472.2z"
   id="path120" />
	<path
   class="st6"
   d="M1350.6,472.2v-23.4c0-0.3,0.3-0.5,0.5-0.5h4.2c0.3,0,0.5,0.3,0.5,0.5v23.4c0,0.3-0.3,0.5-0.5,0.5h-4.2   C1350.8,472.6,1350.6,472.4,1350.6,472.2z"
   id="path122" />
	<g
   id="g140">
		<path
   class="st5"
   d="M1374.6,524.5h-102.2c-2.8,0-5.2-2.3-5.2-5.2v-24.4c0-2.9,2.3-5.2,5.2-5.2h102.2c2.8,0,5.2,2.3,5.2,5.2v24.4    C1379.7,522.2,1377.5,524.5,1374.6,524.5z"
   id="path124" />
		<circle
   class="st6"
   cx="1323.5"
   cy="506.6"
   r="7.1"
   id="circle126" />
		<path
   class="st6"
   d="M1282.3,518.8v-23.4c0-0.3,0.3-0.5,0.5-0.5h4.2c0.3,0,0.5,0.3,0.5,0.5v23.4c0,0.3-0.3,0.5-0.5,0.5h-4.2    C1282.6,519.4,1282.3,519.1,1282.3,518.8z"
   id="path128" />
		<path
   class="st6"
   d="M1291.5,518.8v-23.4c0-0.3,0.3-0.5,0.5-0.5h4.2c0.3,0,0.5,0.3,0.5,0.5v23.4c0,0.3-0.3,0.5-0.5,0.5h-4.2    C1291.7,519.4,1291.5,519.1,1291.5,518.8z"
   id="path130" />
		<path
   class="st6"
   d="M1273.2,518.8v-23.4c0-0.3,0.3-0.5,0.5-0.5h4.2c0.3,0,0.5,0.3,0.5,0.5v23.4c0,0.3-0.3,0.5-0.5,0.5h-4.2    C1273.4,519.4,1273.2,519.1,1273.2,518.8z"
   id="path132" />
		<path
   class="st6"
   d="M1359.7,518.8v-23.4c0-0.3,0.3-0.5,0.5-0.5h4.2c0.3,0,0.5,0.3,0.5,0.5v23.4c0,0.3-0.3,0.5-0.5,0.5h-4.2    C1359.9,519.4,1359.7,519.1,1359.7,518.8z"
   id="path134" />
		<path
   class="st6"
   d="M1368.8,518.8v-23.4c0-0.3,0.3-0.5,0.5-0.5h4.2c0.3,0,0.5,0.3,0.5,0.5v23.4c0,0.3-0.3,0.5-0.5,0.5h-4.2    C1369.1,519.4,1368.8,519.1,1368.8,518.8z"
   id="path136" />
		<path
   class="st6"
   d="M1350.6,518.8v-23.4c0-0.3,0.3-0.5,0.5-0.5h4.2c0.3,0,0.5,0.3,0.5,0.5v23.4c0,0.3-0.3,0.5-0.5,0.5h-4.2    C1350.8,519.4,1350.6,519.1,1350.6,518.8z"
   id="path138" />
	</g>
	<path
   class="st5"
   d="M1510.8,477.8h-102.2c-2.8,0-5.2-2.3-5.2-5.2v-24.4c0-2.9,2.3-5.2,5.2-5.2h102.2c2.8,0,5.2,2.3,5.2,5.2v24.4   C1515.9,475.5,1513.7,477.8,1510.8,477.8z"
   id="path142" />
	<circle
   class="st6"
   cx="1459.7"
   cy="459.9"
   r="7.1"
   id="circle144" />
	<path
   class="st6"
   d="M1418.5,472.2v-23.4c0-0.3,0.3-0.5,0.5-0.5h4.2c0.3,0,0.5,0.3,0.5,0.5v23.4c0,0.3-0.3,0.5-0.5,0.5h-4.2   C1418.8,472.6,1418.5,472.4,1418.5,472.2z"
   id="path146" />
	<path
   class="st6"
   d="M1427.7,472.2v-23.4c0-0.3,0.3-0.5,0.5-0.5h4.2c0.3,0,0.5,0.3,0.5,0.5v23.4c0,0.3-0.3,0.5-0.5,0.5h-4.2   C1427.9,472.6,1427.7,472.4,1427.7,472.2z"
   id="path148" />
	<path
   class="st6"
   d="M1409.4,472.2v-23.4c0-0.3,0.3-0.5,0.5-0.5h4.2c0.3,0,0.5,0.3,0.5,0.5v23.4c0,0.3-0.3,0.5-0.5,0.5h-4.2   C1409.6,472.6,1409.4,472.4,1409.4,472.2z"
   id="path150" />
	<path
   class="st6"
   d="M1495.8,472.2v-23.4c0-0.3,0.3-0.5,0.5-0.5h4.2c0.3,0,0.5,0.3,0.5,0.5v23.4c0,0.3-0.3,0.5-0.5,0.5h-4.2   C1496.1,472.6,1495.8,472.4,1495.8,472.2z"
   id="path152" />
	<path
   class="st6"
   d="M1505,472.2v-23.4c0-0.3,0.3-0.5,0.5-0.5h4.2c0.3,0,0.5,0.3,0.5,0.5v23.4c0,0.3-0.3,0.5-0.5,0.5h-4.2   C1505.3,472.6,1505,472.4,1505,472.2z"
   id="path154" />
	<path
   class="st6"
   d="M1486.8,472.2v-23.4c0-0.3,0.3-0.5,0.5-0.5h4.2c0.3,0,0.5,0.3,0.5,0.5v23.4c0,0.3-0.3,0.5-0.5,0.5h-4.2   C1486.9,472.6,1486.8,472.4,1486.8,472.2z"
   id="path156" />
	<g
   id="g174">
		<path
   class="st5"
   d="M1510.8,524.5h-102.2c-2.8,0-5.2-2.3-5.2-5.2v-24.4c0-2.9,2.3-5.2,5.2-5.2h102.2c2.8,0,5.2,2.3,5.2,5.2v24.4    C1515.9,522.2,1513.7,524.5,1510.8,524.5z"
   id="path158" />
		<circle
   class="st6"
   cx="1459.7"
   cy="506.6"
   r="7.1"
   id="circle160" />
		<path
   class="st6"
   d="M1418.5,518.8v-23.4c0-0.3,0.3-0.5,0.5-0.5h4.2c0.3,0,0.5,0.3,0.5,0.5v23.4c0,0.3-0.3,0.5-0.5,0.5h-4.2    C1418.8,519.4,1418.5,519.1,1418.5,518.8z"
   id="path162" />
		<path
   class="st6"
   d="M1427.7,518.8v-23.4c0-0.3,0.3-0.5,0.5-0.5h4.2c0.3,0,0.5,0.3,0.5,0.5v23.4c0,0.3-0.3,0.5-0.5,0.5h-4.2    C1427.9,519.4,1427.7,519.1,1427.7,518.8z"
   id="path164" />
		<path
   class="st6"
   d="M1409.4,518.8v-23.4c0-0.3,0.3-0.5,0.5-0.5h4.2c0.3,0,0.5,0.3,0.5,0.5v23.4c0,0.3-0.3,0.5-0.5,0.5h-4.2    C1409.6,519.4,1409.4,519.1,1409.4,518.8z"
   id="path166" />
		<path
   class="st6"
   d="M1495.8,518.8v-23.4c0-0.3,0.3-0.5,0.5-0.5h4.2c0.3,0,0.5,0.3,0.5,0.5v23.4c0,0.3-0.3,0.5-0.5,0.5h-4.2    C1496.1,519.4,1495.8,519.1,1495.8,518.8z"
   id="path168" />
		<path
   class="st6"
   d="M1505,518.8v-23.4c0-0.3,0.3-0.5,0.5-0.5h4.2c0.3,0,0.5,0.3,0.5,0.5v23.4c0,0.3-0.3,0.5-0.5,0.5h-4.2    C1505.3,519.4,1505,519.1,1505,518.8z"
   id="path170" />
		<path
   class="st6"
   d="M1486.8,518.8v-23.4c0-0.3,0.3-0.5,0.5-0.5h4.2c0.3,0,0.5,0.3,0.5,0.5v23.4c0,0.3-0.3,0.5-0.5,0.5h-4.2    C1486.9,519.4,1486.8,519.1,1486.8,518.8z"
   id="path172" />
	</g>
</g>
<path
   class="st3"
   d="M647,604.8H386.8c-4.2,0-7.6-3.4-7.6-7.6v-31.8c0-4.2,3.4-7.6,7.6-7.6H647c4.2,0,7.6,3.4,7.6,7.6v31.8  C654.6,601.4,651.2,604.8,647,604.8z"
   id="path178" />
<g
   id="g236">
	<path
   class="st2"
   d="M402.7,575.9h1.1v4.2h0.1c0.1-0.2,0.2-0.3,0.3-0.5c0.1-0.2,0.3-0.3,0.4-0.4c0.2-0.1,0.3-0.2,0.6-0.3   s0.5-0.1,0.8-0.1c0.8,0,1.4,0.3,1.8,0.7c0.4,0.5,0.7,1.1,0.7,2v4.6h-1.1v-4.3c0-0.7-0.2-1.1-0.4-1.4c-0.3-0.3-0.7-0.5-1.3-0.5   c-0.3,0-0.4,0-0.7,0.1c-0.2,0.1-0.4,0.2-0.6,0.3c-0.2,0.1-0.3,0.3-0.4,0.4c-0.1,0.2-0.2,0.3-0.2,0.6v4.9h-1.1L402.7,575.9   L402.7,575.9L402.7,575.9z"
   id="path180" />
	<path
   class="st2"
   d="M414.1,586.1c-0.5,0-0.9-0.2-1.2-0.4c-0.3-0.3-0.3-0.7-0.3-1.2v-4.5h-2.4V579h1.8c0.3,0,0.4-0.1,0.5-0.2   c0.1-0.1,0.2-0.3,0.2-0.5v-1.9h1v2.5h3.2v0.9h-3.2v5.2h3.2v0.9L414.1,586.1L414.1,586.1L414.1,586.1z"
   id="path182" />
	<path
   class="st2"
   d="M422.3,586.1c-0.5,0-0.9-0.2-1.2-0.4c-0.3-0.3-0.3-0.7-0.3-1.2v-4.5h-2.4V579h1.8c0.3,0,0.4-0.1,0.5-0.2   c0.1-0.1,0.2-0.3,0.2-0.5v-1.9h1v2.5h3.2v0.9h-3.2v5.2h3.2v0.9L422.3,586.1L422.3,586.1z"
   id="path184" />
	<path
   class="st2"
   d="M427.4,578.9h1.1v1.2h0.1c0.4-0.8,1.2-1.3,2.2-1.3c0.8,0,1.5,0.3,2,0.9c0.5,0.7,0.8,1.5,0.8,2.7   c0,1.2-0.3,2.1-0.8,2.7c-0.5,0.6-1.2,0.9-2,0.9c-1,0-1.7-0.4-2.2-1.3h-0.1v3.9h-1.1V578.9z M430.4,585.2c0.7,0,1.1-0.2,1.5-0.6   c0.3-0.4,0.5-0.9,0.5-1.5v-1.2c0-0.7-0.2-1.2-0.5-1.5c-0.3-0.3-0.8-0.6-1.5-0.6c-0.3,0-0.5,0-0.7,0.1c-0.3,0.1-0.4,0.2-0.6,0.3   c-0.2,0.1-0.3,0.3-0.4,0.4c-0.2,0.2-0.2,0.4-0.2,0.6v2.5c0,0.3,0.1,0.4,0.2,0.6c0.1,0.2,0.3,0.3,0.4,0.4c0.2,0.1,0.3,0.3,0.6,0.3   C429.9,585.2,430.1,585.2,430.4,585.2z"
   id="path186" />
	<path
   class="st2"
   d="M438.5,586.1c-0.8,0-1.4-0.1-2-0.4c-0.5-0.3-1-0.6-1.4-1l0.8-0.7c0.3,0.3,0.7,0.6,1.1,0.8s0.8,0.3,1.4,0.3   s1-0.1,1.4-0.3s0.5-0.5,0.5-0.9c0-0.2,0-0.3-0.1-0.4c-0.1-0.1-0.2-0.3-0.3-0.3c-0.1-0.1-0.3-0.1-0.4-0.2c-0.2-0.1-0.3-0.1-0.4-0.1   l-1.1-0.2c-0.3,0-0.5-0.1-0.8-0.2c-0.3-0.1-0.6-0.2-0.8-0.3c-0.3-0.2-0.4-0.3-0.6-0.6c-0.2-0.3-0.3-0.5-0.3-0.9   c0-0.3,0.1-0.7,0.2-0.9s0.3-0.5,0.6-0.7s0.6-0.3,0.9-0.4c0.3-0.1,0.8-0.1,1.1-0.1c0.7,0,1.2,0.1,1.7,0.3c0.5,0.3,0.8,0.5,1.2,0.8   l-0.7,0.7c-0.1-0.1-0.2-0.2-0.3-0.3c-0.2-0.1-0.3-0.2-0.4-0.3c-0.2-0.1-0.4-0.2-0.6-0.2c-0.3-0.1-0.5-0.1-0.8-0.1   c-0.6,0-1,0.1-1.3,0.3c-0.3,0.2-0.4,0.5-0.4,0.8c0,0.2,0,0.3,0.1,0.4s0.2,0.3,0.3,0.3c0.1,0.1,0.3,0.1,0.4,0.2   c0.2,0,0.3,0.1,0.4,0.1l1.1,0.2c0.3,0,0.5,0.1,0.8,0.2c0.3,0.1,0.5,0.2,0.8,0.3c0.3,0.2,0.4,0.3,0.6,0.6c0.2,0.3,0.3,0.5,0.3,0.9   c0,0.7-0.3,1.3-0.8,1.6C440.1,585.8,439.5,586.1,438.5,586.1z"
   id="path188" />
	<path
   class="st2"
   d="M446.7,580.7c-0.3,0-0.7-0.1-0.8-0.3s-0.3-0.3-0.3-0.6v-0.3c0-0.3,0.1-0.4,0.3-0.6s0.4-0.3,0.8-0.3   s0.7,0.1,0.8,0.3c0.1,0.2,0.3,0.3,0.3,0.6v0.3c0,0.3-0.1,0.4-0.3,0.6C447.4,580.6,447.1,580.7,446.7,580.7z M446.7,586.1   c-0.3,0-0.7-0.1-0.8-0.3s-0.3-0.3-0.3-0.6V585c0-0.3,0.1-0.4,0.3-0.6s0.4-0.3,0.8-0.3s0.7,0.1,0.8,0.3c0.1,0.2,0.3,0.3,0.3,0.6v0.3   c0,0.3-0.1,0.4-0.3,0.6C447.3,586.1,447.1,586.1,446.7,586.1z"
   id="path190" />
	<path
   class="st2"
   d="M452.1,587.9l4.8-12.3h1l-4.8,12.3H452.1z"
   id="path192" />
	<path
   class="st2"
   d="M460.3,587.9l4.8-12.3h1l-4.8,12.3H460.3z"
   id="path194" />
	<path
   class="st2"
   d="M468.1,586.1v-7.1h1v0.8h0.1c0.1-0.3,0.3-0.5,0.4-0.7c0.2-0.2,0.5-0.3,0.8-0.3c0.4,0,0.7,0.1,0.9,0.3   c0.2,0.2,0.3,0.5,0.3,0.8l0,0c0.2-0.3,0.3-0.6,0.6-0.8s0.6-0.3,1-0.3c0.6,0,0.9,0.2,1.2,0.6c0.2,0.4,0.3,0.9,0.3,1.7v4.9h-1v-4.8   c0-0.6-0.1-1-0.2-1.3c-0.1-0.3-0.3-0.3-0.7-0.3c-0.3,0-0.5,0.1-0.7,0.3c-0.2,0.2-0.3,0.5-0.3,0.8v5.2h-1v-4.8c0-0.6-0.1-1-0.2-1.3   c-0.1-0.3-0.3-0.3-0.7-0.3c-0.3,0-0.5,0.1-0.7,0.3s-0.3,0.5-0.3,0.8v5.2L468.1,586.1L468.1,586.1z"
   id="path196" />
	<path
   class="st2"
   d="M477,585h2.5v-5.2H477v-0.9h3.6v6.1h2.4v0.9h-6V585L477,585z M480.1,577.4c-0.3,0-0.5-0.1-0.7-0.2   c-0.2-0.2-0.2-0.3-0.2-0.5v-0.3c0-0.2,0.1-0.3,0.2-0.5c0.2-0.2,0.3-0.2,0.7-0.2s0.5,0.1,0.7,0.2c0.2,0.2,0.2,0.3,0.2,0.5v0.3   c0,0.2-0.1,0.3-0.2,0.5C480.6,577.3,480.5,577.4,480.1,577.4z"
   id="path198" />
	<path
   class="st2"
   d="M485.1,586.1v-7.1h1.1v1.2h0.1c0.1-0.2,0.2-0.3,0.3-0.5c0.1-0.2,0.3-0.3,0.4-0.4c0.2-0.1,0.3-0.2,0.6-0.3   c0.3-0.1,0.5-0.1,0.8-0.1c0.8,0,1.4,0.3,1.8,0.7c0.4,0.5,0.7,1.1,0.7,2v4.6h-1.1v-4.3c0-0.7-0.2-1.1-0.4-1.4   c-0.3-0.3-0.7-0.5-1.3-0.5c-0.3,0-0.4,0-0.7,0.1c-0.2,0.1-0.4,0.2-0.6,0.3c-0.2,0.1-0.3,0.3-0.4,0.4c-0.1,0.2-0.2,0.3-0.2,0.6v4.9   L485.1,586.1L485.1,586.1z"
   id="path200" />
	<path
   class="st2"
   d="M493.4,585h2.5v-5.2h-2.5v-0.9h3.6v6.1h2.4v0.9h-6L493.4,585L493.4,585z M496.6,577.4c-0.3,0-0.5-0.1-0.7-0.2   c-0.2-0.2-0.2-0.3-0.2-0.5v-0.3c0-0.2,0.1-0.3,0.2-0.5c0.2-0.2,0.3-0.2,0.7-0.2s0.5,0.1,0.7,0.2c0.2,0.2,0.2,0.3,0.2,0.5v0.3   c0,0.2-0.1,0.3-0.2,0.5C497.1,577.3,496.9,577.4,496.6,577.4z"
   id="path202" />
	<path
   class="st2"
   d="M504.4,586.1c-0.5,0-0.9-0.1-1.4-0.3s-0.8-0.4-1-0.8s-0.5-0.7-0.7-1.2c-0.2-0.4-0.3-0.9-0.3-1.5   s0.1-1.1,0.3-1.5s0.3-0.8,0.7-1.2c0.3-0.3,0.6-0.6,1-0.8s0.8-0.3,1.4-0.3c0.5,0,0.9,0.1,1.4,0.3c0.4,0.2,0.8,0.4,1,0.8   c0.3,0.3,0.5,0.7,0.7,1.2c0.2,0.5,0.3,0.9,0.3,1.5s-0.1,1.1-0.3,1.5c-0.2,0.4-0.3,0.8-0.7,1.2c-0.3,0.3-0.6,0.6-1,0.8   C505.3,586.1,504.9,586.1,504.4,586.1z M504.4,585.2c0.6,0,1.1-0.2,1.5-0.5c0.3-0.3,0.6-0.9,0.6-1.7v-1c0-0.8-0.2-1.4-0.6-1.7   c-0.3-0.3-0.8-0.5-1.5-0.5c-0.6,0-1.1,0.2-1.5,0.5c-0.4,0.3-0.6,0.9-0.6,1.7v1c0,0.8,0.2,1.4,0.6,1.7   C503.3,585,503.8,585.2,504.4,585.2z"
   id="path204" />
	<path
   class="st2"
   d="M510.6,582.4v-1.2h4v1.2H510.6z"
   id="path206" />
	<path
   class="st2"
   d="M520.9,586.1c-0.6,0-1.1-0.1-1.5-0.3s-0.8-0.5-1-0.9s-0.5-0.9-0.6-1.5c-0.1-0.6-0.2-1.3-0.2-2.1   c0-0.8,0.1-1.4,0.2-2.1c0.1-0.7,0.3-1.1,0.6-1.5s0.6-0.8,1-0.9s0.9-0.3,1.5-0.3c0.6,0,1.1,0.1,1.5,0.3s0.8,0.5,1,0.9   c0.3,0.4,0.5,0.9,0.6,1.5c0.1,0.6,0.2,1.3,0.2,2.1c0,0.8-0.1,1.5-0.2,2.1c-0.2,0.6-0.3,1.1-0.6,1.5c-0.3,0.4-0.6,0.8-1,0.9   S521.4,586.1,520.9,586.1z M520.9,585.2c0.4,0,0.7-0.1,1-0.3c0.3-0.2,0.5-0.3,0.7-0.7c0.2-0.3,0.3-0.6,0.3-1   c0.1-0.4,0.2-0.8,0.2-1.3v-1.5c0-0.5,0-0.9-0.2-1.3c-0.1-0.4-0.2-0.8-0.3-1c-0.2-0.3-0.4-0.5-0.7-0.7s-0.6-0.3-1-0.3   s-0.7,0.1-1,0.3c-0.3,0.2-0.5,0.3-0.7,0.7c-0.2,0.3-0.3,0.6-0.3,1c-0.1,0.4-0.2,0.8-0.2,1.3v1.5c0,0.5,0,0.9,0.2,1.3   c0.2,0.3,0.2,0.8,0.3,1s0.4,0.5,0.7,0.7C520.2,585.1,520.5,585.2,520.9,585.2z M520.9,582.1c-0.3,0-0.5-0.1-0.7-0.2   c-0.2-0.1-0.2-0.3-0.2-0.4v-0.3c0-0.2,0.1-0.3,0.2-0.4c0.1-0.1,0.3-0.2,0.7-0.2c0.3,0,0.5,0.1,0.7,0.2c0.2,0.1,0.2,0.3,0.2,0.4v0.3   c0,0.2-0.1,0.3-0.2,0.4C521.4,582,521.2,582.1,520.9,582.1z"
   id="path208" />
	<path
   class="st2"
   d="M526.1,586.1v-1h2.7v-7.7h-0.1l-2.4,2.2l-0.7-0.8l2.5-2.4h1.8v8.6h2.5v1L526.1,586.1L526.1,586.1z"
   id="path210" />
	<path
   class="st2"
   d="M537.3,586.1c-0.3,0-0.7-0.1-0.8-0.3c-0.1-0.2-0.3-0.3-0.3-0.6V585c0-0.3,0.1-0.4,0.3-0.6   c0.2-0.2,0.4-0.3,0.8-0.3c0.3,0,0.7,0.1,0.8,0.3c0.1,0.2,0.3,0.3,0.3,0.6v0.3c0,0.3-0.1,0.4-0.3,0.6   C537.9,586.1,537.7,586.1,537.3,586.1z"
   id="path212" />
	<path
   class="st2"
   d="M545.7,586.1c-0.5,0-1-0.1-1.4-0.3c-0.4-0.2-0.8-0.4-1-0.8c-0.3-0.3-0.5-0.7-0.7-1.2c-0.2-0.4-0.3-0.9-0.3-1.5   s0.1-1.1,0.3-1.5c0.2-0.4,0.4-0.8,0.7-1.2c0.3-0.3,0.6-0.6,1-0.8s0.8-0.3,1.4-0.3s0.9,0.1,1.3,0.3c0.3,0.2,0.7,0.4,1,0.8   c0.3,0.3,0.5,0.7,0.6,1.1c0.1,0.4,0.3,0.8,0.3,1.4v0.5h-5.3v0.3c0,0.3,0.1,0.6,0.2,0.8c0.1,0.3,0.3,0.5,0.4,0.7   c0.2,0.2,0.4,0.3,0.7,0.4s0.6,0.2,0.9,0.2c0.5,0,0.8-0.1,1.3-0.3c0.3-0.3,0.6-0.5,0.8-0.9l0.8,0.5c-0.2,0.5-0.6,0.8-1,1.2   C547,586.1,546.4,586.1,545.7,586.1z M545.6,579.7c-0.3,0-0.6,0.1-0.8,0.2c-0.3,0.1-0.5,0.3-0.7,0.4c-0.2,0.2-0.3,0.4-0.4,0.7   s-0.2,0.5-0.2,0.8v0.1h4.1v-0.2c0-0.3-0.1-0.6-0.2-0.8c-0.1-0.3-0.3-0.5-0.4-0.7c-0.2-0.2-0.3-0.3-0.6-0.4   C546.1,579.7,545.9,579.7,545.6,579.7z"
   id="path214" />
	<path
   class="st2"
   d="M550.6,586.1l2.6-3.6l-2.5-3.5h1.3l1.1,1.5l0.8,1.2h0.1l0.8-1.2l1-1.5h1.3l-2.6,3.5l2.6,3.6h-1.3l-1.2-1.7   l-0.8-1.1h-0.1l-0.8,1.1l-1.2,1.7H550.6L550.6,586.1z"
   id="path216" />
	<path
   class="st2"
   d="M564.7,586.1c-0.4,0-0.8-0.1-0.9-0.3c-0.2-0.3-0.3-0.5-0.3-0.8h-0.1c-0.2,0.4-0.4,0.8-0.8,0.9   c-0.3,0.2-0.8,0.3-1.4,0.3c-0.8,0-1.4-0.2-1.8-0.6s-0.7-0.9-0.7-1.6c0-0.7,0.3-1.2,0.7-1.5c0.5-0.3,1.3-0.5,2.3-0.5h1.5v-0.7   c0-0.5-0.2-0.9-0.4-1.2c-0.3-0.3-0.7-0.4-1.3-0.4c-0.5,0-0.8,0.1-1.2,0.3c-0.3,0.2-0.5,0.4-0.8,0.8l-0.8-0.5   c0.1-0.2,0.2-0.3,0.3-0.5c0.2-0.2,0.3-0.3,0.6-0.4c0.3-0.2,0.5-0.3,0.8-0.3c0.3-0.1,0.6-0.1,1-0.1c0.8,0,1.5,0.2,2,0.7   s0.8,1,0.8,1.8v3.9h1v0.9L564.7,586.1L564.7,586.1z M561.4,585.3c0.3,0,0.5,0,0.8-0.1s0.4-0.2,0.6-0.3s0.3-0.3,0.4-0.4   c0.1-0.2,0.2-0.3,0.2-0.5v-1.2h-1.5c-0.7,0-1.1,0.1-1.4,0.3c-0.3,0.2-0.4,0.4-0.4,0.8v0.3c0,0.3,0.2,0.7,0.4,0.8   C560.7,585.2,561,585.3,561.4,585.3z"
   id="path218" />
	<path
   class="st2"
   d="M566.9,586.1v-7.1h1v0.8h0.1c0.1-0.3,0.3-0.5,0.4-0.7c0.2-0.2,0.5-0.3,0.8-0.3c0.4,0,0.7,0.1,0.9,0.3   c0.2,0.2,0.3,0.5,0.3,0.8l0,0c0.2-0.3,0.3-0.6,0.6-0.8c0.3-0.2,0.6-0.3,1-0.3c0.6,0,0.9,0.2,1.2,0.6c0.2,0.4,0.3,0.9,0.3,1.7v4.9   h-1v-4.8c0-0.6-0.1-1-0.2-1.3c-0.1-0.3-0.3-0.3-0.7-0.3c-0.3,0-0.5,0.1-0.7,0.3c-0.2,0.2-0.3,0.5-0.3,0.8v5.2h-1.1v-4.8   c0-0.6-0.1-1-0.2-1.3c-0.1-0.3-0.3-0.3-0.7-0.3c-0.3,0-0.5,0.1-0.7,0.3s-0.3,0.5-0.3,0.8v5.2L566.9,586.1L566.9,586.1z"
   id="path220" />
	<path
   class="st2"
   d="M575.7,578.9h1.1v1.2h0.1c0.4-0.8,1.2-1.3,2.2-1.3c0.8,0,1.5,0.3,2,0.9c0.5,0.7,0.8,1.5,0.8,2.7   c0,1.2-0.3,2.1-0.8,2.7c-0.5,0.6-1.2,0.9-2,0.9c-1,0-1.7-0.4-2.2-1.3h-0.1v3.9h-1.1V578.9z M578.6,585.2c0.7,0,1.1-0.2,1.5-0.6   c0.3-0.4,0.5-0.9,0.5-1.5v-1.2c0-0.7-0.2-1.2-0.5-1.5c-0.3-0.3-0.8-0.6-1.5-0.6c-0.3,0-0.5,0-0.7,0.1c-0.3,0.1-0.4,0.2-0.6,0.3   s-0.3,0.3-0.4,0.4c-0.2,0.2-0.2,0.4-0.2,0.6v2.5c0,0.3,0.1,0.4,0.2,0.6c0.1,0.2,0.3,0.3,0.4,0.4s0.3,0.3,0.6,0.3   C578.1,585.2,578.4,585.2,578.6,585.2z"
   id="path222" />
	<path
   class="st2"
   d="M583.7,585h2.5v-8.2h-2.5v-0.9h3.6v9.2h2.5v0.9h-6V585L583.7,585z"
   id="path224" />
	<path
   class="st2"
   d="M595.1,586.1c-0.5,0-1-0.1-1.4-0.3c-0.4-0.2-0.8-0.4-1-0.8c-0.3-0.3-0.5-0.7-0.7-1.2c-0.2-0.4-0.3-0.9-0.3-1.5   s0.1-1.1,0.3-1.5c0.2-0.4,0.4-0.8,0.7-1.2c0.3-0.3,0.6-0.6,1-0.8s0.8-0.3,1.4-0.3c0.5,0,0.9,0.1,1.3,0.3c0.3,0.2,0.7,0.4,1,0.8   c0.3,0.3,0.5,0.7,0.6,1.1c0.1,0.4,0.3,0.8,0.3,1.4v0.5H593v0.3c0,0.3,0.1,0.6,0.2,0.8c0.1,0.3,0.3,0.5,0.4,0.7   c0.2,0.2,0.4,0.3,0.7,0.4s0.6,0.2,0.9,0.2c0.5,0,0.8-0.1,1.3-0.3c0.3-0.3,0.6-0.5,0.8-0.9l0.8,0.5c-0.2,0.5-0.6,0.8-1,1.2   C596.4,586.1,595.8,586.1,595.1,586.1z M595,579.7c-0.3,0-0.6,0.1-0.8,0.2c-0.3,0.1-0.5,0.3-0.7,0.4c-0.2,0.2-0.3,0.4-0.4,0.7   c-0.1,0.3-0.2,0.5-0.2,0.8v0.1h4.1v-0.2c0-0.3-0.1-0.6-0.2-0.8c-0.1-0.3-0.3-0.5-0.4-0.7c-0.2-0.2-0.3-0.3-0.6-0.4   C595.6,579.7,595.4,579.7,595,579.7z"
   id="path226" />
	<path
   class="st2"
   d="M603.3,586.1c-0.3,0-0.7-0.1-0.8-0.3c-0.1-0.2-0.3-0.3-0.3-0.6V585c0-0.3,0.1-0.4,0.3-0.6   c0.2-0.2,0.4-0.3,0.8-0.3c0.3,0,0.7,0.1,0.8,0.3c0.1,0.2,0.3,0.3,0.3,0.6v0.3c0,0.3-0.1,0.4-0.3,0.6   C603.8,586.1,603.6,586.1,603.3,586.1z"
   id="path228" />
	<path
   class="st2"
   d="M608.7,586.1v-7.1h1.1v1.2h0.1c0.1-0.2,0.2-0.3,0.3-0.5c0.1-0.2,0.3-0.3,0.4-0.4s0.3-0.2,0.6-0.3   c0.3-0.1,0.5-0.1,0.8-0.1c0.8,0,1.4,0.3,1.8,0.7c0.4,0.5,0.7,1.1,0.7,2v4.6h-1.1v-4.3c0-0.7-0.2-1.1-0.4-1.4s-0.7-0.5-1.3-0.5   c-0.3,0-0.4,0-0.7,0.1c-0.2,0.1-0.4,0.2-0.6,0.3s-0.3,0.3-0.4,0.4c-0.1,0.2-0.2,0.3-0.2,0.6v4.9L608.7,586.1L608.7,586.1z"
   id="path230" />
	<path
   class="st2"
   d="M619.8,586.1c-0.5,0-1-0.1-1.4-0.3c-0.4-0.2-0.8-0.4-1-0.8c-0.3-0.3-0.5-0.7-0.7-1.2c-0.2-0.4-0.3-0.9-0.3-1.5   s0.1-1.1,0.3-1.5c0.2-0.4,0.4-0.8,0.7-1.2c0.3-0.3,0.6-0.6,1-0.8s0.8-0.3,1.4-0.3c0.5,0,0.9,0.1,1.3,0.3s0.7,0.4,1,0.8   c0.3,0.3,0.5,0.7,0.6,1.1c0.1,0.4,0.3,0.8,0.3,1.4v0.5h-5.3v0.3c0,0.3,0.1,0.6,0.2,0.8c0.1,0.3,0.3,0.5,0.4,0.7   c0.2,0.2,0.4,0.3,0.7,0.4c0.3,0.1,0.6,0.2,0.9,0.2c0.5,0,0.8-0.1,1.3-0.3c0.3-0.3,0.6-0.5,0.8-0.9l0.8,0.5c-0.2,0.5-0.6,0.8-1,1.2   C621.1,586.1,620.5,586.1,619.8,586.1z M619.7,579.7c-0.3,0-0.6,0.1-0.8,0.2c-0.3,0.1-0.5,0.3-0.7,0.4c-0.2,0.2-0.3,0.4-0.4,0.7   c-0.1,0.3-0.2,0.5-0.2,0.8v0.1h4.1v-0.2c0-0.3-0.1-0.6-0.2-0.8c-0.1-0.3-0.3-0.5-0.4-0.7c-0.2-0.2-0.3-0.3-0.6-0.4   C620.3,579.7,620.1,579.7,619.7,579.7z"
   id="path232" />
	<path
   class="st2"
   d="M628.3,586.1c-0.5,0-0.9-0.2-1.2-0.4c-0.3-0.3-0.3-0.7-0.3-1.2v-4.5h-2.4V579h1.8c0.3,0,0.4-0.1,0.5-0.2   c0.1-0.1,0.2-0.3,0.2-0.5v-1.9h1v2.5h3.2v0.9h-3.2v5.2h3.2v0.9L628.3,586.1L628.3,586.1L628.3,586.1z"
   id="path234" />
</g>
<g
   id="g310">
	<g
   id="g240">
		<path
   class="st5"
   d="M645.4,540.4H388.3c-5.6,0-10.2-4.6-10.2-10.2v-91.6c0-5.6,4.6-10.2,10.2-10.2h257.2    c5.6,0,10.2,4.6,10.2,10.2v91.6C655.6,535.8,651,540.4,645.4,540.4z M388.3,433.6c-2.8,0-5.1,2.3-5.1,5.1v91.6    c0,2.8,2.3,5.1,5.1,5.1h257.2c2.8,0,5.1-2.3,5.1-5.1v-91.7c0-2.8-2.3-5.1-5.1-5.1L388.3,433.6L388.3,433.6z"
   id="path238" />
	</g>
	<path
   class="st5"
   d="M499.7,477.8H397.6c-2.8,0-5.2-2.3-5.2-5.2v-24.4c0-2.9,2.3-5.2,5.2-5.2h102.2c2.8,0,5.2,2.3,5.2,5.2v24.4   C504.9,475.5,502.6,477.8,499.7,477.8z"
   id="path242" />
	<circle
   class="st6"
   cx="448.6"
   cy="459.9"
   r="7.1"
   id="circle244" />
	<path
   class="st6"
   d="M407.5,472.2v-23.4c0-0.3,0.3-0.5,0.5-0.5h4.2c0.3,0,0.5,0.3,0.5,0.5v23.4c0,0.3-0.3,0.5-0.5,0.5H408   C407.7,472.6,407.5,472.4,407.5,472.2z"
   id="path246" />
	<path
   class="st6"
   d="M416.6,472.2v-23.4c0-0.3,0.3-0.5,0.5-0.5h4.2c0.3,0,0.5,0.3,0.5,0.5v23.4c0,0.3-0.3,0.5-0.5,0.5h-4.2   C416.8,472.6,416.6,472.4,416.6,472.2z"
   id="path248" />
	<path
   class="st6"
   d="M398.4,472.2v-23.4c0-0.3,0.3-0.5,0.5-0.5h4.2c0.3,0,0.5,0.3,0.5,0.5v23.4c0,0.3-0.3,0.5-0.5,0.5h-4.2   C398.6,472.6,398.4,472.4,398.4,472.2z"
   id="path250" />
	<path
   class="st6"
   d="M484.9,472.2v-23.4c0-0.3,0.3-0.5,0.5-0.5h4.2c0.3,0,0.5,0.3,0.5,0.5v23.4c0,0.3-0.3,0.5-0.5,0.5h-4.2   C485,472.6,484.9,472.4,484.9,472.2z"
   id="path252" />
	<path
   class="st6"
   d="M494,472.2v-23.4c0-0.3,0.3-0.5,0.5-0.5h4.2c0.3,0,0.5,0.3,0.5,0.5v23.4c0,0.3-0.3,0.5-0.5,0.5h-4.2   C494.2,472.6,494,472.4,494,472.2z"
   id="path254" />
	<path
   class="st6"
   d="M475.7,472.2v-23.4c0-0.3,0.3-0.5,0.5-0.5h4.2c0.3,0,0.5,0.3,0.5,0.5v23.4c0,0.3-0.3,0.5-0.5,0.5h-4.2   C476,472.6,475.7,472.4,475.7,472.2z"
   id="path256" />
	<g
   id="g274">
		<path
   class="st5"
   d="M499.7,524.5H397.6c-2.8,0-5.2-2.3-5.2-5.2v-24.4c0-2.9,2.3-5.2,5.2-5.2h102.2c2.8,0,5.2,2.3,5.2,5.2v24.4    C504.9,522.2,502.6,524.5,499.7,524.5z"
   id="path258" />
		<circle
   class="st6"
   cx="448.6"
   cy="506.6"
   r="7.1"
   id="circle260" />
		<path
   class="st6"
   d="M407.5,518.8v-23.4c0-0.3,0.3-0.5,0.5-0.5h4.2c0.3,0,0.5,0.3,0.5,0.5v23.4c0,0.3-0.3,0.5-0.5,0.5H408    C407.7,519.4,407.5,519.1,407.5,518.8z"
   id="path262" />
		<path
   class="st6"
   d="M416.6,518.8v-23.4c0-0.3,0.3-0.5,0.5-0.5h4.2c0.3,0,0.5,0.3,0.5,0.5v23.4c0,0.3-0.3,0.5-0.5,0.5h-4.2    C416.8,519.4,416.6,519.1,416.6,518.8z"
   id="path264" />
		<path
   class="st6"
   d="M398.4,518.8v-23.4c0-0.3,0.3-0.5,0.5-0.5h4.2c0.3,0,0.5,0.3,0.5,0.5v23.4c0,0.3-0.3,0.5-0.5,0.5h-4.2    C398.6,519.4,398.4,519.1,398.4,518.8z"
   id="path266" />
		<path
   class="st6"
   d="M484.9,518.8v-23.4c0-0.3,0.3-0.5,0.5-0.5h4.2c0.3,0,0.5,0.3,0.5,0.5v23.4c0,0.3-0.3,0.5-0.5,0.5h-4.2    C485,519.4,484.9,519.1,484.9,518.8z"
   id="path268" />
		<path
   class="st6"
   d="M494,518.8v-23.4c0-0.3,0.3-0.5,0.5-0.5h4.2c0.3,0,0.5,0.3,0.5,0.5v23.4c0,0.3-0.3,0.5-0.5,0.5h-4.2    C494.2,519.4,494,519.1,494,518.8z"
   id="path270" />
		<path
   class="st6"
   d="M475.7,518.8v-23.4c0-0.3,0.3-0.5,0.5-0.5h4.2c0.3,0,0.5,0.3,0.5,0.5v23.4c0,0.3-0.3,0.5-0.5,0.5h-4.2    C476,519.4,475.7,519.1,475.7,518.8z"
   id="path272" />
	</g>
	<path
   class="st5"
   d="M635.9,477.8H533.8c-2.8,0-5.2-2.3-5.2-5.2v-24.4c0-2.9,2.3-5.2,5.2-5.2h102.2c2.8,0,5.2,2.3,5.2,5.2v24.4   C641.1,475.5,638.8,477.8,635.9,477.8z"
   id="path276" />
	<circle
   class="st6"
   cx="584.8"
   cy="459.9"
   r="7.1"
   id="circle278" />
	<path
   class="st6"
   d="M543.7,472.2v-23.4c0-0.3,0.3-0.5,0.5-0.5h4.2c0.3,0,0.5,0.3,0.5,0.5v23.4c0,0.3-0.3,0.5-0.5,0.5h-4.2   C543.9,472.6,543.7,472.4,543.7,472.2z"
   id="path280" />
	<path
   class="st6"
   d="M552.8,472.2v-23.4c0-0.3,0.3-0.5,0.5-0.5h4.2c0.3,0,0.5,0.3,0.5,0.5v23.4c0,0.3-0.3,0.5-0.5,0.5h-4.2   C553,472.6,552.8,472.4,552.8,472.2z"
   id="path282" />
	<path
   class="st6"
   d="M534.5,472.2v-23.4c0-0.3,0.3-0.5,0.5-0.5h4.2c0.3,0,0.5,0.3,0.5,0.5v23.4c0,0.3-0.3,0.5-0.5,0.5H535   C534.8,472.6,534.5,472.4,534.5,472.2z"
   id="path284" />
	<path
   class="st6"
   d="M621,472.2v-23.4c0-0.3,0.3-0.5,0.5-0.5h4.2c0.3,0,0.5,0.3,0.5,0.5v23.4c0,0.3-0.3,0.5-0.5,0.5h-4.2   C621.2,472.6,621,472.4,621,472.2z"
   id="path286" />
	<path
   class="st6"
   d="M630.2,472.2v-23.4c0-0.3,0.3-0.5,0.5-0.5h4.2c0.3,0,0.5,0.3,0.5,0.5v23.4c0,0.3-0.3,0.5-0.5,0.5h-4.2   C630.4,472.6,630.2,472.4,630.2,472.2z"
   id="path288" />
	<path
   class="st6"
   d="M611.9,472.2v-23.4c0-0.3,0.3-0.5,0.5-0.5h4.2c0.3,0,0.5,0.3,0.5,0.5v23.4c0,0.3-0.3,0.5-0.5,0.5h-4.2   C612.1,472.6,611.9,472.4,611.9,472.2z"
   id="path290" />
	<g
   id="g308">
		<path
   class="st5"
   d="M635.9,524.5H533.8c-2.8,0-5.2-2.3-5.2-5.2v-24.4c0-2.9,2.3-5.2,5.2-5.2h102.2c2.8,0,5.2,2.3,5.2,5.2v24.4    C641.1,522.2,638.8,524.5,635.9,524.5z"
   id="path292" />
		<circle
   class="st6"
   cx="584.8"
   cy="506.6"
   r="7.1"
   id="circle294" />
		<path
   class="st6"
   d="M543.7,518.8v-23.4c0-0.3,0.3-0.5,0.5-0.5h4.2c0.3,0,0.5,0.3,0.5,0.5v23.4c0,0.3-0.3,0.5-0.5,0.5h-4.2    C543.9,519.4,543.7,519.1,543.7,518.8z"
   id="path296" />
		<path
   class="st6"
   d="M552.8,518.8v-23.4c0-0.3,0.3-0.5,0.5-0.5h4.2c0.3,0,0.5,0.3,0.5,0.5v23.4c0,0.3-0.3,0.5-0.5,0.5h-4.2    C553,519.4,552.8,519.1,552.8,518.8z"
   id="path298" />
		<path
   class="st6"
   d="M534.5,518.8v-23.4c0-0.3,0.3-0.5,0.5-0.5h4.2c0.3,0,0.5,0.3,0.5,0.5v23.4c0,0.3-0.3,0.5-0.5,0.5H535    C534.8,519.4,534.5,519.1,534.5,518.8z"
   id="path300" />
		<path
   class="st6"
   d="M621,518.8v-23.4c0-0.3,0.3-0.5,0.5-0.5h4.2c0.3,0,0.5,0.3,0.5,0.5v23.4c0,0.3-0.3,0.5-0.5,0.5h-4.2    C621.2,519.4,621,519.1,621,518.8z"
   id="path302" />
		<path
   class="st6"
   d="M630.2,518.8v-23.4c0-0.3,0.3-0.5,0.5-0.5h4.2c0.3,0,0.5,0.3,0.5,0.5v23.4c0,0.3-0.3,0.5-0.5,0.5h-4.2    C630.4,519.4,630.2,519.1,630.2,518.8z"
   id="path304" />
		<path
   class="st6"
   d="M611.9,518.8v-23.4c0-0.3,0.3-0.5,0.5-0.5h4.2c0.3,0,0.5,0.3,0.5,0.5v23.4c0,0.3-0.3,0.5-0.5,0.5h-4.2    C612.1,519.4,611.9,519.1,611.9,518.8z"
   id="path306" />
	</g>
</g>
<path
   class="st0"
   d="M1087.4,485.7v-2.9h28.5v2.9c0,1,1.2,1.5,2,0.8l4.2-4.2c0.4-0.4,0.4-1.2,0-1.6l-4.2-4.2c-0.7-0.7-2-0.2-2,0.8  v3.1h-28.5v-3.1c0-1-1.2-1.5-2-0.8l-4.2,4.2c-0.4,0.4-0.4,1.2,0,1.6l4.2,4.2C1086.1,487.2,1087.4,486.7,1087.4,485.7z"
   id="path312" />
<path
   class="st0"
   d="M791.7,485.7v-2.9h28.5v2.9c0,1,1.2,1.5,2,0.8l4.2-4.2c0.4-0.4,0.4-1.2,0-1.6l-4.2-4.2c-0.7-0.7-2-0.2-2,0.8  v3.1h-28.5v-3.1c0-1-1.2-1.5-2-0.8l-4.2,4.2c-0.4,0.4-0.4,1.2,0,1.6l4.2,4.2C790.4,487.2,791.7,486.7,791.7,485.7z"
   id="path314" />
<g
   id="g341">
	<rect
   x="1145.2"
   y="433.2"
   class="st7"
   width="79.5"
   height="93.4"
   id="rect316" />
	<g
   id="g332">
		<g
   id="g330">
			<path
   class="st2"
   d="M1161.9,492c-0.7,0-1.3-0.2-1.8-0.3c-0.5-0.2-0.9-0.6-1.3-1.1c-0.3-0.4-0.6-1-0.8-1.7s-0.3-1.4-0.3-2.4     c0-0.8,0.1-1.6,0.3-2.4c0.2-0.7,0.4-1.3,0.8-1.7c0.3-0.4,0.8-0.8,1.3-1.1c0.5-0.3,1.1-0.3,1.8-0.3c1.4,0,2.4,0.5,3.1,1.4     c0.7,0.9,1,2.3,1,4.1c0,1.8-0.3,3.1-1,4.1C1164.3,491.6,1163.3,492,1161.9,492z M1161.9,490.4c0.3,0,0.7-0.1,0.9-0.2     c0.3-0.1,0.4-0.3,0.6-0.6c0.2-0.3,0.3-0.6,0.3-0.9s0.1-0.8,0.1-1.3v-1.8c0-0.9-0.2-1.6-0.4-2.2c-0.3-0.6-0.8-0.8-1.5-0.8     c-0.8,0-1.2,0.3-1.5,0.8c-0.3,0.5-0.4,1.3-0.4,2.2v1.9c0,0.9,0.2,1.6,0.4,2.2C1160.8,490.1,1161.3,490.4,1161.9,490.4z"
   id="path318" />
			<path
   class="st2"
   d="M1167.8,481.1h3.7c1,0,1.8,0.3,2.4,0.8c0.5,0.5,0.8,1.2,0.8,2c0,0.6-0.2,1.1-0.4,1.4     c-0.3,0.3-0.7,0.6-1.3,0.8v0.1c0.7,0.2,1.1,0.4,1.5,0.8c0.4,0.4,0.6,0.9,0.6,1.7c0,0.4-0.1,0.8-0.3,1.2c-0.2,0.3-0.3,0.7-0.6,0.9     c-0.3,0.3-0.6,0.4-1,0.6s-0.8,0.2-1.3,0.2h-4.1L1167.8,481.1L1167.8,481.1z M1171,485.7c0.5,0,0.9-0.1,1.2-0.3     c0.3-0.2,0.4-0.5,0.4-1v-0.5c0-0.5-0.2-0.8-0.4-1c-0.3-0.2-0.7-0.3-1.2-0.3h-1.3v3.1L1171,485.7L1171,485.7z M1171.2,490.4     c0.6,0,1-0.1,1.3-0.3c0.3-0.3,0.4-0.6,0.4-1.1v-0.5c0-0.5-0.2-0.8-0.4-1c-0.3-0.2-0.7-0.3-1.3-0.3h-1.5v3.2L1171.2,490.4     L1171.2,490.4z"
   id="path320" />
			<path
   class="st2"
   d="M1183.3,481.1v7.7c0,0.5-0.1,0.9-0.3,1.3c-0.2,0.3-0.4,0.7-0.7,0.9c-0.3,0.3-0.7,0.5-1.1,0.6     s-0.8,0.3-1.4,0.3c-1,0-1.8-0.3-2.4-0.8c-0.6-0.5-0.9-1.2-1.1-2l1.9-0.4c0.1,0.4,0.3,0.8,0.5,1.1c0.3,0.3,0.6,0.4,1.1,0.4     c0.4,0,0.8-0.2,1-0.4c0.2-0.3,0.3-0.7,0.3-1.3v-5.9h-3.6V481L1183.3,481.1L1183.3,481.1z"
   id="path322" />
			<path
   class="st2"
   d="M1186.1,491.8v-10.7h6.7v1.6h-4.8v2.8h4.6v1.6h-4.6v3h4.8v1.6L1186.1,491.8L1186.1,491.8z"
   id="path324" />
			<path
   class="st2"
   d="M1198.9,492c-1.4,0-2.5-0.5-3.1-1.4c-0.7-0.9-1-2.3-1-4.1c0-1.8,0.3-3.1,1-4.1c0.7-0.9,1.7-1.4,3.1-1.4     c0.5,0,1,0.1,1.4,0.2c0.4,0.2,0.8,0.3,1,0.6c0.3,0.3,0.5,0.5,0.8,0.8c0.2,0.3,0.3,0.8,0.4,1.2l-1.9,0.5c-0.1-0.3-0.2-0.5-0.3-0.7     s-0.2-0.4-0.3-0.6c-0.2-0.2-0.3-0.3-0.5-0.3c-0.2-0.1-0.4-0.2-0.8-0.2c-0.7,0-1.2,0.3-1.5,0.8c-0.3,0.5-0.4,1.3-0.4,2.2v1.9     c0,0.9,0.2,1.6,0.4,2.2c0.3,0.5,0.8,0.8,1.5,0.8c0.3,0,0.5,0,0.8-0.2c0.2-0.1,0.3-0.2,0.5-0.3c0.2-0.2,0.3-0.3,0.3-0.6     c0.1-0.3,0.2-0.4,0.3-0.7l1.9,0.5c-0.1,0.4-0.3,0.8-0.4,1.2c-0.2,0.3-0.4,0.7-0.8,0.8c-0.3,0.3-0.7,0.4-1,0.6     C1199.9,491.9,1199.4,492,1198.9,492z"
   id="path326" />
			<path
   class="st2"
   d="M1208.8,482.8v9h-2v-9h-3.2v-1.6h8.4v1.6H1208.8z"
   id="path328" />
		</g>
	</g>
	
		<linearGradient
   id="SVGID_1_"
   gradientUnits="userSpaceOnUse"
   x1="1184.9534"
   y1="1535.1912"
   x2="1184.9534"
   y2="1618.9014"
   gradientTransform="matrix(1 0 0 -1 0 2068)">
		<stop
   offset="0"
   style="stop-color:#10535A"
   id="stop334" />
		<stop
   offset="1"
   style="stop-color:#102E46"
   id="stop336" />
	</linearGradient>
	<path
   class="st8"
   d="M1147.7,428.9c-3.9,0-7,3.1-7,7v89.9c0,3.9,3.1,7,7,7h74.3c3.9,0,7-3.1,7-7c0-4.8,0-9.6,0-14.3   c0-10.2,0-20.3,0-30.5c0-7-0.2-14.1,0-21c0.2-6.4,0.4-13.2-0.2-19.5c-0.4-4.8-2.5-8.8-7.3-10.5c-0.7-0.3-1.4-0.4-2-0.6   c-2.6-0.6-5.5-0.7-8.1-0.8L1147.7,428.9z M1220.5,519.4c0,3.4-2.7,6.1-6.1,6.1H1154c-3.4,0-6.1-2.7-6.1-6.1v-77.2   c0-3.4,2.7-6.1,6.1-6.1h40.6v10.4c0,8.5,6.9,15.4,15.4,15.4h10.6L1220.5,519.4L1220.5,519.4z M1220.5,455.2h-10.6   c-4.8,0-8.7-3.9-8.7-8.7v-10.4h13.2c3.4,0,6.1,2.7,6.1,6.1V455.2L1220.5,455.2z"
   id="path339" />
</g>
<g
   id="g368">
	<rect
   x="684.1"
   y="433.2"
   class="st7"
   width="79.5"
   height="93.4"
   id="rect343" />
	<g
   id="g359">
		<g
   id="g357">
			<path
   class="st2"
   d="M700.8,492c-0.7,0-1.3-0.2-1.8-0.3c-0.5-0.2-0.9-0.6-1.3-1.1c-0.3-0.4-0.6-1-0.8-1.7     c-0.2-0.7-0.3-1.4-0.3-2.4c0-0.8,0.1-1.6,0.3-2.4c0.2-0.7,0.4-1.3,0.8-1.7c0.3-0.4,0.8-0.8,1.3-1.1c0.5-0.3,1.1-0.3,1.8-0.3     c1.4,0,2.4,0.5,3.1,1.4c0.7,0.9,1,2.3,1,4.1c0,1.8-0.3,3.1-1,4.1C703.2,491.6,702.2,492,700.8,492z M700.8,490.4     c0.3,0,0.7-0.1,0.9-0.2c0.3-0.1,0.4-0.3,0.6-0.6s0.3-0.6,0.3-0.9c0.1-0.3,0.1-0.8,0.1-1.3v-1.8c0-0.9-0.2-1.6-0.4-2.2     c-0.3-0.6-0.8-0.8-1.5-0.8c-0.8,0-1.2,0.3-1.5,0.8c-0.3,0.5-0.4,1.3-0.4,2.2v1.9c0,0.9,0.2,1.6,0.4,2.2     C699.7,490.1,700.2,490.4,700.8,490.4z"
   id="path345" />
			<path
   class="st2"
   d="M706.7,481.1h3.7c1,0,1.8,0.3,2.4,0.8c0.5,0.5,0.8,1.2,0.8,2c0,0.6-0.2,1.1-0.4,1.4     c-0.3,0.3-0.7,0.6-1.3,0.8v0.1c0.7,0.2,1.1,0.4,1.5,0.8c0.4,0.4,0.6,0.9,0.6,1.7c0,0.4-0.1,0.8-0.3,1.2c-0.2,0.3-0.3,0.7-0.6,0.9     c-0.3,0.3-0.6,0.4-1,0.6s-0.8,0.2-1.3,0.2h-4.1L706.7,481.1L706.7,481.1z M709.9,485.7c0.5,0,0.9-0.1,1.2-0.3     c0.3-0.2,0.4-0.5,0.4-1v-0.5c0-0.5-0.2-0.8-0.4-1s-0.7-0.3-1.2-0.3h-1.3v3.1L709.9,485.7L709.9,485.7z M710.1,490.4     c0.6,0,1-0.1,1.3-0.3c0.3-0.3,0.4-0.6,0.4-1.1v-0.5c0-0.5-0.2-0.8-0.4-1s-0.7-0.3-1.3-0.3h-1.5v3.2L710.1,490.4L710.1,490.4z"
   id="path347" />
			<path
   class="st2"
   d="M722.2,481.1v7.7c0,0.5-0.1,0.9-0.3,1.3c-0.2,0.3-0.4,0.7-0.7,0.9s-0.7,0.5-1.1,0.6s-0.8,0.3-1.4,0.3     c-1,0-1.8-0.3-2.4-0.8c-0.6-0.5-0.9-1.2-1.1-2l1.9-0.4c0.1,0.4,0.3,0.8,0.5,1.1c0.3,0.3,0.6,0.4,1.1,0.4c0.4,0,0.8-0.2,1-0.4     s0.3-0.7,0.3-1.3v-5.9h-3.6V481L722.2,481.1L722.2,481.1z"
   id="path349" />
			<path
   class="st2"
   d="M725,491.8v-10.7h6.7v1.6H727v2.8h4.6v1.6H727v3h4.8v1.6L725,491.8L725,491.8z"
   id="path351" />
			<path
   class="st2"
   d="M737.8,492c-1.4,0-2.5-0.5-3.1-1.4c-0.7-0.9-1-2.3-1-4.1c0-1.8,0.3-3.1,1-4.1c0.7-0.9,1.7-1.4,3.1-1.4     c0.5,0,1,0.1,1.4,0.2c0.4,0.2,0.8,0.3,1,0.6s0.5,0.5,0.8,0.8c0.2,0.3,0.3,0.8,0.4,1.2l-1.9,0.5c-0.1-0.3-0.2-0.5-0.3-0.7     s-0.2-0.4-0.3-0.6c-0.2-0.2-0.3-0.3-0.5-0.3c-0.2-0.1-0.4-0.2-0.8-0.2c-0.7,0-1.2,0.3-1.5,0.8s-0.4,1.3-0.4,2.2v1.9     c0,0.9,0.2,1.6,0.4,2.2c0.3,0.5,0.8,0.8,1.5,0.8c0.3,0,0.5,0,0.8-0.2c0.2-0.1,0.3-0.2,0.5-0.3s0.3-0.3,0.3-0.6     c0.1-0.3,0.2-0.4,0.3-0.7l1.9,0.5c-0.1,0.4-0.3,0.8-0.4,1.2c-0.2,0.3-0.4,0.7-0.8,0.8c-0.3,0.3-0.7,0.4-1,0.6     C738.8,491.9,738.4,492,737.8,492z"
   id="path353" />
			<path
   class="st2"
   d="M747.7,482.8v9h-2v-9h-3.2v-1.6h8.4v1.6H747.7z"
   id="path355" />
		</g>
	</g>
	
		<linearGradient
   id="SVGID_00000121985037550357211620000001980721896832760462_"
   gradientUnits="userSpaceOnUse"
   x1="723.858"
   y1="1535.1912"
   x2="723.858"
   y2="1618.9014"
   gradientTransform="matrix(1 0 0 -1 0 2068)">
		<stop
   offset="0"
   style="stop-color:#10535A"
   id="stop361" />
		<stop
   offset="1"
   style="stop-color:#102E46"
   id="stop363" />
	</linearGradient>
	<path
   style="fill:url(#SVGID_00000121985037550357211620000001980721896832760462_);"
   d="M686.6,428.9c-3.9,0-7,3.1-7,7v89.9   c0,3.9,3.1,7,7,7h74.3c3.9,0,7-3.1,7-7c0-4.8,0-9.6,0-14.3c0-10.2,0-20.3,0-30.5c0-7-0.2-14.1,0-21c0.2-6.4,0.4-13.2-0.2-19.5   c-0.4-4.8-2.5-8.8-7.3-10.5c-0.7-0.3-1.4-0.4-2-0.6c-2.6-0.6-5.5-0.7-8.1-0.8L686.6,428.9z M759.4,519.4c0,3.4-2.7,6.1-6.1,6.1H693   c-3.4,0-6.1-2.7-6.1-6.1v-77.2c0-3.4,2.7-6.1,6.1-6.1h40.6v10.4c0,8.5,6.9,15.4,15.4,15.4h10.6L759.4,519.4L759.4,519.4z    M759.4,455.2h-10.6c-4.8,0-8.7-3.9-8.7-8.7v-10.4h13.2c3.4,0,6.1,2.7,6.1,6.1V455.2L759.4,455.2z"
   id="path366" />
</g>
<g
   id="g464">
	<rect
   x="682.1"
   y="673.1"
   class="st10"
   width="555.8"
   height="50.5"
   id="rect370" />
	<g
   id="g392">
		<path
   class="st2"
   d="M735.2,695.5l-0.9,0.8c-0.8-0.9-1.9-1.5-3.2-1.5c-2.4,0-4.2,1.8-4.2,4.3s1.9,4.3,4.2,4.3    c2.3,0,3.6-1.4,3.8-3.6h-3.3v-1.1h4.7c0,0.1,0,0.2,0,0.3c0,3.1-2,5.5-5.2,5.5c-2.8,0-5.5-2-5.5-5.5c0-3.2,2.4-5.5,5.5-5.5    C732.7,693.8,734.1,694.4,735.2,695.5z"
   id="path372" />
		<path
   class="st2"
   d="M743,697.4l-0.3,1.1c-0.3-0.2-0.8-0.3-1.3-0.3c-1.1,0-2,0.8-2,2.3v4.1h-1.1v-7.2h1.1v1    c0.5-0.8,1.3-1.2,2.1-1.2C742.2,697.2,742.6,697.2,743,697.4z"
   id="path374" />
		<path
   class="st2"
   d="M750.9,701c0,0.2,0,0.3,0,0.4h-5.8c0.2,1.5,1.3,2.4,2.5,2.4c0.8,0,1.7-0.3,2.3-0.9l0.6,0.8    c-0.9,0.8-1.9,1.1-3,1.1c-2.1,0-3.6-1.5-3.6-3.7c0-2.2,1.5-3.7,3.6-3.7C749.4,697.2,750.9,698.8,750.9,701z M745.1,700.5h4.7    c-0.2-1.4-1-2.2-2.3-2.2C746.1,698.2,745.3,699.1,745.1,700.5z"
   id="path376" />
		<path
   class="st2"
   d="M759.4,701c0,0.2,0,0.3,0,0.4h-5.8c0.2,1.5,1.3,2.4,2.5,2.4c0.8,0,1.7-0.3,2.3-0.9l0.6,0.8    c-0.9,0.8-1.9,1.1-3,1.1c-2.1,0-3.6-1.5-3.6-3.7c0-2.2,1.5-3.7,3.6-3.7C758,697.2,759.4,698.8,759.4,701z M753.7,700.5h4.7    c-0.2-1.4-1-2.2-2.3-2.2C754.7,698.2,753.8,699.1,753.7,700.5z"
   id="path378" />
		<path
   class="st2"
   d="M768.2,700.1v4.5h-1.1v-4.1c0-1.4-0.8-2.2-2.1-2.2c-1.2,0-2.2,0.8-2.2,2.2v4.1h-1.1v-7.2h1.1v1    c0.6-0.8,1.5-1.2,2.5-1.2C766.9,697.2,768.2,698.3,768.2,700.1z"
   id="path380" />
		<g
   id="g390">
			<path
   class="st2"
   d="M789.9,699.6h-6.6v-1h6.6V699.6z M789.9,702.5h-6.6v-1h6.6V702.5z"
   id="path382" />
			<path
   class="st2"
   d="M798.7,700.6v3.9h-2.1v-10.7h4.3c2.5,0,3.9,1.4,3.9,3.4c0,2-1.4,3.4-3.9,3.4H798.7L798.7,700.6z      M798.7,695.9v2.9h2.2c1.2,0,1.8-0.5,1.8-1.4s-0.6-1.4-1.8-1.4L798.7,695.9L798.7,695.9z"
   id="path384" />
			<path
   class="st2"
   d="M815.6,700.3c0,3-1.9,4.5-4.6,4.5c-2.7,0-4.6-1.5-4.6-4.5v-6.4h2.1v6.3c0,1.8,1,2.5,2.5,2.5     c1.4,0,2.5-0.8,2.5-2.5v-6.3h2.1V700.3z"
   id="path386" />
			<path
   class="st2"
   d="M825.7,695.9h-3.3v8.7h-2.1v-8.7H817v-2h8.7L825.7,695.9L825.7,695.9z"
   id="path388" />
		</g>
	</g>
	<g
   id="g430">
		<g
   id="g402">
			<path
   class="st2"
   d="M886,693.1c2.3,0,3.9,0.8,3.9,2.8c0,1.2-0.7,2-1.6,2.4c1.1,0.3,1.9,1.2,1.9,2.5c0,2-1.5,3-3.9,3h-4.4v-10.7     L886,693.1L886,693.1z M883.1,694.2v3.6h2.9c1.4,0,2.6-0.3,2.6-1.8c0-1.4-1.1-1.8-2.6-1.8H883.1L883.1,694.2z M883.1,698.8v3.7     h3.1c1.6,0,2.6-0.4,2.6-1.9s-1-1.9-2.6-1.9L883.1,698.8L883.1,698.8z"
   id="path394" />
			<path
   class="st2"
   d="M893.6,703.7h-1.1v-11h1.1V703.7z"
   id="path396" />
			<path
   class="st2"
   d="M902.6,700.7c0,2.1-1.5,3.1-3.3,3.1c-1.8,0-3.3-1-3.3-3.1v-4.2h1.1v4.1c0,1.5,0.9,2.2,2.1,2.2     c1.2,0,2.1-0.7,2.1-2.2v-4.1h1.1L902.6,700.7L902.6,700.7z"
   id="path398" />
			<path
   class="st2"
   d="M911.7,700.1c0,0.2,0,0.3,0,0.4H906c0.2,1.5,1.3,2.4,2.5,2.4c0.8,0,1.7-0.3,2.3-0.9l0.6,0.8     c-0.9,0.8-1.9,1.1-3,1.1c-2.1,0-3.6-1.5-3.6-3.7c0-2.2,1.5-3.7,3.6-3.7C910.3,696.4,911.7,697.9,911.7,700.1z M905.9,699.6h4.7     c-0.2-1.4-1-2.2-2.3-2.2C907,697.3,906.1,698.3,905.9,699.6z"
   id="path400" />
		</g>
		<g
   id="g428">
			<path
   class="st2"
   d="M945.3,698.8h-6.6v-1h6.6V698.8z M945.3,701.6h-6.6v-1h6.6V701.6z"
   id="path404" />
			<path
   class="st2"
   d="M956.3,693.1c2.5,0,3.9,1.2,3.9,3.2c0,1.8-1.2,3-3.3,3.1l3.3,4.3h-2.5l-3.1-4.2h-0.6v4.2h-2.1v-10.7H956.3z      M953.9,695v2.6h2.4c1.2,0,1.8-0.4,1.8-1.4c0-0.8-0.7-1.3-1.8-1.3H953.9z"
   id="path406" />
			<path
   class="st2"
   d="M970.2,703.7h-8V693h7.9v2h-5.8v2.4h5.5v2h-5.5v2.5h5.9V703.7L970.2,703.7z"
   id="path408" />
			<path
   class="st2"
   d="M974.6,699.8v3.9h-2.1V693h4.3c2.5,0,3.9,1.4,3.9,3.4c0,2-1.4,3.4-3.9,3.4H974.6L974.6,699.8z M974.6,695     v2.9h2.2c1.2,0,1.8-0.5,1.8-1.4s-0.6-1.4-1.8-1.4L974.6,695L974.6,695z"
   id="path410" />
			<path
   class="st2"
   d="M990.3,703.7h-7.8V693h2.1v8.7h5.7V703.7z"
   id="path412" />
			<path
   class="st2"
   d="M993.8,703.7h-2.1V693h2.1V703.7z"
   id="path414" />
			<path
   class="st2"
   d="M1006,695.2l-1.9,1.1c-0.6-0.9-1.5-1.4-2.8-1.4c-2,0-3.4,1.4-3.4,3.5c0,2.1,1.5,3.5,3.4,3.5     c1.2,0,2.1-0.5,2.8-1.4l1.8,1.3c-0.9,1.4-2.5,2.3-4.5,2.3c-3.3,0-5.6-2.4-5.6-5.5s2.3-5.5,5.6-5.5     C1003.3,692.8,1005.1,693.8,1006,695.2z"
   id="path416" />
			<path
   class="st2"
   d="M1017.6,703.7h-2.3l-0.9-2.5h-4.6l-0.9,2.5h-2.2l4.2-10.7h2.6L1017.6,703.7z M1010.5,699.3h3.1l-1.5-4.2     L1010.5,699.3z"
   id="path418" />
			<path
   class="st2"
   d="M1025.8,695h-3.3v8.7h-2.1V695h-3.3v-2h8.7V695L1025.8,695z"
   id="path420" />
			<path
   class="st2"
   d="M1029.4,703.7h-2.1V693h2.1V703.7z"
   id="path422" />
			<path
   class="st2"
   d="M1042.5,698.4c0,3.2-2.4,5.5-5.6,5.5s-5.6-2.4-5.6-5.5c0-3.2,2.3-5.5,5.6-5.5S1042.5,695.2,1042.5,698.4z      M1033.5,698.4c0,2,1.4,3.5,3.4,3.5s3.4-1.4,3.4-3.5c0-2-1.4-3.5-3.4-3.5C1035,694.9,1033.5,696.3,1033.5,698.4z"
   id="path424" />
			<path
   class="st2"
   d="M1054,703.7h-2l-5.4-7.1v7.1h-2.1V693h2l5.4,7.1V693h2.1L1054,703.7L1054,703.7z"
   id="path426" />
		</g>
	</g>
	<g
   id="g456">
		<g
   id="g444">
			<path
   class="st2"
   d="M1118.1,697.3c0,3.2-2.4,5.5-5.5,5.5c-3.1,0-5.5-2.3-5.5-5.5c0-3.2,2.4-5.5,5.5-5.5     C1115.8,691.8,1118.1,694.1,1118.1,697.3z M1108.3,697.3c0,2.5,1.9,4.3,4.2,4.3c2.4,0,4.2-1.8,4.2-4.3c0-2.5-1.9-4.3-4.2-4.3     C1110.2,693,1108.3,694.7,1108.3,697.3z"
   id="path432" />
			<path
   class="st2"
   d="M1124.9,695.5l-0.3,1.1c-0.3-0.2-0.8-0.3-1.3-0.3c-1.1,0-2,0.8-2,2.3v4.1h-1.1v-7.2h1.1v1     c0.5-0.8,1.3-1.2,2.1-1.2C1124.2,695.3,1124.6,695.3,1124.9,695.5z"
   id="path434" />
			<path
   class="st2"
   d="M1133.3,702.6h-1.1v-1.1c-0.6,0.8-1.4,1.2-2.6,1.2c-2,0-3.6-1.6-3.6-3.7c0-2.2,1.6-3.7,3.6-3.7     c1.2,0,2,0.5,2.6,1.2v-1.1h1.1V702.6z M1127,699c0,1.5,1,2.7,2.5,2.7c1.5,0,2.5-1.2,2.5-2.7c0-1.5-1.1-2.7-2.5-2.7     C1128,696.3,1127,697.5,1127,699z"
   id="path436" />
			<path
   class="st2"
   d="M1142.5,698.2v4.5h-1.1v-4.1c0-1.4-0.8-2.2-2.1-2.2c-1.2,0-2.2,0.8-2.2,2.2v4.1h-1.1v-7.2h1.1v1     c0.6-0.8,1.5-1.2,2.5-1.2C1141.2,695.3,1142.5,696.4,1142.5,698.2z"
   id="path438" />
			<path
   class="st2"
   d="M1150.7,696.5v-1.1h1.1v6.7c0,2.4-1.6,3.6-3.8,3.6c-1.2,0-2.3-0.3-3.1-0.9l0.5-0.9c0.7,0.5,1.5,0.8,2.5,0.8     c1.5,0,2.7-0.9,2.7-2.5v-0.8c-0.6,0.8-1.4,1.2-2.5,1.2c-2,0-3.6-1.5-3.6-3.7c0-2.2,1.5-3.7,3.6-3.7     C1149.3,695.3,1150.1,695.7,1150.7,696.5z M1145.6,698.9c0,1.4,1,2.6,2.5,2.6s2.5-1.1,2.5-2.6c0-1.5-1-2.6-2.5-2.6     S1145.6,697.5,1145.6,698.9z"
   id="path440" />
			<path
   class="st2"
   d="M1160.9,699c0,0.2,0,0.3,0,0.4h-5.8c0.2,1.5,1.3,2.4,2.5,2.4c0.8,0,1.7-0.3,2.3-0.9l0.6,0.8     c-0.9,0.8-1.9,1.1-3,1.1c-2.1,0-3.6-1.5-3.6-3.7c0-2.2,1.5-3.7,3.6-3.7C1159.5,695.3,1160.9,696.8,1160.9,699z M1155.2,698.5h4.7     c-0.2-1.4-1-2.2-2.3-2.2C1156.2,696.2,1155.3,697.2,1155.2,698.5z"
   id="path442" />
		</g>
		<g
   id="g454">
			<path
   class="st2"
   d="M1180,697.7h-6.6v-1h6.6V697.7z M1180,700.6h-6.6v-1h6.6V700.6z"
   id="path446" />
			<path
   class="st2"
   d="M1195.7,693.3l-1.5,1.5c-0.6-0.7-1.5-1.1-2.5-1.1c-2,0-3.4,1.4-3.4,3.6c0,2.2,1.5,3.6,3.3,3.6     s2.7-0.8,3.1-2.4h-2.7v-1.8h4.9c0,0.2,0,0.4,0,0.6c0,3.2-2.2,5.5-5.3,5.5c-3,0-5.6-2.1-5.6-5.5c0-3.2,2.4-5.5,5.7-5.5     C1193.4,691.7,1194.8,692.3,1195.7,693.3z"
   id="path448" />
			<path
   class="st2"
   d="M1206.8,702.6h-8v-10.7h7.9v2h-5.8v2.4h5.5v2h-5.5v2.5h5.9V702.6L1206.8,702.6z"
   id="path450" />
			<path
   class="st2"
   d="M1216.8,693.9h-3.3v8.7h-2.1v-8.7h-3.3v-2h8.7L1216.8,693.9L1216.8,693.9z"
   id="path452" />
		</g>
	</g>
	<circle
   class="st11"
   cx="705.4"
   cy="698.5"
   r="5.1"
   id="circle458" />
	<circle
   class="st0"
   cx="861.2"
   cy="698.5"
   r="5.1"
   id="circle460" />
	<circle
   class="st12"
   cx="1086.9"
   cy="698.3"
   r="5.1"
   id="circle462" />
</g>

<g
   id="g476">
	<path
   class="st12"
   d="M325,473.4v-2.9h28.5v2.9c0,1,1.2,1.5,2,0.8l4.2-4.2c0.4-0.4,0.4-1.2,0-1.6l-4.2-4.2c-0.7-0.7-2-0.2-2,0.8   v3.1H325V465c0-1-1.2-1.5-2-0.8l-4.2,4.2c-0.4,0.4-0.4,1.2,0,1.6l4.2,4.2C323.8,474.9,325,474.4,325,473.4z"
   id="path472" />
	<path
   class="st11"
   d="M325,498.4v-2.9h28.5v2.9c0,1,1.2,1.5,2,0.8l4.2-4.2c0.4-0.4,0.4-1.2,0-1.6l-4.2-4.2c-0.7-0.7-2-0.2-2,0.8   v3.1H325V490c0-1-1.2-1.5-2-0.8l-4.2,4.2c-0.4,0.4-0.4,1.2,0,1.6l4.2,4.2C323.8,499.9,325,499.4,325,498.4z"
   id="path474" />
</g>
<g
   id="g534">
	<path
   class="st2"
   d="M1277.7,576h1.1v4.2h0.1c0.1-0.2,0.2-0.3,0.3-0.5s0.3-0.3,0.4-0.4c0.2-0.2,0.3-0.2,0.6-0.3   c0.3-0.1,0.5-0.1,0.8-0.1c0.8,0,1.4,0.3,1.8,0.7c0.4,0.5,0.7,1.1,0.7,2v4.5h-1.2v-4.3c0-0.7-0.2-1.1-0.4-1.4   c-0.3-0.3-0.7-0.5-1.3-0.5c-0.3,0-0.4,0-0.7,0.1c-0.2,0.1-0.4,0.2-0.6,0.3s-0.3,0.3-0.4,0.4c-0.1,0.2-0.2,0.3-0.2,0.6v4.9h-1.1   L1277.7,576L1277.7,576z"
   id="path478" />
	<path
   class="st2"
   d="M1288.9,586.1c-0.5,0-0.9-0.2-1.2-0.4c-0.3-0.3-0.3-0.7-0.3-1.2v-4.5h-2.4V579h1.8c0.3,0,0.4-0.1,0.5-0.2   s0.2-0.3,0.2-0.5v-1.9h1v2.5h3.2v0.9h-3.2v5.2h3.2v0.9L1288.9,586.1L1288.9,586.1z"
   id="path480" />
	<path
   class="st2"
   d="M1297.3,586.1c-0.5,0-0.9-0.2-1.2-0.4c-0.3-0.3-0.4-0.7-0.4-1.2v-4.5h-2.4V579h1.8c0.3,0,0.4-0.1,0.5-0.2   c0.1-0.1,0.2-0.3,0.2-0.5v-1.9h1v2.5h3.2v0.9h-3.2v5.2h3.2v0.9L1297.3,586.1L1297.3,586.1z"
   id="path482" />
	<path
   class="st2"
   d="M1302.3,579h1.1v1.2h0.1c0.4-0.8,1.2-1.4,2.2-1.4c0.8,0,1.5,0.3,2,1s0.8,1.5,0.8,2.7s-0.3,2-0.8,2.7   s-1.2,1-2,1c-1,0-1.7-0.4-2.2-1.4h-0.2v3.9h-1.1L1302.3,579L1302.3,579z M1305.2,585.3c0.7,0,1.1-0.2,1.5-0.6   c0.3-0.4,0.5-0.9,0.5-1.5V582c0-0.7-0.2-1.2-0.5-1.5c-0.3-0.3-0.8-0.6-1.5-0.6c-0.3,0-0.5,0-0.7,0.1c-0.3,0.1-0.4,0.2-0.6,0.3   c-0.2,0.1-0.3,0.3-0.4,0.4c-0.2,0.2-0.2,0.4-0.2,0.6v2.5c0,0.3,0.1,0.4,0.2,0.6s0.3,0.3,0.4,0.4c0.2,0.1,0.3,0.3,0.6,0.3   C1304.7,585.2,1305,585.3,1305.2,585.3z"
   id="path484" />
	<path
   class="st2"
   d="M1313.5,586.2c-0.8,0-1.4-0.2-2-0.3c-0.5-0.3-1-0.6-1.4-1l0.8-0.7c0.3,0.3,0.7,0.6,1.1,0.8   c0.4,0.3,0.8,0.3,1.4,0.3c0.6,0,1-0.1,1.4-0.3c0.3-0.2,0.5-0.5,0.5-0.9c0-0.2,0-0.3-0.1-0.4c-0.1-0.2-0.2-0.3-0.3-0.3   c-0.1,0-0.3-0.2-0.4-0.2c-0.2-0.1-0.3-0.1-0.4-0.1l-1.1-0.2c-0.3,0-0.5-0.1-0.8-0.2c-0.3-0.1-0.6-0.2-0.8-0.3   c-0.3-0.2-0.4-0.3-0.6-0.6c-0.2-0.3-0.3-0.6-0.3-0.9s0.1-0.7,0.2-0.9c0.2-0.3,0.3-0.5,0.6-0.7c0.3-0.2,0.6-0.3,0.9-0.4   c0.3-0.1,0.8-0.2,1.1-0.2c0.7,0,1.2,0.1,1.7,0.3c0.4,0.2,0.8,0.5,1.2,0.8l-0.7,0.7c-0.1-0.1-0.2-0.2-0.3-0.3   c-0.2-0.1-0.3-0.2-0.4-0.3c-0.2-0.1-0.4-0.2-0.6-0.2c-0.3-0.1-0.5-0.1-0.8-0.1c-0.6,0-1,0.1-1.3,0.3c-0.3,0.2-0.4,0.5-0.4,0.8   c0,0.2,0,0.3,0.1,0.4c0.1,0.2,0.2,0.3,0.3,0.3s0.3,0.2,0.4,0.2c0.2,0.1,0.3,0.1,0.4,0.1l1.1,0.2c0.3,0,0.5,0.1,0.8,0.2   c0.3,0.1,0.5,0.2,0.8,0.3c0.3,0.2,0.4,0.3,0.6,0.6c0.2,0.3,0.3,0.6,0.3,0.9c0,0.7-0.3,1.3-0.8,1.6S1314.3,586.2,1313.5,586.2z"
   id="path486" />
	<path
   class="st2"
   d="M1321.6,580.8c-0.3,0-0.7-0.1-0.8-0.3c-0.1-0.2-0.3-0.3-0.3-0.6v-0.3c0-0.3,0.1-0.4,0.3-0.6   c0.2-0.2,0.4-0.3,0.8-0.3c0.3,0,0.7,0.1,0.8,0.3s0.3,0.3,0.3,0.6v0.3c0,0.3-0.1,0.4-0.3,0.6C1322.2,580.7,1322,580.8,1321.6,580.8z    M1321.6,586.2c-0.3,0-0.7-0.1-0.8-0.3c-0.1-0.2-0.3-0.3-0.3-0.6v-0.3c0-0.3,0.1-0.4,0.3-0.6c0.2-0.2,0.4-0.3,0.8-0.3   c0.3,0,0.7,0.1,0.8,0.3c0.1,0.2,0.3,0.3,0.3,0.6v0.3c0,0.3-0.1,0.4-0.3,0.6S1322,586.2,1321.6,586.2z"
   id="path488" />
	<path
   class="st2"
   d="M1327,588l4.8-12.3h1L1328,588H1327z"
   id="path490" />
	<path
   class="st2"
   d="M1335.2,588l4.8-12.3h1l-4.8,12.3H1335.2z"
   id="path492" />
	<path
   class="st2"
   d="M1342.9,586.1v-7h1v0.8h0.1c0.1-0.3,0.3-0.5,0.4-0.7c0.2-0.2,0.5-0.3,0.8-0.3c0.4,0,0.7,0.1,0.9,0.3   c0.2,0.2,0.3,0.5,0.3,0.8l0,0c0.2-0.3,0.3-0.6,0.6-0.8c0.3-0.2,0.6-0.3,1-0.3c0.6,0,0.9,0.2,1.2,0.6c0.2,0.4,0.3,1,0.3,1.7v4.9h-1   v-4.8c0-0.6-0.1-1-0.2-1.3s-0.3-0.3-0.7-0.3c-0.3,0-0.5,0.1-0.7,0.3c-0.2,0.2-0.3,0.5-0.3,0.8v5.2h-1v-4.8c0-0.6-0.1-1-0.2-1.3   s-0.3-0.3-0.7-0.3c-0.3,0-0.5,0.1-0.7,0.3c-0.2,0.2-0.3,0.5-0.3,0.8v5.2L1342.9,586.1L1342.9,586.1z"
   id="path494" />
	<path
   class="st2"
   d="M1351.9,585.1h2.5v-5.2h-2.5V579h3.6v6.1h2.4v0.9h-6V585.1z M1355,577.4c-0.3,0-0.5-0.1-0.7-0.2   c-0.2-0.1-0.2-0.3-0.2-0.5v-0.3c0-0.2,0.1-0.3,0.2-0.5c0.2-0.2,0.3-0.2,0.7-0.2c0.3,0,0.5,0.1,0.7,0.2c0.2,0.2,0.2,0.3,0.2,0.5v0.3   c0,0.2-0.1,0.3-0.2,0.5S1355.3,577.4,1355,577.4z"
   id="path496" />
	<path
   class="st2"
   d="M1360,586.1v-7h1.1v1.2h0.1c0.1-0.2,0.2-0.3,0.3-0.5s0.3-0.3,0.4-0.4c0.2-0.2,0.3-0.2,0.6-0.3   c0.3-0.1,0.5-0.1,0.8-0.1c0.8,0,1.4,0.3,1.8,0.7c0.4,0.5,0.7,1.1,0.7,2v4.5h-1.1v-4.3c0-0.7-0.2-1.1-0.4-1.4   c-0.3-0.3-0.7-0.5-1.3-0.5c-0.3,0-0.4,0-0.7,0.1c-0.2,0.1-0.4,0.2-0.6,0.3c-0.2,0.1-0.3,0.3-0.4,0.4c-0.1,0.2-0.2,0.3-0.2,0.6v4.9   L1360,586.1L1360,586.1z"
   id="path498" />
	<path
   class="st2"
   d="M1368.4,585.1h2.5v-5.2h-2.5V579h3.6v6.1h2.4v0.9h-6V585.1L1368.4,585.1z M1371.4,577.4   c-0.3,0-0.5-0.1-0.7-0.2c-0.2-0.2-0.2-0.3-0.2-0.5v-0.3c0-0.2,0.1-0.3,0.2-0.5c0.2-0.2,0.3-0.2,0.7-0.2c0.3,0,0.5,0.1,0.7,0.2   c0.2,0.2,0.2,0.3,0.2,0.5v0.3c0,0.2-0.1,0.3-0.2,0.5S1371.8,577.4,1371.4,577.4z"
   id="path500" />
	<path
   class="st2"
   d="M1379.2,586.2c-0.5,0-0.9-0.1-1.4-0.3c-0.4-0.2-0.8-0.4-1-0.8c-0.3-0.3-0.5-0.7-0.7-1.2   c-0.2-0.4-0.3-0.9-0.3-1.5c0-0.6,0.1-1.1,0.3-1.5s0.3-0.8,0.7-1.2c0.3-0.3,0.6-0.6,1-0.8c0.4-0.2,0.8-0.3,1.4-0.3s0.9,0.1,1.4,0.3   c0.4,0.2,0.8,0.4,1,0.8c0.3,0.3,0.5,0.7,0.7,1.2c0.2,0.5,0.3,0.9,0.3,1.5c0,0.6-0.1,1.1-0.3,1.5c-0.2,0.4-0.3,0.8-0.7,1.2   c-0.3,0.3-0.6,0.6-1,0.8C1380.2,586.1,1379.7,586.2,1379.2,586.2z M1379.2,585.3c0.6,0,1.1-0.2,1.5-0.6c0.3-0.3,0.6-0.9,0.6-1.7v-1   c0-0.8-0.2-1.4-0.6-1.7c-0.3-0.3-0.8-0.6-1.5-0.6c-0.7,0-1.1,0.2-1.5,0.6c-0.3,0.3-0.6,0.9-0.6,1.7v1c0,0.8,0.2,1.4,0.6,1.7   C1378.1,585.1,1378.6,585.3,1379.2,585.3z"
   id="path502" />
	<path
   class="st2"
   d="M1385.5,582.5v-1.2h4v1.2H1385.5z"
   id="path504" />
	<path
   class="st2"
   d="M1395.7,586.2c-0.6,0-1.1-0.1-1.5-0.3s-0.8-0.5-1-0.9c-0.3-0.4-0.5-0.9-0.6-1.5c-0.2-0.6-0.2-1.4-0.2-2.1   c0-0.8,0.1-1.4,0.2-2.1c0.2-0.6,0.3-1.1,0.6-1.5c0.3-0.4,0.6-0.8,1-0.9s0.9-0.3,1.5-0.3c0.6,0,1.1,0.1,1.5,0.3s0.8,0.5,1,0.9   c0.3,0.4,0.5,0.9,0.6,1.5c0.1,0.6,0.2,1.4,0.2,2.1c0,0.8-0.1,1.5-0.2,2.1c-0.2,0.6-0.3,1.1-0.6,1.5c-0.3,0.4-0.6,0.8-1,0.9   S1396.3,586.2,1395.7,586.2z M1395.7,585.2c0.4,0,0.7-0.1,1-0.3c0.3-0.2,0.5-0.3,0.7-0.7c0.2-0.3,0.3-0.6,0.3-1s0.2-0.8,0.2-1.3   v-1.5c0-0.5,0-0.9-0.2-1.3c-0.1-0.4-0.2-0.8-0.3-1c-0.2-0.3-0.4-0.5-0.7-0.7c-0.3-0.2-0.6-0.3-1-0.3c-0.4,0-0.7,0.1-1,0.3   c-0.3,0.2-0.5,0.3-0.7,0.7s-0.3,0.6-0.4,1c-0.1,0.4-0.2,0.8-0.2,1.3v1.5c0,0.5,0,0.9,0.2,1.3c0.1,0.4,0.2,0.7,0.4,1   c0.2,0.3,0.4,0.5,0.7,0.7C1395,585.2,1395.4,585.2,1395.7,585.2z M1395.7,582.1c-0.3,0-0.5-0.1-0.7-0.2c-0.2-0.2-0.2-0.3-0.2-0.5   V581c0-0.2,0.1-0.3,0.2-0.5s0.3-0.2,0.7-0.2c0.3,0,0.5,0.1,0.7,0.2s0.2,0.3,0.2,0.5v0.3c0,0.2-0.1,0.3-0.2,0.5   S1396,582.1,1395.7,582.1z"
   id="path506" />
	<path
   class="st2"
   d="M1407.2,586.1h-6.4v-1.2l3.2-2.9c0.4-0.4,0.8-0.8,1.2-1.3c0.3-0.4,0.4-0.9,0.4-1.4v-0.2c0-0.6-0.2-1-0.4-1.4   c-0.3-0.3-0.8-0.5-1.4-0.5c-0.6,0-1,0.2-1.4,0.4c-0.3,0.3-0.6,0.7-0.7,1.2l-1-0.3c0.1-0.3,0.3-0.6,0.4-0.8c0.2-0.3,0.3-0.5,0.6-0.7   c0.3-0.2,0.5-0.3,0.9-0.5s0.8-0.2,1.3-0.2s0.9,0.1,1.3,0.2s0.7,0.3,0.9,0.6s0.4,0.5,0.6,0.8c0.2,0.3,0.2,0.7,0.2,1.1   c0,0.3-0.1,0.7-0.2,1c-0.1,0.3-0.3,0.6-0.4,0.9c-0.2,0.3-0.4,0.6-0.7,0.8s-0.6,0.6-0.8,0.8l-2.7,2.4h5.2L1407.2,586.1L1407.2,586.1   z"
   id="path508" />
	<path
   class="st2"
   d="M1412.2,586.2c-0.3,0-0.7-0.1-0.8-0.3c-0.1-0.2-0.3-0.3-0.3-0.6v-0.3c0-0.3,0.1-0.4,0.3-0.6   c0.2-0.2,0.4-0.3,0.8-0.3s0.7,0.1,0.8,0.3c0.1,0.2,0.3,0.3,0.3,0.6v0.3c0,0.3-0.1,0.4-0.3,0.6S1412.6,586.2,1412.2,586.2z"
   id="path510" />
	<path
   class="st2"
   d="M1420.6,586.2c-0.5,0-1-0.1-1.4-0.3c-0.4-0.2-0.8-0.4-1-0.8c-0.3-0.3-0.5-0.7-0.7-1.2   c-0.2-0.4-0.3-0.9-0.3-1.5c0-0.6,0.1-1.1,0.3-1.5s0.4-0.8,0.7-1.2c0.3-0.3,0.6-0.6,1-0.8c0.4-0.2,0.8-0.3,1.4-0.3s0.9,0.1,1.3,0.3   c0.4,0.2,0.7,0.4,1,0.7c0.3,0.3,0.5,0.7,0.6,1.1c0.1,0.4,0.3,0.8,0.3,1.4v0.5h-5.3v0.3c0,0.3,0.1,0.6,0.2,0.8   c0.1,0.3,0.3,0.5,0.4,0.7c0.2,0.2,0.4,0.3,0.7,0.4c0.3,0.1,0.6,0.2,0.9,0.2c0.5,0,0.8-0.1,1.3-0.3c0.3-0.3,0.6-0.5,0.8-0.9l0.8,0.6   c-0.2,0.5-0.6,0.8-1,1.2C1421.8,586.1,1421.2,586.2,1420.6,586.2z M1420.5,579.7c-0.3,0-0.6,0.1-0.8,0.2c-0.3,0.1-0.5,0.3-0.7,0.4   c-0.2,0.2-0.3,0.4-0.4,0.7c-0.1,0.3-0.2,0.5-0.2,0.8v0.1h4.1v-0.2c0-0.3-0.1-0.6-0.2-0.8c-0.1-0.3-0.3-0.5-0.4-0.7   c-0.2-0.2-0.3-0.3-0.6-0.4C1421.1,579.8,1420.7,579.7,1420.5,579.7z"
   id="path512" />
	<path
   class="st2"
   d="M1425.4,586.1l2.6-3.6l-2.5-3.5h1.3l1.1,1.5l0.8,1.2h0.1l0.8-1.2l1-1.5h1.3l-2.6,3.5l2.6,3.6h-1.3l-1.2-1.7   l-0.8-1.1h-0.1l-0.8,1.1l-1.2,1.7H1425.4L1425.4,586.1z"
   id="path514" />
	<path
   class="st2"
   d="M1439.6,586.1c-0.4,0-0.8-0.1-0.9-0.3s-0.3-0.5-0.3-0.8h-0.1c-0.2,0.4-0.4,0.8-0.8,0.9   c-0.3,0.2-0.8,0.3-1.4,0.3c-0.8,0-1.4-0.2-1.8-0.6s-0.7-0.9-0.7-1.6c0-0.7,0.3-1.2,0.7-1.5c0.5-0.3,1.3-0.5,2.3-0.5h1.5v-0.7   c0-0.5-0.2-0.9-0.4-1.2c-0.3-0.3-0.7-0.4-1.3-0.4c-0.5,0-0.8,0.1-1.2,0.3c-0.3,0.2-0.5,0.4-0.8,0.8l-0.8-0.6   c0.1-0.2,0.2-0.3,0.3-0.5s0.3-0.3,0.6-0.5c0.3-0.2,0.5-0.3,0.8-0.3c0.3-0.1,0.6-0.1,1-0.1c0.8,0,1.5,0.2,2,0.7   c0.4,0.5,0.8,1,0.8,1.8v3.9h1v0.9L1439.6,586.1L1439.6,586.1z M1436.3,585.3c0.3,0,0.5,0,0.8-0.1c0.3-0.1,0.4-0.2,0.6-0.3   c0.2-0.1,0.3-0.3,0.4-0.4s0.2-0.3,0.2-0.5v-1.2h-1.5c-0.7,0-1.1,0.1-1.4,0.3c-0.3,0.2-0.4,0.4-0.4,0.8v0.3c0,0.3,0.2,0.7,0.4,0.8   C1435.6,585.1,1435.8,585.3,1436.3,585.3z"
   id="path516" />
	<path
   class="st2"
   d="M1441.8,586.1v-7h1v0.8h0.1c0.1-0.3,0.3-0.5,0.4-0.7c0.2-0.2,0.5-0.3,0.8-0.3c0.4,0,0.7,0.1,0.9,0.3   c0.2,0.2,0.3,0.5,0.3,0.8l0,0c0.2-0.3,0.3-0.6,0.6-0.8c0.3-0.2,0.6-0.3,1-0.3c0.6,0,0.9,0.2,1.2,0.6c0.2,0.4,0.3,1,0.3,1.7v4.9h-1   v-4.8c0-0.6-0.1-1-0.2-1.3c-0.1-0.3-0.3-0.3-0.7-0.3c-0.3,0-0.5,0.1-0.7,0.3c-0.2,0.2-0.3,0.5-0.3,0.8v5.2h-1v-4.8   c0-0.6-0.1-1-0.2-1.3s-0.3-0.3-0.7-0.3c-0.3,0-0.5,0.1-0.7,0.3c-0.2,0.2-0.3,0.5-0.3,0.8v5.2L1441.8,586.1L1441.8,586.1z"
   id="path518" />
	<path
   class="st2"
   d="M1450.6,579h1.1v1.2h0.1c0.4-0.8,1.2-1.4,2.2-1.4c0.8,0,1.5,0.3,2,1s0.8,1.5,0.8,2.7s-0.3,2-0.8,2.7   s-1.2,1-2,1c-1,0-1.7-0.4-2.2-1.4h-0.1v3.9h-1.1V579z M1453.5,585.3c0.7,0,1.1-0.2,1.5-0.6c0.3-0.4,0.5-0.9,0.5-1.5V582   c0-0.7-0.2-1.2-0.5-1.5c-0.3-0.3-0.8-0.6-1.5-0.6c-0.3,0-0.5,0-0.7,0.1c-0.3,0.1-0.4,0.2-0.6,0.3c-0.2,0.1-0.3,0.3-0.4,0.4   c-0.2,0.2-0.2,0.4-0.2,0.6v2.5c0,0.3,0.1,0.4,0.2,0.6c0.1,0.2,0.3,0.3,0.4,0.4c0.2,0.1,0.3,0.3,0.6,0.3   C1453,585.2,1453.2,585.3,1453.5,585.3z"
   id="path520" />
	<path
   class="st2"
   d="M1458.6,585.1h2.5v-8.2h-2.5V576h3.6v9.2h2.5v0.9h-6V585.1L1458.6,585.1z"
   id="path522" />
	<path
   class="st2"
   d="M1470,586.2c-0.5,0-1-0.1-1.4-0.3c-0.4-0.2-0.8-0.4-1-0.8c-0.3-0.3-0.5-0.7-0.7-1.2c-0.2-0.4-0.3-0.9-0.3-1.5   c0-0.6,0.1-1.1,0.3-1.5s0.4-0.8,0.7-1.2c0.3-0.3,0.6-0.6,1-0.8c0.4-0.2,0.8-0.3,1.4-0.3s0.9,0.1,1.3,0.3c0.4,0.2,0.7,0.4,1,0.7   c0.3,0.3,0.5,0.7,0.6,1.1c0.1,0.4,0.3,0.8,0.3,1.4v0.5h-5.3v0.3c0,0.3,0.1,0.6,0.2,0.8c0.1,0.3,0.3,0.5,0.4,0.7   c0.2,0.2,0.4,0.3,0.7,0.4c0.3,0.1,0.6,0.2,0.9,0.2c0.5,0,0.8-0.1,1.3-0.3c0.3-0.3,0.6-0.5,0.8-0.9l0.8,0.6c-0.2,0.5-0.6,0.8-1,1.2   C1471.3,586.1,1470.7,586.2,1470,586.2z M1469.9,579.7c-0.3,0-0.6,0.1-0.8,0.2c-0.3,0.1-0.5,0.3-0.7,0.4c-0.2,0.2-0.3,0.4-0.4,0.7   c-0.1,0.3-0.2,0.5-0.2,0.8v0.1h4.1v-0.2c0-0.3-0.1-0.6-0.2-0.8c-0.1-0.3-0.3-0.5-0.4-0.7c-0.2-0.2-0.3-0.3-0.6-0.4   C1470.5,579.8,1470.2,579.7,1469.9,579.7z"
   id="path524" />
	<path
   class="st2"
   d="M1478.1,586.2c-0.3,0-0.7-0.1-0.8-0.3c-0.1-0.2-0.3-0.3-0.3-0.6v-0.3c0-0.3,0.1-0.4,0.3-0.6   c0.2-0.2,0.4-0.3,0.8-0.3s0.7,0.1,0.8,0.3c0.1,0.2,0.3,0.3,0.3,0.6v0.3c0,0.3-0.1,0.4-0.3,0.6   C1478.7,586.1,1478.4,586.2,1478.1,586.2z"
   id="path526" />
	<path
   class="st2"
   d="M1483.5,586.1v-7h1.1v1.2h0.1c0.1-0.2,0.2-0.3,0.3-0.5s0.3-0.3,0.4-0.4c0.2-0.2,0.3-0.2,0.6-0.3   c0.3-0.1,0.5-0.1,0.8-0.1c0.8,0,1.4,0.3,1.8,0.7c0.4,0.5,0.7,1.1,0.7,2v4.5h-1.1v-4.3c0-0.7-0.2-1.1-0.4-1.4   c-0.3-0.3-0.7-0.5-1.3-0.5c-0.3,0-0.4,0-0.7,0.1c-0.2,0.1-0.4,0.2-0.6,0.3c-0.2,0.1-0.3,0.3-0.4,0.4c-0.1,0.2-0.2,0.3-0.2,0.6v4.9   L1483.5,586.1L1483.5,586.1z"
   id="path528" />
	<path
   class="st2"
   d="M1494.6,586.2c-0.5,0-1-0.1-1.4-0.3c-0.3-0.2-0.8-0.4-1-0.8c-0.3-0.3-0.5-0.7-0.7-1.2   c-0.2-0.4-0.3-0.9-0.3-1.5c0-0.6,0.1-1.1,0.3-1.5s0.4-0.8,0.7-1.2c0.3-0.3,0.6-0.6,1-0.8c0.4-0.2,0.8-0.3,1.4-0.3s0.9,0.1,1.3,0.3   c0.4,0.2,0.7,0.4,1,0.7c0.3,0.3,0.5,0.7,0.6,1.1c0.1,0.4,0.3,0.8,0.3,1.4v0.5h-5.3v0.3c0,0.3,0.1,0.6,0.2,0.8   c0.1,0.3,0.3,0.5,0.4,0.7c0.2,0.2,0.4,0.3,0.7,0.4c0.3,0.1,0.6,0.2,0.9,0.2c0.5,0,0.8-0.1,1.3-0.3c0.3-0.3,0.6-0.5,0.8-0.9l0.8,0.6   c-0.2,0.5-0.6,0.8-1,1.2C1496,586.1,1495.4,586.2,1494.6,586.2z M1494.6,579.7c-0.3,0-0.6,0.1-0.8,0.2c-0.3,0.1-0.5,0.3-0.7,0.4   c-0.2,0.2-0.3,0.4-0.4,0.7c-0.1,0.3-0.2,0.5-0.2,0.8v0.1h4.1v-0.2c0-0.3-0.1-0.6-0.2-0.8c-0.1-0.3-0.3-0.5-0.4-0.7   c-0.2-0.2-0.3-0.3-0.6-0.4C1495.2,579.8,1494.9,579.7,1494.6,579.7z"
   id="path530" />
	<path
   class="st2"
   d="M1503.1,586.1c-0.5,0-0.9-0.2-1.2-0.4c-0.3-0.3-0.4-0.7-0.4-1.2v-4.5h-2.4V579h1.8c0.3,0,0.4-0.1,0.5-0.2   s0.2-0.3,0.2-0.5v-1.9h1v2.5h3.2v0.9h-3.2v5.2h3.2v0.9L1503.1,586.1L1503.1,586.1z"
   id="path532" />
</g>
</svg>
