<?xml version="1.0" encoding="utf-8"?>
<!-- Generator: Adobe Illustrator 25.4.1, SVG Export Plug-In . SVG Version: 6.00 Build 0)  -->
<svg version="1.1" id="Capa_1" xmlns="http://www.w3.org/2000/svg" xmlns:xlink="http://www.w3.org/1999/xlink" x="0px" y="0px"
	 viewBox="0 0 891.4 1502.4" style="enable-background:new 0 0 891.4 1502.4;" xml:space="preserve">
<style type="text/css">
	.st0{fill:#2680AF;}
	.st1{fill:#F9F9F9;stroke:#C1C1C1;stroke-width:5;stroke-miterlimit:10;}
	.st2{fill:#434343;}
	.st3{fill:#F5F5F5;}
	.st4{fill:#FFFFFF;stroke:#434343;stroke-width:2;stroke-miterlimit:10;}
	.st5{fill:#C83B51;}
	.st6{fill:#FFFFFF;}
	.st7{opacity:9.000000e-02;fill:#2680AF;enable-background:new    ;}
	.st8{fill:url(#SVGID_1_);}
	.st9{fill:url(#SVGID_00000047778623865545448660000011661455206857708470_);}
	.st10{fill:#F9F9F9;stroke:#C1C1C1;stroke-miterlimit:10;stroke-dasharray:7;}
	.st11{fill:#7FC63C;}
	.st12{fill:#D88A3D;}
</style>
<path class="st0" d="M-8357.1-1661.6v206.8h3.9c1.2,0,1.8,1.4,0.9,2.3l-4.9,4.9c-0.5,0.5-1.4,0.5-1.9,0l-4.9-4.9
	c-0.8-0.8-0.2-2.3,0.9-2.3h4v-206.8H-8357.1z"/>
<path class="st1" d="M205.4,957.2c-29.3,0-53.2-23.8-53.2-53.2s23.8-53.2,53.2-53.2c2.9,0,5.7,0.2,8.4,0.7
	c8.8-29.5,36.2-51.1,68.6-51.1c39.5,0,71.5,32,71.5,71.5c0,1.1,0,2.2-0.1,3.4c5.6-2.6,11.9-4,18.5-4c24.5,0,44.3,19.8,44.3,44.3
	s-19.8,44.3-44.3,44.3L205.4,957.2z"/>
<g>
	<path class="st2" d="M233.9,912.4h-4.6L216.9,896v16.4H212v-24.5h4.6l12.4,16.4v-16.4h4.9V912.4L233.9,912.4z"/>
	<path class="st2" d="M254.8,903.9c0,0.5,0,1.2-0.1,1.5h-12c0.5,2.5,2.2,3.5,4.4,3.5c1.5,0,3.1-0.6,4.3-1.6l2.7,2.9
		c-1.9,1.8-4.4,2.6-7.2,2.6c-5.2,0-8.8-3.5-8.8-8.9c0-5.3,3.5-9,8.6-9C251.5,895,254.8,898.6,254.8,903.9z M242.8,902.4h7.5
		c-0.4-2.2-1.7-3.4-3.7-3.4C244.4,899,243.2,900.3,242.8,902.4z"/>
	<path class="st2" d="M270.7,899.5h-6.1v6.2c0,2.1,1.1,2.9,2.5,2.9c1.1,0,2.3-0.5,3.2-1.1l1.7,3.6c-1.5,1-3.2,1.8-5.6,1.8
		c-4.2,0-6.3-2.4-6.3-6.8v-6.6h-3.3v-4.1h3.3v-5h4.6v5h6.1L270.7,899.5L270.7,899.5z"/>
	<path class="st2" d="M293.6,907.4l3.6-11.9h4.8l-5.7,17h-5.2l-3.8-11.5l-3.7,11.5h-5.2l-5.7-17h4.9l3.6,11.8l3.8-11.8h4.8
		L293.6,907.4z"/>
	<path class="st2" d="M321.8,904c0,5.1-3.9,8.9-9.2,8.9s-9.2-3.8-9.2-8.9s3.9-8.9,9.2-8.9C317.9,895,321.8,898.8,321.8,904z
		 M308.1,904c0,2.8,1.9,4.7,4.5,4.7s4.5-1.9,4.5-4.7s-1.9-4.7-4.5-4.7S308.1,901.2,308.1,904z"/>
	<path class="st2" d="M337.1,895.4l-0.7,4.5c-0.8-0.3-1.8-0.5-2.8-0.5c-2.1,0-3.6,1.3-3.6,3.8v9.2h-4.6v-17h4.4v1.8
		c1.1-1.6,2.7-2.3,4.8-2.3C335.7,895,336.5,895.2,337.1,895.4z"/>
	<path class="st2" d="M344.8,901.5h1.6l4.8-6h5.6l-6.7,8l6.7,9h-5.6l-4.9-6.9h-1.5v6.9h-4.6v-25.2h4.6L344.8,901.5L344.8,901.5z"/>
</g>
<path class="st3" d="M437.8,562.9H131.1c-4.9,0-9-4-9-9v-37.5c0-4.9,4-9,9-9h306.6c4.9,0,9,4,9,9v37.5
	C446.7,558.9,442.7,562.9,437.8,562.9z"/>
<g>
	<path class="st4" d="M402.3,239.5H144.5c-7.2,0-13.1-5.9-13.1-13.1v-96.1c0-7.2,5.9-13.1,13.1-13.1h257.8c7.2,0,13.1,5.9,13.1,13.1
		v96.2C415.4,233.7,409.5,239.5,402.3,239.5z"/>
	<path class="st4" d="M413.3,254.5H155.5c-7.2,0-13.1-5.9-13.1-13.1v-96.1c0-7.2,5.9-13.1,13.1-13.1h257.8c7.2,0,13.1,5.9,13.1,13.1
		v96.2C426.4,248.7,420.5,254.5,413.3,254.5z"/>
	<path class="st4" d="M424.3,269.5H166.5c-7.2,0-13.1-5.9-13.1-13.1v-96.1c0-7.2,5.9-13.1,13.1-13.1h257.8c7.2,0,13.1,5.9,13.1,13.1
		v96.2C437.4,263.7,431.5,269.5,424.3,269.5z"/>
	<g>
		<path class="st2" d="M224.6,217h-3.7l-1.5-4.1h-7.5l-1.5,4.1h-3.6l6.8-17.5h4.2L224.6,217z M213.1,209.7h5.1l-2.5-6.8L213.1,209.7
			z"/>
		<path class="st2" d="M239.2,210.9c0,3.6-2.5,6.4-5.9,6.4c-1.6,0-2.8-0.6-3.6-1.6v6.3h-3.1v-17.1h3.2v1.3c0.8-1,2-1.7,3.6-1.7
			C236.7,204.6,239.2,207.3,239.2,210.9z M229.7,210.9c0,1.9,1.3,3.3,3.1,3.3c1.9,0,3.1-1.5,3.1-3.3s-1.2-3.3-3.1-3.3
			S229.7,209,229.7,210.9z"/>
		<path class="st2" d="M254.6,210.9c0,3.6-2.5,6.4-5.9,6.4c-1.6,0-2.8-0.6-3.6-1.6v6.3h-3.2v-17.1h3.2v1.3c0.8-1,2-1.7,3.6-1.7
			C252.1,204.6,254.6,207.3,254.6,210.9z M245,210.9c0,1.9,1.3,3.3,3.1,3.3c1.9,0,3.1-1.5,3.1-3.3s-1.2-3.3-3.1-3.3
			C246.3,207.6,245,209,245,210.9z"/>
		<path class="st2" d="M260.5,217h-3.3v-18h3.3V217z"/>
		<path class="st2" d="M267.6,200.9c0,1.2-0.9,2.1-2.1,2.1s-2.1-0.9-2.1-2.1s0.9-2.1,2.1-2.1S267.6,199.8,267.6,200.9z M267.2,217
			h-3.3v-12.1h3.3V217z"/>
		<path class="st2" d="M281.2,206.8l-2.3,2c-0.7-0.8-1.5-1.2-2.6-1.2c-1.7,0-3,1.3-3,3.3s1.3,3.3,3,3.3c1,0,2-0.5,2.6-1.2l2.3,2
			c-1.1,1.5-2.8,2.3-4.9,2.3c-3.9,0-6.5-2.7-6.5-6.4s2.6-6.4,6.5-6.4C278.4,204.6,280.1,205.4,281.2,206.8z"/>
		<path class="st2" d="M295.2,217H292v-1.3c-0.8,1-2,1.6-3.6,1.6c-3.3,0-5.9-2.7-5.9-6.4s2.5-6.4,5.9-6.4c1.7,0,2.8,0.7,3.6,1.7
			v-1.3h3.2V217z M285.9,210.9c0,1.9,1.2,3.3,3.1,3.3c1.9,0,3.1-1.4,3.1-3.3s-1.3-3.3-3.1-3.3C287.1,207.6,285.9,209.1,285.9,210.9z
			"/>
		<path class="st2" d="M307.4,207.8H303v4.4c0,1.5,0.8,2.1,1.8,2.1c0.8,0,1.6-0.4,2.3-0.8l1.2,2.6c-1.1,0.7-2.3,1.3-4,1.3
			c-3,0-4.5-1.7-4.5-4.8v-4.7h-2.3V205h2.3v-3.6h3.3v3.6h4.4L307.4,207.8L307.4,207.8z"/>
		<path class="st2" d="M314,200.9c0,1.2-0.9,2.1-2.1,2.1s-2.1-0.9-2.1-2.1s0.9-2.1,2.1-2.1S314,199.8,314,200.9z M313.6,217h-3.3
			v-12.1h3.3V217z"/>
		<path class="st2" d="M329.3,210.9c0,3.6-2.8,6.4-6.6,6.4s-6.5-2.7-6.5-6.4s2.8-6.4,6.5-6.4C326.5,204.6,329.3,207.3,329.3,210.9z
			 M319.6,210.9c0,2,1.4,3.3,3.2,3.3s3.2-1.4,3.2-3.3s-1.4-3.3-3.2-3.3S319.6,209,319.6,210.9z"/>
		<path class="st2" d="M343.4,209.3v7.7h-3.3v-6.7c0-1.8-0.9-2.7-2.4-2.7c-1.4,0-2.6,0.9-2.6,2.7v6.6h-3.3v-12.1h3.2v1.4
			c0.9-1.3,2.2-1.8,3.6-1.8C341.5,204.6,343.4,206.5,343.4,209.3z"/>
		<path class="st2" d="M361,201.8c-3.2,1.5-4.9,4.6-4.9,8.1s1.7,6.6,4.9,8.1l-1,2.9c-4.4-1.7-7.3-5.9-7.3-11s3-9.3,7.3-11L361,201.8
			z"/>
		<path class="st2" d="M371.9,208.3c-1-0.5-2.5-1-3.9-1c-1.2,0-1.9,0.4-1.9,1.1c0,0.7,0.9,0.9,2,1l1.1,0.2c2.6,0.4,4.1,1.6,4.1,3.6
			c0,2.5-2,4.1-5.6,4.1c-1.7,0-3.8-0.3-5.4-1.4l1.3-2.5c1,0.7,2.3,1.2,4.1,1.2c1.5,0,2.2-0.4,2.2-1.1c0-0.6-0.6-0.9-2-1.1l-1-0.1
			c-2.8-0.4-4.2-1.6-4.2-3.7c0-2.5,1.9-4,5.1-4c1.9,0,3.5,0.4,5.1,1.2L371.9,208.3z"/>
		<path class="st2" d="M374.8,218c3.2-1.5,4.9-4.6,4.9-8.1s-1.7-6.6-4.9-8.1l1-2.9c4.4,1.7,7.3,5.9,7.3,11s-3,9.3-7.3,11L374.8,218z
			"/>
	</g>
</g>
<g>
	<path class="st2" d="M149.9,528.8h1.3v5h0.1c0.1-0.2,0.2-0.4,0.3-0.6s0.3-0.4,0.5-0.5c0.2-0.1,0.4-0.2,0.7-0.3s0.6-0.1,0.9-0.1
		c0.9,0,1.6,0.3,2.1,0.8c0.5,0.6,0.8,1.3,0.8,2.4v5.4h-1.3v-5.1c0-0.8-0.2-1.3-0.5-1.7c-0.3-0.4-0.8-0.6-1.5-0.6
		c-0.3,0-0.5,0-0.8,0.1c-0.2,0.1-0.5,0.2-0.7,0.3s-0.3,0.3-0.5,0.5c-0.1,0.2-0.2,0.4-0.2,0.7v5.8h-1.3v-12.1H149.9z"/>
	<path class="st2" d="M163.3,540.8c-0.6,0-1.1-0.2-1.4-0.5c-0.3-0.4-0.4-0.8-0.4-1.4v-5.3h-2.8v-1.1h2.1c0.3,0,0.5-0.1,0.6-0.2
		c0.1-0.1,0.2-0.3,0.2-0.6v-2.2h1.2v2.9h3.8v1.1h-3.8v6.1h3.8v1.1h-3.3V540.8z"/>
	<path class="st2" d="M173,540.8c-0.6,0-1.1-0.2-1.4-0.5c-0.3-0.4-0.4-0.8-0.4-1.4v-5.3h-2.8v-1.1h2.1c0.3,0,0.5-0.1,0.6-0.2
		c0.1-0.1,0.2-0.3,0.2-0.6v-2.2h1.2v2.9h3.8v1.1h-3.8v6.1h3.8v1.1H173V540.8z"/>
	<path class="st2" d="M179,532.4h1.3v1.4h0.1c0.5-1,1.4-1.5,2.6-1.5c1,0,1.8,0.4,2.4,1.1c0.6,0.8,0.9,1.8,0.9,3.2s-0.3,2.5-0.9,3.2
		s-1.4,1.1-2.4,1.1c-1.2,0-2-0.5-2.6-1.5h-0.1v4.6H179V532.4z M182.5,539.8c0.8,0,1.3-0.2,1.8-0.7c0.4-0.5,0.6-1.1,0.6-1.8v-1.4
		c0-0.8-0.2-1.4-0.6-1.8c-0.4-0.4-1-0.7-1.8-0.7c-0.3,0-0.6,0-0.8,0.1c-0.3,0.1-0.5,0.2-0.7,0.3s-0.3,0.3-0.5,0.5s-0.2,0.5-0.2,0.7
		v3c0,0.3,0.1,0.5,0.2,0.7s0.3,0.4,0.5,0.5c0.2,0.1,0.4,0.3,0.7,0.3C181.9,539.8,182.2,539.8,182.5,539.8z"/>
	<path class="st2" d="M192.1,540.9c-0.9,0-1.6-0.1-2.3-0.5c-0.6-0.3-1.2-0.7-1.6-1.2l0.9-0.8c0.4,0.4,0.8,0.7,1.3,1s1,0.3,1.7,0.3
		s1.2-0.1,1.6-0.4s0.6-0.6,0.6-1.1c0-0.2,0-0.4-0.1-0.5c-0.1-0.1-0.2-0.3-0.3-0.4c-0.1-0.1-0.3-0.1-0.5-0.2
		c-0.2-0.1-0.4-0.1-0.5-0.1l-1.3-0.2c-0.3,0-0.6-0.1-1-0.2c-0.4-0.1-0.7-0.2-0.9-0.4c-0.3-0.2-0.5-0.4-0.7-0.7s-0.3-0.6-0.3-1.1
		c0-0.4,0.1-0.8,0.2-1.1c0.1-0.3,0.4-0.6,0.7-0.8c0.3-0.2,0.7-0.4,1.1-0.5c0.4-0.1,0.9-0.1,1.3-0.1c0.8,0,1.4,0.1,2,0.4s1,0.6,1.4,1
		l-0.8,0.8c-0.1-0.1-0.2-0.2-0.4-0.4c-0.2-0.1-0.3-0.2-0.5-0.3s-0.5-0.2-0.7-0.2c-0.3-0.1-0.6-0.1-1-0.1c-0.7,0-1.2,0.1-1.5,0.3
		c-0.3,0.2-0.5,0.6-0.5,1c0,0.2,0,0.4,0.1,0.5c0.1,0.1,0.2,0.3,0.3,0.4c0.1,0.1,0.3,0.1,0.5,0.2c0.2,0,0.4,0.1,0.5,0.1l1.3,0.2
		c0.3,0,0.6,0.1,1,0.2c0.4,0.1,0.6,0.2,0.9,0.4c0.3,0.2,0.5,0.4,0.7,0.7c0.2,0.3,0.3,0.6,0.3,1.1c0,0.8-0.3,1.5-1,1.9
		C193.9,540.5,193.2,540.9,192.1,540.9z"/>
	<path class="st2" d="M201.7,534.5c-0.4,0-0.8-0.1-0.9-0.3c-0.1-0.2-0.3-0.4-0.3-0.7v-0.3c0-0.3,0.1-0.5,0.3-0.7s0.5-0.3,0.9-0.3
		s0.8,0.1,0.9,0.3c0.1,0.2,0.3,0.4,0.3,0.7v0.3c0,0.3-0.1,0.5-0.3,0.7C202.5,534.4,202.2,534.5,201.7,534.5z M201.7,540.9
		c-0.4,0-0.8-0.1-0.9-0.3c-0.1-0.2-0.3-0.4-0.3-0.7v-0.3c0-0.3,0.1-0.5,0.3-0.7s0.5-0.3,0.9-0.3s0.8,0.1,0.9,0.3
		c0.1,0.2,0.3,0.4,0.3,0.7v0.3c0,0.3-0.1,0.5-0.3,0.7S202.2,540.9,201.7,540.9z"/>
	<path class="st2" d="M208.1,543l5.6-14.5h1.2l-5.6,14.5H208.1z"/>
	<path class="st2" d="M217.8,543l5.6-14.5h1.2L219,543H217.8z"/>
	<path class="st2" d="M226.9,540.8v-8.4h1.2v1h0.1c0.1-0.3,0.3-0.6,0.5-0.8s0.6-0.3,1-0.3c0.5,0,0.8,0.1,1.1,0.4
		c0.2,0.2,0.4,0.6,0.4,1l0,0c0.2-0.4,0.4-0.7,0.7-0.9c0.3-0.2,0.7-0.4,1.2-0.4c0.7,0,1.1,0.2,1.4,0.7c0.2,0.5,0.3,1.1,0.3,2v5.8
		h-1.2v-5.6c0-0.7-0.1-1.2-0.2-1.5s-0.4-0.4-0.8-0.4c-0.3,0-0.6,0.1-0.8,0.3s-0.3,0.6-0.3,1v6.1h-1.2v-5.6c0-0.7-0.1-1.2-0.2-1.5
		s-0.4-0.4-0.8-0.4c-0.3,0-0.6,0.1-0.8,0.3c-0.2,0.2-0.3,0.6-0.3,1v6.1L226.9,540.8L226.9,540.8z"/>
	<path class="st2" d="M237.4,539.6h3v-6.1h-3v-1.1h4.3v7.2h2.8v1.1h-7.1V539.6L237.4,539.6z M241.1,530.6c-0.4,0-0.6-0.1-0.8-0.2
		c-0.2-0.2-0.2-0.4-0.2-0.6v-0.3c0-0.2,0.1-0.4,0.2-0.6c0.2-0.2,0.4-0.2,0.8-0.2s0.6,0.1,0.8,0.2c0.2,0.2,0.2,0.4,0.2,0.6v0.3
		c0,0.2-0.1,0.4-0.2,0.6C241.7,530.5,241.5,530.6,241.1,530.6z"/>
	<path class="st2" d="M247,540.8v-8.4h1.3v1.4h0.1c0.1-0.2,0.2-0.4,0.3-0.6s0.3-0.4,0.5-0.5c0.2-0.1,0.4-0.2,0.7-0.3
		s0.6-0.1,0.9-0.1c0.9,0,1.6,0.3,2.1,0.8c0.5,0.6,0.8,1.3,0.8,2.4v5.4h-1.3v-5.1c0-0.8-0.2-1.3-0.5-1.7c-0.3-0.4-0.8-0.6-1.5-0.6
		c-0.3,0-0.5,0-0.8,0.1c-0.2,0.1-0.5,0.2-0.7,0.3s-0.3,0.3-0.5,0.5c-0.1,0.2-0.2,0.4-0.2,0.7v5.8L247,540.8L247,540.8z"/>
	<path class="st2" d="M256.8,539.6h3v-6.1h-3v-1.1h4.3v7.2h2.8v1.1h-7.1V539.6L256.8,539.6z M260.5,530.6c-0.4,0-0.6-0.1-0.8-0.2
		c-0.2-0.2-0.2-0.4-0.2-0.6v-0.3c0-0.2,0.1-0.4,0.2-0.6c0.2-0.2,0.4-0.2,0.8-0.2s0.6,0.1,0.8,0.2c0.2,0.2,0.2,0.4,0.2,0.6v0.3
		c0,0.2-0.1,0.4-0.2,0.6C261.1,530.5,260.9,530.6,260.5,530.6z"/>
	<path class="st2" d="M269.7,540.9c-0.6,0-1.1-0.1-1.6-0.3c-0.5-0.2-0.9-0.5-1.2-0.9c-0.3-0.4-0.6-0.8-0.8-1.4
		c-0.2-0.5-0.3-1.1-0.3-1.8s0.1-1.3,0.3-1.8s0.4-1,0.8-1.4c0.4-0.4,0.7-0.7,1.2-0.9s1-0.3,1.6-0.3s1.1,0.1,1.6,0.3
		c0.5,0.2,0.9,0.5,1.2,0.9c0.3,0.4,0.6,0.8,0.8,1.4c0.2,0.6,0.3,1.1,0.3,1.8c0,0.7-0.1,1.3-0.3,1.8s-0.4,1-0.8,1.4
		c-0.3,0.4-0.7,0.7-1.2,0.9C270.8,540.8,270.3,540.9,269.7,540.9z M269.7,539.8c0.7,0,1.3-0.2,1.8-0.6c0.4-0.4,0.7-1.1,0.7-2V536
		c0-0.9-0.2-1.6-0.7-2c-0.4-0.4-1-0.6-1.8-0.6c-0.7,0-1.3,0.2-1.8,0.6c-0.5,0.4-0.7,1.1-0.7,2v1.2c0,0.9,0.2,1.6,0.7,2
		C268.4,539.6,269,539.8,269.7,539.8z"/>
	<path class="st2" d="M277,536.5v-1.4h4.7v1.4H277z"/>
	<path class="st2" d="M289.1,540.9c-0.7,0-1.3-0.1-1.8-0.4s-0.9-0.6-1.2-1.1s-0.6-1.1-0.7-1.8c-0.1-0.7-0.2-1.5-0.2-2.5
		c0-0.9,0.1-1.7,0.2-2.5s0.4-1.3,0.7-1.8s0.7-0.9,1.2-1.1s1.1-0.4,1.8-0.4s1.3,0.1,1.8,0.4s0.9,0.6,1.2,1.1s0.6,1.1,0.7,1.8
		c0.1,0.7,0.2,1.5,0.2,2.5c0,0.9-0.1,1.8-0.2,2.5c-0.2,0.7-0.4,1.3-0.7,1.8s-0.7,0.9-1.2,1.1S289.8,540.9,289.1,540.9z M289.1,539.8
		c0.5,0,0.8-0.1,1.2-0.3c0.3-0.2,0.6-0.4,0.8-0.8c0.2-0.4,0.3-0.7,0.4-1.2s0.2-1,0.2-1.5v-1.8c0-0.6,0-1.1-0.2-1.5
		c-0.1-0.5-0.2-0.9-0.4-1.2s-0.5-0.6-0.8-0.8c-0.3-0.2-0.7-0.3-1.2-0.3s-0.8,0.1-1.2,0.3c-0.3,0.2-0.6,0.4-0.8,0.8
		c-0.2,0.3-0.3,0.7-0.4,1.2c-0.1,0.5-0.2,1-0.2,1.5v1.8c0,0.6,0,1.1,0.2,1.5c0.2,0.4,0.2,0.9,0.4,1.2c0.2,0.3,0.5,0.6,0.8,0.8
		C288.3,539.7,288.7,539.8,289.1,539.8z M289.1,536.1c-0.4,0-0.6-0.1-0.8-0.2c-0.2-0.1-0.2-0.3-0.2-0.5V535c0-0.2,0.1-0.4,0.2-0.5
		c0.1-0.1,0.4-0.2,0.8-0.2s0.6,0.1,0.8,0.2c0.2,0.1,0.2,0.3,0.2,0.5v0.4c0,0.2-0.1,0.4-0.2,0.5C289.7,536,289.5,536.1,289.1,536.1z"
		/>
	<path class="st2" d="M295.3,540.8v-1.2h3.2v-9.1h-0.1l-2.8,2.6l-0.8-0.9l3-2.8h2.1v10.1h3v1.2L295.3,540.8L295.3,540.8z"/>
	<path class="st2" d="M308.5,540.9c-0.4,0-0.8-0.1-0.9-0.3c-0.1-0.2-0.3-0.4-0.3-0.7v-0.3c0-0.3,0.1-0.5,0.3-0.7s0.5-0.3,0.9-0.3
		s0.8,0.1,0.9,0.3c0.1,0.2,0.3,0.4,0.3,0.7v0.3c0,0.3-0.1,0.5-0.3,0.7S308.9,540.9,308.5,540.9z"/>
	<path class="st2" d="M318.4,540.9c-0.6,0-1.2-0.1-1.6-0.3c-0.5-0.2-0.9-0.5-1.2-0.9c-0.3-0.4-0.6-0.8-0.8-1.4
		c-0.2-0.5-0.3-1.1-0.3-1.8s0.1-1.3,0.3-1.8s0.5-1,0.8-1.4c0.3-0.4,0.7-0.7,1.2-0.9s1-0.3,1.6-0.3s1.1,0.1,1.5,0.3
		c0.4,0.2,0.8,0.5,1.2,0.9c0.3,0.4,0.6,0.8,0.7,1.3s0.3,1,0.3,1.6v0.6h-6.2v0.4c0,0.4,0.1,0.7,0.2,1s0.3,0.6,0.5,0.8
		c0.2,0.2,0.5,0.4,0.8,0.5c0.3,0.1,0.7,0.2,1.1,0.2c0.6,0,1-0.1,1.5-0.4c0.4-0.3,0.7-0.6,0.9-1.1l1,0.6c-0.2,0.6-0.7,1-1.2,1.4
		C319.9,540.8,319.2,540.9,318.4,540.9z M318.3,533.3c-0.4,0-0.7,0.1-1,0.2c-0.3,0.1-0.6,0.3-0.8,0.5s-0.4,0.5-0.5,0.8
		s-0.2,0.6-0.2,1v0.1h4.8v-0.2c0-0.4-0.1-0.7-0.2-1s-0.3-0.6-0.5-0.8s-0.4-0.4-0.7-0.5C318.9,533.3,318.6,533.3,318.3,533.3z"/>
	<path class="st2" d="M324.1,540.8l3.1-4.2l-3-4.1h1.5l1.3,1.8l1,1.4h0.1l1-1.4l1.2-1.8h1.5l-3.1,4.1l3.1,4.2h-1.5l-1.4-2l-1-1.3
		h-0.1l-0.9,1.3l-1.4,2H324.1L324.1,540.8z"/>
	<path class="st2" d="M340.8,540.8c-0.5,0-0.9-0.1-1.1-0.4c-0.2-0.3-0.3-0.6-0.4-1h-0.1c-0.2,0.5-0.5,0.9-0.9,1.1s-1,0.4-1.6,0.4
		c-0.9,0-1.6-0.2-2.1-0.7s-0.8-1.1-0.8-1.9s0.3-1.4,0.8-1.8c0.6-0.4,1.5-0.6,2.7-0.6h1.8v-0.8c0-0.6-0.2-1.1-0.5-1.4
		s-0.8-0.5-1.5-0.5c-0.6,0-1,0.1-1.4,0.3c-0.4,0.2-0.6,0.5-0.9,0.9l-0.9-0.6c0.1-0.2,0.2-0.4,0.4-0.6s0.4-0.4,0.7-0.5
		c0.3-0.2,0.6-0.3,0.9-0.4c0.3-0.1,0.7-0.1,1.2-0.1c1,0,1.8,0.2,2.3,0.8s0.9,1.2,0.9,2.1v4.6h1.2v1.1H340.8L340.8,540.8z
		 M336.9,539.9c0.3,0,0.6,0,0.9-0.1c0.3-0.1,0.5-0.2,0.7-0.3c0.2-0.1,0.4-0.3,0.5-0.5s0.2-0.4,0.2-0.6V537h-1.8
		c-0.8,0-1.3,0.1-1.7,0.3s-0.5,0.5-0.5,0.9v0.3c0,0.4,0.2,0.8,0.5,1C336,539.8,336.4,539.9,336.9,539.9z"/>
	<path class="st2" d="M343.4,540.8v-8.4h1.2v1h0.1c0.1-0.3,0.3-0.6,0.5-0.8s0.6-0.3,1-0.3c0.5,0,0.8,0.1,1.1,0.4
		c0.2,0.2,0.4,0.6,0.4,1l0,0c0.2-0.4,0.4-0.7,0.7-0.9c0.3-0.2,0.7-0.4,1.2-0.4c0.7,0,1.1,0.2,1.4,0.7c0.2,0.5,0.3,1.1,0.3,2v5.8
		h-1.2v-5.6c0-0.7-0.1-1.2-0.2-1.5s-0.4-0.4-0.8-0.4c-0.3,0-0.6,0.1-0.8,0.3s-0.3,0.6-0.3,1v6.1h-1.3v-5.6c0-0.7-0.1-1.2-0.2-1.5
		s-0.4-0.4-0.8-0.4c-0.3,0-0.6,0.1-0.8,0.3c-0.2,0.2-0.3,0.6-0.3,1v6.1L343.4,540.8L343.4,540.8z"/>
	<path class="st2" d="M353.7,532.4h1.3v1.4h0.1c0.5-1,1.4-1.5,2.6-1.5c1,0,1.8,0.4,2.4,1.1c0.6,0.8,0.9,1.8,0.9,3.2
		s-0.3,2.5-0.9,3.2s-1.4,1.1-2.4,1.1c-1.2,0-2-0.5-2.6-1.5H355v4.6h-1.3V532.4z M357.2,539.8c0.8,0,1.3-0.2,1.8-0.7
		c0.4-0.5,0.6-1.1,0.6-1.8v-1.4c0-0.8-0.2-1.4-0.6-1.8c-0.4-0.4-1-0.7-1.8-0.7c-0.3,0-0.6,0-0.8,0.1c-0.3,0.1-0.5,0.2-0.7,0.3
		s-0.3,0.3-0.5,0.5s-0.2,0.5-0.2,0.7v3c0,0.3,0.1,0.5,0.2,0.7s0.3,0.4,0.5,0.5c0.2,0.1,0.4,0.3,0.7,0.3
		C356.6,539.8,356.9,539.8,357.2,539.8z"/>
	<path class="st2" d="M363.2,539.6h2.9v-9.7h-2.9v-1.1h4.2v10.9h2.9v1.1h-7.1L363.2,539.6L363.2,539.6z"/>
	<path class="st2" d="M376.6,540.9c-0.6,0-1.2-0.1-1.6-0.3c-0.5-0.2-0.9-0.5-1.2-0.9c-0.3-0.4-0.6-0.8-0.8-1.4
		c-0.2-0.5-0.3-1.1-0.3-1.8s0.1-1.3,0.3-1.8s0.5-1,0.8-1.4c0.3-0.4,0.7-0.7,1.2-0.9s1-0.3,1.6-0.3s1.1,0.1,1.5,0.3
		c0.4,0.2,0.8,0.5,1.2,0.9c0.3,0.4,0.6,0.8,0.7,1.3s0.3,1,0.3,1.6v0.6h-6.2v0.4c0,0.4,0.1,0.7,0.2,1s0.3,0.6,0.5,0.8
		c0.2,0.2,0.5,0.4,0.8,0.5c0.3,0.1,0.7,0.2,1.1,0.2c0.6,0,1-0.1,1.5-0.4c0.4-0.3,0.7-0.6,0.9-1.1l1,0.6c-0.2,0.6-0.7,1-1.2,1.4
		C378.1,540.8,377.4,540.9,376.6,540.9z M376.5,533.3c-0.4,0-0.7,0.1-1,0.2c-0.3,0.1-0.6,0.3-0.8,0.5s-0.4,0.5-0.5,0.8
		s-0.2,0.6-0.2,1v0.1h4.8v-0.2c0-0.4-0.1-0.7-0.2-1s-0.3-0.6-0.5-0.8s-0.4-0.4-0.7-0.5C377.2,533.3,376.9,533.3,376.5,533.3z"/>
	<path class="st2" d="M386.2,540.9c-0.4,0-0.8-0.1-0.9-0.3c-0.1-0.2-0.3-0.4-0.3-0.7v-0.3c0-0.3,0.1-0.5,0.3-0.7s0.5-0.3,0.9-0.3
		s0.8,0.1,0.9,0.3c0.1,0.2,0.3,0.4,0.3,0.7v0.3c0,0.3-0.1,0.5-0.3,0.7S386.6,540.9,386.2,540.9z"/>
	<path class="st2" d="M392.6,540.8v-8.4h1.3v1.4h0.1c0.1-0.2,0.2-0.4,0.3-0.6s0.3-0.4,0.5-0.5c0.2-0.1,0.4-0.2,0.7-0.3
		s0.6-0.1,0.9-0.1c0.9,0,1.6,0.3,2.1,0.8c0.5,0.6,0.8,1.3,0.8,2.4v5.4H398v-5.1c0-0.8-0.2-1.3-0.5-1.7c-0.3-0.4-0.8-0.6-1.5-0.6
		c-0.3,0-0.5,0-0.8,0.1c-0.2,0.1-0.5,0.2-0.7,0.3s-0.3,0.3-0.5,0.5c-0.1,0.2-0.2,0.4-0.2,0.7v5.8L392.6,540.8L392.6,540.8z"/>
	<path class="st2" d="M405.7,540.9c-0.6,0-1.2-0.1-1.6-0.3c-0.5-0.2-0.9-0.5-1.2-0.9c-0.3-0.4-0.6-0.8-0.8-1.4
		c-0.2-0.5-0.3-1.1-0.3-1.8s0.1-1.3,0.3-1.8s0.5-1,0.8-1.4c0.3-0.4,0.7-0.7,1.2-0.9s1-0.3,1.6-0.3s1.1,0.1,1.5,0.3
		c0.4,0.2,0.8,0.5,1.2,0.9c0.3,0.4,0.6,0.8,0.7,1.3s0.3,1,0.3,1.6v0.6h-6.2v0.4c0,0.4,0.1,0.7,0.2,1s0.3,0.6,0.5,0.8
		c0.2,0.2,0.5,0.4,0.8,0.5c0.3,0.1,0.7,0.2,1.1,0.2c0.6,0,1-0.1,1.5-0.4c0.4-0.3,0.7-0.6,0.9-1.1l1,0.6c-0.2,0.6-0.7,1-1.2,1.4
		C407.2,540.8,406.5,540.9,405.7,540.9z M405.6,533.3c-0.4,0-0.7,0.1-1,0.2c-0.3,0.1-0.6,0.3-0.8,0.5s-0.4,0.5-0.5,0.8
		s-0.2,0.6-0.2,1v0.1h4.8v-0.2c0-0.4-0.1-0.7-0.2-1s-0.3-0.6-0.5-0.8s-0.4-0.4-0.7-0.5C406.3,533.3,406,533.3,405.6,533.3z"/>
	<path class="st2" d="M415.7,540.8c-0.6,0-1.1-0.2-1.4-0.5c-0.3-0.4-0.4-0.8-0.4-1.4v-5.3h-2.8v-1.1h2.1c0.3,0,0.5-0.1,0.6-0.2
		c0.1-0.1,0.2-0.3,0.2-0.6v-2.2h1.2v2.9h3.8v1.1h-3.8v6.1h3.8v1.1h-3.3V540.8z"/>
</g>
<g>
	<g>
		<path class="st5" d="M435.9,487h-303c-6.6,0-12-5.4-12-12V367.1c0-6.6,5.4-12,12-12H436c6.6,0,12,5.4,12,12V475
			C447.9,481.6,442.5,487,435.9,487z M132.9,361.2c-3.3,0-6,2.7-6,6v107.9c0,3.3,2.7,6,6,6H436c3.3,0,6-2.7,6-6v-108
			c0-3.3-2.7-6-6-6L132.9,361.2L132.9,361.2z"/>
	</g>
	<path class="st5" d="M264.2,413.2H143.8c-3.3,0-6.1-2.7-6.1-6.1v-28.8c0-3.4,2.7-6.1,6.1-6.1h120.4c3.3,0,6.1,2.7,6.1,6.1v28.8
		C270.3,410.5,267.6,413.2,264.2,413.2z"/>
	<circle class="st6" cx="204" cy="392.1" r="8.4"/>
	<path class="st6" d="M155.5,406.6V379c0-0.3,0.3-0.6,0.6-0.6h4.9c0.3,0,0.6,0.3,0.6,0.6v27.6c0,0.3-0.3,0.6-0.6,0.6h-4.9
		C155.8,407.1,155.5,406.9,155.5,406.6z"/>
	<path class="st6" d="M166.3,406.6V379c0-0.3,0.3-0.6,0.6-0.6h4.9c0.3,0,0.6,0.3,0.6,0.6v27.6c0,0.3-0.3,0.6-0.6,0.6h-4.9
		C166.5,407.1,166.3,406.9,166.3,406.6z"/>
	<path class="st6" d="M144.8,406.6V379c0-0.3,0.3-0.6,0.6-0.6h4.9c0.3,0,0.6,0.3,0.6,0.6v27.6c0,0.3-0.3,0.6-0.6,0.6h-4.9
		C145,407.1,144.8,406.9,144.8,406.6z"/>
	<path class="st6" d="M246.7,406.6V379c0-0.3,0.3-0.6,0.6-0.6h4.9c0.3,0,0.6,0.3,0.6,0.6v27.6c0,0.3-0.3,0.6-0.6,0.6h-4.9
		C246.9,407.1,246.7,406.9,246.7,406.6z"/>
	<path class="st6" d="M257.4,406.6V379c0-0.3,0.3-0.6,0.6-0.6h4.9c0.3,0,0.6,0.3,0.6,0.6v27.6c0,0.3-0.3,0.6-0.6,0.6H258
		C257.7,407.1,257.4,406.9,257.4,406.6z"/>
	<path class="st6" d="M235.9,406.6V379c0-0.3,0.3-0.6,0.6-0.6h4.9c0.3,0,0.6,0.3,0.6,0.6v27.6c0,0.3-0.3,0.6-0.6,0.6h-4.9
		C236.2,407.1,235.9,406.9,235.9,406.6z"/>
	<g>
		<path class="st5" d="M264.2,468.3H143.8c-3.3,0-6.1-2.7-6.1-6.1v-28.8c0-3.4,2.7-6.1,6.1-6.1h120.4c3.3,0,6.1,2.7,6.1,6.1v28.8
			C270.3,465.6,267.6,468.3,264.2,468.3z"/>
		<circle class="st6" cx="204" cy="447.2" r="8.4"/>
		<path class="st6" d="M155.5,461.6V434c0-0.3,0.3-0.6,0.6-0.6h4.9c0.3,0,0.6,0.3,0.6,0.6v27.6c0,0.3-0.3,0.6-0.6,0.6h-4.9
			C155.8,462.2,155.5,461.9,155.5,461.6z"/>
		<path class="st6" d="M166.3,461.6V434c0-0.3,0.3-0.6,0.6-0.6h4.9c0.3,0,0.6,0.3,0.6,0.6v27.6c0,0.3-0.3,0.6-0.6,0.6h-4.9
			C166.5,462.2,166.3,461.9,166.3,461.6z"/>
		<path class="st6" d="M144.8,461.6V434c0-0.3,0.3-0.6,0.6-0.6h4.9c0.3,0,0.6,0.3,0.6,0.6v27.6c0,0.3-0.3,0.6-0.6,0.6h-4.9
			C145,462.2,144.8,461.9,144.8,461.6z"/>
		<path class="st6" d="M246.7,461.6V434c0-0.3,0.3-0.6,0.6-0.6h4.9c0.3,0,0.6,0.3,0.6,0.6v27.6c0,0.3-0.3,0.6-0.6,0.6h-4.9
			C246.9,462.2,246.7,461.9,246.7,461.6z"/>
		<path class="st6" d="M257.4,461.6V434c0-0.3,0.3-0.6,0.6-0.6h4.9c0.3,0,0.6,0.3,0.6,0.6v27.6c0,0.3-0.3,0.6-0.6,0.6H258
			C257.7,462.2,257.4,461.9,257.4,461.6z"/>
		<path class="st6" d="M235.9,461.6V434c0-0.3,0.3-0.6,0.6-0.6h4.9c0.3,0,0.6,0.3,0.6,0.6v27.6c0,0.3-0.3,0.6-0.6,0.6h-4.9
			C236.2,462.2,235.9,461.9,235.9,461.6z"/>
	</g>
	<path class="st5" d="M424.7,413.2H304.3c-3.3,0-6.1-2.7-6.1-6.1v-28.8c0-3.4,2.7-6.1,6.1-6.1h120.4c3.3,0,6.1,2.7,6.1,6.1v28.8
		C430.8,410.5,428.1,413.2,424.7,413.2z"/>
	<circle class="st6" cx="364.5" cy="392.1" r="8.4"/>
	<path class="st6" d="M316,406.6V379c0-0.3,0.3-0.6,0.6-0.6h4.9c0.3,0,0.6,0.3,0.6,0.6v27.6c0,0.3-0.3,0.6-0.6,0.6h-4.9
		C316.3,407.1,316,406.9,316,406.6z"/>
	<path class="st6" d="M326.8,406.6V379c0-0.3,0.3-0.6,0.6-0.6h4.9c0.3,0,0.6,0.3,0.6,0.6v27.6c0,0.3-0.3,0.6-0.6,0.6h-4.9
		C327,407.1,326.8,406.9,326.8,406.6z"/>
	<path class="st6" d="M305.2,406.6V379c0-0.3,0.3-0.6,0.6-0.6h4.9c0.3,0,0.6,0.3,0.6,0.6v27.6c0,0.3-0.3,0.6-0.6,0.6h-4.9
		C305.5,407.1,305.2,406.9,305.2,406.6z"/>
	<path class="st6" d="M407.1,406.6V379c0-0.3,0.3-0.6,0.6-0.6h4.9c0.3,0,0.6,0.3,0.6,0.6v27.6c0,0.3-0.3,0.6-0.6,0.6h-4.9
		C407.4,407.1,407.1,406.9,407.1,406.6z"/>
	<path class="st6" d="M417.9,406.6V379c0-0.3,0.3-0.6,0.6-0.6h4.9c0.3,0,0.6,0.3,0.6,0.6v27.6c0,0.3-0.3,0.6-0.6,0.6h-4.9
		C418.2,407.1,417.9,406.9,417.9,406.6z"/>
	<path class="st6" d="M396.4,406.6V379c0-0.3,0.3-0.6,0.6-0.6h4.9c0.3,0,0.6,0.3,0.6,0.6v27.6c0,0.3-0.3,0.6-0.6,0.6H397
		C396.6,407.1,396.4,406.9,396.4,406.6z"/>
	<g>
		<path class="st5" d="M424.7,468.3H304.3c-3.3,0-6.1-2.7-6.1-6.1v-28.8c0-3.4,2.7-6.1,6.1-6.1h120.4c3.3,0,6.1,2.7,6.1,6.1v28.8
			C430.8,465.6,428.1,468.3,424.7,468.3z"/>
		<circle class="st6" cx="364.5" cy="447.2" r="8.4"/>
		<path class="st6" d="M316,461.6V434c0-0.3,0.3-0.6,0.6-0.6h4.9c0.3,0,0.6,0.3,0.6,0.6v27.6c0,0.3-0.3,0.6-0.6,0.6h-4.9
			C316.3,462.2,316,461.9,316,461.6z"/>
		<path class="st6" d="M326.8,461.6V434c0-0.3,0.3-0.6,0.6-0.6h4.9c0.3,0,0.6,0.3,0.6,0.6v27.6c0,0.3-0.3,0.6-0.6,0.6h-4.9
			C327,462.2,326.8,461.9,326.8,461.6z"/>
		<path class="st6" d="M305.2,461.6V434c0-0.3,0.3-0.6,0.6-0.6h4.9c0.3,0,0.6,0.3,0.6,0.6v27.6c0,0.3-0.3,0.6-0.6,0.6h-4.9
			C305.5,462.2,305.2,461.9,305.2,461.6z"/>
		<path class="st6" d="M407.1,461.6V434c0-0.3,0.3-0.6,0.6-0.6h4.9c0.3,0,0.6,0.3,0.6,0.6v27.6c0,0.3-0.3,0.6-0.6,0.6h-4.9
			C407.4,462.2,407.1,461.9,407.1,461.6z"/>
		<path class="st6" d="M417.9,461.6V434c0-0.3,0.3-0.6,0.6-0.6h4.9c0.3,0,0.6,0.3,0.6,0.6v27.6c0,0.3-0.3,0.6-0.6,0.6h-4.9
			C418.2,462.2,417.9,461.9,417.9,461.6z"/>
		<path class="st6" d="M396.4,461.6V434c0-0.3,0.3-0.6,0.6-0.6h4.9c0.3,0,0.6,0.3,0.6,0.6v27.6c0,0.3-0.3,0.6-0.6,0.6H397
			C396.6,462.2,396.4,461.9,396.4,461.6z"/>
	</g>
</g>
<path class="st0" d="M288.6,773h-3.4v-33.6h3.4c1.2,0,1.8-1.4,0.9-2.3l-4.9-5c-0.5-0.5-1.4-0.5-1.9,0l-4.9,5
	c-0.8,0.8-0.2,2.3,0.9,2.3h3.7V773h-3.7c-1.2,0-1.8,1.4-0.9,2.3l4.9,5c0.5,0.5,1.4,0.5,1.9,0l4.9-5C290.4,774.5,289.8,773,288.6,773
	z"/>
<rect x="237.6" y="591" class="st7" width="93.7" height="110.1"/>
<g>
	<g>
		<path class="st2" d="M257.3,660.3c-0.8,0-1.5-0.2-2.1-0.4s-1.1-0.7-1.5-1.3c-0.4-0.5-0.7-1.2-0.9-2s-0.3-1.7-0.3-2.8
			c0-1,0.1-1.9,0.3-2.8c0.2-0.8,0.5-1.5,0.9-2s0.9-1,1.5-1.3s1.3-0.4,2.1-0.4c1.6,0,2.8,0.6,3.6,1.7c0.8,1.1,1.2,2.7,1.2,4.8
			s-0.4,3.7-1.2,4.8C260.1,659.8,258.9,660.3,257.3,660.3z M257.3,658.4c0.4,0,0.8-0.1,1.1-0.2s0.5-0.4,0.7-0.7s0.3-0.7,0.4-1.1
			s0.1-0.9,0.1-1.5v-2.1c0-1.1-0.2-1.9-0.5-2.6s-0.9-0.9-1.8-0.9s-1.4,0.3-1.8,0.9s-0.5,1.5-0.5,2.6v2.2c0,1.1,0.2,1.9,0.5,2.6
			C255.9,658.1,256.5,658.4,257.3,658.4z"/>
		<path class="st2" d="M264.2,647.5h4.4c1.2,0,2.1,0.3,2.8,0.9c0.6,0.6,1,1.4,1,2.4c0,0.7-0.2,1.3-0.5,1.7s-0.8,0.7-1.5,0.9v0.1
			c0.8,0.2,1.3,0.5,1.8,1s0.7,1.1,0.7,2c0,0.5-0.1,1-0.3,1.4s-0.4,0.8-0.7,1.1s-0.7,0.5-1.2,0.7s-1,0.2-1.5,0.2h-4.8L264.2,647.5
			L264.2,647.5z M268,652.9c0.6,0,1.1-0.1,1.4-0.3c0.3-0.2,0.5-0.6,0.5-1.2v-0.6c0-0.6-0.2-1-0.5-1.2s-0.8-0.3-1.4-0.3h-1.5v3.7
			L268,652.9L268,652.9z M268.2,658.4c0.7,0,1.2-0.1,1.5-0.4s0.5-0.7,0.5-1.3v-0.6c0-0.6-0.2-1-0.5-1.2s-0.8-0.4-1.5-0.4h-1.8v3.8
			L268.2,658.4L268.2,658.4z"/>
		<path class="st2" d="M282.5,647.5v9.1c0,0.6-0.1,1.1-0.3,1.5s-0.5,0.8-0.8,1.1s-0.8,0.6-1.3,0.7s-1,0.3-1.7,0.3
			c-1.2,0-2.1-0.3-2.8-0.9c-0.7-0.6-1.1-1.4-1.3-2.4l2.2-0.5c0.1,0.5,0.3,1,0.6,1.3s0.7,0.5,1.3,0.5c0.5,0,1-0.2,1.2-0.5
			s0.4-0.8,0.4-1.5v-6.9h-4.2v-1.9L282.5,647.5L282.5,647.5z"/>
		<path class="st2" d="M285.8,660.1v-12.6h7.9v1.9h-5.6v3.3h5.4v1.9h-5.4v3.5h5.6v1.9L285.8,660.1L285.8,660.1z"/>
		<path class="st2" d="M300.8,660.3c-1.6,0-2.9-0.6-3.7-1.7c-0.8-1.1-1.2-2.7-1.2-4.8s0.4-3.7,1.2-4.8s2-1.7,3.7-1.7
			c0.6,0,1.2,0.1,1.7,0.2c0.5,0.2,0.9,0.4,1.2,0.7s0.6,0.6,0.9,1c0.2,0.4,0.4,0.9,0.5,1.4l-2.2,0.6c-0.1-0.3-0.2-0.6-0.3-0.8
			s-0.2-0.5-0.4-0.7s-0.4-0.3-0.6-0.4s-0.5-0.2-0.9-0.2c-0.8,0-1.4,0.3-1.8,0.9s-0.5,1.5-0.5,2.6v2.2c0,1.1,0.2,1.9,0.5,2.6
			c0.3,0.6,0.9,0.9,1.8,0.9c0.3,0,0.6,0,0.9-0.2c0.2-0.1,0.4-0.2,0.6-0.4c0.2-0.2,0.3-0.4,0.4-0.7s0.2-0.5,0.3-0.8l2.2,0.6
			c-0.1,0.5-0.3,0.9-0.5,1.4c-0.2,0.4-0.5,0.8-0.9,1c-0.3,0.3-0.8,0.5-1.2,0.7C302,660.2,301.5,660.3,300.8,660.3z"/>
		<path class="st2" d="M312.5,649.5v10.6h-2.3v-10.6h-3.8v-1.9h9.9v1.9H312.5z"/>
	</g>
</g>
<linearGradient id="SVGID_1_" gradientUnits="userSpaceOnUse" x1="284.4252" y1="142.4454" x2="284.4252" y2="43.7576" gradientTransform="matrix(1 0 0 1 0 566)">
	<stop  offset="0" style="stop-color:#10535A"/>
	<stop  offset="1" style="stop-color:#102E46"/>
</linearGradient>
<path class="st8" d="M336.4,622.5c0.2-7.6,0.5-15.5-0.2-23c-0.5-5.6-3-10.4-8.6-12.4c-0.8-0.3-1.6-0.5-2.4-0.7
	c-3.1-0.7-6.5-0.8-9.6-0.9c-5.6-0.2-11.3,0.2-16.9,0.2c-11.3,0-22.5,0.2-33.8,0.2c-1.3,0-2.7,0-4.1,0c-6.8,0-13.5,0-20.3,0
	c-4.6,0-8.3,3.7-8.3,8.3v105.9c0,4.6,3.7,8.3,8.3,8.3h87.6c4.6,0,8.3-3.7,8.3-8.3c0-5.6,0-11.3,0-16.9c0-12,0-23.9,0-35.9
	C336.4,639,336.2,630.7,336.4,622.5z M326.3,692.6c0,4-3.2,7.2-7.2,7.2H248c-4,0-7.2-3.2-7.2-7.2v-91c0-4,3.2-7.2,7.2-7.2h47.8v12.2
	c0,10,8.1,18.1,18.1,18.1h12.5L326.3,692.6L326.3,692.6z M326.3,616.9h-12.5c-5.6,0-10.2-4.6-10.2-10.2v-12.2h15.5
	c4,0,7.2,3.2,7.2,7.2V616.9L326.3,616.9z"/>
<rect x="237.6" y="1049.7" class="st7" width="93.7" height="110.1"/>
<g>
	<g>
		<path class="st2" d="M257.3,1119.1c-0.8,0-1.5-0.2-2.1-0.4s-1.1-0.7-1.5-1.3c-0.4-0.6-0.7-1.2-0.9-2s-0.3-1.7-0.3-2.8
			c0-1,0.1-1.9,0.3-2.8c0.2-0.8,0.5-1.5,0.9-2s0.9-1,1.5-1.3s1.3-0.4,2.1-0.4c1.6,0,2.8,0.6,3.6,1.7s1.2,2.7,1.2,4.8
			s-0.4,3.7-1.2,4.8S258.9,1119.1,257.3,1119.1z M257.3,1117.2c0.4,0,0.8-0.1,1.1-0.2s0.5-0.4,0.7-0.7s0.3-0.7,0.4-1.1
			s0.1-0.9,0.1-1.5v-2.2c0-1.1-0.2-1.9-0.5-2.6s-0.9-0.9-1.8-0.9s-1.4,0.3-1.8,0.9c-0.3,0.6-0.5,1.5-0.5,2.6v2.2
			c0,1.1,0.2,1.9,0.5,2.6C255.9,1116.9,256.5,1117.2,257.3,1117.2z"/>
		<path class="st2" d="M264.2,1106.3h4.4c1.2,0,2.1,0.3,2.8,0.9c0.6,0.6,1,1.4,1,2.4c0,0.7-0.2,1.3-0.5,1.7
			c-0.3,0.4-0.8,0.7-1.5,0.9v0.1c0.8,0.2,1.3,0.5,1.8,1s0.7,1.1,0.7,2c0,0.5-0.1,1-0.3,1.4s-0.4,0.8-0.7,1.1
			c-0.3,0.3-0.7,0.6-1.2,0.7c-0.5,0.2-1,0.2-1.5,0.2h-4.8L264.2,1106.3L264.2,1106.3z M267.9,1111.7c0.6,0,1.1-0.1,1.4-0.3
			c0.3-0.2,0.5-0.6,0.5-1.2v-0.6c0-0.6-0.2-1-0.5-1.2s-0.8-0.3-1.4-0.3h-1.5v3.7L267.9,1111.7L267.9,1111.7z M268.3,1117.2
			c0.7,0,1.2-0.1,1.5-0.4s0.5-0.7,0.5-1.3v-0.6c0-0.6-0.2-1-0.5-1.2s-0.8-0.4-1.5-0.4h-1.8v3.8L268.3,1117.2L268.3,1117.2z"/>
		<path class="st2" d="M282.6,1106.3v9.1c0,0.6-0.1,1.1-0.3,1.5s-0.5,0.8-0.8,1.1c-0.3,0.3-0.8,0.6-1.3,0.7s-1,0.3-1.7,0.3
			c-1.2,0-2.1-0.3-2.8-0.9s-1.1-1.4-1.3-2.4l2.2-0.5c0.1,0.5,0.3,1,0.6,1.3s0.7,0.5,1.3,0.5c0.5,0,1-0.2,1.2-0.5s0.4-0.8,0.4-1.5
			v-6.9h-4.2v-1.9L282.6,1106.3L282.6,1106.3z"/>
		<path class="st2" d="M285.8,1118.9v-12.6h7.9v1.9h-5.6v3.3h5.4v1.9h-5.4v3.5h5.6v1.9L285.8,1118.9L285.8,1118.9z"/>
		<path class="st2" d="M300.8,1119.1c-1.6,0-2.9-0.6-3.7-1.7s-1.2-2.7-1.2-4.8c0-2.1,0.4-3.7,1.2-4.8c0.8-1.1,2-1.7,3.7-1.7
			c0.6,0,1.2,0.1,1.7,0.2c0.5,0.2,0.9,0.4,1.2,0.7c0.3,0.3,0.6,0.6,0.9,1.1c0.2,0.4,0.4,0.9,0.5,1.4l-2.2,0.6
			c-0.1-0.3-0.2-0.6-0.3-0.8s-0.2-0.5-0.4-0.7s-0.4-0.3-0.6-0.4c-0.2-0.1-0.5-0.2-0.9-0.2c-0.8,0-1.4,0.3-1.8,0.9
			c-0.3,0.6-0.5,1.5-0.5,2.6v2.2c0,1.1,0.2,1.9,0.5,2.6c0.3,0.6,0.9,0.9,1.8,0.9c0.3,0,0.6-0.1,0.9-0.2s0.4-0.2,0.6-0.4
			c0.2-0.2,0.3-0.4,0.4-0.7s0.2-0.5,0.3-0.8l2.2,0.6c-0.1,0.5-0.3,0.9-0.5,1.4c-0.2,0.4-0.5,0.8-0.9,1.1c-0.3,0.3-0.8,0.5-1.2,0.7
			C302,1119,301.5,1119.1,300.8,1119.1z"/>
		<path class="st2" d="M312.5,1108.3v10.6h-2.3v-10.6h-3.8v-1.9h9.9v1.9H312.5z"/>
	</g>
</g>
<g>
	<g>
		<path class="st5" d="M435.9,1392.1h-303c-6.6,0-12-5.4-12-11.9v-107.9c0-6.6,5.4-11.9,12-11.9H436c6.6,0,12,5.4,12,11.9v107.9
			C447.9,1386.8,442.5,1392.1,435.9,1392.1z M132.9,1266.3c-3.3,0-6,2.7-6,5.9v107.9c0,3.3,2.7,5.9,6,5.9H436c3.3,0,6-2.7,6-5.9
			v-107.9c0-3.3-2.7-5.9-6-5.9H132.9z"/>
	</g>
	<path class="st5" d="M264.2,1318.4H143.8c-3.3,0-6.1-2.7-6.1-6.1v-28.8c0-3.3,2.7-6.1,6.1-6.1h120.4c3.3,0,6.1,2.7,6.1,6.1v28.8
		C270.3,1315.6,267.5,1318.4,264.2,1318.4z"/>
	<circle class="st6" cx="204" cy="1297.3" r="8.4"/>
	<path class="st6" d="M155.5,1311.7v-27.6c0-0.3,0.3-0.6,0.6-0.6h4.9c0.3,0,0.6,0.3,0.6,0.6v27.6c0,0.3-0.3,0.6-0.6,0.6h-4.9
		C155.7,1312.3,155.5,1312,155.5,1311.7z"/>
	<path class="st6" d="M166.3,1311.7v-27.6c0-0.3,0.3-0.6,0.6-0.6h4.9c0.3,0,0.6,0.3,0.6,0.6v27.6c0,0.3-0.3,0.6-0.6,0.6h-4.9
		C166.5,1312.3,166.3,1312,166.3,1311.7z"/>
	<path class="st6" d="M144.7,1311.7v-27.6c0-0.3,0.3-0.6,0.6-0.6h4.9c0.3,0,0.6,0.3,0.6,0.6v27.6c0,0.3-0.3,0.6-0.6,0.6h-4.9
		C145,1312.3,144.7,1312,144.7,1311.7z"/>
	<path class="st6" d="M246.6,1311.7v-27.6c0-0.3,0.3-0.6,0.6-0.6h4.9c0.3,0,0.6,0.3,0.6,0.6v27.6c0,0.3-0.3,0.6-0.6,0.6h-4.9
		C246.9,1312.3,246.6,1312,246.6,1311.7z"/>
	<path class="st6" d="M257.4,1311.7v-27.6c0-0.3,0.3-0.6,0.6-0.6h4.9c0.3,0,0.6,0.3,0.6,0.6v27.6c0,0.3-0.3,0.6-0.6,0.6H258
		C257.7,1312.3,257.4,1312,257.4,1311.7z"/>
	<path class="st6" d="M235.9,1311.7v-27.6c0-0.3,0.3-0.6,0.6-0.6h4.9c0.3,0,0.6,0.3,0.6,0.6v27.6c0,0.3-0.3,0.6-0.6,0.6h-4.9
		C236.1,1312.3,235.9,1312,235.9,1311.7z"/>
	<g>
		<path class="st5" d="M264.2,1373.4H143.8c-3.3,0-6.1-2.7-6.1-6.1v-28.8c0-3.3,2.7-6.1,6.1-6.1h120.4c3.3,0,6.1,2.7,6.1,6.1v28.8
			C270.3,1370.7,267.5,1373.4,264.2,1373.4z"/>
		<circle class="st6" cx="204" cy="1352.4" r="8.4"/>
		<path class="st6" d="M155.5,1366.8v-27.6c0-0.3,0.3-0.6,0.6-0.6h4.9c0.3,0,0.6,0.3,0.6,0.6v27.6c0,0.3-0.3,0.6-0.6,0.6h-4.9
			C155.7,1367.4,155.5,1367.1,155.5,1366.8z"/>
		<path class="st6" d="M166.3,1366.8v-27.6c0-0.3,0.3-0.6,0.6-0.6h4.9c0.3,0,0.6,0.3,0.6,0.6v27.6c0,0.3-0.3,0.6-0.6,0.6h-4.9
			C166.5,1367.4,166.3,1367.1,166.3,1366.8z"/>
		<path class="st6" d="M144.7,1366.8v-27.6c0-0.3,0.3-0.6,0.6-0.6h4.9c0.3,0,0.6,0.3,0.6,0.6v27.6c0,0.3-0.3,0.6-0.6,0.6h-4.9
			C145,1367.4,144.7,1367.1,144.7,1366.8z"/>
		<path class="st6" d="M246.6,1366.8v-27.6c0-0.3,0.3-0.6,0.6-0.6h4.9c0.3,0,0.6,0.3,0.6,0.6v27.6c0,0.3-0.3,0.6-0.6,0.6h-4.9
			C246.9,1367.4,246.6,1367.1,246.6,1366.8z"/>
		<path class="st6" d="M257.4,1366.8v-27.6c0-0.3,0.3-0.6,0.6-0.6h4.9c0.3,0,0.6,0.3,0.6,0.6v27.6c0,0.3-0.3,0.6-0.6,0.6H258
			C257.7,1367.4,257.4,1367.1,257.4,1366.8z"/>
		<path class="st6" d="M235.9,1366.8v-27.6c0-0.3,0.3-0.6,0.6-0.6h4.9c0.3,0,0.6,0.3,0.6,0.6v27.6c0,0.3-0.3,0.6-0.6,0.6h-4.9
			C236.1,1367.4,235.9,1367.1,235.9,1366.8z"/>
	</g>
	<path class="st5" d="M424.7,1318.4H304.2c-3.3,0-6.1-2.7-6.1-6.1v-28.8c0-3.3,2.7-6.1,6.1-6.1h120.4c3.3,0,6.1,2.7,6.1,6.1v28.8
		C430.7,1315.6,428,1318.4,424.7,1318.4z"/>
	<circle class="st6" cx="364.5" cy="1297.3" r="8.4"/>
	<path class="st6" d="M316,1311.7v-27.6c0-0.3,0.3-0.6,0.6-0.6h4.9c0.3,0,0.6,0.3,0.6,0.6v27.6c0,0.3-0.3,0.6-0.6,0.6h-4.9
		C316.2,1312.3,316,1312,316,1311.7z"/>
	<path class="st6" d="M326.7,1311.7v-27.6c0-0.3,0.3-0.6,0.6-0.6h4.9c0.3,0,0.6,0.3,0.6,0.6v27.6c0,0.3-0.3,0.6-0.6,0.6h-4.9
		C327,1312.3,326.7,1312,326.7,1311.7z"/>
	<path class="st6" d="M305.2,1311.7v-27.6c0-0.3,0.3-0.6,0.6-0.6h4.9c0.3,0,0.6,0.3,0.6,0.6v27.6c0,0.3-0.3,0.6-0.6,0.6h-4.9
		C305.5,1312.3,305.2,1312,305.2,1311.7z"/>
	<path class="st6" d="M407.1,1311.7v-27.6c0-0.3,0.3-0.6,0.6-0.6h4.9c0.3,0,0.6,0.3,0.6,0.6v27.6c0,0.3-0.3,0.6-0.6,0.6h-4.9
		C407.4,1312.3,407.1,1312,407.1,1311.7z"/>
	<path class="st6" d="M417.9,1311.7v-27.6c0-0.3,0.3-0.6,0.6-0.6h4.9c0.3,0,0.6,0.3,0.6,0.6v27.6c0,0.3-0.3,0.6-0.6,0.6h-4.9
		C418.2,1312.3,417.9,1312,417.9,1311.7z"/>
	<path class="st6" d="M396.4,1311.7v-27.6c0-0.3,0.3-0.6,0.6-0.6h4.9c0.3,0,0.6,0.3,0.6,0.6v27.6c0,0.3-0.3,0.6-0.6,0.6H397
		C396.6,1312.3,396.4,1312,396.4,1311.7z"/>
	<g>
		<path class="st5" d="M424.7,1373.4H304.2c-3.3,0-6.1-2.7-6.1-6.1v-28.8c0-3.3,2.7-6.1,6.1-6.1h120.4c3.3,0,6.1,2.7,6.1,6.1v28.8
			C430.7,1370.7,428,1373.4,424.7,1373.4z"/>
		<circle class="st6" cx="364.5" cy="1352.4" r="8.4"/>
		<path class="st6" d="M316,1366.8v-27.6c0-0.3,0.3-0.6,0.6-0.6h4.9c0.3,0,0.6,0.3,0.6,0.6v27.6c0,0.3-0.3,0.6-0.6,0.6h-4.9
			C316.2,1367.4,316,1367.1,316,1366.8z"/>
		<path class="st6" d="M326.7,1366.8v-27.6c0-0.3,0.3-0.6,0.6-0.6h4.9c0.3,0,0.6,0.3,0.6,0.6v27.6c0,0.3-0.3,0.6-0.6,0.6h-4.9
			C327,1367.4,326.7,1367.1,326.7,1366.8z"/>
		<path class="st6" d="M305.2,1366.8v-27.6c0-0.3,0.3-0.6,0.6-0.6h4.9c0.3,0,0.6,0.3,0.6,0.6v27.6c0,0.3-0.3,0.6-0.6,0.6h-4.9
			C305.5,1367.4,305.2,1367.1,305.2,1366.8z"/>
		<path class="st6" d="M407.1,1366.8v-27.6c0-0.3,0.3-0.6,0.6-0.6h4.9c0.3,0,0.6,0.3,0.6,0.6v27.6c0,0.3-0.3,0.6-0.6,0.6h-4.9
			C407.4,1367.4,407.1,1367.1,407.1,1366.8z"/>
		<path class="st6" d="M417.9,1366.8v-27.6c0-0.3,0.3-0.6,0.6-0.6h4.9c0.3,0,0.6,0.3,0.6,0.6v27.6c0,0.3-0.3,0.6-0.6,0.6h-4.9
			C418.2,1367.4,417.9,1367.1,417.9,1366.8z"/>
		<path class="st6" d="M396.4,1366.8v-27.6c0-0.3,0.3-0.6,0.6-0.6h4.9c0.3,0,0.6,0.3,0.6,0.6v27.6c0,0.3-0.3,0.6-0.6,0.6H397
			C396.6,1367.4,396.4,1367.1,396.4,1366.8z"/>
	</g>
</g>
<path class="st0" d="M289.4,1017H286v-33.6h3.4c1.2,0,1.8-1.4,0.9-2.3l-4.9-5c-0.5-0.5-1.4-0.5-1.9,0l-4.9,5
	c-0.8,0.8-0.2,2.3,0.9,2.3h3.7v33.6h-3.7c-1.2,0-1.8,1.4-0.9,2.3l4.9,5c0.5,0.5,1.4,0.5,1.9,0l4.9-5
	C291.1,1018.4,290.5,1017,289.4,1017z"/>
<linearGradient id="SVGID_00000147194380142748228320000013949121339935540925_" gradientUnits="userSpaceOnUse" x1="284.4252" y1="471.2068" x2="284.4252" y2="616.8071" gradientTransform="matrix(1 0 0 1 0 566)">
	<stop  offset="0" style="stop-color:#10535A"/>
	<stop  offset="1" style="stop-color:#102E46"/>
</linearGradient>
<path style="fill:url(#SVGID_00000147194380142748228320000013949121339935540925_);" d="M260.8,1044.7c-6.8,0-13.5,0-20.3,0
	c-4.6,0-8.3,3.7-8.3,8.3v105.9c0,4.6,3.7,8.3,8.3,8.3h87.6c4.6,0,8.3-3.7,8.3-8.3c0-5.6,0-11.3,0-16.9c0-11.9,0-23.9,0-35.9
	c0.1-8.3-0.2-16.6,0-24.8c0.2-7.6,0.5-15.5-0.2-23c-0.5-5.6-3-10.4-8.6-12.4c-0.8-0.3-1.6-0.5-2.4-0.7c-3.1-0.7-6.5-0.8-9.6-0.9
	c-5.6-0.2-11.3,0.2-16.9,0.2 M326.4,1151.4c0,3.9-3.2,7.2-7.2,7.2H248c-4,0-7.2-3.2-7.2-7.2v-91c0-4,3.2-7.2,7.2-7.2h47.8v12.2
	c0,10,8.1,18.1,18.1,18.1h12.5L326.4,1151.4L326.4,1151.4z M326.4,1075.7h-12.5c-5.6,0-10.2-4.6-10.2-10.2v-12.2h15.5
	c4,0,7.2,3.2,7.2,7.2V1075.7L326.4,1075.7z"/>
<path class="st3" d="M437.7,1241.4H131.1c-4.9,0-9-4-9-8.9V1195c0-4.9,4-8.9,9-8.9h306.6c4.9,0,9,4,9,8.9v37.5
	C446.6,1237.4,442.6,1241.4,437.7,1241.4z"/>
<g>
	<path class="st2" d="M150.1,1205.6h1.3v5h0.1c0.1-0.2,0.2-0.4,0.3-0.6s0.3-0.3,0.5-0.5s0.4-0.2,0.7-0.3s0.6-0.1,0.9-0.1
		c0.9,0,1.6,0.3,2.1,0.8c0.5,0.6,0.8,1.3,0.8,2.3v5.3h-1.4v-5.1c0-0.8-0.2-1.3-0.5-1.7s-0.8-0.6-1.5-0.6c-0.3,0-0.5,0-0.8,0.1
		c-0.2,0.1-0.5,0.2-0.7,0.3s-0.3,0.3-0.5,0.5c-0.1,0.2-0.2,0.4-0.2,0.7v5.8h-1.3L150.1,1205.6L150.1,1205.6z"/>
	<path class="st2" d="M163.4,1217.5c-0.6,0-1.1-0.2-1.4-0.5c-0.3-0.3-0.4-0.8-0.4-1.4v-5.3h-2.8v-1.1h2.1c0.3,0,0.5-0.1,0.6-0.2
		s0.2-0.3,0.2-0.6v-2.2h1.2v2.9h3.8v1.1h-3.8v6.1h3.8v1.1L163.4,1217.5L163.4,1217.5z"/>
	<path class="st2" d="M173.2,1217.5c-0.6,0-1.1-0.2-1.4-0.5c-0.3-0.3-0.5-0.8-0.5-1.4v-5.3h-2.8v-1.1h2.1c0.3,0,0.5-0.1,0.6-0.2
		s0.2-0.3,0.2-0.6v-2.2h1.2v2.9h3.8v1.1h-3.8v6.1h3.8v1.1L173.2,1217.5L173.2,1217.5z"/>
	<path class="st2" d="M179.2,1209.2h1.3v1.4h0.1c0.5-1,1.4-1.6,2.6-1.6c1,0,1.8,0.4,2.4,1.2s0.9,1.8,0.9,3.2s-0.3,2.4-0.9,3.2
		s-1.4,1.2-2.4,1.2c-1.2,0-2-0.5-2.6-1.6h-0.2v4.6h-1.3L179.2,1209.2L179.2,1209.2z M182.6,1216.6c0.8,0,1.3-0.2,1.8-0.7
		c0.4-0.5,0.6-1.1,0.6-1.8v-1.4c0-0.8-0.2-1.4-0.6-1.8s-1-0.7-1.8-0.7c-0.3,0-0.6,0-0.8,0.1c-0.3,0.1-0.5,0.2-0.7,0.3
		s-0.3,0.3-0.5,0.5s-0.2,0.5-0.2,0.7v3c0,0.3,0.1,0.5,0.2,0.7s0.3,0.4,0.5,0.5s0.4,0.3,0.7,0.3
		C182,1216.5,182.3,1216.6,182.6,1216.6z"/>
	<path class="st2" d="M192.3,1217.7c-0.9,0-1.6-0.2-2.3-0.4c-0.6-0.3-1.2-0.7-1.6-1.2l0.9-0.8c0.4,0.4,0.8,0.7,1.3,1s1,0.3,1.7,0.3
		s1.2-0.1,1.6-0.3s0.6-0.6,0.6-1.1c0-0.2,0-0.4-0.1-0.5c-0.1-0.2-0.2-0.3-0.3-0.3s-0.3-0.2-0.5-0.2c-0.2-0.1-0.4-0.1-0.5-0.1
		l-1.3-0.2c-0.3,0-0.6-0.1-1-0.2c-0.3-0.1-0.7-0.2-0.9-0.4c-0.3-0.2-0.5-0.4-0.7-0.7c-0.2-0.3-0.3-0.7-0.3-1.1s0.1-0.8,0.2-1.1
		c0.2-0.3,0.4-0.6,0.7-0.8s0.7-0.4,1.1-0.5s0.9-0.2,1.3-0.2c0.8,0,1.4,0.1,2,0.4c0.5,0.2,1,0.6,1.4,1l-0.8,0.8
		c-0.1-0.1-0.2-0.2-0.4-0.4c-0.2-0.1-0.3-0.2-0.5-0.3s-0.5-0.2-0.7-0.2c-0.3-0.1-0.6-0.1-1-0.1c-0.7,0-1.2,0.1-1.5,0.3
		s-0.5,0.6-0.5,1c0,0.2,0,0.4,0.1,0.5c0.1,0.2,0.2,0.3,0.3,0.3s0.3,0.2,0.5,0.2c0.2,0.1,0.4,0.1,0.5,0.1l1.3,0.2
		c0.3,0,0.6,0.1,1,0.2c0.3,0.1,0.6,0.2,0.9,0.4c0.3,0.2,0.5,0.4,0.7,0.7s0.3,0.7,0.3,1.1c0,0.8-0.3,1.5-1,1.9
		S193.3,1217.7,192.3,1217.7z"/>
	<path class="st2" d="M201.9,1211.3c-0.4,0-0.8-0.1-0.9-0.3s-0.3-0.4-0.3-0.7v-0.3c0-0.3,0.1-0.5,0.3-0.7s0.5-0.3,0.9-0.3
		s0.8,0.1,0.9,0.3s0.3,0.4,0.3,0.7v0.3c0,0.3-0.1,0.5-0.3,0.7C202.6,1211.2,202.3,1211.3,201.9,1211.3z M201.9,1217.7
		c-0.4,0-0.8-0.1-0.9-0.3s-0.3-0.4-0.3-0.7v-0.3c0-0.3,0.1-0.5,0.3-0.7s0.5-0.3,0.9-0.3s0.8,0.1,0.9,0.3s0.3,0.4,0.3,0.7v0.3
		c0,0.3-0.1,0.5-0.3,0.7S202.3,1217.7,201.9,1217.7z"/>
	<path class="st2" d="M208.2,1219.8l5.6-14.5h1.2l-5.6,14.5H208.2z"/>
	<path class="st2" d="M217.9,1219.8l5.6-14.5h1.2l-5.6,14.5H217.9z"/>
	<path class="st2" d="M227,1217.5v-8.3h1.2v1h0.1c0.1-0.3,0.3-0.6,0.5-0.8s0.6-0.3,1-0.3c0.5,0,0.8,0.1,1.1,0.4
		c0.2,0.2,0.4,0.6,0.4,0.9l0,0c0.2-0.4,0.4-0.7,0.7-0.9s0.7-0.4,1.2-0.4c0.7,0,1.1,0.2,1.4,0.7c0.2,0.5,0.3,1.2,0.3,2v5.8h-1.2v-5.6
		c0-0.7-0.1-1.2-0.2-1.5s-0.4-0.4-0.8-0.4c-0.3,0-0.6,0.1-0.8,0.3c-0.2,0.2-0.3,0.6-0.3,1v6.1h-1.2v-5.6c0-0.7-0.1-1.2-0.2-1.5
		s-0.4-0.4-0.8-0.4c-0.3,0-0.6,0.1-0.8,0.3s-0.3,0.6-0.3,1v6.1L227,1217.5L227,1217.5z"/>
	<path class="st2" d="M237.6,1216.4h3v-6.1h-3v-1.1h4.3v7.2h2.8v1.1h-7.1V1216.4z M241.2,1207.3c-0.4,0-0.6-0.1-0.8-0.2
		s-0.2-0.3-0.2-0.6v-0.3c0-0.2,0.1-0.4,0.2-0.6c0.2-0.2,0.4-0.2,0.8-0.2c0.4,0,0.6,0.1,0.8,0.2c0.2,0.2,0.2,0.3,0.2,0.6v0.3
		c0,0.2-0.1,0.4-0.2,0.6S241.6,1207.3,241.2,1207.3z"/>
	<path class="st2" d="M247.1,1217.5v-8.3h1.3v1.4h0.1c0.1-0.2,0.2-0.4,0.3-0.6s0.3-0.3,0.5-0.5s0.4-0.2,0.7-0.3s0.6-0.1,0.9-0.1
		c0.9,0,1.6,0.3,2.1,0.8c0.5,0.6,0.8,1.3,0.8,2.3v5.3h-1.3v-5.1c0-0.8-0.2-1.3-0.5-1.7c-0.3-0.4-0.8-0.6-1.5-0.6
		c-0.3,0-0.5,0-0.8,0.1c-0.2,0.1-0.5,0.2-0.7,0.3s-0.3,0.3-0.5,0.5c-0.1,0.2-0.2,0.4-0.2,0.7v5.8L247.1,1217.5L247.1,1217.5z"/>
	<path class="st2" d="M257,1216.4h3v-6.1h-3v-1.1h4.3v7.2h2.8v1.1H257V1216.4L257,1216.4z M260.6,1207.3c-0.4,0-0.6-0.1-0.8-0.2
		c-0.2-0.2-0.2-0.3-0.2-0.6v-0.3c0-0.2,0.1-0.4,0.2-0.6c0.2-0.2,0.4-0.2,0.8-0.2c0.4,0,0.6,0.1,0.8,0.2c0.2,0.2,0.2,0.3,0.2,0.6v0.3
		c0,0.2-0.1,0.4-0.2,0.6S261,1207.3,260.6,1207.3z"/>
	<path class="st2" d="M269.8,1217.7c-0.6,0-1.1-0.1-1.6-0.3c-0.5-0.2-0.9-0.5-1.2-0.9s-0.6-0.8-0.8-1.4c-0.2-0.5-0.3-1.1-0.3-1.8
		c0-0.7,0.1-1.3,0.3-1.8s0.4-1,0.8-1.4s0.7-0.7,1.2-0.9c0.5-0.2,1-0.3,1.6-0.3s1.1,0.1,1.6,0.3c0.5,0.2,0.9,0.5,1.2,0.9
		s0.6,0.8,0.8,1.4s0.3,1.1,0.3,1.8c0,0.7-0.1,1.3-0.3,1.8s-0.4,1-0.8,1.4s-0.7,0.7-1.2,0.9S270.4,1217.7,269.8,1217.7z
		 M269.8,1216.6c0.7,0,1.3-0.2,1.8-0.7c0.4-0.4,0.7-1.1,0.7-2v-1.2c0-0.9-0.2-1.6-0.7-2c-0.4-0.4-1-0.7-1.8-0.7s-1.3,0.2-1.8,0.7
		c-0.4,0.4-0.7,1.1-0.7,2v1.2c0,0.9,0.2,1.6,0.7,2C268.5,1216.4,269.1,1216.6,269.8,1216.6z"/>
	<path class="st2" d="M277.2,1213.3v-1.4h4.7v1.4H277.2z"/>
	<path class="st2" d="M289.2,1217.7c-0.7,0-1.3-0.1-1.8-0.4s-0.9-0.6-1.2-1.1s-0.6-1.1-0.7-1.8c-0.2-0.7-0.2-1.6-0.2-2.5
		s0.1-1.7,0.2-2.5c0.2-0.7,0.4-1.3,0.7-1.8s0.7-0.9,1.2-1.1s1.1-0.4,1.8-0.4s1.3,0.1,1.8,0.4s0.9,0.6,1.2,1.1s0.6,1.1,0.7,1.8
		s0.2,1.6,0.2,2.5s-0.1,1.8-0.2,2.5c-0.2,0.7-0.4,1.3-0.7,1.8s-0.7,0.9-1.2,1.1S289.9,1217.7,289.2,1217.7z M289.2,1216.5
		c0.5,0,0.8-0.1,1.2-0.3c0.3-0.2,0.6-0.4,0.8-0.8c0.2-0.3,0.3-0.7,0.4-1.2c0.1-0.5,0.2-1,0.2-1.5v-1.8c0-0.6,0-1.1-0.2-1.5
		c-0.1-0.5-0.2-0.9-0.4-1.2c-0.2-0.3-0.5-0.6-0.8-0.8c-0.3-0.2-0.7-0.3-1.2-0.3s-0.8,0.1-1.2,0.3c-0.3,0.2-0.6,0.4-0.8,0.8
		s-0.3,0.7-0.5,1.2c-0.1,0.5-0.2,1-0.2,1.5v1.8c0,0.6,0,1.1,0.2,1.5c0.1,0.5,0.2,0.8,0.5,1.2c0.2,0.3,0.5,0.6,0.8,0.8
		C288.4,1216.5,288.8,1216.5,289.2,1216.5z M289.2,1212.8c-0.4,0-0.6-0.1-0.8-0.2c-0.2-0.2-0.2-0.3-0.2-0.6v-0.4
		c0-0.2,0.1-0.4,0.2-0.6s0.4-0.2,0.8-0.2s0.6,0.1,0.8,0.2s0.2,0.3,0.2,0.6v0.4c0,0.2-0.1,0.4-0.2,0.6
		C289.9,1212.8,289.6,1212.8,289.2,1212.8z"/>
	<path class="st2" d="M302.8,1217.5h-7.5v-1.4l3.8-3.4c0.5-0.5,1-1,1.4-1.5s0.5-1.1,0.5-1.7v-0.2c0-0.7-0.2-1.2-0.5-1.6
		c-0.4-0.4-0.9-0.6-1.6-0.6c-0.7,0-1.2,0.2-1.6,0.5s-0.7,0.8-0.8,1.4l-1.2-0.4c0.1-0.3,0.3-0.7,0.5-1s0.4-0.6,0.7-0.8
		s0.6-0.4,1.1-0.6s0.9-0.2,1.5-0.2s1.1,0.1,1.5,0.2s0.8,0.4,1.1,0.7s0.5,0.6,0.7,1s0.2,0.8,0.2,1.3c0,0.4-0.1,0.8-0.2,1.2
		s-0.3,0.7-0.5,1.1c-0.2,0.3-0.5,0.7-0.8,1s-0.7,0.7-1,1l-3.2,2.8h6.1L302.8,1217.5L302.8,1217.5z"/>
	<path class="st2" d="M308.6,1217.7c-0.4,0-0.8-0.1-0.9-0.3s-0.3-0.4-0.3-0.7v-0.3c0-0.3,0.1-0.5,0.3-0.7s0.5-0.3,0.9-0.3
		s0.8,0.1,0.9,0.3s0.3,0.4,0.3,0.7v0.3c0,0.3-0.1,0.5-0.3,0.7S309.1,1217.7,308.6,1217.7z"/>
	<path class="st2" d="M318.5,1217.7c-0.6,0-1.2-0.1-1.6-0.3c-0.5-0.2-0.9-0.5-1.2-0.9s-0.6-0.8-0.8-1.4c-0.2-0.5-0.3-1.1-0.3-1.8
		c0-0.7,0.1-1.3,0.3-1.8s0.5-1,0.8-1.4s0.7-0.7,1.2-0.9c0.5-0.2,1-0.3,1.6-0.3s1.1,0.1,1.5,0.3c0.5,0.2,0.8,0.5,1.2,0.8
		s0.6,0.8,0.7,1.3s0.3,1,0.3,1.6v0.6H316v0.4c0,0.4,0.1,0.7,0.2,1s0.3,0.6,0.5,0.8s0.5,0.4,0.8,0.5s0.7,0.2,1.1,0.2
		c0.6,0,1-0.1,1.5-0.4c0.4-0.3,0.7-0.6,0.9-1.1l1,0.7c-0.2,0.6-0.7,1-1.2,1.4C320,1217.5,319.3,1217.7,318.5,1217.7z M318.4,1210
		c-0.4,0-0.7,0.1-1,0.2s-0.6,0.3-0.8,0.5s-0.4,0.5-0.5,0.8s-0.2,0.6-0.2,1v0.1h4.8v-0.2c0-0.4-0.1-0.7-0.2-1s-0.3-0.6-0.5-0.8
		c-0.2-0.2-0.4-0.4-0.7-0.5C319.1,1210.1,318.7,1210,318.4,1210z"/>
	<path class="st2" d="M324.2,1217.5l3.1-4.2l-3-4.1h1.5l1.3,1.8l1,1.4h0.1l1-1.4l1.2-1.8h1.5l-3.1,4.1l3.1,4.2h-1.5l-1.4-2l-1-1.3
		h-0.1l-0.9,1.3l-1.4,2H324.2L324.2,1217.5z"/>
	<path class="st2" d="M340.9,1217.5c-0.5,0-0.9-0.1-1.1-0.4s-0.3-0.6-0.4-1h-0.1c-0.2,0.5-0.5,0.9-0.9,1.1s-1,0.4-1.6,0.4
		c-0.9,0-1.6-0.2-2.1-0.7s-0.8-1.1-0.8-1.9s0.3-1.4,0.8-1.8c0.6-0.4,1.5-0.6,2.7-0.6h1.8v-0.8c0-0.6-0.2-1.1-0.5-1.4
		s-0.8-0.5-1.5-0.5c-0.6,0-1,0.1-1.4,0.3s-0.6,0.5-0.9,0.9l-0.9-0.7c0.1-0.2,0.2-0.4,0.4-0.6s0.4-0.4,0.7-0.6s0.6-0.3,0.9-0.4
		c0.3-0.1,0.7-0.1,1.2-0.1c1,0,1.8,0.2,2.3,0.8s0.9,1.2,0.9,2.1v4.6h1.2v1.1L340.9,1217.5L340.9,1217.5z M337.1,1216.6
		c0.3,0,0.6,0,0.9-0.1c0.3-0.1,0.5-0.2,0.7-0.3c0.2-0.1,0.4-0.3,0.5-0.5s0.2-0.4,0.2-0.6v-1.4h-1.8c-0.8,0-1.3,0.1-1.7,0.3
		c-0.4,0.2-0.5,0.5-0.5,0.9v0.3c0,0.4,0.2,0.8,0.5,1S336.5,1216.6,337.1,1216.6z"/>
	<path class="st2" d="M343.5,1217.5v-8.3h1.2v1h0.1c0.1-0.3,0.3-0.6,0.5-0.8s0.6-0.3,1-0.3c0.5,0,0.8,0.1,1.1,0.4
		c0.2,0.2,0.4,0.6,0.4,0.9l0,0c0.2-0.4,0.4-0.7,0.7-0.9s0.7-0.4,1.2-0.4c0.7,0,1.1,0.2,1.4,0.7c0.2,0.5,0.3,1.2,0.3,2v5.8h-1.2v-5.6
		c0-0.7-0.1-1.2-0.2-1.5s-0.4-0.4-0.8-0.4c-0.3,0-0.6,0.1-0.8,0.3c-0.2,0.2-0.3,0.6-0.3,1v6.1h-1.2v-5.6c0-0.7-0.1-1.2-0.2-1.5
		s-0.4-0.4-0.8-0.4c-0.3,0-0.6,0.1-0.8,0.3s-0.3,0.6-0.3,1v6.1L343.5,1217.5L343.5,1217.5z"/>
	<path class="st2" d="M353.9,1209.2h1.3v1.4h0.1c0.5-1,1.4-1.6,2.6-1.6c1,0,1.8,0.4,2.4,1.2s0.9,1.8,0.9,3.2s-0.3,2.4-0.9,3.2
		s-1.4,1.2-2.4,1.2c-1.2,0-2-0.5-2.6-1.6h-0.1v4.6h-1.3V1209.2z M357.3,1216.6c0.8,0,1.3-0.2,1.8-0.7c0.4-0.5,0.6-1.1,0.6-1.8v-1.4
		c0-0.8-0.2-1.4-0.6-1.8s-1-0.7-1.8-0.7c-0.3,0-0.6,0-0.8,0.1c-0.3,0.1-0.5,0.2-0.7,0.3s-0.3,0.3-0.5,0.5s-0.2,0.5-0.2,0.7v3
		c0,0.3,0.1,0.5,0.2,0.7s0.3,0.4,0.5,0.5s0.4,0.3,0.7,0.3C356.7,1216.5,357,1216.6,357.3,1216.6z"/>
	<path class="st2" d="M363.3,1216.4h2.9v-9.7h-2.9v-1.1h4.2v10.8h2.9v1.1h-7.1L363.3,1216.4L363.3,1216.4z"/>
	<path class="st2" d="M376.7,1217.7c-0.6,0-1.2-0.1-1.6-0.3c-0.5-0.2-0.9-0.5-1.2-0.9s-0.6-0.8-0.8-1.4c-0.2-0.5-0.3-1.1-0.3-1.8
		c0-0.7,0.1-1.3,0.3-1.8s0.5-1,0.8-1.4s0.7-0.7,1.2-0.9c0.5-0.2,1-0.3,1.6-0.3s1.1,0.1,1.5,0.3c0.5,0.2,0.8,0.5,1.2,0.8
		s0.6,0.8,0.7,1.3s0.3,1,0.3,1.6v0.6h-6.2v0.4c0,0.4,0.1,0.7,0.2,1s0.3,0.6,0.5,0.8s0.5,0.4,0.8,0.5s0.7,0.2,1.1,0.2
		c0.6,0,1-0.1,1.5-0.4c0.4-0.3,0.7-0.6,0.9-1.1l1,0.7c-0.2,0.6-0.7,1-1.2,1.4C378.3,1217.5,377.6,1217.7,376.7,1217.7z M376.6,1210
		c-0.4,0-0.7,0.1-1,0.2s-0.6,0.3-0.8,0.5s-0.4,0.5-0.5,0.8s-0.2,0.6-0.2,1v0.1h4.8v-0.2c0-0.4-0.1-0.7-0.2-1s-0.3-0.6-0.5-0.8
		c-0.2-0.2-0.4-0.4-0.7-0.5C377.3,1210.1,377,1210,376.6,1210z"/>
	<path class="st2" d="M386.3,1217.7c-0.4,0-0.8-0.1-0.9-0.3s-0.3-0.4-0.3-0.7v-0.3c0-0.3,0.1-0.5,0.3-0.7s0.5-0.3,0.9-0.3
		s0.8,0.1,0.9,0.3s0.3,0.4,0.3,0.7v0.3c0,0.3-0.1,0.5-0.3,0.7S386.7,1217.7,386.3,1217.7z"/>
	<path class="st2" d="M392.7,1217.5v-8.3h1.3v1.4h0.1c0.1-0.2,0.2-0.4,0.3-0.6s0.3-0.3,0.5-0.5s0.4-0.2,0.7-0.3s0.6-0.1,0.9-0.1
		c0.9,0,1.6,0.3,2.1,0.8c0.5,0.6,0.8,1.3,0.8,2.3v5.3h-1.3v-5.1c0-0.8-0.2-1.3-0.5-1.7c-0.3-0.4-0.8-0.6-1.5-0.6
		c-0.3,0-0.5,0-0.8,0.1c-0.2,0.1-0.5,0.2-0.7,0.3s-0.3,0.3-0.5,0.5c-0.1,0.2-0.2,0.4-0.2,0.7v5.8L392.7,1217.5L392.7,1217.5z"/>
	<path class="st2" d="M405.8,1217.7c-0.6,0-1.2-0.1-1.6-0.3s-0.9-0.5-1.2-0.9s-0.6-0.8-0.8-1.4c-0.2-0.5-0.3-1.1-0.3-1.8
		c0-0.7,0.1-1.3,0.3-1.8s0.5-1,0.8-1.4s0.7-0.7,1.2-0.9c0.5-0.2,1-0.3,1.6-0.3s1.1,0.1,1.5,0.3c0.5,0.2,0.8,0.5,1.2,0.8
		s0.6,0.8,0.7,1.3s0.3,1,0.3,1.6v0.6h-6.2v0.4c0,0.4,0.1,0.7,0.2,1s0.3,0.6,0.5,0.8c0.2,0.2,0.5,0.4,0.8,0.5s0.7,0.2,1.1,0.2
		c0.6,0,1-0.1,1.5-0.4c0.4-0.3,0.7-0.6,0.9-1.1l1,0.7c-0.2,0.6-0.7,1-1.2,1.4C407.4,1217.5,406.7,1217.7,405.8,1217.7z M405.8,1210
		c-0.4,0-0.7,0.1-1,0.2s-0.6,0.3-0.8,0.5s-0.4,0.5-0.5,0.8s-0.2,0.6-0.2,1v0.1h4.8v-0.2c0-0.4-0.1-0.7-0.2-1s-0.3-0.6-0.5-0.8
		c-0.2-0.2-0.4-0.4-0.7-0.5C406.4,1210.1,406.1,1210,405.8,1210z"/>
	<path class="st2" d="M415.8,1217.5c-0.6,0-1.1-0.2-1.4-0.5c-0.3-0.3-0.5-0.8-0.5-1.4v-5.3h-2.8v-1.1h2.1c0.3,0,0.5-0.1,0.6-0.2
		s0.2-0.3,0.2-0.6v-2.2h1.2v2.9h3.8v1.1h-3.8v6.1h3.8v1.1L415.8,1217.5L415.8,1217.5z"/>
</g>
<rect x="477.6" y="1266.7" class="st10" width="326.6" height="119"/>
<g>
	<g>
		<g>
			<path class="st2" d="M553.1,1300.1l-1.1,1c-0.9-1.1-2.2-1.8-3.8-1.8c-2.8,0-5,2.1-5,5.1s2.2,5.1,4.9,5.1c2.7,0,4.3-1.6,4.5-4.2
				h-3.9v-1.3h5.5c0,0.1,0,0.2,0,0.4c0,3.7-2.3,6.5-6.1,6.5c-3.3,0-6.5-2.4-6.5-6.5c0-3.8,2.8-6.5,6.5-6.5
				C550.2,1298,551.9,1298.8,553.1,1300.1z"/>
			<path class="st2" d="M562.4,1302.3l-0.3,1.3c-0.4-0.2-1-0.3-1.5-0.3c-1.3,0-2.3,1-2.3,2.7v4.8H557v-8.5h1.3v1.2
				c0.6-0.9,1.5-1.4,2.5-1.4C561.4,1302.1,561.9,1302.1,562.4,1302.3z"/>
			<path class="st2" d="M571.6,1306.5c0,0.2,0,0.3,0,0.5h-6.8c0.2,1.8,1.5,2.8,3,2.8c1,0,2-0.4,2.7-1.1l0.7,0.9
				c-1.1,1-2.2,1.3-3.5,1.3c-2.5,0-4.3-1.8-4.3-4.4s1.8-4.4,4.2-4.4C569.9,1302.1,571.6,1303.9,571.6,1306.5z M564.8,1305.9h5.5
				c-0.2-1.6-1.2-2.6-2.7-2.6C566,1303.2,565,1304.3,564.8,1305.9z"/>
			<path class="st2" d="M581.7,1306.5c0,0.2,0,0.3,0,0.5h-6.8c0.2,1.8,1.5,2.8,3,2.8c1,0,2-0.4,2.7-1.1l0.7,0.9
				c-1.1,1-2.2,1.3-3.5,1.3c-2.5,0-4.3-1.8-4.3-4.4s1.8-4.4,4.2-4.4C580,1302.1,581.7,1303.9,581.7,1306.5z M574.9,1305.9h5.5
				c-0.2-1.6-1.2-2.6-2.7-2.6C576.1,1303.2,575.1,1304.3,574.9,1305.9z"/>
			<path class="st2" d="M592,1305.5v5.3h-1.3v-4.8c0-1.6-0.9-2.6-2.5-2.6c-1.4,0-2.6,1-2.6,2.6v4.8h-1.3v-8.5h1.3v1.2
				c0.7-1,1.8-1.4,2.9-1.4C590.5,1302.1,592,1303.4,592,1305.5z"/>
			<path class="st2" d="M641.2,1304.9h-7.8v-1.2h7.8V1304.9z M641.2,1308.3h-7.8v-1.2h7.8V1308.3z"/>
			<path class="st2" d="M651.5,1306.1v4.6H649v-12.6h5.1c3,0,4.6,1.6,4.6,4s-1.6,4-4.6,4H651.5L651.5,1306.1z M651.5,1300.5v3.4h2.6
				c1.4,0,2.1-0.6,2.1-1.7s-0.7-1.7-2.1-1.7L651.5,1300.5L651.5,1300.5z"/>
			<path class="st2" d="M671.5,1305.7c0,3.5-2.2,5.3-5.4,5.3c-3.2,0-5.4-1.8-5.4-5.3v-7.6h2.5v7.4c0,2.1,1.2,3,2.9,3s2.9-0.9,2.9-3
				v-7.4h2.5V1305.7z"/>
			<path class="st2" d="M683.4,1300.5h-3.9v10.2H677v-10.2h-3.9v-2.3h10.3V1300.5L683.4,1300.5z"/>
			<path class="st2" d="M547.3,1319.2c2.7,0,4.6,0.9,4.6,3.3c0,1.4-0.8,2.4-1.9,2.8c1.3,0.4,2.2,1.4,2.2,3c0,2.4-1.8,3.5-4.6,3.5
				h-5.2v-12.6L547.3,1319.2L547.3,1319.2z M543.9,1320.5v4.2h3.4c1.7,0,3.1-0.4,3.1-2.1s-1.3-2.1-3.1-2.1H543.9L543.9,1320.5z
				 M543.9,1326v4.4h3.6c1.9,0,3.1-0.5,3.1-2.2s-1.2-2.2-3.1-2.2L543.9,1326L543.9,1326z"/>
			<path class="st2" d="M556.2,1331.7h-1.3v-13h1.3V1331.7z"/>
			<path class="st2" d="M566.9,1328.2c0,2.5-1.8,3.7-3.9,3.7c-2.1,0-3.9-1.2-3.9-3.7v-5h1.3v4.8c0,1.8,1.1,2.6,2.5,2.6
				s2.5-0.8,2.5-2.6v-4.8h1.3L566.9,1328.2L566.9,1328.2z"/>
			<path class="st2" d="M577.6,1327.5c0,0.2,0,0.3,0,0.5h-6.8c0.2,1.8,1.5,2.8,3,2.8c1,0,2-0.4,2.7-1.1l0.7,0.9
				c-1.1,1-2.2,1.3-3.5,1.3c-2.5,0-4.3-1.8-4.3-4.4s1.8-4.4,4.2-4.4C575.9,1323.1,577.6,1324.9,577.6,1327.5z M570.7,1326.9h5.5
				c-0.2-1.6-1.2-2.6-2.7-2.6C572,1324.2,571,1325.3,570.7,1326.9z"/>
			<path class="st2" d="M640.7,1325.9h-7.8v-1.2h7.8V1325.9z M640.7,1329.3h-7.8v-1.2h7.8V1329.3z"/>
			<path class="st2" d="M653.7,1319.2c3,0,4.6,1.4,4.6,3.8c0,2.1-1.4,3.5-3.9,3.7l3.9,5.1h-3l-3.7-5h-0.7v5h-2.5v-12.6H653.7z
				 M650.9,1321.5v3.1h2.8c1.4,0,2.1-0.5,2.1-1.6c0-1-0.8-1.5-2.1-1.5H650.9z"/>
			<path class="st2" d="M670.1,1331.7h-9.4v-12.6h9.3v2.3h-6.8v2.8h6.5v2.3h-6.5v2.9h6.9V1331.7L670.1,1331.7z"/>
			<path class="st2" d="M675.2,1327.1v4.6h-2.5v-12.6h5.1c3,0,4.6,1.6,4.6,4s-1.6,4-4.6,4H675.2L675.2,1327.1z M675.2,1321.5v3.4
				h2.6c1.4,0,2.1-0.6,2.1-1.7s-0.7-1.7-2.1-1.7L675.2,1321.5L675.2,1321.5z"/>
			<path class="st2" d="M693.7,1331.7h-9.2v-12.6h2.5v10.2h6.7V1331.7z"/>
			<path class="st2" d="M697.9,1331.7h-2.5v-12.6h2.5V1331.7z"/>
			<path class="st2" d="M712.2,1321.7l-2.2,1.3c-0.7-1.1-1.8-1.7-3.3-1.7c-2.3,0-4,1.7-4,4.1c0,2.5,1.8,4.1,4,4.1
				c1.4,0,2.5-0.6,3.3-1.7l2.1,1.5c-1.1,1.6-3,2.7-5.3,2.7c-3.9,0-6.6-2.8-6.6-6.5s2.7-6.5,6.6-6.5
				C709.1,1318.9,711.2,1320,712.2,1321.7z"/>
			<path class="st2" d="M725.9,1331.7h-2.7l-1.1-2.9h-5.4l-1.1,2.9H713l4.9-12.6h3.1L725.9,1331.7z M717.6,1326.5h3.7l-1.8-4.9
				L717.6,1326.5z"/>
			<path class="st2" d="M735.6,1321.5h-3.9v10.2h-2.5v-10.2h-3.9v-2.3h10.3V1321.5L735.6,1321.5z"/>
			<path class="st2" d="M739.8,1331.7h-2.5v-12.6h2.5V1331.7z"/>
			<path class="st2" d="M755.3,1325.5c0,3.8-2.8,6.5-6.6,6.5s-6.6-2.8-6.6-6.5c0-3.8,2.7-6.5,6.6-6.5S755.3,1321.7,755.3,1325.5z
				 M744.7,1325.5c0,2.4,1.7,4.1,4,4.1s4-1.7,4-4.1s-1.7-4.1-4-4.1C746.4,1321.3,744.7,1323,744.7,1325.5z"/>
			<path class="st2" d="M768.8,1331.7h-2.4l-6.4-8.4v8.4h-2.5v-12.6h2.3l6.4,8.4v-8.4h2.5L768.8,1331.7L768.8,1331.7z"/>
			<path class="st2" d="M554.7,1346.5c0,3.8-2.8,6.5-6.5,6.5c-3.7,0-6.5-2.7-6.5-6.5s2.8-6.5,6.5-6.5
				C552,1340,554.7,1342.7,554.7,1346.5z M543.2,1346.5c0,3,2.2,5.1,5,5.1c2.8,0,5-2.1,5-5.1s-2.2-5.1-5-5.1
				C545.4,1341.4,543.2,1343.4,543.2,1346.5z"/>
			<path class="st2" d="M562.8,1344.3l-0.3,1.3c-0.4-0.2-1-0.3-1.5-0.3c-1.3,0-2.3,1-2.3,2.7v4.8h-1.3v-8.5h1.3v1.2
				c0.6-0.9,1.5-1.4,2.5-1.4C561.9,1344.1,562.4,1344.1,562.8,1344.3z"/>
			<path class="st2" d="M572.6,1352.7h-1.3v-1.3c-0.7,0.9-1.7,1.4-3.1,1.4c-2.4,0-4.3-1.9-4.3-4.4c0-2.6,1.9-4.4,4.3-4.4
				c1.4,0,2.4,0.6,3.1,1.4v-1.3h1.3V1352.7z M565.2,1348.5c0,1.8,1.2,3.2,3,3.2c1.8,0,3-1.4,3-3.2c0-1.8-1.3-3.2-3-3.2
				C566.4,1345.3,565.2,1346.7,565.2,1348.5z"/>
			<path class="st2" d="M583.5,1347.5v5.3h-1.3v-4.8c0-1.6-0.9-2.6-2.5-2.6c-1.4,0-2.6,1-2.6,2.6v4.8h-1.3v-8.5h1.3v1.2
				c0.7-1,1.8-1.4,2.9-1.4C582,1344.1,583.5,1345.4,583.5,1347.5z"/>
			<path class="st2" d="M593.1,1345.5v-1.3h1.3v7.9c0,2.8-1.9,4.3-4.5,4.3c-1.4,0-2.7-0.4-3.6-1.1l0.6-1.1c0.8,0.6,1.8,1,3,1
				c1.8,0,3.2-1.1,3.2-3v-0.9c-0.7,0.9-1.7,1.4-3,1.4c-2.4,0-4.2-1.8-4.2-4.4s1.8-4.4,4.2-4.4
				C591.5,1344.1,592.5,1344.6,593.1,1345.5z M587.2,1348.4c0,1.7,1.2,3.1,3,3.1c1.8,0,3-1.3,3-3.1c0-1.8-1.2-3.1-3-3.1
				C588.4,1345.3,587.2,1346.7,587.2,1348.4z"/>
			<path class="st2" d="M605.2,1348.5c0,0.2,0,0.3,0,0.5h-6.8c0.2,1.8,1.5,2.8,3,2.8c1,0,2-0.4,2.7-1.1l0.7,0.9
				c-1.1,1-2.2,1.3-3.5,1.3c-2.5,0-4.3-1.8-4.3-4.4s1.8-4.4,4.2-4.4C603.5,1344.1,605.2,1345.9,605.2,1348.5z M598.4,1347.9h5.5
				c-0.2-1.6-1.2-2.6-2.7-2.6C599.6,1345.2,598.6,1346.3,598.4,1347.9z"/>
			<path class="st2" d="M639.5,1346.9h-7.8v-1.2h7.8V1346.9z M639.5,1350.3h-7.8v-1.2h7.8V1350.3z"/>
			<path class="st2" d="M658,1341.8l-1.8,1.8c-0.7-0.8-1.8-1.3-3-1.3c-2.3,0-4,1.7-4,4.2c0,2.6,1.8,4.2,3.9,4.2s3.2-1,3.6-2.8h-3.2
				v-2.1h5.8c0,0.2,0,0.5,0,0.7c0,3.8-2.6,6.5-6.2,6.5c-3.5,0-6.6-2.5-6.6-6.5c0-3.8,2.8-6.5,6.7-6.5
				C655.3,1339.9,656.9,1340.6,658,1341.8z"/>
			<path class="st2" d="M671,1352.7h-9.4v-12.6h9.3v2.3h-6.8v2.8h6.5v2.3h-6.5v2.9h6.9V1352.7L671,1352.7z"/>
			<path class="st2" d="M682.8,1342.5h-3.9v10.2h-2.5v-10.2h-3.9v-2.3h10.3V1342.5L682.8,1342.5z"/>
		</g>
	</g>
	<circle class="st11" cx="518" cy="1303.6" r="6"/>
	<circle class="st0" cx="518" cy="1325.6" r="6"/>
	<circle class="st12" cx="518" cy="1347.6" r="6"/>
</g>
<g>
	<path class="st12" d="M274.7,334.1h-3.4v-33.6h3.4c1.2,0,1.8-1.4,0.9-2.3l-4.9-5c-0.5-0.5-1.4-0.5-1.9,0l-4.9,5
		c-0.8,0.8-0.2,2.3,0.9,2.3h3.7v33.6h-3.7c-1.2,0-1.8,1.4-0.9,2.3l4.9,5c0.5,0.5,1.4,0.5,1.9,0l4.9-5
		C276.5,335.6,275.9,334.1,274.7,334.1z"/>
	<path class="st11" d="M304.1,334.1h-3.4v-33.6h3.4c1.2,0,1.8-1.4,0.9-2.3l-4.9-5c-0.5-0.5-1.4-0.5-1.9,0l-4.9,5
		c-0.8,0.8-0.2,2.3,0.9,2.3h3.7v33.6h-3.7c-1.2,0-1.8,1.4-0.9,2.3l4.9,5c0.5,0.5,1.4,0.5,1.9,0l4.9-5
		C305.9,335.6,305.3,334.1,304.1,334.1z"/>
</g>
</svg>
