<?xml version="1.0" encoding="utf-8"?>
<!-- Generator: Adobe Illustrator 25.4.1, SVG Export Plug-In . SVG Version: 6.00 Build 0)  -->
<svg version="1.1" id="Capa_1" xmlns="http://www.w3.org/2000/svg" xmlns:xlink="http://www.w3.org/1999/xlink" x="0px" y="0px"
	 viewBox="0 0 1315.66 1646.59" style="enable-background:new 0 0 1315.66 1646.59;" xml:space="preserve">
<style type="text/css">
	.st0{fill:#2680AF;}
	.st1{fill:#F9F9F9;stroke:#C1C1C1;stroke-width:5;stroke-miterlimit:10;}
	.st2{fill:#434343;}
	.st3{fill:#F5F5F5;}
	.st4{fill:#FFFFFF;stroke:#434343;stroke-width:2;stroke-miterlimit:10;}
	.st5{fill:#C83B51;}
	.st6{fill:#FFFFFF;}
	.st7{fill:#7FC63C;}
	.st8{opacity:0.09;fill:#2680AF;}
	.st9{fill:url(#SVGID_1_);}
	.st10{fill:#D88A3D;}
	.st11{fill:url(#SVGID_00000054963672708480062110000006216053251618074036_);}
	.st12{fill:url(#SVGID_00000107586324156773410340000001465241411148062599_);}
	.st13{fill:#F9F9F9;stroke:#C1C1C1;stroke-miterlimit:10;stroke-dasharray:7;}
</style>
<path class="st0" d="M-7021.47-1661.56v206.79h3.91c1.19,0,1.78,1.44,0.94,2.28l-4.94,4.94c-0.52,0.52-1.37,0.52-1.89,0l-4.94-4.94
	c-0.84-0.84-0.25-2.28,0.94-2.28h3.97v-206.79H-7021.47z"/>
<path class="st1" d="M570.92,886.37c-29.35,0-53.15-23.8-53.15-53.15s23.8-53.15,53.15-53.15c2.87,0,5.69,0.23,8.43,0.67
	c8.8-29.55,36.16-51.1,68.57-51.1c39.52,0,71.55,32.03,71.55,71.55c0,1.13-0.03,2.25-0.08,3.36c5.63-2.59,11.88-4.04,18.48-4.04
	c24.46,0,44.29,19.83,44.29,44.29c0,24.46-19.83,44.29-44.29,44.29L570.92,886.37z"/>
<g>
	<path class="st2" d="M599.46,841.64h-4.59l-12.43-16.36l-0.02,16.36h-4.88v-24.5h4.57l12.44,16.36v-16.36h4.9V841.64z"/>
	<path class="st2" d="M620.4,833.13c0,0.53-0.04,1.16-0.09,1.54h-12.02c0.49,2.45,2.21,3.52,4.36,3.52c1.47,0,3.06-0.59,4.29-1.63
		l2.68,2.94c-1.92,1.77-4.38,2.57-7.23,2.57c-5.2,0-8.8-3.54-8.8-8.87c0-5.34,3.5-8.98,8.58-8.98
		C617.04,824.22,620.38,827.85,620.4,833.13z M608.31,831.56h7.51c-0.42-2.17-1.73-3.4-3.69-3.4
		C609.97,828.16,608.71,829.46,608.31,831.56z"/>
	<path class="st2" d="M636.26,828.74h-6.14v6.2c0,2.12,1.12,2.89,2.54,2.89c1.09,0,2.26-0.54,3.19-1.1l1.68,3.57
		c-1.49,1.01-3.2,1.79-5.62,1.79c-4.2,0-6.35-2.38-6.35-6.77v-6.56h-3.27v-4.06h3.27v-5.04h4.57v5.04h6.14V828.74z"/>
	<path class="st2" d="M659.13,836.58l3.64-11.9h4.78l-5.74,16.96h-5.21l-3.76-11.46l-3.73,11.46h-5.18l-5.74-16.96h4.87l3.62,11.85
		l3.8-11.85h4.81L659.13,836.58z"/>
	<path class="st2" d="M687.34,833.15c0,5.11-3.9,8.93-9.19,8.93c-5.27,0-9.15-3.82-9.15-8.93s3.89-8.93,9.15-8.93
		C683.44,824.22,687.34,828.04,687.34,833.15z M673.65,833.15c0,2.75,1.93,4.67,4.5,4.67c2.57,0,4.52-1.92,4.52-4.67
		s-1.94-4.67-4.52-4.67C675.58,828.48,673.65,830.4,673.65,833.15z"/>
	<path class="st2" d="M702.65,824.59l-0.68,4.53c-0.75-0.33-1.84-0.54-2.77-0.54c-2.12,0-3.57,1.3-3.57,3.82v9.24h-4.57v-16.96h4.43
		v1.85c1.07-1.59,2.7-2.31,4.78-2.31C701.25,824.22,702.02,824.36,702.65,824.59z"/>
	<path class="st2" d="M710.33,830.72h1.61l4.78-6.04h5.6l-6.69,7.98l6.74,8.98h-5.62l-4.88-6.86h-1.54v6.86h-4.57v-25.2h4.57V830.72
		z"/>
</g>
<path class="st3" d="M800.01,492.11H493.38c-4.94,0-8.95-4.01-8.95-8.95v-37.52c0-4.94,4.01-8.95,8.95-8.95h306.63
	c4.94,0,8.95,4.01,8.95,8.95v37.52C808.96,488.11,804.95,492.11,800.01,492.11z"/>
<g>
	<path class="st4" d="M766.86,162.94h-257.8c-7.23,0-13.1-5.86-13.1-13.1V53.66c0-7.23,5.86-13.1,13.1-13.1h257.8
		c7.23,0,13.1,5.86,13.1,13.1v96.18C779.96,157.08,774.09,162.94,766.86,162.94z"/>
	<path class="st4" d="M777.86,177.94h-257.8c-7.23,0-13.1-5.86-13.1-13.1V68.66c0-7.23,5.86-13.1,13.1-13.1h257.8
		c7.23,0,13.1,5.86,13.1,13.1v96.18C790.96,172.08,785.09,177.94,777.86,177.94z"/>
	<path class="st4" d="M788.86,192.94h-257.8c-7.23,0-13.1-5.86-13.1-13.1V83.66c0-7.23,5.86-13.1,13.1-13.1h257.8
		c7.23,0,13.1,5.86,13.1,13.1v96.18C801.96,187.08,796.09,192.94,788.86,192.94z"/>
	<g>
		<path class="st2" d="M589.14,140.4h-3.72l-1.52-4.07h-7.46l-1.52,4.07h-3.64l6.81-17.5h4.25L589.14,140.4z M577.63,133.11h5.06
			l-2.52-6.76L577.63,133.11z"/>
		<path class="st2" d="M603.79,134.34c0,3.64-2.52,6.37-5.86,6.37c-1.62,0-2.77-0.64-3.56-1.57v6.26h-3.25v-17.11h3.19v1.34
			c0.79-0.99,1.95-1.66,3.61-1.66C601.27,127.97,603.79,130.7,603.79,134.34z M594.21,134.34c0,1.91,1.26,3.34,3.11,3.34
			c1.92,0,3.12-1.49,3.12-3.34s-1.2-3.34-3.12-3.34C595.47,131,594.21,132.43,594.21,134.34z"/>
		<path class="st2" d="M619.13,134.34c0,3.64-2.52,6.37-5.86,6.37c-1.62,0-2.77-0.64-3.56-1.57v6.26h-3.25v-17.11h3.19v1.34
			c0.79-0.99,1.95-1.66,3.61-1.66C616.61,127.97,619.13,130.7,619.13,134.34z M609.55,134.34c0,1.91,1.26,3.34,3.11,3.34
			c1.92,0,3.12-1.49,3.12-3.34s-1.2-3.34-3.12-3.34C610.81,131,609.55,132.43,609.55,134.34z"/>
		<path class="st2" d="M625.06,140.4h-3.26v-18h3.26V140.4z"/>
		<path class="st2" d="M632.18,124.33c0,1.17-0.91,2.07-2.09,2.07s-2.07-0.9-2.07-2.07c0-1.17,0.9-2.1,2.07-2.1
			S632.18,123.15,632.18,124.33z M631.75,140.4h-3.26v-12.11h3.26V140.4z"/>
		<path class="st2" d="M645.72,130.25l-2.35,1.96c-0.74-0.79-1.52-1.21-2.59-1.21c-1.69,0-3.04,1.32-3.04,3.34
			c0,2.02,1.34,3.34,3.02,3.34c1.05,0,1.95-0.48,2.64-1.23l2.33,1.99c-1.14,1.46-2.84,2.27-4.86,2.27c-3.86,0-6.45-2.7-6.45-6.37
			c0-3.66,2.59-6.37,6.45-6.37C642.9,127.97,644.61,128.79,645.72,130.25z"/>
		<path class="st2" d="M659.76,140.4h-3.19v-1.34c-0.79,0.98-1.96,1.65-3.62,1.65c-3.34,0-5.86-2.74-5.86-6.37s2.52-6.37,5.86-6.37
			c1.66,0,2.82,0.67,3.62,1.66v-1.34h3.19V140.4z M650.42,134.34c0,1.85,1.21,3.34,3.12,3.34c1.86,0,3.12-1.42,3.12-3.34
			s-1.26-3.34-3.12-3.34C651.63,131,650.42,132.49,650.42,134.34z"/>
		<path class="st2" d="M671.97,131.19h-4.39v4.42c0,1.51,0.8,2.06,1.81,2.06c0.78,0,1.61-0.39,2.27-0.79l1.2,2.55
			c-1.06,0.73-2.29,1.27-4.01,1.27c-3,0-4.54-1.7-4.54-4.84v-4.69h-2.34v-2.9h2.34v-3.6h3.26v3.6h4.39V131.19z"/>
		<path class="st2" d="M678.55,124.33c0,1.17-0.91,2.07-2.09,2.07s-2.07-0.9-2.07-2.07c0-1.17,0.9-2.1,2.07-2.1
			S678.55,123.15,678.55,124.33z M678.11,140.4h-3.26v-12.11h3.26V140.4z"/>
		<path class="st2" d="M693.88,134.34c0,3.65-2.79,6.37-6.56,6.37c-3.76,0-6.54-2.72-6.54-6.37s2.77-6.37,6.54-6.37
			C691.09,127.97,693.88,130.69,693.88,134.34z M684.11,134.34c0,1.96,1.38,3.34,3.21,3.34s3.22-1.38,3.22-3.34
			s-1.39-3.34-3.22-3.34S684.11,132.38,684.11,134.34z"/>
		<path class="st2" d="M707.99,132.69v7.71h-3.26v-6.66c0-1.75-0.88-2.71-2.36-2.71c-1.4,0-2.56,0.91-2.56,2.74v6.64h-3.26v-12.11
			h3.17v1.42c0.86-1.29,2.19-1.75,3.56-1.75C706.03,127.97,707.99,129.88,707.99,132.69z"/>
		<path class="st2" d="M725.54,125.2c-3.24,1.52-4.94,4.6-4.94,8.1c0,3.5,1.7,6.57,4.94,8.1l-1.04,2.91
			c-4.36-1.7-7.33-5.86-7.33-11.01c0-5.15,2.97-9.31,7.33-11.01L725.54,125.2z"/>
		<path class="st2" d="M736.49,131.66c-0.96-0.48-2.5-0.97-3.86-0.99c-1.24,0-1.86,0.44-1.86,1.1c0,0.7,0.88,0.88,1.97,1.04
			l1.07,0.16c2.62,0.4,4.09,1.57,4.09,3.62c0,2.5-2.05,4.11-5.56,4.11c-1.65,0-3.81-0.31-5.39-1.42l1.29-2.47
			c1.04,0.69,2.3,1.19,4.12,1.19c1.51,0,2.24-0.42,2.24-1.14c0-0.59-0.61-0.91-2.01-1.11l-0.99-0.14c-2.8-0.39-4.19-1.61-4.19-3.67
			c0-2.49,1.92-3.96,5.11-3.96c1.94,0,3.45,0.36,5.06,1.15L736.49,131.66z"/>
		<path class="st2" d="M739.32,141.39c3.24-1.52,4.94-4.6,4.94-8.1s-1.7-6.57-4.94-8.1l1.04-2.91c4.36,1.7,7.34,5.86,7.34,11.01
			c0,5.15-2.97,9.31-7.34,11.01L739.32,141.39z"/>
	</g>
</g>
<g>
	<path class="st2" d="M512.4,457.98h1.29v4.98h0.06c0.09-0.2,0.19-0.4,0.32-0.59c0.13-0.19,0.29-0.35,0.48-0.49
		c0.19-0.14,0.41-0.25,0.67-0.34c0.26-0.09,0.56-0.13,0.91-0.13c0.87,0,1.57,0.28,2.1,0.83c0.53,0.56,0.79,1.34,0.79,2.35v5.35
		h-1.29v-5.13c0-0.77-0.17-1.33-0.5-1.71c-0.33-0.37-0.83-0.56-1.47-0.56c-0.26,0-0.51,0.03-0.76,0.1
		c-0.25,0.06-0.47,0.16-0.66,0.29c-0.19,0.13-0.35,0.3-0.47,0.5c-0.12,0.21-0.18,0.44-0.18,0.71v5.79h-1.29V457.98z"/>
	<path class="st2" d="M525.78,469.95c-0.64,0-1.1-0.18-1.4-0.53c-0.3-0.35-0.44-0.81-0.44-1.37v-5.33h-2.78v-1.12h2.07
		c0.28,0,0.48-0.06,0.59-0.17s0.17-0.31,0.17-0.59v-2.18h1.25v2.94h3.8v1.12h-3.8v6.11h3.8v1.12H525.78z"/>
	<path class="st2" d="M535.48,469.95c-0.64,0-1.1-0.18-1.4-0.53c-0.3-0.35-0.44-0.81-0.44-1.37v-5.33h-2.78v-1.12h2.07
		c0.28,0,0.48-0.06,0.59-0.17s0.17-0.31,0.17-0.59v-2.18h1.25v2.94h3.8v1.12h-3.8v6.11h3.8v1.12H535.48z"/>
	<path class="st2" d="M541.47,461.6h1.29v1.36h0.06c0.54-1.04,1.4-1.55,2.57-1.55c1.02,0,1.83,0.38,2.4,1.15
		c0.58,0.77,0.87,1.84,0.87,3.22c0,1.38-0.29,2.45-0.87,3.22c-0.58,0.77-1.38,1.15-2.4,1.15c-1.18,0-2.03-0.52-2.57-1.55h-0.06v4.59
		h-1.29V461.6z M544.9,468.99c0.75,0,1.34-0.23,1.75-0.69c0.42-0.46,0.62-1.06,0.62-1.82v-1.42c0-0.75-0.21-1.36-0.62-1.82
		s-1-0.69-1.75-0.69c-0.29,0-0.57,0.04-0.83,0.11c-0.26,0.08-0.49,0.19-0.68,0.33c-0.19,0.15-0.35,0.32-0.46,0.53
		s-0.17,0.46-0.17,0.74v3.01c0,0.28,0.06,0.53,0.17,0.74s0.27,0.39,0.46,0.53c0.19,0.15,0.42,0.26,0.68,0.33
		C544.33,468.95,544.61,468.99,544.9,468.99z"/>
	<path class="st2" d="M554.59,470.14c-0.87,0-1.63-0.15-2.26-0.45c-0.63-0.3-1.17-0.69-1.61-1.19l0.87-0.76
		c0.4,0.42,0.84,0.74,1.31,0.97s1.05,0.34,1.71,0.34c0.65,0,1.18-0.12,1.59-0.35s0.62-0.6,0.62-1.09c0-0.22-0.04-0.4-0.12-0.54
		c-0.08-0.15-0.19-0.26-0.33-0.35c-0.14-0.09-0.3-0.15-0.47-0.2s-0.36-0.09-0.55-0.12l-1.31-0.19c-0.29-0.04-0.61-0.1-0.95-0.18
		c-0.34-0.08-0.65-0.2-0.93-0.36c-0.28-0.17-0.52-0.39-0.7-0.67c-0.19-0.28-0.28-0.65-0.28-1.1c0-0.42,0.08-0.78,0.25-1.09
		c0.17-0.31,0.4-0.57,0.7-0.78s0.66-0.37,1.07-0.47c0.41-0.1,0.86-0.15,1.34-0.15c0.75,0,1.41,0.12,1.97,0.36
		c0.56,0.24,1.03,0.57,1.43,0.99l-0.84,0.79c-0.1-0.12-0.22-0.24-0.36-0.36c-0.15-0.12-0.32-0.24-0.53-0.34
		c-0.21-0.1-0.46-0.19-0.74-0.25c-0.28-0.06-0.6-0.1-0.97-0.1c-0.66,0-1.16,0.11-1.51,0.34s-0.53,0.56-0.53,0.99
		c0,0.22,0.04,0.4,0.12,0.54c0.08,0.15,0.19,0.26,0.33,0.35s0.3,0.15,0.48,0.2c0.18,0.05,0.36,0.09,0.54,0.12l1.31,0.19
		c0.3,0.04,0.62,0.1,0.95,0.18c0.33,0.08,0.64,0.2,0.92,0.36c0.28,0.17,0.52,0.39,0.7,0.67s0.28,0.65,0.28,1.1
		c0,0.83-0.32,1.47-0.96,1.92S555.66,470.14,554.59,470.14z"/>
	<path class="st2" d="M564.2,463.69c-0.44,0-0.75-0.09-0.93-0.27c-0.18-0.18-0.27-0.42-0.27-0.7v-0.29c0-0.28,0.09-0.51,0.27-0.7
		c0.18-0.18,0.49-0.27,0.93-0.27c0.44,0,0.75,0.09,0.93,0.27c0.18,0.18,0.27,0.42,0.27,0.7v0.29c0,0.28-0.09,0.51-0.27,0.7
		C564.95,463.59,564.64,463.69,564.2,463.69z M564.2,470.09c-0.44,0-0.75-0.09-0.93-0.27s-0.27-0.42-0.27-0.7v-0.29
		c0-0.28,0.09-0.51,0.27-0.7c0.18-0.18,0.49-0.27,0.93-0.27c0.44,0,0.75,0.09,0.93,0.27c0.18,0.18,0.27,0.42,0.27,0.7v0.29
		c0,0.28-0.09,0.51-0.27,0.7S564.64,470.09,564.2,470.09z"/>
	<path class="st2" d="M570.51,472.18l5.63-14.53h1.16l-5.63,14.53H570.51z"/>
	<path class="st2" d="M580.21,472.18l5.63-14.53h1.16l-5.63,14.53H580.21z"/>
	<path class="st2" d="M589.33,469.95v-8.35h1.2v0.97h0.06c0.13-0.32,0.31-0.6,0.55-0.83c0.24-0.23,0.59-0.34,1.05-0.34
		c0.49,0,0.85,0.12,1.08,0.36c0.24,0.24,0.38,0.56,0.44,0.95h0.05c0.15-0.38,0.37-0.69,0.65-0.94c0.28-0.25,0.67-0.37,1.16-0.37
		c0.68,0,1.13,0.24,1.37,0.71c0.23,0.47,0.35,1.15,0.35,2.04v5.79h-1.2v-5.58c0-0.71-0.07-1.21-0.22-1.48s-0.41-0.41-0.8-0.41
		c-0.35,0-0.63,0.11-0.84,0.33c-0.22,0.22-0.32,0.56-0.32,1.01v6.13h-1.2v-5.58c0-0.71-0.07-1.21-0.22-1.48s-0.41-0.41-0.78-0.41
		c-0.35,0-0.63,0.11-0.85,0.33c-0.22,0.22-0.33,0.56-0.33,1.01v6.13H589.33z"/>
	<path class="st2" d="M599.88,468.83h3.01v-6.11h-3.01v-1.12h4.3v7.23H607v1.12h-7.12V468.83z M603.54,459.76
		c-0.38,0-0.64-0.08-0.79-0.23c-0.15-0.16-0.23-0.35-0.23-0.59v-0.26c0-0.24,0.08-0.43,0.23-0.59c0.15-0.16,0.42-0.23,0.79-0.23
		s0.64,0.08,0.79,0.23c0.15,0.16,0.23,0.35,0.23,0.59v0.26c0,0.24-0.08,0.43-0.23,0.59C604.18,459.68,603.91,459.76,603.54,459.76z"
		/>
	<path class="st2" d="M609.46,469.95v-8.35h1.29v1.36h0.06c0.09-0.2,0.19-0.4,0.32-0.59c0.13-0.19,0.29-0.35,0.48-0.49
		c0.19-0.14,0.41-0.25,0.67-0.34c0.26-0.09,0.56-0.13,0.91-0.13c0.87,0,1.57,0.28,2.1,0.83c0.53,0.56,0.79,1.34,0.79,2.35v5.35
		h-1.29v-5.13c0-0.77-0.17-1.33-0.5-1.71c-0.33-0.37-0.83-0.56-1.47-0.56c-0.26,0-0.51,0.03-0.76,0.1
		c-0.25,0.06-0.47,0.16-0.66,0.29c-0.19,0.13-0.35,0.3-0.47,0.5c-0.12,0.21-0.18,0.44-0.18,0.71v5.79H609.46z"/>
	<path class="st2" d="M619.29,468.83h3.01v-6.11h-3.01v-1.12h4.3v7.23h2.81v1.12h-7.12V468.83z M622.95,459.76
		c-0.38,0-0.64-0.08-0.79-0.23c-0.15-0.16-0.23-0.35-0.23-0.59v-0.26c0-0.24,0.08-0.43,0.23-0.59c0.15-0.16,0.42-0.23,0.79-0.23
		s0.64,0.08,0.79,0.23c0.15,0.16,0.23,0.35,0.23,0.59v0.26c0,0.24-0.08,0.43-0.23,0.59C623.59,459.68,623.33,459.76,622.95,459.76z"
		/>
	<path class="st2" d="M632.14,470.14c-0.58,0-1.11-0.1-1.58-0.31s-0.87-0.5-1.2-0.88s-0.58-0.84-0.75-1.38
		c-0.17-0.53-0.26-1.13-0.26-1.8c0-0.66,0.09-1.26,0.26-1.8c0.17-0.54,0.42-1,0.75-1.38c0.33-0.38,0.73-0.68,1.2-0.88
		c0.47-0.2,0.99-0.31,1.58-0.31s1.11,0.1,1.58,0.31c0.47,0.21,0.87,0.5,1.2,0.88c0.33,0.38,0.58,0.84,0.75,1.38
		c0.17,0.54,0.26,1.14,0.26,1.8c0,0.67-0.09,1.27-0.26,1.8c-0.17,0.53-0.42,0.99-0.75,1.38c-0.33,0.38-0.73,0.68-1.2,0.88
		S632.72,470.14,632.14,470.14z M632.14,469.02c0.72,0,1.3-0.22,1.75-0.65c0.44-0.43,0.66-1.1,0.66-2.01v-1.2
		c0-0.91-0.22-1.57-0.66-2.01c-0.44-0.43-1.02-0.65-1.75-0.65c-0.72,0-1.31,0.22-1.75,0.65c-0.44,0.43-0.66,1.1-0.66,2.01v1.2
		c0,0.91,0.22,1.57,0.66,2.01C630.83,468.81,631.41,469.02,632.14,469.02z"/>
	<path class="st2" d="M639.5,465.71v-1.36h4.69v1.36H639.5z"/>
	<path class="st2" d="M651.55,470.14c-0.69,0-1.28-0.13-1.78-0.4c-0.5-0.26-0.91-0.64-1.23-1.14c-0.32-0.5-0.56-1.1-0.71-1.83
		s-0.23-1.55-0.23-2.48c0-0.92,0.08-1.74,0.23-2.47s0.39-1.34,0.71-1.84c0.32-0.5,0.73-0.88,1.23-1.14c0.5-0.26,1.09-0.4,1.78-0.4
		c0.69,0,1.28,0.13,1.78,0.4c0.5,0.26,0.91,0.64,1.23,1.14c0.32,0.5,0.56,1.11,0.71,1.84c0.15,0.73,0.23,1.55,0.23,2.47
		c0,0.93-0.08,1.75-0.23,2.48c-0.15,0.72-0.39,1.33-0.71,1.83c-0.32,0.5-0.73,0.88-1.23,1.14S652.24,470.14,651.55,470.14z
		 M651.55,468.96c0.45,0,0.84-0.09,1.16-0.27c0.32-0.18,0.58-0.43,0.78-0.75c0.2-0.32,0.35-0.71,0.44-1.17s0.15-0.97,0.15-1.54
		v-1.84c0-0.56-0.05-1.07-0.15-1.54c-0.1-0.46-0.25-0.86-0.44-1.18c-0.2-0.32-0.46-0.57-0.78-0.75c-0.32-0.18-0.71-0.27-1.16-0.27
		s-0.84,0.09-1.16,0.27c-0.32,0.18-0.59,0.43-0.78,0.75c-0.2,0.32-0.35,0.72-0.44,1.18c-0.1,0.46-0.15,0.98-0.15,1.54v1.84
		c0,0.57,0.05,1.09,0.15,1.54s0.25,0.85,0.44,1.17c0.2,0.32,0.46,0.57,0.78,0.75C650.71,468.87,651.1,468.96,651.55,468.96z
		 M651.55,465.26c-0.38,0-0.64-0.08-0.78-0.23c-0.15-0.15-0.22-0.33-0.22-0.55v-0.36c0-0.22,0.07-0.4,0.22-0.55s0.41-0.23,0.78-0.23
		s0.64,0.08,0.78,0.23s0.22,0.33,0.22,0.55v0.36c0,0.22-0.07,0.4-0.22,0.55C652.19,465.18,651.93,465.26,651.55,465.26z"/>
	<path class="st2" d="M657.78,469.95v-1.18h3.24v-9.11h-0.11l-2.85,2.65l-0.79-0.86l2.99-2.8h2.12v10.11h2.98v1.18H657.78z"/>
	<path class="st2" d="M670.96,470.09c-0.44,0-0.75-0.09-0.93-0.27s-0.27-0.42-0.27-0.7v-0.29c0-0.28,0.09-0.51,0.27-0.7
		c0.18-0.18,0.49-0.27,0.93-0.27c0.44,0,0.75,0.09,0.93,0.27c0.18,0.18,0.27,0.42,0.27,0.7v0.29c0,0.28-0.09,0.51-0.27,0.7
		S671.4,470.09,670.96,470.09z"/>
	<path class="st2" d="M680.81,470.14c-0.6,0-1.15-0.1-1.63-0.31c-0.48-0.2-0.89-0.5-1.23-0.88c-0.34-0.38-0.6-0.84-0.78-1.38
		c-0.18-0.53-0.27-1.13-0.27-1.79c0-0.67,0.09-1.27,0.28-1.81c0.19-0.54,0.45-1,0.78-1.38c0.33-0.38,0.74-0.68,1.21-0.88
		c0.47-0.2,0.99-0.31,1.56-0.31c0.56,0,1.07,0.1,1.53,0.31c0.46,0.21,0.85,0.49,1.17,0.85c0.32,0.36,0.57,0.79,0.74,1.29
		s0.26,1.04,0.26,1.63v0.61h-6.18v0.39c0,0.37,0.06,0.71,0.18,1.02c0.12,0.31,0.29,0.58,0.51,0.81c0.22,0.23,0.49,0.4,0.81,0.53
		c0.32,0.12,0.67,0.19,1.06,0.19c0.56,0,1.05-0.13,1.46-0.39c0.41-0.26,0.72-0.61,0.94-1.07l0.95,0.65
		c-0.25,0.56-0.66,1.02-1.24,1.38C682.35,469.96,681.64,470.14,680.81,470.14z M680.73,462.47c-0.36,0-0.69,0.06-0.99,0.19
		c-0.3,0.13-0.56,0.31-0.78,0.53c-0.22,0.23-0.39,0.49-0.52,0.8c-0.12,0.31-0.19,0.64-0.19,1.01v0.11h4.79v-0.18
		c0-0.37-0.06-0.7-0.17-1s-0.27-0.56-0.47-0.78c-0.2-0.22-0.44-0.39-0.73-0.51C681.39,462.53,681.08,462.47,680.73,462.47z"/>
	<path class="st2" d="M686.51,469.95l3.11-4.24l-3.02-4.11h1.55l1.26,1.76l1,1.39h0.06l0.97-1.39l1.25-1.76h1.49l-3.06,4.09
		l3.14,4.25h-1.55l-1.41-1.96l-0.95-1.33h-0.06l-0.92,1.33l-1.36,1.96H686.51z"/>
	<path class="st2" d="M703.23,469.95c-0.51,0-0.87-0.13-1.08-0.39c-0.22-0.26-0.35-0.58-0.4-0.97h-0.08
		c-0.18,0.49-0.48,0.87-0.88,1.14s-0.95,0.41-1.63,0.41c-0.87,0-1.57-0.23-2.09-0.68s-0.78-1.07-0.78-1.86
		c0-0.78,0.28-1.38,0.85-1.8c0.57-0.42,1.48-0.63,2.74-0.63h1.78v-0.82c0-0.61-0.17-1.07-0.52-1.37c-0.35-0.31-0.84-0.46-1.47-0.46
		c-0.56,0-1.02,0.11-1.38,0.33c-0.36,0.22-0.64,0.52-0.86,0.9l-0.87-0.65c0.11-0.22,0.25-0.43,0.44-0.63
		c0.18-0.21,0.41-0.39,0.68-0.55c0.27-0.16,0.58-0.28,0.92-0.38c0.35-0.09,0.73-0.14,1.15-0.14c0.98,0,1.76,0.25,2.34,0.75
		c0.58,0.5,0.87,1.19,0.87,2.07v4.6h1.16v1.12H703.23z M699.38,469.06c0.33,0,0.64-0.04,0.91-0.12c0.27-0.08,0.52-0.19,0.72-0.32
		c0.2-0.13,0.36-0.3,0.48-0.49c0.11-0.19,0.17-0.39,0.17-0.61v-1.38h-1.78c-0.78,0-1.34,0.11-1.7,0.32
		c-0.36,0.22-0.53,0.53-0.53,0.94v0.34c0,0.43,0.15,0.76,0.46,0.98C698.42,468.95,698.84,469.06,699.38,469.06z"/>
	<path class="st2" d="M705.8,469.95v-8.35h1.2v0.97h0.06c0.13-0.32,0.31-0.6,0.55-0.83c0.24-0.23,0.59-0.34,1.05-0.34
		c0.49,0,0.85,0.12,1.08,0.36c0.24,0.24,0.38,0.56,0.44,0.95h0.05c0.15-0.38,0.37-0.69,0.65-0.94c0.28-0.25,0.67-0.37,1.16-0.37
		c0.68,0,1.13,0.24,1.37,0.71c0.23,0.47,0.35,1.15,0.35,2.04v5.79h-1.2v-5.58c0-0.71-0.07-1.21-0.22-1.48s-0.41-0.41-0.8-0.41
		c-0.35,0-0.63,0.11-0.84,0.33c-0.22,0.22-0.32,0.56-0.32,1.01v6.13h-1.2v-5.58c0-0.71-0.07-1.21-0.22-1.48s-0.41-0.41-0.78-0.41
		c-0.35,0-0.63,0.11-0.85,0.33c-0.22,0.22-0.33,0.56-0.33,1.01v6.13H705.8z"/>
	<path class="st2" d="M716.17,461.6h1.29v1.36h0.06c0.54-1.04,1.4-1.55,2.57-1.55c1.02,0,1.83,0.38,2.4,1.15
		c0.58,0.77,0.87,1.84,0.87,3.22c0,1.38-0.29,2.45-0.87,3.22c-0.58,0.77-1.38,1.15-2.4,1.15c-1.18,0-2.03-0.52-2.57-1.55h-0.06v4.59
		h-1.29V461.6z M719.6,468.99c0.75,0,1.34-0.23,1.75-0.69c0.42-0.46,0.62-1.06,0.62-1.82v-1.42c0-0.75-0.21-1.36-0.62-1.82
		s-1-0.69-1.75-0.69c-0.29,0-0.57,0.04-0.83,0.11c-0.26,0.08-0.49,0.19-0.68,0.33c-0.19,0.15-0.35,0.32-0.46,0.53
		s-0.17,0.46-0.17,0.74v3.01c0,0.28,0.06,0.53,0.17,0.74s0.27,0.39,0.46,0.53c0.19,0.15,0.42,0.26,0.68,0.33
		C719.04,468.95,719.31,468.99,719.6,468.99z"/>
	<path class="st2" d="M725.64,468.83h2.91v-9.74h-2.91v-1.12h4.21v10.85h2.91v1.12h-7.12V468.83z"/>
	<path class="st2" d="M739.05,470.14c-0.6,0-1.15-0.1-1.63-0.31c-0.48-0.2-0.89-0.5-1.23-0.88c-0.34-0.38-0.6-0.84-0.78-1.38
		c-0.18-0.53-0.27-1.13-0.27-1.79c0-0.67,0.09-1.27,0.28-1.81c0.19-0.54,0.45-1,0.78-1.38c0.33-0.38,0.74-0.68,1.21-0.88
		c0.47-0.2,0.99-0.31,1.56-0.31c0.56,0,1.07,0.1,1.53,0.31c0.46,0.21,0.85,0.49,1.17,0.85c0.32,0.36,0.57,0.79,0.74,1.29
		s0.26,1.04,0.26,1.63v0.61h-6.18v0.39c0,0.37,0.06,0.71,0.18,1.02c0.12,0.31,0.29,0.58,0.51,0.81c0.22,0.23,0.49,0.4,0.81,0.53
		c0.32,0.12,0.67,0.19,1.06,0.19c0.56,0,1.05-0.13,1.46-0.39c0.41-0.26,0.72-0.61,0.94-1.07l0.95,0.65
		c-0.25,0.56-0.66,1.02-1.24,1.38C740.58,469.96,739.88,470.14,739.05,470.14z M738.97,462.47c-0.36,0-0.69,0.06-0.99,0.19
		c-0.3,0.13-0.56,0.31-0.78,0.53c-0.22,0.23-0.39,0.49-0.52,0.8c-0.12,0.31-0.19,0.64-0.19,1.01v0.11h4.79v-0.18
		c0-0.37-0.06-0.7-0.17-1s-0.27-0.56-0.47-0.78c-0.2-0.22-0.44-0.39-0.73-0.51C739.63,462.53,739.31,462.47,738.97,462.47z"/>
	<path class="st2" d="M748.61,470.09c-0.44,0-0.75-0.09-0.93-0.27s-0.27-0.42-0.27-0.7v-0.29c0-0.28,0.09-0.51,0.27-0.7
		c0.18-0.18,0.49-0.27,0.93-0.27c0.44,0,0.75,0.09,0.93,0.27c0.18,0.18,0.27,0.42,0.27,0.7v0.29c0,0.28-0.09,0.51-0.27,0.7
		S749.05,470.09,748.61,470.09z"/>
	<path class="st2" d="M755.05,469.95v-8.35h1.29v1.36h0.06c0.09-0.2,0.19-0.4,0.32-0.59c0.13-0.19,0.29-0.35,0.48-0.49
		c0.19-0.14,0.41-0.25,0.67-0.34c0.26-0.09,0.56-0.13,0.91-0.13c0.87,0,1.57,0.28,2.1,0.83c0.53,0.56,0.79,1.34,0.79,2.35v5.35
		h-1.29v-5.13c0-0.77-0.17-1.33-0.5-1.71c-0.33-0.37-0.83-0.56-1.47-0.56c-0.26,0-0.51,0.03-0.76,0.1
		c-0.25,0.06-0.47,0.16-0.66,0.29c-0.19,0.13-0.35,0.3-0.47,0.5c-0.12,0.21-0.18,0.44-0.18,0.71v5.79H755.05z"/>
	<path class="st2" d="M768.17,470.14c-0.6,0-1.15-0.1-1.63-0.31c-0.48-0.2-0.89-0.5-1.23-0.88c-0.34-0.38-0.6-0.84-0.78-1.38
		c-0.18-0.53-0.27-1.13-0.27-1.79c0-0.67,0.09-1.27,0.28-1.81c0.19-0.54,0.45-1,0.78-1.38c0.33-0.38,0.74-0.68,1.21-0.88
		c0.47-0.2,0.99-0.31,1.56-0.31c0.56,0,1.07,0.1,1.53,0.31c0.46,0.21,0.85,0.49,1.17,0.85c0.32,0.36,0.57,0.79,0.74,1.29
		s0.26,1.04,0.26,1.63v0.61h-6.18v0.39c0,0.37,0.06,0.71,0.18,1.02c0.12,0.31,0.29,0.58,0.51,0.81c0.22,0.23,0.49,0.4,0.81,0.53
		c0.32,0.12,0.67,0.19,1.06,0.19c0.56,0,1.05-0.13,1.46-0.39c0.41-0.26,0.72-0.61,0.94-1.07l0.95,0.65
		c-0.25,0.56-0.66,1.02-1.24,1.38C769.7,469.96,769,470.14,768.17,470.14z M768.08,462.47c-0.36,0-0.69,0.06-0.99,0.19
		c-0.3,0.13-0.56,0.31-0.78,0.53c-0.22,0.23-0.39,0.49-0.52,0.8c-0.12,0.31-0.19,0.64-0.19,1.01v0.11h4.79v-0.18
		c0-0.37-0.06-0.7-0.17-1s-0.27-0.56-0.47-0.78c-0.2-0.22-0.44-0.39-0.73-0.51C768.74,462.53,768.43,462.47,768.08,462.47z"/>
	<path class="st2" d="M778.13,469.95c-0.64,0-1.1-0.18-1.4-0.53c-0.3-0.35-0.44-0.81-0.44-1.37v-5.33h-2.78v-1.12h2.07
		c0.28,0,0.48-0.06,0.59-0.17s0.17-0.31,0.17-0.59v-2.18h1.25v2.94h3.8v1.12h-3.8v6.11h3.8v1.12H778.13z"/>
</g>
<g>
	<g>
		<path class="st5" d="M801.5,416.18H498.42c-6.59,0-11.95-5.36-11.95-11.95V296.33c0-6.59,5.36-11.95,11.95-11.95H801.5
			c6.59,0,11.95,5.36,11.95,11.95v107.91C813.45,410.82,808.09,416.18,801.5,416.18z M498.42,290.38c-3.28,0-5.95,2.67-5.95,5.95
			v107.91c0,3.28,2.67,5.95,5.95,5.95H801.5c3.28,0,5.95-2.67,5.95-5.95V296.33c0-3.28-2.67-5.95-5.95-5.95H498.42z"/>
	</g>
	<path class="st5" d="M629.76,342.4H509.32c-3.35,0-6.07-2.72-6.07-6.07v-28.75c0-3.35,2.72-6.07,6.07-6.07h120.44
		c3.35,0,6.07,2.72,6.07,6.07v28.75C635.83,339.68,633.11,342.4,629.76,342.4z"/>
	<circle class="st6" cx="569.54" cy="321.34" r="8.4"/>
	<path class="st6" d="M521.06,335.75v-27.59c0-0.32,0.26-0.58,0.58-0.58h4.89c0.32,0,0.58,0.26,0.58,0.58v27.59
		c0,0.32-0.26,0.58-0.58,0.58h-4.89C521.32,336.33,521.06,336.07,521.06,335.75z"/>
	<path class="st6" d="M531.82,335.75v-27.59c0-0.32,0.26-0.58,0.58-0.58h4.89c0.32,0,0.58,0.26,0.58,0.58v27.59
		c0,0.32-0.26,0.58-0.58,0.58h-4.89C532.08,336.33,531.82,336.07,531.82,335.75z"/>
	<path class="st6" d="M510.3,335.75v-27.59c0-0.32,0.26-0.58,0.58-0.58h4.89c0.32,0,0.58,0.26,0.58,0.58v27.59
		c0,0.32-0.26,0.58-0.58,0.58h-4.89C510.56,336.33,510.3,336.07,510.3,335.75z"/>
	<path class="st6" d="M612.21,335.75v-27.59c0-0.32,0.26-0.58,0.58-0.58h4.89c0.32,0,0.58,0.26,0.58,0.58v27.59
		c0,0.32-0.26,0.58-0.58,0.58h-4.89C612.47,336.33,612.21,336.07,612.21,335.75z"/>
	<path class="st6" d="M622.97,335.75v-27.59c0-0.32,0.26-0.58,0.58-0.58h4.89c0.32,0,0.58,0.26,0.58,0.58v27.59
		c0,0.32-0.26,0.58-0.58,0.58h-4.89C623.23,336.33,622.97,336.07,622.97,335.75z"/>
	<path class="st6" d="M601.45,335.75v-27.59c0-0.32,0.26-0.58,0.58-0.58h4.89c0.32,0,0.58,0.26,0.58,0.58v27.59
		c0,0.32-0.26,0.58-0.58,0.58h-4.89C601.71,336.33,601.45,336.07,601.45,335.75z"/>
	<g>
		<path class="st5" d="M629.76,397.48H509.32c-3.35,0-6.07-2.72-6.07-6.07v-28.75c0-3.35,2.72-6.07,6.07-6.07h120.44
			c3.35,0,6.07,2.72,6.07,6.07v28.75C635.83,394.76,633.11,397.48,629.76,397.48z"/>
		<circle class="st6" cx="569.54" cy="376.42" r="8.4"/>
		<path class="st6" d="M521.06,390.83v-27.59c0-0.32,0.26-0.58,0.58-0.58h4.89c0.32,0,0.58,0.26,0.58,0.58v27.59
			c0,0.32-0.26,0.58-0.58,0.58h-4.89C521.32,391.4,521.06,391.15,521.06,390.83z"/>
		<path class="st6" d="M531.82,390.83v-27.59c0-0.32,0.26-0.58,0.58-0.58h4.89c0.32,0,0.58,0.26,0.58,0.58v27.59
			c0,0.32-0.26,0.58-0.58,0.58h-4.89C532.08,391.4,531.82,391.15,531.82,390.83z"/>
		<path class="st6" d="M510.3,390.83v-27.59c0-0.32,0.26-0.58,0.58-0.58h4.89c0.32,0,0.58,0.26,0.58,0.58v27.59
			c0,0.32-0.26,0.58-0.58,0.58h-4.89C510.56,391.4,510.3,391.15,510.3,390.83z"/>
		<path class="st6" d="M612.21,390.83v-27.59c0-0.32,0.26-0.58,0.58-0.58h4.89c0.32,0,0.58,0.26,0.58,0.58v27.59
			c0,0.32-0.26,0.58-0.58,0.58h-4.89C612.47,391.4,612.21,391.15,612.21,390.83z"/>
		<path class="st6" d="M622.97,390.83v-27.59c0-0.32,0.26-0.58,0.58-0.58h4.89c0.32,0,0.58,0.26,0.58,0.58v27.59
			c0,0.32-0.26,0.58-0.58,0.58h-4.89C623.23,391.4,622.97,391.15,622.97,390.83z"/>
		<path class="st6" d="M601.45,390.83v-27.59c0-0.32,0.26-0.58,0.58-0.58h4.89c0.32,0,0.58,0.26,0.58,0.58v27.59
			c0,0.32-0.26,0.58-0.58,0.58h-4.89C601.71,391.4,601.45,391.15,601.45,390.83z"/>
	</g>
	<path class="st5" d="M790.25,342.4H669.81c-3.35,0-6.07-2.72-6.07-6.07v-28.75c0-3.35,2.72-6.07,6.07-6.07h120.44
		c3.35,0,6.07,2.72,6.07,6.07v28.75C796.31,339.68,793.6,342.4,790.25,342.4z"/>
	<circle class="st6" cx="730.03" cy="321.34" r="8.4"/>
	<path class="st6" d="M681.55,335.75v-27.59c0-0.32,0.26-0.58,0.58-0.58h4.89c0.32,0,0.58,0.26,0.58,0.58v27.59
		c0,0.32-0.26,0.58-0.58,0.58h-4.89C681.81,336.33,681.55,336.07,681.55,335.75z"/>
	<path class="st6" d="M692.31,335.75v-27.59c0-0.32,0.26-0.58,0.58-0.58h4.89c0.32,0,0.58,0.26,0.58,0.58v27.59
		c0,0.32-0.26,0.58-0.58,0.58h-4.89C692.57,336.33,692.31,336.07,692.31,335.75z"/>
	<path class="st6" d="M670.79,335.75v-27.59c0-0.32,0.26-0.58,0.58-0.58h4.89c0.32,0,0.58,0.26,0.58,0.58v27.59
		c0,0.32-0.26,0.58-0.58,0.58h-4.89C671.05,336.33,670.79,336.07,670.79,335.75z"/>
	<path class="st6" d="M772.7,335.75v-27.59c0-0.32,0.26-0.58,0.58-0.58h4.89c0.32,0,0.58,0.26,0.58,0.58v27.59
		c0,0.32-0.26,0.58-0.58,0.58h-4.89C772.96,336.33,772.7,336.07,772.7,335.75z"/>
	<path class="st6" d="M783.46,335.75v-27.59c0-0.32,0.26-0.58,0.58-0.58h4.89c0.32,0,0.58,0.26,0.58,0.58v27.59
		c0,0.32-0.26,0.58-0.58,0.58h-4.89C783.71,336.33,783.46,336.07,783.46,335.75z"/>
	<path class="st6" d="M761.94,335.75v-27.59c0-0.32,0.26-0.58,0.58-0.58h4.89c0.32,0,0.58,0.26,0.58,0.58v27.59
		c0,0.32-0.26,0.58-0.58,0.58h-4.89C762.2,336.33,761.94,336.07,761.94,335.75z"/>
	<g>
		<path class="st5" d="M790.25,397.48H669.81c-3.35,0-6.07-2.72-6.07-6.07v-28.75c0-3.35,2.72-6.07,6.07-6.07h120.44
			c3.35,0,6.07,2.72,6.07,6.07v28.75C796.31,394.76,793.6,397.48,790.25,397.48z"/>
		<circle class="st6" cx="730.03" cy="376.42" r="8.4"/>
		<path class="st6" d="M681.55,390.83v-27.59c0-0.32,0.26-0.58,0.58-0.58h4.89c0.32,0,0.58,0.26,0.58,0.58v27.59
			c0,0.32-0.26,0.58-0.58,0.58h-4.89C681.81,391.4,681.55,391.15,681.55,390.83z"/>
		<path class="st6" d="M692.31,390.83v-27.59c0-0.32,0.26-0.58,0.58-0.58h4.89c0.32,0,0.58,0.26,0.58,0.58v27.59
			c0,0.32-0.26,0.58-0.58,0.58h-4.89C692.57,391.4,692.31,391.15,692.31,390.83z"/>
		<path class="st6" d="M670.79,390.83v-27.59c0-0.32,0.26-0.58,0.58-0.58h4.89c0.32,0,0.58,0.26,0.58,0.58v27.59
			c0,0.32-0.26,0.58-0.58,0.58h-4.89C671.05,391.4,670.79,391.15,670.79,390.83z"/>
		<path class="st6" d="M772.7,390.83v-27.59c0-0.32,0.26-0.58,0.58-0.58h4.89c0.32,0,0.58,0.26,0.58,0.58v27.59
			c0,0.32-0.26,0.58-0.58,0.58h-4.89C772.96,391.4,772.7,391.15,772.7,390.83z"/>
		<path class="st6" d="M783.46,390.83v-27.59c0-0.32,0.26-0.58,0.58-0.58h4.89c0.32,0,0.58,0.26,0.58,0.58v27.59
			c0,0.32-0.26,0.58-0.58,0.58h-4.89C783.71,391.4,783.46,391.15,783.46,390.83z"/>
		<path class="st6" d="M761.94,390.83v-27.59c0-0.32,0.26-0.58,0.58-0.58h4.89c0.32,0,0.58,0.26,0.58,0.58v27.59
			c0,0.32-0.26,0.58-0.58,0.58h-4.89C762.2,391.4,761.94,391.15,761.94,390.83z"/>
	</g>
</g>
<path class="st7" d="M652.74,256.22h-3.44v-33.61h3.44c1.19,0,1.78-1.44,0.94-2.29l-4.94-4.96c-0.52-0.52-1.37-0.52-1.89,0
	l-4.94,4.96c-0.84,0.84-0.25,2.29,0.94,2.29h3.68v33.61h-3.68c-1.19,0-1.78,1.44-0.94,2.29l4.94,4.96c0.52,0.52,1.37,0.52,1.89,0
	l4.94-4.96C654.52,257.66,653.93,256.22,652.74,256.22z"/>
<path class="st0" d="M652.74,702.25h-3.44v-33.61h3.44c1.19,0,1.78-1.44,0.94-2.29l-4.94-4.96c-0.52-0.52-1.37-0.52-1.89,0
	l-4.94,4.96c-0.84,0.84-0.25,2.29,0.94,2.29h3.68v33.61h-3.68c-1.19,0-1.78,1.44-0.94,2.29l4.94,4.96c0.52,0.52,1.37,0.52,1.89,0
	l4.94-4.96C654.52,703.7,653.93,702.25,652.74,702.25z"/>
<rect x="598.72" y="520.15" class="st8" width="93.68" height="110.14"/>
<g>
	<g>
		<path class="st2" d="M618.46,589.52c-0.82,0-1.52-0.15-2.12-0.44s-1.1-0.72-1.48-1.27c-0.39-0.55-0.68-1.23-0.86-2.03
			s-0.28-1.72-0.28-2.75c0-1.02,0.09-1.93,0.28-2.75c0.19-0.81,0.47-1.49,0.86-2.04c0.39-0.55,0.88-0.97,1.48-1.27
			s1.31-0.44,2.12-0.44c1.63,0,2.83,0.57,3.6,1.71c0.77,1.14,1.15,2.74,1.15,4.79s-0.38,3.65-1.15,4.79
			C621.29,588.95,620.09,589.52,618.46,589.52z M618.46,587.62c0.42,0,0.77-0.08,1.06-0.24c0.29-0.16,0.52-0.39,0.69-0.7
			s0.3-0.67,0.38-1.11c0.08-0.44,0.12-0.93,0.12-1.47v-2.15c0-1.08-0.17-1.94-0.5-2.57c-0.33-0.63-0.92-0.94-1.75-0.94
			s-1.42,0.31-1.75,0.94c-0.33,0.63-0.5,1.48-0.5,2.57v2.17c0,1.08,0.17,1.94,0.5,2.57C617.04,587.3,617.62,587.62,618.46,587.62z"
			/>
		<path class="st2" d="M625.3,576.74h4.37c1.19,0,2.1,0.3,2.75,0.89c0.64,0.59,0.96,1.4,0.96,2.42c0,0.72-0.18,1.3-0.53,1.73
			c-0.35,0.43-0.85,0.74-1.5,0.94v0.09c0.76,0.18,1.35,0.51,1.79,0.98c0.44,0.47,0.66,1.14,0.66,2.01c0,0.53-0.09,1-0.26,1.43
			s-0.42,0.79-0.74,1.11c-0.32,0.31-0.7,0.55-1.15,0.72c-0.45,0.17-0.96,0.25-1.52,0.25h-4.82V576.74z M629.1,582.11
			c0.64,0,1.11-0.11,1.41-0.34c0.31-0.23,0.46-0.62,0.46-1.19v-0.59c0-0.56-0.15-0.96-0.46-1.19c-0.31-0.23-0.78-0.34-1.41-0.34
			h-1.49v3.65H629.1z M629.4,587.6c0.66,0,1.15-0.12,1.48-0.37s0.5-0.67,0.5-1.27v-0.59c0-0.59-0.17-1-0.5-1.25
			s-0.83-0.37-1.48-0.37h-1.8v3.85H629.4z"/>
		<path class="st2" d="M643.7,576.74v9.13c0,0.56-0.1,1.07-0.29,1.52c-0.19,0.45-0.47,0.83-0.82,1.14
			c-0.35,0.31-0.78,0.56-1.28,0.73s-1.05,0.26-1.67,0.26c-1.19,0-2.12-0.3-2.8-0.9c-0.68-0.6-1.11-1.4-1.31-2.39l2.21-0.47
			c0.11,0.53,0.3,0.96,0.58,1.3c0.28,0.34,0.72,0.51,1.3,0.51c0.54,0,0.95-0.16,1.24-0.48s0.43-0.82,0.43-1.5v-6.91h-4.25v-1.94
			H643.7z"/>
		<path class="st2" d="M646.95,589.31v-12.56h7.94v1.94h-5.58v3.28h5.38v1.94h-5.38v3.46h5.58v1.94H646.95z"/>
		<path class="st2" d="M661.98,589.52c-1.64,0-2.86-0.56-3.65-1.69c-0.79-1.13-1.18-2.73-1.18-4.81c0-2.06,0.39-3.66,1.18-4.8
			c0.79-1.13,2-1.7,3.65-1.7c0.62,0,1.17,0.08,1.65,0.25c0.47,0.17,0.88,0.39,1.23,0.69c0.35,0.29,0.64,0.64,0.86,1.05
			c0.23,0.41,0.41,0.87,0.54,1.36l-2.16,0.61c-0.08-0.29-0.18-0.56-0.29-0.81s-0.24-0.47-0.41-0.66c-0.16-0.19-0.36-0.33-0.6-0.43
			c-0.24-0.1-0.53-0.15-0.86-0.15c-0.82,0-1.4,0.31-1.75,0.94c-0.35,0.63-0.53,1.48-0.53,2.57v2.17c0,1.08,0.18,1.94,0.53,2.57
			c0.35,0.63,0.94,0.94,1.75,0.94c0.34,0,0.62-0.05,0.86-0.15c0.24-0.1,0.44-0.25,0.6-0.43c0.16-0.19,0.3-0.41,0.41-0.66
			s0.2-0.52,0.29-0.81l2.16,0.61c-0.13,0.49-0.31,0.94-0.54,1.36c-0.23,0.41-0.52,0.76-0.86,1.05c-0.35,0.29-0.76,0.52-1.23,0.69
			C663.16,589.44,662.61,589.52,661.98,589.52z"/>
		<path class="st2" d="M673.63,578.69v10.62h-2.34v-10.62h-3.78v-1.94h9.9v1.94H673.63z"/>
	</g>
</g>
<linearGradient id="SVGID_1_" gradientUnits="userSpaceOnUse" x1="645.5587" y1="637.6587" x2="645.5587" y2="538.9709">
	<stop  offset="0" style="stop-color:#10535A"/>
	<stop  offset="1" style="stop-color:#102E46"/>
</linearGradient>
<path class="st9" d="M697.53,551.71c0.19-7.56,0.46-15.48-0.24-23.01c-0.52-5.64-2.97-10.43-8.56-12.44
	c-0.79-0.28-1.59-0.51-2.41-0.69c-3.14-0.71-6.45-0.77-9.64-0.86c-5.63-0.16-11.26,0.18-16.88,0.15
	c-11.28-0.05-22.55,0.16-33.83,0.2c-1.35,0.01-2.71,0.01-4.06,0.01c-6.75,0-13.51,0-20.26,0c-4.56,0-8.28,3.71-8.28,8.28v105.93
	c0,4.56,3.71,8.28,8.28,8.28h87.62c4.56,0,8.28-3.71,8.28-8.28c0-5.64,0-11.28,0-16.92c0-11.95,0-23.91,0-35.86
	C697.54,568.24,697.33,559.94,697.53,551.71z M687.49,621.78c0,3.95-3.2,7.15-7.15,7.15h-71.22c-3.95,0-7.15-3.2-7.15-7.15v-90.97
	c0-3.95,3.2-7.15,7.15-7.15h47.78v12.22c0,9.99,8.13,18.12,18.12,18.12h12.46V621.78z M687.49,546.11h-12.46
	c-5.64,0-10.22-4.59-10.22-10.22v-12.22h15.53c3.95,0,7.15,3.2,7.15,7.15V546.11z"/>
<rect x="180.46" y="909.91" class="st8" width="93.68" height="110.14"/>
<g>
	<path class="st4" d="M1190.52,1525.82h-257.8c-7.23,0-13.1-5.86-13.1-13.1v-96.18c0-7.23,5.86-13.1,13.1-13.1h257.8
		c7.23,0,13.1,5.86,13.1,13.1v96.18C1203.62,1519.96,1197.75,1525.82,1190.52,1525.82z"/>
	<path class="st4" d="M1201.52,1540.82h-257.8c-7.23,0-13.1-5.86-13.1-13.1v-96.18c0-7.23,5.86-13.1,13.1-13.1h257.8
		c7.23,0,13.1,5.86,13.1,13.1v96.18C1214.62,1534.96,1208.75,1540.82,1201.52,1540.82z"/>
	<path class="st4" d="M1212.52,1555.82h-257.8c-7.23,0-13.1-5.86-13.1-13.1v-96.18c0-7.23,5.86-13.1,13.1-13.1h257.8
		c7.23,0,13.1,5.86,13.1,13.1v96.18C1225.62,1549.96,1219.75,1555.82,1212.52,1555.82z"/>
	<g>
		<path class="st2" d="M1012.8,1503.28h-3.72l-1.52-4.07h-7.46l-1.52,4.07h-3.64l6.81-17.5h4.25L1012.8,1503.28z M1001.29,1496h5.06
			l-2.52-6.76L1001.29,1496z"/>
		<path class="st2" d="M1027.45,1497.22c0,3.64-2.52,6.37-5.86,6.37c-1.62,0-2.77-0.64-3.56-1.57v6.26h-3.25v-17.11h3.19v1.34
			c0.79-0.99,1.95-1.66,3.61-1.66C1024.93,1490.85,1027.45,1493.58,1027.45,1497.22z M1017.87,1497.22c0,1.91,1.26,3.34,3.11,3.34
			c1.92,0,3.12-1.49,3.12-3.34s-1.2-3.34-3.12-3.34C1019.13,1493.88,1017.87,1495.31,1017.87,1497.22z"/>
		<path class="st2" d="M1042.79,1497.22c0,3.64-2.52,6.37-5.86,6.37c-1.62,0-2.77-0.64-3.56-1.57v6.26h-3.25v-17.11h3.19v1.34
			c0.79-0.99,1.95-1.66,3.61-1.66C1040.26,1490.85,1042.79,1493.58,1042.79,1497.22z M1033.2,1497.22c0,1.91,1.26,3.34,3.11,3.34
			c1.92,0,3.12-1.49,3.12-3.34s-1.2-3.34-3.12-3.34C1034.46,1493.88,1033.2,1495.31,1033.2,1497.22z"/>
		<path class="st2" d="M1048.71,1503.28h-3.26v-18h3.26V1503.28z"/>
		<path class="st2" d="M1055.84,1487.21c0,1.17-0.91,2.08-2.09,2.08s-2.07-0.9-2.07-2.08c0-1.17,0.9-2.1,2.07-2.1
			S1055.84,1486.04,1055.84,1487.21z M1055.4,1503.28h-3.26v-12.11h3.26V1503.28z"/>
		<path class="st2" d="M1069.38,1493.13l-2.35,1.96c-0.74-0.79-1.52-1.21-2.59-1.21c-1.69,0-3.04,1.32-3.04,3.34
			c0,2.02,1.34,3.34,3.02,3.34c1.05,0,1.95-0.48,2.64-1.23l2.33,1.99c-1.14,1.46-2.84,2.27-4.86,2.27c-3.86,0-6.45-2.7-6.45-6.37
			c0-3.66,2.59-6.37,6.45-6.37C1066.55,1490.85,1068.26,1491.67,1069.38,1493.13z"/>
		<path class="st2" d="M1083.41,1503.28h-3.19v-1.34c-0.79,0.97-1.96,1.65-3.62,1.65c-3.34,0-5.86-2.74-5.86-6.37
			s2.52-6.37,5.86-6.37c1.66,0,2.82,0.67,3.62,1.66v-1.34h3.19V1503.28z M1074.08,1497.22c0,1.85,1.21,3.34,3.12,3.34
			c1.86,0,3.12-1.42,3.12-3.34s-1.26-3.34-3.12-3.34C1075.29,1493.88,1074.08,1495.37,1074.08,1497.22z"/>
		<path class="st2" d="M1095.62,1494.07h-4.39v4.42c0,1.51,0.8,2.06,1.81,2.06c0.78,0,1.61-0.39,2.27-0.79l1.2,2.55
			c-1.06,0.72-2.29,1.27-4.01,1.27c-3,0-4.54-1.7-4.54-4.84v-4.69h-2.34v-2.9h2.34v-3.6h3.26v3.6h4.39V1494.07z"/>
		<path class="st2" d="M1102.2,1487.21c0,1.17-0.91,2.08-2.09,2.08s-2.07-0.9-2.07-2.08c0-1.17,0.9-2.1,2.07-2.1
			S1102.2,1486.04,1102.2,1487.21z M1101.76,1503.28h-3.26v-12.11h3.26V1503.28z"/>
		<path class="st2" d="M1117.54,1497.22c0,3.65-2.79,6.37-6.56,6.37c-3.76,0-6.54-2.72-6.54-6.37c0-3.65,2.77-6.37,6.54-6.37
			C1114.75,1490.85,1117.54,1493.57,1117.54,1497.22z M1107.76,1497.22c0,1.96,1.38,3.34,3.21,3.34s3.22-1.38,3.22-3.34
			s-1.39-3.34-3.22-3.34S1107.76,1495.26,1107.76,1497.22z"/>
		<path class="st2" d="M1131.65,1495.57v7.71h-3.26v-6.66c0-1.75-0.88-2.71-2.36-2.71c-1.4,0-2.56,0.91-2.56,2.74v6.64h-3.26v-12.11
			h3.17v1.42c0.86-1.29,2.19-1.75,3.56-1.75C1129.69,1490.85,1131.65,1492.76,1131.65,1495.57z"/>
		<path class="st2" d="M1149.2,1488.09c-3.24,1.52-4.94,4.6-4.94,8.1c0,3.5,1.7,6.57,4.94,8.1l-1.04,2.91
			c-4.36-1.7-7.33-5.86-7.33-11.01c0-5.15,2.97-9.31,7.33-11.01L1149.2,1488.09z"/>
		<path class="st2" d="M1160.15,1494.55c-0.96-0.47-2.5-0.97-3.86-0.99c-1.24,0-1.86,0.44-1.86,1.1c0,0.7,0.88,0.88,1.97,1.04
			l1.07,0.16c2.62,0.4,4.09,1.57,4.09,3.62c0,2.5-2.05,4.11-5.56,4.11c-1.65,0-3.81-0.31-5.39-1.42l1.29-2.47
			c1.04,0.69,2.3,1.19,4.12,1.19c1.51,0,2.24-0.42,2.24-1.14c0-0.59-0.61-0.91-2.01-1.11l-0.99-0.14c-2.8-0.39-4.19-1.61-4.19-3.67
			c0-2.49,1.92-3.96,5.11-3.96c1.94,0,3.45,0.36,5.06,1.15L1160.15,1494.55z"/>
		<path class="st2" d="M1162.98,1504.27c3.24-1.52,4.94-4.6,4.94-8.1s-1.7-6.57-4.94-8.1l1.04-2.91c4.36,1.7,7.34,5.86,7.34,11.01
			s-2.97,9.31-7.34,11.01L1162.98,1504.27z"/>
	</g>
</g>
<g>
	<path class="st4" d="M348.22,1525.82H90.42c-7.23,0-13.1-5.86-13.1-13.1v-96.18c0-7.23,5.86-13.1,13.1-13.1h257.8
		c7.23,0,13.1,5.86,13.1,13.1v96.18C361.32,1519.96,355.45,1525.82,348.22,1525.82z"/>
	<path class="st4" d="M359.22,1540.82h-257.8c-7.23,0-13.1-5.86-13.1-13.1v-96.18c0-7.23,5.86-13.1,13.1-13.1h257.8
		c7.23,0,13.1,5.86,13.1,13.1v96.18C372.32,1534.96,366.45,1540.82,359.22,1540.82z"/>
	<path class="st4" d="M370.22,1555.82h-257.8c-7.23,0-13.1-5.86-13.1-13.1v-96.18c0-7.23,5.86-13.1,13.1-13.1h257.8
		c7.23,0,13.1,5.86,13.1,13.1v96.18C383.32,1549.96,377.45,1555.82,370.22,1555.82z"/>
	<g>
		<path class="st2" d="M170.5,1503.28h-3.72l-1.52-4.07h-7.46l-1.52,4.07h-3.64l6.81-17.5h4.25L170.5,1503.28z M158.99,1496h5.06
			l-2.52-6.76L158.99,1496z"/>
		<path class="st2" d="M185.15,1497.22c0,3.64-2.52,6.37-5.86,6.37c-1.62,0-2.77-0.64-3.56-1.57v6.26h-3.25v-17.11h3.19v1.34
			c0.79-0.99,1.95-1.66,3.61-1.66C182.63,1490.85,185.15,1493.58,185.15,1497.22z M175.57,1497.22c0,1.91,1.26,3.34,3.11,3.34
			c1.92,0,3.12-1.49,3.12-3.34s-1.2-3.34-3.12-3.34C176.83,1493.88,175.57,1495.31,175.57,1497.22z"/>
		<path class="st2" d="M200.49,1497.22c0,3.64-2.52,6.37-5.86,6.37c-1.62,0-2.77-0.64-3.56-1.57v6.26h-3.25v-17.11H191v1.34
			c0.79-0.99,1.95-1.66,3.61-1.66C197.97,1490.85,200.49,1493.58,200.49,1497.22z M190.91,1497.22c0,1.91,1.26,3.34,3.11,3.34
			c1.92,0,3.12-1.49,3.12-3.34s-1.2-3.34-3.12-3.34C192.17,1493.88,190.91,1495.31,190.91,1497.22z"/>
		<path class="st2" d="M206.42,1503.28h-3.26v-18h3.26V1503.28z"/>
		<path class="st2" d="M213.54,1487.21c0,1.17-0.91,2.08-2.09,2.08s-2.07-0.9-2.07-2.08c0-1.17,0.9-2.1,2.07-2.1
			S213.54,1486.04,213.54,1487.21z M213.1,1503.28h-3.26v-12.11h3.26V1503.28z"/>
		<path class="st2" d="M227.08,1493.13l-2.35,1.96c-0.74-0.79-1.52-1.21-2.59-1.21c-1.69,0-3.04,1.32-3.04,3.34
			c0,2.02,1.34,3.34,3.02,3.34c1.05,0,1.95-0.48,2.64-1.23l2.33,1.99c-1.14,1.46-2.84,2.27-4.86,2.27c-3.86,0-6.45-2.7-6.45-6.37
			c0-3.66,2.59-6.37,6.45-6.37C224.25,1490.85,225.97,1491.67,227.08,1493.13z"/>
		<path class="st2" d="M241.11,1503.28h-3.19v-1.34c-0.79,0.97-1.96,1.65-3.62,1.65c-3.34,0-5.86-2.74-5.86-6.37
			s2.52-6.37,5.86-6.37c1.66,0,2.82,0.67,3.62,1.66v-1.34h3.19V1503.28z M231.78,1497.22c0,1.85,1.21,3.34,3.12,3.34
			c1.86,0,3.12-1.42,3.12-3.34s-1.26-3.34-3.12-3.34C232.99,1493.88,231.78,1495.37,231.78,1497.22z"/>
		<path class="st2" d="M253.33,1494.07h-4.39v4.42c0,1.51,0.8,2.06,1.81,2.06c0.78,0,1.61-0.39,2.27-0.79l1.2,2.55
			c-1.06,0.72-2.29,1.27-4.01,1.27c-3,0-4.54-1.7-4.54-4.84v-4.69h-2.34v-2.9h2.34v-3.6h3.26v3.6h4.39V1494.07z"/>
		<path class="st2" d="M259.9,1487.21c0,1.17-0.91,2.08-2.09,2.08s-2.07-0.9-2.07-2.08c0-1.17,0.9-2.1,2.07-2.1
			S259.9,1486.04,259.9,1487.21z M259.47,1503.28h-3.26v-12.11h3.26V1503.28z"/>
		<path class="st2" d="M275.24,1497.22c0,3.65-2.79,6.37-6.56,6.37c-3.76,0-6.54-2.72-6.54-6.37c0-3.65,2.77-6.37,6.54-6.37
			C272.45,1490.85,275.24,1493.57,275.24,1497.22z M265.47,1497.22c0,1.96,1.38,3.34,3.21,3.34s3.22-1.38,3.22-3.34
			s-1.39-3.34-3.22-3.34S265.47,1495.26,265.47,1497.22z"/>
		<path class="st2" d="M289.35,1495.57v7.71h-3.26v-6.66c0-1.75-0.88-2.71-2.36-2.71c-1.4,0-2.56,0.91-2.56,2.74v6.64h-3.26v-12.11
			h3.17v1.42c0.86-1.29,2.19-1.75,3.56-1.75C287.39,1490.85,289.35,1492.76,289.35,1495.57z"/>
		<path class="st2" d="M306.9,1488.09c-3.24,1.52-4.94,4.6-4.94,8.1c0,3.5,1.7,6.57,4.94,8.1l-1.04,2.91
			c-4.36-1.7-7.33-5.86-7.33-11.01c0-5.15,2.97-9.31,7.33-11.01L306.9,1488.09z"/>
		<path class="st2" d="M317.85,1494.55c-0.96-0.47-2.5-0.97-3.86-0.99c-1.24,0-1.86,0.44-1.86,1.1c0,0.7,0.88,0.88,1.97,1.04
			l1.07,0.16c2.62,0.4,4.09,1.57,4.09,3.62c0,2.5-2.05,4.11-5.56,4.11c-1.65,0-3.81-0.31-5.39-1.42l1.29-2.47
			c1.04,0.69,2.3,1.19,4.12,1.19c1.51,0,2.24-0.42,2.24-1.14c0-0.59-0.61-0.91-2.01-1.11l-0.99-0.14c-2.8-0.39-4.19-1.61-4.19-3.67
			c0-2.49,1.92-3.96,5.11-3.96c1.94,0,3.45,0.36,5.06,1.15L317.85,1494.55z"/>
		<path class="st2" d="M320.68,1504.27c3.24-1.52,4.94-4.6,4.94-8.1s-1.7-6.57-4.94-8.1l1.04-2.91c4.36,1.7,7.34,5.86,7.34,11.01
			s-2.97,9.31-7.34,11.01L320.68,1504.27z"/>
	</g>
</g>
<g>
	<g>
		<path class="st2" d="M199.61,979.28c-0.82,0-1.52-0.15-2.12-0.44s-1.1-0.72-1.48-1.27c-0.39-0.55-0.68-1.23-0.86-2.03
			s-0.28-1.72-0.28-2.75c0-1.02,0.09-1.93,0.28-2.75c0.19-0.81,0.47-1.49,0.86-2.04c0.39-0.55,0.88-0.97,1.48-1.27
			s1.31-0.44,2.12-0.44c1.63,0,2.83,0.57,3.6,1.71c0.77,1.14,1.15,2.74,1.15,4.79s-0.38,3.65-1.15,4.79
			C202.45,978.71,201.25,979.28,199.61,979.28z M199.61,977.37c0.42,0,0.77-0.08,1.06-0.24c0.29-0.16,0.52-0.39,0.69-0.7
			s0.3-0.67,0.38-1.11c0.08-0.44,0.12-0.93,0.12-1.47v-2.15c0-1.08-0.17-1.94-0.5-2.57c-0.33-0.63-0.92-0.94-1.75-0.94
			s-1.42,0.31-1.75,0.94c-0.33,0.63-0.5,1.48-0.5,2.57v2.17c0,1.08,0.17,1.94,0.5,2.57C198.19,977.06,198.78,977.37,199.61,977.37z"
			/>
		<path class="st2" d="M206.45,966.5h4.37c1.19,0,2.1,0.3,2.75,0.89c0.64,0.59,0.96,1.4,0.96,2.42c0,0.72-0.18,1.3-0.53,1.73
			c-0.35,0.43-0.85,0.74-1.5,0.94v0.09c0.76,0.18,1.35,0.51,1.79,0.98c0.44,0.47,0.66,1.14,0.66,2.01c0,0.53-0.09,1-0.26,1.43
			s-0.42,0.79-0.74,1.11c-0.32,0.31-0.7,0.55-1.15,0.72c-0.45,0.17-0.96,0.25-1.52,0.25h-4.82V966.5z M210.25,971.86
			c0.64,0,1.11-0.11,1.41-0.34c0.31-0.23,0.46-0.62,0.46-1.19v-0.59c0-0.56-0.15-0.96-0.46-1.19c-0.31-0.23-0.78-0.34-1.41-0.34
			h-1.49v3.65H210.25z M210.56,977.36c0.66,0,1.15-0.12,1.48-0.37s0.5-0.67,0.5-1.27v-0.59c0-0.59-0.17-1-0.5-1.25
			s-0.83-0.37-1.48-0.37h-1.8v3.85H210.56z"/>
		<path class="st2" d="M224.85,966.5v9.13c0,0.56-0.1,1.07-0.29,1.52c-0.19,0.45-0.47,0.83-0.82,1.14
			c-0.35,0.31-0.78,0.56-1.28,0.73s-1.05,0.26-1.67,0.26c-1.19,0-2.12-0.3-2.8-0.9c-0.68-0.6-1.11-1.4-1.31-2.39l2.21-0.47
			c0.11,0.53,0.3,0.96,0.58,1.3c0.28,0.34,0.72,0.51,1.3,0.51c0.54,0,0.95-0.16,1.24-0.48s0.43-0.82,0.43-1.5v-6.91h-4.25v-1.94
			H224.85z"/>
		<path class="st2" d="M228.11,979.07V966.5h7.94v1.94h-5.58v3.28h5.38v1.94h-5.38v3.46h5.58v1.94H228.11z"/>
		<path class="st2" d="M243.14,979.28c-1.64,0-2.86-0.56-3.65-1.69c-0.79-1.13-1.18-2.73-1.18-4.81c0-2.06,0.39-3.66,1.18-4.8
			c0.79-1.13,2-1.7,3.65-1.7c0.62,0,1.17,0.08,1.65,0.25c0.47,0.17,0.88,0.39,1.23,0.69c0.35,0.29,0.64,0.64,0.86,1.05
			c0.23,0.41,0.41,0.87,0.54,1.36l-2.16,0.61c-0.08-0.29-0.18-0.56-0.29-0.81s-0.24-0.47-0.41-0.66c-0.16-0.19-0.36-0.33-0.6-0.43
			c-0.24-0.1-0.53-0.15-0.86-0.15c-0.82,0-1.4,0.31-1.75,0.94c-0.35,0.63-0.53,1.48-0.53,2.57v2.17c0,1.08,0.18,1.94,0.53,2.57
			c0.35,0.63,0.94,0.94,1.75,0.94c0.34,0,0.62-0.05,0.86-0.15c0.24-0.1,0.44-0.25,0.6-0.43c0.16-0.19,0.3-0.41,0.41-0.66
			s0.2-0.52,0.29-0.81l2.16,0.61c-0.13,0.49-0.31,0.94-0.54,1.36c-0.23,0.41-0.52,0.76-0.86,1.05c-0.35,0.29-0.76,0.52-1.23,0.69
			C244.31,979.2,243.76,979.28,243.14,979.28z"/>
		<path class="st2" d="M254.78,968.45v10.62h-2.34v-10.62h-3.78v-1.94h9.9v1.94H254.78z"/>
	</g>
</g>
<g>
	<g>
		<path class="st5" d="M383.63,1311.13H80.55c-6.59,0-11.95-5.36-11.95-11.95v-107.91c0-6.59,5.36-11.95,11.95-11.95h303.09
			c6.59,0,11.95,5.36,11.95,11.95v107.91C395.58,1305.77,390.22,1311.13,383.63,1311.13z M80.55,1185.33
			c-3.28,0-5.95,2.67-5.95,5.95v107.91c0,3.28,2.67,5.95,5.95,5.95h303.09c3.28,0,5.95-2.67,5.95-5.95v-107.91
			c0-3.28-2.67-5.95-5.95-5.95H80.55z"/>
	</g>
	<path class="st5" d="M211.89,1237.35H91.45c-3.35,0-6.07-2.72-6.07-6.07v-28.75c0-3.35,2.72-6.07,6.07-6.07h120.44
		c3.35,0,6.07,2.72,6.07,6.07v28.75C217.96,1234.63,215.24,1237.35,211.89,1237.35z"/>
	<circle class="st6" cx="151.67" cy="1216.29" r="8.4"/>
	<path class="st6" d="M103.19,1230.7v-27.59c0-0.32,0.26-0.58,0.58-0.58h4.89c0.32,0,0.58,0.26,0.58,0.58v27.59
		c0,0.32-0.26,0.58-0.58,0.58h-4.89C103.45,1231.28,103.19,1231.02,103.19,1230.7z"/>
	<path class="st6" d="M113.95,1230.7v-27.59c0-0.32,0.26-0.58,0.58-0.58h4.89c0.32,0,0.58,0.26,0.58,0.58v27.59
		c0,0.32-0.26,0.58-0.58,0.58h-4.89C114.21,1231.28,113.95,1231.02,113.95,1230.7z"/>
	<path class="st6" d="M92.43,1230.7v-27.59c0-0.32,0.26-0.58,0.58-0.58h4.89c0.32,0,0.58,0.26,0.58,0.58v27.59
		c0,0.32-0.26,0.58-0.58,0.58h-4.89C92.69,1231.28,92.43,1231.02,92.43,1230.7z"/>
	<path class="st6" d="M194.34,1230.7v-27.59c0-0.32,0.26-0.58,0.58-0.58h4.89c0.32,0,0.58,0.26,0.58,0.58v27.59
		c0,0.32-0.26,0.58-0.58,0.58h-4.89C194.6,1231.28,194.34,1231.02,194.34,1230.7z"/>
	<path class="st6" d="M205.1,1230.7v-27.59c0-0.32,0.26-0.58,0.58-0.58h4.89c0.32,0,0.58,0.26,0.58,0.58v27.59
		c0,0.32-0.26,0.58-0.58,0.58h-4.89C205.36,1231.28,205.1,1231.02,205.1,1230.7z"/>
	<path class="st6" d="M183.58,1230.7v-27.59c0-0.32,0.26-0.58,0.58-0.58h4.89c0.32,0,0.58,0.26,0.58,0.58v27.59
		c0,0.32-0.26,0.58-0.58,0.58h-4.89C183.84,1231.28,183.58,1231.02,183.58,1230.7z"/>
	<g>
		<path class="st5" d="M211.89,1292.43H91.45c-3.35,0-6.07-2.72-6.07-6.07v-28.75c0-3.35,2.72-6.07,6.07-6.07h120.44
			c3.35,0,6.07,2.72,6.07,6.07v28.75C217.96,1289.71,215.24,1292.43,211.89,1292.43z"/>
		<circle class="st6" cx="151.67" cy="1271.37" r="8.4"/>
		<path class="st6" d="M103.19,1285.78v-27.59c0-0.32,0.26-0.58,0.58-0.58h4.89c0.32,0,0.58,0.26,0.58,0.58v27.59
			c0,0.32-0.26,0.58-0.58,0.58h-4.89C103.45,1286.35,103.19,1286.09,103.19,1285.78z"/>
		<path class="st6" d="M113.95,1285.78v-27.59c0-0.32,0.26-0.58,0.58-0.58h4.89c0.32,0,0.58,0.26,0.58,0.58v27.59
			c0,0.32-0.26,0.58-0.58,0.58h-4.89C114.21,1286.35,113.95,1286.09,113.95,1285.78z"/>
		<path class="st6" d="M92.43,1285.78v-27.59c0-0.32,0.26-0.58,0.58-0.58h4.89c0.32,0,0.58,0.26,0.58,0.58v27.59
			c0,0.32-0.26,0.58-0.58,0.58h-4.89C92.69,1286.35,92.43,1286.09,92.43,1285.78z"/>
		<path class="st6" d="M194.34,1285.78v-27.59c0-0.32,0.26-0.58,0.58-0.58h4.89c0.32,0,0.58,0.26,0.58,0.58v27.59
			c0,0.32-0.26,0.58-0.58,0.58h-4.89C194.6,1286.35,194.34,1286.09,194.34,1285.78z"/>
		<path class="st6" d="M205.1,1285.78v-27.59c0-0.32,0.26-0.58,0.58-0.58h4.89c0.32,0,0.58,0.26,0.58,0.58v27.59
			c0,0.32-0.26,0.58-0.58,0.58h-4.89C205.36,1286.35,205.1,1286.09,205.1,1285.78z"/>
		<path class="st6" d="M183.58,1285.78v-27.59c0-0.32,0.26-0.58,0.58-0.58h4.89c0.32,0,0.58,0.26,0.58,0.58v27.59
			c0,0.32-0.26,0.58-0.58,0.58h-4.89C183.84,1286.35,183.58,1286.09,183.58,1285.78z"/>
	</g>
	<path class="st5" d="M372.38,1237.35H251.94c-3.35,0-6.07-2.72-6.07-6.07v-28.75c0-3.35,2.72-6.07,6.07-6.07h120.44
		c3.35,0,6.07,2.72,6.07,6.07v28.75C378.44,1234.63,375.73,1237.35,372.38,1237.35z"/>
	<circle class="st6" cx="312.16" cy="1216.29" r="8.4"/>
	<path class="st6" d="M263.68,1230.7v-27.59c0-0.32,0.26-0.58,0.58-0.58h4.89c0.32,0,0.58,0.26,0.58,0.58v27.59
		c0,0.32-0.26,0.58-0.58,0.58h-4.89C263.94,1231.28,263.68,1231.02,263.68,1230.7z"/>
	<path class="st6" d="M274.44,1230.7v-27.59c0-0.32,0.26-0.58,0.58-0.58h4.89c0.32,0,0.58,0.26,0.58,0.58v27.59
		c0,0.32-0.26,0.58-0.58,0.58h-4.89C274.7,1231.28,274.44,1231.02,274.44,1230.7z"/>
	<path class="st6" d="M252.92,1230.7v-27.59c0-0.32,0.26-0.58,0.58-0.58h4.89c0.32,0,0.58,0.26,0.58,0.58v27.59
		c0,0.32-0.26,0.58-0.58,0.58h-4.89C253.18,1231.28,252.92,1231.02,252.92,1230.7z"/>
	<path class="st6" d="M354.83,1230.7v-27.59c0-0.32,0.26-0.58,0.58-0.58h4.89c0.32,0,0.58,0.26,0.58,0.58v27.59
		c0,0.32-0.26,0.58-0.58,0.58h-4.89C355.09,1231.28,354.83,1231.02,354.83,1230.7z"/>
	<path class="st6" d="M365.59,1230.7v-27.59c0-0.32,0.26-0.58,0.58-0.58h4.89c0.32,0,0.58,0.26,0.58,0.58v27.59
		c0,0.32-0.26,0.58-0.58,0.58h-4.89C365.84,1231.28,365.59,1231.02,365.59,1230.7z"/>
	<path class="st6" d="M344.07,1230.7v-27.59c0-0.32,0.26-0.58,0.58-0.58h4.89c0.32,0,0.58,0.26,0.58,0.58v27.59
		c0,0.32-0.26,0.58-0.58,0.58h-4.89C344.33,1231.28,344.07,1231.02,344.07,1230.7z"/>
	<g>
		<path class="st5" d="M372.38,1292.43H251.94c-3.35,0-6.07-2.72-6.07-6.07v-28.75c0-3.35,2.72-6.07,6.07-6.07h120.44
			c3.35,0,6.07,2.72,6.07,6.07v28.75C378.44,1289.71,375.73,1292.43,372.38,1292.43z"/>
		<circle class="st6" cx="312.16" cy="1271.37" r="8.4"/>
		<path class="st6" d="M263.68,1285.78v-27.59c0-0.32,0.26-0.58,0.58-0.58h4.89c0.32,0,0.58,0.26,0.58,0.58v27.59
			c0,0.32-0.26,0.58-0.58,0.58h-4.89C263.94,1286.35,263.68,1286.09,263.68,1285.78z"/>
		<path class="st6" d="M274.44,1285.78v-27.59c0-0.32,0.26-0.58,0.58-0.58h4.89c0.32,0,0.58,0.26,0.58,0.58v27.59
			c0,0.32-0.26,0.58-0.58,0.58h-4.89C274.7,1286.35,274.44,1286.09,274.44,1285.78z"/>
		<path class="st6" d="M252.92,1285.78v-27.59c0-0.32,0.26-0.58,0.58-0.58h4.89c0.32,0,0.58,0.26,0.58,0.58v27.59
			c0,0.32-0.26,0.58-0.58,0.58h-4.89C253.18,1286.35,252.92,1286.09,252.92,1285.78z"/>
		<path class="st6" d="M354.83,1285.78v-27.59c0-0.32,0.26-0.58,0.58-0.58h4.89c0.32,0,0.58,0.26,0.58,0.58v27.59
			c0,0.32-0.26,0.58-0.58,0.58h-4.89C355.09,1286.35,354.83,1286.09,354.83,1285.78z"/>
		<path class="st6" d="M365.59,1285.78v-27.59c0-0.32,0.26-0.58,0.58-0.58h4.89c0.32,0,0.58,0.26,0.58,0.58v27.59
			c0,0.32-0.26,0.58-0.58,0.58h-4.89C365.84,1286.35,365.59,1286.09,365.59,1285.78z"/>
		<path class="st6" d="M344.07,1285.78v-27.59c0-0.32,0.26-0.58,0.58-0.58h4.89c0.32,0,0.58,0.26,0.58,0.58v27.59
			c0,0.32-0.26,0.58-0.58,0.58h-4.89C344.33,1286.35,344.07,1286.09,344.07,1285.78z"/>
	</g>
</g>
<path class="st10" d="M235.26,1379.09h-3.44v-33.61h3.44c1.19,0,1.78-1.44,0.94-2.29l-4.94-4.96c-0.52-0.52-1.37-0.52-1.89,0
	l-4.94,4.96c-0.84,0.84-0.25,2.29,0.94,2.29h3.68v33.61h-3.68c-1.19,0-1.78,1.44-0.94,2.29l4.94,4.96c0.52,0.52,1.37,0.52,1.89,0
	l4.94-4.96C237.04,1380.54,236.45,1379.09,235.26,1379.09z"/>
<g>
	<g>
		<path class="st5" d="M1225.93,1312.45H922.84c-6.59,0-11.95-5.36-11.95-11.95v-107.91c0-6.59,5.36-11.95,11.95-11.95h303.09
			c6.59,0,11.95,5.36,11.95,11.95v107.91C1237.88,1307.09,1232.52,1312.45,1225.93,1312.45z M922.84,1186.64
			c-3.28,0-5.95,2.67-5.95,5.95v107.91c0,3.28,2.67,5.95,5.95,5.95h303.09c3.28,0,5.95-2.67,5.95-5.95v-107.91
			c0-3.28-2.67-5.95-5.95-5.95H922.84z"/>
	</g>
	<path class="st5" d="M1054.19,1238.66H933.75c-3.35,0-6.07-2.72-6.07-6.07v-28.75c0-3.35,2.72-6.07,6.07-6.07h120.44
		c3.35,0,6.07,2.72,6.07,6.07v28.75C1060.26,1235.95,1057.54,1238.66,1054.19,1238.66z"/>
	<circle class="st6" cx="993.97" cy="1217.61" r="8.4"/>
	<path class="st6" d="M945.49,1232.02v-27.59c0-0.32,0.26-0.58,0.58-0.58h4.89c0.32,0,0.58,0.26,0.58,0.58v27.59
		c0,0.32-0.26,0.58-0.58,0.58h-4.89C945.75,1232.59,945.49,1232.33,945.49,1232.02z"/>
	<path class="st6" d="M956.25,1232.02v-27.59c0-0.32,0.26-0.58,0.58-0.58h4.89c0.32,0,0.58,0.26,0.58,0.58v27.59
		c0,0.32-0.26,0.58-0.58,0.58h-4.89C956.51,1232.59,956.25,1232.33,956.25,1232.02z"/>
	<path class="st6" d="M934.73,1232.02v-27.59c0-0.32,0.26-0.58,0.58-0.58h4.89c0.32,0,0.58,0.26,0.58,0.58v27.59
		c0,0.32-0.26,0.58-0.58,0.58h-4.89C934.99,1232.59,934.73,1232.33,934.73,1232.02z"/>
	<path class="st6" d="M1036.64,1232.02v-27.59c0-0.32,0.26-0.58,0.58-0.58h4.89c0.32,0,0.58,0.26,0.58,0.58v27.59
		c0,0.32-0.26,0.58-0.58,0.58h-4.89C1036.9,1232.59,1036.64,1232.33,1036.64,1232.02z"/>
	<path class="st6" d="M1047.4,1232.02v-27.59c0-0.32,0.26-0.58,0.58-0.58h4.89c0.32,0,0.58,0.26,0.58,0.58v27.59
		c0,0.32-0.26,0.58-0.58,0.58h-4.89C1047.66,1232.59,1047.4,1232.33,1047.4,1232.02z"/>
	<path class="st6" d="M1025.88,1232.02v-27.59c0-0.32,0.26-0.58,0.58-0.58h4.89c0.32,0,0.58,0.26,0.58,0.58v27.59
		c0,0.32-0.26,0.58-0.58,0.58h-4.89C1026.14,1232.59,1025.88,1232.33,1025.88,1232.02z"/>
	<g>
		<path class="st5" d="M1054.19,1293.74H933.75c-3.35,0-6.07-2.72-6.07-6.07v-28.75c0-3.35,2.72-6.07,6.07-6.07h120.44
			c3.35,0,6.07,2.72,6.07,6.07v28.75C1060.26,1291.02,1057.54,1293.74,1054.19,1293.74z"/>
		<circle class="st6" cx="993.97" cy="1272.68" r="8.4"/>
		<path class="st6" d="M945.49,1287.09v-27.59c0-0.32,0.26-0.58,0.58-0.58h4.89c0.32,0,0.58,0.26,0.58,0.58v27.59
			c0,0.32-0.26,0.58-0.58,0.58h-4.89C945.75,1287.67,945.49,1287.41,945.49,1287.09z"/>
		<path class="st6" d="M956.25,1287.09v-27.59c0-0.32,0.26-0.58,0.58-0.58h4.89c0.32,0,0.58,0.26,0.58,0.58v27.59
			c0,0.32-0.26,0.58-0.58,0.58h-4.89C956.51,1287.67,956.25,1287.41,956.25,1287.09z"/>
		<path class="st6" d="M934.73,1287.09v-27.59c0-0.32,0.26-0.58,0.58-0.58h4.89c0.32,0,0.58,0.26,0.58,0.58v27.59
			c0,0.32-0.26,0.58-0.58,0.58h-4.89C934.99,1287.67,934.73,1287.41,934.73,1287.09z"/>
		<path class="st6" d="M1036.64,1287.09v-27.59c0-0.32,0.26-0.58,0.58-0.58h4.89c0.32,0,0.58,0.26,0.58,0.58v27.59
			c0,0.32-0.26,0.58-0.58,0.58h-4.89C1036.9,1287.67,1036.64,1287.41,1036.64,1287.09z"/>
		<path class="st6" d="M1047.4,1287.09v-27.59c0-0.32,0.26-0.58,0.58-0.58h4.89c0.32,0,0.58,0.26,0.58,0.58v27.59
			c0,0.32-0.26,0.58-0.58,0.58h-4.89C1047.66,1287.67,1047.4,1287.41,1047.4,1287.09z"/>
		<path class="st6" d="M1025.88,1287.09v-27.59c0-0.32,0.26-0.58,0.58-0.58h4.89c0.32,0,0.58,0.26,0.58,0.58v27.59
			c0,0.32-0.26,0.58-0.58,0.58h-4.89C1026.14,1287.67,1025.88,1287.41,1025.88,1287.09z"/>
	</g>
	<path class="st5" d="M1214.67,1238.66h-120.44c-3.35,0-6.07-2.72-6.07-6.07v-28.75c0-3.35,2.72-6.07,6.07-6.07h120.44
		c3.35,0,6.07,2.72,6.07,6.07v28.75C1220.74,1235.95,1218.03,1238.66,1214.67,1238.66z"/>
	<circle class="st6" cx="1154.46" cy="1217.61" r="8.4"/>
	<path class="st6" d="M1105.98,1232.02v-27.59c0-0.32,0.26-0.58,0.58-0.58h4.89c0.32,0,0.58,0.26,0.58,0.58v27.59
		c0,0.32-0.26,0.58-0.58,0.58h-4.89C1106.24,1232.59,1105.98,1232.33,1105.98,1232.02z"/>
	<path class="st6" d="M1116.74,1232.02v-27.59c0-0.32,0.26-0.58,0.58-0.58h4.89c0.32,0,0.58,0.26,0.58,0.58v27.59
		c0,0.32-0.26,0.58-0.58,0.58h-4.89C1116.99,1232.59,1116.74,1232.33,1116.74,1232.02z"/>
	<path class="st6" d="M1095.22,1232.02v-27.59c0-0.32,0.26-0.58,0.58-0.58h4.89c0.32,0,0.58,0.26,0.58,0.58v27.59
		c0,0.32-0.26,0.58-0.58,0.58h-4.89C1095.48,1232.59,1095.22,1232.33,1095.22,1232.02z"/>
	<path class="st6" d="M1197.12,1232.02v-27.59c0-0.32,0.26-0.58,0.58-0.58h4.89c0.32,0,0.58,0.26,0.58,0.58v27.59
		c0,0.32-0.26,0.58-0.58,0.58h-4.89C1197.38,1232.59,1197.12,1232.33,1197.12,1232.02z"/>
	<path class="st6" d="M1207.88,1232.02v-27.59c0-0.32,0.26-0.58,0.58-0.58h4.89c0.32,0,0.58,0.26,0.58,0.58v27.59
		c0,0.32-0.26,0.58-0.58,0.58h-4.89C1208.14,1232.59,1207.88,1232.33,1207.88,1232.02z"/>
	<path class="st6" d="M1186.37,1232.02v-27.59c0-0.32,0.26-0.58,0.58-0.58h4.89c0.32,0,0.58,0.26,0.58,0.58v27.59
		c0,0.32-0.26,0.58-0.58,0.58h-4.89C1186.62,1232.59,1186.37,1232.33,1186.37,1232.02z"/>
	<g>
		<path class="st5" d="M1214.67,1293.74h-120.44c-3.35,0-6.07-2.72-6.07-6.07v-28.75c0-3.35,2.72-6.07,6.07-6.07h120.44
			c3.35,0,6.07,2.72,6.07,6.07v28.75C1220.74,1291.02,1218.03,1293.74,1214.67,1293.74z"/>
		<circle class="st6" cx="1154.46" cy="1272.68" r="8.4"/>
		<path class="st6" d="M1105.98,1287.09v-27.59c0-0.32,0.26-0.58,0.58-0.58h4.89c0.32,0,0.58,0.26,0.58,0.58v27.59
			c0,0.32-0.26,0.58-0.58,0.58h-4.89C1106.24,1287.67,1105.98,1287.41,1105.98,1287.09z"/>
		<path class="st6" d="M1116.74,1287.09v-27.59c0-0.32,0.26-0.58,0.58-0.58h4.89c0.32,0,0.58,0.26,0.58,0.58v27.59
			c0,0.32-0.26,0.58-0.58,0.58h-4.89C1116.99,1287.67,1116.74,1287.41,1116.74,1287.09z"/>
		<path class="st6" d="M1095.22,1287.09v-27.59c0-0.32,0.26-0.58,0.58-0.58h4.89c0.32,0,0.58,0.26,0.58,0.58v27.59
			c0,0.32-0.26,0.58-0.58,0.58h-4.89C1095.48,1287.67,1095.22,1287.41,1095.22,1287.09z"/>
		<path class="st6" d="M1197.12,1287.09v-27.59c0-0.32,0.26-0.58,0.58-0.58h4.89c0.32,0,0.58,0.26,0.58,0.58v27.59
			c0,0.32-0.26,0.58-0.58,0.58h-4.89C1197.38,1287.67,1197.12,1287.41,1197.12,1287.09z"/>
		<path class="st6" d="M1207.88,1287.09v-27.59c0-0.32,0.26-0.58,0.58-0.58h4.89c0.32,0,0.58,0.26,0.58,0.58v27.59
			c0,0.32-0.26,0.58-0.58,0.58h-4.89C1208.14,1287.67,1207.88,1287.41,1207.88,1287.09z"/>
		<path class="st6" d="M1186.37,1287.09v-27.59c0-0.32,0.26-0.58,0.58-0.58h4.89c0.32,0,0.58,0.26,0.58,0.58v27.59
			c0,0.32-0.26,0.58-0.58,0.58h-4.89C1186.62,1287.67,1186.37,1287.41,1186.37,1287.09z"/>
	</g>
</g>
<path class="st10" d="M1077.56,1379.49h-3.44v-33.61h3.44c1.19,0,1.78-1.44,0.94-2.29l-4.94-4.96c-0.52-0.52-1.37-0.52-1.89,0
	l-4.94,4.96c-0.84,0.84-0.25,2.29,0.94,2.29h3.68v33.61h-3.68c-1.19,0-1.78,1.44-0.94,2.29l4.94,4.96c0.52,0.52,1.37,0.52,1.89,0
	l4.94-4.96C1079.34,1380.93,1078.75,1379.49,1077.56,1379.49z"/>
<path class="st0" d="M235.26,1083.85h-3.44v-33.61h3.44c1.19,0,1.78-1.44,0.94-2.29l-4.94-4.96c-0.52-0.52-1.37-0.52-1.89,0
	l-4.94,4.96c-0.84,0.84-0.25,2.29,0.94,2.29h3.68v33.61h-3.68c-1.19,0-1.78,1.44-0.94,2.29l4.94,4.96c0.52,0.52,1.37,0.52,1.89,0
	l4.94-4.96C237.04,1085.29,236.45,1083.85,235.26,1083.85z"/>
<path class="st0" d="M1077.56,1084.24h-3.44v-33.61h3.44c1.19,0,1.78-1.44,0.94-2.29l-4.94-4.96c-0.52-0.52-1.37-0.52-1.89,0
	l-4.94,4.96c-0.84,0.84-0.25,2.29,0.94,2.29h3.68v33.61h-3.68c-1.19,0-1.78,1.44-0.94,2.29l4.94,4.96c0.52,0.52,1.37,0.52,1.89,0
	l4.94-4.96C1079.34,1085.69,1078.75,1084.24,1077.56,1084.24z"/>
<linearGradient id="SVGID_00000035493385059292364710000003602142959346831744_" gradientUnits="userSpaceOnUse" x1="227.6648" y1="897.3483" x2="227.6648" y2="1042.9486">
	<stop  offset="0" style="stop-color:#10535A"/>
	<stop  offset="1" style="stop-color:#102E46"/>
</linearGradient>
<path style="fill:url(#SVGID_00000035493385059292364710000003602142959346831744_);" d="M279.64,941.46
	c0.19-7.56,0.46-15.48-0.24-23.01c-0.52-5.64-2.97-10.43-8.56-12.44c-0.79-0.28-1.59-0.51-2.41-0.69c-3.14-0.71-6.45-0.77-9.64-0.86
	c-5.63-0.16-11.26,0.18-16.88,0.15c-11.28-0.05-22.55,0.16-33.83,0.2c-1.35,0.01-2.71,0.01-4.06,0.01c-6.75,0-13.51,0-20.26,0
	c-4.56,0-8.28,3.71-8.28,8.28v105.93c0,4.56,3.71,8.28,8.28,8.28h87.62c4.56,0,8.28-3.71,8.28-8.28c0-5.64,0-11.28,0-16.92
	c0-11.95,0-23.91,0-35.86C279.65,957.99,279.44,949.7,279.64,941.46z M269.6,1011.54c0,3.95-3.2,7.15-7.15,7.15h-71.22
	c-3.95,0-7.15-3.2-7.15-7.15v-90.97c0-3.95,3.2-7.15,7.15-7.15h47.78v12.22c0,9.99,8.13,18.12,18.12,18.12h12.46V1011.54z
	 M269.6,935.86h-12.46c-5.64,0-10.22-4.59-10.22-10.22v-12.22h15.53c3.95,0,7.15,3.2,7.15,7.15V935.86z"/>
<rect x="1026.41" y="910.78" class="st8" width="93.68" height="110.14"/>
<g>
	<g>
		<path class="st2" d="M1045.57,980.16c-0.82,0-1.52-0.15-2.12-0.44c-0.6-0.29-1.09-0.72-1.48-1.27c-0.39-0.55-0.68-1.23-0.86-2.03
			c-0.19-0.8-0.28-1.72-0.28-2.75c0-1.02,0.09-1.93,0.28-2.75c0.19-0.81,0.47-1.49,0.86-2.04c0.39-0.55,0.88-0.97,1.48-1.27
			c0.6-0.29,1.31-0.44,2.12-0.44c1.63,0,2.83,0.57,3.6,1.71c0.77,1.14,1.15,2.74,1.15,4.79s-0.38,3.65-1.15,4.79
			C1048.4,979.59,1047.2,980.16,1045.57,980.16z M1045.57,978.25c0.42,0,0.77-0.08,1.06-0.24c0.29-0.16,0.52-0.39,0.69-0.7
			s0.3-0.67,0.38-1.11c0.08-0.44,0.12-0.93,0.12-1.47v-2.15c0-1.08-0.17-1.94-0.5-2.57c-0.33-0.63-0.92-0.94-1.75-0.94
			s-1.42,0.31-1.75,0.94c-0.33,0.63-0.5,1.48-0.5,2.57v2.17c0,1.08,0.17,1.94,0.5,2.57
			C1044.14,977.94,1044.73,978.25,1045.57,978.25z"/>
		<path class="st2" d="M1052.41,967.38h4.37c1.19,0,2.1,0.3,2.75,0.89c0.64,0.59,0.96,1.4,0.96,2.42c0,0.72-0.18,1.3-0.53,1.73
			c-0.35,0.43-0.86,0.74-1.5,0.94v0.09c0.76,0.18,1.35,0.51,1.79,0.98c0.44,0.47,0.66,1.14,0.66,2.01c0,0.53-0.09,1-0.26,1.43
			s-0.42,0.79-0.74,1.11c-0.32,0.31-0.7,0.55-1.15,0.72c-0.45,0.17-0.96,0.25-1.52,0.25h-4.82V967.38z M1056.2,972.74
			c0.64,0,1.11-0.11,1.41-0.34c0.31-0.23,0.46-0.62,0.46-1.19v-0.59c0-0.56-0.15-0.96-0.46-1.19c-0.31-0.23-0.78-0.34-1.41-0.34
			h-1.49v3.65H1056.2z M1056.51,978.23c0.66,0,1.15-0.12,1.48-0.37s0.5-0.67,0.5-1.27V976c0-0.59-0.17-1-0.5-1.25
			s-0.83-0.37-1.48-0.37h-1.8v3.85H1056.51z"/>
		<path class="st2" d="M1070.8,967.38v9.13c0,0.56-0.1,1.07-0.29,1.52c-0.19,0.45-0.47,0.83-0.82,1.14
			c-0.35,0.31-0.78,0.56-1.28,0.73s-1.05,0.26-1.67,0.26c-1.19,0-2.12-0.3-2.8-0.9c-0.68-0.6-1.11-1.4-1.3-2.39l2.21-0.47
			c0.11,0.53,0.3,0.96,0.58,1.3s0.72,0.51,1.3,0.51c0.54,0,0.95-0.16,1.24-0.48s0.43-0.82,0.43-1.5v-6.91h-4.25v-1.94H1070.8z"/>
		<path class="st2" d="M1074.06,979.94v-12.56h7.94v1.94h-5.58v3.28h5.38v1.94h-5.38V978h5.58v1.94H1074.06z"/>
		<path class="st2" d="M1089.09,980.16c-1.64,0-2.86-0.56-3.64-1.69c-0.79-1.13-1.18-2.73-1.18-4.81c0-2.06,0.39-3.66,1.18-4.8
			c0.79-1.13,2-1.7,3.64-1.7c0.62,0,1.17,0.08,1.65,0.25c0.47,0.17,0.88,0.39,1.23,0.69c0.35,0.29,0.64,0.64,0.86,1.05
			c0.23,0.41,0.41,0.87,0.54,1.36l-2.16,0.61c-0.08-0.29-0.18-0.56-0.29-0.81c-0.11-0.25-0.24-0.47-0.41-0.66
			c-0.16-0.19-0.36-0.33-0.6-0.43c-0.24-0.1-0.53-0.15-0.86-0.15c-0.82,0-1.4,0.31-1.75,0.94c-0.35,0.63-0.53,1.48-0.53,2.57v2.17
			c0,1.08,0.18,1.94,0.53,2.57c0.35,0.63,0.94,0.94,1.75,0.94c0.34,0,0.62-0.05,0.86-0.15c0.24-0.1,0.44-0.25,0.6-0.43
			c0.16-0.19,0.3-0.41,0.41-0.66c0.11-0.25,0.2-0.52,0.29-0.81l2.16,0.61c-0.13,0.49-0.31,0.94-0.54,1.36
			c-0.23,0.41-0.52,0.76-0.86,1.05c-0.35,0.29-0.76,0.52-1.23,0.69C1090.26,980.07,1089.71,980.16,1089.09,980.16z"/>
		<path class="st2" d="M1100.73,969.32v10.62h-2.34v-10.62h-3.78v-1.94h9.9v1.94H1100.73z"/>
	</g>
</g>
<linearGradient id="SVGID_00000149381208679576471060000017695145630766878390_" gradientUnits="userSpaceOnUse" x1="1073.6152" y1="904.0143" x2="1073.6152" y2="1031.2213">
	<stop  offset="0" style="stop-color:#10535A"/>
	<stop  offset="1" style="stop-color:#102E46"/>
</linearGradient>
<path style="fill:url(#SVGID_00000149381208679576471060000017695145630766878390_);" d="M1125.59,942.34
	c0.19-7.56,0.46-15.48-0.24-23.01c-0.52-5.64-2.97-10.43-8.56-12.44c-0.79-0.28-1.59-0.51-2.41-0.69c-3.14-0.71-6.45-0.77-9.64-0.86
	c-5.63-0.16-11.26,0.18-16.88,0.15c-11.28-0.05-22.55,0.16-33.83,0.2c-1.35,0.01-2.71,0.01-4.06,0.01c-6.75,0-13.51,0-20.26,0
	c-4.56,0-8.28,3.71-8.28,8.28v105.93c0,4.56,3.71,8.28,8.28,8.28h87.62c4.56,0,8.28-3.71,8.28-8.28c0-5.64,0-11.28,0-16.92
	c0-11.95,0-23.91,0-35.86C1125.6,958.87,1125.39,950.58,1125.59,942.34z M1115.55,1012.41c0,3.95-3.2,7.15-7.15,7.15h-71.22
	c-3.95,0-7.15-3.2-7.15-7.15v-90.97c0-3.95,3.2-7.15,7.15-7.15h47.78v12.22c0,9.99,8.13,18.12,18.12,18.12h12.46V1012.41z
	 M1115.55,936.74h-12.46c-5.64,0-10.22-4.59-10.22-10.22v-12.22h15.53c3.95,0,7.15,3.2,7.15,7.15V936.74z"/>
<path class="st3" d="M383.49,1160.42H76.86c-4.94,0-8.95-4.01-8.95-8.95v-37.52c0-4.94,4.01-8.95,8.95-8.95h306.63
	c4.94,0,8.95,4.01,8.95,8.95v37.52C392.43,1156.41,388.43,1160.42,383.49,1160.42z"/>
<g>
	<path class="st2" d="M95.87,1124.55h1.29v4.98h0.07c0.09-0.2,0.19-0.4,0.32-0.59c0.13-0.19,0.29-0.35,0.48-0.49
		c0.19-0.14,0.41-0.25,0.67-0.34c0.26-0.09,0.56-0.13,0.91-0.13c0.87,0,1.57,0.28,2.1,0.83c0.53,0.56,0.79,1.34,0.79,2.35v5.35
		h-1.29v-5.13c0-0.77-0.17-1.33-0.5-1.71s-0.83-0.56-1.47-0.56c-0.26,0-0.51,0.03-0.76,0.1c-0.25,0.06-0.47,0.16-0.66,0.29
		s-0.35,0.3-0.47,0.5c-0.12,0.21-0.18,0.44-0.18,0.71v5.79h-1.29V1124.55z"/>
	<path class="st2" d="M109.25,1136.52c-0.64,0-1.1-0.18-1.4-0.53c-0.3-0.35-0.44-0.81-0.44-1.37v-5.33h-2.78v-1.12h2.07
		c0.28,0,0.48-0.06,0.59-0.17s0.17-0.31,0.17-0.59v-2.18h1.25v2.94h3.8v1.12h-3.8v6.11h3.8v1.12H109.25z"/>
	<path class="st2" d="M118.96,1136.52c-0.64,0-1.1-0.18-1.4-0.53c-0.3-0.35-0.45-0.81-0.45-1.37v-5.33h-2.78v-1.12h2.07
		c0.28,0,0.48-0.06,0.59-0.17s0.17-0.31,0.17-0.59v-2.18h1.25v2.94h3.8v1.12h-3.8v6.11h3.8v1.12H118.96z"/>
	<path class="st2" d="M124.94,1128.18h1.29v1.36h0.06c0.54-1.04,1.4-1.55,2.57-1.55c1.02,0,1.83,0.38,2.4,1.15s0.87,1.84,0.87,3.22
		c0,1.38-0.29,2.45-0.87,3.22c-0.58,0.77-1.38,1.15-2.4,1.15c-1.18,0-2.03-0.52-2.57-1.55h-0.06v4.59h-1.29V1128.18z
		 M128.37,1135.57c0.75,0,1.34-0.23,1.75-0.69c0.42-0.46,0.62-1.06,0.62-1.82v-1.42c0-0.75-0.21-1.36-0.62-1.82s-1-0.69-1.75-0.69
		c-0.29,0-0.57,0.04-0.83,0.11c-0.26,0.08-0.49,0.19-0.68,0.33s-0.35,0.32-0.46,0.53s-0.17,0.46-0.17,0.74v3.01
		c0,0.28,0.06,0.53,0.17,0.74s0.27,0.39,0.46,0.53s0.42,0.26,0.68,0.33C127.81,1135.53,128.08,1135.57,128.37,1135.57z"/>
	<path class="st2" d="M138.06,1136.72c-0.87,0-1.63-0.15-2.26-0.45c-0.63-0.3-1.17-0.69-1.61-1.19l0.87-0.76
		c0.4,0.42,0.83,0.74,1.31,0.97s1.05,0.34,1.71,0.34c0.65,0,1.18-0.12,1.59-0.35s0.62-0.6,0.62-1.09c0-0.22-0.04-0.4-0.12-0.54
		c-0.08-0.15-0.19-0.26-0.33-0.35c-0.14-0.09-0.3-0.15-0.47-0.2c-0.17-0.05-0.36-0.09-0.55-0.12l-1.31-0.19
		c-0.29-0.04-0.61-0.1-0.95-0.18c-0.34-0.08-0.65-0.2-0.93-0.36c-0.28-0.17-0.52-0.39-0.7-0.67c-0.19-0.28-0.28-0.65-0.28-1.1
		c0-0.42,0.08-0.78,0.25-1.09c0.17-0.31,0.4-0.57,0.7-0.78s0.66-0.37,1.07-0.47s0.86-0.15,1.34-0.15c0.75,0,1.41,0.12,1.97,0.36
		c0.55,0.24,1.03,0.57,1.43,0.99l-0.84,0.79c-0.1-0.12-0.22-0.24-0.36-0.36c-0.15-0.12-0.32-0.24-0.53-0.34
		c-0.21-0.1-0.46-0.19-0.74-0.25c-0.28-0.06-0.6-0.1-0.97-0.1c-0.66,0-1.16,0.11-1.51,0.34s-0.53,0.56-0.53,0.99
		c0,0.22,0.04,0.4,0.12,0.54c0.08,0.15,0.19,0.26,0.33,0.35c0.14,0.09,0.3,0.15,0.48,0.2c0.18,0.05,0.36,0.09,0.54,0.12l1.31,0.19
		c0.3,0.04,0.62,0.1,0.96,0.18c0.33,0.08,0.64,0.2,0.92,0.36c0.28,0.17,0.51,0.39,0.7,0.67s0.28,0.65,0.28,1.1
		c0,0.83-0.32,1.47-0.96,1.92S139.13,1136.72,138.06,1136.72z"/>
	<path class="st2" d="M147.67,1130.26c-0.44,0-0.75-0.09-0.93-0.27c-0.18-0.18-0.27-0.42-0.27-0.7V1129c0-0.28,0.09-0.51,0.27-0.7
		c0.18-0.18,0.49-0.27,0.93-0.27s0.75,0.09,0.93,0.27c0.18,0.18,0.27,0.42,0.27,0.7v0.29c0,0.28-0.09,0.51-0.27,0.7
		C148.42,1130.17,148.11,1130.26,147.67,1130.26z M147.67,1136.67c-0.44,0-0.75-0.09-0.93-0.27s-0.27-0.42-0.27-0.7v-0.29
		c0-0.28,0.09-0.51,0.27-0.7c0.18-0.18,0.49-0.27,0.93-0.27s0.75,0.09,0.93,0.27c0.18,0.18,0.27,0.42,0.27,0.7v0.29
		c0,0.28-0.09,0.51-0.27,0.7S148.11,1136.67,147.67,1136.67z"/>
	<path class="st2" d="M153.98,1138.75l5.63-14.53h1.17l-5.63,14.53H153.98z"/>
	<path class="st2" d="M163.69,1138.75l5.63-14.53h1.17l-5.63,14.53H163.69z"/>
	<path class="st2" d="M172.81,1136.52v-8.35h1.2v0.97h0.06c0.13-0.32,0.31-0.6,0.55-0.83s0.59-0.34,1.05-0.34
		c0.49,0,0.85,0.12,1.08,0.36c0.24,0.24,0.38,0.56,0.44,0.95h0.05c0.15-0.38,0.37-0.69,0.65-0.94c0.28-0.25,0.67-0.37,1.17-0.37
		c0.68,0,1.13,0.24,1.37,0.71c0.23,0.47,0.35,1.15,0.35,2.04v5.79h-1.2v-5.58c0-0.71-0.07-1.21-0.22-1.48s-0.41-0.41-0.8-0.41
		c-0.34,0-0.62,0.11-0.84,0.33c-0.22,0.22-0.32,0.56-0.32,1.01v6.13h-1.2v-5.58c0-0.71-0.07-1.21-0.22-1.48s-0.41-0.41-0.78-0.41
		c-0.35,0-0.63,0.11-0.85,0.33c-0.22,0.22-0.33,0.56-0.33,1.01v6.13H172.81z"/>
	<path class="st2" d="M183.36,1135.41h3.01v-6.11h-3.01v-1.12h4.3v7.23h2.82v1.12h-7.12V1135.41z M187.01,1126.33
		c-0.38,0-0.64-0.08-0.79-0.23s-0.23-0.35-0.23-0.59v-0.26c0-0.24,0.08-0.43,0.23-0.59c0.15-0.16,0.42-0.23,0.79-0.23
		c0.38,0,0.64,0.08,0.79,0.23c0.15,0.16,0.23,0.35,0.23,0.59v0.26c0,0.24-0.08,0.43-0.23,0.59
		C187.66,1126.25,187.39,1126.33,187.01,1126.33z"/>
	<path class="st2" d="M192.93,1136.52v-8.35h1.29v1.36h0.06c0.09-0.2,0.19-0.4,0.32-0.59c0.13-0.19,0.29-0.35,0.48-0.49
		s0.41-0.25,0.67-0.34c0.26-0.09,0.56-0.13,0.91-0.13c0.87,0,1.57,0.28,2.1,0.83c0.53,0.56,0.79,1.34,0.79,2.35v5.35h-1.29v-5.13
		c0-0.77-0.17-1.33-0.5-1.71c-0.33-0.37-0.83-0.56-1.47-0.56c-0.26,0-0.51,0.03-0.76,0.1c-0.25,0.06-0.47,0.16-0.66,0.29
		c-0.19,0.13-0.35,0.3-0.47,0.5c-0.12,0.21-0.18,0.44-0.18,0.71v5.79H192.93z"/>
	<path class="st2" d="M202.77,1135.41h3.01v-6.11h-3.01v-1.12h4.3v7.23h2.81v1.12h-7.12V1135.41z M206.42,1126.33
		c-0.38,0-0.64-0.08-0.79-0.23c-0.15-0.16-0.23-0.35-0.23-0.59v-0.26c0-0.24,0.08-0.43,0.23-0.59c0.15-0.16,0.42-0.23,0.79-0.23
		c0.38,0,0.64,0.08,0.79,0.23c0.15,0.16,0.23,0.35,0.23,0.59v0.26c0,0.24-0.08,0.43-0.23,0.59S206.8,1126.33,206.42,1126.33z"/>
	<path class="st2" d="M215.61,1136.72c-0.58,0-1.11-0.1-1.58-0.31c-0.47-0.2-0.87-0.5-1.2-0.88s-0.58-0.84-0.75-1.38
		c-0.17-0.53-0.26-1.13-0.26-1.8c0-0.66,0.09-1.26,0.26-1.8c0.17-0.54,0.42-1,0.75-1.38c0.33-0.38,0.73-0.68,1.2-0.88
		c0.47-0.2,1-0.31,1.58-0.31c0.58,0,1.11,0.1,1.58,0.31c0.47,0.21,0.87,0.5,1.2,0.88c0.33,0.38,0.58,0.84,0.75,1.38
		c0.17,0.54,0.26,1.14,0.26,1.8c0,0.67-0.09,1.27-0.26,1.8c-0.17,0.53-0.42,0.99-0.75,1.38s-0.73,0.68-1.2,0.88
		C216.72,1136.61,216.2,1136.72,215.61,1136.72z M215.61,1135.6c0.72,0,1.3-0.22,1.75-0.65c0.44-0.43,0.66-1.1,0.66-2.01v-1.2
		c0-0.91-0.22-1.57-0.66-2.01c-0.44-0.43-1.02-0.65-1.75-0.65s-1.3,0.22-1.75,0.65c-0.44,0.43-0.66,1.1-0.66,2.01v1.2
		c0,0.91,0.22,1.57,0.66,2.01C214.31,1135.38,214.89,1135.6,215.61,1135.6z"/>
	<path class="st2" d="M222.97,1132.28v-1.36h4.69v1.36H222.97z"/>
	<path class="st2" d="M235.03,1136.72c-0.69,0-1.28-0.13-1.78-0.4c-0.5-0.26-0.91-0.64-1.23-1.14c-0.32-0.5-0.56-1.1-0.71-1.83
		c-0.15-0.72-0.23-1.55-0.23-2.48c0-0.92,0.08-1.74,0.23-2.47c0.15-0.73,0.39-1.34,0.71-1.84c0.32-0.5,0.73-0.88,1.23-1.14
		c0.5-0.26,1.09-0.4,1.78-0.4c0.69,0,1.28,0.13,1.78,0.4c0.5,0.26,0.91,0.64,1.23,1.14s0.56,1.11,0.71,1.84
		c0.15,0.73,0.23,1.55,0.23,2.47c0,0.93-0.08,1.75-0.23,2.48c-0.15,0.72-0.39,1.33-0.71,1.83c-0.32,0.5-0.73,0.88-1.23,1.14
		S235.71,1136.72,235.03,1136.72z M235.03,1135.54c0.45,0,0.84-0.09,1.16-0.27c0.32-0.18,0.58-0.43,0.79-0.75
		c0.2-0.32,0.35-0.71,0.44-1.17c0.1-0.46,0.15-0.97,0.15-1.54v-1.84c0-0.56-0.05-1.07-0.15-1.54c-0.1-0.46-0.25-0.86-0.44-1.18
		c-0.2-0.32-0.46-0.57-0.79-0.75c-0.32-0.18-0.71-0.27-1.16-0.27s-0.84,0.09-1.17,0.27c-0.32,0.18-0.58,0.43-0.78,0.75
		c-0.2,0.32-0.35,0.72-0.45,1.18c-0.1,0.46-0.15,0.98-0.15,1.54v1.84c0,0.57,0.05,1.09,0.15,1.54c0.1,0.46,0.25,0.85,0.45,1.17
		c0.2,0.32,0.46,0.57,0.78,0.75C234.18,1135.45,234.57,1135.54,235.03,1135.54z M235.03,1131.83c-0.38,0-0.64-0.08-0.79-0.23
		c-0.15-0.15-0.22-0.33-0.22-0.55v-0.36c0-0.22,0.07-0.4,0.22-0.55s0.41-0.23,0.79-0.23c0.38,0,0.64,0.08,0.78,0.23
		s0.22,0.33,0.22,0.55v0.36c0,0.22-0.07,0.4-0.22,0.55C235.66,1131.76,235.4,1131.83,235.03,1131.83z"/>
	<path class="st2" d="M248.57,1136.52h-7.54v-1.39l3.77-3.4c0.55-0.5,1-1.01,1.36-1.53c0.36-0.52,0.53-1.08,0.53-1.66v-0.19
		c0-0.68-0.18-1.21-0.53-1.58c-0.36-0.37-0.88-0.56-1.58-0.56c-0.69,0-1.22,0.18-1.59,0.53s-0.65,0.82-0.83,1.4l-1.21-0.45
		c0.11-0.33,0.26-0.66,0.45-0.98c0.19-0.32,0.43-0.6,0.72-0.85c0.29-0.25,0.64-0.45,1.06-0.6c0.42-0.15,0.9-0.23,1.45-0.23
		c0.56,0,1.06,0.08,1.5,0.24c0.44,0.16,0.8,0.39,1.1,0.68s0.52,0.64,0.68,1.04c0.16,0.4,0.23,0.84,0.23,1.31
		c0,0.43-0.06,0.84-0.19,1.21s-0.3,0.74-0.52,1.08c-0.22,0.35-0.49,0.68-0.79,1.01c-0.31,0.33-0.65,0.66-1.03,0.98l-3.15,2.75h6.13
		V1136.52z"/>
	<path class="st2" d="M254.44,1136.67c-0.44,0-0.75-0.09-0.93-0.27s-0.27-0.42-0.27-0.7v-0.29c0-0.28,0.09-0.51,0.27-0.7
		c0.18-0.18,0.49-0.27,0.93-0.27s0.75,0.09,0.93,0.27c0.18,0.18,0.27,0.42,0.27,0.7v0.29c0,0.28-0.09,0.51-0.27,0.7
		S254.88,1136.67,254.44,1136.67z"/>
	<path class="st2" d="M264.29,1136.72c-0.6,0-1.15-0.1-1.62-0.31c-0.48-0.2-0.89-0.5-1.23-0.88c-0.34-0.38-0.6-0.84-0.79-1.38
		c-0.18-0.53-0.27-1.13-0.27-1.79c0-0.67,0.09-1.27,0.28-1.81c0.19-0.54,0.45-1,0.79-1.38c0.33-0.38,0.74-0.68,1.21-0.88
		c0.47-0.2,0.99-0.31,1.56-0.31c0.56,0,1.07,0.1,1.53,0.31c0.46,0.21,0.85,0.49,1.17,0.85s0.57,0.79,0.74,1.29
		c0.17,0.5,0.26,1.04,0.26,1.63v0.61h-6.18v0.39c0,0.37,0.06,0.71,0.18,1.02c0.12,0.31,0.29,0.58,0.51,0.81s0.49,0.4,0.81,0.53
		s0.67,0.19,1.06,0.19c0.56,0,1.05-0.13,1.46-0.39c0.41-0.26,0.72-0.61,0.94-1.07l0.95,0.65c-0.25,0.56-0.66,1.02-1.24,1.38
		C265.82,1136.54,265.12,1136.72,264.29,1136.72z M264.21,1129.05c-0.36,0-0.69,0.06-0.99,0.19c-0.3,0.13-0.56,0.31-0.78,0.53
		c-0.22,0.23-0.39,0.49-0.52,0.8c-0.12,0.31-0.19,0.64-0.19,1.01v0.11h4.79v-0.18c0-0.37-0.06-0.7-0.17-1s-0.27-0.56-0.47-0.78
		c-0.2-0.22-0.44-0.39-0.73-0.51C264.87,1129.11,264.55,1129.05,264.21,1129.05z"/>
	<path class="st2" d="M269.98,1136.52l3.11-4.24l-3.03-4.11h1.55l1.26,1.76l1,1.39h0.07l0.97-1.39l1.25-1.76h1.49l-3.06,4.09
		l3.14,4.25h-1.55l-1.41-1.96l-0.95-1.33h-0.06l-0.92,1.33l-1.36,1.96H269.98z"/>
	<path class="st2" d="M286.71,1136.52c-0.51,0-0.87-0.13-1.08-0.39s-0.35-0.58-0.4-0.97h-0.08c-0.18,0.49-0.48,0.87-0.88,1.14
		s-0.95,0.41-1.62,0.41c-0.87,0-1.57-0.23-2.09-0.68s-0.78-1.07-0.78-1.86c0-0.78,0.28-1.38,0.85-1.8c0.57-0.42,1.48-0.63,2.74-0.63
		h1.78v-0.82c0-0.61-0.17-1.07-0.52-1.37c-0.35-0.31-0.84-0.46-1.47-0.46c-0.56,0-1.02,0.11-1.38,0.33
		c-0.36,0.22-0.64,0.52-0.86,0.9l-0.87-0.65c0.11-0.22,0.25-0.43,0.44-0.63c0.18-0.21,0.41-0.39,0.68-0.55
		c0.27-0.16,0.58-0.28,0.92-0.38c0.35-0.09,0.73-0.14,1.15-0.14c0.98,0,1.76,0.25,2.34,0.75s0.87,1.19,0.87,2.07v4.6h1.17v1.12
		H286.71z M282.86,1135.63c0.33,0,0.64-0.04,0.91-0.12c0.28-0.08,0.52-0.19,0.72-0.32c0.2-0.13,0.36-0.3,0.48-0.49
		c0.11-0.19,0.17-0.39,0.17-0.61v-1.38h-1.78c-0.78,0-1.34,0.11-1.7,0.32c-0.36,0.22-0.53,0.53-0.53,0.94v0.34
		c0,0.43,0.15,0.76,0.46,0.98S282.32,1135.63,282.86,1135.63z"/>
	<path class="st2" d="M289.28,1136.52v-8.35h1.2v0.97h0.06c0.13-0.32,0.31-0.6,0.55-0.83s0.59-0.34,1.05-0.34
		c0.49,0,0.85,0.12,1.08,0.36c0.24,0.24,0.38,0.56,0.44,0.95h0.05c0.15-0.38,0.37-0.69,0.65-0.94c0.28-0.25,0.67-0.37,1.17-0.37
		c0.68,0,1.13,0.24,1.37,0.71c0.23,0.47,0.35,1.15,0.35,2.04v5.79h-1.2v-5.58c0-0.71-0.07-1.21-0.22-1.48s-0.41-0.41-0.8-0.41
		c-0.34,0-0.62,0.11-0.84,0.33c-0.22,0.22-0.32,0.56-0.32,1.01v6.13h-1.2v-5.58c0-0.71-0.07-1.21-0.22-1.48s-0.41-0.41-0.78-0.41
		c-0.35,0-0.63,0.11-0.85,0.33c-0.22,0.22-0.33,0.56-0.33,1.01v6.13H289.28z"/>
	<path class="st2" d="M299.65,1128.18h1.29v1.36h0.06c0.54-1.04,1.4-1.55,2.57-1.55c1.02,0,1.83,0.38,2.4,1.15s0.87,1.84,0.87,3.22
		c0,1.38-0.29,2.45-0.87,3.22c-0.58,0.77-1.38,1.15-2.4,1.15c-1.18,0-2.03-0.52-2.57-1.55h-0.06v4.59h-1.29V1128.18z
		 M303.08,1135.57c0.75,0,1.34-0.23,1.75-0.69c0.42-0.46,0.62-1.06,0.62-1.82v-1.42c0-0.75-0.21-1.36-0.62-1.82s-1-0.69-1.75-0.69
		c-0.29,0-0.57,0.04-0.83,0.11c-0.26,0.08-0.49,0.19-0.68,0.33s-0.35,0.32-0.46,0.53s-0.17,0.46-0.17,0.74v3.01
		c0,0.28,0.06,0.53,0.17,0.74s0.27,0.39,0.46,0.53s0.42,0.26,0.68,0.33C302.51,1135.53,302.79,1135.57,303.08,1135.57z"/>
	<path class="st2" d="M309.11,1135.41h2.91v-9.74h-2.91v-1.12h4.21v10.85h2.91v1.12h-7.12V1135.41z"/>
	<path class="st2" d="M322.52,1136.72c-0.6,0-1.15-0.1-1.62-0.31c-0.48-0.2-0.89-0.5-1.23-0.88c-0.34-0.38-0.6-0.84-0.79-1.38
		c-0.18-0.53-0.27-1.13-0.27-1.79c0-0.67,0.09-1.27,0.28-1.81c0.19-0.54,0.45-1,0.79-1.38c0.33-0.38,0.74-0.68,1.21-0.88
		c0.47-0.2,0.99-0.31,1.56-0.31c0.56,0,1.07,0.1,1.53,0.31c0.46,0.21,0.85,0.49,1.17,0.85s0.57,0.79,0.74,1.29
		c0.17,0.5,0.26,1.04,0.26,1.63v0.61h-6.18v0.39c0,0.37,0.06,0.71,0.18,1.02c0.12,0.31,0.29,0.58,0.51,0.81s0.49,0.4,0.81,0.53
		s0.67,0.19,1.06,0.19c0.56,0,1.05-0.13,1.46-0.39c0.41-0.26,0.72-0.61,0.94-1.07l0.95,0.65c-0.25,0.56-0.66,1.02-1.24,1.38
		C324.06,1136.54,323.35,1136.72,322.52,1136.72z M322.44,1129.05c-0.36,0-0.69,0.06-0.99,0.19c-0.3,0.13-0.56,0.31-0.78,0.53
		c-0.22,0.23-0.39,0.49-0.52,0.8c-0.12,0.31-0.19,0.64-0.19,1.01v0.11h4.79v-0.18c0-0.37-0.06-0.7-0.17-1s-0.27-0.56-0.47-0.78
		c-0.2-0.22-0.44-0.39-0.73-0.51C323.1,1129.11,322.79,1129.05,322.44,1129.05z"/>
	<path class="st2" d="M332.08,1136.67c-0.44,0-0.75-0.09-0.93-0.27s-0.27-0.42-0.27-0.7v-0.29c0-0.28,0.09-0.51,0.27-0.7
		c0.18-0.18,0.49-0.27,0.93-0.27s0.75,0.09,0.93,0.27c0.18,0.18,0.27,0.42,0.27,0.7v0.29c0,0.28-0.09,0.51-0.27,0.7
		S332.53,1136.67,332.08,1136.67z"/>
	<path class="st2" d="M338.52,1136.52v-8.35h1.29v1.36h0.06c0.09-0.2,0.19-0.4,0.32-0.59c0.13-0.19,0.29-0.35,0.48-0.49
		s0.41-0.25,0.67-0.34c0.26-0.09,0.56-0.13,0.91-0.13c0.87,0,1.57,0.28,2.1,0.83c0.53,0.56,0.79,1.34,0.79,2.35v5.35h-1.29v-5.13
		c0-0.77-0.17-1.33-0.5-1.71c-0.33-0.37-0.83-0.56-1.47-0.56c-0.26,0-0.51,0.03-0.76,0.1c-0.25,0.06-0.47,0.16-0.66,0.29
		c-0.19,0.13-0.35,0.3-0.47,0.5c-0.12,0.21-0.18,0.44-0.18,0.71v5.79H338.52z"/>
	<path class="st2" d="M351.64,1136.72c-0.6,0-1.15-0.1-1.63-0.31s-0.89-0.5-1.23-0.88s-0.6-0.84-0.78-1.38
		c-0.18-0.53-0.28-1.13-0.28-1.79c0-0.67,0.09-1.27,0.28-1.81c0.19-0.54,0.45-1,0.78-1.38c0.33-0.38,0.74-0.68,1.21-0.88
		c0.47-0.2,0.99-0.31,1.56-0.31c0.56,0,1.07,0.1,1.53,0.31c0.46,0.21,0.85,0.49,1.17,0.85c0.32,0.36,0.57,0.79,0.74,1.29
		c0.17,0.5,0.26,1.04,0.26,1.63v0.61h-6.18v0.39c0,0.37,0.06,0.71,0.18,1.02c0.12,0.31,0.29,0.58,0.51,0.81
		c0.22,0.23,0.49,0.4,0.81,0.53c0.32,0.12,0.67,0.19,1.06,0.19c0.56,0,1.05-0.13,1.46-0.39c0.41-0.26,0.72-0.61,0.94-1.07l0.96,0.65
		c-0.25,0.56-0.66,1.02-1.24,1.38C353.18,1136.54,352.47,1136.72,351.64,1136.72z M351.56,1129.05c-0.36,0-0.68,0.06-0.99,0.19
		c-0.3,0.13-0.56,0.31-0.79,0.53s-0.39,0.49-0.52,0.8c-0.12,0.31-0.19,0.64-0.19,1.01v0.11h4.79v-0.18c0-0.37-0.06-0.7-0.17-1
		s-0.27-0.56-0.47-0.78c-0.2-0.22-0.44-0.39-0.73-0.51C352.22,1129.11,351.91,1129.05,351.56,1129.05z"/>
	<path class="st2" d="M361.61,1136.52c-0.64,0-1.1-0.18-1.4-0.53c-0.3-0.35-0.45-0.81-0.45-1.37v-5.33h-2.78v-1.12h2.07
		c0.28,0,0.48-0.06,0.59-0.17s0.17-0.31,0.17-0.59v-2.18h1.25v2.94h3.8v1.12h-3.8v6.11h3.8v1.12H361.61z"/>
</g>
<path class="st3" d="M1228.77,1158.58H922.13c-4.94,0-8.95-4.01-8.95-8.95v-37.52c0-4.94,4.01-8.95,8.95-8.95h306.63
	c4.94,0,8.95,4.01,8.95,8.95v37.52C1237.71,1154.57,1233.71,1158.58,1228.77,1158.58z"/>
<g>
	<path class="st2" d="M941.15,1124.45h1.29v4.98h0.06c0.09-0.21,0.19-0.4,0.32-0.59s0.29-0.35,0.48-0.49
		c0.19-0.14,0.41-0.25,0.67-0.34c0.26-0.09,0.56-0.13,0.91-0.13c0.87,0,1.57,0.28,2.1,0.83c0.53,0.55,0.79,1.34,0.79,2.35v5.35
		h-1.29v-5.13c0-0.77-0.17-1.33-0.5-1.71c-0.33-0.37-0.83-0.56-1.47-0.56c-0.26,0-0.51,0.03-0.76,0.1
		c-0.25,0.06-0.47,0.16-0.66,0.29c-0.19,0.13-0.35,0.3-0.47,0.5c-0.12,0.21-0.18,0.44-0.18,0.71v5.79h-1.29V1124.45z"/>
	<path class="st2" d="M954.53,1136.42c-0.64,0-1.1-0.18-1.4-0.53c-0.3-0.35-0.44-0.81-0.44-1.37v-5.33h-2.78v-1.12h2.07
		c0.28,0,0.48-0.06,0.59-0.17s0.17-0.31,0.17-0.59v-2.18h1.25v2.94h3.8v1.12h-3.8v6.12h3.8v1.12H954.53z"/>
	<path class="st2" d="M964.24,1136.42c-0.64,0-1.1-0.18-1.4-0.53c-0.3-0.35-0.44-0.81-0.44-1.37v-5.33h-2.78v-1.12h2.07
		c0.28,0,0.48-0.06,0.59-0.17s0.17-0.31,0.17-0.59v-2.18h1.25v2.94h3.8v1.12h-3.8v6.12h3.8v1.12H964.24z"/>
	<path class="st2" d="M970.22,1128.07h1.29v1.36h0.06c0.54-1.04,1.4-1.55,2.57-1.55c1.02,0,1.83,0.38,2.4,1.15
		c0.58,0.77,0.87,1.84,0.87,3.22c0,1.38-0.29,2.45-0.87,3.22c-0.58,0.77-1.38,1.15-2.4,1.15c-1.18,0-2.03-0.52-2.57-1.55h-0.06v4.59
		h-1.29V1128.07z M973.65,1135.46c0.75,0,1.34-0.23,1.75-0.69c0.42-0.46,0.62-1.06,0.62-1.82v-1.42c0-0.75-0.21-1.36-0.62-1.82
		c-0.42-0.46-1-0.69-1.75-0.69c-0.29,0-0.57,0.04-0.83,0.11c-0.26,0.08-0.49,0.19-0.68,0.33c-0.19,0.15-0.35,0.32-0.46,0.53
		c-0.11,0.21-0.17,0.46-0.17,0.74v3.01c0,0.28,0.06,0.53,0.17,0.74c0.11,0.21,0.27,0.39,0.46,0.53c0.19,0.15,0.42,0.26,0.68,0.33
		C973.09,1135.42,973.36,1135.46,973.65,1135.46z"/>
	<path class="st2" d="M983.34,1136.61c-0.87,0-1.63-0.15-2.26-0.45s-1.17-0.69-1.61-1.19l0.87-0.76c0.4,0.42,0.84,0.74,1.31,0.97
		s1.05,0.34,1.71,0.34c0.65,0,1.18-0.12,1.59-0.35c0.42-0.23,0.62-0.6,0.62-1.09c0-0.21-0.04-0.4-0.12-0.54
		c-0.08-0.15-0.19-0.26-0.33-0.35c-0.14-0.09-0.3-0.15-0.47-0.2c-0.17-0.05-0.36-0.09-0.55-0.12l-1.31-0.19
		c-0.29-0.04-0.61-0.1-0.95-0.18c-0.34-0.08-0.65-0.2-0.93-0.36c-0.28-0.17-0.52-0.39-0.7-0.67s-0.28-0.65-0.28-1.1
		c0-0.42,0.08-0.78,0.25-1.09c0.17-0.31,0.4-0.57,0.7-0.78c0.3-0.21,0.66-0.37,1.07-0.47c0.41-0.1,0.86-0.15,1.34-0.15
		c0.75,0,1.41,0.12,1.97,0.36c0.56,0.24,1.03,0.57,1.43,0.99l-0.84,0.79c-0.1-0.12-0.22-0.24-0.36-0.36
		c-0.15-0.12-0.32-0.24-0.53-0.34c-0.21-0.1-0.46-0.19-0.74-0.25c-0.28-0.07-0.6-0.1-0.97-0.1c-0.66,0-1.16,0.11-1.51,0.34
		s-0.53,0.56-0.53,0.99c0,0.22,0.04,0.4,0.12,0.54c0.08,0.15,0.19,0.26,0.33,0.35c0.14,0.09,0.3,0.15,0.48,0.2
		c0.18,0.05,0.36,0.09,0.54,0.12l1.31,0.19c0.3,0.04,0.62,0.1,0.95,0.18c0.33,0.08,0.64,0.2,0.92,0.36s0.52,0.39,0.7,0.67
		s0.28,0.65,0.28,1.1c0,0.83-0.32,1.47-0.96,1.92S984.41,1136.61,983.34,1136.61z"/>
	<path class="st2" d="M992.95,1130.16c-0.44,0-0.75-0.09-0.93-0.27c-0.18-0.18-0.27-0.42-0.27-0.7v-0.29c0-0.28,0.09-0.51,0.27-0.7
		s0.49-0.28,0.93-0.28c0.44,0,0.75,0.09,0.93,0.28s0.27,0.42,0.27,0.7v0.29c0,0.28-0.09,0.51-0.27,0.7
		C993.7,1130.06,993.39,1130.16,992.95,1130.16z M992.95,1136.56c-0.44,0-0.75-0.09-0.93-0.28c-0.18-0.18-0.27-0.42-0.27-0.7v-0.29
		c0-0.28,0.09-0.51,0.27-0.7c0.18-0.18,0.49-0.27,0.93-0.27c0.44,0,0.75,0.09,0.93,0.27c0.18,0.18,0.27,0.42,0.27,0.7v0.29
		c0,0.28-0.09,0.51-0.27,0.7C993.7,1136.47,993.39,1136.56,992.95,1136.56z"/>
	<path class="st2" d="M999.26,1138.65l5.63-14.53h1.16l-5.63,14.53H999.26z"/>
	<path class="st2" d="M1008.97,1138.65l5.63-14.53h1.16l-5.63,14.53H1008.97z"/>
	<path class="st2" d="M1018.09,1136.42v-8.35h1.2v0.97h0.06c0.13-0.32,0.31-0.6,0.55-0.83c0.24-0.23,0.59-0.34,1.05-0.34
		c0.49,0,0.85,0.12,1.08,0.36c0.24,0.24,0.38,0.56,0.44,0.95h0.05c0.15-0.38,0.37-0.69,0.65-0.94c0.28-0.25,0.67-0.37,1.16-0.37
		c0.68,0,1.13,0.24,1.37,0.71c0.23,0.47,0.35,1.15,0.35,2.04v5.79h-1.2v-5.58c0-0.71-0.07-1.21-0.22-1.48
		c-0.15-0.27-0.41-0.41-0.8-0.41c-0.35,0-0.63,0.11-0.84,0.33c-0.22,0.22-0.32,0.56-0.32,1.01v6.13h-1.2v-5.58
		c0-0.71-0.07-1.21-0.22-1.48c-0.15-0.27-0.41-0.41-0.78-0.41c-0.35,0-0.63,0.11-0.85,0.33c-0.22,0.22-0.33,0.56-0.33,1.01v6.13
		H1018.09z"/>
	<path class="st2" d="M1028.64,1135.3h3.01v-6.12h-3.01v-1.12h4.3v7.23h2.81v1.12h-7.12V1135.3z M1032.29,1126.22
		c-0.38,0-0.64-0.08-0.79-0.23c-0.15-0.16-0.23-0.35-0.23-0.59v-0.26c0-0.24,0.08-0.43,0.23-0.59c0.15-0.16,0.42-0.23,0.79-0.23
		s0.64,0.08,0.79,0.23c0.15,0.16,0.23,0.35,0.23,0.59v0.26c0,0.24-0.08,0.43-0.23,0.59
		C1032.93,1126.15,1032.67,1126.22,1032.29,1126.22z"/>
	<path class="st2" d="M1038.21,1136.42v-8.35h1.29v1.36h0.06c0.09-0.21,0.19-0.4,0.32-0.59s0.29-0.35,0.48-0.49
		c0.19-0.14,0.41-0.25,0.67-0.34c0.26-0.09,0.56-0.13,0.91-0.13c0.87,0,1.57,0.28,2.1,0.83c0.53,0.55,0.79,1.34,0.79,2.35v5.35
		h-1.29v-5.13c0-0.77-0.17-1.33-0.5-1.71c-0.33-0.37-0.83-0.56-1.47-0.56c-0.26,0-0.51,0.03-0.76,0.1
		c-0.25,0.06-0.47,0.16-0.66,0.29c-0.19,0.13-0.35,0.3-0.47,0.5c-0.12,0.21-0.18,0.44-0.18,0.71v5.79H1038.21z"/>
	<path class="st2" d="M1048.05,1135.3h3.01v-6.12h-3.01v-1.12h4.3v7.23h2.81v1.12h-7.12V1135.3z M1051.7,1126.22
		c-0.38,0-0.64-0.08-0.79-0.23c-0.15-0.16-0.23-0.35-0.23-0.59v-0.26c0-0.24,0.08-0.43,0.23-0.59c0.15-0.16,0.42-0.23,0.79-0.23
		s0.64,0.08,0.79,0.23c0.15,0.16,0.23,0.35,0.23,0.59v0.26c0,0.24-0.08,0.43-0.23,0.59
		C1052.34,1126.15,1052.08,1126.22,1051.7,1126.22z"/>
	<path class="st2" d="M1060.89,1136.61c-0.58,0-1.11-0.1-1.58-0.31c-0.47-0.21-0.87-0.5-1.2-0.88s-0.58-0.84-0.75-1.38
		c-0.17-0.53-0.26-1.13-0.26-1.8c0-0.66,0.09-1.26,0.26-1.8c0.17-0.54,0.42-1,0.75-1.38s0.73-0.68,1.2-0.88
		c0.47-0.2,0.99-0.31,1.58-0.31s1.11,0.1,1.58,0.31c0.47,0.21,0.87,0.5,1.2,0.88c0.33,0.38,0.58,0.84,0.75,1.38
		c0.17,0.54,0.26,1.14,0.26,1.8c0,0.67-0.09,1.27-0.26,1.8s-0.42,0.99-0.75,1.38c-0.33,0.38-0.73,0.68-1.2,0.88
		C1062,1136.51,1061.47,1136.61,1060.89,1136.61z M1060.89,1135.49c0.72,0,1.3-0.22,1.75-0.65c0.44-0.43,0.66-1.1,0.66-2.01v-1.2
		c0-0.91-0.22-1.57-0.66-2.01c-0.44-0.43-1.02-0.65-1.75-0.65c-0.72,0-1.31,0.22-1.75,0.65c-0.44,0.43-0.66,1.1-0.66,2.01v1.2
		c0,0.91,0.22,1.57,0.66,2.01C1059.59,1135.28,1060.17,1135.49,1060.89,1135.49z"/>
	<path class="st2" d="M1068.25,1132.18v-1.36h4.69v1.36H1068.25z"/>
	<path class="st2" d="M1080.3,1136.61c-0.69,0-1.28-0.13-1.78-0.4c-0.5-0.26-0.91-0.64-1.23-1.14c-0.32-0.5-0.56-1.11-0.71-1.83
		s-0.23-1.55-0.23-2.47c0-0.92,0.08-1.74,0.23-2.47c0.15-0.73,0.39-1.34,0.71-1.84c0.32-0.5,0.73-0.88,1.23-1.14
		c0.5-0.26,1.09-0.4,1.78-0.4c0.69,0,1.28,0.13,1.78,0.4c0.5,0.26,0.91,0.64,1.23,1.14c0.32,0.5,0.56,1.11,0.71,1.84
		c0.15,0.73,0.23,1.55,0.23,2.47c0,0.93-0.08,1.75-0.23,2.47c-0.15,0.72-0.39,1.33-0.71,1.83c-0.32,0.5-0.73,0.88-1.23,1.14
		C1081.59,1136.48,1080.99,1136.61,1080.3,1136.61z M1080.3,1135.43c0.45,0,0.84-0.09,1.16-0.27c0.32-0.18,0.58-0.43,0.78-0.75
		c0.2-0.32,0.35-0.71,0.44-1.17c0.1-0.46,0.15-0.97,0.15-1.54v-1.84c0-0.56-0.05-1.07-0.15-1.54s-0.25-0.86-0.44-1.18
		c-0.2-0.32-0.46-0.57-0.78-0.75c-0.32-0.18-0.71-0.27-1.16-0.27s-0.84,0.09-1.16,0.27c-0.32,0.18-0.59,0.43-0.78,0.75
		c-0.2,0.32-0.35,0.72-0.44,1.18s-0.15,0.98-0.15,1.54v1.84c0,0.57,0.05,1.09,0.15,1.54c0.1,0.46,0.25,0.85,0.44,1.17
		c0.2,0.32,0.46,0.57,0.78,0.75C1079.46,1135.34,1079.85,1135.43,1080.3,1135.43z M1080.3,1131.72c-0.38,0-0.64-0.08-0.78-0.23
		s-0.22-0.33-0.22-0.55v-0.36c0-0.21,0.07-0.4,0.22-0.55c0.15-0.15,0.41-0.23,0.78-0.23s0.64,0.08,0.78,0.23
		c0.15,0.15,0.22,0.33,0.22,0.55v0.36c0,0.22-0.07,0.4-0.22,0.55S1080.68,1131.72,1080.3,1131.72z"/>
	<path class="st2" d="M1089.52,1129.9c0.79,0,1.38-0.17,1.77-0.52c0.39-0.35,0.59-0.8,0.59-1.34v-0.11c0-0.6-0.19-1.05-0.57-1.35
		s-0.88-0.45-1.5-0.45c-0.6,0-1.09,0.13-1.46,0.4c-0.37,0.26-0.68,0.61-0.91,1.04l-1.02-0.78c0.14-0.23,0.31-0.45,0.52-0.67
		c0.21-0.22,0.44-0.42,0.72-0.59c0.27-0.17,0.59-0.31,0.95-0.42c0.36-0.11,0.77-0.16,1.24-0.16c0.49,0,0.94,0.06,1.36,0.19
		c0.42,0.12,0.79,0.31,1.1,0.55c0.31,0.24,0.56,0.54,0.74,0.9c0.18,0.36,0.27,0.76,0.27,1.21c0,0.37-0.06,0.69-0.17,0.99
		s-0.27,0.54-0.47,0.76c-0.2,0.22-0.43,0.4-0.7,0.55c-0.27,0.15-0.56,0.26-0.86,0.34v0.06c0.31,0.07,0.61,0.17,0.91,0.32
		s0.55,0.33,0.78,0.57c0.23,0.23,0.41,0.51,0.54,0.84s0.2,0.71,0.2,1.13c0,0.49-0.09,0.93-0.28,1.34c-0.19,0.4-0.45,0.75-0.79,1.04
		s-0.75,0.51-1.23,0.67c-0.48,0.16-1.01,0.24-1.59,0.24c-0.5,0-0.94-0.05-1.32-0.16s-0.72-0.25-1.02-0.44
		c-0.3-0.18-0.56-0.39-0.78-0.62c-0.22-0.23-0.42-0.46-0.59-0.71l1.02-0.78c0.15,0.23,0.31,0.43,0.47,0.62s0.35,0.34,0.56,0.48
		c0.21,0.14,0.45,0.24,0.72,0.32c0.27,0.08,0.58,0.11,0.94,0.11c0.8,0,1.41-0.18,1.84-0.55c0.43-0.37,0.64-0.89,0.64-1.57v-0.13
		c0-0.67-0.21-1.19-0.62-1.55c-0.42-0.37-1.04-0.55-1.87-0.55h-1.34v-1.18H1089.52z"/>
	<path class="st2" d="M1099.72,1136.56c-0.44,0-0.75-0.09-0.93-0.28c-0.18-0.18-0.27-0.42-0.27-0.7v-0.29c0-0.28,0.09-0.51,0.27-0.7
		c0.18-0.18,0.49-0.27,0.93-0.27c0.44,0,0.75,0.09,0.93,0.27c0.18,0.18,0.27,0.42,0.27,0.7v0.29c0,0.28-0.09,0.51-0.27,0.7
		C1100.47,1136.47,1100.16,1136.56,1099.72,1136.56z"/>
	<path class="st2" d="M1109.57,1136.61c-0.6,0-1.15-0.1-1.63-0.31c-0.48-0.21-0.89-0.5-1.23-0.88c-0.34-0.38-0.6-0.84-0.78-1.38
		c-0.18-0.53-0.27-1.13-0.27-1.79c0-0.67,0.09-1.27,0.28-1.81c0.19-0.54,0.45-1,0.78-1.38s0.74-0.68,1.21-0.88
		c0.47-0.2,0.99-0.31,1.56-0.31c0.56,0,1.07,0.1,1.53,0.31c0.46,0.21,0.85,0.49,1.17,0.85c0.32,0.36,0.57,0.79,0.74,1.29
		s0.26,1.04,0.26,1.63v0.61h-6.18v0.39c0,0.37,0.06,0.71,0.18,1.02c0.12,0.31,0.29,0.58,0.51,0.81c0.22,0.23,0.49,0.4,0.81,0.53
		c0.32,0.12,0.67,0.19,1.06,0.19c0.56,0,1.05-0.13,1.46-0.39c0.41-0.26,0.72-0.61,0.94-1.07l0.95,0.65
		c-0.25,0.56-0.66,1.02-1.24,1.38C1111.1,1136.43,1110.4,1136.61,1109.57,1136.61z M1109.49,1128.94c-0.36,0-0.69,0.06-0.99,0.19
		c-0.3,0.13-0.56,0.31-0.78,0.53c-0.22,0.23-0.39,0.49-0.52,0.8c-0.12,0.31-0.19,0.64-0.19,1.01v0.11h4.79v-0.18
		c0-0.37-0.06-0.7-0.17-1s-0.27-0.56-0.47-0.78c-0.2-0.22-0.44-0.39-0.73-0.51C1110.15,1129,1109.83,1128.94,1109.49,1128.94z"/>
	<path class="st2" d="M1115.26,1136.42l3.11-4.24l-3.02-4.11h1.55l1.26,1.76l1,1.39h0.06l0.97-1.39l1.25-1.76h1.49l-3.06,4.09
		l3.14,4.25h-1.55l-1.41-1.96l-0.95-1.33h-0.06l-0.92,1.33l-1.36,1.96H1115.26z"/>
	<path class="st2" d="M1131.99,1136.42c-0.51,0-0.87-0.13-1.08-0.39c-0.22-0.26-0.35-0.58-0.4-0.97h-0.08
		c-0.18,0.49-0.48,0.87-0.88,1.14c-0.4,0.28-0.95,0.41-1.63,0.41c-0.87,0-1.57-0.23-2.09-0.68s-0.78-1.07-0.78-1.86
		c0-0.78,0.28-1.38,0.85-1.8c0.57-0.42,1.48-0.63,2.74-0.63h1.78v-0.82c0-0.61-0.17-1.07-0.52-1.37c-0.35-0.31-0.84-0.46-1.47-0.46
		c-0.56,0-1.02,0.11-1.38,0.33s-0.64,0.52-0.86,0.9l-0.87-0.65c0.11-0.22,0.25-0.43,0.44-0.63s0.41-0.39,0.68-0.55
		c0.27-0.16,0.58-0.28,0.92-0.38c0.35-0.09,0.73-0.14,1.15-0.14c0.98,0,1.76,0.25,2.34,0.75c0.58,0.5,0.87,1.19,0.87,2.08v4.6h1.16
		v1.12H1131.99z M1128.14,1135.53c0.33,0,0.64-0.04,0.91-0.12c0.27-0.08,0.52-0.19,0.72-0.32c0.2-0.13,0.36-0.3,0.48-0.49
		c0.11-0.19,0.17-0.39,0.17-0.61v-1.38h-1.78c-0.78,0-1.34,0.11-1.7,0.32c-0.36,0.22-0.53,0.53-0.53,0.94v0.34
		c0,0.43,0.15,0.76,0.46,0.98C1127.17,1135.42,1127.6,1135.53,1128.14,1135.53z"/>
	<path class="st2" d="M1134.56,1136.42v-8.35h1.2v0.97h0.06c0.13-0.32,0.31-0.6,0.55-0.83c0.24-0.23,0.59-0.34,1.05-0.34
		c0.49,0,0.85,0.12,1.08,0.36c0.24,0.24,0.38,0.56,0.44,0.95h0.05c0.15-0.38,0.37-0.69,0.65-0.94c0.28-0.25,0.67-0.37,1.16-0.37
		c0.68,0,1.13,0.24,1.37,0.71c0.23,0.47,0.35,1.15,0.35,2.04v5.79h-1.2v-5.58c0-0.71-0.07-1.21-0.22-1.48
		c-0.15-0.27-0.41-0.41-0.8-0.41c-0.35,0-0.63,0.11-0.84,0.33c-0.22,0.22-0.32,0.56-0.32,1.01v6.13h-1.2v-5.58
		c0-0.71-0.07-1.21-0.22-1.48c-0.15-0.27-0.41-0.41-0.78-0.41c-0.35,0-0.63,0.11-0.85,0.33c-0.22,0.22-0.33,0.56-0.33,1.01v6.13
		H1134.56z"/>
	<path class="st2" d="M1144.93,1128.07h1.29v1.36h0.06c0.54-1.04,1.4-1.55,2.57-1.55c1.02,0,1.83,0.38,2.4,1.15
		c0.58,0.77,0.87,1.84,0.87,3.22c0,1.38-0.29,2.45-0.87,3.22c-0.58,0.77-1.38,1.15-2.4,1.15c-1.18,0-2.03-0.52-2.57-1.55h-0.06v4.59
		h-1.29V1128.07z M1148.36,1135.46c0.75,0,1.34-0.23,1.75-0.69c0.42-0.46,0.62-1.06,0.62-1.82v-1.42c0-0.75-0.21-1.36-0.62-1.82
		c-0.42-0.46-1-0.69-1.75-0.69c-0.29,0-0.57,0.04-0.83,0.11c-0.26,0.08-0.49,0.19-0.68,0.33c-0.19,0.15-0.35,0.32-0.46,0.53
		c-0.11,0.21-0.17,0.46-0.17,0.74v3.01c0,0.28,0.06,0.53,0.17,0.74c0.11,0.21,0.27,0.39,0.46,0.53c0.19,0.15,0.42,0.26,0.68,0.33
		C1147.79,1135.42,1148.07,1135.46,1148.36,1135.46z"/>
	<path class="st2" d="M1154.39,1135.3h2.91v-9.74h-2.91v-1.12h4.21v10.85h2.91v1.12h-7.12V1135.3z"/>
	<path class="st2" d="M1167.8,1136.61c-0.6,0-1.15-0.1-1.63-0.31c-0.48-0.21-0.89-0.5-1.23-0.88c-0.34-0.38-0.6-0.84-0.78-1.38
		c-0.18-0.53-0.27-1.13-0.27-1.79c0-0.67,0.09-1.27,0.28-1.81c0.19-0.54,0.45-1,0.78-1.38s0.74-0.68,1.21-0.88
		c0.47-0.2,0.99-0.31,1.56-0.31c0.56,0,1.07,0.1,1.53,0.31c0.46,0.21,0.85,0.49,1.17,0.85c0.32,0.36,0.57,0.79,0.74,1.29
		s0.26,1.04,0.26,1.63v0.61h-6.18v0.39c0,0.37,0.06,0.71,0.18,1.02c0.12,0.31,0.29,0.58,0.51,0.81c0.22,0.23,0.49,0.4,0.81,0.53
		c0.32,0.12,0.67,0.19,1.06,0.19c0.56,0,1.05-0.13,1.46-0.39c0.41-0.26,0.72-0.61,0.94-1.07l0.95,0.65
		c-0.25,0.56-0.66,1.02-1.24,1.38C1169.34,1136.43,1168.63,1136.61,1167.8,1136.61z M1167.72,1128.94c-0.36,0-0.69,0.06-0.99,0.19
		c-0.3,0.13-0.56,0.31-0.78,0.53c-0.22,0.23-0.39,0.49-0.52,0.8c-0.12,0.31-0.19,0.64-0.19,1.01v0.11h4.79v-0.18
		c0-0.37-0.06-0.7-0.17-1s-0.27-0.56-0.47-0.78c-0.2-0.22-0.44-0.39-0.73-0.51C1168.38,1129,1168.07,1128.94,1167.72,1128.94z"/>
	<path class="st2" d="M1177.36,1136.56c-0.44,0-0.75-0.09-0.93-0.28c-0.18-0.18-0.27-0.42-0.27-0.7v-0.29c0-0.28,0.09-0.51,0.27-0.7
		c0.18-0.18,0.49-0.27,0.93-0.27c0.44,0,0.75,0.09,0.93,0.27c0.18,0.18,0.27,0.42,0.27,0.7v0.29c0,0.28-0.09,0.51-0.27,0.7
		C1178.11,1136.47,1177.8,1136.56,1177.36,1136.56z"/>
	<path class="st2" d="M1183.8,1136.42v-8.35h1.29v1.36h0.06c0.09-0.21,0.19-0.4,0.32-0.59s0.29-0.35,0.48-0.49
		c0.19-0.14,0.41-0.25,0.67-0.34c0.26-0.09,0.56-0.13,0.91-0.13c0.87,0,1.57,0.28,2.1,0.83c0.53,0.55,0.79,1.34,0.79,2.35v5.35
		h-1.29v-5.13c0-0.77-0.17-1.33-0.5-1.71c-0.33-0.37-0.83-0.56-1.47-0.56c-0.26,0-0.51,0.03-0.76,0.1
		c-0.25,0.06-0.47,0.16-0.66,0.29c-0.19,0.13-0.35,0.3-0.47,0.5c-0.12,0.21-0.18,0.44-0.18,0.71v5.79H1183.8z"/>
	<path class="st2" d="M1196.92,1136.61c-0.6,0-1.15-0.1-1.63-0.31c-0.48-0.21-0.89-0.5-1.23-0.88c-0.34-0.38-0.6-0.84-0.78-1.38
		c-0.18-0.53-0.27-1.13-0.27-1.79c0-0.67,0.09-1.27,0.28-1.81c0.19-0.54,0.45-1,0.78-1.38s0.74-0.68,1.21-0.88
		c0.47-0.2,0.99-0.31,1.56-0.31c0.56,0,1.07,0.1,1.53,0.31c0.46,0.21,0.85,0.49,1.17,0.85c0.32,0.36,0.57,0.79,0.74,1.29
		s0.26,1.04,0.26,1.63v0.61h-6.18v0.39c0,0.37,0.06,0.71,0.18,1.02c0.12,0.31,0.29,0.58,0.51,0.81c0.22,0.23,0.49,0.4,0.81,0.53
		c0.32,0.12,0.67,0.19,1.06,0.19c0.56,0,1.05-0.13,1.46-0.39c0.41-0.26,0.72-0.61,0.94-1.07l0.95,0.65
		c-0.25,0.56-0.66,1.02-1.24,1.38C1198.45,1136.43,1197.75,1136.61,1196.92,1136.61z M1196.84,1128.94c-0.36,0-0.69,0.06-0.99,0.19
		c-0.3,0.13-0.56,0.31-0.78,0.53c-0.22,0.23-0.39,0.49-0.52,0.8c-0.12,0.31-0.19,0.64-0.19,1.01v0.11h4.79v-0.18
		c0-0.37-0.06-0.7-0.17-1s-0.27-0.56-0.47-0.78c-0.2-0.22-0.44-0.39-0.73-0.51C1197.5,1129,1197.18,1128.94,1196.84,1128.94z"/>
	<path class="st2" d="M1206.88,1136.42c-0.64,0-1.1-0.18-1.4-0.53c-0.3-0.35-0.44-0.81-0.44-1.37v-5.33h-2.78v-1.12h2.07
		c0.28,0,0.48-0.06,0.59-0.17s0.17-0.31,0.17-0.59v-2.18h1.25v2.94h3.8v1.12h-3.8v6.12h3.8v1.12H1206.88z"/>
</g>
<path class="st0" d="M816.42,837.66l4.96,4.94c0.84,0.84,2.29,0.25,2.29-0.94v-2.24h247.94l0,65.17h3l0-68.17H823.67v-1.21v-3.44
	c0-1.19-1.44-1.78-2.29-0.94l-4.96,4.94C815.9,836.29,815.9,837.14,816.42,837.66z"/>
<path class="st0" d="M482.36,837.66l-4.96,4.94c-0.84,0.84-2.29,0.25-2.29-0.94v-2.24H227.17l0,65.17h-3l0-68.17h250.94v-1.21v-3.44
	c0-1.19,1.44-1.78,2.29-0.94l4.96,4.94C482.88,836.29,482.88,837.14,482.36,837.66z"/>
<rect x="485" y="1441.06" class="st13" width="326.56" height="119"/>
<g>
	<g>
		<g>
			<path class="st2" d="M560.53,1474.39l-1.07,1.03c-0.89-1.08-2.25-1.75-3.82-1.75c-2.83,0-4.99,2.05-4.99,5.09
				s2.16,5.09,4.92,5.09c2.66,0,4.31-1.58,4.54-4.17h-3.93v-1.35h5.49c0.01,0.13,0.02,0.25,0.02,0.37c0,3.67-2.32,6.54-6.12,6.54
				c-3.31,0-6.45-2.39-6.45-6.47c0-3.79,2.79-6.48,6.51-6.48C557.64,1472.28,559.38,1473.07,560.53,1474.39z"/>
			<path class="st2" d="M569.8,1476.65l-0.32,1.32c-0.41-0.22-0.98-0.34-1.48-0.34c-1.33,0-2.29,1.04-2.29,2.66v4.77h-1.34v-8.53
				h1.33v1.2c0.59-0.87,1.49-1.37,2.53-1.37C568.85,1476.37,569.35,1476.45,569.8,1476.65z"/>
			<path class="st2" d="M579.07,1480.77c0,0.17-0.01,0.35-0.03,0.5h-6.83c0.19,1.84,1.48,2.78,3.02,2.78c1.05,0,1.97-0.41,2.7-1.07
				l0.72,0.92c-1.06,1.02-2.25,1.33-3.5,1.33c-2.52,0-4.31-1.79-4.31-4.43c0-2.61,1.8-4.44,4.23-4.44
				C577.38,1476.37,579.05,1478.17,579.07,1480.77z M572.23,1480.18h5.47c-0.17-1.59-1.21-2.62-2.66-2.62
				C573.46,1477.56,572.45,1478.64,572.23,1480.18z"/>
			<path class="st2" d="M589.16,1480.77c0,0.17-0.01,0.35-0.03,0.5h-6.83c0.19,1.84,1.48,2.78,3.02,2.78c1.05,0,1.97-0.41,2.7-1.07
				l0.72,0.92c-1.06,1.02-2.25,1.33-3.5,1.33c-2.52,0-4.31-1.79-4.31-4.43c0-2.61,1.8-4.44,4.23-4.44
				C587.47,1476.37,589.14,1478.17,589.16,1480.77z M582.32,1480.18h5.47c-0.17-1.59-1.22-2.62-2.67-2.62
				C583.55,1477.56,582.54,1478.64,582.32,1480.18z"/>
			<path class="st2" d="M599.42,1479.78v5.28h-1.34v-4.84c0-1.62-0.9-2.58-2.46-2.58c-1.43,0-2.61,0.99-2.61,2.61v4.81h-1.35v-8.53
				h1.33v1.22c0.69-1.02,1.83-1.39,2.87-1.39C597.97,1476.37,599.42,1477.72,599.42,1479.78z"/>
			<path class="st2" d="M648.66,1479.25h-7.83v-1.22h7.83V1479.25z M648.66,1482.58h-7.83v-1.22h7.83V1482.58z"/>
			<path class="st2" d="M658.89,1480.45v4.61h-2.51v-12.6h5.14c3.01,0,4.61,1.57,4.61,4.01c0,2.42-1.6,3.99-4.59,3.99H658.89z
				 M658.89,1474.77v3.38h2.58c1.37,0,2.08-0.56,2.08-1.69c0-1.12-0.71-1.69-2.08-1.69H658.89z"/>
			<path class="st2" d="M678.98,1480.03c0,3.48-2.22,5.26-5.43,5.26c-3.2,0-5.43-1.77-5.43-5.26v-7.57h2.52v7.45
				c0,2.07,1.17,2.98,2.91,2.98s2.91-0.91,2.91-2.98v-7.45h2.52V1480.03z"/>
			<path class="st2" d="M690.88,1474.81h-3.91v10.25h-2.51v-10.25h-3.91v-2.35h10.33V1474.81z"/>
			<path class="st2" d="M554.75,1493.46c2.65,0,4.56,0.93,4.56,3.32c0,1.42-0.76,2.39-1.9,2.79c1.26,0.41,2.17,1.42,2.17,2.99
				c0,2.45-1.8,3.5-4.59,3.5h-5.11v-12.6H554.75z M551.32,1494.82v4.18h3.38c1.74,0,3.08-0.42,3.08-2.11c0-1.65-1.35-2.07-3.09-2.07
				H551.32z M551.32,1500.34v4.36h3.6c1.89,0,3.13-0.5,3.13-2.19c0-1.67-1.24-2.17-3.13-2.17H551.32z"/>
			<path class="st2" d="M563.59,1506.06h-1.35v-12.96h1.35V1506.06z"/>
			<path class="st2" d="M574.38,1502.51c0,2.53-1.82,3.73-3.87,3.73c-2.06,0-3.87-1.2-3.87-3.73v-4.97h1.34v4.84
				c0,1.76,1.07,2.59,2.53,2.59s2.52-0.83,2.52-2.59v-4.84h1.35V1502.51z"/>
			<path class="st2" d="M585.02,1501.77c0,0.17-0.01,0.35-0.03,0.5h-6.83c0.19,1.84,1.48,2.78,3.02,2.78c1.05,0,1.97-0.41,2.7-1.07
				l0.72,0.92c-1.06,1.02-2.25,1.33-3.5,1.33c-2.52,0-4.31-1.79-4.31-4.43c0-2.61,1.8-4.44,4.23-4.44
				C583.33,1497.37,585,1499.17,585.02,1501.77z M578.18,1501.18h5.47c-0.17-1.59-1.21-2.62-2.67-2.62
				C579.41,1498.56,578.4,1499.64,578.18,1501.18z"/>
			<path class="st2" d="M648.13,1500.25h-7.83v-1.22h7.83V1500.25z M648.13,1503.58h-7.83v-1.22h7.83V1503.58z"/>
			<path class="st2" d="M661.18,1493.46c3.01,0,4.62,1.42,4.62,3.83c0,2.07-1.44,3.48-3.86,3.72l3.88,5.05h-3.04l-3.67-5.01h-0.74
				v5.01h-2.51v-12.6H661.18z M658.36,1495.77v3.09h2.77c1.37,0,2.08-0.5,2.08-1.57c0-1.04-0.75-1.52-2.08-1.52H658.36z"/>
			<path class="st2" d="M677.51,1506.06h-9.42v-12.6h9.34v2.3h-6.83v2.79h6.52v2.3h-6.52v2.9h6.9V1506.06z"/>
			<path class="st2" d="M682.59,1501.45v4.61h-2.51v-12.6h5.14c3.01,0,4.61,1.57,4.61,4.01c0,2.42-1.6,3.99-4.59,3.99H682.59z
				 M682.59,1495.77v3.38h2.58c1.37,0,2.08-0.56,2.08-1.69c0-1.12-0.71-1.69-2.08-1.69H682.59z"/>
			<path class="st2" d="M701.14,1506.06h-9.17v-12.6h2.51v10.25h6.66V1506.06z"/>
			<path class="st2" d="M705.37,1506.06h-2.51v-12.6h2.51V1506.06z"/>
			<path class="st2" d="M719.64,1496.05l-2.16,1.32c-0.71-1.09-1.85-1.74-3.26-1.74c-2.29,0-3.98,1.67-3.98,4.12
				c0.01,2.53,1.75,4.12,3.98,4.12c1.4,0,2.53-0.63,3.29-1.73l2.05,1.48c-1.12,1.64-3.02,2.67-5.32,2.67
				c-3.88,0-6.62-2.75-6.62-6.54s2.74-6.54,6.62-6.54C716.56,1493.22,718.62,1494.29,719.64,1496.05z"/>
			<path class="st2" d="M733.32,1506.06h-2.68l-1.1-2.93h-5.37l-1.1,2.93h-2.62l4.91-12.6h3.06L733.32,1506.06z M725.03,1500.81
				h3.65l-1.82-4.87L725.03,1500.81z"/>
			<path class="st2" d="M743.01,1495.81h-3.91v10.25h-2.51v-10.25h-3.91v-2.35h10.33V1495.81z"/>
			<path class="st2" d="M747.24,1506.06h-2.51v-12.6h2.51V1506.06z"/>
			<path class="st2" d="M762.74,1499.76c0,3.76-2.75,6.54-6.63,6.54s-6.62-2.77-6.62-6.54c0-3.76,2.74-6.54,6.62-6.54
				S762.74,1496,762.74,1499.76z M752.11,1499.76c0,2.45,1.68,4.12,4,4.12c2.32,0,4-1.67,4-4.12c0-2.45-1.67-4.12-4-4.12
				C753.8,1495.64,752.11,1497.31,752.11,1499.76z"/>
			<path class="st2" d="M776.26,1506.06h-2.36l-6.39-8.42l-0.01,8.42h-2.51v-12.6h2.35l6.4,8.42v-8.42h2.52V1506.06z"/>
			<path class="st2" d="M562.16,1520.76c0,3.78-2.76,6.48-6.51,6.48c-3.75,0-6.51-2.7-6.51-6.48s2.76-6.48,6.51-6.48
				C559.4,1514.28,562.16,1516.98,562.16,1520.76z M550.66,1520.76c0,3.03,2.16,5.09,4.99,5.09c2.84,0,5-2.05,5-5.09
				s-2.16-5.09-5-5.09C552.82,1515.67,550.66,1517.73,550.66,1520.76z"/>
			<path class="st2" d="M570.25,1518.65l-0.32,1.32c-0.41-0.22-0.98-0.34-1.48-0.34c-1.33,0-2.29,1.04-2.29,2.66v4.77h-1.34v-8.53
				h1.33v1.2c0.58-0.87,1.49-1.37,2.53-1.37C569.3,1518.37,569.8,1518.45,570.25,1518.65z"/>
			<path class="st2" d="M580,1527.06h-1.34v-1.27c-0.68,0.87-1.71,1.44-3.12,1.44c-2.39,0-4.26-1.87-4.26-4.44
				c0-2.56,1.86-4.43,4.26-4.43c1.4,0,2.44,0.58,3.12,1.44v-1.27H580V1527.06z M572.65,1522.8c0,1.76,1.24,3.18,3.05,3.18
				c1.77,0,3.03-1.37,3.03-3.18c0-1.8-1.26-3.17-3.03-3.17C573.88,1519.63,572.65,1521.04,572.65,1522.8z"/>
			<path class="st2" d="M590.91,1521.78v5.28h-1.34v-4.84c0-1.62-0.9-2.58-2.46-2.58c-1.43,0-2.61,0.99-2.61,2.61v4.81h-1.35v-8.53
				h1.33v1.22c0.69-1.02,1.83-1.39,2.87-1.39C589.46,1518.37,590.91,1519.72,590.91,1521.78z"/>
			<path class="st2" d="M600.57,1519.81v-1.28h1.35v7.94c0,2.78-1.87,4.32-4.51,4.32c-1.36,0-2.73-0.42-3.59-1.14l0.59-1.08
				c0.81,0.61,1.85,1,3,1c1.85,0,3.16-1.05,3.16-3.04v-0.87c-0.65,0.89-1.67,1.45-3.04,1.45c-2.39,0-4.22-1.79-4.22-4.38
				c0-2.58,1.83-4.37,4.22-4.37C598.91,1518.37,599.92,1518.93,600.57,1519.81z M594.68,1522.73c0,1.73,1.2,3.12,3.01,3.12
				c1.75,0,3.01-1.34,3.01-3.12c0-1.76-1.25-3.11-3.01-3.11C595.87,1519.63,594.68,1521.01,594.68,1522.73z"/>
			<path class="st2" d="M612.66,1522.77c0,0.17-0.01,0.35-0.03,0.5h-6.83c0.19,1.84,1.48,2.78,3.02,2.78c1.05,0,1.97-0.41,2.7-1.07
				l0.72,0.92c-1.06,1.02-2.25,1.33-3.5,1.33c-2.52,0-4.31-1.79-4.31-4.43c0-2.61,1.8-4.44,4.23-4.44
				C610.97,1518.37,612.64,1520.17,612.66,1522.77z M605.82,1522.18h5.47c-0.17-1.59-1.21-2.62-2.66-2.62
				C607.05,1519.56,606.03,1520.64,605.82,1522.18z"/>
			<path class="st2" d="M646.93,1521.25h-7.83v-1.22h7.83V1521.25z M646.93,1524.58h-7.83v-1.22h7.83V1524.58z"/>
			<path class="st2" d="M665.48,1516.16l-1.81,1.77c-0.71-0.82-1.76-1.32-3.04-1.32c-2.3,0-3.98,1.69-3.98,4.15
				c0,2.58,1.75,4.19,3.93,4.19c2.05,0,3.25-0.99,3.58-2.78h-3.21v-2.1h5.8c0.03,0.24,0.04,0.48,0.04,0.71
				c0,3.82-2.58,6.51-6.16,6.51c-3.49,0-6.59-2.46-6.59-6.53c0-3.81,2.78-6.54,6.65-6.54
				C662.7,1514.22,664.37,1514.94,665.48,1516.16z"/>
			<path class="st2" d="M678.47,1527.06h-9.42v-12.6h9.34v2.3h-6.83v2.79h6.52v2.3h-6.52v2.9h6.9V1527.06z"/>
			<path class="st2" d="M690.22,1516.81h-3.91v10.25h-2.51v-10.25h-3.91v-2.35h10.33V1516.81z"/>
		</g>
	</g>
	<circle class="st7" cx="525.4" cy="1477.91" r="6"/>
	<circle class="st0" cx="525.4" cy="1499.91" r="6"/>
	<circle class="st10" cx="525.4" cy="1521.91" r="6"/>
</g>
</svg>
