<?xml version="1.0" encoding="utf-8"?>
<!-- Generator: Adobe Illustrator 26.0.0, SVG Export Plug-In . SVG Version: 6.00 Build 0)  -->
<svg version="1.1" id="Capa_1" xmlns="http://www.w3.org/2000/svg" xmlns:xlink="http://www.w3.org/1999/xlink" x="0px" y="0px"
	 viewBox="0 0 1922.5 1078.7" style="enable-background:new 0 0 1922.5 1078.7;" xml:space="preserve">
<style type="text/css">
	.st0{fill:#2680AF;}
	.st1{fill:#F9F9F9;stroke:#C1C1C1;stroke-width:5;stroke-miterlimit:10;}
	.st2{fill:#434343;}
	.st3{fill:#F5F5F5;}
	.st4{fill:#FFFFFF;stroke:#434343;stroke-width:2;stroke-miterlimit:10;}
	.st5{fill:#C83B51;}
	.st6{fill:#FFFFFF;}
	.st7{opacity:9.000000e-02;fill:#2680AF;enable-background:new    ;}
	.st8{fill:url(#SVGID_1_);}
	.st9{fill:url(#SVGID_00000085248628065627187220000018210176382417583498_);}
	.st10{fill:#F9F9F9;stroke:#C1C1C1;stroke-miterlimit:10;stroke-dasharray:7;}
	.st11{fill:#7FC63C;}
	.st12{fill:#D88A3D;}
</style>
<path class="st0" d="M-8357.1-1661.6v206.8h3.9c1.2,0,1.8,1.4,0.9,2.3l-4.9,4.9c-0.5,0.5-1.4,0.5-1.9,0l-4.9-4.9
	c-0.8-0.8-0.2-2.3,0.9-2.3h4v-206.8H-8357.1z"/>
<g>
	<path class="st1" d="M883.5,505.7c-25.1,0-45.6-20.4-45.6-45.6s20.4-45.6,45.6-45.6c2.5,0,4.9,0.2,7.2,0.6
		c7.5-25.3,31-43.8,58.8-43.8c33.8,0,61.2,27.4,61.2,61.2c0,0.9,0,1.9-0.1,2.9c4.8-2.2,10.2-3.4,15.8-3.4c21,0,37.9,17,37.9,37.9
		c0,21-17,37.9-37.9,37.9L883.5,505.7z"/>
	<g>
		<path class="st2" d="M907.9,467.3h-3.9l-10.6-14v14h-4.2v-21h3.9l10.6,14v-14h4.2V467.3L907.9,467.3z"/>
		<path class="st2" d="M925.8,460c0,0.4,0,1-0.1,1.3h-10.3c0.4,2.1,1.9,3,3.8,3c1.3,0,2.7-0.5,3.7-1.4l2.3,2.5
			c-1.6,1.5-3.8,2.2-6.2,2.2c-4.5,0-7.5-3-7.5-7.6c0-4.5,3-7.7,7.4-7.7C923,452.4,925.8,455.5,925.8,460z M915.5,458.8h6.4
			c-0.3-1.9-1.5-2.9-3.2-2.9C916.9,455.8,915.8,457,915.5,458.8z"/>
		<path class="st2" d="M939.4,456.3h-5.2v5.3c0,1.8,0.9,2.5,2.1,2.5c0.9,0,2-0.4,2.7-0.9l1.5,3.1c-1.3,0.9-2.7,1.5-4.8,1.5
			c-3.6,0-5.4-2.1-5.4-5.8v-5.7h-2.8v-3.5h2.8v-4.3h3.9v4.3h5.2L939.4,456.3L939.4,456.3z"/>
		<path class="st2" d="M959,463l3.1-10.2h4.1l-4.9,14.6h-4.5l-3.3-9.9l-3.2,9.9H946l-4.9-14.6h4.2l3.1,10.1l3.3-10.1h4.1L959,463z"
			/>
		<path class="st2" d="M983.2,460.1c0,4.4-3.3,7.6-7.9,7.6c-4.5,0-7.9-3.3-7.9-7.6c0-4.4,3.3-7.6,7.9-7.6
			C979.8,452.4,983.2,455.7,983.2,460.1z M971.4,460.1c0,2.4,1.6,4,3.9,4s3.9-1.6,3.9-4c0-2.4-1.6-4-3.9-4S971.4,457.7,971.4,460.1z
			"/>
		<path class="st2" d="M996.3,452.8l-0.6,3.9c-0.7-0.3-1.5-0.4-2.4-0.4c-1.8,0-3.1,1.1-3.1,3.3v7.9h-3.9v-14.6h3.8v1.5
			c0.9-1.4,2.3-2,4.1-2C995.1,452.4,995.8,452.6,996.3,452.8z"/>
		<path class="st2" d="M1002.9,458h1.4l4.1-5.1h4.8l-5.7,6.9l5.7,7.7h-4.8l-4.2-5.9h-1.3v5.9h-3.9v-21.6h3.9V458L1002.9,458z"/>
	</g>
</g>
<path class="st3" d="M1527.7,603.7H1265c-4.2,0-7.7-3.4-7.7-7.7v-32.1c0-4.2,3.4-7.7,7.7-7.7h262.6c4.2,0,7.7,3.4,7.7,7.7V596
	C1535.4,600.3,1531.9,603.7,1527.7,603.7z"/>
<g>
	<path class="st4" d="M266.4,520.1H45.6c-6.2,0-11.2-5.1-11.2-11.2v-82.3c0-6.2,5.1-11.2,11.2-11.2h220.8c6.2,0,11.2,5.1,11.2,11.2
		V509C277.6,515.2,272.6,520.1,266.4,520.1z"/>
	<path class="st4" d="M275.8,533H55c-6.2,0-11.2-5.1-11.2-11.2v-82.3c0-6.2,5.1-11.2,11.2-11.2h220.8c6.2,0,11.2,5.1,11.2,11.2v82.4
		C287,528,282,533,275.8,533z"/>
	<path class="st4" d="M285.2,545.8H64.4c-6.2,0-11.2-5.1-11.2-11.2v-82.3c0-6.2,5.1-11.2,11.2-11.2h220.8c6.2,0,11.2,5.1,11.2,11.2
		v82.4C296.5,540.9,291.4,545.8,285.2,545.8z"/>
	<g>
		<path class="st2" d="M114.2,500.9H111l-1.3-3.5h-6.4l-1.3,3.5h-3.1l5.8-15h3.6L114.2,500.9z M104.3,494.6h4.4l-2.1-5.8
			L104.3,494.6z"/>
		<path class="st2" d="M126.7,495.6c0,3.1-2.1,5.5-5.1,5.5c-1.4,0-2.4-0.5-3.1-1.4v5.4h-2.7v-14.6h2.7v1.1c0.7-0.9,1.7-1.5,3.1-1.5
			C124.6,490.2,126.7,492.6,126.7,495.6z M118.6,495.6c0,1.6,1.1,2.8,2.7,2.8c1.6,0,2.7-1.3,2.7-2.8c0-1.5-1-2.8-2.7-2.8
			C119.6,492.8,118.6,494,118.6,495.6z"/>
		<path class="st2" d="M139.9,495.6c0,3.1-2.1,5.5-5.1,5.5c-1.4,0-2.4-0.5-3.1-1.4v5.4H129v-14.6h2.7v1.1c0.7-0.9,1.7-1.5,3.1-1.5
			C137.7,490.2,139.9,492.6,139.9,495.6z M131.7,495.6c0,1.6,1.1,2.8,2.7,2.8c1.6,0,2.7-1.3,2.7-2.8c0-1.5-1-2.8-2.7-2.8
			C132.8,492.8,131.7,494,131.7,495.6z"/>
		<path class="st2" d="M144.9,500.9h-2.8v-15.4h2.8V500.9z"/>
		<path class="st2" d="M151,487.1c0,1-0.8,1.8-1.8,1.8s-1.8-0.8-1.8-1.8c0-1,0.8-1.8,1.8-1.8S151,486.1,151,487.1z M150.7,500.9
			h-2.8v-10.4h2.8V500.9z"/>
		<path class="st2" d="M162.7,492.1l-2,1.7c-0.6-0.7-1.3-1-2.2-1c-1.5,0-2.6,1.1-2.6,2.8s1.1,2.8,2.6,2.8c0.9,0,1.7-0.4,2.2-1l2,1.7
			c-0.9,1.3-2.4,2-4.2,2c-3.3,0-5.6-2.3-5.6-5.5s2.2-5.5,5.6-5.5C160.3,490.2,161.7,490.9,162.7,492.1z"/>
		<path class="st2" d="M174.7,500.9h-2.7v-1.1c-0.7,0.9-1.7,1.4-3.1,1.4c-2.8,0-5.1-2.3-5.1-5.5s2.1-5.5,5.1-5.5
			c1.5,0,2.4,0.6,3.1,1.5v-1.1h2.7V500.9z M166.7,495.6c0,1.6,1,2.8,2.7,2.8c1.6,0,2.7-1.2,2.7-2.8c0-1.6-1.1-2.8-2.7-2.8
			C167.7,492.8,166.7,494.1,166.7,495.6z"/>
		<path class="st2" d="M185.1,493h-3.8v3.8c0,1.3,0.7,1.8,1.5,1.8c0.7,0,1.4-0.3,2-0.7l1,2.2c-0.9,0.6-2,1.1-3.4,1.1
			c-2.6,0-3.9-1.5-3.9-4.1v-4h-2v-2.5h2v-3.1h2.8v3.1h3.8L185.1,493L185.1,493z"/>
		<path class="st2" d="M190.8,487.1c0,1-0.8,1.8-1.8,1.8c-1,0-1.8-0.8-1.8-1.8c0-1,0.8-1.8,1.8-1.8
			C190,485.3,190.8,486.1,190.8,487.1z M190.4,500.9h-2.8v-10.4h2.8V500.9z"/>
		<path class="st2" d="M203.9,495.6c0,3.1-2.4,5.5-5.7,5.5c-3.3,0-5.6-2.3-5.6-5.5c0-3.2,2.4-5.5,5.6-5.5
			C201.5,490.2,203.9,492.6,203.9,495.6z M195.6,495.6c0,1.7,1.2,2.8,2.7,2.8s2.7-1.2,2.7-2.8c0-1.6-1.2-2.8-2.7-2.8
			S195.6,494,195.6,495.6z"/>
		<path class="st2" d="M215.9,494.3v6.6h-2.8v-5.7c0-1.5-0.8-2.3-2.1-2.3c-1.2,0-2.2,0.8-2.2,2.3v5.7H206v-10.4h2.7v1.2
			c0.8-1.1,1.9-1.5,3.1-1.5C214.3,490.2,215.9,491.9,215.9,494.3z"/>
		<path class="st2" d="M231,487.8c-2.7,1.3-4.2,3.9-4.2,6.9c0,3,1.5,5.7,4.2,6.9l-0.9,2.5c-3.8-1.5-6.3-5.1-6.3-9.4
			c0-4.4,2.6-8,6.3-9.4L231,487.8z"/>
		<path class="st2" d="M240.4,493.4c-0.9-0.4-2.1-0.9-3.3-0.9c-1,0-1.6,0.3-1.6,0.9c0,0.6,0.8,0.8,1.7,0.9l0.9,0.2
			c2.2,0.3,3.5,1.4,3.5,3.1c0,2.1-1.7,3.5-4.8,3.5c-1.5,0-3.3-0.3-4.6-1.2l1.1-2.1c0.9,0.6,2,1,3.5,1c1.3,0,1.9-0.3,1.9-0.9
			c0-0.5-0.5-0.8-1.7-0.9l-0.9-0.1c-2.4-0.3-3.6-1.4-3.6-3.2c0-2.1,1.6-3.4,4.4-3.4c1.6,0,3,0.3,4.4,1L240.4,493.4z"/>
		<path class="st2" d="M242.8,501.7c2.7-1.3,4.2-3.9,4.2-6.9c0-3-1.5-5.7-4.2-6.9l0.9-2.5c3.8,1.5,6.3,5.1,6.3,9.4s-2.6,8-6.3,9.4
			L242.8,501.7z"/>
	</g>
</g>
<g>
	<g>
		<path class="st5" d="M1526.1,538.7h-259.5c-5.7,0-10.3-4.6-10.3-10.3V436c0-5.7,4.6-10.3,10.3-10.3h259.6
			c5.7,0,10.3,4.6,10.3,10.3v92.4C1536.4,534.1,1531.8,538.7,1526.1,538.7z M1266.6,430.9c-2.8,0-5.1,2.3-5.1,5.1v92.4
			c0,2.8,2.3,5.1,5.1,5.1h259.6c2.8,0,5.1-2.3,5.1-5.1V436c0-2.8-2.3-5.1-5.1-5.1L1266.6,430.9L1266.6,430.9z"/>
	</g>
	<path class="st5" d="M1379,475.5h-103.1c-2.8,0-5.2-2.3-5.2-5.2v-24.7c0-2.9,2.3-5.2,5.2-5.2H1379c2.8,0,5.2,2.3,5.2,5.2v24.7
		C1384.3,473.2,1382,475.5,1379,475.5z"/>
	<circle class="st6" cx="1327.5" cy="457.4" r="7.2"/>
	<path class="st6" d="M1285.9,469.8v-23.6c0-0.3,0.3-0.5,0.5-0.5h4.2c0.3,0,0.5,0.3,0.5,0.5v23.6c0,0.3-0.3,0.5-0.5,0.5h-4.2
		C1286.2,470.2,1285.9,470.1,1285.9,469.8z"/>
	<path class="st6" d="M1295.2,469.8v-23.6c0-0.3,0.3-0.5,0.5-0.5h4.2c0.3,0,0.5,0.3,0.5,0.5v23.6c0,0.3-0.3,0.5-0.5,0.5h-4.2
		C1295.4,470.2,1295.2,470.1,1295.2,469.8z"/>
	<path class="st6" d="M1276.8,469.8v-23.6c0-0.3,0.3-0.5,0.5-0.5h4.2c0.3,0,0.5,0.3,0.5,0.5v23.6c0,0.3-0.3,0.5-0.5,0.5h-4.2
		C1276.9,470.2,1276.8,470.1,1276.8,469.8z"/>
	<path class="st6" d="M1364.1,469.8v-23.6c0-0.3,0.3-0.5,0.5-0.5h4.2c0.3,0,0.5,0.3,0.5,0.5v23.6c0,0.3-0.3,0.5-0.5,0.5h-4.2
		C1364.2,470.2,1364.1,470.1,1364.1,469.8z"/>
	<path class="st6" d="M1373.2,469.8v-23.6c0-0.3,0.3-0.5,0.5-0.5h4.2c0.3,0,0.5,0.3,0.5,0.5v23.6c0,0.3-0.3,0.5-0.5,0.5h-4.2
		C1373.5,470.2,1373.2,470.1,1373.2,469.8z"/>
	<path class="st6" d="M1354.8,469.8v-23.6c0-0.3,0.3-0.5,0.5-0.5h4.2c0.3,0,0.5,0.3,0.5,0.5v23.6c0,0.3-0.3,0.5-0.5,0.5h-4.2
		C1355.1,470.2,1354.8,470.1,1354.8,469.8z"/>
	<g>
		<path class="st5" d="M1379,522.7h-103.1c-2.8,0-5.2-2.3-5.2-5.2v-24.7c0-2.9,2.3-5.2,5.2-5.2H1379c2.8,0,5.2,2.3,5.2,5.2v24.7
			C1384.3,520.4,1382,522.7,1379,522.7z"/>
		<circle class="st6" cx="1327.5" cy="504.6" r="7.2"/>
		<path class="st6" d="M1285.9,516.9v-23.6c0-0.3,0.3-0.5,0.5-0.5h4.2c0.3,0,0.5,0.3,0.5,0.5v23.6c0,0.3-0.3,0.5-0.5,0.5h-4.2
			C1286.2,517.4,1285.9,517.2,1285.9,516.9z"/>
		<path class="st6" d="M1295.2,516.9v-23.6c0-0.3,0.3-0.5,0.5-0.5h4.2c0.3,0,0.5,0.3,0.5,0.5v23.6c0,0.3-0.3,0.5-0.5,0.5h-4.2
			C1295.4,517.4,1295.2,517.2,1295.2,516.9z"/>
		<path class="st6" d="M1276.8,516.9v-23.6c0-0.3,0.3-0.5,0.5-0.5h4.2c0.3,0,0.5,0.3,0.5,0.5v23.6c0,0.3-0.3,0.5-0.5,0.5h-4.2
			C1276.9,517.4,1276.8,517.2,1276.8,516.9z"/>
		<path class="st6" d="M1364.1,516.9v-23.6c0-0.3,0.3-0.5,0.5-0.5h4.2c0.3,0,0.5,0.3,0.5,0.5v23.6c0,0.3-0.3,0.5-0.5,0.5h-4.2
			C1364.2,517.4,1364.1,517.2,1364.1,516.9z"/>
		<path class="st6" d="M1373.2,516.9v-23.6c0-0.3,0.3-0.5,0.5-0.5h4.2c0.3,0,0.5,0.3,0.5,0.5v23.6c0,0.3-0.3,0.5-0.5,0.5h-4.2
			C1373.5,517.4,1373.2,517.2,1373.2,516.9z"/>
		<path class="st6" d="M1354.8,516.9v-23.6c0-0.3,0.3-0.5,0.5-0.5h4.2c0.3,0,0.5,0.3,0.5,0.5v23.6c0,0.3-0.3,0.5-0.5,0.5h-4.2
			C1355.1,517.4,1354.8,517.2,1354.8,516.9z"/>
	</g>
	<path class="st5" d="M1516.5,475.5h-103.1c-2.8,0-5.2-2.3-5.2-5.2v-24.7c0-2.9,2.3-5.2,5.2-5.2h103.1c2.8,0,5.2,2.3,5.2,5.2v24.7
		C1521.7,473.2,1519.4,475.5,1516.5,475.5z"/>
	<circle class="st6" cx="1465" cy="457.4" r="7.2"/>
	<path class="st6" d="M1423.4,469.8v-23.6c0-0.3,0.3-0.5,0.5-0.5h4.2c0.3,0,0.5,0.3,0.5,0.5v23.6c0,0.3-0.3,0.5-0.5,0.5h-4.2
		C1423.7,470.2,1423.4,470.1,1423.4,469.8z"/>
	<path class="st6" d="M1432.7,469.8v-23.6c0-0.3,0.3-0.5,0.5-0.5h4.2c0.3,0,0.5,0.3,0.5,0.5v23.6c0,0.3-0.3,0.5-0.5,0.5h-4.2
		C1432.8,470.2,1432.7,470.1,1432.7,469.8z"/>
	<path class="st6" d="M1414.2,469.8v-23.6c0-0.3,0.3-0.5,0.5-0.5h4.2c0.3,0,0.5,0.3,0.5,0.5v23.6c0,0.3-0.3,0.5-0.5,0.5h-4.2
		C1414.4,470.2,1414.2,470.1,1414.2,469.8z"/>
	<path class="st6" d="M1501.4,469.8v-23.6c0-0.3,0.3-0.5,0.5-0.5h4.2c0.3,0,0.5,0.3,0.5,0.5v23.6c0,0.3-0.3,0.5-0.5,0.5h-4.2
		C1501.7,470.2,1501.4,470.1,1501.4,469.8z"/>
	<path class="st6" d="M1510.7,469.8v-23.6c0-0.3,0.3-0.5,0.5-0.5h4.2c0.3,0,0.5,0.3,0.5,0.5v23.6c0,0.3-0.3,0.5-0.5,0.5h-4.2
		C1511,470.2,1510.7,470.1,1510.7,469.8z"/>
	<path class="st6" d="M1492.3,469.8v-23.6c0-0.3,0.3-0.5,0.5-0.5h4.2c0.3,0,0.5,0.3,0.5,0.5v23.6c0,0.3-0.3,0.5-0.5,0.5h-4.2
		C1492.5,470.2,1492.3,470.1,1492.3,469.8z"/>
	<g>
		<path class="st5" d="M1516.5,522.7h-103.1c-2.8,0-5.2-2.3-5.2-5.2v-24.7c0-2.9,2.3-5.2,5.2-5.2h103.1c2.8,0,5.2,2.3,5.2,5.2v24.7
			C1521.7,520.4,1519.4,522.7,1516.5,522.7z"/>
		<circle class="st6" cx="1465" cy="504.6" r="7.2"/>
		<path class="st6" d="M1423.4,516.9v-23.6c0-0.3,0.3-0.5,0.5-0.5h4.2c0.3,0,0.5,0.3,0.5,0.5v23.6c0,0.3-0.3,0.5-0.5,0.5h-4.2
			C1423.7,517.4,1423.4,517.2,1423.4,516.9z"/>
		<path class="st6" d="M1432.7,516.9v-23.6c0-0.3,0.3-0.5,0.5-0.5h4.2c0.3,0,0.5,0.3,0.5,0.5v23.6c0,0.3-0.3,0.5-0.5,0.5h-4.2
			C1432.8,517.4,1432.7,517.2,1432.7,516.9z"/>
		<path class="st6" d="M1414.2,516.9v-23.6c0-0.3,0.3-0.5,0.5-0.5h4.2c0.3,0,0.5,0.3,0.5,0.5v23.6c0,0.3-0.3,0.5-0.5,0.5h-4.2
			C1414.4,517.4,1414.2,517.2,1414.2,516.9z"/>
		<path class="st6" d="M1501.4,516.9v-23.6c0-0.3,0.3-0.5,0.5-0.5h4.2c0.3,0,0.5,0.3,0.5,0.5v23.6c0,0.3-0.3,0.5-0.5,0.5h-4.2
			C1501.7,517.4,1501.4,517.2,1501.4,516.9z"/>
		<path class="st6" d="M1510.7,516.9v-23.6c0-0.3,0.3-0.5,0.5-0.5h4.2c0.3,0,0.5,0.3,0.5,0.5v23.6c0,0.3-0.3,0.5-0.5,0.5h-4.2
			C1511,517.4,1510.7,517.2,1510.7,516.9z"/>
		<path class="st6" d="M1492.3,516.9v-23.6c0-0.3,0.3-0.5,0.5-0.5h4.2c0.3,0,0.5,0.3,0.5,0.5v23.6c0,0.3-0.3,0.5-0.5,0.5h-4.2
			C1492.5,517.4,1492.3,517.2,1492.3,516.9z"/>
	</g>
</g>
<path class="st3" d="M644.7,603.7H382c-4.2,0-7.7-3.4-7.7-7.7v-32.1c0-4.2,3.4-7.7,7.7-7.7h262.6c4.2,0,7.7,3.4,7.7,7.7V596
	C652.3,600.3,648.9,603.7,644.7,603.7z"/>
<g>
	<path class="st2" d="M398.1,574.5h1.1v4.3h0.1c0.1-0.2,0.2-0.3,0.3-0.5c0.1-0.2,0.3-0.3,0.4-0.4c0.2-0.1,0.3-0.2,0.6-0.3
		s0.5-0.1,0.8-0.1c0.8,0,1.4,0.3,1.8,0.7c0.4,0.5,0.7,1.1,0.7,2.1v4.6h-1.1v-4.4c0-0.7-0.2-1.1-0.4-1.5c-0.3-0.3-0.7-0.5-1.3-0.5
		c-0.3,0-0.4,0-0.7,0.1c-0.2,0.1-0.4,0.2-0.6,0.3c-0.2,0.1-0.3,0.3-0.4,0.4c-0.1,0.2-0.2,0.3-0.2,0.6v5H398L398.1,574.5L398.1,574.5
		L398.1,574.5z"/>
	<path class="st2" d="M409.6,584.8c-0.5,0-0.9-0.2-1.2-0.4c-0.3-0.3-0.3-0.7-0.3-1.2v-4.5h-2.4v-0.9h1.8c0.3,0,0.4-0.1,0.5-0.2
		c0.1-0.1,0.2-0.3,0.2-0.5v-1.9h1v2.5h3.3v0.9h-3.3v5.2h3.3v0.9L409.6,584.8L409.6,584.8L409.6,584.8z"/>
	<path class="st2" d="M417.9,584.8c-0.5,0-0.9-0.2-1.2-0.4c-0.3-0.3-0.3-0.7-0.3-1.2v-4.5H414v-0.9h1.8c0.3,0,0.4-0.1,0.5-0.2
		c0.1-0.1,0.2-0.3,0.2-0.5v-1.9h1v2.5h3.3v0.9h-3.3v5.2h3.3v0.9L417.9,584.8L417.9,584.8z"/>
	<path class="st2" d="M423,577.6h1.1v1.2h0.1c0.4-0.9,1.2-1.3,2.2-1.3c0.9,0,1.5,0.3,2.1,0.9c0.5,0.7,0.8,1.5,0.8,2.7
		c0,1.2-0.3,2.1-0.8,2.7s-1.2,0.9-2.1,0.9c-1,0-1.7-0.4-2.2-1.3h-0.1v3.9H423V577.6z M426,583.9c0.7,0,1.1-0.2,1.5-0.6
		c0.3-0.4,0.5-0.9,0.5-1.5v-1.2c0-0.7-0.2-1.2-0.5-1.5c-0.3-0.3-0.9-0.6-1.5-0.6c-0.3,0-0.5,0-0.7,0.1c-0.3,0.1-0.4,0.2-0.6,0.3
		c-0.2,0.1-0.3,0.3-0.4,0.4c-0.2,0.2-0.2,0.4-0.2,0.6v2.6c0,0.3,0.1,0.4,0.2,0.6c0.1,0.2,0.3,0.3,0.4,0.4c0.2,0.1,0.3,0.3,0.6,0.3
		C425.5,583.9,425.8,583.9,426,583.9z"/>
	<path class="st2" d="M434.3,584.9c-0.8,0-1.4-0.1-2-0.4c-0.5-0.3-1-0.6-1.4-1l0.8-0.7c0.3,0.3,0.7,0.6,1.1,0.9s0.9,0.3,1.5,0.3
		s1-0.1,1.4-0.3c0.3-0.3,0.5-0.5,0.5-0.9c0-0.2,0-0.3-0.1-0.4s-0.2-0.3-0.3-0.3c-0.1-0.1-0.3-0.1-0.4-0.2c-0.2-0.1-0.3-0.1-0.4-0.1
		l-1.1-0.2c-0.3,0-0.5-0.1-0.9-0.2c-0.3-0.1-0.6-0.2-0.8-0.3c-0.3-0.2-0.4-0.3-0.6-0.6c-0.2-0.3-0.3-0.5-0.3-0.9
		c0-0.3,0.1-0.7,0.2-0.9s0.3-0.5,0.6-0.7s0.6-0.3,0.9-0.4c0.3-0.1,0.8-0.1,1.1-0.1c0.7,0,1.2,0.1,1.7,0.3c0.5,0.3,0.9,0.5,1.2,0.9
		l-0.7,0.7c-0.1-0.1-0.2-0.2-0.3-0.3c-0.2-0.1-0.3-0.2-0.4-0.3c-0.2-0.1-0.4-0.2-0.6-0.2c-0.3-0.1-0.5-0.1-0.9-0.1
		c-0.6,0-1,0.1-1.3,0.3c-0.3,0.2-0.4,0.5-0.4,0.9c0,0.2,0,0.3,0.1,0.4s0.2,0.3,0.3,0.3c0.1,0.1,0.3,0.1,0.4,0.2
		c0.2,0,0.3,0.1,0.4,0.1l1.1,0.2c0.3,0,0.5,0.1,0.9,0.2c0.3,0.1,0.5,0.2,0.8,0.3c0.3,0.2,0.4,0.3,0.6,0.6c0.2,0.3,0.3,0.5,0.3,0.9
		c0,0.7-0.3,1.3-0.9,1.6C435.8,584.5,435.2,584.9,434.3,584.9z"/>
	<path class="st2" d="M442.5,579.4c-0.3,0-0.7-0.1-0.8-0.3s-0.3-0.3-0.3-0.6v-0.3c0-0.3,0.1-0.4,0.3-0.6c0.2-0.2,0.4-0.3,0.8-0.3
		s0.7,0.1,0.8,0.3c0.1,0.2,0.3,0.3,0.3,0.6v0.3c0,0.3-0.1,0.4-0.3,0.6C443.2,579.3,442.9,579.4,442.5,579.4z M442.5,584.9
		c-0.3,0-0.7-0.1-0.8-0.3s-0.3-0.3-0.3-0.6v-0.3c0-0.3,0.1-0.4,0.3-0.6c0.2-0.2,0.4-0.3,0.8-0.3s0.7,0.1,0.8,0.3
		c0.1,0.2,0.3,0.3,0.3,0.6v0.3c0,0.3-0.1,0.4-0.3,0.6C443.1,584.8,442.9,584.9,442.5,584.9z"/>
	<path class="st2" d="M448,586.7l4.8-12.4h1l-4.8,12.4H448z"/>
	<path class="st2" d="M456.3,586.7l4.8-12.4h1l-4.8,12.4H456.3z"/>
	<path class="st2" d="M464.1,584.8v-7.2h1v0.9h0.1c0.1-0.3,0.3-0.5,0.4-0.7s0.5-0.3,0.9-0.3c0.4,0,0.7,0.1,0.9,0.3
		c0.2,0.2,0.3,0.5,0.3,0.9l0,0c0.2-0.3,0.3-0.6,0.6-0.8s0.6-0.3,1-0.3c0.6,0,0.9,0.2,1.2,0.6c0.2,0.4,0.3,0.9,0.3,1.7v5h-1v-4.8
		c0-0.6-0.1-1-0.2-1.3c-0.1-0.3-0.3-0.3-0.7-0.3c-0.3,0-0.5,0.1-0.7,0.3c-0.2,0.2-0.3,0.5-0.3,0.9v5.2h-1V580c0-0.6-0.1-1-0.2-1.3
		c-0.1-0.3-0.3-0.3-0.7-0.3c-0.3,0-0.5,0.1-0.7,0.3c-0.2,0.2-0.3,0.5-0.3,0.9v5.2L464.1,584.8L464.1,584.8z"/>
	<path class="st2" d="M473.1,583.7h2.6v-5.2h-2.6v-0.9h3.7v6.2h2.4v0.9h-6.1V583.7L473.1,583.7z M476.2,576c-0.3,0-0.5-0.1-0.7-0.2
		c-0.2-0.2-0.2-0.3-0.2-0.5v-0.3c0-0.2,0.1-0.3,0.2-0.5c0.2-0.2,0.3-0.2,0.7-0.2s0.5,0.1,0.7,0.2c0.2,0.2,0.2,0.3,0.2,0.5v0.3
		c0,0.2-0.1,0.3-0.2,0.5C476.8,575.9,476.6,576,476.2,576z"/>
	<path class="st2" d="M481.3,584.8v-7.2h1.1v1.2h0.1c0.1-0.2,0.2-0.3,0.3-0.5c0.1-0.2,0.3-0.3,0.4-0.4c0.2-0.1,0.3-0.2,0.6-0.3
		c0.3-0.1,0.5-0.1,0.8-0.1c0.8,0,1.4,0.3,1.8,0.7c0.4,0.5,0.7,1.1,0.7,2.1v4.6h-1.1v-4.4c0-0.7-0.2-1.1-0.4-1.5s-0.7-0.5-1.3-0.5
		c-0.3,0-0.4,0-0.7,0.1c-0.2,0.1-0.4,0.2-0.6,0.3c-0.2,0.1-0.3,0.3-0.4,0.4c-0.1,0.2-0.2,0.3-0.2,0.6v5L481.3,584.8L481.3,584.8z"/>
	<path class="st2" d="M489.7,583.7h2.6v-5.2h-2.6v-0.9h3.7v6.2h2.4v0.9h-6.1L489.7,583.7L489.7,583.7z M492.9,576
		c-0.3,0-0.5-0.1-0.7-0.2c-0.2-0.2-0.2-0.3-0.2-0.5v-0.3c0-0.2,0.1-0.3,0.2-0.5c0.2-0.2,0.3-0.2,0.7-0.2s0.5,0.1,0.7,0.2
		c0.2,0.2,0.2,0.3,0.2,0.5v0.3c0,0.2-0.1,0.3-0.2,0.5C493.4,575.9,493.2,576,492.9,576z"/>
	<path class="st2" d="M500.7,584.9c-0.5,0-0.9-0.1-1.4-0.3c-0.4-0.2-0.8-0.4-1-0.8c-0.3-0.3-0.5-0.7-0.7-1.2
		c-0.2-0.4-0.3-0.9-0.3-1.5s0.1-1.1,0.3-1.5s0.3-0.9,0.7-1.2c0.3-0.3,0.6-0.6,1-0.8c0.4-0.2,0.9-0.3,1.4-0.3c0.5,0,0.9,0.1,1.4,0.3
		s0.8,0.4,1,0.8c0.3,0.3,0.5,0.7,0.7,1.2c0.2,0.5,0.3,0.9,0.3,1.5s-0.1,1.1-0.3,1.5c-0.2,0.4-0.3,0.9-0.7,1.2
		c-0.3,0.3-0.6,0.6-1,0.8C501.7,584.8,501.2,584.9,500.7,584.9z M500.7,583.9c0.6,0,1.1-0.2,1.5-0.5c0.3-0.3,0.6-0.9,0.6-1.7v-1
		c0-0.8-0.2-1.4-0.6-1.7c-0.3-0.3-0.9-0.5-1.5-0.5c-0.6,0-1.1,0.2-1.5,0.5c-0.4,0.3-0.6,0.9-0.6,1.7v1c0,0.8,0.2,1.4,0.6,1.7
		C499.6,583.7,500.1,583.9,500.7,583.9z"/>
	<path class="st2" d="M507,581.1v-1.2h4v1.2H507z"/>
	<path class="st2" d="M517.4,584.9c-0.6,0-1.1-0.1-1.5-0.3c-0.4-0.3-0.8-0.5-1-0.9c-0.3-0.4-0.5-0.9-0.6-1.5
		c-0.1-0.6-0.2-1.3-0.2-2.1c0-0.8,0.1-1.5,0.2-2.1c0.1-0.7,0.3-1.1,0.6-1.5c0.3-0.4,0.6-0.8,1-0.9c0.4-0.2,0.9-0.3,1.5-0.3
		s1.1,0.1,1.5,0.3s0.8,0.5,1,0.9c0.3,0.4,0.5,0.9,0.6,1.5c0.1,0.6,0.2,1.3,0.2,2.1c0,0.8-0.1,1.5-0.2,2.1c-0.2,0.6-0.3,1.1-0.6,1.5
		c-0.3,0.4-0.6,0.8-1,0.9S518,584.9,517.4,584.9z M517.4,583.9c0.4,0,0.7-0.1,1-0.3c0.3-0.2,0.5-0.3,0.7-0.7c0.2-0.3,0.3-0.6,0.3-1
		c0.1-0.4,0.2-0.9,0.2-1.3v-1.5c0-0.5,0-0.9-0.2-1.3c-0.1-0.4-0.2-0.8-0.3-1c-0.2-0.3-0.4-0.5-0.7-0.7s-0.6-0.3-1-0.3
		s-0.7,0.1-1,0.3c-0.3,0.2-0.5,0.3-0.7,0.7c-0.2,0.3-0.3,0.6-0.3,1c-0.1,0.4-0.2,0.9-0.2,1.3v1.5c0,0.5,0,0.9,0.2,1.3
		c0.2,0.3,0.2,0.8,0.3,1c0.2,0.3,0.4,0.5,0.7,0.7C516.7,583.8,517,583.9,517.4,583.9z M517.4,580.7c-0.3,0-0.5-0.1-0.7-0.2
		c-0.2-0.1-0.2-0.3-0.2-0.4v-0.3c0-0.2,0.1-0.3,0.2-0.4c0.1-0.1,0.3-0.2,0.7-0.2c0.3,0,0.5,0.1,0.7,0.2c0.2,0.1,0.2,0.3,0.2,0.4v0.3
		c0,0.2-0.1,0.3-0.2,0.4C517.9,580.7,517.7,580.7,517.4,580.7z"/>
	<path class="st2" d="M522.7,584.8v-1h2.7v-7.8h-0.1l-2.4,2.2l-0.7-0.8l2.6-2.4h1.8v8.7h2.6v1L522.7,584.8L522.7,584.8z"/>
	<path class="st2" d="M534,584.9c-0.3,0-0.7-0.1-0.8-0.3c-0.1-0.2-0.3-0.3-0.3-0.6v-0.3c0-0.3,0.1-0.4,0.3-0.6
		c0.2-0.2,0.4-0.3,0.8-0.3c0.3,0,0.7,0.1,0.8,0.3c0.1,0.2,0.3,0.3,0.3,0.6v0.3c0,0.3-0.1,0.4-0.3,0.6
		C534.6,584.8,534.3,584.9,534,584.9z"/>
	<path class="st2" d="M542.4,584.9c-0.5,0-1-0.1-1.4-0.3c-0.4-0.2-0.8-0.4-1-0.8s-0.5-0.7-0.7-1.2c-0.2-0.4-0.3-0.9-0.3-1.5
		s0.1-1.1,0.3-1.5c0.2-0.4,0.4-0.9,0.7-1.2c0.3-0.3,0.6-0.6,1-0.8c0.4-0.2,0.9-0.3,1.4-0.3c0.5,0,0.9,0.1,1.3,0.3
		c0.3,0.2,0.7,0.4,1,0.8c0.3,0.3,0.5,0.7,0.6,1.1c0.1,0.4,0.3,0.9,0.3,1.4v0.5h-5.3v0.3c0,0.3,0.1,0.6,0.2,0.9
		c0.1,0.3,0.3,0.5,0.4,0.7s0.4,0.3,0.7,0.4s0.6,0.2,0.9,0.2c0.5,0,0.9-0.1,1.3-0.3c0.3-0.3,0.6-0.5,0.8-0.9l0.9,0.5
		c-0.2,0.5-0.6,0.9-1,1.2C543.7,584.8,543.1,584.9,542.4,584.9z M542.4,578.3c-0.3,0-0.6,0.1-0.9,0.2c-0.3,0.1-0.5,0.3-0.7,0.4
		c-0.2,0.2-0.3,0.4-0.4,0.7c-0.1,0.3-0.2,0.5-0.2,0.9v0.1h4.1v-0.2c0-0.3-0.1-0.6-0.2-0.9c-0.1-0.3-0.3-0.5-0.4-0.7
		c-0.2-0.2-0.3-0.3-0.6-0.4C542.9,578.3,542.6,578.3,542.4,578.3z"/>
	<path class="st2" d="M547.3,584.8l2.7-3.6l-2.6-3.5h1.3l1.1,1.5l0.9,1.2h0.1l0.9-1.2l1-1.5h1.3l-2.7,3.5l2.7,3.6h-1.3l-1.2-1.7
		l-0.9-1.1h-0.1l-0.8,1.1l-1.2,1.7H547.3L547.3,584.8z"/>
	<path class="st2" d="M561.6,584.8c-0.4,0-0.8-0.1-0.9-0.3c-0.2-0.3-0.3-0.5-0.3-0.9h-0.1c-0.2,0.4-0.4,0.8-0.8,0.9
		c-0.3,0.2-0.9,0.3-1.4,0.3c-0.8,0-1.4-0.2-1.8-0.6s-0.7-0.9-0.7-1.6c0-0.7,0.3-1.2,0.7-1.5c0.5-0.3,1.3-0.5,2.3-0.5h1.5v-0.7
		c0-0.5-0.2-0.9-0.4-1.2c-0.3-0.3-0.7-0.4-1.3-0.4c-0.5,0-0.9,0.1-1.2,0.3s-0.5,0.4-0.8,0.8l-0.8-0.5c0.1-0.2,0.2-0.3,0.3-0.5
		c0.2-0.2,0.3-0.3,0.6-0.4c0.3-0.2,0.5-0.3,0.8-0.3c0.3-0.1,0.6-0.1,1-0.1c0.9,0,1.5,0.2,2,0.7s0.8,1,0.8,1.8v3.9h1v0.9L561.6,584.8
		L561.6,584.8z M558.3,584c0.3,0,0.5,0,0.8-0.1s0.4-0.2,0.6-0.3s0.3-0.3,0.4-0.4c0.1-0.2,0.2-0.3,0.2-0.5v-1.2h-1.5
		c-0.7,0-1.1,0.1-1.5,0.3c-0.3,0.2-0.4,0.4-0.4,0.8v0.3c0,0.3,0.2,0.7,0.4,0.9C557.5,583.9,557.9,584,558.3,584z"/>
	<path class="st2" d="M563.9,584.8v-7.2h1v0.9h0.1c0.1-0.3,0.3-0.5,0.4-0.7s0.5-0.3,0.9-0.3c0.4,0,0.7,0.1,0.9,0.3
		c0.2,0.2,0.3,0.5,0.3,0.9l0,0c0.2-0.3,0.3-0.6,0.6-0.8c0.3-0.2,0.6-0.3,1-0.3c0.6,0,0.9,0.2,1.2,0.6c0.2,0.4,0.3,0.9,0.3,1.7v5h-1
		v-4.8c0-0.6-0.1-1-0.2-1.3c-0.1-0.3-0.3-0.3-0.7-0.3c-0.3,0-0.5,0.1-0.7,0.3c-0.2,0.2-0.3,0.5-0.3,0.9v5.2h-1.1V580
		c0-0.6-0.1-1-0.2-1.3c-0.1-0.3-0.3-0.3-0.7-0.3c-0.3,0-0.5,0.1-0.7,0.3c-0.2,0.2-0.3,0.5-0.3,0.9v5.2L563.9,584.8L563.9,584.8z"/>
	<path class="st2" d="M572.7,577.6h1.1v1.2h0.1c0.4-0.9,1.2-1.3,2.2-1.3c0.9,0,1.5,0.3,2.1,0.9c0.5,0.7,0.8,1.5,0.8,2.7
		c0,1.2-0.3,2.1-0.8,2.7c-0.5,0.6-1.2,0.9-2.1,0.9c-1,0-1.7-0.4-2.2-1.3h-0.1v3.9h-1.1V577.6z M575.7,583.9c0.7,0,1.1-0.2,1.5-0.6
		c0.3-0.4,0.5-0.9,0.5-1.5v-1.2c0-0.7-0.2-1.2-0.5-1.5c-0.3-0.3-0.9-0.6-1.5-0.6c-0.3,0-0.5,0-0.7,0.1c-0.3,0.1-0.4,0.2-0.6,0.3
		s-0.3,0.3-0.4,0.4c-0.2,0.2-0.2,0.4-0.2,0.6v2.6c0,0.3,0.1,0.4,0.2,0.6c0.1,0.2,0.3,0.3,0.4,0.4s0.3,0.3,0.6,0.3
		C575.2,583.9,575.4,583.9,575.7,583.9z"/>
	<path class="st2" d="M580.8,583.7h2.5v-8.3h-2.5v-0.9h3.6v9.3h2.5v0.9h-6.1V583.7L580.8,583.7z"/>
	<path class="st2" d="M592.3,584.9c-0.5,0-1-0.1-1.4-0.3c-0.4-0.2-0.8-0.4-1-0.8c-0.3-0.3-0.5-0.7-0.7-1.2c-0.2-0.4-0.3-0.9-0.3-1.5
		s0.1-1.1,0.3-1.5c0.2-0.4,0.4-0.9,0.7-1.2c0.3-0.3,0.6-0.6,1-0.8s0.9-0.3,1.4-0.3s0.9,0.1,1.3,0.3c0.3,0.2,0.7,0.4,1,0.8
		c0.3,0.3,0.5,0.7,0.6,1.1c0.1,0.4,0.3,0.9,0.3,1.4v0.5h-5.3v0.3c0,0.3,0.1,0.6,0.2,0.9c0.1,0.3,0.3,0.5,0.4,0.7s0.4,0.3,0.7,0.4
		s0.6,0.2,0.9,0.2c0.5,0,0.9-0.1,1.3-0.3c0.3-0.3,0.6-0.5,0.8-0.9l0.9,0.5c-0.2,0.5-0.6,0.9-1,1.2
		C593.6,584.8,593,584.9,592.3,584.9z M592.2,578.3c-0.3,0-0.6,0.1-0.9,0.2c-0.3,0.1-0.5,0.3-0.7,0.4c-0.2,0.2-0.3,0.4-0.4,0.7
		c-0.1,0.3-0.2,0.5-0.2,0.9v0.1h4.1v-0.2c0-0.3-0.1-0.6-0.2-0.9c-0.1-0.3-0.3-0.5-0.4-0.7c-0.2-0.2-0.3-0.3-0.6-0.4
		C592.8,578.3,592.6,578.3,592.2,578.3z"/>
	<path class="st2" d="M600.5,584.9c-0.3,0-0.7-0.1-0.8-0.3c-0.1-0.2-0.3-0.3-0.3-0.6v-0.3c0-0.3,0.1-0.4,0.3-0.6
		c0.2-0.2,0.4-0.3,0.8-0.3c0.3,0,0.7,0.1,0.8,0.3c0.1,0.2,0.3,0.3,0.3,0.6v0.3c0,0.3-0.1,0.4-0.3,0.6
		C601.1,584.8,600.9,584.9,600.5,584.9z"/>
	<path class="st2" d="M606,584.8v-7.2h1.1v1.2h0.1c0.1-0.2,0.2-0.3,0.3-0.5c0.1-0.2,0.3-0.3,0.4-0.4s0.3-0.2,0.6-0.3
		c0.3-0.1,0.5-0.1,0.8-0.1c0.8,0,1.4,0.3,1.8,0.7c0.4,0.5,0.7,1.1,0.7,2.1v4.6h-1.1v-4.4c0-0.7-0.2-1.1-0.4-1.5s-0.7-0.5-1.3-0.5
		c-0.3,0-0.4,0-0.7,0.1c-0.2,0.1-0.4,0.2-0.6,0.3s-0.3,0.3-0.4,0.4c-0.1,0.2-0.2,0.3-0.2,0.6v5L606,584.8L606,584.8z"/>
	<path class="st2" d="M617.2,584.9c-0.5,0-1-0.1-1.4-0.3c-0.4-0.2-0.8-0.4-1-0.8c-0.3-0.3-0.5-0.7-0.7-1.2c-0.2-0.4-0.3-0.9-0.3-1.5
		s0.1-1.1,0.3-1.5c0.2-0.4,0.4-0.9,0.7-1.2c0.3-0.3,0.6-0.6,1-0.8s0.9-0.3,1.4-0.3c0.5,0,0.9,0.1,1.3,0.3c0.3,0.2,0.7,0.4,1,0.8
		c0.3,0.3,0.5,0.7,0.6,1.1c0.1,0.4,0.3,0.9,0.3,1.4v0.5h-5.3v0.3c0,0.3,0.1,0.6,0.2,0.9c0.1,0.3,0.3,0.5,0.4,0.7
		c0.2,0.2,0.4,0.3,0.7,0.4s0.6,0.2,0.9,0.2c0.5,0,0.9-0.1,1.3-0.3c0.3-0.3,0.6-0.5,0.8-0.9l0.9,0.5c-0.2,0.5-0.6,0.9-1,1.2
		C618.5,584.8,617.9,584.9,617.2,584.9z M617.1,578.3c-0.3,0-0.6,0.1-0.9,0.2c-0.3,0.1-0.5,0.3-0.7,0.4c-0.2,0.2-0.3,0.4-0.4,0.7
		c-0.1,0.3-0.2,0.5-0.2,0.9v0.1h4.1v-0.2c0-0.3-0.1-0.6-0.2-0.9c-0.1-0.3-0.3-0.5-0.4-0.7c-0.2-0.2-0.3-0.3-0.6-0.4
		C617.7,578.3,617.5,578.3,617.1,578.3z"/>
	<path class="st2" d="M625.8,584.8c-0.5,0-0.9-0.2-1.2-0.4c-0.3-0.3-0.3-0.7-0.3-1.2v-4.5h-2.4v-0.9h1.8c0.3,0,0.4-0.1,0.5-0.2
		c0.1-0.1,0.2-0.3,0.2-0.5v-1.9h1v2.5h3.3v0.9h-3.3v5.2h3.3v0.9L625.8,584.8L625.8,584.8L625.8,584.8z"/>
</g>
<g>
	<g>
		<path class="st5" d="M643.1,538.7H383.6c-5.7,0-10.3-4.6-10.3-10.3V436c0-5.7,4.6-10.3,10.3-10.3h259.6c5.7,0,10.3,4.6,10.3,10.3
			v92.4C653.4,534.1,648.7,538.7,643.1,538.7z M383.6,430.9c-2.8,0-5.1,2.3-5.1,5.1v92.4c0,2.8,2.3,5.1,5.1,5.1h259.6
			c2.8,0,5.1-2.3,5.1-5.1V436c0-2.8-2.3-5.1-5.1-5.1L383.6,430.9L383.6,430.9z"/>
	</g>
	<path class="st5" d="M496,475.5H392.9c-2.8,0-5.2-2.3-5.2-5.2v-24.7c0-2.9,2.3-5.2,5.2-5.2H496c2.8,0,5.2,2.3,5.2,5.2v24.7
		C501.2,473.2,498.9,475.5,496,475.5z"/>
	<circle class="st6" cx="444.5" cy="457.4" r="7.2"/>
	<path class="st6" d="M402.9,469.8v-23.6c0-0.3,0.3-0.5,0.5-0.5h4.2c0.3,0,0.5,0.3,0.5,0.5v23.6c0,0.3-0.3,0.5-0.5,0.5h-4.2
		C403.2,470.2,402.9,470.1,402.9,469.8z"/>
	<path class="st6" d="M412.2,469.8v-23.6c0-0.3,0.3-0.5,0.5-0.5h4.2c0.3,0,0.5,0.3,0.5,0.5v23.6c0,0.3-0.3,0.5-0.5,0.5h-4.2
		C412.3,470.2,412.2,470.1,412.2,469.8z"/>
	<path class="st6" d="M393.7,469.8v-23.6c0-0.3,0.3-0.5,0.5-0.5h4.2c0.3,0,0.5,0.3,0.5,0.5v23.6c0,0.3-0.3,0.5-0.5,0.5h-4.2
		C393.9,470.2,393.7,470.1,393.7,469.8z"/>
	<path class="st6" d="M481,469.8v-23.6c0-0.3,0.3-0.5,0.5-0.5h4.2c0.3,0,0.5,0.3,0.5,0.5v23.6c0,0.3-0.3,0.5-0.5,0.5h-4.2
		C481.2,470.2,481,470.1,481,469.8z"/>
	<path class="st6" d="M490.2,469.8v-23.6c0-0.3,0.3-0.5,0.5-0.5h4.2c0.3,0,0.5,0.3,0.5,0.5v23.6c0,0.3-0.3,0.5-0.5,0.5h-4.2
		C490.5,470.2,490.2,470.1,490.2,469.8z"/>
	<path class="st6" d="M471.8,469.8v-23.6c0-0.3,0.3-0.5,0.5-0.5h4.2c0.3,0,0.5,0.3,0.5,0.5v23.6c0,0.3-0.3,0.5-0.5,0.5h-4.2
		C472,470.2,471.8,470.1,471.8,469.8z"/>
	<g>
		<path class="st5" d="M496,522.7H392.9c-2.8,0-5.2-2.3-5.2-5.2v-24.7c0-2.9,2.3-5.2,5.2-5.2H496c2.8,0,5.2,2.3,5.2,5.2v24.7
			C501.2,520.4,498.9,522.7,496,522.7z"/>
		<circle class="st6" cx="444.5" cy="504.6" r="7.2"/>
		<path class="st6" d="M402.9,516.9v-23.6c0-0.3,0.3-0.5,0.5-0.5h4.2c0.3,0,0.5,0.3,0.5,0.5v23.6c0,0.3-0.3,0.5-0.5,0.5h-4.2
			C403.2,517.4,402.9,517.2,402.9,516.9z"/>
		<path class="st6" d="M412.2,516.9v-23.6c0-0.3,0.3-0.5,0.5-0.5h4.2c0.3,0,0.5,0.3,0.5,0.5v23.6c0,0.3-0.3,0.5-0.5,0.5h-4.2
			C412.3,517.4,412.2,517.2,412.2,516.9z"/>
		<path class="st6" d="M393.7,516.9v-23.6c0-0.3,0.3-0.5,0.5-0.5h4.2c0.3,0,0.5,0.3,0.5,0.5v23.6c0,0.3-0.3,0.5-0.5,0.5h-4.2
			C393.9,517.4,393.7,517.2,393.7,516.9z"/>
		<path class="st6" d="M481,516.9v-23.6c0-0.3,0.3-0.5,0.5-0.5h4.2c0.3,0,0.5,0.3,0.5,0.5v23.6c0,0.3-0.3,0.5-0.5,0.5h-4.2
			C481.2,517.4,481,517.2,481,516.9z"/>
		<path class="st6" d="M490.2,516.9v-23.6c0-0.3,0.3-0.5,0.5-0.5h4.2c0.3,0,0.5,0.3,0.5,0.5v23.6c0,0.3-0.3,0.5-0.5,0.5h-4.2
			C490.5,517.4,490.2,517.2,490.2,516.9z"/>
		<path class="st6" d="M471.8,516.9v-23.6c0-0.3,0.3-0.5,0.5-0.5h4.2c0.3,0,0.5,0.3,0.5,0.5v23.6c0,0.3-0.3,0.5-0.5,0.5h-4.2
			C472,517.4,471.8,517.2,471.8,516.9z"/>
	</g>
	<path class="st5" d="M633.5,475.5H530.4c-2.8,0-5.2-2.3-5.2-5.2v-24.7c0-2.9,2.3-5.2,5.2-5.2h103.1c2.8,0,5.2,2.3,5.2,5.2v24.7
		C638.7,473.2,636.4,475.5,633.5,475.5z"/>
	<circle class="st6" cx="581.9" cy="457.4" r="7.2"/>
	<path class="st6" d="M540.4,469.8v-23.6c0-0.3,0.3-0.5,0.5-0.5h4.2c0.3,0,0.5,0.3,0.5,0.5v23.6c0,0.3-0.3,0.5-0.5,0.5h-4.2
		C540.6,470.2,540.4,470.1,540.4,469.8z"/>
	<path class="st6" d="M549.6,469.8v-23.6c0-0.3,0.3-0.5,0.5-0.5h4.2c0.3,0,0.5,0.3,0.5,0.5v23.6c0,0.3-0.3,0.5-0.5,0.5h-4.2
		C549.8,470.2,549.6,470.1,549.6,469.8z"/>
	<path class="st6" d="M531.1,469.8v-23.6c0-0.3,0.3-0.5,0.5-0.5h4.2c0.3,0,0.5,0.3,0.5,0.5v23.6c0,0.3-0.3,0.5-0.5,0.5h-4.2
		C531.4,470.2,531.1,470.1,531.1,469.8z"/>
	<path class="st6" d="M618.4,469.8v-23.6c0-0.3,0.3-0.5,0.5-0.5h4.2c0.3,0,0.5,0.3,0.5,0.5v23.6c0,0.3-0.3,0.5-0.5,0.5h-4.2
		C618.7,470.2,618.4,470.1,618.4,469.8z"/>
	<path class="st6" d="M627.7,469.8v-23.6c0-0.3,0.3-0.5,0.5-0.5h4.2c0.3,0,0.5,0.3,0.5,0.5v23.6c0,0.3-0.3,0.5-0.5,0.5h-4.2
		C627.9,470.2,627.7,470.1,627.7,469.8z"/>
	<path class="st6" d="M609.3,469.8v-23.6c0-0.3,0.3-0.5,0.5-0.5h4.2c0.3,0,0.5,0.3,0.5,0.5v23.6c0,0.3-0.3,0.5-0.5,0.5h-4.2
		C609.4,470.2,609.3,470.1,609.3,469.8z"/>
	<g>
		<path class="st5" d="M633.5,522.7H530.4c-2.8,0-5.2-2.3-5.2-5.2v-24.7c0-2.9,2.3-5.2,5.2-5.2h103.1c2.8,0,5.2,2.3,5.2,5.2v24.7
			C638.7,520.4,636.4,522.7,633.5,522.7z"/>
		<circle class="st6" cx="581.9" cy="504.6" r="7.2"/>
		<path class="st6" d="M540.4,516.9v-23.6c0-0.3,0.3-0.5,0.5-0.5h4.2c0.3,0,0.5,0.3,0.5,0.5v23.6c0,0.3-0.3,0.5-0.5,0.5h-4.2
			C540.6,517.4,540.4,517.2,540.4,516.9z"/>
		<path class="st6" d="M549.6,516.9v-23.6c0-0.3,0.3-0.5,0.5-0.5h4.2c0.3,0,0.5,0.3,0.5,0.5v23.6c0,0.3-0.3,0.5-0.5,0.5h-4.2
			C549.8,517.4,549.6,517.2,549.6,516.9z"/>
		<path class="st6" d="M531.1,516.9v-23.6c0-0.3,0.3-0.5,0.5-0.5h4.2c0.3,0,0.5,0.3,0.5,0.5v23.6c0,0.3-0.3,0.5-0.5,0.5h-4.2
			C531.4,517.4,531.1,517.2,531.1,516.9z"/>
		<path class="st6" d="M618.4,516.9v-23.6c0-0.3,0.3-0.5,0.5-0.5h4.2c0.3,0,0.5,0.3,0.5,0.5v23.6c0,0.3-0.3,0.5-0.5,0.5h-4.2
			C618.7,517.4,618.4,517.2,618.4,516.9z"/>
		<path class="st6" d="M627.7,516.9v-23.6c0-0.3,0.3-0.5,0.5-0.5h4.2c0.3,0,0.5,0.3,0.5,0.5v23.6c0,0.3-0.3,0.5-0.5,0.5h-4.2
			C627.9,517.4,627.7,517.2,627.7,516.9z"/>
		<path class="st6" d="M609.3,516.9v-23.6c0-0.3,0.3-0.5,0.5-0.5h4.2c0.3,0,0.5,0.3,0.5,0.5v23.6c0,0.3-0.3,0.5-0.5,0.5h-4.2
			C609.4,517.4,609.3,517.2,609.3,516.9z"/>
	</g>
</g>
<path class="st0" d="M1089.1,483.5v-2.9h28.8v2.9c0,1,1.2,1.5,2,0.8l4.3-4.2c0.4-0.4,0.4-1.2,0-1.6l-4.3-4.2c-0.7-0.7-2-0.2-2,0.8
	v3.2h-28.8V475c0-1-1.2-1.5-2-0.8l-4.3,4.2c-0.4,0.4-0.4,1.2,0,1.6l4.3,4.2C1087.9,485,1089.1,484.5,1089.1,483.5z"/>
<path class="st0" d="M790.7,483.5v-2.9h28.8v2.9c0,1,1.2,1.5,2,0.8l4.3-4.2c0.4-0.4,0.4-1.2,0-1.6l-4.3-4.2c-0.7-0.7-2-0.2-2,0.8
	v3.2h-28.8V475c0-1-1.2-1.5-2-0.8l-4.3,4.2c-0.4,0.4-0.4,1.2,0,1.6l4.3,4.2C789.4,485,790.7,484.5,790.7,483.5z"/>
<g>
	<rect x="1147.6" y="430.5" class="st7" width="80.3" height="94.3"/>
	<g>
		<g>
			<path class="st2" d="M1164.4,489.8c-0.7,0-1.3-0.2-1.8-0.3c-0.5-0.2-0.9-0.6-1.3-1.1c-0.3-0.4-0.6-1-0.8-1.7
				c-0.2-0.7-0.3-1.5-0.3-2.4c0-0.9,0.1-1.6,0.3-2.4c0.2-0.7,0.4-1.3,0.8-1.7c0.3-0.4,0.8-0.9,1.3-1.1c0.5-0.3,1.1-0.3,1.8-0.3
				c1.4,0,2.4,0.5,3.1,1.5c0.7,0.9,1,2.3,1,4.1c0,1.8-0.3,3.2-1,4.1C1166.8,489.4,1165.8,489.8,1164.4,489.8z M1164.4,488.2
				c0.3,0,0.7-0.1,0.9-0.2c0.3-0.1,0.4-0.3,0.6-0.6c0.2-0.3,0.3-0.6,0.3-0.9s0.1-0.8,0.1-1.3v-1.8c0-0.9-0.2-1.6-0.4-2.2
				c-0.3-0.6-0.8-0.8-1.5-0.8s-1.2,0.3-1.5,0.8c-0.3,0.5-0.4,1.3-0.4,2.2v1.9c0,0.9,0.2,1.6,0.4,2.2
				C1163.2,487.9,1163.7,488.2,1164.4,488.2z"/>
			<path class="st2" d="M1170.3,478.9h3.8c1,0,1.8,0.3,2.4,0.8c0.5,0.5,0.9,1.2,0.9,2.1c0,0.6-0.2,1.1-0.4,1.5
				c-0.3,0.3-0.7,0.6-1.3,0.8v0.1c0.7,0.2,1.1,0.4,1.5,0.9c0.4,0.4,0.6,0.9,0.6,1.7c0,0.4-0.1,0.9-0.3,1.2c-0.2,0.3-0.3,0.7-0.6,0.9
				c-0.3,0.3-0.6,0.4-1,0.6c-0.4,0.2-0.9,0.2-1.3,0.2h-4.1L1170.3,478.9L1170.3,478.9z M1173.6,483.5c0.5,0,0.9-0.1,1.2-0.3
				s0.4-0.5,0.4-1v-0.5c0-0.5-0.2-0.9-0.4-1s-0.7-0.3-1.2-0.3h-1.3v3.2L1173.6,483.5L1173.6,483.5z M1173.8,488.2
				c0.6,0,1-0.1,1.3-0.3c0.3-0.3,0.4-0.6,0.4-1.1v-0.5c0-0.5-0.2-0.9-0.4-1s-0.7-0.3-1.3-0.3h-1.5v3.3L1173.8,488.2L1173.8,488.2z"
				/>
			<path class="st2" d="M1186,478.9v7.8c0,0.5-0.1,0.9-0.3,1.3c-0.2,0.3-0.4,0.7-0.7,0.9s-0.7,0.5-1.1,0.6c-0.4,0.1-0.9,0.3-1.5,0.3
				c-1,0-1.8-0.3-2.4-0.8c-0.6-0.5-0.9-1.2-1.1-2.1l1.9-0.4c0.1,0.4,0.3,0.9,0.5,1.1s0.6,0.4,1.1,0.4c0.4,0,0.9-0.2,1-0.4
				c0.2-0.3,0.3-0.7,0.3-1.3v-5.9h-3.6v-1.6L1186,478.9L1186,478.9z"/>
			<path class="st2" d="M1188.8,489.7v-10.8h6.8v1.6h-4.8v2.8h4.6v1.6h-4.6v3h4.8v1.6L1188.8,489.7L1188.8,489.7z"/>
			<path class="st2" d="M1201.7,489.8c-1.4,0-2.5-0.5-3.2-1.5c-0.7-0.9-1-2.3-1-4.1c0-1.8,0.3-3.2,1-4.1c0.7-0.9,1.7-1.5,3.2-1.5
				c0.5,0,1,0.1,1.5,0.2c0.4,0.2,0.8,0.3,1,0.6s0.5,0.5,0.8,0.9c0.2,0.3,0.3,0.8,0.4,1.2l-1.9,0.5c-0.1-0.3-0.2-0.5-0.3-0.7
				c-0.1-0.2-0.2-0.4-0.3-0.6c-0.2-0.2-0.3-0.3-0.5-0.3c-0.2-0.1-0.4-0.2-0.8-0.2c-0.7,0-1.2,0.3-1.5,0.8c-0.3,0.5-0.4,1.3-0.4,2.2
				v1.9c0,0.9,0.2,1.6,0.4,2.2c0.3,0.5,0.8,0.8,1.5,0.8c0.3,0,0.5,0,0.8-0.2c0.2-0.1,0.3-0.2,0.5-0.3c0.2-0.2,0.3-0.3,0.3-0.6
				c0.1-0.3,0.2-0.4,0.3-0.7l1.9,0.5c-0.1,0.4-0.3,0.8-0.4,1.2c-0.2,0.3-0.4,0.7-0.8,0.9c-0.3,0.3-0.7,0.4-1,0.6
				C1202.7,489.7,1202.3,489.8,1201.7,489.8z"/>
			<path class="st2" d="M1211.7,480.6v9.1h-2v-9.1h-3.3v-1.6h8.5v1.6H1211.7z"/>
		</g>
	</g>
	
		<linearGradient id="SVGID_1_" gradientUnits="userSpaceOnUse" x1="1187.6584" y1="1680.9755" x2="1187.6584" y2="1765.4684" gradientTransform="matrix(1 0 0 -1 0 2212)">
		<stop  offset="0" style="stop-color:#10535A"/>
		<stop  offset="1" style="stop-color:#102E46"/>
	</linearGradient>
	<path class="st8" d="M1150,426.1c-3.9,0-7.1,3.2-7.1,7.1v90.7c0,3.9,3.2,7.1,7.1,7.1h75c3.9,0,7.1-3.2,7.1-7.1c0-4.8,0-9.7,0-14.5
		c0-10.3,0-20.5,0-30.8c0-7.1-0.2-14.2,0-21.2c0.2-6.5,0.4-13.3-0.2-19.7c-0.4-4.8-2.6-8.9-7.4-10.6c-0.7-0.3-1.4-0.4-2.1-0.6
		c-2.7-0.6-5.6-0.7-8.2-0.8L1150,426.1z M1223.5,517.5c0,3.4-2.7,6.2-6.2,6.2h-60.9c-3.4,0-6.2-2.7-6.2-6.2v-77.9
		c0-3.4,2.7-6.2,6.2-6.2h40.9v10.4c0,8.6,6.9,15.5,15.5,15.5h10.7L1223.5,517.5L1223.5,517.5z M1223.5,452.6h-10.7
		c-4.8,0-8.7-3.9-8.7-8.7v-10.4h13.3c3.4,0,6.2,2.7,6.2,6.2V452.6L1223.5,452.6z"/>
</g>
<g>
	<rect x="682.1" y="430.5" class="st7" width="80.3" height="94.3"/>
	<g>
		<g>
			<path class="st2" d="M699,489.8c-0.7,0-1.3-0.2-1.8-0.3c-0.5-0.2-0.9-0.6-1.3-1.1c-0.3-0.4-0.6-1-0.8-1.7
				c-0.2-0.7-0.3-1.5-0.3-2.4c0-0.9,0.1-1.6,0.3-2.4c0.2-0.7,0.4-1.3,0.8-1.7c0.3-0.4,0.8-0.9,1.3-1.1c0.5-0.3,1.1-0.3,1.8-0.3
				c1.4,0,2.4,0.5,3.1,1.5c0.7,0.9,1,2.3,1,4.1c0,1.8-0.3,3.2-1,4.1C701.4,489.4,700.4,489.8,699,489.8z M699,488.2
				c0.3,0,0.7-0.1,0.9-0.2c0.3-0.1,0.4-0.3,0.6-0.6s0.3-0.6,0.3-0.9c0.1-0.3,0.1-0.8,0.1-1.3v-1.8c0-0.9-0.2-1.6-0.4-2.2
				s-0.8-0.8-1.5-0.8c-0.8,0-1.2,0.3-1.5,0.8c-0.3,0.5-0.4,1.3-0.4,2.2v1.9c0,0.9,0.2,1.6,0.4,2.2
				C697.8,487.9,698.3,488.2,699,488.2z"/>
			<path class="st2" d="M704.9,478.9h3.8c1,0,1.8,0.3,2.4,0.8c0.5,0.5,0.9,1.2,0.9,2.1c0,0.6-0.2,1.1-0.4,1.5
				c-0.3,0.3-0.7,0.6-1.3,0.8v0.1c0.7,0.2,1.1,0.4,1.5,0.9s0.6,0.9,0.6,1.7c0,0.4-0.1,0.9-0.3,1.2c-0.2,0.3-0.3,0.7-0.6,0.9
				c-0.3,0.3-0.6,0.4-1,0.6c-0.4,0.2-0.9,0.2-1.3,0.2h-4.1L704.9,478.9L704.9,478.9z M708.2,483.5c0.5,0,0.9-0.1,1.2-0.3
				s0.4-0.5,0.4-1v-0.5c0-0.5-0.2-0.9-0.4-1s-0.7-0.3-1.2-0.3h-1.3v3.2L708.2,483.5L708.2,483.5z M708.4,488.2c0.6,0,1-0.1,1.3-0.3
				c0.3-0.3,0.4-0.6,0.4-1.1v-0.5c0-0.5-0.2-0.9-0.4-1s-0.7-0.3-1.3-0.3h-1.5v3.3L708.4,488.2L708.4,488.2z"/>
			<path class="st2" d="M720.6,478.9v7.8c0,0.5-0.1,0.9-0.3,1.3c-0.2,0.3-0.4,0.7-0.7,0.9c-0.3,0.3-0.7,0.5-1.1,0.6
				s-0.9,0.3-1.5,0.3c-1,0-1.8-0.3-2.4-0.8c-0.6-0.5-0.9-1.2-1.1-2.1l1.9-0.4c0.1,0.4,0.3,0.9,0.5,1.1c0.3,0.3,0.6,0.4,1.1,0.4
				c0.4,0,0.9-0.2,1-0.4s0.3-0.7,0.3-1.3v-5.9h-3.6v-1.6L720.6,478.9L720.6,478.9z"/>
			<path class="st2" d="M723.4,489.7v-10.8h6.8v1.6h-4.8v2.8h4.6v1.6h-4.6v3h4.8v1.6L723.4,489.7L723.4,489.7z"/>
			<path class="st2" d="M736.3,489.8c-1.4,0-2.5-0.5-3.2-1.5c-0.7-0.9-1-2.3-1-4.1c0-1.8,0.3-3.2,1-4.1c0.7-0.9,1.7-1.5,3.2-1.5
				c0.5,0,1,0.1,1.5,0.2c0.4,0.2,0.8,0.3,1,0.6c0.3,0.3,0.5,0.5,0.8,0.9c0.2,0.3,0.3,0.8,0.4,1.2l-1.9,0.5c-0.1-0.3-0.2-0.5-0.3-0.7
				s-0.2-0.4-0.3-0.6c-0.2-0.2-0.3-0.3-0.5-0.3c-0.2-0.1-0.4-0.2-0.8-0.2c-0.7,0-1.2,0.3-1.5,0.8c-0.3,0.5-0.4,1.3-0.4,2.2v1.9
				c0,0.9,0.2,1.6,0.4,2.2c0.3,0.5,0.8,0.8,1.5,0.8c0.3,0,0.5,0,0.8-0.2c0.2-0.1,0.3-0.2,0.5-0.3s0.3-0.3,0.3-0.6
				c0.1-0.3,0.2-0.4,0.3-0.7l1.9,0.5c-0.1,0.4-0.3,0.8-0.4,1.2c-0.2,0.3-0.4,0.7-0.8,0.9c-0.3,0.3-0.7,0.4-1,0.6
				C737.3,489.7,736.9,489.8,736.3,489.8z"/>
			<path class="st2" d="M746.3,480.6v9.1h-2v-9.1h-3.3v-1.6h8.5v1.6H746.3z"/>
		</g>
	</g>
	
		<linearGradient id="SVGID_00000016776578169122120360000011068221735943004802_" gradientUnits="userSpaceOnUse" x1="722.2519" y1="1680.9755" x2="722.2519" y2="1765.4684" gradientTransform="matrix(1 0 0 -1 0 2212)">
		<stop  offset="0" style="stop-color:#10535A"/>
		<stop  offset="1" style="stop-color:#102E46"/>
	</linearGradient>
	<path style="fill:url(#SVGID_00000016776578169122120360000011068221735943004802_);" d="M684.6,426.1c-3.9,0-7.1,3.2-7.1,7.1v90.7
		c0,3.9,3.2,7.1,7.1,7.1h75c3.9,0,7.1-3.2,7.1-7.1c0-4.8,0-9.7,0-14.5c0-10.3,0-20.5,0-30.8c0-7.1-0.2-14.2,0-21.2
		c0.2-6.5,0.4-13.3-0.2-19.7c-0.4-4.8-2.6-8.9-7.4-10.6c-0.7-0.3-1.4-0.4-2.1-0.6c-2.7-0.6-5.6-0.7-8.2-0.8L684.6,426.1z
		 M758.1,517.5c0,3.4-2.7,6.2-6.2,6.2h-60.9c-3.4,0-6.2-2.7-6.2-6.2v-77.9c0-3.4,2.7-6.2,6.2-6.2H732v10.4c0,8.6,6.9,15.5,15.5,15.5
		h10.7L758.1,517.5L758.1,517.5z M758.1,452.6h-10.7c-4.8,0-8.7-3.9-8.7-8.7v-10.4H752c3.4,0,6.2,2.7,6.2,6.2V452.6L758.1,452.6z"/>
</g>
<g>
	<rect x="680.1" y="672.7" class="st10" width="561" height="51"/>
	<g>
		<path class="st2" d="M733.7,695.3l-0.9,0.9c-0.8-0.9-1.9-1.5-3.3-1.5c-2.4,0-4.3,1.8-4.3,4.4c0,2.6,1.9,4.4,4.2,4.4
			c2.3,0,3.7-1.4,3.9-3.6h-3.3v-1.1h4.7c0,0.1,0,0.2,0,0.3c0,3.2-2,5.6-5.2,5.6c-2.8,0-5.6-2.1-5.6-5.6c0-3.3,2.4-5.6,5.6-5.6
			C731.2,693.5,732.6,694.2,733.7,695.3z"/>
		<path class="st2" d="M741.6,697.2l-0.3,1.1c-0.3-0.2-0.9-0.3-1.3-0.3c-1.1,0-2,0.9-2,2.3v4.1H737v-7.3h1.1v1
			c0.5-0.8,1.3-1.2,2.1-1.2C740.8,697,741.2,697,741.6,697.2z"/>
		<path class="st2" d="M749.5,700.8c0,0.2,0,0.3,0,0.4h-5.8c0.2,1.5,1.3,2.4,2.6,2.4c0.9,0,1.7-0.3,2.3-0.9l0.6,0.8
			c-0.9,0.9-1.9,1.1-3,1.1c-2.1,0-3.7-1.5-3.7-3.8c0-2.2,1.5-3.8,3.6-3.8C748,697,749.5,698.5,749.5,700.8z M743.7,700.2h4.7
			c-0.2-1.4-1-2.2-2.3-2.2C744.7,697.9,743.8,698.9,743.7,700.2z"/>
		<path class="st2" d="M758.2,700.8c0,0.2,0,0.3,0,0.4h-5.8c0.2,1.5,1.3,2.4,2.6,2.4c0.9,0,1.7-0.3,2.3-0.9l0.6,0.8
			c-0.9,0.9-1.9,1.1-3,1.1c-2.1,0-3.7-1.5-3.7-3.8c0-2.2,1.5-3.8,3.6-3.8C756.7,697,758.2,698.5,758.2,700.8z M752.3,700.2h4.7
			c-0.2-1.4-1-2.2-2.3-2.2C753.4,697.9,752.5,698.9,752.3,700.2z"/>
		<path class="st2" d="M767,699.9v4.5h-1.1v-4.1c0-1.4-0.8-2.2-2.1-2.2c-1.2,0-2.2,0.9-2.2,2.2v4.1h-1.1v-7.3h1.1v1
			c0.6-0.9,1.5-1.2,2.5-1.2C765.7,697,767,698.1,767,699.9z"/>
		<g>
			<path class="st2" d="M788.9,699.4h-6.7v-1h6.7V699.4z M788.9,702.3h-6.7v-1h6.7V702.3z"/>
			<path class="st2" d="M797.8,700.4v3.9h-2.1v-10.8h4.4c2.6,0,3.9,1.4,3.9,3.4c0,2.1-1.4,3.4-3.9,3.4H797.8L797.8,700.4z
				 M797.8,695.6v2.9h2.2c1.2,0,1.8-0.5,1.8-1.5s-0.6-1.5-1.8-1.5L797.8,695.6L797.8,695.6z"/>
			<path class="st2" d="M814.9,700.1c0,3-1.9,4.5-4.6,4.5s-4.6-1.5-4.6-4.5v-6.5h2.1v6.3c0,1.8,1,2.6,2.5,2.6c1.5,0,2.5-0.8,2.5-2.6
				v-6.3h2.1V700.1z"/>
			<path class="st2" d="M825.1,695.6h-3.3v8.7h-2.1v-8.7h-3.3v-2h8.8L825.1,695.6L825.1,695.6z"/>
		</g>
	</g>
	<g>
		<g>
			<path class="st2" d="M885.9,692.8c2.3,0,3.9,0.8,3.9,2.8c0,1.2-0.7,2.1-1.6,2.4c1.1,0.3,1.9,1.2,1.9,2.6c0,2.1-1.5,3-3.9,3h-4.5
				v-10.8L885.9,692.8L885.9,692.8z M883,693.9v3.6h2.9c1.5,0,2.7-0.3,2.7-1.8s-1.1-1.8-2.7-1.8H883L883,693.9z M883,698.6v3.8h3.1
				c1.6,0,2.7-0.4,2.7-1.9c0-1.5-1-1.9-2.7-1.9L883,698.6L883,698.6z"/>
			<path class="st2" d="M893.5,703.5h-1.1v-11.1h1.1V703.5z"/>
			<path class="st2" d="M902.7,700.5c0,2.1-1.5,3.2-3.3,3.2s-3.3-1-3.3-3.2v-4.3h1.1v4.1c0,1.5,0.9,2.2,2.1,2.2
				c1.2,0,2.1-0.7,2.1-2.2v-4.1h1.1L902.7,700.5L902.7,700.5z"/>
			<path class="st2" d="M911.9,699.9c0,0.2,0,0.3,0,0.4h-5.8c0.2,1.5,1.3,2.4,2.6,2.4c0.9,0,1.7-0.3,2.3-0.9l0.6,0.8
				c-0.9,0.9-1.9,1.1-3,1.1c-2.1,0-3.7-1.5-3.7-3.8c0-2.2,1.5-3.8,3.6-3.8C910.4,696.1,911.9,697.7,911.9,699.9z M906,699.4h4.7
				c-0.2-1.4-1-2.2-2.3-2.2C907.1,697.1,906.2,698,906,699.4z"/>
		</g>
		<g>
			<path class="st2" d="M945.7,698.5h-6.7v-1h6.7V698.5z M945.7,701.4h-6.7v-1h6.7V701.4z"/>
			<path class="st2" d="M956.9,692.8c2.6,0,3.9,1.2,3.9,3.3c0,1.8-1.2,3-3.3,3.2l3.3,4.4h-2.6l-3.2-4.3h-0.6v4.3h-2.1v-10.8H956.9z
				 M954.5,694.8v2.7h2.4c1.2,0,1.8-0.4,1.8-1.4c0-0.9-0.7-1.3-1.8-1.3H954.5z"/>
			<path class="st2" d="M970.9,703.5h-8.1v-10.8h8v2H965v2.4h5.6v2H965v2.5h5.9V703.5L970.9,703.5z"/>
			<path class="st2" d="M975.3,699.6v3.9h-2.1v-10.8h4.4c2.6,0,3.9,1.4,3.9,3.4c0,2.1-1.4,3.4-3.9,3.4H975.3L975.3,699.6z
				 M975.3,694.8v2.9h2.2c1.2,0,1.8-0.5,1.8-1.5c0-0.9-0.6-1.5-1.8-1.5L975.3,694.8L975.3,694.8z"/>
			<path class="st2" d="M991.1,703.5h-7.9v-10.8h2.1v8.7h5.7V703.5z"/>
			<path class="st2" d="M994.7,703.5h-2.1v-10.8h2.1V703.5z"/>
			<path class="st2" d="M1007,694.9l-1.9,1.1c-0.6-0.9-1.5-1.5-2.8-1.5c-2,0-3.4,1.5-3.4,3.5c0,2.1,1.5,3.5,3.4,3.5
				c1.2,0,2.1-0.5,2.8-1.5l1.8,1.3c-0.9,1.4-2.6,2.3-4.5,2.3c-3.3,0-5.7-2.4-5.7-5.6s2.3-5.6,5.7-5.6
				C1004.3,692.5,1006.1,693.5,1007,694.9z"/>
			<path class="st2" d="M1018.7,703.5h-2.3l-0.9-2.5h-4.6l-0.9,2.5h-2.2l4.2-10.8h2.7L1018.7,703.5z M1011.6,699h3.2l-1.5-4.2
				L1011.6,699z"/>
			<path class="st2" d="M1027,694.8h-3.3v8.7h-2.1v-8.7h-3.3v-2h8.8L1027,694.8L1027,694.8z"/>
			<path class="st2" d="M1030.6,703.5h-2.1v-10.8h2.1V703.5z"/>
			<path class="st2" d="M1043.9,698.2c0,3.3-2.4,5.6-5.7,5.6s-5.7-2.4-5.7-5.6c0-3.3,2.3-5.6,5.7-5.6
				C1041.6,692.6,1043.9,694.9,1043.9,698.2z M1034.8,698.2c0,2.1,1.5,3.5,3.4,3.5s3.4-1.5,3.4-3.5c0-2.1-1.5-3.5-3.4-3.5
				C1036.3,694.6,1034.8,696,1034.8,698.2z"/>
			<path class="st2" d="M1055.5,703.5h-2.1l-5.5-7.2v7.2h-2.1v-10.8h2l5.5,7.2v-7.2h2.1L1055.5,703.5L1055.5,703.5z"/>
		</g>
	</g>
	<g>
		<g>
			<path class="st2" d="M1120.1,697.1c0,3.3-2.4,5.6-5.6,5.6c-3.2,0-5.6-2.3-5.6-5.6s2.4-5.6,5.6-5.6
				C1117.8,691.5,1120.1,693.8,1120.1,697.1z M1110.3,697.1c0,2.6,1.9,4.4,4.3,4.4s4.3-1.8,4.3-4.4c0-2.6-1.9-4.4-4.3-4.4
				S1110.3,694.4,1110.3,697.1z"/>
			<path class="st2" d="M1127.1,695.2l-0.3,1.1c-0.3-0.2-0.9-0.3-1.3-0.3c-1.1,0-2,0.9-2,2.3v4.1h-1.1v-7.3h1.1v1
				c0.5-0.8,1.3-1.2,2.1-1.2C1126.3,695,1126.7,695,1127.1,695.2z"/>
			<path class="st2" d="M1135.5,702.4h-1.1v-1.1c-0.6,0.8-1.5,1.2-2.7,1.2c-2.1,0-3.7-1.6-3.7-3.8c0-2.2,1.6-3.8,3.7-3.8
				c1.2,0,2.1,0.5,2.7,1.2V695h1.1V702.4z M1129.1,698.8c0,1.5,1,2.7,2.6,2.7s2.6-1.2,2.6-2.7c0-1.5-1.1-2.7-2.6-2.7
				C1130.2,696.1,1129.1,697.3,1129.1,698.8z"/>
			<path class="st2" d="M1144.8,697.9v4.5h-1.1v-4.1c0-1.4-0.8-2.2-2.1-2.2c-1.2,0-2.2,0.9-2.2,2.2v4.1h-1.1v-7.3h1.1v1
				c0.6-0.9,1.5-1.2,2.5-1.2C1143.5,695,1144.8,696.1,1144.8,697.9z"/>
			<path class="st2" d="M1153,696.2v-1.1h1.1v6.8c0,2.4-1.6,3.7-3.9,3.7c-1.2,0-2.3-0.3-3.1-0.9l0.5-0.9c0.7,0.5,1.5,0.9,2.6,0.9
				c1.5,0,2.7-0.9,2.7-2.6v-0.8c-0.6,0.8-1.5,1.2-2.6,1.2c-2.1,0-3.6-1.5-3.6-3.8c0-2.2,1.5-3.8,3.6-3.8
				C1151.7,695,1152.5,695.5,1153,696.2z M1148,698.7c0,1.5,1,2.7,2.6,2.7c1.5,0,2.6-1.1,2.6-2.7c0-1.5-1-2.7-2.6-2.7
				C1149,696.1,1148,697.3,1148,698.7z"/>
			<path class="st2" d="M1163.4,698.8c0,0.2,0,0.3,0,0.4h-5.8c0.2,1.5,1.3,2.4,2.6,2.4c0.9,0,1.7-0.3,2.3-0.9l0.6,0.8
				c-0.9,0.9-1.9,1.1-3,1.1c-2.1,0-3.7-1.5-3.7-3.8c0-2.2,1.5-3.8,3.6-3.8C1161.9,695,1163.4,696.6,1163.4,698.8z M1157.6,698.3h4.7
				c-0.2-1.4-1-2.2-2.3-2.2C1158.6,696,1157.8,696.9,1157.6,698.3z"/>
		</g>
		<g>
			<path class="st2" d="M1182.7,697.4h-6.7v-1h6.7V697.4z M1182.7,700.3h-6.7v-1h6.7V700.3z"/>
			<path class="st2" d="M1198.5,693.1l-1.5,1.5c-0.6-0.7-1.5-1.1-2.6-1.1c-2,0-3.4,1.5-3.4,3.6c0,2.2,1.5,3.6,3.3,3.6
				s2.7-0.9,3.1-2.4h-2.7v-1.8h5c0,0.2,0,0.4,0,0.6c0,3.3-2.2,5.6-5.3,5.6c-3,0-5.7-2.1-5.7-5.6c0-3.3,2.4-5.6,5.7-5.6
				C1196.2,691.4,1197.6,692,1198.5,693.1z"/>
			<path class="st2" d="M1209.7,702.4h-8.1v-10.8h8v2h-5.8v2.4h5.6v2h-5.6v2.5h5.9V702.4L1209.7,702.4z"/>
			<path class="st2" d="M1219.8,693.7h-3.3v8.7h-2.1v-8.7h-3.3v-2h8.8L1219.8,693.7L1219.8,693.7z"/>
		</g>
	</g>
	<circle class="st11" cx="703.6" cy="698.3" r="5.1"/>
	<circle class="st0" cx="860.8" cy="698.3" r="5.1"/>
	<circle class="st12" cx="1088.7" cy="698" r="5.1"/>
</g>
<g>
	<path class="st12" d="M319.7,471.1v-2.9h28.8v2.9c0,1,1.2,1.5,2,0.8l4.3-4.2c0.4-0.4,0.4-1.2,0-1.6l-4.3-4.2c-0.7-0.7-2-0.2-2,0.8
		v3.2h-28.8v-3.2c0-1-1.2-1.5-2-0.8l-4.3,4.2c-0.4,0.4-0.4,1.2,0,1.6l4.3,4.2C318.4,472.6,319.7,472.1,319.7,471.1z"/>
	<path class="st11" d="M319.7,496.2v-2.9h28.8v2.9c0,1,1.2,1.5,2,0.8l4.3-4.2c0.4-0.4,0.4-1.2,0-1.6l-4.3-4.2c-0.7-0.7-2-0.2-2,0.8
		v3.2h-28.8v-3.2c0-1-1.2-1.5-2-0.8l-4.3,4.2c-0.4,0.4-0.4,1.2,0,1.6l4.3,4.2C318.4,497.8,319.7,497.3,319.7,496.2z"/>
</g>
<g>
	<path class="st4" d="M1868.9,520.1h-220.8c-6.2,0-11.2-5.1-11.2-11.2v-82.3c0-6.2,5.1-11.2,11.2-11.2h220.8
		c6.2,0,11.2,5.1,11.2,11.2V509C1880.1,515.2,1875.1,520.1,1868.9,520.1z"/>
	<path class="st4" d="M1878.3,533h-220.8c-6.2,0-11.2-5.1-11.2-11.2v-82.3c0-6.2,5.1-11.2,11.2-11.2h220.8c6.2,0,11.2,5.1,11.2,11.2
		v82.4C1889.6,528,1884.5,533,1878.3,533z"/>
	<path class="st4" d="M1887.8,545.8h-220.8c-6.2,0-11.2-5.1-11.2-11.2v-82.3c0-6.2,5.1-11.2,11.2-11.2h220.8
		c6.2,0,11.2,5.1,11.2,11.2v82.4C1899,540.9,1893.9,545.8,1887.8,545.8z"/>
	<g>
		<path class="st2" d="M1716.7,500.9h-3.2l-1.3-3.5h-6.4l-1.3,3.5h-3.1l5.8-15h3.6L1716.7,500.9z M1706.9,494.6h4.4l-2.1-5.8
			L1706.9,494.6z"/>
		<path class="st2" d="M1729.2,495.6c0,3.1-2.1,5.5-5.1,5.5c-1.4,0-2.4-0.5-3.1-1.4v5.4h-2.7v-14.6h2.7v1.1c0.7-0.9,1.7-1.5,3.1-1.5
			C1727.1,490.2,1729.2,492.6,1729.2,495.6z M1721.1,495.6c0,1.6,1.1,2.8,2.7,2.8c1.6,0,2.7-1.3,2.7-2.8c0-1.5-1-2.8-2.7-2.8
			S1721.1,494,1721.1,495.6z"/>
		<path class="st2" d="M1742.4,495.6c0,3.1-2.1,5.5-5.1,5.5c-1.4,0-2.4-0.5-3.1-1.4v5.4h-2.7v-14.6h2.7v1.1c0.7-0.9,1.7-1.5,3.1-1.5
			C1740.3,490.2,1742.4,492.6,1742.4,495.6z M1734.2,495.6c0,1.6,1.1,2.8,2.7,2.8c1.6,0,2.7-1.3,2.7-2.8c0-1.5-1-2.8-2.7-2.8
			C1735.3,492.8,1734.2,494,1734.2,495.6z"/>
		<path class="st2" d="M1747.5,500.9h-2.8v-15.4h2.8V500.9z"/>
		<path class="st2" d="M1753.5,487.1c0,1-0.8,1.8-1.8,1.8c-1,0-1.8-0.8-1.8-1.8c0-1,0.8-1.8,1.8-1.8
			C1752.8,485.3,1753.5,486.1,1753.5,487.1z M1753.2,500.9h-2.8v-10.4h2.8V500.9z"/>
		<path class="st2" d="M1765.2,492.1l-2,1.7c-0.6-0.7-1.3-1-2.2-1c-1.5,0-2.6,1.1-2.6,2.8s1.1,2.8,2.6,2.8c0.9,0,1.7-0.4,2.2-1
			l2,1.7c-0.9,1.3-2.4,2-4.2,2c-3.3,0-5.6-2.3-5.6-5.5s2.2-5.5,5.6-5.5C1762.8,490.2,1764.2,490.9,1765.2,492.1z"/>
		<path class="st2" d="M1777.2,500.9h-2.7v-1.1c-0.7,0.9-1.7,1.4-3.1,1.4c-2.8,0-5.1-2.3-5.1-5.5s2.1-5.5,5.1-5.5
			c1.5,0,2.4,0.6,3.1,1.5v-1.1h2.7V500.9z M1769.2,495.6c0,1.6,1,2.8,2.7,2.8s2.7-1.2,2.7-2.8c0-1.6-1.1-2.8-2.7-2.8
			C1770.2,492.8,1769.2,494.1,1769.2,495.6z"/>
		<path class="st2" d="M1787.6,493h-3.8v3.8c0,1.3,0.7,1.8,1.5,1.8c0.7,0,1.4-0.3,2-0.7l1,2.2c-0.9,0.6-2,1.1-3.4,1.1
			c-2.6,0-3.9-1.5-3.9-4.1v-4h-2v-2.5h2v-3.1h2.8v3.1h3.8L1787.6,493L1787.6,493z"/>
		<path class="st2" d="M1793.3,487.1c0,1-0.8,1.8-1.8,1.8s-1.8-0.8-1.8-1.8c0-1,0.8-1.8,1.8-1.8S1793.3,486.1,1793.3,487.1z
			 M1792.9,500.9h-2.8v-10.4h2.8V500.9z"/>
		<path class="st2" d="M1806.4,495.6c0,3.1-2.4,5.5-5.7,5.5c-3.3,0-5.6-2.3-5.6-5.5c0-3.2,2.4-5.5,5.6-5.5
			C1804,490.2,1806.4,492.6,1806.4,495.6z M1798.1,495.6c0,1.7,1.2,2.8,2.7,2.8c1.5,0,2.7-1.2,2.7-2.8c0-1.6-1.2-2.8-2.7-2.8
			C1799.3,492.8,1798.1,494,1798.1,495.6z"/>
		<path class="st2" d="M1818.5,494.3v6.6h-2.8v-5.7c0-1.5-0.8-2.3-2.1-2.3c-1.2,0-2.2,0.8-2.2,2.3v5.7h-2.8v-10.4h2.7v1.2
			c0.8-1.1,1.9-1.5,3.1-1.5C1816.8,490.2,1818.5,491.9,1818.5,494.3z"/>
		<path class="st2" d="M1833.5,487.8c-2.7,1.3-4.2,3.9-4.2,6.9c0,3,1.5,5.7,4.2,6.9l-0.9,2.5c-3.8-1.5-6.3-5.1-6.3-9.4
			c0-4.4,2.6-8,6.3-9.4L1833.5,487.8z"/>
		<path class="st2" d="M1842.9,493.4c-0.9-0.4-2.1-0.9-3.3-0.9c-1,0-1.6,0.3-1.6,0.9c0,0.6,0.8,0.8,1.7,0.9l0.9,0.2
			c2.2,0.3,3.5,1.4,3.5,3.1c0,2.1-1.7,3.5-4.8,3.5c-1.5,0-3.3-0.3-4.6-1.2l1.1-2.1c0.9,0.6,2,1,3.5,1c1.3,0,1.9-0.3,1.9-0.9
			c0-0.5-0.5-0.8-1.7-0.9l-0.9-0.1c-2.4-0.3-3.6-1.4-3.6-3.2c0-2.1,1.6-3.4,4.4-3.4c1.6,0,3,0.3,4.4,1L1842.9,493.4z"/>
		<path class="st2" d="M1845.4,501.7c2.7-1.3,4.2-3.9,4.2-6.9c0-3-1.5-5.7-4.2-6.9l0.9-2.5c3.8,1.5,6.3,5.1,6.3,9.4s-2.6,8-6.3,9.4
			L1845.4,501.7z"/>
	</g>
</g>
<g>
	<path class="st12" d="M1569.5,471.1v-2.9h28.8v2.9c0,1,1.2,1.5,2,0.8l4.3-4.2c0.4-0.4,0.4-1.2,0-1.6l-4.3-4.2c-0.7-0.7-2-0.2-2,0.8
		v3.2h-28.8v-3.2c0-1-1.2-1.5-2-0.8l-4.3,4.2c-0.4,0.4-0.4,1.2,0,1.6l4.3,4.2C1568.2,472.6,1569.5,472.1,1569.5,471.1z"/>
	<path class="st11" d="M1569.5,496.2v-2.9h28.8v2.9c0,1,1.2,1.5,2,0.8l4.3-4.2c0.4-0.4,0.4-1.2,0-1.6l-4.3-4.2c-0.7-0.7-2-0.2-2,0.8
		v3.2h-28.8v-3.2c0-1-1.2-1.5-2-0.8l-4.3,4.2c-0.4,0.4-0.4,1.2,0,1.6l4.3,4.2C1568.2,497.8,1569.5,497.3,1569.5,496.2z"/>
</g>
<g>
	<path class="st2" d="M1281.2,574.6h1.1v4.3h0.1c0.1-0.2,0.2-0.3,0.3-0.5s0.3-0.3,0.4-0.4c0.2-0.2,0.3-0.2,0.6-0.3s0.5-0.1,0.8-0.1
		c0.8,0,1.4,0.3,1.8,0.7c0.4,0.5,0.7,1.1,0.7,2v4.5h-1.2v-4.4c0-0.7-0.2-1.1-0.4-1.5c-0.3-0.3-0.7-0.5-1.3-0.5c-0.3,0-0.4,0-0.7,0.1
		c-0.2,0.1-0.4,0.2-0.6,0.3c-0.2,0.1-0.3,0.3-0.4,0.4c-0.1,0.2-0.2,0.3-0.2,0.6v5h-1.1L1281.2,574.6L1281.2,574.6z"/>
	<path class="st2" d="M1292.6,584.8c-0.5,0-0.9-0.2-1.2-0.4s-0.3-0.7-0.3-1.2v-4.5h-2.4v-0.9h1.8c0.3,0,0.4-0.1,0.5-0.2
		s0.2-0.3,0.2-0.5v-1.9h1v2.5h3.3v0.9h-3.3v5.2h3.3v0.9L1292.6,584.8L1292.6,584.8z"/>
	<path class="st2" d="M1301,584.8c-0.5,0-0.9-0.2-1.2-0.4s-0.4-0.7-0.4-1.2v-4.5h-2.4v-0.9h1.8c0.3,0,0.4-0.1,0.5-0.2
		c0.1-0.1,0.2-0.3,0.2-0.5v-1.9h1v2.5h3.3v0.9h-3.3v5.2h3.3v0.9L1301,584.8L1301,584.8z"/>
	<path class="st2" d="M1306.2,577.7h1.1v1.2h0.1c0.4-0.9,1.2-1.4,2.2-1.4c0.9,0,1.5,0.3,2.1,1s0.8,1.5,0.8,2.7s-0.3,2.1-0.8,2.7
		s-1.2,1-2.1,1c-1,0-1.7-0.4-2.2-1.4h-0.2v3.9h-1.1L1306.2,577.7L1306.2,577.7z M1309.1,584c0.7,0,1.1-0.2,1.5-0.6
		c0.3-0.4,0.5-0.9,0.5-1.5v-1.2c0-0.7-0.2-1.2-0.5-1.5c-0.3-0.3-0.9-0.6-1.5-0.6c-0.3,0-0.5,0-0.7,0.1c-0.3,0.1-0.4,0.2-0.6,0.3
		c-0.2,0.1-0.3,0.3-0.4,0.4c-0.2,0.2-0.2,0.4-0.2,0.6v2.6c0,0.3,0.1,0.4,0.2,0.6c0.1,0.2,0.3,0.3,0.4,0.4s0.3,0.3,0.6,0.3
		C1308.6,583.9,1308.8,584,1309.1,584z"/>
	<path class="st2" d="M1317.4,584.9c-0.8,0-1.4-0.2-2-0.3c-0.5-0.3-1-0.6-1.4-1l0.8-0.7c0.3,0.3,0.7,0.6,1.1,0.9
		c0.4,0.3,0.9,0.3,1.5,0.3s1-0.1,1.4-0.3c0.3-0.2,0.5-0.5,0.5-0.9c0-0.2,0-0.3-0.1-0.4c-0.1-0.2-0.2-0.3-0.3-0.3
		c-0.1,0-0.3-0.2-0.4-0.2c-0.2-0.1-0.3-0.1-0.4-0.1l-1.1-0.2c-0.3,0-0.5-0.1-0.9-0.2c-0.3-0.1-0.6-0.2-0.8-0.3
		c-0.3-0.2-0.4-0.3-0.6-0.6c-0.2-0.3-0.3-0.6-0.3-0.9s0.1-0.7,0.2-0.9c0.2-0.3,0.3-0.5,0.6-0.7c0.3-0.2,0.6-0.3,0.9-0.4
		c0.3-0.1,0.8-0.2,1.1-0.2c0.7,0,1.2,0.1,1.7,0.3c0.4,0.2,0.9,0.5,1.2,0.9l-0.7,0.7c-0.1-0.1-0.2-0.2-0.3-0.3
		c-0.2-0.1-0.3-0.2-0.4-0.3c-0.2-0.1-0.4-0.2-0.6-0.2c-0.3-0.1-0.5-0.1-0.9-0.1c-0.6,0-1,0.1-1.3,0.3s-0.4,0.5-0.4,0.9
		c0,0.2,0,0.3,0.1,0.4c0.1,0.2,0.2,0.3,0.3,0.3c0.1,0,0.3,0.2,0.4,0.2c0.2,0.1,0.3,0.1,0.4,0.1l1.1,0.2c0.3,0,0.5,0.1,0.9,0.2
		c0.3,0.1,0.5,0.2,0.8,0.3c0.3,0.2,0.4,0.3,0.6,0.6c0.2,0.3,0.3,0.6,0.3,0.9c0,0.7-0.3,1.3-0.9,1.6S1318.2,584.9,1317.4,584.9z"/>
	<path class="st2" d="M1325.6,579.5c-0.3,0-0.7-0.1-0.8-0.3c-0.1-0.2-0.3-0.3-0.3-0.6v-0.3c0-0.3,0.1-0.4,0.3-0.6s0.4-0.3,0.8-0.3
		s0.7,0.1,0.8,0.3c0.1,0.2,0.3,0.3,0.3,0.6v0.3c0,0.3-0.1,0.4-0.3,0.6C1326.2,579.4,1325.9,579.5,1325.6,579.5z M1325.6,584.9
		c-0.3,0-0.7-0.1-0.8-0.3c-0.1-0.2-0.3-0.3-0.3-0.6v-0.3c0-0.3,0.1-0.4,0.3-0.6c0.2-0.2,0.4-0.3,0.8-0.3s0.7,0.1,0.8,0.3
		c0.1,0.2,0.3,0.3,0.3,0.6v0.3c0,0.3-0.1,0.4-0.3,0.6C1326.2,584.9,1325.9,584.9,1325.6,584.9z"/>
	<path class="st2" d="M1331,586.7l4.8-12.4h1l-4.8,12.4H1331z"/>
	<path class="st2" d="M1339.3,586.7l4.8-12.4h1l-4.8,12.4H1339.3z"/>
	<path class="st2" d="M1347.1,584.8v-7.1h1v0.9h0.1c0.1-0.3,0.3-0.5,0.4-0.7c0.2-0.2,0.5-0.3,0.9-0.3c0.4,0,0.7,0.1,0.9,0.3
		c0.2,0.2,0.3,0.5,0.3,0.8l0,0c0.2-0.3,0.3-0.6,0.6-0.8s0.6-0.3,1-0.3c0.6,0,0.9,0.2,1.2,0.6c0.2,0.4,0.3,1,0.3,1.7v5h-1v-4.8
		c0-0.6-0.1-1-0.2-1.3s-0.3-0.3-0.7-0.3c-0.3,0-0.5,0.1-0.7,0.3c-0.2,0.2-0.3,0.5-0.3,0.9v5.2h-1V580c0-0.6-0.1-1-0.2-1.3
		c-0.1-0.3-0.3-0.3-0.7-0.3c-0.3,0-0.5,0.1-0.7,0.3s-0.3,0.5-0.3,0.9v5.2L1347.1,584.8L1347.1,584.8z"/>
	<path class="st2" d="M1356.2,583.8h2.6v-5.2h-2.6v-0.9h3.7v6.2h2.4v0.9h-6.1V583.8z M1359.3,576c-0.3,0-0.5-0.1-0.7-0.2
		c-0.2-0.1-0.2-0.3-0.2-0.5v-0.3c0-0.2,0.1-0.3,0.2-0.5c0.2-0.2,0.3-0.2,0.7-0.2s0.5,0.1,0.7,0.2c0.2,0.2,0.2,0.3,0.2,0.5v0.3
		c0,0.2-0.1,0.3-0.2,0.5C1359.9,576,1359.6,576,1359.3,576z"/>
	<path class="st2" d="M1364.3,584.8v-7.1h1.1v1.2h0.1c0.1-0.2,0.2-0.3,0.3-0.5c0.1-0.2,0.3-0.3,0.4-0.4s0.3-0.2,0.6-0.3
		s0.5-0.1,0.8-0.1c0.8,0,1.4,0.3,1.8,0.7c0.4,0.5,0.7,1.1,0.7,2v4.5h-1.1v-4.4c0-0.7-0.2-1.1-0.4-1.5c-0.3-0.3-0.7-0.5-1.3-0.5
		c-0.3,0-0.4,0-0.7,0.1c-0.2,0.1-0.4,0.2-0.6,0.3s-0.3,0.3-0.4,0.4c-0.1,0.2-0.2,0.3-0.2,0.6v5L1364.3,584.8L1364.3,584.8z"/>
	<path class="st2" d="M1372.8,583.8h2.6v-5.2h-2.6v-0.9h3.7v6.2h2.4v0.9h-6.1V583.8L1372.8,583.8z M1375.9,576
		c-0.3,0-0.5-0.1-0.7-0.2c-0.2-0.2-0.2-0.3-0.2-0.5v-0.3c0-0.2,0.1-0.3,0.2-0.5c0.2-0.2,0.3-0.2,0.7-0.2c0.3,0,0.5,0.1,0.7,0.2
		c0.2,0.2,0.2,0.3,0.2,0.5v0.3c0,0.2-0.1,0.3-0.2,0.5S1376.2,576,1375.9,576z"/>
	<path class="st2" d="M1383.8,584.9c-0.5,0-0.9-0.1-1.4-0.3c-0.4-0.2-0.8-0.4-1-0.8c-0.3-0.3-0.5-0.7-0.7-1.2
		c-0.2-0.4-0.3-0.9-0.3-1.5c0-0.6,0.1-1.1,0.3-1.5s0.3-0.9,0.7-1.2c0.3-0.3,0.6-0.6,1-0.8s0.9-0.3,1.4-0.3s0.9,0.1,1.4,0.3
		c0.4,0.2,0.8,0.4,1,0.8c0.3,0.3,0.5,0.7,0.7,1.2s0.3,0.9,0.3,1.5c0,0.6-0.1,1.1-0.3,1.5s-0.3,0.9-0.7,1.2c-0.3,0.3-0.6,0.6-1,0.8
		C1384.7,584.9,1384.3,584.9,1383.8,584.9z M1383.8,584c0.6,0,1.1-0.2,1.5-0.6c0.3-0.3,0.6-0.9,0.6-1.7v-1c0-0.8-0.2-1.4-0.6-1.7
		c-0.3-0.3-0.9-0.6-1.5-0.6s-1.1,0.2-1.5,0.6c-0.3,0.3-0.6,0.9-0.6,1.7v1c0,0.8,0.2,1.4,0.6,1.7C1382.6,583.8,1383.2,584,1383.8,584
		z"/>
	<path class="st2" d="M1390.1,581.2V580h4v1.2H1390.1z"/>
	<path class="st2" d="M1400.4,584.9c-0.6,0-1.1-0.1-1.5-0.3c-0.4-0.3-0.8-0.5-1-0.9c-0.3-0.4-0.5-0.9-0.6-1.5
		c-0.2-0.6-0.2-1.4-0.2-2.1c0-0.8,0.1-1.5,0.2-2.1c0.2-0.6,0.3-1.1,0.6-1.5c0.3-0.4,0.6-0.8,1-0.9c0.4-0.2,0.9-0.3,1.5-0.3
		s1.1,0.1,1.5,0.3c0.4,0.3,0.8,0.5,1,0.9c0.3,0.4,0.5,0.9,0.6,1.5c0.1,0.6,0.2,1.4,0.2,2.1c0,0.8-0.1,1.5-0.2,2.1
		c-0.2,0.6-0.3,1.1-0.6,1.5c-0.3,0.4-0.6,0.8-1,0.9C1401.5,584.8,1401,584.9,1400.4,584.9z M1400.4,583.9c0.4,0,0.7-0.1,1-0.3
		c0.3-0.2,0.5-0.3,0.7-0.7c0.2-0.3,0.3-0.6,0.3-1c0.1-0.4,0.2-0.9,0.2-1.3v-1.5c0-0.5,0-0.9-0.2-1.3c-0.1-0.4-0.2-0.8-0.3-1
		c-0.2-0.3-0.4-0.5-0.7-0.7c-0.3-0.2-0.6-0.3-1-0.3c-0.4,0-0.7,0.1-1,0.3c-0.3,0.2-0.5,0.3-0.7,0.7s-0.3,0.6-0.4,1
		c-0.1,0.4-0.2,0.9-0.2,1.3v1.5c0,0.5,0,0.9,0.2,1.3c0.1,0.4,0.2,0.7,0.4,1c0.2,0.3,0.4,0.5,0.7,0.7
		C1399.7,583.9,1400,583.9,1400.4,583.9z M1400.4,580.7c-0.3,0-0.5-0.1-0.7-0.2c-0.2-0.2-0.2-0.3-0.2-0.5v-0.3
		c0-0.2,0.1-0.3,0.2-0.5c0.1-0.2,0.3-0.2,0.7-0.2s0.5,0.1,0.7,0.2c0.2,0.1,0.2,0.3,0.2,0.5v0.3c0,0.2-0.1,0.3-0.2,0.5
		C1401,580.7,1400.7,580.7,1400.4,580.7z"/>
	<path class="st2" d="M1412,584.8h-6.4v-1.2l3.3-2.9c0.4-0.4,0.9-0.9,1.2-1.3c0.3-0.4,0.4-0.9,0.4-1.5v-0.2c0-0.6-0.2-1-0.4-1.4
		c-0.3-0.3-0.8-0.5-1.4-0.5s-1,0.2-1.4,0.4c-0.3,0.3-0.6,0.7-0.7,1.2l-1-0.3c0.1-0.3,0.3-0.6,0.4-0.9s0.3-0.5,0.6-0.7
		s0.5-0.3,0.9-0.5c0.4-0.2,0.8-0.2,1.3-0.2s0.9,0.1,1.3,0.2s0.7,0.3,0.9,0.6s0.4,0.5,0.6,0.9c0.2,0.3,0.2,0.7,0.2,1.1
		c0,0.3-0.1,0.7-0.2,1c-0.1,0.3-0.3,0.6-0.4,0.9c-0.2,0.3-0.4,0.6-0.7,0.9s-0.6,0.6-0.9,0.9l-2.7,2.4h5.2L1412,584.8L1412,584.8z"/>
	<path class="st2" d="M1417,584.9c-0.3,0-0.7-0.1-0.8-0.3c-0.1-0.2-0.3-0.3-0.3-0.6v-0.3c0-0.3,0.1-0.4,0.3-0.6
		c0.2-0.2,0.4-0.3,0.8-0.3c0.3,0,0.7,0.1,0.8,0.3c0.1,0.2,0.3,0.3,0.3,0.6v0.3c0,0.3-0.1,0.4-0.3,0.6
		C1417.6,584.9,1417.4,584.9,1417,584.9z"/>
	<path class="st2" d="M1425.5,584.9c-0.5,0-1-0.1-1.4-0.3c-0.4-0.2-0.8-0.4-1-0.8c-0.3-0.3-0.5-0.7-0.7-1.2
		c-0.2-0.4-0.3-0.9-0.3-1.5c0-0.6,0.1-1.1,0.3-1.5s0.4-0.9,0.7-1.2s0.6-0.6,1-0.8c0.4-0.2,0.9-0.3,1.4-0.3s0.9,0.1,1.3,0.3
		c0.4,0.2,0.7,0.4,1,0.7s0.5,0.7,0.6,1.1c0.1,0.4,0.3,0.9,0.3,1.4v0.5h-5.3v0.3c0,0.3,0.1,0.6,0.2,0.9s0.3,0.5,0.4,0.7
		c0.2,0.2,0.4,0.3,0.7,0.4s0.6,0.2,0.9,0.2c0.5,0,0.9-0.1,1.3-0.3c0.3-0.3,0.6-0.5,0.8-0.9l0.9,0.6c-0.2,0.5-0.6,0.9-1,1.2
		C1426.8,584.8,1426.2,584.9,1425.5,584.9z M1425.4,578.3c-0.3,0-0.6,0.1-0.9,0.2s-0.5,0.3-0.7,0.4c-0.2,0.2-0.3,0.4-0.4,0.7
		c-0.1,0.3-0.2,0.5-0.2,0.9v0.1h4.1v-0.2c0-0.3-0.1-0.6-0.2-0.9c-0.1-0.3-0.3-0.5-0.4-0.7c-0.2-0.2-0.3-0.3-0.6-0.4
		C1426,578.4,1425.6,578.3,1425.4,578.3z"/>
	<path class="st2" d="M1430.4,584.8l2.7-3.6l-2.6-3.5h1.3l1.1,1.5l0.9,1.2h0.1l0.9-1.2l1-1.5h1.3l-2.7,3.5l2.7,3.6h-1.3l-1.2-1.7
		l-0.9-1.1h-0.1l-0.8,1.1l-1.2,1.7H1430.4L1430.4,584.8z"/>
	<path class="st2" d="M1444.7,584.8c-0.4,0-0.8-0.1-0.9-0.3c-0.2-0.3-0.3-0.5-0.3-0.9h-0.1c-0.2,0.4-0.4,0.8-0.8,0.9
		s-0.9,0.3-1.4,0.3c-0.8,0-1.4-0.2-1.8-0.6c-0.4-0.4-0.7-0.9-0.7-1.6c0-0.7,0.3-1.2,0.7-1.5c0.5-0.3,1.3-0.5,2.3-0.5h1.5v-0.7
		c0-0.5-0.2-0.9-0.4-1.2s-0.7-0.4-1.3-0.4c-0.5,0-0.9,0.1-1.2,0.3s-0.5,0.4-0.8,0.8l-0.8-0.6c0.1-0.2,0.2-0.3,0.3-0.5
		s0.3-0.3,0.6-0.5s0.5-0.3,0.8-0.3s0.6-0.1,1-0.1c0.9,0,1.5,0.2,2,0.7c0.4,0.5,0.8,1,0.8,1.8v3.9h1v0.9L1444.7,584.8L1444.7,584.8z
		 M1441.4,584c0.3,0,0.5,0,0.8-0.1s0.4-0.2,0.6-0.3c0.2-0.1,0.3-0.3,0.4-0.4c0.1-0.2,0.2-0.3,0.2-0.5v-1.2h-1.5
		c-0.7,0-1.1,0.1-1.5,0.3c-0.3,0.2-0.4,0.4-0.4,0.8v0.3c0,0.3,0.2,0.7,0.4,0.9S1440.9,584,1441.4,584z"/>
	<path class="st2" d="M1446.9,584.8v-7.1h1v0.9h0.1c0.1-0.3,0.3-0.5,0.4-0.7c0.2-0.2,0.5-0.3,0.9-0.3c0.4,0,0.7,0.1,0.9,0.3
		c0.2,0.2,0.3,0.5,0.3,0.8l0,0c0.2-0.3,0.3-0.6,0.6-0.8c0.3-0.2,0.6-0.3,1-0.3c0.6,0,0.9,0.2,1.2,0.6c0.2,0.4,0.3,1,0.3,1.7v5h-1
		v-4.8c0-0.6-0.1-1-0.2-1.3s-0.3-0.3-0.7-0.3c-0.3,0-0.5,0.1-0.7,0.3c-0.2,0.2-0.3,0.5-0.3,0.9v5.2h-1V580c0-0.6-0.1-1-0.2-1.3
		s-0.3-0.3-0.7-0.3c-0.3,0-0.5,0.1-0.7,0.3c-0.2,0.2-0.3,0.5-0.3,0.9v5.2L1446.9,584.8L1446.9,584.8z"/>
	<path class="st2" d="M1455.8,577.7h1.1v1.2h0.1c0.4-0.9,1.2-1.4,2.2-1.4c0.9,0,1.5,0.3,2.1,1c0.5,0.7,0.8,1.5,0.8,2.7
		s-0.3,2.1-0.8,2.7c-0.5,0.7-1.2,1-2.1,1c-1,0-1.7-0.4-2.2-1.4h-0.1v3.9h-1.1V577.7z M1458.7,584c0.7,0,1.1-0.2,1.5-0.6
		c0.3-0.4,0.5-0.9,0.5-1.5v-1.2c0-0.7-0.2-1.2-0.5-1.5c-0.3-0.3-0.9-0.6-1.5-0.6c-0.3,0-0.5,0-0.7,0.1c-0.3,0.1-0.4,0.2-0.6,0.3
		c-0.2,0.1-0.3,0.3-0.4,0.4c-0.2,0.2-0.2,0.4-0.2,0.6v2.6c0,0.3,0.1,0.4,0.2,0.6s0.3,0.3,0.4,0.4c0.2,0.1,0.3,0.3,0.6,0.3
		C1458.2,583.9,1458.4,584,1458.7,584z"/>
	<path class="st2" d="M1463.8,583.8h2.5v-8.3h-2.5v-0.9h3.6v9.3h2.5v0.9h-6.1V583.8L1463.8,583.8z"/>
	<path class="st2" d="M1475.3,584.9c-0.5,0-1-0.1-1.4-0.3c-0.4-0.2-0.8-0.4-1-0.8c-0.3-0.3-0.5-0.7-0.7-1.2
		c-0.2-0.4-0.3-0.9-0.3-1.5c0-0.6,0.1-1.1,0.3-1.5s0.4-0.9,0.7-1.2s0.6-0.6,1-0.8c0.4-0.2,0.9-0.3,1.4-0.3s0.9,0.1,1.3,0.3
		c0.4,0.2,0.7,0.4,1,0.7c0.3,0.3,0.5,0.7,0.6,1.1c0.1,0.4,0.3,0.9,0.3,1.4v0.5h-5.3v0.3c0,0.3,0.1,0.6,0.2,0.9s0.3,0.5,0.4,0.7
		c0.2,0.2,0.4,0.3,0.7,0.4s0.6,0.2,0.9,0.2c0.5,0,0.9-0.1,1.3-0.3c0.3-0.3,0.6-0.5,0.8-0.9l0.9,0.6c-0.2,0.5-0.6,0.9-1,1.2
		C1476.7,584.8,1476.1,584.9,1475.3,584.9z M1475.2,578.3c-0.3,0-0.6,0.1-0.9,0.2s-0.5,0.3-0.7,0.4s-0.3,0.4-0.4,0.7
		c-0.1,0.3-0.2,0.5-0.2,0.9v0.1h4.1v-0.2c0-0.3-0.1-0.6-0.2-0.9c-0.1-0.3-0.3-0.5-0.4-0.7c-0.2-0.2-0.3-0.3-0.6-0.4
		C1475.8,578.4,1475.6,578.3,1475.2,578.3z"/>
	<path class="st2" d="M1483.5,584.9c-0.3,0-0.7-0.1-0.8-0.3c-0.1-0.2-0.3-0.3-0.3-0.6v-0.3c0-0.3,0.1-0.4,0.3-0.6
		c0.2-0.2,0.4-0.3,0.8-0.3s0.7,0.1,0.8,0.3c0.1,0.2,0.3,0.3,0.3,0.6v0.3c0,0.3-0.1,0.4-0.3,0.6S1483.9,584.9,1483.5,584.9z"/>
	<path class="st2" d="M1489,584.8v-7.1h1.1v1.2h0.1c0.1-0.2,0.2-0.3,0.3-0.5c0.1-0.2,0.3-0.3,0.4-0.4c0.2-0.2,0.3-0.2,0.6-0.3
		s0.5-0.1,0.8-0.1c0.8,0,1.4,0.3,1.8,0.7c0.4,0.5,0.7,1.1,0.7,2v4.5h-1.1v-4.4c0-0.7-0.2-1.1-0.4-1.5c-0.3-0.3-0.7-0.5-1.3-0.5
		c-0.3,0-0.4,0-0.7,0.1c-0.2,0.1-0.4,0.2-0.6,0.3c-0.2,0.1-0.3,0.3-0.4,0.4c-0.1,0.2-0.2,0.3-0.2,0.6v5L1489,584.8L1489,584.8z"/>
	<path class="st2" d="M1500.2,584.9c-0.5,0-1-0.1-1.4-0.3c-0.3-0.2-0.8-0.4-1-0.8c-0.3-0.3-0.5-0.7-0.7-1.2
		c-0.2-0.4-0.3-0.9-0.3-1.5c0-0.6,0.1-1.1,0.3-1.5c0.2-0.4,0.4-0.9,0.7-1.2s0.6-0.6,1-0.8c0.4-0.2,0.9-0.3,1.4-0.3s0.9,0.1,1.3,0.3
		c0.4,0.2,0.7,0.4,1,0.7s0.5,0.7,0.6,1.1s0.3,0.9,0.3,1.4v0.5h-5.3v0.3c0,0.3,0.1,0.6,0.2,0.9c0.1,0.3,0.3,0.5,0.4,0.7
		c0.2,0.2,0.4,0.3,0.7,0.4s0.6,0.2,0.9,0.2c0.5,0,0.9-0.1,1.3-0.3c0.3-0.3,0.6-0.5,0.8-0.9l0.9,0.6c-0.2,0.5-0.6,0.9-1,1.2
		C1501.6,584.8,1501,584.9,1500.2,584.9z M1500.2,578.3c-0.3,0-0.6,0.1-0.9,0.2s-0.5,0.3-0.7,0.4s-0.3,0.4-0.4,0.7
		c-0.1,0.3-0.2,0.5-0.2,0.9v0.1h4.1v-0.2c0-0.3-0.1-0.6-0.2-0.9c-0.1-0.3-0.3-0.5-0.4-0.7c-0.2-0.2-0.3-0.3-0.6-0.4
		C1500.8,578.4,1500.5,578.3,1500.2,578.3z"/>
	<path class="st2" d="M1508.8,584.8c-0.5,0-0.9-0.2-1.2-0.4s-0.4-0.7-0.4-1.2v-4.5h-2.4v-0.9h1.8c0.3,0,0.4-0.1,0.5-0.2
		c0.1-0.1,0.2-0.3,0.2-0.5v-1.9h1v2.5h3.3v0.9h-3.3v5.2h3.3v0.9L1508.8,584.8L1508.8,584.8z"/>
</g>
</svg>
