<?xml version="1.0" encoding="utf-8"?>
<!-- Generator: Adobe Illustrator 26.3.1, SVG Export Plug-In . SVG Version: 6.00 Build 0)  -->
<svg version="1.1" id="Capa_1" xmlns="http://www.w3.org/2000/svg" xmlns:xlink="http://www.w3.org/1999/xlink" x="0px" y="0px"
	 viewBox="0 0 1315.7 1646.6" style="enable-background:new 0 0 1315.7 1646.6;" xml:space="preserve">
<style type="text/css">
	.st0{fill:#2680AF;}
	.st1{fill:#F9F9F9;stroke:#C1C1C1;stroke-width:5;stroke-miterlimit:10;}
	.st2{fill:#434343;}
	.st3{fill:#F5F5F5;}
	.st4{fill:#FFFFFF;stroke:#434343;stroke-width:2;stroke-miterlimit:10;}
	.st5{fill:#C83B51;}
	.st6{fill:#FFFFFF;}
	.st7{fill:#7FC63C;}
	.st8{opacity:9.000000e-02;fill:#2680AF;enable-background:new    ;}
	.st9{fill:url(#SVGID_1_);}
	.st10{fill:#D88A3D;}
	.st11{fill:url(#SVGID_00000089549668023984832160000008794665285388065431_);}
	.st12{fill:url(#SVGID_00000040546515048258803500000007319008231245139125_);}
	.st13{fill:#F9F9F9;stroke:#C1C1C1;stroke-miterlimit:10;stroke-dasharray:7;}
</style>
<path class="st0" d="M-7021.5-1661.6v206.8h3.9c1.2,0,1.8,1.4,0.9,2.3l-4.9,4.9c-0.5,0.5-1.4,0.5-1.9,0l-4.9-4.9
	c-0.8-0.8-0.2-2.3,0.9-2.3h4v-206.8H-7021.5z"/>
<path class="st1" d="M570.9,886.4c-29.3,0-53.2-23.8-53.2-53.2s23.8-53.2,53.2-53.2c2.9,0,5.7,0.2,8.4,0.7
	c8.8-29.5,36.2-51.1,68.6-51.1c39.5,0,71.5,32,71.5,71.5c0,1.1,0,2.2-0.1,3.4c5.6-2.6,11.9-4,18.5-4c24.5,0,44.3,19.8,44.3,44.3
	c0,24.5-19.8,44.3-44.3,44.3L570.9,886.4z"/>
<g>
	<path class="st2" d="M599.5,841.6h-4.6l-12.4-16.4l0,16.4h-4.9v-24.5h4.6l12.4,16.4v-16.4h4.9L599.5,841.6L599.5,841.6z"/>
	<path class="st2" d="M620.4,833.1c0,0.5,0,1.2-0.1,1.5h-12c0.5,2.5,2.2,3.5,4.4,3.5c1.5,0,3.1-0.6,4.3-1.6l2.7,2.9
		c-1.9,1.8-4.4,2.6-7.2,2.6c-5.2,0-8.8-3.5-8.8-8.9c0-5.3,3.5-9,8.6-9C617,824.2,620.4,827.8,620.4,833.1z M608.3,831.6h7.5
		c-0.4-2.2-1.7-3.4-3.7-3.4C610,828.2,608.7,829.5,608.3,831.6z"/>
	<path class="st2" d="M636.3,828.7h-6.1v6.2c0,2.1,1.1,2.9,2.5,2.9c1.1,0,2.3-0.5,3.2-1.1l1.7,3.6c-1.5,1-3.2,1.8-5.6,1.8
		c-4.2,0-6.3-2.4-6.3-6.8v-6.6h-3.3v-4.1h3.3v-5h4.6v5h6.1L636.3,828.7L636.3,828.7z"/>
	<path class="st2" d="M659.1,836.6l3.6-11.9h4.8l-5.7,17h-5.2l-3.8-11.5l-3.7,11.5h-5.2l-5.7-17h4.9l3.6,11.8l3.8-11.8h4.8
		L659.1,836.6z"/>
	<path class="st2" d="M687.3,833.2c0,5.1-3.9,8.9-9.2,8.9c-5.3,0-9.2-3.8-9.2-8.9s3.9-8.9,9.2-8.9
		C683.4,824.2,687.3,828,687.3,833.2z M673.7,833.2c0,2.8,1.9,4.7,4.5,4.7s4.5-1.9,4.5-4.7s-1.9-4.7-4.5-4.7
		C675.6,828.5,673.7,830.4,673.7,833.2z"/>
	<path class="st2" d="M702.7,824.6l-0.7,4.5c-0.8-0.3-1.8-0.5-2.8-0.5c-2.1,0-3.6,1.3-3.6,3.8v9.2h-4.6v-17h4.4v1.8
		c1.1-1.6,2.7-2.3,4.8-2.3C701.2,824.2,702,824.4,702.7,824.6z"/>
	<path class="st2" d="M710.3,830.7h1.6l4.8-6h5.6l-6.7,8l6.7,9h-5.6l-4.9-6.9h-1.5v6.9h-4.6v-25.2h4.6V830.7z"/>
</g>
<path class="st3" d="M800,492.1H493.4c-4.9,0-9-4-9-9v-37.5c0-4.9,4-9,9-9H800c4.9,0,9,4,9,9v37.5C809,488.1,805,492.1,800,492.1z"
	/>
<g>
	<path class="st4" d="M766.9,162.9H509.1c-7.2,0-13.1-5.9-13.1-13.1V53.7c0-7.2,5.9-13.1,13.1-13.1h257.8c7.2,0,13.1,5.9,13.1,13.1
		v96.2C780,157.1,774.1,162.9,766.9,162.9z"/>
	<path class="st4" d="M777.9,177.9H520.1c-7.2,0-13.1-5.9-13.1-13.1V68.7c0-7.2,5.9-13.1,13.1-13.1h257.8c7.2,0,13.1,5.9,13.1,13.1
		v96.2C791,172.1,785.1,177.9,777.9,177.9z"/>
	<path class="st4" d="M788.9,192.9H531.1c-7.2,0-13.1-5.9-13.1-13.1V83.7c0-7.2,5.9-13.1,13.1-13.1h257.8c7.2,0,13.1,5.9,13.1,13.1
		v96.2C802,187.1,796.1,192.9,788.9,192.9z"/>
	<g>
		<path class="st2" d="M589.1,140.4h-3.7l-1.5-4.1h-7.5l-1.5,4.1h-3.6l6.8-17.5h4.2L589.1,140.4z M577.6,133.1h5.1l-2.5-6.8
			L577.6,133.1z"/>
		<path class="st2" d="M603.8,134.3c0,3.6-2.5,6.4-5.9,6.4c-1.6,0-2.8-0.6-3.6-1.6v6.3h-3.2v-17.1h3.2v1.3c0.8-1,2-1.7,3.6-1.7
			C601.3,128,603.8,130.7,603.8,134.3z M594.2,134.3c0,1.9,1.3,3.3,3.1,3.3c1.9,0,3.1-1.5,3.1-3.3s-1.2-3.3-3.1-3.3
			C595.5,131,594.2,132.4,594.2,134.3z"/>
		<path class="st2" d="M619.1,134.3c0,3.6-2.5,6.4-5.9,6.4c-1.6,0-2.8-0.6-3.6-1.6v6.3h-3.2v-17.1h3.2v1.3c0.8-1,2-1.7,3.6-1.7
			C616.6,128,619.1,130.7,619.1,134.3z M609.5,134.3c0,1.9,1.3,3.3,3.1,3.3c1.9,0,3.1-1.5,3.1-3.3s-1.2-3.3-3.1-3.3
			C610.8,131,609.5,132.4,609.5,134.3z"/>
		<path class="st2" d="M625.1,140.4h-3.3v-18h3.3V140.4z"/>
		<path class="st2" d="M632.2,124.3c0,1.2-0.9,2.1-2.1,2.1s-2.1-0.9-2.1-2.1s0.9-2.1,2.1-2.1S632.2,123.2,632.2,124.3z M631.8,140.4
			h-3.3v-12.1h3.3V140.4z"/>
		<path class="st2" d="M645.7,130.2l-2.3,2c-0.7-0.8-1.5-1.2-2.6-1.2c-1.7,0-3,1.3-3,3.3c0,2,1.3,3.3,3,3.3c1,0,2-0.5,2.6-1.2l2.3,2
			c-1.1,1.5-2.8,2.3-4.9,2.3c-3.9,0-6.5-2.7-6.5-6.4c0-3.7,2.6-6.4,6.5-6.4C642.9,128,644.6,128.8,645.7,130.2z"/>
		<path class="st2" d="M659.8,140.4h-3.2v-1.3c-0.8,1-2,1.6-3.6,1.6c-3.3,0-5.9-2.7-5.9-6.4s2.5-6.4,5.9-6.4c1.7,0,2.8,0.7,3.6,1.7
			v-1.3h3.2V140.4z M650.4,134.3c0,1.9,1.2,3.3,3.1,3.3c1.9,0,3.1-1.4,3.1-3.3s-1.3-3.3-3.1-3.3C651.6,131,650.4,132.5,650.4,134.3z
			"/>
		<path class="st2" d="M672,131.2h-4.4v4.4c0,1.5,0.8,2.1,1.8,2.1c0.8,0,1.6-0.4,2.3-0.8l1.2,2.6c-1.1,0.7-2.3,1.3-4,1.3
			c-3,0-4.5-1.7-4.5-4.8v-4.7H662v-2.9h2.3v-3.6h3.3v3.6h4.4L672,131.2L672,131.2z"/>
		<path class="st2" d="M678.5,124.3c0,1.2-0.9,2.1-2.1,2.1s-2.1-0.9-2.1-2.1s0.9-2.1,2.1-2.1S678.5,123.2,678.5,124.3z M678.1,140.4
			h-3.3v-12.1h3.3V140.4z"/>
		<path class="st2" d="M693.9,134.3c0,3.6-2.8,6.4-6.6,6.4c-3.8,0-6.5-2.7-6.5-6.4s2.8-6.4,6.5-6.4
			C691.1,128,693.9,130.7,693.9,134.3z M684.1,134.3c0,2,1.4,3.3,3.2,3.3s3.2-1.4,3.2-3.3s-1.4-3.3-3.2-3.3S684.1,132.4,684.1,134.3
			z"/>
		<path class="st2" d="M708,132.7v7.7h-3.3v-6.7c0-1.8-0.9-2.7-2.4-2.7c-1.4,0-2.6,0.9-2.6,2.7v6.6h-3.3v-12.1h3.2v1.4
			c0.9-1.3,2.2-1.8,3.6-1.8C706,128,708,129.9,708,132.7z"/>
		<path class="st2" d="M725.5,125.2c-3.2,1.5-4.9,4.6-4.9,8.1s1.7,6.6,4.9,8.1l-1,2.9c-4.4-1.7-7.3-5.9-7.3-11s3-9.3,7.3-11
			L725.5,125.2z"/>
		<path class="st2" d="M736.5,131.7c-1-0.5-2.5-1-3.9-1c-1.2,0-1.9,0.4-1.9,1.1c0,0.7,0.9,0.9,2,1l1.1,0.2c2.6,0.4,4.1,1.6,4.1,3.6
			c0,2.5-2,4.1-5.6,4.1c-1.7,0-3.8-0.3-5.4-1.4l1.3-2.5c1,0.7,2.3,1.2,4.1,1.2c1.5,0,2.2-0.4,2.2-1.1c0-0.6-0.6-0.9-2-1.1l-1-0.1
			c-2.8-0.4-4.2-1.6-4.2-3.7c0-2.5,1.9-4,5.1-4c1.9,0,3.5,0.4,5.1,1.2L736.5,131.7z"/>
		<path class="st2" d="M739.3,141.4c3.2-1.5,4.9-4.6,4.9-8.1s-1.7-6.6-4.9-8.1l1-2.9c4.4,1.7,7.3,5.9,7.3,11c0,5.1-3,9.3-7.3,11
			L739.3,141.4z"/>
	</g>
</g>
<g>
	<path class="st2" d="M512.4,458h1.3v5h0.1c0.1-0.2,0.2-0.4,0.3-0.6s0.3-0.4,0.5-0.5c0.2-0.1,0.4-0.2,0.7-0.3s0.6-0.1,0.9-0.1
		c0.9,0,1.6,0.3,2.1,0.8c0.5,0.6,0.8,1.3,0.8,2.4v5.4h-1.3v-5.1c0-0.8-0.2-1.3-0.5-1.7c-0.3-0.4-0.8-0.6-1.5-0.6
		c-0.3,0-0.5,0-0.8,0.1c-0.2,0.1-0.5,0.2-0.7,0.3s-0.3,0.3-0.5,0.5c-0.1,0.2-0.2,0.4-0.2,0.7v5.8h-1.3V458z"/>
	<path class="st2" d="M525.8,470c-0.6,0-1.1-0.2-1.4-0.5c-0.3-0.4-0.4-0.8-0.4-1.4v-5.3h-2.8v-1.1h2.1c0.3,0,0.5-0.1,0.6-0.2
		s0.2-0.3,0.2-0.6v-2.2h1.2v2.9h3.8v1.1h-3.8v6.1h3.8v1.1H525.8z"/>
	<path class="st2" d="M535.5,470c-0.6,0-1.1-0.2-1.4-0.5c-0.3-0.4-0.4-0.8-0.4-1.4v-5.3h-2.8v-1.1h2.1c0.3,0,0.5-0.1,0.6-0.2
		s0.2-0.3,0.2-0.6v-2.2h1.2v2.9h3.8v1.1h-3.8v6.1h3.8v1.1H535.5z"/>
	<path class="st2" d="M541.5,461.6h1.3v1.4h0.1c0.5-1,1.4-1.5,2.6-1.5c1,0,1.8,0.4,2.4,1.1c0.6,0.8,0.9,1.8,0.9,3.2
		s-0.3,2.5-0.9,3.2s-1.4,1.1-2.4,1.1c-1.2,0-2-0.5-2.6-1.5h-0.1v4.6h-1.3V461.6z M544.9,469c0.8,0,1.3-0.2,1.8-0.7
		c0.4-0.5,0.6-1.1,0.6-1.8v-1.4c0-0.8-0.2-1.4-0.6-1.8s-1-0.7-1.8-0.7c-0.3,0-0.6,0-0.8,0.1c-0.3,0.1-0.5,0.2-0.7,0.3
		c-0.2,0.1-0.3,0.3-0.5,0.5s-0.2,0.5-0.2,0.7v3c0,0.3,0.1,0.5,0.2,0.7s0.3,0.4,0.5,0.5c0.2,0.1,0.4,0.3,0.7,0.3
		C544.3,469,544.6,469,544.9,469z"/>
	<path class="st2" d="M554.6,470.1c-0.9,0-1.6-0.1-2.3-0.5c-0.6-0.3-1.2-0.7-1.6-1.2l0.9-0.8c0.4,0.4,0.8,0.7,1.3,1s1,0.3,1.7,0.3
		c0.7,0,1.2-0.1,1.6-0.4s0.6-0.6,0.6-1.1c0-0.2,0-0.4-0.1-0.5c-0.1-0.1-0.2-0.3-0.3-0.4s-0.3-0.1-0.5-0.2s-0.4-0.1-0.5-0.1l-1.3-0.2
		c-0.3,0-0.6-0.1-1-0.2s-0.7-0.2-0.9-0.4c-0.3-0.2-0.5-0.4-0.7-0.7c-0.2-0.3-0.3-0.6-0.3-1.1c0-0.4,0.1-0.8,0.2-1.1s0.4-0.6,0.7-0.8
		s0.7-0.4,1.1-0.5c0.4-0.1,0.9-0.1,1.3-0.1c0.8,0,1.4,0.1,2,0.4s1,0.6,1.4,1l-0.8,0.8c-0.1-0.1-0.2-0.2-0.4-0.4
		c-0.2-0.1-0.3-0.2-0.5-0.3s-0.5-0.2-0.7-0.2c-0.3-0.1-0.6-0.1-1-0.1c-0.7,0-1.2,0.1-1.5,0.3s-0.5,0.6-0.5,1c0,0.2,0,0.4,0.1,0.5
		c0.1,0.1,0.2,0.3,0.3,0.4s0.3,0.1,0.5,0.2c0.2,0,0.4,0.1,0.5,0.1l1.3,0.2c0.3,0,0.6,0.1,1,0.2s0.6,0.2,0.9,0.4
		c0.3,0.2,0.5,0.4,0.7,0.7s0.3,0.6,0.3,1.1c0,0.8-0.3,1.5-1,1.9S555.7,470.1,554.6,470.1z"/>
	<path class="st2" d="M564.2,463.7c-0.4,0-0.8-0.1-0.9-0.3s-0.3-0.4-0.3-0.7v-0.3c0-0.3,0.1-0.5,0.3-0.7c0.2-0.2,0.5-0.3,0.9-0.3
		s0.8,0.1,0.9,0.3s0.3,0.4,0.3,0.7v0.3c0,0.3-0.1,0.5-0.3,0.7C565,463.6,564.6,463.7,564.2,463.7z M564.2,470.1
		c-0.4,0-0.8-0.1-0.9-0.3s-0.3-0.4-0.3-0.7v-0.3c0-0.3,0.1-0.5,0.3-0.7c0.2-0.2,0.5-0.3,0.9-0.3s0.8,0.1,0.9,0.3s0.3,0.4,0.3,0.7
		v0.3c0,0.3-0.1,0.5-0.3,0.7S564.6,470.1,564.2,470.1z"/>
	<path class="st2" d="M570.5,472.2l5.6-14.5h1.2l-5.6,14.5H570.5z"/>
	<path class="st2" d="M580.2,472.2l5.6-14.5h1.2l-5.6,14.5H580.2z"/>
	<path class="st2" d="M589.3,470v-8.4h1.2v1h0.1c0.1-0.3,0.3-0.6,0.5-0.8c0.2-0.2,0.6-0.3,1-0.3c0.5,0,0.8,0.1,1.1,0.4
		c0.2,0.2,0.4,0.6,0.4,1h0c0.2-0.4,0.4-0.7,0.7-0.9s0.7-0.4,1.2-0.4c0.7,0,1.1,0.2,1.4,0.7c0.2,0.5,0.3,1.1,0.3,2v5.8h-1.2v-5.6
		c0-0.7-0.1-1.2-0.2-1.5s-0.4-0.4-0.8-0.4c-0.3,0-0.6,0.1-0.8,0.3c-0.2,0.2-0.3,0.6-0.3,1v6.1h-1.2v-5.6c0-0.7-0.1-1.2-0.2-1.5
		s-0.4-0.4-0.8-0.4c-0.3,0-0.6,0.1-0.8,0.3s-0.3,0.6-0.3,1v6.1L589.3,470L589.3,470z"/>
	<path class="st2" d="M599.9,468.8h3v-6.1h-3v-1.1h4.3v7.2h2.8v1.1h-7.1V468.8z M603.5,459.8c-0.4,0-0.6-0.1-0.8-0.2
		c-0.2-0.2-0.2-0.4-0.2-0.6v-0.3c0-0.2,0.1-0.4,0.2-0.6c0.2-0.2,0.4-0.2,0.8-0.2s0.6,0.1,0.8,0.2c0.2,0.2,0.2,0.4,0.2,0.6v0.3
		c0,0.2-0.1,0.4-0.2,0.6C604.2,459.7,603.9,459.8,603.5,459.8z"/>
	<path class="st2" d="M609.5,470v-8.4h1.3v1.4h0.1c0.1-0.2,0.2-0.4,0.3-0.6s0.3-0.4,0.5-0.5c0.2-0.1,0.4-0.2,0.7-0.3
		s0.6-0.1,0.9-0.1c0.9,0,1.6,0.3,2.1,0.8c0.5,0.6,0.8,1.3,0.8,2.4v5.4h-1.3v-5.1c0-0.8-0.2-1.3-0.5-1.7c-0.3-0.4-0.8-0.6-1.5-0.6
		c-0.3,0-0.5,0-0.8,0.1c-0.2,0.1-0.5,0.2-0.7,0.3s-0.3,0.3-0.5,0.5c-0.1,0.2-0.2,0.4-0.2,0.7v5.8L609.5,470L609.5,470z"/>
	<path class="st2" d="M619.3,468.8h3v-6.1h-3v-1.1h4.3v7.2h2.8v1.1h-7.1L619.3,468.8L619.3,468.8z M623,459.8
		c-0.4,0-0.6-0.1-0.8-0.2c-0.2-0.2-0.2-0.4-0.2-0.6v-0.3c0-0.2,0.1-0.4,0.2-0.6c0.2-0.2,0.4-0.2,0.8-0.2s0.6,0.1,0.8,0.2
		c0.2,0.2,0.2,0.4,0.2,0.6v0.3c0,0.2-0.1,0.4-0.2,0.6C623.6,459.7,623.3,459.8,623,459.8z"/>
	<path class="st2" d="M632.1,470.1c-0.6,0-1.1-0.1-1.6-0.3s-0.9-0.5-1.2-0.9s-0.6-0.8-0.8-1.4c-0.2-0.5-0.3-1.1-0.3-1.8
		c0-0.7,0.1-1.3,0.3-1.8c0.2-0.5,0.4-1,0.8-1.4s0.7-0.7,1.2-0.9c0.5-0.2,1-0.3,1.6-0.3s1.1,0.1,1.6,0.3c0.5,0.2,0.9,0.5,1.2,0.9
		s0.6,0.8,0.8,1.4s0.3,1.1,0.3,1.8c0,0.7-0.1,1.3-0.3,1.8s-0.4,1-0.8,1.4c-0.3,0.4-0.7,0.7-1.2,0.9S632.7,470.1,632.1,470.1z
		 M632.1,469c0.7,0,1.3-0.2,1.8-0.6c0.4-0.4,0.7-1.1,0.7-2v-1.2c0-0.9-0.2-1.6-0.7-2c-0.4-0.4-1-0.6-1.8-0.6c-0.7,0-1.3,0.2-1.8,0.6
		s-0.7,1.1-0.7,2v1.2c0,0.9,0.2,1.6,0.7,2S631.4,469,632.1,469z"/>
	<path class="st2" d="M639.5,465.7v-1.4h4.7v1.4H639.5z"/>
	<path class="st2" d="M651.5,470.1c-0.7,0-1.3-0.1-1.8-0.4c-0.5-0.3-0.9-0.6-1.2-1.1s-0.6-1.1-0.7-1.8s-0.2-1.5-0.2-2.5
		c0-0.9,0.1-1.7,0.2-2.5s0.4-1.3,0.7-1.8s0.7-0.9,1.2-1.1s1.1-0.4,1.8-0.4s1.3,0.1,1.8,0.4c0.5,0.3,0.9,0.6,1.2,1.1s0.6,1.1,0.7,1.8
		s0.2,1.5,0.2,2.5c0,0.9-0.1,1.8-0.2,2.5c-0.2,0.7-0.4,1.3-0.7,1.8s-0.7,0.9-1.2,1.1S652.2,470.1,651.5,470.1z M651.5,469
		c0.5,0,0.8-0.1,1.2-0.3c0.3-0.2,0.6-0.4,0.8-0.8s0.3-0.7,0.4-1.2s0.2-1,0.2-1.5v-1.8c0-0.6,0-1.1-0.2-1.5c-0.1-0.5-0.2-0.9-0.4-1.2
		c-0.2-0.3-0.5-0.6-0.8-0.8s-0.7-0.3-1.2-0.3s-0.8,0.1-1.2,0.3c-0.3,0.2-0.6,0.4-0.8,0.8c-0.2,0.3-0.3,0.7-0.4,1.2
		c-0.1,0.5-0.2,1-0.2,1.5v1.8c0,0.6,0,1.1,0.2,1.5s0.2,0.9,0.4,1.2c0.2,0.3,0.5,0.6,0.8,0.8S651.1,469,651.5,469z M651.5,465.3
		c-0.4,0-0.6-0.1-0.8-0.2c-0.2-0.1-0.2-0.3-0.2-0.5v-0.4c0-0.2,0.1-0.4,0.2-0.5s0.4-0.2,0.8-0.2s0.6,0.1,0.8,0.2s0.2,0.3,0.2,0.5
		v0.4c0,0.2-0.1,0.4-0.2,0.5C652.2,465.2,651.9,465.3,651.5,465.3z"/>
	<path class="st2" d="M657.8,470v-1.2h3.2v-9.1h-0.1l-2.8,2.6l-0.8-0.9l3-2.8h2.1v10.1h3v1.2L657.8,470L657.8,470z"/>
	<path class="st2" d="M671,470.1c-0.4,0-0.8-0.1-0.9-0.3s-0.3-0.4-0.3-0.7v-0.3c0-0.3,0.1-0.5,0.3-0.7c0.2-0.2,0.5-0.3,0.9-0.3
		s0.8,0.1,0.9,0.3s0.3,0.4,0.3,0.7v0.3c0,0.3-0.1,0.5-0.3,0.7S671.4,470.1,671,470.1z"/>
	<path class="st2" d="M680.8,470.1c-0.6,0-1.2-0.1-1.6-0.3c-0.5-0.2-0.9-0.5-1.2-0.9c-0.3-0.4-0.6-0.8-0.8-1.4
		c-0.2-0.5-0.3-1.1-0.3-1.8c0-0.7,0.1-1.3,0.3-1.8s0.5-1,0.8-1.4s0.7-0.7,1.2-0.9c0.5-0.2,1-0.3,1.6-0.3c0.6,0,1.1,0.1,1.5,0.3
		s0.8,0.5,1.2,0.9c0.3,0.4,0.6,0.8,0.7,1.3s0.3,1,0.3,1.6v0.6h-6.2v0.4c0,0.4,0.1,0.7,0.2,1s0.3,0.6,0.5,0.8
		c0.2,0.2,0.5,0.4,0.8,0.5c0.3,0.1,0.7,0.2,1.1,0.2c0.6,0,1-0.1,1.5-0.4c0.4-0.3,0.7-0.6,0.9-1.1l1,0.6c-0.2,0.6-0.7,1-1.2,1.4
		C682.3,470,681.6,470.1,680.8,470.1z M680.7,462.5c-0.4,0-0.7,0.1-1,0.2s-0.6,0.3-0.8,0.5c-0.2,0.2-0.4,0.5-0.5,0.8
		c-0.1,0.3-0.2,0.6-0.2,1v0.1h4.8v-0.2c0-0.4-0.1-0.7-0.2-1s-0.3-0.6-0.5-0.8c-0.2-0.2-0.4-0.4-0.7-0.5
		C681.4,462.5,681.1,462.5,680.7,462.5z"/>
	<path class="st2" d="M686.5,470l3.1-4.2l-3-4.1h1.5l1.3,1.8l1,1.4h0.1l1-1.4l1.2-1.8h1.5l-3.1,4.1l3.1,4.2h-1.5l-1.4-2l-1-1.3h-0.1
		l-0.9,1.3l-1.4,2L686.5,470L686.5,470z"/>
	<path class="st2" d="M703.2,470c-0.5,0-0.9-0.1-1.1-0.4c-0.2-0.3-0.3-0.6-0.4-1h-0.1c-0.2,0.5-0.5,0.9-0.9,1.1s-1,0.4-1.6,0.4
		c-0.9,0-1.6-0.2-2.1-0.7s-0.8-1.1-0.8-1.9c0-0.8,0.3-1.4,0.8-1.8c0.6-0.4,1.5-0.6,2.7-0.6h1.8v-0.8c0-0.6-0.2-1.1-0.5-1.4
		c-0.3-0.3-0.8-0.5-1.5-0.5c-0.6,0-1,0.1-1.4,0.3s-0.6,0.5-0.9,0.9l-0.9-0.6c0.1-0.2,0.2-0.4,0.4-0.6c0.2-0.2,0.4-0.4,0.7-0.5
		c0.3-0.2,0.6-0.3,0.9-0.4c0.3-0.1,0.7-0.1,1.2-0.1c1,0,1.8,0.2,2.3,0.8s0.9,1.2,0.9,2.1v4.6h1.2v1.1L703.2,470L703.2,470z
		 M699.4,469.1c0.3,0,0.6,0,0.9-0.1c0.3-0.1,0.5-0.2,0.7-0.3c0.2-0.1,0.4-0.3,0.5-0.5c0.1-0.2,0.2-0.4,0.2-0.6v-1.4h-1.8
		c-0.8,0-1.3,0.1-1.7,0.3c-0.4,0.2-0.5,0.5-0.5,0.9v0.3c0,0.4,0.2,0.8,0.5,1C698.4,469,698.8,469.1,699.4,469.1z"/>
	<path class="st2" d="M705.8,470v-8.4h1.2v1h0.1c0.1-0.3,0.3-0.6,0.5-0.8c0.2-0.2,0.6-0.3,1-0.3c0.5,0,0.8,0.1,1.1,0.4
		c0.2,0.2,0.4,0.6,0.4,1h0c0.2-0.4,0.4-0.7,0.7-0.9s0.7-0.4,1.2-0.4c0.7,0,1.1,0.2,1.4,0.7c0.2,0.5,0.3,1.1,0.3,2v5.8h-1.2v-5.6
		c0-0.7-0.1-1.2-0.2-1.5s-0.4-0.4-0.8-0.4c-0.3,0-0.6,0.1-0.8,0.3c-0.2,0.2-0.3,0.6-0.3,1v6.1h-1.2v-5.6c0-0.7-0.1-1.2-0.2-1.5
		s-0.4-0.4-0.8-0.4c-0.3,0-0.6,0.1-0.8,0.3s-0.3,0.6-0.3,1v6.1L705.8,470L705.8,470z"/>
	<path class="st2" d="M716.2,461.6h1.3v1.4h0.1c0.5-1,1.4-1.5,2.6-1.5c1,0,1.8,0.4,2.4,1.1c0.6,0.8,0.9,1.8,0.9,3.2
		s-0.3,2.5-0.9,3.2s-1.4,1.1-2.4,1.1c-1.2,0-2-0.5-2.6-1.5h-0.1v4.6h-1.3V461.6z M719.6,469c0.8,0,1.3-0.2,1.8-0.7
		c0.4-0.5,0.6-1.1,0.6-1.8v-1.4c0-0.8-0.2-1.4-0.6-1.8s-1-0.7-1.8-0.7c-0.3,0-0.6,0-0.8,0.1c-0.3,0.1-0.5,0.2-0.7,0.3
		c-0.2,0.1-0.3,0.3-0.5,0.5s-0.2,0.5-0.2,0.7v3c0,0.3,0.1,0.5,0.2,0.7s0.3,0.4,0.5,0.5c0.2,0.1,0.4,0.3,0.7,0.3
		C719,469,719.3,469,719.6,469z"/>
	<path class="st2" d="M725.6,468.8h2.9v-9.7h-2.9V458h4.2v10.9h2.9v1.1h-7.1V468.8z"/>
	<path class="st2" d="M739,470.1c-0.6,0-1.2-0.1-1.6-0.3c-0.5-0.2-0.9-0.5-1.2-0.9c-0.3-0.4-0.6-0.8-0.8-1.4
		c-0.2-0.5-0.3-1.1-0.3-1.8c0-0.7,0.1-1.3,0.3-1.8s0.5-1,0.8-1.4s0.7-0.7,1.2-0.9c0.5-0.2,1-0.3,1.6-0.3c0.6,0,1.1,0.1,1.5,0.3
		s0.8,0.5,1.2,0.9c0.3,0.4,0.6,0.8,0.7,1.3s0.3,1,0.3,1.6v0.6h-6.2v0.4c0,0.4,0.1,0.7,0.2,1s0.3,0.6,0.5,0.8
		c0.2,0.2,0.5,0.4,0.8,0.5c0.3,0.1,0.7,0.2,1.1,0.2c0.6,0,1-0.1,1.5-0.4c0.4-0.3,0.7-0.6,0.9-1.1l1,0.6c-0.2,0.6-0.7,1-1.2,1.4
		C740.6,470,739.9,470.1,739,470.1z M739,462.5c-0.4,0-0.7,0.1-1,0.2s-0.6,0.3-0.8,0.5c-0.2,0.2-0.4,0.5-0.5,0.8
		c-0.1,0.3-0.2,0.6-0.2,1v0.1h4.8v-0.2c0-0.4-0.1-0.7-0.2-1s-0.3-0.6-0.5-0.8c-0.2-0.2-0.4-0.4-0.7-0.5
		C739.6,462.5,739.3,462.5,739,462.5z"/>
	<path class="st2" d="M748.6,470.1c-0.4,0-0.8-0.1-0.9-0.3s-0.3-0.4-0.3-0.7v-0.3c0-0.3,0.1-0.5,0.3-0.7c0.2-0.2,0.5-0.3,0.9-0.3
		s0.8,0.1,0.9,0.3s0.3,0.4,0.3,0.7v0.3c0,0.3-0.1,0.5-0.3,0.7S749,470.1,748.6,470.1z"/>
	<path class="st2" d="M755,470v-8.4h1.3v1.4h0.1c0.1-0.2,0.2-0.4,0.3-0.6s0.3-0.4,0.5-0.5c0.2-0.1,0.4-0.2,0.7-0.3s0.6-0.1,0.9-0.1
		c0.9,0,1.6,0.3,2.1,0.8c0.5,0.6,0.8,1.3,0.8,2.4v5.4h-1.3v-5.1c0-0.8-0.2-1.3-0.5-1.7c-0.3-0.4-0.8-0.6-1.5-0.6
		c-0.3,0-0.5,0-0.8,0.1c-0.2,0.1-0.5,0.2-0.7,0.3s-0.3,0.3-0.5,0.5c-0.1,0.2-0.2,0.4-0.2,0.7v5.8L755,470L755,470z"/>
	<path class="st2" d="M768.2,470.1c-0.6,0-1.2-0.1-1.6-0.3c-0.5-0.2-0.9-0.5-1.2-0.9c-0.3-0.4-0.6-0.8-0.8-1.4
		c-0.2-0.5-0.3-1.1-0.3-1.8c0-0.7,0.1-1.3,0.3-1.8s0.5-1,0.8-1.4s0.7-0.7,1.2-0.9c0.5-0.2,1-0.3,1.6-0.3c0.6,0,1.1,0.1,1.5,0.3
		s0.8,0.5,1.2,0.9c0.3,0.4,0.6,0.8,0.7,1.3s0.3,1,0.3,1.6v0.6h-6.2v0.4c0,0.4,0.1,0.7,0.2,1s0.3,0.6,0.5,0.8
		c0.2,0.2,0.5,0.4,0.8,0.5c0.3,0.1,0.7,0.2,1.1,0.2c0.6,0,1-0.1,1.5-0.4c0.4-0.3,0.7-0.6,0.9-1.1l1,0.6c-0.2,0.6-0.7,1-1.2,1.4
		C769.7,470,769,470.1,768.2,470.1z M768.1,462.5c-0.4,0-0.7,0.1-1,0.2s-0.6,0.3-0.8,0.5c-0.2,0.2-0.4,0.5-0.5,0.8
		c-0.1,0.3-0.2,0.6-0.2,1v0.1h4.8v-0.2c0-0.4-0.1-0.7-0.2-1s-0.3-0.6-0.5-0.8c-0.2-0.2-0.4-0.4-0.7-0.5
		C768.7,462.5,768.4,462.5,768.1,462.5z"/>
	<path class="st2" d="M778.1,470c-0.6,0-1.1-0.2-1.4-0.5c-0.3-0.4-0.4-0.8-0.4-1.4v-5.3h-2.8v-1.1h2.1c0.3,0,0.5-0.1,0.6-0.2
		s0.2-0.3,0.2-0.6v-2.2h1.2v2.9h3.8v1.1h-3.8v6.1h3.8v1.1H778.1z"/>
</g>
<g>
	<g>
		<path class="st5" d="M801.5,416.2H498.4c-6.6,0-12-5.4-12-12V296.3c0-6.6,5.4-12,12-12h303.1c6.6,0,12,5.4,12,12v107.9
			C813.5,410.8,808.1,416.2,801.5,416.2z M498.4,290.4c-3.3,0-6,2.7-6,6v107.9c0,3.3,2.7,6,6,6h303.1c3.3,0,6-2.7,6-6V296.3
			c0-3.3-2.7-6-6-6L498.4,290.4L498.4,290.4z"/>
	</g>
	<path class="st5" d="M629.8,342.4H509.3c-3.4,0-6.1-2.7-6.1-6.1v-28.8c0-3.4,2.7-6.1,6.1-6.1h120.4c3.3,0,6.1,2.7,6.1,6.1v28.8
		C635.8,339.7,633.1,342.4,629.8,342.4z"/>
	<circle class="st6" cx="569.5" cy="321.3" r="8.4"/>
	<path class="st6" d="M521.1,335.8v-27.6c0-0.3,0.3-0.6,0.6-0.6h4.9c0.3,0,0.6,0.3,0.6,0.6v27.6c0,0.3-0.3,0.6-0.6,0.6h-4.9
		C521.3,336.3,521.1,336.1,521.1,335.8z"/>
	<path class="st6" d="M531.8,335.8v-27.6c0-0.3,0.3-0.6,0.6-0.6h4.9c0.3,0,0.6,0.3,0.6,0.6v27.6c0,0.3-0.3,0.6-0.6,0.6h-4.9
		C532.1,336.3,531.8,336.1,531.8,335.8z"/>
	<path class="st6" d="M510.3,335.8v-27.6c0-0.3,0.3-0.6,0.6-0.6h4.9c0.3,0,0.6,0.3,0.6,0.6v27.6c0,0.3-0.3,0.6-0.6,0.6h-4.9
		C510.6,336.3,510.3,336.1,510.3,335.8z"/>
	<path class="st6" d="M612.2,335.8v-27.6c0-0.3,0.3-0.6,0.6-0.6h4.9c0.3,0,0.6,0.3,0.6,0.6v27.6c0,0.3-0.3,0.6-0.6,0.6h-4.9
		C612.5,336.3,612.2,336.1,612.2,335.8z"/>
	<path class="st6" d="M623,335.8v-27.6c0-0.3,0.3-0.6,0.6-0.6h4.9c0.3,0,0.6,0.3,0.6,0.6v27.6c0,0.3-0.3,0.6-0.6,0.6h-4.9
		C623.2,336.3,623,336.1,623,335.8z"/>
	<path class="st6" d="M601.5,335.8v-27.6c0-0.3,0.3-0.6,0.6-0.6h4.9c0.3,0,0.6,0.3,0.6,0.6v27.6c0,0.3-0.3,0.6-0.6,0.6H602
		C601.7,336.3,601.5,336.1,601.5,335.8z"/>
	<g>
		<path class="st5" d="M629.8,397.5H509.3c-3.4,0-6.1-2.7-6.1-6.1v-28.8c0-3.4,2.7-6.1,6.1-6.1h120.4c3.3,0,6.1,2.7,6.1,6.1v28.8
			C635.8,394.8,633.1,397.5,629.8,397.5z"/>
		<circle class="st6" cx="569.5" cy="376.4" r="8.4"/>
		<path class="st6" d="M521.1,390.8v-27.6c0-0.3,0.3-0.6,0.6-0.6h4.9c0.3,0,0.6,0.3,0.6,0.6v27.6c0,0.3-0.3,0.6-0.6,0.6h-4.9
			C521.3,391.4,521.1,391.1,521.1,390.8z"/>
		<path class="st6" d="M531.8,390.8v-27.6c0-0.3,0.3-0.6,0.6-0.6h4.9c0.3,0,0.6,0.3,0.6,0.6v27.6c0,0.3-0.3,0.6-0.6,0.6h-4.9
			C532.1,391.4,531.8,391.1,531.8,390.8z"/>
		<path class="st6" d="M510.3,390.8v-27.6c0-0.3,0.3-0.6,0.6-0.6h4.9c0.3,0,0.6,0.3,0.6,0.6v27.6c0,0.3-0.3,0.6-0.6,0.6h-4.9
			C510.6,391.4,510.3,391.1,510.3,390.8z"/>
		<path class="st6" d="M612.2,390.8v-27.6c0-0.3,0.3-0.6,0.6-0.6h4.9c0.3,0,0.6,0.3,0.6,0.6v27.6c0,0.3-0.3,0.6-0.6,0.6h-4.9
			C612.5,391.4,612.2,391.1,612.2,390.8z"/>
		<path class="st6" d="M623,390.8v-27.6c0-0.3,0.3-0.6,0.6-0.6h4.9c0.3,0,0.6,0.3,0.6,0.6v27.6c0,0.3-0.3,0.6-0.6,0.6h-4.9
			C623.2,391.4,623,391.1,623,390.8z"/>
		<path class="st6" d="M601.5,390.8v-27.6c0-0.3,0.3-0.6,0.6-0.6h4.9c0.3,0,0.6,0.3,0.6,0.6v27.6c0,0.3-0.3,0.6-0.6,0.6H602
			C601.7,391.4,601.5,391.1,601.5,390.8z"/>
	</g>
	<path class="st5" d="M790.2,342.4H669.8c-3.3,0-6.1-2.7-6.1-6.1v-28.8c0-3.4,2.7-6.1,6.1-6.1h120.4c3.3,0,6.1,2.7,6.1,6.1v28.8
		C796.3,339.7,793.6,342.4,790.2,342.4z"/>
	<circle class="st6" cx="730" cy="321.3" r="8.4"/>
	<path class="st6" d="M681.5,335.8v-27.6c0-0.3,0.3-0.6,0.6-0.6h4.9c0.3,0,0.6,0.3,0.6,0.6v27.6c0,0.3-0.3,0.6-0.6,0.6h-4.9
		C681.8,336.3,681.5,336.1,681.5,335.8z"/>
	<path class="st6" d="M692.3,335.8v-27.6c0-0.3,0.3-0.6,0.6-0.6h4.9c0.3,0,0.6,0.3,0.6,0.6v27.6c0,0.3-0.3,0.6-0.6,0.6h-4.9
		C692.6,336.3,692.3,336.1,692.3,335.8z"/>
	<path class="st6" d="M670.8,335.8v-27.6c0-0.3,0.3-0.6,0.6-0.6h4.9c0.3,0,0.6,0.3,0.6,0.6v27.6c0,0.3-0.3,0.6-0.6,0.6h-4.9
		C671,336.3,670.8,336.1,670.8,335.8z"/>
	<path class="st6" d="M772.7,335.8v-27.6c0-0.3,0.3-0.6,0.6-0.6h4.9c0.3,0,0.6,0.3,0.6,0.6v27.6c0,0.3-0.3,0.6-0.6,0.6h-4.9
		C773,336.3,772.7,336.1,772.7,335.8z"/>
	<path class="st6" d="M783.5,335.8v-27.6c0-0.3,0.3-0.6,0.6-0.6h4.9c0.3,0,0.6,0.3,0.6,0.6v27.6c0,0.3-0.3,0.6-0.6,0.6H784
		C783.7,336.3,783.5,336.1,783.5,335.8z"/>
	<path class="st6" d="M761.9,335.8v-27.6c0-0.3,0.3-0.6,0.6-0.6h4.9c0.3,0,0.6,0.3,0.6,0.6v27.6c0,0.3-0.3,0.6-0.6,0.6h-4.9
		C762.2,336.3,761.9,336.1,761.9,335.8z"/>
	<g>
		<path class="st5" d="M790.2,397.5H669.8c-3.3,0-6.1-2.7-6.1-6.1v-28.8c0-3.4,2.7-6.1,6.1-6.1h120.4c3.3,0,6.1,2.7,6.1,6.1v28.8
			C796.3,394.8,793.6,397.5,790.2,397.5z"/>
		<circle class="st6" cx="730" cy="376.4" r="8.4"/>
		<path class="st6" d="M681.5,390.8v-27.6c0-0.3,0.3-0.6,0.6-0.6h4.9c0.3,0,0.6,0.3,0.6,0.6v27.6c0,0.3-0.3,0.6-0.6,0.6h-4.9
			C681.8,391.4,681.5,391.1,681.5,390.8z"/>
		<path class="st6" d="M692.3,390.8v-27.6c0-0.3,0.3-0.6,0.6-0.6h4.9c0.3,0,0.6,0.3,0.6,0.6v27.6c0,0.3-0.3,0.6-0.6,0.6h-4.9
			C692.6,391.4,692.3,391.1,692.3,390.8z"/>
		<path class="st6" d="M670.8,390.8v-27.6c0-0.3,0.3-0.6,0.6-0.6h4.9c0.3,0,0.6,0.3,0.6,0.6v27.6c0,0.3-0.3,0.6-0.6,0.6h-4.9
			C671,391.4,670.8,391.1,670.8,390.8z"/>
		<path class="st6" d="M772.7,390.8v-27.6c0-0.3,0.3-0.6,0.6-0.6h4.9c0.3,0,0.6,0.3,0.6,0.6v27.6c0,0.3-0.3,0.6-0.6,0.6h-4.9
			C773,391.4,772.7,391.1,772.7,390.8z"/>
		<path class="st6" d="M783.5,390.8v-27.6c0-0.3,0.3-0.6,0.6-0.6h4.9c0.3,0,0.6,0.3,0.6,0.6v27.6c0,0.3-0.3,0.6-0.6,0.6H784
			C783.7,391.4,783.5,391.1,783.5,390.8z"/>
		<path class="st6" d="M761.9,390.8v-27.6c0-0.3,0.3-0.6,0.6-0.6h4.9c0.3,0,0.6,0.3,0.6,0.6v27.6c0,0.3-0.3,0.6-0.6,0.6h-4.9
			C762.2,391.4,761.9,391.1,761.9,390.8z"/>
	</g>
</g>
<path class="st7" d="M652.7,256.2h-3.4v-33.6h3.4c1.2,0,1.8-1.4,0.9-2.3l-4.9-5c-0.5-0.5-1.4-0.5-1.9,0l-4.9,5
	c-0.8,0.8-0.2,2.3,0.9,2.3h3.7v33.6h-3.7c-1.2,0-1.8,1.4-0.9,2.3l4.9,5c0.5,0.5,1.4,0.5,1.9,0l4.9-5
	C654.5,257.7,653.9,256.2,652.7,256.2z"/>
<path class="st0" d="M652.7,702.2h-3.4v-33.6h3.4c1.2,0,1.8-1.4,0.9-2.3l-4.9-5c-0.5-0.5-1.4-0.5-1.9,0l-4.9,5
	c-0.8,0.8-0.2,2.3,0.9,2.3h3.7v33.6h-3.7c-1.2,0-1.8,1.4-0.9,2.3l4.9,5c0.5,0.5,1.4,0.5,1.9,0l4.9-5
	C654.5,703.7,653.9,702.2,652.7,702.2z"/>
<path class="st0" d="M224.5,896.9h-3.7c-1.2,0-1.8,1.4-0.9,2.3l4.9,5c0.5,0.5,1.4,0.5,1.9,0l4.9-5c0.8-0.8,0.2-2.3-0.9-2.3h-3.4"/>
<rect x="598.7" y="520.2" class="st8" width="93.7" height="110.1"/>
<g>
	<g>
		<path class="st2" d="M618.5,589.5c-0.8,0-1.5-0.2-2.1-0.4s-1.1-0.7-1.5-1.3c-0.4-0.5-0.7-1.2-0.9-2s-0.3-1.7-0.3-2.8
			c0-1,0.1-1.9,0.3-2.8c0.2-0.8,0.5-1.5,0.9-2s0.9-1,1.5-1.3s1.3-0.4,2.1-0.4c1.6,0,2.8,0.6,3.6,1.7c0.8,1.1,1.2,2.7,1.2,4.8
			s-0.4,3.7-1.2,4.8C621.3,589,620.1,589.5,618.5,589.5z M618.5,587.6c0.4,0,0.8-0.1,1.1-0.2s0.5-0.4,0.7-0.7s0.3-0.7,0.4-1.1
			s0.1-0.9,0.1-1.5V582c0-1.1-0.2-1.9-0.5-2.6s-0.9-0.9-1.8-0.9s-1.4,0.3-1.8,0.9s-0.5,1.5-0.5,2.6v2.2c0,1.1,0.2,1.9,0.5,2.6
			C617,587.3,617.6,587.6,618.5,587.6z"/>
		<path class="st2" d="M625.3,576.7h4.4c1.2,0,2.1,0.3,2.8,0.9c0.6,0.6,1,1.4,1,2.4c0,0.7-0.2,1.3-0.5,1.7c-0.3,0.4-0.8,0.7-1.5,0.9
			v0.1c0.8,0.2,1.3,0.5,1.8,1s0.7,1.1,0.7,2c0,0.5-0.1,1-0.3,1.4s-0.4,0.8-0.7,1.1c-0.3,0.3-0.7,0.5-1.2,0.7s-1,0.2-1.5,0.2h-4.8
			L625.3,576.7L625.3,576.7z M629.1,582.1c0.6,0,1.1-0.1,1.4-0.3c0.3-0.2,0.5-0.6,0.5-1.2V580c0-0.6-0.2-1-0.5-1.2s-0.8-0.3-1.4-0.3
			h-1.5v3.7L629.1,582.1L629.1,582.1z M629.4,587.6c0.7,0,1.2-0.1,1.5-0.4s0.5-0.7,0.5-1.3v-0.6c0-0.6-0.2-1-0.5-1.2
			s-0.8-0.4-1.5-0.4h-1.8v3.8L629.4,587.6L629.4,587.6z"/>
		<path class="st2" d="M643.7,576.7v9.1c0,0.6-0.1,1.1-0.3,1.5s-0.5,0.8-0.8,1.1c-0.3,0.3-0.8,0.6-1.3,0.7s-1,0.3-1.7,0.3
			c-1.2,0-2.1-0.3-2.8-0.9c-0.7-0.6-1.1-1.4-1.3-2.4l2.2-0.5c0.1,0.5,0.3,1,0.6,1.3c0.3,0.3,0.7,0.5,1.3,0.5c0.5,0,1-0.2,1.2-0.5
			s0.4-0.8,0.4-1.5v-6.9H637v-1.9L643.7,576.7L643.7,576.7z"/>
		<path class="st2" d="M647,589.3v-12.6h7.9v1.9h-5.6v3.3h5.4v1.9h-5.4v3.5h5.6v1.9L647,589.3L647,589.3z"/>
		<path class="st2" d="M662,589.5c-1.6,0-2.9-0.6-3.7-1.7c-0.8-1.1-1.2-2.7-1.2-4.8c0-2.1,0.4-3.7,1.2-4.8c0.8-1.1,2-1.7,3.7-1.7
			c0.6,0,1.2,0.1,1.7,0.2c0.5,0.2,0.9,0.4,1.2,0.7c0.3,0.3,0.6,0.6,0.9,1c0.2,0.4,0.4,0.9,0.5,1.4l-2.2,0.6
			c-0.1-0.3-0.2-0.6-0.3-0.8s-0.2-0.5-0.4-0.7c-0.2-0.2-0.4-0.3-0.6-0.4s-0.5-0.2-0.9-0.2c-0.8,0-1.4,0.3-1.8,0.9s-0.5,1.5-0.5,2.6
			v2.2c0,1.1,0.2,1.9,0.5,2.6c0.3,0.6,0.9,0.9,1.8,0.9c0.3,0,0.6,0,0.9-0.2c0.2-0.1,0.4-0.2,0.6-0.4c0.2-0.2,0.3-0.4,0.4-0.7
			s0.2-0.5,0.3-0.8l2.2,0.6c-0.1,0.5-0.3,0.9-0.5,1.4c-0.2,0.4-0.5,0.8-0.9,1c-0.3,0.3-0.8,0.5-1.2,0.7
			C663.2,589.4,662.6,589.5,662,589.5z"/>
		<path class="st2" d="M673.6,578.7v10.6h-2.3v-10.6h-3.8v-1.9h9.9v1.9H673.6z"/>
	</g>
</g>
<linearGradient id="SVGID_1_" gradientUnits="userSpaceOnUse" x1="645.5569" y1="1008.4399" x2="645.5569" y2="1107.1277" gradientTransform="matrix(1 0 0 -1 0 1646)">
	<stop  offset="0" style="stop-color:#10535A"/>
	<stop  offset="1" style="stop-color:#102E46"/>
</linearGradient>
<path class="st9" d="M697.5,551.7c0.2-7.6,0.5-15.5-0.2-23c-0.5-5.6-3-10.4-8.6-12.4c-0.8-0.3-1.6-0.5-2.4-0.7
	c-3.1-0.7-6.5-0.8-9.6-0.9c-5.6-0.2-11.3,0.2-16.9,0.2c-11.3,0-22.5,0.2-33.8,0.2c-1.3,0-2.7,0-4.1,0c-6.8,0-13.5,0-20.3,0
	c-4.6,0-8.3,3.7-8.3,8.3v105.9c0,4.6,3.7,8.3,8.3,8.3h87.6c4.6,0,8.3-3.7,8.3-8.3c0-5.6,0-11.3,0-16.9c0-12,0-23.9,0-35.9
	C697.5,568.2,697.3,559.9,697.5,551.7z M687.5,621.8c0,4-3.2,7.2-7.2,7.2h-71.2c-4,0-7.2-3.2-7.2-7.2v-91c0-4,3.2-7.2,7.2-7.2h47.8
	v12.2c0,10,8.1,18.1,18.1,18.1h12.5L687.5,621.8L687.5,621.8z M687.5,546.1H675c-5.6,0-10.2-4.6-10.2-10.2v-12.2h15.5
	c4,0,7.2,3.2,7.2,7.2L687.5,546.1L687.5,546.1z"/>
<rect x="180.5" y="909.9" class="st8" width="93.7" height="110.1"/>
<g>
	<path class="st4" d="M1190.5,1525.8H932.7c-7.2,0-13.1-5.9-13.1-13.1v-96.2c0-7.2,5.9-13.1,13.1-13.1h257.8
		c7.2,0,13.1,5.9,13.1,13.1v96.2C1203.6,1520,1197.8,1525.8,1190.5,1525.8z"/>
	<path class="st4" d="M1201.5,1540.8H943.7c-7.2,0-13.1-5.9-13.1-13.1v-96.2c0-7.2,5.9-13.1,13.1-13.1h257.8
		c7.2,0,13.1,5.9,13.1,13.1v96.2C1214.6,1535,1208.8,1540.8,1201.5,1540.8z"/>
	<path class="st4" d="M1212.5,1555.8H954.7c-7.2,0-13.1-5.9-13.1-13.1v-96.2c0-7.2,5.9-13.1,13.1-13.1h257.8
		c7.2,0,13.1,5.9,13.1,13.1v96.2C1225.6,1550,1219.8,1555.8,1212.5,1555.8z"/>
	<g>
		<path class="st2" d="M1012.8,1503.3h-3.7l-1.5-4.1h-7.5l-1.5,4.1h-3.6l6.8-17.5h4.2L1012.8,1503.3z M1001.3,1496h5.1l-2.5-6.8
			L1001.3,1496z"/>
		<path class="st2" d="M1027.4,1497.2c0,3.6-2.5,6.4-5.9,6.4c-1.6,0-2.8-0.6-3.6-1.6v6.3h-3.2v-17.1h3.2v1.3c0.8-1,2-1.7,3.6-1.7
			C1024.9,1490.8,1027.4,1493.6,1027.4,1497.2z M1017.9,1497.2c0,1.9,1.3,3.3,3.1,3.3c1.9,0,3.1-1.5,3.1-3.3s-1.2-3.3-3.1-3.3
			C1019.1,1493.9,1017.9,1495.3,1017.9,1497.2z"/>
		<path class="st2" d="M1042.8,1497.2c0,3.6-2.5,6.4-5.9,6.4c-1.6,0-2.8-0.6-3.6-1.6v6.3h-3.2v-17.1h3.2v1.3c0.8-1,1.9-1.7,3.6-1.7
			C1040.3,1490.8,1042.8,1493.6,1042.8,1497.2z M1033.2,1497.2c0,1.9,1.3,3.3,3.1,3.3c1.9,0,3.1-1.5,3.1-3.3s-1.2-3.3-3.1-3.3
			C1034.5,1493.9,1033.2,1495.3,1033.2,1497.2z"/>
		<path class="st2" d="M1048.7,1503.3h-3.3v-18h3.3V1503.3z"/>
		<path class="st2" d="M1055.8,1487.2c0,1.2-0.9,2.1-2.1,2.1s-2.1-0.9-2.1-2.1c0-1.2,0.9-2.1,2.1-2.1S1055.8,1486,1055.8,1487.2z
			 M1055.4,1503.3h-3.3v-12.1h3.3V1503.3z"/>
		<path class="st2" d="M1069.4,1493.1l-2.3,2c-0.7-0.8-1.5-1.2-2.6-1.2c-1.7,0-3,1.3-3,3.3s1.3,3.3,3,3.3c1.1,0,1.9-0.5,2.6-1.2
			l2.3,2c-1.1,1.5-2.8,2.3-4.9,2.3c-3.9,0-6.4-2.7-6.4-6.4c0-3.7,2.6-6.4,6.4-6.4C1066.6,1490.8,1068.3,1491.7,1069.4,1493.1z"/>
		<path class="st2" d="M1083.4,1503.3h-3.2v-1.3c-0.8,1-2,1.7-3.6,1.7c-3.3,0-5.9-2.7-5.9-6.4s2.5-6.4,5.9-6.4
			c1.7,0,2.8,0.7,3.6,1.7v-1.3h3.2V1503.3z M1074.1,1497.2c0,1.8,1.2,3.3,3.1,3.3c1.9,0,3.1-1.4,3.1-3.3s-1.3-3.3-3.1-3.3
			C1075.3,1493.9,1074.1,1495.4,1074.1,1497.2z"/>
		<path class="st2" d="M1095.6,1494.1h-4.4v4.4c0,1.5,0.8,2.1,1.8,2.1c0.8,0,1.6-0.4,2.3-0.8l1.2,2.6c-1.1,0.7-2.3,1.3-4,1.3
			c-3,0-4.5-1.7-4.5-4.8v-4.7h-2.3v-2.9h2.3v-3.6h3.3v3.6h4.4L1095.6,1494.1L1095.6,1494.1z"/>
		<path class="st2" d="M1102.2,1487.2c0,1.2-0.9,2.1-2.1,2.1s-2.1-0.9-2.1-2.1c0-1.2,0.9-2.1,2.1-2.1S1102.2,1486,1102.2,1487.2z
			 M1101.8,1503.3h-3.3v-12.1h3.3V1503.3z"/>
		<path class="st2" d="M1117.5,1497.2c0,3.7-2.8,6.4-6.6,6.4c-3.8,0-6.5-2.7-6.5-6.4s2.8-6.4,6.5-6.4S1117.5,1493.6,1117.5,1497.2z
			 M1107.8,1497.2c0,2,1.4,3.3,3.2,3.3s3.2-1.4,3.2-3.3s-1.4-3.3-3.2-3.3S1107.8,1495.3,1107.8,1497.2z"/>
		<path class="st2" d="M1131.7,1495.6v7.7h-3.3v-6.7c0-1.8-0.9-2.7-2.4-2.7c-1.4,0-2.6,0.9-2.6,2.7v6.6h-3.3v-12.1h3.2v1.4
			c0.9-1.3,2.2-1.8,3.6-1.8C1129.7,1490.8,1131.7,1492.8,1131.7,1495.6z"/>
		<path class="st2" d="M1149.2,1488.1c-3.2,1.5-4.9,4.6-4.9,8.1s1.7,6.6,4.9,8.1l-1,2.9c-4.4-1.7-7.3-5.9-7.3-11s3-9.3,7.3-11
			L1149.2,1488.1z"/>
		<path class="st2" d="M1160.2,1494.6c-1-0.5-2.5-1-3.9-1c-1.2,0-1.9,0.4-1.9,1.1c0,0.7,0.9,0.9,2,1l1.1,0.2
			c2.6,0.4,4.1,1.6,4.1,3.6c0,2.5-2.1,4.1-5.6,4.1c-1.7,0-3.8-0.3-5.4-1.4l1.3-2.5c1,0.7,2.3,1.2,4.1,1.2c1.5,0,2.2-0.4,2.2-1.1
			c0-0.6-0.6-0.9-2-1.1l-1-0.1c-2.8-0.4-4.2-1.6-4.2-3.7c0-2.5,1.9-4,5.1-4c1.9,0,3.4,0.4,5.1,1.2L1160.2,1494.6z"/>
		<path class="st2" d="M1163,1504.3c3.2-1.5,4.9-4.6,4.9-8.1s-1.7-6.6-4.9-8.1l1-2.9c4.4,1.7,7.3,5.9,7.3,11s-3,9.3-7.3,11
			L1163,1504.3z"/>
	</g>
</g>
<g>
	<path class="st4" d="M348.2,1525.8H90.4c-7.2,0-13.1-5.9-13.1-13.1v-96.2c0-7.2,5.9-13.1,13.1-13.1h257.8c7.2,0,13.1,5.9,13.1,13.1
		v96.2C361.3,1520,355.5,1525.8,348.2,1525.8z"/>
	<path class="st4" d="M359.2,1540.8H101.4c-7.2,0-13.1-5.9-13.1-13.1v-96.2c0-7.2,5.9-13.1,13.1-13.1h257.8
		c7.2,0,13.1,5.9,13.1,13.1v96.2C372.3,1535,366.5,1540.8,359.2,1540.8z"/>
	<path class="st4" d="M370.2,1555.8H112.4c-7.2,0-13.1-5.9-13.1-13.1v-96.2c0-7.2,5.9-13.1,13.1-13.1h257.8
		c7.2,0,13.1,5.9,13.1,13.1v96.2C383.3,1550,377.5,1555.8,370.2,1555.8z"/>
	<g>
		<path class="st2" d="M170.5,1503.3h-3.7l-1.5-4.1h-7.5l-1.5,4.1h-3.6l6.8-17.5h4.2L170.5,1503.3z M159,1496h5.1l-2.5-6.8L159,1496
			z"/>
		<path class="st2" d="M185.1,1497.2c0,3.6-2.5,6.4-5.9,6.4c-1.6,0-2.8-0.6-3.6-1.6v6.3h-3.2v-17.1h3.2v1.3c0.8-1,1.9-1.7,3.6-1.7
			C182.6,1490.8,185.1,1493.6,185.1,1497.2z M175.6,1497.2c0,1.9,1.3,3.3,3.1,3.3c1.9,0,3.1-1.5,3.1-3.3s-1.2-3.3-3.1-3.3
			C176.8,1493.9,175.6,1495.3,175.6,1497.2z"/>
		<path class="st2" d="M200.5,1497.2c0,3.6-2.5,6.4-5.9,6.4c-1.6,0-2.8-0.6-3.6-1.6v6.3h-3.2v-17.1h3.2v1.3c0.8-1,1.9-1.7,3.6-1.7
			C198,1490.8,200.5,1493.6,200.5,1497.2z M190.9,1497.2c0,1.9,1.3,3.3,3.1,3.3c1.9,0,3.1-1.5,3.1-3.3s-1.2-3.3-3.1-3.3
			C192.2,1493.9,190.9,1495.3,190.9,1497.2z"/>
		<path class="st2" d="M206.4,1503.3h-3.3v-18h3.3V1503.3z"/>
		<path class="st2" d="M213.5,1487.2c0,1.2-0.9,2.1-2.1,2.1s-2.1-0.9-2.1-2.1c0-1.2,0.9-2.1,2.1-2.1S213.5,1486,213.5,1487.2z
			 M213.1,1503.3h-3.3v-12.1h3.3V1503.3z"/>
		<path class="st2" d="M227.1,1493.1l-2.4,2c-0.7-0.8-1.5-1.2-2.6-1.2c-1.7,0-3,1.3-3,3.3s1.3,3.3,3,3.3c1.1,0,1.9-0.5,2.6-1.2
			l2.3,2c-1.1,1.5-2.8,2.3-4.9,2.3c-3.9,0-6.4-2.7-6.4-6.4c0-3.7,2.6-6.4,6.4-6.4C224.2,1490.8,226,1491.7,227.1,1493.1z"/>
		<path class="st2" d="M241.1,1503.3h-3.2v-1.3c-0.8,1-2,1.7-3.6,1.7c-3.3,0-5.9-2.7-5.9-6.4s2.5-6.4,5.9-6.4c1.7,0,2.8,0.7,3.6,1.7
			v-1.3h3.2V1503.3z M231.8,1497.2c0,1.8,1.2,3.3,3.1,3.3c1.9,0,3.1-1.4,3.1-3.3s-1.3-3.3-3.1-3.3
			C233,1493.9,231.8,1495.4,231.8,1497.2z"/>
		<path class="st2" d="M253.3,1494.1h-4.4v4.4c0,1.5,0.8,2.1,1.8,2.1c0.8,0,1.6-0.4,2.3-0.8l1.2,2.6c-1.1,0.7-2.3,1.3-4,1.3
			c-3,0-4.5-1.7-4.5-4.8v-4.7h-2.3v-2.9h2.3v-3.6h3.3v3.6h4.4L253.3,1494.1L253.3,1494.1z"/>
		<path class="st2" d="M259.9,1487.2c0,1.2-0.9,2.1-2.1,2.1s-2.1-0.9-2.1-2.1c0-1.2,0.9-2.1,2.1-2.1S259.9,1486,259.9,1487.2z
			 M259.5,1503.3h-3.3v-12.1h3.3V1503.3z"/>
		<path class="st2" d="M275.2,1497.2c0,3.7-2.8,6.4-6.6,6.4c-3.8,0-6.5-2.7-6.5-6.4s2.8-6.4,6.5-6.4S275.2,1493.6,275.2,1497.2z
			 M265.5,1497.2c0,2,1.4,3.3,3.2,3.3s3.2-1.4,3.2-3.3s-1.4-3.3-3.2-3.3S265.5,1495.3,265.5,1497.2z"/>
		<path class="st2" d="M289.4,1495.6v7.7h-3.3v-6.7c0-1.8-0.9-2.7-2.4-2.7c-1.4,0-2.6,0.9-2.6,2.7v6.6h-3.3v-12.1h3.2v1.4
			c0.9-1.3,2.2-1.8,3.6-1.8C287.4,1490.8,289.4,1492.8,289.4,1495.6z"/>
		<path class="st2" d="M306.9,1488.1c-3.2,1.5-4.9,4.6-4.9,8.1s1.7,6.6,4.9,8.1l-1,2.9c-4.4-1.7-7.3-5.9-7.3-11s3-9.3,7.3-11
			L306.9,1488.1z"/>
		<path class="st2" d="M317.9,1494.6c-1-0.5-2.5-1-3.9-1c-1.2,0-1.9,0.4-1.9,1.1c0,0.7,0.9,0.9,2,1l1.1,0.2c2.6,0.4,4.1,1.6,4.1,3.6
			c0,2.5-2,4.1-5.6,4.1c-1.6,0-3.8-0.3-5.4-1.4l1.3-2.5c1,0.7,2.3,1.2,4.1,1.2c1.5,0,2.2-0.4,2.2-1.1c0-0.6-0.6-0.9-2-1.1l-1-0.1
			c-2.8-0.4-4.2-1.6-4.2-3.7c0-2.5,1.9-4,5.1-4c1.9,0,3.5,0.4,5.1,1.2L317.9,1494.6z"/>
		<path class="st2" d="M320.7,1504.3c3.2-1.5,4.9-4.6,4.9-8.1s-1.7-6.6-4.9-8.1l1-2.9c4.4,1.7,7.3,5.9,7.3,11s-3,9.3-7.3,11
			L320.7,1504.3z"/>
	</g>
</g>
<g>
	<g>
		<path class="st2" d="M199.6,979.3c-0.8,0-1.5-0.2-2.1-0.4s-1.1-0.7-1.5-1.3c-0.4-0.5-0.7-1.2-0.9-2s-0.3-1.7-0.3-2.8
			c0-1,0.1-1.9,0.3-2.8c0.2-0.8,0.5-1.5,0.9-2s0.9-1,1.5-1.3s1.3-0.4,2.1-0.4c1.6,0,2.8,0.6,3.6,1.7s1.1,2.7,1.1,4.8
			s-0.4,3.7-1.1,4.8C202.4,978.7,201.2,979.3,199.6,979.3z M199.6,977.4c0.4,0,0.8-0.1,1.1-0.2s0.5-0.4,0.7-0.7s0.3-0.7,0.4-1.1
			s0.1-0.9,0.1-1.5v-2.2c0-1.1-0.2-1.9-0.5-2.6s-0.9-0.9-1.8-0.9s-1.4,0.3-1.8,0.9s-0.5,1.5-0.5,2.6v2.2c0,1.1,0.2,1.9,0.5,2.6
			C198.2,977.1,198.8,977.4,199.6,977.4z"/>
		<path class="st2" d="M206.4,966.5h4.4c1.2,0,2.1,0.3,2.8,0.9c0.6,0.6,1,1.4,1,2.4c0,0.7-0.2,1.3-0.5,1.7s-0.9,0.7-1.5,0.9v0.1
			c0.8,0.2,1.4,0.5,1.8,1c0.4,0.5,0.7,1.1,0.7,2c0,0.5-0.1,1-0.3,1.4s-0.4,0.8-0.7,1.1c-0.3,0.3-0.7,0.5-1.1,0.7s-1,0.2-1.5,0.2
			h-4.8L206.4,966.5L206.4,966.5z M210.2,971.9c0.6,0,1.1-0.1,1.4-0.3c0.3-0.2,0.5-0.6,0.5-1.2v-0.6c0-0.6-0.1-1-0.5-1.2
			c-0.3-0.2-0.8-0.3-1.4-0.3h-1.5v3.7L210.2,971.9L210.2,971.9z M210.6,977.4c0.7,0,1.1-0.1,1.5-0.4s0.5-0.7,0.5-1.3v-0.6
			c0-0.6-0.2-1-0.5-1.2s-0.8-0.4-1.5-0.4h-1.8v3.8L210.6,977.4L210.6,977.4z"/>
		<path class="st2" d="M224.9,966.5v9.1c0,0.6-0.1,1.1-0.3,1.5c-0.2,0.5-0.5,0.8-0.8,1.1s-0.8,0.6-1.3,0.7s-1.1,0.3-1.7,0.3
			c-1.2,0-2.1-0.3-2.8-0.9c-0.7-0.6-1.1-1.4-1.3-2.4l2.2-0.5c0.1,0.5,0.3,1,0.6,1.3c0.3,0.3,0.7,0.5,1.3,0.5c0.5,0,0.9-0.2,1.2-0.5
			s0.4-0.8,0.4-1.5v-6.9h-4.2v-1.9L224.9,966.5L224.9,966.5z"/>
		<path class="st2" d="M228.1,979.1v-12.6h7.9v1.9h-5.6v3.3h5.4v1.9h-5.4v3.5h5.6v1.9L228.1,979.1L228.1,979.1z"/>
		<path class="st2" d="M243.1,979.3c-1.6,0-2.9-0.6-3.6-1.7s-1.2-2.7-1.2-4.8c0-2.1,0.4-3.7,1.2-4.8c0.8-1.1,2-1.7,3.6-1.7
			c0.6,0,1.2,0.1,1.6,0.2c0.5,0.2,0.9,0.4,1.2,0.7c0.4,0.3,0.6,0.6,0.9,1c0.2,0.4,0.4,0.9,0.5,1.4l-2.2,0.6
			c-0.1-0.3-0.2-0.6-0.3-0.8s-0.2-0.5-0.4-0.7c-0.2-0.2-0.4-0.3-0.6-0.4s-0.5-0.2-0.9-0.2c-0.8,0-1.4,0.3-1.8,0.9s-0.5,1.5-0.5,2.6
			v2.2c0,1.1,0.2,1.9,0.5,2.6s0.9,0.9,1.8,0.9c0.3,0,0.6,0,0.9-0.2c0.2-0.1,0.4-0.2,0.6-0.4c0.2-0.2,0.3-0.4,0.4-0.7
			s0.2-0.5,0.3-0.8l2.2,0.6c-0.1,0.5-0.3,0.9-0.5,1.4c-0.2,0.4-0.5,0.8-0.9,1c-0.4,0.3-0.8,0.5-1.2,0.7
			C244.3,979.2,243.8,979.3,243.1,979.3z"/>
		<path class="st2" d="M254.8,968.5v10.6h-2.3v-10.6h-3.8v-1.9h9.9v1.9H254.8z"/>
	</g>
</g>
<g>
	<g>
		<path class="st5" d="M383.6,1311.1H80.6c-6.6,0-11.9-5.4-11.9-11.9v-107.9c0-6.6,5.4-11.9,11.9-11.9h303.1c6.6,0,12,5.4,12,11.9
			v107.9C395.6,1305.8,390.2,1311.1,383.6,1311.1z M80.6,1185.3c-3.3,0-5.9,2.7-5.9,5.9v107.9c0,3.3,2.7,5.9,5.9,5.9h303.1
			c3.3,0,6-2.7,6-5.9v-107.9c0-3.3-2.7-5.9-6-5.9H80.6z"/>
	</g>
	<path class="st5" d="M211.9,1237.3H91.4c-3.3,0-6.1-2.7-6.1-6.1v-28.8c0-3.3,2.7-6.1,6.1-6.1h120.4c3.4,0,6.1,2.7,6.1,6.1v28.8
		C218,1234.6,215.2,1237.3,211.9,1237.3z"/>
	<circle class="st6" cx="151.7" cy="1216.3" r="8.4"/>
	<path class="st6" d="M103.2,1230.7v-27.6c0-0.3,0.3-0.6,0.6-0.6h4.9c0.3,0,0.6,0.3,0.6,0.6v27.6c0,0.3-0.3,0.6-0.6,0.6h-4.9
		C103.4,1231.3,103.2,1231,103.2,1230.7z"/>
	<path class="st6" d="M113.9,1230.7v-27.6c0-0.3,0.3-0.6,0.6-0.6h4.9c0.3,0,0.6,0.3,0.6,0.6v27.6c0,0.3-0.3,0.6-0.6,0.6h-4.9
		C114.2,1231.3,113.9,1231,113.9,1230.7z"/>
	<path class="st6" d="M92.4,1230.7v-27.6c0-0.3,0.3-0.6,0.6-0.6h4.9c0.3,0,0.6,0.3,0.6,0.6v27.6c0,0.3-0.3,0.6-0.6,0.6H93
		C92.7,1231.3,92.4,1231,92.4,1230.7z"/>
	<path class="st6" d="M194.3,1230.7v-27.6c0-0.3,0.3-0.6,0.6-0.6h4.9c0.3,0,0.6,0.3,0.6,0.6v27.6c0,0.3-0.3,0.6-0.6,0.6h-4.9
		C194.6,1231.3,194.3,1231,194.3,1230.7z"/>
	<path class="st6" d="M205.1,1230.7v-27.6c0-0.3,0.3-0.6,0.6-0.6h4.9c0.3,0,0.6,0.3,0.6,0.6v27.6c0,0.3-0.3,0.6-0.6,0.6h-4.9
		C205.4,1231.3,205.1,1231,205.1,1230.7z"/>
	<path class="st6" d="M183.6,1230.7v-27.6c0-0.3,0.3-0.6,0.6-0.6h4.9c0.3,0,0.6,0.3,0.6,0.6v27.6c0,0.3-0.3,0.6-0.6,0.6h-4.9
		C183.8,1231.3,183.6,1231,183.6,1230.7z"/>
	<g>
		<path class="st5" d="M211.9,1292.4H91.4c-3.3,0-6.1-2.7-6.1-6.1v-28.8c0-3.3,2.7-6.1,6.1-6.1h120.4c3.4,0,6.1,2.7,6.1,6.1v28.8
			C218,1289.7,215.2,1292.4,211.9,1292.4z"/>
		<circle class="st6" cx="151.7" cy="1271.4" r="8.4"/>
		<path class="st6" d="M103.2,1285.8v-27.6c0-0.3,0.3-0.6,0.6-0.6h4.9c0.3,0,0.6,0.3,0.6,0.6v27.6c0,0.3-0.3,0.6-0.6,0.6h-4.9
			C103.4,1286.3,103.2,1286.1,103.2,1285.8z"/>
		<path class="st6" d="M113.9,1285.8v-27.6c0-0.3,0.3-0.6,0.6-0.6h4.9c0.3,0,0.6,0.3,0.6,0.6v27.6c0,0.3-0.3,0.6-0.6,0.6h-4.9
			C114.2,1286.3,113.9,1286.1,113.9,1285.8z"/>
		<path class="st6" d="M92.4,1285.8v-27.6c0-0.3,0.3-0.6,0.6-0.6h4.9c0.3,0,0.6,0.3,0.6,0.6v27.6c0,0.3-0.3,0.6-0.6,0.6H93
			C92.7,1286.3,92.4,1286.1,92.4,1285.8z"/>
		<path class="st6" d="M194.3,1285.8v-27.6c0-0.3,0.3-0.6,0.6-0.6h4.9c0.3,0,0.6,0.3,0.6,0.6v27.6c0,0.3-0.3,0.6-0.6,0.6h-4.9
			C194.6,1286.3,194.3,1286.1,194.3,1285.8z"/>
		<path class="st6" d="M205.1,1285.8v-27.6c0-0.3,0.3-0.6,0.6-0.6h4.9c0.3,0,0.6,0.3,0.6,0.6v27.6c0,0.3-0.3,0.6-0.6,0.6h-4.9
			C205.4,1286.3,205.1,1286.1,205.1,1285.8z"/>
		<path class="st6" d="M183.6,1285.8v-27.6c0-0.3,0.3-0.6,0.6-0.6h4.9c0.3,0,0.6,0.3,0.6,0.6v27.6c0,0.3-0.3,0.6-0.6,0.6h-4.9
			C183.8,1286.3,183.6,1286.1,183.6,1285.8z"/>
	</g>
	<path class="st5" d="M372.4,1237.3H251.9c-3.4,0-6.1-2.7-6.1-6.1v-28.8c0-3.3,2.7-6.1,6.1-6.1h120.4c3.4,0,6.1,2.7,6.1,6.1v28.8
		C378.4,1234.6,375.7,1237.3,372.4,1237.3z"/>
	<circle class="st6" cx="312.2" cy="1216.3" r="8.4"/>
	<path class="st6" d="M263.7,1230.7v-27.6c0-0.3,0.3-0.6,0.6-0.6h4.9c0.3,0,0.6,0.3,0.6,0.6v27.6c0,0.3-0.3,0.6-0.6,0.6h-4.9
		C263.9,1231.3,263.7,1231,263.7,1230.7z"/>
	<path class="st6" d="M274.4,1230.7v-27.6c0-0.3,0.3-0.6,0.6-0.6h4.9c0.3,0,0.6,0.3,0.6,0.6v27.6c0,0.3-0.3,0.6-0.6,0.6H275
		C274.7,1231.3,274.4,1231,274.4,1230.7z"/>
	<path class="st6" d="M252.9,1230.7v-27.6c0-0.3,0.3-0.6,0.6-0.6h4.9c0.3,0,0.6,0.3,0.6,0.6v27.6c0,0.3-0.3,0.6-0.6,0.6h-4.9
		C253.2,1231.3,252.9,1231,252.9,1230.7z"/>
	<path class="st6" d="M354.8,1230.7v-27.6c0-0.3,0.3-0.6,0.6-0.6h4.9c0.3,0,0.6,0.3,0.6,0.6v27.6c0,0.3-0.3,0.6-0.6,0.6h-4.9
		C355.1,1231.3,354.8,1231,354.8,1230.7z"/>
	<path class="st6" d="M365.6,1230.7v-27.6c0-0.3,0.3-0.6,0.6-0.6h4.9c0.3,0,0.6,0.3,0.6,0.6v27.6c0,0.3-0.3,0.6-0.6,0.6h-4.9
		C365.8,1231.3,365.6,1231,365.6,1230.7z"/>
	<path class="st6" d="M344.1,1230.7v-27.6c0-0.3,0.3-0.6,0.6-0.6h4.9c0.3,0,0.6,0.3,0.6,0.6v27.6c0,0.3-0.3,0.6-0.6,0.6h-4.9
		C344.3,1231.3,344.1,1231,344.1,1230.7z"/>
	<g>
		<path class="st5" d="M372.4,1292.4H251.9c-3.4,0-6.1-2.7-6.1-6.1v-28.8c0-3.3,2.7-6.1,6.1-6.1h120.4c3.4,0,6.1,2.7,6.1,6.1v28.8
			C378.4,1289.7,375.7,1292.4,372.4,1292.4z"/>
		<circle class="st6" cx="312.2" cy="1271.4" r="8.4"/>
		<path class="st6" d="M263.7,1285.8v-27.6c0-0.3,0.3-0.6,0.6-0.6h4.9c0.3,0,0.6,0.3,0.6,0.6v27.6c0,0.3-0.3,0.6-0.6,0.6h-4.9
			C263.9,1286.3,263.7,1286.1,263.7,1285.8z"/>
		<path class="st6" d="M274.4,1285.8v-27.6c0-0.3,0.3-0.6,0.6-0.6h4.9c0.3,0,0.6,0.3,0.6,0.6v27.6c0,0.3-0.3,0.6-0.6,0.6H275
			C274.7,1286.3,274.4,1286.1,274.4,1285.8z"/>
		<path class="st6" d="M252.9,1285.8v-27.6c0-0.3,0.3-0.6,0.6-0.6h4.9c0.3,0,0.6,0.3,0.6,0.6v27.6c0,0.3-0.3,0.6-0.6,0.6h-4.9
			C253.2,1286.3,252.9,1286.1,252.9,1285.8z"/>
		<path class="st6" d="M354.8,1285.8v-27.6c0-0.3,0.3-0.6,0.6-0.6h4.9c0.3,0,0.6,0.3,0.6,0.6v27.6c0,0.3-0.3,0.6-0.6,0.6h-4.9
			C355.1,1286.3,354.8,1286.1,354.8,1285.8z"/>
		<path class="st6" d="M365.6,1285.8v-27.6c0-0.3,0.3-0.6,0.6-0.6h4.9c0.3,0,0.6,0.3,0.6,0.6v27.6c0,0.3-0.3,0.6-0.6,0.6h-4.9
			C365.8,1286.3,365.6,1286.1,365.6,1285.8z"/>
		<path class="st6" d="M344.1,1285.8v-27.6c0-0.3,0.3-0.6,0.6-0.6h4.9c0.3,0,0.6,0.3,0.6,0.6v27.6c0,0.3-0.3,0.6-0.6,0.6h-4.9
			C344.3,1286.3,344.1,1286.1,344.1,1285.8z"/>
	</g>
</g>
<path class="st10" d="M235.3,1379.1h-3.4v-33.6h3.4c1.2,0,1.8-1.4,0.9-2.3l-4.9-5c-0.5-0.5-1.4-0.5-1.9,0l-4.9,5
	c-0.8,0.8-0.2,2.3,0.9,2.3h3.7v33.6h-3.7c-1.2,0-1.8,1.4-0.9,2.3l4.9,5c0.5,0.5,1.4,0.5,1.9,0l4.9-5
	C237,1380.5,236.4,1379.1,235.3,1379.1z"/>
<g>
	<g>
		<path class="st5" d="M1225.9,1312.4H922.8c-6.6,0-12-5.4-12-11.9v-107.9c0-6.6,5.4-11.9,12-11.9h303.1c6.6,0,11.9,5.4,11.9,11.9
			v107.9C1237.9,1307.1,1232.5,1312.4,1225.9,1312.4z M922.8,1186.6c-3.3,0-6,2.7-6,5.9v107.9c0,3.3,2.7,5.9,6,5.9h303.1
			c3.3,0,5.9-2.7,5.9-5.9v-107.9c0-3.3-2.7-5.9-5.9-5.9H922.8z"/>
	</g>
	<path class="st5" d="M1054.2,1238.7H933.8c-3.3,0-6.1-2.7-6.1-6.1v-28.8c0-3.3,2.7-6.1,6.1-6.1h120.4c3.3,0,6.1,2.7,6.1,6.1v28.8
		C1060.3,1235.9,1057.5,1238.7,1054.2,1238.7z"/>
	<circle class="st6" cx="994" cy="1217.6" r="8.4"/>
	<path class="st6" d="M945.5,1232v-27.6c0-0.3,0.3-0.6,0.6-0.6h4.9c0.3,0,0.6,0.3,0.6,0.6v27.6c0,0.3-0.3,0.6-0.6,0.6h-4.9
		C945.8,1232.6,945.5,1232.3,945.5,1232z"/>
	<path class="st6" d="M956.2,1232v-27.6c0-0.3,0.3-0.6,0.6-0.6h4.9c0.3,0,0.6,0.3,0.6,0.6v27.6c0,0.3-0.3,0.6-0.6,0.6h-4.9
		C956.5,1232.6,956.2,1232.3,956.2,1232z"/>
	<path class="st6" d="M934.7,1232v-27.6c0-0.3,0.3-0.6,0.6-0.6h4.9c0.3,0,0.6,0.3,0.6,0.6v27.6c0,0.3-0.3,0.6-0.6,0.6h-4.9
		C935,1232.6,934.7,1232.3,934.7,1232z"/>
	<path class="st6" d="M1036.6,1232v-27.6c0-0.3,0.3-0.6,0.6-0.6h4.9c0.3,0,0.6,0.3,0.6,0.6v27.6c0,0.3-0.3,0.6-0.6,0.6h-4.9
		C1036.9,1232.6,1036.6,1232.3,1036.6,1232z"/>
	<path class="st6" d="M1047.4,1232v-27.6c0-0.3,0.3-0.6,0.6-0.6h4.9c0.3,0,0.6,0.3,0.6,0.6v27.6c0,0.3-0.3,0.6-0.6,0.6h-4.9
		C1047.7,1232.6,1047.4,1232.3,1047.4,1232z"/>
	<path class="st6" d="M1025.9,1232v-27.6c0-0.3,0.3-0.6,0.6-0.6h4.9c0.3,0,0.6,0.3,0.6,0.6v27.6c0,0.3-0.3,0.6-0.6,0.6h-4.9
		C1026.1,1232.6,1025.9,1232.3,1025.9,1232z"/>
	<g>
		<path class="st5" d="M1054.2,1293.7H933.8c-3.3,0-6.1-2.7-6.1-6.1v-28.8c0-3.3,2.7-6.1,6.1-6.1h120.4c3.3,0,6.1,2.7,6.1,6.1v28.8
			C1060.3,1291,1057.5,1293.7,1054.2,1293.7z"/>
		<circle class="st6" cx="994" cy="1272.7" r="8.4"/>
		<path class="st6" d="M945.5,1287.1v-27.6c0-0.3,0.3-0.6,0.6-0.6h4.9c0.3,0,0.6,0.3,0.6,0.6v27.6c0,0.3-0.3,0.6-0.6,0.6h-4.9
			C945.8,1287.7,945.5,1287.4,945.5,1287.1z"/>
		<path class="st6" d="M956.2,1287.1v-27.6c0-0.3,0.3-0.6,0.6-0.6h4.9c0.3,0,0.6,0.3,0.6,0.6v27.6c0,0.3-0.3,0.6-0.6,0.6h-4.9
			C956.5,1287.7,956.2,1287.4,956.2,1287.1z"/>
		<path class="st6" d="M934.7,1287.1v-27.6c0-0.3,0.3-0.6,0.6-0.6h4.9c0.3,0,0.6,0.3,0.6,0.6v27.6c0,0.3-0.3,0.6-0.6,0.6h-4.9
			C935,1287.7,934.7,1287.4,934.7,1287.1z"/>
		<path class="st6" d="M1036.6,1287.1v-27.6c0-0.3,0.3-0.6,0.6-0.6h4.9c0.3,0,0.6,0.3,0.6,0.6v27.6c0,0.3-0.3,0.6-0.6,0.6h-4.9
			C1036.9,1287.7,1036.6,1287.4,1036.6,1287.1z"/>
		<path class="st6" d="M1047.4,1287.1v-27.6c0-0.3,0.3-0.6,0.6-0.6h4.9c0.3,0,0.6,0.3,0.6,0.6v27.6c0,0.3-0.3,0.6-0.6,0.6h-4.9
			C1047.7,1287.7,1047.4,1287.4,1047.4,1287.1z"/>
		<path class="st6" d="M1025.9,1287.1v-27.6c0-0.3,0.3-0.6,0.6-0.6h4.9c0.3,0,0.6,0.3,0.6,0.6v27.6c0,0.3-0.3,0.6-0.6,0.6h-4.9
			C1026.1,1287.7,1025.9,1287.4,1025.9,1287.1z"/>
	</g>
	<path class="st5" d="M1214.7,1238.7h-120.4c-3.3,0-6.1-2.7-6.1-6.1v-28.8c0-3.3,2.7-6.1,6.1-6.1h120.4c3.3,0,6.1,2.7,6.1,6.1v28.8
		C1220.7,1235.9,1218,1238.7,1214.7,1238.7z"/>
	<circle class="st6" cx="1154.5" cy="1217.6" r="8.4"/>
	<path class="st6" d="M1106,1232v-27.6c0-0.3,0.3-0.6,0.6-0.6h4.9c0.3,0,0.6,0.3,0.6,0.6v27.6c0,0.3-0.3,0.6-0.6,0.6h-4.9
		C1106.2,1232.6,1106,1232.3,1106,1232z"/>
	<path class="st6" d="M1116.7,1232v-27.6c0-0.3,0.3-0.6,0.6-0.6h4.9c0.3,0,0.6,0.3,0.6,0.6v27.6c0,0.3-0.3,0.6-0.6,0.6h-4.9
		C1117,1232.6,1116.7,1232.3,1116.7,1232z"/>
	<path class="st6" d="M1095.2,1232v-27.6c0-0.3,0.3-0.6,0.6-0.6h4.9c0.3,0,0.6,0.3,0.6,0.6v27.6c0,0.3-0.3,0.6-0.6,0.6h-4.9
		C1095.5,1232.6,1095.2,1232.3,1095.2,1232z"/>
	<path class="st6" d="M1197.1,1232v-27.6c0-0.3,0.3-0.6,0.6-0.6h4.9c0.3,0,0.6,0.3,0.6,0.6v27.6c0,0.3-0.3,0.6-0.6,0.6h-4.9
		C1197.4,1232.6,1197.1,1232.3,1197.1,1232z"/>
	<path class="st6" d="M1207.9,1232v-27.6c0-0.3,0.3-0.6,0.6-0.6h4.9c0.3,0,0.6,0.3,0.6,0.6v27.6c0,0.3-0.3,0.6-0.6,0.6h-4.9
		C1208.1,1232.6,1207.9,1232.3,1207.9,1232z"/>
	<path class="st6" d="M1186.4,1232v-27.6c0-0.3,0.3-0.6,0.6-0.6h4.9c0.3,0,0.6,0.3,0.6,0.6v27.6c0,0.3-0.3,0.6-0.6,0.6h-4.9
		C1186.6,1232.6,1186.4,1232.3,1186.4,1232z"/>
	<g>
		<path class="st5" d="M1214.7,1293.7h-120.4c-3.3,0-6.1-2.7-6.1-6.1v-28.8c0-3.3,2.7-6.1,6.1-6.1h120.4c3.3,0,6.1,2.7,6.1,6.1v28.8
			C1220.7,1291,1218,1293.7,1214.7,1293.7z"/>
		<circle class="st6" cx="1154.5" cy="1272.7" r="8.4"/>
		<path class="st6" d="M1106,1287.1v-27.6c0-0.3,0.3-0.6,0.6-0.6h4.9c0.3,0,0.6,0.3,0.6,0.6v27.6c0,0.3-0.3,0.6-0.6,0.6h-4.9
			C1106.2,1287.7,1106,1287.4,1106,1287.1z"/>
		<path class="st6" d="M1116.7,1287.1v-27.6c0-0.3,0.3-0.6,0.6-0.6h4.9c0.3,0,0.6,0.3,0.6,0.6v27.6c0,0.3-0.3,0.6-0.6,0.6h-4.9
			C1117,1287.7,1116.7,1287.4,1116.7,1287.1z"/>
		<path class="st6" d="M1095.2,1287.1v-27.6c0-0.3,0.3-0.6,0.6-0.6h4.9c0.3,0,0.6,0.3,0.6,0.6v27.6c0,0.3-0.3,0.6-0.6,0.6h-4.9
			C1095.5,1287.7,1095.2,1287.4,1095.2,1287.1z"/>
		<path class="st6" d="M1197.1,1287.1v-27.6c0-0.3,0.3-0.6,0.6-0.6h4.9c0.3,0,0.6,0.3,0.6,0.6v27.6c0,0.3-0.3,0.6-0.6,0.6h-4.9
			C1197.4,1287.7,1197.1,1287.4,1197.1,1287.1z"/>
		<path class="st6" d="M1207.9,1287.1v-27.6c0-0.3,0.3-0.6,0.6-0.6h4.9c0.3,0,0.6,0.3,0.6,0.6v27.6c0,0.3-0.3,0.6-0.6,0.6h-4.9
			C1208.1,1287.7,1207.9,1287.4,1207.9,1287.1z"/>
		<path class="st6" d="M1186.4,1287.1v-27.6c0-0.3,0.3-0.6,0.6-0.6h4.9c0.3,0,0.6,0.3,0.6,0.6v27.6c0,0.3-0.3,0.6-0.6,0.6h-4.9
			C1186.6,1287.7,1186.4,1287.4,1186.4,1287.1z"/>
	</g>
</g>
<path class="st10" d="M1077.6,1379.5h-3.4v-33.6h3.4c1.2,0,1.8-1.4,0.9-2.3l-4.9-5c-0.5-0.5-1.4-0.5-1.9,0l-4.9,5
	c-0.8,0.8-0.2,2.3,0.9,2.3h3.7v33.6h-3.7c-1.2,0-1.8,1.4-0.9,2.3l4.9,5c0.5,0.5,1.4,0.5,1.9,0l4.9-5
	C1079.3,1380.9,1078.8,1379.5,1077.6,1379.5z"/>
<path class="st0" d="M235.3,1083.8h-3.4v-33.6h3.4c1.2,0,1.8-1.4,0.9-2.3l-4.9-5c-0.5-0.5-1.4-0.5-1.9,0l-4.9,5
	c-0.8,0.8-0.2,2.3,0.9,2.3h3.7v33.6h-3.7c-1.2,0-1.8,1.4-0.9,2.3l4.9,5c0.5,0.5,1.4,0.5,1.9,0l4.9-5
	C237,1085.3,236.4,1083.8,235.3,1083.8z"/>
<path class="st0" d="M1077.6,1084.2h-3.4v-33.6h3.4c1.2,0,1.8-1.4,0.9-2.3l-4.9-5c-0.5-0.5-1.4-0.5-1.9,0l-4.9,5
	c-0.8,0.8-0.2,2.3,0.9,2.3h3.7v33.6h-3.7c-1.2,0-1.8,1.4-0.9,2.3l4.9,5c0.5,0.5,1.4,0.5,1.9,0l4.9-5
	C1079.3,1085.7,1078.8,1084.2,1077.6,1084.2z"/>
<linearGradient id="SVGID_00000140001115697595680840000017253202373498023848_" gradientUnits="userSpaceOnUse" x1="227.6669" y1="748.6517" x2="227.6669" y2="603.0514" gradientTransform="matrix(1 0 0 -1 0 1646)">
	<stop  offset="0" style="stop-color:#10535A"/>
	<stop  offset="1" style="stop-color:#102E46"/>
</linearGradient>
<path style="fill:url(#SVGID_00000140001115697595680840000017253202373498023848_);" d="M279.6,941.5c0.2-7.6,0.5-15.5-0.2-23
	c-0.5-5.6-3-10.4-8.6-12.4c-0.8-0.3-1.6-0.5-2.4-0.7c-3.1-0.7-6.5-0.8-9.6-0.9c-5.6-0.2-11.3,0.2-16.9,0.2
	c-11.3,0-22.6,0.2-33.8,0.2c-1.4,0-2.7,0-4.1,0c-6.8,0-13.5,0-20.3,0c-4.6,0-8.3,3.7-8.3,8.3V1019c0,4.6,3.7,8.3,8.3,8.3h87.6
	c4.6,0,8.3-3.7,8.3-8.3c0-5.6,0-11.3,0-16.9c0-12,0-23.9,0-35.9C279.6,958,279.4,949.7,279.6,941.5z M269.6,1011.5
	c0,4-3.2,7.2-7.1,7.2h-71.2c-3.9,0-7.1-3.2-7.1-7.2v-91c0-4,3.2-7.2,7.1-7.2H239v12.2c0,10,8.1,18.1,18.1,18.1h12.5L269.6,1011.5
	L269.6,1011.5z M269.6,935.9h-12.5c-5.6,0-10.2-4.6-10.2-10.2v-12.2h15.5c4,0,7.1,3.2,7.1,7.2V935.9z"/>
<rect x="1026.4" y="910.8" class="st8" width="93.7" height="110.1"/>
<g>
	<g>
		<path class="st2" d="M1045.6,980.2c-0.8,0-1.5-0.2-2.1-0.4s-1.1-0.7-1.5-1.3c-0.4-0.5-0.7-1.2-0.9-2c-0.2-0.8-0.3-1.7-0.3-2.8
			c0-1,0.1-1.9,0.3-2.8c0.2-0.8,0.5-1.5,0.9-2s0.9-1,1.5-1.3c0.6-0.3,1.3-0.4,2.1-0.4c1.6,0,2.8,0.6,3.6,1.7s1.2,2.7,1.2,4.8
			s-0.4,3.7-1.2,4.8C1048.4,979.6,1047.2,980.2,1045.6,980.2z M1045.6,978.2c0.4,0,0.8-0.1,1.1-0.2s0.5-0.4,0.7-0.7s0.3-0.7,0.4-1.1
			s0.1-0.9,0.1-1.5v-2.2c0-1.1-0.2-1.9-0.5-2.6s-0.9-0.9-1.8-0.9s-1.4,0.3-1.8,0.9s-0.5,1.5-0.5,2.6v2.2c0,1.1,0.2,1.9,0.5,2.6
			C1044.1,977.9,1044.7,978.2,1045.6,978.2z"/>
		<path class="st2" d="M1052.4,967.4h4.4c1.2,0,2.1,0.3,2.8,0.9c0.6,0.6,1,1.4,1,2.4c0,0.7-0.2,1.3-0.5,1.7s-0.9,0.7-1.5,0.9v0.1
			c0.8,0.2,1.3,0.5,1.8,1c0.4,0.5,0.7,1.1,0.7,2c0,0.5-0.1,1-0.3,1.4s-0.4,0.8-0.7,1.1c-0.3,0.3-0.7,0.5-1.2,0.7
			c-0.4,0.2-1,0.2-1.5,0.2h-4.8L1052.4,967.4L1052.4,967.4z M1056.2,972.7c0.6,0,1.1-0.1,1.4-0.3c0.3-0.2,0.5-0.6,0.5-1.2v-0.6
			c0-0.6-0.2-1-0.5-1.2c-0.3-0.2-0.8-0.3-1.4-0.3h-1.5v3.7L1056.2,972.7L1056.2,972.7z M1056.5,978.2c0.7,0,1.2-0.1,1.5-0.4
			s0.5-0.7,0.5-1.3V976c0-0.6-0.2-1-0.5-1.2s-0.8-0.4-1.5-0.4h-1.8v3.8H1056.5z"/>
		<path class="st2" d="M1070.8,967.4v9.1c0,0.6-0.1,1.1-0.3,1.5c-0.2,0.5-0.5,0.8-0.8,1.1s-0.8,0.6-1.3,0.7s-1.1,0.3-1.7,0.3
			c-1.2,0-2.1-0.3-2.8-0.9c-0.7-0.6-1.1-1.4-1.3-2.4l2.2-0.5c0.1,0.5,0.3,1,0.6,1.3s0.7,0.5,1.3,0.5c0.5,0,0.9-0.2,1.2-0.5
			s0.4-0.8,0.4-1.5v-6.9h-4.2v-1.9L1070.8,967.4L1070.8,967.4z"/>
		<path class="st2" d="M1074.1,979.9v-12.6h7.9v1.9h-5.6v3.3h5.4v1.9h-5.4v3.5h5.6v1.9H1074.1z"/>
		<path class="st2" d="M1089.1,980.2c-1.6,0-2.9-0.6-3.6-1.7c-0.8-1.1-1.2-2.7-1.2-4.8c0-2.1,0.4-3.7,1.2-4.8c0.8-1.1,2-1.7,3.6-1.7
			c0.6,0,1.2,0.1,1.7,0.2c0.5,0.2,0.9,0.4,1.2,0.7c0.3,0.3,0.6,0.6,0.9,1c0.2,0.4,0.4,0.9,0.5,1.4l-2.2,0.6
			c-0.1-0.3-0.2-0.6-0.3-0.8s-0.2-0.5-0.4-0.7c-0.2-0.2-0.4-0.3-0.6-0.4s-0.5-0.2-0.9-0.2c-0.8,0-1.4,0.3-1.8,0.9s-0.5,1.5-0.5,2.6
			v2.2c0,1.1,0.2,1.9,0.5,2.6s0.9,0.9,1.8,0.9c0.3,0,0.6,0,0.9-0.2c0.2-0.1,0.4-0.2,0.6-0.4c0.2-0.2,0.3-0.4,0.4-0.7
			s0.2-0.5,0.3-0.8l2.2,0.6c-0.1,0.5-0.3,0.9-0.5,1.4c-0.2,0.4-0.5,0.8-0.9,1c-0.3,0.3-0.8,0.5-1.2,0.7
			C1090.3,980.1,1089.7,980.2,1089.1,980.2z"/>
		<path class="st2" d="M1100.7,969.3v10.6h-2.3v-10.6h-3.8v-1.9h9.9v1.9H1100.7z"/>
	</g>
</g>
<linearGradient id="SVGID_00000044877608295293469330000013273910572286419079_" gradientUnits="userSpaceOnUse" x1="1073.6168" y1="741.9857" x2="1073.6168" y2="614.7787" gradientTransform="matrix(1 0 0 -1 0 1646)">
	<stop  offset="0" style="stop-color:#10535A"/>
	<stop  offset="1" style="stop-color:#102E46"/>
</linearGradient>
<path style="fill:url(#SVGID_00000044877608295293469330000013273910572286419079_);" d="M1125.6,942.3c0.2-7.6,0.5-15.5-0.2-23
	c-0.5-5.6-3-10.4-8.6-12.4c-0.8-0.3-1.6-0.5-2.4-0.7c-3.1-0.7-6.4-0.8-9.6-0.9c-5.6-0.2-11.3,0.2-16.9,0.2
	c-11.3,0-22.6,0.2-33.8,0.2c-1.3,0-2.7,0-4.1,0c-6.8,0-13.5,0-20.3,0c-4.6,0-8.3,3.7-8.3,8.3v105.9c0,4.6,3.7,8.3,8.3,8.3h87.6
	c4.6,0,8.3-3.7,8.3-8.3c0-5.6,0-11.3,0-16.9c0-12,0-23.9,0-35.9C1125.6,958.9,1125.4,950.6,1125.6,942.3z M1115.6,1012.4
	c0,4-3.2,7.2-7.2,7.2h-71.2c-3.9,0-7.2-3.2-7.2-7.2v-91c0-4,3.2-7.2,7.2-7.2h47.8v12.2c0,10,8.1,18.1,18.1,18.1h12.5L1115.6,1012.4
	L1115.6,1012.4z M1115.6,936.7h-12.5c-5.6,0-10.2-4.6-10.2-10.2v-12.2h15.5c3.9,0,7.2,3.2,7.2,7.2L1115.6,936.7L1115.6,936.7z"/>
<path class="st3" d="M383.5,1160.4H76.9c-4.9,0-8.9-4-8.9-8.9V1114c0-4.9,4-8.9,8.9-8.9h306.6c4.9,0,9,4,9,8.9v37.5
	C392.4,1156.4,388.4,1160.4,383.5,1160.4z"/>
<g>
	<path class="st2" d="M95.9,1124.6h1.3v5h0.1c0.1-0.2,0.2-0.4,0.3-0.6s0.3-0.3,0.5-0.5s0.4-0.2,0.7-0.3c0.3-0.1,0.6-0.1,0.9-0.1
		c0.9,0,1.6,0.3,2.1,0.8c0.5,0.6,0.8,1.3,0.8,2.3v5.3h-1.3v-5.1c0-0.8-0.2-1.3-0.5-1.7s-0.8-0.6-1.5-0.6c-0.3,0-0.5,0-0.8,0.1
		c-0.2,0.1-0.5,0.2-0.7,0.3s-0.3,0.3-0.5,0.5c-0.1,0.2-0.2,0.4-0.2,0.7v5.8h-1.3L95.9,1124.6L95.9,1124.6z"/>
	<path class="st2" d="M109.2,1136.5c-0.6,0-1.1-0.2-1.4-0.5s-0.4-0.8-0.4-1.4v-5.3h-2.8v-1.1h2.1c0.3,0,0.5-0.1,0.6-0.2
		s0.2-0.3,0.2-0.6v-2.2h1.2v2.9h3.8v1.1h-3.8v6.1h3.8v1.1L109.2,1136.5L109.2,1136.5z"/>
	<path class="st2" d="M119,1136.5c-0.6,0-1.1-0.2-1.4-0.5s-0.4-0.8-0.4-1.4v-5.3h-2.8v-1.1h2.1c0.3,0,0.5-0.1,0.6-0.2
		s0.2-0.3,0.2-0.6v-2.2h1.2v2.9h3.8v1.1h-3.8v6.1h3.8v1.1L119,1136.5L119,1136.5z"/>
	<path class="st2" d="M124.9,1128.2h1.3v1.4h0.1c0.5-1,1.4-1.6,2.6-1.6c1,0,1.8,0.4,2.4,1.2s0.9,1.8,0.9,3.2s-0.3,2.4-0.9,3.2
		s-1.4,1.2-2.4,1.2c-1.2,0-2-0.5-2.6-1.6h-0.1v4.6h-1.3V1128.2z M128.4,1135.6c0.8,0,1.3-0.2,1.8-0.7c0.4-0.5,0.6-1.1,0.6-1.8v-1.4
		c0-0.8-0.2-1.4-0.6-1.8s-1-0.7-1.8-0.7c-0.3,0-0.6,0-0.8,0.1c-0.3,0.1-0.5,0.2-0.7,0.3s-0.3,0.3-0.5,0.5s-0.2,0.5-0.2,0.7v3
		c0,0.3,0.1,0.5,0.2,0.7s0.3,0.4,0.5,0.5s0.4,0.3,0.7,0.3C127.8,1135.5,128.1,1135.6,128.4,1135.6z"/>
	<path class="st2" d="M138.1,1136.7c-0.9,0-1.6-0.2-2.3-0.4c-0.6-0.3-1.2-0.7-1.6-1.2l0.9-0.8c0.4,0.4,0.8,0.7,1.3,1
		s1.1,0.3,1.7,0.3c0.6,0,1.2-0.1,1.6-0.3s0.6-0.6,0.6-1.1c0-0.2,0-0.4-0.1-0.5c-0.1-0.2-0.2-0.3-0.3-0.3s-0.3-0.2-0.5-0.2
		c-0.2-0.1-0.4-0.1-0.6-0.1l-1.3-0.2c-0.3,0-0.6-0.1-0.9-0.2c-0.3-0.1-0.6-0.2-0.9-0.4c-0.3-0.2-0.5-0.4-0.7-0.7
		c-0.2-0.3-0.3-0.7-0.3-1.1c0-0.4,0.1-0.8,0.2-1.1c0.2-0.3,0.4-0.6,0.7-0.8s0.7-0.4,1.1-0.5s0.9-0.2,1.3-0.2c0.8,0,1.4,0.1,2,0.4
		c0.6,0.2,1,0.6,1.4,1l-0.8,0.8c-0.1-0.1-0.2-0.2-0.4-0.4c-0.1-0.1-0.3-0.2-0.5-0.3c-0.2-0.1-0.5-0.2-0.7-0.2s-0.6-0.1-1-0.1
		c-0.7,0-1.2,0.1-1.5,0.3s-0.5,0.6-0.5,1c0,0.2,0,0.4,0.1,0.5c0.1,0.2,0.2,0.3,0.3,0.3s0.3,0.2,0.5,0.2c0.2,0.1,0.4,0.1,0.5,0.1
		l1.3,0.2c0.3,0,0.6,0.1,1,0.2c0.3,0.1,0.6,0.2,0.9,0.4c0.3,0.2,0.5,0.4,0.7,0.7s0.3,0.7,0.3,1.1c0,0.8-0.3,1.5-1,1.9
		S139.1,1136.7,138.1,1136.7z"/>
	<path class="st2" d="M147.7,1130.3c-0.4,0-0.8-0.1-0.9-0.3s-0.3-0.4-0.3-0.7v-0.3c0-0.3,0.1-0.5,0.3-0.7c0.2-0.2,0.5-0.3,0.9-0.3
		s0.8,0.1,0.9,0.3s0.3,0.4,0.3,0.7v0.3c0,0.3-0.1,0.5-0.3,0.7C148.4,1130.2,148.1,1130.3,147.7,1130.3z M147.7,1136.7
		c-0.4,0-0.8-0.1-0.9-0.3s-0.3-0.4-0.3-0.7v-0.3c0-0.3,0.1-0.5,0.3-0.7c0.2-0.2,0.5-0.3,0.9-0.3s0.8,0.1,0.9,0.3s0.3,0.4,0.3,0.7
		v0.3c0,0.3-0.1,0.5-0.3,0.7S148.1,1136.7,147.7,1136.7z"/>
	<path class="st2" d="M154,1138.8l5.6-14.5h1.2l-5.6,14.5H154z"/>
	<path class="st2" d="M163.7,1138.8l5.6-14.5h1.2l-5.6,14.5H163.7z"/>
	<path class="st2" d="M172.8,1136.5v-8.3h1.2v1h0.1c0.1-0.3,0.3-0.6,0.6-0.8s0.6-0.3,1.1-0.3c0.5,0,0.9,0.1,1.1,0.4
		c0.2,0.2,0.4,0.6,0.4,0.9h0.1c0.1-0.4,0.4-0.7,0.6-0.9s0.7-0.4,1.2-0.4c0.7,0,1.1,0.2,1.4,0.7c0.2,0.5,0.4,1.2,0.4,2v5.8h-1.2v-5.6
		c0-0.7-0.1-1.2-0.2-1.5s-0.4-0.4-0.8-0.4c-0.3,0-0.6,0.1-0.8,0.3s-0.3,0.6-0.3,1v6.1h-1.2v-5.6c0-0.7-0.1-1.2-0.2-1.5
		s-0.4-0.4-0.8-0.4c-0.4,0-0.6,0.1-0.9,0.3s-0.3,0.6-0.3,1v6.1L172.8,1136.5L172.8,1136.5z"/>
	<path class="st2" d="M183.4,1135.4h3v-6.1h-3v-1.1h4.3v7.2h2.8v1.1h-7.1L183.4,1135.4L183.4,1135.4z M187,1126.3
		c-0.4,0-0.6-0.1-0.8-0.2s-0.2-0.3-0.2-0.6v-0.3c0-0.2,0.1-0.4,0.2-0.6c0.1-0.2,0.4-0.2,0.8-0.2c0.4,0,0.6,0.1,0.8,0.2
		c0.1,0.2,0.2,0.3,0.2,0.6v0.3c0,0.2-0.1,0.4-0.2,0.6C187.7,1126.2,187.4,1126.3,187,1126.3z"/>
	<path class="st2" d="M192.9,1136.5v-8.3h1.3v1.4h0.1c0.1-0.2,0.2-0.4,0.3-0.6s0.3-0.3,0.5-0.5s0.4-0.2,0.7-0.3s0.6-0.1,0.9-0.1
		c0.9,0,1.6,0.3,2.1,0.8c0.5,0.6,0.8,1.3,0.8,2.3v5.3h-1.3v-5.1c0-0.8-0.2-1.3-0.5-1.7c-0.3-0.4-0.8-0.6-1.5-0.6
		c-0.3,0-0.5,0-0.8,0.1c-0.2,0.1-0.5,0.2-0.7,0.3s-0.4,0.3-0.5,0.5c-0.1,0.2-0.2,0.4-0.2,0.7v5.8L192.9,1136.5L192.9,1136.5z"/>
	<path class="st2" d="M202.8,1135.4h3v-6.1h-3v-1.1h4.3v7.2h2.8v1.1h-7.1L202.8,1135.4L202.8,1135.4z M206.4,1126.3
		c-0.4,0-0.6-0.1-0.8-0.2c-0.1-0.2-0.2-0.3-0.2-0.6v-0.3c0-0.2,0.1-0.4,0.2-0.6c0.1-0.2,0.4-0.2,0.8-0.2c0.4,0,0.6,0.1,0.8,0.2
		c0.1,0.2,0.2,0.3,0.2,0.6v0.3c0,0.2-0.1,0.4-0.2,0.6S206.8,1126.3,206.4,1126.3z"/>
	<path class="st2" d="M215.6,1136.7c-0.6,0-1.1-0.1-1.6-0.3c-0.5-0.2-0.9-0.5-1.2-0.9s-0.6-0.8-0.8-1.4c-0.2-0.5-0.3-1.1-0.3-1.8
		c0-0.7,0.1-1.3,0.3-1.8s0.4-1,0.8-1.4s0.7-0.7,1.2-0.9s1-0.3,1.6-0.3s1.1,0.1,1.6,0.3c0.5,0.2,0.9,0.5,1.2,0.9s0.6,0.8,0.8,1.4
		s0.3,1.1,0.3,1.8c0,0.7-0.1,1.3-0.3,1.8s-0.4,1-0.8,1.4s-0.7,0.7-1.2,0.9C216.7,1136.6,216.2,1136.7,215.6,1136.7z M215.6,1135.6
		c0.7,0,1.3-0.2,1.8-0.7c0.4-0.4,0.7-1.1,0.7-2v-1.2c0-0.9-0.2-1.6-0.7-2c-0.4-0.4-1-0.7-1.8-0.7s-1.3,0.2-1.8,0.7
		c-0.4,0.4-0.7,1.1-0.7,2v1.2c0,0.9,0.2,1.6,0.7,2C214.3,1135.4,214.9,1135.6,215.6,1135.6z"/>
	<path class="st2" d="M223,1132.3v-1.4h4.7v1.4H223z"/>
	<path class="st2" d="M235,1136.7c-0.7,0-1.3-0.1-1.8-0.4c-0.5-0.3-0.9-0.6-1.2-1.1c-0.3-0.5-0.6-1.1-0.7-1.8
		c-0.1-0.7-0.2-1.6-0.2-2.5c0-0.9,0.1-1.7,0.2-2.5s0.4-1.3,0.7-1.8s0.7-0.9,1.2-1.1s1.1-0.4,1.8-0.4s1.3,0.1,1.8,0.4
		c0.5,0.3,0.9,0.6,1.2,1.1s0.6,1.1,0.7,1.8c0.1,0.7,0.2,1.6,0.2,2.5c0,0.9-0.1,1.8-0.2,2.5c-0.1,0.7-0.4,1.3-0.7,1.8
		s-0.7,0.9-1.2,1.1S235.7,1136.7,235,1136.7z M235,1135.5c0.4,0,0.8-0.1,1.2-0.3s0.6-0.4,0.8-0.8c0.2-0.3,0.4-0.7,0.4-1.2
		c0.1-0.5,0.1-1,0.1-1.5v-1.8c0-0.6-0.1-1.1-0.1-1.5c-0.1-0.5-0.2-0.9-0.4-1.2c-0.2-0.3-0.5-0.6-0.8-0.8c-0.3-0.2-0.7-0.3-1.2-0.3
		s-0.8,0.1-1.2,0.3c-0.3,0.2-0.6,0.4-0.8,0.8s-0.4,0.7-0.4,1.2c-0.1,0.5-0.1,1-0.1,1.5v1.8c0,0.6,0.1,1.1,0.1,1.5
		c0.1,0.5,0.2,0.8,0.4,1.2c0.2,0.3,0.5,0.6,0.8,0.8C234.2,1135.4,234.6,1135.5,235,1135.5z M235,1131.8c-0.4,0-0.6-0.1-0.8-0.2
		s-0.2-0.3-0.2-0.6v-0.4c0-0.2,0.1-0.4,0.2-0.6s0.4-0.2,0.8-0.2c0.4,0,0.6,0.1,0.8,0.2s0.2,0.3,0.2,0.6v0.4c0,0.2-0.1,0.4-0.2,0.6
		C235.7,1131.8,235.4,1131.8,235,1131.8z"/>
	<path class="st2" d="M248.6,1136.5H241v-1.4l3.8-3.4c0.6-0.5,1-1,1.4-1.5s0.5-1.1,0.5-1.7v-0.2c0-0.7-0.2-1.2-0.5-1.6
		c-0.4-0.4-0.9-0.6-1.6-0.6c-0.7,0-1.2,0.2-1.6,0.5s-0.6,0.8-0.8,1.4l-1.2-0.4c0.1-0.3,0.3-0.7,0.4-1s0.4-0.6,0.7-0.8
		c0.3-0.2,0.6-0.4,1.1-0.6s0.9-0.2,1.4-0.2c0.6,0,1.1,0.1,1.5,0.2s0.8,0.4,1.1,0.7s0.5,0.6,0.7,1c0.2,0.4,0.2,0.8,0.2,1.3
		c0,0.4-0.1,0.8-0.2,1.2s-0.3,0.7-0.5,1.1c-0.2,0.3-0.5,0.7-0.8,1c-0.3,0.3-0.6,0.7-1,1l-3.1,2.8h6.1L248.6,1136.5L248.6,1136.5z"/>
	<path class="st2" d="M254.4,1136.7c-0.4,0-0.8-0.1-0.9-0.3s-0.3-0.4-0.3-0.7v-0.3c0-0.3,0.1-0.5,0.3-0.7c0.2-0.2,0.5-0.3,0.9-0.3
		s0.8,0.1,0.9,0.3s0.3,0.4,0.3,0.7v0.3c0,0.3-0.1,0.5-0.3,0.7S254.9,1136.7,254.4,1136.7z"/>
	<path class="st2" d="M264.3,1136.7c-0.6,0-1.1-0.1-1.6-0.3c-0.5-0.2-0.9-0.5-1.2-0.9s-0.6-0.8-0.8-1.4c-0.2-0.5-0.3-1.1-0.3-1.8
		c0-0.7,0.1-1.3,0.3-1.8s0.5-1,0.8-1.4c0.3-0.4,0.7-0.7,1.2-0.9s1-0.3,1.6-0.3c0.6,0,1.1,0.1,1.5,0.3c0.5,0.2,0.9,0.5,1.2,0.8
		s0.6,0.8,0.7,1.3c0.2,0.5,0.3,1,0.3,1.6v0.6h-6.2v0.4c0,0.4,0.1,0.7,0.2,1s0.3,0.6,0.5,0.8s0.5,0.4,0.8,0.5s0.7,0.2,1.1,0.2
		c0.6,0,1-0.1,1.5-0.4s0.7-0.6,0.9-1.1l1,0.7c-0.2,0.6-0.7,1-1.2,1.4C265.8,1136.5,265.1,1136.7,264.3,1136.7z M264.2,1129.1
		c-0.4,0-0.7,0.1-1,0.2c-0.3,0.1-0.6,0.3-0.8,0.5c-0.2,0.2-0.4,0.5-0.5,0.8c-0.1,0.3-0.2,0.6-0.2,1v0.1h4.8v-0.2
		c0-0.4-0.1-0.7-0.2-1s-0.3-0.6-0.5-0.8s-0.4-0.4-0.7-0.5C264.9,1129.1,264.5,1129.1,264.2,1129.1z"/>
	<path class="st2" d="M270,1136.5l3.1-4.2l-3-4.1h1.5l1.3,1.8l1,1.4h0.1l1-1.4l1.2-1.8h1.5l-3.1,4.1l3.1,4.2h-1.5l-1.4-2l-1-1.3
		h-0.1l-0.9,1.3l-1.4,2L270,1136.5L270,1136.5z"/>
	<path class="st2" d="M286.7,1136.5c-0.5,0-0.9-0.1-1.1-0.4s-0.4-0.6-0.4-1h-0.1c-0.2,0.5-0.5,0.9-0.9,1.1s-1,0.4-1.6,0.4
		c-0.9,0-1.6-0.2-2.1-0.7s-0.8-1.1-0.8-1.9c0-0.8,0.3-1.4,0.9-1.8s1.5-0.6,2.7-0.6h1.8v-0.8c0-0.6-0.2-1.1-0.5-1.4
		c-0.4-0.3-0.8-0.5-1.5-0.5c-0.6,0-1,0.1-1.4,0.3c-0.4,0.2-0.6,0.5-0.9,0.9l-0.9-0.7c0.1-0.2,0.2-0.4,0.4-0.6
		c0.2-0.2,0.4-0.4,0.7-0.6s0.6-0.3,0.9-0.4c0.4-0.1,0.7-0.1,1.1-0.1c1,0,1.8,0.2,2.3,0.8s0.9,1.2,0.9,2.1v4.6h1.2v1.1L286.7,1136.5
		L286.7,1136.5z M282.9,1135.6c0.3,0,0.6,0,0.9-0.1c0.3-0.1,0.5-0.2,0.7-0.3s0.4-0.3,0.5-0.5c0.1-0.2,0.2-0.4,0.2-0.6v-1.4h-1.8
		c-0.8,0-1.3,0.1-1.7,0.3c-0.4,0.2-0.5,0.5-0.5,0.9v0.3c0,0.4,0.1,0.8,0.5,1S282.3,1135.6,282.9,1135.6z"/>
	<path class="st2" d="M289.3,1136.5v-8.3h1.2v1h0.1c0.1-0.3,0.3-0.6,0.5-0.8s0.6-0.3,1-0.3c0.5,0,0.9,0.1,1.1,0.4
		c0.2,0.2,0.4,0.6,0.4,0.9h0c0.1-0.4,0.4-0.7,0.6-0.9s0.7-0.4,1.2-0.4c0.7,0,1.1,0.2,1.4,0.7c0.2,0.5,0.4,1.2,0.4,2v5.8H296v-5.6
		c0-0.7-0.1-1.2-0.2-1.5s-0.4-0.4-0.8-0.4c-0.3,0-0.6,0.1-0.8,0.3s-0.3,0.6-0.3,1v6.1h-1.2v-5.6c0-0.7-0.1-1.2-0.2-1.5
		s-0.4-0.4-0.8-0.4c-0.4,0-0.6,0.1-0.9,0.3s-0.3,0.6-0.3,1v6.1L289.3,1136.5L289.3,1136.5z"/>
	<path class="st2" d="M299.6,1128.2h1.3v1.4h0.1c0.5-1,1.4-1.6,2.6-1.6c1,0,1.8,0.4,2.4,1.2s0.9,1.8,0.9,3.2s-0.3,2.4-0.9,3.2
		s-1.4,1.2-2.4,1.2c-1.2,0-2-0.5-2.6-1.6h-0.1v4.6h-1.3V1128.2z M303.1,1135.6c0.8,0,1.3-0.2,1.8-0.7c0.4-0.5,0.6-1.1,0.6-1.8v-1.4
		c0-0.8-0.2-1.4-0.6-1.8s-1-0.7-1.8-0.7c-0.3,0-0.6,0-0.8,0.1c-0.3,0.1-0.5,0.2-0.7,0.3s-0.4,0.3-0.5,0.5s-0.2,0.5-0.2,0.7v3
		c0,0.3,0.1,0.5,0.2,0.7s0.3,0.4,0.5,0.5s0.4,0.3,0.7,0.3C302.5,1135.5,302.8,1135.6,303.1,1135.6z"/>
	<path class="st2" d="M309.1,1135.4h2.9v-9.7h-2.9v-1.1h4.2v10.8h2.9v1.1h-7.1V1135.4z"/>
	<path class="st2" d="M322.5,1136.7c-0.6,0-1.1-0.1-1.6-0.3c-0.5-0.2-0.9-0.5-1.2-0.9s-0.6-0.8-0.8-1.4c-0.2-0.5-0.3-1.1-0.3-1.8
		c0-0.7,0.1-1.3,0.3-1.8s0.5-1,0.8-1.4c0.3-0.4,0.7-0.7,1.2-0.9s1-0.3,1.6-0.3c0.6,0,1.1,0.1,1.5,0.3c0.5,0.2,0.9,0.5,1.2,0.8
		s0.6,0.8,0.7,1.3c0.2,0.5,0.3,1,0.3,1.6v0.6H320v0.4c0,0.4,0.1,0.7,0.2,1s0.3,0.6,0.5,0.8s0.5,0.4,0.8,0.5s0.7,0.2,1.1,0.2
		c0.6,0,1-0.1,1.5-0.4s0.7-0.6,0.9-1.1l1,0.7c-0.2,0.6-0.7,1-1.2,1.4C324.1,1136.5,323.4,1136.7,322.5,1136.7z M322.4,1129.1
		c-0.4,0-0.7,0.1-1,0.2c-0.3,0.1-0.6,0.3-0.8,0.5c-0.2,0.2-0.4,0.5-0.5,0.8c-0.1,0.3-0.2,0.6-0.2,1v0.1h4.8v-0.2
		c0-0.4-0.1-0.7-0.2-1s-0.3-0.6-0.5-0.8s-0.4-0.4-0.7-0.5C323.1,1129.1,322.8,1129.1,322.4,1129.1z"/>
	<path class="st2" d="M332.1,1136.7c-0.4,0-0.8-0.1-0.9-0.3s-0.3-0.4-0.3-0.7v-0.3c0-0.3,0.1-0.5,0.3-0.7c0.2-0.2,0.5-0.3,0.9-0.3
		s0.8,0.1,0.9,0.3s0.3,0.4,0.3,0.7v0.3c0,0.3-0.1,0.5-0.3,0.7S332.5,1136.7,332.1,1136.7z"/>
	<path class="st2" d="M338.5,1136.5v-8.3h1.3v1.4h0.1c0.1-0.2,0.2-0.4,0.3-0.6s0.3-0.3,0.5-0.5s0.4-0.2,0.7-0.3s0.6-0.1,0.9-0.1
		c0.9,0,1.6,0.3,2.1,0.8c0.5,0.6,0.8,1.3,0.8,2.3v5.3h-1.3v-5.1c0-0.8-0.2-1.3-0.5-1.7c-0.3-0.4-0.8-0.6-1.5-0.6
		c-0.3,0-0.5,0-0.8,0.1c-0.2,0.1-0.5,0.2-0.7,0.3s-0.4,0.3-0.5,0.5c-0.1,0.2-0.2,0.4-0.2,0.7v5.8L338.5,1136.5L338.5,1136.5z"/>
	<path class="st2" d="M351.6,1136.7c-0.6,0-1.1-0.1-1.6-0.3s-0.9-0.5-1.2-0.9s-0.6-0.8-0.8-1.4c-0.2-0.5-0.3-1.1-0.3-1.8
		c0-0.7,0.1-1.3,0.3-1.8s0.5-1,0.8-1.4s0.7-0.7,1.2-0.9s1-0.3,1.6-0.3c0.6,0,1.1,0.1,1.5,0.3c0.5,0.2,0.9,0.5,1.2,0.8
		s0.6,0.8,0.7,1.3c0.2,0.5,0.3,1,0.3,1.6v0.6h-6.2v0.4c0,0.4,0.1,0.7,0.2,1s0.3,0.6,0.5,0.8c0.2,0.2,0.5,0.4,0.8,0.5
		c0.3,0.1,0.7,0.2,1.1,0.2c0.6,0,1-0.1,1.5-0.4s0.7-0.6,0.9-1.1l1,0.7c-0.2,0.6-0.7,1-1.2,1.4
		C353.2,1136.5,352.5,1136.7,351.6,1136.7z M351.6,1129.1c-0.4,0-0.7,0.1-1,0.2c-0.3,0.1-0.6,0.3-0.8,0.5s-0.4,0.5-0.5,0.8
		c-0.1,0.3-0.2,0.6-0.2,1v0.1h4.8v-0.2c0-0.4-0.1-0.7-0.2-1s-0.3-0.6-0.5-0.8s-0.4-0.4-0.7-0.5
		C352.2,1129.1,351.9,1129.1,351.6,1129.1z"/>
	<path class="st2" d="M361.6,1136.5c-0.6,0-1.1-0.2-1.4-0.5s-0.5-0.8-0.5-1.4v-5.3H357v-1.1h2.1c0.3,0,0.5-0.1,0.6-0.2
		s0.2-0.3,0.2-0.6v-2.2h1.2v2.9h3.8v1.1h-3.8v6.1h3.8v1.1L361.6,1136.5L361.6,1136.5z"/>
</g>
<path class="st3" d="M1228.8,1158.6H922.1c-4.9,0-9-4-9-8.9v-37.5c0-4.9,4-8.9,9-8.9h306.6c4.9,0,8.9,4,8.9,8.9v37.5
	C1237.7,1154.6,1233.7,1158.6,1228.8,1158.6z"/>
<g>
	<path class="st2" d="M941.2,1124.4h1.3v5h0.1c0.1-0.2,0.2-0.4,0.3-0.6s0.3-0.3,0.5-0.5s0.4-0.2,0.7-0.3s0.6-0.1,0.9-0.1
		c0.9,0,1.6,0.3,2.1,0.8c0.5,0.6,0.8,1.3,0.8,2.3v5.3h-1.3v-5.1c0-0.8-0.2-1.3-0.5-1.7c-0.3-0.4-0.8-0.6-1.5-0.6
		c-0.3,0-0.5,0-0.8,0.1c-0.2,0.1-0.5,0.2-0.7,0.3s-0.3,0.3-0.5,0.5c-0.1,0.2-0.2,0.4-0.2,0.7v5.8h-1.3V1124.4z"/>
	<path class="st2" d="M954.5,1136.4c-0.6,0-1.1-0.2-1.4-0.5c-0.3-0.3-0.4-0.8-0.4-1.4v-5.3h-2.8v-1.1h2.1c0.3,0,0.5-0.1,0.6-0.2
		s0.2-0.3,0.2-0.6v-2.2h1.2v2.9h3.8v1.1H954v6.1h3.8v1.1L954.5,1136.4L954.5,1136.4z"/>
	<path class="st2" d="M964.2,1136.4c-0.6,0-1.1-0.2-1.4-0.5c-0.3-0.3-0.4-0.8-0.4-1.4v-5.3h-2.8v-1.1h2.1c0.3,0,0.5-0.1,0.6-0.2
		s0.2-0.3,0.2-0.6v-2.2h1.2v2.9h3.8v1.1h-3.8v6.1h3.8v1.1L964.2,1136.4L964.2,1136.4z"/>
	<path class="st2" d="M970.2,1128.1h1.3v1.4h0.1c0.5-1,1.4-1.6,2.6-1.6c1,0,1.8,0.4,2.4,1.2c0.6,0.8,0.9,1.8,0.9,3.2
		s-0.3,2.4-0.9,3.2s-1.4,1.2-2.4,1.2c-1.2,0-2-0.5-2.6-1.6h-0.1v4.6h-1.3V1128.1z M973.7,1135.5c0.8,0,1.3-0.2,1.8-0.7
		c0.4-0.5,0.6-1.1,0.6-1.8v-1.4c0-0.8-0.2-1.4-0.6-1.8c-0.4-0.5-1-0.7-1.8-0.7c-0.3,0-0.6,0-0.8,0.1c-0.3,0.1-0.5,0.2-0.7,0.3
		c-0.2,0.2-0.3,0.3-0.5,0.5c-0.1,0.2-0.2,0.5-0.2,0.7v3c0,0.3,0.1,0.5,0.2,0.7s0.3,0.4,0.5,0.5c0.2,0.2,0.4,0.3,0.7,0.3
		C973.1,1135.4,973.4,1135.5,973.7,1135.5z"/>
	<path class="st2" d="M983.3,1136.6c-0.9,0-1.6-0.2-2.3-0.4s-1.2-0.7-1.6-1.2l0.9-0.8c0.4,0.4,0.8,0.7,1.3,1s1,0.3,1.7,0.3
		c0.7,0,1.2-0.1,1.6-0.3c0.4-0.2,0.6-0.6,0.6-1.1c0-0.2,0-0.4-0.1-0.5c-0.1-0.2-0.2-0.3-0.3-0.3s-0.3-0.2-0.5-0.2
		c-0.2-0.1-0.4-0.1-0.5-0.1l-1.3-0.2c-0.3,0-0.6-0.1-1-0.2c-0.3-0.1-0.7-0.2-0.9-0.4c-0.3-0.2-0.5-0.4-0.7-0.7s-0.3-0.7-0.3-1.1
		c0-0.4,0.1-0.8,0.2-1.1c0.2-0.3,0.4-0.6,0.7-0.8c0.3-0.2,0.7-0.4,1.1-0.5c0.4-0.1,0.9-0.2,1.3-0.2c0.8,0,1.4,0.1,2,0.4s1,0.6,1.4,1
		l-0.8,0.8c-0.1-0.1-0.2-0.2-0.4-0.4c-0.2-0.1-0.3-0.2-0.5-0.3s-0.5-0.2-0.7-0.2c-0.3-0.1-0.6-0.1-1-0.1c-0.7,0-1.2,0.1-1.5,0.3
		s-0.5,0.6-0.5,1c0,0.2,0,0.4,0.1,0.5c0.1,0.2,0.2,0.3,0.3,0.3s0.3,0.2,0.5,0.2c0.2,0.1,0.4,0.1,0.5,0.1l1.3,0.2
		c0.3,0,0.6,0.1,1,0.2c0.3,0.1,0.6,0.2,0.9,0.4s0.5,0.4,0.7,0.7s0.3,0.7,0.3,1.1c0,0.8-0.3,1.5-1,1.9S984.4,1136.6,983.3,1136.6z"/>
	<path class="st2" d="M993,1130.2c-0.4,0-0.8-0.1-0.9-0.3s-0.3-0.4-0.3-0.7v-0.3c0-0.3,0.1-0.5,0.3-0.7s0.5-0.3,0.9-0.3
		s0.8,0.1,0.9,0.3s0.3,0.4,0.3,0.7v0.3c0,0.3-0.1,0.5-0.3,0.7C993.7,1130.1,993.4,1130.2,993,1130.2z M993,1136.6
		c-0.4,0-0.8-0.1-0.9-0.3c-0.2-0.2-0.3-0.4-0.3-0.7v-0.3c0-0.3,0.1-0.5,0.3-0.7c0.2-0.2,0.5-0.3,0.9-0.3s0.8,0.1,0.9,0.3
		s0.3,0.4,0.3,0.7v0.3c0,0.3-0.1,0.5-0.3,0.7S993.4,1136.6,993,1136.6z"/>
	<path class="st2" d="M999.3,1138.7l5.6-14.5h1.2l-5.6,14.5H999.3z"/>
	<path class="st2" d="M1009,1138.7l5.6-14.5h1.2l-5.6,14.5H1009z"/>
	<path class="st2" d="M1018.1,1136.4v-8.3h1.2v1h0.1c0.1-0.3,0.3-0.6,0.5-0.8s0.6-0.3,1-0.3c0.5,0,0.8,0.1,1.1,0.4
		c0.2,0.2,0.4,0.6,0.4,0.9h0c0.2-0.4,0.4-0.7,0.7-0.9s0.7-0.4,1.2-0.4c0.7,0,1.1,0.2,1.4,0.7c0.2,0.5,0.3,1.2,0.3,2v5.8h-1.2v-5.6
		c0-0.7-0.1-1.2-0.2-1.5s-0.4-0.4-0.8-0.4c-0.3,0-0.6,0.1-0.8,0.3c-0.2,0.2-0.3,0.6-0.3,1v6.1h-1.2v-5.6c0-0.7-0.1-1.2-0.2-1.5
		c-0.2-0.3-0.4-0.4-0.8-0.4c-0.3,0-0.6,0.1-0.8,0.3s-0.3,0.6-0.3,1v6.1L1018.1,1136.4L1018.1,1136.4z"/>
	<path class="st2" d="M1028.6,1135.3h3v-6.1h-3v-1.1h4.3v7.2h2.8v1.1h-7.1L1028.6,1135.3L1028.6,1135.3z M1032.3,1126.2
		c-0.4,0-0.6-0.1-0.8-0.2c-0.2-0.2-0.2-0.3-0.2-0.6v-0.3c0-0.2,0.1-0.4,0.2-0.6c0.2-0.2,0.4-0.2,0.8-0.2s0.6,0.1,0.8,0.2
		c0.2,0.2,0.2,0.3,0.2,0.6v0.3c0,0.2-0.1,0.4-0.2,0.6C1032.9,1126.2,1032.7,1126.2,1032.3,1126.2z"/>
	<path class="st2" d="M1038.2,1136.4v-8.3h1.3v1.4h0.1c0.1-0.2,0.2-0.4,0.3-0.6s0.3-0.3,0.5-0.5s0.4-0.2,0.7-0.3s0.6-0.1,0.9-0.1
		c0.9,0,1.6,0.3,2.1,0.8c0.5,0.6,0.8,1.3,0.8,2.3v5.3h-1.3v-5.1c0-0.8-0.2-1.3-0.5-1.7c-0.3-0.4-0.8-0.6-1.5-0.6
		c-0.3,0-0.5,0-0.8,0.1c-0.2,0.1-0.5,0.2-0.7,0.3c-0.2,0.1-0.3,0.3-0.5,0.5c-0.1,0.2-0.2,0.4-0.2,0.7v5.8L1038.2,1136.4
		L1038.2,1136.4z"/>
	<path class="st2" d="M1048.1,1135.3h3v-6.1h-3v-1.1h4.3v7.2h2.8v1.1h-7.1L1048.1,1135.3L1048.1,1135.3z M1051.7,1126.2
		c-0.4,0-0.6-0.1-0.8-0.2c-0.2-0.2-0.2-0.3-0.2-0.6v-0.3c0-0.2,0.1-0.4,0.2-0.6c0.2-0.2,0.4-0.2,0.8-0.2s0.6,0.1,0.8,0.2
		c0.2,0.2,0.2,0.3,0.2,0.6v0.3c0,0.2-0.1,0.4-0.2,0.6C1052.3,1126.2,1052.1,1126.2,1051.7,1126.2z"/>
	<path class="st2" d="M1060.9,1136.6c-0.6,0-1.1-0.1-1.6-0.3c-0.5-0.2-0.9-0.5-1.2-0.9s-0.6-0.8-0.8-1.4c-0.2-0.5-0.3-1.1-0.3-1.8
		c0-0.7,0.1-1.3,0.3-1.8s0.4-1,0.8-1.4s0.7-0.7,1.2-0.9s1-0.3,1.6-0.3s1.1,0.1,1.6,0.3c0.5,0.2,0.9,0.5,1.2,0.9s0.6,0.8,0.8,1.4
		s0.3,1.1,0.3,1.8c0,0.7-0.1,1.3-0.3,1.8s-0.4,1-0.8,1.4c-0.3,0.4-0.7,0.7-1.2,0.9C1062,1136.5,1061.5,1136.6,1060.9,1136.6z
		 M1060.9,1135.5c0.7,0,1.3-0.2,1.8-0.7c0.4-0.4,0.7-1.1,0.7-2v-1.2c0-0.9-0.2-1.6-0.7-2c-0.4-0.4-1-0.7-1.8-0.7
		c-0.7,0-1.3,0.2-1.8,0.7s-0.7,1.1-0.7,2v1.2c0,0.9,0.2,1.6,0.7,2C1059.6,1135.3,1060.2,1135.5,1060.9,1135.5z"/>
	<path class="st2" d="M1068.2,1132.2v-1.4h4.7v1.4H1068.2z"/>
	<path class="st2" d="M1080.3,1136.6c-0.7,0-1.3-0.1-1.8-0.4c-0.5-0.3-0.9-0.6-1.2-1.1s-0.6-1.1-0.7-1.8s-0.2-1.6-0.2-2.5
		c0-0.9,0.1-1.7,0.2-2.5s0.4-1.3,0.7-1.8s0.7-0.9,1.2-1.1s1.1-0.4,1.8-0.4c0.7,0,1.3,0.1,1.8,0.4c0.5,0.3,0.9,0.6,1.2,1.1
		s0.6,1.1,0.7,1.8c0.2,0.7,0.2,1.6,0.2,2.5c0,0.9-0.1,1.8-0.2,2.5s-0.4,1.3-0.7,1.8s-0.7,0.9-1.2,1.1
		C1081.6,1136.5,1081,1136.6,1080.3,1136.6z M1080.3,1135.4c0.4,0,0.8-0.1,1.2-0.3c0.3-0.2,0.6-0.4,0.8-0.8c0.2-0.3,0.3-0.7,0.4-1.2
		c0.1-0.5,0.2-1,0.2-1.5v-1.8c0-0.6-0.1-1.1-0.2-1.5s-0.2-0.9-0.4-1.2c-0.2-0.3-0.5-0.6-0.8-0.8c-0.3-0.2-0.7-0.3-1.2-0.3
		s-0.8,0.1-1.2,0.3c-0.3,0.2-0.6,0.4-0.8,0.8c-0.2,0.3-0.3,0.7-0.4,1.2s-0.2,1-0.2,1.5v1.8c0,0.6,0.1,1.1,0.2,1.5
		c0.1,0.5,0.2,0.8,0.4,1.2c0.2,0.3,0.5,0.6,0.8,0.8C1079.5,1135.3,1079.8,1135.4,1080.3,1135.4z M1080.3,1131.7
		c-0.4,0-0.6-0.1-0.8-0.2s-0.2-0.3-0.2-0.6v-0.4c0-0.2,0.1-0.4,0.2-0.6s0.4-0.2,0.8-0.2s0.6,0.1,0.8,0.2c0.2,0.2,0.2,0.3,0.2,0.6
		v0.4c0,0.2-0.1,0.4-0.2,0.6S1080.7,1131.7,1080.3,1131.7z"/>
	<path class="st2" d="M1089.5,1129.9c0.8,0,1.4-0.2,1.8-0.5s0.6-0.8,0.6-1.3v-0.1c0-0.6-0.2-1.1-0.6-1.3s-0.9-0.4-1.5-0.4
		c-0.6,0-1.1,0.1-1.5,0.4c-0.4,0.3-0.7,0.6-0.9,1l-1-0.8c0.1-0.2,0.3-0.4,0.5-0.7c0.2-0.2,0.4-0.4,0.7-0.6c0.3-0.2,0.6-0.3,0.9-0.4
		s0.8-0.2,1.2-0.2c0.5,0,0.9,0.1,1.4,0.2c0.4,0.1,0.8,0.3,1.1,0.6c0.3,0.2,0.6,0.5,0.7,0.9c0.2,0.4,0.3,0.8,0.3,1.2
		c0,0.4-0.1,0.7-0.2,1s-0.3,0.5-0.5,0.8s-0.4,0.4-0.7,0.6c-0.3,0.2-0.6,0.3-0.9,0.3v0.1c0.3,0.1,0.6,0.2,0.9,0.3s0.6,0.3,0.8,0.6
		c0.2,0.2,0.4,0.5,0.5,0.8s0.2,0.7,0.2,1.1c0,0.5-0.1,0.9-0.3,1.3c-0.2,0.4-0.4,0.8-0.8,1s-0.8,0.5-1.2,0.7s-1,0.2-1.6,0.2
		c-0.5,0-0.9-0.1-1.3-0.2s-0.7-0.2-1-0.4c-0.3-0.2-0.6-0.4-0.8-0.6s-0.4-0.5-0.6-0.7l1-0.8c0.2,0.2,0.3,0.4,0.5,0.6s0.3,0.3,0.6,0.5
		c0.2,0.1,0.4,0.2,0.7,0.3s0.6,0.1,0.9,0.1c0.8,0,1.4-0.2,1.8-0.6c0.4-0.4,0.6-0.9,0.6-1.6v-0.1c0-0.7-0.2-1.2-0.6-1.6
		c-0.4-0.4-1-0.6-1.9-0.6h-1.3v-1.2L1089.5,1129.9L1089.5,1129.9z"/>
	<path class="st2" d="M1099.7,1136.6c-0.4,0-0.8-0.1-0.9-0.3c-0.2-0.2-0.3-0.4-0.3-0.7v-0.3c0-0.3,0.1-0.5,0.3-0.7
		c0.2-0.2,0.5-0.3,0.9-0.3c0.4,0,0.8,0.1,0.9,0.3s0.3,0.4,0.3,0.7v0.3c0,0.3-0.1,0.5-0.3,0.7S1100.2,1136.6,1099.7,1136.6z"/>
	<path class="st2" d="M1109.6,1136.6c-0.6,0-1.2-0.1-1.6-0.3c-0.5-0.2-0.9-0.5-1.2-0.9s-0.6-0.8-0.8-1.4c-0.2-0.5-0.3-1.1-0.3-1.8
		c0-0.7,0.1-1.3,0.3-1.8c0.2-0.5,0.4-1,0.8-1.4s0.7-0.7,1.2-0.9s1-0.3,1.6-0.3c0.6,0,1.1,0.1,1.5,0.3c0.5,0.2,0.8,0.5,1.2,0.8
		c0.3,0.4,0.6,0.8,0.7,1.3s0.3,1,0.3,1.6v0.6h-6.2v0.4c0,0.4,0.1,0.7,0.2,1s0.3,0.6,0.5,0.8c0.2,0.2,0.5,0.4,0.8,0.5
		c0.3,0.1,0.7,0.2,1.1,0.2c0.6,0,1.1-0.1,1.5-0.4c0.4-0.3,0.7-0.6,0.9-1.1l0.9,0.7c-0.2,0.6-0.7,1-1.2,1.4
		C1111.1,1136.4,1110.4,1136.6,1109.6,1136.6z M1109.5,1128.9c-0.4,0-0.7,0.1-1,0.2c-0.3,0.1-0.6,0.3-0.8,0.5
		c-0.2,0.2-0.4,0.5-0.5,0.8c-0.1,0.3-0.2,0.6-0.2,1v0.1h4.8v-0.2c0-0.4-0.1-0.7-0.2-1s-0.3-0.6-0.5-0.8s-0.4-0.4-0.7-0.5
		C1110.2,1129,1109.8,1128.9,1109.5,1128.9z"/>
	<path class="st2" d="M1115.3,1136.4l3.1-4.2l-3-4.1h1.6l1.3,1.8l1,1.4h0.1l1-1.4l1.2-1.8h1.5l-3.1,4.1l3.1,4.2h-1.6l-1.4-2
		l-0.9-1.3h-0.1l-0.9,1.3l-1.4,2L1115.3,1136.4L1115.3,1136.4z"/>
	<path class="st2" d="M1132,1136.4c-0.5,0-0.9-0.1-1.1-0.4c-0.2-0.3-0.3-0.6-0.4-1h-0.1c-0.2,0.5-0.5,0.9-0.9,1.1
		c-0.4,0.3-0.9,0.4-1.6,0.4c-0.9,0-1.6-0.2-2.1-0.7s-0.8-1.1-0.8-1.9c0-0.8,0.3-1.4,0.8-1.8s1.5-0.6,2.7-0.6h1.8v-0.8
		c0-0.6-0.2-1.1-0.5-1.4c-0.3-0.3-0.8-0.5-1.5-0.5c-0.6,0-1,0.1-1.4,0.3s-0.6,0.5-0.9,0.9l-0.9-0.7c0.1-0.2,0.2-0.4,0.4-0.6
		s0.4-0.4,0.7-0.6s0.6-0.3,0.9-0.4c0.3-0.1,0.7-0.1,1.2-0.1c1,0,1.8,0.2,2.3,0.8s0.9,1.2,0.9,2.1v4.6h1.2v1.1L1132,1136.4
		L1132,1136.4z M1128.1,1135.5c0.3,0,0.6,0,0.9-0.1s0.5-0.2,0.7-0.3s0.4-0.3,0.5-0.5c0.1-0.2,0.2-0.4,0.2-0.6v-1.4h-1.8
		c-0.8,0-1.3,0.1-1.7,0.3c-0.4,0.2-0.5,0.5-0.5,0.9v0.3c0,0.4,0.2,0.8,0.5,1C1127.2,1135.4,1127.6,1135.5,1128.1,1135.5z"/>
	<path class="st2" d="M1134.6,1136.4v-8.3h1.2v1h0.1c0.1-0.3,0.3-0.6,0.6-0.8s0.6-0.3,1.1-0.3c0.5,0,0.8,0.1,1.1,0.4
		c0.2,0.2,0.4,0.6,0.4,0.9h0.1c0.2-0.4,0.4-0.7,0.7-0.9s0.7-0.4,1.2-0.4c0.7,0,1.1,0.2,1.4,0.7c0.2,0.5,0.3,1.2,0.3,2v5.8h-1.2v-5.6
		c0-0.7-0.1-1.2-0.2-1.5s-0.4-0.4-0.8-0.4c-0.3,0-0.6,0.1-0.8,0.3c-0.2,0.2-0.3,0.6-0.3,1v6.1h-1.2v-5.6c0-0.7-0.1-1.2-0.2-1.5
		s-0.4-0.4-0.8-0.4c-0.3,0-0.6,0.1-0.8,0.3s-0.3,0.6-0.3,1v6.1L1134.6,1136.4L1134.6,1136.4z"/>
	<path class="st2" d="M1144.9,1128.1h1.3v1.4h0.1c0.5-1,1.4-1.6,2.6-1.6c1,0,1.8,0.4,2.4,1.2c0.6,0.8,0.9,1.8,0.9,3.2
		s-0.3,2.4-0.9,3.2s-1.4,1.2-2.4,1.2c-1.2,0-2-0.5-2.6-1.6h-0.1v4.6h-1.3V1128.1z M1148.4,1135.5c0.8,0,1.3-0.2,1.8-0.7
		c0.4-0.5,0.6-1.1,0.6-1.8v-1.4c0-0.8-0.2-1.4-0.6-1.8c-0.4-0.5-1-0.7-1.8-0.7c-0.3,0-0.6,0-0.8,0.1c-0.3,0.1-0.5,0.2-0.7,0.3
		c-0.2,0.2-0.3,0.3-0.5,0.5c-0.1,0.2-0.2,0.5-0.2,0.7v3c0,0.3,0.1,0.5,0.2,0.7s0.3,0.4,0.5,0.5c0.2,0.2,0.4,0.3,0.7,0.3
		C1147.8,1135.4,1148.1,1135.5,1148.4,1135.5z"/>
	<path class="st2" d="M1154.4,1135.3h2.9v-9.7h-2.9v-1.1h4.2v10.8h2.9v1.1h-7.1V1135.3z"/>
	<path class="st2" d="M1167.8,1136.6c-0.6,0-1.2-0.1-1.6-0.3c-0.5-0.2-0.9-0.5-1.2-0.9s-0.6-0.8-0.8-1.4c-0.2-0.5-0.3-1.1-0.3-1.8
		c0-0.7,0.1-1.3,0.3-1.8c0.2-0.5,0.4-1,0.8-1.4s0.7-0.7,1.2-0.9s1-0.3,1.6-0.3c0.6,0,1.1,0.1,1.5,0.3c0.5,0.2,0.8,0.5,1.2,0.8
		c0.3,0.4,0.6,0.8,0.7,1.3s0.3,1,0.3,1.6v0.6h-6.2v0.4c0,0.4,0.1,0.7,0.2,1s0.3,0.6,0.5,0.8c0.2,0.2,0.5,0.4,0.8,0.5
		c0.3,0.1,0.7,0.2,1.1,0.2c0.6,0,1.1-0.1,1.5-0.4c0.4-0.3,0.7-0.6,0.9-1.1l0.9,0.7c-0.2,0.6-0.7,1-1.2,1.4
		C1169.3,1136.4,1168.6,1136.6,1167.8,1136.6z M1167.7,1128.9c-0.4,0-0.7,0.1-1,0.2c-0.3,0.1-0.6,0.3-0.8,0.5
		c-0.2,0.2-0.4,0.5-0.5,0.8c-0.1,0.3-0.2,0.6-0.2,1v0.1h4.8v-0.2c0-0.4-0.1-0.7-0.2-1s-0.3-0.6-0.5-0.8s-0.4-0.4-0.7-0.5
		C1168.4,1129,1168.1,1128.9,1167.7,1128.9z"/>
	<path class="st2" d="M1177.4,1136.6c-0.4,0-0.8-0.1-0.9-0.3c-0.2-0.2-0.3-0.4-0.3-0.7v-0.3c0-0.3,0.1-0.5,0.3-0.7
		c0.2-0.2,0.5-0.3,0.9-0.3c0.4,0,0.8,0.1,0.9,0.3s0.3,0.4,0.3,0.7v0.3c0,0.3-0.1,0.5-0.3,0.7S1177.8,1136.6,1177.4,1136.6z"/>
	<path class="st2" d="M1183.8,1136.4v-8.3h1.3v1.4h0.1c0.1-0.2,0.2-0.4,0.3-0.6s0.3-0.3,0.5-0.5s0.4-0.2,0.7-0.3s0.6-0.1,0.9-0.1
		c0.9,0,1.6,0.3,2.1,0.8c0.5,0.6,0.8,1.3,0.8,2.3v5.3h-1.3v-5.1c0-0.8-0.2-1.3-0.5-1.7c-0.3-0.4-0.8-0.6-1.5-0.6
		c-0.3,0-0.5,0-0.8,0.1c-0.2,0.1-0.5,0.2-0.7,0.3c-0.2,0.1-0.3,0.3-0.5,0.5c-0.1,0.2-0.2,0.4-0.2,0.7v5.8L1183.8,1136.4
		L1183.8,1136.4z"/>
	<path class="st2" d="M1196.9,1136.6c-0.6,0-1.2-0.1-1.6-0.3c-0.5-0.2-0.9-0.5-1.2-0.9s-0.6-0.8-0.8-1.4c-0.2-0.5-0.3-1.1-0.3-1.8
		c0-0.7,0.1-1.3,0.3-1.8c0.2-0.5,0.4-1,0.8-1.4s0.7-0.7,1.2-0.9s1-0.3,1.6-0.3c0.6,0,1.1,0.1,1.5,0.3c0.5,0.2,0.8,0.5,1.2,0.8
		c0.3,0.4,0.6,0.8,0.7,1.3s0.3,1,0.3,1.6v0.6h-6.2v0.4c0,0.4,0.1,0.7,0.2,1s0.3,0.6,0.5,0.8c0.2,0.2,0.5,0.4,0.8,0.5
		c0.3,0.1,0.7,0.2,1.1,0.2c0.6,0,1.1-0.1,1.5-0.4c0.4-0.3,0.7-0.6,0.9-1.1l0.9,0.7c-0.2,0.6-0.7,1-1.2,1.4
		C1198.4,1136.4,1197.8,1136.6,1196.9,1136.6z M1196.8,1128.9c-0.4,0-0.7,0.1-1,0.2c-0.3,0.1-0.6,0.3-0.8,0.5
		c-0.2,0.2-0.4,0.5-0.5,0.8c-0.1,0.3-0.2,0.6-0.2,1v0.1h4.8v-0.2c0-0.4-0.1-0.7-0.2-1s-0.3-0.6-0.5-0.8s-0.4-0.4-0.7-0.5
		C1197.5,1129,1197.2,1128.9,1196.8,1128.9z"/>
	<path class="st2" d="M1206.9,1136.4c-0.6,0-1.1-0.2-1.4-0.5s-0.4-0.8-0.4-1.4v-5.3h-2.8v-1.1h2.1c0.3,0,0.5-0.1,0.6-0.2
		s0.2-0.3,0.2-0.6v-2.2h1.2v2.9h3.8v1.1h-3.8v6.1h3.8v1.1L1206.9,1136.4L1206.9,1136.4z"/>
</g>
<path class="st0" d="M816.4,837.7l5,4.9c0.8,0.8,2.3,0.2,2.3-0.9v-2.2h247.9v60.2h3v-63.2H823.7v-1.2v-3.4c0-1.2-1.4-1.8-2.3-0.9
	l-5,4.9C815.9,836.3,815.9,837.1,816.4,837.7z"/>
<path class="st0" d="M482.4,837.7l-5,4.9c-0.8,0.8-2.3,0.2-2.3-0.9v-2.2H227.2V898h-3v-61.6h250.9v-1.2v-3.4c0-1.2,1.4-1.8,2.3-0.9
	l5,4.9C482.9,836.3,482.9,837.1,482.4,837.7z"/>
<rect x="485" y="1441.1" class="st13" width="326.6" height="119"/>
<g>
	<g>
		<g>
			<path class="st2" d="M560.5,1474.4l-1.1,1c-0.9-1.1-2.2-1.8-3.8-1.8c-2.8,0-5,2.1-5,5.1s2.2,5.1,4.9,5.1c2.7,0,4.3-1.6,4.5-4.2
				h-3.9v-1.3h5.5c0,0.1,0,0.2,0,0.4c0,3.7-2.3,6.5-6.1,6.5c-3.3,0-6.5-2.4-6.5-6.5c0-3.8,2.8-6.5,6.5-6.5
				C557.6,1472.3,559.4,1473.1,560.5,1474.4z"/>
			<path class="st2" d="M569.8,1476.7l-0.3,1.3c-0.4-0.2-1-0.3-1.5-0.3c-1.3,0-2.3,1-2.3,2.7v4.8h-1.3v-8.5h1.3v1.2
				c0.6-0.9,1.5-1.4,2.5-1.4C568.8,1476.4,569.3,1476.4,569.8,1476.7z"/>
			<path class="st2" d="M579.1,1480.8c0,0.2,0,0.3,0,0.5h-6.8c0.2,1.8,1.5,2.8,3,2.8c1,0,2-0.4,2.7-1.1l0.7,0.9
				c-1.1,1-2.2,1.3-3.5,1.3c-2.5,0-4.3-1.8-4.3-4.4c0-2.6,1.8-4.4,4.2-4.4C577.4,1476.4,579,1478.2,579.1,1480.8z M572.2,1480.2h5.5
				c-0.2-1.6-1.2-2.6-2.7-2.6C573.5,1477.6,572.5,1478.6,572.2,1480.2z"/>
			<path class="st2" d="M589.2,1480.8c0,0.2,0,0.3,0,0.5h-6.8c0.2,1.8,1.5,2.8,3,2.8c1,0,2-0.4,2.7-1.1l0.7,0.9
				c-1.1,1-2.2,1.3-3.5,1.3c-2.5,0-4.3-1.8-4.3-4.4c0-2.6,1.8-4.4,4.2-4.4C587.5,1476.4,589.1,1478.2,589.2,1480.8z M582.3,1480.2
				h5.5c-0.2-1.6-1.2-2.6-2.7-2.6C583.5,1477.6,582.5,1478.6,582.3,1480.2z"/>
			<path class="st2" d="M599.4,1479.8v5.3h-1.3v-4.8c0-1.6-0.9-2.6-2.5-2.6c-1.4,0-2.6,1-2.6,2.6v4.8h-1.3v-8.5h1.3v1.2
				c0.7-1,1.8-1.4,2.9-1.4C598,1476.4,599.4,1477.7,599.4,1479.8z"/>
			<path class="st2" d="M648.7,1479.2h-7.8v-1.2h7.8V1479.2z M648.7,1482.6h-7.8v-1.2h7.8V1482.6z"/>
			<path class="st2" d="M658.9,1480.4v4.6h-2.5v-12.6h5.1c3,0,4.6,1.6,4.6,4c0,2.4-1.6,4-4.6,4L658.9,1480.4L658.9,1480.4z
				 M658.9,1474.8v3.4h2.6c1.4,0,2.1-0.6,2.1-1.7c0-1.1-0.7-1.7-2.1-1.7L658.9,1474.8L658.9,1474.8z"/>
			<path class="st2" d="M679,1480c0,3.5-2.2,5.3-5.4,5.3c-3.2,0-5.4-1.8-5.4-5.3v-7.6h2.5v7.4c0,2.1,1.2,3,2.9,3s2.9-0.9,2.9-3v-7.4
				h2.5V1480z"/>
			<path class="st2" d="M690.9,1474.8H687v10.2h-2.5v-10.2h-3.9v-2.3h10.3L690.9,1474.8L690.9,1474.8z"/>
			<path class="st2" d="M554.8,1493.5c2.7,0,4.6,0.9,4.6,3.3c0,1.4-0.8,2.4-1.9,2.8c1.3,0.4,2.2,1.4,2.2,3c0,2.4-1.8,3.5-4.6,3.5
				h-5.1v-12.6H554.8z M551.3,1494.8v4.2h3.4c1.7,0,3.1-0.4,3.1-2.1c0-1.7-1.3-2.1-3.1-2.1L551.3,1494.8L551.3,1494.8z
				 M551.3,1500.3v4.4h3.6c1.9,0,3.1-0.5,3.1-2.2c0-1.7-1.2-2.2-3.1-2.2H551.3z"/>
			<path class="st2" d="M563.6,1506.1h-1.3v-13h1.3V1506.1z"/>
			<path class="st2" d="M574.4,1502.5c0,2.5-1.8,3.7-3.9,3.7c-2.1,0-3.9-1.2-3.9-3.7v-5h1.3v4.8c0,1.8,1.1,2.6,2.5,2.6
				s2.5-0.8,2.5-2.6v-4.8h1.3L574.4,1502.5L574.4,1502.5z"/>
			<path class="st2" d="M585,1501.8c0,0.2,0,0.3,0,0.5h-6.8c0.2,1.8,1.5,2.8,3,2.8c1,0,2-0.4,2.7-1.1l0.7,0.9
				c-1.1,1-2.2,1.3-3.5,1.3c-2.5,0-4.3-1.8-4.3-4.4c0-2.6,1.8-4.4,4.2-4.4C583.3,1497.4,585,1499.2,585,1501.8z M578.2,1501.2h5.5
				c-0.2-1.6-1.2-2.6-2.7-2.6C579.4,1498.6,578.4,1499.6,578.2,1501.2z"/>
			<path class="st2" d="M648.1,1500.2h-7.8v-1.2h7.8V1500.2z M648.1,1503.6h-7.8v-1.2h7.8V1503.6z"/>
			<path class="st2" d="M661.2,1493.5c3,0,4.6,1.4,4.6,3.8c0,2.1-1.4,3.5-3.9,3.7l3.9,5.1h-3l-3.7-5h-0.7v5h-2.5v-12.6H661.2z
				 M658.4,1495.8v3.1h2.8c1.4,0,2.1-0.5,2.1-1.6c0-1-0.8-1.5-2.1-1.5H658.4z"/>
			<path class="st2" d="M677.5,1506.1h-9.4v-12.6h9.3v2.3h-6.8v2.8h6.5v2.3h-6.5v2.9h6.9L677.5,1506.1L677.5,1506.1z"/>
			<path class="st2" d="M682.6,1501.4v4.6h-2.5v-12.6h5.1c3,0,4.6,1.6,4.6,4c0,2.4-1.6,4-4.6,4L682.6,1501.4L682.6,1501.4z
				 M682.6,1495.8v3.4h2.6c1.4,0,2.1-0.6,2.1-1.7c0-1.1-0.7-1.7-2.1-1.7L682.6,1495.8L682.6,1495.8z"/>
			<path class="st2" d="M701.1,1506.1H692v-12.6h2.5v10.2h6.7V1506.1z"/>
			<path class="st2" d="M705.4,1506.1h-2.5v-12.6h2.5V1506.1z"/>
			<path class="st2" d="M719.6,1496.1l-2.2,1.3c-0.7-1.1-1.8-1.7-3.3-1.7c-2.3,0-4,1.7-4,4.1c0,2.5,1.8,4.1,4,4.1
				c1.4,0,2.5-0.6,3.3-1.7l2,1.5c-1.1,1.6-3,2.7-5.3,2.7c-3.9,0-6.6-2.8-6.6-6.5s2.7-6.5,6.6-6.5
				C716.6,1493.2,718.6,1494.3,719.6,1496.1z"/>
			<path class="st2" d="M733.3,1506.1h-2.7l-1.1-2.9h-5.4l-1.1,2.9h-2.6l4.9-12.6h3.1L733.3,1506.1z M725,1500.8h3.7l-1.8-4.9
				L725,1500.8z"/>
			<path class="st2" d="M743,1495.8h-3.9v10.2h-2.5v-10.2h-3.9v-2.3H743L743,1495.8L743,1495.8z"/>
			<path class="st2" d="M747.2,1506.1h-2.5v-12.6h2.5V1506.1z"/>
			<path class="st2" d="M762.7,1499.8c0,3.8-2.8,6.5-6.6,6.5s-6.6-2.8-6.6-6.5c0-3.8,2.7-6.5,6.6-6.5S762.7,1496,762.7,1499.8z
				 M752.1,1499.8c0,2.4,1.7,4.1,4,4.1s4-1.7,4-4.1s-1.7-4.1-4-4.1C753.8,1495.6,752.1,1497.3,752.1,1499.8z"/>
			<path class="st2" d="M776.3,1506.1h-2.4l-6.4-8.4l0,8.4H765v-12.6h2.3l6.4,8.4v-8.4h2.5V1506.1z"/>
			<path class="st2" d="M562.2,1520.8c0,3.8-2.8,6.5-6.5,6.5s-6.5-2.7-6.5-6.5s2.8-6.5,6.5-6.5
				C559.4,1514.3,562.2,1517,562.2,1520.8z M550.7,1520.8c0,3,2.2,5.1,5,5.1c2.8,0,5-2.1,5-5.1s-2.2-5.1-5-5.1
				C552.8,1515.7,550.7,1517.7,550.7,1520.8z"/>
			<path class="st2" d="M570.2,1518.7l-0.3,1.3c-0.4-0.2-1-0.3-1.5-0.3c-1.3,0-2.3,1-2.3,2.7v4.8h-1.3v-8.5h1.3v1.2
				c0.6-0.9,1.5-1.4,2.5-1.4C569.3,1518.4,569.8,1518.4,570.2,1518.7z"/>
			<path class="st2" d="M580,1527.1h-1.3v-1.3c-0.7,0.9-1.7,1.4-3.1,1.4c-2.4,0-4.3-1.9-4.3-4.4c0-2.6,1.9-4.4,4.3-4.4
				c1.4,0,2.4,0.6,3.1,1.4v-1.3h1.3V1527.1z M572.7,1522.8c0,1.8,1.2,3.2,3,3.2c1.8,0,3-1.4,3-3.2c0-1.8-1.3-3.2-3-3.2
				C573.9,1519.6,572.7,1521,572.7,1522.8z"/>
			<path class="st2" d="M590.9,1521.8v5.3h-1.3v-4.8c0-1.6-0.9-2.6-2.5-2.6c-1.4,0-2.6,1-2.6,2.6v4.8h-1.3v-8.5h1.3v1.2
				c0.7-1,1.8-1.4,2.9-1.4C589.5,1518.4,590.9,1519.7,590.9,1521.8z"/>
			<path class="st2" d="M600.6,1519.8v-1.3h1.3v7.9c0,2.8-1.9,4.3-4.5,4.3c-1.4,0-2.7-0.4-3.6-1.1l0.6-1.1c0.8,0.6,1.8,1,3,1
				c1.8,0,3.2-1.1,3.2-3v-0.9c-0.7,0.9-1.7,1.4-3,1.4c-2.4,0-4.2-1.8-4.2-4.4c0-2.6,1.8-4.4,4.2-4.4
				C598.9,1518.4,599.9,1518.9,600.6,1519.8z M594.7,1522.7c0,1.7,1.2,3.1,3,3.1c1.8,0,3-1.3,3-3.1c0-1.8-1.2-3.1-3-3.1
				C595.9,1519.6,594.7,1521,594.7,1522.7z"/>
			<path class="st2" d="M612.7,1522.8c0,0.2,0,0.3,0,0.5h-6.8c0.2,1.8,1.5,2.8,3,2.8c1,0,2-0.4,2.7-1.1l0.7,0.9
				c-1.1,1-2.2,1.3-3.5,1.3c-2.5,0-4.3-1.8-4.3-4.4c0-2.6,1.8-4.4,4.2-4.4C611,1518.4,612.6,1520.2,612.7,1522.8z M605.8,1522.2h5.5
				c-0.2-1.6-1.2-2.6-2.7-2.6C607,1519.6,606,1520.6,605.8,1522.2z"/>
			<path class="st2" d="M646.9,1521.2h-7.8v-1.2h7.8V1521.2z M646.9,1524.6h-7.8v-1.2h7.8V1524.6z"/>
			<path class="st2" d="M665.5,1516.2l-1.8,1.8c-0.7-0.8-1.8-1.3-3-1.3c-2.3,0-4,1.7-4,4.2c0,2.6,1.8,4.2,3.9,4.2c2,0,3.2-1,3.6-2.8
				H661v-2.1h5.8c0,0.2,0,0.5,0,0.7c0,3.8-2.6,6.5-6.2,6.5c-3.5,0-6.6-2.5-6.6-6.5c0-3.8,2.8-6.5,6.7-6.5
				C662.7,1514.2,664.4,1514.9,665.5,1516.2z"/>
			<path class="st2" d="M678.5,1527.1H669v-12.6h9.3v2.3h-6.8v2.8h6.5v2.3h-6.5v2.9h6.9L678.5,1527.1L678.5,1527.1z"/>
			<path class="st2" d="M690.2,1516.8h-3.9v10.2h-2.5v-10.2h-3.9v-2.3h10.3L690.2,1516.8L690.2,1516.8z"/>
		</g>
	</g>
	<circle class="st7" cx="525.4" cy="1477.9" r="6"/>
	<circle class="st0" cx="525.4" cy="1499.9" r="6"/>
	<circle class="st10" cx="525.4" cy="1521.9" r="6"/>
</g>
<path class="st0" d="M1072,897.7h-3.7c-1.2,0-1.8,1.4-0.9,2.3l4.9,5c0.5,0.5,1.4,0.5,1.9,0l4.9-5c0.8-0.8,0.2-2.3-0.9-2.3h-3.4"/>
</svg>
