<svg version="1.1" viewBox="0.0 0.0 643.4120734908137 287.6509186351706" fill="none" stroke="none" stroke-linecap="square" stroke-miterlimit="10" xmlns:xlink="http://www.w3.org/1999/xlink" xmlns="http://www.w3.org/2000/svg"><clipPath id="p.0"><path d="m0 0l643.41205 0l0 287.6509l-643.41205 0l0 -287.6509z" clip-rule="nonzero"/></clipPath><g clip-path="url(#p.0)"><path fill="#000000" fill-opacity="0.0" d="m0 0l643.41205 0l0 287.6509l-643.41205 0z" fill-rule="evenodd"/><path fill="#f3f3f3" d="m8.0 8.0l128.40945 0l0 89.41732l-128.40945 0z" fill-rule="evenodd"/><path stroke="#ffffff" stroke-width="1.0" stroke-linejoin="round" stroke-linecap="butt" d="m8.0 8.0l128.40945 0l0 89.41732l-128.40945 0z" fill-rule="evenodd"/><path fill="#c72e49" d="m170.91661 107.86361l0 0c0 -2.539688 2.0588226 -4.5985184 4.5985107 -4.5985184l293.57465 0c1.2196045 0 2.3892517 0.48448944 3.251648 1.346878c0.8623657 0.8623886 1.3468628 2.0320358 1.3468628 3.2516403l0 18.393517c0 2.539688 -2.058838 4.5985107 -4.5985107 4.5985107l-293.57465 0c-2.539688 0 -4.5985107 -2.0588226 -4.5985107 -4.5985107z" fill-rule="evenodd"/><path stroke="#c72e49" stroke-width="2.0" stroke-linejoin="round" stroke-linecap="butt" d="m170.91661 107.86361l0 0c0 -2.539688 2.0588226 -4.5985184 4.5985107 -4.5985184l293.57465 0c1.2196045 0 2.3892517 0.48448944 3.251648 1.346878c0.8623657 0.8623886 1.3468628 2.0320358 1.3468628 3.2516403l0 18.393517c0 2.539688 -2.058838 4.5985107 -4.5985107 4.5985107l-293.57465 0c-2.539688 0 -4.5985107 -2.0588226 -4.5985107 -4.5985107z" fill-rule="evenodd"/><path fill="#edf7f7" d="m303.98962 121.86037l0 -9.546875l2.890625 0l1.734375 6.515625l1.703125 -6.515625l2.890625 0l0 9.546875l-1.78125 0l0 -7.515625l-1.90625 7.515625l-1.84375 0l-1.890625 -7.515625l0 7.515625l-1.796875 0zm11.0711975 0l0 -9.546875l1.9375 0l0 9.546875l-1.9375 0zm3.7810974 0l0 -9.546875l1.875 0l3.90625 6.375l0 -6.375l1.796875 0l0 9.546875l-1.9375 0l-3.84375 -6.21875l0 6.21875l-1.796875 0zm9.547028 0l0 -9.546875l1.9375 0l0 9.546875l-1.9375 0zm3.374878 -4.71875q0 -1.453125 0.4375 -2.4375q0.328125 -0.734375 0.890625 -1.3125q0.5625 -0.578125 1.234375 -0.859375q0.890625 -0.375 2.046875 -0.375q2.109375 0 3.375 1.3125q1.265625 1.296875 1.265625 3.640625q0 2.296875 -1.25 3.609375q-1.25 1.296875 -3.359375 1.296875q-2.125 0 -3.390625 -1.296875q-1.25 -1.296875 -1.25 -3.578125zm1.984375 -0.0625q0 1.625 0.75 2.46875q0.75 0.828125 1.90625 0.828125q1.140625 0 1.875 -0.828125q0.75 -0.828125 0.75 -2.484375q0 -1.640625 -0.71875 -2.453125q-0.71875 -0.8125 -1.90625 -0.8125q-1.203125 0 -1.9375 0.828125q-0.71875 0.8125 -0.71875 2.453125z" fill-rule="nonzero"/><path fill="#00303f" d="m26.448818 22.934448l0 0c0 -1.785902 1.4477596 -3.2336617 3.2336617 -3.2336617l12.934254 0l0 0c0.85762024 0 1.6801147 0.3406887 2.2865448 0.94711876c0.60642624 0.60642815 0.94711685 1.4289227 0.94711685 2.286543l0 21.12323c0 1.7859001 -1.4477615 3.2336617 -3.2336617 3.2336617l-12.934254 0c-1.785902 0 -3.2336617 -1.4477615 -3.2336617 -3.2336617z" fill-rule="evenodd"/><path stroke="#00303f" stroke-width="2.0" stroke-linejoin="round" stroke-linecap="butt" d="m26.448818 22.934448l0 0c0 -1.785902 1.4477596 -3.2336617 3.2336617 -3.2336617l12.934254 0l0 0c0.85762024 0 1.6801147 0.3406887 2.2865448 0.94711876c0.60642624 0.60642815 0.94711685 1.4289227 0.94711685 2.286543l0 21.12323c0 1.7859001 -1.4477615 3.2336617 -3.2336617 3.2336617l-12.934254 0c-1.785902 0 -3.2336617 -1.4477615 -3.2336617 -3.2336617z" fill-rule="evenodd"/><path fill="#edf7f7" d="m33.885933 36.176064l0 -5.734375l1.96875 0q0.671875 0 1.015625 0.09375q0.5 0.109375 0.84375 0.40625q0.453125 0.375 0.671875 0.984375q0.234375 0.59375 0.234375 1.359375q0 0.640625 -0.15625 1.15625q-0.15625 0.5 -0.390625 0.828125q-0.234375 0.328125 -0.53125 0.515625q-0.28125 0.1875 -0.6875 0.296875q-0.390625 0.09375 -0.90625 0.09375l-2.0625 0zm0.75 -0.671875l1.21875 0q0.578125 0 0.890625 -0.109375q0.328125 -0.109375 0.515625 -0.296875q0.265625 -0.265625 0.421875 -0.71875q0.15625 -0.46875 0.15625 -1.109375q0 -0.90625 -0.296875 -1.375q-0.296875 -0.484375 -0.71875 -0.65625q-0.3125 -0.109375 -0.984375 -0.109375l-1.203125 0l0 4.375z" fill-rule="nonzero"/><path fill="#c72e49" d="m26.435696 62.93445l0 0c0 -1.7859001 1.4477596 -3.2336617 3.2336597 -3.2336617l12.934256 0l0 0c0.85762024 0 1.6801147 0.3406906 2.286541 0.94711685c0.60643005 0.60643005 0.94711685 1.4289246 0.94711685 2.2865448l0 21.12323c0 1.7859039 -1.4477577 3.2336578 -3.2336578 3.2336578l-12.934256 0c-1.7859001 0 -3.2336597 -1.4477539 -3.2336597 -3.2336578z" fill-rule="evenodd"/><path stroke="#00303f" stroke-width="2.0" stroke-linejoin="round" stroke-linecap="butt" d="m26.435696 62.93445l0 0c0 -1.7859001 1.4477596 -3.2336617 3.2336597 -3.2336617l12.934256 0l0 0c0.85762024 0 1.6801147 0.3406906 2.286541 0.94711685c0.60643005 0.60643005 0.94711685 1.4289246 0.94711685 2.2865448l0 21.12323c0 1.7859039 -1.4477577 3.2336578 -3.2336578 3.2336578l-12.934256 0c-1.7859001 0 -3.2336597 -1.4477539 -3.2336597 -3.2336578z" fill-rule="evenodd"/><path fill="#edf7f7" d="m34.093513 76.17606l0 -5.734375l2.15625 0q0.5625 0 0.875 0.0625q0.421875 0.0625 0.703125 0.265625q0.28125 0.203125 0.453125 0.5625q0.171875 0.34375 0.171875 0.765625q0 0.734375 -0.46875 1.25q-0.453125 0.5 -1.671875 0.5l-1.46875 0l0 2.328125l-0.75 0zm0.75 -3.0l1.484375 0q0.734375 0 1.03125 -0.265625q0.3125 -0.28125 0.3125 -0.78125q0 -0.359375 -0.1875 -0.609375q-0.171875 -0.265625 -0.46875 -0.34375q-0.1875 -0.046875 -0.703125 -0.046875l-1.46875 0l0 2.046875z" fill-rule="nonzero"/><path fill="#000000" fill-opacity="0.0" d="m54.666668 27.03937l158.99213 0l0 12.913385l-158.99213 0z" fill-rule="evenodd"/><path fill="#000000" d="m55.494793 37.27937l0 -7.625l2.625 0q0.890625 0 1.359375 0.109375q0.65625 0.140625 1.109375 0.546875q0.609375 0.5 0.90625 1.296875q0.296875 0.796875 0.296875 1.8125q0 0.875 -0.203125 1.546875q-0.203125 0.671875 -0.515625 1.109375q-0.3125 0.4375 -0.703125 0.6875q-0.375 0.25 -0.90625 0.390625q-0.53125 0.125 -1.21875 0.125l-2.75 0zm1.0 -0.90625l1.625 0q0.765625 0 1.1875 -0.140625q0.4375 -0.140625 0.6875 -0.390625q0.359375 -0.359375 0.5625 -0.953125q0.203125 -0.609375 0.203125 -1.484375q0 -1.1875 -0.40625 -1.828125q-0.390625 -0.65625 -0.953125 -0.875q-0.40625 -0.15625 -1.296875 -0.15625l-1.609375 0l0 5.828125zm10.179974 0.21875q-0.53125 0.453125 -1.015625 0.640625q-0.46875 0.171875 -1.015625 0.171875q-0.9218712 0 -1.4062462 -0.4375q-0.484375 -0.453125 -0.484375 -1.140625q0 -0.40625 0.171875 -0.734375q0.1875 -0.34375 0.484375 -0.546875q0.3125 -0.203125 0.6874962 -0.3125q0.265625 -0.0625 0.828125 -0.140625q1.125 -0.125 1.671875 -0.3125q0 -0.203125 0 -0.25q0 -0.578125 -0.265625 -0.8125q-0.359375 -0.3125 -1.0625 -0.3125q-0.65625 0 -0.984375 0.234375q-0.3124962 0.234375 -0.4531212 0.8125l-0.921875 -0.125q0.125 -0.578125 0.40625 -0.9375q0.296875 -0.375 0.8281212 -0.5625q0.546875 -0.203125 1.25 -0.203125q0.71875 0 1.15625 0.171875q0.4375 0.171875 0.640625 0.421875q0.21875 0.25 0.296875 0.640625q0.046875 0.234375 0.046875 0.859375l0 1.25q0 1.296875 0.0625 1.65625q0.0625 0.34375 0.234375 0.65625l-0.96875 0q-0.15625 -0.296875 -0.1875 -0.6875zm-0.078125 -2.078125q-0.515625 0.203125 -1.53125 0.34375q-0.578125 0.078125 -0.828125 0.1875q-0.234375 0.109375 -0.3593712 0.3125q-0.125 0.1875 -0.125 0.4375q0 0.375 0.2812462 0.625q0.28125 0.25 0.828125 0.25q0.53125 0 0.953125 -0.234375q0.421875 -0.234375 0.625 -0.65625q0.15625 -0.3125 0.15625 -0.9375l0 -0.328125zm4.4421234 1.921875l0.125 0.828125q-0.390625 0.09375 -0.703125 0.09375q-0.5 0 -0.78125 -0.15625q-0.28125 -0.171875 -0.40625 -0.4375q-0.109375 -0.265625 -0.109375 -1.109375l0 -3.171875l-0.6875 0l0 -0.734375l0.6875 0l0 -1.359375l0.9375 -0.5625l0 1.921875l0.9375 0l0 0.734375l-0.9375 0l0 3.234375q0 0.390625 0.046875 0.515625q0.046875 0.109375 0.15625 0.1875q0.109375 0.0625 0.328125 0.0625q0.15625 0 0.40625 -0.046875zm4.5231476 0.15625q-0.53125 0.453125 -1.015625 0.640625q-0.46875 0.171875 -1.015625 0.171875q-0.921875 0 -1.40625 -0.4375q-0.484375 -0.453125 -0.484375 -1.140625q0 -0.40625 0.171875 -0.734375q0.1875 -0.34375 0.484375 -0.546875q0.3125 -0.203125 0.6875 -0.3125q0.265625 -0.0625 0.828125 -0.140625q1.125 -0.125 1.671875 -0.3125q0 -0.203125 0 -0.25q0 -0.578125 -0.265625 -0.8125q-0.359375 -0.3125 -1.0625 -0.3125q-0.65625 0 -0.984375 0.234375q-0.3125 0.234375 -0.453125 0.8125l-0.921875 -0.125q0.125 -0.578125 0.40625 -0.9375q0.296875 -0.375 0.828125 -0.5625q0.546875 -0.203125 1.25 -0.203125q0.71875 0 1.15625 0.171875q0.4375 0.171875 0.640625 0.421875q0.21875 0.25 0.296875 0.640625q0.046875 0.234375 0.046875 0.859375l0 1.25q0 1.296875 0.0625 1.65625q0.0625 0.34375 0.234375 0.65625l-0.96875 0q-0.15625 -0.296875 -0.1875 -0.6875zm-0.078125 -2.078125q-0.515625 0.203125 -1.53125 0.34375q-0.578125 0.078125 -0.828125 0.1875q-0.234375 0.109375 -0.359375 0.3125q-0.125 0.1875 -0.125 0.4375q0 0.375 0.28125 0.625q0.28125 0.25 0.828125 0.25q0.53125 0 0.953125 -0.234375q0.421875 -0.234375 0.625 -0.65625q0.15625 -0.3125 0.15625 -0.9375l0 -0.328125zm4.980896 1.109375l0.921875 -0.140625q0.078125 0.5625 0.4375 0.859375q0.359375 0.296875 1.0 0.296875q0.640625 0 0.953125 -0.265625q0.3125 -0.265625 0.3125 -0.625q0 -0.3125 -0.28125 -0.5q-0.1875 -0.125 -0.953125 -0.3125q-1.03125 -0.265625 -1.4375 -0.453125q-0.390625 -0.1875 -0.59375 -0.515625q-0.203125 -0.34375 -0.203125 -0.75q0 -0.359375 0.171875 -0.671875q0.171875 -0.328125 0.453125 -0.53125q0.21875 -0.15625 0.59375 -0.265625q0.390625 -0.125 0.8125 -0.125q0.65625 0 1.140625 0.1875q0.5 0.1875 0.734375 0.515625q0.234375 0.3125 0.3125 0.859375l-0.90625 0.125q-0.0625 -0.4375 -0.375 -0.671875q-0.296875 -0.234375 -0.828125 -0.234375q-0.65625 0 -0.9375 0.21875q-0.265625 0.203125 -0.265625 0.484375q0 0.1875 0.109375 0.328125q0.125 0.15625 0.359375 0.25q0.140625 0.0625 0.828125 0.25q1.0 0.265625 1.390625 0.4375q0.390625 0.15625 0.609375 0.484375q0.234375 0.3125 0.234375 0.796875q0 0.46875 -0.28125 0.890625q-0.265625 0.40625 -0.78125 0.640625q-0.515625 0.21875 -1.171875 0.21875q-1.078125 0 -1.640625 -0.4375q-0.5625 -0.453125 -0.71875 -1.34375zm5.703125 1.65625l0 -7.625l0.9375 0l0 2.734375q0.65625 -0.765625 1.65625 -0.765625q0.609375 0 1.0625 0.25q0.453125 0.234375 0.640625 0.671875q0.203125 0.421875 0.203125 1.234375l0 3.5l-0.9375 0l0 -3.5q0 -0.703125 -0.3125 -1.015625q-0.296875 -0.328125 -0.859375 -0.328125q-0.40625 0 -0.78125 0.21875q-0.359375 0.21875 -0.515625 0.59375q-0.15625 0.359375 -0.15625 1.015625l0 3.015625l-0.9375 0zm9.535873 -0.6875q-0.53125 0.453125 -1.015625 0.640625q-0.46875 0.171875 -1.015625 0.171875q-0.921875 0 -1.40625 -0.4375q-0.484375 -0.453125 -0.484375 -1.140625q0 -0.40625 0.171875 -0.734375q0.1875 -0.34375 0.484375 -0.546875q0.3125 -0.203125 0.6875 -0.3125q0.265625 -0.0625 0.828125 -0.140625q1.125 -0.125 1.671875 -0.3125q0 -0.203125 0 -0.25q0 -0.578125 -0.265625 -0.8125q-0.359375 -0.3125 -1.0625 -0.3125q-0.65625 0 -0.984375 0.234375q-0.3125 0.234375 -0.453125 0.8125l-0.921875 -0.125q0.125 -0.578125 0.40625 -0.9375q0.296875 -0.375 0.828125 -0.5625q0.546875 -0.203125 1.25 -0.203125q0.71875 0 1.15625 0.171875q0.4375 0.171875 0.640625 0.421875q0.21875 0.25 0.296875 0.640625q0.046875 0.234375 0.046875 0.859375l0 1.25q0 1.296875 0.0625 1.65625q0.0625 0.34375 0.234375 0.65625l-0.96875 0q-0.15625 -0.296875 -0.1875 -0.6875zm-0.078125 -2.078125q-0.515625 0.203125 -1.53125 0.34375q-0.578125 0.078125 -0.828125 0.1875q-0.234375 0.109375 -0.359375 0.3125q-0.125 0.1875 -0.125 0.4375q0 0.375 0.28125 0.625q0.28125 0.25 0.828125 0.25q0.53125 0 0.953125 -0.234375q0.421875 -0.234375 0.625 -0.65625q0.15625 -0.3125 0.15625 -0.9375l0 -0.328125zm2.3796234 2.765625l0 -5.53125l0.84375 0l0 0.84375q0.328125 -0.59375 0.59375 -0.78125q0.28125 -0.1875 0.609375 -0.1875q0.46875 0 0.953125 0.3125l-0.3125 0.859375q-0.34375 -0.203125 -0.6875 -0.203125q-0.3125 0 -0.5625 0.1875q-0.234375 0.1875 -0.34375 0.515625q-0.15625 0.5 -0.15625 1.09375l0 2.890625l-0.9375 0zm7.1423645 0l0 -0.703125q-0.515625 0.828125 -1.546875 0.828125q-0.65625 0 -1.21875 -0.359375q-0.546875 -0.375 -0.859375 -1.015625q-0.296875 -0.65625 -0.296875 -1.5q0 -0.828125 0.28125 -1.5q0.28125 -0.6875 0.828125 -1.046875q0.546875 -0.359375 1.234375 -0.359375q0.5 0 0.890625 0.21875q0.390625 0.203125 0.625 0.546875l0 -2.734375l0.9375 0l0 7.625l-0.875 0zm-2.953125 -2.75q0 1.046875 0.4375 1.578125q0.453125 0.53125 1.0625 0.53125q0.609375 0 1.03125 -0.5q0.4375 -0.515625 0.4375 -1.53125q0 -1.140625 -0.4375 -1.671875q-0.4375 -0.53125 -1.078125 -0.53125q-0.609375 0 -1.03125 0.515625q-0.421875 0.5 -0.421875 1.609375z" fill-rule="nonzero"/><path fill="#000000" fill-opacity="0.0" d="m54.666668 67.03937l158.99213 0l0 12.913391l-158.99213 0z" fill-rule="evenodd"/><path fill="#000000" d="m55.494793 77.27937l0 -7.625l2.875 0q0.75 0 1.15625 0.0625q0.5625 0.09375 0.9375 0.359375q0.390625 0.265625 0.609375 0.75q0.234375 0.46875 0.234375 1.03125q0 0.96875 -0.625 1.65625q-0.609375 0.671875 -2.234375 0.671875l-1.953125 0l0 3.09375l-1.0 0zm1.0 -4.0l1.96875 0q0.984375 0 1.390625 -0.359375q0.421875 -0.375 0.421875 -1.03125q0 -0.484375 -0.25 -0.8125q-0.234375 -0.34375 -0.640625 -0.453125q-0.25 -0.078125 -0.9375 -0.078125l-1.953125 0l0 2.734375zm9.592007 3.3125q-0.53125 0.453125 -1.015625 0.640625q-0.46875 0.171875 -1.015625 0.171875q-0.9218712 0 -1.4062462 -0.4375q-0.484375 -0.453125 -0.484375 -1.140625q0 -0.40625 0.171875 -0.734375q0.1875 -0.34375 0.484375 -0.546875q0.3125 -0.203125 0.6875 -0.3125q0.265625 -0.0625 0.8281212 -0.140625q1.125 -0.125 1.671875 -0.3125q0 -0.203125 0 -0.25q0 -0.578125 -0.265625 -0.8125q-0.359375 -0.3125 -1.0625 -0.3125q-0.65625 0 -0.9843712 0.234375q-0.3125 0.234375 -0.453125 0.8125l-0.921875 -0.125q0.125 -0.578125 0.40625 -0.9375q0.296875 -0.375 0.828125 -0.5625q0.5468712 -0.203125 1.2499962 -0.203125q0.71875 0 1.15625 0.171875q0.4375 0.171875 0.640625 0.421875q0.21875 0.25 0.296875 0.640625q0.046875 0.234375 0.046875 0.859375l0 1.25q0 1.296875 0.0625 1.65625q0.0625 0.34375 0.234375 0.65625l-0.96875 0q-0.15625 -0.296875 -0.1875 -0.6875zm-0.078125 -2.078125q-0.515625 0.203125 -1.53125 0.34375q-0.5781212 0.078125 -0.8281212 0.1875q-0.234375 0.109375 -0.359375 0.3125q-0.125 0.1875 -0.125 0.4375q0 0.375 0.28125 0.625q0.28125 0.25 0.8281212 0.25q0.53125 0 0.953125 -0.234375q0.421875 -0.234375 0.625 -0.65625q0.15625 -0.3125 0.15625 -0.9375l0 -0.328125zm2.3796234 2.765625l0 -5.53125l0.84375 0l0 0.84375q0.328125 -0.59375 0.59375 -0.78125q0.28125 -0.1875 0.609375 -0.1875q0.46875 0 0.953125 0.3125l-0.3125 0.859375q-0.34375 -0.203125 -0.6875 -0.203125q-0.3125 0 -0.5625 0.1875q-0.234375 0.1875 -0.34375 0.515625q-0.15625 0.5 -0.15625 1.09375l0 2.890625l-0.9375 0zm3.5642395 -6.546875l0 -1.078125l0.9375 0l0 1.078125l-0.9375 0zm0 6.546875l0 -5.53125l0.9375 0l0 5.53125l-0.9375 0zm4.4143524 -0.84375l0.125 0.828125q-0.390625 0.09375 -0.703125 0.09375q-0.5 0 -0.78125 -0.15625q-0.28125 -0.171875 -0.40625 -0.4375q-0.109375 -0.265625 -0.109375 -1.109375l0 -3.171875l-0.6875 0l0 -0.734375l0.6875 0l0 -1.359375l0.9375 -0.5625l0 1.921875l0.9375 0l0 0.734375l-0.9375 0l0 3.234375q0 0.390625 0.046875 0.515625q0.046875 0.109375 0.15625 0.1875q0.109375 0.0625 0.328125 0.0625q0.15625 0 0.40625 -0.046875zm0.8668976 2.96875l-0.09375 -0.875q0.296875 0.078125 0.53125 0.078125q0.3125 0 0.5 -0.109375q0.1875 -0.09375 0.3125 -0.28125q0.078125 -0.140625 0.28125 -0.703125q0.03125 -0.078125 0.078125 -0.21875l-2.09375 -5.546875l1.015625 0l1.140625 3.203125q0.234375 0.609375 0.40625 1.28125q0.15625 -0.640625 0.375 -1.265625l1.1875 -3.21875l0.9375 0l-2.109375 5.625q-0.328125 0.90625 -0.515625 1.25q-0.25 0.46875 -0.578125 0.6875q-0.3125 0.21875 -0.765625 0.21875q-0.265625 0 -0.609375 -0.125zm7.9606476 -3.78125l0.921875 -0.140625q0.078125 0.5625 0.4375 0.859375q0.359375 0.296875 1.0 0.296875q0.640625 0 0.953125 -0.265625q0.3125 -0.265625 0.3125 -0.625q0 -0.3125 -0.28125 -0.5q-0.1875 -0.125 -0.953125 -0.3125q-1.03125 -0.265625 -1.4375 -0.453125q-0.390625 -0.1875 -0.59375 -0.515625q-0.203125 -0.34375 -0.203125 -0.75q0 -0.359375 0.171875 -0.671875q0.171875 -0.328125 0.453125 -0.53125q0.21875 -0.15625 0.59375 -0.265625q0.390625 -0.125 0.8125 -0.125q0.65625 0 1.140625 0.1875q0.5 0.1875 0.734375 0.515625q0.234375 0.3125 0.3125 0.859375l-0.90625 0.125q-0.0625 -0.4375 -0.375 -0.671875q-0.296875 -0.234375 -0.828125 -0.234375q-0.65625 0 -0.9375 0.21875q-0.265625 0.203125 -0.265625 0.484375q0 0.1875 0.109375 0.328125q0.125 0.15625 0.359375 0.25q0.140625 0.0625 0.828125 0.25q1.0 0.265625 1.390625 0.4375q0.390625 0.15625 0.609375 0.484375q0.234375 0.3125 0.234375 0.796875q0 0.46875 -0.28125 0.890625q-0.265625 0.40625 -0.78125 0.640625q-0.515625 0.21875 -1.171875 0.21875q-1.078125 0 -1.640625 -0.4375q-0.5625 -0.453125 -0.71875 -1.34375zm5.703125 1.65625l0 -7.625l0.9375 0l0 2.734375q0.65625 -0.765625 1.65625 -0.765625q0.609375 0 1.0625 0.25q0.453125 0.234375 0.640625 0.671875q0.203125 0.421875 0.203125 1.234375l0 3.5l-0.9375 0l0 -3.5q0 -0.703125 -0.3125 -1.015625q-0.296875 -0.328125 -0.859375 -0.328125q-0.40625 0 -0.78125 0.21875q-0.359375 0.21875 -0.515625 0.59375q-0.15625 0.359375 -0.15625 1.015625l0 3.015625l-0.9375 0zm9.535873 -0.6875q-0.53125 0.453125 -1.015625 0.640625q-0.46875 0.171875 -1.015625 0.171875q-0.921875 0 -1.40625 -0.4375q-0.484375 -0.453125 -0.484375 -1.140625q0 -0.40625 0.171875 -0.734375q0.1875 -0.34375 0.484375 -0.546875q0.3125 -0.203125 0.6875 -0.3125q0.265625 -0.0625 0.828125 -0.140625q1.125 -0.125 1.671875 -0.3125q0 -0.203125 0 -0.25q0 -0.578125 -0.265625 -0.8125q-0.359375 -0.3125 -1.0625 -0.3125q-0.65625 0 -0.984375 0.234375q-0.3125 0.234375 -0.453125 0.8125l-0.921875 -0.125q0.125 -0.578125 0.40625 -0.9375q0.296875 -0.375 0.828125 -0.5625q0.546875 -0.203125 1.25 -0.203125q0.71875 0 1.15625 0.171875q0.4375 0.171875 0.640625 0.421875q0.21875 0.25 0.296875 0.640625q0.046875 0.234375 0.046875 0.859375l0 1.25q0 1.296875 0.0625 1.65625q0.0625 0.34375 0.234375 0.65625l-0.96875 0q-0.15625 -0.296875 -0.1875 -0.6875zm-0.078125 -2.078125q-0.515625 0.203125 -1.53125 0.34375q-0.578125 0.078125 -0.828125 0.1875q-0.234375 0.109375 -0.359375 0.3125q-0.125 0.1875 -0.125 0.4375q0 0.375 0.28125 0.625q0.28125 0.25 0.828125 0.25q0.53125 0 0.953125 -0.234375q0.421875 -0.234375 0.625 -0.65625q0.15625 -0.3125 0.15625 -0.9375l0 -0.328125zm2.3796234 2.765625l0 -5.53125l0.84375 0l0 0.84375q0.328125 -0.59375 0.59375 -0.78125q0.28125 -0.1875 0.609375 -0.1875q0.46875 0 0.953125 0.3125l-0.3125 0.859375q-0.34375 -0.203125 -0.6875 -0.203125q-0.3125 0 -0.5625 0.1875q-0.234375 0.1875 -0.34375 0.515625q-0.15625 0.5 -0.15625 1.09375l0 2.890625l-0.9375 0zm7.1423645 0l0 -0.703125q-0.515625 0.828125 -1.546875 0.828125q-0.65625 0 -1.21875 -0.359375q-0.546875 -0.375 -0.859375 -1.015625q-0.296875 -0.65625 -0.296875 -1.5q0 -0.828125 0.28125 -1.5q0.28125 -0.6875 0.828125 -1.046875q0.546875 -0.359375 1.234375 -0.359375q0.5 0 0.890625 0.21875q0.390625 0.203125 0.625 0.546875l0 -2.734375l0.9375 0l0 7.625l-0.875 0zm-2.953125 -2.75q0 1.046875 0.4375 1.578125q0.453125 0.53125 1.0625 0.53125q0.609375 0 1.03125 -0.5q0.4375 -0.515625 0.4375 -1.53125q0 -1.140625 -0.4375 -1.671875q-0.4375 -0.53125 -1.078125 -0.53125q-0.609375 0 -1.03125 0.515625q-0.421875 0.5 -0.421875 1.609375z" fill-rule="nonzero"/><path fill="#000000" fill-opacity="0.0" d="m322.30243 54.855644l0 24.20472l0.06298828 0l0 24.204727" fill-rule="evenodd"/><path stroke="#000000" stroke-width="1.0" stroke-linejoin="round" stroke-linecap="butt" d="m322.30243 54.855644l0 24.20472l0.06298828 0l0 18.204727" fill-rule="evenodd"/><path fill="#000000" stroke="#000000" stroke-width="1.0" stroke-linecap="butt" d="m320.71368 97.26509l1.6517334 4.538101l1.6517334 -4.538101z" fill-rule="evenodd"/><path fill="#efefef" d="m237.54652 6.9501314l169.51183 0l0 47.905514l-169.51183 0z" fill-rule="evenodd"/><path stroke="#c72e49" stroke-width="1.0" stroke-linejoin="round" stroke-linecap="butt" d="m237.54652 6.9501314l169.51183 0l0 47.905514l-169.51183 0z" fill-rule="evenodd"/><path fill="#000000" d="m246.9684 34.142887l0 -0.8125l3.71875 -2.093752l-3.6875 -1.875l0 -0.765625l4.515625 2.375l0 0.515625l-4.546875 2.656252zm10.640762 0.5l0 -4.875002l0.703125 0l0 0.484375q0.109375 -0.1875 0.265625 -0.3125q0.15625 -0.140625 0.34375 -0.203125q0.1875 -0.078125 0.375 -0.078125q0.21875 0 0.390625 0.09375q0.1875 0.078125 0.3125 0.25q0.125 0.15625 0.171875 0.375q0.09375 -0.21875 0.25 -0.375q0.171875 -0.171875 0.390625 -0.25q0.21875 -0.09375 0.453125 -0.09375q0.25 0 0.421875 0.09375q0.1875 0.09375 0.296875 0.265625q0.125 0.15625 0.171875 0.390625q0.0625 0.234375 0.046875 0.5l0 3.734377l-0.703125 0l0 -3.453127q0 -0.453125 -0.0625 -0.65625q-0.0625 -0.203125 -0.171875 -0.25q-0.09375 -0.0625 -0.21875 -0.0625q-0.203125 0 -0.390625 0.1875q-0.171875 0.1875 -0.28125 0.46875q-0.109375 0.265625 -0.109375 0.546875l0 3.218752l-0.71875 0l0 -3.390627q0 -0.609375 -0.109375 -0.8125q-0.109375 -0.203125 -0.421875 -0.203125q-0.125 0 -0.25 0.09375q-0.109375 0.078125 -0.21875 0.21875q-0.109375 0.140625 -0.171875 0.359375q-0.0625 0.203125 -0.0625 0.484375l0 3.250002l-0.703125 0zm5.984436 0l0 -0.625l1.25 0l0 -3.625002l-1.1875 0l0 -0.625l1.953125 0l0 4.250002l1.140625 0l0 0.625l-3.15625 0zm1.59375 -5.890627q-0.21875 0 -0.390625 -0.15625q-0.15625 -0.171875 -0.15625 -0.390625q0 -0.234375 0.15625 -0.390625q0.15625 -0.15625 0.390625 -0.15625q0.234375 0 0.390625 0.171875q0.171875 0.15625 0.171875 0.375q0 0.21875 -0.171875 0.390625q-0.15625 0.15625 -0.390625 0.15625zm3.437561 5.890627l0 -4.875002l0.75 0l0 0.875q0.1875 -0.3125 0.4375 -0.515625q0.265625 -0.21875 0.5625 -0.34375q0.3125 -0.125 0.65625 -0.125q0.390625 0 0.703125 0.203125q0.328125 0.203125 0.515625 0.65625q0.203125 0.4375 0.203125 1.171875l0 2.953127l-0.75 0l0 -2.937502q0 -0.5 -0.125 -0.796875q-0.109375 -0.3125 -0.3125 -0.4375q-0.203125 -0.140625 -0.453125 -0.140625q-0.25 0 -0.5 0.109375q-0.25 0.09375 -0.46875 0.296875q-0.203125 0.203125 -0.34375 0.484375q-0.125 0.265625 -0.125 0.625l0 2.796877l-0.75 0zm5.625061 0l0 -0.625l1.25 0l0 -3.625002l-1.1875 0l0 -0.625l1.953125 0l0 4.250002l1.140625 0l0 0.625l-3.15625 0zm1.59375 -5.890627q-0.21875 0 -0.390625 -0.15625q-0.15625 -0.171875 -0.15625 -0.390625q0 -0.234375 0.15625 -0.390625q0.15625 -0.15625 0.390625 -0.15625q0.234375 0 0.390625 0.171875q0.171875 0.15625 0.171875 0.375q0 0.21875 -0.171875 0.390625q-0.15625 0.15625 -0.390625 0.15625zm5.343811 5.968752q-0.671875 0 -1.1875 -0.3125q-0.5 -0.328125 -0.78125 -0.890625q-0.28125 -0.578125 -0.28125 -1.3125q0 -0.7500019 0.28125 -1.3125019q0.28125 -0.578125 0.78125 -0.890625q0.515625 -0.328125 1.1875 -0.328125q0.65625 0 1.15625 0.328125q0.515625 0.3125 0.796875 0.890625q0.28125 0.5625 0.28125 1.3125019q0 0.734375 -0.28125 1.3125q-0.28125 0.5625 -0.796875 0.890625q-0.5 0.3125 -1.15625 0.3125zm0 -0.625q0.421875 0 0.734375 -0.25q0.328125 -0.25 0.515625 -0.671875q0.1875 -0.421875 0.1875 -0.984375q0 -0.5468769 -0.1875 -0.9687519q-0.1875 -0.4375 -0.515625 -0.671875q-0.3125 -0.25 -0.734375 -0.25q-0.421875 0 -0.75 0.25q-0.328125 0.234375 -0.515625 0.671875q-0.1875 0.421875 -0.1875 0.9687519q0 0.5625 0.1875 0.984375q0.1875 0.421875 0.515625 0.671875q0.328125 0.25 0.75 0.25zm5.687561 0.65625q-0.53125 0 -1.0 -0.1875q-0.46875 -0.203125 -0.828125 -0.625q-0.359375 -0.421875 -0.5625 -1.046875q-0.203125 -0.640625 -0.203125 -1.5312519q0 -0.78125 0.140625 -1.359375q0.15625 -0.578125 0.40625 -0.96875q0.265625 -0.40625 0.59375 -0.640625q0.328125 -0.234375 0.6875 -0.328125q0.359375 -0.109375 0.734375 -0.109375q0.71875 0 1.21875 0.359375q0.515625 0.34375 0.78125 0.953125l-0.640625 0.296875l-0.09375 0.03125l-0.03125 -0.0625q0.03125 -0.09375 0 -0.15625q-0.03125 -0.078125 -0.125 -0.21875q-0.265625 -0.359375 -0.546875 -0.484375q-0.28125 -0.125 -0.59375 -0.125q-0.40625 0 -0.75 0.1875q-0.328125 0.1875 -0.578125 0.546875q-0.234375 0.34375 -0.359375 0.859375q-0.125 0.515625 -0.125 1.171875q0 0.625 0.140625 1.1406269q0.15625 0.5 0.40625 0.875q0.25 0.375 0.578125 0.578125q0.34375 0.203125 0.71875 0.203125q0.265625 0 0.515625 -0.09375q0.25 -0.09375 0.46875 -0.28125q0.21875 -0.1875 0.359375 -0.4375l0.5625 0.359375q-0.328125 0.53125 -0.78125 0.8125q-0.4375 0.28125 -1.09375 0.28125l0 0zm3.140686 -0.109375l0 -0.625l1.4375 0l0 -5.843752l-1.375 0l0 -0.625l2.15625 0l0 6.468752l1.421875 0l0 0.625l-3.640625 0zm5.546936 0l0 -0.625l1.25 0l0 -3.625002l-1.1875 0l0 -0.625l1.953125 0l0 4.250002l1.140625 0l0 0.625l-3.15625 0zm1.59375 -5.890627q-0.21875 0 -0.390625 -0.15625q-0.15625 -0.171875 -0.15625 -0.390625q0 -0.234375 0.15625 -0.390625q0.15625 -0.15625 0.390625 -0.15625q0.234375 0 0.390625 0.171875q0.171875 0.15625 0.171875 0.375q0 0.21875 -0.171875 0.390625q-0.15625 0.15625 -0.390625 0.15625zm5.578186 6.000002q-0.546875 0 -0.984375 -0.15625q-0.4375 -0.171875 -0.75 -0.484375q-0.3125 -0.328125 -0.484375 -0.796875q-0.171875 -0.484375 -0.171875 -1.09375q0 -0.6093769 0.171875 -1.0937519q0.1875 -0.484375 0.484375 -0.796875q0.3125 -0.328125 0.71875 -0.5q0.40625 -0.171875 0.875 -0.171875q0.40625 0 0.765625 0.140625q0.375 0.140625 0.640625 0.421875q0.265625 0.28125 0.40625 0.71875q0.15625 0.4375 0.15625 1.03125q0 0.07812691 0 0.1718769q0 0.09375 -0.015625 0.171875l-3.46875 0q0.03125 0.46875 0.171875 0.828125q0.140625 0.34375 0.359375 0.5625q0.21875 0.21875 0.515625 0.328125q0.296875 0.09375 0.625 0.09375q0.25 0 0.46875 -0.046875q0.234375 -0.0625 0.421875 -0.1875q0.203125 -0.125 0.359375 -0.3125l0.4375 0.421875q-0.203125 0.25 -0.46875 0.421875q-0.265625 0.171875 -0.578125 0.25q-0.296875 0.078125 -0.65625 0.078125zm-1.609375 -3.031252l2.671875 0q0 -0.34375 -0.09375 -0.609375q-0.09375 -0.265625 -0.265625 -0.46875q-0.15625 -0.203125 -0.390625 -0.296875q-0.21875 -0.109375 -0.515625 -0.109375q-0.25 0 -0.484375 0.09375q-0.21875 0.078125 -0.421875 0.265625q-0.1875 0.1875 -0.328125 0.46875q-0.125 0.28125 -0.171875 0.65625zm4.796936 2.921877l0 -4.875002l0.75 0l0 0.875q0.1875 -0.3125 0.4375 -0.515625q0.265625 -0.21875 0.5625 -0.34375q0.3125 -0.125 0.65625 -0.125q0.390625 0 0.703125 0.203125q0.328125 0.203125 0.515625 0.65625q0.203125 0.4375 0.203125 1.171875l0 2.953127l-0.75 0l0 -2.937502q0 -0.5 -0.125 -0.796875q-0.109375 -0.3125 -0.3125 -0.4375q-0.203125 -0.140625 -0.453125 -0.140625q-0.25 0 -0.5 0.109375q-0.25 0.09375 -0.46875 0.296875q-0.203125 0.203125 -0.34375 0.484375q-0.125 0.265625 -0.125 0.625l0 2.796877l-0.75 0zm7.750061 0.078125q-0.46875 0 -0.765625 -0.15625q-0.296875 -0.171875 -0.46875 -0.5q-0.15625 -0.34375 -0.203125 -0.84375q-0.046875 -0.515625 -0.03125 -1.21875l0.140625 -3.468752l0.796875 -0.109375l0.109375 0l0 0.0625q-0.046875 0.078125 -0.09375 0.15625q-0.03125 0.078125 -0.046875 0.25l-0.09375 1.203125l0.03125 0.203125l-0.078125 1.7500019q-0.03125 0.8125 0.03125 1.265625q0.078125 0.4375 0.265625 0.609375q0.203125 0.15625 0.515625 0.15625q0.359375 0 0.625 -0.140625q0.28125 -0.140625 0.578125 -0.359375l0.234375 0.609375q-0.359375 0.265625 -0.75 0.40625q-0.375 0.125 -0.796875 0.125l0 0zm-2.4375 -4.953127l3.5 0l0 0.640625l-3.5 0l0 -0.640625zm7.109436 5.000002q-0.25 0 -0.4375 -0.1875q-0.171875 -0.1875 -0.171875 -0.421875q0 -0.25 0.171875 -0.421875q0.1875 -0.1875 0.4375 -0.1875q0.25 0 0.421875 0.1875q0.1875 0.171875 0.1875 0.421875q0 0.234375 -0.1875 0.421875q-0.171875 0.1875 -0.421875 0.1875zm3.437561 1.65625l0 -6.656252l0.78125 0l0 0.96875q0.109375 -0.375 0.328125 -0.609375q0.21875 -0.234375 0.515625 -0.34375q0.296875 -0.109375 0.640625 -0.109375q0.390625 0 0.75 0.15625q0.375 0.140625 0.65625 0.453125q0.296875 0.3125 0.453125 0.78125q0.171875 0.46875 0.171875 1.1093769q0 0.640625 -0.1875 1.125q-0.171875 0.484375 -0.46875 0.8125q-0.28125 0.328125 -0.65625 0.5q-0.359375 0.15625 -0.75 0.15625q-0.28125 0 -0.5625 -0.09375q-0.265625 -0.078125 -0.5 -0.25q-0.21875 -0.1875 -0.390625 -0.421875l0 2.421875l-0.78125 0zm2.109375 -2.328125q0.25 0 0.5 -0.09375q0.25 -0.09375 0.453125 -0.296875q0.203125 -0.21875 0.3125 -0.578125q0.125 -0.375 0.125 -0.921875q0 -0.5937519 -0.15625 -1.0000019q-0.140625 -0.40625 -0.4375 -0.625q-0.28125 -0.234375 -0.6875 -0.25q-0.296875 -0.03125 -0.5625 0.078125q-0.25 0.109375 -0.453125 0.359375q-0.203125 0.234375 -0.3125 0.640625q-0.109375 0.40625 -0.109375 0.9687519q0 0.34375 0.0625 0.625q0.078125 0.265625 0.1875 0.484375q0.125 0.203125 0.28125 0.34375q0.15625 0.125 0.359375 0.203125q0.203125 0.0625 0.4375 0.0625zm4.937561 0.671875q-0.296875 0 -0.546875 -0.09375q-0.25 -0.078125 -0.46875 -0.25q-0.203125 -0.1875 -0.359375 -0.453125q-0.140625 -0.265625 -0.21875 -0.640625q-0.078125 -0.375 -0.078125 -0.84375l0 -2.718752l0.75 0l0 2.718752q0 0.46875 0.078125 0.78125q0.09375 0.3125 0.25 0.515625q0.15625 0.1875 0.359375 0.28125q0.203125 0.078125 0.421875 0.078125q0.25 0 0.484375 -0.09375q0.234375 -0.109375 0.421875 -0.3125q0.1875 -0.203125 0.296875 -0.515625q0.109375 -0.328125 0.109375 -0.765625l0 -2.687502l0.75 0l0 4.125002q0 0.1875 0.015625 0.375q0.015625 0.1875 0.078125 0.375l-0.734375 0q-0.046875 -0.125 -0.078125 -0.25q-0.015625 -0.125 -0.015625 -0.25q0 -0.125 0 -0.25q-0.125 0.203125 -0.28125 0.375q-0.15625 0.15625 -0.359375 0.265625q-0.203125 0.109375 -0.421875 0.171875q-0.21875 0.0625 -0.453125 0.0625zm6.156311 -0.046875q-0.46875 0 -0.765625 -0.15625q-0.296875 -0.171875 -0.46875 -0.5q-0.15625 -0.34375 -0.203125 -0.84375q-0.046875 -0.515625 -0.03125 -1.21875l0.140625 -3.468752l0.796875 -0.109375l0.109375 0l0 0.0625q-0.046875 0.078125 -0.09375 0.15625q-0.03125 0.078125 -0.046875 0.25l-0.09375 1.203125l0.03125 0.203125l-0.078125 1.7500019q-0.03125 0.8125 0.03125 1.265625q0.078125 0.4375 0.265625 0.609375q0.203125 0.15625 0.515625 0.15625q0.359375 0 0.625 -0.140625q0.28125 -0.140625 0.578125 -0.359375l0.234375 0.609375q-0.359375 0.265625 -0.75 0.40625q-0.375 0.125 -0.796875 0.125l0 0zm-2.4375 -4.953127l3.5 0l0 0.640625l-3.5 0l0 -0.640625zm7.250061 5.000002q-0.765625 0 -1.296875 -0.390625q-0.53125 -0.40625 -0.8125 -1.15625q-0.28125 -0.765625 -0.28125 -1.8593769q0 -1.0625 0.28125 -1.8125q0.28125 -0.765625 0.8125 -1.171875q0.53125 -0.421875 1.296875 -0.421875q0.765625 0 1.28125 0.421875q0.53125 0.40625 0.8125 1.171875q0.28125 0.75 0.28125 1.8125q0 1.0937519 -0.28125 1.8593769q-0.28125 0.75 -0.8125 1.15625q-0.515625 0.390625 -1.28125 0.390625zm0 -0.65625q0.5 0 0.859375 -0.3125q0.359375 -0.328125 0.546875 -0.9375q0.1875 -0.609375 0.1875 -1.5000019q0 -0.84375 -0.1875 -1.453125q-0.1875 -0.609375 -0.546875 -0.953125q-0.359375 -0.34375 -0.859375 -0.34375q-0.515625 0 -0.875 0.34375q-0.359375 0.34375 -0.546875 0.953125q-0.1875 0.609375 -0.1875 1.453125q0 0.8906269 0.1875 1.5000019q0.1875 0.609375 0.546875 0.9375q0.359375 0.3125 0.875 0.3125zm5.484436 0.65625q-0.296875 0 -0.5625 -0.09375q-0.265625 -0.09375 -0.484375 -0.265625q-0.21875 -0.171875 -0.390625 -0.40625l-0.265625 0.640625l-0.484375 0l0 -7.093752l0.765625 0l0.109375 0l0 0.078125q-0.0625 0.0625 -0.078125 0.140625q-0.015625 0.078125 -0.015625 0.25l0 2.5q0.109375 -0.1875 0.265625 -0.34375q0.171875 -0.171875 0.359375 -0.28125q0.1875 -0.125 0.40625 -0.171875q0.21875 -0.0625 0.40625 -0.0625q0.453125 0 0.8125 0.15625q0.375 0.15625 0.640625 0.46875q0.265625 0.3125 0.40625 0.78125q0.15625 0.46875 0.15625 1.0937519q0 0.65625 -0.171875 1.140625q-0.171875 0.484375 -0.46875 0.8125q-0.296875 0.328125 -0.65625 0.5q-0.359375 0.15625 -0.75 0.15625l0 0zm-0.09375 -0.6875q0.265625 0 0.5 -0.09375q0.234375 -0.09375 0.421875 -0.3125q0.203125 -0.21875 0.3125 -0.578125q0.109375 -0.375 0.109375 -0.890625q0 -0.4843769 -0.09375 -0.8437519q-0.09375 -0.359375 -0.28125 -0.59375q-0.171875 -0.234375 -0.421875 -0.34375q-0.234375 -0.109375 -0.515625 -0.109375q-0.40625 0 -0.703125 0.25q-0.296875 0.234375 -0.46875 0.671875q-0.171875 0.421875 -0.171875 0.9843769q0 0.421875 0.0625 0.765625q0.078125 0.328125 0.234375 0.578125q0.15625 0.25 0.40625 0.390625q0.25 0.125 0.609375 0.125l0 0zm4.656311 2.421875q-0.453125 0 -0.875 -0.171875q-0.40625 -0.171875 -0.671875 -0.515625l0.421875 -0.578125l0.0625 -0.078125l0.0625 0.03125q0.03125 0.09375 0.0625 0.171875q0.03125 0.078125 0.140625 0.203125q0.15625 0.125 0.34375 0.1875q0.203125 0.078125 0.453125 0.078125q0.3125 0 0.5625 -0.140625q0.25 -0.140625 0.390625 -0.453125q0.140625 -0.296875 0.140625 -0.78125l0 -4.046877l-1.8125 0l0 -0.640625l2.59375 0l0 4.640627q0 0.734375 -0.265625 1.1875q-0.25 0.46875 -0.671875 0.6875q-0.421875 0.21875 -0.9375 0.21875l0 0zm1.421875 -7.750002q-0.21875 0 -0.390625 -0.15625q-0.15625 -0.171875 -0.15625 -0.390625q0 -0.234375 0.15625 -0.390625q0.15625 -0.15625 0.390625 -0.15625q0.234375 0 0.390625 0.171875q0.171875 0.15625 0.171875 0.375q0 0.21875 -0.171875 0.390625q-0.15625 0.15625 -0.390625 0.15625zm4.750061 6.000002q-0.546875 0 -0.984375 -0.15625q-0.4375 -0.171875 -0.75 -0.484375q-0.3125 -0.328125 -0.484375 -0.796875q-0.171875 -0.484375 -0.171875 -1.09375q0 -0.6093769 0.171875 -1.0937519q0.1875 -0.484375 0.484375 -0.796875q0.3125 -0.328125 0.71875 -0.5q0.40625 -0.171875 0.875 -0.171875q0.40625 0 0.765625 0.140625q0.375 0.140625 0.640625 0.421875q0.265625 0.28125 0.40625 0.71875q0.15625 0.4375 0.15625 1.03125q0 0.07812691 0 0.1718769q0 0.09375 -0.015625 0.171875l-3.46875 0q0.03125 0.46875 0.171875 0.828125q0.140625 0.34375 0.359375 0.5625q0.21875 0.21875 0.515625 0.328125q0.296875 0.09375 0.625 0.09375q0.25 0 0.46875 -0.046875q0.234375 -0.0625 0.421875 -0.1875q0.203125 -0.125 0.359375 -0.3125l0.4375 0.421875q-0.203125 0.25 -0.46875 0.421875q-0.265625 0.171875 -0.578125 0.25q-0.296875 0.078125 -0.65625 0.078125zm-1.609375 -3.031252l2.671875 0q0 -0.34375 -0.09375 -0.609375q-0.09375 -0.265625 -0.265625 -0.46875q-0.15625 -0.203125 -0.390625 -0.296875q-0.21875 -0.109375 -0.515625 -0.109375q-0.25 0 -0.484375 0.09375q-0.21875 0.078125 -0.421875 0.265625q-0.1875 0.1875 -0.328125 0.46875q-0.125 0.28125 -0.171875 0.65625zm7.062561 3.046877q-0.53125 0 -0.984375 -0.1875q-0.4375 -0.203125 -0.765625 -0.546875q-0.328125 -0.34375 -0.515625 -0.796875q-0.171875 -0.46875 -0.171875 -1.015625q0 -0.5468769 0.171875 -1.0156269q0.1875 -0.46875 0.515625 -0.796875q0.328125 -0.34375 0.765625 -0.53125q0.453125 -0.203125 0.984375 -0.203125q0.59375 0 1.0625 0.25q0.484375 0.234375 0.78125 0.65625l-0.484375 0.46875l-0.078125 0.078125l-0.046875 -0.046875q0 -0.09375 -0.046875 -0.15625q-0.03125 -0.078125 -0.15625 -0.21875q-0.234375 -0.203125 -0.5 -0.28125q-0.265625 -0.09375 -0.625 -0.09375q-0.3125 0 -0.59375 0.125q-0.265625 0.125 -0.484375 0.375q-0.21875 0.234375 -0.34375 0.578125q-0.125 0.328125 -0.125 0.7500019q0 0.421875 0.125 0.765625q0.125 0.34375 0.34375 0.609375q0.234375 0.25 0.546875 0.390625q0.3125 0.140625 0.671875 0.140625q0.25 0 0.46875 -0.0625q0.21875 -0.078125 0.421875 -0.203125q0.203125 -0.140625 0.375 -0.328125l0.453125 0.515625q-0.359375 0.390625 -0.8125 0.59375q-0.4375 0.1875 -0.953125 0.1875l0 0zm5.484436 -0.046875q-0.46875 0 -0.765625 -0.15625q-0.296875 -0.171875 -0.46875 -0.5q-0.15625 -0.34375 -0.203125 -0.84375q-0.046875 -0.515625 -0.03125 -1.21875l0.140625 -3.468752l0.796875 -0.109375l0.109375 0l0 0.0625q-0.046875 0.078125 -0.09375 0.15625q-0.03125 0.078125 -0.046875 0.25l-0.09375 1.203125l0.03125 0.203125l-0.078125 1.7500019q-0.03125 0.8125 0.03125 1.265625q0.078125 0.4375 0.265625 0.609375q0.203125 0.15625 0.515625 0.15625q0.359375 0 0.625 -0.140625q0.28125 -0.140625 0.578125 -0.359375l0.234375 0.609375q-0.359375 0.265625 -0.75 0.40625q-0.375 0.125 -0.796875 0.125l0 0zm-2.4375 -4.953127l3.5 0l0 0.640625l-3.5 0l0 -0.640625zm8.781311 5.984377q-0.875 -0.421875 -1.53125 -1.109375q-0.65625 -0.703125 -1.015625 -1.578125q-0.359375 -0.890625 -0.359375 -1.8281269q0 -0.953125 0.34375 -1.8125q0.359375 -0.859375 1.0 -1.53125q0.640625 -0.671875 1.5 -1.078125l0.203125 0.65625q-0.5 0.28125 -0.921875 0.6875q-0.421875 0.40625 -0.734375 0.890625q-0.296875 0.484375 -0.46875 1.0625q-0.15625 0.5625 -0.15625 1.15625q0 0.59375 0.15625 1.1562519q0.171875 0.5625 0.46875 1.078125q0.3125 0.5 0.75 0.921875q0.4375 0.40625 0.96875 0.6875l-0.203125 0.640625zm2.546936 0l-0.203125 -0.640625q0.546875 -0.28125 0.96875 -0.6875q0.4375 -0.421875 0.734375 -0.921875q0.3125 -0.515625 0.46875 -1.078125q0.171875 -0.5625019 0.171875 -1.1562519q0 -0.59375 -0.171875 -1.15625q-0.15625 -0.578125 -0.46875 -1.0625q-0.296875 -0.484375 -0.71875 -0.890625q-0.40625 -0.40625 -0.921875 -0.6875l0.203125 -0.65625q0.859375 0.40625 1.5 1.078125q0.640625 0.671875 0.984375 1.53125q0.359375 0.859375 0.359375 1.8125q0 0.9375019 -0.359375 1.8281269q-0.359375 0.875 -1.015625 1.578125q-0.65625 0.6875 -1.53125 1.109375z" fill-rule="nonzero"/><path fill="#efefef" d="m170.91661 136.56308l0 0c0 -2.539688 2.0588226 -4.5985107 4.5985107 -4.5985107l293.57465 0c1.2196045 0 2.3892517 0.4844818 3.251648 1.346878c0.8623657 0.862381 1.3468628 2.0320282 1.3468628 3.2516327l0 18.393524c0 2.539688 -2.058838 4.5985107 -4.5985107 4.5985107l-293.57465 0c-2.539688 0 -4.5985107 -2.0588226 -4.5985107 -4.5985107z" fill-rule="evenodd"/><path stroke="#c72e49" stroke-width="2.0" stroke-linejoin="round" stroke-linecap="butt" stroke-dasharray="8.0,6.0" d="m170.91661 136.56308l0 0c0 -2.539688 2.0588226 -4.5985107 4.5985107 -4.5985107l293.57465 0c1.2196045 0 2.3892517 0.4844818 3.251648 1.346878c0.8623657 0.862381 1.3468628 2.0320282 1.3468628 3.2516327l0 18.393524c0 2.539688 -2.058838 4.5985107 -4.5985107 4.5985107l-293.57465 0c-2.539688 0 -4.5985107 -2.0588226 -4.5985107 -4.5985107z" fill-rule="evenodd"/><path fill="#000000" d="m205.16298 150.55984l0 -9.546875l4.0625 0q1.53125 0 2.21875 0.265625q0.703125 0.25 1.109375 0.90625q0.421875 0.65625 0.421875 1.515625q0 1.0625 -0.640625 1.765625q-0.625 0.703125 -1.875 0.890625q0.625 0.359375 1.03125 0.796875q0.40625 0.4375 1.09375 1.546875l1.15625 1.859375l-2.296875 0l-1.390625 -2.078125q-0.75 -1.109375 -1.03125 -1.390625q-0.265625 -0.296875 -0.578125 -0.40625q-0.296875 -0.109375 -0.953125 -0.109375l-0.390625 0l0 3.984375l-1.9375 0zm1.9375 -5.5l1.421875 0q1.390625 0 1.734375 -0.109375q0.34375 -0.125 0.53125 -0.40625q0.203125 -0.296875 0.203125 -0.71875q0 -0.484375 -0.265625 -0.78125q-0.25 -0.296875 -0.71875 -0.375q-0.234375 -0.03125 -1.40625 -0.03125l-1.5 0l0 2.421875zm7.6876526 5.5l0 -9.546875l7.078125 0l0 1.625l-5.15625 0l0 2.109375l4.796875 0l0 1.609375l-4.796875 0l0 2.59375l5.328125 0l0 1.609375l-7.25 0zm8.889755 0l0 -9.546875l7.078125 0l0 1.625l-5.15625 0l0 2.109375l4.796875 0l0 1.609375l-4.796875 0l0 2.59375l5.328125 0l0 1.609375l-7.25 0zm8.889755 -9.546875l3.515625 0q1.1875 0 1.8125 0.1875q0.84375 0.25 1.4375 0.890625q0.609375 0.625 0.921875 1.546875q0.3125 0.90625 0.3125 2.25q0 1.171875 -0.296875 2.015625q-0.359375 1.046875 -1.03125 1.6875q-0.5 0.5 -1.34375 0.765625q-0.640625 0.203125 -1.703125 0.203125l-3.625 0l0 -9.546875zm1.921875 1.625l0 6.3125l1.4375 0q0.8125 0 1.171875 -0.09375q0.46875 -0.109375 0.765625 -0.390625q0.3125 -0.28125 0.5 -0.921875q0.203125 -0.640625 0.203125 -1.75q0 -1.109375 -0.203125 -1.6875q-0.1875 -0.59375 -0.546875 -0.921875q-0.34375 -0.34375 -0.875 -0.453125q-0.40625 -0.09375 -1.59375 -0.09375l-0.859375 0zm7.4845276 5.375l0 -1.828125l3.59375 0l0 1.828125l-3.59375 0zm4.1727448 -0.5625l1.875 -0.171875q0.171875 0.9375 0.6875 1.390625q0.515625 0.4375 1.390625 0.4375q0.9375 0 1.40625 -0.390625q0.46875 -0.40625 0.46875 -0.921875q0 -0.34375 -0.203125 -0.578125q-0.1875 -0.234375 -0.6875 -0.421875q-0.34375 -0.109375 -1.546875 -0.40625q-1.546875 -0.390625 -2.171875 -0.953125q-0.875 -0.78125 -0.875 -1.921875q0 -0.71875 0.40625 -1.359375q0.421875 -0.640625 1.1875 -0.96875q0.78125 -0.328125 1.890625 -0.328125q1.796875 0 2.703125 0.796875q0.90625 0.78125 0.953125 2.09375l-1.921875 0.078125q-0.125 -0.734375 -0.53125 -1.046875q-0.40625 -0.328125 -1.234375 -0.328125q-0.828125 0 -1.3125 0.34375q-0.296875 0.21875 -0.296875 0.59375q0 0.34375 0.28125 0.578125q0.359375 0.3125 1.765625 0.640625q1.40625 0.328125 2.078125 0.6875q0.6875 0.359375 1.0625 0.96875q0.375 0.609375 0.375 1.515625q0 0.828125 -0.453125 1.546875q-0.453125 0.703125 -1.296875 1.0625q-0.828125 0.34375 -2.0625 0.34375q-1.8125 0 -2.78125 -0.828125q-0.96875 -0.84375 -1.15625 -2.453125zm8.983505 -1.609375q0 -1.453125 0.4375 -2.4375q0.328125 -0.734375 0.89060974 -1.3125q0.5625 -0.578125 1.234375 -0.859375q0.890625 -0.375 2.046875 -0.375q2.109375 0 3.375 1.3125q1.265625 1.296875 1.265625 3.640625q0 2.296875 -1.25 3.609375q-1.25 1.296875 -3.359375 1.296875q-2.125 0 -3.390625 -1.296875q-1.2499847 -1.296875 -1.2499847 -3.578125zm1.9843597 -0.0625q0 1.625 0.75 2.46875q0.75 0.828125 1.90625 0.828125q1.140625 0 1.875 -0.828125q0.75 -0.828125 0.75 -2.484375q0 -1.640625 -0.71875 -2.453125q-0.71875 -0.8125 -1.90625 -0.8125q-1.203125 0 -1.9375 0.828125q-0.71875 0.8125 -0.71875 2.453125zm8.82019 4.78125l0 -9.46875l1.9375 0l0 7.859375l4.78125 0l0 1.609375l-6.71875 0zm7.7038574 -4.71875q0 -1.453125 0.4375 -2.4375q0.328125 -0.734375 0.890625 -1.3125q0.5625 -0.578125 1.234375 -0.859375q0.890625 -0.375 2.046875 -0.375q2.109375 0 3.375 1.3125q1.265625 1.296875 1.265625 3.640625q0 2.296875 -1.25 3.609375q-1.25 1.296875 -3.359375 1.296875q-2.125 0 -3.390625 -1.296875q-1.25 -1.296875 -1.25 -3.578125zm1.984375 -0.0625q0 1.625 0.75 2.46875q0.75 0.828125 1.90625 0.828125q1.140625 0 1.875 -0.828125q0.75 -0.828125 0.75 -2.484375q0 -1.640625 -0.71875 -2.453125q-0.71875 -0.8125 -1.90625 -0.8125q-1.203125 0 -1.9375 0.828125q-0.71875 0.8125 -0.71875 2.453125zm8.742035 4.78125l0 -9.546875l2.890625 0l1.734375 6.515625l1.703125 -6.515625l2.890625 0l0 9.546875l-1.78125 0l0 -7.515625l-1.90625 7.515625l-1.84375 0l-1.890625 -7.515625l0 7.515625l-1.796875 0zm10.7430725 -4.71875q0 -1.453125 0.4375 -2.4375q0.328125 -0.734375 0.890625 -1.3125q0.5625 -0.578125 1.234375 -0.859375q0.890625 -0.375 2.046875 -0.375q2.109375 0 3.375 1.3125q1.265625 1.296875 1.265625 3.640625q0 2.296875 -1.25 3.609375q-1.25 1.296875 -3.359375 1.296875q-2.125 0 -3.390625 -1.296875q-1.25 -1.296875 -1.25 -3.578125zm1.984375 -0.0625q0 1.625 0.75 2.46875q0.75 0.828125 1.90625 0.828125q1.140625 0 1.875 -0.828125q0.75 -0.828125 0.75 -2.484375q0 -1.640625 -0.71875 -2.453125q-0.71875 -0.8125 -1.90625 -0.8125q-1.203125 0 -1.9375 0.828125q-0.71875 0.8125 -0.71875 2.453125zm8.78891 4.78125l0 -9.546875l1.875 0l3.90625 6.375l0 -6.375l1.796875 0l0 9.546875l-1.9375 0l-3.84375 -6.21875l0 6.21875l-1.796875 0zm13.3125305 0l0 -9.546875l7.078125 0l0 1.625l-5.15625 0l0 2.109375l4.796875 0l0 1.609375l-4.796875 0l0 2.59375l5.328125 0l0 1.609375l-7.25 0zm8.88974 0l0 -9.546875l4.0625 0q1.53125 0 2.21875 0.265625q0.703125 0.25 1.109375 0.90625q0.421875 0.65625 0.421875 1.515625q0 1.0625 -0.640625 1.765625q-0.625 0.703125 -1.875 0.890625q0.625 0.359375 1.03125 0.796875q0.40625 0.4375 1.09375 1.546875l1.15625 1.859375l-2.296875 0l-1.390625 -2.078125q-0.75 -1.109375 -1.03125 -1.390625q-0.265625 -0.296875 -0.578125 -0.40625q-0.296875 -0.109375 -0.953125 -0.109375l-0.390625 0l0 3.984375l-1.9375 0zm1.9375 -5.5l1.421875 0q1.390625 0 1.734375 -0.109375q0.34375 -0.125 0.53125 -0.40625q0.203125 -0.296875 0.203125 -0.71875q0 -0.484375 -0.265625 -0.78125q-0.25 -0.296875 -0.71875 -0.375q-0.234375 -0.03125 -1.40625 -0.03125l-1.5 0l0 2.421875zm16.297028 5.5l-2.09375 0l-0.84375 -2.171875l-3.8125 0l-0.78125 2.171875l-2.046875 0l3.71875 -9.546875l2.03125 0l3.828125 9.546875zm-3.546875 -3.78125l-1.3125 -3.53125l-1.296875 3.53125l2.609375 0zm4.0782776 0.671875l1.875 -0.171875q0.171875 0.9375 0.6875 1.390625q0.515625 0.4375 1.390625 0.4375q0.9375 0 1.40625 -0.390625q0.46875 -0.40625 0.46875 -0.921875q0 -0.34375 -0.203125 -0.578125q-0.1875 -0.234375 -0.6875 -0.421875q-0.34375 -0.109375 -1.546875 -0.40625q-1.546875 -0.390625 -2.171875 -0.953125q-0.875 -0.78125 -0.875 -1.921875q0 -0.71875 0.40625 -1.359375q0.421875 -0.640625 1.1875 -0.96875q0.78125 -0.328125 1.890625 -0.328125q1.796875 0 2.703125 0.796875q0.90625 0.78125 0.953125 2.09375l-1.921875 0.078125q-0.125 -0.734375 -0.53125 -1.046875q-0.40625 -0.328125 -1.234375 -0.328125q-0.828125 0 -1.3125 0.34375q-0.296875 0.21875 -0.296875 0.59375q0 0.34375 0.28125 0.578125q0.359375 0.3125 1.765625 0.640625q1.40625 0.328125 2.078125 0.6875q0.6875 0.359375 1.0625 0.96875q0.375 0.609375 0.375 1.515625q0 0.828125 -0.453125 1.546875q-0.453125 0.703125 -1.296875 1.0625q-0.828125 0.34375 -2.0625 0.34375q-1.8125 0 -2.78125 -0.828125q-0.96875 -0.84375 -1.15625 -2.453125zm9.3585205 -6.4375l1.9375 0l0 5.171875q0 1.234375 0.0625 1.59375q0.125 0.59375 0.59375 0.953125q0.46875 0.34375 1.265625 0.34375q0.828125 0 1.234375 -0.328125q0.421875 -0.34375 0.5 -0.828125q0.09375 -0.484375 0.09375 -1.625l0 -5.28125l1.921875 0l0 5.015625q0 1.71875 -0.15625 2.4375q-0.15625 0.703125 -0.578125 1.1875q-0.421875 0.484375 -1.125 0.78125q-0.703125 0.28125 -1.828125 0.28125q-1.375 0 -2.078125 -0.3125q-0.703125 -0.3125 -1.109375 -0.8125q-0.40625 -0.515625 -0.546875 -1.0625q-0.1875 -0.8125 -0.1875 -2.421875l0 -5.09375zm9.640778 9.546875l0 -9.546875l4.0625 0q1.53125 0 2.21875 0.265625q0.703125 0.25 1.109375 0.90625q0.421875 0.65625 0.421875 1.515625q0 1.0625 -0.640625 1.765625q-0.625 0.703125 -1.875 0.890625q0.625 0.359375 1.03125 0.796875q0.40625 0.4375 1.09375 1.546875l1.15625 1.859375l-2.296875 0l-1.390625 -2.078125q-0.75 -1.109375 -1.03125 -1.390625q-0.265625 -0.296875 -0.578125 -0.40625q-0.296875 -0.109375 -0.953125 -0.109375l-0.390625 0l0 3.984375l-1.9375 0zm1.9375 -5.5l1.421875 0q1.390625 0 1.734375 -0.109375q0.34375 -0.125 0.53125 -0.40625q0.203125 -0.296875 0.203125 -0.71875q0 -0.484375 -0.265625 -0.78125q-0.25 -0.296875 -0.71875 -0.375q-0.234375 -0.03125 -1.40625 -0.03125l-1.5 0l0 2.421875zm7.6876526 5.5l0 -9.546875l7.078125 0l0 1.625l-5.15625 0l0 2.109375l4.796875 0l0 1.609375l-4.796875 0l0 2.59375l5.328125 0l0 1.609375l-7.25 0zm18.702118 -3.5l1.859375 0.578125q-0.421875 1.5625 -1.421875 2.328125q-1.0 0.75 -2.53125 0.75q-1.90625 0 -3.140625 -1.296875q-1.21875 -1.296875 -1.21875 -3.546875q0 -2.375 1.234375 -3.6875q1.234375 -1.328125 3.234375 -1.328125q1.75 0 2.84375 1.03125q0.65625 0.609375 0.984375 1.765625l-1.90625 0.453125q-0.171875 -0.75 -0.71875 -1.171875q-0.53125 -0.4375 -1.296875 -0.4375q-1.0625 0 -1.734375 0.765625q-0.65625 0.765625 -0.65625 2.46875q0 1.8125 0.65625 2.578125q0.65625 0.765625 1.6875 0.765625q0.78125 0 1.328125 -0.484375q0.546875 -0.484375 0.796875 -1.53125zm3.1251526 -1.21875q0 -1.453125 0.4375 -2.4375q0.328125 -0.734375 0.890625 -1.3125q0.5625 -0.578125 1.234375 -0.859375q0.890625 -0.375 2.046875 -0.375q2.109375 0 3.375 1.3125q1.265625 1.296875 1.265625 3.640625q0 2.296875 -1.25 3.609375q-1.25 1.296875 -3.359375 1.296875q-2.125 0 -3.390625 -1.296875q-1.25 -1.296875 -1.25 -3.578125zm1.984375 -0.0625q0 1.625 0.75 2.46875q0.75 0.828125 1.90625 0.828125q1.140625 0 1.875 -0.828125q0.75 -0.828125 0.75 -2.484375q0 -1.640625 -0.71875 -2.453125q-0.71875 -0.8125 -1.90625 -0.8125q-1.203125 0 -1.9375 0.828125q-0.71875 0.8125 -0.71875 2.453125zm8.773285 -4.765625l3.515625 0q1.1875 0 1.8125 0.1875q0.84375 0.25 1.4375 0.890625q0.609375 0.625 0.921875 1.546875q0.3125 0.90625 0.3125 2.25q0 1.171875 -0.296875 2.015625q-0.359375 1.046875 -1.03125 1.6875q-0.5 0.5 -1.34375 0.765625q-0.640625 0.203125 -1.703125 0.203125l-3.625 0l0 -9.546875zm1.921875 1.625l0 6.3125l1.4375 0q0.8125 0 1.171875 -0.09375q0.46875 -0.109375 0.765625 -0.390625q0.3125 -0.28125 0.5 -0.921875q0.203125 -0.640625 0.203125 -1.75q0 -1.109375 -0.203125 -1.6875q-0.1875 -0.59375 -0.546875 -0.921875q-0.34375 -0.34375 -0.875 -0.453125q-0.40625 -0.09375 -1.59375 -0.09375l-0.859375 0zm7.6407776 7.921875l0 -9.546875l1.9375 0l0 9.546875l-1.9375 0zm3.781128 0l0 -9.546875l1.875 0l3.90625 6.375l0 -6.375l1.7968445 0l0 9.546875l-1.9374695 0l-3.84375 -6.21875l0 6.21875l-1.796875 0zm14.047028 -3.5l0 -1.609375l4.15625 0l0 3.796875q-0.609375 0.578125 -1.765625 1.03125q-1.140625 0.4375 -2.3125 0.4375q-1.5 0 -2.625 -0.625q-1.109375 -0.625 -1.671875 -1.78125q-0.546875 -1.171875 -0.546875 -2.546875q0 -1.5 0.625 -2.65625q0.625 -1.15625 1.828125 -1.78125q0.921875 -0.46875 2.28125 -0.46875q1.78125 0 2.78125 0.75q1.0 0.734375 1.28125 2.0625l-1.921875 0.34375q-0.1875 -0.703125 -0.75 -1.109375q-0.5625 -0.40625 -1.390625 -0.40625q-1.265625 0 -2.015625 0.8125q-0.734375 0.796875 -0.734375 2.375q0 1.6875 0.75 2.546875q0.75 0.84375 1.984375 0.84375q0.609375 0 1.203125 -0.234375q0.609375 -0.234375 1.046875 -0.578125l0 -1.203125l-2.203125 0z" fill-rule="nonzero"/><path fill="#00303f" d="m248.58832 250.70741l0 0c0 -1.7859039 1.4477692 -3.2336578 3.233673 -3.2336578l12.934235 0l0 0c0.8576355 0 1.6801147 0.34068298 2.28656 0.94711304c0.6064148 0.60643005 0.94711304 1.4289246 0.94711304 2.2865448l0 21.123245c0 1.7858887 -1.4477539 3.2336426 -3.233673 3.2336426l-12.934235 0c-1.7859039 0 -3.233673 -1.4477539 -3.233673 -3.2336426z" fill-rule="evenodd"/><path stroke="#00303f" stroke-width="2.0" stroke-linejoin="round" stroke-linecap="butt" d="m248.58832 250.70741l0 0c0 -1.7859039 1.4477692 -3.2336578 3.233673 -3.2336578l12.934235 0l0 0c0.8576355 0 1.6801147 0.34068298 2.28656 0.94711304c0.6064148 0.60643005 0.94711304 1.4289246 0.94711304 2.2865448l0 21.123245c0 1.7858887 -1.4477539 3.2336426 -3.233673 3.2336426l-12.934235 0c-1.7859039 0 -3.233673 -1.4477539 -3.233673 -3.2336426z" fill-rule="evenodd"/><path fill="#edf7f7" d="m256.02545 263.94904l0 -5.734375l1.96875 0q0.671875 0 1.015625 0.09375q0.5 0.109375 0.84375 0.40625q0.453125 0.375 0.671875 0.984375q0.234375 0.59375 0.234375 1.359375q0 0.640625 -0.15625 1.15625q-0.15625 0.5 -0.390625 0.828125q-0.234375 0.328125 -0.53125 0.515625q-0.28125 0.1875 -0.6875 0.296875q-0.390625 0.09375 -0.90625 0.09375l-2.0625 0zm0.75 -0.671875l1.21875 0q0.578125 0 0.890625 -0.109375q0.328125 -0.109375 0.515625 -0.296875q0.265625 -0.265625 0.421875 -0.71875q0.15625 -0.46875 0.15625 -1.109375q0 -0.90625 -0.296875 -1.375q-0.296875 -0.484375 -0.71875 -0.65625q-0.3125 -0.109375 -0.984375 -0.109375l-1.203125 0l0 4.375z" fill-rule="nonzero"/><path fill="#00303f" d="m170.9147 250.70741l0 0c0 -1.7859039 1.4477539 -3.2336578 3.2336578 -3.2336578l12.93425 0l0 0c0.85762024 0 1.6801147 0.34068298 2.2865448 0.94711304c0.60643005 0.60643005 0.94711304 1.4289246 0.94711304 2.2865448l0 21.123245c0 1.7858887 -1.4477539 3.2336426 -3.2336578 3.2336426l-12.93425 0c-1.7859039 0 -3.2336578 -1.4477539 -3.2336578 -3.2336426z" fill-rule="evenodd"/><path stroke="#00303f" stroke-width="2.0" stroke-linejoin="round" stroke-linecap="butt" d="m170.9147 250.70741l0 0c0 -1.7859039 1.4477539 -3.2336578 3.2336578 -3.2336578l12.93425 0l0 0c0.85762024 0 1.6801147 0.34068298 2.2865448 0.94711304c0.60643005 0.60643005 0.94711304 1.4289246 0.94711304 2.2865448l0 21.123245c0 1.7858887 -1.4477539 3.2336426 -3.2336578 3.2336426l-12.93425 0c-1.7859039 0 -3.2336578 -1.4477539 -3.2336578 -3.2336426z" fill-rule="evenodd"/><path fill="#edf7f7" d="m178.3518 263.94904l0 -5.734375l1.96875 0q0.671875 0 1.015625 0.09375q0.5 0.109375 0.84375 0.40625q0.453125 0.375 0.671875 0.984375q0.234375 0.59375 0.234375 1.359375q0 0.640625 -0.15625 1.15625q-0.15625 0.5 -0.390625 0.828125q-0.234375 0.328125 -0.53125 0.515625q-0.28125 0.1875 -0.6875 0.296875q-0.390625 0.09375 -0.90625 0.09375l-2.0625 0zm0.75 -0.671875l1.21875 0q0.578125 0 0.890625 -0.109375q0.328125 -0.109375 0.515625 -0.296875q0.265625 -0.265625 0.421875 -0.71875q0.15625 -0.46875 0.15625 -1.109375q0 -0.90625 -0.296875 -1.375q-0.296875 -0.484375 -0.71875 -0.65625q-0.3125 -0.109375 -0.984375 -0.109375l-1.203125 0l0 4.375z" fill-rule="nonzero"/><path fill="#00303f" d="m211.416 250.70741l0 0c0 -1.7859039 1.4477539 -3.2336578 3.2336578 -3.2336578l12.93425 0l0 0c0.85762024 0 1.6801147 0.34068298 2.2865448 0.94711304c0.60643005 0.60643005 0.9471283 1.4289246 0.9471283 2.2865448l0 21.123245c0 1.7858887 -1.4477692 3.2336426 -3.233673 3.2336426l-12.93425 0c-1.7859039 0 -3.2336578 -1.4477539 -3.2336578 -3.2336426z" fill-rule="evenodd"/><path stroke="#00303f" stroke-width="2.0" stroke-linejoin="round" stroke-linecap="butt" d="m211.416 250.70741l0 0c0 -1.7859039 1.4477539 -3.2336578 3.2336578 -3.2336578l12.93425 0l0 0c0.85762024 0 1.6801147 0.34068298 2.2865448 0.94711304c0.60643005 0.60643005 0.9471283 1.4289246 0.9471283 2.2865448l0 21.123245c0 1.7858887 -1.4477692 3.2336426 -3.233673 3.2336426l-12.93425 0c-1.7859039 0 -3.2336578 -1.4477539 -3.2336578 -3.2336426z" fill-rule="evenodd"/><path fill="#edf7f7" d="m218.85312 263.94904l0 -5.734375l1.96875 0q0.671875 0 1.015625 0.09375q0.5 0.109375 0.84375 0.40625q0.453125 0.375 0.671875 0.984375q0.234375 0.59375 0.234375 1.359375q0 0.640625 -0.15625 1.15625q-0.15625 0.5 -0.390625 0.828125q-0.234375 0.328125 -0.53125 0.515625q-0.28125 0.1875 -0.6875 0.296875q-0.390625 0.09375 -0.90625 0.09375l-2.0625 0zm0.75 -0.671875l1.21875 0q0.578125 0 0.890625 -0.109375q0.328125 -0.109375 0.515625 -0.296875q0.265625 -0.265625 0.421875 -0.71875q0.15625 -0.46875 0.15625 -1.109375q0 -0.90625 -0.296875 -1.375q-0.296875 -0.484375 -0.71875 -0.65625q-0.3125 -0.109375 -0.984375 -0.109375l-1.203125 0l0 4.375z" fill-rule="nonzero"/><path fill="#00303f" d="m292.4186 250.70741l0 0c0 -1.7859039 1.4477539 -3.2336578 3.2336426 -3.2336578l12.934265 0l0 0c0.8576355 0 1.6801147 0.34068298 2.28656 0.94711304c0.6064148 0.60643005 0.94711304 1.4289246 0.94711304 2.2865448l0 21.123245c0 1.7858887 -1.4477844 3.2336426 -3.233673 3.2336426l-12.934265 0c-1.7858887 0 -3.2336426 -1.4477539 -3.2336426 -3.2336426z" fill-rule="evenodd"/><path stroke="#00303f" stroke-width="2.0" stroke-linejoin="round" stroke-linecap="butt" d="m292.4186 250.70741l0 0c0 -1.7859039 1.4477539 -3.2336578 3.2336426 -3.2336578l12.934265 0l0 0c0.8576355 0 1.6801147 0.34068298 2.28656 0.94711304c0.6064148 0.60643005 0.94711304 1.4289246 0.94711304 2.2865448l0 21.123245c0 1.7858887 -1.4477844 3.2336426 -3.233673 3.2336426l-12.934265 0c-1.7858887 0 -3.2336426 -1.4477539 -3.2336426 -3.2336426z" fill-rule="evenodd"/><path fill="#edf7f7" d="m299.8557 263.94904l0 -5.734375l1.96875 0q0.671875 0 1.015625 0.09375q0.5 0.109375 0.84375 0.40625q0.453125 0.375 0.671875 0.984375q0.234375 0.59375 0.234375 1.359375q0 0.640625 -0.15625 1.15625q-0.15625 0.5 -0.390625 0.828125q-0.234375 0.328125 -0.53125 0.515625q-0.28125 0.1875 -0.6875 0.296875q-0.390625 0.09375 -0.90625 0.09375l-2.0625 0zm0.75 -0.671875l1.21875 0q0.578125 0 0.890625 -0.109375q0.328125 -0.109375 0.515625 -0.296875q0.265625 -0.265625 0.421875 -0.71875q0.15625 -0.46875 0.15625 -1.109375q0 -0.90625 -0.296875 -1.375q-0.296875 -0.484375 -0.71875 -0.65625q-0.3125 -0.109375 -0.984375 -0.109375l-1.203125 0l0 4.375z" fill-rule="nonzero"/><path fill="#c72e49" d="m332.78088 250.70741l0 0c0 -1.7859039 1.4477539 -3.2336578 3.2336426 -3.2336578l12.934265 0l0 0c0.857605 0 1.6801147 0.34068298 2.2865295 0.94711304c0.6064453 0.60643005 0.94711304 1.4289246 0.94711304 2.2865448l0 21.123245c0 1.7858887 -1.4477539 3.2336426 -3.2336426 3.2336426l-12.934265 0c-1.7858887 0 -3.2336426 -1.4477539 -3.2336426 -3.2336426z" fill-rule="evenodd"/><path stroke="#00303f" stroke-width="2.0" stroke-linejoin="round" stroke-linecap="butt" d="m332.78088 250.70741l0 0c0 -1.7859039 1.4477539 -3.2336578 3.2336426 -3.2336578l12.934265 0l0 0c0.857605 0 1.6801147 0.34068298 2.2865295 0.94711304c0.6064453 0.60643005 0.94711304 1.4289246 0.94711304 2.2865448l0 21.123245c0 1.7858887 -1.4477539 3.2336426 -3.2336426 3.2336426l-12.934265 0c-1.7858887 0 -3.2336426 -1.4477539 -3.2336426 -3.2336426z" fill-rule="evenodd"/><path fill="#edf7f7" d="m340.4387 263.94904l0 -5.734375l2.15625 0q0.5625 0 0.875 0.0625q0.421875 0.0625 0.703125 0.265625q0.28125 0.203125 0.453125 0.5625q0.171875 0.34375 0.171875 0.765625q0 0.734375 -0.46875 1.25q-0.453125 0.5 -1.671875 0.5l-1.46875 0l0 2.328125l-0.75 0zm0.75 -3.0l1.484375 0q0.734375 0 1.03125 -0.265625q0.3125 -0.28125 0.3125 -0.78125q0 -0.359375 -0.1875 -0.609375q-0.171875 -0.265625 -0.46875 -0.34375q-0.1875 -0.046875 -0.703125 -0.046875l-1.46875 0l0 2.046875z" fill-rule="nonzero"/><path fill="#c72e49" d="m373.28217 250.70741l0 0c0 -1.7859039 1.4477539 -3.2336578 3.233673 -3.2336578l12.934235 0l0 0c0.8576355 0 1.6801147 0.34068298 2.28656 0.94711304c0.6064148 0.60643005 0.94711304 1.4289246 0.94711304 2.2865448l0 21.123245c0 1.7858887 -1.4477539 3.2336426 -3.233673 3.2336426l-12.934235 0c-1.7859192 0 -3.233673 -1.4477539 -3.233673 -3.2336426z" fill-rule="evenodd"/><path stroke="#00303f" stroke-width="2.0" stroke-linejoin="round" stroke-linecap="butt" d="m373.28217 250.70741l0 0c0 -1.7859039 1.4477539 -3.2336578 3.233673 -3.2336578l12.934235 0l0 0c0.8576355 0 1.6801147 0.34068298 2.28656 0.94711304c0.6064148 0.60643005 0.94711304 1.4289246 0.94711304 2.2865448l0 21.123245c0 1.7858887 -1.4477539 3.2336426 -3.233673 3.2336426l-12.934235 0c-1.7859192 0 -3.233673 -1.4477539 -3.233673 -3.2336426z" fill-rule="evenodd"/><path fill="#edf7f7" d="m380.94 263.94904l0 -5.734375l2.15625 0q0.5625 0 0.875 0.0625q0.421875 0.0625 0.703125 0.265625q0.28125 0.203125 0.453125 0.5625q0.171875 0.34375 0.171875 0.765625q0 0.734375 -0.46875 1.25q-0.453125 0.5 -1.671875 0.5l-1.46875 0l0 2.328125l-0.75 0zm0.75 -3.0l1.484375 0q0.734375 0 1.03125 -0.265625q0.3125 -0.28125 0.3125 -0.78125q0 -0.359375 -0.1875 -0.609375q-0.171875 -0.265625 -0.46875 -0.34375q-0.1875 -0.046875 -0.703125 -0.046875l-1.46875 0l0 2.046875z" fill-rule="nonzero"/><path fill="#c72e49" d="m413.78348 250.70741l0 0c0 -1.7859039 1.4477539 -3.2336578 3.2336426 -3.2336578l12.934265 0l0 0c0.8576355 0 1.6801147 0.34068298 2.28656 0.94711304c0.6064148 0.60643005 0.94711304 1.4289246 0.94711304 2.2865448l0 21.123245c0 1.7858887 -1.4477539 3.2336426 -3.233673 3.2336426l-12.934265 0c-1.7858887 0 -3.2336426 -1.4477539 -3.2336426 -3.2336426z" fill-rule="evenodd"/><path stroke="#00303f" stroke-width="2.0" stroke-linejoin="round" stroke-linecap="butt" d="m413.78348 250.70741l0 0c0 -1.7859039 1.4477539 -3.2336578 3.2336426 -3.2336578l12.934265 0l0 0c0.8576355 0 1.6801147 0.34068298 2.28656 0.94711304c0.6064148 0.60643005 0.94711304 1.4289246 0.94711304 2.2865448l0 21.123245c0 1.7858887 -1.4477539 3.2336426 -3.233673 3.2336426l-12.934265 0c-1.7858887 0 -3.2336426 -1.4477539 -3.2336426 -3.2336426z" fill-rule="evenodd"/><path fill="#edf7f7" d="m421.44128 263.94904l0 -5.734375l2.15625 0q0.5625 0 0.875 0.0625q0.421875 0.0625 0.703125 0.265625q0.28125 0.203125 0.453125 0.5625q0.171875 0.34375 0.171875 0.765625q0 0.734375 -0.46875 1.25q-0.453125 0.5 -1.671875 0.5l-1.46875 0l0 2.328125l-0.75 0zm0.75 -3.0l1.484375 0q0.734375 0 1.03125 -0.265625q0.3125 -0.28125 0.3125 -0.78125q0 -0.359375 -0.1875 -0.609375q-0.171875 -0.265625 -0.46875 -0.34375q-0.1875 -0.046875 -0.703125 -0.046875l-1.46875 0l0 2.046875z" fill-rule="nonzero"/><path fill="#c72e49" d="m454.2848 250.70741l0 0c0 -1.7859039 1.4477539 -3.2336578 3.2336426 -3.2336578l12.934265 0l0 0c0.857605 0 1.6801147 0.34068298 2.2865295 0.94711304c0.6064453 0.60643005 0.94711304 1.4289246 0.94711304 2.2865448l0 21.123245c0 1.7858887 -1.4477539 3.2336426 -3.2336426 3.2336426l-12.934265 0c-1.7858887 0 -3.2336426 -1.4477539 -3.2336426 -3.2336426z" fill-rule="evenodd"/><path stroke="#00303f" stroke-width="2.0" stroke-linejoin="round" stroke-linecap="butt" d="m454.2848 250.70741l0 0c0 -1.7859039 1.4477539 -3.2336578 3.2336426 -3.2336578l12.934265 0l0 0c0.857605 0 1.6801147 0.34068298 2.2865295 0.94711304c0.6064453 0.60643005 0.94711304 1.4289246 0.94711304 2.2865448l0 21.123245c0 1.7858887 -1.4477539 3.2336426 -3.2336426 3.2336426l-12.934265 0c-1.7858887 0 -3.2336426 -1.4477539 -3.2336426 -3.2336426z" fill-rule="evenodd"/><path fill="#edf7f7" d="m461.9426 263.94904l0 -5.734375l2.15625 0q0.5625 0 0.875 0.0625q0.421875 0.0625 0.703125 0.265625q0.28125 0.203125 0.453125 0.5625q0.171875 0.34375 0.171875 0.765625q0 0.734375 -0.46875 1.25q-0.453125 0.5 -1.671875 0.5l-1.46875 0l0 2.328125l-0.75 0zm0.75 -3.0l1.484375 0q0.734375 0 1.03125 -0.265625q0.3125 -0.28125 0.3125 -0.78125q0 -0.359375 -0.1875 -0.609375q-0.171875 -0.265625 -0.46875 -0.34375q-0.1875 -0.046875 -0.703125 -0.046875l-1.46875 0l0 2.046875z" fill-rule="nonzero"/><path fill="#000000" fill-opacity="0.0" d="m322.30243 159.55511l0 43.958908l-141.70078 0l0 43.94661" fill-rule="evenodd"/><path stroke="#000000" stroke-width="1.0" stroke-linejoin="round" stroke-linecap="butt" d="m322.30243 159.55511l0 43.958908l-141.70079 0l0 37.94661" fill-rule="evenodd"/><path fill="#000000" stroke="#000000" stroke-width="1.0" stroke-linecap="butt" d="m178.9499 241.46063l1.6517334 4.538101l1.6517334 -4.538101z" fill-rule="evenodd"/><path fill="#000000" fill-opacity="0.0" d="m322.30243 159.55511l0 43.958908l-101.19684 0l0 43.94661" fill-rule="evenodd"/><path stroke="#000000" stroke-width="1.0" stroke-linejoin="round" stroke-linecap="butt" d="m322.30243 159.55511l0 43.958908l-101.19685 0l0 37.94661" fill-rule="evenodd"/><path fill="#000000" stroke="#000000" stroke-width="1.0" stroke-linecap="butt" d="m219.45384 241.46063l1.6517334 4.538101l1.6517334 -4.538101z" fill-rule="evenodd"/><path fill="#000000" fill-opacity="0.0" d="m322.30243 159.55511l0 43.958908l-64.0 0l0 43.94661" fill-rule="evenodd"/><path stroke="#000000" stroke-width="1.0" stroke-linejoin="round" stroke-linecap="butt" d="m322.30243 159.55511l0 43.958908l-64.0 0l0 37.94661" fill-rule="evenodd"/><path fill="#000000" stroke="#000000" stroke-width="1.0" stroke-linecap="butt" d="m256.6507 241.46063l1.6517334 4.538101l1.6517334 -4.538101z" fill-rule="evenodd"/><path fill="#000000" fill-opacity="0.0" d="m322.30243 159.55511l0 43.958908l-20.188965 0l0 43.94661" fill-rule="evenodd"/><path stroke="#000000" stroke-width="1.0" stroke-linejoin="round" stroke-linecap="butt" d="m322.30243 159.55511l0 43.958908l-20.188965 0l0 37.94661" fill-rule="evenodd"/><path fill="#000000" stroke="#000000" stroke-width="1.0" stroke-linecap="butt" d="m300.46173 241.46063l1.6517334 4.538101l1.6517334 -4.538101z" fill-rule="evenodd"/><path fill="#000000" fill-opacity="0.0" d="m322.30243 159.55511l0 43.958908l20.188995 0l0 43.94661" fill-rule="evenodd"/><path stroke="#000000" stroke-width="1.0" stroke-linejoin="round" stroke-linecap="butt" d="m322.30243 159.55511l0 43.958908l20.188965 0l0 37.94661" fill-rule="evenodd"/><path fill="#000000" stroke="#000000" stroke-width="1.0" stroke-linecap="butt" d="m340.83966 241.46063l1.6517334 4.538101l1.6517334 -4.538101z" fill-rule="evenodd"/><path fill="#000000" fill-opacity="0.0" d="m322.30243 159.55511l0 43.958908l60.692932 0l0 43.94661" fill-rule="evenodd"/><path stroke="#000000" stroke-width="1.0" stroke-linejoin="round" stroke-linecap="butt" d="m322.30243 159.55511l0 43.958908l60.692932 0l0 37.94661" fill-rule="evenodd"/><path fill="#000000" stroke="#000000" stroke-width="1.0" stroke-linecap="butt" d="m381.34363 241.46063l1.6517334 4.538101l1.6517334 -4.538101z" fill-rule="evenodd"/><path fill="#000000" fill-opacity="0.0" d="m322.30243 159.55511l0 43.958908l101.19687 0l0 43.94661" fill-rule="evenodd"/><path stroke="#000000" stroke-width="1.0" stroke-linejoin="round" stroke-linecap="butt" d="m322.30243 159.55511l0 43.958908l101.19687 0l0 37.94661" fill-rule="evenodd"/><path fill="#000000" stroke="#000000" stroke-width="1.0" stroke-linecap="butt" d="m421.84756 241.46063l1.6517334 4.538101l1.6517334 -4.538101z" fill-rule="evenodd"/><path fill="#000000" fill-opacity="0.0" d="m322.30243 159.55511l0 43.958908l141.66928 0l0 43.94661" fill-rule="evenodd"/><path stroke="#000000" stroke-width="1.0" stroke-linejoin="round" stroke-linecap="butt" d="m322.30243 159.55511l0 43.958908l141.66931 0l0 37.94661" fill-rule="evenodd"/><path fill="#000000" stroke="#000000" stroke-width="1.0" stroke-linecap="butt" d="m462.32 241.46063l1.6517334 4.538101l1.6517334 -4.538101z" fill-rule="evenodd"/></g></svg>