<svg version="1.1" viewBox="0.0 0.0 641.0367454068241 244.38057742782152" fill="none" stroke="none" stroke-linecap="square" stroke-miterlimit="10" xmlns:xlink="http://www.w3.org/1999/xlink" xmlns="http://www.w3.org/2000/svg"><clipPath id="p.0"><path d="m0 0l641.03674 0l0 244.38058l-641.03674 0l0 -244.38058z" clip-rule="nonzero"/></clipPath><g clip-path="url(#p.0)"><path fill="#000000" fill-opacity="0.0" d="m0 0l641.03674 0l0 244.38058l-641.03674 0z" fill-rule="evenodd"/><path fill="#f3f3f3" d="m8.0 8.0l197.10236 0l0 36.377953l-197.10236 0z" fill-rule="evenodd"/><path stroke="#ffffff" stroke-width="1.0" stroke-linejoin="round" stroke-linecap="butt" d="m8.0 8.0l197.10236 0l0 36.377953l-197.10236 0z" fill-rule="evenodd"/><path fill="#c72e49" d="m218.14174 15.217964l0 0c0 -3.2210007 2.611145 -5.832137 5.832138 -5.832137l196.24124 0c1.5467834 0 3.0302124 0.6144552 4.123932 1.7081928c1.09375 1.0937386 1.7082214 2.5771656 1.7082214 4.1239443l0 23.32785c0 3.2210007 -2.611145 5.832138 -5.8321533 5.832138l-196.24124 0c-3.220993 0 -5.832138 -2.6111374 -5.832138 -5.832138z" fill-rule="evenodd"/><path stroke="#980000" stroke-width="4.0" stroke-linejoin="round" stroke-linecap="butt" d="m218.14174 15.217964l0 0c0 -3.2210007 2.611145 -5.832137 5.832138 -5.832137l196.24124 0c1.5467834 0 3.0302124 0.6144552 4.123932 1.7081928c1.09375 1.0937386 1.7082214 2.5771656 1.7082214 4.1239443l0 23.32785c0 3.2210007 -2.611145 5.832138 -5.8321533 5.832138l-196.24124 0c-3.220993 0 -5.832138 -2.6111374 -5.832138 -5.832138z" fill-rule="evenodd"/><path fill="#ffffff" d="m297.51523 33.801888l0 -13.359375l4.03125 0l2.421875 9.109375l2.390625 -9.109375l4.046875 0l0 13.359375l-2.5 0l0 -10.515625l-2.65625 10.515625l-2.59375 0l-2.640625 -10.515625l0 10.515625l-2.5 0zm15.556427 -10.984375l0 -2.375l2.5625 0l0 2.375l-2.5625 0zm0 10.984375l0 -9.671875l2.5625 0l0 9.671875l-2.5625 0zm13.980164 0l-2.5625 0l0 -4.9375q0 -1.5625 -0.171875 -2.015625q-0.15625 -0.46875 -0.53125 -0.71875q-0.359375 -0.265625 -0.875 -0.265625q-0.671875 0 -1.203125 0.375q-0.53125 0.359375 -0.734375 0.96875q-0.1875 0.59375 -0.1875 2.21875l0 4.375l-2.546875 0l0 -9.671875l2.375 0l0 1.421875q1.265625 -1.640625 3.1875 -1.640625q0.84375 0 1.546875 0.3125q0.703125 0.296875 1.0625 0.78125q0.359375 0.46875 0.5 1.078125q0.140625 0.59375 0.140625 1.703125l0 6.015625zm2.536621 0l0 -13.359375l2.6875 0l0 13.359375l-2.6875 0zm4.7145386 -6.59375q0 -2.046875 0.609375 -3.421875q0.453125 -1.03125 1.234375 -1.828125q0.796875 -0.8125 1.734375 -1.203125q1.25 -0.53125 2.875 -0.53125q2.953125 0 4.71875 1.828125q1.78125 1.828125 1.78125 5.09375q0 3.234375 -1.765625 5.0625q-1.75 1.828125 -4.6875 1.828125q-2.984375 0 -4.75 -1.8125q-1.75 -1.828125 -1.75 -5.015625zm2.78125 -0.09375q0 2.265625 1.046875 3.4375q1.046875 1.171875 2.65625 1.171875q1.609375 0 2.640625 -1.15625q1.046875 -1.171875 1.046875 -3.484375q0 -2.296875 -1.015625 -3.421875q-1.0 -1.140625 -2.671875 -1.140625q-1.671875 0 -2.6875 1.15625q-1.015625 1.140625 -1.015625 3.4375z" fill-rule="nonzero"/><path fill="#000000" fill-opacity="0.0" d="m322.09448 72.68219l0 -14.1521l0.06298828 0l0 -14.162857" fill-rule="evenodd"/><path stroke="#000000" stroke-width="1.0" stroke-linejoin="round" stroke-linecap="butt" d="m322.09448 66.6822l0 -8.152107l0.06298828 0l0 -14.162857" fill-rule="evenodd"/><path fill="#000000" stroke="#000000" stroke-width="1.0" stroke-linecap="butt" d="m320.44275 66.6822l1.6517334 4.5380936l1.6517334 -4.5380936z" fill-rule="evenodd"/><path fill="#f3f3f3" d="m26.433146 15.856124l0 0c0 -1.7846727 1.4467621 -3.2314348 3.2314339 -3.2314348l12.925352 0l0 0c0.85702896 0 1.6789589 0.34045315 2.2849693 0.9464655c0.60601044 0.6060114 0.94646454 1.4279394 0.94646454 2.2849693l0 21.390102c0 1.7846718 -1.4467621 3.2314339 -3.2314339 3.2314339l-12.925352 0c-1.7846718 0 -3.2314339 -1.4467621 -3.2314339 -3.2314339z" fill-rule="evenodd"/><path stroke="#c72e49" stroke-width="1.0" stroke-linejoin="round" stroke-linecap="butt" d="m26.433146 15.856124l0 0c0 -1.7846727 1.4467621 -3.2314348 3.2314339 -3.2314348l12.925352 0l0 0c0.85702896 0 1.6789589 0.34045315 2.2849693 0.9464655c0.60601044 0.6060114 0.94646454 1.4279394 0.94646454 2.2849693l0 21.390102c0 1.7846718 -1.4467621 3.2314339 -3.2314339 3.2314339l-12.925352 0c-1.7846718 0 -3.2314339 -1.4467621 -3.2314339 -3.2314339z" fill-rule="evenodd"/><path fill="#efefef" d="m30.242434 12.952512l12.47806 0l0 4.809146l-12.47806 0z" fill-rule="evenodd"/><path fill="#000000" fill-opacity="0.0" d="m31.830608 12.933958l0 3.2951565" fill-rule="evenodd"/><path stroke="#bf9000" stroke-width="1.0" stroke-linejoin="round" stroke-linecap="butt" d="m31.830608 12.933958l0 3.2951565" fill-rule="evenodd"/><path fill="#000000" fill-opacity="0.0" d="m33.97893 12.933958l0 4.2747974" fill-rule="evenodd"/><path stroke="#bf9000" stroke-width="1.0" stroke-linejoin="round" stroke-linecap="butt" d="m33.97893 12.933958l0 4.2747974" fill-rule="evenodd"/><path fill="#000000" fill-opacity="0.0" d="m36.127254 12.933958l0 2.894393" fill-rule="evenodd"/><path stroke="#bf9000" stroke-width="1.0" stroke-linejoin="round" stroke-linecap="butt" d="m36.127254 12.933958l0 2.894393" fill-rule="evenodd"/><path fill="#000000" fill-opacity="0.0" d="m38.275578 12.933958l0 3.8962994" fill-rule="evenodd"/><path stroke="#bf9000" stroke-width="1.0" stroke-linejoin="round" stroke-linecap="butt" d="m38.275578 12.933958l0 3.8962994" fill-rule="evenodd"/><path fill="#000000" fill-opacity="0.0" d="m40.423904 12.933958l0 3.0057163" fill-rule="evenodd"/><path stroke="#bf9000" stroke-width="1.0" stroke-linejoin="round" stroke-linecap="butt" d="m40.423904 12.933958l0 3.0057163" fill-rule="evenodd"/><path fill="#f3f3f3" d="m494.02896 210.35612l0 0c0 -1.784668 1.4467773 -3.23143 3.2314453 -3.23143l12.925354 0l0 0c0.85702515 0 1.6789551 0.3404541 2.2849426 0.9464569c0.60601807 0.60601807 0.94647217 1.427948 0.94647217 2.2849731l0 21.390106c0 1.784668 -1.4467468 3.23143 -3.2314148 3.23143l-12.925354 0c-1.784668 0 -3.2314453 -1.4467621 -3.2314453 -3.23143z" fill-rule="evenodd"/><path stroke="#c72e49" stroke-width="1.0" stroke-linejoin="round" stroke-linecap="butt" d="m494.02896 210.35612l0 0c0 -1.784668 1.4467773 -3.23143 3.2314453 -3.23143l12.925354 0l0 0c0.85702515 0 1.6789551 0.3404541 2.2849426 0.9464569c0.60601807 0.60601807 0.94647217 1.427948 0.94647217 2.2849731l0 21.390106c0 1.784668 -1.4467468 3.23143 -3.2314148 3.23143l-12.925354 0c-1.784668 0 -3.2314453 -1.4467621 -3.2314453 -3.23143z" fill-rule="evenodd"/><path fill="#efefef" d="m497.83826 207.45251l12.478058 0l0 4.809143l-12.478058 0z" fill-rule="evenodd"/><path fill="#000000" fill-opacity="0.0" d="m499.42645 207.43396l0 3.2951508" fill-rule="evenodd"/><path stroke="#bf9000" stroke-width="1.0" stroke-linejoin="round" stroke-linecap="butt" d="m499.42645 207.43396l0 3.2951508" fill-rule="evenodd"/><path fill="#000000" fill-opacity="0.0" d="m501.57477 207.43396l0 4.2747955" fill-rule="evenodd"/><path stroke="#bf9000" stroke-width="1.0" stroke-linejoin="round" stroke-linecap="butt" d="m501.57477 207.43396l0 4.2747955" fill-rule="evenodd"/><path fill="#000000" fill-opacity="0.0" d="m503.72308 207.43396l0 2.894394" fill-rule="evenodd"/><path stroke="#bf9000" stroke-width="1.0" stroke-linejoin="round" stroke-linecap="butt" d="m503.72308 207.43396l0 2.894394" fill-rule="evenodd"/><path fill="#000000" fill-opacity="0.0" d="m505.8714 207.43396l0 3.8963013" fill-rule="evenodd"/><path stroke="#bf9000" stroke-width="1.0" stroke-linejoin="round" stroke-linecap="butt" d="m505.8714 207.43396l0 3.8963013" fill-rule="evenodd"/><path fill="#000000" fill-opacity="0.0" d="m508.01974 207.43396l0 3.0057068" fill-rule="evenodd"/><path stroke="#bf9000" stroke-width="1.0" stroke-linejoin="round" stroke-linecap="butt" d="m508.01974 207.43396l0 3.0057068" fill-rule="evenodd"/><path fill="#f3f3f3" d="m534.5303 210.35612l0 0c0 -1.784668 1.4467773 -3.23143 3.2314453 -3.23143l12.925354 0l0 0c0.8569946 0 1.6789551 0.3404541 2.2849731 0.9464569c0.60601807 0.60601807 0.94647217 1.427948 0.94647217 2.2849731l0 21.390106c0 1.784668 -1.4467773 3.23143 -3.2314453 3.23143l-12.925354 0c-1.784668 0 -3.2314453 -1.4467621 -3.2314453 -3.23143z" fill-rule="evenodd"/><path stroke="#c72e49" stroke-width="1.0" stroke-linejoin="round" stroke-linecap="butt" d="m534.5303 210.35612l0 0c0 -1.784668 1.4467773 -3.23143 3.2314453 -3.23143l12.925354 0l0 0c0.8569946 0 1.6789551 0.3404541 2.2849731 0.9464569c0.60601807 0.60601807 0.94647217 1.427948 0.94647217 2.2849731l0 21.390106c0 1.784668 -1.4467773 3.23143 -3.2314453 3.23143l-12.925354 0c-1.784668 0 -3.2314453 -1.4467621 -3.2314453 -3.23143z" fill-rule="evenodd"/><path fill="#efefef" d="m538.33954 207.45251l12.478088 0l0 4.809143l-12.478088 0z" fill-rule="evenodd"/><path fill="#000000" fill-opacity="0.0" d="m539.92773 207.43396l0 3.2951508" fill-rule="evenodd"/><path stroke="#bf9000" stroke-width="1.0" stroke-linejoin="round" stroke-linecap="butt" d="m539.92773 207.43396l0 3.2951508" fill-rule="evenodd"/><path fill="#000000" fill-opacity="0.0" d="m542.07605 207.43396l0 4.2747955" fill-rule="evenodd"/><path stroke="#bf9000" stroke-width="1.0" stroke-linejoin="round" stroke-linecap="butt" d="m542.07605 207.43396l0 4.2747955" fill-rule="evenodd"/><path fill="#000000" fill-opacity="0.0" d="m544.22437 207.43396l0 2.894394" fill-rule="evenodd"/><path stroke="#bf9000" stroke-width="1.0" stroke-linejoin="round" stroke-linecap="butt" d="m544.22437 207.43396l0 2.894394" fill-rule="evenodd"/><path fill="#000000" fill-opacity="0.0" d="m546.37274 207.43396l0 3.8963013" fill-rule="evenodd"/><path stroke="#bf9000" stroke-width="1.0" stroke-linejoin="round" stroke-linecap="butt" d="m546.37274 207.43396l0 3.8963013" fill-rule="evenodd"/><path fill="#000000" fill-opacity="0.0" d="m548.52106 207.43396l0 3.0057068" fill-rule="evenodd"/><path stroke="#bf9000" stroke-width="1.0" stroke-linejoin="round" stroke-linecap="butt" d="m548.52106 207.43396l0 3.0057068" fill-rule="evenodd"/><path fill="#f3f3f3" d="m575.03156 210.35612l0 0c0 -1.784668 1.4467773 -3.23143 3.2314453 -3.23143l12.925354 0l0 0c0.85705566 0 1.6789551 0.3404541 2.2849731 0.9464569c0.60601807 0.60601807 0.94647217 1.427948 0.94647217 2.2849731l0 21.390106c0 1.784668 -1.4467773 3.23143 -3.2314453 3.23143l-12.925354 0c-1.784668 0 -3.2314453 -1.4467621 -3.2314453 -3.23143z" fill-rule="evenodd"/><path stroke="#c72e49" stroke-width="1.0" stroke-linejoin="round" stroke-linecap="butt" d="m575.03156 210.35612l0 0c0 -1.784668 1.4467773 -3.23143 3.2314453 -3.23143l12.925354 0l0 0c0.85705566 0 1.6789551 0.3404541 2.2849731 0.9464569c0.60601807 0.60601807 0.94647217 1.427948 0.94647217 2.2849731l0 21.390106c0 1.784668 -1.4467773 3.23143 -3.2314453 3.23143l-12.925354 0c-1.784668 0 -3.2314453 -1.4467621 -3.2314453 -3.23143z" fill-rule="evenodd"/><path fill="#efefef" d="m578.8409 207.45251l12.478027 0l0 4.809143l-12.478027 0z" fill-rule="evenodd"/><path fill="#000000" fill-opacity="0.0" d="m580.429 207.43396l0 3.2951508" fill-rule="evenodd"/><path stroke="#bf9000" stroke-width="1.0" stroke-linejoin="round" stroke-linecap="butt" d="m580.429 207.43396l0 3.2951508" fill-rule="evenodd"/><path fill="#000000" fill-opacity="0.0" d="m582.5774 207.43396l0 4.2747955" fill-rule="evenodd"/><path stroke="#bf9000" stroke-width="1.0" stroke-linejoin="round" stroke-linecap="butt" d="m582.5774 207.43396l0 4.2747955" fill-rule="evenodd"/><path fill="#000000" fill-opacity="0.0" d="m584.7257 207.43396l0 2.894394" fill-rule="evenodd"/><path stroke="#bf9000" stroke-width="1.0" stroke-linejoin="round" stroke-linecap="butt" d="m584.7257 207.43396l0 2.894394" fill-rule="evenodd"/><path fill="#000000" fill-opacity="0.0" d="m586.874 207.43396l0 3.8963013" fill-rule="evenodd"/><path stroke="#bf9000" stroke-width="1.0" stroke-linejoin="round" stroke-linecap="butt" d="m586.874 207.43396l0 3.8963013" fill-rule="evenodd"/><path fill="#000000" fill-opacity="0.0" d="m589.02234 207.43396l0 3.0057068" fill-rule="evenodd"/><path stroke="#bf9000" stroke-width="1.0" stroke-linejoin="round" stroke-linecap="butt" d="m589.02234 207.43396l0 3.0057068" fill-rule="evenodd"/><path fill="#f3f3f3" d="m615.5329 210.35612l0 0c0 -1.784668 1.4467773 -3.23143 3.2314453 -3.23143l12.925354 0l0 0c0.8569946 0 1.6789551 0.3404541 2.284912 0.9464569c0.60601807 0.60601807 0.94647217 1.427948 0.94647217 2.2849731l0 21.390106c0 1.784668 -1.4467163 3.23143 -3.2313843 3.23143l-12.925354 0c-1.784668 0 -3.2314453 -1.4467621 -3.2314453 -3.23143z" fill-rule="evenodd"/><path stroke="#c72e49" stroke-width="1.0" stroke-linejoin="round" stroke-linecap="butt" d="m615.5329 210.35612l0 0c0 -1.784668 1.4467773 -3.23143 3.2314453 -3.23143l12.925354 0l0 0c0.8569946 0 1.6789551 0.3404541 2.284912 0.9464569c0.60601807 0.60601807 0.94647217 1.427948 0.94647217 2.2849731l0 21.390106c0 1.784668 -1.4467163 3.23143 -3.2313843 3.23143l-12.925354 0c-1.784668 0 -3.2314453 -1.4467621 -3.2314453 -3.23143z" fill-rule="evenodd"/><path fill="#efefef" d="m619.34216 207.45251l12.478088 0l0 4.809143l-12.478088 0z" fill-rule="evenodd"/><path fill="#000000" fill-opacity="0.0" d="m620.93036 207.43396l0 3.2951508" fill-rule="evenodd"/><path stroke="#bf9000" stroke-width="1.0" stroke-linejoin="round" stroke-linecap="butt" d="m620.93036 207.43396l0 3.2951508" fill-rule="evenodd"/><path fill="#000000" fill-opacity="0.0" d="m623.0787 207.43396l0 4.2747955" fill-rule="evenodd"/><path stroke="#bf9000" stroke-width="1.0" stroke-linejoin="round" stroke-linecap="butt" d="m623.0787 207.43396l0 4.2747955" fill-rule="evenodd"/><path fill="#000000" fill-opacity="0.0" d="m625.227 207.43396l0 2.894394" fill-rule="evenodd"/><path stroke="#bf9000" stroke-width="1.0" stroke-linejoin="round" stroke-linecap="butt" d="m625.227 207.43396l0 2.894394" fill-rule="evenodd"/><path fill="#000000" fill-opacity="0.0" d="m627.3753 207.43396l0 3.8963013" fill-rule="evenodd"/><path stroke="#bf9000" stroke-width="1.0" stroke-linejoin="round" stroke-linecap="butt" d="m627.3753 207.43396l0 3.8963013" fill-rule="evenodd"/><path fill="#000000" fill-opacity="0.0" d="m629.5236 207.43396l0 3.0057068" fill-rule="evenodd"/><path stroke="#bf9000" stroke-width="1.0" stroke-linejoin="round" stroke-linecap="butt" d="m629.5236 207.43396l0 3.0057068" fill-rule="evenodd"/><path fill="#000000" fill-opacity="0.0" d="m54.666668 20.094488l158.99213 0l0 12.913385l-158.99213 0z" fill-rule="evenodd"/><path fill="#000000" d="m55.151043 27.881363l0.953125 -0.078125q0.0625 0.5625 0.3125 0.9375q0.25 0.359375 0.765625 0.59375q0.515625 0.21875 1.171875 0.21875q0.578125 0 1.015625 -0.171875q0.4375 -0.171875 0.65625 -0.46875q0.21875 -0.296875 0.21875 -0.65625q0 -0.359375 -0.21875 -0.625q-0.203125 -0.265625 -0.671875 -0.4375q-0.3125 -0.125 -1.359375 -0.375q-1.046875 -0.25 -1.46875 -0.484375q-0.546875 -0.28125 -0.828125 -0.703125q-0.265625 -0.421875 -0.265625 -0.953125q0 -0.578125 0.328125 -1.078125q0.328125 -0.5 0.953125 -0.765625q0.640625 -0.265625 1.40625 -0.265625q0.84375 0 1.484375 0.28125q0.65625 0.265625 1.0 0.796875q0.359375 0.53125 0.390625 1.203125l-0.96875 0.078125q-0.078125 -0.71875 -0.53125 -1.09375q-0.453125 -0.375 -1.328125 -0.375q-0.921875 0 -1.34375 0.34375q-0.40625 0.328125 -0.40625 0.8125q0 0.40625 0.296875 0.671875q0.28125 0.265625 1.515625 0.546875q1.234375 0.28125 1.6875 0.484375q0.671875 0.3125 0.984375 0.78125q0.3125 0.46875 0.3125 1.078125q0 0.609375 -0.34375 1.15625q-0.34375 0.53125 -1.0 0.828125q-0.65625 0.296875 -1.46875 0.296875q-1.046875 0 -1.75 -0.296875q-0.6875 -0.296875 -1.09375 -0.90625q-0.390625 -0.609375 -0.40625 -1.375zm9.373257 1.609375l0.125 0.828125q-0.390625 0.09375 -0.7031212 0.09375q-0.5 0 -0.78125 -0.15625q-0.28125 -0.171875 -0.40625 -0.4375q-0.109375 -0.265625 -0.109375 -1.109375l0 -3.171875l-0.6875 0l0 -0.734375l0.6875 0l0 -1.359375l0.9375 -0.5625l0 1.921875l0.9374962 0l0 0.734375l-0.9374962 0l0 3.234375q0 0.390625 0.046875 0.515625q0.046875 0.109375 0.15625 0.1875q0.109375 0.0625 0.3281212 0.0625q0.15625 0 0.40625 -0.046875zm0.5700226 -1.921875q0 -1.53125 0.84375 -2.265625q0.71875 -0.625 1.734375 -0.625q1.140625 0 1.859375 0.75q0.734375 0.75 0.734375 2.0625q0 1.0625 -0.328125 1.6875q-0.3125 0.609375 -0.921875 0.953125q-0.609375 0.328125 -1.34375 0.328125q-1.15625 0 -1.875 -0.734375q-0.703125 -0.75 -0.703125 -2.15625zm0.953125 0q0 1.0625 0.46875 1.59375q0.46875 0.53125 1.15625 0.53125q0.703125 0 1.15625 -0.53125q0.46875 -0.53125 0.46875 -1.625q0 -1.015625 -0.46875 -1.546875q-0.453125 -0.53125 -1.15625 -0.53125q-0.6875 0 -1.15625 0.53125q-0.46875 0.515625 -0.46875 1.578125zm5.3014984 2.765625l0 -5.53125l0.84375 0l0 0.84375q0.328125 -0.59375 0.59375 -0.78125q0.28125 -0.1875 0.609375 -0.1875q0.46875 0 0.953125 0.3125l-0.3125 0.859375q-0.34375 -0.203125 -0.6875 -0.203125q-0.3125 0 -0.5625 0.1875q-0.234375 0.1875 -0.34375 0.515625q-0.15625 0.5 -0.15625 1.09375l0 2.890625l-0.9375 0zm7.1736145 -0.6875q-0.53125 0.453125 -1.015625 0.640625q-0.46875 0.171875 -1.015625 0.171875q-0.921875 0 -1.40625 -0.4375q-0.484375 -0.453125 -0.484375 -1.140625q0 -0.40625 0.171875 -0.734375q0.1875 -0.34375 0.484375 -0.546875q0.3125 -0.203125 0.6875 -0.3125q0.265625 -0.0625 0.828125 -0.140625q1.125 -0.125 1.671875 -0.3125q0 -0.203125 0 -0.25q0 -0.578125 -0.265625 -0.8125q-0.359375 -0.3125 -1.0625 -0.3125q-0.65625 0 -0.984375 0.234375q-0.3125 0.234375 -0.453125 0.8125l-0.921875 -0.125q0.125 -0.578125 0.40625 -0.9375q0.296875 -0.375 0.828125 -0.5625q0.546875 -0.203125 1.25 -0.203125q0.71875 0 1.15625 0.171875q0.4375 0.171875 0.640625 0.421875q0.21875 0.25 0.296875 0.640625q0.046875 0.234375 0.046875 0.859375l0 1.25q0 1.296875 0.0625 1.65625q0.0625 0.34375 0.234375 0.65625l-0.96875 0q-0.15625 -0.296875 -0.1875 -0.6875zm-0.078125 -2.078125q-0.515625 0.203125 -1.53125 0.34375q-0.578125 0.078125 -0.828125 0.1875q-0.234375 0.109375 -0.359375 0.3125q-0.125 0.1875 -0.125 0.4375q0 0.375 0.28125 0.625q0.28125 0.25 0.828125 0.25q0.53125 0 0.953125 -0.234375q0.421875 -0.234375 0.625 -0.65625q0.15625 -0.3125 0.15625 -0.9375l0 -0.328125zm2.2233734 3.21875l0.90625 0.140625q0.0625 0.421875 0.328125 0.609375q0.34375 0.265625 0.9375 0.265625q0.65625 0 1.0 -0.265625q0.359375 -0.25 0.484375 -0.71875q0.078125 -0.296875 0.078125 -1.203125q-0.625 0.71875 -1.53125 0.71875q-1.140625 0 -1.765625 -0.8125q-0.625 -0.828125 -0.625 -1.984375q0 -0.78125 0.28125 -1.453125q0.296875 -0.671875 0.828125 -1.03125q0.546875 -0.375 1.28125 -0.375q0.984375 0 1.609375 0.796875l0 -0.671875l0.875 0l0 4.78125q0 1.296875 -0.265625 1.828125q-0.265625 0.546875 -0.84375 0.859375q-0.5625 0.3125 -1.390625 0.3125q-0.984375 0 -1.59375 -0.453125q-0.609375 -0.4375 -0.59375 -1.34375zm0.78125 -3.3125q0 1.078125 0.421875 1.578125q0.4375 0.5 1.078125 0.5q0.65625 0 1.09375 -0.484375q0.4375 -0.5 0.4375 -1.5625q0 -1.015625 -0.453125 -1.53125q-0.453125 -0.515625 -1.09375 -0.515625q-0.609375 0 -1.046875 0.515625q-0.4375 0.5 -0.4375 1.5zm9.098373 1.078125l0.96875 0.125q-0.234375 0.84375 -0.859375 1.3125q-0.609375 0.46875 -1.578125 0.46875q-1.203125 0 -1.921875 -0.75q-0.703125 -0.75 -0.703125 -2.09375q0 -1.390625 0.71875 -2.15625q0.71875 -0.78125 1.859375 -0.78125q1.109375 0 1.8125 0.765625q0.703125 0.75 0.703125 2.125q0 0.078125 0 0.234375l-4.125 0q0.046875 0.921875 0.515625 1.40625q0.46875 0.484375 1.15625 0.484375q0.515625 0 0.875 -0.265625q0.359375 -0.28125 0.578125 -0.875zm-3.078125 -1.515625l3.09375 0q-0.0625 -0.6875 -0.359375 -1.046875q-0.453125 -0.53125 -1.15625 -0.53125q-0.640625 0 -1.09375 0.4375q-0.4375 0.421875 -0.484375 1.140625zm9.980896 5.546875q-0.78125 -0.984375 -1.328125 -2.296875q-0.53125 -1.3125 -0.53125 -2.71875q0 -1.234375 0.40625 -2.375q0.46875 -1.3125 1.453125 -2.625l0.65625 0q-0.625 1.09375 -0.828125 1.546875q-0.3125 0.71875 -0.5 1.5q-0.21875 0.984375 -0.21875 1.96875q0 2.5 1.546875 5.0l-0.65625 0zm1.9079895 -2.25l0 -7.625l1.0 0l0 3.125l3.96875 0l0 -3.125l1.015625 0l0 7.625l-1.015625 0l0 -3.59375l-3.96875 0l0 3.59375l-1.0 0zm7.6643524 0l0 -7.625l2.625 0q0.890625 0 1.359375 0.109375q0.65625 0.140625 1.109375 0.546875q0.609375 0.5 0.90625 1.296875q0.296875 0.796875 0.296875 1.8125q0 0.875 -0.203125 1.546875q-0.203125 0.671875 -0.515625 1.109375q-0.3125 0.4375 -0.703125 0.6875q-0.375 0.25 -0.90625 0.390625q-0.53125 0.125 -1.21875 0.125l-2.75 0zm1.0 -0.90625l1.625 0q0.765625 0 1.1875 -0.140625q0.4375 -0.140625 0.6875 -0.390625q0.359375 -0.359375 0.5625 -0.953125q0.203125 -0.609375 0.203125 -1.484375q0 -1.1875 -0.40625 -1.828125q-0.390625 -0.65625 -0.953125 -0.875q-0.40625 -0.15625 -1.296875 -0.15625l-1.609375 0l0 5.828125zm6.6956024 0.90625l0 -7.625l2.625 0q0.890625 0 1.359375 0.109375q0.65625 0.140625 1.109375 0.546875q0.609375 0.5 0.90625 1.296875q0.296875 0.796875 0.296875 1.8125q0 0.875 -0.203125 1.546875q-0.203125 0.671875 -0.515625 1.109375q-0.3125 0.4375 -0.703125 0.6875q-0.375 0.25 -0.90625 0.390625q-0.53125 0.125 -1.21875 0.125l-2.75 0zm1.0 -0.90625l1.625 0q0.765625 0 1.1875 -0.140625q0.4375 -0.140625 0.6875 -0.390625q0.359375 -0.359375 0.5625 -0.953125q0.203125 -0.609375 0.203125 -1.484375q0 -1.1875 -0.40625 -1.828125q-0.390625 -0.65625 -0.953125 -0.875q-0.40625 -0.15625 -1.296875 -0.15625l-1.609375 0l0 5.828125zm6.8206024 0.90625l0 -1.0625l1.0625 0l0 1.0625q0 0.59375 -0.21875 0.953125q-0.203125 0.359375 -0.65625 0.5625l-0.25 -0.40625q0.296875 -0.125 0.4375 -0.390625q0.140625 -0.25 0.15625 -0.71875l-0.53125 0zm5.452545 -2.453125l0.9531326 -0.078125q0.0625 0.5625 0.3125 0.9375q0.25 0.359375 0.765625 0.59375q0.515625 0.21875 1.171875 0.21875q0.578125 0 1.015625 -0.171875q0.4375 -0.171875 0.65625 -0.46875q0.21875 -0.296875 0.21875 -0.65625q0 -0.359375 -0.21875 -0.625q-0.203125 -0.265625 -0.671875 -0.4375q-0.3125 -0.125 -1.359375 -0.375q-1.046875 -0.25 -1.46875 -0.484375q-0.546875 -0.28125 -0.828125 -0.703125q-0.265625 -0.421875 -0.265625 -0.953125q0 -0.578125 0.328125 -1.078125q0.328125 -0.5 0.953125 -0.765625q0.640625 -0.265625 1.40625 -0.265625q0.84375 0 1.484375 0.28125q0.65625 0.265625 1.0 0.796875q0.359375 0.53125 0.390625 1.203125l-0.96875 0.078125q-0.078125 -0.71875 -0.53125 -1.09375q-0.453125 -0.375 -1.328125 -0.375q-0.921875 0 -1.34375 0.34375q-0.40625 0.328125 -0.40625 0.8125q0 0.40625 0.296875 0.671875q0.28125 0.265625 1.515625 0.546875q1.234375 0.28125 1.6875 0.484375q0.671875 0.3125 0.984375 0.78125q0.3125 0.46875 0.3125 1.078125q0 0.609375 -0.34375 1.15625q-0.34375 0.53125 -1.0 0.828125q-0.65625 0.296875 -1.46875 0.296875q-1.046875 0 -1.75 -0.296875q-0.6875 -0.296875 -1.09375 -0.90625q-0.390625 -0.609375 -0.40625763 -1.375zm7.107643 0l0.953125 -0.078125q0.0625 0.5625 0.3125 0.9375q0.25 0.359375 0.765625 0.59375q0.515625 0.21875 1.171875 0.21875q0.578125 0 1.015625 -0.171875q0.4375 -0.171875 0.65625 -0.46875q0.21875 -0.296875 0.21875 -0.65625q0 -0.359375 -0.21875 -0.625q-0.203125 -0.265625 -0.671875 -0.4375q-0.3125 -0.125 -1.359375 -0.375q-1.046875 -0.25 -1.46875 -0.484375q-0.546875 -0.28125 -0.828125 -0.703125q-0.265625 -0.421875 -0.265625 -0.953125q0 -0.578125 0.328125 -1.078125q0.328125 -0.5 0.953125 -0.765625q0.640625 -0.265625 1.40625 -0.265625q0.84375 0 1.484375 0.28125q0.65625 0.265625 1.0 0.796875q0.359375 0.53125 0.390625 1.203125l-0.96875 0.078125q-0.078125 -0.71875 -0.53125 -1.09375q-0.453125 -0.375 -1.328125 -0.375q-0.921875 0 -1.34375 0.34375q-0.40625 0.328125 -0.40625 0.8125q0 0.40625 0.296875 0.671875q0.28125 0.265625 1.515625 0.546875q1.234375 0.28125 1.6875 0.484375q0.671875 0.3125 0.984375 0.78125q0.3125 0.46875 0.3125 1.078125q0 0.609375 -0.34375 1.15625q-0.34375 0.53125 -1.0 0.828125q-0.65625 0.296875 -1.46875 0.296875q-1.046875 0 -1.75 -0.296875q-0.6875 -0.296875 -1.09375 -0.90625q-0.390625 -0.609375 -0.40625 -1.375zm7.4513855 2.453125l0 -7.625l2.625 0q0.890625 0 1.359375 0.109375q0.65625 0.140625 1.109375 0.546875q0.609375 0.5 0.90625 1.296875q0.296875 0.796875 0.296875 1.8125q0 0.875 -0.203125 1.546875q-0.203125 0.671875 -0.515625 1.109375q-0.3125 0.4375 -0.703125 0.6875q-0.375 0.25 -0.90625 0.390625q-0.53125 0.125 -1.21875 0.125l-2.75 0zm1.0 -0.90625l1.625 0q0.765625 0 1.1875 -0.140625q0.4375 -0.140625 0.6875 -0.390625q0.359375 -0.359375 0.5625 -0.953125q0.203125 -0.609375 0.203125 -1.484375q0 -1.1875 -0.40625 -1.828125q-0.390625 -0.65625 -0.953125 -0.875q-0.40625 -0.15625 -1.296875 -0.15625l-1.609375 0l0 5.828125zm6.8206024 0.90625l0 -1.0625l1.0625 0l0 1.0625q0 0.59375 -0.21875 0.953125q-0.203125 0.359375 -0.65625 0.5625l-0.25 -0.40625q0.296875 -0.125 0.4375 -0.390625q0.140625 -0.25 0.15625 -0.71875l-0.53125 0zm5.78067 0l0 -7.625l1.03125 0l4.015625 5.984375l0 -5.984375l0.96875 0l0 7.625l-1.046875 0l-4.0 -6.0l0 6.0l-0.96875 0zm9.883102 0l-2.953125 -7.625l1.09375 0l1.984375 5.53125q0.234375 0.671875 0.390625 1.25q0.1875 -0.625 0.421875 -1.25l2.0625 -5.53125l1.03125 0l-3.0 7.625l-1.03125 0zm4.9045105 0l0 -7.625l1.515625 0l1.796875 5.390625q0.25 0.765625 0.375 1.140625q0.125 -0.421875 0.40625 -1.234375l1.828125 -5.296875l1.34375 0l0 7.625l-0.96875 0l0 -6.390625l-2.21875 6.390625l-0.90625 0l-2.203125 -6.5l0 6.5l-0.96875 0zm12.5642395 -1.78125l0.96875 0.125q-0.234375 0.84375 -0.859375 1.3125q-0.609375 0.46875 -1.578125 0.46875q-1.203125 0 -1.921875 -0.75q-0.703125 -0.75 -0.703125 -2.09375q0 -1.390625 0.71875 -2.15625q0.71875 -0.78125 1.859375 -0.78125q1.109375 0 1.8125 0.765625q0.703125 0.75 0.703125 2.125q0 0.078125 0 0.234375l-4.125 0q0.046875 0.921875 0.515625 1.40625q0.46875 0.484375 1.15625 0.484375q0.515625 0 0.875 -0.265625q0.359375 -0.28125 0.578125 -0.875zm-3.078125 -1.515625l3.09375 0q-0.0625 -0.6875 -0.359375 -1.046875q-0.453125 -0.53125 -1.15625 -0.53125q-0.640625 0 -1.09375 0.4375q-0.4375 0.421875 -0.484375 1.140625zm5.8327484 5.546875l-0.671875 0q1.5625 -2.5 1.5625 -5.0q0 -0.984375 -0.21875 -1.953125q-0.1875 -0.78125 -0.5 -1.5q-0.203125 -0.46875 -0.84375 -1.5625l0.671875 0q0.984375 1.3125 1.453125 2.625q0.390625 1.140625 0.390625 2.375q0 1.40625 -0.53125 2.71875q-0.53125 1.3125 -1.3125 2.296875z" fill-rule="nonzero"/><path fill="#f3f3f3" d="m170.00528 210.35612l0 0c0 -1.784668 1.4467621 -3.23143 3.2314453 -3.23143l12.925339 0l0 0c0.8570404 0 1.6789703 0.3404541 2.2849731 0.9464569c0.60601807 0.60601807 0.94647217 1.427948 0.94647217 2.2849731l0 21.390106c0 1.784668 -1.4467621 3.23143 -3.2314453 3.23143l-12.925339 0c-1.7846832 0 -3.2314453 -1.4467621 -3.2314453 -3.23143z" fill-rule="evenodd"/><path stroke="#c72e49" stroke-width="1.0" stroke-linejoin="round" stroke-linecap="butt" d="m170.00528 210.35612l0 0c0 -1.784668 1.4467621 -3.23143 3.2314453 -3.23143l12.925339 0l0 0c0.8570404 0 1.6789703 0.3404541 2.2849731 0.9464569c0.60601807 0.60601807 0.94647217 1.427948 0.94647217 2.2849731l0 21.390106c0 1.784668 -1.4467621 3.23143 -3.2314453 3.23143l-12.925339 0c-1.7846832 0 -3.2314453 -1.4467621 -3.2314453 -3.23143z" fill-rule="evenodd"/><path fill="#efefef" d="m173.81458 207.45251l12.478058 0l0 4.809143l-12.478058 0z" fill-rule="evenodd"/><path fill="#000000" fill-opacity="0.0" d="m175.40274 207.43396l0 3.2951508" fill-rule="evenodd"/><path stroke="#bf9000" stroke-width="1.0" stroke-linejoin="round" stroke-linecap="butt" d="m175.40274 207.43396l0 3.2951508" fill-rule="evenodd"/><path fill="#000000" fill-opacity="0.0" d="m177.55107 207.43396l0 4.2747955" fill-rule="evenodd"/><path stroke="#bf9000" stroke-width="1.0" stroke-linejoin="round" stroke-linecap="butt" d="m177.55107 207.43396l0 4.2747955" fill-rule="evenodd"/><path fill="#000000" fill-opacity="0.0" d="m179.6994 207.43396l0 2.894394" fill-rule="evenodd"/><path stroke="#bf9000" stroke-width="1.0" stroke-linejoin="round" stroke-linecap="butt" d="m179.6994 207.43396l0 2.894394" fill-rule="evenodd"/><path fill="#000000" fill-opacity="0.0" d="m181.84772 207.43396l0 3.8963013" fill-rule="evenodd"/><path stroke="#bf9000" stroke-width="1.0" stroke-linejoin="round" stroke-linecap="butt" d="m181.84772 207.43396l0 3.8963013" fill-rule="evenodd"/><path fill="#000000" fill-opacity="0.0" d="m183.99605 207.43396l0 3.0057068" fill-rule="evenodd"/><path stroke="#bf9000" stroke-width="1.0" stroke-linejoin="round" stroke-linecap="butt" d="m183.99605 207.43396l0 3.0057068" fill-rule="evenodd"/><path fill="#f3f3f3" d="m210.50659 210.35612l0 0c0 -1.784668 1.4467621 -3.23143 3.23143 -3.23143l12.925354 0l0 0c0.85702515 0 1.6789551 0.3404541 2.2849731 0.9464569c0.6060028 0.60601807 0.9464569 1.427948 0.9464569 2.2849731l0 21.390106c0 1.784668 -1.4467621 3.23143 -3.23143 3.23143l-12.925354 0c-1.784668 0 -3.23143 -1.4467621 -3.23143 -3.23143z" fill-rule="evenodd"/><path stroke="#c72e49" stroke-width="1.0" stroke-linejoin="round" stroke-linecap="butt" d="m210.50659 210.35612l0 0c0 -1.784668 1.4467621 -3.23143 3.23143 -3.23143l12.925354 0l0 0c0.85702515 0 1.6789551 0.3404541 2.2849731 0.9464569c0.6060028 0.60601807 0.9464569 1.427948 0.9464569 2.2849731l0 21.390106c0 1.784668 -1.4467621 3.23143 -3.23143 3.23143l-12.925354 0c-1.784668 0 -3.23143 -1.4467621 -3.23143 -3.23143z" fill-rule="evenodd"/><path fill="#efefef" d="m214.31587 207.45251l12.478058 0l0 4.809143l-12.478058 0z" fill-rule="evenodd"/><path fill="#000000" fill-opacity="0.0" d="m215.90405 207.43396l0 3.2951508" fill-rule="evenodd"/><path stroke="#bf9000" stroke-width="1.0" stroke-linejoin="round" stroke-linecap="butt" d="m215.90405 207.43396l0 3.2951508" fill-rule="evenodd"/><path fill="#000000" fill-opacity="0.0" d="m218.05237 207.43396l0 4.2747955" fill-rule="evenodd"/><path stroke="#bf9000" stroke-width="1.0" stroke-linejoin="round" stroke-linecap="butt" d="m218.05237 207.43396l0 4.2747955" fill-rule="evenodd"/><path fill="#000000" fill-opacity="0.0" d="m220.2007 207.43396l0 2.894394" fill-rule="evenodd"/><path stroke="#bf9000" stroke-width="1.0" stroke-linejoin="round" stroke-linecap="butt" d="m220.2007 207.43396l0 2.894394" fill-rule="evenodd"/><path fill="#000000" fill-opacity="0.0" d="m222.34901 207.43396l0 3.8963013" fill-rule="evenodd"/><path stroke="#bf9000" stroke-width="1.0" stroke-linejoin="round" stroke-linecap="butt" d="m222.34901 207.43396l0 3.8963013" fill-rule="evenodd"/><path fill="#000000" fill-opacity="0.0" d="m224.49734 207.43396l0 3.0057068" fill-rule="evenodd"/><path stroke="#bf9000" stroke-width="1.0" stroke-linejoin="round" stroke-linecap="butt" d="m224.49734 207.43396l0 3.0057068" fill-rule="evenodd"/><path fill="#f3f3f3" d="m291.51584 210.35612l0 0c0 -1.784668 1.4467468 -3.23143 3.2314148 -3.23143l12.925354 0l0 0c0.85702515 0 1.6789551 0.3404541 2.2849731 0.9464569c0.60601807 0.60601807 0.94647217 1.427948 0.94647217 2.2849731l0 21.390106c0 1.784668 -1.4467773 3.23143 -3.2314453 3.23143l-12.925354 0c-1.784668 0 -3.2314148 -1.4467621 -3.2314148 -3.23143z" fill-rule="evenodd"/><path stroke="#c72e49" stroke-width="1.0" stroke-linejoin="round" stroke-linecap="butt" d="m291.51584 210.35612l0 0c0 -1.784668 1.4467468 -3.23143 3.2314148 -3.23143l12.925354 0l0 0c0.85702515 0 1.6789551 0.3404541 2.2849731 0.9464569c0.60601807 0.60601807 0.94647217 1.427948 0.94647217 2.2849731l0 21.390106c0 1.784668 -1.4467773 3.23143 -3.2314453 3.23143l-12.925354 0c-1.784668 0 -3.2314148 -1.4467621 -3.2314148 -3.23143z" fill-rule="evenodd"/><path fill="#efefef" d="m295.3251 207.45251l12.478058 0l0 4.809143l-12.478058 0z" fill-rule="evenodd"/><path fill="#000000" fill-opacity="0.0" d="m296.9133 207.43396l0 3.2951508" fill-rule="evenodd"/><path stroke="#bf9000" stroke-width="1.0" stroke-linejoin="round" stroke-linecap="butt" d="m296.9133 207.43396l0 3.2951508" fill-rule="evenodd"/><path fill="#000000" fill-opacity="0.0" d="m299.0616 207.43396l0 4.2747955" fill-rule="evenodd"/><path stroke="#bf9000" stroke-width="1.0" stroke-linejoin="round" stroke-linecap="butt" d="m299.0616 207.43396l0 4.2747955" fill-rule="evenodd"/><path fill="#000000" fill-opacity="0.0" d="m301.20993 207.43396l0 2.894394" fill-rule="evenodd"/><path stroke="#bf9000" stroke-width="1.0" stroke-linejoin="round" stroke-linecap="butt" d="m301.20993 207.43396l0 2.894394" fill-rule="evenodd"/><path fill="#000000" fill-opacity="0.0" d="m303.35828 207.43396l0 3.8963013" fill-rule="evenodd"/><path stroke="#bf9000" stroke-width="1.0" stroke-linejoin="round" stroke-linecap="butt" d="m303.35828 207.43396l0 3.8963013" fill-rule="evenodd"/><path fill="#000000" fill-opacity="0.0" d="m305.5066 207.43396l0 3.0057068" fill-rule="evenodd"/><path stroke="#bf9000" stroke-width="1.0" stroke-linejoin="round" stroke-linecap="butt" d="m305.5066 207.43396l0 3.0057068" fill-rule="evenodd"/><path fill="#f3f3f3" d="m332.01712 210.35612l0 0c0 -1.784668 1.4467773 -3.23143 3.2314453 -3.23143l12.925354 0l0 0c0.85702515 0 1.6789551 0.3404541 2.2849731 0.9464569c0.60601807 0.60601807 0.94647217 1.427948 0.94647217 2.2849731l0 21.390106c0 1.784668 -1.4467773 3.23143 -3.2314453 3.23143l-12.925354 0c-1.784668 0 -3.2314453 -1.4467621 -3.2314453 -3.23143z" fill-rule="evenodd"/><path stroke="#c72e49" stroke-width="1.0" stroke-linejoin="round" stroke-linecap="butt" d="m332.01712 210.35612l0 0c0 -1.784668 1.4467773 -3.23143 3.2314453 -3.23143l12.925354 0l0 0c0.85702515 0 1.6789551 0.3404541 2.2849731 0.9464569c0.60601807 0.60601807 0.94647217 1.427948 0.94647217 2.2849731l0 21.390106c0 1.784668 -1.4467773 3.23143 -3.2314453 3.23143l-12.925354 0c-1.784668 0 -3.2314453 -1.4467621 -3.2314453 -3.23143z" fill-rule="evenodd"/><path fill="#efefef" d="m335.82642 207.45251l12.478058 0l0 4.809143l-12.478058 0z" fill-rule="evenodd"/><path fill="#000000" fill-opacity="0.0" d="m337.41458 207.43396l0 3.2951508" fill-rule="evenodd"/><path stroke="#bf9000" stroke-width="1.0" stroke-linejoin="round" stroke-linecap="butt" d="m337.41458 207.43396l0 3.2951508" fill-rule="evenodd"/><path fill="#000000" fill-opacity="0.0" d="m339.56293 207.43396l0 4.2747955" fill-rule="evenodd"/><path stroke="#bf9000" stroke-width="1.0" stroke-linejoin="round" stroke-linecap="butt" d="m339.56293 207.43396l0 4.2747955" fill-rule="evenodd"/><path fill="#000000" fill-opacity="0.0" d="m341.71124 207.43396l0 2.894394" fill-rule="evenodd"/><path stroke="#bf9000" stroke-width="1.0" stroke-linejoin="round" stroke-linecap="butt" d="m341.71124 207.43396l0 2.894394" fill-rule="evenodd"/><path fill="#000000" fill-opacity="0.0" d="m343.85956 207.43396l0 3.8963013" fill-rule="evenodd"/><path stroke="#bf9000" stroke-width="1.0" stroke-linejoin="round" stroke-linecap="butt" d="m343.85956 207.43396l0 3.8963013" fill-rule="evenodd"/><path fill="#000000" fill-opacity="0.0" d="m346.00787 207.43396l0 3.0057068" fill-rule="evenodd"/><path stroke="#bf9000" stroke-width="1.0" stroke-linejoin="round" stroke-linecap="butt" d="m346.00787 207.43396l0 3.0057068" fill-rule="evenodd"/><path fill="#f3f3f3" d="m372.51843 210.35612l0 0c0 -1.784668 1.4467468 -3.23143 3.2314453 -3.23143l12.925354 0l0 0c0.85702515 0 1.6789551 0.3404541 2.2849426 0.9464569c0.60601807 0.60601807 0.94647217 1.427948 0.94647217 2.2849731l0 21.390106c0 1.784668 -1.4467468 3.23143 -3.2314148 3.23143l-12.925354 0c-1.7846985 0 -3.2314453 -1.4467621 -3.2314453 -3.23143z" fill-rule="evenodd"/><path stroke="#c72e49" stroke-width="1.0" stroke-linejoin="round" stroke-linecap="butt" d="m372.51843 210.35612l0 0c0 -1.784668 1.4467468 -3.23143 3.2314453 -3.23143l12.925354 0l0 0c0.85702515 0 1.6789551 0.3404541 2.2849426 0.9464569c0.60601807 0.60601807 0.94647217 1.427948 0.94647217 2.2849731l0 21.390106c0 1.784668 -1.4467468 3.23143 -3.2314148 3.23143l-12.925354 0c-1.7846985 0 -3.2314453 -1.4467621 -3.2314453 -3.23143z" fill-rule="evenodd"/><path fill="#efefef" d="m376.32773 207.45251l12.478058 0l0 4.809143l-12.478058 0z" fill-rule="evenodd"/><path fill="#000000" fill-opacity="0.0" d="m377.9159 207.43396l0 3.2951508" fill-rule="evenodd"/><path stroke="#bf9000" stroke-width="1.0" stroke-linejoin="round" stroke-linecap="butt" d="m377.9159 207.43396l0 3.2951508" fill-rule="evenodd"/><path fill="#000000" fill-opacity="0.0" d="m380.0642 207.43396l0 4.2747955" fill-rule="evenodd"/><path stroke="#bf9000" stroke-width="1.0" stroke-linejoin="round" stroke-linecap="butt" d="m380.0642 207.43396l0 4.2747955" fill-rule="evenodd"/><path fill="#000000" fill-opacity="0.0" d="m382.21255 207.43396l0 2.894394" fill-rule="evenodd"/><path stroke="#bf9000" stroke-width="1.0" stroke-linejoin="round" stroke-linecap="butt" d="m382.21255 207.43396l0 2.894394" fill-rule="evenodd"/><path fill="#000000" fill-opacity="0.0" d="m384.36087 207.43396l0 3.8963013" fill-rule="evenodd"/><path stroke="#bf9000" stroke-width="1.0" stroke-linejoin="round" stroke-linecap="butt" d="m384.36087 207.43396l0 3.8963013" fill-rule="evenodd"/><path fill="#000000" fill-opacity="0.0" d="m386.5092 207.43396l0 3.0057068" fill-rule="evenodd"/><path stroke="#bf9000" stroke-width="1.0" stroke-linejoin="round" stroke-linecap="butt" d="m386.5092 207.43396l0 3.0057068" fill-rule="evenodd"/><path fill="#f3f3f3" d="m453.52768 210.35612l0 0c0 -1.784668 1.4467468 -3.23143 3.2314148 -3.23143l12.925354 0l0 0c0.85702515 0 1.6789551 0.3404541 2.2849731 0.9464569c0.60601807 0.60601807 0.94647217 1.427948 0.94647217 2.2849731l0 21.390106c0 1.784668 -1.4467773 3.23143 -3.2314453 3.23143l-12.925354 0c-1.784668 0 -3.2314148 -1.4467621 -3.2314148 -3.23143z" fill-rule="evenodd"/><path stroke="#c72e49" stroke-width="1.0" stroke-linejoin="round" stroke-linecap="butt" d="m453.52768 210.35612l0 0c0 -1.784668 1.4467468 -3.23143 3.2314148 -3.23143l12.925354 0l0 0c0.85702515 0 1.6789551 0.3404541 2.2849731 0.9464569c0.60601807 0.60601807 0.94647217 1.427948 0.94647217 2.2849731l0 21.390106c0 1.784668 -1.4467773 3.23143 -3.2314453 3.23143l-12.925354 0c-1.784668 0 -3.2314148 -1.4467621 -3.2314148 -3.23143z" fill-rule="evenodd"/><path fill="#efefef" d="m457.33698 207.45251l12.478058 0l0 4.809143l-12.478058 0z" fill-rule="evenodd"/><path fill="#000000" fill-opacity="0.0" d="m458.92514 207.43396l0 3.2951508" fill-rule="evenodd"/><path stroke="#bf9000" stroke-width="1.0" stroke-linejoin="round" stroke-linecap="butt" d="m458.92514 207.43396l0 3.2951508" fill-rule="evenodd"/><path fill="#000000" fill-opacity="0.0" d="m461.07346 207.43396l0 4.2747955" fill-rule="evenodd"/><path stroke="#bf9000" stroke-width="1.0" stroke-linejoin="round" stroke-linecap="butt" d="m461.07346 207.43396l0 4.2747955" fill-rule="evenodd"/><path fill="#000000" fill-opacity="0.0" d="m463.22177 207.43396l0 2.894394" fill-rule="evenodd"/><path stroke="#bf9000" stroke-width="1.0" stroke-linejoin="round" stroke-linecap="butt" d="m463.22177 207.43396l0 2.894394" fill-rule="evenodd"/><path fill="#000000" fill-opacity="0.0" d="m465.37012 207.43396l0 3.8963013" fill-rule="evenodd"/><path stroke="#bf9000" stroke-width="1.0" stroke-linejoin="round" stroke-linecap="butt" d="m465.37012 207.43396l0 3.8963013" fill-rule="evenodd"/><path fill="#000000" fill-opacity="0.0" d="m467.51843 207.43396l0 3.0057068" fill-rule="evenodd"/><path stroke="#bf9000" stroke-width="1.0" stroke-linejoin="round" stroke-linecap="butt" d="m467.51843 207.43396l0 3.0057068" fill-rule="evenodd"/><path fill="#f3f3f3" d="m413.52768 210.35612l0 0c0 -1.784668 1.4467468 -3.23143 3.2314148 -3.23143l12.925354 0l0 0c0.85702515 0 1.6789551 0.3404541 2.2849731 0.9464569c0.60601807 0.60601807 0.94647217 1.427948 0.94647217 2.2849731l0 21.390106c0 1.784668 -1.4467773 3.23143 -3.2314453 3.23143l-12.925354 0c-1.784668 0 -3.2314148 -1.4467621 -3.2314148 -3.23143z" fill-rule="evenodd"/><path stroke="#c72e49" stroke-width="1.0" stroke-linejoin="round" stroke-linecap="butt" d="m413.52768 210.35612l0 0c0 -1.784668 1.4467468 -3.23143 3.2314148 -3.23143l12.925354 0l0 0c0.85702515 0 1.6789551 0.3404541 2.2849731 0.9464569c0.60601807 0.60601807 0.94647217 1.427948 0.94647217 2.2849731l0 21.390106c0 1.784668 -1.4467773 3.23143 -3.2314453 3.23143l-12.925354 0c-1.784668 0 -3.2314148 -1.4467621 -3.2314148 -3.23143z" fill-rule="evenodd"/><path fill="#efefef" d="m417.33698 207.45251l12.478058 0l0 4.809143l-12.478058 0z" fill-rule="evenodd"/><path fill="#000000" fill-opacity="0.0" d="m418.92514 207.43396l0 3.2951508" fill-rule="evenodd"/><path stroke="#bf9000" stroke-width="1.0" stroke-linejoin="round" stroke-linecap="butt" d="m418.92514 207.43396l0 3.2951508" fill-rule="evenodd"/><path fill="#000000" fill-opacity="0.0" d="m421.07346 207.43396l0 4.2747955" fill-rule="evenodd"/><path stroke="#bf9000" stroke-width="1.0" stroke-linejoin="round" stroke-linecap="butt" d="m421.07346 207.43396l0 4.2747955" fill-rule="evenodd"/><path fill="#000000" fill-opacity="0.0" d="m423.22177 207.43396l0 2.894394" fill-rule="evenodd"/><path stroke="#bf9000" stroke-width="1.0" stroke-linejoin="round" stroke-linecap="butt" d="m423.22177 207.43396l0 2.894394" fill-rule="evenodd"/><path fill="#000000" fill-opacity="0.0" d="m425.37012 207.43396l0 3.8963013" fill-rule="evenodd"/><path stroke="#bf9000" stroke-width="1.0" stroke-linejoin="round" stroke-linecap="butt" d="m425.37012 207.43396l0 3.8963013" fill-rule="evenodd"/><path fill="#000000" fill-opacity="0.0" d="m427.51843 207.43396l0 3.0057068" fill-rule="evenodd"/><path stroke="#bf9000" stroke-width="1.0" stroke-linejoin="round" stroke-linecap="butt" d="m427.51843 207.43396l0 3.0057068" fill-rule="evenodd"/><path fill="#f3f3f3" d="m251.40448 210.35612l0 0c0 -1.784668 1.4467621 -3.23143 3.23143 -3.23143l12.925369 0l0 0c0.85702515 0 1.6789551 0.3404541 2.2849426 0.9464569c0.60601807 0.60601807 0.94647217 1.427948 0.94647217 2.2849731l0 21.390106c0 1.784668 -1.4467468 3.23143 -3.2314148 3.23143l-12.925369 0c-1.784668 0 -3.23143 -1.4467621 -3.23143 -3.23143z" fill-rule="evenodd"/><path stroke="#c72e49" stroke-width="1.0" stroke-linejoin="round" stroke-linecap="butt" d="m251.40448 210.35612l0 0c0 -1.784668 1.4467621 -3.23143 3.23143 -3.23143l12.925369 0l0 0c0.85702515 0 1.6789551 0.3404541 2.2849426 0.9464569c0.60601807 0.60601807 0.94647217 1.427948 0.94647217 2.2849731l0 21.390106c0 1.784668 -1.4467468 3.23143 -3.2314148 3.23143l-12.925369 0c-1.784668 0 -3.23143 -1.4467621 -3.23143 -3.23143z" fill-rule="evenodd"/><path fill="#efefef" d="m255.21378 207.45251l12.478058 0l0 4.809143l-12.478058 0z" fill-rule="evenodd"/><path fill="#000000" fill-opacity="0.0" d="m256.80194 207.43396l0 3.2951508" fill-rule="evenodd"/><path stroke="#bf9000" stroke-width="1.0" stroke-linejoin="round" stroke-linecap="butt" d="m256.80194 207.43396l0 3.2951508" fill-rule="evenodd"/><path fill="#000000" fill-opacity="0.0" d="m258.95026 207.43396l0 4.2747955" fill-rule="evenodd"/><path stroke="#bf9000" stroke-width="1.0" stroke-linejoin="round" stroke-linecap="butt" d="m258.95026 207.43396l0 4.2747955" fill-rule="evenodd"/><path fill="#000000" fill-opacity="0.0" d="m261.0986 207.43396l0 2.894394" fill-rule="evenodd"/><path stroke="#bf9000" stroke-width="1.0" stroke-linejoin="round" stroke-linecap="butt" d="m261.0986 207.43396l0 2.894394" fill-rule="evenodd"/><path fill="#000000" fill-opacity="0.0" d="m263.24692 207.43396l0 3.8963013" fill-rule="evenodd"/><path stroke="#bf9000" stroke-width="1.0" stroke-linejoin="round" stroke-linecap="butt" d="m263.24692 207.43396l0 3.8963013" fill-rule="evenodd"/><path fill="#000000" fill-opacity="0.0" d="m265.39523 207.43396l0 3.0057068" fill-rule="evenodd"/><path stroke="#bf9000" stroke-width="1.0" stroke-linejoin="round" stroke-linecap="butt" d="m265.39523 207.43396l0 3.0057068" fill-rule="evenodd"/><path fill="#f3f3f3" d="m218.14174 77.28071l0 0c0 -2.539688 2.0588226 -4.5985184 4.5985107 -4.5985184l198.70848 0c1.2196045 0 2.3892517 0.48448944 3.251648 1.346878c0.8623657 0.8623886 1.3468628 2.0320358 1.3468628 3.2516403l0 18.393517c0 2.5396957 -2.058838 4.5985184 -4.5985107 4.5985184l-198.70848 0c-2.539688 0 -4.5985107 -2.0588226 -4.5985107 -4.5985184z" fill-rule="evenodd"/><path stroke="#c72e49" stroke-width="2.0" stroke-linejoin="round" stroke-linecap="butt" d="m218.14174 77.28071l0 0c0 -2.539688 2.0588226 -4.5985184 4.5985107 -4.5985184l198.70848 0c1.2196045 0 2.3892517 0.48448944 3.251648 1.346878c0.8623657 0.8623886 1.3468628 2.0320358 1.3468628 3.2516403l0 18.393517c0 2.5396957 -2.058838 4.5985184 -4.5985107 4.5985184l-198.70848 0c-2.539688 0 -4.5985107 -2.0588226 -4.5985107 -4.5985184z" fill-rule="evenodd"/><path fill="#000000" d="m276.11218 91.277466l0 -9.546875l6.90625 0l0 1.125l-5.640625 0l0 2.921875l5.28125 0l0 1.125l-5.28125 0l0 3.25l5.859375 0l0 1.125l-7.125 0zm8.8897705 0l0 -9.546875l4.234375 0q1.265625 0 1.921875 0.265625q0.671875 0.25 1.0625 0.90625q0.40625 0.65625 0.40625 1.4375q0 1.015625 -0.65625 1.71875q-0.65625 0.6875 -2.03125 0.875q0.5 0.25 0.765625 0.484375q0.546875 0.5 1.046875 1.265625l1.65625 2.59375l-1.578125 0l-1.265625 -1.984375q-0.5625 -0.859375 -0.921875 -1.3125q-0.34375 -0.453125 -0.640625 -0.640625q-0.28125 -0.1875 -0.5625 -0.25q-0.21875 -0.046875 -0.703125 -0.046875l-1.46875 0l0 4.234375l-1.265625 0zm1.265625 -5.328125l2.71875 0q0.859375 0 1.34375 -0.171875q0.484375 -0.1875 0.734375 -0.578125q0.265625 -0.390625 0.265625 -0.859375q0 -0.671875 -0.5 -1.109375q-0.484375 -0.4375 -1.546875 -0.4375l-3.015625 0l0 3.15625zm7.2970276 5.328125l3.65625 -9.546875l1.359375 0l3.90625 9.546875l-1.4375 0l-1.109375 -2.890625l-3.984375 0l-1.046875 2.890625l-1.34375 0zm2.75 -3.921875l3.234375 0l-1.0 -2.640625q-0.453125 -1.203125 -0.671875 -1.96875q-0.1875 0.90625 -0.515625 1.8125l-1.046875 2.796875zm6.749115 0.859375l1.203125 -0.109375q0.078125 0.71875 0.390625 1.1875q0.3125 0.453125 0.953125 0.734375q0.65625 0.28125 1.46875 0.28125q0.71875 0 1.265625 -0.21875q0.5625 -0.21875 0.828125 -0.578125q0.265625 -0.375 0.265625 -0.828125q0 -0.453125 -0.265625 -0.78125q-0.25 -0.328125 -0.84375 -0.5625q-0.390625 -0.15625 -1.703125 -0.46875q-1.3125 -0.3125 -1.84375 -0.59375q-0.671875 -0.359375 -1.015625 -0.890625q-0.328125 -0.53125 -0.328125 -1.1875q0 -0.71875 0.40625 -1.34375q0.40625 -0.625 1.1875 -0.953125q0.796875 -0.328125 1.765625 -0.328125q1.046875 0 1.859375 0.34375q0.8125 0.34375 1.25 1.015625q0.4375 0.65625 0.46875 1.484375l-1.203125 0.09375q-0.109375 -0.90625 -0.671875 -1.359375q-0.5625 -0.46875 -1.65625 -0.46875q-1.140625 0 -1.671875 0.421875q-0.515625 0.421875 -0.515625 1.015625q0 0.515625 0.359375 0.84375q0.375 0.328125 1.90625 0.6875q1.546875 0.34375 2.109375 0.59375q0.84375 0.390625 1.234375 0.984375q0.390625 0.578125 0.390625 1.359375q0 0.75 -0.4375 1.4375q-0.421875 0.671875 -1.25 1.046875q-0.8125 0.359375 -1.828125 0.359375q-1.296875 0 -2.171875 -0.375q-0.875 -0.375 -1.375 -1.125q-0.5 -0.765625 -0.53125 -1.71875zm15.5772705 -6.484375l1.265625 0l0 5.515625q0 1.4375 -0.328125 2.296875q-0.3125 0.84375 -1.171875 1.375q-0.84375 0.515625 -2.21875 0.515625q-1.34375 0 -2.203125 -0.453125q-0.84375 -0.46875 -1.21875 -1.34375q-0.359375 -0.875 -0.359375 -2.390625l0 -5.515625l1.265625 0l0 5.515625q0 1.234375 0.21875 1.828125q0.234375 0.59375 0.796875 0.921875q0.5625 0.3125 1.390625 0.3125q1.390625 0 1.96875 -0.625q0.59375 -0.640625 0.59375 -2.4375l0 -5.515625zm3.3907776 9.546875l0 -9.546875l4.234375 0q1.265625 0 1.921875 0.265625q0.671875 0.25 1.0625 0.90625q0.40625 0.65625 0.40625 1.4375q0 1.015625 -0.65625 1.71875q-0.65625 0.6875 -2.03125 0.875q0.5 0.25 0.765625 0.484375q0.546875 0.5 1.046875 1.265625l1.65625 2.59375l-1.578125 0l-1.265625 -1.984375q-0.5625 -0.859375 -0.921875 -1.3125q-0.34375 -0.453125 -0.640625 -0.640625q-0.28125 -0.1875 -0.5625 -0.25q-0.21875 -0.046875 -0.703125 -0.046875l-1.46875 0l0 4.234375l-1.265625 0zm1.265625 -5.328125l2.71875 0q0.859375 0 1.34375 -0.171875q0.484375 -0.1875 0.734375 -0.578125q0.265625 -0.390625 0.265625 -0.859375q0 -0.671875 -0.5 -1.109375q-0.484375 -0.4375 -1.546875 -0.4375l-3.015625 0l0 3.15625zm8.359528 5.328125l0 -9.546875l6.90625 0l0 1.125l-5.640625 0l0 2.921875l5.28125 0l0 1.125l-5.28125 0l0 3.25l5.859375 0l0 1.125l-7.125 0zm12.139618 -3.0625l1.203125 -0.109375q0.078125 0.71875 0.390625 1.1875q0.3125 0.453125 0.953125 0.734375q0.65625 0.28125 1.46875 0.28125q0.71875 0 1.265625 -0.21875q0.5625 -0.21875 0.828125 -0.578125q0.265625 -0.375 0.265625 -0.828125q0 -0.453125 -0.265625 -0.78125q-0.25 -0.328125 -0.84375 -0.5625q-0.390625 -0.15625 -1.703125 -0.46875q-1.3125 -0.3125 -1.84375 -0.59375q-0.671875 -0.359375 -1.015625 -0.890625q-0.328125 -0.53125 -0.328125 -1.1875q0 -0.71875 0.40625 -1.34375q0.40625 -0.625 1.1875 -0.953125q0.796875 -0.328125 1.765625 -0.328125q1.046875 0 1.859375 0.34375q0.8125 0.34375 1.25 1.015625q0.4375 0.65625 0.46875 1.484375l-1.203125 0.09375q-0.109375 -0.90625 -0.671875 -1.359375q-0.5625 -0.46875 -1.65625 -0.46875q-1.140625 0 -1.671875 0.421875q-0.515625 0.421875 -0.515625 1.015625q0 0.515625 0.359375 0.84375q0.375 0.328125 1.90625 0.6875q1.546875 0.34375 2.109375 0.59375q0.84375 0.390625 1.234375 0.984375q0.390625 0.578125 0.390625 1.359375q0 0.75 -0.4375 1.4375q-0.421875 0.671875 -1.25 1.046875q-0.8125 0.359375 -1.828125 0.359375q-1.296875 0 -2.171875 -0.375q-0.875 -0.375 -1.375 -1.125q-0.5 -0.765625 -0.53125 -1.71875zm9.342865 3.0625l0 -9.546875l6.90625 0l0 1.125l-5.640625 0l0 2.921875l5.28125 0l0 1.125l-5.28125 0l0 3.25l5.859375 0l0 1.125l-7.125 0zm11.2960205 0l0 -8.421875l-3.140625 0l0 -1.125l7.5625 0l0 1.125l-3.15625 0l0 8.421875l-1.265625 0z" fill-rule="nonzero"/><path fill="#000000" fill-opacity="0.0" d="m240.45407 164.3937l0 21.529282l-60.409454 0l0 21.525833" fill-rule="evenodd"/><path stroke="#000000" stroke-width="1.0" stroke-linejoin="round" stroke-linecap="butt" d="m240.45407 164.3937l0 21.529282l-60.409454 0l0 21.525833" fill-rule="evenodd"/><path fill="#000000" fill-opacity="0.0" d="m240.45407 164.3937l0 21.529282l-19.905518 0l0 21.525833" fill-rule="evenodd"/><path stroke="#000000" stroke-width="1.0" stroke-linejoin="round" stroke-linecap="butt" d="m240.45407 164.3937l0 21.529282l-19.905518 0l0 21.525833" fill-rule="evenodd"/><path fill="#000000" fill-opacity="0.0" d="m240.45407 164.3937l0 21.529282l20.787384 0l0 21.525833" fill-rule="evenodd"/><path stroke="#000000" stroke-width="1.0" stroke-linejoin="round" stroke-linecap="butt" d="m240.45407 164.3937l0 21.529282l20.787384 0l0 21.525833" fill-rule="evenodd"/><path fill="#000000" fill-opacity="0.0" d="m240.45407 164.3937l0 21.529282l61.102356 0l0 21.525833" fill-rule="evenodd"/><path stroke="#000000" stroke-width="1.0" stroke-linejoin="round" stroke-linecap="butt" d="m240.45407 164.3937l0 21.529282l61.102356 0l0 21.525833" fill-rule="evenodd"/><path fill="#000000" fill-opacity="0.0" d="m402.45145 164.3937l0 21.529282l-60.37796 0l0 21.525833" fill-rule="evenodd"/><path stroke="#000000" stroke-width="1.0" stroke-linejoin="round" stroke-linecap="butt" d="m402.45145 164.3937l0 21.529282l-60.37796 0l0 21.525833" fill-rule="evenodd"/><path fill="#000000" fill-opacity="0.0" d="m402.45145 164.3937l0 21.529282l-19.748047 0l0 21.525833" fill-rule="evenodd"/><path stroke="#000000" stroke-width="1.0" stroke-linejoin="round" stroke-linecap="butt" d="m402.45145 164.3937l0 21.529282l-19.748047 0l0 21.525833" fill-rule="evenodd"/><path fill="#000000" fill-opacity="0.0" d="m402.45145 164.3937l0 21.529282l21.385834 0l0 21.525833" fill-rule="evenodd"/><path stroke="#000000" stroke-width="1.0" stroke-linejoin="round" stroke-linecap="butt" d="m402.45145 164.3937l0 21.529282l21.385834 0l0 21.525833" fill-rule="evenodd"/><path fill="#000000" fill-opacity="0.0" d="m402.45145 164.3937l0 21.529282l61.385834 0l0 21.525833" fill-rule="evenodd"/><path stroke="#000000" stroke-width="1.0" stroke-linejoin="round" stroke-linecap="butt" d="m402.45145 164.3937l0 21.529282l61.385834 0l0 21.525833" fill-rule="evenodd"/><path fill="#000000" fill-opacity="0.0" d="m564.4488 164.3937l0 21.529282l-60.37793 0l0 21.525833" fill-rule="evenodd"/><path stroke="#000000" stroke-width="1.0" stroke-linejoin="round" stroke-linecap="butt" d="m564.4488 164.3937l0 21.529282l-60.37793 0l0 21.525833" fill-rule="evenodd"/><path fill="#000000" fill-opacity="0.0" d="m564.4488 164.3937l0 21.529282l-19.873962 0l0 21.525833" fill-rule="evenodd"/><path stroke="#000000" stroke-width="1.0" stroke-linejoin="round" stroke-linecap="butt" d="m564.4488 164.3937l0 21.529282l-19.873962 0l0 21.525833" fill-rule="evenodd"/><path fill="#000000" fill-opacity="0.0" d="m564.4488 164.3937l0 21.529282l21.1969 0l0 21.525833" fill-rule="evenodd"/><path stroke="#000000" stroke-width="1.0" stroke-linejoin="round" stroke-linecap="butt" d="m564.4488 164.3937l0 21.529282l21.1969 0l0 21.525833" fill-rule="evenodd"/><path fill="#000000" fill-opacity="0.0" d="m564.4488 164.3937l0 21.529282l61.41736 0l0 21.525833" fill-rule="evenodd"/><path stroke="#000000" stroke-width="1.0" stroke-linejoin="round" stroke-linecap="butt" d="m564.4488 164.3937l0 21.529282l61.41736 0l0 21.525833" fill-rule="evenodd"/><path fill="#f4cccc" d="m169.99738 144.60376l0 0c0 -2.1859894 1.7720947 -3.958084 3.958084 -3.958084l132.99721 0c1.0497437 0 2.0565186 0.41700745 2.7987976 1.1592865c0.74227905 0.7422943 1.1593018 1.7490387 1.1593018 2.7987976l0 15.831863c0 2.1859894 -1.7720947 3.958084 -3.9580994 3.958084l-132.99721 0c-2.1859894 0 -3.958084 -1.7720947 -3.958084 -3.958084z" fill-rule="evenodd"/><path stroke="#e6b8af" stroke-width="4.0" stroke-linejoin="round" stroke-linecap="butt" d="m169.99738 144.60376l0 0c0 -2.1859894 1.7720947 -3.958084 3.958084 -3.958084l132.99721 0c1.0497437 0 2.0565186 0.41700745 2.7987976 1.1592865c0.74227905 0.7422943 1.1593018 1.7490387 1.1593018 2.7987976l0 15.831863c0 2.1859894 -1.7720947 3.958084 -3.9580994 3.958084l-132.99721 0c-2.1859894 0 -3.958084 -1.7720947 -3.958084 -3.958084z" fill-rule="evenodd"/><path fill="#00303f" d="m214.89424 159.43968l0 -13.359375l2.625 0l5.453125 8.921875l0 -8.921875l2.515625 0l0 13.359375l-2.703125 0l-5.390625 -8.703125l0 8.703125l-2.5 0zm12.894821 -6.59375q0 -2.046875 0.609375 -3.421875q0.453125 -1.03125 1.234375 -1.828125q0.796875 -0.8125 1.734375 -1.203125q1.25 -0.53125 2.875 -0.53125q2.953125 0 4.71875 1.828125q1.78125 1.828125 1.78125 5.09375q0 3.234375 -1.765625 5.0625q-1.75 1.828125 -4.6875 1.828125q-2.984375 0 -4.75 -1.8125q-1.75 -1.828125 -1.75 -5.015625zm2.78125 -0.09375q0 2.265625 1.046875 3.4375q1.046875 1.171875 2.65625 1.171875q1.609375 0 2.640625 -1.15625q1.046875 -1.171875 1.046875 -3.484375q0 -2.296875 -1.015625 -3.421875q-1.0 -1.140625 -2.671875 -1.140625q-1.671875 0 -2.6875 1.15625q-1.015625 1.140625 -1.015625 3.4375zm12.261429 -6.671875l4.9375 0q1.65625 0 2.53125 0.265625q1.1875 0.34375 2.015625 1.234375q0.84375 0.875 1.28125 2.15625q0.4375 1.28125 0.4375 3.15625q0 1.640625 -0.40625 2.84375q-0.5 1.453125 -1.4375 2.359375q-0.703125 0.671875 -1.890625 1.0625q-0.890625 0.28125 -2.390625 0.28125l-5.078125 0l0 -13.359375zm2.703125 2.265625l0 8.84375l2.015625 0q1.125 0 1.625 -0.125q0.65625 -0.171875 1.078125 -0.5625q0.4375 -0.390625 0.703125 -1.28125q0.28125 -0.90625 0.28125 -2.453125q0 -1.546875 -0.28125 -2.375q-0.265625 -0.828125 -0.765625 -1.28125q-0.484375 -0.46875 -1.234375 -0.640625q-0.5625 -0.125 -2.21875 -0.125l-1.203125 0zm10.785446 11.09375l0 -13.359375l9.90625 0l0 2.265625l-7.21875 0l0 2.953125l6.71875 0l0 2.25l-6.71875 0l0 3.640625l7.46875 0l0 2.25l-10.15625 0z" fill-rule="nonzero"/><path fill="#f4cccc" d="m331.99475 144.60376l0 0c0 -2.1859894 1.7720947 -3.958084 3.9580688 -3.958084l132.99722 0c1.0497437 0 2.0565186 0.41700745 2.7987976 1.1592865c0.74227905 0.7422943 1.1593018 1.7490387 1.1593018 2.7987976l0 15.831863c0 2.1859894 -1.7720947 3.958084 -3.9580994 3.958084l-132.99722 0c-2.1859741 0 -3.9580688 -1.7720947 -3.9580688 -3.958084z" fill-rule="evenodd"/><path stroke="#e6b8af" stroke-width="4.0" stroke-linejoin="round" stroke-linecap="butt" d="m331.99475 144.60376l0 0c0 -2.1859894 1.7720947 -3.958084 3.9580688 -3.958084l132.99722 0c1.0497437 0 2.0565186 0.41700745 2.7987976 1.1592865c0.74227905 0.7422943 1.1593018 1.7490387 1.1593018 2.7987976l0 15.831863c0 2.1859894 -1.7720947 3.958084 -3.9580994 3.958084l-132.99722 0c-2.1859741 0 -3.9580688 -1.7720947 -3.9580688 -3.958084z" fill-rule="evenodd"/><path fill="#00303f" d="m376.89163 159.43968l0 -13.359375l2.625 0l5.453125 8.921875l0 -8.921875l2.515625 0l0 13.359375l-2.703125 0l-5.390625 -8.703125l0 8.703125l-2.5 0zm12.894806 -6.59375q0 -2.046875 0.609375 -3.421875q0.453125 -1.03125 1.234375 -1.828125q0.796875 -0.8125 1.734375 -1.203125q1.25 -0.53125 2.875 -0.53125q2.953125 0 4.71875 1.828125q1.78125 1.828125 1.78125 5.09375q0 3.234375 -1.765625 5.0625q-1.75 1.828125 -4.6875 1.828125q-2.984375 0 -4.75 -1.8125q-1.75 -1.828125 -1.75 -5.015625zm2.78125 -0.09375q0 2.265625 1.046875 3.4375q1.046875 1.171875 2.65625 1.171875q1.609375 0 2.640625 -1.15625q1.046875 -1.171875 1.046875 -3.484375q0 -2.296875 -1.015625 -3.421875q-1.0 -1.140625 -2.671875 -1.140625q-1.671875 0 -2.6875 1.15625q-1.015625 1.140625 -1.015625 3.4375zm12.261444 -6.671875l4.9375 0q1.65625 0 2.53125 0.265625q1.1875 0.34375 2.015625 1.234375q0.84375 0.875 1.28125 2.15625q0.4375 1.28125 0.4375 3.15625q0 1.640625 -0.40625 2.84375q-0.5 1.453125 -1.4375 2.359375q-0.703125 0.671875 -1.890625 1.0625q-0.890625 0.28125 -2.390625 0.28125l-5.078125 0l0 -13.359375zm2.703125 2.265625l0 8.84375l2.015625 0q1.125 0 1.625 -0.125q0.65625 -0.171875 1.078125 -0.5625q0.4375 -0.390625 0.703125 -1.28125q0.28125 -0.90625 0.28125 -2.453125q0 -1.546875 -0.28125 -2.375q-0.265625 -0.828125 -0.765625 -1.28125q-0.484375 -0.46875 -1.234375 -0.640625q-0.5625 -0.125 -2.21875 -0.125l-1.203125 0zm10.785431 11.09375l0 -13.359375l9.90625 0l0 2.265625l-7.21875 0l0 2.953125l6.71875 0l0 2.25l-6.71875 0l0 3.640625l7.46875 0l0 2.25l-10.15625 0z" fill-rule="nonzero"/><path fill="#f4cccc" d="m493.99213 144.60376l0 0c0 -2.1859894 1.7720947 -3.958084 3.9580688 -3.958084l132.99725 0c1.0497437 0 2.0564575 0.41700745 2.798767 1.1592865c0.7423096 0.7422943 1.1593018 1.7490387 1.1593018 2.7987976l0 15.831863c0 2.1859894 -1.7720947 3.958084 -3.9580688 3.958084l-132.99725 0c-2.1859741 0 -3.9580688 -1.7720947 -3.9580688 -3.958084z" fill-rule="evenodd"/><path stroke="#e6b8af" stroke-width="4.0" stroke-linejoin="round" stroke-linecap="butt" d="m493.99213 144.60376l0 0c0 -2.1859894 1.7720947 -3.958084 3.9580688 -3.958084l132.99725 0c1.0497437 0 2.0564575 0.41700745 2.798767 1.1592865c0.7423096 0.7422943 1.1593018 1.7490387 1.1593018 2.7987976l0 15.831863c0 2.1859894 -1.7720947 3.958084 -3.9580688 3.958084l-132.99725 0c-2.1859741 0 -3.9580688 -1.7720947 -3.9580688 -3.958084z" fill-rule="evenodd"/><path fill="#00303f" d="m538.889 159.43968l0 -13.359375l2.625 0l5.453125 8.921875l0 -8.921875l2.515625 0l0 13.359375l-2.703125 0l-5.390625 -8.703125l0 8.703125l-2.5 0zm12.894836 -6.59375q0 -2.046875 0.609375 -3.421875q0.453125 -1.03125 1.234375 -1.828125q0.796875 -0.8125 1.734375 -1.203125q1.25 -0.53125 2.875 -0.53125q2.953125 0 4.71875 1.828125q1.78125 1.828125 1.78125 5.09375q0 3.234375 -1.765625 5.0625q-1.75 1.828125 -4.6875 1.828125q-2.984375 0 -4.75 -1.8125q-1.75 -1.828125 -1.75 -5.015625zm2.78125 -0.09375q0 2.265625 1.046875 3.4375q1.046875 1.171875 2.65625 1.171875q1.609375 0 2.640625 -1.15625q1.046875 -1.171875 1.046875 -3.484375q0 -2.296875 -1.015625 -3.421875q-1.0 -1.140625 -2.671875 -1.140625q-1.671875 0 -2.6875 1.15625q-1.015625 1.140625 -1.015625 3.4375zm12.261414 -6.671875l4.9375 0q1.65625 0 2.53125 0.265625q1.1875 0.34375 2.015625 1.234375q0.84375 0.875 1.28125 2.15625q0.4375 1.28125 0.4375 3.15625q0 1.640625 -0.40625 2.84375q-0.5 1.453125 -1.4375 2.359375q-0.703125 0.671875 -1.890625 1.0625q-0.890625 0.28125 -2.390625 0.28125l-5.078125 0l0 -13.359375zm2.703125 2.265625l0 8.84375l2.015625 0q1.125 0 1.625 -0.125q0.65625 -0.171875 1.078125 -0.5625q0.4375 -0.390625 0.703125 -1.28125q0.28125 -0.90625 0.28125 -2.453125q0 -1.546875 -0.28125 -2.375q-0.265625 -0.828125 -0.765625 -1.28125q-0.484375 -0.46875 -1.234375 -0.640625q-0.5625 -0.125 -2.21875 -0.125l-1.203125 0zm10.785461 11.09375l0 -13.359375l9.90625 0l0 2.265625l-7.21875 0l0 2.953125l6.71875 0l0 2.25l-6.71875 0l0 3.640625l7.46875 0l0 2.25l-10.15625 0z" fill-rule="nonzero"/><path fill="#000000" fill-opacity="0.0" d="m322.09448 100.27274l0 20.18898l-243.65353 0l0 20.188972" fill-rule="evenodd"/><path stroke="#000000" stroke-width="1.0" stroke-linejoin="round" stroke-linecap="butt" d="m322.09448 100.27274l0 20.18898l-243.65353 0l0 20.188972" fill-rule="evenodd"/><path fill="#000000" fill-opacity="0.0" d="m322.09448 100.27274l0 20.186554l-81.63779 0l0 20.191399" fill-rule="evenodd"/><path stroke="#000000" stroke-width="1.0" stroke-linejoin="round" stroke-linecap="butt" d="m322.09448 100.27274l0 20.186554l-81.63779 0l0 20.191399" fill-rule="evenodd"/><path fill="#000000" fill-opacity="0.0" d="m322.09448 100.27274l0 20.186554l80.346466 0l0 20.191399" fill-rule="evenodd"/><path stroke="#000000" stroke-width="1.0" stroke-linejoin="round" stroke-linecap="butt" d="m322.09448 100.27274l0 20.186554l80.346466 0l0 20.191399" fill-rule="evenodd"/><path fill="#000000" fill-opacity="0.0" d="m322.09448 100.27274l0 20.186554l242.36218 0l0 20.191399" fill-rule="evenodd"/><path stroke="#000000" stroke-width="1.0" stroke-linejoin="round" stroke-linecap="butt" d="m322.09448 100.27274l0 20.186554l242.36218 0l0 20.191399" fill-rule="evenodd"/><path fill="#f3f3f3" d="m48.509212 210.36137l0 0c0 -1.784668 1.4467621 -3.23143 3.2314339 -3.23143l12.925354 0l0 0c0.85702515 0 1.6789551 0.3404541 2.2849655 0.9464569c0.60601044 0.60601807 0.94646454 1.427948 0.94646454 2.2849731l0 21.390106c0 1.784668 -1.4467621 3.23143 -3.23143 3.23143l-12.925354 0c-1.7846718 0 -3.2314339 -1.4467621 -3.2314339 -3.23143z" fill-rule="evenodd"/><path stroke="#c72e49" stroke-width="1.0" stroke-linejoin="round" stroke-linecap="butt" d="m48.509212 210.36137l0 0c0 -1.784668 1.4467621 -3.23143 3.2314339 -3.23143l12.925354 0l0 0c0.85702515 0 1.6789551 0.3404541 2.2849655 0.9464569c0.60601044 0.60601807 0.94646454 1.427948 0.94646454 2.2849731l0 21.390106c0 1.784668 -1.4467621 3.23143 -3.23143 3.23143l-12.925354 0c-1.7846718 0 -3.2314339 -1.4467621 -3.2314339 -3.23143z" fill-rule="evenodd"/><path fill="#efefef" d="m52.3185 207.45776l12.478062 0l0 4.809143l-12.478062 0z" fill-rule="evenodd"/><path fill="#000000" fill-opacity="0.0" d="m53.906673 207.43921l0 3.2951508" fill-rule="evenodd"/><path stroke="#bf9000" stroke-width="1.0" stroke-linejoin="round" stroke-linecap="butt" d="m53.906673 207.43921l0 3.2951508" fill-rule="evenodd"/><path fill="#000000" fill-opacity="0.0" d="m56.054996 207.43921l0 4.2747955" fill-rule="evenodd"/><path stroke="#bf9000" stroke-width="1.0" stroke-linejoin="round" stroke-linecap="butt" d="m56.054996 207.43921l0 4.2747955" fill-rule="evenodd"/><path fill="#000000" fill-opacity="0.0" d="m58.203323 207.43921l0 2.894394" fill-rule="evenodd"/><path stroke="#bf9000" stroke-width="1.0" stroke-linejoin="round" stroke-linecap="butt" d="m58.203323 207.43921l0 2.894394" fill-rule="evenodd"/><path fill="#000000" fill-opacity="0.0" d="m60.351646 207.43921l0 3.8963013" fill-rule="evenodd"/><path stroke="#bf9000" stroke-width="1.0" stroke-linejoin="round" stroke-linecap="butt" d="m60.351646 207.43921l0 3.8963013" fill-rule="evenodd"/><path fill="#000000" fill-opacity="0.0" d="m62.49997 207.43921l0 3.005722" fill-rule="evenodd"/><path stroke="#bf9000" stroke-width="1.0" stroke-linejoin="round" stroke-linecap="butt" d="m62.49997 207.43921l0 3.005722" fill-rule="evenodd"/><path fill="#f3f3f3" d="m129.51845 210.36137l0 0c0 -1.784668 1.4467621 -3.23143 3.2314453 -3.23143l12.925339 0l0 0c0.8570404 0 1.6789703 0.3404541 2.2849731 0.9464569c0.60601807 0.60601807 0.94647217 1.427948 0.94647217 2.2849731l0 21.390106c0 1.784668 -1.4467621 3.23143 -3.2314453 3.23143l-12.925339 0c-1.7846832 0 -3.2314453 -1.4467621 -3.2314453 -3.23143z" fill-rule="evenodd"/><path stroke="#c72e49" stroke-width="1.0" stroke-linejoin="round" stroke-linecap="butt" d="m129.51845 210.36137l0 0c0 -1.784668 1.4467621 -3.23143 3.2314453 -3.23143l12.925339 0l0 0c0.8570404 0 1.6789703 0.3404541 2.2849731 0.9464569c0.60601807 0.60601807 0.94647217 1.427948 0.94647217 2.2849731l0 21.390106c0 1.784668 -1.4467621 3.23143 -3.2314453 3.23143l-12.925339 0c-1.7846832 0 -3.2314453 -1.4467621 -3.2314453 -3.23143z" fill-rule="evenodd"/><path fill="#efefef" d="m133.32774 207.45776l12.478058 0l0 4.809143l-12.478058 0z" fill-rule="evenodd"/><path fill="#000000" fill-opacity="0.0" d="m134.91591 207.43921l0 3.2951508" fill-rule="evenodd"/><path stroke="#bf9000" stroke-width="1.0" stroke-linejoin="round" stroke-linecap="butt" d="m134.91591 207.43921l0 3.2951508" fill-rule="evenodd"/><path fill="#000000" fill-opacity="0.0" d="m137.06424 207.43921l0 4.2747955" fill-rule="evenodd"/><path stroke="#bf9000" stroke-width="1.0" stroke-linejoin="round" stroke-linecap="butt" d="m137.06424 207.43921l0 4.2747955" fill-rule="evenodd"/><path fill="#000000" fill-opacity="0.0" d="m139.21255 207.43921l0 2.894394" fill-rule="evenodd"/><path stroke="#bf9000" stroke-width="1.0" stroke-linejoin="round" stroke-linecap="butt" d="m139.21255 207.43921l0 2.894394" fill-rule="evenodd"/><path fill="#000000" fill-opacity="0.0" d="m141.36089 207.43921l0 3.8963013" fill-rule="evenodd"/><path stroke="#bf9000" stroke-width="1.0" stroke-linejoin="round" stroke-linecap="butt" d="m141.36089 207.43921l0 3.8963013" fill-rule="evenodd"/><path fill="#000000" fill-opacity="0.0" d="m143.50922 207.43921l0 3.005722" fill-rule="evenodd"/><path stroke="#bf9000" stroke-width="1.0" stroke-linejoin="round" stroke-linecap="butt" d="m143.50922 207.43921l0 3.005722" fill-rule="evenodd"/><path fill="#f3f3f3" d="m89.407104 210.36137l0 0c0 -1.784668 1.4467621 -3.23143 3.2314377 -3.23143l12.925346 0l0 0c0.8570328 0 1.6789627 0.3404541 2.2849731 0.9464569c0.60601044 0.60601807 0.94646454 1.427948 0.94646454 2.2849731l0 21.390106c0 1.784668 -1.4467621 3.23143 -3.2314377 3.23143l-12.925346 0c-1.7846756 0 -3.2314377 -1.4467621 -3.2314377 -3.23143z" fill-rule="evenodd"/><path stroke="#c72e49" stroke-width="1.0" stroke-linejoin="round" stroke-linecap="butt" d="m89.407104 210.36137l0 0c0 -1.784668 1.4467621 -3.23143 3.2314377 -3.23143l12.925346 0l0 0c0.8570328 0 1.6789627 0.3404541 2.2849731 0.9464569c0.60601044 0.60601807 0.94646454 1.427948 0.94646454 2.2849731l0 21.390106c0 1.784668 -1.4467621 3.23143 -3.2314377 3.23143l-12.925346 0c-1.7846756 0 -3.2314377 -1.4467621 -3.2314377 -3.23143z" fill-rule="evenodd"/><path fill="#efefef" d="m93.21639 207.45776l12.478058 0l0 4.809143l-12.478058 0z" fill-rule="evenodd"/><path fill="#000000" fill-opacity="0.0" d="m94.804565 207.43921l0 3.2951508" fill-rule="evenodd"/><path stroke="#bf9000" stroke-width="1.0" stroke-linejoin="round" stroke-linecap="butt" d="m94.804565 207.43921l0 3.2951508" fill-rule="evenodd"/><path fill="#000000" fill-opacity="0.0" d="m96.95289 207.43921l0 4.2747955" fill-rule="evenodd"/><path stroke="#bf9000" stroke-width="1.0" stroke-linejoin="round" stroke-linecap="butt" d="m96.95289 207.43921l0 4.2747955" fill-rule="evenodd"/><path fill="#000000" fill-opacity="0.0" d="m99.10122 207.43921l0 2.894394" fill-rule="evenodd"/><path stroke="#bf9000" stroke-width="1.0" stroke-linejoin="round" stroke-linecap="butt" d="m99.10122 207.43921l0 2.894394" fill-rule="evenodd"/><path fill="#000000" fill-opacity="0.0" d="m101.24954 207.43921l0 3.8963013" fill-rule="evenodd"/><path stroke="#bf9000" stroke-width="1.0" stroke-linejoin="round" stroke-linecap="butt" d="m101.24954 207.43921l0 3.8963013" fill-rule="evenodd"/><path fill="#000000" fill-opacity="0.0" d="m103.397865 207.43921l0 3.005722" fill-rule="evenodd"/><path stroke="#bf9000" stroke-width="1.0" stroke-linejoin="round" stroke-linecap="butt" d="m103.397865 207.43921l0 3.005722" fill-rule="evenodd"/><path fill="#000000" fill-opacity="0.0" d="m78.456696 164.39896l0 21.529282l-60.409454 0l0 21.525833" fill-rule="evenodd"/><path stroke="#000000" stroke-width="1.0" stroke-linejoin="round" stroke-linecap="butt" d="m78.456696 164.39896l0 21.529282l-60.409454 0l0 21.525833" fill-rule="evenodd"/><path fill="#000000" fill-opacity="0.0" d="m78.456696 164.39896l0 21.529282l-19.905514 0l0 21.525833" fill-rule="evenodd"/><path stroke="#000000" stroke-width="1.0" stroke-linejoin="round" stroke-linecap="butt" d="m78.456696 164.39896l0 21.529282l-19.905514 0l0 21.525833" fill-rule="evenodd"/><path fill="#000000" fill-opacity="0.0" d="m78.456696 164.39896l0 21.529282l20.7874 0l0 21.525833" fill-rule="evenodd"/><path stroke="#000000" stroke-width="1.0" stroke-linejoin="round" stroke-linecap="butt" d="m78.456696 164.39896l0 21.529282l20.7874 0l0 21.525833" fill-rule="evenodd"/><path fill="#000000" fill-opacity="0.0" d="m78.456696 164.39896l0 21.529282l61.102356 0l0 21.525833" fill-rule="evenodd"/><path stroke="#000000" stroke-width="1.0" stroke-linejoin="round" stroke-linecap="butt" d="m78.456696 164.39896l0 21.529282l61.102356 0l0 21.525833" fill-rule="evenodd"/><path fill="#f4cccc" d="m7.9999995 144.60901l0 0c0 -2.1859894 1.7720952 -3.958084 3.9580846 -3.958084l132.99722 0c1.0497437 0 2.0565033 0.41700745 2.7987823 1.1592865c0.74227905 0.7422943 1.1593018 1.7490387 1.1593018 2.7987976l0 15.831863c0 2.1859894 -1.7720947 3.958084 -3.958084 3.958084l-132.99722 0c-2.1859894 0 -3.9580846 -1.7720947 -3.9580846 -3.958084z" fill-rule="evenodd"/><path stroke="#e6b8af" stroke-width="4.0" stroke-linejoin="round" stroke-linecap="butt" d="m7.9999995 144.60901l0 0c0 -2.1859894 1.7720952 -3.958084 3.9580846 -3.958084l132.99722 0c1.0497437 0 2.0565033 0.41700745 2.7987823 1.1592865c0.74227905 0.7422943 1.1593018 1.7490387 1.1593018 2.7987976l0 15.831863c0 2.1859894 -1.7720947 3.958084 -3.958084 3.958084l-132.99722 0c-2.1859894 0 -3.9580846 -1.7720947 -3.9580846 -3.958084z" fill-rule="evenodd"/><path fill="#00303f" d="m52.89687 159.44493l0 -13.359375l2.625 0l5.453125 8.921875l0 -8.921875l2.515625 0l0 13.359375l-2.703125 0l-5.390625 -8.703125l0 8.703125l-2.5 0zm12.894825 -6.59375q0 -2.046875 0.609375 -3.421875q0.453125 -1.03125 1.234375 -1.828125q0.796875 -0.8125 1.734375 -1.203125q1.25 -0.53125 2.875 -0.53125q2.953125 0 4.71875 1.828125q1.78125 1.828125 1.78125 5.09375q0 3.234375 -1.765625 5.0625q-1.75 1.828125 -4.6875 1.828125q-2.984375 0 -4.75 -1.8125q-1.75 -1.828125 -1.75 -5.015625zm2.78125 -0.09375q0 2.265625 1.046875 3.4375q1.046875 1.171875 2.65625 1.171875q1.609375 0 2.640625 -1.15625q1.046875 -1.171875 1.046875 -3.484375q0 -2.296875 -1.015625 -3.421875q-1.0 -1.140625 -2.671875 -1.140625q-1.671875 0 -2.6875 1.15625q-1.015625 1.140625 -1.015625 3.4375zm12.261429 -6.671875l4.9375 0q1.65625 0 2.53125 0.265625q1.1875 0.34375 2.015625 1.234375q0.84375 0.875 1.28125 2.15625q0.4375 1.28125 0.4375 3.15625q0 1.640625 -0.40625 2.84375q-0.5 1.453125 -1.4375 2.359375q-0.703125 0.671875 -1.890625 1.0625q-0.890625 0.28125 -2.390625 0.28125l-5.078125 0l0 -13.359375zm2.703125 2.265625l0 8.84375l2.015625 0q1.125 0 1.625 -0.125q0.65625 -0.171875 1.078125 -0.5625q0.4375 -0.390625 0.703125 -1.28125q0.28125 -0.90625 0.28125 -2.453125q0 -1.546875 -0.28125 -2.375q-0.265625 -0.828125 -0.765625 -1.28125q-0.484375 -0.46875 -1.234375 -0.640625q-0.5625 -0.125 -2.21875 -0.125l-1.203125 0zm10.785446 11.09375l0 -13.359375l9.90625 0l0 2.265625l-7.21875 0l0 2.953125l6.71875 0l0 2.25l-6.71875 0l0 3.640625l7.46875 0l0 2.25l-10.15625 0z" fill-rule="nonzero"/><path fill="#f3f3f3" d="m8.808434 210.35612l0 0c0 -1.784668 1.446763 -3.23143 3.2314348 -3.23143l12.925351 0l0 0c0.85702896 0 1.678957 0.3404541 2.2849693 0.9464569c0.60601234 0.60601807 0.94646454 1.427948 0.94646454 2.2849731l0 21.390106c0 1.784668 -1.4467621 3.23143 -3.2314339 3.23143l-12.925351 0c-1.7846718 0 -3.2314348 -1.4467621 -3.2314348 -3.23143z" fill-rule="evenodd"/><path stroke="#c72e49" stroke-width="1.0" stroke-linejoin="round" stroke-linecap="butt" d="m8.808434 210.35612l0 0c0 -1.784668 1.446763 -3.23143 3.2314348 -3.23143l12.925351 0l0 0c0.85702896 0 1.678957 0.3404541 2.2849693 0.9464569c0.60601234 0.60601807 0.94646454 1.427948 0.94646454 2.2849731l0 21.390106c0 1.784668 -1.4467621 3.23143 -3.2314339 3.23143l-12.925351 0c-1.7846718 0 -3.2314348 -1.4467621 -3.2314348 -3.23143z" fill-rule="evenodd"/><path fill="#efefef" d="m12.617722 207.45251l12.47806 0l0 4.809143l-12.47806 0z" fill-rule="evenodd"/><path fill="#000000" fill-opacity="0.0" d="m14.205896 207.43396l0 3.2951508" fill-rule="evenodd"/><path stroke="#bf9000" stroke-width="1.0" stroke-linejoin="round" stroke-linecap="butt" d="m14.205896 207.43396l0 3.2951508" fill-rule="evenodd"/><path fill="#000000" fill-opacity="0.0" d="m16.35422 207.43396l0 4.2747955" fill-rule="evenodd"/><path stroke="#bf9000" stroke-width="1.0" stroke-linejoin="round" stroke-linecap="butt" d="m16.35422 207.43396l0 4.2747955" fill-rule="evenodd"/><path fill="#000000" fill-opacity="0.0" d="m18.502544 207.43396l0 2.894394" fill-rule="evenodd"/><path stroke="#bf9000" stroke-width="1.0" stroke-linejoin="round" stroke-linecap="butt" d="m18.502544 207.43396l0 2.894394" fill-rule="evenodd"/><path fill="#000000" fill-opacity="0.0" d="m20.650867 207.43396l0 3.8963013" fill-rule="evenodd"/><path stroke="#bf9000" stroke-width="1.0" stroke-linejoin="round" stroke-linecap="butt" d="m20.650867 207.43396l0 3.8963013" fill-rule="evenodd"/><path fill="#000000" fill-opacity="0.0" d="m22.799192 207.43396l0 3.0057068" fill-rule="evenodd"/><path stroke="#bf9000" stroke-width="1.0" stroke-linejoin="round" stroke-linecap="butt" d="m22.799192 207.43396l0 3.0057068" fill-rule="evenodd"/></g></svg>