<svg xmlns="http://www.w3.org/2000/svg" width="12" height="14" fill="none" xmlns:v="https://vecta.io/nano"><path d="M6 13.278a5.935 5.935 0 0 1-2.084-.384 7.076 7.076 0 0 1-1.845-1.006 5.555 5.555 0 0 1-1.318-1.405C.418 9.96.25 9.428.25 8.885V7.288l2.156 1.613-.926.927c.33.617.894 1.168 1.693 1.653s1.581.753 2.348.806V6.09H3.444v-.958h2.077V3.95c-.405-.15-.719-.373-.943-.67a1.659 1.659 0 0 1-.335-1.023 1.68 1.68 0 0 1 .52-1.246A1.7 1.7 0 0 1 6 .5c.49 0 .905.17 1.246.511s.51.756.51 1.246c0 .383-.11.724-.334 1.022s-.538.522-.943.671v1.182h2.077v.958H6.479v6.197c.767-.053 1.55-.322 2.348-.806s1.363-1.036 1.693-1.653L9.594 8.9l2.156-1.613v1.597c0 .543-.168 1.076-.503 1.598s-.775.99-1.318 1.405a7.076 7.076 0 0 1-1.845 1.006A5.935 5.935 0 0 1 6 13.278zM6 3.056c.224 0 .413-.08.567-.24a.78.78 0 0 0 .232-.56.771.771 0 0 0-.232-.566A.771.771 0 0 0 6 1.458a.78.78 0 0 0-.559.232.758.758 0 0 0-.24.567c0 .213.08.4.24.559s.346.24.559.24z" fill="#000"/></svg>