<svg xmlns="http://www.w3.org/2000/svg" width="20" height="15" fill="#1e1e1e" xmlns:v="https://vecta.io/nano"><path d="M15.278 6.366c-.362-.569-.499-1.253-.385-1.918.102-.626.36-1.215.751-1.716.447.22.839.537 1.146.929a2.94 2.94 0 0 1 .572 1.325l.689-.051a3.13 3.13 0 0 1 1.423.228 3.84 3.84 0 0 1 .509.31c.021.032.021.074 0 .106a2.52 2.52 0 0 1-1.199 1.451c-.545.298-1.166.44-1.791.406-.032-.005-.064.002-.091.021s-.045.045-.051.076a12.72 12.72 0 0 1-1.467 2.751c-1.185 1.655-2.9 2.856-4.86 3.405a12.85 12.85 0 0 1-4.142.477c-.856-.029-1.706-.157-2.532-.381-.891-.224-1.693-.714-2.3-1.405-.457-.542-.811-1.163-1.045-1.832a8.92 8.92 0 0 1-.502-2.422v-.735c-.017-.163.031-.326.135-.453a.63.63 0 0 1 .42-.226h13.208a3.63 3.63 0 0 0 1.396-.284l.116-.062h-.001v-.001zM5.187 4.092h-.823c-.162 0-.214-.043-.214-.203V2.438c0-.149.043-.203.196-.203H6.02c.153 0 .206.054.206.204v1.45c0 .16-.052.203-.214.203h-.823l-.002.001zm2.487-1.839h.823c.161 0 .206.044.206.203v1.451c0 .16-.054.204-.214.204H6.833c-.152 0-.206-.044-.206-.204V2.467c0-.161.044-.213.206-.213h.842-.001z"/><path d="M10.099 4.092h-.831c-.152 0-.206-.051-.206-.194V2.432c0-.142.054-.196.198-.196h1.681c.143 0 .197.054.197.186v1.477c0 .141-.054.196-.197.196H10.1v-.002h-.001zm-4.902.381h.823c.152 0 .206.044.206.186v1.477c0 .142-.054.196-.198.196H4.346a.16.16 0 0 1-.197-.196V4.669c0-.151.054-.196.197-.196h.851zm2.478 1.857h-.823c-.152 0-.206-.044-.206-.196V4.677c0-.15.054-.204.206-.204h1.672c.144 0 .198.054.198.204v1.459c0 .15 0 .196-.198.196h-.849v-.001h0zm4.886-1.857h.841c.144 0 .197.054.197.186v1.477c0 .142-.054.196-.187.196h-1.7c-.134 0-.188-.054-.188-.196V4.659c0-.142.054-.185.197-.185h.842v-.001zm-9.817 0h.851c.143 0 .197.044.197.196v1.467a.16.16 0 0 1-.197.196H1.912a.16.16 0 0 1-.197-.196V4.659c0-.133.054-.185.197-.185h.832l-.001-.001zm7.356 0h.842c.143 0 .197.044.197.196v1.476c0 .134-.054.186-.188.186h-1.7c-.134 0-.187-.052-.187-.185V4.658c0-.141.054-.185.198-.185h.84zm0-2.618h-.84c-.153 0-.198-.043-.198-.196V.204c0-.15.054-.204.198-.204h1.672c.152 0 .206.054.206.204v1.459c0 .15-.054.196-.206.196h-.832v-.002-.001z"/></svg>