<svg xmlns="http://www.w3.org/2000/svg" width="20" height="15" fill="#2497ed" xmlns:v="https://vecta.io/nano"><path d="M15.277 6.368c-.362-.571-.499-1.254-.385-1.919a3.76 3.76 0 0 1 .752-1.716c.448.221.839.538 1.146.929.299.389.495.844.573 1.326l.688-.052a3.13 3.13 0 0 1 1.424.229 3.84 3.84 0 0 1 .51.31c.021.032.021.074 0 .106-.196.619-.627 1.139-1.202 1.451a3.35 3.35 0 0 1-1.79.407c-.066-.011-.13.032-.143.097a12.72 12.72 0 0 1-1.467 2.747c-1.179 1.65-2.894 2.852-4.86 3.405-1.345.383-2.744.544-4.142.475-.857-.03-1.707-.158-2.533-.382-.893-.226-1.696-.716-2.299-1.405a5.84 5.84 0 0 1-1.042-1.824 8.92 8.92 0 0 1-.502-2.424v-.734c-.017-.163.031-.327.136-.454a.63.63 0 0 1 .421-.226h13.206c.48-.001.955-.097 1.396-.283l.116-.062-.002-.002zM5.187 4.094h-.824c-.16 0-.215-.044-.215-.203V2.444c0-.15.044-.203.196-.203h1.674c.153 0 .206.053.206.203v1.447c0 .158-.053.203-.215.203h-.823zm2.488-1.84h.824c.16 0 .206.045.206.203v1.451c0 .158-.054.203-.215.203H6.833c-.153 0-.206-.044-.206-.203V2.468c0-.158.045-.213.206-.213h.84l.002-.001z"/><path d="M10.099 4.094h-.832c-.151 0-.206-.052-.206-.195V2.432a.16.16 0 0 1 .197-.195h1.682c.143 0 .197.053.197.186V3.9a.16.16 0 0 1-.197.195H10.1l-.001-.001zm-4.902.381h.823c.151 0 .206.044.206.186v1.477a.16.16 0 0 1-.197.195H4.346a.16.16 0 0 1-.197-.195V4.672c0-.151.054-.195.197-.195h.85l.001-.002zm2.478 1.859h-.824c-.153 0-.206-.044-.206-.195V4.678c0-.15.053-.203.206-.203h1.674c.144 0 .197.053.197.203v1.46c0 .15 0 .195-.197.195h-.85v.002zm4.887-1.857h.84c.144 0 .197.053.197.186v1.474c0 .142-.053.195-.187.195H11.71c-.135 0-.188-.053-.188-.195V4.661c0-.142.054-.185.197-.185h.841l.002.002zm-9.816 0h.848c.143 0 .197.044.197.195v1.466a.16.16 0 0 1-.197.195H1.911a.16.16 0 0 1-.196-.195V4.661c0-.132.054-.185.197-.185l.834.002zm7.355 0h.841c.143 0 .197.044.197.195v1.474c0 .133-.054.186-.188.186H9.246c-.134 0-.187-.053-.187-.186V4.661c0-.142.054-.185.197-.185h.84l.005.002zm0-2.618h-.842c-.153 0-.197-.044-.197-.195V.203c0-.15.054-.203.197-.203h1.67c.153 0 .206.053.206.203v1.459c0 .15-.053.195-.206.195h-.829l.002.002z"/></svg>