<svg id="prefix__Layer_1" data-name="Layer 1" xmlns="http://www.w3.org/2000/svg" viewBox="0 0 30 28.83"><defs><style>.prefix__cls-1{fill:none}.prefix__cls-2{fill:#c72c48}.prefix__cls-3{fill:#fff}</style></defs><g id="prefix__Group_298" data-name="Group 298"><g id="prefix__Group_271" data-name="Group 271"><g id="prefix__Rectangle_495" data-name="Rectangle 495"><path class="prefix__cls-1" d="M440.4 184.23h14.14a2.76 2.76 0 012.76 2.77 2.76 2.76 0 01-2.76 2.75H440.4a2.75 2.75 0 01-2.76-2.75 2.75 2.75 0 012.76-2.77z" transform="translate(-432.47 -179.07)"/><path class="prefix__cls-2" d="M454.54 189.74H440.4a2.76 2.76 0 110-5.51h14.14a2.76 2.76 0 110 5.51zm-14.14-4.07a1.32 1.32 0 100 2.63h14.14a1.32 1.32 0 000-2.63z" transform="translate(-432.47 -179.07)"/></g></g><g id="prefix__Rectangle_458" data-name="Rectangle 458"><rect class="prefix__cls-1" width="30" height="28.83" rx="2.62"/><path class="prefix__cls-2" d="M459.84 207.91h-24.75a2.62 2.62 0 01-2.62-2.62V181.7a2.62 2.62 0 012.62-2.63h24.75a2.63 2.63 0 012.63 2.63v23.59a2.63 2.63 0 01-2.63 2.62zm-24.75-27a.79.79 0 00-.79.79v23.59a.78.78 0 00.79.78h24.75a.78.78 0 00.79-.78V181.7a.79.79 0 00-.79-.79z" transform="translate(-432.47 -179.07)"/></g><g id="prefix__Ellipse_5" data-name="Ellipse 5"><circle class="prefix__cls-3" cx="15" cy="15.16" r="1.97"/><path class="prefix__cls-2" d="M447.47 196.2a2 2 0 112-2 2 2 0 01-2 2zm0-2.49a.52.52 0 00-.53.52.53.53 0 00.53.53.52.52 0 00.52-.53.52.52 0 00-.52-.52z" transform="translate(-432.47 -179.07)"/></g><g id="prefix__Ellipse_6" data-name="Ellipse 6"><circle class="prefix__cls-3" cx="8.45" cy="15.16" r="1.97"/><path class="prefix__cls-2" d="M440.91 196.2a2 2 0 112-2 2 2 0 01-2 2zm0-2.49a.52.52 0 00-.52.52.53.53 0 101.05 0 .52.52 0 00-.53-.52z" transform="translate(-432.47 -179.07)"/></g><g id="prefix__Ellipse_7" data-name="Ellipse 7"><circle class="prefix__cls-3" cx="21.55" cy="15.16" r="1.97"/><path class="prefix__cls-2" d="M454 196.2a2 2 0 112-2 2 2 0 01-2 2zm0-2.49a.52.52 0 00-.53.52.53.53 0 00.53.53.52.52 0 00.52-.53.52.52 0 00-.52-.52z" transform="translate(-432.47 -179.07)"/></g><g id="prefix__Ellipse_8" data-name="Ellipse 8"><circle class="prefix__cls-3" cx="14.98" cy="21.71" r="1.97"/><path class="prefix__cls-2" d="M447.45 202.75a2 2 0 112-2 2 2 0 01-2 2zm0-2.49a.53.53 0 100 1.05.53.53 0 000-1.05z" transform="translate(-432.47 -179.07)"/></g><g id="prefix__Ellipse_9" data-name="Ellipse 9"><circle class="prefix__cls-3" cx="8.43" cy="21.71" r="1.97"/><path class="prefix__cls-2" d="M440.9 202.75a2 2 0 112-2 2 2 0 01-2 2zm0-2.49a.53.53 0 10.52.52.53.53 0 00-.52-.52z" transform="translate(-432.47 -179.07)"/></g><g id="prefix__Ellipse_10" data-name="Ellipse 10"><circle class="prefix__cls-3" cx="21.53" cy="21.71" r="1.97"/><path class="prefix__cls-2" d="M454 202.75a2 2 0 112-2 2 2 0 01-2 2zm0-2.49a.53.53 0 000 1.05.53.53 0 100-1.05z" transform="translate(-432.47 -179.07)"/></g></g></svg>