<svg xmlns="http://www.w3.org/2000/svg" xmlns:xlink="http://www.w3.org/1999/xlink" width="30" height="29" xmlns:v="https://vecta.io/nano"><g fill="#c72c48" fill-rule="nonzero"><path d="M22.07 10.67H7.93a2.76 2.76 0 1 1 0-5.51h14.14a2.76 2.76 0 1 1 0 5.51h0zM7.93 6.6a1.32 1.32 0 1 0 0 2.63h14.14a1.32 1.32 0 0 0 0-2.63H7.93zm19.44 22.24H2.62A2.62 2.62 0 0 1 0 26.22V2.63A2.62 2.62 0 0 1 2.62 0h24.75A2.63 2.63 0 0 1 30 2.63v23.59a2.63 2.63 0 0 1-2.63 2.62zm-24.75-27a.79.79 0 0 0-.79.79v23.59a.78.78 0 0 0 .79.78h24.75a.78.78 0 0 0 .79-.78V2.63a.79.79 0 0 0-.79-.79H2.62z"/><use xlink:href="#B"/><path d="M8.44 17.13a2 2 0 1 1 0-4 2 2 0 1 1 0 4zm0-2.49a.52.52 0 0 0-.52.52.53.53 0 0 0 .811.519.53.53 0 0 0 .239-.519.52.52 0 0 0-.53-.52h0z"/><use xlink:href="#B" x="6.53"/><path d="M14.98 23.68a2 2 0 1 1 0-4 2 2 0 1 1 0 4zm0-2.49a.53.53 0 1 0 .457.525.53.53 0 0 0-.457-.525h0zm-6.55 2.49a2 2 0 1 1 0-4 2 2 0 1 1 0 4zm0-2.49a.53.53 0 1 0 .52.52.53.53 0 0 0-.52-.52h0zm13.1 2.49a2 2 0 1 1 0-4 2 2 0 1 1 0 4zm0-2.49a.53.53 0 1 0 .519.239.53.53 0 0 0-.519-.239h0z"/></g><defs ><path id="B" d="M15 17.13a2 2 0 1 1 0-4 2 2 0 1 1 0 4zm0-2.49a.52.52 0 0 0-.53.52.53.53 0 0 0 .53.53.52.52 0 0 0 .52-.53.52.52 0 0 0-.52-.52h0z"/></defs></svg>