<svg xmlns="http://www.w3.org/2000/svg" width="33.976" height="26.825" viewBox="0 0 33.976 26.825"><defs><style>.a{fill:none;stroke:#c72c48;stroke-linejoin:round;stroke-width:1.5px;}.b{fill:#c72c48;}</style></defs><g transform="translate(-5362.373 -2063.185)"><g transform="translate(5363.123 2065.599)"><path class="a" d="M5356.476,2063.957l-16.237-7.9-16.239,7.9,16.239,7.89Z" transform="translate(-5324 -2048.185)"/></g><g transform="translate(-1204.413 7061.914)"><g transform="translate(6572.288 -4993.844)"><g transform="translate(3.738 13.135)"><rect class="b" width="1.117" height="0.559"/></g><g transform="translate(3.738 1.664)"><path class="b" d="M6576.751-4981.941h-1.117v-1.093h1.117Zm0-1.64h-1.117v-1.093h1.117Zm0-1.639h-1.117v-1.093h1.117Zm0-1.639h-1.117v-1.092h1.117Zm0-1.638h-1.117v-1.093h1.117Zm0-1.64h-1.117v-1.092h1.117Zm0-1.639h-1.117v-1.093h1.117Z" transform="translate(-6575.634 4992.867)"/></g><g transform="translate(3.738 0.001)"><path class="b" d="M6576.751-4993.239h-1.117v-1.117h.559a.558.558,0,0,1,.559.559Z" transform="translate(-6575.634 4994.356)"/></g><g transform="translate(1.013 0.001)"><path class="b" d="M6575.466-4993.239h-.908v-1.117h.908Zm-1.363,0h-.908v-1.117h.908Z" transform="translate(-6573.195 4994.356)"/></g><rect class="b" width="0.559" height="1.117"/></g><g transform="translate(6582.777 -4998.729)"><path class="b" d="M6582.794-4982.53h-1.117v-1.117h1.117Zm0-1.676h-1.117v-1.117h1.117Zm0-1.676h-1.117V-4987h1.117Zm0-1.676h-1.117v-1.117h1.117Zm0-1.676h-1.117v-1.117h1.117Zm0-1.676h-1.117v-1.117h1.117Zm0-1.676h-1.117v-1.117h1.117Zm0-1.676h-1.117v-1.117h1.117Zm0-1.676h-1.117v-1.117h1.117Zm0-1.676h-1.117v-1.117h1.117Z" transform="translate(-6581.677 4998.729)"/></g><g transform="translate(6589.207 -4990.792)"><path class="b" d="M6588.549-4980.384h-1.117v-1.117h1.117Zm0-1.676h-1.117v-1.117h1.117Zm0-1.676h-1.117v-1.117h1.117Zm0-1.676h-1.117v-1.117h1.117Zm0-1.676h-1.117v-1.117h1.117Zm0-1.676h-1.117v-1.117h1.117Zm0-1.676h-1.117v-.628a.558.558,0,0,1,.559-.559h.488v.559h.07Zm4.935-.069h-1.095v-1.117h1.095Zm-1.653,0h-1.117v-1.117h1.117Zm-1.676,0h-1.117v-1.117h1.117Z" transform="translate(-6587.432 4991.625)"/></g></g></g></svg>