<svg xmlns="http://www.w3.org/2000/svg" width="33.976" height="26.825" xmlns:v="https://vecta.io/nano"><path d="M33.226 18.186l-16.237-7.9-16.239 7.9 16.239 7.89z" fill="none" stroke="#c72c48" stroke-linejoin="round" stroke-width="1.5"/><path d="M9.24 18.02h1.117v.559H9.24zm1.117-.545H9.24v-1.093h1.117zm0-1.64H9.24v-1.093h1.117zm0-1.639H9.24v-1.093h1.117zm0-1.639H9.24v-1.092h1.117zm0-1.638H9.24V9.826h1.117zm0-1.64H9.24V8.187h1.117zm0-1.639H9.24V6.547h1.117zm0-1.637H9.24V4.886h.559a.56.56 0 0 1 .559.559zm-1.571 0h-.908V4.886h.908zm-1.363 0h-.908V4.886h.908zM5.502 4.885h.559v1.117h-.559zm11.606 11.314h-1.117v-1.117h1.117zm0-1.676h-1.117v-1.117h1.117zm0-1.676h-1.117v-1.118h1.117zm0-1.676h-1.117v-1.117h1.117zm0-1.676h-1.117V8.378h1.117zm0-1.676h-1.117V6.702h1.117zm0-1.676h-1.117V5.026h1.117zm0-1.676h-1.117V3.35h1.117zm0-1.676h-1.117V1.674h1.117zm0-1.676h-1.117V-.002h1.117zm6.43 18.063h-1.117v-1.117h1.117zm0-1.676h-1.117v-1.117h1.117zm0-1.676h-1.117v-1.117h1.117zm0-1.676h-1.117v-1.117h1.117zm0-1.676h-1.117v-1.117h1.117zm0-1.676h-1.117V9.681h1.117zm0-1.676h-1.117v-.628a.56.56 0 0 1 .559-.559h.488v.559h.07zm4.935-.069h-1.095V7.936h1.095zm-1.653 0h-1.117V7.936h1.117zm-1.676 0h-1.117V7.936h1.117z" fill="#c72c48"/></svg>