<svg xmlns="http://www.w3.org/2000/svg" width="15" height="19" xmlns:v="https://vecta.io/nano"><path d="M10.493 13.367l.74-.166.813.656 1.075-.656.539 1.013.164.795.799.543.229.374-2.455 1.439-1.018.816h-.881l-.51-.816v-1.268l.229-1.885zm-7.647-.71l1.658 1.987 1.128 2.235v.884l-1.128.487-1.277-.487-1.892-.535-1.175-.353.303-1.036v-1.453l.872-.216.716-.601zm2.529-7.449L6.899 4.14l1.435.353.669.599-.329.398-2.025.972z" fill="#eccf11"/><path d="M14.608 15.151c-.483-.115-.824-.581-.814-1.112.007-.396-.148-.775-.424-1.037.22-.784.232-1.618.036-2.41a22.58 22.58 0 0 0-2.44-4.188c-.883-1.335-.142-2.853-.956-4.819S7.038-.269 5.875.583s-.813 2.927-.74 3.892c.079.642.054 1.294-.072 1.927-.106.256-.85 1.187-1.344 1.965s-.829 2.386-1.184 3.041a1.58 1.58 0 0 0-.106 1.258c-.198.108-.35.294-.424.52-.177.442-.566.63-1.274.777s-.672.593-.531 1.112a2.53 2.53 0 0 1-.176 1.484c-.177.668.707.89 1.662 1.001s1.981.741 2.865.853c.478.1.958-.16 1.168-.631a11.56 11.56 0 0 1 2.016-.255c.677-.01 1.354.064 2.015.222a1.54 1.54 0 0 0 .566.666c.555.256 1.199.124 1.628-.334.791-.654 1.646-1.214 2.55-1.668.74-.442.576-1.075.118-1.261l-.002-.001zM8.17 2.444c.509.049.888.527.852 1.075a1.17 1.17 0 0 1-.461.964l-.212-.111a.64.64 0 0 0 .284-.557c.018-.298-.185-.558-.461-.592-.286.034-.492.311-.461.619a.8.8 0 0 0 .071.334l-.387-.15a1.39 1.39 0 0 1-.106-.482c-.03-.265.042-.531.198-.739s.388-.344.638-.374h.006l.04.012H8.17zm-.071 2.297c.247.074.493.26.46.408s-.141.148-.46.37c-.389.27-.804.493-1.239.666-.212.038-.354-.11-.566-.258s-.672-.557-.565-.742l.493-.407c.142-.148.53-.482.776-.442l1.098.407.002-.003zM5.977 2.63c.389 0 .672.482.672 1.038a1.55 1.55 0 0 1-.035.296l-.284.149-.141.11a.77.77 0 0 0 .071-.442c-.035-.297-.247-.557-.461-.52s-.317.334-.282.63.247.557.46.52h.071l-.283.258c-.316-.214-.493-.601-.458-1 .004-.593.322-1.038.676-1.038h-.005V2.63zM5.27 17.15a1.39 1.39 0 0 1-.566.707c-.424.149-1.591-.406-2.123-.629s-1.84-.26-2.017-.482.106-.666.142-1.112-.142-.707-.071-.999.919-.296 1.239-.52.389-.815.671-.963.74.407.956.741a24.05 24.05 0 0 0 1.274 2.07 1.63 1.63 0 0 1 .498 1.186l-.004.002zm4.842-4.002a18.53 18.53 0 0 0-.071 1.89c-.537.741-1.301 1.253-2.157 1.445a6.01 6.01 0 0 1-1.982.072l-.74-.89c.147-.015.282-.092.376-.215s.138-.28.124-.437v-.049c-.071-.593-1.77-1.446-2.051-2.187-.235-.901-.12-1.865.318-2.673.389-.669.637-2.001 1.026-2.485.397-.521.599-1.183.565-1.856-.106-.407.813 1.038 1.415.853s1.875-1.186 2.052-1a27.1 27.1 0 0 1 2.014 5.195c.101.705.065 1.424-.106 2.113 0 0-.677-.182-.782.226v-.004l-.002.003zm4.206 2.706a22.39 22.39 0 0 0-2.123 1.333c-.425.481-.987.853-1.309.742-.453-.248-.665-.819-.493-1.334.15-.643.233-1.302.247-1.964-.035-.442-.106-1.038 0-1.149a.34.34 0 0 1 .284-.038s-.072.854.388 1.075a1.47 1.47 0 0 0 1.417-.335 2.26 2.26 0 0 0 .354-.557c.142.109.211.298.177.482a1.21 1.21 0 0 0 .46 1.037c.389.223.885.482.637.707h-.035l-.003-.001z" fill="#000"/></svg>