<svg xmlns="http://www.w3.org/2000/svg" width="15" height="20" xmlns:v="https://vecta.io/nano"><path d="M14.486 6.577a4.3 4.3 0 0 0-1.517 1.717 4.46 4.46 0 0 0-.445 2.276 4.42 4.42 0 0 0 .743 2.187A4.23 4.23 0 0 0 15 14.237l-.521 1.307c-.483 1.085-1.135 2.086-1.933 2.965-.223.274-.508.49-.829.628a2.15 2.15 0 0 1-1.017.171 5.22 5.22 0 0 1-1.029-.274c-.375-.158-.758-.297-1.147-.416a3.32 3.32 0 0 0-2.114.245c-.37.167-.752.306-1.142.417a1.77 1.77 0 0 1-1.524-.29 5.14 5.14 0 0 1-1.106-1.128A12.46 12.46 0 0 1 .13 11.986a7.95 7.95 0 0 1 .371-4.21c.261-.729.699-1.382 1.274-1.901.567-.512 1.255-.871 2-1.044.837-.181 1.71-.075 2.479.301l.861.345a1.36 1.36 0 0 0 1.003 0l1.737-.645a4.16 4.16 0 0 1 2.516.09c.811.289 1.52.823 2.032 1.532l.082.124v-.001zM7.505 4.394C7.404 2.15 9.002.218 11.137.006c.299 2.152-1.681 4.638-3.631 4.386v.002h0z" fill="#959595"/></svg>