<?xml version="1.0" encoding="UTF-8"?>
<svg width="170px" height="113px" viewBox="0 0 170 113" version="1.1" xmlns="http://www.w3.org/2000/svg" xmlns:xlink="http://www.w3.org/1999/xlink">
    <title>Group 2</title>
    <g id="Page-1" stroke="none" stroke-width="1" fill="none" fill-rule="evenodd">
        <g id="Group-2" transform="translate(0.167614, 2.000000)">
            <g id="Group" transform="translate(58.832386, 0.000000)" stroke="#5C5C5C" stroke-linecap="round" stroke-linejoin="round" stroke-width="2.5">
                <path d="M42.2601811,10.7283111 C48.1631016,19.5722444 47.2776636,31.3641555 39.3087208,39.3236955 L39.3087208,39.3236955 L52,52 L39.3087208,39.3236955 C31.5868158,47.0323967 19.5059979,48.2636787 10.3844101,42.2716733 M3.89119748,35.7861222 C-2.17807129,26.7304786 -1.04985862,14.6632294 6.59312544,6.88657253 C14.2361095,-0.890084353 26.2946515,-2.24022103 35.4718224,3.65316437 M2.41546734,49.6416178 L49.6388318,2.47397326" id="Shape"></path>
            </g>
            <g id="No-results-found,-pl" transform="translate(0.000000, 78.102273)" fill="#5C5C5C" fill-rule="nonzero">
                <polygon id="Path" points="41.03125 0.443181818 41.03125 9.89772727 39.9232955 9.89772727 34.7713068 2.47443182 34.6789773 2.47443182 34.6789773 9.89772727 33.5340909 9.89772727 33.5340909 0.443181818 34.6420455 0.443181818 39.8125 7.88494318 39.9048295 7.88494318 39.9048295 0.443181818"></polygon>
                <path d="M46.0539773,10.0454545 C45.4138258,10.0454545 44.8529238,9.8931108 44.3712713,9.5884233 C43.8896188,9.2837358 43.5141454,8.85748106 43.2448509,8.30965909 C42.9755563,7.76183712 42.8409091,7.12168561 42.8409091,6.38920455 C42.8409091,5.65056818 42.9755563,5.00580019 43.2448509,4.45490057 C43.5141454,3.90400095 43.8896188,3.47620739 44.3712713,3.17151989 C44.8529238,2.86683239 45.4138258,2.71448864 46.0539773,2.71448864 C46.6941288,2.71448864 47.2550308,2.86683239 47.7366832,3.17151989 C48.2183357,3.47620739 48.5938092,3.90400095 48.8631037,4.45490057 C49.1323982,5.00580019 49.2670455,5.65056818 49.2670455,6.38920455 C49.2670455,7.12168561 49.1323982,7.76183712 48.8631037,8.30965909 C48.5938092,8.85748106 48.2183357,9.2837358 47.7366832,9.5884233 C47.2550308,9.8931108 46.6941288,10.0454545 46.0539773,10.0454545 Z M46.0539773,9.06676136 C46.5402462,9.06676136 46.9403409,8.94211648 47.2542614,8.6928267 C47.5681818,8.44353693 47.8005445,8.11576705 47.9513494,7.70951705 C48.1021544,7.30326705 48.1775568,6.86316288 48.1775568,6.38920455 C48.1775568,5.91524621 48.1021544,5.47360322 47.9513494,5.06427557 C47.8005445,4.65494792 47.5681818,4.32410038 47.2542614,4.07173295 C46.9403409,3.81936553 46.5402462,3.69318182 46.0539773,3.69318182 C45.5677083,3.69318182 45.1676136,3.81936553 44.8536932,4.07173295 C44.5397727,4.32410038 44.30741,4.65494792 44.1566051,5.06427557 C44.0058002,5.47360322 43.9303977,5.91524621 43.9303977,6.38920455 C43.9303977,6.86316288 44.0058002,7.30326705 44.1566051,7.70951705 C44.30741,8.11576705 44.5397727,8.44353693 44.8536932,8.6928267 C45.1676136,8.94211648 45.5677083,9.06676136 46.0539773,9.06676136 Z" id="Shape"></path>
                <path d="M54.5852273,9.89772727 L54.5852273,2.80681818 L55.6377841,2.80681818 L55.6377841,3.87784091 L55.7116477,3.87784091 C55.8409091,3.52698864 56.0748106,3.24230587 56.4133523,3.02379261 C56.7518939,2.80527936 57.1335227,2.69602273 57.5582386,2.69602273 C57.6382576,2.69602273 57.7382813,2.69756155 57.8583097,2.7006392 C57.9783381,2.70371686 58.0691288,2.70833333 58.1306818,2.71448864 L58.1306818,3.82244318 C58.09375,3.81321023 58.009884,3.79859138 57.8790838,3.77858665 C57.7482836,3.75858191 57.6105587,3.74857955 57.4659091,3.74857955 C57.1212121,3.74857955 56.8142164,3.82013494 56.5449219,3.96324574 C56.2756274,4.10635653 56.0632694,4.30332623 55.907848,4.55415483 C55.7524266,4.80498343 55.6747159,5.09043561 55.6747159,5.41051136 L55.6747159,9.89772727 L54.5852273,9.89772727 Z" id="Path"></path>
                <path d="M62.1747159,10.0454545 C61.4914773,10.0454545 60.9028764,9.89388021 60.4089134,9.59073153 C59.9149503,9.28758286 59.5348603,8.86286695 59.2686435,8.31658381 C59.0024266,7.77030066 58.8693182,7.13399621 58.8693182,6.40767045 C58.8693182,5.6813447 59.0024266,5.04042377 59.2686435,4.48490767 C59.5348603,3.92939157 59.9072562,3.49544271 60.385831,3.18306108 C60.8644058,2.87067945 61.4237689,2.71448864 62.0639205,2.71448864 C62.4332386,2.71448864 62.7979403,2.77604167 63.1580256,2.89914773 C63.5181108,3.02225379 63.8458807,3.22153172 64.1413352,3.49698153 C64.4367898,3.77243134 64.6722301,4.13636364 64.8476563,4.58877841 C65.0230824,5.04119318 65.1107955,5.59824811 65.1107955,6.25994318 L65.1107955,6.72159091 L59.6448864,6.72159091 L59.6448864,5.77982955 L64.0028409,5.77982955 C64.0028409,5.37973485 63.9235914,5.02272727 63.7650923,4.70880682 C63.6065933,4.39488636 63.3819247,4.14713542 63.0910866,3.96555398 C62.8002486,3.78397254 62.4578598,3.69318182 62.0639205,3.69318182 C61.6299716,3.69318182 61.2552675,3.80013021 60.9398082,4.01402699 C60.624349,4.22792377 60.3819839,4.50568182 60.2127131,4.84730114 C60.0434422,5.18892045 59.9588068,5.55516098 59.9588068,5.94602273 L59.9588068,6.57386364 C59.9588068,7.109375 60.0519058,7.56255919 60.2381037,7.93341619 C60.4243016,8.3042732 60.6835938,8.58587831 61.0159801,8.77823153 C61.3483665,8.97058475 61.7346117,9.06676136 62.1747159,9.06676136 C62.4609375,9.06676136 62.7202296,9.02598248 62.9525923,8.94442472 C63.184955,8.86286695 63.3857718,8.73976089 63.5550426,8.57510653 C63.7243134,8.41045218 63.8551136,8.20501894 63.9474432,7.95880682 L65,8.25426136 C64.8892045,8.61126894 64.7030066,8.92441998 64.4414063,9.19371449 C64.1798059,9.463009 63.8566525,9.6722893 63.471946,9.8215554 C63.0872396,9.9708215 62.6548295,10.0454545 62.1747159,10.0454545 Z" id="Path"></path>
                <path d="M71.7954545,4.39488636 L70.8167614,4.671875 C70.7552083,4.50875947 70.665187,4.349491 70.5466974,4.1940696 C70.4282079,4.0386482 70.2674006,3.91015625 70.0642756,3.80859375 C69.8611506,3.70703125 69.601089,3.65625 69.2840909,3.65625 C68.850142,3.65625 68.4892874,3.75550426 68.201527,3.95401278 C67.9137666,4.15252131 67.7698864,4.40411932 67.7698864,4.70880682 C67.7698864,4.97964015 67.8683712,5.19353693 68.0653409,5.35049716 C68.2623106,5.50745739 68.5700758,5.63825758 68.9886364,5.74289773 L70.0411932,6.00142045 C70.6751894,6.15530303 71.1476089,6.38997396 71.4584517,6.70543324 C71.7692945,7.02089252 71.9247159,7.42637311 71.9247159,7.921875 C71.9247159,8.328125 71.8085346,8.69128788 71.5761719,9.01136364 C71.3438092,9.33143939 71.0198864,9.58380682 70.6044034,9.76846591 C70.1889205,9.953125 69.7057292,10.0454545 69.1548295,10.0454545 C68.4315814,10.0454545 67.8329782,9.88849432 67.3590199,9.57457386 C66.8850616,9.26065341 66.5849905,8.80208333 66.4588068,8.19886364 L67.4928977,7.94034091 C67.5913826,8.3219697 67.7783499,8.60819129 68.0537997,8.79900568 C68.3292495,8.98982008 68.6901042,9.08522727 69.1363636,9.08522727 C69.6441761,9.08522727 70.0481179,8.97674006 70.3481889,8.75976562 C70.6482599,8.54279119 70.7982955,8.28196023 70.7982955,7.97727273 C70.7982955,7.73106061 70.7121212,7.52408854 70.5397727,7.35635653 C70.3674242,7.18862453 70.1027462,7.06321023 69.7457386,6.98011364 L68.5639205,6.703125 C67.914536,6.54924242 67.4382694,6.30995502 67.1351207,5.98526278 C66.8319721,5.66057055 66.6803977,5.25355114 66.6803977,4.76420455 C66.6803977,4.36410985 66.7935014,4.01017992 67.0197088,3.70241477 C67.2459162,3.39464962 67.5552202,3.15305398 67.9476207,2.97762784 C68.3400213,2.8022017 68.7855114,2.71448864 69.2840909,2.71448864 C69.9857955,2.71448864 70.5374645,2.86837121 70.939098,3.17613636 C71.3407315,3.48390152 71.6261837,3.89015152 71.7954545,4.39488636 Z" id="Path"></path>
                <path d="M78.0369318,6.99857955 L78.0369318,2.80681818 L79.1264205,2.80681818 L79.1264205,9.89772727 L78.0369318,9.89772727 L78.0369318,8.69744318 L77.9630682,8.69744318 C77.796875,9.05752841 77.5383523,9.36298532 77.1875,9.61381392 C76.8366477,9.86464252 76.3934659,9.99005682 75.8579545,9.99005682 C75.4147727,9.99005682 75.0208333,9.89234138 74.6761364,9.69691051 C74.3314394,9.50147964 74.0606061,9.20602509 73.8636364,8.81054688 C73.6666667,8.41506866 73.5681818,7.9157197 73.5681818,7.3125 L73.5681818,2.80681818 L74.6576705,2.80681818 L74.6576705,7.23863636 C74.6576705,7.75568182 74.8030895,8.16808712 75.0939276,8.47585227 C75.3847656,8.78361742 75.756392,8.9375 76.2088068,8.9375 C76.4796402,8.9375 76.7558594,8.86825284 77.0374645,8.72975852 C77.3190696,8.5912642 77.5560488,8.37890625 77.748402,8.09268466 C77.9407552,7.80646307 78.0369318,7.44176136 78.0369318,6.99857955 Z" id="Path"></path>
                <polygon id="Path" points="82.2102273 0.443181818 82.2102273 9.89772727 81.1207386 9.89772727 81.1207386 0.443181818"></polygon>
                <path d="M87.2883523,2.80681818 L87.2883523,3.73011364 L83.6136364,3.73011364 L83.6136364,2.80681818 L87.2883523,2.80681818 Z M84.6846591,1.10795455 L85.7741477,1.10795455 L85.7741477,7.86647727 C85.7741477,8.17424242 85.8195431,8.40429688 85.9103338,8.55664062 C86.0011245,8.70898438 86.1180753,8.81054688 86.2611861,8.86132812 C86.4042969,8.91210938 86.5558712,8.9375 86.7159091,8.9375 C86.8359375,8.9375 86.9344223,8.93057528 87.0113636,8.91672585 C87.0883049,8.90287642 87.149858,8.89133523 87.1960227,8.88210227 L87.4176136,9.86079545 C87.34375,9.88849432 87.2406487,9.91696259 87.1083097,9.94620028 C86.9759706,9.97543797 86.8082386,9.99005682 86.6051136,9.99005682 C86.2973485,9.99005682 85.996508,9.92388731 85.7025923,9.7915483 C85.4086766,9.65920928 85.1655421,9.45762311 84.9731889,9.18678977 C84.7808357,8.91595644 84.6846591,8.57433712 84.6846591,8.16193182 L84.6846591,1.10795455 Z" id="Shape"></path>
                <path d="M93.8252841,4.39488636 L92.8465909,4.671875 C92.7850379,4.50875947 92.6950166,4.349491 92.576527,4.1940696 C92.4580374,4.0386482 92.2972301,3.91015625 92.0941051,3.80859375 C91.8909801,3.70703125 91.6309186,3.65625 91.3139205,3.65625 C90.8799716,3.65625 90.519117,3.75550426 90.2313565,3.95401278 C89.9435961,4.15252131 89.7997159,4.40411932 89.7997159,4.70880682 C89.7997159,4.97964015 89.8982008,5.19353693 90.0951705,5.35049716 C90.2921402,5.50745739 90.5999053,5.63825758 91.0184659,5.74289773 L92.0710227,6.00142045 C92.7050189,6.15530303 93.1774384,6.38997396 93.4882813,6.70543324 C93.7991241,7.02089252 93.9545455,7.42637311 93.9545455,7.921875 C93.9545455,8.328125 93.8383641,8.69128788 93.6060014,9.01136364 C93.3736387,9.33143939 93.0497159,9.58380682 92.634233,9.76846591 C92.21875,9.953125 91.7355587,10.0454545 91.1846591,10.0454545 C90.461411,10.0454545 89.8628078,9.88849432 89.3888494,9.57457386 C88.9148911,9.26065341 88.6148201,8.80208333 88.4886364,8.19886364 L89.5227273,7.94034091 C89.6212121,8.3219697 89.8081795,8.60819129 90.0836293,8.79900568 C90.3590791,8.98982008 90.7199337,9.08522727 91.1661932,9.08522727 C91.6740057,9.08522727 92.0779474,8.97674006 92.3780185,8.75976562 C92.6780895,8.54279119 92.828125,8.28196023 92.828125,7.97727273 C92.828125,7.73106061 92.7419508,7.52408854 92.5696023,7.35635653 C92.3972538,7.18862453 92.1325758,7.06321023 91.7755682,6.98011364 L90.59375,6.703125 C89.9443655,6.54924242 89.468099,6.30995502 89.1649503,5.98526278 C88.8618016,5.66057055 88.7102273,5.25355114 88.7102273,4.76420455 C88.7102273,4.36410985 88.823331,4.01017992 89.0495384,3.70241477 C89.2757457,3.39464962 89.5850497,3.15305398 89.9774503,2.97762784 C90.3698509,2.8022017 90.8153409,2.71448864 91.3139205,2.71448864 C92.015625,2.71448864 92.567294,2.86837121 92.9689276,3.17613636 C93.3705611,3.48390152 93.6560133,3.89015152 93.8252841,4.39488636 Z" id="Path"></path>
                <path d="M102.411932,2.80681818 L102.411932,3.73011364 L98.5894886,3.73011364 L98.5894886,2.80681818 L102.411932,2.80681818 Z M99.734375,9.89772727 L99.734375,1.828125 C99.734375,1.421875 99.8297822,1.08333333 100.020597,0.8125 C100.211411,0.541666667 100.459162,0.338541667 100.763849,0.203125 C101.068537,0.0677083333 101.390152,7.10542736e-15 101.728693,7.10542736e-15 C101.996449,7.10542736e-15 102.214962,0.0215435606 102.384233,0.0646306818 C102.553504,0.107717803 102.679688,0.147727273 102.762784,0.184659091 L102.448864,1.12642045 C102.393466,1.10795455 102.317294,1.08487216 102.220348,1.0571733 C102.123402,1.02947443 101.996449,1.015625 101.839489,1.015625 C101.479403,1.015625 101.220111,1.10641572 101.061612,1.28799716 C100.903113,1.4695786 100.823864,1.73579545 100.823864,2.08664773 L100.823864,9.89772727 L99.734375,9.89772727 Z" id="Shape"></path>
                <path d="M106.52983,10.0454545 C105.889678,10.0454545 105.328776,9.8931108 104.847124,9.5884233 C104.365471,9.2837358 103.989998,8.85748106 103.720703,8.30965909 C103.451409,7.76183712 103.316761,7.12168561 103.316761,6.38920455 C103.316761,5.65056818 103.451409,5.00580019 103.720703,4.45490057 C103.989998,3.90400095 104.365471,3.47620739 104.847124,3.17151989 C105.328776,2.86683239 105.889678,2.71448864 106.52983,2.71448864 C107.169981,2.71448864 107.730883,2.86683239 108.212536,3.17151989 C108.694188,3.47620739 109.069661,3.90400095 109.338956,4.45490057 C109.60825,5.00580019 109.742898,5.65056818 109.742898,6.38920455 C109.742898,7.12168561 109.60825,7.76183712 109.338956,8.30965909 C109.069661,8.85748106 108.694188,9.2837358 108.212536,9.5884233 C107.730883,9.8931108 107.169981,10.0454545 106.52983,10.0454545 Z M106.52983,9.06676136 C107.016098,9.06676136 107.416193,8.94211648 107.730114,8.6928267 C108.044034,8.44353693 108.276397,8.11576705 108.427202,7.70951705 C108.578007,7.30326705 108.653409,6.86316288 108.653409,6.38920455 C108.653409,5.91524621 108.578007,5.47360322 108.427202,5.06427557 C108.276397,4.65494792 108.044034,4.32410038 107.730114,4.07173295 C107.416193,3.81936553 107.016098,3.69318182 106.52983,3.69318182 C106.043561,3.69318182 105.643466,3.81936553 105.329545,4.07173295 C105.015625,4.32410038 104.783262,4.65494792 104.632457,5.06427557 C104.481652,5.47360322 104.40625,5.91524621 104.40625,6.38920455 C104.40625,6.86316288 104.481652,7.30326705 104.632457,7.70951705 C104.783262,8.11576705 105.015625,8.44353693 105.329545,8.6928267 C105.643466,8.94211648 106.043561,9.06676136 106.52983,9.06676136 Z" id="Shape"></path>
                <path d="M115.87358,6.99857955 L115.87358,2.80681818 L116.963068,2.80681818 L116.963068,9.89772727 L115.87358,9.89772727 L115.87358,8.69744318 L115.799716,8.69744318 C115.633523,9.05752841 115.375,9.36298532 115.024148,9.61381392 C114.673295,9.86464252 114.230114,9.99005682 113.694602,9.99005682 C113.25142,9.99005682 112.857481,9.89234138 112.512784,9.69691051 C112.168087,9.50147964 111.897254,9.20602509 111.700284,8.81054688 C111.503314,8.41506866 111.40483,7.9157197 111.40483,7.3125 L111.40483,2.80681818 L112.494318,2.80681818 L112.494318,7.23863636 C112.494318,7.75568182 112.639737,8.16808712 112.930575,8.47585227 C113.221413,8.78361742 113.59304,8.9375 114.045455,8.9375 C114.316288,8.9375 114.592507,8.86825284 114.874112,8.72975852 C115.155717,8.5912642 115.392696,8.37890625 115.58505,8.09268466 C115.777403,7.80646307 115.87358,7.44176136 115.87358,6.99857955 Z" id="Path"></path>
                <path d="M120.046875,5.63210227 L120.046875,9.89772727 L118.957386,9.89772727 L118.957386,2.80681818 L120.009943,2.80681818 L120.009943,3.91477273 L120.102273,3.91477273 C120.268466,3.5546875 120.520833,3.26461884 120.859375,3.04456676 C121.197917,2.82451468 121.634943,2.71448864 122.170455,2.71448864 C122.650568,2.71448864 123.070668,2.81220407 123.430753,3.00763494 C123.790838,3.20306581 124.070904,3.49852036 124.270952,3.89399858 C124.470999,4.2894768 124.571023,4.78882576 124.571023,5.39204545 L124.571023,9.89772727 L123.481534,9.89772727 L123.481534,5.46590909 C123.481534,4.90885417 123.336884,4.47413589 123.047585,4.16175426 C122.758286,3.84937263 122.361269,3.69318182 121.856534,3.69318182 C121.508759,3.69318182 121.198686,3.76858428 120.926314,3.9193892 C120.653942,4.07019413 120.439276,4.29024621 120.282315,4.57954545 C120.125355,4.8688447 120.046875,5.21969697 120.046875,5.63210227 Z" id="Path"></path>
                <path d="M129.242898,10.0454545 C128.651989,10.0454545 128.130327,9.89541903 127.677912,9.59534801 C127.225497,9.29527699 126.871567,8.87056108 126.616122,8.32120028 C126.360677,7.77183949 126.232955,7.12168561 126.232955,6.37073864 C126.232955,5.62594697 126.360677,4.97964015 126.616122,4.43181818 C126.871567,3.88399621 127.227036,3.46081913 127.682528,3.16228693 C128.138021,2.86375473 128.664299,2.71448864 129.261364,2.71448864 C129.723011,2.71448864 130.088482,2.79066051 130.357777,2.94300426 C130.627071,3.09534801 130.833274,3.2676965 130.976385,3.46004972 C131.119496,3.65240294 131.231061,3.81013258 131.31108,3.93323864 L131.403409,3.93323864 L131.403409,0.443181818 L132.492898,0.443181818 L132.492898,9.89772727 L131.440341,9.89772727 L131.440341,8.80823864 L131.31108,8.80823864 C131.231061,8.9375 131.117188,9.09984612 130.96946,9.29527699 C130.821733,9.49070786 130.610914,9.66459517 130.337003,9.81693892 C130.063092,9.96928267 129.69839,10.0454545 129.242898,10.0454545 Z M129.390625,9.06676136 C129.827652,9.06676136 130.19697,8.95211884 130.49858,8.72283381 C130.800189,8.49354877 131.029474,8.17501184 131.186435,7.76722301 C131.343395,7.35943419 131.421875,6.88778409 131.421875,6.35227273 C131.421875,5.82291667 131.344934,5.3589607 131.191051,4.96040483 C131.037169,4.56184896 130.809422,4.25100616 130.507812,4.02787642 C130.206203,3.80474669 129.833807,3.69318182 129.390625,3.69318182 C128.928977,3.69318182 128.54504,3.81090199 128.238814,4.04634233 C127.932588,4.28178267 127.703303,4.6003196 127.550959,5.00195312 C127.398615,5.40358665 127.322443,5.85369318 127.322443,6.35227273 C127.322443,6.85700758 127.400154,7.31480824 127.555575,7.72567472 C127.710997,8.13654119 127.941821,8.46277225 128.248047,8.7043679 C128.554273,8.94596354 128.935133,9.06676136 129.390625,9.06676136 Z" id="Shape"></path>
                <path d="M136.259943,8.60511364 L136.18608,9.10369318 C136.133759,9.45454545 136.05451,9.83001894 135.948331,10.2301136 C135.842152,10.6302083 135.732126,11.0072206 135.618253,11.3611506 C135.50438,11.7150805 135.410511,11.9966856 135.336648,12.2059659 L134.505682,12.2059659 C134.545691,12.0089962 134.598011,11.7489347 134.662642,11.4257812 C134.727273,11.1026278 134.792673,10.7417732 134.858842,10.3432173 C134.925012,9.94466146 134.97964,9.53764205 135.022727,9.12215909 L135.078125,8.60511364 L136.259943,8.60511364 Z" id="Path"></path>
                <path d="M0,32.5568182 L0,22.8068182 L1.05255682,22.8068182 L1.05255682,23.9332386 L1.18181818,23.9332386 C1.26183712,23.8101326 1.37340199,23.6524029 1.51651278,23.4600497 C1.65962358,23.2676965 1.86582623,23.095348 2.13512074,22.9430043 C2.40441525,22.7906605 2.76988636,22.7144886 3.23153409,22.7144886 C3.82859848,22.7144886 4.35487689,22.8637547 4.81036932,23.1622869 C5.26586174,23.4608191 5.62133049,23.8839962 5.87677557,24.4318182 C6.13222064,24.9796402 6.25994318,25.625947 6.25994318,26.3707386 C6.25994318,27.1216856 6.13222064,27.7718395 5.87677557,28.3212003 C5.62133049,28.8705611 5.26740057,29.295277 4.8149858,29.595348 C4.36257102,29.895419 3.84090909,30.0454545 3.25,30.0454545 C2.79450758,30.0454545 2.42980587,29.9692827 2.15589489,29.8169389 C1.8819839,29.6645952 1.67116477,29.4907079 1.5234375,29.295277 C1.37571023,29.0998461 1.26183712,28.9375 1.18181818,28.8082386 L1.08948864,28.8082386 L1.08948864,32.5568182 L0,32.5568182 Z M1.07102273,26.3522727 C1.07102273,26.8877841 1.14950284,27.3594342 1.30646307,27.767223 C1.4634233,28.1750118 1.69270833,28.4935488 1.99431818,28.7228338 C2.29592803,28.9521188 2.66524621,29.0667614 3.10227273,29.0667614 C3.55776515,29.0667614 3.93862453,28.9459635 4.24485085,28.7043679 C4.55107718,28.4627723 4.78190104,28.1365412 4.93732244,27.7256747 C5.09274384,27.3148082 5.17045455,26.8570076 5.17045455,26.3522727 C5.17045455,25.8536932 5.09428267,25.4035866 4.94193892,25.0019531 C4.78959517,24.6003196 4.56031013,24.2817827 4.25408381,24.0463423 C3.94785748,23.810902 3.56392045,23.6931818 3.10227273,23.6931818 C2.65909091,23.6931818 2.28669508,23.8047467 1.98508523,24.0278764 C1.68347538,24.2510062 1.45572917,24.561849 1.30184659,24.9604048 C1.14796402,25.3589607 1.07102273,25.8229167 1.07102273,26.3522727 Z" id="Shape"></path>
                <polygon id="Path" points="9.01136364 20.4431818 9.01136364 29.8977273 7.921875 29.8977273 7.921875 20.4431818"></polygon>
                <path d="M13.9786932,30.0454545 C13.2954545,30.0454545 12.7068537,29.8938802 12.2128906,29.5907315 C11.7189276,29.2875829 11.3388376,28.862867 11.0726207,28.3165838 C10.8064039,27.7703007 10.6732955,27.1339962 10.6732955,26.4076705 C10.6732955,25.6813447 10.8064039,25.0404238 11.0726207,24.4849077 C11.3388376,23.9293916 11.7112334,23.4954427 12.1898082,23.1830611 C12.668383,22.8706795 13.2277462,22.7144886 13.8678977,22.7144886 C14.2372159,22.7144886 14.6019176,22.7760417 14.9620028,22.8991477 C15.3220881,23.0222538 15.649858,23.2215317 15.9453125,23.4969815 C16.240767,23.7724313 16.4762074,24.1363636 16.6516335,24.5887784 C16.8270597,25.0411932 16.9147727,25.5982481 16.9147727,26.2599432 L16.9147727,26.7215909 L11.4488636,26.7215909 L11.4488636,25.7798295 L15.8068182,25.7798295 C15.8068182,25.3797348 15.7275687,25.0227273 15.5690696,24.7088068 C15.4105705,24.3948864 15.185902,24.1471354 14.8950639,23.965554 C14.6042259,23.7839725 14.2618371,23.6931818 13.8678977,23.6931818 C13.4339489,23.6931818 13.0592448,23.8001302 12.7437855,24.014027 C12.4283262,24.2279238 12.1859612,24.5056818 12.0166903,24.8473011 C11.8474195,25.1889205 11.7627841,25.555161 11.7627841,25.9460227 L11.7627841,26.5738636 C11.7627841,27.109375 11.855883,27.5625592 12.042081,27.9334162 C12.2282789,28.3042732 12.487571,28.5858783 12.8199574,28.7782315 C13.1523438,28.9705848 13.538589,29.0667614 13.9786932,29.0667614 C14.2649148,29.0667614 14.5242069,29.0259825 14.7565696,28.9444247 C14.9889323,28.862867 15.1897491,28.7397609 15.3590199,28.5751065 C15.5282907,28.4104522 15.6590909,28.2050189 15.7514205,27.9588068 L16.8039773,28.2542614 C16.6931818,28.6112689 16.5069839,28.92442 16.2453835,29.1937145 C15.9837831,29.463009 15.6606297,29.6722893 15.2759233,29.8215554 C14.8912169,29.9708215 14.4588068,30.0454545 13.9786932,30.0454545 Z" id="Path"></path>
                <path d="M20.6633523,30.0639205 C20.2140152,30.0639205 19.8062263,29.9785156 19.4399858,29.807706 C19.0737453,29.6368963 18.7829072,29.3891454 18.5674716,29.0644531 C18.352036,28.7397609 18.2443182,28.3465909 18.2443182,27.8849432 C18.2443182,27.4786932 18.3243371,27.1486151 18.484375,26.8947088 C18.6444129,26.6408026 18.8583097,26.4415246 19.1260653,26.296875 C19.393821,26.1522254 19.690045,26.0437382 20.0147372,25.9714134 C20.3394295,25.8990885 20.6664299,25.8413826 20.9957386,25.7982955 C21.4266098,25.7428977 21.7766927,25.70058 22.0459872,25.6713423 C22.3152817,25.6421046 22.5122514,25.5920928 22.6368963,25.5213068 C22.7615412,25.4505208 22.8238636,25.3274148 22.8238636,25.1519886 L22.8238636,25.1150568 C22.8238636,24.6595644 22.6999882,24.3056345 22.4522372,24.053267 C22.2044863,23.8008996 21.8297822,23.6747159 21.328125,23.6747159 C20.8080019,23.6747159 20.4002131,23.788589 20.1047585,24.0163352 C19.809304,24.2440814 19.6015625,24.4872159 19.4815341,24.7457386 L18.4474432,24.3764205 C18.6321023,23.9455492 18.8790838,23.6093158 19.1883878,23.3677202 C19.4976918,23.1261245 19.8362334,22.9568537 20.2040128,22.8599077 C20.5717921,22.7629616 20.9341856,22.7144886 21.2911932,22.7144886 C21.5189394,22.7144886 21.7813092,22.7414181 22.0783026,22.795277 C22.3752959,22.8491359 22.6630563,22.9591619 22.9415838,23.1253551 C23.2201113,23.2915483 23.4517045,23.5423769 23.6363636,23.8778409 C23.8210227,24.2133049 23.9133523,24.662642 23.9133523,25.2258523 L23.9133523,29.8977273 L22.8238636,29.8977273 L22.8238636,28.9375 L22.7684659,28.9375 C22.6946023,29.0913826 22.5714962,29.2560369 22.3991477,29.4314631 C22.2267992,29.6068892 21.9975142,29.7561553 21.7112926,29.8792614 C21.425071,30.0023674 21.0757576,30.0639205 20.6633523,30.0639205 Z M20.8295455,29.0852273 C21.2604167,29.0852273 21.624349,29.0005919 21.9213423,28.831321 C22.2183357,28.6620502 22.4430043,28.4435369 22.595348,28.1757812 C22.7476918,27.9080256 22.8238636,27.6264205 22.8238636,27.3309659 L22.8238636,26.3338068 C22.7776989,26.3892045 22.6769058,26.4392164 22.5214844,26.4838423 C22.366063,26.5284683 22.1875592,26.5669389 21.985973,26.5992543 C21.7843868,26.6315696 21.588956,26.6592685 21.3996804,26.6823509 C21.2104048,26.7054332 21.0572917,26.7246686 20.9403409,26.7400568 C20.657197,26.7769886 20.3932884,26.8362334 20.1486151,26.9177912 C19.9039418,26.999349 19.7069721,27.1209162 19.557706,27.2824929 C19.4084399,27.4440696 19.3338068,27.6633523 19.3338068,27.9403409 C19.3338068,28.318892 19.4746094,28.6043442 19.7562145,28.7966974 C20.0378196,28.9890507 20.3955966,29.0852273 20.8295455,29.0852273 Z" id="Shape"></path>
                <path d="M30.9303977,24.3948864 L29.9517045,24.671875 C29.8901515,24.5087595 29.8001302,24.349491 29.6816406,24.1940696 C29.563151,24.0386482 29.4023438,23.9101562 29.1992188,23.8085938 C28.9960938,23.7070312 28.7360322,23.65625 28.4190341,23.65625 C27.9850852,23.65625 27.6242306,23.7555043 27.3364702,23.9540128 C27.0487098,24.1525213 26.9048295,24.4041193 26.9048295,24.7088068 C26.9048295,24.9796402 27.0033144,25.1935369 27.2002841,25.3504972 C27.3972538,25.5074574 27.7050189,25.6382576 28.1235795,25.7428977 L29.1761364,26.0014205 C29.8101326,26.155303 30.2825521,26.389974 30.5933949,26.7054332 C30.9042377,27.0208925 31.0596591,27.4263731 31.0596591,27.921875 C31.0596591,28.328125 30.9434777,28.6912879 30.7111151,29.0113636 C30.4787524,29.3314394 30.1548295,29.5838068 29.7393466,29.7684659 C29.3238636,29.953125 28.8406723,30.0454545 28.2897727,30.0454545 C27.5665246,30.0454545 26.9679214,29.8884943 26.4939631,29.5745739 C26.0200047,29.2606534 25.7199337,28.8020833 25.59375,28.1988636 L26.6278409,27.9403409 C26.7263258,28.3219697 26.9132931,28.6081913 27.1887429,28.7990057 C27.4641927,28.9898201 27.8250473,29.0852273 28.2713068,29.0852273 C28.7791193,29.0852273 29.1830611,28.9767401 29.4831321,28.7597656 C29.7832031,28.5427912 29.9332386,28.2819602 29.9332386,27.9772727 C29.9332386,27.7310606 29.8470644,27.5240885 29.6747159,27.3563565 C29.5023674,27.1886245 29.2376894,27.0632102 28.8806818,26.9801136 L27.6988636,26.703125 C27.0494792,26.5492424 26.5732126,26.309955 26.2700639,25.9852628 C25.9669152,25.6605705 25.8153409,25.2535511 25.8153409,24.7642045 C25.8153409,24.3641098 25.9284446,24.0101799 26.154652,23.7024148 C26.3808594,23.3946496 26.6901634,23.153054 27.0825639,22.9776278 C27.4749645,22.8022017 27.9204545,22.7144886 28.4190341,22.7144886 C29.1207386,22.7144886 29.6724077,22.8683712 30.0740412,23.1761364 C30.4756747,23.4839015 30.7611269,23.8901515 30.9303977,24.3948864 Z" id="Path"></path>
                <path d="M35.6761364,30.0454545 C34.9928977,30.0454545 34.4042969,29.8938802 33.9103338,29.5907315 C33.4163707,29.2875829 33.0362808,28.862867 32.7700639,28.3165838 C32.5038471,27.7703007 32.3707386,27.1339962 32.3707386,26.4076705 C32.3707386,25.6813447 32.5038471,25.0404238 32.7700639,24.4849077 C33.0362808,23.9293916 33.4086766,23.4954427 33.8872514,23.1830611 C34.3658262,22.8706795 34.9251894,22.7144886 35.5653409,22.7144886 C35.9346591,22.7144886 36.2993608,22.7760417 36.659446,22.8991477 C37.0195312,23.0222538 37.3473011,23.2215317 37.6427557,23.4969815 C37.9382102,23.7724313 38.1736506,24.1363636 38.3490767,24.5887784 C38.5245028,25.0411932 38.6122159,25.5982481 38.6122159,26.2599432 L38.6122159,26.7215909 L33.1463068,26.7215909 L33.1463068,25.7798295 L37.5042614,25.7798295 C37.5042614,25.3797348 37.4250118,25.0227273 37.2665128,24.7088068 C37.1080137,24.3948864 36.8833452,24.1471354 36.5925071,23.965554 C36.301669,23.7839725 35.9592803,23.6931818 35.5653409,23.6931818 C35.131392,23.6931818 34.756688,23.8001302 34.4412287,24.014027 C34.1257694,24.2279238 33.8834044,24.5056818 33.7141335,24.8473011 C33.5448627,25.1889205 33.4602273,25.555161 33.4602273,25.9460227 L33.4602273,26.5738636 C33.4602273,27.109375 33.5533262,27.5625592 33.7395241,27.9334162 C33.9257221,28.3042732 34.1850142,28.5858783 34.5174006,28.7782315 C34.8497869,28.9705848 35.2360322,29.0667614 35.6761364,29.0667614 C35.962358,29.0667614 36.2216501,29.0259825 36.4540128,28.9444247 C36.6863755,28.862867 36.8871922,28.7397609 37.0564631,28.5751065 C37.2257339,28.4104522 37.3565341,28.2050189 37.4488636,27.9588068 L38.5014205,28.2542614 C38.390625,28.6112689 38.2044271,28.92442 37.9428267,29.1937145 C37.6812263,29.463009 37.3580729,29.6722893 36.9733665,29.8215554 C36.58866,29.9708215 36.15625,30.0454545 35.6761364,30.0454545 Z" id="Path"></path>
                <path d="M43.9303977,29.8977273 L43.9303977,22.8068182 L44.9829545,22.8068182 L44.9829545,23.8778409 L45.0568182,23.8778409 C45.1860795,23.5269886 45.4199811,23.2423059 45.7585227,23.0237926 C46.0970644,22.8052794 46.4786932,22.6960227 46.9034091,22.6960227 C46.983428,22.6960227 47.0834517,22.6975616 47.2034801,22.7006392 C47.3235085,22.7037169 47.4142992,22.7083333 47.4758523,22.7144886 L47.4758523,23.8224432 C47.4389205,23.8132102 47.3550545,23.7985914 47.2242543,23.7785866 C47.0934541,23.7585819 46.9557292,23.7485795 46.8110795,23.7485795 C46.4663826,23.7485795 46.1593868,23.8201349 45.8900923,23.9632457 C45.6207978,24.1063565 45.4084399,24.3033262 45.2530185,24.5541548 C45.0975971,24.8049834 45.0198864,25.0904356 45.0198864,25.4105114 L45.0198864,29.8977273 L43.9303977,29.8977273 Z" id="Path"></path>
                <path d="M51.5198864,30.0454545 C50.8366477,30.0454545 50.2480469,29.8938802 49.7540838,29.5907315 C49.2601207,29.2875829 48.8800308,28.862867 48.6138139,28.3165838 C48.3475971,27.7703007 48.2144886,27.1339962 48.2144886,26.4076705 C48.2144886,25.6813447 48.3475971,25.0404238 48.6138139,24.4849077 C48.8800308,23.9293916 49.2524266,23.4954427 49.7310014,23.1830611 C50.2095762,22.8706795 50.7689394,22.7144886 51.4090909,22.7144886 C51.7784091,22.7144886 52.1431108,22.7760417 52.503196,22.8991477 C52.8632812,23.0222538 53.1910511,23.2215317 53.4865057,23.4969815 C53.7819602,23.7724313 54.0174006,24.1363636 54.1928267,24.5887784 C54.3682528,25.0411932 54.4559659,25.5982481 54.4559659,26.2599432 L54.4559659,26.7215909 L48.9900568,26.7215909 L48.9900568,25.7798295 L53.3480114,25.7798295 C53.3480114,25.3797348 53.2687618,25.0227273 53.1102628,24.7088068 C52.9517637,24.3948864 52.7270952,24.1471354 52.4362571,23.965554 C52.145419,23.7839725 51.8030303,23.6931818 51.4090909,23.6931818 C50.975142,23.6931818 50.600438,23.8001302 50.2849787,24.014027 C49.9695194,24.2279238 49.7271544,24.5056818 49.5578835,24.8473011 C49.3886127,25.1889205 49.3039773,25.555161 49.3039773,25.9460227 L49.3039773,26.5738636 C49.3039773,27.109375 49.3970762,27.5625592 49.5832741,27.9334162 C49.7694721,28.3042732 50.0287642,28.5858783 50.3611506,28.7782315 C50.6935369,28.9705848 51.0797822,29.0667614 51.5198864,29.0667614 C51.806108,29.0667614 52.0654001,29.0259825 52.2977628,28.9444247 C52.5301255,28.862867 52.7309422,28.7397609 52.9002131,28.5751065 C53.0694839,28.4104522 53.2002841,28.2050189 53.2926136,27.9588068 L54.3451705,28.2542614 C54.234375,28.6112689 54.0481771,28.92442 53.7865767,29.1937145 C53.5249763,29.463009 53.2018229,29.6722893 52.8171165,29.8215554 C52.43241,29.9708215 52,30.0454545 51.5198864,30.0454545 Z" id="Path"></path>
                <path d="M56.1178977,32.5568182 L56.1178977,22.8068182 L57.1704545,22.8068182 L57.1704545,23.9332386 L57.2997159,23.9332386 C57.3797348,23.8101326 57.4912997,23.6524029 57.6344105,23.4600497 C57.7775213,23.2676965 57.983724,23.095348 58.2530185,22.9430043 C58.522313,22.7906605 58.8877841,22.7144886 59.3494318,22.7144886 C59.9464962,22.7144886 60.4727746,22.8637547 60.928267,23.1622869 C61.3837595,23.4608191 61.7392282,23.8839962 61.9946733,24.4318182 C62.2501184,24.9796402 62.3778409,25.625947 62.3778409,26.3707386 C62.3778409,27.1216856 62.2501184,27.7718395 61.9946733,28.3212003 C61.7392282,28.8705611 61.3852983,29.295277 60.9328835,29.595348 C60.4804687,29.895419 59.9588068,30.0454545 59.3678977,30.0454545 C58.9124053,30.0454545 58.5477036,29.9692827 58.2737926,29.8169389 C57.9998816,29.6645952 57.7890625,29.4907079 57.6413352,29.295277 C57.493608,29.0998461 57.3797348,28.9375 57.2997159,28.8082386 L57.2073864,28.8082386 L57.2073864,32.5568182 L56.1178977,32.5568182 Z M57.1889205,26.3522727 C57.1889205,26.8877841 57.2674006,27.3594342 57.4243608,27.767223 C57.581321,28.1750118 57.8106061,28.4935488 58.1122159,28.7228338 C58.4138258,28.9521188 58.7831439,29.0667614 59.2201705,29.0667614 C59.6756629,29.0667614 60.0565223,28.9459635 60.3627486,28.7043679 C60.6689749,28.4627723 60.8997988,28.1365412 61.0552202,27.7256747 C61.2106416,27.3148082 61.2883523,26.8570076 61.2883523,26.3522727 C61.2883523,25.8536932 61.2121804,25.4035866 61.0598366,25.0019531 C60.9074929,24.6003196 60.6782079,24.2817827 60.3719815,24.0463423 C60.0657552,23.810902 59.6818182,23.6931818 59.2201705,23.6931818 C58.7769886,23.6931818 58.4045928,23.8047467 58.102983,24.0278764 C57.8013731,24.2510062 57.5736269,24.561849 57.4197443,24.9604048 C57.2658617,25.3589607 57.1889205,25.8229167 57.1889205,26.3522727 Z" id="Shape"></path>
                <path d="M65.1292614,25.6321023 L65.1292614,29.8977273 L64.0397727,29.8977273 L64.0397727,20.4431818 L65.1292614,20.4431818 L65.1292614,23.9147727 L65.2215909,23.9147727 C65.3877841,23.5485322 65.6378433,23.2569247 65.9717685,23.0399503 C66.3056937,22.8229759 66.7511837,22.7144886 67.3082386,22.7144886 C67.7914299,22.7144886 68.214607,22.8106652 68.5777699,23.0030185 C68.9409328,23.1953717 69.2233073,23.4892874 69.4248935,23.8847656 C69.6264796,24.2802438 69.7272727,24.7826705 69.7272727,25.3920455 L69.7272727,29.8977273 L68.6377841,29.8977273 L68.6377841,25.4659091 C68.6377841,24.9026989 68.4923651,24.4664418 68.201527,24.1571378 C67.9106889,23.8478338 67.508286,23.6931818 66.9943182,23.6931818 C66.6373106,23.6931818 66.3180043,23.7685843 66.0363991,23.9193892 C65.754794,24.0701941 65.5332031,24.2902462 65.3716264,24.5795455 C65.2100497,24.8688447 65.1292614,25.219697 65.1292614,25.6321023 Z" id="Path"></path>
                <path d="M71.7215909,29.8977273 L71.7215909,22.8068182 L72.7741477,22.8068182 L72.7741477,23.8778409 L72.8480114,23.8778409 C72.9772727,23.5269886 73.2111742,23.2423059 73.5497159,23.0237926 C73.8882576,22.8052794 74.2698864,22.6960227 74.6946023,22.6960227 C74.7746212,22.6960227 74.8746449,22.6975616 74.9946733,22.7006392 C75.1147017,22.7037169 75.2054924,22.7083333 75.2670455,22.7144886 L75.2670455,23.8224432 C75.2301136,23.8132102 75.1462476,23.7985914 75.0154474,23.7785866 C74.8846473,23.7585819 74.7469223,23.7485795 74.6022727,23.7485795 C74.2575758,23.7485795 73.95058,23.8201349 73.6812855,23.9632457 C73.411991,24.1063565 73.199633,24.3033262 73.0442116,24.5541548 C72.8887902,24.8049834 72.8110795,25.0904356 72.8110795,25.4105114 L72.8110795,29.8977273 L71.7215909,29.8977273 Z" id="Path"></path>
                <path d="M78.6463068,30.0639205 C78.1969697,30.0639205 77.7891809,29.9785156 77.4229403,29.807706 C77.0566998,29.6368963 76.7658617,29.3891454 76.5504261,29.0644531 C76.3349905,28.7397609 76.2272727,28.3465909 76.2272727,27.8849432 C76.2272727,27.4786932 76.3072917,27.1486151 76.4673295,26.8947088 C76.6273674,26.6408026 76.8412642,26.4415246 77.1090199,26.296875 C77.3767756,26.1522254 77.6729995,26.0437382 77.9976918,25.9714134 C78.322384,25.8990885 78.6493845,25.8413826 78.9786932,25.7982955 C79.4095644,25.7428977 79.7596473,25.70058 80.0289418,25.6713423 C80.2982363,25.6421046 80.495206,25.5920928 80.6198509,25.5213068 C80.7444957,25.4505208 80.8068182,25.3274148 80.8068182,25.1519886 L80.8068182,25.1150568 C80.8068182,24.6595644 80.6829427,24.3056345 80.4351918,24.053267 C80.1874408,23.8008996 79.8127367,23.6747159 79.3110795,23.6747159 C78.7909564,23.6747159 78.3831676,23.788589 78.0877131,24.0163352 C77.7922585,24.2440814 77.584517,24.4872159 77.4644886,24.7457386 L76.4303977,24.3764205 C76.6150568,23.9455492 76.8620384,23.6093158 77.1713423,23.3677202 C77.4806463,23.1261245 77.819188,22.9568537 78.1869673,22.8599077 C78.5547467,22.7629616 78.9171402,22.7144886 79.2741477,22.7144886 C79.5018939,22.7144886 79.7642637,22.7414181 80.0612571,22.795277 C80.3582505,22.8491359 80.6460109,22.9591619 80.9245384,23.1253551 C81.2030658,23.2915483 81.4346591,23.5423769 81.6193182,23.8778409 C81.8039773,24.2133049 81.8963068,24.662642 81.8963068,25.2258523 L81.8963068,29.8977273 L80.8068182,29.8977273 L80.8068182,28.9375 L80.7514205,28.9375 C80.6775568,29.0913826 80.5544508,29.2560369 80.3821023,29.4314631 C80.2097538,29.6068892 79.9804688,29.7561553 79.6942472,29.8792614 C79.4080256,30.0023674 79.0587121,30.0639205 78.6463068,30.0639205 Z M78.8125,29.0852273 C79.2433712,29.0852273 79.6073035,29.0005919 79.9042969,28.831321 C80.2012902,28.6620502 80.4259588,28.4435369 80.5783026,28.1757812 C80.7306463,27.9080256 80.8068182,27.6264205 80.8068182,27.3309659 L80.8068182,26.3338068 C80.7606534,26.3892045 80.6598603,26.4392164 80.5044389,26.4838423 C80.3490175,26.5284683 80.1705137,26.5669389 79.9689276,26.5992543 C79.7673414,26.6315696 79.5719105,26.6592685 79.3826349,26.6823509 C79.1933594,26.7054332 79.0402462,26.7246686 78.9232955,26.7400568 C78.6401515,26.7769886 78.3762429,26.8362334 78.1315696,26.9177912 C77.8868963,26.999349 77.6899266,27.1209162 77.5406605,27.2824929 C77.3913944,27.4440696 77.3167614,27.6633523 77.3167614,27.9403409 C77.3167614,28.318892 77.4575639,28.6043442 77.739169,28.7966974 C78.0207741,28.9890507 78.3785511,29.0852273 78.8125,29.0852273 Z" id="Shape"></path>
                <path d="M88.9133523,24.3948864 L87.9346591,24.671875 C87.8731061,24.5087595 87.7830848,24.349491 87.6645952,24.1940696 C87.5461056,24.0386482 87.3852983,23.9101562 87.1821733,23.8085938 C86.9790483,23.7070312 86.7189867,23.65625 86.4019886,23.65625 C85.9680398,23.65625 85.6071851,23.7555043 85.3194247,23.9540128 C85.0316643,24.1525213 84.8877841,24.4041193 84.8877841,24.7088068 C84.8877841,24.9796402 84.9862689,25.1935369 85.1832386,25.3504972 C85.3802083,25.5074574 85.6879735,25.6382576 86.1065341,25.7428977 L87.1590909,26.0014205 C87.7930871,26.155303 88.2655066,26.389974 88.5763494,26.7054332 C88.8871922,27.0208925 89.0426136,27.4263731 89.0426136,27.921875 C89.0426136,28.328125 88.9264323,28.6912879 88.6940696,29.0113636 C88.4617069,29.3314394 88.1377841,29.5838068 87.7223011,29.7684659 C87.3068182,29.953125 86.8236269,30.0454545 86.2727273,30.0454545 C85.5494792,30.0454545 84.9508759,29.8884943 84.4769176,29.5745739 C84.0029593,29.2606534 83.7028883,28.8020833 83.5767045,28.1988636 L84.6107955,27.9403409 C84.7092803,28.3219697 84.8962476,28.6081913 85.1716974,28.7990057 C85.4471473,28.9898201 85.8080019,29.0852273 86.2542614,29.0852273 C86.7620739,29.0852273 87.1660156,28.9767401 87.4660866,28.7597656 C87.7661577,28.5427912 87.9161932,28.2819602 87.9161932,27.9772727 C87.9161932,27.7310606 87.8300189,27.5240885 87.6576705,27.3563565 C87.485322,27.1886245 87.2206439,27.0632102 86.8636364,26.9801136 L85.6818182,26.703125 C85.0324337,26.5492424 84.5561671,26.309955 84.2530185,25.9852628 C83.9498698,25.6605705 83.7982955,25.2535511 83.7982955,24.7642045 C83.7982955,24.3641098 83.9113991,24.0101799 84.1376065,23.7024148 C84.3638139,23.3946496 84.6731179,23.153054 85.0655185,22.9776278 C85.457919,22.8022017 85.9034091,22.7144886 86.4019886,22.7144886 C87.1036932,22.7144886 87.6553622,22.8683712 88.0569957,23.1761364 C88.4586293,23.4839015 88.7440814,23.8901515 88.9133523,24.3948864 Z" id="Path"></path>
                <path d="M93.6590909,30.0454545 C92.9758523,30.0454545 92.3872514,29.8938802 91.8932884,29.5907315 C91.3993253,29.2875829 91.0192353,28.862867 90.7530185,28.3165838 C90.4868016,27.7703007 90.3536932,27.1339962 90.3536932,26.4076705 C90.3536932,25.6813447 90.4868016,25.0404238 90.7530185,24.4849077 C91.0192353,23.9293916 91.3916312,23.4954427 91.870206,23.1830611 C92.3487808,22.8706795 92.9081439,22.7144886 93.5482955,22.7144886 C93.9176136,22.7144886 94.2823153,22.7760417 94.6424006,22.8991477 C95.0024858,23.0222538 95.3302557,23.2215317 95.6257102,23.4969815 C95.9211648,23.7724313 96.1566051,24.1363636 96.3320313,24.5887784 C96.5074574,25.0411932 96.5951705,25.5982481 96.5951705,26.2599432 L96.5951705,26.7215909 L91.1292614,26.7215909 L91.1292614,25.7798295 L95.4872159,25.7798295 C95.4872159,25.3797348 95.4079664,25.0227273 95.2494673,24.7088068 C95.0909683,24.3948864 94.8662997,24.1471354 94.5754616,23.965554 C94.2846236,23.7839725 93.9422348,23.6931818 93.5482955,23.6931818 C93.1143466,23.6931818 92.7396425,23.8001302 92.4241832,24.014027 C92.108724,24.2279238 91.8663589,24.5056818 91.6970881,24.8473011 C91.5278172,25.1889205 91.4431818,25.555161 91.4431818,25.9460227 L91.4431818,26.5738636 C91.4431818,27.109375 91.5362808,27.5625592 91.7224787,27.9334162 C91.9086766,28.3042732 92.1679688,28.5858783 92.5003551,28.7782315 C92.8327415,28.9705848 93.2189867,29.0667614 93.6590909,29.0667614 C93.9453125,29.0667614 94.2046046,29.0259825 94.4369673,28.9444247 C94.66933,28.862867 94.8701468,28.7397609 95.0394176,28.5751065 C95.2086884,28.4104522 95.3394886,28.2050189 95.4318182,27.9588068 L96.484375,28.2542614 C96.3735795,28.6112689 96.1873816,28.92442 95.9257813,29.1937145 C95.6641809,29.463009 95.3410275,29.6722893 94.956321,29.8215554 C94.5716146,29.9708215 94.1392045,30.0454545 93.6590909,30.0454545 Z" id="Path"></path>
                <path d="M102.615057,32.5568182 C102.430398,32.5568182 102.265743,32.5421993 102.121094,32.5129616 C101.976444,32.483724 101.87642,32.4552557 101.821023,32.4275568 L102.098011,31.4673295 C102.362689,31.5350379 102.596591,31.5596591 102.799716,31.5411932 C103.002841,31.5227273 103.183653,31.432706 103.342152,31.2711293 C103.500651,31.1095526 103.64607,30.8487216 103.778409,30.4886364 L103.981534,29.9346591 L101.359375,22.8068182 L102.541193,22.8068182 L104.49858,28.4573864 L104.572443,28.4573864 L106.52983,22.8068182 L107.711648,22.8068182 L104.701705,30.9318182 C104.566288,31.2980587 104.398556,31.6019768 104.198509,31.8435724 C103.998461,32.0851681 103.766868,32.2644413 103.503729,32.381392 C103.240589,32.4983428 102.944366,32.5568182 102.615057,32.5568182 Z" id="Path"></path>
                <path d="M111.774148,30.0454545 C111.133996,30.0454545 110.573094,29.8931108 110.091442,29.5884233 C109.609789,29.2837358 109.234316,28.8574811 108.965021,28.3096591 C108.695727,27.7618371 108.56108,27.1216856 108.56108,26.3892045 C108.56108,25.6505682 108.695727,25.0058002 108.965021,24.4549006 C109.234316,23.9040009 109.609789,23.4762074 110.091442,23.1715199 C110.573094,22.8668324 111.133996,22.7144886 111.774148,22.7144886 C112.414299,22.7144886 112.975201,22.8668324 113.456854,23.1715199 C113.938506,23.4762074 114.31398,23.9040009 114.583274,24.4549006 C114.852569,25.0058002 114.987216,25.6505682 114.987216,26.3892045 C114.987216,27.1216856 114.852569,27.7618371 114.583274,28.3096591 C114.31398,28.8574811 113.938506,29.2837358 113.456854,29.5884233 C112.975201,29.8931108 112.414299,30.0454545 111.774148,30.0454545 Z M111.774148,29.0667614 C112.260417,29.0667614 112.660511,28.9421165 112.974432,28.6928267 C113.288352,28.4435369 113.520715,28.115767 113.67152,27.709517 C113.822325,27.303267 113.897727,26.8631629 113.897727,26.3892045 C113.897727,25.9152462 113.822325,25.4736032 113.67152,25.0642756 C113.520715,24.6549479 113.288352,24.3241004 112.974432,24.071733 C112.660511,23.8193655 112.260417,23.6931818 111.774148,23.6931818 C111.287879,23.6931818 110.887784,23.8193655 110.573864,24.071733 C110.259943,24.3241004 110.02758,24.6549479 109.876776,25.0642756 C109.725971,25.4736032 109.650568,25.9152462 109.650568,26.3892045 C109.650568,26.8631629 109.725971,27.303267 109.876776,27.709517 C110.02758,28.115767 110.259943,28.4435369 110.573864,28.6928267 C110.887784,28.9421165 111.287879,29.0667614 111.774148,29.0667614 Z" id="Shape"></path>
                <path d="M121.117898,26.9985795 L121.117898,22.8068182 L122.207386,22.8068182 L122.207386,29.8977273 L121.117898,29.8977273 L121.117898,28.6974432 L121.044034,28.6974432 C120.877841,29.0575284 120.619318,29.3629853 120.268466,29.6138139 C119.917614,29.8646425 119.474432,29.9900568 118.93892,29.9900568 C118.495739,29.9900568 118.101799,29.8923414 117.757102,29.6969105 C117.412405,29.5014796 117.141572,29.2060251 116.944602,28.8105469 C116.747633,28.4150687 116.649148,27.9157197 116.649148,27.3125 L116.649148,22.8068182 L117.738636,22.8068182 L117.738636,27.2386364 C117.738636,27.7556818 117.884055,28.1680871 118.174893,28.4758523 C118.465732,28.7836174 118.837358,28.9375 119.289773,28.9375 C119.560606,28.9375 119.836825,28.8682528 120.11843,28.7297585 C120.400036,28.5912642 120.637015,28.3789063 120.829368,28.0926847 C121.021721,27.8064631 121.117898,27.4417614 121.117898,26.9985795 Z" id="Path"></path>
                <path d="M124.201705,29.8977273 L124.201705,22.8068182 L125.254261,22.8068182 L125.254261,23.8778409 L125.328125,23.8778409 C125.457386,23.5269886 125.691288,23.2423059 126.02983,23.0237926 C126.368371,22.8052794 126.75,22.6960227 127.174716,22.6960227 C127.254735,22.6960227 127.354759,22.6975616 127.474787,22.7006392 C127.594815,22.7037169 127.685606,22.7083333 127.747159,22.7144886 L127.747159,23.8224432 C127.710227,23.8132102 127.626361,23.7985914 127.495561,23.7785866 C127.364761,23.7585819 127.227036,23.7485795 127.082386,23.7485795 C126.737689,23.7485795 126.430694,23.8201349 126.161399,23.9632457 C125.892105,24.1063565 125.679747,24.3033262 125.524325,24.5541548 C125.368904,24.8049834 125.291193,25.0904356 125.291193,25.4105114 L125.291193,29.8977273 L124.201705,29.8977273 Z" id="Path"></path>
                <path d="M137.534091,32.5568182 L137.534091,28.8082386 L137.441761,28.8082386 C137.361742,28.9375 137.247869,29.0998461 137.100142,29.295277 C136.952415,29.4907079 136.741596,29.6645952 136.467685,29.8169389 C136.193774,29.9692827 135.829072,30.0454545 135.37358,30.0454545 C134.78267,30.0454545 134.261009,29.895419 133.808594,29.595348 C133.356179,29.295277 133.002249,28.8705611 132.746804,28.3212003 C132.491359,27.7718395 132.363636,27.1216856 132.363636,26.3707386 C132.363636,25.625947 132.491359,24.9796402 132.746804,24.4318182 C133.002249,23.8839962 133.357718,23.4608191 133.81321,23.1622869 C134.268703,22.8637547 134.794981,22.7144886 135.392045,22.7144886 C135.853693,22.7144886 136.219164,22.7906605 136.488459,22.9430043 C136.757753,23.095348 136.963956,23.2676965 137.107067,23.4600497 C137.250178,23.6524029 137.361742,23.8101326 137.441761,23.9332386 L137.571023,23.9332386 L137.571023,22.8068182 L138.62358,22.8068182 L138.62358,32.5568182 L137.534091,32.5568182 Z M135.521307,29.0667614 C135.958333,29.0667614 136.327652,28.9521188 136.629261,28.7228338 C136.930871,28.4935488 137.160156,28.1750118 137.317116,27.767223 C137.474077,27.3594342 137.552557,26.8877841 137.552557,26.3522727 C137.552557,25.8229167 137.475616,25.3589607 137.321733,24.9604048 C137.16785,24.561849 136.940104,24.2510062 136.638494,24.0278764 C136.336884,23.8047467 135.964489,23.6931818 135.521307,23.6931818 C135.059659,23.6931818 134.675722,23.810902 134.369496,24.0463423 C134.063269,24.2817827 133.833984,24.6003196 133.681641,25.0019531 C133.529297,25.4035866 133.453125,25.8536932 133.453125,26.3522727 C133.453125,26.8570076 133.530836,27.3148082 133.686257,27.7256747 C133.841679,28.1365412 134.072502,28.4627723 134.378729,28.7043679 C134.684955,28.9459635 135.065814,29.0667614 135.521307,29.0667614 Z" id="Shape"></path>
                <path d="M145.086648,26.9985795 L145.086648,22.8068182 L146.176136,22.8068182 L146.176136,29.8977273 L145.086648,29.8977273 L145.086648,28.6974432 L145.012784,28.6974432 C144.846591,29.0575284 144.588068,29.3629853 144.237216,29.6138139 C143.886364,29.8646425 143.443182,29.9900568 142.90767,29.9900568 C142.464489,29.9900568 142.070549,29.8923414 141.725852,29.6969105 C141.381155,29.5014796 141.110322,29.2060251 140.913352,28.8105469 C140.716383,28.4150687 140.617898,27.9157197 140.617898,27.3125 L140.617898,22.8068182 L141.707386,22.8068182 L141.707386,27.2386364 C141.707386,27.7556818 141.852805,28.1680871 142.143643,28.4758523 C142.434482,28.7836174 142.806108,28.9375 143.258523,28.9375 C143.529356,28.9375 143.805575,28.8682528 144.08718,28.7297585 C144.368786,28.5912642 144.605765,28.3789063 144.798118,28.0926847 C144.990471,27.8064631 145.086648,27.4417614 145.086648,26.9985795 Z" id="Path"></path>
                <path d="M151.143466,30.0454545 C150.460227,30.0454545 149.871626,29.8938802 149.377663,29.5907315 C148.8837,29.2875829 148.50361,28.862867 148.237393,28.3165838 C147.971177,27.7703007 147.838068,27.1339962 147.838068,26.4076705 C147.838068,25.6813447 147.971177,25.0404238 148.237393,24.4849077 C148.50361,23.9293916 148.876006,23.4954427 149.354581,23.1830611 C149.833156,22.8706795 150.392519,22.7144886 151.03267,22.7144886 C151.401989,22.7144886 151.76669,22.7760417 152.126776,22.8991477 C152.486861,23.0222538 152.814631,23.2215317 153.110085,23.4969815 C153.40554,23.7724313 153.64098,24.1363636 153.816406,24.5887784 C153.991832,25.0411932 154.079545,25.5982481 154.079545,26.2599432 L154.079545,26.7215909 L148.613636,26.7215909 L148.613636,25.7798295 L152.971591,25.7798295 C152.971591,25.3797348 152.892341,25.0227273 152.733842,24.7088068 C152.575343,24.3948864 152.350675,24.1471354 152.059837,23.965554 C151.768999,23.7839725 151.42661,23.6931818 151.03267,23.6931818 C150.598722,23.6931818 150.224018,23.8001302 149.908558,24.014027 C149.593099,24.2279238 149.350734,24.5056818 149.181463,24.8473011 C149.012192,25.1889205 148.927557,25.555161 148.927557,25.9460227 L148.927557,26.5738636 C148.927557,27.109375 149.020656,27.5625592 149.206854,27.9334162 C149.393052,28.3042732 149.652344,28.5858783 149.98473,28.7782315 C150.317116,28.9705848 150.703362,29.0667614 151.143466,29.0667614 C151.429688,29.0667614 151.68898,29.0259825 151.921342,28.9444247 C152.153705,28.862867 152.354522,28.7397609 152.523793,28.5751065 C152.693063,28.4104522 152.823864,28.2050189 152.916193,27.9588068 L153.96875,28.2542614 C153.857955,28.6112689 153.671757,28.92442 153.410156,29.1937145 C153.148556,29.463009 152.825402,29.6722893 152.440696,29.8215554 C152.05599,29.9708215 151.62358,30.0454545 151.143466,30.0454545 Z" id="Path"></path>
                <path d="M155.741477,29.8977273 L155.741477,22.8068182 L156.794034,22.8068182 L156.794034,23.8778409 L156.867898,23.8778409 C156.997159,23.5269886 157.231061,23.2423059 157.569602,23.0237926 C157.908144,22.8052794 158.289773,22.6960227 158.714489,22.6960227 C158.794508,22.6960227 158.894531,22.6975616 159.01456,22.7006392 C159.134588,22.7037169 159.225379,22.7083333 159.286932,22.7144886 L159.286932,23.8224432 C159.25,23.8132102 159.166134,23.7985914 159.035334,23.7785866 C158.904534,23.7585819 158.766809,23.7485795 158.622159,23.7485795 C158.277462,23.7485795 157.970466,23.8201349 157.701172,23.9632457 C157.431877,24.1063565 157.219519,24.3033262 157.064098,24.5541548 C156.908677,24.8049834 156.830966,25.0904356 156.830966,25.4105114 L156.830966,29.8977273 L155.741477,29.8977273 Z" id="Path"></path>
                <path d="M161.502841,32.5568182 C161.318182,32.5568182 161.153527,32.5421993 161.008878,32.5129616 C160.864228,32.483724 160.764205,32.4552557 160.708807,32.4275568 L160.985795,31.4673295 C161.250473,31.5350379 161.484375,31.5596591 161.6875,31.5411932 C161.890625,31.5227273 162.071437,31.432706 162.229936,31.2711293 C162.388435,31.1095526 162.533854,30.8487216 162.666193,30.4886364 L162.869318,29.9346591 L160.247159,22.8068182 L161.428977,22.8068182 L163.386364,28.4573864 L163.460227,28.4573864 L165.417614,22.8068182 L166.599432,22.8068182 L163.589489,30.9318182 C163.454072,31.2980587 163.28634,31.6019768 163.086293,31.8435724 C162.886245,32.0851681 162.654652,32.2644413 162.391513,32.381392 C162.128374,32.4983428 161.83215,32.5568182 161.502841,32.5568182 Z" id="Path"></path>
                <path d="M169.480114,20.4431818 L169.387784,27.2386364 L168.316761,27.2386364 L168.224432,20.4431818 L169.480114,20.4431818 Z M168.852273,29.9715909 C168.624527,29.9715909 168.429096,29.8900331 168.26598,29.7269176 C168.102865,29.5638021 168.021307,29.3683712 168.021307,29.140625 C168.021307,28.9128788 168.102865,28.7174479 168.26598,28.5543324 C168.429096,28.3912169 168.624527,28.3096591 168.852273,28.3096591 C169.080019,28.3096591 169.27545,28.3912169 169.438565,28.5543324 C169.601681,28.7174479 169.683239,28.9128788 169.683239,29.140625 C169.683239,29.2914299 169.645537,29.4299242 169.570135,29.556108 C169.494732,29.6822917 169.394709,29.7830848 169.270064,29.8584872 C169.145419,29.9338897 169.006155,29.9715909 168.852273,29.9715909 Z" id="Shape"></path>
            </g>
        </g>
    </g>
</svg>