<svg width="40" height="40" viewBox="0 0 40 40" fill="none" xmlns="http://www.w3.org/2000/svg">
<path d="M15.15 14.25V25.75C15.15 26.35 15.4083 26.8 15.925 27.1C16.4417 27.4 16.95 27.3833 17.45 27.05L26.5 21.25C26.9667 20.95 27.2 20.5333 27.2 20C27.2 19.4667 26.9667 19.05 26.5 18.75L17.45 12.95C16.95 12.6167 16.4417 12.6 15.925 12.9C15.4083 13.2 15.15 13.65 15.15 14.25ZM20 40C17.2667 40 14.6833 39.475 12.25 38.425C9.81667 37.375 7.69167 35.9417 5.875 34.125C4.05833 32.3083 2.625 30.1833 1.575 27.75C0.525 25.3167 0 22.7333 0 20C0 17.2667 0.525 14.6833 1.575 12.25C2.625 9.81667 4.05833 7.69167 5.875 5.875C7.69167 4.05833 9.81667 2.625 12.25 1.575C14.6833 0.525 17.2667 0 20 0C22.7333 0 25.3167 0.525 27.75 1.575C30.1833 2.625 32.3083 4.05833 34.125 5.875C35.9417 7.69167 37.375 9.81667 38.425 12.25C39.475 14.6833 40 17.2667 40 20C40 22.7333 39.475 25.3167 38.425 27.75C37.375 30.1833 35.9417 32.3083 34.125 34.125C32.3083 35.9417 30.1833 37.375 27.75 38.425C25.3167 39.475 22.7333 40 20 40ZM20 37C24.6667 37 28.6667 35.3333 32 32C35.3333 28.6667 37 24.6667 37 20C37 15.3333 35.3333 11.3333 32 8C28.6667 4.66667 24.6667 3 20 3C15.3333 3 11.3333 4.66667 8 8C4.66667 11.3333 3 15.3333 3 20C3 24.6667 4.66667 28.6667 8 32C11.3333 35.3333 15.3333 37 20 37Z" fill="#5C5C5C"/>
</svg>
