<svg xmlns="http://www.w3.org/2000/svg" width="18" height="16" stroke="#101d32" fill="none" xmlns:v="https://vecta.io/nano"><path d="M3.5 4.5h2m-2 2h3m-3 2h1m-1 2h3" stroke-linecap="round"/><g stroke-width="1.75"><path d="M9 1.842v11.789"/><path d="M9 2.167C5.608.151 2.486 1.18 1.177 2.044 1.063 2.119 1 2.25 1 2.389v11.516c0 .371.434.58.738.379 2.625-1.733 5.701-.89 7.126.043a.22.22 0 0 0 .262-.016c2.455-2.06 5.484-.918 7.194.1a.45.45 0 0 0 .679-.385V2.404c0-.147-.073-.286-.196-.362C13.659.103 10.306 1.304 9 2.167z"/></g></svg>