<svg xmlns="http://www.w3.org/2000/svg" width="31.737" height="18.835" xmlns:v="https://vecta.io/nano"><g fill="none" stroke-width="1.5" stroke="#c72c48"><path d="M3.464 14.617h24.809" stroke-dasharray="0.5 0.5"/><path d="M30.979 18.085H.75v-7.341a3.44 3.44 0 0 0 1.541-2.871c0-1.155-.578-2.233-1.541-2.871V1.749a1 1 0 0 1 1-1h28.264a.97.97 0 0 1 .973.969h0v3.328c-.925.643-1.477 1.698-1.478 2.824s.553 2.182 1.478 2.826z" stroke-miterlimit="10"/></g><g fill="#c72c48" stroke-width=".6"><rect width=".979" height="5.58" rx=".489" stroke="#c72c48" x="7.197" y="4.686"/><rect width=".979" height="5.58" rx=".489" stroke="#c72c48" x="12.232" y="4.686"/><rect width=".979" height="5.58" rx=".489" stroke="#c72c48" x="17.267" y="4.686"/><rect width=".979" height="5.58" rx=".489" stroke="#c72c48" x="22.302" y="4.686"/></g></svg>