<svg xmlns="http://www.w3.org/2000/svg" width="31.737" height="18.835" viewBox="0 0 31.737 18.835"><defs><style>.a,.b{fill:none;stroke-width:1.5px;}.a,.b,.c{stroke:#c72c48;}.a{stroke-dasharray:0.5 0.5;}.b{stroke-miterlimit:10;}.c{fill:#c72c48;stroke-width:0.6px;}</style></defs><g transform="translate(-6646.893 4989.998)"><path class="a" d="M6651.417-4975.223h24.809" transform="translate(-1.06 -0.158)"/><path class="b" d="M6677.872-4971.913h-30.229v-7.341a3.438,3.438,0,0,0,1.541-2.871,3.443,3.443,0,0,0-1.541-2.871v-3.253a1,1,0,0,1,1-1h28.264a.971.971,0,0,1,.973.969h0v3.328a3.444,3.444,0,0,0-1.478,2.824,3.447,3.447,0,0,0,1.478,2.826Z" transform="translate(0 0)"/><rect class="c" width="0.979" height="5.58" rx="0.489" transform="translate(6654.09 -4985.312)"/><rect class="c" width="0.979" height="5.58" rx="0.489" transform="translate(6659.125 -4985.312)"/><rect class="c" width="0.979" height="5.58" rx="0.489" transform="translate(6664.16 -4985.312)"/><rect class="c" width="0.979" height="5.58" rx="0.489" transform="translate(6669.195 -4985.312)"/></g></svg>