<?xml version="1.0" encoding="UTF-8"?>
<svg width="14px" height="14px" viewBox="0 0 14 14" version="1.1" xmlns="http://www.w3.org/2000/svg" xmlns:xlink="http://www.w3.org/1999/xlink">
    <title>Group 5</title>
    <g id="Page-1" stroke="none" stroke-width="1" fill="none" fill-rule="evenodd">
        <g id="Group-5" fill="#393939">
            <path d="M10.8884339,10.3384631 L13.8860966,13.3361237 C14.0379662,13.4879949 14.0379662,13.7342254 13.8860966,13.8860966 C13.7342254,14.0379662 13.4879949,14.0379662 13.3361237,13.8860966 L10.3384631,10.8884339 C9.24152445,11.8568263 7.80049614,12.4444436 6.22222171,12.4444436 C2.7857837,12.4444436 -1.40000023e-07,9.65865971 -1.40000023e-07,6.22222171 C-1.40000023e-07,2.7857837 2.7857837,-1.40000023e-07 6.22222171,-1.40000023e-07 C9.65865971,-1.40000023e-07 12.4444436,2.7857837 12.4444436,6.22222171 C12.4444436,7.80049614 11.8568263,9.24152445 10.8884339,10.3384631 Z M6.22222171,11.6666658 C9.22910536,11.6666658 11.6666658,9.22910536 11.6666658,6.22222171 C11.6666658,3.21533806 9.22910536,0.777777591 6.22222171,0.777777591 C3.21533806,0.777777591 0.777777591,3.21533806 0.777777591,6.22222171 C0.777777591,9.22910536 3.21533806,11.6666658 6.22222171,11.6666658 Z" id="Fill-3"></path>
        </g>
    </g>
</svg>