<?xml version="1.0" encoding="UTF-8" standalone="no"?>
<svg
   id="a"
   viewBox="0 0 645.33 414.16"
   version="1.1"
   sodipodi:docname="availability-multi-site-proxy.svg"
   inkscape:version="1.2.2 (b0a8486541, 2022-12-01)"
   xmlns:inkscape="http://www.inkscape.org/namespaces/inkscape"
   xmlns:sodipodi="http://sodipodi.sourceforge.net/DTD/sodipodi-0.dtd"
   xmlns="http://www.w3.org/2000/svg"
   xmlns:svg="http://www.w3.org/2000/svg">
  <sodipodi:namedview
     id="namedview171"
     pagecolor="#505050"
     bordercolor="#eeeeee"
     borderopacity="1"
     inkscape:showpageshadow="0"
     inkscape:pageopacity="0"
     inkscape:pagecheckerboard="0"
     inkscape:deskcolor="#505050"
     showgrid="false"
     showguides="true"
     inkscape:zoom="4.5586246"
     inkscape:cx="396.50117"
     inkscape:cy="189.2018"
     inkscape:window-width="3840"
     inkscape:window-height="2303"
     inkscape:window-x="3840"
     inkscape:window-y="2160"
     inkscape:window-maximized="1"
     inkscape:current-layer="g9006">
    <sodipodi:guide
       position="332.87477,220.19"
       orientation="0,-1"
       id="guide1010"
       inkscape:locked="false" />
    <sodipodi:guide
       position="297.23877,308.20699"
       orientation="0,-1"
       id="guide9033"
       inkscape:locked="false" />
  </sodipodi:namedview>
  <defs
     id="defs4">
    <marker
       style="overflow:visible"
       id="TriangleStart"
       refX="0"
       refY="0"
       orient="auto-start-reverse"
       inkscape:stockid="TriangleStart"
       markerWidth="5.3244081"
       markerHeight="6.155385"
       viewBox="0 0 5.3244081 6.1553851"
       inkscape:isstock="true"
       inkscape:collect="always"
       preserveAspectRatio="xMidYMid">
      <path
         transform="scale(0.5)"
         style="fill:context-stroke;fill-rule:evenodd;stroke:context-stroke;stroke-width:1pt"
         d="M 5.77,0 -2.88,5 V -5 Z"
         id="path135" />
    </marker>
    <style
       id="style2">.b{stroke:#1b1717;}.b,.c{stroke-dasharray:0 0 2 3;}.b,.c,.d,.e{stroke-miterlimit:10;}.b,.c,.e{fill:none;}.c,.e{stroke:#cf2144;}.f{fill:#f6f6f6;}.g,.h,.i{fill:#fff;}.j{fill:#9fbecc;}.k{fill:#cf2144;}.l{fill:#577f9a;}.m{fill:#4e7489;}.d{fill:#afcddd;stroke:#577f9a;stroke-dasharray:0 0 1.36 1.36;stroke-width:.68px;}.n{letter-spacing:0em;}.o{letter-spacing:0em;}.p{font-family:Inter-Medium, Inter;font-size:8px;font-variation-settings:'wght' 500, 'slnt' 0;font-weight:500;}.e{stroke-dasharray:0 0 2 2;}.q{letter-spacing:-.06em;}.r,.h,.i{font-family:Inter-Bold, Inter;font-variation-settings:'wght' 700, 'slnt' 0;font-weight:700;}.r,.i{font-size:10.56px;}.s{letter-spacing:0em;}.t{letter-spacing:0em;}.h{font-size:14px;}.u{letter-spacing:0em;}</style>
  </defs>
  <rect
     class="l"
     x="8.1449995"
     y="184.70218"
     width="185.86"
     height="200.75563"
     id="rect46"
     style="display:inline;fill:#0c1835;stroke-width:1.94752" />
  <rect
     class="k"
     x="13.67"
     y="245"
     width="174.81"
     height="120.27919"
     id="rect6"
     style="stroke-width:1.52228" />
  <g
     id="g9006"
     transform="matrix(1,0,0,0.99531723,0,1.4318426)">
    <rect
       class="l"
       x="442.41336"
       y="183.37997"
       width="185.86"
       height="200.75563"
       id="rect46-8"
       style="display:inline;fill:#0c1835;stroke-width:1.94756535;stroke:none;stroke-opacity:1;stroke-dasharray:0, 0, 3.89513063, 5.84269595;stroke-dashoffset:0" />
    <text
       xml:space="preserve"
       style="font-style:normal;font-variant:normal;font-weight:normal;font-stretch:normal;font-size:21.3333px;font-family:sans-serif;-inkscape-font-specification:'sans-serif, Normal';font-variant-ligatures:normal;font-variant-caps:normal;font-variant-numeric:normal;font-variant-east-asian:normal;text-align:center;text-anchor:middle;fill:#ffffff;fill-opacity:1;stroke:#000000;stroke-width:0;stroke-linejoin:bevel"
       x="536.62335"
       y="217.46107"
       id="text8851-6"><tspan
         sodipodi:role="line"
         id="tspan8849-2"
         x="536.62335"
         y="217.46107">DATACENTER 2</tspan></text>
    <rect
       class="l"
       x="225.47993"
       y="104.70705"
       width="185.86"
       height="53.179024"
       id="rect46-2"
       style="fill:#0c1835;stroke-width:1.00235" />
    <text
       class="f"
       id="text58"
       x="259.6185"
       y="135.88527"
       style="font-weight:700;font-size:14.0329px;font-family:Inter-Bold, Inter;font-variation-settings:'slnt' 0, 'wght' 700;fill:#ffffff;stroke-width:1.00235"
       transform="scale(0.99765589,1.0023496)"><tspan
         class="x"
         x="259.6185"
         y="135.88527"
         id="tspan48"
         style="stroke-width:1.00235">LOAD BALANCER</tspan></text>
    <path
       style="fill:none;fill-rule:evenodd;stroke:#000000;stroke-width:1.00235px;stroke-linecap:butt;stroke-linejoin:miter;stroke-dasharray:0, 0, 2.0047, 3.00705;stroke-dashoffset:0;stroke-opacity:1"
       d="m 411.33994,131.29656 124.00342,0 1e-5,52.08341"
       id="path9990"
       inkscape:connector-type="polyline"
       inkscape:connector-curvature="0"
       sodipodi:nodetypes="ccc" />
    <g
       id="g3337"
       transform="translate(-2.3775488,-0.2696829)">
      <g
         id="g1426"
         transform="matrix(1,0,0,1.0047048,0.51500854,16.073427)">
	<path
   d="m 245.8,23.8 3.4,-1.3 0.3,-0.1 -0.3,-0.1 -3.4,-1.3 v -1 l 4.7,2 v 0.8 l -4.7,2 z"
   id="path1378" />

	<path
   d="m 252.7,20.7 c 0.1,-0.2 0.3,-0.4 0.5,-0.5 0.2,-0.1 0.4,-0.2 0.7,-0.2 0.2,0 0.3,0 0.4,0.1 0.1,0 0.2,0.1 0.3,0.1 0.1,0 0.1,0.1 0.2,0.2 0.1,0.1 0.1,0.1 0.1,0.2 0,-0.1 0.1,-0.2 0.2,-0.2 0.1,0 0.1,-0.1 0.2,-0.2 0.1,-0.1 0.2,-0.1 0.3,-0.1 0.1,0 0.3,-0.1 0.4,-0.1 0.2,0 0.4,0 0.5,0.1 0.2,0.1 0.3,0.1 0.4,0.3 0.1,0.1 0.2,0.3 0.3,0.5 0.1,0.2 0.1,0.4 0.1,0.7 v 4.3 h -0.9 v -4.3 c 0,-0.1 0,-0.2 0,-0.3 0,-0.1 -0.1,-0.2 -0.1,-0.2 -0.1,-0.1 -0.1,-0.1 -0.2,-0.1 -0.1,0 -0.2,0 -0.3,0 -0.1,0 -0.2,0 -0.3,0 -0.1,0 -0.2,0.1 -0.2,0.1 -0.1,0.1 -0.1,0.1 -0.1,0.2 0,0.1 -0.1,0.2 -0.1,0.2 0,0 0,0 0,0.1 0,0.1 0,0 0,0.1 V 26 h -0.9 v -4.3 c 0,-0.1 0,-0.2 0,-0.3 0,-0.1 -0.1,-0.2 -0.1,-0.2 -0.1,-0.1 -0.1,-0.1 -0.2,-0.1 -0.1,0 -0.2,0 -0.3,0 -0.1,0 -0.2,0 -0.3,0 -0.1,0 -0.3,-0.1 -0.4,-0.1 0,0 -0.1,0.1 -0.1,0.1 0,0 -0.1,0.1 -0.1,0.2 v 4.5 h -0.9 v -5.7 h 0.9 z"
   id="path1380" />

	<path
   d="M 261.8,20.1 V 25 h 1.9 v 0.8 h -4.8 V 25 h 1.9 v -4 h -1.9 v -0.9 z m -1.1,-1.7 c 0,-0.1 0.1,-0.1 0.1,-0.2 0,0 0.1,-0.1 0.2,-0.1 0.1,0 0.2,0 0.2,0 0.1,0 0.2,0 0.2,0 0.1,0 0.1,0.1 0.2,0.1 0.1,0 0.1,0.1 0.1,0.2 0,0.1 0,0.2 0,0.2 0,0.2 0,0.3 -0.1,0.4 -0.1,0.1 -0.2,0.2 -0.4,0.2 -0.2,0 -0.3,-0.1 -0.4,-0.2 -0.1,-0.1 -0.1,-0.2 -0.1,-0.4 0,0 0,-0.1 0,-0.2 z"
   id="path1382" />

	<path
   d="m 265.2,20.1 h 0.9 l 0.1,0.8 c 0.1,-0.1 0.2,-0.2 0.3,-0.3 0.1,-0.1 0.2,-0.2 0.3,-0.3 0.2,-0.1 0.4,-0.2 0.6,-0.3 0.2,-0.1 0.4,-0.1 0.6,-0.1 0.3,0 0.6,0 0.8,0.1 0.2,0.1 0.5,0.2 0.6,0.4 0.2,0.2 0.3,0.4 0.4,0.7 0.1,0.3 0.1,0.6 0.1,1 v 3.6 h -1 v -3.6 c 0,-0.3 0,-0.5 -0.1,-0.6 -0.1,-0.2 -0.1,-0.3 -0.2,-0.4 -0.1,-0.1 -0.2,-0.2 -0.4,-0.2 -0.2,0 -0.3,-0.1 -0.6,-0.1 -0.2,0 -0.3,0 -0.5,0.1 -0.2,0.1 -0.3,0.1 -0.4,0.2 -0.1,0.1 -0.2,0.2 -0.3,0.3 -0.1,0.1 -0.2,0.2 -0.2,0.3 v 4.1 h -1 z"
   id="path1384" />

	<path
   d="M 274.8,20.1 V 25 h 1.9 v 0.8 h -4.8 V 25 h 1.9 v -4 h -1.9 v -0.9 z m -1.1,-1.7 c 0,-0.1 0.1,-0.1 0.1,-0.2 0,0 0.1,-0.1 0.2,-0.1 0.1,0 0.2,0 0.2,0 0.1,0 0.2,0 0.2,0 0.1,0 0.1,0.1 0.2,0.1 0.1,0 0.1,0.1 0.1,0.2 0,0.1 0,0.2 0,0.2 0,0.2 0,0.3 -0.1,0.4 -0.1,0.1 -0.2,0.2 -0.4,0.2 -0.2,0 -0.3,-0.1 -0.4,-0.2 -0.1,-0.1 -0.1,-0.2 -0.1,-0.4 0,0 0,-0.1 0,-0.2 z"
   id="path1386" />

	<path
   d="m 278.1,21.8 c 0.1,-0.4 0.3,-0.7 0.5,-0.9 0.2,-0.3 0.5,-0.5 0.8,-0.6 0.3,-0.1 0.7,-0.2 1.1,-0.2 0.4,0 0.8,0.1 1.1,0.2 0.3,0.1 0.6,0.4 0.8,0.6 0.2,0.3 0.4,0.6 0.5,0.9 0.1,0.4 0.2,0.7 0.2,1.1 V 23 c 0,0.4 -0.1,0.8 -0.2,1.1 -0.1,0.4 -0.3,0.7 -0.5,0.9 -0.2,0.3 -0.5,0.5 -0.8,0.6 -0.3,0.1 -0.7,0.2 -1.1,0.2 -0.4,0 -0.8,-0.1 -1.1,-0.2 -0.3,-0.1 -0.6,-0.4 -0.8,-0.6 -0.2,-0.3 -0.4,-0.6 -0.5,-0.9 -0.1,-0.4 -0.2,-0.7 -0.2,-1.1 v -0.1 c 0,-0.4 0.1,-0.8 0.2,-1.1 z m 0.9,2.1 c 0.1,0.3 0.2,0.5 0.3,0.7 0.1,0.2 0.3,0.3 0.5,0.5 0.2,0.2 0.4,0.2 0.7,0.2 0.3,0 0.5,-0.1 0.7,-0.2 0.2,-0.1 0.4,-0.3 0.5,-0.5 0.1,-0.2 0.2,-0.4 0.3,-0.7 0.1,-0.3 0.1,-0.5 0.1,-0.8 V 23 c 0,-0.3 0,-0.5 -0.1,-0.8 -0.1,-0.3 -0.2,-0.5 -0.3,-0.7 -0.1,-0.2 -0.3,-0.3 -0.5,-0.5 -0.2,-0.1 -0.4,-0.2 -0.7,-0.2 -0.3,0 -0.5,0.1 -0.7,0.2 -0.2,0.1 -0.4,0.3 -0.5,0.5 -0.1,0.2 -0.2,0.4 -0.3,0.7 -0.1,0.3 -0.1,0.5 -0.1,0.8 v 0.1 c 0,0.2 0,0.5 0.1,0.8 z"
   id="path1388" />

	<path
   d="m 289.4,24.5 c -0.1,0.3 -0.3,0.6 -0.5,0.8 -0.2,0.2 -0.5,0.4 -0.8,0.5 -0.3,0.1 -0.6,0.2 -1,0.2 -0.3,0 -0.6,0 -0.9,-0.1 -0.3,-0.1 -0.5,-0.2 -0.7,-0.4 -0.2,-0.2 -0.4,-0.3 -0.5,-0.6 -0.1,-0.2 -0.3,-0.4 -0.4,-0.7 -0.1,-0.3 -0.2,-0.5 -0.2,-0.8 0,-0.3 -0.1,-0.6 -0.1,-0.8 v -1.1 c 0,-0.3 0,-0.6 0.1,-0.8 0,-0.3 0.1,-0.5 0.2,-0.8 0.1,-0.3 0.2,-0.5 0.4,-0.7 0.1,-0.2 0.3,-0.4 0.5,-0.6 0.2,-0.2 0.4,-0.3 0.7,-0.4 0.3,-0.1 0.5,-0.1 0.9,-0.1 0.4,0 0.7,0.1 1,0.2 0.3,0.1 0.6,0.3 0.8,0.5 0.2,0.2 0.4,0.5 0.5,0.8 0.1,0.3 0.2,0.6 0.3,1 h -1 c 0,-0.2 -0.1,-0.4 -0.2,-0.6 -0.1,-0.2 -0.2,-0.4 -0.3,-0.5 -0.1,-0.2 -0.3,-0.3 -0.5,-0.4 C 287.5,19 287.3,19 287,19 c -0.2,0 -0.4,0 -0.6,0.1 -0.2,0.1 -0.3,0.2 -0.5,0.3 -0.1,0.1 -0.2,0.3 -0.3,0.5 -0.1,0.2 -0.2,0.4 -0.2,0.5 -0.1,0.2 -0.1,0.4 -0.1,0.6 0,0.2 0,0.4 0,0.6 v 1.1 c 0,0.2 0,0.4 0,0.6 0,0.2 0.1,0.4 0.1,0.6 0.1,0.2 0.1,0.4 0.2,0.6 0.1,0.2 0.2,0.3 0.3,0.5 0.1,0.1 0.3,0.2 0.5,0.3 0.2,0.1 0.4,0.1 0.6,0.1 0.3,0 0.5,0 0.7,-0.1 0.2,-0.1 0.3,-0.2 0.5,-0.3 0.1,-0.1 0.2,-0.3 0.3,-0.5 0.1,-0.2 0.1,-0.4 0.2,-0.6 h 1 c -0.1,0 -0.2,0.3 -0.3,0.6 z"
   id="path1390" />

	<path
   d="M 294.2,17.7 V 25 h 1.9 v 0.8 h -4.8 V 25 h 1.9 v -6.4 h -1.9 v -0.8 h 2.9 z"
   id="path1392" />

	<path
   d="M 300.7,20.1 V 25 h 1.9 v 0.8 h -4.8 V 25 h 1.9 v -4 h -1.9 v -0.9 z m -1.1,-1.7 c 0,-0.1 0.1,-0.1 0.1,-0.2 0,0 0.1,-0.1 0.2,-0.1 0.1,0 0.2,0 0.2,0 0.1,0 0.2,0 0.2,0 0.1,0 0.1,0.1 0.2,0.1 0.1,0 0.1,0.1 0.1,0.2 0,0.1 0,0.2 0,0.2 0,0.2 0,0.3 -0.1,0.4 -0.1,0.1 -0.2,0.2 -0.4,0.2 -0.2,0 -0.3,-0.1 -0.4,-0.2 -0.1,-0.1 -0.1,-0.2 -0.1,-0.4 0,0 0,-0.1 0,-0.2 z"
   id="path1394" />

	<path
   d="m 305.5,25.7 c -0.3,-0.1 -0.6,-0.3 -0.9,-0.6 -0.2,-0.2 -0.4,-0.5 -0.6,-0.9 -0.2,-0.4 -0.2,-0.7 -0.2,-1.1 V 23 c 0,-0.5 0.1,-0.9 0.2,-1.2 0.1,-0.4 0.3,-0.7 0.6,-0.9 0.2,-0.2 0.5,-0.4 0.8,-0.6 0.3,-0.1 0.6,-0.2 1,-0.2 0.4,0 0.8,0.1 1.1,0.2 0.3,0.1 0.6,0.3 0.8,0.6 0.2,0.3 0.4,0.6 0.5,0.9 0.1,0.3 0.2,0.7 0.2,1.1 v 0.4 h -4.1 v 0 c 0,0.3 0.1,0.5 0.2,0.7 0.1,0.2 0.2,0.4 0.4,0.6 0.2,0.2 0.3,0.3 0.6,0.4 0.2,0.1 0.5,0.1 0.7,0.1 0.3,0 0.7,-0.1 0.9,-0.2 0.3,-0.1 0.5,-0.3 0.7,-0.6 l 0.6,0.5 c -0.2,0.3 -0.5,0.5 -0.9,0.8 -0.4,0.2 -0.8,0.3 -1.4,0.3 -0.5,0.1 -0.8,0 -1.2,-0.2 z m 0.5,-4.8 c -0.2,0.1 -0.3,0.2 -0.5,0.3 -0.1,0.1 -0.3,0.3 -0.4,0.5 -0.1,0.2 -0.2,0.4 -0.2,0.7 h 3.1 v 0 c 0,-0.2 0,-0.4 -0.1,-0.6 -0.1,-0.2 -0.2,-0.4 -0.3,-0.5 -0.1,-0.1 -0.3,-0.3 -0.5,-0.4 -0.2,-0.1 -0.4,-0.1 -0.6,-0.1 -0.2,0 -0.4,0.1 -0.5,0.1 z"
   id="path1396" />

	<path
   d="m 310.6,20.1 h 0.9 l 0.1,0.8 c 0.1,-0.1 0.2,-0.2 0.3,-0.3 0.1,-0.1 0.2,-0.2 0.3,-0.3 0.2,-0.1 0.4,-0.2 0.6,-0.3 0.2,-0.1 0.4,-0.1 0.6,-0.1 0.3,0 0.6,0 0.8,0.1 0.2,0.1 0.5,0.2 0.6,0.4 0.2,0.2 0.3,0.4 0.4,0.7 0.1,0.3 0.1,0.6 0.1,1 v 3.6 h -1 v -3.6 c 0,-0.3 0,-0.5 -0.1,-0.6 -0.1,-0.2 -0.1,-0.3 -0.2,-0.4 -0.1,-0.1 -0.2,-0.2 -0.4,-0.2 -0.2,0 -0.3,-0.1 -0.6,-0.1 -0.2,0 -0.3,0 -0.5,0.1 -0.2,0.1 -0.3,0.1 -0.4,0.2 -0.1,0.1 -0.2,0.2 -0.3,0.3 -0.1,0.1 -0.2,0.2 -0.2,0.3 v 4.1 h -1 z"
   id="path1398" />

	<path
   d="m 319.4,20.1 h 2.2 v 0.8 h -2.2 V 24 c 0,0.2 0,0.4 0.1,0.5 0.1,0.1 0.1,0.3 0.2,0.3 0.1,0.1 0.2,0.1 0.3,0.2 0.1,0.1 0.3,0.1 0.4,0.1 0.1,0 0.2,0 0.3,0 0.1,0 0.2,0 0.3,0 0.1,0 0.2,0 0.3,-0.1 0.1,0 0.2,0 0.2,-0.1 l 0.1,0.7 c -0.1,0 -0.2,0.1 -0.3,0.1 -0.1,0 -0.2,0.1 -0.4,0.1 -0.1,0 -0.3,0 -0.4,0.1 -0.2,0 -0.3,0 -0.5,0 -0.3,0 -0.5,0 -0.7,-0.1 -0.2,-0.1 -0.4,-0.2 -0.6,-0.3 -0.2,-0.2 -0.3,-0.4 -0.4,-0.6 -0.1,-0.2 -0.1,-0.5 -0.1,-0.9 v -3.1 h -1.5 v -0.8 h 1.5 v -1.4 h 1 v 1.4 z"
   id="path1400" />

	<path
   d="m 325.5,24.7 c 0.1,-0.1 0.3,-0.2 0.6,-0.2 0.3,0 0.4,0.1 0.6,0.2 0.1,0.1 0.2,0.3 0.2,0.5 0,0.2 -0.1,0.4 -0.2,0.5 -0.1,0.1 -0.3,0.2 -0.6,0.2 -0.3,0 -0.4,-0.1 -0.6,-0.2 -0.1,-0.1 -0.2,-0.3 -0.2,-0.5 0,-0.2 0,-0.4 0.2,-0.5 z"
   id="path1402" />

	<path
   d="m 330,21.8 c 0.1,-0.4 0.3,-0.7 0.5,-0.9 0.2,-0.3 0.4,-0.5 0.7,-0.6 0.3,-0.1 0.6,-0.2 1,-0.2 0.2,0 0.4,0 0.6,0.1 0.2,0.1 0.4,0.1 0.5,0.2 0.1,0.1 0.2,0.1 0.2,0.2 0,0.1 0.1,0.1 0.2,0.2 v -0.6 h 0.9 v 5.6 c 0,0.4 -0.1,0.7 -0.2,1 -0.1,0.3 -0.3,0.5 -0.5,0.7 -0.2,0.2 -0.5,0.4 -0.8,0.5 -0.3,0.1 -0.6,0.2 -1,0.2 -0.1,0 -0.3,0 -0.5,-0.1 -0.2,0 -0.4,-0.1 -0.6,-0.2 -0.2,-0.1 -0.4,-0.2 -0.6,-0.3 -0.2,-0.1 -0.3,-0.3 -0.5,-0.5 l 0.5,-0.6 c 0.1,0.1 0.2,0.3 0.4,0.4 0.1,0.1 0.3,0.2 0.4,0.2 0.1,0.1 0.3,0.1 0.4,0.1 0.1,0 0.3,0 0.4,0 0.2,0 0.4,0 0.6,-0.1 0.2,-0.1 0.3,-0.2 0.5,-0.3 0.1,-0.1 0.2,-0.3 0.3,-0.5 0.1,-0.2 0.1,-0.4 0.1,-0.7 v -0.5 c -0.1,0.1 -0.2,0.2 -0.2,0.2 -0.1,0.1 -0.2,0.1 -0.3,0.2 -0.1,0.1 -0.3,0.1 -0.5,0.2 -0.2,0 -0.4,0.1 -0.6,0.1 -0.3,0 -0.7,-0.1 -0.9,-0.2 -0.3,-0.1 -0.5,-0.4 -0.7,-0.6 -0.2,-0.3 -0.3,-0.6 -0.5,-0.9 -0.1,-0.4 -0.2,-0.7 -0.2,-1.1 v -0.1 c 0.3,-0.4 0.3,-0.8 0.4,-1.1 z m 1,2 c 0.1,0.2 0.2,0.5 0.3,0.7 0.1,0.2 0.3,0.3 0.5,0.5 0.2,0.1 0.4,0.2 0.7,0.2 0.2,0 0.3,0 0.5,-0.1 0.1,0 0.3,-0.1 0.4,-0.2 0.1,-0.1 0.2,-0.2 0.3,-0.3 0.1,-0.1 0.2,-0.2 0.2,-0.3 v -2.6 c -0.1,-0.1 -0.1,-0.2 -0.2,-0.3 -0.1,-0.1 -0.2,-0.2 -0.3,-0.3 -0.1,-0.1 -0.2,-0.1 -0.4,-0.2 -0.1,0 -0.3,-0.1 -0.4,-0.1 -0.3,0 -0.5,0.1 -0.7,0.2 -0.2,0.1 -0.4,0.3 -0.5,0.5 -0.1,0.2 -0.2,0.4 -0.3,0.7 -0.1,0.3 -0.1,0.5 -0.1,0.8 v 0.1 c -0.1,0.2 -0.1,0.5 0,0.7 z"
   id="path1404" />

	<path
   d="m 338,25.7 c -0.3,-0.1 -0.6,-0.3 -0.9,-0.6 -0.2,-0.2 -0.4,-0.5 -0.6,-0.9 -0.2,-0.4 -0.2,-0.7 -0.2,-1.1 V 23 c 0,-0.5 0.1,-0.9 0.2,-1.2 0.1,-0.4 0.3,-0.7 0.6,-0.9 0.2,-0.2 0.5,-0.4 0.8,-0.6 0.3,-0.1 0.6,-0.2 1,-0.2 0.4,0 0.8,0.1 1.1,0.2 0.3,0.1 0.6,0.3 0.8,0.6 0.2,0.3 0.4,0.6 0.5,0.9 0.1,0.3 0.2,0.7 0.2,1.1 v 0.4 h -4.1 v 0 c 0,0.3 0.1,0.5 0.2,0.7 0.1,0.2 0.2,0.4 0.4,0.6 0.2,0.2 0.3,0.3 0.6,0.4 0.2,0.1 0.5,0.1 0.7,0.1 0.3,0 0.7,-0.1 0.9,-0.2 0.3,-0.1 0.5,-0.3 0.7,-0.6 l 0.6,0.5 c -0.2,0.3 -0.5,0.5 -0.9,0.8 -0.4,0.2 -0.8,0.3 -1.4,0.3 -0.5,0.1 -0.9,0 -1.2,-0.2 z m 0.4,-4.8 c -0.2,0.1 -0.3,0.2 -0.5,0.3 -0.1,0.1 -0.3,0.3 -0.4,0.5 -0.1,0.2 -0.2,0.4 -0.2,0.7 h 3.1 v 0 c 0,-0.2 0,-0.4 -0.1,-0.6 -0.1,-0.2 -0.2,-0.4 -0.3,-0.5 -0.1,-0.1 -0.3,-0.3 -0.5,-0.4 -0.2,-0.1 -0.4,-0.1 -0.6,-0.1 -0.1,0 -0.3,0.1 -0.5,0.1 z"
   id="path1406" />

	<path
   d="m 345.4,20.1 h 2.2 v 0.8 h -2.2 V 24 c 0,0.2 0,0.4 0.1,0.5 0.1,0.1 0.1,0.3 0.2,0.3 0.1,0.1 0.2,0.1 0.3,0.2 0.1,0.1 0.3,0.1 0.4,0.1 0.1,0 0.2,0 0.3,0 0.1,0 0.2,0 0.3,0 0.1,0 0.2,0 0.3,-0.1 0.1,0 0.2,0 0.2,-0.1 l 0.1,0.7 c -0.1,0 -0.2,0.1 -0.3,0.1 -0.1,0 -0.2,0.1 -0.4,0.1 -0.1,0 -0.3,0 -0.4,0.1 -0.2,0 -0.3,0 -0.5,0 -0.3,0 -0.5,0 -0.7,-0.1 -0.2,-0.1 -0.4,-0.2 -0.6,-0.3 -0.2,-0.2 -0.3,-0.4 -0.4,-0.6 -0.1,-0.2 -0.1,-0.5 -0.1,-0.9 v -3.1 h -1.5 v -0.8 h 1.5 v -1.4 h 1 v 1.4 z"
   id="path1408" />

	<path
   d="m 354.5,23.3 c 0,0.3 -0.1,0.5 -0.2,0.8 -0.1,0.3 -0.2,0.5 -0.4,0.7 -0.2,0.2 -0.3,0.4 -0.5,0.6 -0.2,0.2 -0.4,0.3 -0.7,0.4 -0.3,0.1 -0.5,0.1 -0.9,0.1 -0.3,0 -0.6,0 -0.9,-0.1 -0.3,-0.1 -0.5,-0.2 -0.7,-0.4 -0.2,-0.2 -0.4,-0.4 -0.5,-0.6 -0.1,-0.2 -0.3,-0.5 -0.4,-0.7 -0.1,-0.3 -0.2,-0.5 -0.2,-0.8 0,-0.3 -0.1,-0.6 -0.1,-0.8 v -0.9 c 0,-0.3 0,-0.6 0.1,-0.8 0.1,-0.2 0.1,-0.5 0.2,-0.8 0.1,-0.3 0.2,-0.5 0.4,-0.7 0.1,-0.2 0.3,-0.4 0.5,-0.6 0.2,-0.2 0.4,-0.3 0.7,-0.4 0.3,-0.1 0.5,-0.1 0.9,-0.1 0.3,0 0.6,0 0.9,0.1 0.3,0.1 0.5,0.2 0.7,0.4 0.2,0.2 0.4,0.4 0.5,0.6 0.1,0.2 0.3,0.5 0.4,0.7 0.1,0.3 0.2,0.5 0.2,0.8 0,0.3 0.1,0.6 0.1,0.8 v 0.9 c -0.1,0.2 -0.1,0.5 -0.1,0.8 z m -1,-2.3 c 0,-0.2 -0.1,-0.4 -0.1,-0.6 -0.1,-0.2 -0.1,-0.4 -0.2,-0.6 -0.1,-0.2 -0.2,-0.3 -0.3,-0.5 -0.1,-0.1 -0.3,-0.2 -0.4,-0.3 -0.1,-0.1 -0.4,-0.1 -0.6,-0.1 -0.2,0 -0.4,0 -0.6,0.1 -0.2,0.1 -0.3,0.2 -0.4,0.3 -0.1,0.1 -0.2,0.3 -0.3,0.5 -0.1,0.2 -0.2,0.4 -0.2,0.6 -0.1,0.2 -0.1,0.4 -0.1,0.6 0,0.2 0,0.4 0,0.6 v 0.9 c 0,0.2 0,0.4 0,0.6 0,0.2 0.1,0.4 0.1,0.6 0.1,0.2 0.1,0.4 0.2,0.6 0.1,0.2 0.2,0.3 0.3,0.5 0.1,0.1 0.3,0.2 0.4,0.3 0.1,0.1 0.4,0.1 0.6,0.1 0.2,0 0.4,0 0.6,-0.1 0.2,-0.1 0.3,-0.2 0.5,-0.3 0.1,-0.1 0.2,-0.3 0.3,-0.5 0.1,-0.2 0.2,-0.4 0.2,-0.6 0,-0.2 0.1,-0.4 0.1,-0.6 0,-0.2 0,-0.4 0,-0.6 v -0.9 c 0,-0.2 -0.1,-0.4 -0.1,-0.6 z"
   id="path1410" />

	<path
   d="m 360.8,23.8 c 0,0.2 -0.1,0.4 -0.2,0.6 -0.1,0.3 -0.2,0.5 -0.4,0.7 -0.2,0.2 -0.3,0.4 -0.6,0.5 -0.2,0.1 -0.3,0.2 -0.5,0.2 -0.2,0 -0.4,0.1 -0.6,0.1 -0.2,0 -0.5,0 -0.7,-0.1 -0.2,-0.1 -0.4,-0.1 -0.5,-0.3 -0.1,-0.1 -0.2,-0.1 -0.2,-0.2 -0.1,-0.1 -0.1,-0.1 -0.2,-0.2 v 0.6 H 356 v -8.1 h 1 v 3 c 0.1,-0.1 0.2,-0.2 0.3,-0.3 0.1,-0.1 0.2,-0.2 0.3,-0.2 0.1,-0.1 0.3,-0.1 0.5,-0.2 0.2,-0.1 0.4,-0.1 0.5,-0.1 0.2,0 0.5,0 0.7,0.1 0.2,0.1 0.4,0.2 0.6,0.3 0.2,0.1 0.3,0.2 0.4,0.4 0.1,0.2 0.2,0.3 0.3,0.5 0.1,0.2 0.2,0.5 0.2,0.7 0,0.3 0.1,0.6 0.1,0.9 v 0.1 c 0,0.5 -0.1,0.7 -0.1,1 z m -1,-1.4 c 0,-0.2 -0.1,-0.3 -0.1,-0.5 -0.1,-0.2 -0.1,-0.4 -0.2,-0.5 -0.1,-0.1 -0.2,-0.3 -0.4,-0.4 -0.1,-0.1 -0.2,-0.1 -0.3,-0.1 -0.1,0 -0.3,-0.1 -0.4,-0.1 -0.2,0 -0.3,0 -0.5,0.1 -0.1,0 -0.3,0.1 -0.4,0.2 -0.1,0.1 -0.2,0.2 -0.3,0.3 -0.1,0.1 -0.2,0.2 -0.2,0.4 v 2.5 c 0.1,0.1 0.1,0.2 0.2,0.4 0.1,0.1 0.2,0.2 0.3,0.3 0.1,0.1 0.2,0.1 0.4,0.2 0.1,0 0.3,0.1 0.5,0.1 0.2,0 0.3,0 0.4,-0.1 0.1,-0.1 0.3,-0.1 0.4,-0.2 0.1,-0.1 0.3,-0.2 0.4,-0.4 0.1,-0.2 0.2,-0.3 0.2,-0.5 0,-0.1 0.1,-0.3 0.1,-0.5 0,-0.2 0,-0.3 0,-0.5 V 23 c 0,-0.2 0,-0.4 -0.1,-0.6 z"
   id="path1412" />

	<path
   d="m 366,20.1 v 5.7 c 0,0.4 -0.1,0.7 -0.2,1 -0.1,0.3 -0.2,0.5 -0.4,0.7 -0.2,0.2 -0.4,0.3 -0.7,0.4 -0.3,0.1 -0.6,0.2 -0.9,0.2 -0.1,0 -0.2,0 -0.3,0 -0.1,0 -0.2,0 -0.3,0 -0.1,0 -0.2,0 -0.2,0 -0.1,0 -0.2,0 -0.3,0 l 0.1,-0.8 c 0.1,0 0.1,0 0.2,0 0.1,0 0.2,0 0.3,0 0.1,0 0.2,0 0.3,0 0.1,0 0.2,0 0.2,0 0.2,0 0.4,0 0.5,-0.1 0.2,0 0.3,-0.1 0.4,-0.2 0.1,-0.1 0.2,-0.3 0.3,-0.4 0.1,-0.2 0.1,-0.4 0.1,-0.7 V 21 h -1.9 v -0.9 z m -0.9,-1.9 c 0.1,-0.1 0.2,-0.2 0.4,-0.2 0.2,0 0.3,0.1 0.4,0.2 0.1,0.1 0.1,0.2 0.1,0.4 0,0.2 0,0.3 -0.1,0.4 -0.1,0.1 -0.2,0.2 -0.4,0.2 -0.2,0 -0.3,-0.1 -0.4,-0.2 -0.1,-0.1 -0.1,-0.2 -0.1,-0.4 -0.1,-0.1 0,-0.3 0.1,-0.4 z"
   id="path1414" />

	<path
   d="m 370.4,25.7 c -0.3,-0.1 -0.6,-0.3 -0.9,-0.6 -0.2,-0.2 -0.4,-0.5 -0.6,-0.9 -0.2,-0.4 -0.2,-0.7 -0.2,-1.1 V 23 c 0,-0.5 0.1,-0.9 0.2,-1.2 0.1,-0.4 0.3,-0.7 0.6,-0.9 0.2,-0.2 0.5,-0.4 0.8,-0.6 0.3,-0.1 0.6,-0.2 1,-0.2 0.4,0 0.8,0.1 1.1,0.2 0.3,0.1 0.6,0.3 0.8,0.6 0.2,0.3 0.4,0.6 0.5,0.9 0.1,0.3 0.2,0.7 0.2,1.1 v 0.4 h -4.1 v 0 c 0,0.3 0.1,0.5 0.2,0.7 0.1,0.2 0.2,0.4 0.4,0.6 0.2,0.2 0.3,0.3 0.6,0.4 0.2,0.1 0.5,0.1 0.7,0.1 0.3,0 0.7,-0.1 0.9,-0.2 0.3,-0.1 0.5,-0.3 0.7,-0.6 l 0.6,0.5 c -0.2,0.3 -0.5,0.5 -0.9,0.8 -0.4,0.2 -0.8,0.3 -1.4,0.3 -0.5,0.1 -0.9,0 -1.2,-0.2 z m 0.4,-4.8 c -0.2,0.1 -0.3,0.2 -0.5,0.3 -0.1,0.1 -0.3,0.3 -0.4,0.5 -0.1,0.2 -0.2,0.4 -0.2,0.7 h 3.1 v 0 c 0,-0.2 0,-0.4 -0.1,-0.6 -0.1,-0.2 -0.2,-0.4 -0.3,-0.5 -0.1,-0.1 -0.3,-0.3 -0.5,-0.4 -0.2,-0.1 -0.4,-0.1 -0.6,-0.1 -0.1,0 -0.3,0.1 -0.5,0.1 z"
   id="path1416" />

	<path
   d="m 378.4,25.1 c 0.2,-0.1 0.3,-0.1 0.4,-0.2 0.1,-0.1 0.2,-0.2 0.3,-0.4 0.1,-0.1 0.1,-0.3 0.1,-0.4 h 0.9 c 0,0.3 -0.1,0.5 -0.2,0.7 -0.1,0.2 -0.3,0.4 -0.5,0.6 -0.2,0.2 -0.5,0.3 -0.7,0.4 -0.3,0.1 -0.6,0.2 -0.9,0.2 -0.4,0 -0.8,-0.1 -1.1,-0.2 -0.3,-0.1 -0.6,-0.4 -0.8,-0.6 -0.2,-0.3 -0.4,-0.6 -0.5,-0.9 -0.1,-0.3 -0.2,-0.7 -0.2,-1.1 V 23 c 0,-0.4 0.1,-0.7 0.2,-1.1 0.1,-0.3 0.3,-0.6 0.5,-0.9 0.2,-0.3 0.5,-0.5 0.8,-0.6 0.3,-0.1 0.7,-0.2 1.1,-0.2 0.3,0 0.6,0.1 0.9,0.2 0.3,0.1 0.5,0.3 0.7,0.4 0.2,0.2 0.4,0.4 0.5,0.7 0.1,0.3 0.2,0.5 0.2,0.8 h -0.9 c 0,-0.2 0,-0.3 -0.1,-0.5 -0.1,-0.2 -0.2,-0.3 -0.3,-0.4 -0.1,-0.1 -0.3,-0.2 -0.4,-0.3 C 378.2,21 378,21 377.8,21 c -0.3,0 -0.6,0.1 -0.8,0.2 -0.2,0.1 -0.4,0.3 -0.5,0.5 -0.1,0.2 -0.2,0.4 -0.3,0.7 -0.1,0.2 -0.1,0.5 -0.1,0.7 v 0.2 c 0,0.2 0,0.5 0.1,0.7 0.1,0.2 0.1,0.5 0.3,0.7 0.1,0.2 0.3,0.4 0.5,0.5 0.2,0.1 0.5,0.2 0.8,0.2 0.3,-0.2 0.5,-0.3 0.6,-0.3 z"
   id="path1418" />

	<path
   d="m 384.3,20.1 h 2.2 v 0.8 h -2.2 V 24 c 0,0.2 0,0.4 0.1,0.5 0.1,0.1 0.1,0.3 0.2,0.3 0.1,0.1 0.2,0.1 0.3,0.2 0.1,0.1 0.3,0.1 0.4,0.1 0.1,0 0.2,0 0.3,0 0.1,0 0.2,0 0.3,0 0.1,0 0.2,0 0.3,-0.1 0.1,0 0.2,0 0.2,-0.1 l 0.1,0.7 c -0.1,0 -0.2,0.1 -0.3,0.1 -0.1,0 -0.2,0.1 -0.4,0.1 -0.1,0 -0.3,0 -0.4,0.1 -0.2,0 -0.3,0 -0.5,0 -0.3,0 -0.5,0 -0.7,-0.1 -0.2,-0.1 -0.4,-0.2 -0.6,-0.3 -0.2,-0.2 -0.3,-0.4 -0.4,-0.6 -0.1,-0.2 -0.1,-0.5 -0.1,-0.9 v -3.1 h -1.5 v -0.8 h 1.5 v -1.4 h 1 v 1.4 z"
   id="path1420" />

	<path
   d="m 389.5,21.3 c 0.1,-0.4 0.2,-0.9 0.3,-1.2 0.1,-0.4 0.3,-0.7 0.5,-1 0.2,-0.3 0.4,-0.6 0.6,-0.8 0.2,-0.2 0.4,-0.5 0.6,-0.6 0.2,-0.2 0.4,-0.3 0.6,-0.4 l 0.2,0.6 c -0.1,0.1 -0.2,0.2 -0.3,0.3 -0.1,0.1 -0.2,0.3 -0.3,0.4 -0.2,0.2 -0.3,0.5 -0.5,0.8 -0.1,0.3 -0.3,0.6 -0.4,1 -0.1,0.3 -0.2,0.7 -0.2,1.1 -0.1,0.4 -0.1,0.8 -0.1,1.3 v 0.1 c 0,0.4 0,0.9 0.1,1.2 0,0.4 0.1,0.7 0.2,1.1 0.1,0.3 0.2,0.6 0.3,0.9 0.1,0.3 0.2,0.5 0.4,0.8 0.1,0.2 0.3,0.4 0.4,0.6 0.1,0.2 0.3,0.3 0.4,0.4 l -0.2,0.6 c -0.2,-0.1 -0.4,-0.2 -0.6,-0.4 -0.2,-0.2 -0.4,-0.4 -0.6,-0.6 -0.2,-0.2 -0.4,-0.5 -0.6,-0.8 -0.2,-0.3 -0.3,-0.7 -0.5,-1 -0.1,-0.4 -0.2,-0.8 -0.3,-1.2 -0.1,-0.4 -0.1,-0.9 -0.1,-1.4 V 23 c 0,-0.8 0.1,-1.2 0.1,-1.7 z"
   id="path1422" />

	<path
   d="m 398.4,24.2 c -0.1,0.4 -0.2,0.9 -0.3,1.2 -0.1,0.4 -0.3,0.7 -0.5,1 -0.2,0.3 -0.4,0.6 -0.5,0.8 -0.2,0.2 -0.4,0.5 -0.6,0.6 -0.2,0.2 -0.4,0.3 -0.6,0.4 l -0.2,-0.6 c 0.1,-0.1 0.3,-0.2 0.4,-0.4 0.1,-0.2 0.3,-0.4 0.4,-0.6 0.1,-0.2 0.3,-0.5 0.4,-0.8 0.1,-0.3 0.2,-0.6 0.3,-0.9 0.1,-0.3 0.1,-0.7 0.2,-1 0.1,-0.3 0.1,-0.8 0.1,-1.2 v -0.1 c 0,-0.5 0,-0.9 -0.1,-1.3 -0.1,-0.4 -0.1,-0.7 -0.2,-1 -0.1,-0.4 -0.2,-0.7 -0.4,-1 -0.1,-0.3 -0.3,-0.6 -0.4,-0.8 -0.1,-0.2 -0.2,-0.3 -0.4,-0.5 -0.1,-0.1 -0.2,-0.3 -0.4,-0.3 l 0.2,-0.6 c 0.2,0.1 0.4,0.2 0.6,0.4 0.2,0.2 0.4,0.4 0.6,0.6 0.2,0.2 0.4,0.5 0.6,0.8 0.2,0.3 0.3,0.7 0.5,1 0.1,0.4 0.2,0.8 0.3,1.2 0.1,0.4 0.1,0.9 0.1,1.5 v 0.1 c 0,0.6 0,1.1 -0.1,1.5 z"
   id="path1424" />

</g>
      <rect
         x="198.11502"
         y="18.082838"
         class="st21"
         width="250.10001"
         height="39.484898"
         id="rect1428"
         style="fill:none;stroke:#cf2144;stroke-width:1.00235;stroke-miterlimit:10" />
    </g>
    <path
       style="fill:none;fill-rule:evenodd;stroke:#000000;stroke-width:0.93292px;stroke-linecap:butt;stroke-linejoin:miter;stroke-dasharray:0, 0, 1.86584, 2.79876;stroke-dashoffset:0;stroke-opacity:1;marker-start:url(#TriangleStart);marker-end:url(#TriangleStart)"
       d="M 318.40993,60.997471 V 101.63203"
       id="path3309"
       inkscape:connector-type="polyline"
       inkscape:connector-curvature="0"
       sodipodi:nodetypes="cc" />
    <text
       xml:space="preserve"
       style="font-style:normal;font-variant:normal;font-weight:normal;font-stretch:normal;font-size:10.6917px;font-family:'Liberation Mono';-inkscape-font-specification:'Liberation Mono, Normal';font-variant-ligatures:normal;font-variant-caps:normal;font-variant-numeric:normal;font-variant-east-asian:normal;text-align:center;text-anchor:middle;fill:#000000;fill-opacity:1;stroke:none;stroke-width:1.94757;stroke-linejoin:bevel;stroke-dasharray:0, 0, 2.0047, 3.00705;stroke-dashoffset:0;stroke-opacity:1"
       x="320.9194"
       y="268.10925"
       id="text3744"
       transform="scale(0.9976559,1.0023496)"><tspan
         sodipodi:role="line"
         id="tspan3742"
         style="font-style:normal;font-variant:normal;font-weight:normal;font-stretch:normal;font-size:10.6917px;font-family:'Liberation Mono';-inkscape-font-specification:'Liberation Mono, Normal';font-variant-ligatures:normal;font-variant-caps:normal;font-variant-numeric:normal;font-variant-east-asian:normal;fill:#000000;fill-opacity:1;stroke-width:1.94757"
         x="320.9194"
         y="268.10925">proxy_get(object.extension)</tspan></text>
  </g>
  <g
     id="g20"
     transform="translate(0,78)">
    <g
       id="g14">
      <rect
         class="g"
         x="60.32"
         y="190.10001"
         width="3.9200001"
         height="10.21"
         id="rect8" />
      <path
         class="g"
         d="m 55.58,190.24 -7.95,4.29 c -0.11,0.06 -0.26,0.06 -0.37,0 l -7.95,-4.29 c -0.17,-0.09 -0.37,-0.14 -0.57,-0.14 v 0 c -0.6,0 -1.09,0.43 -1.09,0.96 v 9.24 c 0,0 3.91,0 3.91,0 v -4.4 c 0,-0.27 0.33,-0.44 0.6,-0.29 l 4.45,2.41 c 0.44,0.24 0.99,0.24 1.43,0.01 l 4.7,-2.43 c 0.26,-0.14 0.59,0.03 0.59,0.3 v 4.41 c 0,0 3.91,0 3.91,0 v -9.24 c 0,-0.53 -0.49,-0.96 -1.09,-0.96 v 0 c -0.2,0 -0.4,0.05 -0.57,0.14 z"
         id="path10" />
      <path
         class="g"
         d="m 83.76,190.1 h -3.97 c 0,0 0,4.65 0,4.65 0,0.26 -0.31,0.43 -0.58,0.31 l -10.29,-4.84 c -0.16,-0.07 -0.33,-0.11 -0.51,-0.11 v 0 c -0.6,0 -1.09,0.43 -1.09,0.96 v 9.24 c 0,0 3.94,0 3.94,0 v -4.64 c 0,-0.26 0.31,-0.43 0.57,-0.31 l 10.33,4.84 c 0.16,0.07 0.33,0.11 0.51,0.11 v 0 c 0.6,0 1.09,-0.43 1.09,-0.96 v -9.24 z"
         id="path12" />
    </g>
    <path
       class="g"
       d="M 86.84,200.31 V 190.1 h 1.8 v 10.21 z"
       id="path16" />
    <path
       class="g"
       d="m 99.25,200.49 c -4.85,0 -8.28,-2.03 -8.28,-5.29 0,-3.24 3.46,-5.29 8.28,-5.29 4.82,0 8.31,2.03 8.31,5.29 0,3.26 -3.4,5.29 -8.31,5.29 z m 0,-9.22 c -3.6,0 -6.38,1.39 -6.38,3.93 0,2.56 2.78,3.93 6.38,3.93 3.6,0 6.4,-1.37 6.4,-3.93 0,-2.56 -2.8,-3.93 -6.4,-3.93 z"
       id="path18" />
  </g>
  <text
     class="h"
     id="text24"
     x="116.36"
     y="278.27002"><tspan
       x="116.36"
       y="278.27002"
       id="tspan22">SITE A</tspan></text>
  <rect
     class="f"
     x="14.99"
     y="18.85"
     width="156.61"
     height="53.63"
     id="rect66" />
  <line
     class="c"
     x1="29.24"
     y1="35.61"
     x2="61.31"
     y2="35.61"
     id="line68" />
  <line
     class="b"
     x1="29.24"
     y1="53.59"
     x2="61.31"
     y2="53.59"
     id="line70" />
  <text
     class="p"
     id="text82"><tspan
       class="n"
       x="78.16"
       y="38.31"
       id="tspan72">R</tspan><tspan
       class="t"
       x="83.26"
       y="38.31"
       id="tspan74">eplication </tspan><tspan
       class="q"
       x="122.66"
       y="38.31"
       id="tspan76">T</tspan><tspan
       class="u"
       x="127.41"
       y="38.31"
       id="tspan78">r</tspan><tspan
       class="s"
       x="130.45"
       y="38.31"
       id="tspan80">affic</tspan></text>
  <text
     class="p"
     id="text92"
     x="78.00927"
     y="56.09">S3 Traffic</text>
  <polygon
     class="l"
     points="77.63,245.89 71.79,238.78 16.73,238.78 16.73,262.76 77.63,262.76 "
     id="polygon94"
     transform="translate(0,78)" />
  <polygon
     class="m"
     points="68.51,244.63 68.51,262.76 77.63,262.76 77.63,245.89 76.59,244.63 "
     id="polygon96"
     transform="translate(0,78)" />
  <text
     class="i"
     id="text100"
     x="24.65"
     y="333.09"><tspan
       x="24.65"
       y="333.09"
       id="tspan98">CONFIG</tspan></text>
  <polygon
     class="l"
     points="131.52,254.1 125.68,246.99 70.63,246.99 70.63,270.97 131.52,270.97 "
     id="polygon102"
     transform="translate(0,78)" />
  <g
     id="g108"
     transform="translate(0,78)">
    <polygon
       class="m"
       points="122.08,252.84 122.08,270.98 131.2,270.98 131.2,254.11 130.16,252.84 "
       id="polygon104" />
    <polygon
       class="l"
       points="185.09,262.32 179.25,255.2 124.2,255.2 124.2,279.19 185.09,279.19 "
       id="polygon106" />
  </g>
  <text
     class="i"
     id="text112"
     x="88.849998"
     y="341.29999"><tspan
       x="88.849998"
       y="341.29999"
       id="tspan110">IAM</tspan></text>
  <text
     class="i"
     id="text116"
     x="130.39"
     y="349.51001"><tspan
       x="130.39"
       y="349.51001"
       id="tspan114">BUCKETS</tspan></text>
  <polygon
     class="j"
     points="494.55,148.99 503.67,148.99 503.67,132.12 502.63,130.85 494.55,130.85 "
     id="polygon120"
     transform="translate(3.79,190.53)" />
  <polygon
     class="j"
     points="548.12,157.21 557.24,157.21 557.24,140.34 556.2,139.07 548.12,139.07 "
     id="polygon128"
     transform="translate(3.79,190.53)" />
  <g
     id="g9031"
     transform="translate(0,78)">
    <rect
       class="k"
       x="447.0972"
       y="165.23999"
       width="176.1566"
       height="122.0392"
       id="rect26"
       style="stroke-width:1.53928" />
    <g
       id="g40"
       transform="translate(8.4738136,112.53)">
      <g
         id="g34">
        <rect
           class="g"
           x="490.01999"
           y="75.800003"
           width="3.9200001"
           height="10.21"
           id="rect28" />
        <path
           class="g"
           d="m 485.27,75.94 -7.95,4.29 c -0.11,0.06 -0.26,0.06 -0.37,0 L 469,75.94 c -0.17,-0.09 -0.37,-0.14 -0.57,-0.14 v 0 c -0.6,0 -1.09,0.43 -1.09,0.96 V 86 c 0,0 3.91,0 3.91,0 v -4.4 c 0,-0.27 0.33,-0.44 0.6,-0.29 l 4.45,2.41 c 0.44,0.24 0.99,0.24 1.43,0.01 l 4.7,-2.43 c 0.26,-0.14 0.59,0.03 0.59,0.3 v 4.41 c 0,0 3.91,0 3.91,0 v -9.24 c 0,-0.53 -0.49,-0.96 -1.09,-0.96 v 0 c -0.2,0 -0.4,0.05 -0.57,0.14 z"
           id="path30" />
        <path
           class="g"
           d="m 513.46,75.8 h -3.97 c 0,0 0,4.65 0,4.65 0,0.26 -0.31,0.43 -0.58,0.31 l -10.29,-4.84 c -0.16,-0.07 -0.33,-0.11 -0.51,-0.11 v 0 c -0.6,0 -1.09,0.43 -1.09,0.96 v 9.24 c 0,0 3.94,0 3.94,0 v -4.64 c 0,-0.26 0.31,-0.43 0.57,-0.31 l 10.33,4.84 c 0.16,0.07 0.33,0.11 0.51,0.11 v 0 c 0.6,0 1.09,-0.43 1.09,-0.96 v -9.24 z"
           id="path32" />
      </g>
      <path
         class="g"
         d="M 516.53,86.01 V 75.8 h 1.8 v 10.21 z"
         id="path36" />
      <path
         class="g"
         d="m 528.94,86.19 c -4.85,0 -8.28,-2.03 -8.28,-5.29 0,-3.24 3.46,-5.29 8.28,-5.29 4.82,0 8.31,2.03 8.31,5.29 0,3.26 -3.4,5.29 -8.31,5.29 z m 0,-9.22 c -3.6,0 -6.38,1.39 -6.38,3.93 0,2.56 2.78,3.93 6.38,3.93 3.6,0 6.4,-1.37 6.4,-3.93 0,-2.56 -2.8,-3.93 -6.4,-3.93 z"
         id="path38" />
    </g>
    <text
       class="h"
       id="text44"
       x="555.13379"
       y="198.5"><tspan
         x="555.13379"
         y="198.5"
         id="tspan42">SITE B</tspan></text>
    <polygon
       class="d"
       points="503.67,132.12 497.83,125 442.77,125 442.77,148.99 503.67,148.99 "
       id="polygon118"
       transform="translate(8.4738136,110.53)" />
    <text
       class="r"
       id="text124"
       x="459.16385"
       y="253.85001"><tspan
         x="459.16385"
         y="253.85001"
         id="tspan122">CONFIG</tspan></text>
    <polygon
       class="d"
       points="551.72,133.21 496.67,133.21 496.67,157.2 557.56,157.2 557.56,140.33 "
       id="polygon126"
       transform="translate(8.4738136,112.53)" />
    <polygon
       class="d"
       points="605.29,141.43 550.23,141.43 550.23,165.42 611.13,165.42 611.13,148.55 "
       id="polygon130"
       transform="translate(8.4738136,112.53)" />
    <text
       class="r"
       id="text134"
       x="523.36383"
       y="262.06"><tspan
         x="523.36383"
         y="262.06"
         id="tspan132">IAM</tspan></text>
    <text
       class="r"
       id="text138"
       x="564.90381"
       y="270.26999"><tspan
         x="564.90381"
         y="270.26999"
         id="tspan136">BUCKETS</tspan></text>
  </g>
  <path
     id="polyline162"
     class="e"
     style="fill:none;stroke:#cf2144;stroke-width:0.964916;stroke-miterlimit:10;stroke-dasharray:0, 0, 1.92983, 1.92983"
     d="m 198.18924,271.46975 239.68138,0.5005"
     sodipodi:nodetypes="cc" />
  <polyline
     class="k"
     points="438.98 80.56 438.98 78.37 443.36 80.91 438.98 83.44 438.98 81.55"
     id="polyline166"
     transform="translate(-1.0262163,190.815)" />
  <polyline
     class="k"
     points="438.98 80.56 438.98 78.37 443.36 80.91 438.98 83.44 438.98 81.55"
     id="polyline166-8"
     transform="matrix(-1,0,0,1,637.16813,190.50423)"
     style="fill:#cf2144" />
  <text
     xml:space="preserve"
     style="font-style:normal;font-variant:normal;font-weight:normal;font-stretch:normal;font-size:21.3333px;font-family:sans-serif;-inkscape-font-specification:'sans-serif, Normal';font-variant-ligatures:normal;font-variant-caps:normal;font-variant-numeric:normal;font-variant-east-asian:normal;text-align:center;text-anchor:middle;fill:#ffffff;fill-opacity:1;stroke:#000000;stroke-width:0;stroke-linejoin:bevel"
     x="102.355"
     y="218.78317"
     id="text8851"><tspan
       sodipodi:role="line"
       id="tspan8849"
       x="102.355"
       y="218.78317">DATACENTER 1</tspan></text>
</svg>
