<?xml version="1.0" encoding="UTF-8" standalone="no"?>
<svg
   id="a"
   viewBox="0 0 645.33 414.16"
   version="1.1"
   sodipodi:docname="availability-multi-site-setup.svg"
   inkscape:version="1.2.2 (b0a8486541, 2022-12-01)"
   xmlns:inkscape="http://www.inkscape.org/namespaces/inkscape"
   xmlns:sodipodi="http://sodipodi.sourceforge.net/DTD/sodipodi-0.dtd"
   xmlns="http://www.w3.org/2000/svg"
   xmlns:svg="http://www.w3.org/2000/svg">
  <sodipodi:namedview
     id="namedview171"
     pagecolor="#505050"
     bordercolor="#eeeeee"
     borderopacity="1"
     inkscape:showpageshadow="0"
     inkscape:pageopacity="0"
     inkscape:pagecheckerboard="0"
     inkscape:deskcolor="#505050"
     showgrid="false"
     showguides="true"
     inkscape:zoom="3.2234344"
     inkscape:cx="254.8524"
     inkscape:cy="216.38412"
     inkscape:window-width="3840"
     inkscape:window-height="2123"
     inkscape:window-x="3840"
     inkscape:window-y="0"
     inkscape:window-maximized="1"
     inkscape:current-layer="g9006">
    <sodipodi:guide
       position="332.87477,220.19"
       orientation="0,-1"
       id="guide1010"
       inkscape:locked="false" />
    <sodipodi:guide
       position="297.23877,308.20699"
       orientation="0,-1"
       id="guide9033"
       inkscape:locked="false" />
    <sodipodi:guide
       position="352.17997,282.13143"
       orientation="0,-1"
       id="guide1033"
       inkscape:locked="false" />
  </sodipodi:namedview>
  <defs
     id="defs4">
    <style
       id="style2">.b{stroke:#1b1717;}.b,.c{stroke-dasharray:0 0 2 3;}.b,.c,.d,.e{stroke-miterlimit:10;}.b,.c,.e{fill:none;}.c,.e{stroke:#cf2144;}.f{fill:#f6f6f6;}.g,.h,.i{fill:#fff;}.j{fill:#9fbecc;}.k{fill:#cf2144;}.l{fill:#577f9a;}.m{fill:#4e7489;}.d{fill:#afcddd;stroke:#577f9a;stroke-dasharray:0 0 1.36 1.36;stroke-width:.68px;}.n{letter-spacing:0em;}.o{letter-spacing:0em;}.p{font-family:Inter-Medium, Inter;font-size:8px;font-variation-settings:'wght' 500, 'slnt' 0;font-weight:500;}.e{stroke-dasharray:0 0 2 2;}.q{letter-spacing:-.06em;}.r,.h,.i{font-family:Inter-Bold, Inter;font-variation-settings:'wght' 700, 'slnt' 0;font-weight:700;}.r,.i{font-size:10.56px;}.s{letter-spacing:0em;}.t{letter-spacing:0em;}.h{font-size:14px;}.u{letter-spacing:0em;}</style>
  </defs>
  <path
     id="rect46"
     style="display:inline;fill:#0c1835;stroke-width:1.94752"
     class="l"
     d="M 8.1449995,184.70218 H 194.005 V 385.45781 H 8.1449995 Z" />
  <path
     id="rect6"
     style="fill:#cf2144;stroke-width:1.52228"
     class="k"
     d="M 13.67,245 H 188.48 V 365.27919 H 13.67 Z" />
  <g
     id="g9006"
     transform="matrix(1,0,0,0.99531723,0,1.4318426)">
    <path
       id="rect46-8"
       style="display:inline;fill:#0c1835;stroke-width:1.94752"
       class="l"
       d="m 442.41336,183.37997 h 185.86 V 384.1356 h -185.86 z" />
    <g
       aria-label="DATACENTER 2"
       id="text8851-6"
       style="font-size:21.3333px;-inkscape-font-specification:'sans-serif, Normal';text-align:center;text-anchor:middle;fill:#ffffff;stroke:#000000;stroke-width:0;stroke-linejoin:bevel">
      <path
         d="m 477.31679,209.69575 q 0,3.86133 -2.11199,5.82399 -2.09067,1.94133 -5.84533,1.94133 h -4.24533 V 202.2291 h 4.69333 q 2.304,0 3.98933,0.85333 1.68533,0.85333 2.60266,2.51733 0.91733,1.64266 0.91733,4.09599 z m -2.02666,0.064 q 0,-3.05066 -1.51467,-4.45866 -1.49333,-1.42933 -4.24532,-1.42933 h -2.496 v 11.94665 h 2.06933 q 6.18666,0 6.18666,-6.05866 z"
         id="path44724" />
      <path
         d="m 489.81809,217.46107 -1.83467,-4.71465 h -6.03732 l -1.81333,4.71465 h -1.94133 l 5.95199,-15.29597 h 1.728 l 5.93065,15.29597 z m -4.11733,-11.02931 q -0.064,-0.17067 -0.21333,-0.61867 -0.14934,-0.448 -0.29867,-0.91733 -0.128,-0.49066 -0.21333,-0.74666 -0.14934,0.66133 -0.34134,1.30133 -0.192,0.61866 -0.32,0.98133 l -1.72799,4.60799 h 4.82132 z"
         id="path44726" />
      <path
         d="m 497.22075,217.46107 h -1.92 v -13.54664 h -4.75733 v -1.68533 h 11.41332 v 1.68533 h -4.73599 z"
         id="path44728" />
      <path
         d="m 512.32472,217.46107 -1.83466,-4.71465 h -6.03733 l -1.81333,4.71465 h -1.94133 l 5.95199,-15.29597 h 1.728 l 5.93066,15.29597 z m -4.11732,-11.02931 q -0.064,-0.17067 -0.21334,-0.61867 -0.14933,-0.448 -0.29866,-0.91733 -0.128,-0.49066 -0.21334,-0.74666 -0.14933,0.66133 -0.34133,1.30133 -0.192,0.61866 -0.32,0.98133 l -1.728,4.60799 h 4.82133 z"
         id="path44730" />
      <path
         d="m 522.5007,203.7011 q -2.45333,0 -3.86133,1.64266 -1.408,1.64266 -1.408,4.50133 0,2.83733 1.30133,4.50132 1.32267,1.64267 3.94666,1.64267 1.00267,0 1.89867,-0.17067 0.896,-0.17067 1.74933,-0.42667 v 1.664 q -0.85333,0.32 -1.77067,0.46933 -0.89599,0.14934 -2.15466,0.14934 -2.32533,0 -3.88266,-0.96 -1.55733,-0.96 -2.34666,-2.73066 -0.768,-1.77067 -0.768,-4.16 0,-2.30399 0.832,-4.05332 0.85333,-1.77067 2.49599,-2.752 1.64267,-1.00266 3.98933,-1.00266 2.41066,0 4.20266,0.89599 l -0.768,1.62134 q -0.704,-0.32 -1.57866,-0.576 -0.85334,-0.256 -1.87733,-0.256 z"
         id="path44732" />
      <path
         d="m 537.96734,217.46107 h -8.51199 V 202.2291 h 8.51199 v 1.68533 h -6.59199 v 4.75733 h 6.20799 v 1.66399 h -6.20799 v 5.43999 h 6.59199 z"
         id="path44734" />
      <path
         d="m 553.39131,217.46107 h -2.24 l -8.14932,-12.65064 h -0.0853 q 0.0427,0.74666 0.10666,1.856 0.064,1.10933 0.064,2.28266 v 8.51198 h -1.77066 V 202.2291 h 2.21866 l 8.12799,12.60798 h 0.0853 q -0.0213,-0.34133 -0.064,-1.024 -0.0213,-0.68266 -0.064,-1.49333 -0.0213,-0.81067 -0.0213,-1.49333 v -8.59732 h 1.792 z"
         id="path44736" />
      <path
         d="m 562.3513,217.46107 h -1.91999 v -13.54664 h -4.75733 v -1.68533 h 11.41332 v 1.68533 h -4.736 z"
         id="path44738" />
      <path
         d="m 577.90327,217.46107 h -8.51199 V 202.2291 h 8.51199 v 1.68533 h -6.59199 v 4.75733 h 6.20799 v 1.66399 h -6.20799 v 5.43999 h 6.59199 z"
         id="path44740" />
      <path
         d="m 585.45525,202.2291 q 2.83733,0 4.18132,1.088 1.36534,1.06666 1.36534,3.24266 0,1.216 -0.448,2.02666 -0.448,0.81067 -1.152,1.30133 -0.68267,0.46934 -1.45067,0.74667 l 4.18133,6.82665 h -2.24 l -3.69066,-6.29332 h -3.02933 v 6.29332 h -1.91999 V 202.2291 Z m -0.10667,1.664 h -2.176 v 5.65332 h 2.28267 q 1.85599,0 2.70933,-0.72533 0.85333,-0.74667 0.85333,-2.176 0,-1.49333 -0.896,-2.11199 -0.896,-0.64 -2.77333,-0.64 z"
         id="path44742" />
      <path
         d="m 609.09255,217.46107 h -10.06932 v -1.55733 l 3.98933,-4.03199 q 1.152,-1.152 1.94133,-2.048 0.78933,-0.896 1.19467,-1.74933 0.40533,-0.87466 0.40533,-1.89866 0,-1.25867 -0.74667,-1.89866 -0.74666,-0.66134 -1.94133,-0.66134 -1.10933,0 -1.96266,0.384 -0.832,0.384 -1.70666,1.06667 l -1.00267,-1.25867 q 0.896,-0.74666 2.048,-1.25866 1.17333,-0.53333 2.62399,-0.53333 2.13333,0 3.37067,1.08799 1.23733,1.06667 1.23733,2.96533 0,1.19467 -0.49067,2.24 -0.49067,1.04533 -1.36533,2.06933 -0.87467,1.00266 -2.048,2.15466 l -3.17866,3.136 v 0.0853 h 7.70132 z"
         id="path44744" />
    </g>
    <path
       id="rect46-2"
       style="fill:#0c1835;stroke-width:1.00235"
       class="l"
       d="m 225.47993,104.70705 h 185.86001 v 53.17902 H 225.47993 Z" />
    <g
       aria-label="LOAD BALANCER"
       transform="scale(0.99765589,1.0023496)"
       id="text58"
       style="font-weight:700;font-size:14.0329px;font-family:Inter-Bold, Inter;font-variation-settings:'slnt' 0, 'wght' 700;fill:#ffffff;stroke-width:1.00235"
       class="f">
      <path
         d="m 260.88146,135.88527 v -10.01949 h 2.11897 v 8.26538 h 4.06954 v 1.75411 z"
         id="path44748" />
      <path
         d="m 277.62271,130.86149 q 0,1.55765 -0.51922,2.72238 -0.50518,1.1507 -1.55765,1.79621 -1.05247,0.64552 -2.69431,0.64552 -1.62782,0 -2.69432,-0.64552 -1.05247,-0.64551 -1.57169,-1.81024 -0.50518,-1.16473 -0.50518,-2.72238 0,-1.55765 0.50518,-2.70835 0.51922,-1.1507 1.57169,-1.78218 1.0665,-0.64551 2.70835,-0.64551 1.62781,0 2.68028,0.64551 1.05247,0.63148 1.55765,1.79621 0.51922,1.1507 0.51922,2.70835 z m -7.31114,0 q 0,1.57169 0.60342,2.48382 0.60341,0.89811 1.93654,0.89811 1.36119,0 1.95057,-0.89811 0.58938,-0.91213 0.58938,-2.48382 0,-1.58572 -0.58938,-2.48382 -0.58938,-0.89811 -1.93654,-0.89811 -1.34716,0 -1.95057,0.89811 -0.60342,0.8981 -0.60342,2.48382 z"
         id="path44750" />
      <path
         d="m 285.55129,135.88527 -0.72971,-2.38559 h -3.64856 l -0.72971,2.38559 h -2.28736 l 3.53629,-10.06159 h 2.59609 l 3.55032,10.06159 z m -1.96461,-6.49723 q -0.0702,-0.23856 -0.18243,-0.60342 -0.11226,-0.36485 -0.22452,-0.74374 -0.11227,-0.37889 -0.18243,-0.65955 -0.0702,0.28066 -0.19646,0.70165 -0.11226,0.40695 -0.22453,0.78584 -0.0982,0.36485 -0.15436,0.51922 l -0.71568,2.32946 h 2.61012 z"
         id="path44752" />
      <path
         d="m 297.4091,130.77729 q 0,2.53996 -1.44539,3.83099 -1.43136,1.27699 -4.02745,1.27699 h -2.83464 v -10.01949 h 3.14337 q 1.57168,0 2.72238,0.56131 1.16473,0.56132 1.79621,1.65589 0.64552,1.08053 0.64552,2.69431 z m -2.20317,0.0561 q 0,-1.66992 -0.72971,-2.44173 -0.72971,-0.78584 -2.11897,-0.78584 h -1.13666 v 6.5253 h 0.91213 q 3.07321,0 3.07321,-3.29773 z"
         id="path44754" />
      <path
         d="m 306.24982,125.86578 q 2.00671,0 3.03111,0.56131 1.0244,0.56132 1.0244,1.97864 0,0.85601 -0.40695,1.44539 -0.39292,0.58938 -1.13667,0.71568 v 0.0702 q 0.50519,0.0982 0.91214,0.35083 0.40696,0.25259 0.64551,0.72971 0.23856,0.47712 0.23856,1.26296 0,1.36119 -0.9823,2.133 -0.9823,0.77181 -2.69432,0.77181 h -3.74678 v -10.01949 z m 0.23856,3.97131 q 0.92617,0 1.277,-0.29469 0.36485,-0.29469 0.36485,-0.85601 0,-0.57535 -0.42098,-0.82794 -0.42099,-0.25259 -1.33313,-0.25259 h -1.12263 v 2.23123 z m -1.23489,1.68395 v 2.61012 h 1.38926 q 0.95423,0 1.33312,-0.36486 0.37889,-0.37889 0.37889,-0.99633 0,-0.56132 -0.39292,-0.89811 -0.37889,-0.35082 -1.38926,-0.35082 z"
         id="path44756" />
      <path
         d="m 318.69702,135.88527 -0.72971,-2.38559 h -3.64856 l -0.72971,2.38559 h -2.28736 l 3.53629,-10.06159 h 2.59608 l 3.55033,10.06159 z m -1.96461,-6.49723 q -0.0702,-0.23856 -0.18243,-0.60342 -0.11226,-0.36485 -0.22452,-0.74374 -0.11227,-0.37889 -0.18243,-0.65955 -0.0702,0.28066 -0.19646,0.70165 -0.11227,0.40695 -0.22453,0.78584 -0.0982,0.36485 -0.15436,0.51922 l -0.71568,2.32946 h 2.61012 z"
         id="path44758" />
      <path
         d="m 322.24735,135.88527 v -10.01949 h 2.11897 v 8.26538 h 4.06954 v 1.75411 z"
         id="path44760" />
      <path
         d="m 336.30832,135.88527 -0.72971,-2.38559 h -3.64855 l -0.72971,2.38559 h -2.28736 l 3.53629,-10.06159 h 2.59608 l 3.55033,10.06159 z m -1.9646,-6.49723 q -0.0702,-0.23856 -0.18243,-0.60342 -0.11226,-0.36485 -0.22453,-0.74374 -0.11226,-0.37889 -0.18242,-0.65955 -0.0702,0.28066 -0.19646,0.70165 -0.11227,0.40695 -0.22453,0.78584 -0.0982,0.36485 -0.15436,0.51922 l -0.71568,2.32946 h 2.61012 z"
         id="path44762" />
      <path
         d="m 348.74148,135.88527 h -2.69431 l -4.36424,-7.57777 h -0.0561 q 0.0281,0.71568 0.0561,1.43136 0.0421,0.71568 0.0702,1.43135 v 4.71506 h -1.89444 v -10.01949 h 2.68028 l 4.3502,7.5076 h 0.0421 q -0.014,-0.70164 -0.0421,-1.38926 -0.0281,-0.68761 -0.0561,-1.37522 v -4.74312 h 1.90847 z"
         id="path44764" />
      <path
         d="m 355.51936,127.4936 q -1.22086,0 -1.86637,0.91213 -0.64552,0.91214 -0.64552,2.49786 0,1.59975 0.58939,2.48382 0.60341,0.87004 1.9225,0.87004 0.61745,0 1.22086,-0.14033 0.61745,-0.14033 1.33313,-0.39292 v 1.78218 q -0.65955,0.26663 -1.30506,0.39292 -0.64551,0.1263 -1.44539,0.1263 -1.54362,0 -2.55399,-0.63148 -0.99633,-0.64552 -1.47345,-1.79621 -0.47712,-1.16473 -0.47712,-2.70835 0,-1.51556 0.54728,-2.68029 0.54729,-1.16473 1.58572,-1.82427 1.05247,-0.65955 2.56802,-0.65955 0.74375,0 1.48749,0.19646 0.75778,0.18243 1.44539,0.50518 l -0.68761,1.72605 q -0.56132,-0.26662 -1.13667,-0.46308 -0.56131,-0.19646 -1.1086,-0.19646 z"
         id="path44766" />
      <path
         d="m 365.97387,135.88527 h -5.76753 v -10.01949 h 5.76753 v 1.74008 h -3.64856 v 2.20316 h 3.39596 v 1.74008 h -3.39596 v 2.58206 h 3.64856 z"
         id="path44768" />
      <path
         d="m 370.9836,125.86578 q 2.0488,0 3.01707,0.74374 0.98231,0.74375 0.98231,2.2593 0,0.68761 -0.26663,1.20683 -0.25259,0.50518 -0.68761,0.87004 -0.42099,0.35082 -0.91214,0.57535 l 2.94691,4.36423 h -2.35753 l -2.38559,-3.84502 h -1.13667 v 3.84502 h -2.11896 v -10.01949 z m -0.15436,1.74008 h -0.64552 v 2.70835 h 0.68762 q 1.05246,0 1.50152,-0.35082 0.46308,-0.35083 0.46308,-1.03844 0,-0.71568 -0.49115,-1.01037 -0.47712,-0.30872 -1.51555,-0.30872 z"
         id="path44770" />
    </g>
    <path
       style="fill:none;fill-rule:evenodd;stroke:#000000;stroke-width:1.00235px;stroke-linecap:butt;stroke-linejoin:miter;stroke-opacity:1;stroke-dasharray:0, 0, 2.00469994, 3.00704991;stroke-dashoffset:0;marker-start:"
       d="M 225.47993,131.29656 101.075,131.176 l 0,52.95659"
       id="path9988"
       sodipodi:nodetypes="ccc" />
    <path
       style="fill:none;fill-rule:evenodd;stroke:#000000;stroke-width:1.00235px;stroke-linecap:butt;stroke-linejoin:miter;stroke-dasharray:0, 0, 2.0047, 3.00705;stroke-dashoffset:0;stroke-opacity:1"
       d="m 410.89652,130.84283 124.40492,-0.12056 v 52.95659"
       id="path9988-3"
       sodipodi:nodetypes="ccc" />
  </g>
  <g
     id="g20"
     transform="translate(0,78)">
    <g
       id="g14">
      <path
         id="rect8"
         class="g"
         style="fill:#ffffff"
         d="m 60.32,190.10001 h 3.92 v 10.21 h -3.92 z" />
      <path
         class="g"
         d="m 55.58,190.24 -7.95,4.29 c -0.11,0.06 -0.26,0.06 -0.37,0 l -7.95,-4.29 c -0.17,-0.09 -0.37,-0.14 -0.57,-0.14 v 0 c -0.6,0 -1.09,0.43 -1.09,0.96 v 9.24 c 0,0 3.91,0 3.91,0 v -4.4 c 0,-0.27 0.33,-0.44 0.6,-0.29 l 4.45,2.41 c 0.44,0.24 0.99,0.24 1.43,0.01 l 4.7,-2.43 c 0.26,-0.14 0.59,0.03 0.59,0.3 v 4.41 c 0,0 3.91,0 3.91,0 v -9.24 c 0,-0.53 -0.49,-0.96 -1.09,-0.96 v 0 c -0.2,0 -0.4,0.05 -0.57,0.14 z"
         id="path10" />
      <path
         class="g"
         d="m 83.76,190.1 h -3.97 c 0,0 0,4.65 0,4.65 0,0.26 -0.31,0.43 -0.58,0.31 l -10.29,-4.84 c -0.16,-0.07 -0.33,-0.11 -0.51,-0.11 v 0 c -0.6,0 -1.09,0.43 -1.09,0.96 v 9.24 c 0,0 3.94,0 3.94,0 v -4.64 c 0,-0.26 0.31,-0.43 0.57,-0.31 l 10.33,4.84 c 0.16,0.07 0.33,0.11 0.51,0.11 v 0 c 0.6,0 1.09,-0.43 1.09,-0.96 v -9.24 z"
         id="path12" />
    </g>
    <path
       class="g"
       d="M 86.84,200.31 V 190.1 h 1.8 v 10.21 z"
       id="path16" />
    <path
       class="g"
       d="m 99.25,200.49 c -4.85,0 -8.28,-2.03 -8.28,-5.29 0,-3.24 3.46,-5.29 8.28,-5.29 4.82,0 8.31,2.03 8.31,5.29 0,3.26 -3.4,5.29 -8.31,5.29 z m 0,-9.22 c -3.6,0 -6.38,1.39 -6.38,3.93 0,2.56 2.78,3.93 6.38,3.93 3.6,0 6.4,-1.37 6.4,-3.93 0,-2.56 -2.8,-3.93 -6.4,-3.93 z"
       id="path18" />
  </g>
  <g
     aria-label="SITE A"
     id="text24"
     class="h"
     style="font-weight:700;font-size:14px;font-family:Inter-Bold, Inter;font-variation-settings:'slnt' 0, 'wght' 700;fill:#ffffff">
    <path
       d="m 123.514,275.49802 q 0,1.33 -0.966,2.128 -0.952,0.784 -2.716,0.784 -1.582,0 -2.828,-0.602 v -1.974 q 0.714,0.308 1.47,0.574 0.77,0.252 1.526,0.252 0.784,0 1.106,-0.294 0.336,-0.308 0.336,-0.77 0,-0.378 -0.266,-0.644 -0.252,-0.266 -0.686,-0.49 -0.434,-0.238 -0.994,-0.504 -0.35,-0.168 -0.756,-0.392 -0.406,-0.238 -0.784,-0.574 -0.364,-0.35 -0.602,-0.84 -0.238,-0.49 -0.238,-1.176 0,-1.344 0.91,-2.086 0.91,-0.756 2.478,-0.756 0.784,0 1.484,0.182 0.714,0.182 1.484,0.518 l -0.686,1.652 q -0.686,-0.28 -1.232,-0.434 -0.546,-0.154 -1.12,-0.154 -0.602,0 -0.924,0.28 -0.322,0.28 -0.322,0.728 0,0.532 0.476,0.84 0.476,0.308 1.414,0.756 0.77,0.364 1.302,0.756 0.546,0.392 0.84,0.924 0.294,0.532 0.294,1.316 z"
       id="path44711" />
    <path
       d="m 129.07201,278.27002 h -4.55 v -1.204 l 1.218,-0.56 v -6.468 l -1.218,-0.56 v -1.204 h 4.55 v 1.204 l -1.218,0.56 v 6.468 l 1.218,0.56 z"
       id="path44713" />
    <path
       d="m 134.63001,278.27002 h -2.114 v -8.232 h -2.716 v -1.764 h 7.546 v 1.764 h -2.716 z"
       id="path44715" />
    <path
       d="m 144.64001,278.27002 h -5.754 v -9.996 h 5.754 v 1.736 h -3.64 v 2.198 h 3.388 v 1.736 h -3.388 v 2.576 h 3.64 z"
       id="path44717" />
    <path
       d="m 156.48401,278.27002 -0.728,-2.38 h -3.64 l -0.728,2.38 h -2.282 l 3.528,-10.038 h 2.59 l 3.542,10.038 z m -1.96,-6.482 q -0.07,-0.238 -0.182,-0.602 -0.112,-0.364 -0.224,-0.742 -0.112,-0.378 -0.182,-0.658 -0.07,0.28 -0.196,0.7 -0.112,0.406 -0.224,0.784 -0.098,0.364 -0.154,0.518 l -0.714,2.324 h 2.604 z"
       id="path44719" />
  </g>
  <path
     id="rect66"
     class="f"
     style="fill:#f6f6f6"
     d="M 14.99,18.85 H 171.6 V 72.480001 H 14.99 Z" />
  <path
     id="line68"
     class="c"
     style="fill:none;stroke:#cf2144;stroke-miterlimit:10;stroke-dasharray:0, 0, 2, 3"
     d="M 29.24,35.610001 H 61.310001" />
  <path
     id="line70"
     class="b"
     style="fill:none;stroke:#1b1717;stroke-miterlimit:10;stroke-dasharray:0, 0, 2, 3"
     d="M 29.24,53.59 H 61.310001" />
  <g
     aria-label="ReplicationTraffic"
     id="text82"
     class="p"
     style="font-weight:500;font-size:8px;font-family:Inter-Medium, Inter;font-variation-settings:'slnt' 0, 'wght' 500">
    <path
       d="m 80.520004,32.598001 q 1.096,0 1.616,0.408 0.528,0.408 0.528,1.24 0,0.44 -0.168,0.744 -0.16,0.296 -0.416,0.488 -0.256,0.184 -0.536,0.296 l 1.6,2.536 h -0.992 l -1.376,-2.312 h -0.992 v 2.312 h -0.864 v -5.712 z m -0.056,0.736 h -0.68 v 1.944 h 0.72 q 0.664,0 0.968,-0.248 0.304,-0.256 0.304,-0.752 0,-0.512 -0.32,-0.728 -0.32,-0.216 -0.992,-0.216 z"
       style="letter-spacing:0em"
       id="path44675" />
    <path
       d="m 85.620002,33.918001 q 0.848,0 1.336,0.528 0.488,0.52 0.488,1.424 v 0.464 h -2.896 q 0.016,0.664 0.344,1.016 0.336,0.352 0.936,0.352 0.416,0 0.736,-0.072 0.328,-0.08 0.672,-0.232 v 0.704 q -0.328,0.144 -0.656,0.216 -0.328,0.072 -0.784,0.072 -0.632,0 -1.112,-0.248 -0.472,-0.248 -0.744,-0.736 -0.264,-0.496 -0.264,-1.216 0,-0.728 0.24,-1.232 0.248,-0.504 0.68,-0.768 0.44,-0.272 1.024,-0.272 z m 0,0.656 q -0.456,0 -0.736,0.296 -0.272,0.296 -0.32,0.84 h 2.032 q -0.008,-0.504 -0.248,-0.816 -0.232,-0.32 -0.728,-0.32 z"
       style="letter-spacing:0em"
       id="path44677" />
    <path
       d="m 90.652006,33.918001 q 0.776,0 1.248,0.56 0.48,0.56 0.48,1.672 0,1.096 -0.48,1.672 -0.48,0.568 -1.256,0.568 -0.496,0 -0.808,-0.176 -0.304,-0.184 -0.488,-0.432 h -0.056 q 0.024,0.144 0.04,0.344 0.016,0.192 0.016,0.344 v 1.76 h -0.848 v -6.232 h 0.688 l 0.12,0.576 h 0.04 q 0.184,-0.272 0.488,-0.464 0.312,-0.192 0.816,-0.192 z m -0.2,0.696 q -0.6,0 -0.848,0.352 -0.248,0.344 -0.256,1.048 v 0.128 q 0,0.744 0.24,1.152 0.24,0.4 0.88,0.4 0.528,0 0.784,-0.432 0.256,-0.432 0.256,-1.128 0,-0.704 -0.256,-1.112 -0.256,-0.408 -0.8,-0.408 z"
       style="letter-spacing:0em"
       id="path44679" />
    <path
       d="m 94.308013,38.310001 h -0.848 v -6.08 h 0.848 z"
       style="letter-spacing:0em"
       id="path44681" />
    <path
       d="m 96.068008,32.358001 q 0.192,0 0.336,0.112 0.144,0.112 0.144,0.376 0,0.256 -0.144,0.376 -0.144,0.112 -0.336,0.112 -0.208,0 -0.352,-0.112 -0.136,-0.12 -0.136,-0.376 0,-0.264 0.136,-0.376 0.144,-0.112 0.352,-0.112 z m 0.416,1.64 v 4.312 h -0.848 v -4.312 z"
       style="letter-spacing:0em"
       id="path44683" />
    <path
       d="m 99.548003,38.390001 q -0.896,0 -1.44,-0.528 -0.544,-0.536 -0.544,-1.68 0,-0.8 0.264,-1.296 0.264,-0.496 0.728,-0.728 0.464,-0.24 1.056,-0.24 0.36,0 0.671997,0.08 0.32,0.072 0.528,0.168 l -0.256,0.688 q -0.224,-0.088 -0.48,-0.152 -0.247997,-0.064 -0.471997,-0.064 -1.168,0 -1.168,1.536 0,0.736 0.288,1.12 0.288,0.384 0.848,0.384 0.36,0 0.631997,-0.08 0.28,-0.08 0.512,-0.208 v 0.736 q -0.232,0.136 -0.504,0.2 -0.271997,0.064 -0.663997,0.064 z"
       style="letter-spacing:0em"
       id="path44685" />
    <path
       d="m 103.404,33.918001 q 0.808,0 1.208,0.36 0.408,0.352 0.408,1.112 v 2.92 h -0.6 l -0.168,-0.6 h -0.032 q -0.28,0.352 -0.592,0.52 -0.304,0.16 -0.848,0.16 -0.584,0 -0.968,-0.312 -0.384,-0.32 -0.384,-0.992 0,-0.656 0.496,-1 0.496,-0.344 1.528,-0.376 l 0.736,-0.024 v -0.24 q 0,-0.472 -0.216,-0.664 -0.216,-0.2 -0.608,-0.2 -0.328,0 -0.632,0.096 -0.304,0.096 -0.584,0.232 l -0.272,-0.616 q 0.304,-0.16 0.696,-0.264 0.4,-0.112 0.832,-0.112 z m 0.2,2.336 q -0.736,0.032 -1.024,0.248 -0.28,0.208 -0.28,0.592 0,0.336 0.2,0.488 0.2,0.152 0.52,0.152 0.496,0 0.824,-0.28 0.336,-0.28 0.336,-0.84 v -0.376 z"
       style="letter-spacing:0em"
       id="path44687" />
    <path
       d="m 107.876,37.702001 q 0.168,0 0.344,-0.024 0.176,-0.032 0.304,-0.08 v 0.64 q -0.144,0.064 -0.376,0.104 -0.224,0.048 -0.456,0.048 -0.352,0 -0.648,-0.12 -0.296,-0.12 -0.472,-0.416 -0.168,-0.296 -0.168,-0.824 v -2.384 h -0.6 v -0.384 l 0.632,-0.32 0.296,-0.912 h 0.52 v 0.968 h 1.232 v 0.648 h -1.232 v 2.368 q 0,0.352 0.168,0.52 0.176,0.168 0.456,0.168 z"
       style="letter-spacing:0em"
       id="path44689" />
    <path
       d="m 109.81999,32.358001 q 0.192,0 0.336,0.112 0.144,0.112 0.144,0.376 0,0.256 -0.144,0.376 -0.144,0.112 -0.336,0.112 -0.208,0 -0.352,-0.112 -0.136,-0.12 -0.136,-0.376 0,-0.264 0.136,-0.376 0.144,-0.112 0.352,-0.112 z m 0.416,1.64 v 4.312 h -0.848 v -4.312 z"
       style="letter-spacing:0em"
       id="path44691" />
    <path
       d="m 115.36399,36.150001 q 0,1.072 -0.552,1.656 -0.552,0.584 -1.488,0.584 -0.584,0 -1.04,-0.264 -0.448,-0.264 -0.712,-0.76 -0.256,-0.504 -0.256,-1.216 0,-1.072 0.544,-1.648 0.544,-0.584 1.488,-0.584 0.592,0 1.04,0.264 0.456,0.256 0.712,0.752 0.264,0.496 0.264,1.216 z m -3.176,0 q 0,0.728 0.272,1.136 0.28,0.408 0.88,0.408 0.6,0 0.872,-0.408 0.28,-0.408 0.28,-1.136 0,-0.736 -0.28,-1.128 -0.28,-0.4 -0.88,-0.4 -0.6,0 -0.872,0.4 -0.272,0.392 -0.272,1.128 z"
       style="letter-spacing:0em"
       id="path44693" />
    <path
       d="m 118.61998,33.918001 q 0.752,0 1.152,0.376 0.4,0.376 0.4,1.208 v 2.808 h -0.84 v -2.688 q 0,-1.008 -0.888,-1.008 -0.664,0 -0.912,0.392 -0.248,0.392 -0.248,1.128 v 2.176 h -0.848 v -4.312 h 0.672 l 0.12,0.576 h 0.048 q 0.208,-0.336 0.568,-0.496 0.368,-0.16 0.776,-0.16 z"
       style="letter-spacing:0em"
       id="path44695" />
    <path
       d="m 125.34,38.310001 h -0.864 v -4.968 h -1.712 v -0.744 h 4.288 v 0.744 h -1.712 z"
       style="letter-spacing:-0.06em"
       id="path44697" />
    <path
       d="m 130.202,33.918001 q 0.112,0 0.24,0.016 0.136,0.008 0.232,0.024 l -0.088,0.792 q -0.208,-0.056 -0.432,-0.056 -0.32,0 -0.608,0.16 -0.28,0.16 -0.456,0.464 -0.168,0.296 -0.168,0.72 v 2.272 h -0.848 v -4.312 h 0.672 l 0.112,0.768 h 0.032 q 0.208,-0.344 0.536,-0.592 0.328,-0.256 0.776,-0.256 z"
       style="letter-spacing:0em"
       id="path44699" />
    <path
       d="m 132.786,33.918001 q 0.808,0 1.208,0.36 0.408,0.352 0.408,1.112 v 2.92 h -0.6 l -0.168,-0.6 h -0.032 q -0.28,0.352 -0.592,0.52 -0.304,0.16 -0.848,0.16 -0.584,0 -0.968,-0.312 -0.384,-0.32 -0.384,-0.992 0,-0.656 0.496,-1 0.496,-0.344 1.528,-0.376 l 0.736,-0.024 v -0.24 q 0,-0.472 -0.216,-0.664 -0.216,-0.2 -0.608,-0.2 -0.328,0 -0.632,0.096 -0.304,0.096 -0.584,0.232 l -0.272,-0.616 q 0.304,-0.16 0.696,-0.264 0.4,-0.112 0.832,-0.112 z m 0.2,2.336 q -0.736,0.032 -1.024,0.248 -0.28,0.208 -0.28,0.592 0,0.336 0.2,0.488 0.2,0.152 0.52,0.152 0.496,0 0.824,-0.28 0.336,-0.28 0.336,-0.84 v -0.376 z"
       style="letter-spacing:0em"
       id="path44701" />
    <path
       d="m 137.80999,34.646001 h -1.064 v 3.664 h -0.848 v -3.664 h -0.728 v -0.4 l 0.728,-0.264 v -0.272 q 0,-0.824 0.376,-1.168 0.384,-0.352 1.064,-0.352 0.28,0 0.512,0.048 0.232,0.048 0.392,0.104 l -0.216,0.648 q -0.136,-0.04 -0.304,-0.072 -0.16,-0.04 -0.344,-0.04 -0.632,0 -0.632,0.84 v 0.28 h 1.064 z m 2.856,0 h -1.064 v 3.664 h -0.848 v -3.664 h -0.728 v -0.4 l 0.728,-0.264 v -0.272 q 0,-0.824 0.376,-1.168 0.384,-0.352 1.064,-0.352 0.28,0 0.512,0.048 0.232,0.048 0.392,0.104 l -0.216,0.648 q -0.136,-0.04 -0.304,-0.072 -0.16,-0.04 -0.344,-0.04 -0.632,0 -0.632,0.84 v 0.28 h 1.064 z m 1.176,-2.288 q 0.192,0 0.336,0.112 0.144,0.112 0.144,0.376 0,0.256 -0.144,0.376 -0.144,0.112 -0.336,0.112 -0.208,0 -0.352,-0.112 -0.136,-0.12 -0.136,-0.376 0,-0.264 0.136,-0.376 0.144,-0.112 0.352,-0.112 z m 0.416,1.64 v 4.312 h -0.848 v -4.312 z"
       style="letter-spacing:0em"
       id="path44703" />
    <path
       d="m 145.322,38.390001 q -0.896,0 -1.44,-0.528 -0.544,-0.536 -0.544,-1.68 0,-0.8 0.264,-1.296 0.264,-0.496 0.728,-0.728 0.464,-0.24 1.056,-0.24 0.36,0 0.672,0.08 0.32,0.072 0.528,0.168 l -0.256,0.688 q -0.224,-0.088 -0.48,-0.152 -0.248,-0.064 -0.472,-0.064 -1.168,0 -1.168,1.536 0,0.736 0.288,1.12 0.288,0.384 0.848,0.384 0.36,0 0.632,-0.08 0.28,-0.08 0.512,-0.208 v 0.736 q -0.232,0.136 -0.504,0.2 -0.272,0.064 -0.664,0.064 z"
       style="letter-spacing:0em"
       id="path44705" />
  </g>
  <g
     aria-label="NetworkLinks"
     id="text92"
     class="p"
     style="font-weight:500;font-size:8px;font-family:Inter-Medium, Inter;font-variation-settings:'slnt' 0, 'wght' 500">
    <path
       d="m 83.45727,56.09 h -1.048 l -2.888,-4.616 h -0.032 q 0.016,0.32 0.04,0.736 0.024,0.408 0.024,0.84 v 3.04 h -0.784 v -5.712 h 1.04 l 2.88,4.592 h 0.024 q -0.008,-0.168 -0.024,-0.424 -0.008,-0.256 -0.016,-0.544 -0.008,-0.296 -0.016,-0.552 v -3.072 h 0.8 z"
       id="path44650" />
    <path
       d="m 86.577278,51.698 q 0.848,0 1.336,0.528 0.488,0.52 0.488,1.424 v 0.464 h -2.896 q 0.016,0.664 0.344,1.016 0.336,0.352 0.936,0.352 0.416,0 0.736,-0.072 0.328,-0.08 0.672,-0.232 v 0.704 q -0.328,0.144 -0.656,0.216 -0.328,0.072 -0.784,0.072 -0.632,0 -1.112,-0.248 -0.472,-0.248 -0.744,-0.736 -0.264,-0.496 -0.264,-1.216 0,-0.728 0.24,-1.232 0.248,-0.504 0.68,-0.768 0.44,-0.272 1.024,-0.272 z m 0,0.656 q -0.456,0 -0.736,0.296 -0.272,0.296 -0.32,0.84 h 2.032 q -0.008,-0.504 -0.248,-0.816 -0.232,-0.32 -0.728,-0.32 z"
       id="path44652" />
    <path
       d="m 91.009282,55.482 q 0.168,0 0.344,-0.024 0.176,-0.032 0.304,-0.08 v 0.64 q -0.144,0.064 -0.376,0.104 -0.224,0.048 -0.456,0.048 -0.352,0 -0.648,-0.12 -0.296,-0.12 -0.472,-0.416 -0.168,-0.296 -0.168,-0.824 v -2.384 h -0.6 v -0.384 l 0.632,-0.32 0.296,-0.912 h 0.52 v 0.968 h 1.232 v 0.648 h -1.232 v 2.368 q 0,0.352 0.168,0.52 0.176,0.168 0.456,0.168 z"
       id="path44654" />
    <path
       d="m 95.433277,53.93 q -0.064,-0.208 -0.136,-0.48 -0.064,-0.272 -0.12,-0.512 -0.056,-0.248 -0.088,-0.376 h -0.032 q -0.024,0.128 -0.08,0.376 -0.056,0.248 -0.128,0.52 -0.064,0.272 -0.128,0.48 l -0.64,2.144 h -0.944 l -1.192,-4.312 h 0.864 l 0.56,2.184 q 0.088,0.336 0.16,0.72 0.08,0.376 0.112,0.608 h 0.032 q 0.024,-0.136 0.064,-0.36 0.048,-0.224 0.096,-0.448 0.056,-0.232 0.104,-0.376 l 0.688,-2.328 h 0.928 l 0.672,2.328 q 0.048,0.16 0.104,0.384 0.056,0.216 0.096,0.432 0.048,0.208 0.064,0.36 h 0.032 q 0.016,-0.128 0.056,-0.352 0.04,-0.224 0.096,-0.48 0.064,-0.256 0.12,-0.488 l 0.576,-2.184 h 0.856 l -1.208,4.312 h -0.968 z"
       id="path44656" />
    <path
       d="m 102.77727,53.93 q 0,1.072 -0.552,1.656 -0.552,0.584 -1.488,0.584 -0.584,0 -1.039999,-0.264 -0.448,-0.264 -0.712,-0.76 -0.256,-0.504 -0.256,-1.216 0,-1.072 0.544,-1.648 0.544,-0.584 1.487999,-0.584 0.592,0 1.04,0.264 0.456,0.256 0.712,0.752 0.264,0.496 0.264,1.216 z m -3.175999,0 q 0,0.728 0.272,1.136 0.279999,0.408 0.879999,0.408 0.6,0 0.872,-0.408 0.28,-0.408 0.28,-1.136 0,-0.736 -0.28,-1.128 -0.28,-0.4 -0.88,-0.4 -0.6,0 -0.871999,0.4 -0.272,0.392 -0.272,1.128 z"
       id="path44658" />
    <path
       d="m 105.97726,51.698 q 0.112,0 0.24,0.016 0.136,0.008 0.232,0.024 l -0.088,0.792 q -0.208,-0.056 -0.432,-0.056 -0.32,0 -0.608,0.16 -0.28,0.16 -0.456,0.464 -0.168,0.296 -0.168,0.72 v 2.272 h -0.848 v -4.312 h 0.672 l 0.112,0.768 h 0.032 q 0.208,-0.344 0.536,-0.592 0.328,-0.256 0.776,-0.256 z"
       id="path44660" />
    <path
       d="m 108.08926,53.05 q 0,0.16 -0.016,0.384 -0.016,0.224 -0.024,0.4 h 0.024 q 0.088,-0.12 0.24,-0.312 0.16,-0.2 0.28,-0.328 l 1.32,-1.416 h 0.984 l -1.736,1.848 1.848,2.464 h -1 l -1.424,-1.928 -0.496,0.416 v 1.512 h -0.84 v -6.08 h 0.84 z"
       id="path44662" />
    <path
       d="m 111.81726,56.09 v -5.712 h 0.864 v 4.968 h 2.44 v 0.744 z"
       id="path44664" />
    <path
       d="m 116.44125,50.138 q 0.192,0 0.336,0.112 0.144,0.112 0.144,0.376 0,0.256 -0.144,0.376 -0.144,0.112 -0.336,0.112 -0.208,0 -0.352,-0.112 -0.136,-0.12 -0.136,-0.376 0,-0.264 0.136,-0.376 0.144,-0.112 0.352,-0.112 z m 0.416,1.64 v 4.312 h -0.848 v -4.312 z"
       id="path44666" />
    <path
       d="m 120.36925,51.698 q 0.752,0 1.152,0.376 0.4,0.376 0.4,1.208 v 2.808 h -0.84 v -2.688 q 0,-1.008 -0.888,-1.008 -0.664,0 -0.912,0.392 -0.248,0.392 -0.248,1.128 v 2.176 h -0.848 v -4.312 h 0.672 l 0.12,0.576 h 0.048 q 0.208,-0.336 0.568,-0.496 0.368,-0.16 0.776,-0.16 z"
       id="path44668" />
    <path
       d="m 124.06524,53.05 q 0,0.16 -0.016,0.384 -0.016,0.224 -0.024,0.4 h 0.024 q 0.088,-0.12 0.24,-0.312 0.16,-0.2 0.28,-0.328 l 1.32,-1.416 h 0.984 l -1.736,1.848 1.848,2.464 h -1 l -1.424,-1.928 -0.496,0.416 v 1.512 h -0.84 v -6.08 h 0.84 z"
       id="path44670" />
    <path
       d="m 130.56124,54.874 q 0,0.632 -0.464,0.968 -0.464,0.328 -1.288,0.328 -0.456,0 -0.784,-0.072 -0.32,-0.064 -0.592,-0.192 v -0.744 q 0.28,0.136 0.656,0.248 0.384,0.104 0.744,0.104 0.48,0 0.688,-0.152 0.216,-0.152 0.216,-0.408 0,-0.144 -0.08,-0.256 -0.08,-0.12 -0.304,-0.24 -0.216,-0.128 -0.64,-0.288 -0.416,-0.168 -0.704,-0.328 -0.28,-0.168 -0.432,-0.392 -0.152,-0.232 -0.152,-0.592 0,-0.56 0.448,-0.856 0.456,-0.304 1.2,-0.304 0.392,0 0.736,0.08 0.352,0.08 0.68,0.224 l -0.28,0.648 q -0.28,-0.12 -0.576,-0.2 -0.296,-0.088 -0.6,-0.088 -0.384,0 -0.584,0.12 -0.2,0.12 -0.2,0.336 0,0.152 0.096,0.264 0.096,0.112 0.32,0.224 0.232,0.112 0.632,0.272 0.4,0.152 0.68,0.312 0.288,0.16 0.432,0.392 0.152,0.232 0.152,0.592 z"
       id="path44672" />
  </g>
  <path
     id="polygon94"
     class="l"
     transform="translate(0,78)"
     style="fill:#577f9a"
     d="m 77.63,245.89 -5.84,-7.11 H 16.73 v 23.98 h 60.9 z" />
  <path
     id="polygon96"
     class="m"
     transform="translate(0,78)"
     style="fill:#4e7489"
     d="m 68.51,244.63 v 18.13 h 9.12 v -16.87 l -1.04,-1.26 z" />
  <g
     aria-label="CONFIG"
     id="text100"
     class="i"
     style="font-weight:700;font-size:10.56px;font-family:Inter-Bold, Inter;font-variation-settings:'slnt' 0, 'wght' 700;fill:#ffffff">
    <path
       d="m 28.80008,326.77512 q -0.91872,0 -1.40448,0.6864 -0.48576,0.6864 -0.48576,1.87968 0,1.20384 0.44352,1.86912 0.45408,0.65472 1.44672,0.65472 0.46464,0 0.91872,-0.1056 0.46464,-0.1056 1.0032,-0.29568 v 1.34112 q -0.49632,0.20064 -0.98208,0.29568 -0.48576,0.095 -1.08768,0.095 -1.1616,0 -1.92192,-0.4752 -0.74976,-0.48576 -1.1088,-1.35168 -0.35904,-0.87648 -0.35904,-2.03808 0,-1.14048 0.41184,-2.01696 0.41184,-0.87648 1.19328,-1.3728 0.792,-0.49632 1.93248,-0.49632 0.55968,0 1.11936,0.14784 0.57024,0.13728 1.08768,0.38016 l -0.51744,1.29888 q -0.4224,-0.20064 -0.85536,-0.34848 -0.4224,-0.14784 -0.83424,-0.14784 z"
       id="path44635" />
    <path
       d="m 38.958786,329.30952 q 0,1.17216 -0.39072,2.04864 -0.38016,0.86592 -1.17216,1.35168 -0.792,0.48576 -2.02752,0.48576 -1.22496,0 -2.02752,-0.48576 -0.792,-0.48576 -1.18272,-1.36224 -0.38016,-0.87648 -0.38016,-2.04864 0,-1.17216 0.38016,-2.03808 0.39072,-0.86592 1.18272,-1.34112 0.80256,-0.48576 2.03808,-0.48576 1.22496,0 2.01696,0.48576 0.792,0.4752 1.17216,1.35168 0.39072,0.86592 0.39072,2.03808 z m -5.50176,0 q 0,1.18272 0.45408,1.86912 0.45408,0.67584 1.45728,0.67584 1.02432,0 1.46784,-0.67584 0.44352,-0.6864 0.44352,-1.86912 0,-1.19328 -0.44352,-1.86912 -0.44352,-0.67584 -1.45728,-0.67584 -1.01376,0 -1.46784,0.67584 -0.45408,0.67584 -0.45408,1.86912 z"
       id="path44637" />
    <path
       d="m 47.206141,333.09 h -2.02752 l -3.28416,-5.7024 h -0.04224 q 0.02112,0.53856 0.04224,1.07712 0.03168,0.53856 0.0528,1.07712 V 333.09 H 40.52166 v -7.53984 h 2.016961 l 3.2736,5.6496 h 0.03168 q -0.01056,-0.528 -0.03168,-1.04544 -0.02112,-0.51744 -0.04224,-1.03488 v -3.56928 h 1.43616 z"
       id="path44639" />
    <path
       d="m 50.680378,333.09 h -1.57344 v -7.53984 h 4.31904 v 1.30944 h -2.7456 v 1.94304 h 2.55552 v 1.30944 h -2.55552 z"
       id="path44641" />
    <path
       d="m 57.723898,333.09 h -3.432 v -0.90816 l 0.91872,-0.4224 v -4.87872 l -0.91872,-0.4224 v -0.90816 h 3.432 v 0.90816 l -0.91872,0.4224 v 4.87872 l 0.91872,0.4224 z"
       id="path44643" />
    <path
       d="m 61.873975,328.85544 h 2.988481 v 3.9072 q -0.59136,0.20064 -1.235521,0.3168 -0.6336,0.11616 -1.44672,0.11616 -1.6896,0 -2.59776,-0.99264 -0.90816,-0.99264 -0.90816,-2.89344 0,-1.18272 0.45408,-2.04864 0.46464,-0.86592 1.34112,-1.34112 0.87648,-0.4752 2.14368,-0.4752 0.60192,0 1.18272,0.12672 0.580801,0.12672 1.056001,0.33792 l -0.528,1.27776 q -0.348481,-0.17952 -0.792001,-0.29568 -0.44352,-0.11616 -0.92928,-0.11616 -0.69696,0 -1.2144,0.3168 -0.50688,0.3168 -0.792,0.8976 -0.27456,0.57024 -0.27456,1.35168 0,0.7392 0.20064,1.30944 0.20064,0.57024 0.6336,0.8976 0.43296,0.3168 1.12992,0.3168 0.33792,0 0.57024,-0.0317 0.24288,-0.0317 0.44352,-0.0739 V 330.186 h -1.4256 z"
       id="path44645" />
  </g>
  <path
     id="polygon102"
     class="l"
     transform="translate(0,78)"
     style="fill:#577f9a"
     d="m 131.52,254.1 -5.84,-7.11 H 70.63 v 23.98 h 60.89 z" />
  <g
     id="g108"
     transform="translate(0,78)">
    <path
       id="polygon104"
       class="m"
       style="fill:#4e7489"
       d="m 122.08,252.84 v 18.14 h 9.12 v -16.87 l -1.04,-1.27 z" />
    <path
       id="polygon106"
       class="l"
       style="fill:#577f9a"
       d="m 185.09,262.32 -5.84,-7.12 H 124.2 v 23.99 h 60.89 z" />
  </g>
  <g
     aria-label="IAM"
     id="text112"
     class="i"
     style="font-weight:700;font-size:10.56px;font-family:Inter-Bold, Inter;font-variation-settings:'slnt' 0, 'wght' 700;fill:#ffffff">
    <path
       d="m 92.619919,341.29999 h -3.432001 v -0.90816 l 0.918721,-0.4224 v -4.87872 l -0.918721,-0.4224 v -0.90816 h 3.432001 v 0.90816 l -0.91872,0.4224 v 4.87872 l 0.91872,0.4224 z"
       id="path44625" />
    <path
       d="m 98.522958,341.29999 -0.54912,-1.7952 h -2.7456 l -0.54912,1.7952 h -1.72128 l 2.66112,-7.57152 h 1.9536 l 2.671682,7.57152 z m -1.4784,-4.88928 q -0.0528,-0.17952 -0.13728,-0.45408 -0.08448,-0.27456 -0.16896,-0.55968 -0.08448,-0.28512 -0.13728,-0.49632 -0.0528,0.2112 -0.14784,0.528 -0.08448,0.30624 -0.16896,0.59136 -0.07392,0.27456 -0.11616,0.39072 l -0.53856,1.75296 h 1.96416 z"
       id="path44627" />
    <path
       d="m 104.38376,341.29999 -1.81632,-5.9136 h -0.0422 q 0.0106,0.2112 0.0317,0.6336 0.0211,0.4224 0.0422,0.90816 0.0211,0.4752 0.0211,0.86592 v 3.50592 h -1.4256 v -7.53984 H 103.37 l 1.78464,5.76576 h 0.0317 l 1.89024,-5.76576 h 2.17536 v 7.53984 h -1.48896 v -3.56928 q 0,-0.35904 0.0106,-0.82368 0.0211,-0.46464 0.0317,-0.87648 0.0211,-0.4224 0.0317,-0.6336 h -0.0422 l -1.94304,5.90304 z"
       id="path44629" />
  </g>
  <g
     aria-label="BUCKETS"
     id="text116"
     class="i"
     style="font-weight:700;font-size:10.56px;font-family:Inter-Bold, Inter;font-variation-settings:'slnt' 0, 'wght' 700;fill:#ffffff">
    <path
       d="m 133.68472,341.97017 q 1.51008,0 2.28096,0.4224 0.77088,0.4224 0.77088,1.48896 0,0.64416 -0.30624,1.08768 -0.29568,0.44352 -0.85536,0.53856 v 0.0528 q 0.38016,0.0739 0.6864,0.264 0.30624,0.19008 0.48576,0.54912 0.17952,0.35904 0.17952,0.9504 0,1.02432 -0.7392,1.60512 -0.7392,0.5808 -2.02752,0.5808 h -2.81952 v -7.53984 z m 0.17952,2.98848 q 0.69696,0 0.96096,-0.22176 0.27456,-0.22176 0.27456,-0.64416 0,-0.43296 -0.3168,-0.62304 -0.3168,-0.19008 -1.0032,-0.19008 h -0.8448 v 1.67904 z m -0.92928,1.2672 v 1.96416 h 1.04544 q 0.71808,0 1.0032,-0.27456 0.28512,-0.28512 0.28512,-0.74976 0,-0.4224 -0.29568,-0.67584 -0.28512,-0.264 -1.04544,-0.264 z"
       id="path44610" />
    <path
       d="m 144.57209,346.84889 q 0,0.78144 -0.34848,1.41504 -0.33792,0.62304 -1.03488,0.99264 -0.6864,0.35904 -1.7424,0.35904 -1.49952,0 -2.28096,-0.76032 -0.78144,-0.77088 -0.78144,-2.02752 v -4.8576 h 1.59456 v 4.61472 q 0,0.92928 0.38016,1.30944 0.38016,0.38016 1.12992,0.38016 0.78144,0 1.12992,-0.41184 0.35904,-0.41184 0.35904,-1.28832 v -4.60416 h 1.59456 z"
       id="path44612" />
    <path
       d="m 149.61978,343.19513 q -0.91872,0 -1.40448,0.6864 -0.48576,0.6864 -0.48576,1.87968 0,1.20384 0.44352,1.86912 0.45408,0.65472 1.44672,0.65472 0.46464,0 0.91872,-0.1056 0.46464,-0.1056 1.0032,-0.29568 v 1.34112 q -0.49632,0.20064 -0.98208,0.29568 -0.48576,0.095 -1.08768,0.095 -1.1616,0 -1.92192,-0.4752 -0.74976,-0.48576 -1.1088,-1.35168 -0.35904,-0.87648 -0.35904,-2.03808 0,-1.14048 0.41184,-2.01696 0.41184,-0.87648 1.19328,-1.3728 0.792,-0.49632 1.93248,-0.49632 0.55968,0 1.11936,0.14784 0.57024,0.13728 1.08768,0.38016 l -0.51744,1.29888 q -0.4224,-0.20064 -0.85536,-0.34848 -0.4224,-0.14784 -0.83424,-0.14784 z"
       id="path44614" />
    <path
       d="m 159.20825,349.51001 h -1.81632 l -1.97472,-3.17856 -0.67584,0.48576 v 2.6928 h -1.59456 v -7.53984 h 1.59456 v 3.45312 q 0.1584,-0.22176 0.3168,-0.44352 0.1584,-0.22176 0.3168,-0.44352 l 2.03808,-2.56608 h 1.77408 l -2.62944,3.33696 z"
       id="path44616" />
    <path
       d="m 164.4988,349.51001 h -4.34016 v -7.53984 h 4.34016 v 1.30944 h -2.7456 v 1.65792 h 2.55552 v 1.30944 h -2.55552 v 1.94304 h 2.7456 z"
       id="path44618" />
    <path
       d="m 168.97624,349.51001 h -1.59456 v -6.20928 h -2.04864 v -1.33056 h 5.69184 v 1.33056 h -2.04864 z"
       id="path44620" />
    <path
       d="m 176.63224,347.41913 q 0,1.0032 -0.72864,1.60512 -0.71808,0.59136 -2.04864,0.59136 -1.19328,0 -2.13312,-0.45408 v -1.48896 q 0.53856,0.23232 1.1088,0.43296 0.5808,0.19008 1.15104,0.19008 0.59136,0 0.83424,-0.22176 0.25344,-0.23232 0.25344,-0.5808 0,-0.28512 -0.20064,-0.48576 -0.19008,-0.20064 -0.51744,-0.3696 -0.32736,-0.17952 -0.74976,-0.38016 -0.264,-0.12672 -0.57024,-0.29568 -0.30624,-0.17952 -0.59136,-0.43296 -0.27456,-0.264 -0.45408,-0.6336 -0.17952,-0.3696 -0.17952,-0.88704 0,-1.01376 0.6864,-1.57344 0.6864,-0.57024 1.86912,-0.57024 0.59136,0 1.11936,0.13728 0.53856,0.13728 1.11936,0.39072 l -0.51744,1.24608 q -0.51744,-0.2112 -0.92928,-0.32736 -0.41184,-0.11616 -0.8448,-0.11616 -0.45408,0 -0.69696,0.2112 -0.24288,0.2112 -0.24288,0.54912 0,0.40128 0.35904,0.6336 0.35904,0.23232 1.06656,0.57024 0.5808,0.27456 0.98208,0.57024 0.41184,0.29568 0.6336,0.69696 0.22176,0.40128 0.22176,0.99264 z"
       id="path44622" />
  </g>
  <path
     id="polygon120"
     class="j"
     transform="translate(3.79,190.53)"
     style="fill:#9fbecc"
     d="m 494.55,148.99 h 9.12 v -16.87 l -1.04,-1.27 h -8.08 z" />
  <path
     id="polygon128"
     class="j"
     transform="translate(3.79,190.53)"
     style="fill:#9fbecc"
     d="m 548.12,157.21 h 9.12 v -16.87 l -1.04,-1.27 h -8.08 z" />
  <g
     id="g9031"
     transform="translate(0,78)">
    <path
       id="rect26"
       style="fill:#cf2144;stroke-width:1.53928"
       class="k"
       d="m 447.0972,165.23999 h 176.1566 v 122.0392 H 447.0972 Z" />
    <g
       id="g40"
       transform="translate(8.4738136,112.53)">
      <g
         id="g34">
        <path
           id="rect28"
           class="g"
           style="fill:#ffffff"
           d="m 490.01999,75.800003 h 3.92 v 10.21 h -3.92 z" />
        <path
           class="g"
           d="m 485.27,75.94 -7.95,4.29 c -0.11,0.06 -0.26,0.06 -0.37,0 L 469,75.94 c -0.17,-0.09 -0.37,-0.14 -0.57,-0.14 v 0 c -0.6,0 -1.09,0.43 -1.09,0.96 V 86 c 0,0 3.91,0 3.91,0 v -4.4 c 0,-0.27 0.33,-0.44 0.6,-0.29 l 4.45,2.41 c 0.44,0.24 0.99,0.24 1.43,0.01 l 4.7,-2.43 c 0.26,-0.14 0.59,0.03 0.59,0.3 v 4.41 c 0,0 3.91,0 3.91,0 v -9.24 c 0,-0.53 -0.49,-0.96 -1.09,-0.96 v 0 c -0.2,0 -0.4,0.05 -0.57,0.14 z"
           id="path30" />
        <path
           class="g"
           d="m 513.46,75.8 h -3.97 c 0,0 0,4.65 0,4.65 0,0.26 -0.31,0.43 -0.58,0.31 l -10.29,-4.84 c -0.16,-0.07 -0.33,-0.11 -0.51,-0.11 v 0 c -0.6,0 -1.09,0.43 -1.09,0.96 v 9.24 c 0,0 3.94,0 3.94,0 v -4.64 c 0,-0.26 0.31,-0.43 0.57,-0.31 l 10.33,4.84 c 0.16,0.07 0.33,0.11 0.51,0.11 v 0 c 0.6,0 1.09,-0.43 1.09,-0.96 v -9.24 z"
           id="path32" />
      </g>
      <path
         class="g"
         d="M 516.53,86.01 V 75.8 h 1.8 v 10.21 z"
         id="path36" />
      <path
         class="g"
         d="m 528.94,86.19 c -4.85,0 -8.28,-2.03 -8.28,-5.29 0,-3.24 3.46,-5.29 8.28,-5.29 4.82,0 8.31,2.03 8.31,5.29 0,3.26 -3.4,5.29 -8.31,5.29 z m 0,-9.22 c -3.6,0 -6.38,1.39 -6.38,3.93 0,2.56 2.78,3.93 6.38,3.93 3.6,0 6.4,-1.37 6.4,-3.93 0,-2.56 -2.8,-3.93 -6.4,-3.93 z"
         id="path38" />
    </g>
    <g
       aria-label="SITE B"
       id="text44"
       class="h"
       style="font-weight:700;font-size:14px;font-family:Inter-Bold, Inter;font-variation-settings:'slnt' 0, 'wght' 700;fill:#ffffff">
      <path
         d="m 562.28779,195.728 q 0,1.33 -0.966,2.128 -0.952,0.784 -2.716,0.784 -1.582,0 -2.828,-0.602 v -1.974 q 0.714,0.308 1.47,0.574 0.77,0.252 1.526,0.252 0.784,0 1.106,-0.294 0.336,-0.308 0.336,-0.77 0,-0.378 -0.266,-0.644 -0.252,-0.266 -0.686,-0.49 -0.434,-0.238 -0.994,-0.504 -0.35,-0.168 -0.756,-0.392 -0.406,-0.238 -0.784,-0.574 -0.364,-0.35 -0.602,-0.84 -0.238,-0.49 -0.238,-1.176 0,-1.344 0.91,-2.086 0.91,-0.756 2.478,-0.756 0.784,0 1.484,0.182 0.714,0.182 1.484,0.518 l -0.686,1.652 q -0.686,-0.28 -1.232,-0.434 -0.546,-0.154 -1.12,-0.154 -0.602,0 -0.924,0.28 -0.322,0.28 -0.322,0.728 0,0.532 0.476,0.84 0.476,0.308 1.414,0.756 0.77,0.364 1.302,0.756 0.546,0.392 0.84,0.924 0.294,0.532 0.294,1.316 z"
         id="path44559" />
      <path
         d="m 567.8458,198.5 h -4.55 v -1.204 l 1.218,-0.56 v -6.468 l -1.218,-0.56 v -1.204 h 4.55 v 1.204 l -1.218,0.56 v 6.468 l 1.218,0.56 z"
         id="path44561" />
      <path
         d="m 573.4038,198.5 h -2.114 v -8.232 h -2.716 v -1.764 h 7.546 v 1.764 h -2.716 z"
         id="path44563" />
      <path
         d="m 583.4138,198.5 h -5.754 v -9.996 h 5.754 v 1.736 h -3.64 v 2.198 h 3.388 v 1.736 h -3.388 v 2.576 h 3.64 z"
         id="path44565" />
      <path
         d="m 592.2478,188.504 q 2.002,0 3.024,0.56 1.022,0.56 1.022,1.974 0,0.854 -0.406,1.442 -0.392,0.588 -1.134,0.714 v 0.07 q 0.504,0.098 0.91,0.35 0.406,0.252 0.644,0.728 0.238,0.476 0.238,1.26 0,1.358 -0.98,2.128 -0.98,0.77 -2.688,0.77 h -3.738 v -9.996 z m 0.238,3.962 q 0.924,0 1.274,-0.294 0.364,-0.294 0.364,-0.854 0,-0.574 -0.42,-0.826 -0.42,-0.252 -1.33,-0.252 h -1.12 v 2.226 z m -1.232,1.68 v 2.604 h 1.386 q 0.952,0 1.33,-0.364 0.378,-0.378 0.378,-0.994 0,-0.56 -0.392,-0.896 -0.378,-0.35 -1.386,-0.35 z"
         id="path44567" />
    </g>
    <path
       id="polygon118"
       class="d"
       transform="translate(8.4738136,110.53)"
       style="fill:#afcddd;stroke:#577f9a;stroke-width:0.68px;stroke-miterlimit:10;stroke-dasharray:0, 0, 1.36, 1.36"
       d="M 503.67,132.12 497.83,125 h -55.06 v 23.99 h 60.9 z" />
    <g
       aria-label="CONFIG"
       id="text124"
       class="r"
       style="font-weight:700;font-size:10.56px;font-family:Inter-Bold, Inter;font-variation-settings:'slnt' 0, 'wght' 700">
      <path
         d="m 463.31393,247.53513 q -0.91872,0 -1.40448,0.6864 -0.48576,0.6864 -0.48576,1.87968 0,1.20384 0.44352,1.86912 0.45408,0.65472 1.44672,0.65472 0.46464,0 0.91872,-0.1056 0.46464,-0.1056 1.0032,-0.29568 v 1.34112 q -0.49632,0.20064 -0.98208,0.29568 -0.48576,0.095 -1.08768,0.095 -1.1616,0 -1.92192,-0.4752 -0.74976,-0.48576 -1.1088,-1.35168 -0.35904,-0.87648 -0.35904,-2.03808 0,-1.14048 0.41184,-2.01696 0.41184,-0.87648 1.19328,-1.3728 0.792,-0.49632 1.93248,-0.49632 0.55968,0 1.11936,0.14784 0.57024,0.13728 1.08768,0.38016 l -0.51744,1.29888 q -0.4224,-0.20064 -0.85536,-0.34848 -0.4224,-0.14784 -0.83424,-0.14784 z"
         id="path44571" />
      <path
         d="m 473.47264,250.06953 q 0,1.17216 -0.39072,2.04864 -0.38016,0.86592 -1.17216,1.35168 -0.792,0.48576 -2.02752,0.48576 -1.22496,0 -2.02752,-0.48576 -0.792,-0.48576 -1.18272,-1.36224 -0.38016,-0.87648 -0.38016,-2.04864 0,-1.17216 0.38016,-2.03808 0.39072,-0.86592 1.18272,-1.34112 0.80256,-0.48576 2.03808,-0.48576 1.22496,0 2.01696,0.48576 0.792,0.4752 1.17216,1.35168 0.39072,0.86592 0.39072,2.03808 z m -5.50176,0 q 0,1.18272 0.45408,1.86912 0.45408,0.67584 1.45728,0.67584 1.02432,0 1.46784,-0.67584 0.44352,-0.6864 0.44352,-1.86912 0,-1.19328 -0.44352,-1.86912 -0.44352,-0.67584 -1.45728,-0.67584 -1.01376,0 -1.46784,0.67584 -0.45408,0.67584 -0.45408,1.86912 z"
         id="path44573" />
      <path
         d="m 481.71999,253.85001 h -2.02752 l -3.28416,-5.7024 h -0.0422 q 0.0211,0.53856 0.0422,1.07712 0.0317,0.53856 0.0528,1.07712 v 3.54816 h -1.4256 v -7.53984 h 2.01696 l 3.2736,5.6496 h 0.0317 q -0.0106,-0.528 -0.0317,-1.04544 -0.0211,-0.51744 -0.0422,-1.03488 v -3.56928 h 1.43616 z"
         id="path44575" />
      <path
         d="m 485.19423,253.85001 h -1.57344 v -7.53984 h 4.31904 v 1.30944 h -2.7456 v 1.94304 h 2.55552 v 1.30944 h -2.55552 z"
         id="path44577" />
      <path
         d="m 492.23775,253.85001 h -3.432 v -0.90816 l 0.91872,-0.4224 v -4.87872 l -0.91872,-0.4224 v -0.90816 h 3.432 v 0.90816 l -0.91872,0.4224 v 4.87872 l 0.91872,0.4224 z"
         id="path44579" />
      <path
         d="m 496.38782,249.61545 h 2.98848 v 3.9072 q -0.59136,0.20064 -1.23552,0.3168 -0.6336,0.11616 -1.44672,0.11616 -1.6896,0 -2.59776,-0.99264 -0.90816,-0.99264 -0.90816,-2.89344 0,-1.18272 0.45408,-2.04864 0.46464,-0.86592 1.34112,-1.34112 0.87648,-0.4752 2.14368,-0.4752 0.60192,0 1.18272,0.12672 0.5808,0.12672 1.056,0.33792 l -0.528,1.27776 q -0.34848,-0.17952 -0.792,-0.29568 -0.44352,-0.11616 -0.92928,-0.11616 -0.69696,0 -1.2144,0.3168 -0.50688,0.3168 -0.792,0.8976 -0.27456,0.57024 -0.27456,1.35168 0,0.7392 0.20064,1.30944 0.20064,0.57024 0.6336,0.8976 0.43296,0.3168 1.12992,0.3168 0.33792,0 0.57024,-0.0317 0.24288,-0.0317 0.44352,-0.0739 v -1.57344 h -1.4256 z"
         id="path44581" />
    </g>
    <path
       id="polygon126"
       class="d"
       transform="translate(8.4738136,112.53)"
       style="fill:#afcddd;stroke:#577f9a;stroke-width:0.68px;stroke-miterlimit:10;stroke-dasharray:0, 0, 1.36, 1.36"
       d="m 551.72,133.21 h -55.05 v 23.99 h 60.89 v -16.87 z" />
    <path
       id="polygon130"
       class="d"
       transform="translate(8.4738136,112.53)"
       style="fill:#afcddd;stroke:#577f9a;stroke-width:0.68px;stroke-miterlimit:10;stroke-dasharray:0, 0, 1.36, 1.36"
       d="m 605.29,141.43 h -55.06 v 23.99 h 60.9 v -16.87 z" />
    <g
       aria-label="IAM"
       id="text134"
       class="r"
       style="font-weight:700;font-size:10.56px;font-family:Inter-Bold, Inter;font-variation-settings:'slnt' 0, 'wght' 700">
      <path
         d="m 527.13375,262.06 h -3.432 v -0.90816 l 0.91872,-0.4224 v -4.87872 l -0.91872,-0.4224 v -0.90816 h 3.432 v 0.90816 l -0.91872,0.4224 v 4.87872 l 0.91872,0.4224 z"
         id="path44586" />
      <path
         d="m 533.03679,262.06 -0.54912,-1.7952 h -2.7456 l -0.54912,1.7952 h -1.72128 l 2.66112,-7.57152 h 1.9536 l 2.67168,7.57152 z m -1.4784,-4.88928 q -0.0528,-0.17952 -0.13728,-0.45408 -0.0845,-0.27456 -0.16896,-0.55968 -0.0845,-0.28512 -0.13728,-0.49632 -0.0528,0.2112 -0.14784,0.528 -0.0845,0.30624 -0.16896,0.59136 -0.0739,0.27456 -0.11616,0.39072 l -0.53856,1.75296 h 1.96416 z"
         id="path44588" />
      <path
         d="m 538.8976,262.06 -1.81632,-5.9136 h -0.0422 q 0.0106,0.2112 0.0317,0.6336 0.0211,0.4224 0.0422,0.90816 0.0211,0.4752 0.0211,0.86592 V 262.06 h -1.4256 v -7.53984 h 2.17536 l 1.78464,5.76576 h 0.0317 l 1.89024,-5.76576 h 2.17536 V 262.06 h -1.48896 v -3.56928 q 0,-0.35904 0.0106,-0.82368 0.0211,-0.46464 0.0317,-0.87648 0.0211,-0.4224 0.0317,-0.6336 h -0.0422 l -1.94304,5.90304 z"
         id="path44590" />
    </g>
    <g
       aria-label="BUCKETS"
       id="text138"
       class="r"
       style="font-weight:700;font-size:10.56px;font-family:Inter-Bold, Inter;font-variation-settings:'slnt' 0, 'wght' 700">
      <path
         d="m 568.19853,262.73015 q 1.51008,0 2.28096,0.4224 0.77088,0.4224 0.77088,1.48896 0,0.64416 -0.30624,1.08768 -0.29568,0.44352 -0.85536,0.53856 v 0.0528 q 0.38016,0.0739 0.6864,0.264 0.30624,0.19008 0.48576,0.54912 0.17952,0.35904 0.17952,0.9504 0,1.02432 -0.7392,1.60512 -0.7392,0.5808 -2.02752,0.5808 h -2.81952 v -7.53984 z m 0.17952,2.98848 q 0.69696,0 0.96096,-0.22176 0.27456,-0.22176 0.27456,-0.64416 0,-0.43296 -0.3168,-0.62304 -0.3168,-0.19008 -1.0032,-0.19008 h -0.8448 v 1.67904 z m -0.92928,1.2672 v 1.96416 h 1.04544 q 0.71808,0 1.0032,-0.27456 0.28512,-0.28512 0.28512,-0.74976 0,-0.4224 -0.29568,-0.67584 -0.28512,-0.264 -1.04544,-0.264 z"
         id="path44593" />
      <path
         d="m 579.0859,267.60887 q 0,0.78144 -0.34848,1.41504 -0.33792,0.62304 -1.03488,0.99264 -0.6864,0.35904 -1.7424,0.35904 -1.49952,0 -2.28096,-0.76032 -0.78144,-0.77088 -0.78144,-2.02752 v -4.8576 h 1.59456 v 4.61472 q 0,0.92928 0.38016,1.30944 0.38016,0.38016 1.12992,0.38016 0.78144,0 1.12992,-0.41184 0.35904,-0.41184 0.35904,-1.28832 v -4.60416 h 1.59456 z"
         id="path44595" />
      <path
         d="m 584.13358,263.95511 q -0.91872,0 -1.40448,0.6864 -0.48576,0.6864 -0.48576,1.87968 0,1.20384 0.44352,1.86912 0.45408,0.65472 1.44672,0.65472 0.46464,0 0.91872,-0.1056 0.46464,-0.1056 1.0032,-0.29568 v 1.34112 q -0.49632,0.20064 -0.98208,0.29568 -0.48576,0.095 -1.08768,0.095 -1.1616,0 -1.92192,-0.4752 -0.74976,-0.48576 -1.1088,-1.35168 -0.35904,-0.87648 -0.35904,-2.03808 0,-1.14048 0.41184,-2.01696 0.41184,-0.87648 1.19328,-1.3728 0.792,-0.49632 1.93248,-0.49632 0.55968,0 1.11936,0.14784 0.57024,0.13728 1.08768,0.38016 l -0.51744,1.29888 q -0.4224,-0.20064 -0.85536,-0.34848 -0.4224,-0.14784 -0.83424,-0.14784 z"
         id="path44597" />
      <path
         d="m 593.72206,270.26999 h -1.81632 l -1.97472,-3.17856 -0.67584,0.48576 v 2.6928 h -1.59456 v -7.53984 h 1.59456 v 3.45312 q 0.1584,-0.22176 0.3168,-0.44352 0.1584,-0.22176 0.3168,-0.44352 l 2.03808,-2.56608 h 1.77408 l -2.62944,3.33696 z"
         id="path44599" />
      <path
         d="m 599.01261,270.26999 h -4.34016 v -7.53984 h 4.34016 v 1.30944 h -2.7456 v 1.65792 h 2.55552 v 1.30944 h -2.55552 v 1.94304 h 2.7456 z"
         id="path44601" />
      <path
         d="m 603.49005,270.26999 h -1.59456 v -6.20928 h -2.04864 v -1.33056 h 5.69184 v 1.33056 h -2.04864 z"
         id="path44603" />
      <path
         d="m 611.14605,268.17911 q 0,1.0032 -0.72864,1.60512 -0.71808,0.59136 -2.04864,0.59136 -1.19328,0 -2.13312,-0.45408 v -1.48896 q 0.53856,0.23232 1.1088,0.43296 0.5808,0.19008 1.15104,0.19008 0.59136,0 0.83424,-0.22176 0.25344,-0.23232 0.25344,-0.5808 0,-0.28512 -0.20064,-0.48576 -0.19008,-0.20064 -0.51744,-0.3696 -0.32736,-0.17952 -0.74976,-0.38016 -0.264,-0.12672 -0.57024,-0.29568 -0.30624,-0.17952 -0.59136,-0.43296 -0.27456,-0.264 -0.45408,-0.6336 -0.17952,-0.3696 -0.17952,-0.88704 0,-1.01376 0.6864,-1.57344 0.6864,-0.57024 1.86912,-0.57024 0.59136,0 1.11936,0.13728 0.53856,0.13728 1.11936,0.39072 l -0.51744,1.24608 q -0.51744,-0.2112 -0.92928,-0.32736 -0.41184,-0.11616 -0.8448,-0.11616 -0.45408,0 -0.69696,0.2112 -0.24288,0.2112 -0.24288,0.54912 0,0.40128 0.35904,0.6336 0.35904,0.23232 1.06656,0.57024 0.5808,0.27456 0.98208,0.57024 0.41184,0.29568 0.6336,0.69696 0.22176,0.40128 0.22176,0.99264 z"
         id="path44605" />
    </g>
  </g>
  <path
     id="polyline162"
     class="e"
     style="fill:none;stroke:#cf2144;stroke-width:0.964916;stroke-miterlimit:10;stroke-dasharray:0, 0, 1.92983, 1.92983"
     d="m 198.18924,271.46975 239.68138,0.5005"
     sodipodi:nodetypes="cc" />
  <path
     id="polyline166"
     class="k"
     transform="translate(-1.0262163,190.815)"
     style="fill:#cf2144"
     d="m 438.98,80.56 v -2.19 l 4.38,2.54 -4.38,2.53 v -1.89" />
  <path
     id="polyline166-8"
     style="fill:#cf2144"
     class="k"
     transform="matrix(-1,0,0,1,637.16813,190.50423)"
     d="m 438.98,80.56 v -2.19 l 4.38,2.54 -4.38,2.53 v -1.89" />
  <g
     aria-label="DATACENTER 1"
     id="text8851"
     style="font-size:21.3333px;-inkscape-font-specification:'sans-serif, Normal';text-align:center;text-anchor:middle;fill:#ffffff;stroke:#000000;stroke-width:0;stroke-linejoin:bevel">
    <path
       d="m 43.048443,211.01785 q 0,3.86133 -2.111997,5.82399 -2.090663,1.94133 -5.845324,1.94133 H 30.845796 V 203.5512 h 4.693326 q 2.303996,0 3.989327,0.85333 1.68533,0.85333 2.602662,2.51733 0.917332,1.64266 0.917332,4.09599 z m -2.026663,0.064 q 0,-3.05066 -1.514665,-4.45866 -1.493331,-1.42933 -4.245326,-1.42933 h -2.495996 v 11.94665 h 2.06933 q 6.186657,0 6.186657,-6.05866 z"
       id="path44532" />
    <path
       d="m 55.549738,218.78317 -1.834664,-4.71466 H 47.67775 l -1.813331,4.71466 h -1.94133 L 49.87508,203.4872 h 1.727997 l 5.930657,15.29597 z m -4.117327,-11.02931 q -0.064,-0.17067 -0.213333,-0.61867 -0.149333,-0.448 -0.298667,-0.91733 -0.127999,-0.49067 -0.213332,-0.74667 -0.149334,0.66134 -0.341333,1.30133 -0.192,0.61867 -0.32,0.98134 l -1.727997,4.60799 h 4.821326 z"
       id="path44534" />
    <path
       d="M 62.952398,218.78317 H 61.032401 V 205.23653 H 56.275075 V 203.5512 H 67.68839 v 1.68533 h -4.735992 z"
       id="path44536" />
    <path
       d="m 78.056373,218.78317 -1.834664,-4.71466 h -6.037323 l -1.813331,4.71466 h -1.94133 l 5.95199,-15.29597 h 1.727998 l 5.930657,15.29597 z m -4.117327,-11.02931 q -0.064,-0.17067 -0.213333,-0.61867 -0.149333,-0.448 -0.298666,-0.91733 -0.128,-0.49067 -0.213333,-0.74667 -0.149333,0.66134 -0.341333,1.30133 -0.191999,0.61867 -0.319999,0.98134 l -1.727997,4.60799 h 4.821325 z"
       id="path44538" />
    <path
       d="m 88.232348,205.02319 q -2.45333,0 -3.861327,1.64267 -1.407998,1.64266 -1.407998,4.50132 0,2.83733 1.301331,4.50133 1.322665,1.64266 3.946661,1.64266 1.002665,0 1.898663,-0.17066 0.895999,-0.17067 1.749331,-0.42667 v 1.664 q -0.853332,0.32 -1.770664,0.46933 -0.895999,0.14934 -2.154663,0.14934 -2.32533,0 -3.882661,-0.96 -1.557331,-0.96 -2.346663,-2.73067 -0.767999,-1.77066 -0.767999,-4.15999 0,-2.304 0.831999,-4.05333 0.853332,-1.77066 2.495996,-2.75199 1.642664,-1.00267 3.989327,-1.00267 2.410663,0 4.20266,0.896 l -0.767999,1.62133 q -0.703999,-0.32 -1.578664,-0.576 -0.853332,-0.256 -1.87733,-0.256 z"
       id="path44540" />
    <path
       d="M 103.69899,218.78317 H 95.187005 V 203.5512 h 8.511985 v 1.68533 h -6.591988 v 4.75732 h 6.207988 v 1.664 h -6.207988 v 5.43999 h 6.591988 z"
       id="path44542" />
    <path
       d="m 119.12296,218.78317 h -2.24 l -8.14932,-12.65064 h -0.0853 q 0.0427,0.74666 0.10666,1.85599 0.064,1.10933 0.064,2.28267 v 8.51198 h -1.77066 V 203.5512 h 2.21866 l 8.12799,12.60798 h 0.0853 q -0.0213,-0.34134 -0.064,-1.024 -0.0213,-0.68267 -0.064,-1.49333 -0.0213,-0.81067 -0.0213,-1.49333 v -8.59732 h 1.792 z"
       id="path44544" />
    <path
       d="m 128.08295,218.78317 h -1.91999 v -13.54664 h -4.75733 v -1.68533 h 11.41332 v 1.68533 h -4.736 z"
       id="path44546" />
    <path
       d="m 143.63492,218.78317 h -8.51199 V 203.5512 h 8.51199 v 1.68533 h -6.59199 v 4.75732 h 6.20799 v 1.664 h -6.20799 v 5.43999 h 6.59199 z"
       id="path44548" />
    <path
       d="m 151.1869,203.5512 q 2.83733,0 4.18133,1.08799 1.36533,1.06667 1.36533,3.24267 0,1.21599 -0.448,2.02666 -0.448,0.81067 -1.152,1.30133 -0.68267,0.46933 -1.45067,0.74667 l 4.18133,6.82665 h -2.23999 l -3.69067,-6.29332 h -3.02932 v 6.29332 h -1.92 V 203.5512 Z m -0.10667,1.66399 h -2.17599 v 5.65333 h 2.28266 q 1.856,0 2.70933,-0.72533 0.85333,-0.74667 0.85333,-2.176 0,-1.49333 -0.896,-2.112 -0.896,-0.64 -2.77333,-0.64 z"
       id="path44550" />
    <path
       d="m 171.30421,218.78317 h -1.83466 v -10.64531 q 0,-0.91734 0.0213,-1.472 0.0213,-0.55467 0.064,-1.152 -0.34133,0.34133 -0.61867,0.576 -0.27733,0.23467 -0.704,0.59733 l -1.62133,1.32267 -0.98133,-1.25867 4.11733,-3.19999 h 1.55733 z"
       id="path44552" />
  </g>
</svg>
