<?xml version="1.0" encoding="UTF-8" standalone="no"?>
<!-- Generator: Adobe Illustrator 27.0.0, SVG Export Plug-In . SVG Version: 6.00 Build 0)  -->

<svg
   version="1.1"
   id="Layer_1"
   x="0px"
   y="0px"
   viewBox="0 0 645.3 370.3"
   style="enable-background:new 0 0 645.3 370.3;"
   xml:space="preserve"
   sodipodi:docname="availability-erasure-sharding-degraded-write.svg"
   inkscape:version="1.2.2 (b0a8486541, 2022-12-01)"
   xmlns:inkscape="http://www.inkscape.org/namespaces/inkscape"
   xmlns:sodipodi="http://sodipodi.sourceforge.net/DTD/sodipodi-0.dtd"
   xmlns="http://www.w3.org/2000/svg"
   xmlns:svg="http://www.w3.org/2000/svg"><defs
   id="defs31492" /><sodipodi:namedview
   id="namedview31490"
   pagecolor="#505050"
   bordercolor="#eeeeee"
   borderopacity="1"
   inkscape:showpageshadow="0"
   inkscape:pageopacity="0"
   inkscape:pagecheckerboard="0"
   inkscape:deskcolor="#505050"
   showgrid="false"
   inkscape:zoom="3.5478902"
   inkscape:cx="275.234"
   inkscape:cy="229.00934"
   inkscape:window-width="3840"
   inkscape:window-height="2303"
   inkscape:window-x="3840"
   inkscape:window-y="2160"
   inkscape:window-maximized="1"
   inkscape:current-layer="Layer_1" />
<style
   type="text/css"
   id="style30581">
	.st0{fill:none;stroke:#1B1717;stroke-width:1.4717;stroke-miterlimit:10;}
	.st1{fill:#FFCACD;stroke:#CF2144;stroke-miterlimit:10;}
	.st2{fill:#1B1717;}
	.st3{fill:#F6F6F6;}
	.st4{fill:#577F9A;}
	.st5{fill:#F6F6F6;stroke:#CDD1D3;stroke-miterlimit:10;stroke-dasharray:6.7438,6.7438;}
	.st6{fill:none;stroke:#1B1717;stroke-width:3;stroke-miterlimit:10;}
	.st7{fill:#E8F3F3;}
	.st8{fill:#122745;}
	.st9{fill:#FFFFFF;stroke:#000000;stroke-width:1.3488;stroke-miterlimit:10;stroke-dasharray:6.7438,6.7438;}
	.st10{fill:#1B546D;}
	.st11{fill:#CF2144;}
	.st12{fill:#FFFFFF;}
	.st13{fill:#1F5274;}
	.st14{fill:#8C95BE;}
	.st15{fill:#797B7C;}
	.st16{fill:#3A62E0;}
	.st17{fill:#009EED;}
	.st18{fill:none;stroke:#009EED;stroke-width:3;stroke-miterlimit:10;}
	.st19{fill:none;stroke:#CF2144;stroke-width:3;stroke-miterlimit:10;}
	.st20{fill:#F6F6F6;stroke:#CDD1D3;stroke-width:1.4142;stroke-miterlimit:10;}
	.st21{fill:none;stroke:#CF2144;stroke-miterlimit:10;}
	.st22{fill:none;stroke:#CF2144;stroke-width:2.143;stroke-miterlimit:10;}
	.st23{fill:none;stroke:#FFFFFF;stroke-width:0.9583;stroke-linecap:round;stroke-miterlimit:10;}
	.st24{fill:none;stroke:#CF2144;stroke-width:0.6974;stroke-miterlimit:10;}
	.st25{fill:none;stroke:#FFFFFF;stroke-width:0.3118;stroke-linecap:round;stroke-miterlimit:10;}
	.st26{fill:none;stroke:#1B1717;stroke-miterlimit:10;}
	.st27{fill:#D6D6D6;}
	.st28{fill:none;stroke:#CF2144;stroke-miterlimit:10;stroke-dasharray:3,3;}
	.st29{fill:none;stroke:#CF2144;stroke-width:2.0917;stroke-miterlimit:10;}
	.st30{fill:none;stroke:#FFFFFF;stroke-width:0.9354;stroke-linecap:round;stroke-miterlimit:10;}
</style>
<path
   id="polygon30583"
   class="st2"
   style="fill:#1b1717"
   d="m 325.2,154.2 -2.5,-4.4 -2.6,4.4 h 1.8 v 51.7 h 1.5 v -51.7 z" />
<path
   id="polygon30585"
   class="st2"
   style="fill:#1b1717"
   d="m 325.2,250.2 -2.5,-4.4 -2.6,4.4 h 1.8 V 271 h 1.5 v -20.8 z" />
<path
   id="polyline30587"
   class="st0"
   style="fill:none;stroke:#1b1717;stroke-width:1.4717;stroke-miterlimit:10"
   d="m 95.6,284 v -13.7 h 533.7 v 11.5" />
<path
   id="rect30589"
   class="st3"
   style="fill:#f6f6f6"
   d="M 0,0.40000001 H 156.60001 V 78.499998 H 0 Z" />
<path
   id="line30591"
   class="st0"
   style="fill:none;stroke:#1b1717;stroke-width:1.4717;stroke-miterlimit:10"
   d="M 96,332.60001 V 312.89999" />
<path
   id="line30593"
   class="st0"
   style="fill:none;stroke:#1b1717;stroke-width:1.4717;stroke-miterlimit:10"
   d="M 136.8,332.60001 V 312.89999" />
<path
   id="line30595"
   class="st0"
   style="fill:none;stroke:#1b1717;stroke-width:1.4717;stroke-miterlimit:10"
   d="M 177.60001,332.60001 V 312.89999" />
<path
   id="line30597"
   class="st0"
   style="fill:none;stroke:#1b1717;stroke-width:1.4717;stroke-miterlimit:10"
   d="M 218.3,332.60001 V 312.89999" />
<path
   id="line30599"
   class="st0"
   style="fill:none;stroke:#1b1717;stroke-width:1.4717;stroke-miterlimit:10"
   d="M 259.10001,332.60001 V 312.89999" />
<path
   id="line30601"
   class="st0"
   style="fill:none;stroke:#1b1717;stroke-width:1.4717;stroke-miterlimit:10"
   d="M 299.89999,332.60001 V 312.89999" />
<path
   id="line30603"
   class="st0"
   style="fill:none;stroke:#1b1717;stroke-width:1.4717;stroke-miterlimit:10"
   d="M 340.70001,332.60001 V 312.89999" />
<path
   id="line30605"
   class="st0"
   style="fill:none;stroke:#1b1717;stroke-width:1.4717;stroke-miterlimit:10"
   d="M 381.5,332.60001 V 312.89999" />
<path
   id="line30607"
   class="st0"
   style="fill:none;stroke:#1b1717;stroke-width:1.4717;stroke-miterlimit:10"
   d="M 422.20001,332.60001 V 312.89999" />
<path
   id="line30609"
   class="st0"
   style="fill:none;stroke:#1b1717;stroke-width:1.4717;stroke-miterlimit:10"
   d="M 463.89999,332.60001 V 312.89999" />
<path
   id="line30611"
   class="st0"
   style="fill:none;stroke:#1b1717;stroke-width:1.4717;stroke-miterlimit:10"
   d="M 505.79999,332.60001 V 312.89999" />
<path
   id="line30613"
   class="st0"
   style="fill:none;stroke:#1b1717;stroke-width:1.4717;stroke-miterlimit:10"
   d="M 545.29999,332.60001 V 312.89999" />
<path
   id="line30615"
   class="st0"
   style="fill:none;stroke:#1b1717;stroke-width:1.4717;stroke-miterlimit:10"
   d="M 588.20001,332.60001 V 312.89999" />
<path
   id="line30617"
   class="st0"
   style="fill:none;stroke:#1b1717;stroke-width:1.4717;stroke-miterlimit:10"
   d="M 628.5,332.60001 V 312.89999" />
<path
   id="line30619"
   class="st0"
   style="fill:none;stroke:#1b1717;stroke-width:1.4717;stroke-miterlimit:10"
   d="M 137.5,284 V 270.29999" />
<path
   id="line30621"
   class="st0"
   style="fill:none;stroke:#1b1717;stroke-width:1.4717;stroke-miterlimit:10"
   d="m 177.60001,281.79999 v -11.5" />
<path
   id="line30623"
   class="st0"
   style="fill:none;stroke:#1b1717;stroke-width:1.4717;stroke-miterlimit:10"
   d="m 217.89999,281.79999 v -11.5" />
<path
   id="line30625"
   class="st0"
   style="fill:none;stroke:#1b1717;stroke-width:1.4717;stroke-miterlimit:10"
   d="m 258.29999,281.79999 v -11.5" />
<path
   id="line30627"
   class="st0"
   style="fill:none;stroke:#1b1717;stroke-width:1.4717;stroke-miterlimit:10"
   d="M 299.5,283.5 V 270.29999" />
<path
   id="line30629"
   class="st0"
   style="fill:none;stroke:#1b1717;stroke-width:1.4717;stroke-miterlimit:10"
   d="M 340,282.60001 V 270.29999" />
<path
   id="line30631"
   class="st0"
   style="fill:none;stroke:#1b1717;stroke-width:1.4717;stroke-miterlimit:10"
   d="M 380.5,282.60001 V 270.29999" />
<path
   id="line30633"
   class="st0"
   style="fill:none;stroke:#1b1717;stroke-width:1.4717;stroke-miterlimit:10"
   d="m 422.10001,281.79999 v -11.5" />
<path
   id="line30635"
   class="st0"
   style="fill:none;stroke:#1b1717;stroke-width:1.4717;stroke-miterlimit:10"
   d="m 462.89999,281.79999 v -11.5" />
<path
   id="line30637"
   class="st0"
   style="fill:none;stroke:#1b1717;stroke-width:1.4717;stroke-miterlimit:10"
   d="m 504.10001,281.79999 v -11.5" />
<path
   id="line30639"
   class="st0"
   style="fill:none;stroke:#1b1717;stroke-width:1.4717;stroke-miterlimit:10"
   d="m 545.20001,281.79999 v -11.5" />
<path
   id="line30641"
   class="st0"
   style="fill:none;stroke:#1b1717;stroke-width:1.4717;stroke-miterlimit:10"
   d="m 587.20001,281.79999 v -11.5" />
<path
   id="rect30643"
   class="st4"
   style="fill:#577f9a"
   d="m 197.60001,192.89999 h 250.1 V 245.8 h -250.1 z" />
<g
   id="g30693">
	<path
   d="M245.8,21.9l3.4-1.3l0.3-0.1l-0.3-0.1l-3.4-1.3v-1l4.7,2v0.8l-4.7,2V21.9z"
   id="path30645" />
	<path
   d="M252.7,18.8c0.1-0.2,0.3-0.4,0.5-0.5c0.2-0.1,0.4-0.2,0.7-0.2c0.2,0,0.3,0,0.4,0.1c0.1,0,0.2,0.1,0.3,0.1   c0.1,0,0.1,0.1,0.2,0.2s0.1,0.1,0.1,0.2c0-0.1,0.1-0.2,0.2-0.2s0.1-0.1,0.2-0.2c0.1-0.1,0.2-0.1,0.3-0.1s0.3-0.1,0.4-0.1   c0.2,0,0.4,0,0.5,0.1c0.2,0.1,0.3,0.1,0.4,0.3c0.1,0.1,0.2,0.3,0.3,0.5c0.1,0.2,0.1,0.4,0.1,0.7v4.3h-0.9v-4.3c0-0.1,0-0.2,0-0.3   s-0.1-0.2-0.1-0.2c-0.1-0.1-0.1-0.1-0.2-0.1c-0.1,0-0.2,0-0.3,0c-0.1,0-0.2,0-0.3,0c-0.1,0-0.2,0.1-0.2,0.1   c-0.1,0.1-0.1,0.1-0.1,0.2c0,0.1-0.1,0.2-0.1,0.2c0,0,0,0,0,0.1s0,0,0,0.1v4.3h-0.9v-4.3c0-0.1,0-0.2,0-0.3c0-0.1-0.1-0.2-0.1-0.2   c-0.1-0.1-0.1-0.1-0.2-0.1s-0.2,0-0.3,0c-0.1,0-0.2,0-0.3,0s-0.2,0.1-0.2,0.1c0,0-0.1,0.1-0.1,0.1c0,0-0.1,0.1-0.1,0.2v4.5h-0.9   v-5.7h0.9L252.7,18.8z"
   id="path30647" />
	<path
   d="M261.8,18.2v4.9h1.9v0.8h-4.8v-0.8h1.9v-4h-1.9v-0.9H261.8z M260.7,16.5c0-0.1,0.1-0.1,0.1-0.2c0,0,0.1-0.1,0.2-0.1   c0.1,0,0.2,0,0.2,0c0.1,0,0.2,0,0.2,0c0.1,0,0.1,0.1,0.2,0.1c0.1,0,0.1,0.1,0.1,0.2c0,0.1,0,0.2,0,0.2c0,0.2,0,0.3-0.1,0.4   c-0.1,0.1-0.2,0.2-0.4,0.2c-0.2,0-0.3-0.1-0.4-0.2s-0.1-0.2-0.1-0.4C260.7,16.6,260.7,16.6,260.7,16.5z"
   id="path30649" />
	<path
   d="M265.2,18.2h0.9l0.1,0.8c0.1-0.1,0.2-0.2,0.3-0.3c0.1-0.1,0.2-0.2,0.3-0.3c0.2-0.1,0.4-0.2,0.6-0.3   c0.2-0.1,0.4-0.1,0.6-0.1c0.3,0,0.6,0,0.8,0.1s0.5,0.2,0.6,0.4c0.2,0.2,0.3,0.4,0.4,0.7s0.1,0.6,0.1,1v3.6h-1v-3.6   c0-0.3,0-0.5-0.1-0.6c-0.1-0.2-0.1-0.3-0.2-0.4c-0.1-0.1-0.2-0.2-0.4-0.2s-0.3-0.1-0.6-0.1c-0.2,0-0.3,0-0.5,0.1   c-0.2,0.1-0.3,0.1-0.4,0.2c-0.1,0.1-0.2,0.2-0.3,0.3c-0.1,0.1-0.2,0.2-0.2,0.3v4.1h-1V18.2z"
   id="path30651" />
	<path
   d="M274.8,18.2v4.9h1.9v0.8h-4.8v-0.8h1.9v-4h-1.9v-0.9H274.8z M273.7,16.5c0-0.1,0.1-0.1,0.1-0.2c0,0,0.1-0.1,0.2-0.1   c0.1,0,0.2,0,0.2,0s0.2,0,0.2,0c0.1,0,0.1,0.1,0.2,0.1c0.1,0,0.1,0.1,0.1,0.2c0,0.1,0,0.2,0,0.2c0,0.2,0,0.3-0.1,0.4   c-0.1,0.1-0.2,0.2-0.4,0.2c-0.2,0-0.3-0.1-0.4-0.2s-0.1-0.2-0.1-0.4C273.7,16.6,273.7,16.6,273.7,16.5z"
   id="path30653" />
	<path
   d="M278.1,19.9c0.1-0.4,0.3-0.7,0.5-0.9c0.2-0.3,0.5-0.5,0.8-0.6c0.3-0.1,0.7-0.2,1.1-0.2c0.4,0,0.8,0.1,1.1,0.2   c0.3,0.1,0.6,0.4,0.8,0.6c0.2,0.3,0.4,0.6,0.5,0.9c0.1,0.4,0.2,0.7,0.2,1.1v0.1c0,0.4-0.1,0.8-0.2,1.1c-0.1,0.4-0.3,0.7-0.5,0.9   c-0.2,0.3-0.5,0.5-0.8,0.6c-0.3,0.1-0.7,0.2-1.1,0.2c-0.4,0-0.8-0.1-1.1-0.2c-0.3-0.1-0.6-0.4-0.8-0.6c-0.2-0.3-0.4-0.6-0.5-0.9   c-0.1-0.4-0.2-0.7-0.2-1.1V21C277.9,20.6,278,20.2,278.1,19.9z M279,22c0.1,0.3,0.2,0.5,0.3,0.7c0.1,0.2,0.3,0.3,0.5,0.5   s0.4,0.2,0.7,0.2c0.3,0,0.5-0.1,0.7-0.2c0.2-0.1,0.4-0.3,0.5-0.5c0.1-0.2,0.2-0.4,0.3-0.7c0.1-0.3,0.1-0.5,0.1-0.8V21   c0-0.3,0-0.5-0.1-0.8c-0.1-0.3-0.2-0.5-0.3-0.7c-0.1-0.2-0.3-0.3-0.5-0.5c-0.2-0.1-0.4-0.2-0.7-0.2c-0.3,0-0.5,0.1-0.7,0.2   c-0.2,0.1-0.4,0.3-0.5,0.5c-0.1,0.2-0.2,0.4-0.3,0.7c-0.1,0.3-0.1,0.5-0.1,0.8v0.1C278.9,21.4,278.9,21.7,279,22z"
   id="path30655" />
	<path
   d="M289.4,22.6c-0.1,0.3-0.3,0.6-0.5,0.8c-0.2,0.2-0.5,0.4-0.8,0.5s-0.6,0.2-1,0.2c-0.3,0-0.6,0-0.9-0.1   c-0.3-0.1-0.5-0.2-0.7-0.4c-0.2-0.2-0.4-0.3-0.5-0.6c-0.1-0.2-0.3-0.4-0.4-0.7c-0.1-0.3-0.2-0.5-0.2-0.8s-0.1-0.6-0.1-0.8v-1.1   c0-0.3,0-0.6,0.1-0.8c0-0.3,0.1-0.5,0.2-0.8c0.1-0.3,0.2-0.5,0.4-0.7c0.1-0.2,0.3-0.4,0.5-0.6c0.2-0.2,0.4-0.3,0.7-0.4   s0.5-0.1,0.9-0.1c0.4,0,0.7,0.1,1,0.2c0.3,0.1,0.6,0.3,0.8,0.5c0.2,0.2,0.4,0.5,0.5,0.8s0.2,0.6,0.3,1h-1c0-0.2-0.1-0.4-0.2-0.6   s-0.2-0.4-0.3-0.5s-0.3-0.3-0.5-0.4c-0.2-0.1-0.4-0.1-0.7-0.1c-0.2,0-0.4,0-0.6,0.1c-0.2,0.1-0.3,0.2-0.5,0.3   c-0.1,0.1-0.2,0.3-0.3,0.5c-0.1,0.2-0.2,0.4-0.2,0.5c-0.1,0.2-0.1,0.4-0.1,0.6c0,0.2,0,0.4,0,0.6v1.1c0,0.2,0,0.4,0,0.6   c0,0.2,0.1,0.4,0.1,0.6c0.1,0.2,0.1,0.4,0.2,0.6c0.1,0.2,0.2,0.3,0.3,0.5c0.1,0.1,0.3,0.2,0.5,0.3c0.2,0.1,0.4,0.1,0.6,0.1   c0.3,0,0.5,0,0.7-0.1s0.3-0.2,0.5-0.3c0.1-0.1,0.2-0.3,0.3-0.5s0.1-0.4,0.2-0.6h1C289.6,22,289.5,22.3,289.4,22.6z"
   id="path30657" />
	<path
   d="M294.2,15.8v7.3h1.9v0.8h-4.8v-0.8h1.9v-6.4h-1.9v-0.8H294.2z"
   id="path30659" />
	<path
   d="M300.7,18.2v4.9h1.9v0.8h-4.8v-0.8h1.9v-4h-1.9v-0.9H300.7z M299.6,16.5c0-0.1,0.1-0.1,0.1-0.2c0,0,0.1-0.1,0.2-0.1   s0.2,0,0.2,0c0.1,0,0.2,0,0.2,0s0.1,0.1,0.2,0.1c0.1,0,0.1,0.1,0.1,0.2c0,0.1,0,0.2,0,0.2c0,0.2,0,0.3-0.1,0.4s-0.2,0.2-0.4,0.2   c-0.2,0-0.3-0.1-0.4-0.2s-0.1-0.2-0.1-0.4C299.6,16.6,299.6,16.6,299.6,16.5z"
   id="path30661" />
	<path
   d="M305.5,23.8c-0.3-0.1-0.6-0.3-0.9-0.6c-0.2-0.2-0.4-0.5-0.6-0.9s-0.2-0.7-0.2-1.1v-0.2c0-0.5,0.1-0.9,0.2-1.2   s0.3-0.7,0.6-0.9c0.2-0.2,0.5-0.4,0.8-0.6c0.3-0.1,0.6-0.2,1-0.2c0.4,0,0.8,0.1,1.1,0.2c0.3,0.1,0.6,0.3,0.8,0.6   c0.2,0.3,0.4,0.6,0.5,0.9c0.1,0.3,0.2,0.7,0.2,1.1v0.4h-4.1v0c0,0.3,0.1,0.5,0.2,0.7c0.1,0.2,0.2,0.4,0.4,0.6   c0.2,0.2,0.3,0.3,0.6,0.4c0.2,0.1,0.5,0.1,0.7,0.1c0.3,0,0.7-0.1,0.9-0.2c0.3-0.1,0.5-0.3,0.7-0.6l0.6,0.5   c-0.2,0.3-0.5,0.5-0.9,0.8s-0.8,0.3-1.4,0.3C306.2,24,305.9,24,305.5,23.8z M306,19c-0.2,0.1-0.3,0.2-0.5,0.3   c-0.1,0.1-0.3,0.3-0.4,0.5s-0.2,0.4-0.2,0.7h3.1v0c0-0.2,0-0.4-0.1-0.6c-0.1-0.2-0.2-0.4-0.3-0.5c-0.1-0.1-0.3-0.3-0.5-0.4   c-0.2-0.1-0.4-0.1-0.6-0.1C306.3,18.9,306.1,19,306,19z"
   id="path30663" />
	<path
   d="M310.6,18.2h0.9l0.1,0.8c0.1-0.1,0.2-0.2,0.3-0.3c0.1-0.1,0.2-0.2,0.3-0.3c0.2-0.1,0.4-0.2,0.6-0.3s0.4-0.1,0.6-0.1   c0.3,0,0.6,0,0.8,0.1c0.2,0.1,0.5,0.2,0.6,0.4c0.2,0.2,0.3,0.4,0.4,0.7c0.1,0.3,0.1,0.6,0.1,1v3.6h-1v-3.6c0-0.3,0-0.5-0.1-0.6   c-0.1-0.2-0.1-0.3-0.2-0.4c-0.1-0.1-0.2-0.2-0.4-0.2S313.2,19,313,19c-0.2,0-0.3,0-0.5,0.1c-0.2,0.1-0.3,0.1-0.4,0.2   c-0.1,0.1-0.2,0.2-0.3,0.3c-0.1,0.1-0.2,0.2-0.2,0.3v4.1h-1V18.2z"
   id="path30665" />
	<path
   d="M319.4,18.2h2.2V19h-2.2v3.1c0,0.2,0,0.4,0.1,0.5c0.1,0.1,0.1,0.3,0.2,0.3c0.1,0.1,0.2,0.1,0.3,0.2c0.1,0,0.3,0.1,0.4,0.1   c0.1,0,0.2,0,0.3,0c0.1,0,0.2,0,0.3,0c0.1,0,0.2,0,0.3-0.1s0.2,0,0.2-0.1l0.1,0.7c-0.1,0-0.2,0.1-0.3,0.1s-0.2,0.1-0.4,0.1   c-0.1,0-0.3,0-0.4,0.1s-0.3,0-0.5,0c-0.3,0-0.5,0-0.7-0.1c-0.2-0.1-0.4-0.2-0.6-0.3c-0.2-0.2-0.3-0.4-0.4-0.6   c-0.1-0.2-0.1-0.5-0.1-0.9V19h-1.5v-0.8h1.5v-1.4h1V18.2z"
   id="path30667" />
	<path
   d="M325.5,22.8c0.1-0.1,0.3-0.2,0.6-0.2c0.3,0,0.4,0.1,0.6,0.2c0.1,0.1,0.2,0.3,0.2,0.5c0,0.2-0.1,0.4-0.2,0.5   S326.3,24,326,24c-0.3,0-0.4-0.1-0.6-0.2c-0.1-0.1-0.2-0.3-0.2-0.5C325.3,23.1,325.3,22.9,325.5,22.8z"
   id="path30669" />
	<path
   d="M330,19.9c0.1-0.4,0.3-0.7,0.5-0.9c0.2-0.3,0.4-0.5,0.7-0.6c0.3-0.1,0.6-0.2,1-0.2c0.2,0,0.4,0,0.6,0.1   c0.2,0.1,0.4,0.1,0.5,0.2c0.1,0.1,0.2,0.1,0.2,0.2c0.1,0.1,0.1,0.1,0.2,0.2l0-0.6h0.9v5.6c0,0.4-0.1,0.7-0.2,1   c-0.1,0.3-0.3,0.5-0.5,0.7c-0.2,0.2-0.5,0.4-0.8,0.5c-0.3,0.1-0.6,0.2-1,0.2c-0.1,0-0.3,0-0.5-0.1c-0.2,0-0.4-0.1-0.6-0.2   c-0.2-0.1-0.4-0.2-0.6-0.3c-0.2-0.1-0.3-0.3-0.5-0.5l0.5-0.6c0.1,0.1,0.2,0.3,0.4,0.4c0.1,0.1,0.3,0.2,0.4,0.2   c0.1,0.1,0.3,0.1,0.4,0.1c0.1,0,0.3,0,0.4,0c0.2,0,0.4,0,0.6-0.1s0.3-0.2,0.5-0.3c0.1-0.1,0.2-0.3,0.3-0.5s0.1-0.4,0.1-0.7v-0.5   c-0.1,0.1-0.2,0.2-0.2,0.2s-0.2,0.1-0.3,0.2c-0.1,0.1-0.3,0.1-0.5,0.2c-0.2,0-0.4,0.1-0.6,0.1c-0.3,0-0.7-0.1-0.9-0.2   c-0.3-0.1-0.5-0.4-0.7-0.6c-0.2-0.3-0.3-0.6-0.5-0.9s-0.2-0.7-0.2-1.1V21C329.9,20.6,329.9,20.2,330,19.9z M331,21.9   c0.1,0.2,0.2,0.5,0.3,0.7c0.1,0.2,0.3,0.3,0.5,0.5s0.4,0.2,0.7,0.2c0.2,0,0.3,0,0.5-0.1s0.3-0.1,0.4-0.2c0.1-0.1,0.2-0.2,0.3-0.3   c0.1-0.1,0.2-0.2,0.2-0.3v-2.6c-0.1-0.1-0.1-0.2-0.2-0.3c-0.1-0.1-0.2-0.2-0.3-0.3c-0.1-0.1-0.2-0.1-0.4-0.2   c-0.1,0-0.3-0.1-0.4-0.1c-0.3,0-0.5,0.1-0.7,0.2c-0.2,0.1-0.4,0.3-0.5,0.5c-0.1,0.2-0.2,0.4-0.3,0.7c-0.1,0.3-0.1,0.5-0.1,0.8v0.1   C330.9,21.4,330.9,21.7,331,21.9z"
   id="path30671" />
	<path
   d="M338,23.8c-0.3-0.1-0.6-0.3-0.9-0.6c-0.2-0.2-0.4-0.5-0.6-0.9s-0.2-0.7-0.2-1.1v-0.2c0-0.5,0.1-0.9,0.2-1.2   c0.1-0.4,0.3-0.7,0.6-0.9c0.2-0.2,0.5-0.4,0.8-0.6s0.6-0.2,1-0.2c0.4,0,0.8,0.1,1.1,0.2s0.6,0.3,0.8,0.6c0.2,0.3,0.4,0.6,0.5,0.9   s0.2,0.7,0.2,1.1v0.4h-4.1v0c0,0.3,0.1,0.5,0.2,0.7c0.1,0.2,0.2,0.4,0.4,0.6c0.2,0.2,0.3,0.3,0.6,0.4c0.2,0.1,0.5,0.1,0.7,0.1   c0.3,0,0.7-0.1,0.9-0.2c0.3-0.1,0.5-0.3,0.7-0.6l0.6,0.5c-0.2,0.3-0.5,0.5-0.9,0.8c-0.4,0.2-0.8,0.3-1.4,0.3   C338.7,24,338.3,24,338,23.8z M338.4,19c-0.2,0.1-0.3,0.2-0.5,0.3c-0.1,0.1-0.3,0.3-0.4,0.5s-0.2,0.4-0.2,0.7h3.1v0   c0-0.2,0-0.4-0.1-0.6c-0.1-0.2-0.2-0.4-0.3-0.5c-0.1-0.1-0.3-0.3-0.5-0.4c-0.2-0.1-0.4-0.1-0.6-0.1C338.8,18.9,338.6,19,338.4,19z"
   id="path30673" />
	<path
   d="M345.4,18.2h2.2V19h-2.2v3.1c0,0.2,0,0.4,0.1,0.5c0.1,0.1,0.1,0.3,0.2,0.3c0.1,0.1,0.2,0.1,0.3,0.2c0.1,0,0.3,0.1,0.4,0.1   c0.1,0,0.2,0,0.3,0c0.1,0,0.2,0,0.3,0c0.1,0,0.2,0,0.3-0.1s0.2,0,0.2-0.1l0.1,0.7c-0.1,0-0.2,0.1-0.3,0.1s-0.2,0.1-0.4,0.1   c-0.1,0-0.3,0-0.4,0.1s-0.3,0-0.5,0c-0.3,0-0.5,0-0.7-0.1c-0.2-0.1-0.4-0.2-0.6-0.3c-0.2-0.2-0.3-0.4-0.4-0.6   c-0.1-0.2-0.1-0.5-0.1-0.9V19h-1.5v-0.8h1.5v-1.4h1V18.2z"
   id="path30675" />
	<path
   d="M354.5,21.4c0,0.3-0.1,0.5-0.2,0.8c-0.1,0.3-0.2,0.5-0.4,0.7s-0.3,0.4-0.5,0.6s-0.4,0.3-0.7,0.4c-0.3,0.1-0.5,0.1-0.9,0.1   s-0.6,0-0.9-0.1s-0.5-0.2-0.7-0.4c-0.2-0.2-0.4-0.4-0.5-0.6s-0.3-0.5-0.4-0.7c-0.1-0.3-0.2-0.5-0.2-0.8s-0.1-0.6-0.1-0.8v-0.9   c0-0.3,0-0.6,0.1-0.8s0.1-0.5,0.2-0.8c0.1-0.3,0.2-0.5,0.4-0.7s0.3-0.4,0.5-0.6c0.2-0.2,0.4-0.3,0.7-0.4s0.5-0.1,0.9-0.1   c0.3,0,0.6,0,0.9,0.1s0.5,0.2,0.7,0.4c0.2,0.2,0.4,0.4,0.5,0.6s0.3,0.5,0.4,0.7c0.1,0.3,0.2,0.5,0.2,0.8c0,0.3,0.1,0.6,0.1,0.8v0.9   C354.5,20.8,354.5,21.1,354.5,21.4z M353.5,19.1c0-0.2-0.1-0.4-0.1-0.6c-0.1-0.2-0.1-0.4-0.2-0.6c-0.1-0.2-0.2-0.3-0.3-0.5   c-0.1-0.1-0.3-0.2-0.4-0.3c-0.2-0.1-0.4-0.1-0.6-0.1c-0.2,0-0.4,0-0.6,0.1c-0.2,0.1-0.3,0.2-0.4,0.3c-0.1,0.1-0.2,0.3-0.3,0.5   c-0.1,0.2-0.2,0.4-0.2,0.6c-0.1,0.2-0.1,0.4-0.1,0.6c0,0.2,0,0.4,0,0.6v0.9c0,0.2,0,0.4,0,0.6c0,0.2,0.1,0.4,0.1,0.6   c0.1,0.2,0.1,0.4,0.2,0.6c0.1,0.2,0.2,0.3,0.3,0.5c0.1,0.1,0.3,0.2,0.4,0.3c0.2,0.1,0.4,0.1,0.6,0.1s0.4,0,0.6-0.1s0.3-0.2,0.5-0.3   c0.1-0.1,0.2-0.3,0.3-0.5s0.2-0.4,0.2-0.6c0-0.2,0.1-0.4,0.1-0.6c0-0.2,0-0.4,0-0.6v-0.9C353.6,19.5,353.5,19.3,353.5,19.1z"
   id="path30677" />
	<path
   d="M360.8,21.9c0,0.2-0.1,0.4-0.2,0.6c-0.1,0.3-0.2,0.5-0.4,0.7c-0.2,0.2-0.3,0.4-0.6,0.5c-0.2,0.1-0.3,0.2-0.5,0.2   s-0.4,0.1-0.6,0.1c-0.2,0-0.5,0-0.7-0.1c-0.2-0.1-0.4-0.1-0.5-0.3c-0.1-0.1-0.2-0.1-0.2-0.2c-0.1-0.1-0.1-0.1-0.2-0.2l0,0.6H356   v-8.1h1v3c0.1-0.1,0.2-0.2,0.3-0.3s0.2-0.2,0.3-0.2c0.1-0.1,0.3-0.1,0.5-0.2s0.4-0.1,0.5-0.1c0.2,0,0.5,0,0.7,0.1   c0.2,0.1,0.4,0.2,0.6,0.3c0.2,0.1,0.3,0.2,0.4,0.4c0.1,0.2,0.2,0.3,0.3,0.5c0.1,0.2,0.2,0.5,0.2,0.7c0,0.3,0.1,0.6,0.1,0.9v0.1   C360.9,21.4,360.8,21.6,360.8,21.9z M359.8,20.5c0-0.2-0.1-0.3-0.1-0.5c-0.1-0.2-0.1-0.4-0.2-0.5c-0.1-0.2-0.2-0.3-0.4-0.4   c-0.1-0.1-0.2-0.1-0.3-0.1c-0.1,0-0.3-0.1-0.4-0.1c-0.2,0-0.3,0-0.5,0.1c-0.1,0-0.3,0.1-0.4,0.2c-0.1,0.1-0.2,0.2-0.3,0.3   c-0.1,0.1-0.2,0.2-0.2,0.4v2.5c0.1,0.1,0.1,0.2,0.2,0.4s0.2,0.2,0.3,0.3c0.1,0.1,0.2,0.1,0.4,0.2c0.1,0,0.3,0.1,0.5,0.1   c0.2,0,0.3,0,0.4-0.1s0.3-0.1,0.4-0.2c0.1-0.1,0.3-0.2,0.4-0.4c0.1-0.2,0.2-0.3,0.2-0.5c0-0.1,0.1-0.3,0.1-0.5c0-0.2,0-0.3,0-0.5   V21C359.9,20.9,359.9,20.7,359.8,20.5z"
   id="path30679" />
	<path
   d="M366,18.2V24c0,0.4-0.1,0.7-0.2,1c-0.1,0.3-0.2,0.5-0.4,0.7c-0.2,0.2-0.4,0.3-0.7,0.4c-0.3,0.1-0.6,0.2-0.9,0.2   c-0.1,0-0.2,0-0.3,0c-0.1,0-0.2,0-0.3,0c-0.1,0-0.2,0-0.2,0c-0.1,0-0.2,0-0.3,0l0.1-0.8c0.1,0,0.1,0,0.2,0c0.1,0,0.2,0,0.3,0   c0.1,0,0.2,0,0.3,0s0.2,0,0.2,0c0.2,0,0.4,0,0.5-0.1c0.2,0,0.3-0.1,0.4-0.2c0.1-0.1,0.2-0.3,0.3-0.4c0.1-0.2,0.1-0.4,0.1-0.7v-4.9   h-1.9v-0.9H366z M365.1,16.3c0.1-0.1,0.2-0.2,0.4-0.2s0.3,0.1,0.4,0.2s0.1,0.2,0.1,0.4c0,0.2,0,0.3-0.1,0.4s-0.2,0.2-0.4,0.2   s-0.3-0.1-0.4-0.2s-0.1-0.2-0.1-0.4C364.9,16.6,365,16.4,365.1,16.3z"
   id="path30681" />
	<path
   d="M370.4,23.8c-0.3-0.1-0.6-0.3-0.9-0.6c-0.2-0.2-0.4-0.5-0.6-0.9s-0.2-0.7-0.2-1.1v-0.2c0-0.5,0.1-0.9,0.2-1.2   s0.3-0.7,0.6-0.9c0.2-0.2,0.5-0.4,0.8-0.6c0.3-0.1,0.6-0.2,1-0.2c0.4,0,0.8,0.1,1.1,0.2c0.3,0.1,0.6,0.3,0.8,0.6   c0.2,0.3,0.4,0.6,0.5,0.9c0.1,0.3,0.2,0.7,0.2,1.1v0.4h-4.1v0c0,0.3,0.1,0.5,0.2,0.7c0.1,0.2,0.2,0.4,0.4,0.6   c0.2,0.2,0.3,0.3,0.6,0.4c0.2,0.1,0.5,0.1,0.7,0.1c0.3,0,0.7-0.1,0.9-0.2c0.3-0.1,0.5-0.3,0.7-0.6l0.6,0.5   c-0.2,0.3-0.5,0.5-0.9,0.8s-0.8,0.3-1.4,0.3C371.1,24,370.7,24,370.4,23.8z M370.8,19c-0.2,0.1-0.3,0.2-0.5,0.3   c-0.1,0.1-0.3,0.3-0.4,0.5s-0.2,0.4-0.2,0.7h3.1v0c0-0.2,0-0.4-0.1-0.6c-0.1-0.2-0.2-0.4-0.3-0.5c-0.1-0.1-0.3-0.3-0.5-0.4   c-0.2-0.1-0.4-0.1-0.6-0.1C371.2,18.9,371,19,370.8,19z"
   id="path30683" />
	<path
   d="M378.4,23.2c0.2-0.1,0.3-0.1,0.4-0.2c0.1-0.1,0.2-0.2,0.3-0.4c0.1-0.1,0.1-0.3,0.1-0.4h0.9c0,0.3-0.1,0.5-0.2,0.7   c-0.1,0.2-0.3,0.4-0.5,0.6c-0.2,0.2-0.5,0.3-0.7,0.4c-0.3,0.1-0.6,0.2-0.9,0.2c-0.4,0-0.8-0.1-1.1-0.2c-0.3-0.2-0.6-0.4-0.8-0.6   c-0.2-0.3-0.4-0.6-0.5-0.9c-0.1-0.3-0.2-0.7-0.2-1.1V21c0-0.4,0.1-0.7,0.2-1.1c0.1-0.3,0.3-0.6,0.5-0.9c0.2-0.3,0.5-0.5,0.8-0.6   c0.3-0.2,0.7-0.2,1.1-0.2c0.3,0,0.6,0.1,0.9,0.2s0.5,0.3,0.7,0.4c0.2,0.2,0.4,0.4,0.5,0.7s0.2,0.5,0.2,0.8h-0.9   c0-0.2,0-0.3-0.1-0.5c-0.1-0.2-0.2-0.3-0.3-0.4c-0.1-0.1-0.3-0.2-0.4-0.3s-0.4-0.1-0.6-0.1c-0.3,0-0.6,0.1-0.8,0.2   c-0.2,0.1-0.4,0.3-0.5,0.5c-0.1,0.2-0.2,0.4-0.3,0.7c-0.1,0.2-0.1,0.5-0.1,0.7v0.2c0,0.2,0,0.5,0.1,0.7s0.1,0.5,0.3,0.7   c0.1,0.2,0.3,0.4,0.5,0.5c0.2,0.1,0.5,0.2,0.8,0.2C378.1,23.3,378.3,23.2,378.4,23.2z"
   id="path30685" />
	<path
   d="M384.3,18.2h2.2V19h-2.2v3.1c0,0.2,0,0.4,0.1,0.5c0.1,0.1,0.1,0.3,0.2,0.3c0.1,0.1,0.2,0.1,0.3,0.2c0.1,0,0.3,0.1,0.4,0.1   c0.1,0,0.2,0,0.3,0c0.1,0,0.2,0,0.3,0c0.1,0,0.2,0,0.3-0.1s0.2,0,0.2-0.1l0.1,0.7c-0.1,0-0.2,0.1-0.3,0.1s-0.2,0.1-0.4,0.1   c-0.1,0-0.3,0-0.4,0.1s-0.3,0-0.5,0c-0.3,0-0.5,0-0.7-0.1c-0.2-0.1-0.4-0.2-0.6-0.3c-0.2-0.2-0.3-0.4-0.4-0.6   c-0.1-0.2-0.1-0.5-0.1-0.9V19h-1.5v-0.8h1.5v-1.4h1V18.2z"
   id="path30687" />
	<path
   d="M389.5,19.4c0.1-0.4,0.2-0.9,0.3-1.2c0.1-0.4,0.3-0.7,0.5-1c0.2-0.3,0.4-0.6,0.6-0.8c0.2-0.2,0.4-0.5,0.6-0.6   c0.2-0.2,0.4-0.3,0.6-0.4l0.2,0.6c-0.1,0.1-0.2,0.2-0.3,0.3s-0.2,0.3-0.3,0.4c-0.2,0.2-0.3,0.5-0.5,0.8c-0.1,0.3-0.3,0.6-0.4,1   c-0.1,0.3-0.2,0.7-0.2,1.1c-0.1,0.4-0.1,0.8-0.1,1.3v0.1c0,0.4,0,0.9,0.1,1.2c0,0.4,0.1,0.7,0.2,1.1c0.1,0.3,0.2,0.6,0.3,0.9   c0.1,0.3,0.2,0.5,0.4,0.8c0.1,0.2,0.3,0.4,0.4,0.6c0.1,0.2,0.3,0.3,0.4,0.4l-0.2,0.6c-0.2-0.1-0.4-0.2-0.6-0.4   c-0.2-0.2-0.4-0.4-0.6-0.6c-0.2-0.2-0.4-0.5-0.6-0.8c-0.2-0.3-0.3-0.7-0.5-1c-0.1-0.4-0.2-0.8-0.3-1.2c-0.1-0.4-0.1-0.9-0.1-1.4   v-0.1C389.4,20.3,389.5,19.8,389.5,19.4z"
   id="path30689" />
	<path
   d="M398.4,22.3c-0.1,0.4-0.2,0.9-0.3,1.2c-0.1,0.4-0.3,0.7-0.5,1c-0.2,0.3-0.4,0.6-0.5,0.8c-0.2,0.2-0.4,0.5-0.6,0.6   c-0.2,0.2-0.4,0.3-0.6,0.4l-0.2-0.6c0.1-0.1,0.3-0.2,0.4-0.4s0.3-0.4,0.4-0.6c0.1-0.2,0.3-0.5,0.4-0.8c0.1-0.3,0.2-0.6,0.3-0.9   c0.1-0.3,0.1-0.7,0.2-1s0.1-0.8,0.1-1.2v-0.1c0-0.5,0-0.9-0.1-1.3c-0.1-0.4-0.1-0.7-0.2-1c-0.1-0.4-0.2-0.7-0.4-1   c-0.1-0.3-0.3-0.6-0.4-0.8c-0.1-0.2-0.2-0.3-0.4-0.5c-0.1-0.1-0.2-0.3-0.4-0.3l0.2-0.6c0.2,0.1,0.4,0.2,0.6,0.4   c0.2,0.2,0.4,0.4,0.6,0.6c0.2,0.2,0.4,0.5,0.6,0.8c0.2,0.3,0.3,0.7,0.5,1c0.1,0.4,0.2,0.8,0.3,1.2c0.1,0.4,0.1,0.9,0.1,1.5v0.1   C398.5,21.4,398.5,21.9,398.4,22.3z"
   id="path30691" />
</g>
<g
   id="g30715">
	<path
   class="st12"
   d="M269,223.4v-10.7h7.2v1.9h-5v2.6h4.6v1.9h-4.6v2.6h5v1.9H269z"
   id="path30695" />
	<path
   class="st12"
   d="M278.1,223.4v-10.7h4.2c0.8,0,1.5,0.1,2.1,0.4c0.6,0.3,1,0.7,1.3,1.2c0.3,0.5,0.5,1.1,0.5,1.9   c0,0.7-0.2,1.3-0.5,1.8c-0.3,0.5-0.8,0.9-1.3,1.2c-0.6,0.3-1.3,0.4-2.1,0.4h-2.8v-1.8h2.5c0.4,0,0.8-0.1,1.1-0.2s0.5-0.3,0.6-0.5   c0.1-0.2,0.2-0.5,0.2-0.9c0-0.4-0.1-0.7-0.2-0.9c-0.1-0.2-0.4-0.4-0.6-0.6c-0.3-0.1-0.6-0.2-1.1-0.2h-1.5v8.9H278.1z M283.9,218.5   l2.7,4.9H284l-2.6-4.9H283.9z"
   id="path30697" />
	<path
   class="st12"
   d="M289.6,223.4h-2.4l3.7-10.7h2.9l3.7,10.7h-2.4l-2.7-8.3h-0.1L289.6,223.4z M289.4,219.2h5.7v1.8h-5.7V219.2z"
   id="path30699" />
	<path
   class="st12"
   d="M304.3,215.8c0-0.4-0.2-0.8-0.5-1c-0.3-0.2-0.7-0.4-1.3-0.4c-0.4,0-0.7,0.1-0.9,0.2c-0.3,0.1-0.4,0.2-0.6,0.4   c-0.1,0.2-0.2,0.4-0.2,0.6c0,0.2,0,0.4,0.1,0.5s0.2,0.3,0.4,0.4c0.2,0.1,0.3,0.2,0.5,0.3c0.2,0.1,0.4,0.1,0.7,0.2l1,0.2   c0.5,0.1,0.9,0.2,1.3,0.4s0.7,0.4,1,0.6c0.3,0.3,0.5,0.6,0.7,0.9c0.2,0.3,0.2,0.7,0.2,1.2c0,0.7-0.2,1.2-0.5,1.7   c-0.3,0.5-0.8,0.9-1.4,1.1c-0.6,0.3-1.4,0.4-2.2,0.4c-0.9,0-1.6-0.1-2.3-0.4c-0.6-0.3-1.1-0.7-1.5-1.2c-0.4-0.5-0.5-1.2-0.6-1.9   h2.2c0,0.4,0.1,0.7,0.3,0.9c0.2,0.2,0.4,0.4,0.7,0.5c0.3,0.1,0.7,0.2,1,0.2c0.4,0,0.7-0.1,1-0.2c0.3-0.1,0.5-0.3,0.7-0.5   c0.2-0.2,0.2-0.4,0.2-0.7c0-0.2-0.1-0.4-0.2-0.6c-0.1-0.2-0.3-0.3-0.6-0.4s-0.6-0.2-1-0.3l-1.2-0.3c-0.9-0.2-1.6-0.6-2.1-1   c-0.5-0.5-0.8-1.1-0.8-1.9c0-0.6,0.2-1.2,0.5-1.7s0.8-0.9,1.4-1.1c0.6-0.3,1.3-0.4,2.1-0.4c0.8,0,1.5,0.1,2.1,0.4   c0.6,0.3,1.1,0.7,1.4,1.1c0.3,0.5,0.5,1,0.5,1.7H304.3z"
   id="path30701" />
	<path
   class="st12"
   d="M314.8,212.7h2.3v7c0,0.8-0.2,1.5-0.6,2.1c-0.4,0.6-0.9,1-1.6,1.4c-0.7,0.3-1.4,0.5-2.3,0.5   c-0.9,0-1.7-0.2-2.3-0.5c-0.7-0.3-1.2-0.8-1.6-1.4c-0.4-0.6-0.6-1.3-0.6-2.1v-7h2.3v6.8c0,0.4,0.1,0.8,0.3,1.1   c0.2,0.3,0.4,0.6,0.8,0.7c0.3,0.2,0.7,0.3,1.1,0.3c0.4,0,0.8-0.1,1.1-0.3c0.3-0.2,0.6-0.4,0.8-0.7c0.2-0.3,0.3-0.7,0.3-1.1V212.7z"
   id="path30703" />
	<path
   class="st12"
   d="M318.9,223.4v-10.7h4.2c0.8,0,1.5,0.1,2.1,0.4s1,0.7,1.3,1.2c0.3,0.5,0.5,1.1,0.5,1.9c0,0.7-0.2,1.3-0.5,1.8   c-0.3,0.5-0.8,0.9-1.3,1.2c-0.6,0.3-1.3,0.4-2.1,0.4h-2.8v-1.8h2.5c0.4,0,0.8-0.1,1.1-0.2s0.5-0.3,0.6-0.5c0.1-0.2,0.2-0.5,0.2-0.9   c0-0.4-0.1-0.7-0.2-0.9c-0.1-0.2-0.4-0.4-0.6-0.6s-0.7-0.2-1.1-0.2h-1.5v8.9H318.9z M324.7,218.5l2.7,4.9h-2.5l-2.6-4.9H324.7z"
   id="path30705" />
	<path
   class="st12"
   d="M328.6,223.4v-10.7h7.2v1.9h-5v2.6h4.6v1.9h-4.6v2.6h5v1.9H328.6z"
   id="path30707" />
	<path
   class="st12"
   d="M346.9,215.8c0-0.4-0.2-0.8-0.5-1c-0.3-0.2-0.7-0.4-1.3-0.4c-0.4,0-0.7,0.1-0.9,0.2c-0.3,0.1-0.4,0.2-0.6,0.4   c-0.1,0.2-0.2,0.4-0.2,0.6c0,0.2,0,0.4,0.1,0.5s0.2,0.3,0.4,0.4c0.2,0.1,0.3,0.2,0.5,0.3c0.2,0.1,0.4,0.1,0.7,0.2l1,0.2   c0.5,0.1,0.9,0.2,1.3,0.4s0.7,0.4,1,0.6c0.3,0.3,0.5,0.6,0.7,0.9c0.2,0.3,0.2,0.7,0.2,1.2c0,0.7-0.2,1.2-0.5,1.7   c-0.3,0.5-0.8,0.9-1.4,1.1c-0.6,0.3-1.4,0.4-2.2,0.4c-0.9,0-1.6-0.1-2.3-0.4c-0.6-0.3-1.1-0.7-1.5-1.2c-0.4-0.5-0.5-1.2-0.6-1.9   h2.2c0,0.4,0.1,0.7,0.3,0.9c0.2,0.2,0.4,0.4,0.7,0.5c0.3,0.1,0.7,0.2,1,0.2c0.4,0,0.7-0.1,1-0.2c0.3-0.1,0.5-0.3,0.7-0.5   c0.2-0.2,0.2-0.4,0.2-0.7c0-0.2-0.1-0.4-0.2-0.6c-0.1-0.2-0.3-0.3-0.6-0.4s-0.6-0.2-1-0.3l-1.2-0.3c-0.9-0.2-1.6-0.6-2.1-1   c-0.5-0.5-0.8-1.1-0.8-1.9c0-0.6,0.2-1.2,0.5-1.7s0.8-0.9,1.4-1.1c0.6-0.3,1.3-0.4,2.1-0.4c0.8,0,1.5,0.1,2.1,0.4   c0.6,0.3,1.1,0.7,1.4,1.1c0.3,0.5,0.5,1,0.5,1.7H346.9z"
   id="path30709" />
	<path
   class="st12"
   d="M350.7,223.4v-10.7h7.2v1.9h-5v2.6h4.6v1.9H353v2.6h5v1.9H350.7z"
   id="path30711" />
	<path
   class="st12"
   d="M359.3,214.5v-1.9h8.8v1.9h-3.3v8.9h-2.2v-8.9H359.3z"
   id="path30713" />
</g>
<path
   id="rect30717"
   class="st21"
   style="fill:none;stroke:#cf2144;stroke-miterlimit:10"
   d="M 229.7,0.1 H 415.59999 V 39.399999 H 229.7 Z" />
<path
   id="rect30719"
   class="st11"
   style="fill:#cf2144"
   d="m 197.60001,96.300003 h 250.1 V 149.2 h -250.1 z" />
<g
   id="g30747">
	<g
   id="g30729">
		<path
   class="st12"
   d="M354.6,115.3v15.1h-1.8l-8.2-11.8h-0.1v11.8h-1.8v-15.1h1.8l8.2,11.9h0.1v-11.9H354.6z"
   id="path30721" />
		<path
   class="st12"
   d="M362.6,130.6c-1,0-1.9-0.2-2.7-0.7c-0.8-0.5-1.4-1.2-1.8-2c-0.4-0.9-0.6-1.9-0.6-3.1c0-1.2,0.2-2.2,0.6-3.1    c0.4-0.9,1-1.6,1.8-2c0.8-0.5,1.7-0.7,2.7-0.7c1,0,1.9,0.2,2.7,0.7c0.8,0.5,1.4,1.2,1.8,2c0.4,0.9,0.6,1.9,0.6,3.1    c0,1.2-0.2,2.2-0.6,3.1c-0.4,0.9-1,1.6-1.8,2C364.5,130.4,363.7,130.6,362.6,130.6z M362.6,129.1c0.8,0,1.4-0.2,1.9-0.6    c0.5-0.4,0.9-0.9,1.1-1.6c0.2-0.6,0.4-1.3,0.4-2.1c0-0.8-0.1-1.5-0.4-2.1c-0.2-0.7-0.6-1.2-1.1-1.6c-0.5-0.4-1.1-0.6-1.9-0.6    c-0.8,0-1.4,0.2-1.9,0.6c-0.5,0.4-0.9,0.9-1.1,1.6c-0.2,0.7-0.4,1.4-0.4,2.1c0,0.8,0.1,1.5,0.4,2.1c0.2,0.6,0.6,1.2,1.1,1.6    C361.2,128.9,361.9,129.1,362.6,129.1z"
   id="path30723" />
		<path
   class="st12"
   d="M374.7,130.6c-0.9,0-1.8-0.2-2.5-0.7s-1.3-1.2-1.7-2c-0.4-0.9-0.6-1.9-0.6-3.1c0-1.2,0.2-2.2,0.6-3.1    s1-1.5,1.7-2c0.7-0.5,1.6-0.7,2.5-0.7c0.7,0,1.3,0.1,1.7,0.4c0.4,0.2,0.8,0.5,1,0.8s0.4,0.6,0.5,0.8h0.1v-5.6h1.7v15.1h-1.7v-1.7    H378c-0.1,0.2-0.3,0.5-0.5,0.8c-0.2,0.3-0.6,0.6-1,0.8C376,130.5,375.4,130.6,374.7,130.6z M374.9,129.1c0.7,0,1.3-0.2,1.8-0.5    c0.5-0.4,0.8-0.9,1.1-1.5s0.4-1.4,0.4-2.3c0-0.8-0.1-1.6-0.4-2.2c-0.2-0.6-0.6-1.1-1.1-1.5c-0.5-0.4-1.1-0.5-1.8-0.5    c-0.7,0-1.3,0.2-1.8,0.6s-0.9,0.9-1.1,1.5c-0.2,0.6-0.4,1.4-0.4,2.2c0,0.8,0.1,1.5,0.4,2.2s0.6,1.2,1.1,1.6    S374.2,129.1,374.9,129.1z"
   id="path30725" />
		<path
   class="st12"
   d="M388,130.6c-1.1,0-2-0.2-2.8-0.7c-0.8-0.5-1.4-1.2-1.8-2c-0.4-0.9-0.6-1.9-0.6-3s0.2-2.2,0.6-3.1    c0.4-0.9,1-1.6,1.8-2.1c0.8-0.5,1.7-0.7,2.7-0.7c0.6,0,1.2,0.1,1.7,0.3s1.1,0.5,1.6,1c0.5,0.4,0.8,1,1.1,1.7    c0.3,0.7,0.4,1.6,0.4,2.7v0.7H384v-1.5h7c0-0.6-0.1-1.2-0.4-1.7c-0.3-0.5-0.6-0.9-1.1-1.2s-1-0.4-1.6-0.4c-0.7,0-1.3,0.2-1.8,0.5    c-0.5,0.3-0.9,0.8-1.2,1.3c-0.3,0.5-0.4,1.1-0.4,1.8v1c0,0.9,0.1,1.6,0.4,2.2s0.7,1,1.2,1.3s1.1,0.5,1.8,0.5    c0.5,0,0.9-0.1,1.2-0.2c0.4-0.1,0.7-0.3,1-0.6c0.3-0.3,0.5-0.6,0.6-1l1.7,0.5c-0.2,0.6-0.5,1.1-0.9,1.5c-0.4,0.4-0.9,0.8-1.5,1    C389.5,130.5,388.8,130.6,388,130.6z"
   id="path30727" />
	</g>
	<g
   id="g30745">
		<g
   id="g30743">
			<g
   id="g30737">
				<path
   id="rect30731"
   class="st12"
   style="fill:#ffffff"
   d="m 277.60001,117.9 h 4.5 v 11.7 h -4.5 z" />
				<path
   class="st12"
   d="M272.1,118.1L263,123c-0.1,0.1-0.3,0.1-0.4,0l-9.1-4.9c-0.2-0.1-0.4-0.2-0.7-0.2h0c-0.7,0-1.2,0.5-1.2,1.1      v10.6h4.5v-5c0-0.3,0.4-0.5,0.7-0.3l5.1,2.8c0.5,0.3,1.1,0.3,1.6,0l5.4-2.8c0.3-0.2,0.7,0,0.7,0.3v5.1h4.5V119      c0-0.6-0.6-1.1-1.2-1.1h0C272.6,117.9,272.3,118,272.1,118.1z"
   id="path30733" />
				<path
   class="st12"
   d="M304.5,117.9l-4.6,0v5.3c0,0.3-0.4,0.5-0.7,0.3l-11.8-5.6c-0.2-0.1-0.4-0.1-0.6-0.1h0      c-0.7,0-1.2,0.5-1.2,1.1v10.6h4.5v-5.3c0-0.3,0.4-0.5,0.7-0.4l11.8,5.5c0.2,0.1,0.4,0.1,0.6,0.1l0,0c0.7,0,1.2-0.5,1.2-1.1      V117.9z"
   id="path30735" />
			</g>
			<path
   class="st12"
   d="M308,129.6v-11.7h2.1v11.7H308z"
   id="path30739" />
			<path
   class="st12"
   d="M322.2,129.8c-5.6,0-9.5-2.3-9.5-6.1c0-3.7,4-6.1,9.5-6.1c5.5,0,9.5,2.3,9.5,6.1     C331.7,127.5,327.8,129.8,322.2,129.8z M322.2,119.2c-4.1,0-7.3,1.6-7.3,4.5c0,2.9,3.2,4.5,7.3,4.5c4.1,0,7.3-1.6,7.3-4.5     C329.6,120.8,326.3,119.2,322.2,119.2z"
   id="path30741" />
		</g>
	</g>
</g>
<g
   id="g30771">
	<g
   id="g30767">
		<g
   id="g30751">
			<path
   class="st27"
   d="M64,311.8H49.1c-0.9,0-1.8-0.4-2.4-1.1c-0.6-0.7-1-1.6-0.9-2.5l1.3-17.9c0.1-1.7,1.6-3.1,3.3-3.1h12.3     c1.7,0,3.2,1.4,3.3,3.1l1.3,17.9c0.1,0.9-0.3,1.8-0.9,2.5C65.8,311.5,64.9,311.8,64,311.8z"
   id="path30749" />
		</g>
		<path
   class="st12"
   d="M50.9,292.3h-0.6c-0.2,0-0.4-0.2-0.4-0.4v-3.7c0-0.2,0.2-0.4,0.4-0.4h0.6c0.2,0,0.4,0.2,0.4,0.4v3.7    C51.3,292.1,51.1,292.3,50.9,292.3z"
   id="path30753" />
		<path
   class="st12"
   d="M53.8,293.2h-0.6c-0.2,0-0.4-0.2-0.4-0.4v-4.5c0-0.2,0.2-0.4,0.4-0.4h0.6c0.2,0,0.4,0.2,0.4,0.4v4.5    C54.2,293,54,293.2,53.8,293.2z"
   id="path30755" />
		<path
   class="st12"
   d="M59.6,293.2H59c-0.2,0-0.4-0.2-0.4-0.4v-4.5c0-0.2,0.2-0.4,0.4-0.4h0.6c0.2,0,0.4,0.2,0.4,0.4v4.5    C60,293,59.8,293.2,59.6,293.2z"
   id="path30757" />
		<path
   class="st12"
   d="M62.5,292.3H62c-0.2,0-0.4-0.2-0.4-0.4v-3.7c0-0.2,0.2-0.4,0.4-0.4h0.6c0.2,0,0.4,0.2,0.4,0.4v3.7    C62.9,292.1,62.8,292.3,62.5,292.3z"
   id="path30759" />
		<path
   class="st12"
   d="M56.7,292.3h-0.6c-0.2,0-0.4-0.2-0.4-0.4v-3.7c0-0.2,0.2-0.4,0.4-0.4h0.6c0.2,0,0.4,0.2,0.4,0.4v3.7    C57.1,292.1,56.9,292.3,56.7,292.3z"
   id="path30761" />
		<g
   id="g30765">
			<path
   class="st27"
   d="M64,312.9H49.1c-1.2,0-2.4-0.5-3.2-1.4c-0.8-0.9-1.3-2.1-1.2-3.3l1.3-17.9c0.2-2.3,2.1-4.1,4.4-4.1h12.3     c2.3,0,4.2,1.8,4.4,4.1l1.3,17.9c0.1,1.2-0.3,2.4-1.2,3.3C66.4,312.4,65.2,312.9,64,312.9z M50.4,288.3c-1.2,0-2.2,0.9-2.3,2.1     l-1.3,17.9c0,0.6,0.2,1.2,0.6,1.7c0.4,0.5,1,0.7,1.7,0.7H64c0.6,0,1.2-0.3,1.7-0.7c0.4-0.5,0.6-1.1,0.6-1.7l-1.3-17.9     c-0.1-1.2-1.1-2.1-2.3-2.1H50.4z"
   id="path30763" />
		</g>
	</g>
	<path
   id="line30769"
   class="st23"
   style="fill:none;stroke:#ffffff;stroke-width:0.9583;stroke-linecap:round;stroke-miterlimit:10"
   d="M 47.799999,306.60001 H 65" />
</g>
<g
   id="g30795">
	<g
   id="g30791">
		<g
   id="g30775">
			<path
   class="st27"
   d="M24.2,311.8H9.3c-0.9,0-1.8-0.4-2.4-1.1c-0.6-0.7-1-1.6-0.9-2.5l1.3-17.9c0.1-1.7,1.6-3.1,3.3-3.1h12.3     c1.7,0,3.2,1.4,3.3,3.1l1.3,17.9c0.1,0.9-0.3,1.8-0.9,2.5C26,311.5,25.1,311.8,24.2,311.8z"
   id="path30773" />
		</g>
		<path
   class="st12"
   d="M11.1,292.3h-0.6c-0.2,0-0.4-0.2-0.4-0.4v-3.7c0-0.2,0.2-0.4,0.4-0.4h0.6c0.2,0,0.4,0.2,0.4,0.4v3.7    C11.5,292.1,11.4,292.3,11.1,292.3z"
   id="path30777" />
		<path
   class="st12"
   d="M14,293.2h-0.6c-0.2,0-0.4-0.2-0.4-0.4v-4.5c0-0.2,0.2-0.4,0.4-0.4H14c0.2,0,0.4,0.2,0.4,0.4v4.5    C14.5,293,14.3,293.2,14,293.2z"
   id="path30779" />
		<path
   class="st12"
   d="M19.9,293.2h-0.6c-0.2,0-0.4-0.2-0.4-0.4v-4.5c0-0.2,0.2-0.4,0.4-0.4h0.6c0.2,0,0.4,0.2,0.4,0.4v4.5    C20.3,293,20.1,293.2,19.9,293.2z"
   id="path30781" />
		<path
   class="st12"
   d="M22.8,292.3h-0.6c-0.2,0-0.4-0.2-0.4-0.4v-3.7c0-0.2,0.2-0.4,0.4-0.4h0.6c0.2,0,0.4,0.2,0.4,0.4v3.7    C23.2,292.1,23,292.3,22.8,292.3z"
   id="path30783" />
		<path
   class="st12"
   d="M16.9,292.3h-0.6c-0.2,0-0.4-0.2-0.4-0.4v-3.7c0-0.2,0.2-0.4,0.4-0.4h0.6c0.2,0,0.4,0.2,0.4,0.4v3.7    C17.4,292.1,17.2,292.3,16.9,292.3z"
   id="path30785" />
		<g
   id="g30789">
			<path
   class="st27"
   d="M24.2,312.9H9.3c-1.2,0-2.4-0.5-3.2-1.4c-0.8-0.9-1.3-2.1-1.2-3.3l1.3-17.9c0.2-2.3,2.1-4.1,4.4-4.1h12.3     c2.3,0,4.2,1.8,4.4,4.1l1.3,17.9c0.1,1.2-0.3,2.4-1.2,3.3C26.6,312.4,25.4,312.9,24.2,312.9z M10.6,288.3c-1.2,0-2.2,0.9-2.3,2.1     l-1.3,17.9c0,0.6,0.2,1.2,0.6,1.7c0.4,0.5,1,0.7,1.7,0.7h14.9c0.6,0,1.2-0.3,1.7-0.7c0.4-0.5,0.6-1.1,0.6-1.7l-1.3-17.9     c-0.1-1.2-1.1-2.1-2.3-2.1H10.6z"
   id="path30787" />
		</g>
	</g>
	<path
   id="line30793"
   class="st23"
   style="fill:none;stroke:#ffffff;stroke-width:0.9583;stroke-linecap:round;stroke-miterlimit:10"
   d="M 8.1000004,306.60001 H 25.200001" />
</g>
<g
   id="g30819">
	<g
   id="g30815">
		<g
   id="g30799">
			<path
   class="st11"
   d="M104.2,311.8H89.3c-0.9,0-1.8-0.4-2.4-1.1c-0.6-0.7-1-1.6-0.9-2.5l1.3-17.9c0.1-1.7,1.6-3.1,3.3-3.1h12.3     c1.7,0,3.2,1.4,3.3,3.1l1.3,17.9c0.1,0.9-0.3,1.8-0.9,2.5C106,311.5,105.1,311.8,104.2,311.8z"
   id="path30797" />
		</g>
		<path
   class="st12"
   d="M91.1,292.3h-0.6c-0.2,0-0.4-0.2-0.4-0.4v-3.7c0-0.2,0.2-0.4,0.4-0.4h0.6c0.2,0,0.4,0.2,0.4,0.4v3.7    C91.5,292.1,91.3,292.3,91.1,292.3z"
   id="path30801" />
		<path
   class="st12"
   d="M94,293.2h-0.6c-0.2,0-0.4-0.2-0.4-0.4v-4.5c0-0.2,0.2-0.4,0.4-0.4H94c0.2,0,0.4,0.2,0.4,0.4v4.5    C94.5,293,94.3,293.2,94,293.2z"
   id="path30803" />
		<path
   class="st12"
   d="M99.8,293.2h-0.6c-0.2,0-0.4-0.2-0.4-0.4v-4.5c0-0.2,0.2-0.4,0.4-0.4h0.6c0.2,0,0.4,0.2,0.4,0.4v4.5    C100.3,293,100.1,293.2,99.8,293.2z"
   id="path30805" />
		<path
   class="st12"
   d="M102.8,292.3h-0.6c-0.2,0-0.4-0.2-0.4-0.4v-3.7c0-0.2,0.2-0.4,0.4-0.4h0.6c0.2,0,0.4,0.2,0.4,0.4v3.7    C103.2,292.1,103,292.3,102.8,292.3z"
   id="path30807" />
		<path
   class="st12"
   d="M96.9,292.3h-0.6c-0.2,0-0.4-0.2-0.4-0.4v-3.7c0-0.2,0.2-0.4,0.4-0.4h0.6c0.2,0,0.4,0.2,0.4,0.4v3.7    C97.4,292.1,97.2,292.3,96.9,292.3z"
   id="path30809" />
		<g
   id="g30813">
			<path
   class="st22"
   d="M104.2,311.8H89.3c-0.9,0-1.8-0.4-2.4-1.1c-0.6-0.7-1-1.6-0.9-2.5l1.3-17.9c0.1-1.7,1.6-3.1,3.3-3.1h12.3     c1.7,0,3.2,1.4,3.3,3.1l1.3,17.9c0.1,0.9-0.3,1.8-0.9,2.5C106,311.5,105.1,311.8,104.2,311.8z"
   id="path30811" />
		</g>
	</g>
	<path
   id="line30817"
   class="st23"
   style="fill:none;stroke:#ffffff;stroke-width:0.9583;stroke-linecap:round;stroke-miterlimit:10"
   d="M 88.199997,306.60001 H 105.3" />
</g>
<g
   id="g30843">
	<g
   id="g30839">
		<g
   id="g30823">
			<path
   class="st11"
   d="M144,311.8h-14.9c-0.9,0-1.8-0.4-2.4-1.1c-0.6-0.7-1-1.6-0.9-2.5l1.3-17.9c0.1-1.7,1.6-3.1,3.3-3.1h12.3     c1.7,0,3.2,1.4,3.3,3.1l1.3,17.9c0.1,0.9-0.3,1.8-0.9,2.5C145.8,311.5,145,311.8,144,311.8z"
   id="path30821" />
		</g>
		<path
   class="st12"
   d="M130.9,292.3h-0.6c-0.2,0-0.4-0.2-0.4-0.4v-3.7c0-0.2,0.2-0.4,0.4-0.4h0.6c0.2,0,0.4,0.2,0.4,0.4v3.7    C131.4,292.1,131.2,292.3,130.9,292.3z"
   id="path30825" />
		<path
   class="st12"
   d="M133.8,293.2h-0.6c-0.2,0-0.4-0.2-0.4-0.4v-4.5c0-0.2,0.2-0.4,0.4-0.4h0.6c0.2,0,0.4,0.2,0.4,0.4v4.5    C134.3,293,134.1,293.2,133.8,293.2z"
   id="path30827" />
		<path
   class="st12"
   d="M139.7,293.2h-0.6c-0.2,0-0.4-0.2-0.4-0.4v-4.5c0-0.2,0.2-0.4,0.4-0.4h0.6c0.2,0,0.4,0.2,0.4,0.4v4.5    C140.1,293,139.9,293.2,139.7,293.2z"
   id="path30829" />
		<path
   class="st12"
   d="M142.6,292.3H142c-0.2,0-0.4-0.2-0.4-0.4v-3.7c0-0.2,0.2-0.4,0.4-0.4h0.6c0.2,0,0.4,0.2,0.4,0.4v3.7    C143,292.1,142.8,292.3,142.6,292.3z"
   id="path30831" />
		<path
   class="st12"
   d="M136.8,292.3h-0.6c-0.2,0-0.4-0.2-0.4-0.4v-3.7c0-0.2,0.2-0.4,0.4-0.4h0.6c0.2,0,0.4,0.2,0.4,0.4v3.7    C137.2,292.1,137,292.3,136.8,292.3z"
   id="path30833" />
		<g
   id="g30837">
			<path
   class="st22"
   d="M144,311.8h-14.9c-0.9,0-1.8-0.4-2.4-1.1c-0.6-0.7-1-1.6-0.9-2.5l1.3-17.9c0.1-1.7,1.6-3.1,3.3-3.1h12.3     c1.7,0,3.2,1.4,3.3,3.1l1.3,17.9c0.1,0.9-0.3,1.8-0.9,2.5C145.8,311.5,145,311.8,144,311.8z"
   id="path30835" />
		</g>
	</g>
	<path
   id="line30841"
   class="st23"
   style="fill:none;stroke:#ffffff;stroke-width:0.9583;stroke-linecap:round;stroke-miterlimit:10"
   d="m 128,306.60001 h 17.2" />
</g>
<g
   id="g30867">
	<g
   id="g30863">
		<g
   id="g30847">
			<path
   class="st11"
   d="M185,311.8h-14.9c-0.9,0-1.8-0.4-2.4-1.1c-0.6-0.7-1-1.6-0.9-2.5l1.3-17.9c0.1-1.7,1.6-3.1,3.3-3.1h12.3     c1.7,0,3.2,1.4,3.3,3.1l1.3,17.9c0.1,0.9-0.3,1.8-0.9,2.5C186.8,311.5,185.9,311.8,185,311.8z"
   id="path30845" />
		</g>
		<path
   class="st12"
   d="M171.9,292.3h-0.6c-0.2,0-0.4-0.2-0.4-0.4v-3.7c0-0.2,0.2-0.4,0.4-0.4h0.6c0.2,0,0.4,0.2,0.4,0.4l0,3.7    C172.3,292.1,172.1,292.3,171.9,292.3z"
   id="path30849" />
		<path
   class="st12"
   d="M174.8,293.2h-0.6c-0.2,0-0.4-0.2-0.4-0.4v-4.5c0-0.2,0.2-0.4,0.4-0.4h0.6c0.2,0,0.4,0.2,0.4,0.4v4.5    C175.2,293,175,293.2,174.8,293.2z"
   id="path30851" />
		<path
   class="st12"
   d="M180.6,293.2h-0.6c-0.2,0-0.4-0.2-0.4-0.4v-4.5c0-0.2,0.2-0.4,0.4-0.4h0.6c0.2,0,0.4,0.2,0.4,0.4v4.5    C181,293,180.8,293.2,180.6,293.2z"
   id="path30853" />
		<path
   class="st12"
   d="M183.5,292.3H183c-0.2,0-0.4-0.2-0.4-0.4v-3.7c0-0.2,0.2-0.4,0.4-0.4h0.6c0.2,0,0.4,0.2,0.4,0.4v3.7    C183.9,292.1,183.8,292.3,183.5,292.3z"
   id="path30855" />
		<path
   class="st12"
   d="M177.7,292.3h-0.6c-0.2,0-0.4-0.2-0.4-0.4v-3.7c0-0.2,0.2-0.4,0.4-0.4h0.6c0.2,0,0.4,0.2,0.4,0.4v3.7    C178.1,292.1,177.9,292.3,177.7,292.3z"
   id="path30857" />
		<g
   id="g30861">
			<path
   class="st22"
   d="M185,311.8h-14.9c-0.9,0-1.8-0.4-2.4-1.1c-0.6-0.7-1-1.6-0.9-2.5l1.3-17.9c0.1-1.7,1.6-3.1,3.3-3.1h12.3     c1.7,0,3.2,1.4,3.3,3.1l1.3,17.9c0.1,0.9-0.3,1.8-0.9,2.5C186.8,311.5,185.9,311.8,185,311.8z"
   id="path30859" />
		</g>
	</g>
	<path
   id="line30865"
   class="st23"
   style="fill:none;stroke:#ffffff;stroke-width:0.9583;stroke-linecap:round;stroke-miterlimit:10"
   d="m 168.89999,306.60001 h 17.20002" />
</g>
<g
   id="g30891">
	<g
   id="g30887">
		<g
   id="g30871">
			<path
   class="st11"
   d="M226.1,311.8h-14.9c-0.9,0-1.8-0.4-2.4-1.1c-0.6-0.7-1-1.6-0.9-2.5l1.3-17.9c0.1-1.7,1.6-3.1,3.3-3.1h12.3     c1.7,0,3.2,1.4,3.3,3.1l1.3,17.9c0.1,0.9-0.3,1.8-0.9,2.5C227.9,311.5,227,311.8,226.1,311.8z"
   id="path30869" />
		</g>
		<path
   class="st12"
   d="M213,292.3h-0.6c-0.2,0-0.4-0.2-0.4-0.4v-3.7c0-0.2,0.2-0.4,0.4-0.4h0.6c0.2,0,0.4,0.2,0.4,0.4v3.7    C213.5,292.1,213.3,292.3,213,292.3z"
   id="path30873" />
		<path
   class="st12"
   d="M215.9,293.2h-0.6c-0.2,0-0.4-0.2-0.4-0.4v-4.5c0-0.2,0.2-0.4,0.4-0.4h0.6c0.2,0,0.4,0.2,0.4,0.4v4.5    C216.4,293,216.2,293.2,215.9,293.2z"
   id="path30875" />
		<path
   class="st12"
   d="M221.8,293.2h-0.6c-0.2,0-0.4-0.2-0.4-0.4v-4.5c0-0.2,0.2-0.4,0.4-0.4h0.6c0.2,0,0.4,0.2,0.4,0.4v4.5    C222.2,293,222,293.2,221.8,293.2z"
   id="path30877" />
		<path
   class="st12"
   d="M224.7,292.3h-0.6c-0.2,0-0.4-0.2-0.4-0.4v-3.7c0-0.2,0.2-0.4,0.4-0.4h0.6c0.2,0,0.4,0.2,0.4,0.4v3.7    C225.1,292.1,224.9,292.3,224.7,292.3z"
   id="path30879" />
		<path
   class="st12"
   d="M218.8,292.3h-0.6c-0.2,0-0.4-0.2-0.4-0.4v-3.7c0-0.2,0.2-0.4,0.4-0.4h0.6c0.2,0,0.4,0.2,0.4,0.4v3.7    C219.3,292.1,219.1,292.3,218.8,292.3z"
   id="path30881" />
		<g
   id="g30885">
			<path
   class="st22"
   d="M226.1,311.8h-14.9c-0.9,0-1.8-0.4-2.4-1.1c-0.6-0.7-1-1.6-0.9-2.5l1.3-17.9c0.1-1.7,1.6-3.1,3.3-3.1h12.3     c1.7,0,3.2,1.4,3.3,3.1l1.3,17.9c0.1,0.9-0.3,1.8-0.9,2.5C227.9,311.5,227,311.8,226.1,311.8z"
   id="path30883" />
		</g>
	</g>
	<path
   id="line30889"
   class="st23"
   style="fill:none;stroke:#ffffff;stroke-width:0.9583;stroke-linecap:round;stroke-miterlimit:10"
   d="M 210.10001,306.60001 H 227.3" />
</g>
<g
   id="g30915">
	<g
   id="g30911">
		<g
   id="g30895">
			<path
   class="st11"
   d="M266.6,311.8h-14.9c-0.9,0-1.8-0.4-2.4-1.1c-0.6-0.7-1-1.6-0.9-2.5l1.3-17.9c0.1-1.7,1.6-3.1,3.3-3.1h12.3     c1.7,0,3.2,1.4,3.3,3.1l1.3,17.9c0.1,0.9-0.3,1.8-0.9,2.5C268.4,311.5,267.5,311.8,266.6,311.8z"
   id="path30893" />
		</g>
		<path
   class="st12"
   d="M253.5,292.3h-0.6c-0.2,0-0.4-0.2-0.4-0.4v-3.7c0-0.2,0.2-0.4,0.4-0.4h0.6c0.2,0,0.4,0.2,0.4,0.4v3.7    C253.9,292.1,253.7,292.3,253.5,292.3z"
   id="path30897" />
		<path
   class="st12"
   d="M256.4,293.2h-0.6c-0.2,0-0.4-0.2-0.4-0.4v-4.5c0-0.2,0.2-0.4,0.4-0.4h0.6c0.2,0,0.4,0.2,0.4,0.4v4.5    C256.8,293,256.6,293.2,256.4,293.2z"
   id="path30899" />
		<path
   class="st12"
   d="M262.2,293.2h-0.6c-0.2,0-0.4-0.2-0.4-0.4v-4.5c0-0.2,0.2-0.4,0.4-0.4h0.6c0.2,0,0.4,0.2,0.4,0.4v4.5    C262.7,293,262.5,293.2,262.2,293.2z"
   id="path30901" />
		<path
   class="st12"
   d="M265.1,292.3h-0.6c-0.2,0-0.4-0.2-0.4-0.4v-3.7c0-0.2,0.2-0.4,0.4-0.4h0.6c0.2,0,0.4,0.2,0.4,0.4v3.7    C265.6,292.1,265.4,292.3,265.1,292.3z"
   id="path30903" />
		<path
   class="st12"
   d="M259.3,292.3h-0.6c-0.2,0-0.4-0.2-0.4-0.4v-3.7c0-0.2,0.2-0.4,0.4-0.4h0.6c0.2,0,0.4,0.2,0.4,0.4v3.7    C259.7,292.1,259.6,292.3,259.3,292.3z"
   id="path30905" />
		<g
   id="g30909">
			<path
   class="st22"
   d="M266.6,311.8h-14.9c-0.9,0-1.8-0.4-2.4-1.1c-0.6-0.7-1-1.6-0.9-2.5l1.3-17.9c0.1-1.7,1.6-3.1,3.3-3.1h12.3     c1.7,0,3.2,1.4,3.3,3.1l1.3,17.9c0.1,0.9-0.3,1.8-0.9,2.5C268.4,311.5,267.5,311.8,266.6,311.8z"
   id="path30907" />
		</g>
	</g>
	<path
   id="line30913"
   class="st23"
   style="fill:none;stroke:#ffffff;stroke-width:0.9583;stroke-linecap:round;stroke-miterlimit:10"
   d="m 250.60001,306.60001 h 17.1" />
</g>
<g
   id="g30939">
	<g
   id="g30935">
		<g
   id="g30919">
			<path
   class="st11"
   d="M307.1,311.8h-14.9c-0.9,0-1.8-0.4-2.4-1.1c-0.6-0.7-1-1.6-0.9-2.5l1.3-17.9c0.1-1.7,1.6-3.1,3.3-3.1h12.3     c1.7,0,3.2,1.4,3.3,3.1l1.3,17.9c0.1,0.9-0.3,1.8-0.9,2.5C308.9,311.5,308,311.8,307.1,311.8z"
   id="path30917" />
		</g>
		<path
   class="st12"
   d="M294,292.3h-0.6c-0.2,0-0.4-0.2-0.4-0.4v-3.7c0-0.2,0.2-0.4,0.4-0.4h0.6c0.2,0,0.4,0.2,0.4,0.4v3.7    C294.4,292.1,294.2,292.3,294,292.3z"
   id="path30921" />
		<path
   class="st12"
   d="M296.9,293.2h-0.6c-0.2,0-0.4-0.2-0.4-0.4v-4.5c0-0.2,0.2-0.4,0.4-0.4h0.6c0.2,0,0.4,0.2,0.4,0.4v4.5    C297.3,293,297.1,293.2,296.9,293.2z"
   id="path30923" />
		<path
   class="st12"
   d="M302.7,293.2h-0.6c-0.2,0-0.4-0.2-0.4-0.4v-4.5c0-0.2,0.2-0.4,0.4-0.4h0.6c0.2,0,0.4,0.2,0.4,0.4v4.5    C303.1,293,302.9,293.2,302.7,293.2z"
   id="path30925" />
		<path
   class="st12"
   d="M305.6,292.3h-0.6c-0.2,0-0.4-0.2-0.4-0.4v-3.7c0-0.2,0.2-0.4,0.4-0.4h0.6c0.2,0,0.4,0.2,0.4,0.4v3.7    C306,292.1,305.9,292.3,305.6,292.3z"
   id="path30927" />
		<path
   class="st12"
   d="M299.8,292.3h-0.6c-0.2,0-0.4-0.2-0.4-0.4v-3.7c0-0.2,0.2-0.4,0.4-0.4h0.6c0.2,0,0.4,0.2,0.4,0.4v3.7    C300.2,292.1,300,292.3,299.8,292.3z"
   id="path30929" />
		<g
   id="g30933">
			<path
   class="st22"
   d="M307.1,311.8h-14.9c-0.9,0-1.8-0.4-2.4-1.1c-0.6-0.7-1-1.6-0.9-2.5l1.3-17.9c0.1-1.7,1.6-3.1,3.3-3.1h12.3     c1.7,0,3.2,1.4,3.3,3.1l1.3,17.9c0.1,0.9-0.3,1.8-0.9,2.5C308.9,311.5,308,311.8,307.1,311.8z"
   id="path30931" />
		</g>
	</g>
	<path
   id="line30937"
   class="st23"
   style="fill:none;stroke:#ffffff;stroke-width:0.9583;stroke-linecap:round;stroke-miterlimit:10"
   d="m 291,306.60001 h 17.20001" />
</g>
<g
   id="g30963">
	<g
   id="g30959">
		<g
   id="g30943">
			<path
   class="st11"
   d="M347.5,311.8h-14.9c-0.9,0-1.8-0.4-2.4-1.1c-0.6-0.7-1-1.6-0.9-2.5l1.3-17.9c0.1-1.7,1.6-3.1,3.3-3.1h12.3     c1.7,0,3.2,1.4,3.3,3.1l1.3,17.9c0.1,0.9-0.3,1.8-0.9,2.5C349.3,311.5,348.5,311.8,347.5,311.8z"
   id="path30941" />
		</g>
		<path
   class="st12"
   d="M334.4,292.3h-0.6c-0.2,0-0.4-0.2-0.4-0.4v-3.7c0-0.2,0.2-0.4,0.4-0.4h0.6c0.2,0,0.4,0.2,0.4,0.4v3.7    C334.9,292.1,334.7,292.3,334.4,292.3z"
   id="path30945" />
		<path
   class="st12"
   d="M337.3,293.2h-0.6c-0.2,0-0.4-0.2-0.4-0.4v-4.5c0-0.2,0.2-0.4,0.4-0.4h0.6c0.2,0,0.4,0.2,0.4,0.4v4.5    C337.8,293,337.6,293.2,337.3,293.2z"
   id="path30947" />
		<path
   class="st12"
   d="M343.2,293.2h-0.6c-0.2,0-0.4-0.2-0.4-0.4v-4.5c0-0.2,0.2-0.4,0.4-0.4h0.6c0.2,0,0.4,0.2,0.4,0.4v4.5    C343.6,293,343.4,293.2,343.2,293.2z"
   id="path30949" />
		<path
   class="st12"
   d="M346.1,292.3h-0.6c-0.2,0-0.4-0.2-0.4-0.4v-3.7c0-0.2,0.2-0.4,0.4-0.4h0.6c0.2,0,0.4,0.2,0.4,0.4v3.7    C346.5,292.1,346.3,292.3,346.1,292.3z"
   id="path30951" />
		<path
   class="st12"
   d="M340.3,292.3h-0.6c-0.2,0-0.4-0.2-0.4-0.4v-3.7c0-0.2,0.2-0.4,0.4-0.4h0.6c0.2,0,0.4,0.2,0.4,0.4v3.7    C340.7,292.1,340.5,292.3,340.3,292.3z"
   id="path30953" />
		<g
   id="g30957">
			<path
   class="st22"
   d="M347.5,311.8h-14.9c-0.9,0-1.8-0.4-2.4-1.1c-0.6-0.7-1-1.6-0.9-2.5l1.3-17.9c0.1-1.7,1.6-3.1,3.3-3.1h12.3     c1.7,0,3.2,1.4,3.3,3.1l1.3,17.9c0.1,0.9-0.3,1.8-0.9,2.5C349.3,311.5,348.5,311.8,347.5,311.8z"
   id="path30955" />
		</g>
	</g>
	<path
   id="line30961"
   class="st23"
   style="fill:none;stroke:#ffffff;stroke-width:0.9583;stroke-linecap:round;stroke-miterlimit:10"
   d="m 331.5,306.60001 h 17.20001" />
</g>
<g
   id="g30987">
	<g
   id="g30983">
		<g
   id="g30967">
			<path
   class="st11"
   d="M388,311.8h-14.9c-0.9,0-1.8-0.4-2.4-1.1c-0.6-0.7-1-1.6-0.9-2.5l1.3-17.9c0.1-1.7,1.6-3.1,3.3-3.1h12.3     c1.7,0,3.2,1.4,3.3,3.1l1.3,17.9c0.1,0.9-0.3,1.8-0.9,2.5C389.8,311.5,388.9,311.8,388,311.8z"
   id="path30965" />
		</g>
		<path
   class="st12"
   d="M374.9,292.3h-0.6c-0.2,0-0.4-0.2-0.4-0.4v-3.7c0-0.2,0.2-0.4,0.4-0.4h0.6c0.2,0,0.4,0.2,0.4,0.4v3.7    C375.3,292.1,375.1,292.3,374.9,292.3z"
   id="path30969" />
		<path
   class="st12"
   d="M377.8,293.2h-0.6c-0.2,0-0.4-0.2-0.4-0.4v-4.5c0-0.2,0.2-0.4,0.4-0.4h0.6c0.2,0,0.4,0.2,0.4,0.4v4.5    C378.2,293,378.1,293.2,377.8,293.2z"
   id="path30971" />
		<path
   class="st12"
   d="M383.6,293.2h-0.6c-0.2,0-0.4-0.2-0.4-0.4v-4.5c0-0.2,0.2-0.4,0.4-0.4h0.6c0.2,0,0.4,0.2,0.4,0.4v4.5    C384.1,293,383.9,293.2,383.6,293.2z"
   id="path30973" />
		<path
   class="st12"
   d="M386.6,292.3H386c-0.2,0-0.4-0.2-0.4-0.4v-3.7c0-0.2,0.2-0.4,0.4-0.4h0.6c0.2,0,0.4,0.2,0.4,0.4v3.7    C387,292.1,386.8,292.3,386.6,292.3z"
   id="path30975" />
		<path
   class="st12"
   d="M380.7,292.3h-0.6c-0.2,0-0.4-0.2-0.4-0.4v-3.7c0-0.2,0.2-0.4,0.4-0.4h0.6c0.2,0,0.4,0.2,0.4,0.4v3.7    C381.2,292.1,381,292.3,380.7,292.3z"
   id="path30977" />
		<g
   id="g30981">
			<path
   class="st22"
   d="M388,311.8h-14.9c-0.9,0-1.8-0.4-2.4-1.1c-0.6-0.7-1-1.6-0.9-2.5l1.3-17.9c0.1-1.7,1.6-3.1,3.3-3.1h12.3     c1.7,0,3.2,1.4,3.3,3.1l1.3,17.9c0.1,0.9-0.3,1.8-0.9,2.5C389.8,311.5,388.9,311.8,388,311.8z"
   id="path30979" />
		</g>
	</g>
	<path
   id="line30985"
   class="st23"
   style="fill:none;stroke:#ffffff;stroke-width:0.9583;stroke-linecap:round;stroke-miterlimit:10"
   d="m 372,306.60001 h 17.10001" />
</g>
<g
   id="g31011">
	<g
   id="g31007">
		<g
   id="g30991">
			<path
   class="st11"
   d="M429.5,311.8h-14.9c-0.9,0-1.8-0.4-2.4-1.1c-0.6-0.7-1-1.6-0.9-2.5l1.3-17.9c0.1-1.7,1.6-3.1,3.3-3.1h12.3     c1.7,0,3.2,1.4,3.3,3.1l1.3,17.9c0.1,0.9-0.3,1.8-0.9,2.5C431.3,311.5,430.4,311.8,429.5,311.8z"
   id="path30989" />
		</g>
		<path
   class="st12"
   d="M416.4,292.3h-0.6c-0.2,0-0.4-0.2-0.4-0.4v-3.7c0-0.2,0.2-0.4,0.4-0.4h0.6c0.2,0,0.4,0.2,0.4,0.4v3.7    C416.8,292.1,416.6,292.3,416.4,292.3z"
   id="path30993" />
		<path
   class="st12"
   d="M419.3,293.2h-0.6c-0.2,0-0.4-0.2-0.4-0.4v-4.5c0-0.2,0.2-0.4,0.4-0.4h0.6c0.2,0,0.4,0.2,0.4,0.4v4.5    C419.7,293,419.6,293.2,419.3,293.2z"
   id="path30995" />
		<path
   class="st12"
   d="M425.1,293.2h-0.6c-0.2,0-0.4-0.2-0.4-0.4v-4.5c0-0.2,0.2-0.4,0.4-0.4h0.6c0.2,0,0.4,0.2,0.4,0.4v4.5    C425.6,293,425.4,293.2,425.1,293.2z"
   id="path30997" />
		<path
   class="st12"
   d="M428.1,292.3h-0.6c-0.2,0-0.4-0.2-0.4-0.4v-3.7c0-0.2,0.2-0.4,0.4-0.4h0.6c0.2,0,0.4,0.2,0.4,0.4v3.7    C428.5,292.1,428.3,292.3,428.1,292.3z"
   id="path30999" />
		<path
   class="st12"
   d="M422.2,292.3h-0.6c-0.2,0-0.4-0.2-0.4-0.4v-3.7c0-0.2,0.2-0.4,0.4-0.4h0.6c0.2,0,0.4,0.2,0.4,0.4v3.7    C422.7,292.1,422.5,292.3,422.2,292.3z"
   id="path31001" />
		<g
   id="g31005">
			<path
   class="st22"
   d="M429.5,311.8h-14.9c-0.9,0-1.8-0.4-2.4-1.1c-0.6-0.7-1-1.6-0.9-2.5l1.3-17.9c0.1-1.7,1.6-3.1,3.3-3.1h12.3     c1.7,0,3.2,1.4,3.3,3.1l1.3,17.9c0.1,0.9-0.3,1.8-0.9,2.5C431.3,311.5,430.4,311.8,429.5,311.8z"
   id="path31003" />
		</g>
	</g>
	<path
   id="line31009"
   class="st23"
   style="fill:none;stroke:#ffffff;stroke-width:0.9583;stroke-linecap:round;stroke-miterlimit:10"
   d="m 413.5,306.60001 h 17.10001" />
</g>
<g
   id="g31035">
	<g
   id="g31031">
		<g
   id="g31015">
			<path
   class="st11"
   d="M470.5,311.8h-14.9c-0.9,0-1.8-0.4-2.4-1.1c-0.6-0.7-1-1.6-0.9-2.5l1.3-17.9c0.1-1.7,1.6-3.1,3.3-3.1h12.3     c1.7,0,3.2,1.4,3.3,3.1l1.3,17.9c0.1,0.9-0.3,1.8-0.9,2.5C472.4,311.5,471.5,311.8,470.5,311.8z"
   id="path31013" />
		</g>
		<path
   class="st12"
   d="M457.4,292.3h-0.6c-0.2,0-0.4-0.2-0.4-0.4v-3.7c0-0.2,0.2-0.4,0.4-0.4h0.6c0.2,0,0.4,0.2,0.4,0.4v3.7    C457.9,292.1,457.7,292.3,457.4,292.3z"
   id="path31017" />
		<path
   class="st12"
   d="M460.4,293.2h-0.6c-0.2,0-0.4-0.2-0.4-0.4v-4.5c0-0.2,0.2-0.4,0.4-0.4h0.6c0.2,0,0.4,0.2,0.4,0.4v4.5    C460.8,293,460.6,293.2,460.4,293.2z"
   id="path31019" />
		<path
   class="st12"
   d="M466.2,293.2h-0.6c-0.2,0-0.4-0.2-0.4-0.4v-4.5c0-0.2,0.2-0.4,0.4-0.4h0.6c0.2,0,0.4,0.2,0.4,0.4v4.5    C466.6,293,466.4,293.2,466.2,293.2z"
   id="path31021" />
		<path
   class="st12"
   d="M469.1,292.3h-0.6c-0.2,0-0.4-0.2-0.4-0.4v-3.7c0-0.2,0.2-0.4,0.4-0.4h0.6c0.2,0,0.4,0.2,0.4,0.4v3.7    C469.5,292.1,469.3,292.3,469.1,292.3z"
   id="path31023" />
		<path
   class="st12"
   d="M463.3,292.3h-0.6c-0.2,0-0.4-0.2-0.4-0.4v-3.7c0-0.2,0.2-0.4,0.4-0.4h0.6c0.2,0,0.4,0.2,0.4,0.4v3.7    C463.7,292.1,463.5,292.3,463.3,292.3z"
   id="path31025" />
		<g
   id="g31029">
			<path
   class="st22"
   d="M470.5,311.8h-14.9c-0.9,0-1.8-0.4-2.4-1.1c-0.6-0.7-1-1.6-0.9-2.5l1.3-17.9c0.1-1.7,1.6-3.1,3.3-3.1h12.3     c1.7,0,3.2,1.4,3.3,3.1l1.3,17.9c0.1,0.9-0.3,1.8-0.9,2.5C472.4,311.5,471.5,311.8,470.5,311.8z"
   id="path31027" />
		</g>
	</g>
	<path
   id="line31033"
   class="st23"
   style="fill:none;stroke:#ffffff;stroke-width:0.9583;stroke-linecap:round;stroke-miterlimit:10"
   d="m 454.5,306.60001 h 17.20001" />
</g>
<g
   id="g31059">
	<g
   id="g31055">
		<g
   id="g31039">
			<path
   class="st11"
   d="M511.1,311.8h-14.9c-0.9,0-1.8-0.4-2.4-1.1c-0.6-0.7-1-1.6-0.9-2.5l1.3-17.9c0.1-1.7,1.6-3.1,3.3-3.1h12.3     c1.7,0,3.2,1.4,3.3,3.1l1.3,17.9c0.1,0.9-0.3,1.8-0.9,2.5C513,311.5,512.1,311.8,511.1,311.8z"
   id="path31037" />
		</g>
		<path
   class="st12"
   d="M498.1,292.3h-0.6c-0.2,0-0.4-0.2-0.4-0.4v-3.7c0-0.2,0.2-0.4,0.4-0.4h0.6c0.2,0,0.4,0.2,0.4,0.4v3.7    C498.5,292.1,498.3,292.3,498.1,292.3z"
   id="path31041" />
		<path
   class="st12"
   d="M501,293.2h-0.6c-0.2,0-0.4-0.2-0.4-0.4v-4.5c0-0.2,0.2-0.4,0.4-0.4h0.6c0.2,0,0.4,0.2,0.4,0.4v4.5    C501.4,293,501.2,293.2,501,293.2z"
   id="path31043" />
		<path
   class="st12"
   d="M506.8,293.2h-0.6c-0.2,0-0.4-0.2-0.4-0.4v-4.5c0-0.2,0.2-0.4,0.4-0.4h0.6c0.2,0,0.4,0.2,0.4,0.4v4.5    C507.2,293,507,293.2,506.8,293.2z"
   id="path31045" />
		<path
   class="st12"
   d="M509.7,292.3h-0.6c-0.2,0-0.4-0.2-0.4-0.4v-3.7c0-0.2,0.2-0.4,0.4-0.4h0.6c0.2,0,0.4,0.2,0.4,0.4v3.7    C510.1,292.1,509.9,292.3,509.7,292.3z"
   id="path31047" />
		<path
   class="st12"
   d="M503.9,292.3h-0.6c-0.2,0-0.4-0.2-0.4-0.4v-3.7c0-0.2,0.2-0.4,0.4-0.4h0.6c0.2,0,0.4,0.2,0.4,0.4v3.7    C504.3,292.1,504.1,292.3,503.9,292.3z"
   id="path31049" />
		<g
   id="g31053">
			<path
   class="st22"
   d="M511.1,311.8h-14.9c-0.9,0-1.8-0.4-2.4-1.1c-0.6-0.7-1-1.6-0.9-2.5l1.3-17.9c0.1-1.7,1.6-3.1,3.3-3.1h12.3     c1.7,0,3.2,1.4,3.3,3.1l1.3,17.9c0.1,0.9-0.3,1.8-0.9,2.5C513,311.5,512.1,311.8,511.1,311.8z"
   id="path31051" />
		</g>
	</g>
	<path
   id="line31057"
   class="st23"
   style="fill:none;stroke:#ffffff;stroke-width:0.9583;stroke-linecap:round;stroke-miterlimit:10"
   d="m 495.10001,306.60001 h 17.19998" />
</g>
<g
   id="g31083">
	<g
   id="g31079">
		<g
   id="g31063">
			<path
   class="st11"
   d="M552.1,311.8h-14.9c-0.9,0-1.8-0.4-2.4-1.1c-0.6-0.7-1-1.6-0.9-2.5l1.3-17.9c0.1-1.7,1.6-3.1,3.3-3.1h12.3     c1.7,0,3.2,1.4,3.3,3.1l1.3,17.9c0.1,0.9-0.3,1.8-0.9,2.5C553.9,311.5,553,311.8,552.1,311.8z"
   id="path31061" />
		</g>
		<path
   class="st12"
   d="M539,292.3h-0.6c-0.2,0-0.4-0.2-0.4-0.4v-3.7c0-0.2,0.2-0.4,0.4-0.4h0.6c0.2,0,0.4,0.2,0.4,0.4v3.7    C539.4,292.1,539.3,292.3,539,292.3z"
   id="path31065" />
		<path
   class="st12"
   d="M541.9,293.2h-0.6c-0.2,0-0.4-0.2-0.4-0.4v-4.5c0-0.2,0.2-0.4,0.4-0.4h0.6c0.2,0,0.4,0.2,0.4,0.4v4.5    C542.4,293,542.2,293.2,541.9,293.2z"
   id="path31067" />
		<path
   class="st12"
   d="M547.8,293.2h-0.6c-0.2,0-0.4-0.2-0.4-0.4v-4.5c0-0.2,0.2-0.4,0.4-0.4h0.6c0.2,0,0.4,0.2,0.4,0.4v4.5    C548.2,293,548,293.2,547.8,293.2z"
   id="path31069" />
		<path
   class="st12"
   d="M550.7,292.3h-0.6c-0.2,0-0.4-0.2-0.4-0.4v-3.7c0-0.2,0.2-0.4,0.4-0.4h0.6c0.2,0,0.4,0.2,0.4,0.4v3.7    C551.1,292.1,550.9,292.3,550.7,292.3z"
   id="path31071" />
		<path
   class="st12"
   d="M544.8,292.3h-0.6c-0.2,0-0.4-0.2-0.4-0.4v-3.7c0-0.2,0.2-0.4,0.4-0.4h0.6c0.2,0,0.4,0.2,0.4,0.4v3.7    C545.3,292.1,545.1,292.3,544.8,292.3z"
   id="path31073" />
		<g
   id="g31077">
			<path
   class="st22"
   d="M552.1,311.8h-14.9c-0.9,0-1.8-0.4-2.4-1.1c-0.6-0.7-1-1.6-0.9-2.5l1.3-17.9c0.1-1.7,1.6-3.1,3.3-3.1h12.3     c1.7,0,3.2,1.4,3.3,3.1l1.3,17.9c0.1,0.9-0.3,1.8-0.9,2.5C553.9,311.5,553,311.8,552.1,311.8z"
   id="path31075" />
		</g>
	</g>
	<path
   id="line31081"
   class="st23"
   style="fill:none;stroke:#ffffff;stroke-width:0.9583;stroke-linecap:round;stroke-miterlimit:10"
   d="m 536.09998,306.60001 h 17.10003" />
</g>
<g
   id="g31107">
	<g
   id="g31103">
		<g
   id="g31087">
			<path
   class="st11"
   d="M595,311.8h-14.9c-0.9,0-1.8-0.4-2.4-1.1c-0.6-0.7-1-1.6-0.9-2.5l1.3-17.9c0.1-1.7,1.6-3.1,3.3-3.1h12.3     c1.7,0,3.2,1.4,3.3,3.1l1.3,17.9c0.1,0.9-0.3,1.8-0.9,2.5C596.8,311.5,595.9,311.8,595,311.8z"
   id="path31085" />
		</g>
		<path
   class="st12"
   d="M581.9,292.3h-0.6c-0.2,0-0.4-0.2-0.4-0.4v-3.7c0-0.2,0.2-0.4,0.4-0.4h0.6c0.2,0,0.4,0.2,0.4,0.4v3.7    C582.4,292.1,582.2,292.3,581.9,292.3z"
   id="path31089" />
		<path
   class="st12"
   d="M584.8,293.2h-0.6c-0.2,0-0.4-0.2-0.4-0.4v-4.5c0-0.2,0.2-0.4,0.4-0.4h0.6c0.2,0,0.4,0.2,0.4,0.4v4.5    C585.3,293,585.1,293.2,584.8,293.2z"
   id="path31091" />
		<path
   class="st12"
   d="M590.7,293.2h-0.6c-0.2,0-0.4-0.2-0.4-0.4v-4.5c0-0.2,0.2-0.4,0.4-0.4h0.6c0.2,0,0.4,0.2,0.4,0.4v4.5    C591.1,293,590.9,293.2,590.7,293.2z"
   id="path31093" />
		<path
   class="st12"
   d="M593.6,292.3H593c-0.2,0-0.4-0.2-0.4-0.4v-3.7c0-0.2,0.2-0.4,0.4-0.4h0.6c0.2,0,0.4,0.2,0.4,0.4v3.7    C594,292.1,593.8,292.3,593.6,292.3z"
   id="path31095" />
		<path
   class="st12"
   d="M587.8,292.3h-0.6c-0.2,0-0.4-0.2-0.4-0.4v-3.7c0-0.2,0.2-0.4,0.4-0.4h0.6c0.2,0,0.4,0.2,0.4,0.4v3.7    C588.2,292.1,588,292.3,587.8,292.3z"
   id="path31097" />
		<g
   id="g31101">
			<path
   class="st22"
   d="M595,311.8h-14.9c-0.9,0-1.8-0.4-2.4-1.1c-0.6-0.7-1-1.6-0.9-2.5l1.3-17.9c0.1-1.7,1.6-3.1,3.3-3.1h12.3     c1.7,0,3.2,1.4,3.3,3.1l1.3,17.9c0.1,0.9-0.3,1.8-0.9,2.5C596.8,311.5,595.9,311.8,595,311.8z"
   id="path31099" />
		</g>
	</g>
	<path
   id="line31105"
   class="st23"
   style="fill:none;stroke:#ffffff;stroke-width:0.9583;stroke-linecap:round;stroke-miterlimit:10"
   d="m 579,306.60001 h 17.20001" />
</g>
<g
   id="g31131">
	<g
   id="g31127">
		<g
   id="g31111">
			<path
   class="st11"
   d="M636,311.8h-14.9c-0.9,0-1.8-0.4-2.4-1.1c-0.6-0.7-1-1.6-0.9-2.5l1.3-17.9c0.1-1.7,1.6-3.1,3.3-3.1h12.3     c1.7,0,3.2,1.4,3.3,3.1l1.3,17.9c0.1,0.9-0.3,1.8-0.9,2.5C637.8,311.5,636.9,311.8,636,311.8z"
   id="path31109" />
		</g>
		<path
   class="st12"
   d="M622.9,292.3h-0.6c-0.2,0-0.4-0.2-0.4-0.4v-3.7c0-0.2,0.2-0.4,0.4-0.4h0.6c0.2,0,0.4,0.2,0.4,0.4v3.7    C623.3,292.1,623.1,292.3,622.9,292.3z"
   id="path31113" />
		<path
   class="st12"
   d="M625.8,293.2h-0.6c-0.2,0-0.4-0.2-0.4-0.4v-4.5c0-0.2,0.2-0.4,0.4-0.4h0.6c0.2,0,0.4,0.2,0.4,0.4v4.5    C626.2,293,626,293.2,625.8,293.2z"
   id="path31115" />
		<path
   class="st12"
   d="M631.6,293.2h-0.6c-0.2,0-0.4-0.2-0.4-0.4v-4.5c0-0.2,0.2-0.4,0.4-0.4h0.6c0.2,0,0.4,0.2,0.4,0.4v4.5    C632.1,293,631.9,293.2,631.6,293.2z"
   id="path31117" />
		<path
   class="st12"
   d="M634.5,292.3H634c-0.2,0-0.4-0.2-0.4-0.4v-3.7c0-0.2,0.2-0.4,0.4-0.4h0.6c0.2,0,0.4,0.2,0.4,0.4v3.7    C635,292.1,634.8,292.3,634.5,292.3z"
   id="path31119" />
		<path
   class="st12"
   d="M628.7,292.3h-0.6c-0.2,0-0.4-0.2-0.4-0.4v-3.7c0-0.2,0.2-0.4,0.4-0.4h0.6c0.2,0,0.4,0.2,0.4,0.4v3.7    C629.1,292.1,629,292.3,628.7,292.3z"
   id="path31121" />
		<g
   id="g31125">
			<path
   class="st22"
   d="M636,311.8h-14.9c-0.9,0-1.8-0.4-2.4-1.1c-0.6-0.7-1-1.6-0.9-2.5l1.3-17.9c0.1-1.7,1.6-3.1,3.3-3.1h12.3     c1.7,0,3.2,1.4,3.3,3.1l1.3,17.9c0.1,0.9-0.3,1.8-0.9,2.5C637.8,311.5,636.9,311.8,636,311.8z"
   id="path31123" />
		</g>
	</g>
	<path
   id="line31129"
   class="st23"
   style="fill:none;stroke:#ffffff;stroke-width:0.9583;stroke-linecap:round;stroke-miterlimit:10"
   d="m 620,306.60001 h 17.09998" />
</g>
<path
   id="polygon31133"
   class="st2"
   style="fill:#1b1717"
   d="m 325.2,44 -2.5,-4.3 -2.6,4.3 h 1.8 v 51.8 h 1.5 V 44 Z" />
<g
   id="g31143">
	<path
   class="st8"
   d="M102.8,356.4H87.8c-1.8,0-3.3-1.5-3.3-3.3v-18.6c0-1.8,1.5-3.3,3.3-3.3h15.1c1.8,0,3.3,1.5,3.3,3.3v18.6   C106.1,355,104.6,356.4,102.8,356.4z"
   id="path31135" />
	<g
   id="g31141">
		<g
   id="g31139">
			<path
   class="st12"
   d="M94.9,346.6h-2.3v-7.1h2.4c0.7,0,1.3,0.1,1.8,0.4c0.5,0.3,0.9,0.7,1.1,1.2c0.3,0.5,0.4,1.2,0.4,1.9     c0,0.7-0.1,1.4-0.4,1.9c-0.3,0.5-0.7,0.9-1.2,1.2S95.6,346.6,94.9,346.6z M93.6,345.6h1.2c0.5,0,1-0.1,1.3-0.3     c0.4-0.2,0.6-0.5,0.8-0.9c0.2-0.4,0.3-0.9,0.3-1.4c0-0.6-0.1-1-0.3-1.4c-0.2-0.4-0.4-0.7-0.8-0.9s-0.8-0.3-1.3-0.3h-1.2V345.6z"
   id="path31137" />
		</g>
	</g>
</g>
<g
   id="g31153">
	<path
   class="st8"
   d="M144,356.4h-15.1c-1.8,0-3.3-1.5-3.3-3.3v-18.6c0-1.8,1.5-3.3,3.3-3.3H144c1.8,0,3.3,1.5,3.3,3.3v18.6   C147.2,355,145.8,356.4,144,356.4z"
   id="path31145" />
	<g
   id="g31151">
		<g
   id="g31149">
			<path
   class="st12"
   d="M136,346.6h-2.3v-7.1h2.4c0.7,0,1.3,0.1,1.8,0.4c0.5,0.3,0.9,0.7,1.1,1.2c0.3,0.5,0.4,1.2,0.4,1.9     c0,0.7-0.1,1.4-0.4,1.9c-0.3,0.5-0.7,0.9-1.2,1.2S136.7,346.6,136,346.6z M134.8,345.6h1.2c0.5,0,1-0.1,1.3-0.3     c0.4-0.2,0.6-0.5,0.8-0.9c0.2-0.4,0.3-0.9,0.3-1.4c0-0.6-0.1-1-0.3-1.4c-0.2-0.4-0.4-0.7-0.8-0.9s-0.8-0.3-1.3-0.3h-1.2V345.6z"
   id="path31147" />
		</g>
	</g>
</g>
<g
   id="g31163">
	<path
   class="st8"
   d="M185.7,356.4h-15.1c-1.8,0-3.3-1.5-3.3-3.3v-18.6c0-1.8,1.5-3.3,3.3-3.3h15.1c1.8,0,3.3,1.5,3.3,3.3v18.6   C189,355,187.5,356.4,185.7,356.4z"
   id="path31155" />
	<g
   id="g31161">
		<g
   id="g31159">
			<path
   class="st12"
   d="M177.8,346.6h-2.3v-7.1h2.4c0.7,0,1.3,0.1,1.8,0.4c0.5,0.3,0.9,0.7,1.1,1.2c0.3,0.5,0.4,1.2,0.4,1.9     c0,0.7-0.1,1.4-0.4,1.9c-0.3,0.5-0.7,0.9-1.2,1.2S178.5,346.6,177.8,346.6z M176.5,345.6h1.2c0.5,0,1-0.1,1.3-0.3     c0.4-0.2,0.6-0.5,0.8-0.9c0.2-0.4,0.3-0.9,0.3-1.4c0-0.6-0.1-1-0.3-1.4c-0.2-0.4-0.4-0.7-0.8-0.9s-0.8-0.3-1.3-0.3h-1.2V345.6z"
   id="path31157" />
		</g>
	</g>
</g>
<g
   id="g31173">
	<path
   class="st8"
   d="M226.2,356.4h-15.1c-1.8,0-3.3-1.5-3.3-3.3v-18.6c0-1.8,1.5-3.3,3.3-3.3h15.1c1.8,0,3.3,1.5,3.3,3.3v18.6   C229.5,355,228,356.4,226.2,356.4z"
   id="path31165" />
	<g
   id="g31171">
		<g
   id="g31169">
			<path
   class="st12"
   d="M218.2,346.6h-2.3v-7.1h2.4c0.7,0,1.3,0.1,1.8,0.4c0.5,0.3,0.9,0.7,1.1,1.2c0.3,0.5,0.4,1.2,0.4,1.9     c0,0.7-0.1,1.4-0.4,1.9c-0.3,0.5-0.7,0.9-1.2,1.2S219,346.6,218.2,346.6z M217,345.6h1.2c0.5,0,1-0.1,1.3-0.3     c0.4-0.2,0.6-0.5,0.8-0.9c0.2-0.4,0.3-0.9,0.3-1.4c0-0.6-0.1-1-0.3-1.4c-0.2-0.4-0.4-0.7-0.8-0.9s-0.8-0.3-1.3-0.3H217V345.6z"
   id="path31167" />
		</g>
	</g>
</g>
<g
   id="g31183">
	<path
   class="st8"
   d="M266.7,356.4h-15.1c-1.8,0-3.3-1.5-3.3-3.3v-18.6c0-1.8,1.5-3.3,3.3-3.3h15.1c1.8,0,3.3,1.5,3.3,3.3v18.6   C269.9,355,268.5,356.4,266.7,356.4z"
   id="path31175" />
	<g
   id="g31181">
		<g
   id="g31179">
			<path
   class="st12"
   d="M258.7,346.6h-2.3v-7.1h2.4c0.7,0,1.3,0.1,1.8,0.4c0.5,0.3,0.9,0.7,1.1,1.2c0.3,0.5,0.4,1.2,0.4,1.9     c0,0.7-0.1,1.4-0.4,1.9c-0.3,0.5-0.7,0.9-1.2,1.2S259.4,346.6,258.7,346.6z M257.5,345.6h1.2c0.5,0,1-0.1,1.3-0.3     c0.4-0.2,0.6-0.5,0.8-0.9c0.2-0.4,0.3-0.9,0.3-1.4c0-0.6-0.1-1-0.3-1.4c-0.2-0.4-0.4-0.7-0.8-0.9s-0.8-0.3-1.3-0.3h-1.2V345.6z"
   id="path31177" />
		</g>
	</g>
</g>
<g
   id="g31193">
	<path
   class="st8"
   d="M307.1,356.4h-15.1c-1.8,0-3.3-1.5-3.3-3.3v-18.6c0-1.8,1.5-3.3,3.3-3.3h15.1c1.8,0,3.3,1.5,3.3,3.3v18.6   C310.4,355,308.9,356.4,307.1,356.4z"
   id="path31185" />
	<g
   id="g31191">
		<g
   id="g31189">
			<path
   class="st12"
   d="M299.2,346.6h-2.3v-7.1h2.4c0.7,0,1.3,0.1,1.8,0.4s0.9,0.7,1.1,1.2c0.3,0.5,0.4,1.2,0.4,1.9     c0,0.7-0.1,1.4-0.4,1.9c-0.3,0.5-0.7,0.9-1.2,1.2S299.9,346.6,299.2,346.6z M297.9,345.6h1.2c0.5,0,1-0.1,1.3-0.3     c0.4-0.2,0.6-0.5,0.8-0.9c0.2-0.4,0.3-0.9,0.3-1.4c0-0.6-0.1-1-0.3-1.4c-0.2-0.4-0.4-0.7-0.8-0.9s-0.8-0.3-1.3-0.3h-1.2V345.6z"
   id="path31187" />
		</g>
	</g>
</g>
<g
   id="g31203">
	<path
   class="st8"
   d="M347.6,356.4h-15.1c-1.8,0-3.3-1.5-3.3-3.3v-18.6c0-1.8,1.5-3.3,3.3-3.3h15.1c1.8,0,3.3,1.5,3.3,3.3v18.6   C350.9,355,349.4,356.4,347.6,356.4z"
   id="path31195" />
	<g
   id="g31201">
		<g
   id="g31199">
			<path
   class="st12"
   d="M339.6,346.6h-2.3v-7.1h2.4c0.7,0,1.3,0.1,1.8,0.4s0.9,0.7,1.1,1.2c0.3,0.5,0.4,1.2,0.4,1.9     c0,0.7-0.1,1.4-0.4,1.9c-0.3,0.5-0.7,0.9-1.2,1.2S340.4,346.6,339.6,346.6z M338.4,345.6h1.2c0.5,0,1-0.1,1.3-0.3     c0.4-0.2,0.6-0.5,0.8-0.9c0.2-0.4,0.3-0.9,0.3-1.4c0-0.6-0.1-1-0.3-1.4c-0.2-0.4-0.4-0.7-0.8-0.9s-0.8-0.3-1.3-0.3h-1.2V345.6z"
   id="path31197" />
		</g>
	</g>
</g>
<g
   id="g31213">
	<path
   class="st8"
   d="M388.1,356.4H373c-1.8,0-3.3-1.5-3.3-3.3v-18.6c0-1.8,1.5-3.3,3.3-3.3h15.1c1.8,0,3.3,1.5,3.3,3.3v18.6   C391.3,355,389.9,356.4,388.1,356.4z"
   id="path31205" />
	<g
   id="g31211">
		<g
   id="g31209">
			<path
   class="st12"
   d="M380.1,346.6h-2.3v-7.1h2.4c0.7,0,1.3,0.1,1.8,0.4s0.9,0.7,1.1,1.2c0.3,0.5,0.4,1.2,0.4,1.9     c0,0.7-0.1,1.4-0.4,1.9c-0.3,0.5-0.7,0.9-1.2,1.2S380.8,346.6,380.1,346.6z M378.9,345.6h1.2c0.5,0,1-0.1,1.3-0.3     c0.4-0.2,0.6-0.5,0.8-0.9c0.2-0.4,0.3-0.9,0.3-1.4c0-0.6-0.1-1-0.3-1.4c-0.2-0.4-0.4-0.7-0.8-0.9s-0.8-0.3-1.3-0.3h-1.2V345.6z"
   id="path31207" />
		</g>
	</g>
</g>
<g
   id="g31225">
	<path
   class="st7"
   d="M513.6,358.7h-19c-1.8,0-3.3-1.5-3.3-3.3v-23.2c0-1.8,1.5-3.3,3.3-3.3h19c1.8,0,3.3,1.5,3.3,3.3v23.2   C516.9,357.3,515.4,358.7,513.6,358.7z"
   id="path31215" />
	<path
   class="st11"
   d="M511.7,356.4h-15.1c-1.8,0-3.3-1.5-3.3-3.3v-18.6c0-1.8,1.5-3.3,3.3-3.3h15.1c1.8,0,3.3,1.5,3.3,3.3v18.6   C514.9,355,513.5,356.4,511.7,356.4z"
   id="path31217" />
	<g
   id="g31223">
		<g
   id="g31221">
			<path
   class="st12"
   d="M501.8,346.6v-7.1h2.5c0.6,0,1,0.1,1.4,0.3c0.4,0.2,0.6,0.5,0.8,0.8c0.2,0.3,0.3,0.7,0.3,1.2     c0,0.4-0.1,0.8-0.3,1.2c-0.2,0.3-0.5,0.6-0.8,0.8c-0.4,0.2-0.8,0.3-1.4,0.3h-1.7v-0.9h1.6c0.3,0,0.6-0.1,0.8-0.2s0.4-0.3,0.5-0.5     c0.1-0.2,0.2-0.4,0.2-0.7c0-0.3-0.1-0.5-0.2-0.7c-0.1-0.2-0.3-0.4-0.5-0.5c-0.2-0.1-0.5-0.2-0.9-0.2h-1.3v6.2H501.8z"
   id="path31219" />
		</g>
	</g>
</g>
<g
   id="g31237">
	<path
   class="st7"
   d="M554.7,358.7h-19c-1.8,0-3.3-1.5-3.3-3.3v-23.2c0-1.8,1.5-3.3,3.3-3.3h19c1.8,0,3.3,1.5,3.3,3.3v23.2   C557.9,357.3,556.5,358.7,554.7,358.7z"
   id="path31227" />
	<path
   class="st11"
   d="M552.7,356.4h-15.1c-1.8,0-3.3-1.5-3.3-3.3v-18.6c0-1.8,1.5-3.3,3.3-3.3h15.1c1.8,0,3.3,1.5,3.3,3.3v18.6   C556,355,554.5,356.4,552.7,356.4z"
   id="path31229" />
	<g
   id="g31235">
		<g
   id="g31233">
			<path
   class="st12"
   d="M542.8,346.6v-7.1h2.5c0.6,0,1,0.1,1.4,0.3s0.6,0.5,0.8,0.8c0.2,0.3,0.3,0.7,0.3,1.2c0,0.4-0.1,0.8-0.3,1.2     c-0.2,0.3-0.5,0.6-0.8,0.8c-0.4,0.2-0.8,0.3-1.4,0.3h-1.7v-0.9h1.6c0.3,0,0.6-0.1,0.8-0.2s0.4-0.3,0.5-0.5     c0.1-0.2,0.2-0.4,0.2-0.7c0-0.3-0.1-0.5-0.2-0.7c-0.1-0.2-0.3-0.4-0.5-0.5s-0.5-0.2-0.9-0.2h-1.3v6.2H542.8z"
   id="path31231" />
		</g>
	</g>
</g>
<g
   id="g31249">
	<path
   class="st7"
   d="M595.7,358.7h-19c-1.8,0-3.3-1.5-3.3-3.3v-23.2c0-1.8,1.5-3.3,3.3-3.3h19c1.8,0,3.3,1.5,3.3,3.3v23.2   C599,357.3,597.5,358.7,595.7,358.7z"
   id="path31239" />
	<path
   class="st11"
   d="M593.8,356.4h-15.1c-1.8,0-3.3-1.5-3.3-3.3v-18.6c0-1.8,1.5-3.3,3.3-3.3h15.1c1.8,0,3.3,1.5,3.3,3.3v18.6   C597,355,595.5,356.4,593.8,356.4z"
   id="path31241" />
	<g
   id="g31247">
		<g
   id="g31245">
			<path
   class="st12"
   d="M583.9,346.6v-7.1h2.5c0.6,0,1,0.1,1.4,0.3s0.6,0.5,0.8,0.8c0.2,0.3,0.3,0.7,0.3,1.2c0,0.4-0.1,0.8-0.3,1.2     c-0.2,0.3-0.5,0.6-0.8,0.8c-0.4,0.2-0.8,0.3-1.4,0.3h-1.7v-0.9h1.6c0.3,0,0.6-0.1,0.8-0.2s0.4-0.3,0.5-0.5     c0.1-0.2,0.2-0.4,0.2-0.7c0-0.3-0.1-0.5-0.2-0.7c-0.1-0.2-0.3-0.4-0.5-0.5s-0.5-0.2-0.9-0.2H585v6.2H583.9z"
   id="path31243" />
		</g>
	</g>
</g>
<g
   id="g31261">
	<path
   class="st7"
   d="M638.8,358.7h-19c-1.8,0-3.3-1.5-3.3-3.3v-23.2c0-1.8,1.5-3.3,3.3-3.3h19c1.8,0,3.3,1.5,3.3,3.3v23.2   C642,357.3,640.6,358.7,638.8,358.7z"
   id="path31251" />
	<path
   class="st11"
   d="M636.8,356.4h-15.1c-1.8,0-3.3-1.5-3.3-3.3v-18.6c0-1.8,1.5-3.3,3.3-3.3h15.1c1.8,0,3.3,1.5,3.3,3.3v18.6   C640.1,355,638.6,356.4,636.8,356.4z"
   id="path31253" />
	<g
   id="g31259">
		<g
   id="g31257">
			<path
   class="st12"
   d="M626.9,346.6v-7.1h2.5c0.6,0,1,0.1,1.4,0.3c0.4,0.2,0.6,0.5,0.8,0.8c0.2,0.3,0.3,0.7,0.3,1.2     c0,0.4-0.1,0.8-0.3,1.2c-0.2,0.3-0.5,0.6-0.8,0.8c-0.4,0.2-0.8,0.3-1.4,0.3h-1.7v-0.9h1.6c0.3,0,0.6-0.1,0.8-0.2s0.4-0.3,0.5-0.5     c0.1-0.2,0.2-0.4,0.2-0.7c0-0.3-0.1-0.5-0.2-0.7c-0.1-0.2-0.3-0.4-0.5-0.5c-0.2-0.1-0.5-0.2-0.9-0.2H628v6.2H626.9z"
   id="path31255" />
		</g>
	</g>
</g>
<g
   id="g31271">
	<path
   class="st11"
   d="M552.7,356.4h-15.1c-1.8,0-3.3-1.5-3.3-3.3v-18.6c0-1.8,1.5-3.3,3.3-3.3h15.1c1.8,0,3.3,1.5,3.3,3.3v18.6   C556,355,554.5,356.4,552.7,356.4z"
   id="path31263" />
	<g
   id="g31269">
		<g
   id="g31267">
			<path
   class="st12"
   d="M542.8,346.6v-7.1h2.5c0.6,0,1,0.1,1.4,0.3s0.6,0.5,0.8,0.8c0.2,0.3,0.3,0.7,0.3,1.2c0,0.4-0.1,0.8-0.3,1.2     c-0.2,0.3-0.5,0.6-0.8,0.8c-0.4,0.2-0.8,0.3-1.4,0.3h-1.7v-0.9h1.6c0.3,0,0.6-0.1,0.8-0.2s0.4-0.3,0.5-0.5     c0.1-0.2,0.2-0.4,0.2-0.7c0-0.3-0.1-0.5-0.2-0.7c-0.1-0.2-0.3-0.4-0.5-0.5s-0.5-0.2-0.9-0.2h-1.3v6.2H542.8z"
   id="path31265" />
		</g>
	</g>
</g>
<g
   id="g31283">
	<path
   class="st7"
   d="M432.4,358.7h-19c-1.8,0-3.3-1.5-3.3-3.3v-23.2c0-1.8,1.5-3.3,3.3-3.3h19c1.8,0,3.3,1.5,3.3,3.3v23.2   C435.6,357.3,434.2,358.7,432.4,358.7z"
   id="path31273" />
	<path
   class="st11"
   d="M430.4,356.4h-15.1c-1.8,0-3.3-1.5-3.3-3.3v-18.6c0-1.8,1.5-3.3,3.3-3.3h15.1c1.8,0,3.3,1.5,3.3,3.3v18.6   C433.7,355,432.2,356.4,430.4,356.4z"
   id="path31275" />
	<g
   id="g31281">
		<g
   id="g31279">
			<path
   class="st12"
   d="M420.5,346.6v-7.1h2.5c0.6,0,1,0.1,1.4,0.3s0.6,0.5,0.8,0.8c0.2,0.3,0.3,0.7,0.3,1.2c0,0.4-0.1,0.8-0.3,1.2     c-0.2,0.3-0.5,0.6-0.8,0.8c-0.4,0.2-0.8,0.3-1.4,0.3h-1.7v-0.9h1.6c0.3,0,0.6-0.1,0.8-0.2s0.4-0.3,0.5-0.5     c0.1-0.2,0.2-0.4,0.2-0.7c0-0.3-0.1-0.5-0.2-0.7c-0.1-0.2-0.3-0.4-0.5-0.5s-0.5-0.2-0.9-0.2h-1.3v6.2H420.5z"
   id="path31277" />
		</g>
	</g>
</g>
<g
   id="g31295">
	<path
   class="st7"
   d="M473.4,358.7h-19c-1.8,0-3.3-1.5-3.3-3.3v-23.2c0-1.8,1.5-3.3,3.3-3.3h19c1.8,0,3.3,1.5,3.3,3.3v23.2   C476.7,357.3,475.2,358.7,473.4,358.7z"
   id="path31285" />
	<path
   class="st11"
   d="M471.5,356.4h-15.1c-1.8,0-3.3-1.5-3.3-3.3v-18.6c0-1.8,1.5-3.3,3.3-3.3h15.1c1.8,0,3.3,1.5,3.3,3.3v18.6   C474.7,355,473.2,356.4,471.5,356.4z"
   id="path31287" />
	<g
   id="g31293">
		<g
   id="g31291">
			<path
   class="st12"
   d="M461.6,346.6v-7.1h2.5c0.6,0,1,0.1,1.4,0.3c0.4,0.2,0.6,0.5,0.8,0.8c0.2,0.3,0.3,0.7,0.3,1.2     c0,0.4-0.1,0.8-0.3,1.2c-0.2,0.3-0.5,0.6-0.8,0.8c-0.4,0.2-0.8,0.3-1.4,0.3h-1.7v-0.9h1.6c0.3,0,0.6-0.1,0.8-0.2s0.4-0.3,0.5-0.5     c0.1-0.2,0.2-0.4,0.2-0.7c0-0.3-0.1-0.5-0.2-0.7c-0.1-0.2-0.3-0.4-0.5-0.5c-0.2-0.1-0.5-0.2-0.9-0.2h-1.3v6.2H461.6z"
   id="path31289" />
		</g>
	</g>
</g>
<g
   id="g31305">
	<path
   class="st11"
   d="M471.5,356.4h-15.1c-1.8,0-3.3-1.5-3.3-3.3v-18.6c0-1.8,1.5-3.3,3.3-3.3h15.1c1.8,0,3.3,1.5,3.3,3.3v18.6   C474.7,355,473.2,356.4,471.5,356.4z"
   id="path31297" />
	<g
   id="g31303">
		<g
   id="g31301">
			<path
   class="st12"
   d="M461.6,346.6v-7.1h2.5c0.6,0,1,0.1,1.4,0.3c0.4,0.2,0.6,0.5,0.8,0.8c0.2,0.3,0.3,0.7,0.3,1.2     c0,0.4-0.1,0.8-0.3,1.2c-0.2,0.3-0.5,0.6-0.8,0.8c-0.4,0.2-0.8,0.3-1.4,0.3h-1.7v-0.9h1.6c0.3,0,0.6-0.1,0.8-0.2s0.4-0.3,0.5-0.5     c0.1-0.2,0.2-0.4,0.2-0.7c0-0.3-0.1-0.5-0.2-0.7c-0.1-0.2-0.3-0.4-0.5-0.5c-0.2-0.1-0.5-0.2-0.9-0.2h-1.3v6.2H461.6z"
   id="path31299" />
		</g>
	</g>
</g>
<g
   id="g31315">
	<path
   class="st11"
   d="M594.7,356.4h-15.1c-1.8,0-3.3-1.5-3.3-3.3v-18.6c0-1.8,1.5-3.3,3.3-3.3h15.1c1.8,0,3.3,1.5,3.3,3.3v18.6   C598,355,596.5,356.4,594.7,356.4z"
   id="path31307" />
	<g
   id="g31313">
		<g
   id="g31311">
			<path
   class="st12"
   d="M584.8,346.6v-7.1h2.5c0.6,0,1,0.1,1.4,0.3s0.6,0.5,0.8,0.8c0.2,0.3,0.3,0.7,0.3,1.2c0,0.4-0.1,0.8-0.3,1.2     c-0.2,0.3-0.5,0.6-0.8,0.8c-0.4,0.2-0.8,0.3-1.4,0.3h-1.7v-0.9h1.6c0.3,0,0.6-0.1,0.8-0.2s0.4-0.3,0.5-0.5     c0.1-0.2,0.2-0.4,0.2-0.7c0-0.3-0.1-0.5-0.2-0.7c-0.1-0.2-0.3-0.4-0.5-0.5s-0.5-0.2-0.9-0.2h-1.3v6.2H584.8z"
   id="path31309" />
		</g>
	</g>
</g>
<g
   id="g31325">
	<path
   class="st11"
   d="M636.7,356.4h-15.1c-1.8,0-3.3-1.5-3.3-3.3v-18.6c0-1.8,1.5-3.3,3.3-3.3h15.1c1.8,0,3.3,1.5,3.3,3.3v18.6   C640,355,638.5,356.4,636.7,356.4z"
   id="path31317" />
	<g
   id="g31323">
		<g
   id="g31321">
			<path
   class="st12"
   d="M626.8,346.6v-7.1h2.5c0.6,0,1,0.1,1.4,0.3c0.4,0.2,0.6,0.5,0.8,0.8c0.2,0.3,0.3,0.7,0.3,1.2     c0,0.4-0.1,0.8-0.3,1.2c-0.2,0.3-0.5,0.6-0.8,0.8c-0.4,0.2-0.8,0.3-1.4,0.3h-1.7v-0.9h1.6c0.3,0,0.6-0.1,0.8-0.2s0.4-0.3,0.5-0.5     c0.1-0.2,0.2-0.4,0.2-0.7c0-0.3-0.1-0.5-0.2-0.7c-0.1-0.2-0.3-0.4-0.5-0.5c-0.2-0.1-0.5-0.2-0.9-0.2h-1.3v6.2H626.8z"
   id="path31319" />
		</g>
	</g>
</g>
<g
   id="g31369">
	<path
   d="M39.2,15.7c0-0.3-0.2-0.5-0.4-0.6c-0.2-0.1-0.5-0.2-0.8-0.2c-0.2,0-0.4,0-0.6,0.1s-0.3,0.2-0.4,0.3   c-0.1,0.1-0.1,0.3-0.1,0.4c0,0.1,0,0.3,0.1,0.4c0.1,0.1,0.2,0.2,0.3,0.3s0.2,0.1,0.3,0.2s0.2,0.1,0.4,0.1l0.6,0.1   c0.2,0,0.4,0.1,0.6,0.2c0.2,0.1,0.4,0.2,0.5,0.3c0.2,0.1,0.3,0.3,0.4,0.5c0.1,0.2,0.2,0.4,0.2,0.7c0,0.3-0.1,0.6-0.3,0.9   c-0.2,0.3-0.4,0.5-0.7,0.6c-0.3,0.1-0.7,0.2-1.2,0.2c-0.4,0-0.8-0.1-1.1-0.2s-0.6-0.3-0.7-0.6c-0.2-0.3-0.3-0.6-0.3-0.9h0.9   c0,0.2,0.1,0.4,0.2,0.5c0.1,0.1,0.3,0.2,0.5,0.3c0.2,0.1,0.4,0.1,0.6,0.1c0.2,0,0.5,0,0.7-0.1c0.2-0.1,0.3-0.2,0.5-0.3   s0.2-0.3,0.2-0.5c0-0.2,0-0.3-0.1-0.4c-0.1-0.1-0.2-0.2-0.4-0.3s-0.4-0.1-0.6-0.2l-0.7-0.2c-0.5-0.1-0.8-0.3-1.1-0.6   c-0.3-0.2-0.4-0.6-0.4-1c0-0.3,0.1-0.6,0.3-0.9c0.2-0.2,0.4-0.4,0.7-0.6s0.7-0.2,1.1-0.2c0.4,0,0.7,0.1,1,0.2s0.5,0.3,0.7,0.6   c0.2,0.2,0.3,0.5,0.3,0.8H39.2z"
   id="path31327" />
	<path
   d="M43.2,15.6v0.7h-2.4v-0.7H43.2z M41.4,14.6h0.8v4.1c0,0.2,0,0.3,0.1,0.4c0,0.1,0.1,0.1,0.2,0.2c0.1,0,0.2,0,0.3,0   c0.1,0,0.1,0,0.2,0c0.1,0,0.1,0,0.1,0l0.2,0.7c0,0-0.1,0-0.2,0.1c-0.1,0-0.2,0-0.3,0c-0.2,0-0.4,0-0.6-0.1   c-0.2-0.1-0.3-0.2-0.5-0.4c-0.1-0.2-0.2-0.4-0.2-0.7V14.6z"
   id="path31329" />
	<path
   d="M45.9,20.1c-0.4,0-0.8-0.1-1.1-0.3c-0.3-0.2-0.5-0.4-0.7-0.8c-0.2-0.3-0.3-0.7-0.3-1.2c0-0.5,0.1-0.8,0.3-1.2   c0.2-0.3,0.4-0.6,0.7-0.8c0.3-0.2,0.7-0.3,1.1-0.3s0.8,0.1,1.1,0.3c0.3,0.2,0.5,0.5,0.7,0.8c0.2,0.3,0.3,0.7,0.3,1.2   c0,0.5-0.1,0.8-0.3,1.2c-0.2,0.3-0.4,0.6-0.7,0.8C46.7,20,46.3,20.1,45.9,20.1z M45.9,19.3c0.3,0,0.5-0.1,0.7-0.2   c0.2-0.1,0.3-0.3,0.4-0.6c0.1-0.2,0.1-0.5,0.1-0.8c0-0.3,0-0.5-0.1-0.8c-0.1-0.2-0.2-0.4-0.4-0.6c-0.2-0.1-0.4-0.2-0.7-0.2   c-0.3,0-0.5,0.1-0.7,0.2s-0.3,0.3-0.4,0.6s-0.1,0.5-0.1,0.8c0,0.3,0,0.5,0.1,0.8s0.2,0.4,0.4,0.6C45.4,19.3,45.6,19.3,45.9,19.3z"
   id="path31331" />
	<path
   d="M48.9,20v-4.4h0.8v0.7h0c0.1-0.2,0.2-0.4,0.4-0.6c0.2-0.1,0.4-0.2,0.7-0.2c0.1,0,0.1,0,0.2,0s0.1,0,0.2,0v0.8   c0,0-0.1,0-0.2,0c-0.1,0-0.2,0-0.3,0c-0.2,0-0.4,0-0.5,0.1c-0.2,0.1-0.3,0.2-0.4,0.3c-0.1,0.1-0.1,0.3-0.1,0.5V20H48.9z"
   id="path31333" />
	<path
   d="M53.2,20.1c-0.3,0-0.5-0.1-0.8-0.2c-0.2-0.1-0.4-0.3-0.5-0.5c-0.1-0.2-0.2-0.4-0.2-0.7c0-0.2,0-0.4,0.1-0.6   s0.2-0.3,0.4-0.4s0.3-0.2,0.5-0.2c0.2,0,0.4-0.1,0.6-0.1c0.3,0,0.5-0.1,0.6-0.1c0.2,0,0.3-0.1,0.4-0.1c0.1,0,0.1-0.1,0.1-0.2v0   c0-0.2-0.1-0.4-0.2-0.6s-0.3-0.2-0.6-0.2c-0.3,0-0.5,0.1-0.7,0.2c-0.2,0.1-0.3,0.3-0.3,0.4l-0.8-0.2c0.1-0.3,0.2-0.5,0.4-0.6   c0.2-0.2,0.4-0.3,0.6-0.4s0.5-0.1,0.8-0.1c0.2,0,0.4,0,0.6,0.1c0.2,0,0.4,0.1,0.6,0.2s0.3,0.3,0.4,0.5s0.2,0.5,0.2,0.8V20h-0.8   v-0.6h0c-0.1,0.1-0.1,0.2-0.2,0.3c-0.1,0.1-0.3,0.2-0.4,0.3C53.6,20,53.4,20.1,53.2,20.1z M53.4,19.4c0.2,0,0.4,0,0.6-0.1   c0.2-0.1,0.3-0.2,0.4-0.4c0.1-0.2,0.1-0.3,0.1-0.5v-0.6c0,0-0.1,0.1-0.2,0.1c-0.1,0-0.2,0-0.3,0.1s-0.2,0-0.3,0c-0.1,0-0.2,0-0.3,0   c-0.2,0-0.3,0.1-0.5,0.1c-0.1,0-0.2,0.1-0.3,0.2c-0.1,0.1-0.1,0.2-0.1,0.4c0,0.2,0.1,0.4,0.2,0.5S53.1,19.4,53.4,19.4z"
   id="path31335" />
	<path
   d="M58.3,21.7c-0.3,0-0.6,0-0.9-0.1c-0.2-0.1-0.5-0.2-0.6-0.4c-0.2-0.1-0.3-0.3-0.4-0.5l0.7-0.3c0.1,0.1,0.1,0.2,0.2,0.3   c0.1,0.1,0.2,0.2,0.4,0.2c0.1,0.1,0.3,0.1,0.6,0.1c0.3,0,0.6-0.1,0.8-0.2c0.2-0.2,0.3-0.4,0.3-0.7v-0.9h-0.1   c-0.1,0.1-0.1,0.2-0.2,0.3s-0.2,0.2-0.4,0.3c-0.2,0.1-0.4,0.1-0.7,0.1c-0.3,0-0.7-0.1-0.9-0.2c-0.3-0.2-0.5-0.4-0.7-0.7   c-0.2-0.3-0.2-0.7-0.2-1.2c0-0.5,0.1-0.9,0.2-1.2c0.2-0.3,0.4-0.6,0.7-0.8c0.3-0.2,0.6-0.3,0.9-0.3c0.3,0,0.5,0,0.7,0.1   c0.2,0.1,0.3,0.2,0.4,0.3c0.1,0.1,0.2,0.2,0.2,0.3h0.1v-0.7h0.8v4.5c0,0.4-0.1,0.7-0.3,0.9s-0.4,0.4-0.7,0.5S58.7,21.7,58.3,21.7z    M58.3,19.2c0.2,0,0.5-0.1,0.6-0.2c0.2-0.1,0.3-0.3,0.4-0.5c0.1-0.2,0.1-0.5,0.1-0.8c0-0.3,0-0.6-0.1-0.8c-0.1-0.2-0.2-0.4-0.4-0.5   s-0.4-0.2-0.6-0.2c-0.3,0-0.5,0.1-0.6,0.2c-0.2,0.1-0.3,0.3-0.4,0.5c-0.1,0.2-0.1,0.5-0.1,0.8c0,0.3,0,0.5,0.1,0.8   c0.1,0.2,0.2,0.4,0.4,0.5C57.8,19.1,58,19.2,58.3,19.2z"
   id="path31337" />
	<path
   d="M63.3,20.1c-0.4,0-0.8-0.1-1.1-0.3s-0.5-0.4-0.7-0.8c-0.2-0.3-0.3-0.7-0.3-1.2c0-0.4,0.1-0.8,0.3-1.2   c0.2-0.3,0.4-0.6,0.7-0.8c0.3-0.2,0.7-0.3,1.1-0.3c0.2,0,0.5,0,0.7,0.1s0.4,0.2,0.6,0.4c0.2,0.2,0.3,0.4,0.4,0.7   c0.1,0.3,0.2,0.6,0.2,1V18h-3.5v-0.6h2.6c0-0.2,0-0.4-0.1-0.6s-0.2-0.3-0.4-0.4c-0.2-0.1-0.4-0.2-0.6-0.2c-0.2,0-0.4,0.1-0.6,0.2   c-0.2,0.1-0.3,0.3-0.4,0.5c-0.1,0.2-0.1,0.4-0.1,0.6V18c0,0.3,0.1,0.5,0.2,0.7c0.1,0.2,0.2,0.4,0.4,0.5c0.2,0.1,0.4,0.2,0.7,0.2   c0.2,0,0.3,0,0.4-0.1c0.1,0,0.2-0.1,0.3-0.2c0.1-0.1,0.2-0.2,0.2-0.3l0.8,0.1c-0.1,0.2-0.2,0.4-0.3,0.6c-0.2,0.2-0.4,0.3-0.6,0.4   C63.9,20,63.6,20.1,63.3,20.1z"
   id="path31339" />
	<path
   d="M68.5,17.6c0-0.7,0.1-1.4,0.3-2c0.2-0.6,0.5-1.2,0.8-1.7h0.8c-0.1,0.2-0.3,0.4-0.4,0.7c-0.1,0.3-0.2,0.6-0.3,0.9   s-0.2,0.7-0.2,1c-0.1,0.3-0.1,0.7-0.1,1c0,0.5,0,0.9,0.1,1.4c0.1,0.5,0.2,0.9,0.4,1.3c0.2,0.4,0.3,0.7,0.5,1h-0.8   c-0.4-0.5-0.6-1.1-0.8-1.7C68.6,18.9,68.5,18.3,68.5,17.6z"
   id="path31341" />
	<path
   d="M71.3,20v-5.8h0.9v2.5h2.9v-2.5H76V20h-0.9v-2.5h-2.9V20H71.3z"
   id="path31343" />
	<path
   d="M79.1,20h-1.9v-5.8h1.9c0.6,0,1.1,0.1,1.5,0.3s0.7,0.6,0.9,1c0.2,0.4,0.3,1,0.3,1.6c0,0.6-0.1,1.1-0.3,1.6   c-0.2,0.4-0.5,0.8-1,1C80.2,19.9,79.7,20,79.1,20z M78.1,19.2h1c0.4,0,0.8-0.1,1.1-0.3s0.5-0.4,0.7-0.7c0.1-0.3,0.2-0.7,0.2-1.2   c0-0.5-0.1-0.8-0.2-1.2c-0.1-0.3-0.4-0.6-0.6-0.7c-0.3-0.2-0.6-0.2-1.1-0.2h-1V19.2z"
   id="path31345" />
	<path
   d="M84.9,20H83v-5.8H85c0.6,0,1.1,0.1,1.5,0.3s0.7,0.6,0.9,1c0.2,0.4,0.3,1,0.3,1.6c0,0.6-0.1,1.1-0.3,1.6   c-0.2,0.4-0.5,0.8-1,1C86,19.9,85.5,20,84.9,20z M83.9,19.2h1c0.4,0,0.8-0.1,1.1-0.3s0.5-0.4,0.7-0.7c0.1-0.3,0.2-0.7,0.2-1.2   c0-0.5-0.1-0.8-0.2-1.2c-0.1-0.3-0.4-0.6-0.6-0.7c-0.3-0.2-0.6-0.2-1.1-0.2h-1V19.2z"
   id="path31347" />
	<path
   d="M89.5,19.2l0,0.3c0,0.2-0.1,0.5-0.1,0.7c-0.1,0.2-0.1,0.5-0.2,0.7c-0.1,0.2-0.1,0.4-0.2,0.5h-0.6c0-0.1,0.1-0.3,0.1-0.5   c0-0.2,0.1-0.4,0.1-0.7c0-0.2,0.1-0.5,0.1-0.8l0-0.3H89.5z"
   id="path31349" />
	<path
   d="M95.9,15.7c0-0.3-0.2-0.5-0.4-0.6c-0.2-0.1-0.5-0.2-0.8-0.2c-0.2,0-0.4,0-0.6,0.1s-0.3,0.2-0.4,0.3   c-0.1,0.1-0.1,0.3-0.1,0.4c0,0.1,0,0.3,0.1,0.4c0.1,0.1,0.2,0.2,0.3,0.3s0.2,0.1,0.3,0.2s0.2,0.1,0.4,0.1l0.6,0.1   c0.2,0,0.4,0.1,0.6,0.2c0.2,0.1,0.4,0.2,0.5,0.3c0.2,0.1,0.3,0.3,0.4,0.5c0.1,0.2,0.2,0.4,0.2,0.7c0,0.3-0.1,0.6-0.3,0.9   c-0.2,0.3-0.4,0.5-0.7,0.6c-0.3,0.1-0.7,0.2-1.2,0.2c-0.4,0-0.8-0.1-1.1-0.2s-0.6-0.3-0.7-0.6c-0.2-0.3-0.3-0.6-0.3-0.9h0.9   c0,0.2,0.1,0.4,0.2,0.5c0.1,0.1,0.3,0.2,0.5,0.3c0.2,0.1,0.4,0.1,0.6,0.1c0.2,0,0.5,0,0.7-0.1c0.2-0.1,0.3-0.2,0.5-0.3   s0.2-0.3,0.2-0.5c0-0.2,0-0.3-0.1-0.4c-0.1-0.1-0.2-0.2-0.4-0.3s-0.4-0.1-0.6-0.2l-0.7-0.2c-0.5-0.1-0.8-0.3-1.1-0.6   c-0.3-0.2-0.4-0.6-0.4-1c0-0.3,0.1-0.6,0.3-0.9c0.2-0.2,0.4-0.4,0.7-0.6s0.7-0.2,1.1-0.2c0.4,0,0.7,0.1,1,0.2s0.5,0.3,0.7,0.6   c0.2,0.2,0.3,0.5,0.3,0.8H95.9z"
   id="path31351" />
	<path
   d="M101.1,15.7c0-0.3-0.2-0.5-0.4-0.6c-0.2-0.1-0.5-0.2-0.8-0.2c-0.2,0-0.4,0-0.6,0.1s-0.3,0.2-0.4,0.3   c-0.1,0.1-0.1,0.3-0.1,0.4c0,0.1,0,0.3,0.1,0.4c0.1,0.1,0.2,0.2,0.3,0.3s0.2,0.1,0.3,0.2s0.2,0.1,0.4,0.1l0.6,0.1   c0.2,0,0.4,0.1,0.6,0.2c0.2,0.1,0.4,0.2,0.5,0.3c0.2,0.1,0.3,0.3,0.4,0.5c0.1,0.2,0.2,0.4,0.2,0.7c0,0.3-0.1,0.6-0.3,0.9   c-0.2,0.3-0.4,0.5-0.7,0.6c-0.3,0.1-0.7,0.2-1.2,0.2c-0.4,0-0.8-0.1-1.1-0.2s-0.6-0.3-0.7-0.6c-0.2-0.3-0.3-0.6-0.3-0.9h0.9   c0,0.2,0.1,0.4,0.2,0.5c0.1,0.1,0.3,0.2,0.5,0.3c0.2,0.1,0.4,0.1,0.6,0.1c0.2,0,0.5,0,0.7-0.1c0.2-0.1,0.3-0.2,0.5-0.3   s0.2-0.3,0.2-0.5c0-0.2,0-0.3-0.1-0.4c-0.1-0.1-0.2-0.2-0.4-0.3s-0.4-0.1-0.6-0.2l-0.7-0.2c-0.5-0.1-0.8-0.3-1.1-0.6   c-0.3-0.2-0.4-0.6-0.4-1c0-0.3,0.1-0.6,0.3-0.9c0.2-0.2,0.4-0.4,0.7-0.6s0.7-0.2,1.1-0.2c0.4,0,0.7,0.1,1,0.2s0.5,0.3,0.7,0.6   c0.2,0.2,0.3,0.5,0.3,0.8H101.1z"
   id="path31353" />
	<path
   d="M104.9,20h-1.9v-5.8h1.9c0.6,0,1.1,0.1,1.5,0.3s0.7,0.6,0.9,1c0.2,0.4,0.3,1,0.3,1.6c0,0.6-0.1,1.1-0.3,1.6   c-0.2,0.4-0.5,0.8-1,1C106,19.9,105.5,20,104.9,20z M103.9,19.2h1c0.4,0,0.8-0.1,1.1-0.3s0.5-0.4,0.7-0.7c0.1-0.3,0.2-0.7,0.2-1.2   c0-0.5-0.1-0.8-0.2-1.2c-0.1-0.3-0.4-0.6-0.6-0.7c-0.3-0.2-0.6-0.2-1.1-0.2h-1V19.2z"
   id="path31355" />
	<path
   d="M109.5,19.2l0,0.3c0,0.2-0.1,0.5-0.1,0.7c-0.1,0.2-0.1,0.5-0.2,0.7c-0.1,0.2-0.1,0.4-0.2,0.5h-0.6c0-0.1,0.1-0.3,0.1-0.5   c0-0.2,0.1-0.4,0.1-0.7c0-0.2,0.1-0.5,0.1-0.8l0-0.3H109.5z"
   id="path31357" />
	<path
   d="M117.5,14.1V20h-0.8l-3-4.3h-0.1V20h-0.9v-5.8h0.8l3,4.3h0.1v-4.3H117.5z"
   id="path31359" />
	<path
   d="M119.3,14.1l1.6,4.7h0.1l1.6-4.7h0.9l-2.1,5.8h-1l-2.1-5.8H119.3z"
   id="path31361" />
	<path
   d="M124.4,14.1h1.1l1.9,4.5h0.1l1.9-4.5h1.1V20h-0.8v-4.2h-0.1l-1.7,4.2H127l-1.7-4.2h-0.1V20h-0.8V14.1z"
   id="path31363" />
	<path
   d="M133.4,20.1c-0.4,0-0.8-0.1-1.1-0.3s-0.5-0.4-0.7-0.8c-0.2-0.3-0.3-0.7-0.3-1.2c0-0.4,0.1-0.8,0.3-1.2   c0.2-0.3,0.4-0.6,0.7-0.8c0.3-0.2,0.7-0.3,1.1-0.3c0.2,0,0.5,0,0.7,0.1s0.4,0.2,0.6,0.4c0.2,0.2,0.3,0.4,0.4,0.7   c0.1,0.3,0.2,0.6,0.2,1V18h-3.5v-0.6h2.6c0-0.2,0-0.4-0.1-0.6s-0.2-0.3-0.4-0.4c-0.2-0.1-0.4-0.2-0.6-0.2c-0.2,0-0.4,0.1-0.6,0.2   c-0.2,0.1-0.3,0.3-0.4,0.5c-0.1,0.2-0.1,0.4-0.1,0.6V18c0,0.3,0.1,0.5,0.2,0.7c0.1,0.2,0.2,0.4,0.4,0.5c0.2,0.1,0.4,0.2,0.7,0.2   c0.2,0,0.3,0,0.4-0.1c0.1,0,0.2-0.1,0.3-0.2c0.1-0.1,0.2-0.2,0.2-0.3l0.8,0.1c-0.1,0.2-0.2,0.4-0.3,0.6c-0.2,0.2-0.4,0.3-0.6,0.4   C134,20,133.7,20.1,133.4,20.1z"
   id="path31365" />
	<path
   d="M137.8,17.6c0,0.7-0.1,1.4-0.3,2c-0.2,0.6-0.5,1.2-0.8,1.7h-0.8c0.1-0.2,0.3-0.4,0.4-0.7c0.1-0.3,0.2-0.6,0.3-0.9   s0.2-0.7,0.2-1c0.1-0.3,0.1-0.7,0.1-1c0-0.4,0-0.9-0.1-1.4c-0.1-0.5-0.2-0.9-0.4-1.3c-0.2-0.4-0.3-0.7-0.5-1h0.8   c0.4,0.5,0.6,1.1,0.8,1.7C137.7,16.2,137.8,16.8,137.8,17.6z"
   id="path31367" />
</g>
<g
   id="g31389">
	<path
   d="M37.3,41.1h-1.9v-5.8h1.9c0.6,0,1.1,0.1,1.5,0.3s0.7,0.6,0.9,1c0.2,0.4,0.3,1,0.3,1.6c0,0.6-0.1,1.1-0.3,1.6   c-0.2,0.4-0.5,0.8-1,1C38.4,40.9,37.9,41.1,37.3,41.1z M36.3,40.3h1c0.4,0,0.8-0.1,1.1-0.3s0.5-0.4,0.7-0.7   c0.1-0.3,0.2-0.7,0.2-1.2c0-0.5-0.1-0.8-0.2-1.2c-0.1-0.3-0.4-0.6-0.6-0.7c-0.3-0.2-0.6-0.2-1.1-0.2h-1V40.3z"
   id="path31371" />
	<path
   d="M42.4,41.2c-0.3,0-0.5-0.1-0.8-0.2c-0.2-0.1-0.4-0.3-0.5-0.5C41,40.4,41,40.1,41,39.8c0-0.2,0-0.4,0.1-0.6s0.2-0.3,0.4-0.4   s0.3-0.2,0.5-0.2c0.2,0,0.4-0.1,0.6-0.1c0.3,0,0.5-0.1,0.6-0.1c0.2,0,0.3-0.1,0.4-0.1c0.1,0,0.1-0.1,0.1-0.2v0   c0-0.2-0.1-0.4-0.2-0.6s-0.3-0.2-0.6-0.2c-0.3,0-0.5,0.1-0.7,0.2c-0.2,0.1-0.3,0.3-0.3,0.4l-0.8-0.2c0.1-0.3,0.2-0.5,0.4-0.6   c0.2-0.2,0.4-0.3,0.6-0.4s0.5-0.1,0.8-0.1c0.2,0,0.4,0,0.6,0.1c0.2,0,0.4,0.1,0.6,0.2s0.3,0.3,0.4,0.5s0.2,0.5,0.2,0.8v2.9h-0.8   v-0.6h0c-0.1,0.1-0.1,0.2-0.2,0.3c-0.1,0.1-0.3,0.2-0.4,0.3C42.9,41.1,42.7,41.2,42.4,41.2z M42.6,40.5c0.2,0,0.4,0,0.6-0.1   c0.2-0.1,0.3-0.2,0.4-0.4c0.1-0.2,0.1-0.3,0.1-0.5v-0.6c0,0-0.1,0.1-0.2,0.1c-0.1,0-0.2,0-0.3,0.1s-0.2,0-0.3,0c-0.1,0-0.2,0-0.3,0   c-0.2,0-0.3,0.1-0.5,0.1c-0.1,0-0.2,0.1-0.3,0.2c-0.1,0.1-0.1,0.2-0.1,0.4c0,0.2,0.1,0.4,0.2,0.5S42.4,40.5,42.6,40.5z"
   id="path31373" />
	<path
   d="M47.8,36.7v0.7h-2.4v-0.7H47.8z M46,35.6h0.8v4.1c0,0.2,0,0.3,0.1,0.4c0,0.1,0.1,0.1,0.2,0.2c0.1,0,0.2,0,0.3,0   c0.1,0,0.1,0,0.2,0c0.1,0,0.1,0,0.1,0l0.2,0.7c0,0-0.1,0-0.2,0.1c-0.1,0-0.2,0-0.3,0c-0.2,0-0.4,0-0.6-0.1   c-0.2-0.1-0.3-0.2-0.5-0.4C46.1,40.4,46,40.2,46,40V35.6z"
   id="path31375" />
	<path
   d="M50,41.2c-0.3,0-0.5-0.1-0.8-0.2c-0.2-0.1-0.4-0.3-0.5-0.5c-0.1-0.2-0.2-0.4-0.2-0.7c0-0.2,0-0.4,0.1-0.6s0.2-0.3,0.4-0.4   s0.3-0.2,0.5-0.2c0.2,0,0.4-0.1,0.6-0.1c0.3,0,0.5-0.1,0.6-0.1c0.2,0,0.3-0.1,0.4-0.1c0.1,0,0.1-0.1,0.1-0.2v0   c0-0.2-0.1-0.4-0.2-0.6s-0.3-0.2-0.6-0.2c-0.3,0-0.5,0.1-0.7,0.2c-0.2,0.1-0.3,0.3-0.3,0.4l-0.8-0.2c0.1-0.3,0.2-0.5,0.4-0.6   c0.2-0.2,0.4-0.3,0.6-0.4s0.5-0.1,0.8-0.1c0.2,0,0.4,0,0.6,0.1c0.2,0,0.4,0.1,0.6,0.2s0.3,0.3,0.4,0.5s0.2,0.5,0.2,0.8v2.9h-0.8   v-0.6h0c-0.1,0.1-0.1,0.2-0.2,0.3c-0.1,0.1-0.3,0.2-0.4,0.3C50.4,41.1,50.2,41.2,50,41.2z M50.2,40.5c0.2,0,0.4,0,0.6-0.1   c0.2-0.1,0.3-0.2,0.4-0.4c0.1-0.2,0.1-0.3,0.1-0.5v-0.6c0,0-0.1,0.1-0.2,0.1c-0.1,0-0.2,0-0.3,0.1s-0.2,0-0.3,0c-0.1,0-0.2,0-0.3,0   c-0.2,0-0.3,0.1-0.5,0.1c-0.1,0-0.2,0.1-0.3,0.2c-0.1,0.1-0.1,0.2-0.1,0.4c0,0.2,0.1,0.4,0.2,0.5S49.9,40.5,50.2,40.5z"
   id="path31377" />
	<path
   d="M58.6,36.8c0-0.3-0.2-0.5-0.4-0.6c-0.2-0.1-0.5-0.2-0.8-0.2c-0.2,0-0.4,0-0.6,0.1s-0.3,0.2-0.4,0.3   c-0.1,0.1-0.1,0.3-0.1,0.4c0,0.1,0,0.3,0.1,0.4c0.1,0.1,0.2,0.2,0.3,0.3s0.2,0.1,0.3,0.2s0.2,0.1,0.4,0.1l0.6,0.1   c0.2,0,0.4,0.1,0.6,0.2c0.2,0.1,0.4,0.2,0.5,0.3c0.2,0.1,0.3,0.3,0.4,0.5c0.1,0.2,0.2,0.4,0.2,0.7c0,0.3-0.1,0.6-0.3,0.9   c-0.2,0.3-0.4,0.5-0.7,0.6c-0.3,0.1-0.7,0.2-1.2,0.2c-0.4,0-0.8-0.1-1.1-0.2s-0.6-0.3-0.7-0.6c-0.2-0.3-0.3-0.6-0.3-0.9h0.9   c0,0.2,0.1,0.4,0.2,0.5c0.1,0.1,0.3,0.2,0.5,0.3c0.2,0.1,0.4,0.1,0.6,0.1c0.2,0,0.5,0,0.7-0.1c0.2-0.1,0.3-0.2,0.5-0.3   s0.2-0.3,0.2-0.5c0-0.2,0-0.3-0.1-0.4c-0.1-0.1-0.2-0.2-0.4-0.3s-0.4-0.1-0.6-0.2l-0.7-0.2c-0.5-0.1-0.8-0.3-1.1-0.6   c-0.3-0.2-0.4-0.6-0.4-1c0-0.3,0.1-0.6,0.3-0.9c0.2-0.2,0.4-0.4,0.7-0.6s0.7-0.2,1.1-0.2c0.4,0,0.7,0.1,1,0.2s0.5,0.3,0.7,0.6   c0.2,0.2,0.3,0.5,0.3,0.8H58.6z"
   id="path31379" />
	<path
   d="M61.4,38.5v2.6h-0.8v-5.8h0.8v2.2h0.1c0.1-0.2,0.3-0.4,0.5-0.6c0.2-0.1,0.5-0.2,0.8-0.2c0.3,0,0.6,0.1,0.8,0.2   c0.2,0.1,0.4,0.3,0.5,0.5s0.2,0.5,0.2,0.9v2.8h-0.8v-2.7c0-0.3-0.1-0.6-0.2-0.7c-0.2-0.2-0.4-0.3-0.7-0.3c-0.2,0-0.4,0-0.5,0.1   c-0.2,0.1-0.3,0.2-0.4,0.4C61.4,38,61.4,38.2,61.4,38.5z"
   id="path31381" />
	<path
   d="M66.6,41.2c-0.3,0-0.5-0.1-0.8-0.2c-0.2-0.1-0.4-0.3-0.5-0.5c-0.1-0.2-0.2-0.4-0.2-0.7c0-0.2,0-0.4,0.1-0.6   s0.2-0.3,0.4-0.4s0.3-0.2,0.5-0.2c0.2,0,0.4-0.1,0.6-0.1c0.3,0,0.5-0.1,0.6-0.1c0.2,0,0.3-0.1,0.4-0.1c0.1,0,0.1-0.1,0.1-0.2v0   c0-0.2-0.1-0.4-0.2-0.6s-0.3-0.2-0.6-0.2c-0.3,0-0.5,0.1-0.7,0.2c-0.2,0.1-0.3,0.3-0.3,0.4l-0.8-0.2c0.1-0.3,0.2-0.5,0.4-0.6   c0.2-0.2,0.4-0.3,0.6-0.4s0.5-0.1,0.8-0.1c0.2,0,0.4,0,0.6,0.1c0.2,0,0.4,0.1,0.6,0.2s0.3,0.3,0.4,0.5s0.2,0.5,0.2,0.8v2.9h-0.8   v-0.6h0c-0.1,0.1-0.1,0.2-0.2,0.3c-0.1,0.1-0.3,0.2-0.4,0.3C67.1,41.1,66.8,41.2,66.6,41.2z M66.8,40.5c0.2,0,0.4,0,0.6-0.1   c0.2-0.1,0.3-0.2,0.4-0.4c0.1-0.2,0.1-0.3,0.1-0.5v-0.6c0,0-0.1,0.1-0.2,0.1c-0.1,0-0.2,0-0.3,0.1s-0.2,0-0.3,0c-0.1,0-0.2,0-0.3,0   c-0.2,0-0.3,0.1-0.5,0.1c-0.1,0-0.2,0.1-0.3,0.2C66,39.6,66,39.7,66,39.8c0,0.2,0.1,0.4,0.2,0.5S66.5,40.5,66.8,40.5z"
   id="path31383" />
	<path
   d="M69.9,41.1v-4.4h0.8v0.7h0c0.1-0.2,0.2-0.4,0.4-0.6c0.2-0.1,0.4-0.2,0.7-0.2c0.1,0,0.1,0,0.2,0s0.1,0,0.2,0v0.8   c0,0-0.1,0-0.2,0c-0.1,0-0.2,0-0.3,0c-0.2,0-0.4,0-0.5,0.1c-0.2,0.1-0.3,0.2-0.4,0.3c-0.1,0.1-0.1,0.3-0.1,0.5v2.7H69.9z"
   id="path31385" />
	<path
   d="M74.4,41.1c-0.4,0-0.7-0.1-0.9-0.3c-0.3-0.2-0.5-0.4-0.6-0.8c-0.2-0.3-0.2-0.7-0.2-1.2s0.1-0.9,0.2-1.2   c0.2-0.3,0.4-0.6,0.7-0.8c0.3-0.2,0.6-0.3,0.9-0.3c0.3,0,0.5,0,0.7,0.1c0.2,0.1,0.3,0.2,0.4,0.3c0.1,0.1,0.2,0.2,0.2,0.3h0.1v-2.2   h0.8v5.8h-0.8v-0.7h-0.1c-0.1,0.1-0.1,0.2-0.2,0.3s-0.2,0.2-0.4,0.3C74.9,41.1,74.7,41.1,74.4,41.1z M74.6,40.4   c0.2,0,0.5-0.1,0.6-0.2c0.2-0.1,0.3-0.3,0.4-0.5c0.1-0.2,0.1-0.5,0.1-0.8c0-0.3,0-0.6-0.1-0.8c-0.1-0.2-0.2-0.4-0.4-0.5   c-0.2-0.1-0.4-0.2-0.6-0.2c-0.3,0-0.5,0.1-0.6,0.2c-0.2,0.1-0.3,0.3-0.4,0.5c-0.1,0.2-0.1,0.5-0.1,0.8c0,0.3,0,0.6,0.1,0.8   c0.1,0.2,0.2,0.4,0.4,0.6C74.2,40.4,74.4,40.4,74.6,40.4z"
   id="path31387" />
</g>
<g
   id="g31413">
	<path
   d="M36,63v-5.8h2.1c0.5,0,0.8,0.1,1.1,0.2s0.5,0.4,0.7,0.7c0.1,0.3,0.2,0.6,0.2,1c0,0.4-0.1,0.7-0.2,1   c-0.1,0.3-0.4,0.5-0.7,0.7c-0.3,0.2-0.7,0.2-1.1,0.2h-1.4v-0.7H38c0.3,0,0.5,0,0.7-0.1s0.3-0.2,0.4-0.4c0.1-0.2,0.1-0.4,0.1-0.6   s0-0.4-0.1-0.6c-0.1-0.2-0.2-0.3-0.4-0.4c-0.2-0.1-0.4-0.1-0.7-0.1h-1.1V63H36z"
   id="path31391" />
	<path
   d="M42.3,63.1c-0.3,0-0.5-0.1-0.8-0.2s-0.4-0.3-0.5-0.5s-0.2-0.4-0.2-0.7c0-0.2,0-0.4,0.1-0.6s0.2-0.3,0.4-0.4   s0.3-0.2,0.5-0.2c0.2,0,0.4-0.1,0.6-0.1c0.3,0,0.5-0.1,0.6-0.1c0.2,0,0.3-0.1,0.4-0.1c0.1,0,0.1-0.1,0.1-0.2v0   c0-0.2-0.1-0.4-0.2-0.6c-0.1-0.1-0.3-0.2-0.6-0.2c-0.3,0-0.5,0.1-0.7,0.2c-0.2,0.1-0.3,0.3-0.3,0.4l-0.8-0.2   c0.1-0.3,0.2-0.5,0.4-0.6c0.2-0.2,0.4-0.3,0.6-0.4c0.2-0.1,0.5-0.1,0.8-0.1c0.2,0,0.4,0,0.6,0.1c0.2,0,0.4,0.1,0.6,0.2   c0.2,0.1,0.3,0.3,0.4,0.5c0.1,0.2,0.2,0.5,0.2,0.8V63h-0.8v-0.6h0c-0.1,0.1-0.1,0.2-0.2,0.3c-0.1,0.1-0.3,0.2-0.4,0.3   C42.7,63,42.5,63.1,42.3,63.1z M42.5,62.4c0.2,0,0.4,0,0.6-0.1c0.2-0.1,0.3-0.2,0.4-0.4c0.1-0.2,0.1-0.3,0.1-0.5v-0.6   c0,0-0.1,0.1-0.2,0.1c-0.1,0-0.2,0-0.3,0.1c-0.1,0-0.2,0-0.3,0c-0.1,0-0.2,0-0.3,0c-0.2,0-0.3,0.1-0.5,0.1c-0.1,0-0.2,0.1-0.3,0.2   c-0.1,0.1-0.1,0.2-0.1,0.4c0,0.2,0.1,0.4,0.2,0.5C42,62.3,42.2,62.4,42.5,62.4z"
   id="path31393" />
	<path
   d="M45.6,63v-4.4h0.8v0.7h0c0.1-0.2,0.2-0.4,0.4-0.6c0.2-0.1,0.4-0.2,0.7-0.2c0.1,0,0.1,0,0.2,0s0.1,0,0.2,0v0.8   c0,0-0.1,0-0.2,0c-0.1,0-0.2,0-0.3,0c-0.2,0-0.4,0-0.5,0.1s-0.3,0.2-0.4,0.3c-0.1,0.1-0.1,0.3-0.1,0.5V63H45.6z"
   id="path31395" />
	<path
   d="M49.1,57.9c-0.1,0-0.3,0-0.4-0.1c-0.1-0.1-0.2-0.2-0.2-0.4c0-0.1,0.1-0.3,0.2-0.4c0.1-0.1,0.2-0.1,0.4-0.1s0.3,0,0.4,0.1   c0.1,0.1,0.2,0.2,0.2,0.4c0,0.1-0.1,0.3-0.2,0.4C49.3,57.9,49.2,57.9,49.1,57.9z M48.6,63v-4.4h0.8V63H48.6z"
   id="path31397" />
	<path
   d="M52.7,58.6v0.7h-2.4v-0.7H52.7z M50.9,57.6h0.8v4.1c0,0.2,0,0.3,0.1,0.4c0,0.1,0.1,0.1,0.2,0.2s0.2,0,0.3,0   c0.1,0,0.1,0,0.2,0c0.1,0,0.1,0,0.1,0l0.2,0.7c0,0-0.1,0-0.2,0.1c-0.1,0-0.2,0-0.3,0c-0.2,0-0.4,0-0.6-0.1   c-0.2-0.1-0.3-0.2-0.5-0.4c-0.1-0.2-0.2-0.4-0.2-0.7V57.6z"
   id="path31399" />
	<path
   d="M54.1,64.6c-0.1,0-0.2,0-0.3,0c-0.1,0-0.2,0-0.2-0.1l0.2-0.7c0.2,0.1,0.4,0.1,0.6,0c0.2-0.1,0.3-0.2,0.4-0.5l0.1-0.3   l-1.6-4.4h0.9l1.1,3.4h0l1.1-3.4l0.9,0l-1.8,4.9c-0.1,0.2-0.2,0.4-0.3,0.6s-0.3,0.3-0.5,0.4C54.6,64.6,54.4,64.6,54.1,64.6z"
   id="path31401" />
	<path
   d="M63.5,58.7c0-0.3-0.2-0.5-0.4-0.6c-0.2-0.1-0.5-0.2-0.8-0.2c-0.2,0-0.4,0-0.6,0.1c-0.2,0.1-0.3,0.2-0.4,0.3   c-0.1,0.1-0.1,0.3-0.1,0.4c0,0.1,0,0.3,0.1,0.4c0.1,0.1,0.2,0.2,0.3,0.3s0.2,0.1,0.3,0.2c0.1,0,0.2,0.1,0.4,0.1l0.6,0.1   c0.2,0,0.4,0.1,0.6,0.2c0.2,0.1,0.4,0.2,0.5,0.3c0.2,0.1,0.3,0.3,0.4,0.5c0.1,0.2,0.2,0.4,0.2,0.7c0,0.3-0.1,0.6-0.3,0.9   s-0.4,0.5-0.7,0.6c-0.3,0.1-0.7,0.2-1.2,0.2c-0.4,0-0.8-0.1-1.1-0.2c-0.3-0.1-0.6-0.3-0.7-0.6c-0.2-0.3-0.3-0.6-0.3-0.9H61   c0,0.2,0.1,0.4,0.2,0.5c0.1,0.1,0.3,0.2,0.5,0.3s0.4,0.1,0.6,0.1c0.2,0,0.5,0,0.7-0.1c0.2-0.1,0.3-0.2,0.5-0.3   c0.1-0.1,0.2-0.3,0.2-0.5c0-0.2,0-0.3-0.1-0.4c-0.1-0.1-0.2-0.2-0.4-0.3c-0.2-0.1-0.4-0.1-0.6-0.2l-0.7-0.2   c-0.5-0.1-0.8-0.3-1.1-0.6c-0.3-0.2-0.4-0.6-0.4-1c0-0.3,0.1-0.6,0.3-0.9c0.2-0.2,0.4-0.4,0.7-0.6c0.3-0.1,0.7-0.2,1.1-0.2   c0.4,0,0.7,0.1,1,0.2c0.3,0.1,0.5,0.3,0.7,0.6s0.3,0.5,0.3,0.8H63.5z"
   id="path31403" />
	<path
   d="M66.3,60.4V63h-0.8v-5.8h0.8v2.2h0.1c0.1-0.2,0.3-0.4,0.5-0.6c0.2-0.1,0.5-0.2,0.8-0.2c0.3,0,0.6,0.1,0.8,0.2   c0.2,0.1,0.4,0.3,0.5,0.5s0.2,0.5,0.2,0.9V63h-0.8v-2.7c0-0.3-0.1-0.6-0.2-0.7c-0.2-0.2-0.4-0.3-0.7-0.3c-0.2,0-0.4,0-0.5,0.1   c-0.2,0.1-0.3,0.2-0.4,0.4C66.3,60,66.3,60.2,66.3,60.4z"
   id="path31405" />
	<path
   d="M71.5,63.1c-0.3,0-0.5-0.1-0.8-0.2s-0.4-0.3-0.5-0.5S70,62,70,61.7c0-0.2,0-0.4,0.1-0.6s0.2-0.3,0.4-0.4s0.3-0.2,0.5-0.2   c0.2,0,0.4-0.1,0.6-0.1c0.3,0,0.5-0.1,0.6-0.1c0.2,0,0.3-0.1,0.4-0.1c0.1,0,0.1-0.1,0.1-0.2v0c0-0.2-0.1-0.4-0.2-0.6   c-0.1-0.1-0.3-0.2-0.6-0.2c-0.3,0-0.5,0.1-0.7,0.2c-0.2,0.1-0.3,0.3-0.3,0.4l-0.8-0.2c0.1-0.3,0.2-0.5,0.4-0.6   c0.2-0.2,0.4-0.3,0.6-0.4c0.2-0.1,0.5-0.1,0.8-0.1c0.2,0,0.4,0,0.6,0.1c0.2,0,0.4,0.1,0.6,0.2c0.2,0.1,0.3,0.3,0.4,0.5   c0.1,0.2,0.2,0.5,0.2,0.8V63h-0.8v-0.6h0c-0.1,0.1-0.1,0.2-0.2,0.3c-0.1,0.1-0.3,0.2-0.4,0.3C71.9,63,71.7,63.1,71.5,63.1z    M71.7,62.4c0.2,0,0.4,0,0.6-0.1c0.2-0.1,0.3-0.2,0.4-0.4c0.1-0.2,0.1-0.3,0.1-0.5v-0.6c0,0-0.1,0.1-0.2,0.1c-0.1,0-0.2,0-0.3,0.1   c-0.1,0-0.2,0-0.3,0c-0.1,0-0.2,0-0.3,0c-0.2,0-0.3,0.1-0.5,0.1c-0.1,0-0.2,0.1-0.3,0.2c-0.1,0.1-0.1,0.2-0.1,0.4   c0,0.2,0.1,0.4,0.2,0.5C71.2,62.3,71.4,62.4,71.7,62.4z"
   id="path31407" />
	<path
   d="M74.8,63v-4.4h0.8v0.7h0c0.1-0.2,0.2-0.4,0.4-0.6c0.2-0.1,0.4-0.2,0.7-0.2c0.1,0,0.1,0,0.2,0s0.1,0,0.2,0v0.8   c0,0-0.1,0-0.2,0c-0.1,0-0.2,0-0.3,0c-0.2,0-0.4,0-0.5,0.1s-0.3,0.2-0.4,0.3c-0.1,0.1-0.1,0.3-0.1,0.5V63H74.8z"
   id="path31409" />
	<path
   d="M79.3,63.1c-0.4,0-0.7-0.1-0.9-0.3c-0.3-0.2-0.5-0.4-0.6-0.8s-0.2-0.7-0.2-1.2s0.1-0.9,0.2-1.2c0.2-0.3,0.4-0.6,0.7-0.8   c0.3-0.2,0.6-0.3,0.9-0.3c0.3,0,0.5,0,0.7,0.1c0.2,0.1,0.3,0.2,0.4,0.3s0.2,0.2,0.2,0.3h0.1v-2.2h0.8V63h-0.8v-0.7h-0.1   c-0.1,0.1-0.1,0.2-0.2,0.3s-0.2,0.2-0.4,0.3C79.8,63,79.6,63.1,79.3,63.1z M79.5,62.3c0.2,0,0.5-0.1,0.6-0.2s0.3-0.3,0.4-0.5   c0.1-0.2,0.1-0.5,0.1-0.8c0-0.3,0-0.6-0.1-0.8c-0.1-0.2-0.2-0.4-0.4-0.5s-0.4-0.2-0.6-0.2c-0.3,0-0.5,0.1-0.6,0.2s-0.3,0.3-0.4,0.5   c-0.1,0.2-0.1,0.5-0.1,0.8c0,0.3,0,0.6,0.1,0.8c0.1,0.2,0.2,0.4,0.4,0.6C79.1,62.3,79.3,62.3,79.5,62.3z"
   id="path31411" />
</g>
<g
   id="g31437">
	<g
   id="g31433">
		<g
   id="g31417">
			<path
   class="st11"
   d="M19.9,20.5h-4.8c-0.3,0-0.6-0.1-0.8-0.3C14.1,20,14,19.7,14,19.4l0.4-5.8c0-0.6,0.5-1,1.1-1h4     c0.6,0,1,0.4,1.1,1l0.4,5.8c0,0.3-0.1,0.6-0.3,0.8C20.5,20.4,20.2,20.5,19.9,20.5z"
   id="path31415" />
		</g>
		<path
   class="st12"
   d="M15.6,14.2L15.6,14.2c-0.1,0-0.2-0.1-0.2-0.2v-1c0-0.1,0.1-0.2,0.2-0.2h0c0.1,0,0.2,0.1,0.2,0.2v1    C15.8,14.1,15.7,14.2,15.6,14.2z"
   id="path31419" />
		<path
   class="st12"
   d="M16.5,14.5L16.5,14.5c-0.1,0-0.2-0.1-0.2-0.2V13c0-0.1,0.1-0.2,0.2-0.2l0,0c0.1,0,0.2,0.1,0.2,0.2v1.3    C16.7,14.4,16.6,14.5,16.5,14.5z"
   id="path31421" />
		<path
   class="st12"
   d="M18.4,14.5L18.4,14.5c-0.1,0-0.2-0.1-0.2-0.2V13c0-0.1,0.1-0.2,0.2-0.2l0,0c0.1,0,0.2,0.1,0.2,0.2v1.3    C18.6,14.4,18.5,14.5,18.4,14.5z"
   id="path31423" />
		<path
   class="st12"
   d="M19.4,14.2L19.4,14.2c-0.1,0-0.2-0.1-0.2-0.2v-1c0-0.1,0.1-0.2,0.2-0.2l0,0c0.1,0,0.2,0.1,0.2,0.2v1    C19.6,14.1,19.5,14.2,19.4,14.2z"
   id="path31425" />
		<path
   class="st12"
   d="M17.5,14.2L17.5,14.2c-0.1,0-0.2-0.1-0.2-0.2v-1c0-0.1,0.1-0.2,0.2-0.2l0,0c0.1,0,0.2,0.1,0.2,0.2v1    C17.7,14.1,17.6,14.2,17.5,14.2z"
   id="path31427" />
		<g
   id="g31431">
			<path
   class="st24"
   d="M19.9,20.5h-4.8c-0.3,0-0.6-0.1-0.8-0.3C14.1,20,14,19.7,14,19.4l0.4-5.8c0-0.6,0.5-1,1.1-1h4     c0.6,0,1,0.4,1.1,1l0.4,5.8c0,0.3-0.1,0.6-0.3,0.8C20.5,20.4,20.2,20.5,19.9,20.5z"
   id="path31429" />
		</g>
	</g>
	<path
   id="line31435"
   class="st25"
   style="fill:none;stroke:#ffffff;stroke-width:0.3118;stroke-linecap:round;stroke-miterlimit:10"
   d="m 14.8,18.799999 h 5.6" />
</g>
<path
   class="st8"
   d="M20.8,42.7h-5.6c-0.7,0-1.2-0.5-1.2-1.2v-6.9c0-0.7,0.5-1.2,1.2-1.2h5.6c0.7,0,1.2,0.5,1.2,1.2v6.9  C22,42.2,21.5,42.7,20.8,42.7z"
   id="path31439" />
<g
   id="g31443">
	<path
   class="st12"
   d="M17.7,40.1h-1.4v-4.4h1.5c0.4,0,0.8,0.1,1.1,0.3c0.3,0.2,0.5,0.4,0.7,0.7c0.2,0.3,0.2,0.7,0.2,1.2   c0,0.5-0.1,0.8-0.2,1.2c-0.2,0.3-0.4,0.6-0.7,0.8S18.2,40.1,17.7,40.1z M17,39.5h0.7c0.3,0,0.6-0.1,0.8-0.2   c0.2-0.1,0.4-0.3,0.5-0.5c0.1-0.2,0.2-0.5,0.2-0.9c0-0.3-0.1-0.6-0.2-0.9c-0.1-0.2-0.3-0.4-0.5-0.5s-0.5-0.2-0.8-0.2H17V39.5z"
   id="path31441" />
</g>
<g
   id="g31449">
	<path
   class="st11"
   d="M15.2,64.9c-1.2,0-2.2-1-2.2-2.2v-6.9c0-1.2,1-2.2,2.2-2.2h5.6c1.2,0,2.2,1,2.2,2.2v6.9c0,1.2-1,2.2-2.2,2.2   H15.2z"
   id="path31445" />
	<path
   class="st7"
   d="M20.8,54.6c0.7,0,1.2,0.5,1.2,1.2v6.9c0,0.7-0.5,1.2-1.2,1.2h-5.6c-0.7,0-1.2-0.5-1.2-1.2v-6.9   c0-0.7,0.5-1.2,1.2-1.2H20.8 M20.8,52.6h-5.6c-1.8,0-3.2,1.4-3.2,3.2v6.9c0,1.8,1.4,3.2,3.2,3.2h5.6c1.8,0,3.2-1.4,3.2-3.2v-6.9   C24,54,22.6,52.6,20.8,52.6L20.8,52.6z"
   id="path31447" />
</g>
<g
   id="g31453">
	<path
   class="st12"
   d="M16.6,61.2v-4.4h1.6c0.3,0,0.6,0.1,0.8,0.2c0.2,0.1,0.4,0.3,0.5,0.5s0.2,0.5,0.2,0.7c0,0.3-0.1,0.5-0.2,0.7   c-0.1,0.2-0.3,0.4-0.5,0.5c-0.2,0.1-0.5,0.2-0.8,0.2h-1.1v-0.6h1c0.2,0,0.4,0,0.5-0.1c0.1-0.1,0.2-0.2,0.3-0.3   c0.1-0.1,0.1-0.3,0.1-0.4c0-0.2,0-0.3-0.1-0.4c-0.1-0.1-0.2-0.2-0.3-0.3c-0.1-0.1-0.3-0.1-0.5-0.1h-0.8v3.8H16.6z"
   id="path31451" />
</g>
<path
   id="circle31455"
   class="st11"
   style="fill:#cf2144"
   d="m 63.600001,299.39999 a 7.1999998,7.1999998 0 0 1 -7.199999,7.2 7.1999998,7.1999998 0 0 1 -7.2,-7.2 7.1999998,7.1999998 0 0 1 7.2,-7.2 7.1999998,7.1999998 0 0 1 7.199999,7.2 z" />
<path
   id="x_00000079447630512754574340000008800278523374591910_"
   class="st12"
   d="M52.9,297.5l1.9,1.9l-1.9,1.9  c-0.1,0.1-0.1,0.2,0,0.3c0,0,0,0,0,0l1.3,1.3c0.1,0.1,0.2,0.1,0.3,0c0,0,0,0,0,0l1.9-1.9l1.9,1.9c0.1,0.1,0.2,0.1,0.3,0l1.3-1.3  c0.1-0.1,0.1-0.2,0-0.3l-1.9-1.9l1.9-1.9c0.1-0.1,0.1-0.2,0-0.3l-1.3-1.3c-0.1-0.1-0.2-0.1-0.3,0c0,0,0,0,0,0l-1.9,1.9l-1.9-1.9  c-0.1-0.1-0.2-0.1-0.3,0c0,0,0,0,0,0l-1.3,1.3C52.8,297.3,52.8,297.4,52.9,297.5C52.9,297.5,52.9,297.5,52.9,297.5L52.9,297.5z" />
<path
   id="circle31458"
   class="st11"
   style="fill:#cf2144"
   d="m 23.900001,299.39999 a 7.1999998,7.1999998 0 0 1 -7.2,7.2 7.1999998,7.1999998 0 0 1 -7.2,-7.2 7.1999998,7.1999998 0 0 1 7.2,-7.2 7.1999998,7.1999998 0 0 1 7.2,7.2 z" />
<path
   id="x_00000134955353043191314150000004558550401681363628_"
   class="st12"
   d="M13.2,297.5l1.9,1.9l-1.9,1.9  c-0.1,0.1-0.1,0.2,0,0.3c0,0,0,0,0,0l1.3,1.3c0.1,0.1,0.2,0.1,0.3,0c0,0,0,0,0,0l1.9-1.9l1.9,1.9c0.1,0.1,0.2,0.1,0.3,0l1.3-1.3  c0.1-0.1,0.1-0.2,0-0.3l-1.9-1.9l1.9-1.9c0.1-0.1,0.1-0.2,0-0.3l-1.3-1.3c-0.1-0.1-0.2-0.1-0.3,0c0,0,0,0,0,0l-1.9,1.9l-1.9-1.9  c-0.1-0.1-0.2-0.1-0.3,0c0,0,0,0,0,0l-1.3,1.3C13.1,297.3,13.1,297.4,13.2,297.5C13.2,297.5,13.2,297.5,13.2,297.5L13.2,297.5z" />
<path
   id="polyline31461"
   class="st2"
   style="fill:#1b1717"
   d="m 96.3,281.8 h 2.2 l -2.5,4.4 -2.6,-4.4 h 1.9" />
<path
   id="polyline31463"
   class="st2"
   style="fill:#1b1717"
   d="m 137.8,281.8 h 2.2 l -2.5,4.4 -2.5,-4.4 h 1.8" />
<path
   id="polyline31465"
   class="st2"
   style="fill:#1b1717"
   d="m 177.9,281.8 h 2.1 l -2.5,4.4 -2.5,-4.4 h 1.9" />
<path
   id="polyline31467"
   class="st2"
   style="fill:#1b1717"
   d="m 218,281.8 h 2.2 l -2.5,4.4 -2.6,-4.4 h 1.9" />
<path
   id="polyline31469"
   class="st2"
   style="fill:#1b1717"
   d="m 258.8,281.8 h 2.1 l -2.5,4.4 -2.5,-4.4 h 1.9" />
<path
   id="polyline31471"
   class="st2"
   style="fill:#1b1717"
   d="m 299.9,281.8 h 2.2 l -2.5,4.4 -2.5,-4.4 h 1.9" />
<path
   id="polyline31473"
   class="st2"
   style="fill:#1b1717"
   d="m 340.3,281.8 h 2.2 l -2.5,4.4 -2.6,-4.4 h 1.9" />
<path
   id="polyline31475"
   class="st2"
   style="fill:#1b1717"
   d="m 380.9,281.8 h 2.2 l -2.5,4.4 -2.6,-4.4 h 1.9" />
<path
   id="polyline31477"
   class="st2"
   style="fill:#1b1717"
   d="m 422.5,281.8 h 2.2 l -2.5,4.4 -2.5,-4.4 h 1.8" />
<path
   id="polyline31479"
   class="st2"
   style="fill:#1b1717"
   d="m 463.2,281.8 h 2.2 l -2.5,4.4 -2.5,-4.4 h 1.8" />
<path
   id="polyline31481"
   class="st2"
   style="fill:#1b1717"
   d="m 504.5,281.8 h 2.2 l -2.6,4.4 -2.5,-4.4 h 1.9" />
<path
   id="polyline31483"
   class="st2"
   style="fill:#1b1717"
   d="m 545.5,281.8 h 2.2 l -2.5,4.4 -2.5,-4.4 h 1.8" />
<path
   id="polyline31485"
   class="st2"
   style="fill:#1b1717"
   d="m 587.5,281.8 h 2.2 l -2.5,4.4 -2.5,-4.4 h 1.8" />
<path
   id="polyline31487"
   class="st2"
   style="fill:#1b1717"
   d="m 629.6,281.8 h 2.2 l -2.5,4.4 -2.6,-4.4 h 1.9" />
</svg>
