<svg version="1.1" viewBox="0.0 0.0 643.496062992126 288.81364829396324" fill="none" stroke="none" stroke-linecap="square" stroke-miterlimit="10" xmlns:xlink="http://www.w3.org/1999/xlink" xmlns="http://www.w3.org/2000/svg"><clipPath id="p.0"><path d="m0 0l643.49603 0l0 288.81366l-643.49603 0l0 -288.81366z" clip-rule="nonzero"/></clipPath><g clip-path="url(#p.0)"><path fill="#000000" fill-opacity="0.0" d="m0 0l643.49603 0l0 288.81366l-643.49603 0z" fill-rule="evenodd"/><path fill="#c72e49" d="m9.465879 103.21009l0 0c0 -3.2210007 2.6111364 -5.832138 5.832137 -5.832138l614.005 0c1.5467529 0 3.0302124 0.6144562 4.1239624 1.7081909c1.093689 1.0937424 1.7081909 2.5771713 1.7081909 4.123947l0 23.32785c0 3.2210007 -2.611145 5.8321304 -5.8321533 5.8321304l-614.005 0c-3.2210007 0 -5.832137 -2.6111298 -5.832137 -5.8321304z" fill-rule="evenodd"/><path stroke="#980000" stroke-width="4.0" stroke-linejoin="round" stroke-linecap="butt" d="m9.465879 103.21009l0 0c0 -3.2210007 2.6111364 -5.832138 5.832137 -5.832138l614.005 0c1.5467529 0 3.0302124 0.6144562 4.1239624 1.7081909c1.093689 1.0937424 1.7081909 2.5771713 1.7081909 4.123947l0 23.32785c0 3.2210007 -2.611145 5.8321304 -5.8321533 5.8321304l-614.005 0c-3.2210007 0 -5.832137 -2.6111298 -5.832137 -5.8321304z" fill-rule="evenodd"/><path fill="#ffffff" d="m297.72122 121.794014l0 -13.359375l4.03125 0l2.421875 9.109375l2.390625 -9.109375l4.046875 0l0 13.359375l-2.5 0l0 -10.515625l-2.65625 10.515625l-2.59375 0l-2.640625 -10.515625l0 10.515625l-2.5 0zm15.556427 -10.984375l0 -2.375l2.5625 0l0 2.375l-2.5625 0zm0 10.984375l0 -9.671875l2.5625 0l0 9.671875l-2.5625 0zm13.980194 0l-2.5625 0l0 -4.9375q0 -1.5625 -0.171875 -2.015625q-0.15625 -0.46875 -0.53125 -0.71875q-0.359375 -0.265625 -0.875 -0.265625q-0.671875 0 -1.203125 0.375q-0.53125 0.359375 -0.734375 0.96875q-0.1875 0.59375 -0.1875 2.21875l0 4.375l-2.546875 0l0 -9.671875l2.375 0l0 1.421875q1.265625 -1.640625 3.1875 -1.640625q0.84375 0 1.546875 0.3125q0.703125 0.296875 1.0625 0.78125q0.359375 0.46875 0.5 1.078125q0.140625 0.59375 0.140625 1.703125l0 6.015625zm2.5365906 0l0 -13.359375l2.6875 0l0 13.359375l-2.6875 0zm4.714569 -6.59375q0 -2.046875 0.609375 -3.421875q0.453125 -1.03125 1.234375 -1.828125q0.796875 -0.8125 1.734375 -1.203125q1.25 -0.53125 2.875 -0.53125q2.953125 0 4.71875 1.828125q1.78125 1.828125 1.78125 5.09375q0 3.234375 -1.765625 5.0625q-1.75 1.828125 -4.6875 1.828125q-2.984375 0 -4.75 -1.8125q-1.75 -1.828125 -1.75 -5.015625zm2.78125 -0.09375q0 2.265625 1.046875 3.4375q1.046875 1.171875 2.65625 1.171875q1.609375 0 2.640625 -1.15625q1.046875 -1.171875 1.046875 -3.484375q0 -2.296875 -1.015625 -3.421875q-1.0 -1.140625 -2.671875 -1.140625q-1.671875 0 -2.6875 1.15625q-1.015625 1.140625 -1.015625 3.4375z" fill-rule="nonzero"/><path fill="#f3f3f3" d="m8.0 257.10245l0 0c0 -2.539688 2.0588264 -4.5985107 4.5985174 -4.5985107l280.85022 0c1.2196045 0 2.3892517 0.4844818 3.251648 1.346878c0.8623657 0.862381 1.3468628 2.0320435 1.3468628 3.2516327l0 18.393524c0 2.5397034 -2.058838 4.5985107 -4.5985107 4.5985107l-280.85022 0l0 0c-2.539691 0 -4.5985174 -2.0588074 -4.5985174 -4.5985107z" fill-rule="evenodd"/><path stroke="#c72e49" stroke-width="2.0" stroke-linejoin="round" stroke-linecap="butt" d="m8.0 257.10245l0 0c0 -2.539688 2.0588264 -4.5985107 4.5985174 -4.5985107l280.85022 0c1.2196045 0 2.3892517 0.4844818 3.251648 1.346878c0.8623657 0.862381 1.3468628 2.0320435 1.3468628 3.2516327l0 18.393524c0 2.5397034 -2.058838 4.5985107 -4.5985107 4.5985107l-280.85022 0l0 0c-2.539691 0 -4.5985174 -2.0588074 -4.5985174 -4.5985107z" fill-rule="evenodd"/><path fill="#000000" d="m101.60404 271.0992l0 -9.546875l6.90625 0l0 1.125l-5.640625 0l0 2.921875l5.28125 0l0 1.125l-5.28125 0l0 3.25l5.859375 0l0 1.125l-7.125 0zm8.889755 0l0 -9.546875l4.234375 0q1.265625 0 1.921875 0.265625q0.671875 0.25 1.0625 0.90625q0.40625 0.65625 0.40625 1.4375q0 1.015625 -0.65625 1.71875q-0.65625 0.6875 -2.03125 0.875q0.5 0.25 0.765625 0.484375q0.546875 0.5 1.046875 1.265625l1.65625 2.59375l-1.578125 0l-1.265625 -1.984375q-0.5625 -0.859375 -0.921875 -1.3125q-0.34375 -0.453125 -0.640625 -0.640625q-0.28125 -0.1875 -0.5625 -0.25q-0.21875 -0.046875 -0.703125 -0.046875l-1.46875 0l0 4.234375l-1.265625 0zm1.265625 -5.328125l2.71875 0q0.859375 0 1.34375 -0.171875q0.484375 -0.1875 0.734375 -0.578125q0.265625 -0.390625 0.265625 -0.859375q0 -0.671875 -0.5 -1.109375q-0.484375 -0.4375 -1.546875 -0.4375l-3.015625 0l0 3.15625zm7.2970276 5.328125l3.65625 -9.546875l1.359375 0l3.90625 9.546875l-1.4375 0l-1.109375 -2.890625l-3.984375 0l-1.046875 2.890625l-1.34375 0zm2.75 -3.921875l3.234375 0l-1.0 -2.640625q-0.453125 -1.203125 -0.671875 -1.96875q-0.1875 0.90625 -0.515625 1.8125l-1.046875 2.796875zm6.7491226 0.859375l1.203125 -0.109375q0.078125 0.71875 0.390625 1.1875q0.3125 0.453125 0.953125 0.734375q0.65625 0.28125 1.46875 0.28125q0.71875 0 1.265625 -0.21875q0.5625 -0.21875 0.828125 -0.578125q0.265625 -0.375 0.265625 -0.828125q0 -0.453125 -0.265625 -0.78125q-0.25 -0.328125 -0.84375 -0.5625q-0.390625 -0.15625 -1.703125 -0.46875q-1.3125 -0.3125 -1.84375 -0.59375q-0.671875 -0.359375 -1.015625 -0.890625q-0.328125 -0.53125 -0.328125 -1.1875q0 -0.71875 0.40625 -1.34375q0.40625 -0.625 1.1875 -0.953125q0.796875 -0.328125 1.765625 -0.328125q1.046875 0 1.859375 0.34375q0.8125 0.34375 1.25 1.015625q0.4375 0.65625 0.46875 1.484375l-1.203125 0.09375q-0.109375 -0.90625 -0.671875 -1.359375q-0.5625 -0.46875 -1.65625 -0.46875q-1.140625 0 -1.671875 0.421875q-0.515625 0.421875 -0.515625 1.015625q0 0.515625 0.359375 0.84375q0.375 0.328125 1.90625 0.6875q1.546875 0.34375 2.109375 0.59375q0.84375 0.390625 1.234375 0.984375q0.390625 0.578125 0.390625 1.359375q0 0.75 -0.4375 1.4375q-0.421875 0.671875 -1.25 1.046875q-0.8125 0.359375 -1.828125 0.359375q-1.296875 0 -2.171875 -0.375q-0.875 -0.375 -1.375 -1.125q-0.5 -0.765625 -0.53125 -1.71875zm15.5772705 -6.484375l1.265625 0l0 5.515625q0 1.4375 -0.328125 2.296875q-0.3125 0.84375 -1.171875 1.375q-0.84375 0.515625 -2.21875 0.515625q-1.34375 0 -2.203125 -0.453125q-0.84375 -0.46875 -1.21875 -1.34375q-0.359375 -0.875 -0.359375 -2.390625l0 -5.515625l1.265625 0l0 5.515625q0 1.234375 0.21875 1.828125q0.234375 0.59375 0.796875 0.921875q0.5625 0.3125 1.390625 0.3125q1.390625 0 1.96875 -0.625q0.59375 -0.640625 0.59375 -2.4375l0 -5.515625zm3.3907776 9.546875l0 -9.546875l4.234375 0q1.265625 0 1.921875 0.265625q0.671875 0.25 1.0625 0.90625q0.40625 0.65625 0.40625 1.4375q0 1.015625 -0.65625 1.71875q-0.65625 0.6875 -2.03125 0.875q0.5 0.25 0.765625 0.484375q0.546875 0.5 1.046875 1.265625l1.65625 2.59375l-1.578125 0l-1.265625 -1.984375q-0.5625 -0.859375 -0.921875 -1.3125q-0.34375 -0.453125 -0.640625 -0.640625q-0.28125 -0.1875 -0.5625 -0.25q-0.21875 -0.046875 -0.703125 -0.046875l-1.46875 0l0 4.234375l-1.265625 0zm1.265625 -5.328125l2.71875 0q0.859375 0 1.34375 -0.171875q0.484375 -0.1875 0.734375 -0.578125q0.265625 -0.390625 0.265625 -0.859375q0 -0.671875 -0.5 -1.109375q-0.484375 -0.4375 -1.546875 -0.4375l-3.015625 0l0 3.15625zm8.359528 5.328125l0 -9.546875l6.90625 0l0 1.125l-5.640625 0l0 2.921875l5.28125 0l0 1.125l-5.28125 0l0 3.25l5.859375 0l0 1.125l-7.125 0zm12.139618 -3.0625l1.203125 -0.109375q0.078125 0.71875 0.390625 1.1875q0.3125 0.453125 0.953125 0.734375q0.65625 0.28125 1.46875 0.28125q0.71875 0 1.265625 -0.21875q0.5625 -0.21875 0.828125 -0.578125q0.265625 -0.375 0.265625 -0.828125q0 -0.453125 -0.265625 -0.78125q-0.25 -0.328125 -0.84375 -0.5625q-0.390625 -0.15625 -1.703125 -0.46875q-1.3125 -0.3125 -1.84375 -0.59375q-0.671875 -0.359375 -1.015625 -0.890625q-0.328125 -0.53125 -0.328125 -1.1875q0 -0.71875 0.40625 -1.34375q0.40625 -0.625 1.1875 -0.953125q0.796875 -0.328125 1.765625 -0.328125q1.046875 0 1.859375 0.34375q0.8125 0.34375 1.25 1.015625q0.4375 0.65625 0.46875 1.484375l-1.203125 0.09375q-0.109375 -0.90625 -0.671875 -1.359375q-0.5625 -0.46875 -1.65625 -0.46875q-1.140625 0 -1.671875 0.421875q-0.515625 0.421875 -0.515625 1.015625q0 0.515625 0.359375 0.84375q0.375 0.328125 1.90625 0.6875q1.546875 0.34375 2.109375 0.59375q0.84375 0.390625 1.234375 0.984375q0.390625 0.578125 0.390625 1.359375q0 0.75 -0.4375 1.4375q-0.421875 0.671875 -1.25 1.046875q-0.8125 0.359375 -1.828125 0.359375q-1.296875 0 -2.171875 -0.375q-0.875 -0.375 -1.375 -1.125q-0.5 -0.765625 -0.53125 -1.71875zm9.342865 3.0625l0 -9.546875l6.90625 0l0 1.125l-5.640625 0l0 2.921875l5.28125 0l0 1.125l-5.28125 0l0 3.25l5.859375 0l0 1.125l-7.125 0zm11.2960205 0l0 -8.421875l-3.140625 0l0 -1.125l7.5625 0l0 1.125l-3.15625 0l0 8.421875l-1.265625 0zm13.11908 0l-1.171875 0l0 -7.46875q-0.421875 0.40625 -1.109375 0.8125q-0.6875 0.40625 -1.234375 0.609375l0 -1.140625q0.984375 -0.453125 1.71875 -1.109375q0.734375 -0.671875 1.03125 -1.28125l0.765625 0l0 9.578125z" fill-rule="nonzero"/><path fill="#f3f3f3" d="m344.86877 257.10245l0 0c0 -2.539688 2.0588074 -4.5985107 4.5985107 -4.5985107l280.85022 0c1.2196045 0 2.3892212 0.4844818 3.251648 1.346878c0.8623657 0.862381 1.3468628 2.0320435 1.3468628 3.2516327l0 18.393524c0 2.5397034 -2.058838 4.5985107 -4.5985107 4.5985107l-280.85022 0l0 0c-2.5397034 0 -4.5985107 -2.0588074 -4.5985107 -4.5985107z" fill-rule="evenodd"/><path stroke="#c72e49" stroke-width="2.0" stroke-linejoin="round" stroke-linecap="butt" d="m344.86877 257.10245l0 0c0 -2.539688 2.0588074 -4.5985107 4.5985107 -4.5985107l280.85022 0c1.2196045 0 2.3892212 0.4844818 3.251648 1.346878c0.8623657 0.862381 1.3468628 2.0320435 1.3468628 3.2516327l0 18.393524c0 2.5397034 -2.058838 4.5985107 -4.5985107 4.5985107l-280.85022 0l0 0c-2.5397034 0 -4.5985107 -2.0588074 -4.5985107 -4.5985107z" fill-rule="evenodd"/><path fill="#000000" d="m438.4728 271.0992l0 -9.546875l6.90625 0l0 1.125l-5.640625 0l0 2.921875l5.28125 0l0 1.125l-5.28125 0l0 3.25l5.859375 0l0 1.125l-7.125 0zm8.88974 0l0 -9.546875l4.234375 0q1.265625 0 1.921875 0.265625q0.671875 0.25 1.0625 0.90625q0.40625 0.65625 0.40625 1.4375q0 1.015625 -0.65625 1.71875q-0.65625 0.6875 -2.03125 0.875q0.5 0.25 0.765625 0.484375q0.546875 0.5 1.046875 1.265625l1.65625 2.59375l-1.578125 0l-1.265625 -1.984375q-0.5625 -0.859375 -0.921875 -1.3125q-0.34375 -0.453125 -0.640625 -0.640625q-0.28125 -0.1875 -0.5625 -0.25q-0.21875 -0.046875 -0.703125 -0.046875l-1.46875 0l0 4.234375l-1.265625 0zm1.265625 -5.328125l2.71875 0q0.859375 0 1.34375 -0.171875q0.484375 -0.1875 0.734375 -0.578125q0.265625 -0.390625 0.265625 -0.859375q0 -0.671875 -0.5 -1.109375q-0.484375 -0.4375 -1.546875 -0.4375l-3.015625 0l0 3.15625zm7.2970276 5.328125l3.65625 -9.546875l1.359375 0l3.90625 9.546875l-1.4375 0l-1.109375 -2.890625l-3.984375 0l-1.046875 2.890625l-1.34375 0zm2.75 -3.921875l3.234375 0l-1.0 -2.640625q-0.453125 -1.203125 -0.671875 -1.96875q-0.1875 0.90625 -0.515625 1.8125l-1.046875 2.796875zm6.7491455 0.859375l1.203125 -0.109375q0.078125 0.71875 0.390625 1.1875q0.3125 0.453125 0.953125 0.734375q0.65625 0.28125 1.46875 0.28125q0.71875 0 1.265625 -0.21875q0.5625 -0.21875 0.828125 -0.578125q0.265625 -0.375 0.265625 -0.828125q0 -0.453125 -0.265625 -0.78125q-0.25 -0.328125 -0.84375 -0.5625q-0.390625 -0.15625 -1.703125 -0.46875q-1.3125 -0.3125 -1.84375 -0.59375q-0.671875 -0.359375 -1.015625 -0.890625q-0.328125 -0.53125 -0.328125 -1.1875q0 -0.71875 0.40625 -1.34375q0.40625 -0.625 1.1875 -0.953125q0.796875 -0.328125 1.765625 -0.328125q1.046875 0 1.859375 0.34375q0.8125 0.34375 1.25 1.015625q0.4375 0.65625 0.46875 1.484375l-1.203125 0.09375q-0.109375 -0.90625 -0.671875 -1.359375q-0.5625 -0.46875 -1.65625 -0.46875q-1.140625 0 -1.671875 0.421875q-0.515625 0.421875 -0.515625 1.015625q0 0.515625 0.359375 0.84375q0.375 0.328125 1.90625 0.6875q1.546875 0.34375 2.109375 0.59375q0.84375 0.390625 1.234375 0.984375q0.390625 0.578125 0.390625 1.359375q0 0.75 -0.4375 1.4375q-0.421875 0.671875 -1.25 1.046875q-0.8125 0.359375 -1.828125 0.359375q-1.296875 0 -2.171875 -0.375q-0.875 -0.375 -1.375 -1.125q-0.5 -0.765625 -0.53125 -1.71875zm15.5772705 -6.484375l1.265625 0l0 5.515625q0 1.4375 -0.328125 2.296875q-0.3125 0.84375 -1.171875 1.375q-0.84375 0.515625 -2.21875 0.515625q-1.34375 0 -2.203125 -0.453125q-0.84375 -0.46875 -1.21875 -1.34375q-0.359375 -0.875 -0.359375 -2.390625l0 -5.515625l1.265625 0l0 5.515625q0 1.234375 0.21875 1.828125q0.234375 0.59375 0.796875 0.921875q0.5625 0.3125 1.390625 0.3125q1.390625 0 1.96875 -0.625q0.59375 -0.640625 0.59375 -2.4375l0 -5.515625zm3.3907776 9.546875l0 -9.546875l4.234375 0q1.265625 0 1.921875 0.265625q0.671875 0.25 1.0625 0.90625q0.40625 0.65625 0.40625 1.4375q0 1.015625 -0.65625 1.71875q-0.65625 0.6875 -2.03125 0.875q0.5 0.25 0.765625 0.484375q0.546875 0.5 1.046875 1.265625l1.65625 2.59375l-1.578125 0l-1.265625 -1.984375q-0.5625 -0.859375 -0.921875 -1.3125q-0.34375 -0.453125 -0.640625 -0.640625q-0.28125 -0.1875 -0.5625 -0.25q-0.21875 -0.046875 -0.703125 -0.046875l-1.46875 0l0 4.234375l-1.265625 0zm1.265625 -5.328125l2.71875 0q0.859375 0 1.34375 -0.171875q0.484375 -0.1875 0.734375 -0.578125q0.265625 -0.390625 0.265625 -0.859375q0 -0.671875 -0.5 -1.109375q-0.484375 -0.4375 -1.546875 -0.4375l-3.015625 0l0 3.15625zm8.359528 5.328125l0 -9.546875l6.90625 0l0 1.125l-5.640625 0l0 2.921875l5.28125 0l0 1.125l-5.28125 0l0 3.25l5.859375 0l0 1.125l-7.125 0zm12.139618 -3.0625l1.203125 -0.109375q0.078125 0.71875 0.390625 1.1875q0.3125 0.453125 0.953125 0.734375q0.65625 0.28125 1.46875 0.28125q0.71875 0 1.265625 -0.21875q0.5625 -0.21875 0.828125 -0.578125q0.265625 -0.375 0.265625 -0.828125q0 -0.453125 -0.265625 -0.78125q-0.25 -0.328125 -0.84375 -0.5625q-0.390625 -0.15625 -1.703125 -0.46875q-1.3125 -0.3125 -1.84375 -0.59375q-0.671875 -0.359375 -1.015625 -0.890625q-0.328125 -0.53125 -0.328125 -1.1875q0 -0.71875 0.40625 -1.34375q0.40625 -0.625 1.1875 -0.953125q0.796875 -0.328125 1.765625 -0.328125q1.046875 0 1.859375 0.34375q0.8125 0.34375 1.25 1.015625q0.4375 0.65625 0.46875 1.484375l-1.203125 0.09375q-0.109375 -0.90625 -0.671875 -1.359375q-0.5625 -0.46875 -1.65625 -0.46875q-1.140625 0 -1.671875 0.421875q-0.515625 0.421875 -0.515625 1.015625q0 0.515625 0.359375 0.84375q0.375 0.328125 1.90625 0.6875q1.546875 0.34375 2.109375 0.59375q0.84375 0.390625 1.234375 0.984375q0.390625 0.578125 0.390625 1.359375q0 0.75 -0.4375 1.4375q-0.421875 0.671875 -1.25 1.046875q-0.8125 0.359375 -1.828125 0.359375q-1.296875 0 -2.171875 -0.375q-0.875 -0.375 -1.375 -1.125q-0.5 -0.765625 -0.53125 -1.71875zm9.342834 3.0625l0 -9.546875l6.90625 0l0 1.125l-5.640625 0l0 2.921875l5.28125 0l0 1.125l-5.28125 0l0 3.25l5.859375 0l0 1.125l-7.125 0zm11.2960205 0l0 -8.421875l-3.140625 0l0 -1.125l7.5625 0l0 1.125l-3.15625 0l0 8.421875l-1.265625 0zm14.853455 -1.125l0 1.125l-6.296875 0q-0.015625 -0.421875 0.140625 -0.8125q0.234375 -0.640625 0.765625 -1.265625q0.53125 -0.625 1.53125 -1.453125q1.5625 -1.265625 2.109375 -2.015625q0.546875 -0.75 0.546875 -1.40625q0 -0.703125 -0.5 -1.171875q-0.5 -0.484375 -1.296875 -0.484375q-0.859375 0 -1.375 0.515625q-0.5 0.5 -0.5 1.390625l-1.203125 -0.109375q0.125 -1.359375 0.921875 -2.0625q0.8125 -0.703125 2.171875 -0.703125q1.375 0 2.171875 0.765625q0.8125 0.75 0.8125 1.875q0 0.578125 -0.234375 1.140625q-0.234375 0.546875 -0.78125 1.15625q-0.546875 0.609375 -1.8125 1.671875q-1.046875 0.890625 -1.359375 1.21875q-0.296875 0.3125 -0.484375 0.625l4.671875 0z" fill-rule="nonzero"/><path fill="#000000" fill-opacity="0.0" d="m153.02362 252.50394l0 -60.06659l169.29135 0l0 -60.059387" fill-rule="evenodd"/><path stroke="#000000" stroke-width="1.0" stroke-linejoin="round" stroke-linecap="butt" d="m153.02362 246.50394l0 -54.066605l169.29135 0l0 -60.059372" fill-rule="evenodd"/><path fill="#000000" stroke="#000000" stroke-width="1.0" stroke-linecap="butt" d="m151.37189 246.50394l1.6517334 4.538101l1.6517334 -4.538101z" fill-rule="evenodd"/><path fill="#efefef" d="m136.45801 6.5275593l371.68503 0l0 47.90551l-371.68503 0z" fill-rule="evenodd"/><path stroke="#c72e49" stroke-width="1.0" stroke-linejoin="round" stroke-linecap="butt" d="m136.45801 6.5275593l371.68503 0l0 47.90551l-371.68503 0z" fill-rule="evenodd"/><path fill="#000000" d="m145.87988 33.720314l0 -0.8125l3.71875 -2.09375l-3.6875 -1.875l0 -0.765625l4.515625 2.375l0 0.515625l-4.546875 2.65625zm10.640747 0.5l0 -4.875l0.703125 0l0 0.484375q0.109375 -0.1875 0.265625 -0.3125q0.15625 -0.140625 0.34375 -0.203125q0.1875 -0.078125 0.375 -0.078125q0.21875 0 0.390625 0.09375q0.1875 0.078125 0.3125 0.25q0.125 0.15625 0.171875 0.375q0.09375 -0.21875 0.25 -0.375q0.171875 -0.171875 0.390625 -0.25q0.21875 -0.09375 0.453125 -0.09375q0.25 0 0.421875 0.09375q0.1875 0.09375 0.296875 0.265625q0.125 0.15625 0.171875 0.390625q0.0625 0.234375 0.046875 0.5l0 3.734375l-0.703125 0l0 -3.453125q0 -0.453125 -0.0625 -0.65625q-0.0625 -0.203125 -0.171875 -0.25q-0.09375 -0.0625 -0.21875 -0.0625q-0.203125 0 -0.390625 0.1875q-0.171875 0.1875 -0.28125 0.46875q-0.109375 0.265625 -0.109375 0.546875l0 3.21875l-0.71875 0l0 -3.390625q0 -0.609375 -0.109375 -0.8125q-0.109375 -0.203125 -0.421875 -0.203125q-0.125 0 -0.25 0.09375q-0.109375 0.078125 -0.21875 0.21875q-0.109375 0.140625 -0.171875 0.359375q-0.0625 0.203125 -0.0625 0.484375l0 3.25l-0.703125 0zm5.984436 0l0 -0.625l1.25 0l0 -3.625l-1.1875 0l0 -0.625l1.953125 0l0 4.25l1.140625 0l0 0.625l-3.15625 0zm1.59375 -5.890625q-0.21875 0 -0.390625 -0.15625q-0.15625 -0.171875 -0.15625 -0.390625q0 -0.234375 0.15625 -0.390625q0.15625 -0.15625 0.390625 -0.15625q0.234375 0 0.390625 0.171875q0.171875 0.15625 0.171875 0.375q0 0.21875 -0.171875 0.390625q-0.15625 0.15625 -0.390625 0.15625zm3.437561 5.890625l0 -4.875l0.75 0l0 0.875q0.1875 -0.3125 0.4375 -0.515625q0.265625 -0.21875 0.5625 -0.34375q0.3125 -0.125 0.65625 -0.125q0.390625 0 0.703125 0.203125q0.328125 0.203125 0.515625 0.65625q0.203125 0.4375 0.203125 1.171875l0 2.953125l-0.75 0l0 -2.9375q0 -0.5 -0.125 -0.796875q-0.109375 -0.3125 -0.3125 -0.4375q-0.203125 -0.140625 -0.453125 -0.140625q-0.25 0 -0.5 0.109375q-0.25 0.09375 -0.46875 0.296875q-0.203125 0.203125 -0.34375 0.484375q-0.125 0.265625 -0.125 0.625l0 2.796875l-0.75 0zm5.625061 0l0 -0.625l1.25 0l0 -3.625l-1.1875 0l0 -0.625l1.953125 0l0 4.25l1.140625 0l0 0.625l-3.15625 0zm1.59375 -5.890625q-0.21875 0 -0.390625 -0.15625q-0.15625 -0.171875 -0.15625 -0.390625q0 -0.234375 0.15625 -0.390625q0.15625 -0.15625 0.390625 -0.15625q0.234375 0 0.390625 0.171875q0.171875 0.15625 0.171875 0.375q0 0.21875 -0.171875 0.390625q-0.15625 0.15625 -0.390625 0.15625zm5.343811 5.96875q-0.671875 0 -1.1875 -0.3125q-0.5 -0.328125 -0.78125 -0.890625q-0.28125 -0.578125 -0.28125 -1.3125q0 -0.75 0.28125 -1.3125q0.28125 -0.578125 0.78125 -0.890625q0.515625 -0.328125 1.1875 -0.328125q0.65625 0 1.15625 0.328125q0.515625 0.3125 0.796875 0.890625q0.28125 0.5625 0.28125 1.3125q0 0.734375 -0.28125 1.3125q-0.28125 0.5625 -0.796875 0.890625q-0.5 0.3125 -1.15625 0.3125zm0 -0.625q0.421875 0 0.734375 -0.25q0.328125 -0.25 0.515625 -0.671875q0.1875 -0.421875 0.1875 -0.984375q0 -0.546875 -0.1875 -0.96875q-0.1875 -0.4375 -0.515625 -0.671875q-0.3125 -0.25 -0.734375 -0.25q-0.421875 0 -0.75 0.25q-0.328125 0.234375 -0.515625 0.671875q-0.1875 0.421875 -0.1875 0.96875q0 0.5625 0.1875 0.984375q0.1875 0.421875 0.515625 0.671875q0.328125 0.25 0.75 0.25zm5.687561 0.65625q-0.53125 0 -1.0 -0.1875q-0.46875 -0.203125 -0.828125 -0.625q-0.359375 -0.421875 -0.5625 -1.046875q-0.203125 -0.640625 -0.203125 -1.53125q0 -0.78125 0.140625 -1.359375q0.15625 -0.578125 0.40625 -0.96875q0.265625 -0.40625 0.59375 -0.640625q0.328125 -0.234375 0.6875 -0.328125q0.359375 -0.109375 0.734375 -0.109375q0.71875 0 1.21875 0.359375q0.515625 0.34375 0.78125 0.953125l-0.640625 0.296875l-0.09375 0.03125l-0.03125 -0.0625q0.03125 -0.09375 0 -0.15625q-0.03125 -0.078125 -0.125 -0.21875q-0.265625 -0.359375 -0.546875 -0.484375q-0.28125 -0.125 -0.59375 -0.125q-0.40625 0 -0.75 0.1875q-0.328125 0.1875 -0.578125 0.546875q-0.234375 0.34375 -0.359375 0.859375q-0.125 0.515625 -0.125 1.171875q0 0.625 0.140625 1.140625q0.15625 0.5 0.40625 0.875q0.25 0.375 0.578125 0.578125q0.34375 0.203125 0.71875 0.203125q0.265625 0 0.515625 -0.09375q0.25 -0.09375 0.46875 -0.28125q0.21875 -0.1875 0.359375 -0.4375l0.5625 0.359375q-0.328125 0.53125 -0.78125 0.8125q-0.4375 0.28125 -1.09375 0.28125l0 0zm3.140686 -0.109375l0 -0.625l1.4375 0l0 -5.84375l-1.375 0l0 -0.625l2.15625 0l0 6.46875l1.421875 0l0 0.625l-3.640625 0zm5.546936 0l0 -0.625l1.25 0l0 -3.625l-1.1875 0l0 -0.625l1.953125 0l0 4.25l1.140625 0l0 0.625l-3.15625 0zm1.59375 -5.890625q-0.21875 0 -0.390625 -0.15625q-0.15625 -0.171875 -0.15625 -0.390625q0 -0.234375 0.15625 -0.390625q0.15625 -0.15625 0.390625 -0.15625q0.234375 0 0.390625 0.171875q0.171875 0.15625 0.171875 0.375q0 0.21875 -0.171875 0.390625q-0.15625 0.15625 -0.390625 0.15625zm5.578186 6.0q-0.546875 0 -0.984375 -0.15625q-0.4375 -0.171875 -0.75 -0.484375q-0.3125 -0.328125 -0.484375 -0.796875q-0.171875 -0.484375 -0.171875 -1.09375q0 -0.609375 0.171875 -1.09375q0.1875 -0.484375 0.484375 -0.796875q0.3125 -0.328125 0.71875 -0.5q0.40625 -0.171875 0.875 -0.171875q0.40625 0 0.765625 0.140625q0.375 0.140625 0.640625 0.421875q0.265625 0.28125 0.40625 0.71875q0.15625 0.4375 0.15625 1.03125q0 0.078125 0 0.171875q0 0.09375 -0.015625 0.171875l-3.46875 0q0.03125 0.46875 0.171875 0.828125q0.140625 0.34375 0.359375 0.5625q0.21875 0.21875 0.515625 0.328125q0.296875 0.09375 0.625 0.09375q0.25 0 0.46875 -0.046875q0.234375 -0.0625 0.421875 -0.1875q0.203125 -0.125 0.359375 -0.3125l0.4375 0.421875q-0.203125 0.25 -0.46875 0.421875q-0.265625 0.171875 -0.578125 0.25q-0.296875 0.078125 -0.65625 0.078125zm-1.609375 -3.03125l2.671875 0q0 -0.34375 -0.09375 -0.609375q-0.09375 -0.265625 -0.265625 -0.46875q-0.15625 -0.203125 -0.390625 -0.296875q-0.21875 -0.109375 -0.515625 -0.109375q-0.25 0 -0.484375 0.09375q-0.21875 0.078125 -0.421875 0.265625q-0.1875 0.1875 -0.328125 0.46875q-0.125 0.28125 -0.171875 0.65625zm4.796936 2.921875l0 -4.875l0.75 0l0 0.875q0.1875 -0.3125 0.4375 -0.515625q0.265625 -0.21875 0.5625 -0.34375q0.3125 -0.125 0.65625 -0.125q0.390625 0 0.703125 0.203125q0.328125 0.203125 0.515625 0.65625q0.203125 0.4375 0.203125 1.171875l0 2.953125l-0.75 0l0 -2.9375q0 -0.5 -0.125 -0.796875q-0.109375 -0.3125 -0.3125 -0.4375q-0.203125 -0.140625 -0.453125 -0.140625q-0.25 0 -0.5 0.109375q-0.25 0.09375 -0.46875 0.296875q-0.203125 0.203125 -0.34375 0.484375q-0.125 0.265625 -0.125 0.625l0 2.796875l-0.75 0zm7.750061 0.078125q-0.46875 0 -0.765625 -0.15625q-0.296875 -0.171875 -0.46875 -0.5q-0.15625 -0.34375 -0.203125 -0.84375q-0.046875 -0.515625 -0.03125 -1.21875l0.140625 -3.46875l0.796875 -0.109375l0.109375 0l0 0.0625q-0.046875 0.078125 -0.09375 0.15625q-0.03125 0.078125 -0.046875 0.25l-0.09375 1.203125l0.03125 0.203125l-0.078125 1.75q-0.03125 0.8125 0.03125 1.265625q0.078125 0.4375 0.265625 0.609375q0.203125 0.15625 0.515625 0.15625q0.359375 0 0.625 -0.140625q0.28125 -0.140625 0.578125 -0.359375l0.234375 0.609375q-0.359375 0.265625 -0.75 0.40625q-0.375 0.125 -0.796875 0.125l0 0zm-2.4375 -4.953125l3.5 0l0 0.640625l-3.5 0l0 -0.640625zm7.109436 5.0q-0.25 0 -0.4375 -0.1875q-0.171875 -0.1875 -0.171875 -0.421875q0 -0.25 0.171875 -0.421875q0.1875 -0.1875 0.4375 -0.1875q0.25 0 0.421875 0.1875q0.1875 0.171875 0.1875 0.421875q0 0.234375 -0.1875 0.421875q-0.171875 0.1875 -0.421875 0.1875zm3.437561 1.65625l0 -6.65625l0.78125 0l0 0.96875q0.109375 -0.375 0.328125 -0.609375q0.21875 -0.234375 0.515625 -0.34375q0.296875 -0.109375 0.640625 -0.109375q0.390625 0 0.75 0.15625q0.375 0.140625 0.65625 0.453125q0.296875 0.3125 0.453125 0.78125q0.171875 0.46875 0.171875 1.109375q0 0.640625 -0.1875 1.125q-0.171875 0.484375 -0.46875 0.8125q-0.28125 0.328125 -0.65625 0.5q-0.359375 0.15625 -0.75 0.15625q-0.28125 0 -0.5625 -0.09375q-0.265625 -0.078125 -0.5 -0.25q-0.21875 -0.1875 -0.390625 -0.421875l0 2.421875l-0.78125 0zm2.109375 -2.328125q0.25 0 0.5 -0.09375q0.25 -0.09375 0.453125 -0.296875q0.203125 -0.21875 0.3125 -0.578125q0.125 -0.375 0.125 -0.921875q0 -0.59375 -0.15625 -1.0q-0.140625 -0.40625 -0.4375 -0.625q-0.28125 -0.234375 -0.6875 -0.25q-0.296875 -0.03125 -0.5625 0.078125q-0.25 0.109375 -0.453125 0.359375q-0.203125 0.234375 -0.3125 0.640625q-0.109375 0.40625 -0.109375 0.96875q0 0.34375 0.0625 0.625q0.078125 0.265625 0.1875 0.484375q0.125 0.203125 0.28125 0.34375q0.15625 0.125 0.359375 0.203125q0.203125 0.0625 0.4375 0.0625zm4.937561 0.671875q-0.296875 0 -0.546875 -0.09375q-0.25 -0.078125 -0.46875 -0.25q-0.203125 -0.1875 -0.359375 -0.453125q-0.140625 -0.265625 -0.21875 -0.640625q-0.078125 -0.375 -0.078125 -0.84375l0 -2.71875l0.75 0l0 2.71875q0 0.46875 0.078125 0.78125q0.09375 0.3125 0.25 0.515625q0.15625 0.1875 0.359375 0.28125q0.203125 0.078125 0.421875 0.078125q0.25 0 0.484375 -0.09375q0.234375 -0.109375 0.421875 -0.3125q0.1875 -0.203125 0.296875 -0.515625q0.109375 -0.328125 0.109375 -0.765625l0 -2.6875l0.75 0l0 4.125q0 0.1875 0.015625 0.375q0.015625 0.1875 0.078125 0.375l-0.734375 0q-0.046875 -0.125 -0.078125 -0.25q-0.015625 -0.125 -0.015625 -0.25q0 -0.125 0 -0.25q-0.125 0.203125 -0.28125 0.375q-0.15625 0.15625 -0.359375 0.265625q-0.203125 0.109375 -0.421875 0.171875q-0.21875 0.0625 -0.453125 0.0625zm6.156311 -0.046875q-0.46875 0 -0.765625 -0.15625q-0.296875 -0.171875 -0.46875 -0.5q-0.15625 -0.34375 -0.203125 -0.84375q-0.046875 -0.515625 -0.03125 -1.21875l0.140625 -3.46875l0.796875 -0.109375l0.109375 0l0 0.0625q-0.046875 0.078125 -0.09375 0.15625q-0.03125 0.078125 -0.046875 0.25l-0.09375 1.203125l0.03125 0.203125l-0.078125 1.75q-0.03125 0.8125 0.03125 1.265625q0.078125 0.4375 0.265625 0.609375q0.203125 0.15625 0.515625 0.15625q0.359375 0 0.625 -0.140625q0.28125 -0.140625 0.578125 -0.359375l0.234375 0.609375q-0.359375 0.265625 -0.75 0.40625q-0.375 0.125 -0.796875 0.125l0 0zm-2.4375 -4.953125l3.5 0l0 0.640625l-3.5 0l0 -0.640625zm7.250061 5.0q-0.765625 0 -1.296875 -0.390625q-0.53125 -0.40625 -0.8125 -1.15625q-0.28125 -0.765625 -0.28125 -1.859375q0 -1.0625 0.28125 -1.8125q0.28125 -0.765625 0.8125 -1.171875q0.53125 -0.421875 1.296875 -0.421875q0.765625 0 1.28125 0.421875q0.53125 0.40625 0.8125 1.171875q0.28125 0.75 0.28125 1.8125q0 1.09375 -0.28125 1.859375q-0.28125 0.75 -0.8125 1.15625q-0.515625 0.390625 -1.28125 0.390625zm0 -0.65625q0.5 0 0.859375 -0.3125q0.359375 -0.328125 0.546875 -0.9375q0.1875 -0.609375 0.1875 -1.5q0 -0.84375 -0.1875 -1.453125q-0.1875 -0.609375 -0.546875 -0.953125q-0.359375 -0.34375 -0.859375 -0.34375q-0.515625 0 -0.875 0.34375q-0.359375 0.34375 -0.546875 0.953125q-0.1875 0.609375 -0.1875 1.453125q0 0.890625 0.1875 1.5q0.1875 0.609375 0.546875 0.9375q0.359375 0.3125 0.875 0.3125zm5.484436 0.65625q-0.296875 0 -0.5625 -0.09375q-0.265625 -0.09375 -0.484375 -0.265625q-0.21875 -0.171875 -0.390625 -0.40625l-0.265625 0.640625l-0.484375 0l0 -7.09375l0.765625 0l0.109375 0l0 0.078125q-0.0625 0.0625 -0.078125 0.140625q-0.015625 0.078125 -0.015625 0.25l0 2.5q0.109375 -0.1875 0.265625 -0.34375q0.171875 -0.171875 0.359375 -0.28125q0.1875 -0.125 0.40625 -0.171875q0.21875 -0.0625 0.40625 -0.0625q0.453125 0 0.8125 0.15625q0.375 0.15625 0.640625 0.46875q0.265625 0.3125 0.40625 0.78125q0.15625 0.46875 0.15625 1.09375q0 0.65625 -0.171875 1.140625q-0.171875 0.484375 -0.46875 0.8125q-0.296875 0.328125 -0.65625 0.5q-0.359375 0.15625 -0.75 0.15625l0 0zm-0.09375 -0.6875q0.265625 0 0.5 -0.09375q0.234375 -0.09375 0.421875 -0.3125q0.203125 -0.21875 0.3125 -0.578125q0.109375 -0.375 0.109375 -0.890625q0 -0.484375 -0.09375 -0.84375q-0.09375 -0.359375 -0.28125 -0.59375q-0.171875 -0.234375 -0.421875 -0.34375q-0.234375 -0.109375 -0.515625 -0.109375q-0.40625 0 -0.703125 0.25q-0.296875 0.234375 -0.46875 0.671875q-0.171875 0.421875 -0.171875 0.984375q0 0.421875 0.0625 0.765625q0.078125 0.328125 0.234375 0.578125q0.15625 0.25 0.40625 0.390625q0.25 0.125 0.609375 0.125l0 0zm4.656311 2.421875q-0.453125 0 -0.875 -0.171875q-0.40625 -0.171875 -0.671875 -0.515625l0.421875 -0.578125l0.0625 -0.078125l0.0625 0.03125q0.03125 0.09375 0.0625 0.171875q0.03125 0.078125 0.140625 0.203125q0.15625 0.125 0.34375 0.1875q0.203125 0.078125 0.453125 0.078125q0.3125 0 0.5625 -0.140625q0.25 -0.140625 0.390625 -0.453125q0.140625 -0.296875 0.140625 -0.78125l0 -4.046875l-1.8125 0l0 -0.640625l2.59375 0l0 4.640625q0 0.734375 -0.265625 1.1875q-0.25 0.46875 -0.671875 0.6875q-0.421875 0.21875 -0.9375 0.21875l0 0zm1.421875 -7.75q-0.21875 0 -0.390625 -0.15625q-0.15625 -0.171875 -0.15625 -0.390625q0 -0.234375 0.15625 -0.390625q0.15625 -0.15625 0.390625 -0.15625q0.234375 0 0.390625 0.171875q0.171875 0.15625 0.171875 0.375q0 0.21875 -0.171875 0.390625q-0.15625 0.15625 -0.390625 0.15625zm4.750061 6.0q-0.546875 0 -0.984375 -0.15625q-0.4375 -0.171875 -0.75 -0.484375q-0.3125 -0.328125 -0.484375 -0.796875q-0.171875 -0.484375 -0.171875 -1.09375q0 -0.609375 0.171875 -1.09375q0.1875 -0.484375 0.484375 -0.796875q0.3125 -0.328125 0.71875 -0.5q0.40625 -0.171875 0.875 -0.171875q0.40625 0 0.765625 0.140625q0.375 0.140625 0.640625 0.421875q0.265625 0.28125 0.40625 0.71875q0.15625 0.4375 0.15625 1.03125q0 0.078125 0 0.171875q0 0.09375 -0.015625 0.171875l-3.46875 0q0.03125 0.46875 0.171875 0.828125q0.140625 0.34375 0.359375 0.5625q0.21875 0.21875 0.515625 0.328125q0.296875 0.09375 0.625 0.09375q0.25 0 0.46875 -0.046875q0.234375 -0.0625 0.421875 -0.1875q0.203125 -0.125 0.359375 -0.3125l0.4375 0.421875q-0.203125 0.25 -0.46875 0.421875q-0.265625 0.171875 -0.578125 0.25q-0.296875 0.078125 -0.65625 0.078125zm-1.609375 -3.03125l2.671875 0q0 -0.34375 -0.09375 -0.609375q-0.09375 -0.265625 -0.265625 -0.46875q-0.15625 -0.203125 -0.390625 -0.296875q-0.21875 -0.109375 -0.515625 -0.109375q-0.25 0 -0.484375 0.09375q-0.21875 0.078125 -0.421875 0.265625q-0.1875 0.1875 -0.328125 0.46875q-0.125 0.28125 -0.171875 0.65625zm7.062561 3.046875q-0.53125 0 -0.984375 -0.1875q-0.4375 -0.203125 -0.765625 -0.546875q-0.328125 -0.34375 -0.515625 -0.796875q-0.171875 -0.46875 -0.171875 -1.015625q0 -0.546875 0.171875 -1.015625q0.1875 -0.46875 0.515625 -0.796875q0.328125 -0.34375 0.765625 -0.53125q0.453125 -0.203125 0.984375 -0.203125q0.59375 0 1.0625 0.25q0.484375 0.234375 0.78125 0.65625l-0.484375 0.46875l-0.078125 0.078125l-0.046875 -0.046875q0 -0.09375 -0.046875 -0.15625q-0.03125 -0.078125 -0.15625 -0.21875q-0.234375 -0.203125 -0.5 -0.28125q-0.265625 -0.09375 -0.625 -0.09375q-0.3125 0 -0.59375 0.125q-0.265625 0.125 -0.484375 0.375q-0.21875 0.234375 -0.34375 0.578125q-0.125 0.328125 -0.125 0.75q0 0.421875 0.125 0.765625q0.125 0.34375 0.34375 0.609375q0.234375 0.25 0.546875 0.390625q0.3125 0.140625 0.671875 0.140625q0.25 0 0.46875 -0.0625q0.21875 -0.078125 0.421875 -0.203125q0.203125 -0.140625 0.375 -0.328125l0.453125 0.515625q-0.359375 0.390625 -0.8125 0.59375q-0.4375 0.1875 -0.953125 0.1875l0 0zm5.484436 -0.046875q-0.46875 0 -0.765625 -0.15625q-0.296875 -0.171875 -0.46875 -0.5q-0.15625 -0.34375 -0.203125 -0.84375q-0.046875 -0.515625 -0.03125 -1.21875l0.140625 -3.46875l0.796875 -0.109375l0.109375 0l0 0.0625q-0.046875 0.078125 -0.09375 0.15625q-0.03125 0.078125 -0.046875 0.25l-0.09375 1.203125l0.03125 0.203125l-0.078125 1.75q-0.03125 0.8125 0.03125 1.265625q0.078125 0.4375 0.265625 0.609375q0.203125 0.15625 0.515625 0.15625q0.359375 0 0.625 -0.140625q0.28125 -0.140625 0.578125 -0.359375l0.234375 0.609375q-0.359375 0.265625 -0.75 0.40625q-0.375 0.125 -0.796875 0.125l0 0zm-2.4375 -4.953125l3.5 0l0 0.640625l-3.5 0l0 -0.640625zm8.781311 5.984375q-0.875 -0.421875 -1.53125 -1.109375q-0.65625 -0.703125 -1.015625 -1.578125q-0.359375 -0.890625 -0.359375 -1.828125q0 -0.953125 0.34375 -1.8125q0.359375 -0.859375 1.0 -1.53125q0.640625 -0.671875 1.5 -1.078125l0.203125 0.65625q-0.5 0.28125 -0.921875 0.6875q-0.421875 0.40625 -0.734375 0.890625q-0.296875 0.484375 -0.46875 1.0625q-0.15625 0.5625 -0.15625 1.15625q0 0.59375 0.15625 1.15625q0.171875 0.5625 0.46875 1.078125q0.3125 0.5 0.75 0.921875q0.4375 0.40625 0.96875 0.6875l-0.203125 0.640625zm2.562561 -8.203125l0.859375 0q0 0.640625 -0.015625 1.03125q-0.015625 0.375 -0.046875 0.640625q-0.015625 0.265625 -0.046875 0.515625q-0.03125 0.234375 -0.0625 0.5625l-0.515625 0q-0.03125 -0.328125 -0.0625 -0.5625q-0.03125 -0.25 -0.0625 -0.5q-0.015625 -0.265625 -0.03125 -0.65625q-0.015625 -0.390625 -0.015625 -1.03125zm1.59375 0l0.859375 0q0 0.640625 -0.015625 1.03125q-0.015625 0.375 -0.046875 0.640625q-0.015625 0.265625 -0.046875 0.515625q-0.03125 0.234375 -0.0625 0.5625l-0.515625 0q-0.03125 -0.328125 -0.0625 -0.5625q-0.03125 -0.25 -0.0625 -0.5q-0.015625 -0.265625 -0.03125 -0.65625q-0.015625 -0.390625 -0.015625 -1.03125zm2.703186 7.09375l0 -4.875l0.703125 0l0 0.484375q0.109375 -0.1875 0.265625 -0.3125q0.15625 -0.140625 0.34375 -0.203125q0.1875 -0.078125 0.375 -0.078125q0.21875 0 0.390625 0.09375q0.1875 0.078125 0.3125 0.25q0.125 0.15625 0.171875 0.375q0.09375 -0.21875 0.25 -0.375q0.171875 -0.171875 0.390625 -0.25q0.21875 -0.09375 0.453125 -0.09375q0.25 0 0.421875 0.09375q0.1875 0.09375 0.296875 0.265625q0.125 0.15625 0.171875 0.390625q0.0625 0.234375 0.046875 0.5l0 3.734375l-0.703125 0l0 -3.453125q0 -0.453125 -0.0625 -0.65625q-0.0625 -0.203125 -0.171875 -0.25q-0.09375 -0.0625 -0.21875 -0.0625q-0.203125 0 -0.390625 0.1875q-0.171875 0.1875 -0.28125 0.46875q-0.109375 0.265625 -0.109375 0.546875l0 3.21875l-0.71875 0l0 -3.390625q0 -0.609375 -0.109375 -0.8125q-0.109375 -0.203125 -0.421875 -0.203125q-0.125 0 -0.25 0.09375q-0.109375 0.078125 -0.21875 0.21875q-0.109375 0.140625 -0.171875 0.359375q-0.0625 0.203125 -0.0625 0.484375l0 3.25l-0.703125 0zm6.281311 1.859375q-0.34375 0 -0.625 -0.109375q-0.28125 -0.109375 -0.5 -0.3125l0.328125 -0.515625l0.0625 -0.09375l0.0625 0.03125q0.03125 0.09375 0.078125 0.140625q0.0625 0.0625 0.203125 0.15625q0.09375 0.03125 0.203125 0.046875q0.109375 0.015625 0.21875 0.015625q0.296875 0 0.484375 -0.140625q0.203125 -0.125 0.34375 -0.421875q0.15625 -0.28125 0.296875 -0.71875l0.921875 -2.875q0.171875 -0.484375 0.3125 -0.953125q0.15625 -0.484375 0.203125 -0.984375l0.765625 0q-0.078125 0.5 -0.234375 1.0q-0.15625 0.5 -0.34375 1.0l-1.203125 3.421875q-0.265625 0.71875 -0.671875 1.015625q-0.390625 0.296875 -0.90625 0.296875l0 0zm-0.875 -6.734375l0.8125 0l1.5625 4.0625l-0.328125 0.953125l-2.046875 -5.015625zm7.671936 5.0q-0.296875 0 -0.5625 -0.09375q-0.265625 -0.09375 -0.484375 -0.265625q-0.21875 -0.171875 -0.390625 -0.40625l-0.265625 0.640625l-0.484375 0l0 -7.09375l0.765625 0l0.109375 0l0 0.078125q-0.0625 0.0625 -0.078125 0.140625q-0.015625 0.078125 -0.015625 0.25l0 2.5q0.109375 -0.1875 0.265625 -0.34375q0.171875 -0.171875 0.359375 -0.28125q0.1875 -0.125 0.40625 -0.171875q0.21875 -0.0625 0.40625 -0.0625q0.453125 0 0.8125 0.15625q0.375 0.15625 0.640625 0.46875q0.265625 0.3125 0.40625 0.78125q0.15625 0.46875 0.15625 1.09375q0 0.65625 -0.171875 1.140625q-0.171875 0.484375 -0.46875 0.8125q-0.296875 0.328125 -0.65625 0.5q-0.359375 0.15625 -0.75 0.15625l0 0zm-0.09375 -0.6875q0.265625 0 0.5 -0.09375q0.234375 -0.09375 0.421875 -0.3125q0.203125 -0.21875 0.3125 -0.578125q0.109375 -0.375 0.109375 -0.890625q0 -0.484375 -0.09375 -0.84375q-0.09375 -0.359375 -0.28125 -0.59375q-0.171875 -0.234375 -0.421875 -0.34375q-0.234375 -0.109375 -0.515625 -0.109375q-0.40625 0 -0.703125 0.25q-0.296875 0.234375 -0.46875 0.671875q-0.171875 0.421875 -0.171875 0.984375q0 0.421875 0.0625 0.765625q0.078125 0.328125 0.234375 0.578125q0.15625 0.25 0.40625 0.390625q0.25 0.125 0.609375 0.125l0 0zm4.953186 0.6875q-0.296875 0 -0.546875 -0.09375q-0.25 -0.078125 -0.46875 -0.25q-0.203125 -0.1875 -0.359375 -0.453125q-0.140625 -0.265625 -0.21875 -0.640625q-0.078125 -0.375 -0.078125 -0.84375l0 -2.71875l0.75 0l0 2.71875q0 0.46875 0.078125 0.78125q0.09375 0.3125 0.25 0.515625q0.15625 0.1875 0.359375 0.28125q0.203125 0.078125 0.421875 0.078125q0.25 0 0.484375 -0.09375q0.234375 -0.109375 0.421875 -0.3125q0.1875 -0.203125 0.296875 -0.515625q0.109375 -0.328125 0.109375 -0.765625l0 -2.6875l0.75 0l0 4.125q0 0.1875 0.015625 0.375q0.015625 0.1875 0.078125 0.375l-0.734375 0q-0.046875 -0.125 -0.078125 -0.25q-0.015625 -0.125 -0.015625 -0.25q0 -0.125 0 -0.25q-0.125 0.203125 -0.28125 0.375q-0.15625 0.15625 -0.359375 0.265625q-0.203125 0.109375 -0.421875 0.171875q-0.21875 0.0625 -0.453125 0.0625zm6.000061 0q-0.53125 0 -0.984375 -0.1875q-0.4375 -0.203125 -0.765625 -0.546875q-0.328125 -0.34375 -0.515625 -0.796875q-0.171875 -0.46875 -0.171875 -1.015625q0 -0.546875 0.171875 -1.015625q0.1875 -0.46875 0.515625 -0.796875q0.328125 -0.34375 0.765625 -0.53125q0.453125 -0.203125 0.984375 -0.203125q0.59375 0 1.0625 0.25q0.484375 0.234375 0.78125 0.65625l-0.484375 0.46875l-0.078125 0.078125l-0.046875 -0.046875q0 -0.09375 -0.046875 -0.15625q-0.03125 -0.078125 -0.15625 -0.21875q-0.234375 -0.203125 -0.5 -0.28125q-0.265625 -0.09375 -0.625 -0.09375q-0.3125 0 -0.59375 0.125q-0.265625 0.125 -0.484375 0.375q-0.21875 0.234375 -0.34375 0.578125q-0.125 0.328125 -0.125 0.75q0 0.421875 0.125 0.765625q0.125 0.34375 0.34375 0.609375q0.234375 0.25 0.546875 0.390625q0.3125 0.140625 0.671875 0.140625q0.25 0 0.46875 -0.0625q0.21875 -0.078125 0.421875 -0.203125q0.203125 -0.140625 0.375 -0.328125l0.453125 0.515625q-0.359375 0.390625 -0.8125 0.59375q-0.4375 0.1875 -0.953125 0.1875l0 0zm4.421936 -2.5625l-0.640625 0.59375l0 1.84375l-0.78125 0l0 -7.09375l0.765625 0l0.109375 0l0 0.078125q-0.0625 0.0625 -0.078125 0.140625q-0.015625 0.078125 -0.015625 0.25l0 4.0l2.4375 -2.265625q0.0625 0.015625 0.125 0.03125q0.0625 0 0.125 0.015625q0.078125 0 0.15625 0q0.078125 0 0.15625 0l0.28125 0l-2.046875 1.9375l2.390625 2.90625l-1.0 0.046875l-1.984375 -2.484375zm6.109436 2.546875q-0.546875 0 -0.984375 -0.15625q-0.4375 -0.171875 -0.75 -0.484375q-0.3125 -0.328125 -0.484375 -0.796875q-0.171875 -0.484375 -0.171875 -1.09375q0 -0.609375 0.171875 -1.09375q0.1875 -0.484375 0.484375 -0.796875q0.3125 -0.328125 0.71875 -0.5q0.40625 -0.171875 0.875 -0.171875q0.40625 0 0.765625 0.140625q0.375 0.140625 0.640625 0.421875q0.265625 0.28125 0.40625 0.71875q0.15625 0.4375 0.15625 1.03125q0 0.078125 0 0.171875q0 0.09375 -0.015625 0.171875l-3.46875 0q0.03125 0.46875 0.171875 0.828125q0.140625 0.34375 0.359375 0.5625q0.21875 0.21875 0.515625 0.328125q0.296875 0.09375 0.625 0.09375q0.25 0 0.46875 -0.046875q0.234375 -0.0625 0.421875 -0.1875q0.203125 -0.125 0.359375 -0.3125l0.4375 0.421875q-0.203125 0.25 -0.46875 0.421875q-0.265625 0.171875 -0.578125 0.25q-0.296875 0.078125 -0.65625 0.078125zm-1.609375 -3.03125l2.671875 0q0 -0.34375 -0.09375 -0.609375q-0.09375 -0.265625 -0.265625 -0.46875q-0.15625 -0.203125 -0.390625 -0.296875q-0.21875 -0.109375 -0.515625 -0.109375q-0.25 0 -0.484375 0.09375q-0.21875 0.078125 -0.421875 0.265625q-0.1875 0.1875 -0.328125 0.46875q-0.125 0.28125 -0.171875 0.65625zm7.218811 3.0q-0.46875 0 -0.765625 -0.15625q-0.296875 -0.171875 -0.46875 -0.5q-0.15625 -0.34375 -0.203125 -0.84375q-0.046875 -0.515625 -0.03125 -1.21875l0.140625 -3.46875l0.796875 -0.109375l0.109375 0l0 0.0625q-0.046875 0.078125 -0.09375 0.15625q-0.03125 0.078125 -0.046875 0.25l-0.09375 1.203125l0.03125 0.203125l-0.078125 1.75q-0.03125 0.8125 0.03125 1.265625q0.078125 0.4375 0.265625 0.609375q0.203125 0.15625 0.515625 0.15625q0.359375 0 0.625 -0.140625q0.28125 -0.140625 0.578125 -0.359375l0.234375 0.609375q-0.359375 0.265625 -0.75 0.40625q-0.375 0.125 -0.796875 0.125l0 0zm-2.4375 -4.953125l3.5 0l0 0.640625l-3.5 0l0 -0.640625zm5.890686 5.328125l-0.625 -0.3125l3.328125 -7.234375l0.640625 0.34375l-3.34375 7.203125zm4.421936 -0.453125l0 -4.875l0.703125 0l0 0.484375q0.109375 -0.1875 0.265625 -0.3125q0.15625 -0.140625 0.34375 -0.203125q0.1875 -0.078125 0.375 -0.078125q0.21875 0 0.390625 0.09375q0.1875 0.078125 0.3125 0.25q0.125 0.15625 0.171875 0.375q0.09375 -0.21875 0.25 -0.375q0.171875 -0.171875 0.390625 -0.25q0.21875 -0.09375 0.453125 -0.09375q0.25 0 0.421875 0.09375q0.1875 0.09375 0.296875 0.265625q0.125 0.15625 0.171875 0.390625q0.0625 0.234375 0.046875 0.5l0 3.734375l-0.703125 0l0 -3.453125q0 -0.453125 -0.0625 -0.65625q-0.0625 -0.203125 -0.171875 -0.25q-0.09375 -0.0625 -0.21875 -0.0625q-0.203125 0 -0.390625 0.1875q-0.171875 0.1875 -0.28125 0.46875q-0.109375 0.265625 -0.109375 0.546875l0 3.21875l-0.71875 0l0 -3.390625q0 -0.609375 -0.109375 -0.8125q-0.109375 -0.203125 -0.421875 -0.203125q-0.125 0 -0.25 0.09375q-0.109375 0.078125 -0.21875 0.21875q-0.109375 0.140625 -0.171875 0.359375q-0.0625 0.203125 -0.0625 0.484375l0 3.25l-0.703125 0zm6.281311 1.859375q-0.34375 0 -0.625 -0.109375q-0.28125 -0.109375 -0.5 -0.3125l0.328125 -0.515625l0.0625 -0.09375l0.0625 0.03125q0.03125 0.09375 0.078125 0.140625q0.0625 0.0625 0.203125 0.15625q0.09375 0.03125 0.203125 0.046875q0.109375 0.015625 0.21875 0.015625q0.296875 0 0.484375 -0.140625q0.203125 -0.125 0.34375 -0.421875q0.15625 -0.28125 0.296875 -0.71875l0.921875 -2.875q0.171875 -0.484375 0.3125 -0.953125q0.15625 -0.484375 0.203125 -0.984375l0.765625 0q-0.078125 0.5 -0.234375 1.0q-0.15625 0.5 -0.34375 1.0l-1.203125 3.421875q-0.265625 0.71875 -0.671875 1.015625q-0.390625 0.296875 -0.90625 0.296875l0 0zm-0.875 -6.734375l0.8125 0l1.5625 4.0625l-0.328125 0.953125l-2.046875 -5.015625zm7.343811 4.984375q-0.375 0 -0.734375 -0.15625q-0.359375 -0.171875 -0.65625 -0.484375q-0.28125 -0.328125 -0.453125 -0.8125q-0.171875 -0.484375 -0.171875 -1.140625q0 -0.671875 0.171875 -1.140625q0.1875 -0.484375 0.484375 -0.78125q0.296875 -0.296875 0.65625 -0.4375q0.359375 -0.15625 0.734375 -0.15625q0.34375 0 0.609375 0.109375q0.28125 0.109375 0.484375 0.296875q0.21875 0.1875 0.328125 0.4375l0 -2.9375l0.703125 0l0.109375 0l0 0.078125q-0.0625 0.0625 -0.078125 0.140625q-0.015625 0.078125 -0.015625 0.25l0 5.875q0 0.1875 0.015625 0.375q0.015625 0.1875 0.09375 0.375l-0.75 0q-0.0625 -0.125 -0.078125 -0.25q-0.015625 -0.140625 -0.03125 -0.25q0 -0.125 0 -0.25q-0.15625 0.25 -0.375 0.453125q-0.203125 0.1875 -0.46875 0.296875q-0.265625 0.109375 -0.578125 0.109375l0 0zm0.109375 -0.671875q0.359375 0 0.59375 -0.140625q0.25 -0.15625 0.390625 -0.40625q0.15625 -0.265625 0.21875 -0.609375q0.078125 -0.34375 0.078125 -0.75q0 -0.53125 -0.140625 -0.96875q-0.140625 -0.4375 -0.4375 -0.6875q-0.296875 -0.25 -0.765625 -0.25q-0.3125 0 -0.578125 0.125q-0.25 0.125 -0.421875 0.359375q-0.15625 0.234375 -0.25 0.5625q-0.078125 0.328125 -0.078125 0.734375q0 0.59375 0.15625 1.0625q0.171875 0.453125 0.46875 0.71875q0.3125 0.25 0.765625 0.25l0 0zm4.968811 0.6875q-0.828125 0 -1.28125 -0.375q-0.453125 -0.390625 -0.453125 -0.96875q0 -0.40625 0.1875 -0.71875q0.203125 -0.3125 0.53125 -0.53125q0.34375 -0.21875 0.78125 -0.328125q0.453125 -0.125 0.953125 -0.125q0.1875 0 0.375 0.015625q0.1875 0 0.390625 0.015625q0.203125 0.015625 0.4375 0.046875l0.015625 0.578125q-0.1875 -0.03125 -0.390625 -0.046875q-0.1875 -0.015625 -0.390625 -0.015625q-0.1875 -0.015625 -0.375 -0.015625q-0.375 0 -0.703125 0.0625q-0.3125 0.0625 -0.546875 0.203125q-0.234375 0.125 -0.359375 0.328125q-0.125 0.1875 -0.125 0.484375q0 0.21875 0.078125 0.375q0.078125 0.15625 0.203125 0.25q0.140625 0.09375 0.328125 0.140625q0.1875 0.03125 0.421875 0.03125q0.40625 0 0.734375 -0.125q0.328125 -0.140625 0.546875 -0.390625q0.234375 -0.265625 0.34375 -0.640625q0.125 -0.375 0.125 -0.84375q0 -0.734375 -0.171875 -1.125q-0.171875 -0.40625 -0.515625 -0.578125q-0.328125 -0.171875 -0.84375 -0.171875q-0.359375 0 -0.703125 0.140625q-0.328125 0.125 -0.609375 0.40625l-0.375 -0.5q0.34375 -0.34375 0.78125 -0.5q0.453125 -0.171875 0.953125 -0.171875q0.484375 0 0.875 0.125q0.40625 0.109375 0.6875 0.375q0.28125 0.265625 0.421875 0.734375q0.15625 0.453125 0.15625 1.140625l0 2.59375l-0.828125 0l0 -0.75q-0.140625 0.265625 -0.34375 0.4375q-0.1875 0.171875 -0.40625 0.265625q-0.21875 0.09375 -0.453125 0.125q-0.234375 0.046875 -0.453125 0.046875zm6.265686 -0.046875q-0.46875 0 -0.765625 -0.15625q-0.296875 -0.171875 -0.46875 -0.5q-0.15625 -0.34375 -0.203125 -0.84375q-0.046875 -0.515625 -0.03125 -1.21875l0.140625 -3.46875l0.796875 -0.109375l0.109375 0l0 0.0625q-0.046875 0.078125 -0.09375 0.15625q-0.03125 0.078125 -0.046875 0.25l-0.09375 1.203125l0.03125 0.203125l-0.078125 1.75q-0.03125 0.8125 0.03125 1.265625q0.078125 0.4375 0.265625 0.609375q0.203125 0.15625 0.515625 0.15625q0.359375 0 0.625 -0.140625q0.28125 -0.140625 0.578125 -0.359375l0.234375 0.609375q-0.359375 0.265625 -0.75 0.40625q-0.375 0.125 -0.796875 0.125l0 0zm-2.4375 -4.953125l3.5 0l0 0.640625l-3.5 0l0 -0.640625zm6.828186 5.0q-0.828125 0 -1.28125 -0.375q-0.453125 -0.390625 -0.453125 -0.96875q0 -0.40625 0.1875 -0.71875q0.203125 -0.3125 0.53125 -0.53125q0.34375 -0.21875 0.78125 -0.328125q0.453125 -0.125 0.953125 -0.125q0.1875 0 0.375 0.015625q0.1875 0 0.390625 0.015625q0.203125 0.015625 0.4375 0.046875l0.015625 0.578125q-0.1875 -0.03125 -0.390625 -0.046875q-0.1875 -0.015625 -0.390625 -0.015625q-0.1875 -0.015625 -0.375 -0.015625q-0.375 0 -0.703125 0.0625q-0.3125 0.0625 -0.546875 0.203125q-0.234375 0.125 -0.359375 0.328125q-0.125 0.1875 -0.125 0.484375q0 0.21875 0.078125 0.375q0.078125 0.15625 0.203125 0.25q0.140625 0.09375 0.328125 0.140625q0.1875 0.03125 0.421875 0.03125q0.40625 0 0.734375 -0.125q0.328125 -0.140625 0.546875 -0.390625q0.234375 -0.265625 0.34375 -0.640625q0.125 -0.375 0.125 -0.84375q0 -0.734375 -0.171875 -1.125q-0.171875 -0.40625 -0.515625 -0.578125q-0.328125 -0.171875 -0.84375 -0.171875q-0.359375 0 -0.703125 0.140625q-0.328125 0.125 -0.609375 0.40625l-0.375 -0.5q0.34375 -0.34375 0.78125 -0.5q0.453125 -0.171875 0.953125 -0.171875q0.484375 0 0.875 0.125q0.40625 0.109375 0.6875 0.375q0.28125 0.265625 0.421875 0.734375q0.15625 0.453125 0.15625 1.140625l0 2.59375l-0.828125 0l0 -0.75q-0.140625 0.265625 -0.34375 0.4375q-0.1875 0.171875 -0.40625 0.265625q-0.21875 0.09375 -0.453125 0.125q-0.234375 0.046875 -0.453125 0.046875zm4.390686 0.328125l-0.625 -0.3125l3.328125 -7.234375l0.640625 0.34375l-3.34375 7.203125zm4.421936 -0.453125l0 -4.875l0.703125 0l0 0.484375q0.109375 -0.1875 0.265625 -0.3125q0.15625 -0.140625 0.34375 -0.203125q0.1875 -0.078125 0.375 -0.078125q0.21875 0 0.390625 0.09375q0.1875 0.078125 0.3125 0.25q0.125 0.15625 0.171875 0.375q0.09375 -0.21875 0.25 -0.375q0.171875 -0.171875 0.390625 -0.25q0.21875 -0.09375 0.453125 -0.09375q0.25 0 0.421875 0.09375q0.1875 0.09375 0.296875 0.265625q0.125 0.15625 0.171875 0.390625q0.0625 0.234375 0.046875 0.5l0 3.734375l-0.703125 0l0 -3.453125q0 -0.453125 -0.0625 -0.65625q-0.0625 -0.203125 -0.171875 -0.25q-0.09375 -0.0625 -0.21875 -0.0625q-0.203125 0 -0.390625 0.1875q-0.171875 0.1875 -0.28125 0.46875q-0.109375 0.265625 -0.109375 0.546875l0 3.21875l-0.71875 0l0 -3.390625q0 -0.609375 -0.109375 -0.8125q-0.109375 -0.203125 -0.421875 -0.203125q-0.125 0 -0.25 0.09375q-0.109375 0.078125 -0.21875 0.21875q-0.109375 0.140625 -0.171875 0.359375q-0.0625 0.203125 -0.0625 0.484375l0 3.25l-0.703125 0zm6.281311 1.859375q-0.34375 0 -0.625 -0.109375q-0.28125 -0.109375 -0.5 -0.3125l0.328125 -0.515625l0.0625 -0.09375l0.0625 0.03125q0.03125 0.09375 0.078125 0.140625q0.0625 0.0625 0.203125 0.15625q0.09375 0.03125 0.203125 0.046875q0.109375 0.015625 0.21875 0.015625q0.296875 0 0.484375 -0.140625q0.203125 -0.125 0.34375 -0.421875q0.15625 -0.28125 0.296875 -0.71875l0.921875 -2.875q0.171875 -0.484375 0.3125 -0.953125q0.15625 -0.484375 0.203125 -0.984375l0.765625 0q-0.078125 0.5 -0.234375 1.0q-0.15625 0.5 -0.34375 1.0l-1.203125 3.421875q-0.265625 0.71875 -0.671875 1.015625q-0.390625 0.296875 -0.90625 0.296875l0 0zm-0.875 -6.734375l0.8125 0l1.5625 4.0625l-0.328125 0.953125l-2.046875 -5.015625zm7.515686 4.953125q-0.671875 0 -1.1875 -0.3125q-0.5 -0.328125 -0.78125 -0.890625q-0.28125 -0.578125 -0.28125 -1.3125q0 -0.75 0.28125 -1.3125q0.28125 -0.578125 0.78125 -0.890625q0.515625 -0.328125 1.1875 -0.328125q0.65625 0 1.15625 0.328125q0.515625 0.3125 0.796875 0.890625q0.28125 0.5625 0.28125 1.3125q0 0.734375 -0.28125 1.3125q-0.28125 0.5625 -0.796875 0.890625q-0.5 0.3125 -1.15625 0.3125zm0 -0.625q0.421875 0 0.734375 -0.25q0.328125 -0.25 0.515625 -0.671875q0.1875 -0.421875 0.1875 -0.984375q0 -0.546875 -0.1875 -0.96875q-0.1875 -0.4375 -0.515625 -0.671875q-0.3125 -0.25 -0.734375 -0.25q-0.421875 0 -0.75 0.25q-0.328125 0.234375 -0.515625 0.671875q-0.1875 0.421875 -0.1875 0.96875q0 0.5625 0.1875 0.984375q0.1875 0.421875 0.515625 0.671875q0.328125 0.25 0.75 0.25zm5.484436 0.671875q-0.296875 0 -0.5625 -0.09375q-0.265625 -0.09375 -0.484375 -0.265625q-0.21875 -0.171875 -0.390625 -0.40625l-0.265625 0.640625l-0.484375 0l0 -7.09375l0.765625 0l0.109375 0l0 0.078125q-0.0625 0.0625 -0.078125 0.140625q-0.015625 0.078125 -0.015625 0.25l0 2.5q0.109375 -0.1875 0.265625 -0.34375q0.171875 -0.171875 0.359375 -0.28125q0.1875 -0.125 0.40625 -0.171875q0.21875 -0.0625 0.40625 -0.0625q0.453125 0 0.8125 0.15625q0.375 0.15625 0.640625 0.46875q0.265625 0.3125 0.40625 0.78125q0.15625 0.46875 0.15625 1.09375q0 0.65625 -0.171875 1.140625q-0.171875 0.484375 -0.46875 0.8125q-0.296875 0.328125 -0.65625 0.5q-0.359375 0.15625 -0.75 0.15625l0 0zm-0.09375 -0.6875q0.265625 0 0.5 -0.09375q0.234375 -0.09375 0.421875 -0.3125q0.203125 -0.21875 0.3125 -0.578125q0.109375 -0.375 0.109375 -0.890625q0 -0.484375 -0.09375 -0.84375q-0.09375 -0.359375 -0.28125 -0.59375q-0.171875 -0.234375 -0.421875 -0.34375q-0.234375 -0.109375 -0.515625 -0.109375q-0.40625 0 -0.703125 0.25q-0.296875 0.234375 -0.46875 0.671875q-0.171875 0.421875 -0.171875 0.984375q0 0.421875 0.0625 0.765625q0.078125 0.328125 0.234375 0.578125q0.15625 0.25 0.40625 0.390625q0.25 0.125 0.609375 0.125l0 0zm4.656311 2.421875q-0.453125 0 -0.875 -0.171875q-0.40625 -0.171875 -0.671875 -0.515625l0.421875 -0.578125l0.0625 -0.078125l0.0625 0.03125q0.03125 0.09375 0.0625 0.171875q0.03125 0.078125 0.140625 0.203125q0.15625 0.125 0.34375 0.1875q0.203125 0.078125 0.453125 0.078125q0.3125 0 0.5625 -0.140625q0.25 -0.140625 0.390625 -0.453125q0.140625 -0.296875 0.140625 -0.78125l0 -4.046875l-1.8125 0l0 -0.640625l2.59375 0l0 4.640625q0 0.734375 -0.265625 1.1875q-0.25 0.46875 -0.671875 0.6875q-0.421875 0.21875 -0.9375 0.21875l0 0zm1.421875 -7.75q-0.21875 0 -0.390625 -0.15625q-0.15625 -0.171875 -0.15625 -0.390625q0 -0.234375 0.15625 -0.390625q0.15625 -0.15625 0.390625 -0.15625q0.234375 0 0.390625 0.171875q0.171875 0.15625 0.171875 0.375q0 0.21875 -0.171875 0.390625q-0.15625 0.15625 -0.390625 0.15625zm4.750061 6.0q-0.546875 0 -0.984375 -0.15625q-0.4375 -0.171875 -0.75 -0.484375q-0.3125 -0.328125 -0.484375 -0.796875q-0.171875 -0.484375 -0.171875 -1.09375q0 -0.609375 0.171875 -1.09375q0.1875 -0.484375 0.484375 -0.796875q0.3125 -0.328125 0.71875 -0.5q0.40625 -0.171875 0.875 -0.171875q0.40625 0 0.765625 0.140625q0.375 0.140625 0.640625 0.421875q0.265625 0.28125 0.40625 0.71875q0.15625 0.4375 0.15625 1.03125q0 0.078125 0 0.171875q0 0.09375 -0.015625 0.171875l-3.46875 0q0.03125 0.46875 0.171875 0.828125q0.140625 0.34375 0.359375 0.5625q0.21875 0.21875 0.515625 0.328125q0.296875 0.09375 0.625 0.09375q0.25 0 0.46875 -0.046875q0.234375 -0.0625 0.421875 -0.1875q0.203125 -0.125 0.359375 -0.3125l0.4375 0.421875q-0.203125 0.25 -0.46875 0.421875q-0.265625 0.171875 -0.578125 0.25q-0.296875 0.078125 -0.65625 0.078125zm-1.609375 -3.03125l2.671875 0q0 -0.34375 -0.09375 -0.609375q-0.09375 -0.265625 -0.265625 -0.46875q-0.15625 -0.203125 -0.390625 -0.296875q-0.21875 -0.109375 -0.515625 -0.109375q-0.25 0 -0.484375 0.09375q-0.21875 0.078125 -0.421875 0.265625q-0.1875 0.1875 -0.328125 0.46875q-0.125 0.28125 -0.171875 0.65625zm7.062561 3.046875q-0.53125 0 -0.984375 -0.1875q-0.4375 -0.203125 -0.765625 -0.546875q-0.328125 -0.34375 -0.515625 -0.796875q-0.171875 -0.46875 -0.171875 -1.015625q0 -0.546875 0.171875 -1.015625q0.1875 -0.46875 0.515625 -0.796875q0.328125 -0.34375 0.765625 -0.53125q0.453125 -0.203125 0.984375 -0.203125q0.59375 0 1.0625 0.25q0.484375 0.234375 0.78125 0.65625l-0.484375 0.46875l-0.078125 0.078125l-0.046875 -0.046875q0 -0.09375 -0.046875 -0.15625q-0.03125 -0.078125 -0.15625 -0.21875q-0.234375 -0.203125 -0.5 -0.28125q-0.265625 -0.09375 -0.625 -0.09375q-0.3125 0 -0.59375 0.125q-0.265625 0.125 -0.484375 0.375q-0.21875 0.234375 -0.34375 0.578125q-0.125 0.328125 -0.125 0.75q0 0.421875 0.125 0.765625q0.125 0.34375 0.34375 0.609375q0.234375 0.25 0.546875 0.390625q0.3125 0.140625 0.671875 0.140625q0.25 0 0.46875 -0.0625q0.21875 -0.078125 0.421875 -0.203125q0.203125 -0.140625 0.375 -0.328125l0.453125 0.515625q-0.359375 0.390625 -0.8125 0.59375q-0.4375 0.1875 -0.953125 0.1875l0 0zm5.484436 -0.046875q-0.46875 0 -0.765625 -0.15625q-0.296875 -0.171875 -0.46875 -0.5q-0.15625 -0.34375 -0.203125 -0.84375q-0.046875 -0.515625 -0.03125 -1.21875l0.140625 -3.46875l0.796875 -0.109375l0.109375 0l0 0.0625q-0.046875 0.078125 -0.09375 0.15625q-0.03125 0.078125 -0.046875 0.25l-0.09375 1.203125l0.03125 0.203125l-0.078125 1.75q-0.03125 0.8125 0.03125 1.265625q0.078125 0.4375 0.265625 0.609375q0.203125 0.15625 0.515625 0.15625q0.359375 0 0.625 -0.140625q0.28125 -0.140625 0.578125 -0.359375l0.234375 0.609375q-0.359375 0.265625 -0.75 0.40625q-0.375 0.125 -0.796875 0.125l0 0zm-2.4375 -4.953125l3.5 0l0 0.640625l-3.5 0l0 -0.640625zm7.109436 5.0q-0.25 0 -0.4375 -0.1875q-0.171875 -0.1875 -0.171875 -0.421875q0 -0.25 0.171875 -0.421875q0.1875 -0.1875 0.4375 -0.1875q0.25 0 0.421875 0.1875q0.1875 0.171875 0.1875 0.421875q0 0.234375 -0.1875 0.421875q-0.171875 0.1875 -0.421875 0.1875zm5.703186 -0.015625q-0.546875 0 -0.984375 -0.15625q-0.4375 -0.171875 -0.75 -0.484375q-0.3125 -0.328125 -0.484375 -0.796875q-0.171875 -0.484375 -0.171875 -1.09375q0 -0.609375 0.171875 -1.09375q0.1875 -0.484375 0.484375 -0.796875q0.3125 -0.328125 0.71875 -0.5q0.40625 -0.171875 0.875 -0.171875q0.40625 0 0.765625 0.140625q0.375 0.140625 0.640625 0.421875q0.265625 0.28125 0.40625 0.71875q0.15625 0.4375 0.15625 1.03125q0 0.078125 0 0.171875q0 0.09375 -0.015625 0.171875l-3.46875 0q0.03125 0.46875 0.171875 0.828125q0.140625 0.34375 0.359375 0.5625q0.21875 0.21875 0.515625 0.328125q0.296875 0.09375 0.625 0.09375q0.25 0 0.46875 -0.046875q0.234375 -0.0625 0.421875 -0.1875q0.203125 -0.125 0.359375 -0.3125l0.4375 0.421875q-0.203125 0.25 -0.46875 0.421875q-0.265625 0.171875 -0.578125 0.25q-0.296875 0.078125 -0.65625 0.078125zm-1.609375 -3.03125l2.671875 0q0 -0.34375 -0.09375 -0.609375q-0.09375 -0.265625 -0.265625 -0.46875q-0.15625 -0.203125 -0.390625 -0.296875q-0.21875 -0.109375 -0.515625 -0.109375q-0.25 0 -0.484375 0.09375q-0.21875 0.078125 -0.421875 0.265625q-0.1875 0.1875 -0.328125 0.46875q-0.125 0.28125 -0.171875 0.65625zm4.531311 2.921875l1.71875 -2.46875l-1.6875 -2.40625l0.84375 0l1.265625 1.8125l1.21875 -1.8125l0.78125 0l-1.578125 2.375l1.796875 2.5l-0.875 0l-1.34375 -1.890625l-1.265625 1.890625l-0.875 0zm8.015686 0.078125q-0.46875 0 -0.765625 -0.15625q-0.296875 -0.171875 -0.46875 -0.5q-0.15625 -0.34375 -0.203125 -0.84375q-0.046875 -0.515625 -0.03125 -1.21875l0.140625 -3.46875l0.796875 -0.109375l0.109375 0l0 0.0625q-0.046875 0.078125 -0.09375 0.15625q-0.03125 0.078125 -0.046875 0.25l-0.09375 1.203125l0.03125 0.203125l-0.078125 1.75q-0.03125 0.8125 0.03125 1.265625q0.078125 0.4375 0.265625 0.609375q0.203125 0.15625 0.515625 0.15625q0.359375 0 0.625 -0.140625q0.28125 -0.140625 0.578125 -0.359375l0.234375 0.609375q-0.359375 0.265625 -0.75 0.40625q-0.375 0.125 -0.796875 0.125l0 0zm-2.4375 -4.953125l3.5 0l0 0.640625l-3.5 0l0 -0.640625zm7.484436 4.984375q-0.546875 0 -0.984375 -0.15625q-0.4375 -0.171875 -0.75 -0.484375q-0.3125 -0.328125 -0.484375 -0.796875q-0.171875 -0.484375 -0.171875 -1.09375q0 -0.609375 0.171875 -1.09375q0.1875 -0.484375 0.484375 -0.796875q0.3125 -0.328125 0.71875 -0.5q0.40625 -0.171875 0.875 -0.171875q0.40625 0 0.765625 0.140625q0.375 0.140625 0.640625 0.421875q0.265625 0.28125 0.40625 0.71875q0.15625 0.4375 0.15625 1.03125q0 0.078125 0 0.171875q0 0.09375 -0.015625 0.171875l-3.46875 0q0.03125 0.46875 0.171875 0.828125q0.140625 0.34375 0.359375 0.5625q0.21875 0.21875 0.515625 0.328125q0.296875 0.09375 0.625 0.09375q0.25 0 0.46875 -0.046875q0.234375 -0.0625 0.421875 -0.1875q0.203125 -0.125 0.359375 -0.3125l0.4375 0.421875q-0.203125 0.25 -0.46875 0.421875q-0.265625 0.171875 -0.578125 0.25q-0.296875 0.078125 -0.65625 0.078125zm-1.609375 -3.03125l2.671875 0q0 -0.34375 -0.09375 -0.609375q-0.09375 -0.265625 -0.265625 -0.46875q-0.15625 -0.203125 -0.390625 -0.296875q-0.21875 -0.109375 -0.515625 -0.109375q-0.25 0 -0.484375 0.09375q-0.21875 0.078125 -0.421875 0.265625q-0.1875 0.1875 -0.328125 0.46875q-0.125 0.28125 -0.171875 0.65625zm4.796936 2.921875l0 -4.875l0.75 0l0 0.875q0.1875 -0.3125 0.4375 -0.515625q0.265625 -0.21875 0.5625 -0.34375q0.3125 -0.125 0.65625 -0.125q0.390625 0 0.703125 0.203125q0.328125 0.203125 0.515625 0.65625q0.203125 0.4375 0.203125 1.171875l0 2.953125l-0.75 0l0 -2.9375q0 -0.5 -0.125 -0.796875q-0.109375 -0.3125 -0.3125 -0.4375q-0.203125 -0.140625 -0.453125 -0.140625q-0.25 0 -0.5 0.109375q-0.25 0.09375 -0.46875 0.296875q-0.203125 0.203125 -0.34375 0.484375q-0.125 0.265625 -0.125 0.625l0 2.796875l-0.75 0zm7.234436 0.109375q-0.40625 0 -0.78125 -0.09375q-0.359375 -0.078125 -0.6875 -0.25q-0.3125 -0.171875 -0.59375 -0.421875l0.421875 -0.734375l0.0625 -0.09375l0.0625 0.046875q0.03125 0.078125 0.046875 0.171875q0.03125 0.09375 0.15625 0.21875q0.21875 0.21875 0.53125 0.375q0.3125 0.140625 0.8125 0.140625q0.390625 0 0.65625 -0.09375q0.28125 -0.09375 0.421875 -0.265625q0.15625 -0.1875 0.15625 -0.421875q0 -0.15625 -0.078125 -0.28125q-0.0625 -0.125 -0.203125 -0.21875q-0.140625 -0.109375 -0.375 -0.21875q-0.234375 -0.109375 -0.578125 -0.21875q-0.546875 -0.15625 -0.96875 -0.359375q-0.40625 -0.21875 -0.640625 -0.5q-0.21875 -0.296875 -0.21875 -0.65625q0 -0.375 0.203125 -0.640625q0.203125 -0.265625 0.59375 -0.421875q0.40625 -0.15625 1.0 -0.15625q0.328125 0 0.609375 0.046875q0.28125 0.046875 0.515625 0.140625q0.234375 0.09375 0.421875 0.25q0.203125 0.140625 0.390625 0.328125l-0.4375 0.53125l-0.078125 0.078125l-0.0625 -0.046875q0 -0.078125 -0.046875 -0.15625q-0.03125 -0.09375 -0.140625 -0.203125q-0.25 -0.1875 -0.5625 -0.28125q-0.3125 -0.109375 -0.59375 -0.109375q-0.421875 0 -0.734375 0.15625q-0.3125 0.140625 -0.3125 0.453125q0 0.15625 0.109375 0.3125q0.109375 0.15625 0.40625 0.3125q0.3125 0.140625 0.859375 0.3125q0.609375 0.1875 0.96875 0.390625q0.375 0.1875 0.53125 0.453125q0.171875 0.25 0.171875 0.59375q0 0.40625 -0.21875 0.765625q-0.21875 0.34375 -0.671875 0.5625q-0.4375 0.203125 -1.125 0.203125l0 0zm3.718811 -0.109375l0 -0.625l1.25 0l0 -3.625l-1.1875 0l0 -0.625l1.953125 0l0 4.25l1.140625 0l0 0.625l-3.15625 0zm1.59375 -5.890625q-0.21875 0 -0.390625 -0.15625q-0.15625 -0.171875 -0.15625 -0.390625q0 -0.234375 0.15625 -0.390625q0.15625 -0.15625 0.390625 -0.15625q0.234375 0 0.390625 0.171875q0.171875 0.15625 0.171875 0.375q0 0.21875 -0.171875 0.390625q-0.15625 0.15625 -0.390625 0.15625zm5.343811 5.96875q-0.671875 0 -1.1875 -0.3125q-0.5 -0.328125 -0.78125 -0.890625q-0.28125 -0.578125 -0.28125 -1.3125q0 -0.75 0.28125 -1.3125q0.28125 -0.578125 0.78125 -0.890625q0.515625 -0.328125 1.1875 -0.328125q0.65625 0 1.15625 0.328125q0.515625 0.3125 0.796875 0.890625q0.28125 0.5625 0.28125 1.3125q0 0.734375 -0.28125 1.3125q-0.28125 0.5625 -0.796875 0.890625q-0.5 0.3125 -1.15625 0.3125zm0 -0.625q0.421875 0 0.734375 -0.25q0.328125 -0.25 0.515625 -0.671875q0.1875 -0.421875 0.1875 -0.984375q0 -0.546875 -0.1875 -0.96875q-0.1875 -0.4375 -0.515625 -0.671875q-0.3125 -0.25 -0.734375 -0.25q-0.421875 0 -0.75 0.25q-0.328125 0.234375 -0.515625 0.671875q-0.1875 0.421875 -0.1875 0.96875q0 0.5625 0.1875 0.984375q0.1875 0.421875 0.515625 0.671875q0.328125 0.25 0.75 0.25zm3.421936 0.546875l0 -4.875l0.75 0l0 0.875q0.1875 -0.3125 0.4375 -0.515625q0.265625 -0.21875 0.5625 -0.34375q0.3125 -0.125 0.65625 -0.125q0.390625 0 0.703125 0.203125q0.328125 0.203125 0.515625 0.65625q0.203125 0.4375 0.203125 1.171875l0 2.953125l-0.75 0l0 -2.9375q0 -0.5 -0.125 -0.796875q-0.109375 -0.3125 -0.3125 -0.4375q-0.203125 -0.140625 -0.453125 -0.140625q-0.25 0 -0.5 0.109375q-0.25 0.09375 -0.46875 0.296875q-0.203125 0.203125 -0.34375 0.484375q-0.125 0.265625 -0.125 0.625l0 2.796875l-0.75 0zm6.000061 -7.09375l0.859375 0q0 0.640625 -0.015625 1.03125q-0.015625 0.375 -0.046875 0.640625q-0.015625 0.265625 -0.046875 0.515625q-0.03125 0.234375 -0.0625 0.5625l-0.515625 0q-0.03125 -0.328125 -0.0625 -0.5625q-0.03125 -0.25 -0.0625 -0.5q-0.015625 -0.265625 -0.03125 -0.65625q-0.015625 -0.390625 -0.015625 -1.03125zm1.59375 0l0.859375 0q0 0.640625 -0.015625 1.03125q-0.015625 0.375 -0.046875 0.640625q-0.015625 0.265625 -0.046875 0.515625q-0.03125 0.234375 -0.0625 0.5625l-0.515625 0q-0.03125 -0.328125 -0.0625 -0.5625q-0.03125 -0.25 -0.0625 -0.5q-0.015625 -0.265625 -0.03125 -0.65625q-0.015625 -0.390625 -0.015625 -1.03125zm3.718811 8.203125l-0.203125 -0.640625q0.546875 -0.28125 0.96875 -0.6875q0.4375 -0.421875 0.734375 -0.921875q0.3125 -0.515625 0.46875 -1.078125q0.171875 -0.5625 0.171875 -1.15625q0 -0.59375 -0.171875 -1.15625q-0.15625 -0.578125 -0.46875 -1.0625q-0.296875 -0.484375 -0.71875 -0.890625q-0.40625 -0.40625 -0.921875 -0.6875l0.203125 -0.65625q0.859375 0.40625 1.5 1.078125q0.640625 0.671875 0.984375 1.53125q0.359375 0.859375 0.359375 1.8125q0 0.9375 -0.359375 1.828125q-0.359375 0.875 -1.015625 1.578125q-0.65625 0.6875 -1.53125 1.109375z" fill-rule="nonzero"/><path fill="#000000" fill-opacity="0.0" d="m322.30054 54.43307l0 21.472584l0.06298828 0l0 21.488045" fill-rule="evenodd"/><path stroke="#000000" stroke-width="1.0" stroke-linejoin="round" stroke-linecap="butt" d="m322.30054 54.43307l0 21.472584l0.06298828 0l0 15.488045" fill-rule="evenodd"/><path fill="#000000" stroke="#000000" stroke-width="1.0" stroke-linecap="butt" d="m320.7118 91.3937l1.6517334 4.538101l1.6517334 -4.538101z" fill-rule="evenodd"/><path fill="#efefef" d="m132.64699 153.23097l379.30707 0l0 24.34645l-379.30707 0z" fill-rule="evenodd"/><path stroke="#c72e49" stroke-width="1.0" stroke-linejoin="round" stroke-linecap="butt" d="m132.64699 153.23097l379.30707 0l0 24.34645l-379.30707 0z" fill-rule="evenodd"/><path fill="#000000" d="m157.9549 169.1442l0 -6.65625l3.828125 0l0 0.65625l-3.078125 0l0 2.09375l2.484375 0l0 0.640625l-2.484375 0l0 3.265625l-0.75 0zm7.171936 0.125q-1.0625 0 -1.609375 -0.640625q-0.53125 -0.640625 -0.53125 -1.78125l0 -4.34375l0.71875 0l0.109375 0l0 0.078125q-0.0625 0.0625 -0.078125 0.140625q-0.015625 0.078125 -0.015625 0.25l0 3.890625q0 0.8125 0.3125 1.296875q0.3125 0.46875 1.109375 0.46875q0.796875 0 1.109375 -0.46875q0.328125 -0.484375 0.328125 -1.328125l0 -4.328125l0.71875 0l0 4.3125q0 0.84375 -0.265625 1.390625q-0.265625 0.53125 -0.765625 0.796875q-0.484375 0.265625 -1.140625 0.265625l0 0zm3.187561 -6.765625l0.71875 0l2.796875 4.921875l0 -4.921875l0.703125 0l0.109375 0l0 0.078125q-0.0625 0.0625 -0.078125 0.140625q-0.015625 0.078125 -0.015625 0.25l0 6.171875l-0.59375 0l-2.921875 -5.21875l0 5.21875l-0.71875 0l0 -6.640625zm7.828186 6.75q-0.53125 0 -1.0 -0.1875q-0.46875 -0.203125 -0.828125 -0.625q-0.359375 -0.421875 -0.5625 -1.046875q-0.203125 -0.640625 -0.203125 -1.53125q0 -0.78125 0.140625 -1.359375q0.15625 -0.578125 0.40625 -0.96875q0.265625 -0.40625 0.59375 -0.640625q0.328125 -0.234375 0.6875 -0.328125q0.359375 -0.109375 0.734375 -0.109375q0.71875 0 1.21875 0.359375q0.515625 0.34375 0.78125 0.953125l-0.640625 0.296875l-0.09375 0.03125l-0.03125 -0.0625q0.03125 -0.09375 0 -0.15625q-0.03125 -0.078125 -0.125 -0.21875q-0.265625 -0.359375 -0.546875 -0.484375q-0.28125 -0.125 -0.59375 -0.125q-0.40625 0 -0.75 0.1875q-0.328125 0.1875 -0.578125 0.546875q-0.234375 0.34375 -0.359375 0.859375q-0.125 0.515625 -0.125 1.171875q0 0.625 0.140625 1.140625q0.15625 0.5 0.40625 0.875q0.25 0.375 0.578125 0.578125q0.34375 0.203125 0.71875 0.203125q0.265625 0 0.515625 -0.09375q0.25 -0.09375 0.46875 -0.28125q0.21875 -0.1875 0.359375 -0.4375l0.5625 0.359375q-0.328125 0.53125 -0.78125 0.8125q-0.4375 0.28125 -1.09375 0.28125l0 0zm4.515686 -0.109375l0 -5.984375l-1.890625 0l0 -0.671875l4.609375 0l0 0.671875l-1.96875 0l0 5.984375l-0.75 0zm3.968811 0l0 -0.625l1.3125 0l0 -5.390625l-1.234375 0l0 -0.625l3.296875 0l0 0.625l-1.3125 0l0 5.390625l1.375 0l0 0.625l-3.4375 0zm7.140686 0.125q-0.765625 0 -1.296875 -0.390625q-0.53125 -0.40625 -0.8125 -1.15625q-0.28125 -0.765625 -0.28125 -1.859375q0 -1.0625 0.28125 -1.8125q0.28125 -0.765625 0.8125 -1.171875q0.53125 -0.421875 1.296875 -0.421875q0.765625 0 1.28125 0.421875q0.53125 0.40625 0.8125 1.171875q0.28125 0.75 0.28125 1.8125q0 1.09375 -0.28125 1.859375q-0.28125 0.75 -0.8125 1.15625q-0.515625 0.390625 -1.28125 0.390625zm0 -0.65625q0.5 0 0.859375 -0.3125q0.359375 -0.328125 0.546875 -0.9375q0.1875 -0.609375 0.1875 -1.5q0 -0.84375 -0.1875 -1.453125q-0.1875 -0.609375 -0.546875 -0.953125q-0.359375 -0.34375 -0.859375 -0.34375q-0.515625 0 -0.875 0.34375q-0.359375 0.34375 -0.546875 0.953125q-0.1875 0.609375 -0.1875 1.453125q0 0.890625 0.1875 1.5q0.1875 0.609375 0.546875 0.9375q0.359375 0.3125 0.875 0.3125zm3.187561 -6.109375l0.71875 0l2.796875 4.921875l0 -4.921875l0.703125 0l0.109375 0l0 0.078125q-0.0625 0.0625 -0.078125 0.140625q-0.015625 0.078125 -0.015625 0.25l0 6.171875l-0.59375 0l-2.921875 -5.21875l0 5.21875l-0.71875 0l0 -6.640625zm9.000061 7.75q-0.875 -0.421875 -1.53125 -1.109375q-0.65625 -0.703125 -1.015625 -1.578125q-0.359375 -0.890625 -0.359375 -1.828125q0 -0.953125 0.34375 -1.8125q0.359375 -0.859375 1.0 -1.53125q0.640625 -0.671875 1.5 -1.078125l0.203125 0.65625q-0.5 0.28125 -0.921875 0.6875q-0.421875 0.40625 -0.734375 0.890625q-0.296875 0.484375 -0.46875 1.0625q-0.15625 0.5625 -0.15625 1.15625q0 0.59375 0.15625 1.15625q0.171875 0.5625 0.46875 1.078125q0.3125 0.5 0.75 0.921875q0.4375 0.40625 0.96875 0.6875l-0.203125 0.640625zm2.562561 -8.203125l0.859375 0q0 0.640625 -0.015625 1.03125q-0.015625 0.375 -0.046875 0.640625q-0.015625 0.265625 -0.046875 0.515625q-0.03125 0.234375 -0.0625 0.5625l-0.515625 0q-0.03125 -0.328125 -0.0625 -0.5625q-0.03125 -0.25 -0.0625 -0.5q-0.015625 -0.265625 -0.03125 -0.65625q-0.015625 -0.390625 -0.015625 -1.03125zm1.59375 0l0.859375 0q0 0.640625 -0.015625 1.03125q-0.015625 0.375 -0.046875 0.640625q-0.015625 0.265625 -0.046875 0.515625q-0.03125 0.234375 -0.0625 0.5625l-0.515625 0q-0.03125 -0.328125 -0.0625 -0.5625q-0.03125 -0.25 -0.0625 -0.5q-0.015625 -0.265625 -0.03125 -0.65625q-0.015625 -0.390625 -0.015625 -1.03125zm2.703186 7.09375l0 -4.875l0.703125 0l0 0.484375q0.109375 -0.1875 0.265625 -0.3125q0.15625 -0.140625 0.34375 -0.203125q0.1875 -0.078125 0.375 -0.078125q0.21875 0 0.390625 0.09375q0.1875 0.078125 0.3125 0.25q0.125 0.15625 0.171875 0.375q0.09375 -0.21875 0.25 -0.375q0.171875 -0.171875 0.390625 -0.25q0.21875 -0.09375 0.453125 -0.09375q0.25 0 0.421875 0.09375q0.1875 0.09375 0.296875 0.265625q0.125 0.15625 0.171875 0.390625q0.0625 0.234375 0.046875 0.5l0 3.734375l-0.703125 0l0 -3.453125q0 -0.453125 -0.0625 -0.65625q-0.0625 -0.203125 -0.171875 -0.25q-0.09375 -0.0625 -0.21875 -0.0625q-0.203125 0 -0.390625 0.1875q-0.171875 0.1875 -0.28125 0.46875q-0.109375 0.265625 -0.109375 0.546875l0 3.21875l-0.71875 0l0 -3.390625q0 -0.609375 -0.109375 -0.8125q-0.109375 -0.203125 -0.421875 -0.203125q-0.125 0 -0.25 0.09375q-0.109375 0.078125 -0.21875 0.21875q-0.109375 0.140625 -0.171875 0.359375q-0.0625 0.203125 -0.0625 0.484375l0 3.25l-0.703125 0zm6.281311 1.859375q-0.34375 0 -0.625 -0.109375q-0.28125 -0.109375 -0.5 -0.3125l0.328125 -0.515625l0.0625 -0.09375l0.0625 0.03125q0.03125 0.09375 0.078125 0.140625q0.0625 0.0625 0.203125 0.15625q0.09375 0.03125 0.203125 0.046875q0.109375 0.015625 0.21875 0.015625q0.296875 0 0.484375 -0.140625q0.203125 -0.125 0.34375 -0.421875q0.15625 -0.28125 0.296875 -0.71875l0.921875 -2.875q0.171875 -0.484375 0.3125 -0.953125q0.15625 -0.484375 0.203125 -0.984375l0.765625 0q-0.078125 0.5 -0.234375 1.0q-0.15625 0.5 -0.34375 1.0l-1.203125 3.421875q-0.265625 0.71875 -0.671875 1.015625q-0.390625 0.296875 -0.90625 0.296875l0 0zm-0.875 -6.734375l0.8125 0l1.5625 4.0625l-0.328125 0.953125l-2.046875 -5.015625zm7.671936 5.0q-0.296875 0 -0.5625 -0.09375q-0.265625 -0.09375 -0.484375 -0.265625q-0.21875 -0.171875 -0.390625 -0.40625l-0.265625 0.640625l-0.484375 0l0 -7.09375l0.765625 0l0.109375 0l0 0.078125q-0.0625 0.0625 -0.078125 0.140625q-0.015625 0.078125 -0.015625 0.25l0 2.5q0.109375 -0.1875 0.265625 -0.34375q0.171875 -0.171875 0.359375 -0.28125q0.1875 -0.125 0.40625 -0.171875q0.21875 -0.0625 0.40625 -0.0625q0.453125 0 0.8125 0.15625q0.375 0.15625 0.640625 0.46875q0.265625 0.3125 0.40625 0.78125q0.15625 0.46875 0.15625 1.09375q0 0.65625 -0.171875 1.140625q-0.171875 0.484375 -0.46875 0.8125q-0.296875 0.328125 -0.65625 0.5q-0.359375 0.15625 -0.75 0.15625l0 0zm-0.09375 -0.6875q0.265625 0 0.5 -0.09375q0.234375 -0.09375 0.421875 -0.3125q0.203125 -0.21875 0.3125 -0.578125q0.109375 -0.375 0.109375 -0.890625q0 -0.484375 -0.09375 -0.84375q-0.09375 -0.359375 -0.28125 -0.59375q-0.171875 -0.234375 -0.421875 -0.34375q-0.234375 -0.109375 -0.515625 -0.109375q-0.40625 0 -0.703125 0.25q-0.296875 0.234375 -0.46875 0.671875q-0.171875 0.421875 -0.171875 0.984375q0 0.421875 0.0625 0.765625q0.078125 0.328125 0.234375 0.578125q0.15625 0.25 0.40625 0.390625q0.25 0.125 0.609375 0.125l0 0zm4.953186 0.6875q-0.296875 0 -0.546875 -0.09375q-0.25 -0.078125 -0.46875 -0.25q-0.203125 -0.1875 -0.359375 -0.453125q-0.140625 -0.265625 -0.21875 -0.640625q-0.078125 -0.375 -0.078125 -0.84375l0 -2.71875l0.75 0l0 2.71875q0 0.46875 0.078125 0.78125q0.09375 0.3125 0.25 0.515625q0.15625 0.1875 0.359375 0.28125q0.203125 0.078125 0.421875 0.078125q0.25 0 0.484375 -0.09375q0.234375 -0.109375 0.421875 -0.3125q0.1875 -0.203125 0.296875 -0.515625q0.109375 -0.328125 0.109375 -0.765625l0 -2.6875l0.75 0l0 4.125q0 0.1875 0.015625 0.375q0.015625 0.1875 0.078125 0.375l-0.734375 0q-0.046875 -0.125 -0.078125 -0.25q-0.015625 -0.125 -0.015625 -0.25q0 -0.125 0 -0.25q-0.125 0.203125 -0.28125 0.375q-0.15625 0.15625 -0.359375 0.265625q-0.203125 0.109375 -0.421875 0.171875q-0.21875 0.0625 -0.453125 0.0625zm6.000061 0q-0.53125 0 -0.984375 -0.1875q-0.4375 -0.203125 -0.765625 -0.546875q-0.328125 -0.34375 -0.515625 -0.796875q-0.171875 -0.46875 -0.171875 -1.015625q0 -0.546875 0.171875 -1.015625q0.1875 -0.46875 0.515625 -0.796875q0.328125 -0.34375 0.765625 -0.53125q0.453125 -0.203125 0.984375 -0.203125q0.59375 0 1.0625 0.25q0.484375 0.234375 0.78125 0.65625l-0.484375 0.46875l-0.078125 0.078125l-0.046875 -0.046875q0 -0.09375 -0.046875 -0.15625q-0.03125 -0.078125 -0.15625 -0.21875q-0.234375 -0.203125 -0.5 -0.28125q-0.265625 -0.09375 -0.625 -0.09375q-0.3125 0 -0.59375 0.125q-0.265625 0.125 -0.484375 0.375q-0.21875 0.234375 -0.34375 0.578125q-0.125 0.328125 -0.125 0.75q0 0.421875 0.125 0.765625q0.125 0.34375 0.34375 0.609375q0.234375 0.25 0.546875 0.390625q0.3125 0.140625 0.671875 0.140625q0.25 0 0.46875 -0.0625q0.21875 -0.078125 0.421875 -0.203125q0.203125 -0.140625 0.375 -0.328125l0.453125 0.515625q-0.359375 0.390625 -0.8125 0.59375q-0.4375 0.1875 -0.953125 0.1875l0 0zm4.421936 -2.5625l-0.640625 0.59375l0 1.84375l-0.78125 0l0 -7.09375l0.765625 0l0.109375 0l0 0.078125q-0.0625 0.0625 -0.078125 0.140625q-0.015625 0.078125 -0.015625 0.25l0 4.0l2.4375 -2.265625q0.0625 0.015625 0.125 0.03125q0.0625 0 0.125 0.015625q0.078125 0 0.15625 0q0.078125 0 0.15625 0l0.28125 0l-2.046875 1.9375l2.390625 2.90625l-1.0 0.046875l-1.984375 -2.484375zm6.109436 2.546875q-0.546875 0 -0.984375 -0.15625q-0.4375 -0.171875 -0.75 -0.484375q-0.3125 -0.328125 -0.484375 -0.796875q-0.171875 -0.484375 -0.171875 -1.09375q0 -0.609375 0.171875 -1.09375q0.1875 -0.484375 0.484375 -0.796875q0.3125 -0.328125 0.71875 -0.5q0.40625 -0.171875 0.875 -0.171875q0.40625 0 0.765625 0.140625q0.375 0.140625 0.640625 0.421875q0.265625 0.28125 0.40625 0.71875q0.15625 0.4375 0.15625 1.03125q0 0.078125 0 0.171875q0 0.09375 -0.015625 0.171875l-3.46875 0q0.03125 0.46875 0.171875 0.828125q0.140625 0.34375 0.359375 0.5625q0.21875 0.21875 0.515625 0.328125q0.296875 0.09375 0.625 0.09375q0.25 0 0.46875 -0.046875q0.234375 -0.0625 0.421875 -0.1875q0.203125 -0.125 0.359375 -0.3125l0.4375 0.421875q-0.203125 0.25 -0.46875 0.421875q-0.265625 0.171875 -0.578125 0.25q-0.296875 0.078125 -0.65625 0.078125zm-1.609375 -3.03125l2.671875 0q0 -0.34375 -0.09375 -0.609375q-0.09375 -0.265625 -0.265625 -0.46875q-0.15625 -0.203125 -0.390625 -0.296875q-0.21875 -0.109375 -0.515625 -0.109375q-0.25 0 -0.484375 0.09375q-0.21875 0.078125 -0.421875 0.265625q-0.1875 0.1875 -0.328125 0.46875q-0.125 0.28125 -0.171875 0.65625zm7.218811 3.0q-0.46875 0 -0.765625 -0.15625q-0.296875 -0.171875 -0.46875 -0.5q-0.15625 -0.34375 -0.203125 -0.84375q-0.046875 -0.515625 -0.03125 -1.21875l0.140625 -3.46875l0.796875 -0.109375l0.109375 0l0 0.0625q-0.046875 0.078125 -0.09375 0.15625q-0.03125 0.078125 -0.046875 0.25l-0.09375 1.203125l0.03125 0.203125l-0.078125 1.75q-0.03125 0.8125 0.03125 1.265625q0.078125 0.4375 0.265625 0.609375q0.203125 0.15625 0.515625 0.15625q0.359375 0 0.625 -0.140625q0.28125 -0.140625 0.578125 -0.359375l0.234375 0.609375q-0.359375 0.265625 -0.75 0.40625q-0.375 0.125 -0.796875 0.125l0 0zm-2.4375 -4.953125l3.5 0l0 0.640625l-3.5 0l0 -0.640625zm5.890686 5.328125l-0.625 -0.3125l3.328125 -7.234375l0.640625 0.34375l-3.34375 7.203125zm4.421936 -0.453125l0 -4.875l0.703125 0l0 0.484375q0.109375 -0.1875 0.265625 -0.3125q0.15625 -0.140625 0.34375 -0.203125q0.1875 -0.078125 0.375 -0.078125q0.21875 0 0.390625 0.09375q0.1875 0.078125 0.3125 0.25q0.125 0.15625 0.171875 0.375q0.09375 -0.21875 0.25 -0.375q0.171875 -0.171875 0.390625 -0.25q0.21875 -0.09375 0.453125 -0.09375q0.25 0 0.421875 0.09375q0.1875 0.09375 0.296875 0.265625q0.125 0.15625 0.171875 0.390625q0.0625 0.234375 0.046875 0.5l0 3.734375l-0.703125 0l0 -3.453125q0 -0.453125 -0.0625 -0.65625q-0.0625 -0.203125 -0.171875 -0.25q-0.09375 -0.0625 -0.21875 -0.0625q-0.203125 0 -0.390625 0.1875q-0.171875 0.1875 -0.28125 0.46875q-0.109375 0.265625 -0.109375 0.546875l0 3.21875l-0.71875 0l0 -3.390625q0 -0.609375 -0.109375 -0.8125q-0.109375 -0.203125 -0.421875 -0.203125q-0.125 0 -0.25 0.09375q-0.109375 0.078125 -0.21875 0.21875q-0.109375 0.140625 -0.171875 0.359375q-0.0625 0.203125 -0.0625 0.484375l0 3.25l-0.703125 0zm6.281311 1.859375q-0.34375 0 -0.625 -0.109375q-0.28125 -0.109375 -0.5 -0.3125l0.328125 -0.515625l0.0625 -0.09375l0.0625 0.03125q0.03125 0.09375 0.078125 0.140625q0.0625 0.0625 0.203125 0.15625q0.09375 0.03125 0.203125 0.046875q0.109375 0.015625 0.21875 0.015625q0.296875 0 0.484375 -0.140625q0.203125 -0.125 0.34375 -0.421875q0.15625 -0.28125 0.296875 -0.71875l0.921875 -2.875q0.171875 -0.484375 0.3125 -0.953125q0.15625 -0.484375 0.203125 -0.984375l0.765625 0q-0.078125 0.5 -0.234375 1.0q-0.15625 0.5 -0.34375 1.0l-1.203125 3.421875q-0.265625 0.71875 -0.671875 1.015625q-0.390625 0.296875 -0.90625 0.296875l0 0zm-0.875 -6.734375l0.8125 0l1.5625 4.0625l-0.328125 0.953125l-2.046875 -5.015625zm7.343811 4.984375q-0.375 0 -0.734375 -0.15625q-0.359375 -0.171875 -0.65625 -0.484375q-0.28125 -0.328125 -0.453125 -0.8125q-0.171875 -0.484375 -0.171875 -1.140625q0 -0.671875 0.171875 -1.140625q0.1875 -0.484375 0.484375 -0.78125q0.296875 -0.296875 0.65625 -0.4375q0.359375 -0.15625 0.734375 -0.15625q0.34375 0 0.609375 0.109375q0.28125 0.109375 0.484375 0.296875q0.21875 0.1875 0.328125 0.4375l0 -2.9375l0.703125 0l0.109375 0l0 0.078125q-0.0625 0.0625 -0.078125 0.140625q-0.015625 0.078125 -0.015625 0.25l0 5.875q0 0.1875 0.015625 0.375q0.015625 0.1875 0.09375 0.375l-0.75 0q-0.0625 -0.125 -0.078125 -0.25q-0.015625 -0.140625 -0.03125 -0.25q0 -0.125 0 -0.25q-0.15625 0.25 -0.375 0.453125q-0.203125 0.1875 -0.46875 0.296875q-0.265625 0.109375 -0.578125 0.109375l0 0zm0.109375 -0.671875q0.359375 0 0.59375 -0.140625q0.25 -0.15625 0.390625 -0.40625q0.15625 -0.265625 0.21875 -0.609375q0.078125 -0.34375 0.078125 -0.75q0 -0.53125 -0.140625 -0.96875q-0.140625 -0.4375 -0.4375 -0.6875q-0.296875 -0.25 -0.765625 -0.25q-0.3125 0 -0.578125 0.125q-0.25 0.125 -0.421875 0.359375q-0.15625 0.234375 -0.25 0.5625q-0.078125 0.328125 -0.078125 0.734375q0 0.59375 0.15625 1.0625q0.171875 0.453125 0.46875 0.71875q0.3125 0.25 0.765625 0.25l0 0zm4.968811 0.6875q-0.828125 0 -1.28125 -0.375q-0.453125 -0.390625 -0.453125 -0.96875q0 -0.40625 0.1875 -0.71875q0.203125 -0.3125 0.53125 -0.53125q0.34375 -0.21875 0.78125 -0.328125q0.453125 -0.125 0.953125 -0.125q0.1875 0 0.375 0.015625q0.1875 0 0.390625 0.015625q0.203125 0.015625 0.4375 0.046875l0.015625 0.578125q-0.1875 -0.03125 -0.390625 -0.046875q-0.1875 -0.015625 -0.390625 -0.015625q-0.1875 -0.015625 -0.375 -0.015625q-0.375 0 -0.703125 0.0625q-0.3125 0.0625 -0.546875 0.203125q-0.234375 0.125 -0.359375 0.328125q-0.125 0.1875 -0.125 0.484375q0 0.21875 0.078125 0.375q0.078125 0.15625 0.203125 0.25q0.140625 0.09375 0.328125 0.140625q0.1875 0.03125 0.421875 0.03125q0.40625 0 0.734375 -0.125q0.328125 -0.140625 0.546875 -0.390625q0.234375 -0.265625 0.34375 -0.640625q0.125 -0.375 0.125 -0.84375q0 -0.734375 -0.171875 -1.125q-0.171875 -0.40625 -0.515625 -0.578125q-0.328125 -0.171875 -0.84375 -0.171875q-0.359375 0 -0.703125 0.140625q-0.328125 0.125 -0.609375 0.40625l-0.375 -0.5q0.34375 -0.34375 0.78125 -0.5q0.453125 -0.171875 0.953125 -0.171875q0.484375 0 0.875 0.125q0.40625 0.109375 0.6875 0.375q0.28125 0.265625 0.421875 0.734375q0.15625 0.453125 0.15625 1.140625l0 2.59375l-0.828125 0l0 -0.75q-0.140625 0.265625 -0.34375 0.4375q-0.1875 0.171875 -0.40625 0.265625q-0.21875 0.09375 -0.453125 0.125q-0.234375 0.046875 -0.453125 0.046875zm6.265686 -0.046875q-0.46875 0 -0.765625 -0.15625q-0.296875 -0.171875 -0.46875 -0.5q-0.15625 -0.34375 -0.203125 -0.84375q-0.046875 -0.515625 -0.03125 -1.21875l0.140625 -3.46875l0.796875 -0.109375l0.109375 0l0 0.0625q-0.046875 0.078125 -0.09375 0.15625q-0.03125 0.078125 -0.046875 0.25l-0.09375 1.203125l0.03125 0.203125l-0.078125 1.75q-0.03125 0.8125 0.03125 1.265625q0.078125 0.4375 0.265625 0.609375q0.203125 0.15625 0.515625 0.15625q0.359375 0 0.625 -0.140625q0.28125 -0.140625 0.578125 -0.359375l0.234375 0.609375q-0.359375 0.265625 -0.75 0.40625q-0.375 0.125 -0.796875 0.125l0 0zm-2.4375 -4.953125l3.5 0l0 0.640625l-3.5 0l0 -0.640625zm6.828186 5.0q-0.828125 0 -1.28125 -0.375q-0.453125 -0.390625 -0.453125 -0.96875q0 -0.40625 0.1875 -0.71875q0.203125 -0.3125 0.53125 -0.53125q0.34375 -0.21875 0.78125 -0.328125q0.453125 -0.125 0.953125 -0.125q0.1875 0 0.375 0.015625q0.1875 0 0.390625 0.015625q0.203125 0.015625 0.4375 0.046875l0.015625 0.578125q-0.1875 -0.03125 -0.390625 -0.046875q-0.1875 -0.015625 -0.390625 -0.015625q-0.1875 -0.015625 -0.375 -0.015625q-0.375 0 -0.703125 0.0625q-0.3125 0.0625 -0.546875 0.203125q-0.234375 0.125 -0.359375 0.328125q-0.125 0.1875 -0.125 0.484375q0 0.21875 0.078125 0.375q0.078125 0.15625 0.203125 0.25q0.140625 0.09375 0.328125 0.140625q0.1875 0.03125 0.421875 0.03125q0.40625 0 0.734375 -0.125q0.328125 -0.140625 0.546875 -0.390625q0.234375 -0.265625 0.34375 -0.640625q0.125 -0.375 0.125 -0.84375q0 -0.734375 -0.171875 -1.125q-0.171875 -0.40625 -0.515625 -0.578125q-0.328125 -0.171875 -0.84375 -0.171875q-0.359375 0 -0.703125 0.140625q-0.328125 0.125 -0.609375 0.40625l-0.375 -0.5q0.34375 -0.34375 0.78125 -0.5q0.453125 -0.171875 0.953125 -0.171875q0.484375 0 0.875 0.125q0.40625 0.109375 0.6875 0.375q0.28125 0.265625 0.421875 0.734375q0.15625 0.453125 0.15625 1.140625l0 2.59375l-0.828125 0l0 -0.75q-0.140625 0.265625 -0.34375 0.4375q-0.1875 0.171875 -0.40625 0.265625q-0.21875 0.09375 -0.453125 0.125q-0.234375 0.046875 -0.453125 0.046875zm4.390686 0.328125l-0.625 -0.3125l3.328125 -7.234375l0.640625 0.34375l-3.34375 7.203125zm4.421936 -0.453125l0 -4.875l0.703125 0l0 0.484375q0.109375 -0.1875 0.265625 -0.3125q0.15625 -0.140625 0.34375 -0.203125q0.1875 -0.078125 0.375 -0.078125q0.21875 0 0.390625 0.09375q0.1875 0.078125 0.3125 0.25q0.125 0.15625 0.171875 0.375q0.09375 -0.21875 0.25 -0.375q0.171875 -0.171875 0.390625 -0.25q0.21875 -0.09375 0.453125 -0.09375q0.25 0 0.421875 0.09375q0.1875 0.09375 0.296875 0.265625q0.125 0.15625 0.171875 0.390625q0.0625 0.234375 0.046875 0.5l0 3.734375l-0.703125 0l0 -3.453125q0 -0.453125 -0.0625 -0.65625q-0.0625 -0.203125 -0.171875 -0.25q-0.09375 -0.0625 -0.21875 -0.0625q-0.203125 0 -0.390625 0.1875q-0.171875 0.1875 -0.28125 0.46875q-0.109375 0.265625 -0.109375 0.546875l0 3.21875l-0.71875 0l0 -3.390625q0 -0.609375 -0.109375 -0.8125q-0.109375 -0.203125 -0.421875 -0.203125q-0.125 0 -0.25 0.09375q-0.109375 0.078125 -0.21875 0.21875q-0.109375 0.140625 -0.171875 0.359375q-0.0625 0.203125 -0.0625 0.484375l0 3.25l-0.703125 0zm6.281311 1.859375q-0.34375 0 -0.625 -0.109375q-0.28125 -0.109375 -0.5 -0.3125l0.328125 -0.515625l0.0625 -0.09375l0.0625 0.03125q0.03125 0.09375 0.078125 0.140625q0.0625 0.0625 0.203125 0.15625q0.09375 0.03125 0.203125 0.046875q0.109375 0.015625 0.21875 0.015625q0.296875 0 0.484375 -0.140625q0.203125 -0.125 0.34375 -0.421875q0.15625 -0.28125 0.296875 -0.71875l0.921875 -2.875q0.171875 -0.484375 0.3125 -0.953125q0.15625 -0.484375 0.203125 -0.984375l0.765625 0q-0.078125 0.5 -0.234375 1.0q-0.15625 0.5 -0.34375 1.0l-1.203125 3.421875q-0.265625 0.71875 -0.671875 1.015625q-0.390625 0.296875 -0.90625 0.296875l0 0zm-0.875 -6.734375l0.8125 0l1.5625 4.0625l-0.328125 0.953125l-2.046875 -5.015625zm7.515686 4.953125q-0.671875 0 -1.1875 -0.3125q-0.5 -0.328125 -0.78125 -0.890625q-0.28125 -0.578125 -0.28125 -1.3125q0 -0.75 0.28125 -1.3125q0.28125 -0.578125 0.78125 -0.890625q0.515625 -0.328125 1.1875 -0.328125q0.65625 0 1.15625 0.328125q0.515625 0.3125 0.796875 0.890625q0.28125 0.5625 0.28125 1.3125q0 0.734375 -0.28125 1.3125q-0.28125 0.5625 -0.796875 0.890625q-0.5 0.3125 -1.15625 0.3125zm0 -0.625q0.421875 0 0.734375 -0.25q0.328125 -0.25 0.515625 -0.671875q0.1875 -0.421875 0.1875 -0.984375q0 -0.546875 -0.1875 -0.96875q-0.1875 -0.4375 -0.515625 -0.671875q-0.3125 -0.25 -0.734375 -0.25q-0.421875 0 -0.75 0.25q-0.328125 0.234375 -0.515625 0.671875q-0.1875 0.421875 -0.1875 0.96875q0 0.5625 0.1875 0.984375q0.1875 0.421875 0.515625 0.671875q0.328125 0.25 0.75 0.25zm5.484436 0.671875q-0.296875 0 -0.5625 -0.09375q-0.265625 -0.09375 -0.484375 -0.265625q-0.21875 -0.171875 -0.390625 -0.40625l-0.265625 0.640625l-0.484375 0l0 -7.09375l0.765625 0l0.109375 0l0 0.078125q-0.0625 0.0625 -0.078125 0.140625q-0.015625 0.078125 -0.015625 0.25l0 2.5q0.109375 -0.1875 0.265625 -0.34375q0.171875 -0.171875 0.359375 -0.28125q0.1875 -0.125 0.40625 -0.171875q0.21875 -0.0625 0.40625 -0.0625q0.453125 0 0.8125 0.15625q0.375 0.15625 0.640625 0.46875q0.265625 0.3125 0.40625 0.78125q0.15625 0.46875 0.15625 1.09375q0 0.65625 -0.171875 1.140625q-0.171875 0.484375 -0.46875 0.8125q-0.296875 0.328125 -0.65625 0.5q-0.359375 0.15625 -0.75 0.15625l0 0zm-0.09375 -0.6875q0.265625 0 0.5 -0.09375q0.234375 -0.09375 0.421875 -0.3125q0.203125 -0.21875 0.3125 -0.578125q0.109375 -0.375 0.109375 -0.890625q0 -0.484375 -0.09375 -0.84375q-0.09375 -0.359375 -0.28125 -0.59375q-0.171875 -0.234375 -0.421875 -0.34375q-0.234375 -0.109375 -0.515625 -0.109375q-0.40625 0 -0.703125 0.25q-0.296875 0.234375 -0.46875 0.671875q-0.171875 0.421875 -0.171875 0.984375q0 0.421875 0.0625 0.765625q0.078125 0.328125 0.234375 0.578125q0.15625 0.25 0.40625 0.390625q0.25 0.125 0.609375 0.125l0 0zm4.656311 2.421875q-0.453125 0 -0.875 -0.171875q-0.40625 -0.171875 -0.671875 -0.515625l0.421875 -0.578125l0.0625 -0.078125l0.0625 0.03125q0.03125 0.09375 0.0625 0.171875q0.03125 0.078125 0.140625 0.203125q0.15625 0.125 0.34375 0.1875q0.203125 0.078125 0.453125 0.078125q0.3125 0 0.5625 -0.140625q0.25 -0.140625 0.390625 -0.453125q0.140625 -0.296875 0.140625 -0.78125l0 -4.046875l-1.8125 0l0 -0.640625l2.59375 0l0 4.640625q0 0.734375 -0.265625 1.1875q-0.25 0.46875 -0.671875 0.6875q-0.421875 0.21875 -0.9375 0.21875l0 0zm1.421875 -7.75q-0.21875 0 -0.390625 -0.15625q-0.15625 -0.171875 -0.15625 -0.390625q0 -0.234375 0.15625 -0.390625q0.15625 -0.15625 0.390625 -0.15625q0.234375 0 0.390625 0.171875q0.171875 0.15625 0.171875 0.375q0 0.21875 -0.171875 0.390625q-0.15625 0.15625 -0.390625 0.15625zm4.750061 6.0q-0.546875 0 -0.984375 -0.15625q-0.4375 -0.171875 -0.75 -0.484375q-0.3125 -0.328125 -0.484375 -0.796875q-0.171875 -0.484375 -0.171875 -1.09375q0 -0.609375 0.171875 -1.09375q0.1875 -0.484375 0.484375 -0.796875q0.3125 -0.328125 0.71875 -0.5q0.40625 -0.171875 0.875 -0.171875q0.40625 0 0.765625 0.140625q0.375 0.140625 0.640625 0.421875q0.265625 0.28125 0.40625 0.71875q0.15625 0.4375 0.15625 1.03125q0 0.078125 0 0.171875q0 0.09375 -0.015625 0.171875l-3.46875 0q0.03125 0.46875 0.171875 0.828125q0.140625 0.34375 0.359375 0.5625q0.21875 0.21875 0.515625 0.328125q0.296875 0.09375 0.625 0.09375q0.25 0 0.46875 -0.046875q0.234375 -0.0625 0.421875 -0.1875q0.203125 -0.125 0.359375 -0.3125l0.4375 0.421875q-0.203125 0.25 -0.46875 0.421875q-0.265625 0.171875 -0.578125 0.25q-0.296875 0.078125 -0.65625 0.078125zm-1.609375 -3.03125l2.671875 0q0 -0.34375 -0.09375 -0.609375q-0.09375 -0.265625 -0.265625 -0.46875q-0.15625 -0.203125 -0.390625 -0.296875q-0.21875 -0.109375 -0.515625 -0.109375q-0.25 0 -0.484375 0.09375q-0.21875 0.078125 -0.421875 0.265625q-0.1875 0.1875 -0.328125 0.46875q-0.125 0.28125 -0.171875 0.65625zm7.062561 3.046875q-0.53125 0 -0.984375 -0.1875q-0.4375 -0.203125 -0.765625 -0.546875q-0.328125 -0.34375 -0.515625 -0.796875q-0.171875 -0.46875 -0.171875 -1.015625q0 -0.546875 0.171875 -1.015625q0.1875 -0.46875 0.515625 -0.796875q0.328125 -0.34375 0.765625 -0.53125q0.453125 -0.203125 0.984375 -0.203125q0.59375 0 1.0625 0.25q0.484375 0.234375 0.78125 0.65625l-0.484375 0.46875l-0.078125 0.078125l-0.046875 -0.046875q0 -0.09375 -0.046875 -0.15625q-0.03125 -0.078125 -0.15625 -0.21875q-0.234375 -0.203125 -0.5 -0.28125q-0.265625 -0.09375 -0.625 -0.09375q-0.3125 0 -0.59375 0.125q-0.265625 0.125 -0.484375 0.375q-0.21875 0.234375 -0.34375 0.578125q-0.125 0.328125 -0.125 0.75q0 0.421875 0.125 0.765625q0.125 0.34375 0.34375 0.609375q0.234375 0.25 0.546875 0.390625q0.3125 0.140625 0.671875 0.140625q0.25 0 0.46875 -0.0625q0.21875 -0.078125 0.421875 -0.203125q0.203125 -0.140625 0.375 -0.328125l0.453125 0.515625q-0.359375 0.390625 -0.8125 0.59375q-0.4375 0.1875 -0.953125 0.1875l0 0zm5.484436 -0.046875q-0.46875 0 -0.765625 -0.15625q-0.296875 -0.171875 -0.46875 -0.5q-0.15625 -0.34375 -0.203125 -0.84375q-0.046875 -0.515625 -0.03125 -1.21875l0.140625 -3.46875l0.796875 -0.109375l0.109375 0l0 0.0625q-0.046875 0.078125 -0.09375 0.15625q-0.03125 0.078125 -0.046875 0.25l-0.09375 1.203125l0.03125 0.203125l-0.078125 1.75q-0.03125 0.8125 0.03125 1.265625q0.078125 0.4375 0.265625 0.609375q0.203125 0.15625 0.515625 0.15625q0.359375 0 0.625 -0.140625q0.28125 -0.140625 0.578125 -0.359375l0.234375 0.609375q-0.359375 0.265625 -0.75 0.40625q-0.375 0.125 -0.796875 0.125l0 0zm-2.4375 -4.953125l3.5 0l0 0.640625l-3.5 0l0 -0.640625zm7.109436 5.0q-0.25 0 -0.4375 -0.1875q-0.171875 -0.1875 -0.171875 -0.421875q0 -0.25 0.171875 -0.421875q0.1875 -0.1875 0.4375 -0.1875q0.25 0 0.421875 0.1875q0.1875 0.171875 0.1875 0.421875q0 0.234375 -0.1875 0.421875q-0.171875 0.1875 -0.421875 0.1875zm5.703186 -0.015625q-0.546875 0 -0.984375 -0.15625q-0.4375 -0.171875 -0.75 -0.484375q-0.3125 -0.328125 -0.484375 -0.796875q-0.171875 -0.484375 -0.171875 -1.09375q0 -0.609375 0.171875 -1.09375q0.1875 -0.484375 0.484375 -0.796875q0.3125 -0.328125 0.71875 -0.5q0.40625 -0.171875 0.875 -0.171875q0.40625 0 0.765625 0.140625q0.375 0.140625 0.640625 0.421875q0.265625 0.28125 0.40625 0.71875q0.15625 0.4375 0.15625 1.03125q0 0.078125 0 0.171875q0 0.09375 -0.015625 0.171875l-3.46875 0q0.03125 0.46875 0.171875 0.828125q0.140625 0.34375 0.359375 0.5625q0.21875 0.21875 0.515625 0.328125q0.296875 0.09375 0.625 0.09375q0.25 0 0.46875 -0.046875q0.234375 -0.0625 0.421875 -0.1875q0.203125 -0.125 0.359375 -0.3125l0.4375 0.421875q-0.203125 0.25 -0.46875 0.421875q-0.265625 0.171875 -0.578125 0.25q-0.296875 0.078125 -0.65625 0.078125zm-1.609375 -3.03125l2.671875 0q0 -0.34375 -0.09375 -0.609375q-0.09375 -0.265625 -0.265625 -0.46875q-0.15625 -0.203125 -0.390625 -0.296875q-0.21875 -0.109375 -0.515625 -0.109375q-0.25 0 -0.484375 0.09375q-0.21875 0.078125 -0.421875 0.265625q-0.1875 0.1875 -0.328125 0.46875q-0.125 0.28125 -0.171875 0.65625zm4.531311 2.921875l1.71875 -2.46875l-1.6875 -2.40625l0.84375 0l1.265625 1.8125l1.21875 -1.8125l0.78125 0l-1.578125 2.375l1.796875 2.5l-0.875 0l-1.34375 -1.890625l-1.265625 1.890625l-0.875 0zm8.015686 0.078125q-0.46875 0 -0.765625 -0.15625q-0.296875 -0.171875 -0.46875 -0.5q-0.15625 -0.34375 -0.203125 -0.84375q-0.046875 -0.515625 -0.03125 -1.21875l0.140625 -3.46875l0.796875 -0.109375l0.109375 0l0 0.0625q-0.046875 0.078125 -0.09375 0.15625q-0.03125 0.078125 -0.046875 0.25l-0.09375 1.203125l0.03125 0.203125l-0.078125 1.75q-0.03125 0.8125 0.03125 1.265625q0.078125 0.4375 0.265625 0.609375q0.203125 0.15625 0.515625 0.15625q0.359375 0 0.625 -0.140625q0.28125 -0.140625 0.578125 -0.359375l0.234375 0.609375q-0.359375 0.265625 -0.75 0.40625q-0.375 0.125 -0.796875 0.125l0 0zm-2.4375 -4.953125l3.5 0l0 0.640625l-3.5 0l0 -0.640625zm7.484436 4.984375q-0.546875 0 -0.984375 -0.15625q-0.4375 -0.171875 -0.75 -0.484375q-0.3125 -0.328125 -0.484375 -0.796875q-0.171875 -0.484375 -0.171875 -1.09375q0 -0.609375 0.171875 -1.09375q0.1875 -0.484375 0.484375 -0.796875q0.3125 -0.328125 0.71875 -0.5q0.40625 -0.171875 0.875 -0.171875q0.40625 0 0.765625 0.140625q0.375 0.140625 0.640625 0.421875q0.265625 0.28125 0.40625 0.71875q0.15625 0.4375 0.15625 1.03125q0 0.078125 0 0.171875q0 0.09375 -0.015625 0.171875l-3.46875 0q0.03125 0.46875 0.171875 0.828125q0.140625 0.34375 0.359375 0.5625q0.21875 0.21875 0.515625 0.328125q0.296875 0.09375 0.625 0.09375q0.25 0 0.46875 -0.046875q0.234375 -0.0625 0.421875 -0.1875q0.203125 -0.125 0.359375 -0.3125l0.4375 0.421875q-0.203125 0.25 -0.46875 0.421875q-0.265625 0.171875 -0.578125 0.25q-0.296875 0.078125 -0.65625 0.078125zm-1.609375 -3.03125l2.671875 0q0 -0.34375 -0.09375 -0.609375q-0.09375 -0.265625 -0.265625 -0.46875q-0.15625 -0.203125 -0.390625 -0.296875q-0.21875 -0.109375 -0.515625 -0.109375q-0.25 0 -0.484375 0.09375q-0.21875 0.078125 -0.421875 0.265625q-0.1875 0.1875 -0.328125 0.46875q-0.125 0.28125 -0.171875 0.65625zm4.796936 2.921875l0 -4.875l0.75 0l0 0.875q0.1875 -0.3125 0.4375 -0.515625q0.265625 -0.21875 0.5625 -0.34375q0.3125 -0.125 0.65625 -0.125q0.390625 0 0.703125 0.203125q0.328125 0.203125 0.515625 0.65625q0.203125 0.4375 0.203125 1.171875l0 2.953125l-0.75 0l0 -2.9375q0 -0.5 -0.125 -0.796875q-0.109375 -0.3125 -0.3125 -0.4375q-0.203125 -0.140625 -0.453125 -0.140625q-0.25 0 -0.5 0.109375q-0.25 0.09375 -0.46875 0.296875q-0.203125 0.203125 -0.34375 0.484375q-0.125 0.265625 -0.125 0.625l0 2.796875l-0.75 0zm7.234436 0.109375q-0.40625 0 -0.78125 -0.09375q-0.359375 -0.078125 -0.6875 -0.25q-0.3125 -0.171875 -0.59375 -0.421875l0.421875 -0.734375l0.0625 -0.09375l0.0625 0.046875q0.03125 0.078125 0.046875 0.171875q0.03125 0.09375 0.15625 0.21875q0.21875 0.21875 0.53125 0.375q0.3125 0.140625 0.8125 0.140625q0.390625 0 0.65625 -0.09375q0.28125 -0.09375 0.421875 -0.265625q0.15625 -0.1875 0.15625 -0.421875q0 -0.15625 -0.078125 -0.28125q-0.0625 -0.125 -0.203125 -0.21875q-0.140625 -0.109375 -0.375 -0.21875q-0.234375 -0.109375 -0.578125 -0.21875q-0.546875 -0.15625 -0.96875 -0.359375q-0.40625 -0.21875 -0.640625 -0.5q-0.21875 -0.296875 -0.21875 -0.65625q0 -0.375 0.203125 -0.640625q0.203125 -0.265625 0.59375 -0.421875q0.40625 -0.15625 1.0 -0.15625q0.328125 0 0.609375 0.046875q0.28125 0.046875 0.515625 0.140625q0.234375 0.09375 0.421875 0.25q0.203125 0.140625 0.390625 0.328125l-0.4375 0.53125l-0.078125 0.078125l-0.0625 -0.046875q0 -0.078125 -0.046875 -0.15625q-0.03125 -0.09375 -0.140625 -0.203125q-0.25 -0.1875 -0.5625 -0.28125q-0.3125 -0.109375 -0.59375 -0.109375q-0.421875 0 -0.734375 0.15625q-0.3125 0.140625 -0.3125 0.453125q0 0.15625 0.109375 0.3125q0.109375 0.15625 0.40625 0.3125q0.3125 0.140625 0.859375 0.3125q0.609375 0.1875 0.96875 0.390625q0.375 0.1875 0.53125 0.453125q0.171875 0.25 0.171875 0.59375q0 0.40625 -0.21875 0.765625q-0.21875 0.34375 -0.671875 0.5625q-0.4375 0.203125 -1.125 0.203125l0 0zm3.718811 -0.109375l0 -0.625l1.25 0l0 -3.625l-1.1875 0l0 -0.625l1.953125 0l0 4.25l1.140625 0l0 0.625l-3.15625 0zm1.59375 -5.890625q-0.21875 0 -0.390625 -0.15625q-0.15625 -0.171875 -0.15625 -0.390625q0 -0.234375 0.15625 -0.390625q0.15625 -0.15625 0.390625 -0.15625q0.234375 0 0.390625 0.171875q0.171875 0.15625 0.171875 0.375q0 0.21875 -0.171875 0.390625q-0.15625 0.15625 -0.390625 0.15625zm5.343811 5.96875q-0.671875 0 -1.1875 -0.3125q-0.5 -0.328125 -0.78125 -0.890625q-0.28125 -0.578125 -0.28125 -1.3125q0 -0.75 0.28125 -1.3125q0.28125 -0.578125 0.78125 -0.890625q0.515625 -0.328125 1.1875 -0.328125q0.65625 0 1.15625 0.328125q0.515625 0.3125 0.796875 0.890625q0.28125 0.5625 0.28125 1.3125q0 0.734375 -0.28125 1.3125q-0.28125 0.5625 -0.796875 0.890625q-0.5 0.3125 -1.15625 0.3125zm0 -0.625q0.421875 0 0.734375 -0.25q0.328125 -0.25 0.515625 -0.671875q0.1875 -0.421875 0.1875 -0.984375q0 -0.546875 -0.1875 -0.96875q-0.1875 -0.4375 -0.515625 -0.671875q-0.3125 -0.25 -0.734375 -0.25q-0.421875 0 -0.75 0.25q-0.328125 0.234375 -0.515625 0.671875q-0.1875 0.421875 -0.1875 0.96875q0 0.5625 0.1875 0.984375q0.1875 0.421875 0.515625 0.671875q0.328125 0.25 0.75 0.25zm3.421936 0.546875l0 -4.875l0.75 0l0 0.875q0.1875 -0.3125 0.4375 -0.515625q0.265625 -0.21875 0.5625 -0.34375q0.3125 -0.125 0.65625 -0.125q0.390625 0 0.703125 0.203125q0.328125 0.203125 0.515625 0.65625q0.203125 0.4375 0.203125 1.171875l0 2.953125l-0.75 0l0 -2.9375q0 -0.5 -0.125 -0.796875q-0.109375 -0.3125 -0.3125 -0.4375q-0.203125 -0.140625 -0.453125 -0.140625q-0.25 0 -0.5 0.109375q-0.25 0.09375 -0.46875 0.296875q-0.203125 0.203125 -0.34375 0.484375q-0.125 0.265625 -0.125 0.625l0 2.796875l-0.75 0zm6.000061 -7.09375l0.859375 0q0 0.640625 -0.015625 1.03125q-0.015625 0.375 -0.046875 0.640625q-0.015625 0.265625 -0.046875 0.515625q-0.03125 0.234375 -0.0625 0.5625l-0.515625 0q-0.03125 -0.328125 -0.0625 -0.5625q-0.03125 -0.25 -0.0625 -0.5q-0.015625 -0.265625 -0.03125 -0.65625q-0.015625 -0.390625 -0.015625 -1.03125zm1.59375 0l0.859375 0q0 0.640625 -0.015625 1.03125q-0.015625 0.375 -0.046875 0.640625q-0.015625 0.265625 -0.046875 0.515625q-0.03125 0.234375 -0.0625 0.5625l-0.515625 0q-0.03125 -0.328125 -0.0625 -0.5625q-0.03125 -0.25 -0.0625 -0.5q-0.015625 -0.265625 -0.03125 -0.65625q-0.015625 -0.390625 -0.015625 -1.03125zm3.718811 8.203125l-0.203125 -0.640625q0.546875 -0.28125 0.96875 -0.6875q0.4375 -0.421875 0.734375 -0.921875q0.3125 -0.515625 0.46875 -1.078125q0.171875 -0.5625 0.171875 -1.15625q0 -0.59375 -0.171875 -1.15625q-0.15625 -0.578125 -0.46875 -1.0625q-0.296875 -0.484375 -0.71875 -0.890625q-0.40625 -0.40625 -0.921875 -0.6875l0.203125 -0.65625q0.859375 0.40625 1.5 1.078125q0.640625 0.671875 0.984375 1.53125q0.359375 0.859375 0.359375 1.8125q0 0.9375 -0.359375 1.828125q-0.359375 0.875 -1.015625 1.578125q-0.65625 0.6875 -1.53125 1.109375zm9.718872 -5.25l0 -0.65625l4.375 0l0 0.65625l-4.375 0zm0 2.203125l0 -0.65625l4.375 0l0 0.65625l-4.375 0zm10.796997 1.9375l0 -6.65625l4.078125 0l0 0.671875l-3.375 0l0 2.1875l2.78125 0l0 0.671875l-2.78125 0l0 2.46875l3.34375 0l0 0.65625l-4.046875 0zm5.296936 0l0 -6.640625l1.96875 0q0.78125 0 1.265625 0.234375q0.484375 0.234375 0.703125 0.671875q0.234375 0.421875 0.234375 1.0q0 0.359375 -0.171875 0.734375q-0.15625 0.375 -0.46875 0.65625q-0.296875 0.28125 -0.71875 0.375l1.53125 2.96875l-0.828125 0l-1.46875 -2.9375l-1.28125 0l0 2.9375l-0.765625 0zm0.765625 -3.59375l1.28125 0q0.71875 0 1.03125 -0.3125q0.328125 -0.3125 0.328125 -0.828125q0 -0.34375 -0.140625 -0.609375q-0.140625 -0.265625 -0.4375 -0.421875q-0.296875 -0.171875 -0.78125 -0.171875l-1.28125 0l0 2.34375zm7.765686 1.65625l-2.40625 0l0.15625 -0.578125l2.09375 0l0.15625 0.578125zm-1.140625 -3.109375l-1.75 5.046875l-0.734375 0l2.453125 -6.75l0.078125 0l2.453125 6.75l-0.765625 0l-1.734375 -5.046875zm5.296936 5.15625q-0.640625 0 -1.15625 -0.203125q-0.515625 -0.21875 -0.921875 -0.640625l0.390625 -0.671875l0.046875 -0.09375l0.078125 0.046875q0.015625 0.0625 0.046875 0.15625q0.03125 0.09375 0.140625 0.21875q0.28125 0.234375 0.640625 0.375q0.375 0.140625 0.84375 0.140625q0.296875 0 0.546875 -0.09375q0.25 -0.09375 0.4375 -0.25q0.1875 -0.15625 0.28125 -0.359375q0.109375 -0.203125 0.109375 -0.4375q0 -0.1875 -0.046875 -0.328125q-0.03125 -0.15625 -0.125 -0.265625q-0.09375 -0.125 -0.265625 -0.25q-0.171875 -0.125 -0.4375 -0.265625q-0.265625 -0.140625 -0.640625 -0.296875q-0.703125 -0.265625 -1.109375 -0.578125q-0.390625 -0.3125 -0.5625 -0.65625q-0.15625 -0.359375 -0.15625 -0.734375q0 -0.5 0.234375 -0.859375q0.25 -0.375 0.703125 -0.578125q0.453125 -0.203125 1.09375 -0.203125q0.359375 0 0.6875 0.109375q0.34375 0.09375 0.625 0.28125q0.296875 0.171875 0.53125 0.4375l-0.421875 0.546875l-0.0625 0.09375l-0.0625 -0.046875q-0.015625 -0.078125 -0.046875 -0.15625q-0.03125 -0.09375 -0.140625 -0.234375q-0.265625 -0.234375 -0.5625 -0.328125q-0.28125 -0.09375 -0.671875 -0.09375q-0.265625 0 -0.46875 0.078125q-0.203125 0.078125 -0.359375 0.21875q-0.15625 0.125 -0.234375 0.3125q-0.078125 0.171875 -0.078125 0.359375q0 0.1875 0.046875 0.34375q0.046875 0.140625 0.140625 0.28125q0.109375 0.140625 0.296875 0.28125q0.1875 0.125 0.46875 0.265625q0.28125 0.140625 0.6875 0.296875q0.5 0.203125 0.8125 0.40625q0.328125 0.203125 0.515625 0.421875q0.1875 0.21875 0.265625 0.46875q0.078125 0.25 0.078125 0.5625q0 0.453125 -0.234375 0.90625q-0.21875 0.4375 -0.71875 0.734375q-0.484375 0.28125 -1.265625 0.28125l0 0zm5.375061 0.015625q-1.0625 0 -1.609375 -0.640625q-0.53125 -0.640625 -0.53125 -1.78125l0 -4.34375l0.71875 0l0.109375 0l0 0.078125q-0.0625 0.0625 -0.078125 0.140625q-0.015625 0.078125 -0.015625 0.25l0 3.890625q0 0.8125 0.3125 1.296875q0.3125 0.46875 1.109375 0.46875q0.796875 0 1.109375 -0.46875q0.328125 -0.484375 0.328125 -1.328125l0 -4.328125l0.71875 0l0 4.3125q0 0.84375 -0.265625 1.390625q-0.265625 0.53125 -0.765625 0.796875q-0.484375 0.265625 -1.140625 0.265625l0 0zm3.250061 -0.125l0 -6.640625l1.96875 0q0.78125 0 1.265625 0.234375q0.484375 0.234375 0.703125 0.671875q0.234375 0.421875 0.234375 1.0q0 0.359375 -0.171875 0.734375q-0.15625 0.375 -0.46875 0.65625q-0.296875 0.28125 -0.71875 0.375l1.53125 2.96875l-0.828125 0l-1.46875 -2.9375l-1.28125 0l0 2.9375l-0.765625 0zm0.765625 -3.59375l1.28125 0q0.71875 0 1.03125 -0.3125q0.328125 -0.3125 0.328125 -0.828125q0 -0.34375 -0.140625 -0.609375q-0.140625 -0.265625 -0.4375 -0.421875q-0.296875 -0.171875 -0.78125 -0.171875l-1.28125 0l0 2.34375zm4.593811 3.59375l0 -6.65625l4.078125 0l0 0.671875l-3.375 0l0 2.1875l2.78125 0l0 0.671875l-2.78125 0l0 2.46875l3.34375 0l0 0.65625l-4.046875 0zm12.656372 0.109375q-0.640625 0 -1.15625 -0.203125q-0.515625 -0.21875 -0.921875 -0.640625l0.390625 -0.671875l0.046875 -0.09375l0.078125 0.046875q0.015625 0.0625 0.046875 0.15625q0.03125 0.09375 0.140625 0.21875q0.28125 0.234375 0.640625 0.375q0.375 0.140625 0.84375 0.140625q0.296875 0 0.546875 -0.09375q0.25 -0.09375 0.4375 -0.25q0.1875 -0.15625 0.28125 -0.359375q0.109375 -0.203125 0.109375 -0.4375q0 -0.1875 -0.046875 -0.328125q-0.03125 -0.15625 -0.125 -0.265625q-0.09375 -0.125 -0.265625 -0.25q-0.171875 -0.125 -0.4375 -0.265625q-0.265625 -0.140625 -0.640625 -0.296875q-0.703125 -0.265625 -1.109375 -0.578125q-0.390625 -0.3125 -0.5625 -0.65625q-0.15625 -0.359375 -0.15625 -0.734375q0 -0.5 0.234375 -0.859375q0.25 -0.375 0.703125 -0.578125q0.453125 -0.203125 1.09375 -0.203125q0.359375 0 0.6875 0.109375q0.34375 0.09375 0.625 0.28125q0.296875 0.171875 0.53125 0.4375l-0.421875 0.546875l-0.0625 0.09375l-0.0625 -0.046875q-0.015625 -0.078125 -0.046875 -0.15625q-0.03125 -0.09375 -0.140625 -0.234375q-0.265625 -0.234375 -0.5625 -0.328125q-0.28125 -0.09375 -0.671875 -0.09375q-0.265625 0 -0.46875 0.078125q-0.203125 0.078125 -0.359375 0.21875q-0.15625 0.125 -0.234375 0.3125q-0.078125 0.171875 -0.078125 0.359375q0 0.1875 0.046875 0.34375q0.046875 0.140625 0.140625 0.28125q0.109375 0.140625 0.296875 0.28125q0.1875 0.125 0.46875 0.265625q0.28125 0.140625 0.6875 0.296875q0.5 0.203125 0.8125 0.40625q0.328125 0.203125 0.515625 0.421875q0.1875 0.21875 0.265625 0.46875q0.078125 0.25 0.078125 0.5625q0 0.453125 -0.234375 0.90625q-0.21875 0.4375 -0.71875 0.734375q-0.484375 0.28125 -1.265625 0.28125l0 0zm3.328186 -0.109375l0 -6.65625l4.078125 0l0 0.671875l-3.375 0l0 2.1875l2.78125 0l0 0.671875l-2.78125 0l0 2.46875l3.34375 0l0 0.65625l-4.046875 0zm6.921936 0l0 -5.984375l-1.890625 0l0 -0.671875l4.609375 0l0 0.671875l-1.96875 0l0 5.984375l-0.75 0zm10.890747 0l0 -5.71875l-1.34375 0.390625l-0.171875 -0.421875l1.734375 -0.90625l0.53125 0l0 6.65625l-0.75 0z" fill-rule="nonzero"/></g></svg>