<?xml version="1.0" encoding="UTF-8" standalone="no"?>
<!-- Generator: Adobe Illustrator 27.0.0, SVG Export Plug-In . SVG Version: 6.00 Build 0)  -->

<svg
   version="1.1"
   id="Layer_1"
   x="0px"
   y="0px"
   viewBox="0 0 645.3 414.2"
   style="enable-background:new 0 0 645.3 414.2;"
   xml:space="preserve"
   sodipodi:docname="availability-erasure-set-failure.svg"
   inkscape:version="1.2.2 (b0a8486541, 2022-12-01)"
   xmlns:inkscape="http://www.inkscape.org/namespaces/inkscape"
   xmlns:sodipodi="http://sodipodi.sourceforge.net/DTD/sodipodi-0.dtd"
   xmlns="http://www.w3.org/2000/svg"
   xmlns:svg="http://www.w3.org/2000/svg"><defs
   id="defs27434" /><sodipodi:namedview
   id="namedview27432"
   pagecolor="#505050"
   bordercolor="#eeeeee"
   borderopacity="1"
   inkscape:showpageshadow="0"
   inkscape:pageopacity="0"
   inkscape:pagecheckerboard="0"
   inkscape:deskcolor="#505050"
   showgrid="false"
   inkscape:zoom="2.9561836"
   inkscape:cx="396.62625"
   inkscape:cy="201.44216"
   inkscape:window-width="3840"
   inkscape:window-height="2303"
   inkscape:window-x="3840"
   inkscape:window-y="2160"
   inkscape:window-maximized="1"
   inkscape:current-layer="Layer_1" />
<style
   type="text/css"
   id="style26872">
	.st0{fill:none;stroke:#1B1717;stroke-width:1.4717;stroke-miterlimit:10;}
	.st1{fill:#FFCACD;stroke:#CF2144;stroke-miterlimit:10;}
	.st2{fill:#1B1717;}
	.st3{fill:#F6F6F6;}
	.st4{fill:#577F9A;}
	.st5{fill:#F6F6F6;stroke:#CDD1D3;stroke-miterlimit:10;stroke-dasharray:6.7438,6.7438;}
	.st6{fill:none;stroke:#1B1717;stroke-width:3;stroke-miterlimit:10;}
	.st7{fill:#E8F3F3;}
	.st8{fill:#122745;}
	.st9{fill:#FFFFFF;stroke:#000000;stroke-width:1.3488;stroke-miterlimit:10;stroke-dasharray:6.7438,6.7438;}
	.st10{fill:#1B546D;}
	.st11{fill:#CF2144;}
	.st12{fill:#FFFFFF;}
	.st13{fill:#1F5274;}
	.st14{fill:#8C95BE;}
	.st15{fill:#797B7C;}
	.st16{fill:#3A62E0;}
	.st17{fill:#009EED;}
	.st18{fill:none;stroke:#009EED;stroke-width:3;stroke-miterlimit:10;}
	.st19{fill:none;stroke:#CF2144;stroke-width:3;stroke-miterlimit:10;}
	.st20{fill:#F6F6F6;stroke:#CDD1D3;stroke-width:1.4142;stroke-miterlimit:10;}
	.st21{fill:none;stroke:#CF2144;stroke-miterlimit:10;}
	.st22{fill:none;stroke:#CF2144;stroke-width:2.143;stroke-miterlimit:10;}
	.st23{fill:none;stroke:#FFFFFF;stroke-width:0.9583;stroke-linecap:round;stroke-miterlimit:10;}
	.st24{fill:none;stroke:#CF2144;stroke-width:0.6974;stroke-miterlimit:10;}
	.st25{fill:none;stroke:#FFFFFF;stroke-width:0.3118;stroke-linecap:round;stroke-miterlimit:10;}
	.st26{fill:none;stroke:#1B1717;stroke-miterlimit:10;}
	.st27{fill:#D6D6D6;}
	.st28{fill:none;stroke:#CF2144;stroke-miterlimit:10;stroke-dasharray:3,3;}
	.st29{fill:none;stroke:#CF2144;stroke-width:2.0917;stroke-miterlimit:10;}
	.st30{fill:none;stroke:#FFFFFF;stroke-width:0.9354;stroke-linecap:round;stroke-miterlimit:10;}
</style>
<path
   id="rect26874"
   class="st1"
   style="fill:#ffcacd;stroke:#cf2144;stroke-miterlimit:10"
   d="M 42.700001,328.89999 H 164.2 v 39.3 H 42.700001 Z" />
<path
   id="line26876"
   class="st28"
   style="fill:none;stroke:#cf2144;stroke-miterlimit:10;stroke-dasharray:3, 3"
   d="m 322.70001,132.7 v 51.69999" />
<g
   id="g26926">
	<path
   d="M245.8,23.8l3.4-1.3l0.3-0.1l-0.3-0.1l-3.4-1.3v-1l4.7,2v0.8l-4.7,2V23.8z"
   id="path26878" />
	<path
   d="M252.7,20.7c0.1-0.2,0.3-0.4,0.5-0.5c0.2-0.1,0.4-0.2,0.7-0.2c0.2,0,0.3,0,0.4,0.1c0.1,0,0.2,0.1,0.3,0.1   c0.1,0,0.1,0.1,0.2,0.2s0.1,0.1,0.1,0.2c0-0.1,0.1-0.2,0.2-0.2s0.1-0.1,0.2-0.2c0.1-0.1,0.2-0.1,0.3-0.1s0.3-0.1,0.4-0.1   c0.2,0,0.4,0,0.5,0.1c0.2,0.1,0.3,0.1,0.4,0.3c0.1,0.1,0.2,0.3,0.3,0.5c0.1,0.2,0.1,0.4,0.1,0.7v4.3h-0.9v-4.3c0-0.1,0-0.2,0-0.3   s-0.1-0.2-0.1-0.2c-0.1-0.1-0.1-0.1-0.2-0.1c-0.1,0-0.2,0-0.3,0c-0.1,0-0.2,0-0.3,0c-0.1,0-0.2,0.1-0.2,0.1   c-0.1,0.1-0.1,0.1-0.1,0.2c0,0.1-0.1,0.2-0.1,0.2c0,0,0,0,0,0.1s0,0,0,0.1v4.3h-0.9v-4.3c0-0.1,0-0.2,0-0.3c0-0.1-0.1-0.2-0.1-0.2   c-0.1-0.1-0.1-0.1-0.2-0.1s-0.2,0-0.3,0c-0.1,0-0.2,0-0.3,0S253,21,252.9,21c0,0-0.1,0.1-0.1,0.1c0,0-0.1,0.1-0.1,0.2v4.5h-0.9   v-5.7h0.9L252.7,20.7z"
   id="path26880" />
	<path
   d="M261.8,20.1V25h1.9v0.8h-4.8V25h1.9v-4h-1.9v-0.9H261.8z M260.7,18.4c0-0.1,0.1-0.1,0.1-0.2c0,0,0.1-0.1,0.2-0.1   c0.1,0,0.2,0,0.2,0c0.1,0,0.2,0,0.2,0c0.1,0,0.1,0.1,0.2,0.1c0.1,0,0.1,0.1,0.1,0.2c0,0.1,0,0.2,0,0.2c0,0.2,0,0.3-0.1,0.4   c-0.1,0.1-0.2,0.2-0.4,0.2c-0.2,0-0.3-0.1-0.4-0.2s-0.1-0.2-0.1-0.4C260.7,18.6,260.7,18.5,260.7,18.4z"
   id="path26882" />
	<path
   d="M265.2,20.1h0.9l0.1,0.8c0.1-0.1,0.2-0.2,0.3-0.3c0.1-0.1,0.2-0.2,0.3-0.3c0.2-0.1,0.4-0.2,0.6-0.3   c0.2-0.1,0.4-0.1,0.6-0.1c0.3,0,0.6,0,0.8,0.1s0.5,0.2,0.6,0.4c0.2,0.2,0.3,0.4,0.4,0.7s0.1,0.6,0.1,1v3.6h-1v-3.6   c0-0.3,0-0.5-0.1-0.6c-0.1-0.2-0.1-0.3-0.2-0.4c-0.1-0.1-0.2-0.2-0.4-0.2s-0.3-0.1-0.6-0.1c-0.2,0-0.3,0-0.5,0.1   c-0.2,0.1-0.3,0.1-0.4,0.2c-0.1,0.1-0.2,0.2-0.3,0.3c-0.1,0.1-0.2,0.2-0.2,0.3v4.1h-1V20.1z"
   id="path26884" />
	<path
   d="M274.8,20.1V25h1.9v0.8h-4.8V25h1.9v-4h-1.9v-0.9H274.8z M273.7,18.4c0-0.1,0.1-0.1,0.1-0.2c0,0,0.1-0.1,0.2-0.1   c0.1,0,0.2,0,0.2,0c0.1,0,0.2,0,0.2,0c0.1,0,0.1,0.1,0.2,0.1c0.1,0,0.1,0.1,0.1,0.2c0,0.1,0,0.2,0,0.2c0,0.2,0,0.3-0.1,0.4   c-0.1,0.1-0.2,0.2-0.4,0.2c-0.2,0-0.3-0.1-0.4-0.2s-0.1-0.2-0.1-0.4C273.7,18.6,273.7,18.5,273.7,18.4z"
   id="path26886" />
	<path
   d="M278.1,21.8c0.1-0.4,0.3-0.7,0.5-0.9c0.2-0.3,0.5-0.5,0.8-0.6c0.3-0.1,0.7-0.2,1.1-0.2c0.4,0,0.8,0.1,1.1,0.2   c0.3,0.1,0.6,0.4,0.8,0.6c0.2,0.3,0.4,0.6,0.5,0.9c0.1,0.4,0.2,0.7,0.2,1.1v0.1c0,0.4-0.1,0.8-0.2,1.1c-0.1,0.4-0.3,0.7-0.5,0.9   c-0.2,0.3-0.5,0.5-0.8,0.6c-0.3,0.1-0.7,0.2-1.1,0.2c-0.4,0-0.8-0.1-1.1-0.2c-0.3-0.1-0.6-0.4-0.8-0.6c-0.2-0.3-0.4-0.6-0.5-0.9   c-0.1-0.4-0.2-0.7-0.2-1.1v-0.1C277.9,22.5,278,22.1,278.1,21.8z M279,23.9c0.1,0.3,0.2,0.5,0.3,0.7c0.1,0.2,0.3,0.3,0.5,0.5   s0.4,0.2,0.7,0.2c0.3,0,0.5-0.1,0.7-0.2c0.2-0.1,0.4-0.3,0.5-0.5c0.1-0.2,0.2-0.4,0.3-0.7c0.1-0.3,0.1-0.5,0.1-0.8v-0.1   c0-0.3,0-0.5-0.1-0.8c-0.1-0.3-0.2-0.5-0.3-0.7c-0.1-0.2-0.3-0.3-0.5-0.5c-0.2-0.1-0.4-0.2-0.7-0.2s-0.5,0.1-0.7,0.2   c-0.2,0.1-0.4,0.3-0.5,0.5c-0.1,0.2-0.2,0.4-0.3,0.7c-0.1,0.3-0.1,0.5-0.1,0.8v0.1C278.9,23.3,278.9,23.6,279,23.9z"
   id="path26888" />
	<path
   d="M289.4,24.5c-0.1,0.3-0.3,0.6-0.5,0.8c-0.2,0.2-0.5,0.4-0.8,0.5s-0.6,0.2-1,0.2c-0.3,0-0.6,0-0.9-0.1   c-0.3-0.1-0.5-0.2-0.7-0.4c-0.2-0.2-0.4-0.3-0.5-0.6c-0.1-0.2-0.3-0.4-0.4-0.7c-0.1-0.3-0.2-0.5-0.2-0.8c0-0.3-0.1-0.6-0.1-0.8   v-1.1c0-0.3,0-0.6,0.1-0.8c0-0.3,0.1-0.5,0.2-0.8c0.1-0.3,0.2-0.5,0.4-0.7c0.1-0.2,0.3-0.4,0.5-0.6c0.2-0.2,0.4-0.3,0.7-0.4   s0.5-0.1,0.9-0.1c0.4,0,0.7,0.1,1,0.2c0.3,0.1,0.6,0.3,0.8,0.5c0.2,0.2,0.4,0.5,0.5,0.8s0.2,0.6,0.3,1h-1c0-0.2-0.1-0.4-0.2-0.6   c-0.1-0.2-0.2-0.4-0.3-0.5c-0.1-0.2-0.3-0.3-0.5-0.4c-0.2-0.1-0.4-0.1-0.7-0.1c-0.2,0-0.4,0-0.6,0.1c-0.2,0.1-0.3,0.2-0.5,0.3   c-0.1,0.1-0.2,0.3-0.3,0.5c-0.1,0.2-0.2,0.4-0.2,0.5c-0.1,0.2-0.1,0.4-0.1,0.6c0,0.2,0,0.4,0,0.6v1.1c0,0.2,0,0.4,0,0.6   c0,0.2,0.1,0.4,0.1,0.6c0.1,0.2,0.1,0.4,0.2,0.6s0.2,0.3,0.3,0.5c0.1,0.1,0.3,0.2,0.5,0.3c0.2,0.1,0.4,0.1,0.6,0.1   c0.3,0,0.5,0,0.7-0.1c0.2-0.1,0.3-0.2,0.5-0.3c0.1-0.1,0.2-0.3,0.3-0.5c0.1-0.2,0.1-0.4,0.2-0.6h1   C289.6,23.9,289.5,24.2,289.4,24.5z"
   id="path26890" />
	<path
   d="M294.2,17.7V25h1.9v0.8h-4.8V25h1.9v-6.4h-1.9v-0.8H294.2z"
   id="path26892" />
	<path
   d="M300.7,20.1V25h1.9v0.8h-4.8V25h1.9v-4h-1.9v-0.9H300.7z M299.6,18.4c0-0.1,0.1-0.1,0.1-0.2c0,0,0.1-0.1,0.2-0.1   c0.1,0,0.2,0,0.2,0c0.1,0,0.2,0,0.2,0c0.1,0,0.1,0.1,0.2,0.1c0.1,0,0.1,0.1,0.1,0.2c0,0.1,0,0.2,0,0.2c0,0.2,0,0.3-0.1,0.4   c-0.1,0.1-0.2,0.2-0.4,0.2c-0.2,0-0.3-0.1-0.4-0.2s-0.1-0.2-0.1-0.4C299.6,18.6,299.6,18.5,299.6,18.4z"
   id="path26894" />
	<path
   d="M305.5,25.7c-0.3-0.1-0.6-0.3-0.9-0.6c-0.2-0.2-0.4-0.5-0.6-0.9s-0.2-0.7-0.2-1.1V23c0-0.5,0.1-0.9,0.2-1.2   c0.1-0.4,0.3-0.7,0.6-0.9c0.2-0.2,0.5-0.4,0.8-0.6c0.3-0.1,0.6-0.2,1-0.2c0.4,0,0.8,0.1,1.1,0.2c0.3,0.1,0.6,0.3,0.8,0.6   c0.2,0.3,0.4,0.6,0.5,0.9c0.1,0.3,0.2,0.7,0.2,1.1v0.4h-4.1v0c0,0.3,0.1,0.5,0.2,0.7c0.1,0.2,0.2,0.4,0.4,0.6   c0.2,0.2,0.3,0.3,0.6,0.4c0.2,0.1,0.5,0.1,0.7,0.1c0.3,0,0.7-0.1,0.9-0.2c0.3-0.1,0.5-0.3,0.7-0.6l0.6,0.5   c-0.2,0.3-0.5,0.5-0.9,0.8c-0.4,0.2-0.8,0.3-1.4,0.3C306.2,26,305.9,25.9,305.5,25.7z M306,20.9c-0.2,0.1-0.3,0.2-0.5,0.3   c-0.1,0.1-0.3,0.3-0.4,0.5s-0.2,0.4-0.2,0.7h3.1v0c0-0.2,0-0.4-0.1-0.6c-0.1-0.2-0.2-0.4-0.3-0.5c-0.1-0.1-0.3-0.3-0.5-0.4   c-0.2-0.1-0.4-0.1-0.6-0.1C306.3,20.8,306.1,20.9,306,20.9z"
   id="path26896" />
	<path
   d="M310.6,20.1h0.9l0.1,0.8c0.1-0.1,0.2-0.2,0.3-0.3c0.1-0.1,0.2-0.2,0.3-0.3c0.2-0.1,0.4-0.2,0.6-0.3   c0.2-0.1,0.4-0.1,0.6-0.1c0.3,0,0.6,0,0.8,0.1s0.5,0.2,0.6,0.4c0.2,0.2,0.3,0.4,0.4,0.7s0.1,0.6,0.1,1v3.6h-1v-3.6   c0-0.3,0-0.5-0.1-0.6c-0.1-0.2-0.1-0.3-0.2-0.4c-0.1-0.1-0.2-0.2-0.4-0.2s-0.3-0.1-0.6-0.1c-0.2,0-0.3,0-0.5,0.1   c-0.2,0.1-0.3,0.1-0.4,0.2c-0.1,0.1-0.2,0.2-0.3,0.3c-0.1,0.1-0.2,0.2-0.2,0.3v4.1h-1V20.1z"
   id="path26898" />
	<path
   d="M319.4,20.1h2.2v0.8h-2.2V24c0,0.2,0,0.4,0.1,0.5c0.1,0.1,0.1,0.3,0.2,0.3c0.1,0.1,0.2,0.1,0.3,0.2s0.3,0.1,0.4,0.1   c0.1,0,0.2,0,0.3,0c0.1,0,0.2,0,0.3,0c0.1,0,0.2,0,0.3-0.1c0.1,0,0.2,0,0.2-0.1l0.1,0.7c-0.1,0-0.2,0.1-0.3,0.1   c-0.1,0-0.2,0.1-0.4,0.1c-0.1,0-0.3,0-0.4,0.1c-0.2,0-0.3,0-0.5,0c-0.3,0-0.5,0-0.7-0.1c-0.2-0.1-0.4-0.2-0.6-0.3   c-0.2-0.2-0.3-0.4-0.4-0.6s-0.1-0.5-0.1-0.9v-3.1h-1.5v-0.8h1.5v-1.4h1V20.1z"
   id="path26900" />
	<path
   d="M325.5,24.7c0.1-0.1,0.3-0.2,0.6-0.2c0.3,0,0.4,0.1,0.6,0.2c0.1,0.1,0.2,0.3,0.2,0.5c0,0.2-0.1,0.4-0.2,0.5   s-0.3,0.2-0.6,0.2c-0.3,0-0.4-0.1-0.6-0.2c-0.1-0.1-0.2-0.3-0.2-0.5C325.3,25,325.3,24.8,325.5,24.7z"
   id="path26902" />
	<path
   d="M330,21.8c0.1-0.4,0.3-0.7,0.5-0.9c0.2-0.3,0.4-0.5,0.7-0.6c0.3-0.1,0.6-0.2,1-0.2c0.2,0,0.4,0,0.6,0.1   c0.2,0.1,0.4,0.1,0.5,0.2c0.1,0.1,0.2,0.1,0.2,0.2s0.1,0.1,0.2,0.2l0-0.6h0.9v5.6c0,0.4-0.1,0.7-0.2,1s-0.3,0.5-0.5,0.7   c-0.2,0.2-0.5,0.4-0.8,0.5c-0.3,0.1-0.6,0.2-1,0.2c-0.1,0-0.3,0-0.5-0.1c-0.2,0-0.4-0.1-0.6-0.2c-0.2-0.1-0.4-0.2-0.6-0.3   c-0.2-0.1-0.3-0.3-0.5-0.5l0.5-0.6c0.1,0.1,0.2,0.3,0.4,0.4c0.1,0.1,0.3,0.2,0.4,0.2c0.1,0.1,0.3,0.1,0.4,0.1c0.1,0,0.3,0,0.4,0   c0.2,0,0.4,0,0.6-0.1s0.3-0.2,0.5-0.3c0.1-0.1,0.2-0.3,0.3-0.5s0.1-0.4,0.1-0.7v-0.5c-0.1,0.1-0.2,0.2-0.2,0.2   c-0.1,0.1-0.2,0.1-0.3,0.2c-0.1,0.1-0.3,0.1-0.5,0.2c-0.2,0-0.4,0.1-0.6,0.1c-0.3,0-0.7-0.1-0.9-0.2c-0.3-0.1-0.5-0.4-0.7-0.6   c-0.2-0.3-0.3-0.6-0.5-0.9c-0.1-0.4-0.2-0.7-0.2-1.1v-0.1C329.9,22.5,329.9,22.1,330,21.8z M331,23.8c0.1,0.2,0.2,0.5,0.3,0.7   c0.1,0.2,0.3,0.3,0.5,0.5c0.2,0.1,0.4,0.2,0.7,0.2c0.2,0,0.3,0,0.5-0.1c0.1,0,0.3-0.1,0.4-0.2c0.1-0.1,0.2-0.2,0.3-0.3   c0.1-0.1,0.2-0.2,0.2-0.3v-2.6c-0.1-0.1-0.1-0.2-0.2-0.3c-0.1-0.1-0.2-0.2-0.3-0.3c-0.1-0.1-0.2-0.1-0.4-0.2   c-0.1,0-0.3-0.1-0.4-0.1c-0.3,0-0.5,0.1-0.7,0.2c-0.2,0.1-0.4,0.3-0.5,0.5c-0.1,0.2-0.2,0.4-0.3,0.7s-0.1,0.5-0.1,0.8v0.1   C330.9,23.3,330.9,23.6,331,23.8z"
   id="path26904" />
	<path
   d="M338,25.7c-0.3-0.1-0.6-0.3-0.9-0.6c-0.2-0.2-0.4-0.5-0.6-0.9s-0.2-0.7-0.2-1.1V23c0-0.5,0.1-0.9,0.2-1.2   c0.1-0.4,0.3-0.7,0.6-0.9c0.2-0.2,0.5-0.4,0.8-0.6c0.3-0.1,0.6-0.2,1-0.2c0.4,0,0.8,0.1,1.1,0.2c0.3,0.1,0.6,0.3,0.8,0.6   c0.2,0.3,0.4,0.6,0.5,0.9c0.1,0.3,0.2,0.7,0.2,1.1v0.4h-4.1v0c0,0.3,0.1,0.5,0.2,0.7c0.1,0.2,0.2,0.4,0.4,0.6   c0.2,0.2,0.3,0.3,0.6,0.4c0.2,0.1,0.5,0.1,0.7,0.1c0.3,0,0.7-0.1,0.9-0.2c0.3-0.1,0.5-0.3,0.7-0.6l0.6,0.5   c-0.2,0.3-0.5,0.5-0.9,0.8c-0.4,0.2-0.8,0.3-1.4,0.3C338.7,26,338.3,25.9,338,25.7z M338.4,20.9c-0.2,0.1-0.3,0.2-0.5,0.3   c-0.1,0.1-0.3,0.3-0.4,0.5s-0.2,0.4-0.2,0.7h3.1v0c0-0.2,0-0.4-0.1-0.6c-0.1-0.2-0.2-0.4-0.3-0.5c-0.1-0.1-0.3-0.3-0.5-0.4   c-0.2-0.1-0.4-0.1-0.6-0.1C338.8,20.8,338.6,20.9,338.4,20.9z"
   id="path26906" />
	<path
   d="M345.4,20.1h2.2v0.8h-2.2V24c0,0.2,0,0.4,0.1,0.5c0.1,0.1,0.1,0.3,0.2,0.3c0.1,0.1,0.2,0.1,0.3,0.2s0.3,0.1,0.4,0.1   c0.1,0,0.2,0,0.3,0c0.1,0,0.2,0,0.3,0c0.1,0,0.2,0,0.3-0.1c0.1,0,0.2,0,0.2-0.1l0.1,0.7c-0.1,0-0.2,0.1-0.3,0.1   c-0.1,0-0.2,0.1-0.4,0.1c-0.1,0-0.3,0-0.4,0.1c-0.2,0-0.3,0-0.5,0c-0.3,0-0.5,0-0.7-0.1c-0.2-0.1-0.4-0.2-0.6-0.3   c-0.2-0.2-0.3-0.4-0.4-0.6s-0.1-0.5-0.1-0.9v-3.1h-1.5v-0.8h1.5v-1.4h1V20.1z"
   id="path26908" />
	<path
   d="M354.5,23.3c0,0.3-0.1,0.5-0.2,0.8c-0.1,0.3-0.2,0.5-0.4,0.7s-0.3,0.4-0.5,0.6c-0.2,0.2-0.4,0.3-0.7,0.4   c-0.3,0.1-0.5,0.1-0.9,0.1c-0.3,0-0.6,0-0.9-0.1c-0.3-0.1-0.5-0.2-0.7-0.4c-0.2-0.2-0.4-0.4-0.5-0.6c-0.1-0.2-0.3-0.5-0.4-0.7   c-0.1-0.3-0.2-0.5-0.2-0.8s-0.1-0.6-0.1-0.8v-0.9c0-0.3,0-0.6,0.1-0.8s0.1-0.5,0.2-0.8c0.1-0.3,0.2-0.5,0.4-0.7   c0.1-0.2,0.3-0.4,0.5-0.6c0.2-0.2,0.4-0.3,0.7-0.4c0.3-0.1,0.5-0.1,0.9-0.1c0.3,0,0.6,0,0.9,0.1s0.5,0.2,0.7,0.4   c0.2,0.2,0.4,0.4,0.5,0.6c0.1,0.2,0.3,0.5,0.4,0.7c0.1,0.3,0.2,0.5,0.2,0.8c0,0.3,0.1,0.6,0.1,0.8v0.9   C354.5,22.7,354.5,23,354.5,23.3z M353.5,21c0-0.2-0.1-0.4-0.1-0.6c-0.1-0.2-0.1-0.4-0.2-0.6s-0.2-0.3-0.3-0.5   c-0.1-0.1-0.3-0.2-0.4-0.3s-0.4-0.1-0.6-0.1c-0.2,0-0.4,0-0.6,0.1c-0.2,0.1-0.3,0.2-0.4,0.3c-0.1,0.1-0.2,0.3-0.3,0.5   c-0.1,0.2-0.2,0.4-0.2,0.6c-0.1,0.2-0.1,0.4-0.1,0.6s0,0.4,0,0.6v0.9c0,0.2,0,0.4,0,0.6s0.1,0.4,0.1,0.6c0.1,0.2,0.1,0.4,0.2,0.6   c0.1,0.2,0.2,0.3,0.3,0.5c0.1,0.1,0.3,0.2,0.4,0.3s0.4,0.1,0.6,0.1c0.2,0,0.4,0,0.6-0.1c0.2-0.1,0.3-0.2,0.5-0.3   c0.1-0.1,0.2-0.3,0.3-0.5c0.1-0.2,0.2-0.4,0.2-0.6c0-0.2,0.1-0.4,0.1-0.6c0-0.2,0-0.4,0-0.6v-0.9C353.6,21.4,353.5,21.2,353.5,21z"
   id="path26910" />
	<path
   d="M360.8,23.8c0,0.2-0.1,0.4-0.2,0.6c-0.1,0.3-0.2,0.5-0.4,0.7c-0.2,0.2-0.3,0.4-0.6,0.5c-0.2,0.1-0.3,0.2-0.5,0.2   s-0.4,0.1-0.6,0.1c-0.2,0-0.5,0-0.7-0.1c-0.2-0.1-0.4-0.1-0.5-0.3c-0.1-0.1-0.2-0.1-0.2-0.2c-0.1-0.1-0.1-0.1-0.2-0.2l0,0.6H356   v-8.1h1v3c0.1-0.1,0.2-0.2,0.3-0.3c0.1-0.1,0.2-0.2,0.3-0.2c0.1-0.1,0.3-0.1,0.5-0.2s0.4-0.1,0.5-0.1c0.2,0,0.5,0,0.7,0.1   s0.4,0.2,0.6,0.3c0.2,0.1,0.3,0.2,0.4,0.4s0.2,0.3,0.3,0.5c0.1,0.2,0.2,0.5,0.2,0.7c0,0.3,0.1,0.6,0.1,0.9v0.1   C360.9,23.3,360.8,23.5,360.8,23.8z M359.8,22.4c0-0.2-0.1-0.3-0.1-0.5c-0.1-0.2-0.1-0.4-0.2-0.5s-0.2-0.3-0.4-0.4   c-0.1-0.1-0.2-0.1-0.3-0.1s-0.3-0.1-0.4-0.1c-0.2,0-0.3,0-0.5,0.1c-0.1,0-0.3,0.1-0.4,0.2c-0.1,0.1-0.2,0.2-0.3,0.3   c-0.1,0.1-0.2,0.2-0.2,0.4v2.5c0.1,0.1,0.1,0.2,0.2,0.4c0.1,0.1,0.2,0.2,0.3,0.3c0.1,0.1,0.2,0.1,0.4,0.2c0.1,0,0.3,0.1,0.5,0.1   c0.2,0,0.3,0,0.4-0.1s0.3-0.1,0.4-0.2c0.1-0.1,0.3-0.2,0.4-0.4c0.1-0.2,0.2-0.3,0.2-0.5c0-0.1,0.1-0.3,0.1-0.5c0-0.2,0-0.3,0-0.5   v-0.1C359.9,22.8,359.9,22.6,359.8,22.4z"
   id="path26912" />
	<path
   d="M366,20.1v5.7c0,0.4-0.1,0.7-0.2,1c-0.1,0.3-0.2,0.5-0.4,0.7c-0.2,0.2-0.4,0.3-0.7,0.4c-0.3,0.1-0.6,0.2-0.9,0.2   c-0.1,0-0.2,0-0.3,0s-0.2,0-0.3,0c-0.1,0-0.2,0-0.2,0c-0.1,0-0.2,0-0.3,0l0.1-0.8c0.1,0,0.1,0,0.2,0s0.2,0,0.3,0c0.1,0,0.2,0,0.3,0   c0.1,0,0.2,0,0.2,0c0.2,0,0.4,0,0.5-0.1c0.2,0,0.3-0.1,0.4-0.2c0.1-0.1,0.2-0.3,0.3-0.4c0.1-0.2,0.1-0.4,0.1-0.7V21h-1.9v-0.9H366z    M365.1,18.2c0.1-0.1,0.2-0.2,0.4-0.2s0.3,0.1,0.4,0.2s0.1,0.2,0.1,0.4c0,0.2,0,0.3-0.1,0.4s-0.2,0.2-0.4,0.2s-0.3-0.1-0.4-0.2   c-0.1-0.1-0.1-0.2-0.1-0.4C364.9,18.5,365,18.3,365.1,18.2z"
   id="path26914" />
	<path
   d="M370.4,25.7c-0.3-0.1-0.6-0.3-0.9-0.6c-0.2-0.2-0.4-0.5-0.6-0.9s-0.2-0.7-0.2-1.1V23c0-0.5,0.1-0.9,0.2-1.2   c0.1-0.4,0.3-0.7,0.6-0.9c0.2-0.2,0.5-0.4,0.8-0.6c0.3-0.1,0.6-0.2,1-0.2c0.4,0,0.8,0.1,1.1,0.2c0.3,0.1,0.6,0.3,0.8,0.6   c0.2,0.3,0.4,0.6,0.5,0.9c0.1,0.3,0.2,0.7,0.2,1.1v0.4h-4.1v0c0,0.3,0.1,0.5,0.2,0.7c0.1,0.2,0.2,0.4,0.4,0.6   c0.2,0.2,0.3,0.3,0.6,0.4c0.2,0.1,0.5,0.1,0.7,0.1c0.3,0,0.7-0.1,0.9-0.2c0.3-0.1,0.5-0.3,0.7-0.6l0.6,0.5   c-0.2,0.3-0.5,0.5-0.9,0.8c-0.4,0.2-0.8,0.3-1.4,0.3C371.1,26,370.7,25.9,370.4,25.7z M370.8,20.9c-0.2,0.1-0.3,0.2-0.5,0.3   c-0.1,0.1-0.3,0.3-0.4,0.5s-0.2,0.4-0.2,0.7h3.1v0c0-0.2,0-0.4-0.1-0.6c-0.1-0.2-0.2-0.4-0.3-0.5c-0.1-0.1-0.3-0.3-0.5-0.4   c-0.2-0.1-0.4-0.1-0.6-0.1C371.2,20.8,371,20.9,370.8,20.9z"
   id="path26916" />
	<path
   d="M378.4,25.1c0.2-0.1,0.3-0.1,0.4-0.2c0.1-0.1,0.2-0.2,0.3-0.4c0.1-0.1,0.1-0.3,0.1-0.4h0.9c0,0.3-0.1,0.5-0.2,0.7   c-0.1,0.2-0.3,0.4-0.5,0.6c-0.2,0.2-0.5,0.3-0.7,0.4c-0.3,0.1-0.6,0.2-0.9,0.2c-0.4,0-0.8-0.1-1.1-0.2s-0.6-0.4-0.8-0.6   c-0.2-0.3-0.4-0.6-0.5-0.9c-0.1-0.3-0.2-0.7-0.2-1.1v-0.2c0-0.4,0.1-0.7,0.2-1.1c0.1-0.3,0.3-0.6,0.5-0.9c0.2-0.3,0.5-0.5,0.8-0.6   s0.7-0.2,1.1-0.2c0.3,0,0.6,0.1,0.9,0.2s0.5,0.3,0.7,0.4c0.2,0.2,0.4,0.4,0.5,0.7s0.2,0.5,0.2,0.8h-0.9c0-0.2,0-0.3-0.1-0.5   c-0.1-0.2-0.2-0.3-0.3-0.4c-0.1-0.1-0.3-0.2-0.4-0.3c-0.2-0.1-0.4-0.1-0.6-0.1c-0.3,0-0.6,0.1-0.8,0.2c-0.2,0.1-0.4,0.3-0.5,0.5   c-0.1,0.2-0.2,0.4-0.3,0.7c-0.1,0.2-0.1,0.5-0.1,0.7v0.2c0,0.2,0,0.5,0.1,0.7c0.1,0.2,0.1,0.5,0.3,0.7c0.1,0.2,0.3,0.4,0.5,0.5   c0.2,0.1,0.5,0.2,0.8,0.2C378.1,25.2,378.3,25.1,378.4,25.1z"
   id="path26918" />
	<path
   d="M384.3,20.1h2.2v0.8h-2.2V24c0,0.2,0,0.4,0.1,0.5c0.1,0.1,0.1,0.3,0.2,0.3c0.1,0.1,0.2,0.1,0.3,0.2s0.3,0.1,0.4,0.1   c0.1,0,0.2,0,0.3,0c0.1,0,0.2,0,0.3,0c0.1,0,0.2,0,0.3-0.1c0.1,0,0.2,0,0.2-0.1l0.1,0.7c-0.1,0-0.2,0.1-0.3,0.1   c-0.1,0-0.2,0.1-0.4,0.1c-0.1,0-0.3,0-0.4,0.1c-0.2,0-0.3,0-0.5,0c-0.3,0-0.5,0-0.7-0.1c-0.2-0.1-0.4-0.2-0.6-0.3   c-0.2-0.2-0.3-0.4-0.4-0.6s-0.1-0.5-0.1-0.9v-3.1h-1.5v-0.8h1.5v-1.4h1V20.1z"
   id="path26920" />
	<path
   d="M389.5,21.3c0.1-0.4,0.2-0.9,0.3-1.2c0.1-0.4,0.3-0.7,0.5-1c0.2-0.3,0.4-0.6,0.6-0.8c0.2-0.2,0.4-0.5,0.6-0.6   c0.2-0.2,0.4-0.3,0.6-0.4l0.2,0.6c-0.1,0.1-0.2,0.2-0.3,0.3s-0.2,0.3-0.3,0.4c-0.2,0.2-0.3,0.5-0.5,0.8c-0.1,0.3-0.3,0.6-0.4,1   c-0.1,0.3-0.2,0.7-0.2,1.1c-0.1,0.4-0.1,0.8-0.1,1.3v0.1c0,0.4,0,0.9,0.1,1.2c0,0.4,0.1,0.7,0.2,1.1c0.1,0.3,0.2,0.6,0.3,0.9   s0.2,0.5,0.4,0.8c0.1,0.2,0.3,0.4,0.4,0.6c0.1,0.2,0.3,0.3,0.4,0.4l-0.2,0.6c-0.2-0.1-0.4-0.2-0.6-0.4c-0.2-0.2-0.4-0.4-0.6-0.6   c-0.2-0.2-0.4-0.5-0.6-0.8s-0.3-0.7-0.5-1c-0.1-0.4-0.2-0.8-0.3-1.2c-0.1-0.4-0.1-0.9-0.1-1.4v-0.1   C389.4,22.2,389.5,21.8,389.5,21.3z"
   id="path26922" />
	<path
   d="M398.4,24.2c-0.1,0.4-0.2,0.9-0.3,1.2c-0.1,0.4-0.3,0.7-0.5,1s-0.4,0.6-0.5,0.8c-0.2,0.2-0.4,0.5-0.6,0.6   c-0.2,0.2-0.4,0.3-0.6,0.4l-0.2-0.6c0.1-0.1,0.3-0.2,0.4-0.4s0.3-0.4,0.4-0.6c0.1-0.2,0.3-0.5,0.4-0.8s0.2-0.6,0.3-0.9   c0.1-0.3,0.1-0.7,0.2-1s0.1-0.8,0.1-1.2v-0.1c0-0.5,0-0.9-0.1-1.3s-0.1-0.7-0.2-1c-0.1-0.4-0.2-0.7-0.4-1c-0.1-0.3-0.3-0.6-0.4-0.8   c-0.1-0.2-0.2-0.3-0.4-0.5c-0.1-0.1-0.2-0.3-0.4-0.3l0.2-0.6c0.2,0.1,0.4,0.2,0.6,0.4c0.2,0.2,0.4,0.4,0.6,0.6   c0.2,0.2,0.4,0.5,0.6,0.8s0.3,0.7,0.5,1c0.1,0.4,0.2,0.8,0.3,1.2s0.1,0.9,0.1,1.5v0.1C398.5,23.3,398.5,23.8,398.4,24.2z"
   id="path26924" />
</g>
<path
   id="rect26928"
   class="st21"
   style="fill:none;stroke:#cf2144;stroke-miterlimit:10"
   d="m 197.60001,2 h 250.1 v 39.299999 h -250.1 z" />
<path
   id="rect26930"
   class="st11"
   style="fill:#cf2144"
   d="m 197.60001,92.199997 h 250.1 V 145.1 h -250.1 z" />
<g
   id="g26948">
	<g
   id="g26946">
		<g
   id="g26944">
			<g
   id="g26938">
				<path
   id="rect26932"
   class="st12"
   style="fill:#ffffff"
   d="m 308.60001,113.8 h 4.5 v 11.7 h -4.5 z" />
				<path
   class="st12"
   d="M303.1,114l-9.1,4.9c-0.1,0.1-0.3,0.1-0.4,0l-9.1-4.9c-0.2-0.1-0.4-0.2-0.7-0.2h0c-0.7,0-1.2,0.5-1.2,1.1      l0,10.6h4.5v-5c0-0.3,0.4-0.5,0.7-0.3l5.1,2.8c0.5,0.3,1.1,0.3,1.6,0l5.4-2.8c0.3-0.2,0.7,0,0.7,0.3v5.1h4.5v-10.6      c0-0.6-0.6-1.1-1.2-1.1h0C303.6,113.8,303.3,113.9,303.1,114z"
   id="path26934" />
				<path
   class="st12"
   d="M335.5,113.8h-4.6v5.3c0,0.3-0.4,0.5-0.7,0.3l-11.8-5.6c-0.2-0.1-0.4-0.1-0.6-0.1h0      c-0.7,0-1.2,0.5-1.2,1.1v10.6h4.5v-5.3c0-0.3,0.4-0.5,0.7-0.4l11.8,5.5c0.2,0.1,0.4,0.1,0.6,0.1l0,0c0.7,0,1.2-0.5,1.2-1.1      V113.8z"
   id="path26936" />
			</g>
			<path
   class="st12"
   d="M339,125.5v-11.7l2.1,0l0,11.7H339z"
   id="path26940" />
			<path
   class="st12"
   d="M353.2,125.7c-5.6,0-9.5-2.3-9.5-6.1c0-3.7,4-6.1,9.5-6.1c5.5,0,9.5,2.3,9.5,6.1     C362.7,123.4,358.9,125.7,353.2,125.7z M353.2,115.2c-4.1,0-7.3,1.6-7.3,4.5c0,2.9,3.2,4.5,7.3,4.5s7.3-1.6,7.3-4.5     C360.6,116.7,357.4,115.2,353.2,115.2z"
   id="path26942" />
		</g>
	</g>
</g>
<path
   id="polyline26950"
   class="st2"
   style="fill:#1b1717"
   d="m 322.3,45.9 h -2.2 l 2.6,-4.3 2.5,4.3 h -1.9" />
<path
   id="line26952"
   class="st26"
   style="fill:none;stroke:#1b1717;stroke-miterlimit:10"
   d="M 322.70001,91.699997 V 45.900002" />
<path
   id="rect26954"
   class="st4"
   style="fill:#577f9a"
   d="M 42.700001,220.8 H 292.80001 v 52.9 H 42.700001 Z" />
<g
   id="g26966">
	<path
   class="st12"
   d="M142.9,251.2v-10.7h4.2c0.8,0,1.5,0.2,2.1,0.5c0.6,0.3,1,0.7,1.3,1.3c0.3,0.5,0.5,1.2,0.5,1.9   s-0.2,1.3-0.5,1.9c-0.3,0.5-0.8,1-1.3,1.3c-0.6,0.3-1.3,0.5-2.1,0.5h-2.7v-1.8h2.3c0.4,0,0.8-0.1,1.1-0.2c0.3-0.2,0.5-0.4,0.6-0.6   s0.2-0.6,0.2-0.9c0-0.4-0.1-0.7-0.2-0.9c-0.1-0.3-0.4-0.5-0.6-0.6s-0.6-0.2-1.1-0.2h-1.5v8.9H142.9z"
   id="path26956" />
	<path
   class="st12"
   d="M162.3,245.9c0,1.2-0.2,2.2-0.7,3c-0.4,0.8-1,1.4-1.8,1.9c-0.8,0.4-1.6,0.6-2.6,0.6c-1,0-1.8-0.2-2.6-0.6   s-1.4-1.1-1.8-1.9c-0.4-0.8-0.7-1.8-0.7-3c0-1.2,0.2-2.2,0.7-3c0.4-0.8,1-1.4,1.8-1.9c0.8-0.4,1.6-0.6,2.6-0.6   c0.9,0,1.8,0.2,2.6,0.6c0.8,0.4,1.4,1.1,1.8,1.9C162.1,243.7,162.3,244.7,162.3,245.9z M160,245.9c0-0.8-0.1-1.4-0.3-1.9   s-0.5-0.9-1-1.2c-0.4-0.3-0.9-0.4-1.4-0.4s-1,0.1-1.4,0.4c-0.4,0.3-0.7,0.7-0.9,1.2s-0.3,1.2-0.3,1.9s0.1,1.4,0.3,1.9   s0.5,0.9,0.9,1.2c0.4,0.3,0.9,0.4,1.4,0.4s1-0.1,1.4-0.4s0.7-0.7,1-1.2S160,246.6,160,245.9z"
   id="path26958" />
	<path
   class="st12"
   d="M173.8,245.9c0,1.2-0.2,2.2-0.7,3c-0.4,0.8-1,1.4-1.8,1.9c-0.8,0.4-1.6,0.6-2.6,0.6c-1,0-1.8-0.2-2.6-0.6   s-1.4-1.1-1.8-1.9c-0.4-0.8-0.7-1.8-0.7-3c0-1.2,0.2-2.2,0.7-3c0.4-0.8,1-1.4,1.8-1.9c0.8-0.4,1.6-0.6,2.6-0.6   c0.9,0,1.8,0.2,2.6,0.6c0.8,0.4,1.4,1.1,1.8,1.9C173.6,243.7,173.8,244.7,173.8,245.9z M171.5,245.9c0-0.8-0.1-1.4-0.3-1.9   s-0.5-0.9-1-1.2c-0.4-0.3-0.9-0.4-1.4-0.4s-1,0.1-1.4,0.4c-0.4,0.3-0.7,0.7-0.9,1.2s-0.3,1.2-0.3,1.9s0.1,1.4,0.3,1.9   s0.5,0.9,0.9,1.2c0.4,0.3,0.9,0.4,1.4,0.4s1-0.1,1.4-0.4s0.7-0.7,1-1.2S171.5,246.6,171.5,245.9z"
   id="path26960" />
	<path
   class="st12"
   d="M175.5,251.2v-10.7h2.3v8.9h4.6v1.9H175.5z"
   id="path26962" />
	<path
   class="st12"
   d="M191.9,240.5v10.7h-2.3v-8.6h-0.1l-2.5,1.5v-2l2.7-1.7H191.9z"
   id="path26964" />
</g>
<path
   id="rect26968"
   class="st4"
   style="fill:#577f9a"
   d="m 354.10001,220.8 h 250.1 v 52.9 h -250.1 z" />
<g
   id="g26980">
	<path
   class="st12"
   d="M453.3,251.2v-10.7h4.2c0.8,0,1.5,0.2,2.1,0.5c0.6,0.3,1,0.7,1.3,1.3c0.3,0.5,0.5,1.2,0.5,1.9   s-0.2,1.3-0.5,1.9c-0.3,0.5-0.8,1-1.3,1.3c-0.6,0.3-1.3,0.5-2.1,0.5h-2.7v-1.8h2.3c0.4,0,0.8-0.1,1.1-0.2c0.3-0.2,0.5-0.4,0.6-0.6   s0.2-0.6,0.2-0.9c0-0.4-0.1-0.7-0.2-0.9c-0.1-0.3-0.4-0.5-0.6-0.6s-0.6-0.2-1.1-0.2h-1.5v8.9H453.3z"
   id="path26970" />
	<path
   class="st12"
   d="M472.7,245.9c0,1.2-0.2,2.2-0.7,3c-0.4,0.8-1,1.4-1.8,1.9c-0.8,0.4-1.6,0.6-2.6,0.6c-1,0-1.8-0.2-2.6-0.6   s-1.4-1.1-1.8-1.9c-0.4-0.8-0.7-1.8-0.7-3c0-1.2,0.2-2.2,0.7-3c0.4-0.8,1-1.4,1.8-1.9c0.8-0.4,1.6-0.6,2.6-0.6   c0.9,0,1.8,0.2,2.6,0.6c0.8,0.4,1.4,1.1,1.8,1.9C472.4,243.7,472.7,244.7,472.7,245.9z M470.4,245.9c0-0.8-0.1-1.4-0.3-1.9   s-0.5-0.9-1-1.2c-0.4-0.3-0.9-0.4-1.4-0.4s-1,0.1-1.4,0.4c-0.4,0.3-0.7,0.7-0.9,1.2s-0.3,1.2-0.3,1.9s0.1,1.4,0.3,1.9   s0.5,0.9,0.9,1.2c0.4,0.3,0.9,0.4,1.4,0.4s1-0.1,1.4-0.4s0.7-0.7,1-1.2S470.4,246.6,470.4,245.9z"
   id="path26972" />
	<path
   class="st12"
   d="M484.2,245.9c0,1.2-0.2,2.2-0.7,3c-0.4,0.8-1,1.4-1.8,1.9c-0.8,0.4-1.6,0.6-2.6,0.6c-1,0-1.8-0.2-2.6-0.6   s-1.4-1.1-1.8-1.9c-0.4-0.8-0.7-1.8-0.7-3c0-1.2,0.2-2.2,0.7-3c0.4-0.8,1-1.4,1.8-1.9c0.8-0.4,1.6-0.6,2.6-0.6   c0.9,0,1.8,0.2,2.6,0.6c0.8,0.4,1.4,1.1,1.8,1.9C484,243.7,484.2,244.7,484.2,245.9z M481.9,245.9c0-0.8-0.1-1.4-0.3-1.9   s-0.5-0.9-1-1.2c-0.4-0.3-0.9-0.4-1.4-0.4s-1,0.1-1.4,0.4c-0.4,0.3-0.7,0.7-0.9,1.2s-0.3,1.2-0.3,1.9s0.1,1.4,0.3,1.9   s0.5,0.9,0.9,1.2c0.4,0.3,0.9,0.4,1.4,0.4s1-0.1,1.4-0.4s0.7-0.7,1-1.2S481.9,246.6,481.9,245.9z"
   id="path26974" />
	<path
   class="st12"
   d="M485.9,251.2v-10.7h2.3v8.9h4.6v1.9H485.9z"
   id="path26976" />
	<path
   class="st12"
   d="M497.6,251.2v-1.6l3.8-3.5c0.3-0.3,0.6-0.6,0.8-0.8c0.2-0.3,0.4-0.5,0.5-0.7c0.1-0.2,0.2-0.5,0.2-0.8   c0-0.3-0.1-0.6-0.2-0.8s-0.3-0.4-0.6-0.5s-0.5-0.2-0.8-0.2c-0.3,0-0.6,0.1-0.9,0.2c-0.2,0.1-0.4,0.3-0.6,0.6   c-0.1,0.2-0.2,0.5-0.2,0.9h-2.2c0-0.7,0.2-1.3,0.5-1.8c0.3-0.5,0.8-0.9,1.3-1.2s1.2-0.4,2-0.4c0.8,0,1.4,0.1,2,0.4   c0.6,0.3,1,0.6,1.3,1.1c0.3,0.5,0.5,1,0.5,1.6c0,0.4-0.1,0.8-0.2,1.2c-0.2,0.4-0.4,0.8-0.8,1.3s-1,1.1-1.7,1.7l-1.6,1.5v0.1h4.5   v1.9H497.6z"
   id="path26978" />
</g>
<path
   id="polyline26982"
   class="st28"
   style="fill:none;stroke:#cf2144;stroke-miterlimit:10;stroke-dasharray:3, 3"
   d="m 166.2,220.8 v -36.4 h 313 v 36.4" />
<path
   id="rect26984"
   class="st3"
   style="fill:#f6f6f6"
   d="M 0,0.40000001 H 156.60001 V 56.499998 H 0 Z" />
<g
   id="g27018">
	<path
   d="M56.6,14.1V20h-0.9v-5.8H56.6z"
   id="path26986" />
	<path
   d="M58.7,17.4V20h-0.8v-4.4h0.8v0.7h0.1c0.1-0.2,0.3-0.4,0.5-0.6c0.2-0.1,0.5-0.2,0.8-0.2c0.3,0,0.6,0.1,0.8,0.2   c0.2,0.1,0.4,0.3,0.5,0.6c0.1,0.2,0.2,0.5,0.2,0.9V20h-0.8v-2.7c0-0.3-0.1-0.6-0.2-0.7c-0.2-0.2-0.4-0.3-0.7-0.3   c-0.2,0-0.4,0-0.5,0.1c-0.2,0.1-0.3,0.2-0.4,0.4C58.7,16.9,58.7,17.1,58.7,17.4z"
   id="path26988" />
	<path
   d="M64.7,15.6v0.7h-2.4v-0.7H64.7z M62.9,14.6h0.8v4.1c0,0.2,0,0.3,0.1,0.4c0,0.1,0.1,0.1,0.2,0.2c0.1,0,0.2,0,0.3,0   c0.1,0,0.1,0,0.2,0c0.1,0,0.1,0,0.1,0l0.2,0.7c0,0-0.1,0-0.2,0.1c-0.1,0-0.2,0-0.3,0c-0.2,0-0.4,0-0.6-0.1   c-0.2-0.1-0.3-0.2-0.5-0.4c-0.1-0.2-0.2-0.4-0.2-0.7V14.6z"
   id="path26990" />
	<path
   d="M67.4,20.1c-0.4,0-0.8-0.1-1.1-0.3s-0.5-0.4-0.7-0.8c-0.2-0.3-0.3-0.7-0.3-1.2c0-0.4,0.1-0.8,0.3-1.2   c0.2-0.3,0.4-0.6,0.7-0.8c0.3-0.2,0.7-0.3,1.1-0.3c0.2,0,0.5,0,0.7,0.1s0.4,0.2,0.6,0.4c0.2,0.2,0.3,0.4,0.4,0.7   c0.1,0.3,0.2,0.6,0.2,1V18h-3.5v-0.6h2.6c0-0.2,0-0.4-0.1-0.6s-0.2-0.3-0.4-0.4c-0.2-0.1-0.4-0.2-0.6-0.2c-0.2,0-0.4,0.1-0.6,0.2   c-0.2,0.1-0.3,0.3-0.4,0.5c-0.1,0.2-0.1,0.4-0.1,0.6V18c0,0.3,0.1,0.5,0.2,0.7c0.1,0.2,0.2,0.4,0.4,0.5c0.2,0.1,0.4,0.2,0.7,0.2   c0.2,0,0.3,0,0.4-0.1c0.1,0,0.2-0.1,0.3-0.2c0.1-0.1,0.2-0.2,0.2-0.3l0.8,0.1c-0.1,0.2-0.2,0.4-0.3,0.6c-0.2,0.2-0.4,0.3-0.6,0.4   C68,20,67.7,20.1,67.4,20.1z"
   id="path26992" />
	<path
   d="M70.2,20v-4.4h0.8v0.7h0c0.1-0.2,0.2-0.4,0.4-0.6c0.2-0.1,0.4-0.2,0.7-0.2c0.1,0,0.1,0,0.2,0s0.1,0,0.2,0v0.8   c0,0-0.1,0-0.2,0c-0.1,0-0.2,0-0.3,0c-0.2,0-0.4,0-0.5,0.1c-0.2,0.1-0.3,0.2-0.4,0.3c-0.1,0.1-0.1,0.3-0.1,0.5V20H70.2z"
   id="path26994" />
	<path
   d="M74.2,17.4V20h-0.8v-4.4h0.8v0.7h0.1c0.1-0.2,0.3-0.4,0.5-0.6c0.2-0.1,0.5-0.2,0.8-0.2c0.3,0,0.6,0.1,0.8,0.2   c0.2,0.1,0.4,0.3,0.5,0.6c0.1,0.2,0.2,0.5,0.2,0.9V20h-0.8v-2.7c0-0.3-0.1-0.6-0.2-0.7c-0.2-0.2-0.4-0.3-0.7-0.3   c-0.2,0-0.4,0-0.5,0.1c-0.2,0.1-0.3,0.2-0.4,0.4C74.2,16.9,74.2,17.1,74.2,17.4z"
   id="path26996" />
	<path
   d="M79.9,20.1c-0.4,0-0.8-0.1-1.1-0.3c-0.3-0.2-0.5-0.4-0.7-0.8c-0.2-0.3-0.3-0.7-0.3-1.2c0-0.5,0.1-0.8,0.3-1.2   c0.2-0.3,0.4-0.6,0.7-0.8c0.3-0.2,0.7-0.3,1.1-0.3s0.8,0.1,1.1,0.3c0.3,0.2,0.5,0.5,0.7,0.8c0.2,0.3,0.3,0.7,0.3,1.2   c0,0.5-0.1,0.8-0.3,1.2c-0.2,0.3-0.4,0.6-0.7,0.8C80.7,20,80.3,20.1,79.9,20.1z M79.9,19.3c0.3,0,0.5-0.1,0.7-0.2   c0.2-0.1,0.3-0.3,0.4-0.6c0.1-0.2,0.1-0.5,0.1-0.8c0-0.3,0-0.5-0.1-0.8c-0.1-0.2-0.2-0.4-0.4-0.6c-0.2-0.1-0.4-0.2-0.7-0.2   c-0.3,0-0.5,0.1-0.7,0.2S79,16.8,78.9,17s-0.1,0.5-0.1,0.8c0,0.3,0,0.5,0.1,0.8s0.2,0.4,0.4,0.6C79.4,19.3,79.7,19.3,79.9,19.3z"
   id="path26998" />
	<path
   d="M84.5,20.1c-0.4,0-0.7-0.1-0.9-0.3c-0.3-0.2-0.5-0.4-0.6-0.8c-0.2-0.3-0.2-0.7-0.2-1.2s0.1-0.9,0.2-1.2   c0.2-0.3,0.4-0.6,0.7-0.8c0.3-0.2,0.6-0.3,0.9-0.3c0.3,0,0.5,0,0.7,0.1c0.2,0.1,0.3,0.2,0.4,0.3c0.1,0.1,0.2,0.2,0.2,0.3h0.1v-2.2   h0.8V20h-0.8v-0.7h-0.1c-0.1,0.1-0.1,0.2-0.2,0.3s-0.2,0.2-0.4,0.3C85,20,84.8,20.1,84.5,20.1z M84.7,19.3c0.2,0,0.5-0.1,0.6-0.2   c0.2-0.1,0.3-0.3,0.4-0.5c0.1-0.2,0.1-0.5,0.1-0.8c0-0.3,0-0.6-0.1-0.8c-0.1-0.2-0.2-0.4-0.4-0.5c-0.2-0.1-0.4-0.2-0.6-0.2   c-0.3,0-0.5,0.1-0.6,0.2c-0.2,0.1-0.3,0.3-0.4,0.5c-0.1,0.2-0.1,0.5-0.1,0.8c0,0.3,0,0.6,0.1,0.8c0.1,0.2,0.2,0.4,0.4,0.6   C84.3,19.3,84.5,19.3,84.7,19.3z"
   id="path27000" />
	<path
   d="M89.8,20.1c-0.4,0-0.8-0.1-1.1-0.3S88.1,19.3,88,19c-0.2-0.3-0.3-0.7-0.3-1.2c0-0.4,0.1-0.8,0.3-1.2   c0.2-0.3,0.4-0.6,0.7-0.8c0.3-0.2,0.7-0.3,1.1-0.3c0.2,0,0.5,0,0.7,0.1s0.4,0.2,0.6,0.4c0.2,0.2,0.3,0.4,0.4,0.7   c0.1,0.3,0.2,0.6,0.2,1V18h-3.5v-0.6h2.6c0-0.2,0-0.4-0.1-0.6s-0.2-0.3-0.4-0.4c-0.2-0.1-0.4-0.2-0.6-0.2c-0.2,0-0.4,0.1-0.6,0.2   c-0.2,0.1-0.3,0.3-0.4,0.5c-0.1,0.2-0.1,0.4-0.1,0.6V18c0,0.3,0.1,0.5,0.2,0.7c0.1,0.2,0.2,0.4,0.4,0.5c0.2,0.1,0.4,0.2,0.7,0.2   c0.2,0,0.3,0,0.4-0.1c0.1,0,0.2-0.1,0.3-0.2c0.1-0.1,0.2-0.2,0.2-0.3l0.8,0.1c-0.1,0.2-0.2,0.4-0.3,0.6c-0.2,0.2-0.4,0.3-0.6,0.4   C90.4,20,90.1,20.1,89.8,20.1z"
   id="path27002" />
	<path
   d="M94.5,14.9v-0.8H99v0.8h-1.8V20h-0.9v-5.1H94.5z"
   id="path27004" />
	<path
   d="M99.5,20v-4.4h0.8v0.7h0c0.1-0.2,0.2-0.4,0.4-0.6c0.2-0.1,0.4-0.2,0.7-0.2c0.1,0,0.1,0,0.2,0s0.1,0,0.2,0v0.8   c0,0-0.1,0-0.2,0c-0.1,0-0.2,0-0.3,0c-0.2,0-0.4,0-0.5,0.1c-0.2,0.1-0.3,0.2-0.4,0.3c-0.1,0.1-0.1,0.3-0.1,0.5V20H99.5z"
   id="path27006" />
	<path
   d="M103.8,20.1c-0.3,0-0.5-0.1-0.8-0.2c-0.2-0.1-0.4-0.3-0.5-0.5c-0.1-0.2-0.2-0.4-0.2-0.7c0-0.2,0-0.4,0.1-0.6   s0.2-0.3,0.4-0.4s0.3-0.2,0.5-0.2c0.2,0,0.4-0.1,0.6-0.1c0.3,0,0.5-0.1,0.6-0.1c0.2,0,0.3-0.1,0.4-0.1c0.1,0,0.1-0.1,0.1-0.2v0   c0-0.2-0.1-0.4-0.2-0.6s-0.3-0.2-0.6-0.2c-0.3,0-0.5,0.1-0.7,0.2c-0.2,0.1-0.3,0.3-0.3,0.4l-0.8-0.2c0.1-0.3,0.2-0.5,0.4-0.6   c0.2-0.2,0.4-0.3,0.6-0.4s0.5-0.1,0.8-0.1c0.2,0,0.4,0,0.6,0.1c0.2,0,0.4,0.1,0.6,0.2s0.3,0.3,0.4,0.5s0.2,0.5,0.2,0.8V20h-0.8   v-0.6h0c-0.1,0.1-0.1,0.2-0.2,0.3c-0.1,0.1-0.3,0.2-0.4,0.3C104.2,20,104,20.1,103.8,20.1z M104,19.4c0.2,0,0.4,0,0.6-0.1   c0.2-0.1,0.3-0.2,0.4-0.4c0.1-0.2,0.1-0.3,0.1-0.5v-0.6c0,0-0.1,0.1-0.2,0.1c-0.1,0-0.2,0-0.3,0.1s-0.2,0-0.3,0c-0.1,0-0.2,0-0.3,0   c-0.2,0-0.3,0.1-0.5,0.1c-0.1,0-0.2,0.1-0.3,0.2c-0.1,0.1-0.1,0.2-0.1,0.4c0,0.2,0.1,0.4,0.2,0.5S103.7,19.4,104,19.4z"
   id="path27008" />
	<path
   d="M109.2,15.6v0.7h-2.5v-0.7H109.2z M107.4,20v-4.9c0-0.3,0.1-0.5,0.2-0.7c0.1-0.2,0.3-0.3,0.5-0.4c0.2-0.1,0.4-0.1,0.6-0.1   c0.2,0,0.3,0,0.4,0s0.2,0.1,0.3,0.1l-0.2,0.7c0,0-0.1,0-0.2,0s-0.1,0-0.2,0c-0.2,0-0.4,0.1-0.4,0.2c-0.1,0.1-0.1,0.2-0.1,0.4V20   H107.4z"
   id="path27010" />
	<path
   d="M112.1,15.6v0.7h-2.5v-0.7H112.1z M110.3,20v-4.9c0-0.3,0.1-0.5,0.2-0.7c0.1-0.2,0.3-0.3,0.5-0.4c0.2-0.1,0.4-0.1,0.6-0.1   c0.2,0,0.3,0,0.4,0s0.2,0.1,0.3,0.1l-0.2,0.7c0,0-0.1,0-0.2,0s-0.1,0-0.2,0c-0.2,0-0.4,0.1-0.4,0.2c-0.1,0.1-0.1,0.2-0.1,0.4V20   H110.3z"
   id="path27012" />
	<path
   d="M113.4,14.9c-0.1,0-0.3,0-0.4-0.1c-0.1-0.1-0.2-0.2-0.2-0.4c0-0.1,0.1-0.3,0.2-0.4c0.1-0.1,0.2-0.1,0.4-0.1s0.3,0,0.4,0.1   c0.1,0.1,0.2,0.2,0.2,0.4c0,0.1-0.1,0.3-0.2,0.4C113.7,14.9,113.6,14.9,113.4,14.9z M113,20v-4.4h0.8V20H113z"
   id="path27014" />
	<path
   d="M116.8,20.1c-0.4,0-0.8-0.1-1.1-0.3c-0.3-0.2-0.5-0.5-0.7-0.8c-0.2-0.3-0.2-0.7-0.2-1.2c0-0.4,0.1-0.8,0.2-1.2   c0.2-0.3,0.4-0.6,0.7-0.8c0.3-0.2,0.7-0.3,1.1-0.3c0.3,0,0.6,0.1,0.9,0.2c0.3,0.1,0.5,0.3,0.6,0.5c0.2,0.2,0.3,0.5,0.3,0.8h-0.8   c0-0.2-0.1-0.4-0.3-0.5c-0.2-0.1-0.4-0.2-0.6-0.2c-0.2,0-0.4,0.1-0.6,0.2s-0.3,0.3-0.4,0.5c-0.1,0.2-0.1,0.5-0.1,0.8   c0,0.3,0,0.6,0.1,0.8s0.2,0.4,0.4,0.5c0.2,0.1,0.4,0.2,0.6,0.2c0.2,0,0.3,0,0.4-0.1c0.1-0.1,0.2-0.1,0.3-0.3   c0.1-0.1,0.2-0.2,0.2-0.4h0.8c0,0.3-0.1,0.5-0.3,0.8s-0.4,0.4-0.6,0.5C117.5,20,117.2,20.1,116.8,20.1z"
   id="path27016" />
</g>
<g
   id="g27044">
	<path
   d="M64.7,35.8c0-0.3-0.2-0.5-0.4-0.6c-0.2-0.1-0.5-0.2-0.8-0.2c-0.2,0-0.4,0-0.6,0.1c-0.2,0.1-0.3,0.2-0.4,0.3   c-0.1,0.1-0.1,0.3-0.1,0.4c0,0.1,0,0.3,0.1,0.4c0.1,0.1,0.2,0.2,0.3,0.3s0.2,0.1,0.3,0.2c0.1,0,0.2,0.1,0.4,0.1l0.6,0.1   c0.2,0,0.4,0.1,0.6,0.2c0.2,0.1,0.4,0.2,0.5,0.3c0.2,0.1,0.3,0.3,0.4,0.5c0.1,0.2,0.2,0.4,0.2,0.7c0,0.3-0.1,0.6-0.3,0.9   s-0.4,0.5-0.7,0.6c-0.3,0.1-0.7,0.2-1.2,0.2c-0.4,0-0.8-0.1-1.1-0.2c-0.3-0.1-0.6-0.3-0.7-0.6c-0.2-0.3-0.3-0.6-0.3-0.9h0.9   c0,0.2,0.1,0.4,0.2,0.5c0.1,0.1,0.3,0.2,0.5,0.3s0.4,0.1,0.6,0.1c0.2,0,0.5,0,0.7-0.1c0.2-0.1,0.3-0.2,0.5-0.3   c0.1-0.1,0.2-0.3,0.2-0.5c0-0.2,0-0.3-0.1-0.4c-0.1-0.1-0.2-0.2-0.4-0.3c-0.2-0.1-0.4-0.1-0.6-0.2L63,37.4   c-0.5-0.1-0.8-0.3-1.1-0.6c-0.3-0.2-0.4-0.6-0.4-1c0-0.3,0.1-0.6,0.3-0.9c0.2-0.2,0.4-0.4,0.7-0.6c0.3-0.1,0.7-0.2,1.1-0.2   c0.4,0,0.7,0.1,1,0.2c0.3,0.1,0.5,0.3,0.7,0.6s0.3,0.5,0.3,0.8H64.7z"
   id="path27020" />
	<path
   d="M68.7,40.1c-0.4,0-0.7-0.1-1-0.2c-0.3-0.1-0.5-0.3-0.7-0.6c-0.2-0.2-0.3-0.5-0.3-0.8h0.9c0,0.2,0.1,0.3,0.2,0.4   c0.1,0.1,0.2,0.2,0.4,0.3c0.2,0.1,0.4,0.1,0.6,0.1c0.2,0,0.4,0,0.6-0.1c0.2-0.1,0.3-0.2,0.4-0.3c0.1-0.1,0.2-0.3,0.2-0.5   c0-0.2,0-0.4-0.1-0.5c-0.1-0.1-0.2-0.3-0.4-0.4c-0.2-0.1-0.4-0.1-0.7-0.1h-0.5v-0.7h0.5c0.2,0,0.4,0,0.6-0.1   c0.2-0.1,0.3-0.2,0.4-0.3c0.1-0.1,0.1-0.3,0.1-0.5c0-0.2,0-0.3-0.1-0.5s-0.2-0.2-0.3-0.3c-0.1-0.1-0.3-0.1-0.5-0.1   c-0.2,0-0.4,0-0.5,0.1c-0.2,0.1-0.3,0.2-0.4,0.3c-0.1,0.1-0.2,0.3-0.2,0.5h-0.8c0-0.3,0.1-0.6,0.3-0.8c0.2-0.2,0.4-0.4,0.7-0.6   c0.3-0.1,0.6-0.2,1-0.2c0.4,0,0.7,0.1,1,0.2c0.3,0.1,0.5,0.3,0.6,0.6c0.1,0.2,0.2,0.5,0.2,0.8c0,0.3-0.1,0.6-0.3,0.8   S69.8,37,69.5,37v0c0.4,0.1,0.7,0.2,0.9,0.5c0.2,0.2,0.3,0.6,0.3,0.9c0,0.3-0.1,0.6-0.3,0.9c-0.2,0.3-0.4,0.5-0.7,0.6   C69.4,40.1,69.1,40.1,68.7,40.1z"
   id="path27022" />
	<path
   d="M74.5,40.1h-0.9l2.1-5.8h1l2.1,5.8h-0.9l-1.6-4.8h0L74.5,40.1z M74.6,37.8h3v0.7h-3V37.8z"
   id="path27024" />
	<path
   d="M79.6,40.1v-5.8h2.1c0.5,0,0.8,0.1,1.1,0.2s0.5,0.4,0.7,0.7c0.1,0.3,0.2,0.6,0.2,1c0,0.4-0.1,0.7-0.2,1   c-0.1,0.3-0.4,0.5-0.7,0.7c-0.3,0.2-0.7,0.2-1.1,0.2h-1.4v-0.7h1.3c0.3,0,0.5,0,0.7-0.1s0.3-0.2,0.4-0.4c0.1-0.2,0.1-0.4,0.1-0.6   s0-0.4-0.1-0.6c-0.1-0.2-0.2-0.3-0.4-0.4C82.1,35,81.9,35,81.6,35h-1.1v5.1H79.6z"
   id="path27026" />
	<path
   d="M85.6,34.2v5.8h-0.9v-5.8H85.6z"
   id="path27028" />
	<path
   d="M88.7,35v-0.8h4.5V35h-1.8v5.1h-0.9V35H88.7z"
   id="path27030" />
	<path
   d="M93.7,40.1v-4.4h0.8v0.7h0c0.1-0.2,0.2-0.4,0.4-0.6c0.2-0.1,0.4-0.2,0.7-0.2c0.1,0,0.1,0,0.2,0s0.1,0,0.2,0v0.8   c0,0-0.1,0-0.2,0c-0.1,0-0.2,0-0.3,0c-0.2,0-0.4,0-0.5,0.1s-0.3,0.2-0.4,0.3c-0.1,0.1-0.1,0.3-0.1,0.5v2.7H93.7z"
   id="path27032" />
	<path
   d="M98,40.2c-0.3,0-0.5-0.1-0.8-0.2s-0.4-0.3-0.5-0.5s-0.2-0.4-0.2-0.7c0-0.2,0-0.4,0.1-0.6s0.2-0.3,0.4-0.4s0.3-0.2,0.5-0.2   c0.2,0,0.4-0.1,0.6-0.1c0.3,0,0.5-0.1,0.6-0.1c0.2,0,0.3-0.1,0.4-0.1c0.1,0,0.1-0.1,0.1-0.2v0c0-0.2-0.1-0.4-0.2-0.6   c-0.1-0.1-0.3-0.2-0.6-0.2c-0.3,0-0.5,0.1-0.7,0.2c-0.2,0.1-0.3,0.3-0.3,0.4l-0.8-0.2c0.1-0.3,0.2-0.5,0.4-0.6   c0.2-0.2,0.4-0.3,0.6-0.4c0.2-0.1,0.5-0.1,0.8-0.1c0.2,0,0.4,0,0.6,0.1c0.2,0,0.4,0.1,0.6,0.2c0.2,0.1,0.3,0.3,0.4,0.5   c0.1,0.2,0.2,0.5,0.2,0.8v2.9h-0.8v-0.6h0c-0.1,0.1-0.1,0.2-0.2,0.3c-0.1,0.1-0.3,0.2-0.4,0.3C98.4,40.1,98.2,40.2,98,40.2z    M98.2,39.5c0.2,0,0.4,0,0.6-0.1c0.2-0.1,0.3-0.2,0.4-0.4c0.1-0.2,0.1-0.3,0.1-0.5v-0.6c0,0-0.1,0.1-0.2,0.1c-0.1,0-0.2,0-0.3,0.1   c-0.1,0-0.2,0-0.3,0c-0.1,0-0.2,0-0.3,0c-0.2,0-0.3,0.1-0.5,0.1c-0.1,0-0.2,0.1-0.3,0.2c-0.1,0.1-0.1,0.2-0.1,0.4   c0,0.2,0.1,0.4,0.2,0.5C97.7,39.4,97.9,39.5,98.2,39.5z"
   id="path27034" />
	<path
   d="M103.3,35.7v0.7h-2.5v-0.7H103.3z M101.5,40.1v-4.9c0-0.3,0.1-0.5,0.2-0.7c0.1-0.2,0.3-0.3,0.5-0.4   c0.2-0.1,0.4-0.1,0.6-0.1c0.2,0,0.3,0,0.4,0s0.2,0.1,0.3,0.1l-0.2,0.7c0,0-0.1,0-0.2,0c-0.1,0-0.1,0-0.2,0c-0.2,0-0.4,0.1-0.4,0.2   c-0.1,0.1-0.1,0.2-0.1,0.4v4.8H101.5z"
   id="path27036" />
	<path
   d="M106.3,35.7v0.7h-2.5v-0.7H106.3z M104.5,40.1v-4.9c0-0.3,0.1-0.5,0.2-0.7c0.1-0.2,0.3-0.3,0.5-0.4   c0.2-0.1,0.4-0.1,0.6-0.1c0.2,0,0.3,0,0.4,0s0.2,0.1,0.3,0.1l-0.2,0.7c0,0-0.1,0-0.2,0c-0.1,0-0.1,0-0.2,0c-0.2,0-0.4,0.1-0.4,0.2   c-0.1,0.1-0.1,0.2-0.1,0.4v4.8H104.5z"
   id="path27038" />
	<path
   d="M107.6,35c-0.1,0-0.3,0-0.4-0.1c-0.1-0.1-0.2-0.2-0.2-0.4c0-0.1,0.1-0.3,0.2-0.4c0.1-0.1,0.2-0.1,0.4-0.1s0.3,0,0.4,0.1   c0.1,0.1,0.2,0.2,0.2,0.4c0,0.1-0.1,0.3-0.2,0.4C107.9,35,107.7,35,107.6,35z M107.2,40.1v-4.4h0.8v4.4H107.2z"
   id="path27040" />
	<path
   d="M111,40.1c-0.4,0-0.8-0.1-1.1-0.3c-0.3-0.2-0.5-0.5-0.7-0.8c-0.2-0.3-0.2-0.7-0.2-1.2c0-0.4,0.1-0.8,0.2-1.2   s0.4-0.6,0.7-0.8c0.3-0.2,0.7-0.3,1.1-0.3c0.3,0,0.6,0.1,0.9,0.2c0.3,0.1,0.5,0.3,0.6,0.5c0.2,0.2,0.3,0.5,0.3,0.8H112   c0-0.2-0.1-0.4-0.3-0.5s-0.4-0.2-0.6-0.2c-0.2,0-0.4,0.1-0.6,0.2s-0.3,0.3-0.4,0.5c-0.1,0.2-0.1,0.5-0.1,0.8c0,0.3,0,0.6,0.1,0.8   c0.1,0.2,0.2,0.4,0.4,0.5c0.2,0.1,0.4,0.2,0.6,0.2c0.2,0,0.3,0,0.4-0.1c0.1-0.1,0.2-0.1,0.3-0.3s0.2-0.2,0.2-0.4h0.8   c0,0.3-0.1,0.5-0.3,0.8s-0.4,0.4-0.6,0.5S111.3,40.1,111,40.1z"
   id="path27042" />
</g>
<path
   id="line27046"
   class="st28"
   style="fill:none;stroke:#cf2144;stroke-miterlimit:10;stroke-dasharray:3, 3"
   d="M 14.3,17.200001 H 46.299999" />
<path
   id="line27048"
   class="st26"
   style="fill:none;stroke:#1b1717;stroke-miterlimit:10"
   d="M 14.3,37.200001 H 46.299999" />
<path
   id="polyline27050"
   class="st28"
   style="fill:none;stroke:#cf2144;stroke-miterlimit:10;stroke-dasharray:3, 3"
   d="m 166.2,273.7 v 34.1 H 229 v 21.1" />
<g
   id="g27068">
	<path
   d="M79.8,351v-6.5h4.4v1.1h-3v1.6H84v1.1h-2.8v1.6h3v1.1H79.8z"
   id="path27052" />
	<path
   d="M85.4,351v-6.5h2.6c0.5,0,0.9,0.1,1.3,0.3s0.6,0.4,0.8,0.7s0.3,0.7,0.3,1.1c0,0.4-0.1,0.8-0.3,1.1s-0.5,0.6-0.8,0.7   c-0.4,0.2-0.8,0.2-1.3,0.2h-1.7v-1.1h1.5c0.3,0,0.5,0,0.7-0.1c0.2-0.1,0.3-0.2,0.4-0.3s0.1-0.3,0.1-0.5c0-0.2,0-0.4-0.1-0.5   s-0.2-0.3-0.4-0.3s-0.4-0.1-0.7-0.1h-0.9v5.4H85.4z M88.9,348.1l1.6,3H89l-1.6-3H88.9z"
   id="path27054" />
	<path
   d="M92.4,351h-1.5l2.3-6.5H95l2.3,6.5h-1.5l-1.6-5H94L92.4,351z M92.3,348.5h3.5v1.1h-3.5V348.5z"
   id="path27056" />
	<path
   d="M101.4,346.4c0-0.3-0.1-0.5-0.3-0.6c-0.2-0.1-0.5-0.2-0.8-0.2c-0.2,0-0.4,0-0.6,0.1c-0.2,0.1-0.3,0.1-0.4,0.3   s-0.1,0.2-0.1,0.4c0,0.1,0,0.2,0.1,0.3c0.1,0.1,0.1,0.2,0.2,0.2s0.2,0.1,0.3,0.2c0.1,0,0.3,0.1,0.4,0.1l0.6,0.1   c0.3,0.1,0.5,0.1,0.8,0.3s0.4,0.2,0.6,0.4c0.2,0.2,0.3,0.3,0.4,0.5c0.1,0.2,0.1,0.5,0.1,0.7c0,0.4-0.1,0.7-0.3,1   c-0.2,0.3-0.5,0.5-0.9,0.7c-0.4,0.2-0.8,0.2-1.4,0.2c-0.5,0-1-0.1-1.4-0.2c-0.4-0.2-0.7-0.4-0.9-0.7c-0.2-0.3-0.3-0.7-0.3-1.2H99   c0,0.2,0.1,0.4,0.2,0.5s0.3,0.3,0.5,0.3s0.4,0.1,0.6,0.1c0.2,0,0.4,0,0.6-0.1c0.2-0.1,0.3-0.2,0.4-0.3c0.1-0.1,0.1-0.3,0.1-0.4   c0-0.1,0-0.3-0.1-0.4c-0.1-0.1-0.2-0.2-0.4-0.3s-0.4-0.1-0.6-0.2l-0.7-0.2c-0.6-0.1-1-0.3-1.3-0.6c-0.3-0.3-0.5-0.7-0.5-1.2   c0-0.4,0.1-0.7,0.3-1c0.2-0.3,0.5-0.5,0.9-0.7c0.4-0.2,0.8-0.2,1.3-0.2c0.5,0,0.9,0.1,1.3,0.2c0.4,0.2,0.6,0.4,0.8,0.7   c0.2,0.3,0.3,0.6,0.3,1H101.4z"
   id="path27058" />
	<path
   d="M107.8,344.5h1.4v4.3c0,0.5-0.1,0.9-0.3,1.3s-0.5,0.6-1,0.8c-0.4,0.2-0.9,0.3-1.4,0.3c-0.5,0-1-0.1-1.4-0.3   c-0.4-0.2-0.7-0.5-0.9-0.8c-0.2-0.4-0.3-0.8-0.3-1.3v-4.3h1.4v4.1c0,0.2,0.1,0.5,0.2,0.7c0.1,0.2,0.3,0.3,0.5,0.5s0.4,0.2,0.7,0.2   c0.3,0,0.5-0.1,0.7-0.2s0.4-0.3,0.5-0.5s0.2-0.4,0.2-0.7V344.5z"
   id="path27060" />
	<path
   d="M110.3,351v-6.5h2.6c0.5,0,0.9,0.1,1.3,0.3s0.6,0.4,0.8,0.7s0.3,0.7,0.3,1.1c0,0.4-0.1,0.8-0.3,1.1s-0.5,0.6-0.8,0.7   c-0.4,0.2-0.8,0.2-1.3,0.2h-1.7v-1.1h1.5c0.3,0,0.5,0,0.7-0.1c0.2-0.1,0.3-0.2,0.4-0.3s0.1-0.3,0.1-0.5c0-0.2,0-0.4-0.1-0.5   s-0.2-0.3-0.4-0.3s-0.4-0.1-0.7-0.1h-0.9v5.4H110.3z M113.8,348.1l1.6,3h-1.5l-1.6-3H113.8z"
   id="path27062" />
	<path
   d="M116.2,351v-6.5h4.4v1.1h-3v1.6h2.8v1.1h-2.8v1.6h3v1.1H116.2z"
   id="path27064" />
	<path
   d="M126.6,344.5v6.5h-1.4v-5.2h0l-1.5,0.9v-1.2l1.6-1H126.6z"
   id="path27066" />
</g>
<path
   id="rect27070"
   class="st21"
   style="fill:none;stroke:#cf2144;stroke-miterlimit:10"
   d="m 171.3,328.89999 h 121.5 v 39.3 H 171.3 Z" />
<g
   id="g27092">
	<path
   d="M206.8,351v-6.5h4.4v1.1h-3v1.6h2.8v1.1h-2.8v1.6h3v1.1H206.8z"
   id="path27072" />
	<path
   d="M212.3,351v-6.5h2.6c0.5,0,0.9,0.1,1.3,0.3s0.6,0.4,0.8,0.7s0.3,0.7,0.3,1.1c0,0.4-0.1,0.8-0.3,1.1s-0.5,0.6-0.8,0.7   c-0.4,0.2-0.8,0.2-1.3,0.2h-1.7v-1.1h1.5c0.3,0,0.5,0,0.7-0.1c0.2-0.1,0.3-0.2,0.4-0.3s0.1-0.3,0.1-0.5c0-0.2,0-0.4-0.1-0.5   s-0.2-0.3-0.4-0.3s-0.4-0.1-0.7-0.1h-0.9v5.4H212.3z M215.8,348.1l1.6,3h-1.5l-1.6-3H215.8z"
   id="path27074" />
	<path
   d="M219.3,351h-1.5l2.3-6.5h1.8l2.3,6.5h-1.5l-1.6-5H221L219.3,351z M219.2,348.5h3.5v1.1h-3.5V348.5z"
   id="path27076" />
	<path
   d="M228.3,346.4c0-0.3-0.1-0.5-0.3-0.6c-0.2-0.1-0.5-0.2-0.8-0.2c-0.2,0-0.4,0-0.6,0.1c-0.2,0.1-0.3,0.1-0.4,0.3   s-0.1,0.2-0.1,0.4c0,0.1,0,0.2,0.1,0.3c0.1,0.1,0.1,0.2,0.2,0.2s0.2,0.1,0.3,0.2c0.1,0,0.3,0.1,0.4,0.1l0.6,0.1   c0.3,0.1,0.5,0.1,0.8,0.3s0.4,0.2,0.6,0.4c0.2,0.2,0.3,0.3,0.4,0.5c0.1,0.2,0.1,0.5,0.1,0.7c0,0.4-0.1,0.7-0.3,1   c-0.2,0.3-0.5,0.5-0.9,0.7c-0.4,0.2-0.8,0.2-1.4,0.2c-0.5,0-1-0.1-1.4-0.2c-0.4-0.2-0.7-0.4-0.9-0.7c-0.2-0.3-0.3-0.7-0.3-1.2h1.3   c0,0.2,0.1,0.4,0.2,0.5s0.3,0.3,0.5,0.3s0.4,0.1,0.6,0.1c0.2,0,0.4,0,0.6-0.1c0.2-0.1,0.3-0.2,0.4-0.3c0.1-0.1,0.1-0.3,0.1-0.4   c0-0.1,0-0.3-0.1-0.4c-0.1-0.1-0.2-0.2-0.4-0.3s-0.4-0.1-0.6-0.2l-0.7-0.2c-0.6-0.1-1-0.3-1.3-0.6c-0.3-0.3-0.5-0.7-0.5-1.2   c0-0.4,0.1-0.7,0.3-1c0.2-0.3,0.5-0.5,0.9-0.7c0.4-0.2,0.8-0.2,1.3-0.2c0.5,0,0.9,0.1,1.3,0.2c0.4,0.2,0.6,0.4,0.8,0.7   c0.2,0.3,0.3,0.6,0.3,1H228.3z"
   id="path27078" />
	<path
   d="M234.7,344.5h1.4v4.3c0,0.5-0.1,0.9-0.3,1.3s-0.5,0.6-1,0.8c-0.4,0.2-0.9,0.3-1.4,0.3c-0.5,0-1-0.1-1.4-0.3   c-0.4-0.2-0.7-0.5-0.9-0.8c-0.2-0.4-0.3-0.8-0.3-1.3v-4.3h1.4v4.1c0,0.2,0.1,0.5,0.2,0.7c0.1,0.2,0.3,0.3,0.5,0.5s0.4,0.2,0.7,0.2   c0.3,0,0.5-0.1,0.7-0.2s0.4-0.3,0.5-0.5s0.2-0.4,0.2-0.7V344.5z"
   id="path27080" />
	<path
   d="M237.2,351v-6.5h2.6c0.5,0,0.9,0.1,1.3,0.3s0.6,0.4,0.8,0.7s0.3,0.7,0.3,1.1c0,0.4-0.1,0.8-0.3,1.1s-0.5,0.6-0.8,0.7   c-0.4,0.2-0.8,0.2-1.3,0.2h-1.7v-1.1h1.5c0.3,0,0.5,0,0.7-0.1c0.2-0.1,0.3-0.2,0.4-0.3s0.1-0.3,0.1-0.5c0-0.2,0-0.4-0.1-0.5   s-0.2-0.3-0.4-0.3s-0.4-0.1-0.7-0.1h-0.9v5.4H237.2z M240.8,348.1l1.6,3h-1.5l-1.6-3H240.8z"
   id="path27082" />
	<path
   d="M243.1,351v-6.5h4.4v1.1h-3v1.6h2.8v1.1h-2.8v1.6h3v1.1H243.1z"
   id="path27084" />
	<path
   d="M251.5,351.1c-0.2,0-0.4-0.1-0.5-0.2c-0.2-0.2-0.2-0.3-0.2-0.5c0-0.2,0.1-0.4,0.2-0.5c0.2-0.1,0.3-0.2,0.5-0.2   c0.2,0,0.4,0.1,0.5,0.2c0.2,0.1,0.2,0.3,0.2,0.5c0,0.1,0,0.3-0.1,0.4s-0.2,0.2-0.3,0.3C251.8,351.1,251.7,351.1,251.5,351.1z"
   id="path27086" />
	<path
   d="M254.2,351.1c-0.2,0-0.4-0.1-0.5-0.2c-0.2-0.2-0.2-0.3-0.2-0.5c0-0.2,0.1-0.4,0.2-0.5c0.2-0.1,0.3-0.2,0.5-0.2   c0.2,0,0.4,0.1,0.5,0.2c0.2,0.1,0.2,0.3,0.2,0.5c0,0.1,0,0.3-0.1,0.4s-0.2,0.2-0.3,0.3C254.5,351.1,254.3,351.1,254.2,351.1z"
   id="path27088" />
	<path
   d="M256.9,351.1c-0.2,0-0.4-0.1-0.5-0.2c-0.2-0.2-0.2-0.3-0.2-0.5c0-0.2,0.1-0.4,0.2-0.5c0.2-0.1,0.3-0.2,0.5-0.2   c0.2,0,0.4,0.1,0.5,0.2c0.2,0.1,0.2,0.3,0.2,0.5c0,0.1,0,0.3-0.1,0.4s-0.2,0.2-0.3,0.3C257.1,351.1,257,351.1,256.9,351.1z"
   id="path27090" />
</g>
<path
   id="rect27094"
   class="st21"
   style="fill:none;stroke:#cf2144;stroke-miterlimit:10"
   d="m 355.89999,328.89999 h 121.5 v 39.3 h -121.5 z" />
<g
   id="g27112">
	<path
   d="M393,351v-6.5h4.4v1.1h-3v1.6h2.8v1.1h-2.8v1.6h3v1.1H393z"
   id="path27096" />
	<path
   d="M398.5,351v-6.5h2.6c0.5,0,0.9,0.1,1.3,0.3s0.6,0.4,0.8,0.7s0.3,0.7,0.3,1.1c0,0.4-0.1,0.8-0.3,1.1s-0.5,0.6-0.8,0.7   c-0.4,0.2-0.8,0.2-1.3,0.2h-1.7v-1.1h1.5c0.3,0,0.5,0,0.7-0.1c0.2-0.1,0.3-0.2,0.4-0.3s0.1-0.3,0.1-0.5c0-0.2,0-0.4-0.1-0.5   s-0.2-0.3-0.4-0.3s-0.4-0.1-0.7-0.1h-0.9v5.4H398.5z M402.1,348.1l1.6,3h-1.5l-1.6-3H402.1z"
   id="path27098" />
	<path
   d="M405.6,351h-1.5l2.3-6.5h1.8l2.3,6.5h-1.5l-1.6-5h-0.1L405.6,351z M405.5,348.5h3.5v1.1h-3.5V348.5z"
   id="path27100" />
	<path
   d="M414.6,346.4c0-0.3-0.1-0.5-0.3-0.6c-0.2-0.1-0.5-0.2-0.8-0.2c-0.2,0-0.4,0-0.6,0.1c-0.2,0.1-0.3,0.1-0.4,0.3   s-0.1,0.2-0.1,0.4c0,0.1,0,0.2,0.1,0.3c0.1,0.1,0.1,0.2,0.2,0.2s0.2,0.1,0.3,0.2c0.1,0,0.3,0.1,0.4,0.1l0.6,0.1   c0.3,0.1,0.5,0.1,0.8,0.3s0.4,0.2,0.6,0.4c0.2,0.2,0.3,0.3,0.4,0.5c0.1,0.2,0.1,0.5,0.1,0.7c0,0.4-0.1,0.7-0.3,1   c-0.2,0.3-0.5,0.5-0.9,0.7c-0.4,0.2-0.8,0.2-1.4,0.2c-0.5,0-1-0.1-1.4-0.2c-0.4-0.2-0.7-0.4-0.9-0.7c-0.2-0.3-0.3-0.7-0.3-1.2h1.3   c0,0.2,0.1,0.4,0.2,0.5s0.3,0.3,0.5,0.3s0.4,0.1,0.6,0.1c0.2,0,0.4,0,0.6-0.1c0.2-0.1,0.3-0.2,0.4-0.3c0.1-0.1,0.1-0.3,0.1-0.4   c0-0.1,0-0.3-0.1-0.4c-0.1-0.1-0.2-0.2-0.4-0.3s-0.4-0.1-0.6-0.2l-0.7-0.2c-0.6-0.1-1-0.3-1.3-0.6c-0.3-0.3-0.5-0.7-0.5-1.2   c0-0.4,0.1-0.7,0.3-1c0.2-0.3,0.5-0.5,0.9-0.7c0.4-0.2,0.8-0.2,1.3-0.2c0.5,0,0.9,0.1,1.3,0.2c0.4,0.2,0.6,0.4,0.8,0.7   c0.2,0.3,0.3,0.6,0.3,1H414.6z"
   id="path27102" />
	<path
   d="M420.9,344.5h1.4v4.3c0,0.5-0.1,0.9-0.3,1.3s-0.5,0.6-1,0.8c-0.4,0.2-0.9,0.3-1.4,0.3c-0.5,0-1-0.1-1.4-0.3   c-0.4-0.2-0.7-0.5-0.9-0.8c-0.2-0.4-0.3-0.8-0.3-1.3v-4.3h1.4v4.1c0,0.2,0.1,0.5,0.2,0.7c0.1,0.2,0.3,0.3,0.5,0.5s0.4,0.2,0.7,0.2   c0.3,0,0.5-0.1,0.7-0.2s0.4-0.3,0.5-0.5s0.2-0.4,0.2-0.7V344.5z"
   id="path27104" />
	<path
   d="M423.5,351v-6.5h2.6c0.5,0,0.9,0.1,1.3,0.3s0.6,0.4,0.8,0.7s0.3,0.7,0.3,1.1c0,0.4-0.1,0.8-0.3,1.1s-0.5,0.6-0.8,0.7   c-0.4,0.2-0.8,0.2-1.3,0.2h-1.7v-1.1h1.5c0.3,0,0.5,0,0.7-0.1c0.2-0.1,0.3-0.2,0.4-0.3s0.1-0.3,0.1-0.5c0-0.2,0-0.4-0.1-0.5   s-0.2-0.3-0.4-0.3s-0.4-0.1-0.7-0.1h-0.9v5.4H423.5z M427,348.1l1.6,3h-1.5l-1.6-3H427z"
   id="path27106" />
	<path
   d="M429.4,351v-6.5h4.4v1.1h-3v1.6h2.8v1.1h-2.8v1.6h3v1.1H429.4z"
   id="path27108" />
	<path
   d="M439.8,344.5v6.5h-1.4v-5.2h0l-1.5,0.9v-1.2l1.6-1H439.8z"
   id="path27110" />
</g>
<path
   id="rect27114"
   class="st21"
   style="fill:none;stroke:#cf2144;stroke-miterlimit:10"
   d="M 484.5,328.89999 H 606 v 39.3 H 484.5 Z" />
<g
   id="g27136">
	<path
   d="M520,351v-6.5h4.4v1.1h-3v1.6h2.8v1.1h-2.8v1.6h3v1.1H520z"
   id="path27116" />
	<path
   d="M525.5,351v-6.5h2.6c0.5,0,0.9,0.1,1.3,0.3s0.6,0.4,0.8,0.7s0.3,0.7,0.3,1.1c0,0.4-0.1,0.8-0.3,1.1s-0.5,0.6-0.8,0.7   c-0.4,0.2-0.8,0.2-1.3,0.2h-1.7v-1.1h1.5c0.3,0,0.5,0,0.7-0.1c0.2-0.1,0.3-0.2,0.4-0.3s0.1-0.3,0.1-0.5c0-0.2,0-0.4-0.1-0.5   s-0.2-0.3-0.4-0.3s-0.4-0.1-0.7-0.1h-0.9v5.4H525.5z M529,348.1l1.6,3h-1.5l-1.6-3H529z"
   id="path27118" />
	<path
   d="M532.5,351H531l2.3-6.5h1.8l2.3,6.5h-1.5l-1.6-5h-0.1L532.5,351z M532.4,348.5h3.5v1.1h-3.5V348.5z"
   id="path27120" />
	<path
   d="M541.5,346.4c0-0.3-0.1-0.5-0.3-0.6c-0.2-0.1-0.5-0.2-0.8-0.2c-0.2,0-0.4,0-0.6,0.1c-0.2,0.1-0.3,0.1-0.4,0.3   s-0.1,0.2-0.1,0.4c0,0.1,0,0.2,0.1,0.3c0.1,0.1,0.1,0.2,0.2,0.2s0.2,0.1,0.3,0.2c0.1,0,0.3,0.1,0.4,0.1l0.6,0.1   c0.3,0.1,0.5,0.1,0.8,0.3s0.4,0.2,0.6,0.4c0.2,0.2,0.3,0.3,0.4,0.5c0.1,0.2,0.1,0.5,0.1,0.7c0,0.4-0.1,0.7-0.3,1   c-0.2,0.3-0.5,0.5-0.9,0.7c-0.4,0.2-0.8,0.2-1.4,0.2c-0.5,0-1-0.1-1.4-0.2c-0.4-0.2-0.7-0.4-0.9-0.7c-0.2-0.3-0.3-0.7-0.3-1.2h1.3   c0,0.2,0.1,0.4,0.2,0.5s0.3,0.3,0.5,0.3s0.4,0.1,0.6,0.1c0.2,0,0.4,0,0.6-0.1c0.2-0.1,0.3-0.2,0.4-0.3c0.1-0.1,0.1-0.3,0.1-0.4   c0-0.1,0-0.3-0.1-0.4c-0.1-0.1-0.2-0.2-0.4-0.3s-0.4-0.1-0.6-0.2l-0.7-0.2c-0.6-0.1-1-0.3-1.3-0.6c-0.3-0.3-0.5-0.7-0.5-1.2   c0-0.4,0.1-0.7,0.3-1c0.2-0.3,0.5-0.5,0.9-0.7c0.4-0.2,0.8-0.2,1.3-0.2c0.5,0,0.9,0.1,1.3,0.2c0.4,0.2,0.6,0.4,0.8,0.7   c0.2,0.3,0.3,0.6,0.3,1H541.5z"
   id="path27122" />
	<path
   d="M547.9,344.5h1.4v4.3c0,0.5-0.1,0.9-0.3,1.3s-0.5,0.6-1,0.8c-0.4,0.2-0.9,0.3-1.4,0.3c-0.5,0-1-0.1-1.4-0.3   c-0.4-0.2-0.7-0.5-0.9-0.8c-0.2-0.4-0.3-0.8-0.3-1.3v-4.3h1.4v4.1c0,0.2,0.1,0.5,0.2,0.7c0.1,0.2,0.3,0.3,0.5,0.5s0.4,0.2,0.7,0.2   c0.3,0,0.5-0.1,0.7-0.2s0.4-0.3,0.5-0.5s0.2-0.4,0.2-0.7V344.5z"
   id="path27124" />
	<path
   d="M550.4,351v-6.5h2.6c0.5,0,0.9,0.1,1.3,0.3s0.6,0.4,0.8,0.7s0.3,0.7,0.3,1.1c0,0.4-0.1,0.8-0.3,1.1s-0.5,0.6-0.8,0.7   c-0.4,0.2-0.8,0.2-1.3,0.2h-1.7v-1.1h1.5c0.3,0,0.5,0,0.7-0.1c0.2-0.1,0.3-0.2,0.4-0.3s0.1-0.3,0.1-0.5c0-0.2,0-0.4-0.1-0.5   s-0.2-0.3-0.4-0.3s-0.4-0.1-0.7-0.1h-0.9v5.4H550.4z M553.9,348.1l1.6,3H554l-1.6-3H553.9z"
   id="path27126" />
	<path
   d="M556.3,351v-6.5h4.4v1.1h-3v1.6h2.8v1.1h-2.8v1.6h3v1.1H556.3z"
   id="path27128" />
	<path
   d="M564.7,351.1c-0.2,0-0.4-0.1-0.5-0.2c-0.2-0.2-0.2-0.3-0.2-0.5c0-0.2,0.1-0.4,0.2-0.5c0.2-0.1,0.3-0.2,0.5-0.2   c0.2,0,0.4,0.1,0.5,0.2c0.2,0.1,0.2,0.3,0.2,0.5c0,0.1,0,0.3-0.1,0.4s-0.2,0.2-0.3,0.3C565,351.1,564.8,351.1,564.7,351.1z"
   id="path27130" />
	<path
   d="M567.4,351.1c-0.2,0-0.4-0.1-0.5-0.2c-0.2-0.2-0.2-0.3-0.2-0.5c0-0.2,0.1-0.4,0.2-0.5c0.2-0.1,0.3-0.2,0.5-0.2   c0.2,0,0.4,0.1,0.5,0.2c0.2,0.1,0.2,0.3,0.2,0.5c0,0.1,0,0.3-0.1,0.4s-0.2,0.2-0.3,0.3C567.6,351.1,567.5,351.1,567.4,351.1z"
   id="path27132" />
	<path
   d="M570,351.1c-0.2,0-0.4-0.1-0.5-0.2c-0.2-0.2-0.2-0.3-0.2-0.5c0-0.2,0.1-0.4,0.2-0.5c0.2-0.1,0.3-0.2,0.5-0.2   c0.2,0,0.4,0.1,0.5,0.2c0.2,0.1,0.2,0.3,0.2,0.5c0,0.1,0,0.3-0.1,0.4s-0.2,0.2-0.3,0.3C570.3,351.1,570.2,351.1,570,351.1z"
   id="path27134" />
</g>
<g
   id="g27141">
	<path
   id="circle27138"
   class="st11"
   style="fill:#cf2144"
   d="m 110.7,348.60001 a 7.1999998,7.1999998 0 0 1 -7.2,7.2 7.1999998,7.1999998 0 0 1 -7.2,-7.2 7.1999998,7.1999998 0 0 1 7.2,-7.2 7.1999998,7.1999998 0 0 1 7.2,7.2 z" />
	<path
   id="x_00000176038647969392589660000002905642974679435179_"
   class="st12"
   d="M100,346.7l1.9,1.9l-1.9,1.9   c-0.1,0.1-0.1,0.2,0,0.3c0,0,0,0,0,0l1.3,1.3c0.1,0.1,0.2,0.1,0.3,0c0,0,0,0,0,0l1.9-1.9l1.9,1.9c0.1,0.1,0.2,0.1,0.3,0l1.3-1.3   c0.1-0.1,0.1-0.2,0-0.3l-1.9-1.9l1.9-1.9c0.1-0.1,0.1-0.2,0-0.3l-1.3-1.3c-0.1-0.1-0.2-0.1-0.3,0c0,0,0,0,0,0l-1.9,1.9l-1.9-1.9   c-0.1-0.1-0.2-0.1-0.3,0c0,0,0,0,0,0l-1.3,1.3C99.9,346.5,99.9,346.6,100,346.7C100,346.7,100,346.7,100,346.7L100,346.7z" />
</g>
<g
   id="g27165">
	<g
   id="g27161">
		<g
   id="g27145">
			<path
   class="st11"
   d="M189.1,402.8h-14.5c-0.9,0-1.8-0.4-2.4-1c-0.6-0.7-0.9-1.6-0.9-2.5l1.3-17.5c0.1-1.7,1.6-3,3.3-3h12     c1.7,0,3.1,1.3,3.3,3l1.3,17.5c0.1,0.9-0.3,1.8-0.9,2.5C190.9,402.4,190,402.8,189.1,402.8z"
   id="path27143" />
		</g>
		<path
   class="st12"
   d="M176.5,383.7h-0.9c-0.1,0-0.2-0.1-0.2-0.2v-4c0-0.1,0.1-0.2,0.2-0.2h0.9c0.1,0,0.2,0.1,0.2,0.2v4    C176.7,383.6,176.6,383.7,176.5,383.7z"
   id="path27147" />
		<path
   class="st12"
   d="M179.3,384.6h-0.9c-0.1,0-0.2-0.1-0.2-0.2v-4.8c0-0.1,0.1-0.2,0.2-0.2h0.9c0.1,0,0.2,0.1,0.2,0.2v4.8    C179.6,384.5,179.5,384.6,179.3,384.6z"
   id="path27149" />
		<path
   class="st12"
   d="M185,384.6h-0.9c-0.1,0-0.2-0.1-0.2-0.2v-4.8c0-0.1,0.1-0.2,0.2-0.2h0.9c0.1,0,0.2,0.1,0.2,0.2v4.8    C185.3,384.5,185.2,384.6,185,384.6z"
   id="path27151" />
		<path
   class="st12"
   d="M187.9,383.7H187c-0.1,0-0.2-0.1-0.2-0.2v-4c0-0.1,0.1-0.2,0.2-0.2h0.9c0.1,0,0.2,0.1,0.2,0.2v4    C188.1,383.6,188,383.7,187.9,383.7z"
   id="path27153" />
		<path
   class="st12"
   d="M182.2,383.7h-0.9c-0.1,0-0.2-0.1-0.2-0.2v-4c0-0.1,0.1-0.2,0.2-0.2h0.9c0.1,0,0.2,0.1,0.2,0.2v4    C182.4,383.6,182.3,383.7,182.2,383.7z"
   id="path27155" />
		<g
   id="g27159">
			<path
   class="st29"
   d="M189.1,402.8h-14.5c-0.9,0-1.8-0.4-2.4-1c-0.6-0.7-0.9-1.6-0.9-2.5l1.3-17.5c0.1-1.7,1.6-3,3.3-3h12     c1.7,0,3.1,1.3,3.3,3l1.3,17.5c0.1,0.9-0.3,1.8-0.9,2.5C190.9,402.4,190,402.8,189.1,402.8z"
   id="path27157" />
		</g>
	</g>
	<path
   id="line27163"
   class="st30"
   style="fill:none;stroke:#ffffff;stroke-width:0.9354;stroke-linecap:round;stroke-miterlimit:10"
   d="m 173.8,397.60001 h 16.7" />
</g>
<g
   id="g27189">
	<g
   id="g27185">
		<g
   id="g27169">
			<path
   class="st11"
   d="M222.6,402.8H208c-0.9,0-1.8-0.4-2.4-1c-0.6-0.7-0.9-1.6-0.9-2.5l1.3-17.5c0.1-1.7,1.6-3,3.3-3h12     c1.7,0,3.1,1.3,3.3,3l1.3,17.5c0.1,0.9-0.3,1.8-0.9,2.5C224.4,402.4,223.5,402.8,222.6,402.8z"
   id="path27167" />
		</g>
		<path
   class="st12"
   d="M210,383.7h-0.9c-0.1,0-0.2-0.1-0.2-0.2v-4c0-0.1,0.1-0.2,0.2-0.2h0.9c0.1,0,0.2,0.1,0.2,0.2v4    C210.2,383.6,210.1,383.7,210,383.7z"
   id="path27171" />
		<path
   class="st12"
   d="M212.8,384.6h-0.9c-0.1,0-0.2-0.1-0.2-0.2v-4.8c0-0.1,0.1-0.2,0.2-0.2h0.9c0.1,0,0.2,0.1,0.2,0.2v4.8    C213.1,384.5,213,384.6,212.8,384.6z"
   id="path27173" />
		<path
   class="st12"
   d="M218.5,384.6h-0.9c-0.1,0-0.2-0.1-0.2-0.2v-4.8c0-0.1,0.1-0.2,0.2-0.2h0.9c0.1,0,0.2,0.1,0.2,0.2v4.8    C218.7,384.5,218.6,384.6,218.5,384.6z"
   id="path27175" />
		<path
   class="st12"
   d="M221.4,383.7h-0.9c-0.1,0-0.2-0.1-0.2-0.2v-4c0-0.1,0.1-0.2,0.2-0.2h0.9c0.1,0,0.2,0.1,0.2,0.2v4    C221.6,383.6,221.5,383.7,221.4,383.7z"
   id="path27177" />
		<path
   class="st12"
   d="M215.7,383.7h-0.9c-0.1,0-0.2-0.1-0.2-0.2v-4c0-0.1,0.1-0.2,0.2-0.2h0.9c0.1,0,0.2,0.1,0.2,0.2v4    C215.9,383.6,215.8,383.7,215.7,383.7z"
   id="path27179" />
		<g
   id="g27183">
			<path
   class="st29"
   d="M222.6,402.8H208c-0.9,0-1.8-0.4-2.4-1c-0.6-0.7-0.9-1.6-0.9-2.5l1.3-17.5c0.1-1.7,1.6-3,3.3-3h12     c1.7,0,3.1,1.3,3.3,3l1.3,17.5c0.1,0.9-0.3,1.8-0.9,2.5C224.4,402.4,223.5,402.8,222.6,402.8z"
   id="path27181" />
		</g>
	</g>
	<path
   id="line27187"
   class="st30"
   style="fill:none;stroke:#ffffff;stroke-width:0.9354;stroke-linecap:round;stroke-miterlimit:10"
   d="M 207.3,397.60001 H 224" />
</g>
<g
   id="g27213">
	<g
   id="g27209">
		<g
   id="g27193">
			<path
   class="st11"
   d="M256.1,402.8h-14.5c-0.9,0-1.8-0.4-2.4-1c-0.6-0.7-0.9-1.6-0.9-2.5l1.3-17.5c0.1-1.7,1.6-3,3.3-3h12     c1.7,0,3.1,1.3,3.3,3l1.3,17.5c0.1,0.9-0.3,1.8-0.9,2.5C257.8,402.4,257,402.8,256.1,402.8z"
   id="path27191" />
		</g>
		<path
   class="st12"
   d="M243.5,383.7h-0.9c-0.1,0-0.2-0.1-0.2-0.2v-4c0-0.1,0.1-0.2,0.2-0.2h0.9c0.1,0,0.2,0.1,0.2,0.2v4    C243.7,383.6,243.6,383.7,243.5,383.7z"
   id="path27195" />
		<path
   class="st12"
   d="M246.3,384.6h-0.9c-0.1,0-0.2-0.1-0.2-0.2v-4.8c0-0.1,0.1-0.2,0.2-0.2h0.9c0.1,0,0.2,0.1,0.2,0.2v4.8    C246.5,384.5,246.4,384.6,246.3,384.6z"
   id="path27197" />
		<path
   class="st12"
   d="M252,384.6h-0.9c-0.1,0-0.2-0.1-0.2-0.2v-4.8c0-0.1,0.1-0.2,0.2-0.2h0.9c0.1,0,0.2,0.1,0.2,0.2v4.8    C252.2,384.5,252.1,384.6,252,384.6z"
   id="path27199" />
		<path
   class="st12"
   d="M254.8,383.7h-0.9c-0.1,0-0.2-0.1-0.2-0.2v-4c0-0.1,0.1-0.2,0.2-0.2h0.9c0.1,0,0.2,0.1,0.2,0.2v4    C255.1,383.6,255,383.7,254.8,383.7z"
   id="path27201" />
		<path
   class="st12"
   d="M249.2,383.7h-0.9c-0.1,0-0.2-0.1-0.2-0.2v-4c0-0.1,0.1-0.2,0.2-0.2h0.9c0.1,0,0.2,0.1,0.2,0.2v4    C249.4,383.6,249.3,383.7,249.2,383.7z"
   id="path27203" />
		<g
   id="g27207">
			<path
   class="st29"
   d="M256.1,402.8h-14.5c-0.9,0-1.8-0.4-2.4-1c-0.6-0.7-0.9-1.6-0.9-2.5l1.3-17.5c0.1-1.7,1.6-3,3.3-3h12     c1.7,0,3.1,1.3,3.3,3l1.3,17.5c0.1,0.9-0.3,1.8-0.9,2.5C257.8,402.4,257,402.8,256.1,402.8z"
   id="path27205" />
		</g>
	</g>
	<path
   id="line27211"
   class="st30"
   style="fill:none;stroke:#ffffff;stroke-width:0.9354;stroke-linecap:round;stroke-miterlimit:10"
   d="m 240.8,397.60001 h 16.7" />
</g>
<g
   id="g27237">
	<g
   id="g27233">
		<g
   id="g27217">
			<path
   class="st11"
   d="M289.6,402.8H275c-0.9,0-1.8-0.4-2.4-1c-0.6-0.7-0.9-1.6-0.9-2.5l1.3-17.5c0.1-1.7,1.6-3,3.3-3h12     c1.7,0,3.1,1.3,3.3,3l1.3,17.5c0.1,0.9-0.3,1.8-0.9,2.5C291.3,402.4,290.5,402.8,289.6,402.8z"
   id="path27215" />
		</g>
		<path
   class="st12"
   d="M277,383.7H276c-0.1,0-0.2-0.1-0.2-0.2v-4c0-0.1,0.1-0.2,0.2-0.2h0.9c0.1,0,0.2,0.1,0.2,0.2v4    C277.2,383.6,277.1,383.7,277,383.7z"
   id="path27219" />
		<path
   class="st12"
   d="M279.8,384.6h-0.9c-0.1,0-0.2-0.1-0.2-0.2v-4.8c0-0.1,0.1-0.2,0.2-0.2h0.9c0.1,0,0.2,0.1,0.2,0.2v4.8    C280,384.5,279.9,384.6,279.8,384.6z"
   id="path27221" />
		<path
   class="st12"
   d="M285.5,384.6h-0.9c-0.1,0-0.2-0.1-0.2-0.2v-4.8c0-0.1,0.1-0.2,0.2-0.2h0.9c0.1,0,0.2,0.1,0.2,0.2v4.8    C285.7,384.5,285.6,384.6,285.5,384.6z"
   id="path27223" />
		<path
   class="st12"
   d="M288.3,383.7h-0.9c-0.1,0-0.2-0.1-0.2-0.2v-4c0-0.1,0.1-0.2,0.2-0.2h0.9c0.1,0,0.2,0.1,0.2,0.2v4    C288.6,383.6,288.5,383.7,288.3,383.7z"
   id="path27225" />
		<path
   class="st12"
   d="M282.7,383.7h-0.9c-0.1,0-0.2-0.1-0.2-0.2v-4c0-0.1,0.1-0.2,0.2-0.2h0.9c0.1,0,0.2,0.1,0.2,0.2v4    C282.9,383.6,282.8,383.7,282.7,383.7z"
   id="path27227" />
		<g
   id="g27231">
			<path
   class="st29"
   d="M289.6,402.8H275c-0.9,0-1.8-0.4-2.4-1c-0.6-0.7-0.9-1.6-0.9-2.5l1.3-17.5c0.1-1.7,1.6-3,3.3-3h12     c1.7,0,3.1,1.3,3.3,3l1.3,17.5c0.1,0.9-0.3,1.8-0.9,2.5C291.3,402.4,290.5,402.8,289.6,402.8z"
   id="path27229" />
		</g>
	</g>
	<path
   id="line27235"
   class="st30"
   style="fill:none;stroke:#ffffff;stroke-width:0.9354;stroke-linecap:round;stroke-miterlimit:10"
   d="M 274.29999,397.60001 H 291" />
</g>
<g
   id="g27261">
	<g
   id="g27257">
		<g
   id="g27241">
			<path
   class="st11"
   d="M373.7,402.8h-14.5c-0.9,0-1.8-0.4-2.4-1c-0.6-0.7-0.9-1.6-0.9-2.5l1.3-17.5c0.1-1.7,1.6-3,3.3-3h12     c1.7,0,3.1,1.3,3.3,3l1.3,17.5c0.1,0.9-0.3,1.8-0.9,2.5C375.4,402.4,374.6,402.8,373.7,402.8z"
   id="path27239" />
		</g>
		<path
   class="st12"
   d="M361.1,383.7h-0.9c-0.1,0-0.2-0.1-0.2-0.2v-4c0-0.1,0.1-0.2,0.2-0.2h0.9c0.1,0,0.2,0.1,0.2,0.2v4    C361.3,383.6,361.2,383.7,361.1,383.7z"
   id="path27243" />
		<path
   class="st12"
   d="M363.9,384.6H363c-0.1,0-0.2-0.1-0.2-0.2v-4.8c0-0.1,0.1-0.2,0.2-0.2h0.9c0.1,0,0.2,0.1,0.2,0.2v4.8    C364.1,384.5,364,384.6,363.9,384.6z"
   id="path27245" />
		<path
   class="st12"
   d="M369.6,384.6h-0.9c-0.1,0-0.2-0.1-0.2-0.2v-4.8c0-0.1,0.1-0.2,0.2-0.2h0.9c0.1,0,0.2,0.1,0.2,0.2v4.8    C369.8,384.5,369.7,384.6,369.6,384.6z"
   id="path27247" />
		<path
   class="st12"
   d="M372.4,383.7h-0.9c-0.1,0-0.2-0.1-0.2-0.2v-4c0-0.1,0.1-0.2,0.2-0.2h0.9c0.1,0,0.2,0.1,0.2,0.2v4    C372.7,383.6,372.6,383.7,372.4,383.7z"
   id="path27249" />
		<path
   class="st12"
   d="M366.8,383.7h-0.9c-0.1,0-0.2-0.1-0.2-0.2v-4c0-0.1,0.1-0.2,0.2-0.2h0.9c0.1,0,0.2,0.1,0.2,0.2v4    C367,383.6,366.9,383.7,366.8,383.7z"
   id="path27251" />
		<g
   id="g27255">
			<path
   class="st29"
   d="M373.7,402.8h-14.5c-0.9,0-1.8-0.4-2.4-1c-0.6-0.7-0.9-1.6-0.9-2.5l1.3-17.5c0.1-1.7,1.6-3,3.3-3h12     c1.7,0,3.1,1.3,3.3,3l1.3,17.5c0.1,0.9-0.3,1.8-0.9,2.5C375.4,402.4,374.6,402.8,373.7,402.8z"
   id="path27253" />
		</g>
	</g>
	<path
   id="line27259"
   class="st30"
   style="fill:none;stroke:#ffffff;stroke-width:0.9354;stroke-linecap:round;stroke-miterlimit:10"
   d="m 358.39999,397.60001 h 16.70002" />
</g>
<g
   id="g27285">
	<g
   id="g27281">
		<g
   id="g27265">
			<path
   class="st11"
   d="M407.2,402.8h-14.5c-0.9,0-1.8-0.4-2.4-1c-0.6-0.7-0.9-1.6-0.9-2.5l1.3-17.5c0.1-1.7,1.6-3,3.3-3h12     c1.7,0,3.1,1.3,3.3,3l1.3,17.5c0.1,0.9-0.3,1.8-0.9,2.5C408.9,402.4,408.1,402.8,407.2,402.8z"
   id="path27263" />
		</g>
		<path
   class="st12"
   d="M394.6,383.7h-0.9c-0.1,0-0.2-0.1-0.2-0.2v-4c0-0.1,0.1-0.2,0.2-0.2h0.9c0.1,0,0.2,0.1,0.2,0.2v4    C394.8,383.6,394.7,383.7,394.6,383.7z"
   id="path27267" />
		<path
   class="st12"
   d="M397.4,384.6h-0.9c-0.1,0-0.2-0.1-0.2-0.2v-4.8c0-0.1,0.1-0.2,0.2-0.2h0.9c0.1,0,0.2,0.1,0.2,0.2v4.8    C397.6,384.5,397.5,384.6,397.4,384.6z"
   id="path27269" />
		<path
   class="st12"
   d="M403.1,384.6h-0.9c-0.1,0-0.2-0.1-0.2-0.2v-4.8c0-0.1,0.1-0.2,0.2-0.2h0.9c0.1,0,0.2,0.1,0.2,0.2v4.8    C403.3,384.5,403.2,384.6,403.1,384.6z"
   id="path27271" />
		<path
   class="st12"
   d="M405.9,383.7H405c-0.1,0-0.2-0.1-0.2-0.2v-4c0-0.1,0.1-0.2,0.2-0.2h0.9c0.1,0,0.2,0.1,0.2,0.2v4    C406.2,383.6,406.1,383.7,405.9,383.7z"
   id="path27273" />
		<path
   class="st12"
   d="M400.2,383.7h-0.9c-0.1,0-0.2-0.1-0.2-0.2v-4c0-0.1,0.1-0.2,0.2-0.2h0.9c0.1,0,0.2,0.1,0.2,0.2v4    C400.5,383.6,400.4,383.7,400.2,383.7z"
   id="path27275" />
		<g
   id="g27279">
			<path
   class="st29"
   d="M407.2,402.8h-14.5c-0.9,0-1.8-0.4-2.4-1c-0.6-0.7-0.9-1.6-0.9-2.5l1.3-17.5c0.1-1.7,1.6-3,3.3-3h12     c1.7,0,3.1,1.3,3.3,3l1.3,17.5c0.1,0.9-0.3,1.8-0.9,2.5C408.9,402.4,408.1,402.8,407.2,402.8z"
   id="path27277" />
		</g>
	</g>
	<path
   id="line27283"
   class="st30"
   style="fill:none;stroke:#ffffff;stroke-width:0.9354;stroke-linecap:round;stroke-miterlimit:10"
   d="m 391.79999,397.60001 h 16.80002" />
</g>
<g
   id="g27309">
	<g
   id="g27305">
		<g
   id="g27289">
			<path
   class="st11"
   d="M440.6,402.8h-14.5c-0.9,0-1.8-0.4-2.4-1c-0.6-0.7-0.9-1.6-0.9-2.5l1.3-17.5c0.1-1.7,1.6-3,3.3-3h12     c1.7,0,3.1,1.3,3.3,3l1.3,17.5c0.1,0.9-0.3,1.8-0.9,2.5C442.4,402.4,441.5,402.8,440.6,402.8z"
   id="path27287" />
		</g>
		<path
   class="st12"
   d="M428,383.7h-0.9c-0.1,0-0.2-0.1-0.2-0.2v-4c0-0.1,0.1-0.2,0.2-0.2h0.9c0.1,0,0.2,0.1,0.2,0.2v4    C428.3,383.6,428.2,383.7,428,383.7z"
   id="path27291" />
		<path
   class="st12"
   d="M430.9,384.6H430c-0.1,0-0.2-0.1-0.2-0.2v-4.8c0-0.1,0.1-0.2,0.2-0.2h0.9c0.1,0,0.2,0.1,0.2,0.2v4.8    C431.1,384.5,431,384.6,430.9,384.6z"
   id="path27293" />
		<path
   class="st12"
   d="M436.6,384.6h-0.9c-0.1,0-0.2-0.1-0.2-0.2v-4.8c0-0.1,0.1-0.2,0.2-0.2h0.9c0.1,0,0.2,0.1,0.2,0.2v4.8    C436.8,384.5,436.7,384.6,436.6,384.6z"
   id="path27295" />
		<path
   class="st12"
   d="M439.4,383.7h-0.9c-0.1,0-0.2-0.1-0.2-0.2v-4c0-0.1,0.1-0.2,0.2-0.2h0.9c0.1,0,0.2,0.1,0.2,0.2v4    C439.7,383.6,439.5,383.7,439.4,383.7z"
   id="path27297" />
		<path
   class="st12"
   d="M433.7,383.7h-0.9c-0.1,0-0.2-0.1-0.2-0.2v-4c0-0.1,0.1-0.2,0.2-0.2h0.9c0.1,0,0.2,0.1,0.2,0.2v4    C434,383.6,433.9,383.7,433.7,383.7z"
   id="path27299" />
		<g
   id="g27303">
			<path
   class="st29"
   d="M440.6,402.8h-14.5c-0.9,0-1.8-0.4-2.4-1c-0.6-0.7-0.9-1.6-0.9-2.5l1.3-17.5c0.1-1.7,1.6-3,3.3-3h12     c1.7,0,3.1,1.3,3.3,3l1.3,17.5c0.1,0.9-0.3,1.8-0.9,2.5C442.4,402.4,441.5,402.8,440.6,402.8z"
   id="path27301" />
		</g>
	</g>
	<path
   id="line27307"
   class="st30"
   style="fill:none;stroke:#ffffff;stroke-width:0.9354;stroke-linecap:round;stroke-miterlimit:10"
   d="m 425.29999,397.60001 h 16.80002" />
</g>
<g
   id="g27333">
	<g
   id="g27329">
		<g
   id="g27313">
			<path
   class="st11"
   d="M474.1,402.8h-14.5c-0.9,0-1.8-0.4-2.4-1c-0.6-0.7-0.9-1.6-0.9-2.5l1.3-17.5c0.1-1.7,1.6-3,3.3-3h12     c1.7,0,3.1,1.3,3.3,3l1.3,17.5c0.1,0.9-0.3,1.8-0.9,2.5C475.9,402.4,475,402.8,474.1,402.8z"
   id="path27311" />
		</g>
		<path
   class="st12"
   d="M461.5,383.7h-0.9c-0.1,0-0.2-0.1-0.2-0.2v-4c0-0.1,0.1-0.2,0.2-0.2h0.9c0.1,0,0.2,0.1,0.2,0.2v4    C461.8,383.6,461.7,383.7,461.5,383.7z"
   id="path27315" />
		<path
   class="st12"
   d="M464.4,384.6h-0.9c-0.1,0-0.2-0.1-0.2-0.2v-4.8c0-0.1,0.1-0.2,0.2-0.2h0.9c0.1,0,0.2,0.1,0.2,0.2v4.8    C464.6,384.5,464.5,384.6,464.4,384.6z"
   id="path27317" />
		<path
   class="st12"
   d="M470.1,384.6h-0.9c-0.1,0-0.2-0.1-0.2-0.2v-4.8c0-0.1,0.1-0.2,0.2-0.2h0.9c0.1,0,0.2,0.1,0.2,0.2v4.8    C470.3,384.5,470.2,384.6,470.1,384.6z"
   id="path27319" />
		<path
   class="st12"
   d="M472.9,383.7H472c-0.1,0-0.2-0.1-0.2-0.2v-4c0-0.1,0.1-0.2,0.2-0.2h0.9c0.1,0,0.2,0.1,0.2,0.2v4    C473.1,383.6,473,383.7,472.9,383.7z"
   id="path27321" />
		<path
   class="st12"
   d="M467.2,383.7h-0.9c-0.1,0-0.2-0.1-0.2-0.2v-4c0-0.1,0.1-0.2,0.2-0.2h0.9c0.1,0,0.2,0.1,0.2,0.2v4    C467.5,383.6,467.4,383.7,467.2,383.7z"
   id="path27323" />
		<g
   id="g27327">
			<path
   class="st29"
   d="M474.1,402.8h-14.5c-0.9,0-1.8-0.4-2.4-1c-0.6-0.7-0.9-1.6-0.9-2.5l1.3-17.5c0.1-1.7,1.6-3,3.3-3h12     c1.7,0,3.1,1.3,3.3,3l1.3,17.5c0.1,0.9-0.3,1.8-0.9,2.5C475.9,402.4,475,402.8,474.1,402.8z"
   id="path27325" />
		</g>
	</g>
	<path
   id="line27331"
   class="st30"
   style="fill:none;stroke:#ffffff;stroke-width:0.9354;stroke-linecap:round;stroke-miterlimit:10"
   d="m 458.79999,397.60001 h 16.80002" />
</g>
<g
   id="g27357">
	<g
   id="g27353">
		<g
   id="g27337">
			<path
   class="st11"
   d="M504.4,402.8h-14.5c-0.9,0-1.8-0.4-2.4-1c-0.6-0.7-0.9-1.6-0.9-2.5l1.3-17.5c0.1-1.7,1.6-3,3.3-3h12     c1.7,0,3.1,1.3,3.3,3l1.3,17.5c0.1,0.9-0.3,1.8-0.9,2.5C506.1,402.4,505.3,402.8,504.4,402.8z"
   id="path27335" />
		</g>
		<path
   class="st12"
   d="M491.8,383.7h-0.9c-0.1,0-0.2-0.1-0.2-0.2v-4c0-0.1,0.1-0.2,0.2-0.2h0.9c0.1,0,0.2,0.1,0.2,0.2v4    C492,383.6,491.9,383.7,491.8,383.7z"
   id="path27339" />
		<path
   class="st12"
   d="M494.6,384.6h-0.9c-0.1,0-0.2-0.1-0.2-0.2v-4.8c0-0.1,0.1-0.2,0.2-0.2h0.9c0.1,0,0.2,0.1,0.2,0.2v4.8    C494.8,384.5,494.7,384.6,494.6,384.6z"
   id="path27341" />
		<path
   class="st12"
   d="M500.3,384.6h-0.9c-0.1,0-0.2-0.1-0.2-0.2v-4.8c0-0.1,0.1-0.2,0.2-0.2h0.9c0.1,0,0.2,0.1,0.2,0.2v4.8    C500.5,384.5,500.4,384.6,500.3,384.6z"
   id="path27343" />
		<path
   class="st12"
   d="M503.1,383.7h-0.9c-0.1,0-0.2-0.1-0.2-0.2v-4c0-0.1,0.1-0.2,0.2-0.2h0.9c0.1,0,0.2,0.1,0.2,0.2v4    C503.4,383.6,503.3,383.7,503.1,383.7z"
   id="path27345" />
		<path
   class="st12"
   d="M497.5,383.7h-0.9c-0.1,0-0.2-0.1-0.2-0.2v-4c0-0.1,0.1-0.2,0.2-0.2h0.9c0.1,0,0.2,0.1,0.2,0.2v4    C497.7,383.6,497.6,383.7,497.5,383.7z"
   id="path27347" />
		<g
   id="g27351">
			<path
   class="st29"
   d="M504.4,402.8h-14.5c-0.9,0-1.8-0.4-2.4-1c-0.6-0.7-0.9-1.6-0.9-2.5l1.3-17.5c0.1-1.7,1.6-3,3.3-3h12     c1.7,0,3.1,1.3,3.3,3l1.3,17.5c0.1,0.9-0.3,1.8-0.9,2.5C506.1,402.4,505.3,402.8,504.4,402.8z"
   id="path27349" />
		</g>
	</g>
	<path
   id="line27355"
   class="st30"
   style="fill:none;stroke:#ffffff;stroke-width:0.9354;stroke-linecap:round;stroke-miterlimit:10"
   d="m 489.10001,397.60001 h 16.69998" />
</g>
<g
   id="g27381">
	<g
   id="g27377">
		<g
   id="g27361">
			<path
   class="st11"
   d="M537.9,402.8h-14.5c-0.9,0-1.8-0.4-2.4-1c-0.6-0.7-0.9-1.6-0.9-2.5l1.3-17.5c0.1-1.7,1.6-3,3.3-3h12     c1.7,0,3.1,1.3,3.3,3l1.3,17.5c0.1,0.9-0.3,1.8-0.9,2.5C539.6,402.4,538.8,402.8,537.9,402.8z"
   id="path27359" />
		</g>
		<path
   class="st12"
   d="M525.3,383.7h-0.9c-0.1,0-0.2-0.1-0.2-0.2v-4c0-0.1,0.1-0.2,0.2-0.2h0.9c0.1,0,0.2,0.1,0.2,0.2v4    C525.5,383.6,525.4,383.7,525.3,383.7z"
   id="path27363" />
		<path
   class="st12"
   d="M528.1,384.6h-0.9c-0.1,0-0.2-0.1-0.2-0.2v-4.8c0-0.1,0.1-0.2,0.2-0.2h0.9c0.1,0,0.2,0.1,0.2,0.2v4.8    C528.3,384.5,528.2,384.6,528.1,384.6z"
   id="path27365" />
		<path
   class="st12"
   d="M533.8,384.6h-0.9c-0.1,0-0.2-0.1-0.2-0.2v-4.8c0-0.1,0.1-0.2,0.2-0.2h0.9c0.1,0,0.2,0.1,0.2,0.2v4.8    C534,384.5,533.9,384.6,533.8,384.6z"
   id="path27367" />
		<path
   class="st12"
   d="M536.6,383.7h-0.9c-0.1,0-0.2-0.1-0.2-0.2v-4c0-0.1,0.1-0.2,0.2-0.2h0.9c0.1,0,0.2,0.1,0.2,0.2v4    C536.9,383.6,536.8,383.7,536.6,383.7z"
   id="path27369" />
		<path
   class="st12"
   d="M530.9,383.7H530c-0.1,0-0.2-0.1-0.2-0.2v-4c0-0.1,0.1-0.2,0.2-0.2h0.9c0.1,0,0.2,0.1,0.2,0.2v4    C531.2,383.6,531.1,383.7,530.9,383.7z"
   id="path27371" />
		<g
   id="g27375">
			<path
   class="st29"
   d="M537.9,402.8h-14.5c-0.9,0-1.8-0.4-2.4-1c-0.6-0.7-0.9-1.6-0.9-2.5l1.3-17.5c0.1-1.7,1.6-3,3.3-3h12     c1.7,0,3.1,1.3,3.3,3l1.3,17.5c0.1,0.9-0.3,1.8-0.9,2.5C539.6,402.4,538.8,402.8,537.9,402.8z"
   id="path27373" />
		</g>
	</g>
	<path
   id="line27379"
   class="st30"
   style="fill:none;stroke:#ffffff;stroke-width:0.9354;stroke-linecap:round;stroke-miterlimit:10"
   d="m 522.5,397.60001 h 16.79999" />
</g>
<g
   id="g27405">
	<g
   id="g27401">
		<g
   id="g27385">
			<path
   class="st11"
   d="M571.3,402.8h-14.5c-0.9,0-1.8-0.4-2.4-1c-0.6-0.7-0.9-1.6-0.9-2.5l1.3-17.5c0.1-1.7,1.6-3,3.3-3h12     c1.7,0,3.1,1.3,3.3,3l1.3,17.5c0.1,0.9-0.3,1.8-0.9,2.5C573.1,402.4,572.2,402.8,571.3,402.8z"
   id="path27383" />
		</g>
		<path
   class="st12"
   d="M558.7,383.7h-0.9c-0.1,0-0.2-0.1-0.2-0.2v-4c0-0.1,0.1-0.2,0.2-0.2h0.9c0.1,0,0.2,0.1,0.2,0.2v4    C559,383.6,558.9,383.7,558.7,383.7z"
   id="path27387" />
		<path
   class="st12"
   d="M561.6,384.6h-0.9c-0.1,0-0.2-0.1-0.2-0.2v-4.8c0-0.1,0.1-0.2,0.2-0.2h0.9c0.1,0,0.2,0.1,0.2,0.2v4.8    C561.8,384.5,561.7,384.6,561.6,384.6z"
   id="path27389" />
		<path
   class="st12"
   d="M567.3,384.6h-0.9c-0.1,0-0.2-0.1-0.2-0.2v-4.8c0-0.1,0.1-0.2,0.2-0.2h0.9c0.1,0,0.2,0.1,0.2,0.2v4.8    C567.5,384.5,567.4,384.6,567.3,384.6z"
   id="path27391" />
		<path
   class="st12"
   d="M570.1,383.7h-0.9c-0.1,0-0.2-0.1-0.2-0.2v-4c0-0.1,0.1-0.2,0.2-0.2h0.9c0.1,0,0.2,0.1,0.2,0.2v4    C570.4,383.6,570.2,383.7,570.1,383.7z"
   id="path27393" />
		<path
   class="st12"
   d="M564.4,383.7h-0.9c-0.1,0-0.2-0.1-0.2-0.2v-4c0-0.1,0.1-0.2,0.2-0.2h0.9c0.1,0,0.2,0.1,0.2,0.2v4    C564.7,383.6,564.6,383.7,564.4,383.7z"
   id="path27395" />
		<g
   id="g27399">
			<path
   class="st29"
   d="M571.3,402.8h-14.5c-0.9,0-1.8-0.4-2.4-1c-0.6-0.7-0.9-1.6-0.9-2.5l1.3-17.5c0.1-1.7,1.6-3,3.3-3h12     c1.7,0,3.1,1.3,3.3,3l1.3,17.5c0.1,0.9-0.3,1.8-0.9,2.5C573.1,402.4,572.2,402.8,571.3,402.8z"
   id="path27397" />
		</g>
	</g>
	<path
   id="line27403"
   class="st30"
   style="fill:none;stroke:#ffffff;stroke-width:0.9354;stroke-linecap:round;stroke-miterlimit:10"
   d="m 556,397.60001 h 16.79999" />
</g>
<g
   id="g27429">
	<g
   id="g27425">
		<g
   id="g27409">
			<path
   class="st11"
   d="M604.8,402.8h-14.5c-0.9,0-1.8-0.4-2.4-1c-0.6-0.7-0.9-1.6-0.9-2.5l1.3-17.5c0.1-1.7,1.6-3,3.3-3h12     c1.7,0,3.1,1.3,3.3,3l1.3,17.5c0.1,0.9-0.3,1.8-0.9,2.5C606.6,402.4,605.7,402.8,604.8,402.8z"
   id="path27407" />
		</g>
		<path
   class="st12"
   d="M592.2,383.7h-0.9c-0.1,0-0.2-0.1-0.2-0.2v-4c0-0.1,0.1-0.2,0.2-0.2h0.9c0.1,0,0.2,0.1,0.2,0.2v4    C592.5,383.6,592.4,383.7,592.2,383.7z"
   id="path27411" />
		<path
   class="st12"
   d="M595.1,384.6h-0.9c-0.1,0-0.2-0.1-0.2-0.2v-4.8c0-0.1,0.1-0.2,0.2-0.2h0.9c0.1,0,0.2,0.1,0.2,0.2v4.8    C595.3,384.5,595.2,384.6,595.1,384.6z"
   id="path27413" />
		<path
   class="st12"
   d="M600.8,384.6h-0.9c-0.1,0-0.2-0.1-0.2-0.2v-4.8c0-0.1,0.1-0.2,0.2-0.2h0.9c0.1,0,0.2,0.1,0.2,0.2v4.8    C601,384.5,600.9,384.6,600.8,384.6z"
   id="path27415" />
		<path
   class="st12"
   d="M603.6,383.7h-0.9c-0.1,0-0.2-0.1-0.2-0.2v-4c0-0.1,0.1-0.2,0.2-0.2h0.9c0.1,0,0.2,0.1,0.2,0.2v4    C603.8,383.6,603.7,383.7,603.6,383.7z"
   id="path27417" />
		<path
   class="st12"
   d="M597.9,383.7H597c-0.1,0-0.2-0.1-0.2-0.2v-4c0-0.1,0.1-0.2,0.2-0.2h0.9c0.1,0,0.2,0.1,0.2,0.2v4    C598.2,383.6,598.1,383.7,597.9,383.7z"
   id="path27419" />
		<g
   id="g27423">
			<path
   class="st29"
   d="M604.8,402.8h-14.5c-0.9,0-1.8-0.4-2.4-1c-0.6-0.7-0.9-1.6-0.9-2.5l1.3-17.5c0.1-1.7,1.6-3,3.3-3h12     c1.7,0,3.1,1.3,3.3,3l1.3,17.5c0.1,0.9-0.3,1.8-0.9,2.5C606.6,402.4,605.7,402.8,604.8,402.8z"
   id="path27421" />
		</g>
	</g>
	<path
   id="line27427"
   class="st30"
   style="fill:none;stroke:#ffffff;stroke-width:0.9354;stroke-linecap:round;stroke-miterlimit:10"
   d="m 589.5,397.60001 h 16.79999" />
</g>
</svg>
