<?xml version="1.0" encoding="UTF-8" standalone="no"?>
<svg
   id="a"
   viewBox="0 0 645.33 414.16"
   version="1.1"
   sodipodi:docname="availability-multi-site-healing.svg"
   inkscape:version="1.2.2 (b0a8486541, 2022-12-01)"
   xmlns:inkscape="http://www.inkscape.org/namespaces/inkscape"
   xmlns:sodipodi="http://sodipodi.sourceforge.net/DTD/sodipodi-0.dtd"
   xmlns="http://www.w3.org/2000/svg"
   xmlns:svg="http://www.w3.org/2000/svg">
  <sodipodi:namedview
     id="namedview171"
     pagecolor="#505050"
     bordercolor="#eeeeee"
     borderopacity="1"
     inkscape:showpageshadow="0"
     inkscape:pageopacity="0"
     inkscape:pagecheckerboard="0"
     inkscape:deskcolor="#505050"
     showgrid="false"
     showguides="true"
     inkscape:zoom="7.3031549"
     inkscape:cx="275.29198"
     inkscape:cy="142.88345"
     inkscape:window-width="3840"
     inkscape:window-height="2303"
     inkscape:window-x="3840"
     inkscape:window-y="2160"
     inkscape:window-maximized="1"
     inkscape:current-layer="g9006">
    <sodipodi:guide
       position="332.87477,220.19"
       orientation="0,-1"
       id="guide1010"
       inkscape:locked="false" />
    <sodipodi:guide
       position="297.23877,308.20699"
       orientation="0,-1"
       id="guide9033"
       inkscape:locked="false" />
  </sodipodi:namedview>
  <defs
     id="defs4">
    <style
       id="style2">.b{stroke:#1b1717;}.b,.c{stroke-dasharray:0 0 2 3;}.b,.c,.d,.e{stroke-miterlimit:10;}.b,.c,.e{fill:none;}.c,.e{stroke:#cf2144;}.f{fill:#f6f6f6;}.g,.h,.i{fill:#fff;}.j{fill:#9fbecc;}.k{fill:#cf2144;}.l{fill:#577f9a;}.m{fill:#4e7489;}.d{fill:#afcddd;stroke:#577f9a;stroke-dasharray:0 0 1.36 1.36;stroke-width:.68px;}.n{letter-spacing:0em;}.o{letter-spacing:0em;}.p{font-family:Inter-Medium, Inter;font-size:8px;font-variation-settings:'wght' 500, 'slnt' 0;font-weight:500;}.e{stroke-dasharray:0 0 2 2;}.q{letter-spacing:-.06em;}.r,.h,.i{font-family:Inter-Bold, Inter;font-variation-settings:'wght' 700, 'slnt' 0;font-weight:700;}.r,.i{font-size:10.56px;}.s{letter-spacing:0em;}.t{letter-spacing:0em;}.h{font-size:14px;}.u{letter-spacing:0em;}</style>
  </defs>
  <rect
     class="l"
     x="8.1449995"
     y="184.70218"
     width="185.86"
     height="200.75563"
     id="rect46"
     style="display:inline;fill:#0c1835;stroke-width:1.94752" />
  <rect
     class="k"
     x="13.67"
     y="245"
     width="174.81"
     height="120.27919"
     id="rect6"
     style="stroke-width:1.52228" />
  <g
     id="g9006"
     transform="matrix(1,0,0,0.99531723,0,1.4318426)">
    <path
       id="rect46-8"
       style="display:inline;fill:#0c1835;stroke:#909090;stroke-width:1.94757;stroke-dasharray:0, 0, 3.89513, 5.8427"
       class="l"
       d="m 442.41336,183.37997 h 185.86 V 384.1356 h -185.86 z" />
    <g
       aria-label="DATACENTER 2"
       id="text8851-6"
       style="font-size:21.3333px;-inkscape-font-specification:'sans-serif, Normal';text-align:center;text-anchor:middle;fill:#ffffff;stroke:#000000;stroke-width:0;stroke-linejoin:bevel">
      <path
         d="m 477.31679,209.69575 q 0,3.86133 -2.11199,5.82399 -2.09067,1.94133 -5.84533,1.94133 h -4.24533 V 202.2291 h 4.69333 q 2.304,0 3.98933,0.85333 1.68533,0.85333 2.60266,2.51733 0.91733,1.64266 0.91733,4.09599 z m -2.02666,0.064 q 0,-3.05066 -1.51467,-4.45866 -1.49333,-1.42933 -4.24532,-1.42933 h -2.496 v 11.94665 h 2.06933 q 6.18666,0 6.18666,-6.05866 z"
         id="path45502" />
      <path
         d="m 489.81809,217.46107 -1.83467,-4.71465 h -6.03732 l -1.81333,4.71465 h -1.94133 l 5.95199,-15.29597 h 1.728 l 5.93065,15.29597 z m -4.11733,-11.02931 q -0.064,-0.17067 -0.21333,-0.61867 -0.14934,-0.448 -0.29867,-0.91733 -0.128,-0.49066 -0.21333,-0.74666 -0.14934,0.66133 -0.34134,1.30133 -0.192,0.61866 -0.32,0.98133 l -1.72799,4.60799 h 4.82132 z"
         id="path45504" />
      <path
         d="m 497.22075,217.46107 h -1.92 v -13.54664 h -4.75733 v -1.68533 h 11.41332 v 1.68533 h -4.73599 z"
         id="path45506" />
      <path
         d="m 512.32472,217.46107 -1.83466,-4.71465 h -6.03733 l -1.81333,4.71465 h -1.94133 l 5.95199,-15.29597 h 1.728 l 5.93066,15.29597 z m -4.11732,-11.02931 q -0.064,-0.17067 -0.21334,-0.61867 -0.14933,-0.448 -0.29866,-0.91733 -0.128,-0.49066 -0.21334,-0.74666 -0.14933,0.66133 -0.34133,1.30133 -0.192,0.61866 -0.32,0.98133 l -1.728,4.60799 h 4.82133 z"
         id="path45508" />
      <path
         d="m 522.5007,203.7011 q -2.45333,0 -3.86133,1.64266 -1.408,1.64266 -1.408,4.50133 0,2.83733 1.30133,4.50132 1.32267,1.64267 3.94666,1.64267 1.00267,0 1.89867,-0.17067 0.896,-0.17067 1.74933,-0.42667 v 1.664 q -0.85333,0.32 -1.77067,0.46933 -0.89599,0.14934 -2.15466,0.14934 -2.32533,0 -3.88266,-0.96 -1.55733,-0.96 -2.34666,-2.73066 -0.768,-1.77067 -0.768,-4.16 0,-2.30399 0.832,-4.05332 0.85333,-1.77067 2.49599,-2.752 1.64267,-1.00266 3.98933,-1.00266 2.41066,0 4.20266,0.89599 l -0.768,1.62134 q -0.704,-0.32 -1.57866,-0.576 -0.85334,-0.256 -1.87733,-0.256 z"
         id="path45510" />
      <path
         d="m 537.96734,217.46107 h -8.51199 V 202.2291 h 8.51199 v 1.68533 h -6.59199 v 4.75733 h 6.20799 v 1.66399 h -6.20799 v 5.43999 h 6.59199 z"
         id="path45512" />
      <path
         d="m 553.39131,217.46107 h -2.24 l -8.14932,-12.65064 h -0.0853 q 0.0427,0.74666 0.10666,1.856 0.064,1.10933 0.064,2.28266 v 8.51198 h -1.77066 V 202.2291 h 2.21866 l 8.12799,12.60798 h 0.0853 q -0.0213,-0.34133 -0.064,-1.024 -0.0213,-0.68266 -0.064,-1.49333 -0.0213,-0.81067 -0.0213,-1.49333 v -8.59732 h 1.792 z"
         id="path45514" />
      <path
         d="m 562.3513,217.46107 h -1.91999 v -13.54664 h -4.75733 v -1.68533 h 11.41332 v 1.68533 h -4.736 z"
         id="path45516" />
      <path
         d="m 577.90327,217.46107 h -8.51199 V 202.2291 h 8.51199 v 1.68533 h -6.59199 v 4.75733 h 6.20799 v 1.66399 h -6.20799 v 5.43999 h 6.59199 z"
         id="path45518" />
      <path
         d="m 585.45525,202.2291 q 2.83733,0 4.18132,1.088 1.36534,1.06666 1.36534,3.24266 0,1.216 -0.448,2.02666 -0.448,0.81067 -1.152,1.30133 -0.68267,0.46934 -1.45067,0.74667 l 4.18133,6.82665 h -2.24 l -3.69066,-6.29332 h -3.02933 v 6.29332 h -1.91999 V 202.2291 Z m -0.10667,1.664 h -2.176 v 5.65332 h 2.28267 q 1.85599,0 2.70933,-0.72533 0.85333,-0.74667 0.85333,-2.176 0,-1.49333 -0.896,-2.11199 -0.896,-0.64 -2.77333,-0.64 z"
         id="path45520" />
      <path
         d="m 609.09255,217.46107 h -10.06932 v -1.55733 l 3.98933,-4.03199 q 1.152,-1.152 1.94133,-2.048 0.78933,-0.896 1.19467,-1.74933 0.40533,-0.87466 0.40533,-1.89866 0,-1.25867 -0.74667,-1.89866 -0.74666,-0.66134 -1.94133,-0.66134 -1.10933,0 -1.96266,0.384 -0.832,0.384 -1.70666,1.06667 l -1.00267,-1.25867 q 0.896,-0.74666 2.048,-1.25866 1.17333,-0.53333 2.62399,-0.53333 2.13333,0 3.37067,1.08799 1.23733,1.06667 1.23733,2.96533 0,1.19467 -0.49067,2.24 -0.49067,1.04533 -1.36533,2.06933 -0.87467,1.00266 -2.048,2.15466 l -3.17866,3.136 v 0.0853 h 7.70132 z"
         id="path45522" />
    </g>
    <path
       id="rect46-2"
       style="fill:#0c1835;stroke-width:1.00235"
       class="l"
       d="m 225.47993,104.70705 h 185.86001 v 53.17902 H 225.47993 Z" />
    <g
       aria-label="LOAD BALANCER"
       transform="scale(0.99765589,1.0023496)"
       id="text58"
       style="font-weight:700;font-size:14.0329px;font-family:Inter-Bold, Inter;font-variation-settings:'slnt' 0, 'wght' 700;fill:#ffffff;stroke-width:1.00235"
       class="f">
      <path
         d="m 260.88146,135.88527 v -10.01949 h 2.11897 v 8.26538 h 4.06954 v 1.75411 z"
         id="path45476" />
      <path
         d="m 277.62271,130.86149 q 0,1.55765 -0.51922,2.72238 -0.50518,1.1507 -1.55765,1.79621 -1.05247,0.64552 -2.69431,0.64552 -1.62782,0 -2.69432,-0.64552 -1.05247,-0.64551 -1.57169,-1.81024 -0.50518,-1.16473 -0.50518,-2.72238 0,-1.55765 0.50518,-2.70835 0.51922,-1.1507 1.57169,-1.78218 1.0665,-0.64551 2.70835,-0.64551 1.62781,0 2.68028,0.64551 1.05247,0.63148 1.55765,1.79621 0.51922,1.1507 0.51922,2.70835 z m -7.31114,0 q 0,1.57169 0.60342,2.48382 0.60341,0.89811 1.93654,0.89811 1.36119,0 1.95057,-0.89811 0.58938,-0.91213 0.58938,-2.48382 0,-1.58572 -0.58938,-2.48382 -0.58938,-0.89811 -1.93654,-0.89811 -1.34716,0 -1.95057,0.89811 -0.60342,0.8981 -0.60342,2.48382 z"
         id="path45478" />
      <path
         d="m 285.55129,135.88527 -0.72971,-2.38559 h -3.64856 l -0.72971,2.38559 h -2.28736 l 3.53629,-10.06159 h 2.59609 l 3.55032,10.06159 z m -1.96461,-6.49723 q -0.0702,-0.23856 -0.18243,-0.60342 -0.11226,-0.36485 -0.22452,-0.74374 -0.11227,-0.37889 -0.18243,-0.65955 -0.0702,0.28066 -0.19646,0.70165 -0.11226,0.40695 -0.22453,0.78584 -0.0982,0.36485 -0.15436,0.51922 l -0.71568,2.32946 h 2.61012 z"
         id="path45480" />
      <path
         d="m 297.4091,130.77729 q 0,2.53996 -1.44539,3.83099 -1.43136,1.27699 -4.02745,1.27699 h -2.83464 v -10.01949 h 3.14337 q 1.57168,0 2.72238,0.56131 1.16473,0.56132 1.79621,1.65589 0.64552,1.08053 0.64552,2.69431 z m -2.20317,0.0561 q 0,-1.66992 -0.72971,-2.44173 -0.72971,-0.78584 -2.11897,-0.78584 h -1.13666 v 6.5253 h 0.91213 q 3.07321,0 3.07321,-3.29773 z"
         id="path45482" />
      <path
         d="m 306.24982,125.86578 q 2.00671,0 3.03111,0.56131 1.0244,0.56132 1.0244,1.97864 0,0.85601 -0.40695,1.44539 -0.39292,0.58938 -1.13667,0.71568 v 0.0702 q 0.50519,0.0982 0.91214,0.35083 0.40696,0.25259 0.64551,0.72971 0.23856,0.47712 0.23856,1.26296 0,1.36119 -0.9823,2.133 -0.9823,0.77181 -2.69432,0.77181 h -3.74678 v -10.01949 z m 0.23856,3.97131 q 0.92617,0 1.277,-0.29469 0.36485,-0.29469 0.36485,-0.85601 0,-0.57535 -0.42098,-0.82794 -0.42099,-0.25259 -1.33313,-0.25259 h -1.12263 v 2.23123 z m -1.23489,1.68395 v 2.61012 h 1.38926 q 0.95423,0 1.33312,-0.36486 0.37889,-0.37889 0.37889,-0.99633 0,-0.56132 -0.39292,-0.89811 -0.37889,-0.35082 -1.38926,-0.35082 z"
         id="path45484" />
      <path
         d="m 318.69702,135.88527 -0.72971,-2.38559 h -3.64856 l -0.72971,2.38559 h -2.28736 l 3.53629,-10.06159 h 2.59608 l 3.55033,10.06159 z m -1.96461,-6.49723 q -0.0702,-0.23856 -0.18243,-0.60342 -0.11226,-0.36485 -0.22452,-0.74374 -0.11227,-0.37889 -0.18243,-0.65955 -0.0702,0.28066 -0.19646,0.70165 -0.11227,0.40695 -0.22453,0.78584 -0.0982,0.36485 -0.15436,0.51922 l -0.71568,2.32946 h 2.61012 z"
         id="path45486" />
      <path
         d="m 322.24735,135.88527 v -10.01949 h 2.11897 v 8.26538 h 4.06954 v 1.75411 z"
         id="path45488" />
      <path
         d="m 336.30832,135.88527 -0.72971,-2.38559 h -3.64855 l -0.72971,2.38559 h -2.28736 l 3.53629,-10.06159 h 2.59608 l 3.55033,10.06159 z m -1.9646,-6.49723 q -0.0702,-0.23856 -0.18243,-0.60342 -0.11226,-0.36485 -0.22453,-0.74374 -0.11226,-0.37889 -0.18242,-0.65955 -0.0702,0.28066 -0.19646,0.70165 -0.11227,0.40695 -0.22453,0.78584 -0.0982,0.36485 -0.15436,0.51922 l -0.71568,2.32946 h 2.61012 z"
         id="path45490" />
      <path
         d="m 348.74148,135.88527 h -2.69431 l -4.36424,-7.57777 h -0.0561 q 0.0281,0.71568 0.0561,1.43136 0.0421,0.71568 0.0702,1.43135 v 4.71506 h -1.89444 v -10.01949 h 2.68028 l 4.3502,7.5076 h 0.0421 q -0.014,-0.70164 -0.0421,-1.38926 -0.0281,-0.68761 -0.0561,-1.37522 v -4.74312 h 1.90847 z"
         id="path45492" />
      <path
         d="m 355.51936,127.4936 q -1.22086,0 -1.86637,0.91213 -0.64552,0.91214 -0.64552,2.49786 0,1.59975 0.58939,2.48382 0.60341,0.87004 1.9225,0.87004 0.61745,0 1.22086,-0.14033 0.61745,-0.14033 1.33313,-0.39292 v 1.78218 q -0.65955,0.26663 -1.30506,0.39292 -0.64551,0.1263 -1.44539,0.1263 -1.54362,0 -2.55399,-0.63148 -0.99633,-0.64552 -1.47345,-1.79621 -0.47712,-1.16473 -0.47712,-2.70835 0,-1.51556 0.54728,-2.68029 0.54729,-1.16473 1.58572,-1.82427 1.05247,-0.65955 2.56802,-0.65955 0.74375,0 1.48749,0.19646 0.75778,0.18243 1.44539,0.50518 l -0.68761,1.72605 q -0.56132,-0.26662 -1.13667,-0.46308 -0.56131,-0.19646 -1.1086,-0.19646 z"
         id="path45494" />
      <path
         d="m 365.97387,135.88527 h -5.76753 v -10.01949 h 5.76753 v 1.74008 h -3.64856 v 2.20316 h 3.39596 v 1.74008 h -3.39596 v 2.58206 h 3.64856 z"
         id="path45496" />
      <path
         d="m 370.9836,125.86578 q 2.0488,0 3.01707,0.74374 0.98231,0.74375 0.98231,2.2593 0,0.68761 -0.26663,1.20683 -0.25259,0.50518 -0.68761,0.87004 -0.42099,0.35082 -0.91214,0.57535 l 2.94691,4.36423 h -2.35753 l -2.38559,-3.84502 h -1.13667 v 3.84502 h -2.11896 v -10.01949 z m -0.15436,1.74008 h -0.64552 v 2.70835 h 0.68762 q 1.05246,0 1.50152,-0.35082 0.46308,-0.35083 0.46308,-1.03844 0,-0.71568 -0.49115,-1.01037 -0.47712,-0.30872 -1.51555,-0.30872 z"
         id="path45498" />
    </g>
    <path
       style="fill:none;fill-rule:evenodd;stroke:#000000;stroke-width:1.00235px;stroke-linecap:butt;stroke-linejoin:miter;stroke-opacity:1;stroke-dasharray:0, 0, 2.00469994, 3.00704991;stroke-dashoffset:0;marker-start:"
       d="M 225.47993,131.29656 101.075,131.176 l 0,52.95659"
       id="path9988"
       sodipodi:nodetypes="ccc" />
    <path
       style="fill:none;fill-rule:evenodd;stroke:#909090;stroke-width:1.00235px;stroke-linecap:butt;stroke-linejoin:miter;stroke-dasharray:0, 0, 2.0047, 3.00705;stroke-dashoffset:0;stroke-opacity:1"
       d="m 403.87377,131.55443 131.46959,-0.25787 1e-5,52.08341"
       id="path9990"
       sodipodi:nodetypes="ccc" />
    <g
       id="g11856"
       transform="matrix(1,0,0,1.0047048,431.98029,-218.81679)">
      <path
         id="circle11853"
         style="fill:#cf2144"
         class="st11"
         d="m 110.7,348.60001 a 7.1999998,7.1999998 0 0 1 -7.2,7.2 7.1999998,7.1999998 0 0 1 -7.2,-7.2 7.1999998,7.1999998 0 0 1 7.2,-7.2 7.1999998,7.1999998 0 0 1 7.2,7.2 z" />
      <path
         id="x_00000176038647969392589660000002905642974679435179_"
         class="st12"
         d="m 100,346.7 1.9,1.9 -1.9,1.9 c -0.1,0.1 -0.1,0.2 0,0.3 0,0 0,0 0,0 l 1.3,1.3 c 0.1,0.1 0.2,0.1 0.3,0 0,0 0,0 0,0 l 1.9,-1.9 1.9,1.9 c 0.1,0.1 0.2,0.1 0.3,0 l 1.3,-1.3 c 0.1,-0.1 0.1,-0.2 0,-0.3 l -1.9,-1.9 1.9,-1.9 c 0.1,-0.1 0.1,-0.2 0,-0.3 l -1.3,-1.3 c -0.1,-0.1 -0.2,-0.1 -0.3,0 0,0 0,0 0,0 l -1.9,1.9 -1.9,-1.9 c -0.1,-0.1 -0.2,-0.1 -0.3,0 0,0 0,0 0,0 l -1.3,1.3 c -0.1,0.1 -0.1,0.2 0,0.3 0,0 0,0 0,0 z"
         style="fill:#ffffff" />
    </g>
  </g>
  <g
     id="g20"
     transform="translate(0,78)">
    <g
       id="g14">
      <rect
         class="g"
         x="60.32"
         y="190.10001"
         width="3.9200001"
         height="10.21"
         id="rect8" />
      <path
         class="g"
         d="m 55.58,190.24 -7.95,4.29 c -0.11,0.06 -0.26,0.06 -0.37,0 l -7.95,-4.29 c -0.17,-0.09 -0.37,-0.14 -0.57,-0.14 v 0 c -0.6,0 -1.09,0.43 -1.09,0.96 v 9.24 c 0,0 3.91,0 3.91,0 v -4.4 c 0,-0.27 0.33,-0.44 0.6,-0.29 l 4.45,2.41 c 0.44,0.24 0.99,0.24 1.43,0.01 l 4.7,-2.43 c 0.26,-0.14 0.59,0.03 0.59,0.3 v 4.41 c 0,0 3.91,0 3.91,0 v -9.24 c 0,-0.53 -0.49,-0.96 -1.09,-0.96 v 0 c -0.2,0 -0.4,0.05 -0.57,0.14 z"
         id="path10" />
      <path
         class="g"
         d="m 83.76,190.1 h -3.97 c 0,0 0,4.65 0,4.65 0,0.26 -0.31,0.43 -0.58,0.31 l -10.29,-4.84 c -0.16,-0.07 -0.33,-0.11 -0.51,-0.11 v 0 c -0.6,0 -1.09,0.43 -1.09,0.96 v 9.24 c 0,0 3.94,0 3.94,0 v -4.64 c 0,-0.26 0.31,-0.43 0.57,-0.31 l 10.33,4.84 c 0.16,0.07 0.33,0.11 0.51,0.11 v 0 c 0.6,0 1.09,-0.43 1.09,-0.96 v -9.24 z"
         id="path12" />
    </g>
    <path
       class="g"
       d="M 86.84,200.31 V 190.1 h 1.8 v 10.21 z"
       id="path16" />
    <path
       class="g"
       d="m 99.25,200.49 c -4.85,0 -8.28,-2.03 -8.28,-5.29 0,-3.24 3.46,-5.29 8.28,-5.29 4.82,0 8.31,2.03 8.31,5.29 0,3.26 -3.4,5.29 -8.31,5.29 z m 0,-9.22 c -3.6,0 -6.38,1.39 -6.38,3.93 0,2.56 2.78,3.93 6.38,3.93 3.6,0 6.4,-1.37 6.4,-3.93 0,-2.56 -2.8,-3.93 -6.4,-3.93 z"
       id="path18" />
  </g>
  <text
     class="h"
     id="text24"
     x="116.36"
     y="278.27002"><tspan
       x="116.36"
       y="278.27002"
       id="tspan22">SITE A</tspan></text>
  <rect
     class="f"
     x="14.99"
     y="18.85"
     width="156.61"
     height="53.63"
     id="rect66" />
  <line
     class="c"
     x1="29.24"
     y1="35.61"
     x2="61.31"
     y2="35.61"
     id="line68" />
  <line
     class="b"
     x1="29.24"
     y1="53.59"
     x2="61.31"
     y2="53.59"
     id="line70" />
  <text
     class="p"
     id="text82"><tspan
       class="n"
       x="78.16"
       y="38.31"
       id="tspan72">R</tspan><tspan
       class="t"
       x="83.26"
       y="38.31"
       id="tspan74">eplication </tspan><tspan
       class="q"
       x="122.66"
       y="38.31"
       id="tspan76">T</tspan><tspan
       class="u"
       x="127.41"
       y="38.31"
       id="tspan78">r</tspan><tspan
       class="s"
       x="130.45"
       y="38.31"
       id="tspan80">affic</tspan></text>
  <text
     class="p"
     id="text92"
     x="78.00927"
     y="56.09">NetworkLinks</text>
  <polygon
     class="l"
     points="77.63,245.89 71.79,238.78 16.73,238.78 16.73,262.76 77.63,262.76 "
     id="polygon94"
     transform="translate(0,78)" />
  <polygon
     class="m"
     points="68.51,244.63 68.51,262.76 77.63,262.76 77.63,245.89 76.59,244.63 "
     id="polygon96"
     transform="translate(0,78)" />
  <text
     class="i"
     id="text100"
     x="24.65"
     y="333.09"><tspan
       x="24.65"
       y="333.09"
       id="tspan98">CONFIG</tspan></text>
  <polygon
     class="l"
     points="131.52,254.1 125.68,246.99 70.63,246.99 70.63,270.97 131.52,270.97 "
     id="polygon102"
     transform="translate(0,78)" />
  <g
     id="g108"
     transform="translate(0,78)">
    <polygon
       class="m"
       points="122.08,252.84 122.08,270.98 131.2,270.98 131.2,254.11 130.16,252.84 "
       id="polygon104" />
    <polygon
       class="l"
       points="185.09,262.32 179.25,255.2 124.2,255.2 124.2,279.19 185.09,279.19 "
       id="polygon106" />
  </g>
  <text
     class="i"
     id="text112"
     x="88.849998"
     y="341.29999"><tspan
       x="88.849998"
       y="341.29999"
       id="tspan110">IAM</tspan></text>
  <text
     class="i"
     id="text116"
     x="130.39"
     y="349.51001"><tspan
       x="130.39"
       y="349.51001"
       id="tspan114">BUCKETS</tspan></text>
  <polygon
     class="j"
     points="494.55,148.99 503.67,148.99 503.67,132.12 502.63,130.85 494.55,130.85 "
     id="polygon120"
     transform="translate(3.79,190.53)" />
  <polygon
     class="j"
     points="548.12,157.21 557.24,157.21 557.24,140.34 556.2,139.07 548.12,139.07 "
     id="polygon128"
     transform="translate(3.79,190.53)" />
  <g
     id="g9031"
     transform="translate(0,78)">
    <rect
       class="k"
       x="447.0972"
       y="165.23999"
       width="176.1566"
       height="122.0392"
       id="rect26"
       style="stroke-width:1.53928" />
    <g
       id="g40"
       transform="translate(8.4738136,112.53)">
      <g
         id="g34">
        <rect
           class="g"
           x="490.01999"
           y="75.800003"
           width="3.9200001"
           height="10.21"
           id="rect28" />
        <path
           class="g"
           d="m 485.27,75.94 -7.95,4.29 c -0.11,0.06 -0.26,0.06 -0.37,0 L 469,75.94 c -0.17,-0.09 -0.37,-0.14 -0.57,-0.14 v 0 c -0.6,0 -1.09,0.43 -1.09,0.96 V 86 c 0,0 3.91,0 3.91,0 v -4.4 c 0,-0.27 0.33,-0.44 0.6,-0.29 l 4.45,2.41 c 0.44,0.24 0.99,0.24 1.43,0.01 l 4.7,-2.43 c 0.26,-0.14 0.59,0.03 0.59,0.3 v 4.41 c 0,0 3.91,0 3.91,0 v -9.24 c 0,-0.53 -0.49,-0.96 -1.09,-0.96 v 0 c -0.2,0 -0.4,0.05 -0.57,0.14 z"
           id="path30" />
        <path
           class="g"
           d="m 513.46,75.8 h -3.97 c 0,0 0,4.65 0,4.65 0,0.26 -0.31,0.43 -0.58,0.31 l -10.29,-4.84 c -0.16,-0.07 -0.33,-0.11 -0.51,-0.11 v 0 c -0.6,0 -1.09,0.43 -1.09,0.96 v 9.24 c 0,0 3.94,0 3.94,0 v -4.64 c 0,-0.26 0.31,-0.43 0.57,-0.31 l 10.33,4.84 c 0.16,0.07 0.33,0.11 0.51,0.11 v 0 c 0.6,0 1.09,-0.43 1.09,-0.96 v -9.24 z"
           id="path32" />
      </g>
      <path
         class="g"
         d="M 516.53,86.01 V 75.8 h 1.8 v 10.21 z"
         id="path36" />
      <path
         class="g"
         d="m 528.94,86.19 c -4.85,0 -8.28,-2.03 -8.28,-5.29 0,-3.24 3.46,-5.29 8.28,-5.29 4.82,0 8.31,2.03 8.31,5.29 0,3.26 -3.4,5.29 -8.31,5.29 z m 0,-9.22 c -3.6,0 -6.38,1.39 -6.38,3.93 0,2.56 2.78,3.93 6.38,3.93 3.6,0 6.4,-1.37 6.4,-3.93 0,-2.56 -2.8,-3.93 -6.4,-3.93 z"
         id="path38" />
    </g>
    <text
       class="h"
       id="text44"
       x="555.13379"
       y="198.5"><tspan
         x="555.13379"
         y="198.5"
         id="tspan42">SITE B</tspan></text>
    <polygon
       class="d"
       points="503.67,132.12 497.83,125 442.77,125 442.77,148.99 503.67,148.99 "
       id="polygon118"
       transform="translate(8.4738136,110.53)" />
    <text
       class="r"
       id="text124"
       x="459.16385"
       y="253.85001"><tspan
         x="459.16385"
         y="253.85001"
         id="tspan122">CONFIG</tspan></text>
    <polygon
       class="d"
       points="551.72,133.21 496.67,133.21 496.67,157.2 557.56,157.2 557.56,140.33 "
       id="polygon126"
       transform="translate(8.4738136,112.53)" />
    <polygon
       class="d"
       points="605.29,141.43 550.23,141.43 550.23,165.42 611.13,165.42 611.13,148.55 "
       id="polygon130"
       transform="translate(8.4738136,112.53)" />
    <text
       class="r"
       id="text134"
       x="523.36383"
       y="262.06"><tspan
         x="523.36383"
         y="262.06"
         id="tspan132">IAM</tspan></text>
    <text
       class="r"
       id="text138"
       x="564.90381"
       y="270.26999"><tspan
         x="564.90381"
         y="270.26999"
         id="tspan136">BUCKETS</tspan></text>
  </g>
  <path
     id="polyline162"
     class="e"
     style="fill:none;stroke:#cf2144;stroke-width:0.964916;stroke-miterlimit:10;stroke-dasharray:0, 0, 1.92983, 1.92983"
     d="m 198.18924,271.46975 239.68138,0.5005"
     sodipodi:nodetypes="cc" />
  <polyline
     class="k"
     points="438.98 80.56 438.98 78.37 443.36 80.91 438.98 83.44 438.98 81.55"
     id="polyline166"
     transform="translate(-1.0262163,190.815)" />
  <polyline
     class="k"
     points="438.98 80.56 438.98 78.37 443.36 80.91 438.98 83.44 438.98 81.55"
     id="polyline166-8"
     transform="matrix(-1,0,0,1,637.16813,190.50423)"
     style="fill:#cf2144" />
  <text
     xml:space="preserve"
     style="font-style:normal;font-variant:normal;font-weight:normal;font-stretch:normal;font-size:21.3333px;font-family:sans-serif;-inkscape-font-specification:'sans-serif, Normal';font-variant-ligatures:normal;font-variant-caps:normal;font-variant-numeric:normal;font-variant-east-asian:normal;text-align:center;text-anchor:middle;fill:#ffffff;fill-opacity:1;stroke:#000000;stroke-width:0;stroke-linejoin:bevel"
     x="102.355"
     y="218.78317"
     id="text8851"><tspan
       sodipodi:role="line"
       id="tspan8849"
       x="102.355"
       y="218.78317">DATACENTER 1</tspan></text>
</svg>
