<?xml version="1.0" encoding="UTF-8" standalone="no"?>
<!-- Generator: Adobe Illustrator 27.0.0, SVG Export Plug-In . SVG Version: 6.00 Build 0)  -->

<svg
   version="1.1"
   id="Layer_1"
   x="0px"
   y="0px"
   viewBox="0 0 645.3 370.3"
   style="enable-background:new 0 0 645.3 370.3;"
   xml:space="preserve"
   sodipodi:docname="availability-erasure-set-selection.svg"
   inkscape:version="1.2.2 (b0a8486541, 2022-12-01)"
   xmlns:inkscape="http://www.inkscape.org/namespaces/inkscape"
   xmlns:sodipodi="http://sodipodi.sourceforge.net/DTD/sodipodi-0.dtd"
   xmlns="http://www.w3.org/2000/svg"
   xmlns:svg="http://www.w3.org/2000/svg"><defs
   id="defs31948" /><sodipodi:namedview
   id="namedview31946"
   pagecolor="#505050"
   bordercolor="#eeeeee"
   borderopacity="1"
   inkscape:showpageshadow="0"
   inkscape:pageopacity="0"
   inkscape:pagecheckerboard="0"
   inkscape:deskcolor="#505050"
   showgrid="false"
   inkscape:zoom="3.6406272"
   inkscape:cx="361.61352"
   inkscape:cy="177.85397"
   inkscape:window-width="3840"
   inkscape:window-height="2303"
   inkscape:window-x="3840"
   inkscape:window-y="2160"
   inkscape:window-maximized="1"
   inkscape:current-layer="Layer_1" />
<style
   type="text/css"
   id="style31611">
	.st0{fill:none;stroke:#1B1717;stroke-width:1.4717;stroke-miterlimit:10;}
	.st1{fill:#FFCACD;stroke:#CF2144;stroke-miterlimit:10;}
	.st2{fill:#1B1717;}
	.st3{fill:#F6F6F6;}
	.st4{fill:#577F9A;}
	.st5{fill:#F6F6F6;stroke:#CDD1D3;stroke-miterlimit:10;stroke-dasharray:6.7438,6.7438;}
	.st6{fill:none;stroke:#1B1717;stroke-width:3;stroke-miterlimit:10;}
	.st7{fill:#E8F3F3;}
	.st8{fill:#122745;}
	.st9{fill:#FFFFFF;stroke:#000000;stroke-width:1.3488;stroke-miterlimit:10;stroke-dasharray:6.7438,6.7438;}
	.st10{fill:#1B546D;}
	.st11{fill:#CF2144;}
	.st12{fill:#FFFFFF;}
	.st13{fill:#1F5274;}
	.st14{fill:#8C95BE;}
	.st15{fill:#797B7C;}
	.st16{fill:#3A62E0;}
	.st17{fill:#009EED;}
	.st18{fill:none;stroke:#009EED;stroke-width:3;stroke-miterlimit:10;}
	.st19{fill:none;stroke:#CF2144;stroke-width:3;stroke-miterlimit:10;}
	.st20{fill:#F6F6F6;stroke:#CDD1D3;stroke-width:1.4142;stroke-miterlimit:10;}
	.st21{fill:none;stroke:#CF2144;stroke-miterlimit:10;}
	.st22{fill:none;stroke:#CF2144;stroke-width:2.143;stroke-miterlimit:10;}
	.st23{fill:none;stroke:#FFFFFF;stroke-width:0.9583;stroke-linecap:round;stroke-miterlimit:10;}
	.st24{fill:none;stroke:#CF2144;stroke-width:0.6974;stroke-miterlimit:10;}
	.st25{fill:none;stroke:#FFFFFF;stroke-width:0.3118;stroke-linecap:round;stroke-miterlimit:10;}
	.st26{fill:none;stroke:#1B1717;stroke-miterlimit:10;}
	.st27{fill:#D6D6D6;}
	.st28{fill:none;stroke:#CF2144;stroke-miterlimit:10;stroke-dasharray:3,3;}
	.st29{fill:none;stroke:#CF2144;stroke-width:2.0917;stroke-miterlimit:10;}
	.st30{fill:none;stroke:#FFFFFF;stroke-width:0.9354;stroke-linecap:round;stroke-miterlimit:10;}
</style>
<path
   id="line31613"
   class="st26"
   style="fill:none;stroke:#1b1717;stroke-miterlimit:10"
   d="m 322.70001,130.8 v 51.7" />
<path
   id="line31615"
   class="st26"
   style="fill:none;stroke:#1b1717;stroke-miterlimit:10"
   d="m 322.70001,223.5 v 38.79999" />
<g
   id="g31739">
	<path
   d="M125.8,21.9l3.4-1.3l0.3-0.1l-0.3-0.1l-3.4-1.3v-1l4.7,2v0.8l-4.7,2V21.9z"
   id="path31617" />
	<path
   d="M132.7,18.8c0.1-0.2,0.3-0.4,0.5-0.5c0.2-0.1,0.4-0.2,0.7-0.2c0.2,0,0.3,0,0.4,0.1c0.1,0,0.2,0.1,0.3,0.1   c0.1,0,0.1,0.1,0.2,0.2s0.1,0.1,0.1,0.2c0-0.1,0.1-0.2,0.2-0.2s0.1-0.1,0.2-0.2c0.1-0.1,0.2-0.1,0.3-0.1s0.3-0.1,0.4-0.1   c0.2,0,0.4,0,0.5,0.1c0.2,0.1,0.3,0.1,0.4,0.3c0.1,0.1,0.2,0.3,0.3,0.5c0.1,0.2,0.1,0.4,0.1,0.7v4.3h-0.9v-4.3c0-0.1,0-0.2,0-0.3   s-0.1-0.2-0.1-0.2c-0.1-0.1-0.1-0.1-0.2-0.1c-0.1,0-0.2,0-0.3,0c-0.1,0-0.2,0-0.3,0c-0.1,0-0.2,0.1-0.2,0.1   c-0.1,0.1-0.1,0.1-0.1,0.2c0,0.1-0.1,0.2-0.1,0.2c0,0,0,0,0,0.1s0,0,0,0.1v4.3h-0.9v-4.3c0-0.1,0-0.2,0-0.3c0-0.1-0.1-0.2-0.1-0.2   c-0.1-0.1-0.1-0.1-0.2-0.1s-0.2,0-0.3,0c-0.1,0-0.2,0-0.3,0s-0.2,0.1-0.2,0.1c0,0-0.1,0.1-0.1,0.1c0,0-0.1,0.1-0.1,0.2v4.5h-0.9   v-5.7h0.9L132.7,18.8z"
   id="path31619" />
	<path
   d="M141.8,18.2v4.9h1.9v0.8h-4.8v-0.8h1.9v-4h-1.9v-0.9H141.8z M140.7,16.5c0-0.1,0.1-0.1,0.1-0.2c0,0,0.1-0.1,0.2-0.1   c0.1,0,0.2,0,0.2,0c0.1,0,0.2,0,0.2,0c0.1,0,0.1,0.1,0.2,0.1c0.1,0,0.1,0.1,0.1,0.2c0,0.1,0,0.2,0,0.2c0,0.2,0,0.3-0.1,0.4   c-0.1,0.1-0.2,0.2-0.4,0.2c-0.2,0-0.3-0.1-0.4-0.2s-0.1-0.2-0.1-0.4C140.7,16.6,140.7,16.6,140.7,16.5z"
   id="path31621" />
	<path
   d="M145.2,18.2h0.9l0.1,0.8c0.1-0.1,0.2-0.2,0.3-0.3c0.1-0.1,0.2-0.2,0.3-0.3c0.2-0.1,0.4-0.2,0.6-0.3   c0.2-0.1,0.4-0.1,0.6-0.1c0.3,0,0.6,0,0.8,0.1s0.5,0.2,0.6,0.4c0.2,0.2,0.3,0.4,0.4,0.7s0.1,0.6,0.1,1v3.6h-1v-3.6   c0-0.3,0-0.5-0.1-0.6c-0.1-0.2-0.1-0.3-0.2-0.4c-0.1-0.1-0.2-0.2-0.4-0.2s-0.3-0.1-0.6-0.1c-0.2,0-0.3,0-0.5,0.1   c-0.2,0.1-0.3,0.1-0.4,0.2c-0.1,0.1-0.2,0.2-0.3,0.3c-0.1,0.1-0.2,0.2-0.2,0.3v4.1h-1V18.2z"
   id="path31623" />
	<path
   d="M154.8,18.2v4.9h1.9v0.8h-4.8v-0.8h1.9v-4h-1.9v-0.9H154.8z M153.7,16.5c0-0.1,0.1-0.1,0.1-0.2c0,0,0.1-0.1,0.2-0.1   c0.1,0,0.2,0,0.2,0c0.1,0,0.2,0,0.2,0c0.1,0,0.1,0.1,0.2,0.1c0.1,0,0.1,0.1,0.1,0.2c0,0.1,0,0.2,0,0.2c0,0.2,0,0.3-0.1,0.4   c-0.1,0.1-0.2,0.2-0.4,0.2c-0.2,0-0.3-0.1-0.4-0.2s-0.1-0.2-0.1-0.4C153.7,16.6,153.7,16.6,153.7,16.5z"
   id="path31625" />
	<path
   d="M158.1,19.9c0.1-0.4,0.3-0.7,0.5-0.9c0.2-0.3,0.5-0.5,0.8-0.6c0.3-0.1,0.7-0.2,1.1-0.2c0.4,0,0.8,0.1,1.1,0.2   c0.3,0.1,0.6,0.4,0.8,0.6c0.2,0.3,0.4,0.6,0.5,0.9c0.1,0.4,0.2,0.7,0.2,1.1v0.1c0,0.4-0.1,0.8-0.2,1.1c-0.1,0.4-0.3,0.7-0.5,0.9   c-0.2,0.3-0.5,0.5-0.8,0.6c-0.3,0.1-0.7,0.2-1.1,0.2c-0.4,0-0.8-0.1-1.1-0.2c-0.3-0.1-0.6-0.4-0.8-0.6c-0.2-0.3-0.4-0.6-0.5-0.9   c-0.1-0.4-0.2-0.7-0.2-1.1V21C157.9,20.6,158,20.2,158.1,19.9z M159,22c0.1,0.3,0.2,0.5,0.3,0.7c0.1,0.2,0.3,0.3,0.5,0.5   s0.4,0.2,0.7,0.2c0.3,0,0.5-0.1,0.7-0.2c0.2-0.1,0.4-0.3,0.5-0.5c0.1-0.2,0.2-0.4,0.3-0.7c0.1-0.3,0.1-0.5,0.1-0.8V21   c0-0.3,0-0.5-0.1-0.8c-0.1-0.3-0.2-0.5-0.3-0.7c-0.1-0.2-0.3-0.3-0.5-0.5c-0.2-0.1-0.4-0.2-0.7-0.2s-0.5,0.1-0.7,0.2   c-0.2,0.1-0.4,0.3-0.5,0.5c-0.1,0.2-0.2,0.4-0.3,0.7c-0.1,0.3-0.1,0.5-0.1,0.8v0.1C158.9,21.4,158.9,21.7,159,22z"
   id="path31627" />
	<path
   d="M169.4,22.6c-0.1,0.3-0.3,0.6-0.5,0.8c-0.2,0.2-0.5,0.4-0.8,0.5s-0.6,0.2-1,0.2c-0.3,0-0.6,0-0.9-0.1   c-0.3-0.1-0.5-0.2-0.7-0.4c-0.2-0.2-0.4-0.3-0.5-0.6c-0.1-0.2-0.3-0.4-0.4-0.7c-0.1-0.3-0.2-0.5-0.2-0.8c0-0.3-0.1-0.6-0.1-0.8   v-1.1c0-0.3,0-0.6,0.1-0.8c0-0.3,0.1-0.5,0.2-0.8c0.1-0.3,0.2-0.5,0.4-0.7c0.1-0.2,0.3-0.4,0.5-0.6c0.2-0.2,0.4-0.3,0.7-0.4   s0.5-0.1,0.9-0.1c0.4,0,0.7,0.1,1,0.2c0.3,0.1,0.6,0.3,0.8,0.5c0.2,0.2,0.4,0.5,0.5,0.8s0.2,0.6,0.3,1h-1c0-0.2-0.1-0.4-0.2-0.6   c-0.1-0.2-0.2-0.4-0.3-0.5c-0.1-0.2-0.3-0.3-0.5-0.4c-0.2-0.1-0.4-0.1-0.7-0.1c-0.2,0-0.4,0-0.6,0.1c-0.2,0.1-0.3,0.2-0.5,0.3   c-0.1,0.1-0.2,0.3-0.3,0.5c-0.1,0.2-0.2,0.4-0.2,0.5c-0.1,0.2-0.1,0.4-0.1,0.6c0,0.2,0,0.4,0,0.6v1.1c0,0.2,0,0.4,0,0.6   c0,0.2,0.1,0.4,0.1,0.6c0.1,0.2,0.1,0.4,0.2,0.6s0.2,0.3,0.3,0.5c0.1,0.1,0.3,0.2,0.5,0.3c0.2,0.1,0.4,0.1,0.6,0.1   c0.3,0,0.5,0,0.7-0.1c0.2-0.1,0.3-0.2,0.5-0.3c0.1-0.1,0.2-0.3,0.3-0.5c0.1-0.2,0.1-0.4,0.2-0.6h1C169.6,22,169.5,22.3,169.4,22.6z   "
   id="path31629" />
	<path
   d="M174.2,15.8v7.3h1.9v0.8h-4.8v-0.8h1.9v-6.4h-1.9v-0.8H174.2z"
   id="path31631" />
	<path
   d="M180.7,18.2v4.9h1.9v0.8h-4.8v-0.8h1.9v-4h-1.9v-0.9H180.7z M179.6,16.5c0-0.1,0.1-0.1,0.1-0.2c0,0,0.1-0.1,0.2-0.1   c0.1,0,0.2,0,0.2,0c0.1,0,0.2,0,0.2,0c0.1,0,0.1,0.1,0.2,0.1c0.1,0,0.1,0.1,0.1,0.2c0,0.1,0,0.2,0,0.2c0,0.2,0,0.3-0.1,0.4   c-0.1,0.1-0.2,0.2-0.4,0.2c-0.2,0-0.3-0.1-0.4-0.2s-0.1-0.2-0.1-0.4C179.6,16.6,179.6,16.6,179.6,16.5z"
   id="path31633" />
	<path
   d="M185.5,23.8c-0.3-0.1-0.6-0.3-0.9-0.6c-0.2-0.2-0.4-0.5-0.6-0.9s-0.2-0.7-0.2-1.1v-0.2c0-0.5,0.1-0.9,0.2-1.2   c0.1-0.4,0.3-0.7,0.6-0.9c0.2-0.2,0.5-0.4,0.8-0.6c0.3-0.1,0.6-0.2,1-0.2c0.4,0,0.8,0.1,1.1,0.2c0.3,0.1,0.6,0.3,0.8,0.6   c0.2,0.3,0.4,0.6,0.5,0.9c0.1,0.3,0.2,0.7,0.2,1.1v0.4h-4.1v0c0,0.3,0.1,0.5,0.2,0.7c0.1,0.2,0.2,0.4,0.4,0.6   c0.2,0.2,0.3,0.3,0.6,0.4c0.2,0.1,0.5,0.1,0.7,0.1c0.3,0,0.7-0.1,0.9-0.2c0.3-0.1,0.5-0.3,0.7-0.6l0.6,0.5   c-0.2,0.3-0.5,0.5-0.9,0.8c-0.4,0.2-0.8,0.3-1.4,0.3C186.2,24,185.9,24,185.5,23.8z M186,19c-0.2,0.1-0.3,0.2-0.5,0.3   c-0.1,0.1-0.3,0.3-0.4,0.5s-0.2,0.4-0.2,0.7h3.1v0c0-0.2,0-0.4-0.1-0.6c-0.1-0.2-0.2-0.4-0.3-0.5c-0.1-0.1-0.3-0.3-0.5-0.4   c-0.2-0.1-0.4-0.1-0.6-0.1C186.3,18.9,186.1,19,186,19z"
   id="path31635" />
	<path
   d="M190.6,18.2h0.9l0.1,0.8c0.1-0.1,0.2-0.2,0.3-0.3c0.1-0.1,0.2-0.2,0.3-0.3c0.2-0.1,0.4-0.2,0.6-0.3   c0.2-0.1,0.4-0.1,0.6-0.1c0.3,0,0.6,0,0.8,0.1s0.5,0.2,0.6,0.4c0.2,0.2,0.3,0.4,0.4,0.7s0.1,0.6,0.1,1v3.6h-1v-3.6   c0-0.3,0-0.5-0.1-0.6c-0.1-0.2-0.1-0.3-0.2-0.4c-0.1-0.1-0.2-0.2-0.4-0.2S193.2,19,193,19c-0.2,0-0.3,0-0.5,0.1   c-0.2,0.1-0.3,0.1-0.4,0.2c-0.1,0.1-0.2,0.2-0.3,0.3c-0.1,0.1-0.2,0.2-0.2,0.3v4.1h-1V18.2z"
   id="path31637" />
	<path
   d="M199.4,18.2h2.2V19h-2.2v3.1c0,0.2,0,0.4,0.1,0.5c0.1,0.1,0.1,0.3,0.2,0.3c0.1,0.1,0.2,0.1,0.3,0.2s0.3,0.1,0.4,0.1   c0.1,0,0.2,0,0.3,0c0.1,0,0.2,0,0.3,0c0.1,0,0.2,0,0.3-0.1c0.1,0,0.2,0,0.2-0.1l0.1,0.7c-0.1,0-0.2,0.1-0.3,0.1   c-0.1,0-0.2,0.1-0.4,0.1c-0.1,0-0.3,0-0.4,0.1c-0.2,0-0.3,0-0.5,0c-0.3,0-0.5,0-0.7-0.1c-0.2-0.1-0.4-0.2-0.6-0.3   c-0.2-0.2-0.3-0.4-0.4-0.6s-0.1-0.5-0.1-0.9V19h-1.5v-0.8h1.5v-1.4h1V18.2z"
   id="path31639" />
	<path
   d="M205.5,22.8c0.1-0.1,0.3-0.2,0.6-0.2c0.3,0,0.4,0.1,0.6,0.2c0.1,0.1,0.2,0.3,0.2,0.5c0,0.2-0.1,0.4-0.2,0.5   S206.3,24,206,24c-0.3,0-0.4-0.1-0.6-0.2c-0.1-0.1-0.2-0.3-0.2-0.5C205.3,23.1,205.3,22.9,205.5,22.8z"
   id="path31641" />
	<path
   d="M210.1,18.2h0.9l0,0.6c0.1-0.1,0.2-0.2,0.3-0.3c0.1-0.1,0.2-0.1,0.3-0.2c0.1-0.1,0.3-0.1,0.5-0.2s0.4-0.1,0.6-0.1   c0.4,0,0.7,0.1,1,0.2c0.3,0.1,0.5,0.3,0.7,0.6s0.3,0.6,0.4,0.9s0.1,0.7,0.1,1.2v0.1c0,0.4,0,0.8-0.1,1.1s-0.2,0.7-0.4,0.9   c-0.2,0.3-0.4,0.5-0.7,0.6c-0.3,0.1-0.6,0.2-1,0.2c-0.2,0-0.4,0-0.6-0.1c-0.2,0-0.4-0.1-0.5-0.2c-0.1-0.1-0.2-0.1-0.3-0.2   c-0.1-0.1-0.2-0.1-0.2-0.2v2.7h-1V18.2z M213.8,20.2c-0.1-0.3-0.2-0.5-0.3-0.7c-0.1-0.2-0.3-0.3-0.5-0.5c-0.2-0.1-0.4-0.2-0.7-0.2   c-0.2,0-0.3,0-0.4,0.1s-0.2,0.1-0.3,0.2c-0.1,0.1-0.2,0.1-0.3,0.2s-0.2,0.2-0.2,0.3v2.8c0.1,0.1,0.1,0.2,0.2,0.3   c0.1,0.1,0.2,0.2,0.3,0.2c0.1,0.1,0.2,0.1,0.4,0.2c0.1,0,0.3,0.1,0.5,0.1c0.3,0,0.5-0.1,0.7-0.2s0.4-0.3,0.5-0.5   c0.1-0.2,0.2-0.4,0.3-0.7s0.1-0.5,0.1-0.8V21C213.9,20.8,213.9,20.5,213.8,20.2z"
   id="path31643" />
	<path
   d="M220.3,23.2c-0.2,0.3-0.4,0.5-0.7,0.7c-0.3,0.2-0.6,0.2-1,0.2c-0.3,0-0.6,0-0.8-0.1c-0.2-0.1-0.5-0.2-0.6-0.4   s-0.3-0.4-0.4-0.8c-0.1-0.3-0.1-0.7-0.1-1.1v-3.4h1v3.4c0,0.3,0,0.6,0.1,0.8s0.1,0.4,0.2,0.5c0.1,0.1,0.2,0.2,0.4,0.3   s0.3,0.1,0.5,0.1c0.2,0,0.4,0,0.6-0.1c0.2-0.1,0.3-0.1,0.4-0.2c0.1-0.1,0.2-0.2,0.3-0.3c0.1-0.1,0.1-0.2,0.2-0.3v-4.1h1v5.7h-0.9   L220.3,23.2z"
   id="path31645" />
	<path
   d="M225.4,18.2h2.2V19h-2.2v3.1c0,0.2,0,0.4,0.1,0.5c0.1,0.1,0.1,0.3,0.2,0.3c0.1,0.1,0.2,0.1,0.3,0.2s0.3,0.1,0.4,0.1   c0.1,0,0.2,0,0.3,0c0.1,0,0.2,0,0.3,0c0.1,0,0.2,0,0.3-0.1c0.1,0,0.2,0,0.2-0.1l0.1,0.7c-0.1,0-0.2,0.1-0.3,0.1   c-0.1,0-0.2,0.1-0.4,0.1c-0.1,0-0.3,0-0.4,0.1c-0.2,0-0.3,0-0.5,0c-0.3,0-0.5,0-0.7-0.1c-0.2-0.1-0.4-0.2-0.6-0.3   c-0.2-0.2-0.3-0.4-0.4-0.6s-0.1-0.5-0.1-0.9V19h-1.5v-0.8h1.5v-1.4h1V18.2z"
   id="path31647" />
	<path
   d="M234.5,21.4c0,0.3-0.1,0.5-0.2,0.8c-0.1,0.3-0.2,0.5-0.4,0.7s-0.3,0.4-0.5,0.6c-0.2,0.2-0.4,0.3-0.7,0.4   c-0.3,0.1-0.5,0.1-0.9,0.1c-0.3,0-0.6,0-0.9-0.1c-0.3-0.1-0.5-0.2-0.7-0.4c-0.2-0.2-0.4-0.4-0.5-0.6c-0.1-0.2-0.3-0.5-0.4-0.7   c-0.1-0.3-0.2-0.5-0.2-0.8s-0.1-0.6-0.1-0.8v-0.9c0-0.3,0-0.6,0.1-0.8s0.1-0.5,0.2-0.8c0.1-0.3,0.2-0.5,0.4-0.7   c0.1-0.2,0.3-0.4,0.5-0.6c0.2-0.2,0.4-0.3,0.7-0.4c0.3-0.1,0.5-0.1,0.9-0.1c0.3,0,0.6,0,0.9,0.1s0.5,0.2,0.7,0.4   c0.2,0.2,0.4,0.4,0.5,0.6c0.1,0.2,0.3,0.5,0.4,0.7c0.1,0.3,0.2,0.5,0.2,0.8c0,0.3,0.1,0.6,0.1,0.8v0.9   C234.5,20.8,234.5,21.1,234.5,21.4z M233.5,19.1c0-0.2-0.1-0.4-0.1-0.6c-0.1-0.2-0.1-0.4-0.2-0.6s-0.2-0.3-0.3-0.5   c-0.1-0.1-0.3-0.2-0.4-0.3s-0.4-0.1-0.6-0.1c-0.2,0-0.4,0-0.6,0.1c-0.2,0.1-0.3,0.2-0.4,0.3c-0.1,0.1-0.2,0.3-0.3,0.5   c-0.1,0.2-0.2,0.4-0.2,0.6c-0.1,0.2-0.1,0.4-0.1,0.6s0,0.4,0,0.6v0.9c0,0.2,0,0.4,0,0.6s0.1,0.4,0.1,0.6c0.1,0.2,0.1,0.4,0.2,0.6   c0.1,0.2,0.2,0.3,0.3,0.5c0.1,0.1,0.3,0.2,0.4,0.3s0.4,0.1,0.6,0.1c0.2,0,0.4,0,0.6-0.1c0.2-0.1,0.3-0.2,0.5-0.3   c0.1-0.1,0.2-0.3,0.3-0.5c0.1-0.2,0.2-0.4,0.2-0.6c0-0.2,0.1-0.4,0.1-0.6c0-0.2,0-0.4,0-0.6v-0.9C233.6,19.5,233.5,19.3,233.5,19.1   z"
   id="path31649" />
	<path
   d="M240.8,21.9c0,0.2-0.1,0.4-0.2,0.6c-0.1,0.3-0.2,0.5-0.4,0.7c-0.2,0.2-0.3,0.4-0.6,0.5c-0.2,0.1-0.3,0.2-0.5,0.2   s-0.4,0.1-0.6,0.1c-0.2,0-0.5,0-0.7-0.1c-0.2-0.1-0.4-0.1-0.5-0.3c-0.1-0.1-0.2-0.1-0.2-0.2c-0.1-0.1-0.1-0.1-0.2-0.2l0,0.6H236   v-8.1h1v3c0.1-0.1,0.2-0.2,0.3-0.3c0.1-0.1,0.2-0.2,0.3-0.2c0.1-0.1,0.3-0.1,0.5-0.2s0.4-0.1,0.5-0.1c0.2,0,0.5,0,0.7,0.1   s0.4,0.2,0.6,0.3c0.2,0.1,0.3,0.2,0.4,0.4s0.2,0.3,0.3,0.5c0.1,0.2,0.2,0.5,0.2,0.7c0,0.3,0.1,0.6,0.1,0.9v0.1   C240.9,21.4,240.8,21.6,240.8,21.9z M239.8,20.5c0-0.2-0.1-0.3-0.1-0.5c-0.1-0.2-0.1-0.4-0.2-0.5s-0.2-0.3-0.4-0.4   c-0.1-0.1-0.2-0.1-0.3-0.1s-0.3-0.1-0.4-0.1c-0.2,0-0.3,0-0.5,0.1c-0.1,0-0.3,0.1-0.4,0.2c-0.1,0.1-0.2,0.2-0.3,0.3   c-0.1,0.1-0.2,0.2-0.2,0.4v2.5c0.1,0.1,0.1,0.2,0.2,0.4c0.1,0.1,0.2,0.2,0.3,0.3c0.1,0.1,0.2,0.1,0.4,0.2c0.1,0,0.3,0.1,0.5,0.1   c0.2,0,0.3,0,0.4-0.1s0.3-0.1,0.4-0.2c0.1-0.1,0.3-0.2,0.4-0.4c0.1-0.2,0.2-0.3,0.2-0.5c0-0.1,0.1-0.3,0.1-0.5c0-0.2,0-0.3,0-0.5   V21C239.9,20.9,239.9,20.7,239.8,20.5z"
   id="path31651" />
	<path
   d="M246,18.2V24c0,0.4-0.1,0.7-0.2,1c-0.1,0.3-0.2,0.5-0.4,0.7c-0.2,0.2-0.4,0.3-0.7,0.4c-0.3,0.1-0.6,0.2-0.9,0.2   c-0.1,0-0.2,0-0.3,0s-0.2,0-0.3,0c-0.1,0-0.2,0-0.2,0c-0.1,0-0.2,0-0.3,0l0.1-0.8c0.1,0,0.1,0,0.2,0s0.2,0,0.3,0c0.1,0,0.2,0,0.3,0   c0.1,0,0.2,0,0.2,0c0.2,0,0.4,0,0.5-0.1c0.2,0,0.3-0.1,0.4-0.2c0.1-0.1,0.2-0.3,0.3-0.4c0.1-0.2,0.1-0.4,0.1-0.7v-4.9h-1.9v-0.9   H246z M245.1,16.3c0.1-0.1,0.2-0.2,0.4-0.2s0.3,0.1,0.4,0.2s0.1,0.2,0.1,0.4c0,0.2,0,0.3-0.1,0.4s-0.2,0.2-0.4,0.2   s-0.3-0.1-0.4-0.2c-0.1-0.1-0.1-0.2-0.1-0.4C244.9,16.6,245,16.4,245.1,16.3z"
   id="path31653" />
	<path
   d="M250.4,23.8c-0.3-0.1-0.6-0.3-0.9-0.6c-0.2-0.2-0.4-0.5-0.6-0.9s-0.2-0.7-0.2-1.1v-0.2c0-0.5,0.1-0.9,0.2-1.2   c0.1-0.4,0.3-0.7,0.6-0.9c0.2-0.2,0.5-0.4,0.8-0.6c0.3-0.1,0.6-0.2,1-0.2c0.4,0,0.8,0.1,1.1,0.2c0.3,0.1,0.6,0.3,0.8,0.6   c0.2,0.3,0.4,0.6,0.5,0.9c0.1,0.3,0.2,0.7,0.2,1.1v0.4h-4.1v0c0,0.3,0.1,0.5,0.2,0.7c0.1,0.2,0.2,0.4,0.4,0.6   c0.2,0.2,0.3,0.3,0.6,0.4c0.2,0.1,0.5,0.1,0.7,0.1c0.3,0,0.7-0.1,0.9-0.2c0.3-0.1,0.5-0.3,0.7-0.6l0.6,0.5   c-0.2,0.3-0.5,0.5-0.9,0.8c-0.4,0.2-0.8,0.3-1.4,0.3C251.1,24,250.7,24,250.4,23.8z M250.8,19c-0.2,0.1-0.3,0.2-0.5,0.3   c-0.1,0.1-0.3,0.3-0.4,0.5s-0.2,0.4-0.2,0.7h3.1v0c0-0.2,0-0.4-0.1-0.6c-0.1-0.2-0.2-0.4-0.3-0.5c-0.1-0.1-0.3-0.3-0.5-0.4   c-0.2-0.1-0.4-0.1-0.6-0.1C251.2,18.9,251,19,250.8,19z"
   id="path31655" />
	<path
   d="M258.4,23.2c0.2-0.1,0.3-0.1,0.4-0.2c0.1-0.1,0.2-0.2,0.3-0.4c0.1-0.1,0.1-0.3,0.1-0.4h0.9c0,0.3-0.1,0.5-0.2,0.7   c-0.1,0.2-0.3,0.4-0.5,0.6c-0.2,0.2-0.5,0.3-0.7,0.4c-0.3,0.1-0.6,0.2-0.9,0.2c-0.4,0-0.8-0.1-1.1-0.2s-0.6-0.4-0.8-0.6   c-0.2-0.3-0.4-0.6-0.5-0.9c-0.1-0.3-0.2-0.7-0.2-1.1V21c0-0.4,0.1-0.7,0.2-1.1c0.1-0.3,0.3-0.6,0.5-0.9c0.2-0.3,0.5-0.5,0.8-0.6   s0.7-0.2,1.1-0.2c0.3,0,0.6,0.1,0.9,0.2s0.5,0.3,0.7,0.4c0.2,0.2,0.4,0.4,0.5,0.7s0.2,0.5,0.2,0.8h-0.9c0-0.2,0-0.3-0.1-0.5   c-0.1-0.2-0.2-0.3-0.3-0.4c-0.1-0.1-0.3-0.2-0.4-0.3c-0.2-0.1-0.4-0.1-0.6-0.1c-0.3,0-0.6,0.1-0.8,0.2c-0.2,0.1-0.4,0.3-0.5,0.5   c-0.1,0.2-0.2,0.4-0.3,0.7c-0.1,0.2-0.1,0.5-0.1,0.7v0.2c0,0.2,0,0.5,0.1,0.7c0.1,0.2,0.1,0.5,0.3,0.7c0.1,0.2,0.3,0.4,0.5,0.5   c0.2,0.1,0.5,0.2,0.8,0.2C258.1,23.3,258.3,23.2,258.4,23.2z"
   id="path31657" />
	<path
   d="M264.3,18.2h2.2V19h-2.2v3.1c0,0.2,0,0.4,0.1,0.5c0.1,0.1,0.1,0.3,0.2,0.3c0.1,0.1,0.2,0.1,0.3,0.2s0.3,0.1,0.4,0.1   c0.1,0,0.2,0,0.3,0c0.1,0,0.2,0,0.3,0c0.1,0,0.2,0,0.3-0.1c0.1,0,0.2,0,0.2-0.1l0.1,0.7c-0.1,0-0.2,0.1-0.3,0.1   c-0.1,0-0.2,0.1-0.4,0.1c-0.1,0-0.3,0-0.4,0.1c-0.2,0-0.3,0-0.5,0c-0.3,0-0.5,0-0.7-0.1c-0.2-0.1-0.4-0.2-0.6-0.3   c-0.2-0.2-0.3-0.4-0.4-0.6s-0.1-0.5-0.1-0.9V19h-1.5v-0.8h1.5v-1.4h1V18.2z"
   id="path31659" />
	<path
   d="M269.5,19.4c0.1-0.4,0.2-0.9,0.3-1.2c0.1-0.4,0.3-0.7,0.5-1c0.2-0.3,0.4-0.6,0.6-0.8c0.2-0.2,0.4-0.5,0.6-0.6   c0.2-0.2,0.4-0.3,0.6-0.4l0.2,0.6c-0.1,0.1-0.2,0.2-0.3,0.3s-0.2,0.3-0.3,0.4c-0.2,0.2-0.3,0.5-0.5,0.8c-0.1,0.3-0.3,0.6-0.4,1   c-0.1,0.3-0.2,0.7-0.2,1.1c-0.1,0.4-0.1,0.8-0.1,1.3v0.1c0,0.4,0,0.9,0.1,1.2c0,0.4,0.1,0.7,0.2,1.1c0.1,0.3,0.2,0.6,0.3,0.9   s0.2,0.5,0.4,0.8c0.1,0.2,0.3,0.4,0.4,0.6c0.1,0.2,0.3,0.3,0.4,0.4l-0.2,0.6c-0.2-0.1-0.4-0.2-0.6-0.4c-0.2-0.2-0.4-0.4-0.6-0.6   c-0.2-0.2-0.4-0.5-0.6-0.8s-0.3-0.7-0.5-1c-0.1-0.4-0.2-0.8-0.3-1.2c-0.1-0.4-0.1-0.9-0.1-1.4v-0.1   C269.4,20.3,269.5,19.8,269.5,19.4z"
   id="path31661" />
	<path
   d="M277,17c0,0.2-0.1,0.4-0.2,0.5c-0.1,0.2-0.2,0.4-0.3,0.5c-0.1,0.2-0.2,0.3-0.4,0.4l-0.5-0.4c0.2-0.2,0.3-0.5,0.4-0.8   c0.1-0.3,0.1-0.5,0.1-0.8v-0.8h1v0.8C277.1,16.7,277,16.8,277,17z M278.7,17c0,0.2-0.1,0.4-0.2,0.5c-0.1,0.2-0.2,0.4-0.3,0.5   c-0.1,0.2-0.2,0.3-0.4,0.4l-0.5-0.4c0.2-0.2,0.3-0.5,0.4-0.8c0.1-0.3,0.1-0.5,0.1-0.8v-0.8h1v0.8C278.8,16.7,278.8,16.8,278.7,17z"
   id="path31663" />
	<path
   d="M281.9,18.8c0.1-0.2,0.3-0.4,0.5-0.5c0.2-0.1,0.4-0.2,0.7-0.2c0.2,0,0.3,0,0.4,0.1c0.1,0,0.2,0.1,0.3,0.1   c0.1,0,0.1,0.1,0.2,0.2s0.1,0.1,0.1,0.2c0-0.1,0.1-0.2,0.2-0.2s0.1-0.1,0.2-0.2c0.1-0.1,0.2-0.1,0.3-0.1s0.3-0.1,0.4-0.1   c0.2,0,0.4,0,0.5,0.1c0.2,0.1,0.3,0.1,0.4,0.3c0.1,0.1,0.2,0.3,0.3,0.5c0.1,0.2,0.1,0.4,0.1,0.7v4.3h-0.9v-4.3c0-0.1,0-0.2,0-0.3   s-0.1-0.2-0.1-0.2c-0.1-0.1-0.1-0.1-0.2-0.1c-0.1,0-0.2,0-0.3,0c-0.1,0-0.2,0-0.3,0c-0.1,0-0.2,0.1-0.2,0.1   c-0.1,0.1-0.1,0.1-0.1,0.2c0,0.1-0.1,0.2-0.1,0.2c0,0,0,0,0,0.1s0,0,0,0.1v4.3h-0.9v-4.3c0-0.1,0-0.2,0-0.3c0-0.1-0.1-0.2-0.1-0.2   c-0.1-0.1-0.1-0.1-0.2-0.1s-0.2,0-0.3,0c-0.1,0-0.2,0-0.3,0s-0.2,0.1-0.2,0.1c0,0-0.1,0.1-0.1,0.1c0,0-0.1,0.1-0.1,0.2v4.5H281   v-5.7h0.9L281.9,18.8z"
   id="path31665" />
	<path
   d="M288,26.2c-0.1,0-0.2,0-0.3-0.1l0.2-0.8c0.1,0,0.2,0,0.3,0c0.1,0,0.2,0,0.2,0c0.1,0,0.3,0,0.4-0.1c0.1-0.1,0.2-0.2,0.3-0.3   c0.1-0.1,0.2-0.2,0.2-0.3c0.1-0.1,0.1-0.2,0.1-0.3l0.4-0.8l-2.5-5.4h1.1l1.6,3.7l0.3,0.7l0.3-0.7l1.5-3.7h1.1l-2.9,6.6   c-0.1,0.1-0.2,0.3-0.3,0.5c-0.1,0.2-0.2,0.3-0.4,0.5c-0.1,0.1-0.3,0.3-0.5,0.4c-0.2,0.1-0.4,0.1-0.7,0.1   C288.3,26.2,288.2,26.2,288,26.2z"
   id="path31667" />
	<path
   d="M299.2,21.9c0,0.2-0.1,0.4-0.2,0.6c-0.1,0.3-0.2,0.5-0.4,0.7c-0.2,0.2-0.3,0.4-0.6,0.5c-0.2,0.1-0.3,0.2-0.5,0.2   S297.2,24,297,24c-0.2,0-0.5,0-0.7-0.1c-0.2-0.1-0.4-0.1-0.5-0.3c-0.1-0.1-0.2-0.1-0.2-0.2c-0.1-0.1-0.1-0.1-0.2-0.2l0,0.6h-0.9   v-8.1h1v3c0.1-0.1,0.2-0.2,0.3-0.3c0.1-0.1,0.2-0.2,0.3-0.2c0.1-0.1,0.3-0.1,0.5-0.2s0.4-0.1,0.5-0.1c0.2,0,0.5,0,0.7,0.1   s0.4,0.2,0.6,0.3c0.2,0.1,0.3,0.2,0.4,0.4s0.2,0.3,0.3,0.5c0.1,0.2,0.2,0.5,0.2,0.7c0,0.3,0.1,0.6,0.1,0.9v0.1   C299.2,21.4,299.2,21.6,299.2,21.9z M298.2,20.5c0-0.2-0.1-0.3-0.1-0.5c-0.1-0.2-0.1-0.4-0.2-0.5s-0.2-0.3-0.4-0.4   c-0.1-0.1-0.2-0.1-0.3-0.1s-0.3-0.1-0.4-0.1c-0.2,0-0.3,0-0.5,0.1c-0.1,0-0.3,0.1-0.4,0.2c-0.1,0.1-0.2,0.2-0.3,0.3   c-0.1,0.1-0.2,0.2-0.2,0.4v2.5c0.1,0.1,0.1,0.2,0.2,0.4c0.1,0.1,0.2,0.2,0.3,0.3c0.1,0.1,0.2,0.1,0.4,0.2c0.1,0,0.3,0.1,0.5,0.1   c0.2,0,0.3,0,0.4-0.1s0.3-0.1,0.4-0.2c0.1-0.1,0.3-0.2,0.4-0.4c0.1-0.2,0.2-0.3,0.2-0.5c0-0.1,0.1-0.3,0.1-0.5c0-0.2,0-0.3,0-0.5   V21C298.3,20.9,298.2,20.7,298.2,20.5z"
   id="path31669" />
	<path
   d="M304.6,23.2c-0.2,0.3-0.4,0.5-0.7,0.7c-0.3,0.2-0.6,0.2-1,0.2c-0.3,0-0.6,0-0.8-0.1c-0.2-0.1-0.5-0.2-0.6-0.4   s-0.3-0.4-0.4-0.8c-0.1-0.3-0.1-0.7-0.1-1.1v-3.4h1v3.4c0,0.3,0,0.6,0.1,0.8s0.1,0.4,0.2,0.5c0.1,0.1,0.2,0.2,0.4,0.3   s0.3,0.1,0.5,0.1c0.2,0,0.4,0,0.6-0.1c0.2-0.1,0.3-0.1,0.4-0.2c0.1-0.1,0.2-0.2,0.3-0.3c0.1-0.1,0.1-0.2,0.2-0.3v-4.1h1v5.7h-0.9   L304.6,23.2z"
   id="path31671" />
	<path
   d="M310.3,23.2c0.2-0.1,0.3-0.1,0.4-0.2c0.1-0.1,0.2-0.2,0.3-0.4c0.1-0.1,0.1-0.3,0.1-0.4h0.9c0,0.3-0.1,0.5-0.2,0.7   c-0.1,0.2-0.3,0.4-0.5,0.6c-0.2,0.2-0.5,0.3-0.7,0.4c-0.3,0.1-0.6,0.2-0.9,0.2c-0.4,0-0.8-0.1-1.1-0.2s-0.6-0.4-0.8-0.6   c-0.2-0.3-0.4-0.6-0.5-0.9c-0.1-0.3-0.2-0.7-0.2-1.1V21c0-0.4,0.1-0.7,0.2-1.1c0.1-0.3,0.3-0.6,0.5-0.9c0.2-0.3,0.5-0.5,0.8-0.6   s0.7-0.2,1.1-0.2c0.3,0,0.6,0.1,0.9,0.2s0.5,0.3,0.7,0.4c0.2,0.2,0.4,0.4,0.5,0.7s0.2,0.5,0.2,0.8h-0.9c0-0.2,0-0.3-0.1-0.5   c-0.1-0.2-0.2-0.3-0.3-0.4c-0.1-0.1-0.3-0.2-0.4-0.3c-0.2-0.1-0.4-0.1-0.6-0.1c-0.3,0-0.6,0.1-0.8,0.2c-0.2,0.1-0.4,0.3-0.5,0.5   c-0.1,0.2-0.2,0.4-0.3,0.7c-0.1,0.2-0.1,0.5-0.1,0.7v0.2c0,0.2,0,0.5,0.1,0.7c0.1,0.2,0.1,0.5,0.3,0.7c0.1,0.2,0.3,0.4,0.5,0.5   c0.2,0.1,0.5,0.2,0.8,0.2C310,23.3,310.1,23.2,310.3,23.2z"
   id="path31673" />
	<path
   d="M314.8,22v2h-1v-8.1h1v5l0.6-0.7l1.9-1.9h1.2l-2.3,2.4l2.7,3.3h-1.2l-2.1-2.7L314.8,22z"
   id="path31675" />
	<path
   d="M321.8,23.8c-0.3-0.1-0.6-0.3-0.9-0.6c-0.2-0.2-0.4-0.5-0.6-0.9s-0.2-0.7-0.2-1.1v-0.2c0-0.5,0.1-0.9,0.2-1.2   c0.1-0.4,0.3-0.7,0.6-0.9c0.2-0.2,0.5-0.4,0.8-0.6c0.3-0.1,0.6-0.2,1-0.2c0.4,0,0.8,0.1,1.1,0.2c0.3,0.1,0.6,0.3,0.8,0.6   c0.2,0.3,0.4,0.6,0.5,0.9c0.1,0.3,0.2,0.7,0.2,1.1v0.4h-4.1v0c0,0.3,0.1,0.5,0.2,0.7c0.1,0.2,0.2,0.4,0.4,0.6   c0.2,0.2,0.3,0.3,0.6,0.4c0.2,0.1,0.5,0.1,0.7,0.1c0.3,0,0.7-0.1,0.9-0.2c0.3-0.1,0.5-0.3,0.7-0.6l0.6,0.5   c-0.2,0.3-0.5,0.5-0.9,0.8c-0.4,0.2-0.8,0.3-1.4,0.3C322.5,24,322.1,24,321.8,23.8z M322.2,19c-0.2,0.1-0.3,0.2-0.5,0.3   c-0.1,0.1-0.3,0.3-0.4,0.5s-0.2,0.4-0.2,0.7h3.1v0c0-0.2,0-0.4-0.1-0.6c-0.1-0.2-0.2-0.4-0.3-0.5c-0.1-0.1-0.3-0.3-0.5-0.4   c-0.2-0.1-0.4-0.1-0.6-0.1C322.5,18.9,322.4,19,322.2,19z"
   id="path31677" />
	<path
   d="M329.1,18.2h2.2V19h-2.2v3.1c0,0.2,0,0.4,0.1,0.5c0.1,0.1,0.1,0.3,0.2,0.3c0.1,0.1,0.2,0.1,0.3,0.2s0.3,0.1,0.4,0.1   c0.1,0,0.2,0,0.3,0c0.1,0,0.2,0,0.3,0c0.1,0,0.2,0,0.3-0.1c0.1,0,0.2,0,0.2-0.1l0.1,0.7c-0.1,0-0.2,0.1-0.3,0.1   c-0.1,0-0.2,0.1-0.4,0.1c-0.1,0-0.3,0-0.4,0.1c-0.2,0-0.3,0-0.5,0c-0.3,0-0.5,0-0.7-0.1c-0.2-0.1-0.4-0.2-0.6-0.3   c-0.2-0.2-0.3-0.4-0.4-0.6s-0.1-0.5-0.1-0.9V19h-1.5v-0.8h1.5v-1.4h1V18.2z"
   id="path31679" />
	<path
   d="M333.7,24.6l3.2-8.3h0.9l-3.2,8.3H333.7z"
   id="path31681" />
	<path
   d="M340.3,18.8c0.1-0.2,0.3-0.4,0.5-0.5c0.2-0.1,0.4-0.2,0.7-0.2c0.2,0,0.3,0,0.4,0.1c0.1,0,0.2,0.1,0.3,0.1   c0.1,0,0.1,0.1,0.2,0.2s0.1,0.1,0.1,0.2c0-0.1,0.1-0.2,0.2-0.2s0.1-0.1,0.2-0.2c0.1-0.1,0.2-0.1,0.3-0.1s0.3-0.1,0.4-0.1   c0.2,0,0.4,0,0.5,0.1c0.2,0.1,0.3,0.1,0.4,0.3c0.1,0.1,0.2,0.3,0.3,0.5c0.1,0.2,0.1,0.4,0.1,0.7v4.3H344v-4.3c0-0.1,0-0.2,0-0.3   s-0.1-0.2-0.1-0.2c-0.1-0.1-0.1-0.1-0.2-0.1c-0.1,0-0.2,0-0.3,0c-0.1,0-0.2,0-0.3,0c-0.1,0-0.2,0.1-0.2,0.1   c-0.1,0.1-0.1,0.1-0.1,0.2c0,0.1-0.1,0.2-0.1,0.2c0,0,0,0,0,0.1s0,0,0,0.1v4.3h-0.9v-4.3c0-0.1,0-0.2,0-0.3c0-0.1-0.1-0.2-0.1-0.2   c-0.1-0.1-0.1-0.1-0.2-0.1s-0.2,0-0.3,0c-0.1,0-0.2,0-0.3,0s-0.2,0.1-0.2,0.1c0,0-0.1,0.1-0.1,0.1c0,0-0.1,0.1-0.1,0.2v4.5h-0.9   v-5.7h0.9L340.3,18.8z"
   id="path31683" />
	<path
   d="M346.4,26.2c-0.1,0-0.2,0-0.3-0.1l0.2-0.8c0.1,0,0.2,0,0.3,0c0.1,0,0.2,0,0.2,0c0.1,0,0.3,0,0.4-0.1   c0.1-0.1,0.2-0.2,0.3-0.3c0.1-0.1,0.2-0.2,0.2-0.3c0.1-0.1,0.1-0.2,0.1-0.3l0.4-0.8l-2.5-5.4h1.1l1.6,3.7l0.3,0.7l0.3-0.7l1.5-3.7   h1.1l-2.9,6.6c-0.1,0.1-0.2,0.3-0.3,0.5c-0.1,0.2-0.2,0.3-0.4,0.5c-0.1,0.1-0.3,0.3-0.5,0.4c-0.2,0.1-0.4,0.1-0.7,0.1   C346.7,26.2,346.5,26.2,346.4,26.2z"
   id="path31685" />
	<path
   d="M352.7,19.9c0.1-0.4,0.3-0.7,0.5-0.9c0.2-0.3,0.4-0.5,0.7-0.6c0.3-0.1,0.6-0.2,0.9-0.2c0.3,0,0.6,0.1,0.9,0.2   c0.3,0.1,0.5,0.3,0.7,0.5v-3h1v8.1h-0.9l0-0.6c-0.2,0.2-0.4,0.4-0.7,0.5c-0.3,0.1-0.6,0.2-0.9,0.2c-0.3,0-0.7-0.1-0.9-0.2   c-0.3-0.1-0.5-0.4-0.7-0.6c-0.2-0.3-0.4-0.6-0.5-0.9c-0.1-0.4-0.2-0.7-0.2-1.1V21C352.6,20.6,352.6,20.2,352.7,19.9z M353.7,21.9   c0.1,0.2,0.2,0.5,0.3,0.7c0.1,0.2,0.3,0.3,0.5,0.5c0.2,0.1,0.4,0.2,0.7,0.2c0.3,0,0.6-0.1,0.8-0.2c0.2-0.1,0.4-0.3,0.5-0.6v-2.6   c-0.1-0.2-0.3-0.4-0.5-0.6c-0.2-0.1-0.5-0.2-0.8-0.2c-0.3,0-0.5,0.1-0.7,0.2c-0.2,0.1-0.4,0.3-0.5,0.5c-0.1,0.2-0.2,0.4-0.3,0.7   c-0.1,0.3-0.1,0.5-0.1,0.8v0.1C353.6,21.4,353.6,21.7,353.7,21.9z"
   id="path31687" />
	<path
   d="M362.9,23.7c0-0.1,0-0.2-0.1-0.3c-0.1,0.1-0.2,0.2-0.3,0.3c-0.1,0.1-0.3,0.2-0.4,0.2c-0.1,0.1-0.3,0.1-0.5,0.2   c-0.2,0-0.3,0.1-0.5,0.1c-0.3,0-0.6,0-0.8-0.1s-0.5-0.2-0.6-0.4c-0.2-0.1-0.3-0.3-0.4-0.5c-0.1-0.2-0.1-0.4-0.1-0.7   c0-0.3,0.1-0.6,0.2-0.8s0.3-0.4,0.5-0.6c0.2-0.2,0.5-0.3,0.8-0.3s0.7-0.1,1.1-0.1h1.1V20c0-0.2,0-0.3-0.1-0.5   c-0.1-0.1-0.2-0.3-0.3-0.4c-0.1-0.1-0.3-0.2-0.4-0.2s-0.4-0.1-0.6-0.1c-0.2,0-0.4,0-0.5,0.1c-0.2,0-0.3,0.1-0.4,0.2   c-0.1,0.1-0.2,0.2-0.2,0.3s-0.1,0.2-0.1,0.3h-1c0-0.2,0.1-0.4,0.2-0.6c0.1-0.2,0.3-0.4,0.5-0.5c0.2-0.2,0.4-0.3,0.7-0.4   s0.6-0.1,1-0.1c0.3,0,0.6,0,0.9,0.1c0.3,0.1,0.5,0.2,0.7,0.4c0.2,0.2,0.4,0.4,0.5,0.6s0.2,0.5,0.2,0.8v2.7c0,0.2,0,0.4,0.1,0.6   s0.1,0.4,0.1,0.6v0.1h-1C363,23.9,362.9,23.8,362.9,23.7z M361.8,23.1c0.2,0,0.3-0.1,0.5-0.2c0.1-0.1,0.2-0.2,0.3-0.3   c0.1-0.1,0.2-0.2,0.2-0.3v-1.2h-0.9c-0.3,0-0.6,0-0.9,0.1c-0.3,0.1-0.5,0.1-0.6,0.3c-0.1,0.1-0.2,0.2-0.2,0.3   c-0.1,0.1-0.1,0.2-0.1,0.4c0,0.1,0,0.3,0.1,0.4s0.1,0.2,0.2,0.3c0.1,0.1,0.2,0.2,0.4,0.2c0.1,0,0.3,0.1,0.5,0.1   C361.5,23.2,361.7,23.2,361.8,23.1z"
   id="path31689" />
	<path
   d="M368.1,18.2h2.2V19h-2.2v3.1c0,0.2,0,0.4,0.1,0.5c0.1,0.1,0.1,0.3,0.2,0.3c0.1,0.1,0.2,0.1,0.3,0.2s0.3,0.1,0.4,0.1   c0.1,0,0.2,0,0.3,0c0.1,0,0.2,0,0.3,0c0.1,0,0.2,0,0.3-0.1c0.1,0,0.2,0,0.2-0.1l0.1,0.7c-0.1,0-0.2,0.1-0.3,0.1   c-0.1,0-0.2,0.1-0.4,0.1c-0.1,0-0.3,0-0.4,0.1c-0.2,0-0.3,0-0.5,0c-0.3,0-0.5,0-0.7-0.1c-0.2-0.1-0.4-0.2-0.6-0.3   c-0.2-0.2-0.3-0.4-0.4-0.6s-0.1-0.5-0.1-0.9V19h-1.5v-0.8h1.5v-1.4h1V18.2z"
   id="path31691" />
	<path
   d="M375.9,23.7c0-0.1,0-0.2-0.1-0.3c-0.1,0.1-0.2,0.2-0.3,0.3c-0.1,0.1-0.3,0.2-0.4,0.2c-0.1,0.1-0.3,0.1-0.5,0.2   c-0.2,0-0.3,0.1-0.5,0.1c-0.3,0-0.6,0-0.8-0.1s-0.5-0.2-0.6-0.4c-0.2-0.1-0.3-0.3-0.4-0.5c-0.1-0.2-0.1-0.4-0.1-0.7   c0-0.3,0.1-0.6,0.2-0.8s0.3-0.4,0.5-0.6c0.2-0.2,0.5-0.3,0.8-0.3s0.7-0.1,1.1-0.1h1.1V20c0-0.2,0-0.3-0.1-0.5   c-0.1-0.1-0.2-0.3-0.3-0.4c-0.1-0.1-0.3-0.2-0.4-0.2s-0.4-0.1-0.6-0.1c-0.2,0-0.4,0-0.5,0.1c-0.2,0-0.3,0.1-0.4,0.2   c-0.1,0.1-0.2,0.2-0.2,0.3s-0.1,0.2-0.1,0.3h-1c0-0.2,0.1-0.4,0.2-0.6c0.1-0.2,0.3-0.4,0.5-0.5c0.2-0.2,0.4-0.3,0.7-0.4   s0.6-0.1,1-0.1c0.3,0,0.6,0,0.9,0.1c0.3,0.1,0.5,0.2,0.7,0.4c0.2,0.2,0.4,0.4,0.5,0.6s0.2,0.5,0.2,0.8v2.7c0,0.2,0,0.4,0.1,0.6   s0.1,0.4,0.1,0.6v0.1h-1C375.9,23.9,375.9,23.8,375.9,23.7z M374.8,23.1c0.2,0,0.3-0.1,0.5-0.2c0.1-0.1,0.2-0.2,0.3-0.3   c0.1-0.1,0.2-0.2,0.2-0.3v-1.2h-0.9c-0.3,0-0.6,0-0.9,0.1c-0.3,0.1-0.5,0.1-0.6,0.3c-0.1,0.1-0.2,0.2-0.2,0.3   c-0.1,0.1-0.1,0.2-0.1,0.4c0,0.1,0,0.3,0.1,0.4s0.1,0.2,0.2,0.3c0.1,0.1,0.2,0.2,0.4,0.2c0.1,0,0.3,0.1,0.5,0.1   C374.4,23.2,374.6,23.2,374.8,23.1z"
   id="path31693" />
	<path
   d="M379.1,24.6l3.2-8.3h0.9l-3.2,8.3H379.1z"
   id="path31695" />
	<path
   d="M385.7,18.8c0.1-0.2,0.3-0.4,0.5-0.5c0.2-0.1,0.4-0.2,0.7-0.2c0.2,0,0.3,0,0.4,0.1c0.1,0,0.2,0.1,0.3,0.1   c0.1,0,0.1,0.1,0.2,0.2s0.1,0.1,0.1,0.2c0-0.1,0.1-0.2,0.2-0.2s0.1-0.1,0.2-0.2c0.1-0.1,0.2-0.1,0.3-0.1s0.3-0.1,0.4-0.1   c0.2,0,0.4,0,0.5,0.1c0.2,0.1,0.3,0.1,0.4,0.3c0.1,0.1,0.2,0.3,0.3,0.5c0.1,0.2,0.1,0.4,0.1,0.7v4.3h-0.9v-4.3c0-0.1,0-0.2,0-0.3   s-0.1-0.2-0.1-0.2c-0.1-0.1-0.1-0.1-0.2-0.1c-0.1,0-0.2,0-0.3,0c-0.1,0-0.2,0-0.3,0c-0.1,0-0.2,0.1-0.2,0.1   c-0.1,0.1-0.1,0.1-0.1,0.2c0,0.1-0.1,0.2-0.1,0.2c0,0,0,0,0,0.1s0,0,0,0.1v4.3h-0.9v-4.3c0-0.1,0-0.2,0-0.3c0-0.1-0.1-0.2-0.1-0.2   c-0.1-0.1-0.1-0.1-0.2-0.1s-0.2,0-0.3,0c-0.1,0-0.2,0-0.3,0s-0.2,0.1-0.2,0.1c0,0-0.1,0.1-0.1,0.1c0,0-0.1,0.1-0.1,0.2v4.5h-0.9   v-5.7h0.9L385.7,18.8z"
   id="path31697" />
	<path
   d="M391.8,26.2c-0.1,0-0.2,0-0.3-0.1l0.2-0.8c0.1,0,0.2,0,0.3,0c0.1,0,0.2,0,0.2,0c0.1,0,0.3,0,0.4-0.1   c0.1-0.1,0.2-0.2,0.3-0.3c0.1-0.1,0.2-0.2,0.2-0.3c0.1-0.1,0.1-0.2,0.1-0.3l0.4-0.8l-2.5-5.4h1.1l1.6,3.7l0.3,0.7l0.3-0.7l1.5-3.7   h1.1l-2.9,6.6c-0.1,0.1-0.2,0.3-0.3,0.5c-0.1,0.2-0.2,0.3-0.4,0.5c-0.1,0.1-0.3,0.3-0.5,0.4c-0.2,0.1-0.4,0.1-0.7,0.1   C392.1,26.2,392,26.2,391.8,26.2z"
   id="path31699" />
	<path
   d="M398.1,19.9c0.1-0.4,0.3-0.7,0.5-0.9c0.2-0.3,0.5-0.5,0.8-0.6c0.3-0.1,0.7-0.2,1.1-0.2c0.4,0,0.8,0.1,1.1,0.2   c0.3,0.1,0.6,0.4,0.8,0.6c0.2,0.3,0.4,0.6,0.5,0.9c0.1,0.4,0.2,0.7,0.2,1.1v0.1c0,0.4-0.1,0.8-0.2,1.1c-0.1,0.4-0.3,0.7-0.5,0.9   c-0.2,0.3-0.5,0.5-0.8,0.6c-0.3,0.1-0.7,0.2-1.1,0.2c-0.4,0-0.8-0.1-1.1-0.2c-0.3-0.1-0.6-0.4-0.8-0.6c-0.2-0.3-0.4-0.6-0.5-0.9   c-0.1-0.4-0.2-0.7-0.2-1.1V21C397.9,20.6,398,20.2,398.1,19.9z M399,22c0.1,0.3,0.2,0.5,0.3,0.7c0.1,0.2,0.3,0.3,0.5,0.5   s0.4,0.2,0.7,0.2c0.3,0,0.5-0.1,0.7-0.2c0.2-0.1,0.4-0.3,0.5-0.5c0.1-0.2,0.2-0.4,0.3-0.7c0.1-0.3,0.1-0.5,0.1-0.8V21   c0-0.3,0-0.5-0.1-0.8c-0.1-0.3-0.2-0.5-0.3-0.7c-0.1-0.2-0.3-0.3-0.5-0.5c-0.2-0.1-0.4-0.2-0.7-0.2s-0.5,0.1-0.7,0.2   c-0.2,0.1-0.4,0.3-0.5,0.5c-0.1,0.2-0.2,0.4-0.3,0.7c-0.1,0.3-0.1,0.5-0.1,0.8v0.1C398.9,21.4,398.9,21.7,399,22z"
   id="path31701" />
	<path
   d="M409.4,21.9c0,0.2-0.1,0.4-0.2,0.6c-0.1,0.3-0.2,0.5-0.4,0.7c-0.2,0.2-0.3,0.4-0.6,0.5c-0.2,0.1-0.3,0.2-0.5,0.2   s-0.4,0.1-0.6,0.1c-0.2,0-0.5,0-0.7-0.1c-0.2-0.1-0.4-0.1-0.5-0.3c-0.1-0.1-0.2-0.1-0.2-0.2c-0.1-0.1-0.1-0.1-0.2-0.2l0,0.6h-0.9   v-8.1h1v3c0.1-0.1,0.2-0.2,0.3-0.3c0.1-0.1,0.2-0.2,0.3-0.2c0.1-0.1,0.3-0.1,0.5-0.2s0.4-0.1,0.5-0.1c0.2,0,0.5,0,0.7,0.1   s0.4,0.2,0.6,0.3c0.2,0.1,0.3,0.2,0.4,0.4s0.2,0.3,0.3,0.5c0.1,0.2,0.2,0.5,0.2,0.7c0,0.3,0.1,0.6,0.1,0.9v0.1   C409.5,21.4,409.5,21.6,409.4,21.9z M408.5,20.5c0-0.2-0.1-0.3-0.1-0.5c-0.1-0.2-0.1-0.4-0.2-0.5s-0.2-0.3-0.4-0.4   c-0.1-0.1-0.2-0.1-0.3-0.1S407.2,19,407,19c-0.2,0-0.3,0-0.5,0.1c-0.1,0-0.3,0.1-0.4,0.2c-0.1,0.1-0.2,0.2-0.3,0.3   c-0.1,0.1-0.2,0.2-0.2,0.4v2.5c0.1,0.1,0.1,0.2,0.2,0.4c0.1,0.1,0.2,0.2,0.3,0.3c0.1,0.1,0.2,0.1,0.4,0.2c0.1,0,0.3,0.1,0.5,0.1   c0.2,0,0.3,0,0.4-0.1s0.3-0.1,0.4-0.2c0.1-0.1,0.3-0.2,0.4-0.4c0.1-0.2,0.2-0.3,0.2-0.5c0-0.1,0.1-0.3,0.1-0.5c0-0.2,0-0.3,0-0.5   V21C408.5,20.9,408.5,20.7,408.5,20.5z"
   id="path31703" />
	<path
   d="M414.7,18.2V24c0,0.4-0.1,0.7-0.2,1c-0.1,0.3-0.2,0.5-0.4,0.7c-0.2,0.2-0.4,0.3-0.7,0.4c-0.3,0.1-0.6,0.2-0.9,0.2   c-0.1,0-0.2,0-0.3,0s-0.2,0-0.3,0c-0.1,0-0.2,0-0.2,0c-0.1,0-0.2,0-0.3,0l0.1-0.8c0.1,0,0.1,0,0.2,0s0.2,0,0.3,0c0.1,0,0.2,0,0.3,0   c0.1,0,0.2,0,0.2,0c0.2,0,0.4,0,0.5-0.1c0.2,0,0.3-0.1,0.4-0.2c0.1-0.1,0.2-0.3,0.3-0.4c0.1-0.2,0.1-0.4,0.1-0.7v-4.9h-1.9v-0.9   H414.7z M413.7,16.3c0.1-0.1,0.2-0.2,0.4-0.2s0.3,0.1,0.4,0.2s0.1,0.2,0.1,0.4c0,0.2,0,0.3-0.1,0.4s-0.2,0.2-0.4,0.2   s-0.3-0.1-0.4-0.2c-0.1-0.1-0.1-0.2-0.1-0.4C413.6,16.6,413.6,16.4,413.7,16.3z"
   id="path31705" />
	<path
   d="M419.1,23.8c-0.3-0.1-0.6-0.3-0.9-0.6c-0.2-0.2-0.4-0.5-0.6-0.9s-0.2-0.7-0.2-1.1v-0.2c0-0.5,0.1-0.9,0.2-1.2   c0.1-0.4,0.3-0.7,0.6-0.9c0.2-0.2,0.5-0.4,0.8-0.6c0.3-0.1,0.6-0.2,1-0.2c0.4,0,0.8,0.1,1.1,0.2c0.3,0.1,0.6,0.3,0.8,0.6   c0.2,0.3,0.4,0.6,0.5,0.9c0.1,0.3,0.2,0.7,0.2,1.1v0.4h-4.1v0c0,0.3,0.1,0.5,0.2,0.7c0.1,0.2,0.2,0.4,0.4,0.6   c0.2,0.2,0.3,0.3,0.6,0.4c0.2,0.1,0.5,0.1,0.7,0.1c0.3,0,0.7-0.1,0.9-0.2c0.3-0.1,0.5-0.3,0.7-0.6l0.6,0.5   c-0.2,0.3-0.5,0.5-0.9,0.8c-0.4,0.2-0.8,0.3-1.4,0.3C419.8,24,419.4,24,419.1,23.8z M419.5,19c-0.2,0.1-0.3,0.2-0.5,0.3   c-0.1,0.1-0.3,0.3-0.4,0.5s-0.2,0.4-0.2,0.7h3.1v0c0-0.2,0-0.4-0.1-0.6c-0.1-0.2-0.2-0.4-0.3-0.5c-0.1-0.1-0.3-0.3-0.5-0.4   c-0.2-0.1-0.4-0.1-0.6-0.1C419.8,18.9,419.7,19,419.5,19z"
   id="path31707" />
	<path
   d="M427.1,23.2c0.2-0.1,0.3-0.1,0.4-0.2c0.1-0.1,0.2-0.2,0.3-0.4c0.1-0.1,0.1-0.3,0.1-0.4h0.9c0,0.3-0.1,0.5-0.2,0.7   c-0.1,0.2-0.3,0.4-0.5,0.6c-0.2,0.2-0.5,0.3-0.7,0.4c-0.3,0.1-0.6,0.2-0.9,0.2c-0.4,0-0.8-0.1-1.1-0.2s-0.6-0.4-0.8-0.6   c-0.2-0.3-0.4-0.6-0.5-0.9c-0.1-0.3-0.2-0.7-0.2-1.1V21c0-0.4,0.1-0.7,0.2-1.1c0.1-0.3,0.3-0.6,0.5-0.9c0.2-0.3,0.5-0.5,0.8-0.6   s0.7-0.2,1.1-0.2c0.3,0,0.6,0.1,0.9,0.2s0.5,0.3,0.7,0.4c0.2,0.2,0.4,0.4,0.5,0.7s0.2,0.5,0.2,0.8H428c0-0.2,0-0.3-0.1-0.5   c-0.1-0.2-0.2-0.3-0.3-0.4c-0.1-0.1-0.3-0.2-0.4-0.3c-0.2-0.1-0.4-0.1-0.6-0.1c-0.3,0-0.6,0.1-0.8,0.2c-0.2,0.1-0.4,0.3-0.5,0.5   c-0.1,0.2-0.2,0.4-0.3,0.7c-0.1,0.2-0.1,0.5-0.1,0.7v0.2c0,0.2,0,0.5,0.1,0.7c0.1,0.2,0.1,0.5,0.3,0.7c0.1,0.2,0.3,0.4,0.5,0.5   c0.2,0.1,0.5,0.2,0.8,0.2C426.7,23.3,426.9,23.2,427.1,23.2z"
   id="path31709" />
	
	<path
   d="m 433.4,18.2 h 2.2 V 19 h -2.2 v 3.1 c 0,0.2 0,0.4 0.1,0.5 0.1,0.1 0.1,0.3 0.2,0.3 0.1,0.1 0.2,0.1 0.3,0.2 0.1,0.1 0.3,0.1 0.4,0.1 0.1,0 0.2,0 0.3,0 0.1,0 0.2,0 0.3,0 0.1,0 0.2,0 0.3,-0.1 0.1,0 0.2,0 0.2,-0.1 l 0.1,0.7 c -0.1,0 -0.2,0.1 -0.3,0.1 -0.1,0 -0.2,0.1 -0.4,0.1 -0.1,0 -0.3,0 -0.4,0.1 -0.2,0 -0.3,0 -0.5,0 -0.3,0 -0.5,0 -0.7,-0.1 -0.2,-0.1 -0.4,-0.2 -0.6,-0.3 -0.2,-0.2 -0.3,-0.4 -0.4,-0.6 -0.1,-0.2 -0.1,-0.5 -0.1,-0.9 V 19 h -1.5 v -0.8 h 1.5 v -1.4 h 1 v 1.4 z"
   id="path31713" />
	<path
   d="m 439.5,22.8 c 0.1,-0.1 0.3,-0.2 0.6,-0.2 0.3,0 0.4,0.1 0.6,0.2 0.1,0.1 0.2,0.3 0.2,0.5 0,0.2 -0.1,0.4 -0.2,0.5 -0.1,0.1 -0.4,0.2 -0.7,0.2 -0.3,0 -0.4,-0.1 -0.6,-0.2 -0.1,-0.1 -0.2,-0.3 -0.2,-0.5 0.1,-0.2 0.1,-0.4 0.3,-0.5 z"
   id="path31715" />
	<path
   d="m 445.5,23.8 c -0.3,-0.1 -0.6,-0.3 -0.9,-0.6 -0.2,-0.2 -0.4,-0.5 -0.6,-0.9 -0.2,-0.4 -0.2,-0.7 -0.2,-1.1 V 21 c 0,-0.5 0.1,-0.9 0.2,-1.2 0.1,-0.4 0.3,-0.7 0.6,-0.9 0.2,-0.2 0.5,-0.4 0.8,-0.6 0.3,-0.1 0.6,-0.2 1,-0.2 0.4,0 0.8,0.1 1.1,0.2 0.3,0.1 0.6,0.3 0.8,0.6 0.2,0.3 0.4,0.6 0.5,0.9 0.1,0.3 0.2,0.7 0.2,1.1 v 0.4 h -4.1 v 0 c 0,0.3 0.1,0.5 0.2,0.7 0.1,0.2 0.2,0.4 0.4,0.6 0.2,0.2 0.3,0.3 0.6,0.4 0.2,0.1 0.5,0.1 0.7,0.1 0.3,0 0.7,-0.1 0.9,-0.2 0.3,-0.1 0.5,-0.3 0.7,-0.6 l 0.6,0.5 c -0.2,0.3 -0.5,0.5 -0.9,0.8 -0.4,0.2 -0.8,0.3 -1.4,0.3 -0.5,0.1 -0.9,0.1 -1.2,-0.1 z m 0.4,-4.8 c -0.2,0.1 -0.3,0.2 -0.5,0.3 -0.1,0.1 -0.3,0.3 -0.4,0.5 -0.1,0.2 -0.2,0.4 -0.2,0.7 h 3.1 v 0 c 0,-0.2 0,-0.4 -0.1,-0.6 -0.1,-0.2 -0.2,-0.4 -0.3,-0.5 -0.1,-0.1 -0.3,-0.3 -0.5,-0.4 -0.2,-0.1 -0.4,-0.1 -0.6,-0.1 -0.1,0 -0.3,0.1 -0.5,0.1 z"
   id="path31717" />
	<path
   d="m 454.4,18.2 h 1.1 l -2.1,2.8 2.2,2.9 h -1.1 l -1.6,-2.2 -1.6,2.2 h -1.1 l 2.2,-2.9 -2.1,-2.8 h 1.1 l 1.5,2.1 z"
   id="path31719" />
	<path
   d="m 459.4,18.2 h 2.2 V 19 h -2.2 v 3.1 c 0,0.2 0,0.4 0.1,0.5 0.1,0.1 0.1,0.3 0.2,0.3 0.1,0.1 0.2,0.1 0.3,0.2 0.1,0.1 0.3,0.1 0.4,0.1 0.1,0 0.2,0 0.3,0 0.1,0 0.2,0 0.3,0 0.1,0 0.2,0 0.3,-0.1 0.1,0 0.2,0 0.2,-0.1 l 0.1,0.7 c -0.1,0 -0.2,0.1 -0.3,0.1 -0.1,0 -0.2,0.1 -0.4,0.1 -0.1,0 -0.3,0 -0.4,0.1 -0.2,0 -0.3,0 -0.5,0 -0.3,0 -0.5,0 -0.7,-0.1 -0.2,-0.1 -0.4,-0.2 -0.6,-0.3 -0.2,-0.2 -0.3,-0.4 -0.4,-0.6 -0.1,-0.2 -0.1,-0.5 -0.1,-0.9 V 19 h -1.5 v -0.8 h 1.5 v -1.4 h 1 v 1.4 z"
   id="path31721" />
	<path
   d="m 464.9,23.8 c -0.3,-0.1 -0.6,-0.3 -0.9,-0.6 -0.2,-0.2 -0.4,-0.5 -0.6,-0.9 -0.2,-0.4 -0.2,-0.7 -0.2,-1.1 V 21 c 0,-0.5 0.1,-0.9 0.2,-1.2 0.1,-0.4 0.3,-0.7 0.6,-0.9 0.2,-0.2 0.5,-0.4 0.8,-0.6 0.3,-0.1 0.6,-0.2 1,-0.2 0.4,0 0.8,0.1 1.1,0.2 0.3,0.1 0.6,0.3 0.8,0.6 0.2,0.3 0.4,0.6 0.5,0.9 0.1,0.3 0.2,0.7 0.2,1.1 v 0.4 h -4.1 v 0 c 0,0.3 0.1,0.5 0.2,0.7 0.1,0.2 0.2,0.4 0.4,0.6 0.2,0.2 0.3,0.3 0.6,0.4 0.2,0.1 0.5,0.1 0.7,0.1 0.3,0 0.7,-0.1 0.9,-0.2 0.3,-0.1 0.5,-0.3 0.7,-0.6 l 0.6,0.5 c -0.2,0.3 -0.5,0.5 -0.9,0.8 -0.4,0.2 -0.8,0.3 -1.4,0.3 -0.4,0.1 -0.8,0.1 -1.2,-0.1 z m 0.5,-4.8 c -0.2,0.1 -0.3,0.2 -0.5,0.3 -0.1,0.1 -0.3,0.3 -0.4,0.5 -0.1,0.2 -0.2,0.4 -0.2,0.7 h 3.1 v 0 c 0,-0.2 0,-0.4 -0.1,-0.6 -0.1,-0.2 -0.2,-0.4 -0.3,-0.5 -0.1,-0.1 -0.3,-0.3 -0.5,-0.4 -0.2,-0.1 -0.4,-0.1 -0.6,-0.1 -0.2,0 -0.4,0.1 -0.5,0.1 z"
   id="path31723" />
	<path
   d="m 470,18.2 h 0.9 L 471,19 c 0.1,-0.1 0.2,-0.2 0.3,-0.3 0.1,-0.1 0.2,-0.2 0.3,-0.3 0.2,-0.1 0.4,-0.2 0.6,-0.3 0.2,-0.1 0.4,-0.1 0.6,-0.1 0.3,0 0.6,0 0.8,0.1 0.2,0.1 0.5,0.2 0.6,0.4 0.2,0.2 0.3,0.4 0.4,0.7 0.1,0.3 0.1,0.6 0.1,1 v 3.6 h -1 v -3.6 c 0,-0.3 0,-0.5 -0.1,-0.6 -0.1,-0.2 -0.1,-0.3 -0.2,-0.4 -0.1,-0.1 -0.2,-0.2 -0.4,-0.2 -0.2,0 -0.3,-0.1 -0.6,-0.1 -0.2,0 -0.3,0 -0.5,0.1 -0.2,0.1 -0.3,0.1 -0.4,0.2 -0.1,0.1 -0.2,0.2 -0.3,0.3 -0.1,0.1 -0.2,0.2 -0.2,0.3 v 4.1 h -1 z"
   id="path31725" />
	<path
   d="m 480.2,22.1 c 0,-0.1 -0.1,-0.2 -0.2,-0.3 -0.1,-0.1 -0.3,-0.1 -0.4,-0.2 -0.2,-0.1 -0.4,-0.1 -0.7,-0.2 -0.3,-0.1 -0.6,-0.1 -0.9,-0.2 -0.3,-0.1 -0.5,-0.2 -0.7,-0.3 -0.2,-0.1 -0.3,-0.3 -0.4,-0.5 -0.1,-0.2 -0.2,-0.4 -0.2,-0.6 0,-0.2 0.1,-0.4 0.2,-0.7 0.1,-0.2 0.3,-0.4 0.5,-0.5 0.2,-0.2 0.4,-0.3 0.7,-0.4 0.3,-0.1 0.6,-0.1 0.9,-0.1 0.4,0 0.7,0 1,0.1 0.3,0.1 0.5,0.2 0.7,0.4 0.2,0.2 0.3,0.4 0.5,0.6 0.1,0.2 0.2,0.4 0.2,0.7 h -1 c 0,-0.1 0,-0.2 -0.1,-0.4 -0.1,-0.1 -0.2,-0.2 -0.3,-0.3 -0.1,-0.1 -0.2,-0.2 -0.4,-0.2 -0.2,0 -0.3,-0.1 -0.5,-0.1 -0.2,0 -0.4,0 -0.5,0.1 -0.2,0 -0.3,0.1 -0.4,0.2 -0.1,0.1 -0.2,0.2 -0.2,0.3 -0.1,0.1 -0.1,0.2 -0.1,0.3 0,0.1 0,0.2 0.1,0.3 0.1,0.1 0.1,0.2 0.2,0.2 0.1,0.1 0.2,0.1 0.4,0.2 0.2,0.1 0.4,0.1 0.7,0.2 0.4,0.1 0.7,0.2 0.9,0.3 0.2,0.1 0.5,0.2 0.7,0.3 0.2,0.1 0.3,0.3 0.4,0.5 0.1,0.2 0.2,0.4 0.2,0.6 0,0.3 -0.1,0.5 -0.2,0.7 -0.1,0.2 -0.3,0.4 -0.5,0.5 -0.2,0.1 -0.4,0.3 -0.7,0.3 -0.3,0.1 -0.6,0.1 -0.9,0.1 -0.4,0 -0.7,-0.1 -1,-0.2 -0.3,-0.1 -0.6,-0.2 -0.8,-0.4 -0.2,-0.2 -0.4,-0.4 -0.5,-0.6 -0.1,-0.2 -0.2,-0.5 -0.2,-0.7 h 1 c 0,0.2 0.1,0.4 0.2,0.5 0.1,0.1 0.2,0.2 0.4,0.3 0.1,0.1 0.3,0.1 0.5,0.2 0.2,0.1 0.3,0.1 0.5,0.1 0.3,0 0.5,0 0.7,-0.1 0.2,-0.1 0.3,-0.1 0.5,-0.3 0.1,-0.1 0.1,-0.1 0.2,-0.2 0,-0.1 0.1,-0.2 0.1,-0.3 -0.5,0 -0.5,-0.1 -0.6,-0.2 z"
   id="path31727" />
	<path
   d="m 486.1,18.2 v 4.9 h 1.9 v 0.8 h -4.8 v -0.8 h 1.9 v -4 h -1.9 V 18.2 Z M 485,16.5 c 0,-0.1 0.1,-0.1 0.1,-0.2 0,0 0.1,-0.1 0.2,-0.1 0.1,0 0.2,0 0.2,0 0.1,0 0.2,0 0.2,0 0.1,0 0.1,0.1 0.2,0.1 0.1,0 0.1,0.1 0.1,0.2 0,0.1 0,0.2 0,0.2 0,0.2 0,0.3 -0.1,0.4 -0.1,0.1 -0.2,0.2 -0.4,0.2 -0.2,0 -0.3,-0.1 -0.4,-0.2 C 485,17 485,16.9 485,16.7 c 0,-0.1 0,-0.1 0,-0.2 z"
   id="path31729" />
	<path
   d="m 489.4,19.9 c 0.1,-0.4 0.3,-0.7 0.5,-0.9 0.2,-0.3 0.5,-0.5 0.8,-0.6 0.3,-0.1 0.7,-0.2 1.1,-0.2 0.4,0 0.8,0.1 1.1,0.2 0.3,0.1 0.6,0.4 0.8,0.6 0.2,0.3 0.4,0.6 0.5,0.9 0.1,0.4 0.2,0.7 0.2,1.1 v 0.1 c 0,0.4 -0.1,0.8 -0.2,1.1 -0.1,0.4 -0.3,0.7 -0.5,0.9 -0.2,0.3 -0.5,0.5 -0.8,0.6 -0.3,0.1 -0.7,0.2 -1.1,0.2 -0.4,0 -0.8,-0.1 -1.1,-0.2 -0.3,-0.1 -0.6,-0.4 -0.8,-0.6 -0.2,-0.3 -0.4,-0.6 -0.5,-0.9 -0.1,-0.4 -0.2,-0.7 -0.2,-1.1 V 21 c 0,-0.4 0.1,-0.8 0.2,-1.1 z m 0.9,2.1 c 0.1,0.3 0.2,0.5 0.3,0.7 0.1,0.2 0.3,0.3 0.5,0.5 0.2,0.2 0.4,0.2 0.7,0.2 0.3,0 0.5,-0.1 0.7,-0.2 0.2,-0.1 0.4,-0.3 0.5,-0.5 0.1,-0.2 0.2,-0.4 0.3,-0.7 0.1,-0.3 0.1,-0.5 0.1,-0.8 V 21 c 0,-0.3 0,-0.5 -0.1,-0.8 -0.1,-0.3 -0.2,-0.5 -0.3,-0.7 -0.1,-0.2 -0.3,-0.3 -0.5,-0.5 -0.2,-0.1 -0.4,-0.2 -0.7,-0.2 -0.3,0 -0.5,0.1 -0.7,0.2 -0.2,0.1 -0.4,0.3 -0.5,0.5 -0.1,0.2 -0.2,0.4 -0.3,0.7 -0.1,0.3 -0.1,0.5 -0.1,0.8 v 0.1 c 0,0.3 0,0.6 0.1,0.9 z"
   id="path31731" />
	<path
   d="m 496,18.2 h 0.9 L 497,19 c 0.1,-0.1 0.2,-0.2 0.3,-0.3 0.1,-0.1 0.2,-0.2 0.3,-0.3 0.2,-0.1 0.4,-0.2 0.6,-0.3 0.2,-0.1 0.4,-0.1 0.6,-0.1 0.3,0 0.6,0 0.8,0.1 0.2,0.1 0.5,0.2 0.6,0.4 0.2,0.2 0.3,0.4 0.4,0.7 0.1,0.3 0.1,0.6 0.1,1 v 3.6 h -1 v -3.6 c 0,-0.3 0,-0.5 -0.1,-0.6 -0.1,-0.2 -0.1,-0.3 -0.2,-0.4 -0.1,-0.1 -0.2,-0.2 -0.4,-0.2 -0.2,0 -0.3,-0.1 -0.6,-0.1 -0.2,0 -0.3,0 -0.5,0.1 -0.2,0.1 -0.3,0.1 -0.4,0.2 -0.1,0.1 -0.2,0.2 -0.3,0.3 -0.1,0.1 -0.2,0.2 -0.2,0.3 v 4.1 h -1 z"
   id="path31733" />
	<path
   d="m 504.5,17 c 0,0.2 -0.1,0.4 -0.2,0.5 -0.1,0.2 -0.2,0.4 -0.3,0.5 -0.1,0.2 -0.2,0.3 -0.4,0.4 L 503.1,18 c 0.2,-0.2 0.3,-0.5 0.4,-0.8 0.1,-0.3 0.1,-0.5 0.1,-0.8 v -0.8 h 1 v 0.8 c 0,0.3 0,0.4 -0.1,0.6 z m 1.8,0 c 0,0.2 -0.1,0.4 -0.2,0.5 -0.1,0.2 -0.2,0.4 -0.3,0.5 -0.1,0.2 -0.2,0.3 -0.4,0.4 L 504.9,18 c 0.2,-0.2 0.3,-0.5 0.4,-0.8 0.1,-0.3 0.1,-0.5 0.1,-0.8 v -0.8 h 1 v 0.8 c -0.1,0.3 -0.1,0.4 -0.1,0.6 z"
   id="path31735" />
	<path
   d="m 512.4,22.3 c -0.1,0.4 -0.2,0.9 -0.3,1.2 -0.1,0.4 -0.3,0.7 -0.5,1 -0.2,0.3 -0.4,0.6 -0.5,0.8 -0.2,0.2 -0.4,0.5 -0.6,0.6 -0.2,0.2 -0.4,0.3 -0.6,0.4 l -0.2,-0.6 c 0.1,-0.1 0.3,-0.2 0.4,-0.4 0.1,-0.2 0.3,-0.4 0.4,-0.6 0.1,-0.2 0.3,-0.5 0.4,-0.8 0.1,-0.3 0.2,-0.6 0.3,-0.9 0.1,-0.3 0.1,-0.7 0.2,-1 0.1,-0.3 0.1,-0.8 0.1,-1.2 v -0.1 c 0,-0.5 0,-0.9 -0.1,-1.3 -0.1,-0.4 -0.1,-0.7 -0.2,-1 -0.1,-0.4 -0.2,-0.7 -0.4,-1 -0.1,-0.3 -0.3,-0.6 -0.4,-0.8 -0.1,-0.2 -0.2,-0.3 -0.4,-0.5 -0.1,-0.1 -0.2,-0.3 -0.4,-0.3 l 0.2,-0.6 c 0.2,0.1 0.4,0.2 0.6,0.4 0.2,0.2 0.4,0.4 0.6,0.6 0.2,0.2 0.4,0.5 0.6,0.8 0.2,0.3 0.3,0.7 0.5,1 0.1,0.4 0.2,0.8 0.3,1.2 0.1,0.4 0.1,0.9 0.1,1.5 v 0.1 c 0,0.6 0,1.1 -0.1,1.5 z"
   id="path31737" />
</g>
<path
   id="rect31741"
   class="st21"
   style="fill:none;stroke:#cf2144;stroke-miterlimit:10"
   d="M 105.9,0.1 H 539.50001 V 39.399999 H 105.9 Z" />
<g
   id="g31861">
	<path
   d="M126.8,204.2v3.4h-1v-7.7h4.7v0.8h-3.7v2.6h3.2v0.8H126.8z"
   id="path31743" />
	<path
   d="M137.1,205.1c0,0.4-0.1,0.7-0.2,1c-0.1,0.3-0.3,0.6-0.5,0.8c-0.2,0.2-0.5,0.4-0.8,0.6c-0.3,0.1-0.6,0.2-1,0.2   c-0.4,0-0.7-0.1-1-0.2c-0.3-0.1-0.6-0.3-0.8-0.6c-0.2-0.2-0.4-0.5-0.5-0.8c-0.1-0.3-0.2-0.7-0.2-1l0-5.2h0.9l0,5.2   c0,0.2,0,0.4,0.1,0.7c0.1,0.2,0.2,0.4,0.3,0.6c0.1,0.2,0.3,0.3,0.5,0.4c0.2,0.1,0.4,0.1,0.7,0.1c0.2,0,0.5,0,0.7-0.1   s0.4-0.2,0.5-0.4c0.1-0.2,0.2-0.3,0.3-0.6c0.1-0.2,0.1-0.4,0.1-0.7l0-5.2h0.9L137.1,205.1z"
   id="path31745" />
	<path
   d="M142.5,207.5l-3-5.7l0,5.7h-1v-7.7h1l3,5.7l0-5.7h1v7.7H142.5z"
   id="path31747" />
	<path
   d="M149.9,206.2c-0.1,0.3-0.3,0.6-0.5,0.8c-0.2,0.2-0.5,0.4-0.8,0.5s-0.6,0.2-1,0.2c-0.3,0-0.6,0-0.9-0.1   c-0.3-0.1-0.5-0.2-0.7-0.4c-0.2-0.2-0.4-0.3-0.5-0.6c-0.1-0.2-0.3-0.4-0.4-0.7c-0.1-0.3-0.2-0.5-0.2-0.8c0-0.3-0.1-0.6-0.1-0.8   v-1.1c0-0.3,0-0.6,0.1-0.8c0-0.3,0.1-0.5,0.2-0.8c0.1-0.3,0.2-0.5,0.4-0.7c0.1-0.2,0.3-0.4,0.5-0.6c0.2-0.2,0.4-0.3,0.7-0.4   s0.5-0.1,0.9-0.1c0.4,0,0.7,0.1,1,0.2c0.3,0.1,0.6,0.3,0.8,0.5c0.2,0.2,0.4,0.5,0.5,0.8s0.2,0.6,0.3,1h-1c0-0.2-0.1-0.4-0.2-0.6   c-0.1-0.2-0.2-0.4-0.3-0.5c-0.1-0.2-0.3-0.3-0.5-0.4c-0.2-0.1-0.4-0.1-0.7-0.1c-0.2,0-0.4,0-0.6,0.1c-0.2,0.1-0.3,0.2-0.5,0.3   c-0.1,0.1-0.2,0.3-0.3,0.5c-0.1,0.2-0.2,0.4-0.2,0.5c-0.1,0.2-0.1,0.4-0.1,0.6c0,0.2,0,0.4,0,0.6v1.1c0,0.2,0,0.4,0,0.6   c0,0.2,0.1,0.4,0.1,0.6c0.1,0.2,0.1,0.4,0.2,0.6s0.2,0.3,0.3,0.5c0.1,0.1,0.3,0.2,0.5,0.3c0.2,0.1,0.4,0.1,0.6,0.1   c0.3,0,0.5,0,0.7-0.1c0.2-0.1,0.3-0.2,0.5-0.3c0.1-0.1,0.2-0.3,0.3-0.5c0.1-0.2,0.1-0.4,0.2-0.6h1   C150.1,205.6,150,205.9,149.9,206.2z"
   id="path31749" />
	<path
   d="M154.5,200.7v6.9h-0.9v-6.9h-2.4v-0.8h5.7v0.8H154.5z"
   id="path31751" />
	<path
   d="M162.8,199.9v0.8H161v6h1.8v0.8h-4.6v-0.8h1.8v-6h-1.8v-0.8H162.8z"
   id="path31753" />
	<path
   d="M169.6,205c0,0.3-0.1,0.5-0.2,0.8c-0.1,0.3-0.2,0.5-0.4,0.7s-0.3,0.4-0.5,0.6c-0.2,0.2-0.4,0.3-0.7,0.4   c-0.3,0.1-0.5,0.1-0.9,0.1c-0.3,0-0.6,0-0.9-0.1c-0.3-0.1-0.5-0.2-0.7-0.4c-0.2-0.2-0.4-0.4-0.5-0.6c-0.1-0.2-0.3-0.5-0.4-0.7   c-0.1-0.3-0.2-0.5-0.2-0.8s-0.1-0.6-0.1-0.8v-0.9c0-0.3,0-0.6,0.1-0.8s0.1-0.5,0.2-0.8c0.1-0.3,0.2-0.5,0.4-0.7   c0.1-0.2,0.3-0.4,0.5-0.6c0.2-0.2,0.4-0.3,0.7-0.4c0.3-0.1,0.5-0.1,0.9-0.1c0.3,0,0.6,0,0.9,0.1s0.5,0.2,0.7,0.4   c0.2,0.2,0.4,0.4,0.5,0.6c0.1,0.2,0.3,0.5,0.4,0.7c0.1,0.3,0.2,0.5,0.2,0.8c0,0.3,0.1,0.6,0.1,0.8v0.9   C169.7,204.4,169.6,204.7,169.6,205z M168.7,202.7c0-0.2-0.1-0.4-0.1-0.6c-0.1-0.2-0.1-0.4-0.2-0.6s-0.2-0.3-0.3-0.5   c-0.1-0.1-0.3-0.2-0.4-0.3s-0.4-0.1-0.6-0.1c-0.2,0-0.4,0-0.6,0.1c-0.2,0.1-0.3,0.2-0.4,0.3c-0.1,0.1-0.2,0.3-0.3,0.5   c-0.1,0.2-0.2,0.4-0.2,0.6c-0.1,0.2-0.1,0.4-0.1,0.6s0,0.4,0,0.6v0.9c0,0.2,0,0.4,0,0.6s0.1,0.4,0.1,0.6c0.1,0.2,0.1,0.4,0.2,0.6   c0.1,0.2,0.2,0.3,0.3,0.5c0.1,0.1,0.3,0.2,0.4,0.3s0.4,0.1,0.6,0.1c0.2,0,0.4,0,0.6-0.1c0.2-0.1,0.3-0.2,0.5-0.3   c0.1-0.1,0.2-0.3,0.3-0.5c0.1-0.2,0.2-0.4,0.2-0.6c0-0.2,0.1-0.4,0.1-0.6c0-0.2,0-0.4,0-0.6v-0.9   C168.7,203.1,168.7,202.9,168.7,202.7z"
   id="path31755" />
	<path
   d="M175,207.5l-3-5.7l0,5.7h-1v-7.7h1l3,5.7l0-5.7h1v7.7H175z"
   id="path31757" />
	<path
   d="M178.7,203c0.1-0.4,0.2-0.9,0.3-1.2c0.1-0.4,0.3-0.7,0.5-1c0.2-0.3,0.4-0.6,0.6-0.8c0.2-0.2,0.4-0.5,0.6-0.6   c0.2-0.2,0.4-0.3,0.6-0.4l0.2,0.6c-0.1,0.1-0.2,0.2-0.3,0.3s-0.2,0.3-0.3,0.4c-0.2,0.2-0.3,0.5-0.5,0.8c-0.1,0.3-0.3,0.6-0.4,1   c-0.1,0.3-0.2,0.7-0.2,1.1c-0.1,0.4-0.1,0.8-0.1,1.3v0.1c0,0.4,0,0.9,0.1,1.2c0,0.4,0.1,0.7,0.2,1.1c0.1,0.3,0.2,0.6,0.3,0.9   s0.2,0.5,0.4,0.8c0.1,0.2,0.3,0.4,0.4,0.6c0.1,0.2,0.3,0.3,0.4,0.4l-0.2,0.6c-0.2-0.1-0.4-0.2-0.6-0.4c-0.2-0.2-0.4-0.4-0.6-0.6   c-0.2-0.2-0.4-0.5-0.6-0.8s-0.3-0.7-0.5-1c-0.1-0.4-0.2-0.8-0.3-1.2c-0.1-0.4-0.1-0.9-0.1-1.4v-0.1   C178.6,203.9,178.6,203.4,178.7,203z"
   id="path31759" />
	<path
   d="M186.2,200.6c0,0.2-0.1,0.4-0.2,0.5c-0.1,0.2-0.2,0.4-0.3,0.5c-0.1,0.2-0.2,0.3-0.4,0.4l-0.5-0.4c0.2-0.2,0.3-0.5,0.4-0.8   c0.1-0.3,0.1-0.5,0.1-0.8v-0.8h1v0.8C186.2,200.3,186.2,200.4,186.2,200.6z M187.9,200.6c0,0.2-0.1,0.4-0.2,0.5   c-0.1,0.2-0.2,0.4-0.3,0.5c-0.1,0.2-0.2,0.3-0.4,0.4l-0.5-0.4c0.2-0.2,0.3-0.5,0.4-0.8c0.1-0.3,0.1-0.5,0.1-0.8v-0.8h1v0.8   C188,200.3,188,200.4,187.9,200.6z"
   id="path31761" />
	<path
   d="M191.1,202.4c0.1-0.2,0.3-0.4,0.5-0.5c0.2-0.1,0.4-0.2,0.7-0.2c0.2,0,0.3,0,0.4,0.1c0.1,0,0.2,0.1,0.3,0.1   c0.1,0,0.1,0.1,0.2,0.2s0.1,0.1,0.1,0.2c0-0.1,0.1-0.2,0.2-0.2s0.1-0.1,0.2-0.2c0.1-0.1,0.2-0.1,0.3-0.1s0.3-0.1,0.4-0.1   c0.2,0,0.4,0,0.5,0.1c0.2,0.1,0.3,0.1,0.4,0.3c0.1,0.1,0.2,0.3,0.3,0.5c0.1,0.2,0.1,0.4,0.1,0.7v4.3h-0.9v-4.3c0-0.1,0-0.2,0-0.3   s-0.1-0.2-0.1-0.2c-0.1-0.1-0.1-0.1-0.2-0.1c-0.1,0-0.2,0-0.3,0c-0.1,0-0.2,0-0.3,0c-0.1,0-0.2,0.1-0.2,0.1   c-0.1,0.1-0.1,0.1-0.1,0.2c0,0.1-0.1,0.2-0.1,0.2c0,0,0,0,0,0.1s0,0,0,0.1v4.3h-0.9v-4.3c0-0.1,0-0.2,0-0.3c0-0.1-0.1-0.2-0.1-0.2   c-0.1-0.1-0.1-0.1-0.2-0.1s-0.2,0-0.3,0c-0.1,0-0.2,0-0.3,0s-0.2,0.1-0.2,0.1c0,0-0.1,0.1-0.1,0.1c0,0-0.1,0.1-0.1,0.2v4.5h-0.9   v-5.7h0.9L191.1,202.4z"
   id="path31763" />
	<path
   d="M197.2,209.8c-0.1,0-0.2,0-0.3-0.1l0.2-0.8c0.1,0,0.2,0,0.3,0c0.1,0,0.2,0,0.2,0c0.1,0,0.3,0,0.4-0.1   c0.1-0.1,0.2-0.2,0.3-0.3c0.1-0.1,0.2-0.2,0.2-0.3c0.1-0.1,0.1-0.2,0.1-0.3l0.4-0.8l-2.5-5.4h1.1l1.6,3.7l0.3,0.7l0.3-0.7l1.5-3.7   h1.1l-2.9,6.6c-0.1,0.1-0.2,0.3-0.3,0.5c-0.1,0.2-0.2,0.3-0.4,0.5c-0.1,0.1-0.3,0.3-0.5,0.4c-0.2,0.1-0.4,0.1-0.7,0.1   C197.5,209.9,197.4,209.8,197.2,209.8z"
   id="path31765" />
	<path
   d="M208.4,205.5c0,0.2-0.1,0.4-0.2,0.6c-0.1,0.3-0.2,0.5-0.4,0.7c-0.2,0.2-0.3,0.4-0.6,0.5c-0.2,0.1-0.3,0.2-0.5,0.2   s-0.4,0.1-0.6,0.1c-0.2,0-0.5,0-0.7-0.1c-0.2-0.1-0.4-0.1-0.5-0.3c-0.1-0.1-0.2-0.1-0.2-0.2c-0.1-0.1-0.1-0.1-0.2-0.2l0,0.6h-0.9   v-8.1h1v3c0.1-0.1,0.2-0.2,0.3-0.3c0.1-0.1,0.2-0.2,0.3-0.2c0.1-0.1,0.3-0.1,0.5-0.2s0.4-0.1,0.5-0.1c0.2,0,0.5,0,0.7,0.1   s0.4,0.2,0.6,0.3c0.2,0.1,0.3,0.2,0.4,0.4s0.2,0.3,0.3,0.5c0.1,0.2,0.2,0.5,0.2,0.7c0,0.3,0.1,0.6,0.1,0.9v0.1   C208.4,205,208.4,205.2,208.4,205.5z M207.4,204.1c0-0.2-0.1-0.3-0.1-0.5c-0.1-0.2-0.1-0.4-0.2-0.5s-0.2-0.3-0.4-0.4   c-0.1-0.1-0.2-0.1-0.3-0.1s-0.3-0.1-0.4-0.1c-0.2,0-0.3,0-0.5,0.1c-0.1,0-0.3,0.1-0.4,0.2c-0.1,0.1-0.2,0.2-0.3,0.3   c-0.1,0.1-0.2,0.2-0.2,0.4v2.5c0.1,0.1,0.1,0.2,0.2,0.4c0.1,0.1,0.2,0.2,0.3,0.3c0.1,0.1,0.2,0.1,0.4,0.2c0.1,0,0.3,0.1,0.5,0.1   c0.2,0,0.3,0,0.4-0.1s0.3-0.1,0.4-0.2c0.1-0.1,0.3-0.2,0.4-0.4c0.1-0.2,0.2-0.3,0.2-0.5c0-0.1,0.1-0.3,0.1-0.5c0-0.2,0-0.3,0-0.5   v-0.1C207.4,204.5,207.4,204.3,207.4,204.1z"
   id="path31767" />
	<path
   d="M213.8,206.8c-0.2,0.3-0.4,0.5-0.7,0.7c-0.3,0.2-0.6,0.2-1,0.2c-0.3,0-0.6,0-0.8-0.1c-0.2-0.1-0.5-0.2-0.6-0.4   s-0.3-0.4-0.4-0.8c-0.1-0.3-0.1-0.7-0.1-1.1v-3.4h1v3.4c0,0.3,0,0.6,0.1,0.8s0.1,0.4,0.2,0.5c0.1,0.1,0.2,0.2,0.4,0.3   s0.3,0.1,0.5,0.1c0.2,0,0.4,0,0.6-0.1c0.2-0.1,0.3-0.1,0.4-0.2c0.1-0.1,0.2-0.2,0.3-0.3c0.1-0.1,0.1-0.2,0.2-0.3v-4.1h1v5.7h-0.9   L213.8,206.8z"
   id="path31769" />
	<path
   d="M219.5,206.8c0.2-0.1,0.3-0.1,0.4-0.2c0.1-0.1,0.2-0.2,0.3-0.4c0.1-0.1,0.1-0.3,0.1-0.4h0.9c0,0.3-0.1,0.5-0.2,0.7   c-0.1,0.2-0.3,0.4-0.5,0.6c-0.2,0.2-0.5,0.3-0.7,0.4c-0.3,0.1-0.6,0.2-0.9,0.2c-0.4,0-0.8-0.1-1.1-0.2s-0.6-0.4-0.8-0.6   c-0.2-0.3-0.4-0.6-0.5-0.9c-0.1-0.3-0.2-0.7-0.2-1.1v-0.2c0-0.4,0.1-0.7,0.2-1.1c0.1-0.3,0.3-0.6,0.5-0.9c0.2-0.3,0.5-0.5,0.8-0.6   s0.7-0.2,1.1-0.2c0.3,0,0.6,0.1,0.9,0.2s0.5,0.3,0.7,0.4c0.2,0.2,0.4,0.4,0.5,0.7s0.2,0.5,0.2,0.8h-0.9c0-0.2,0-0.3-0.1-0.5   c-0.1-0.2-0.2-0.3-0.3-0.4c-0.1-0.1-0.3-0.2-0.4-0.3c-0.2-0.1-0.4-0.1-0.6-0.1c-0.3,0-0.6,0.1-0.8,0.2c-0.2,0.1-0.4,0.3-0.5,0.5   c-0.1,0.2-0.2,0.4-0.3,0.7c-0.1,0.2-0.1,0.5-0.1,0.7v0.2c0,0.2,0,0.5,0.1,0.7c0.1,0.2,0.1,0.5,0.3,0.7c0.1,0.2,0.3,0.4,0.5,0.5   c0.2,0.1,0.5,0.2,0.8,0.2C219.2,206.9,219.3,206.8,219.5,206.8z"
   id="path31771" />
	<path
   d="M224,205.6v2h-1v-8.1h1v5l0.6-0.7l1.9-1.9h1.2l-2.3,2.4l2.7,3.3h-1.2l-2.1-2.7L224,205.6z"
   id="path31773" />
	<path
   d="M230.9,207.4c-0.3-0.1-0.6-0.3-0.9-0.6c-0.2-0.2-0.4-0.5-0.6-0.9s-0.2-0.7-0.2-1.1v-0.2c0-0.5,0.1-0.9,0.2-1.2   c0.1-0.4,0.3-0.7,0.6-0.9c0.2-0.2,0.5-0.4,0.8-0.6c0.3-0.1,0.6-0.2,1-0.2c0.4,0,0.8,0.1,1.1,0.2c0.3,0.1,0.6,0.3,0.8,0.6   c0.2,0.3,0.4,0.6,0.5,0.9c0.1,0.3,0.2,0.7,0.2,1.1v0.4h-4.1v0c0,0.3,0.1,0.5,0.2,0.7c0.1,0.2,0.2,0.4,0.4,0.6   c0.2,0.2,0.3,0.3,0.6,0.4c0.2,0.1,0.5,0.1,0.7,0.1c0.3,0,0.7-0.1,0.9-0.2c0.3-0.1,0.5-0.3,0.7-0.6l0.6,0.5   c-0.2,0.3-0.5,0.5-0.9,0.8c-0.4,0.2-0.8,0.3-1.4,0.3C231.6,207.7,231.3,207.6,230.9,207.4z M231.4,202.6c-0.2,0.1-0.3,0.2-0.5,0.3   c-0.1,0.1-0.3,0.3-0.4,0.5s-0.2,0.4-0.2,0.7h3.1v0c0-0.2,0-0.4-0.1-0.6c-0.1-0.2-0.2-0.4-0.3-0.5c-0.1-0.1-0.3-0.3-0.5-0.4   c-0.2-0.1-0.4-0.1-0.6-0.1C231.7,202.5,231.5,202.6,231.4,202.6z"
   id="path31775" />
	<path
   d="M238.3,201.8h2.2v0.8h-2.2v3.1c0,0.2,0,0.4,0.1,0.5c0.1,0.1,0.1,0.3,0.2,0.3c0.1,0.1,0.2,0.1,0.3,0.2s0.3,0.1,0.4,0.1   c0.1,0,0.2,0,0.3,0c0.1,0,0.2,0,0.3,0c0.1,0,0.2,0,0.3-0.1c0.1,0,0.2,0,0.2-0.1l0.1,0.7c-0.1,0-0.2,0.1-0.3,0.1   c-0.1,0-0.2,0.1-0.4,0.1c-0.1,0-0.3,0-0.4,0.1c-0.2,0-0.3,0-0.5,0c-0.3,0-0.5,0-0.7-0.1c-0.2-0.1-0.4-0.2-0.6-0.3   c-0.2-0.2-0.3-0.4-0.4-0.6s-0.1-0.5-0.1-0.9v-3.1h-1.5v-0.8h1.5v-1.4h1V201.8z"
   id="path31777" />
	<path
   d="M242.9,208.2l3.2-8.3h0.9l-3.2,8.3H242.9z"
   id="path31779" />
	<path
   d="M249.5,202.4c0.1-0.2,0.3-0.4,0.5-0.5c0.2-0.1,0.4-0.2,0.7-0.2c0.2,0,0.3,0,0.4,0.1c0.1,0,0.2,0.1,0.3,0.1   c0.1,0,0.1,0.1,0.2,0.2s0.1,0.1,0.1,0.2c0-0.1,0.1-0.2,0.2-0.2s0.1-0.1,0.2-0.2c0.1-0.1,0.2-0.1,0.3-0.1s0.3-0.1,0.4-0.1   c0.2,0,0.4,0,0.5,0.1c0.2,0.1,0.3,0.1,0.4,0.3c0.1,0.1,0.2,0.3,0.3,0.5c0.1,0.2,0.1,0.4,0.1,0.7v4.3h-0.9v-4.3c0-0.1,0-0.2,0-0.3   s-0.1-0.2-0.1-0.2c-0.1-0.1-0.1-0.1-0.2-0.1c-0.1,0-0.2,0-0.3,0c-0.1,0-0.2,0-0.3,0c-0.1,0-0.2,0.1-0.2,0.1   c-0.1,0.1-0.1,0.1-0.1,0.2c0,0.1-0.1,0.2-0.1,0.2c0,0,0,0,0,0.1s0,0,0,0.1v4.3h-0.9v-4.3c0-0.1,0-0.2,0-0.3c0-0.1-0.1-0.2-0.1-0.2   c-0.1-0.1-0.1-0.1-0.2-0.1s-0.2,0-0.3,0c-0.1,0-0.2,0-0.3,0s-0.2,0.1-0.2,0.1c0,0-0.1,0.1-0.1,0.1c0,0-0.1,0.1-0.1,0.2v4.5h-0.9   v-5.7h0.9L249.5,202.4z"
   id="path31781" />
	<path
   d="M255.6,209.8c-0.1,0-0.2,0-0.3-0.1l0.2-0.8c0.1,0,0.2,0,0.3,0c0.1,0,0.2,0,0.2,0c0.1,0,0.3,0,0.4-0.1   c0.1-0.1,0.2-0.2,0.3-0.3c0.1-0.1,0.2-0.2,0.2-0.3c0.1-0.1,0.1-0.2,0.1-0.3l0.4-0.8l-2.5-5.4h1.1l1.6,3.7l0.3,0.7l0.3-0.7l1.5-3.7   h1.1l-2.9,6.6c-0.1,0.1-0.2,0.3-0.3,0.5c-0.1,0.2-0.2,0.3-0.4,0.5c-0.1,0.1-0.3,0.3-0.5,0.4c-0.2,0.1-0.4,0.1-0.7,0.1   C255.8,209.9,255.7,209.8,255.6,209.8z"
   id="path31783" />
	<path
   d="M261.9,203.5c0.1-0.4,0.3-0.7,0.5-0.9c0.2-0.3,0.4-0.5,0.7-0.6c0.3-0.1,0.6-0.2,0.9-0.2c0.3,0,0.6,0.1,0.9,0.2   c0.3,0.1,0.5,0.3,0.7,0.5v-3h1v8.1h-0.9l0-0.6c-0.2,0.2-0.4,0.4-0.7,0.5c-0.3,0.1-0.6,0.2-0.9,0.2c-0.3,0-0.7-0.1-0.9-0.2   c-0.3-0.1-0.5-0.4-0.7-0.6c-0.2-0.3-0.4-0.6-0.5-0.9c-0.1-0.4-0.2-0.7-0.2-1.1v-0.1C261.8,204.2,261.8,203.8,261.9,203.5z    M262.8,205.5c0.1,0.2,0.2,0.5,0.3,0.7c0.1,0.2,0.3,0.3,0.5,0.5c0.2,0.1,0.4,0.2,0.7,0.2c0.3,0,0.6-0.1,0.8-0.2   c0.2-0.1,0.4-0.3,0.5-0.6v-2.6c-0.1-0.2-0.3-0.4-0.5-0.6c-0.2-0.1-0.5-0.2-0.8-0.2c-0.3,0-0.5,0.1-0.7,0.2   c-0.2,0.1-0.4,0.3-0.5,0.5c-0.1,0.2-0.2,0.4-0.3,0.7c-0.1,0.3-0.1,0.5-0.1,0.8v0.1C262.8,205,262.8,205.3,262.8,205.5z"
   id="path31785" />
	<path
   d="M272.1,207.3c0-0.1,0-0.2-0.1-0.3c-0.1,0.1-0.2,0.2-0.3,0.3c-0.1,0.1-0.3,0.2-0.4,0.2c-0.1,0.1-0.3,0.1-0.5,0.2   c-0.2,0-0.3,0.1-0.5,0.1c-0.3,0-0.6,0-0.8-0.1s-0.5-0.2-0.6-0.4c-0.2-0.1-0.3-0.3-0.4-0.5c-0.1-0.2-0.1-0.4-0.1-0.7   c0-0.3,0.1-0.6,0.2-0.8s0.3-0.4,0.5-0.6c0.2-0.2,0.5-0.3,0.8-0.3s0.7-0.1,1.1-0.1h1.1v-0.4c0-0.2,0-0.3-0.1-0.5   c-0.1-0.1-0.2-0.3-0.3-0.4c-0.1-0.1-0.3-0.2-0.4-0.2s-0.4-0.1-0.6-0.1c-0.2,0-0.4,0-0.5,0.1c-0.2,0-0.3,0.1-0.4,0.2   c-0.1,0.1-0.2,0.2-0.2,0.3s-0.1,0.2-0.1,0.3h-1c0-0.2,0.1-0.4,0.2-0.6c0.1-0.2,0.3-0.4,0.5-0.5c0.2-0.2,0.4-0.3,0.7-0.4   s0.6-0.1,1-0.1c0.3,0,0.6,0,0.9,0.1c0.3,0.1,0.5,0.2,0.7,0.4c0.2,0.2,0.4,0.4,0.5,0.6s0.2,0.5,0.2,0.8v2.7c0,0.2,0,0.4,0.1,0.6   s0.1,0.4,0.1,0.6v0.1h-1C272.2,207.5,272.1,207.4,272.1,207.3z M271,206.7c0.2,0,0.3-0.1,0.5-0.2c0.1-0.1,0.2-0.2,0.3-0.3   c0.1-0.1,0.2-0.2,0.2-0.3v-1.2h-0.9c-0.3,0-0.6,0-0.9,0.1c-0.3,0.1-0.5,0.1-0.6,0.3c-0.1,0.1-0.2,0.2-0.2,0.3   c-0.1,0.1-0.1,0.2-0.1,0.4c0,0.1,0,0.3,0.1,0.4s0.1,0.2,0.2,0.3c0.1,0.1,0.2,0.2,0.4,0.2c0.1,0,0.3,0.1,0.5,0.1   C270.7,206.8,270.8,206.8,271,206.7z"
   id="path31787" />
	<path
   d="M277.2,201.8h2.2v0.8h-2.2v3.1c0,0.2,0,0.4,0.1,0.5c0.1,0.1,0.1,0.3,0.2,0.3c0.1,0.1,0.2,0.1,0.3,0.2s0.3,0.1,0.4,0.1   c0.1,0,0.2,0,0.3,0c0.1,0,0.2,0,0.3,0c0.1,0,0.2,0,0.3-0.1c0.1,0,0.2,0,0.2-0.1l0.1,0.7c-0.1,0-0.2,0.1-0.3,0.1   c-0.1,0-0.2,0.1-0.4,0.1c-0.1,0-0.3,0-0.4,0.1c-0.2,0-0.3,0-0.5,0c-0.3,0-0.5,0-0.7-0.1c-0.2-0.1-0.4-0.2-0.6-0.3   c-0.2-0.2-0.3-0.4-0.4-0.6s-0.1-0.5-0.1-0.9v-3.1h-1.5v-0.8h1.5v-1.4h1V201.8z"
   id="path31789" />
	<path
   d="M285.1,207.3c0-0.1,0-0.2-0.1-0.3c-0.1,0.1-0.2,0.2-0.3,0.3c-0.1,0.1-0.3,0.2-0.4,0.2c-0.1,0.1-0.3,0.1-0.5,0.2   c-0.2,0-0.3,0.1-0.5,0.1c-0.3,0-0.6,0-0.8-0.1s-0.5-0.2-0.6-0.4c-0.2-0.1-0.3-0.3-0.4-0.5c-0.1-0.2-0.1-0.4-0.1-0.7   c0-0.3,0.1-0.6,0.2-0.8s0.3-0.4,0.5-0.6c0.2-0.2,0.5-0.3,0.8-0.3s0.7-0.1,1.1-0.1h1.1v-0.4c0-0.2,0-0.3-0.1-0.5   c-0.1-0.1-0.2-0.3-0.3-0.4c-0.1-0.1-0.3-0.2-0.4-0.2s-0.4-0.1-0.6-0.1c-0.2,0-0.4,0-0.5,0.1c-0.2,0-0.3,0.1-0.4,0.2   c-0.1,0.1-0.2,0.2-0.2,0.3s-0.1,0.2-0.1,0.3h-1c0-0.2,0.1-0.4,0.2-0.6c0.1-0.2,0.3-0.4,0.5-0.5c0.2-0.2,0.4-0.3,0.7-0.4   s0.6-0.1,1-0.1c0.3,0,0.6,0,0.9,0.1c0.3,0.1,0.5,0.2,0.7,0.4c0.2,0.2,0.4,0.4,0.5,0.6s0.2,0.5,0.2,0.8v2.7c0,0.2,0,0.4,0.1,0.6   s0.1,0.4,0.1,0.6v0.1h-1C285.1,207.5,285.1,207.4,285.1,207.3z M284,206.7c0.2,0,0.3-0.1,0.5-0.2c0.1-0.1,0.2-0.2,0.3-0.3   c0.1-0.1,0.2-0.2,0.2-0.3v-1.2h-0.9c-0.3,0-0.6,0-0.9,0.1c-0.3,0.1-0.5,0.1-0.6,0.3c-0.1,0.1-0.2,0.2-0.2,0.3   c-0.1,0.1-0.1,0.2-0.1,0.4c0,0.1,0,0.3,0.1,0.4s0.1,0.2,0.2,0.3c0.1,0.1,0.2,0.2,0.4,0.2c0.1,0,0.3,0.1,0.5,0.1   C283.6,206.8,283.8,206.8,284,206.7z"
   id="path31791" />
	<path
   d="M288.3,208.2l3.2-8.3h0.9l-3.2,8.3H288.3z"
   id="path31793" />
	<path
   d="M294.9,202.4c0.1-0.2,0.3-0.4,0.5-0.5c0.2-0.1,0.4-0.2,0.7-0.2c0.2,0,0.3,0,0.4,0.1c0.1,0,0.2,0.1,0.3,0.1   c0.1,0,0.1,0.1,0.2,0.2s0.1,0.1,0.1,0.2c0-0.1,0.1-0.2,0.2-0.2s0.1-0.1,0.2-0.2c0.1-0.1,0.2-0.1,0.3-0.1s0.3-0.1,0.4-0.1   c0.2,0,0.4,0,0.5,0.1c0.2,0.1,0.3,0.1,0.4,0.3c0.1,0.1,0.2,0.3,0.3,0.5c0.1,0.2,0.1,0.4,0.1,0.7v4.3h-0.9v-4.3c0-0.1,0-0.2,0-0.3   s-0.1-0.2-0.1-0.2c-0.1-0.1-0.1-0.1-0.2-0.1c-0.1,0-0.2,0-0.3,0c-0.1,0-0.2,0-0.3,0c-0.1,0-0.2,0.1-0.2,0.1   c-0.1,0.1-0.1,0.1-0.1,0.2c0,0.1-0.1,0.2-0.1,0.2c0,0,0,0,0,0.1s0,0,0,0.1v4.3h-0.9v-4.3c0-0.1,0-0.2,0-0.3c0-0.1-0.1-0.2-0.1-0.2   c-0.1-0.1-0.1-0.1-0.2-0.1s-0.2,0-0.3,0c-0.1,0-0.2,0-0.3,0s-0.2,0.1-0.2,0.1c0,0-0.1,0.1-0.1,0.1c0,0-0.1,0.1-0.1,0.2v4.5H294   v-5.7h0.9L294.9,202.4z"
   id="path31795" />
	<path
   d="M301,209.8c-0.1,0-0.2,0-0.3-0.1l0.2-0.8c0.1,0,0.2,0,0.3,0c0.1,0,0.2,0,0.2,0c0.1,0,0.3,0,0.4-0.1   c0.1-0.1,0.2-0.2,0.3-0.3c0.1-0.1,0.2-0.2,0.2-0.3c0.1-0.1,0.1-0.2,0.1-0.3l0.4-0.8l-2.5-5.4h1.1l1.6,3.7l0.3,0.7l0.3-0.7l1.5-3.7   h1.1l-2.9,6.6c-0.1,0.1-0.2,0.3-0.3,0.5c-0.1,0.2-0.2,0.3-0.4,0.5c-0.1,0.1-0.3,0.3-0.5,0.4c-0.2,0.1-0.4,0.1-0.7,0.1   C301.2,209.9,301.1,209.8,301,209.8z"
   id="path31797" />
	<path
   d="M307.3,203.5c0.1-0.4,0.3-0.7,0.5-0.9c0.2-0.3,0.5-0.5,0.8-0.6c0.3-0.1,0.7-0.2,1.1-0.2c0.4,0,0.8,0.1,1.1,0.2   c0.3,0.1,0.6,0.4,0.8,0.6c0.2,0.3,0.4,0.6,0.5,0.9c0.1,0.4,0.2,0.7,0.2,1.1v0.1c0,0.4-0.1,0.8-0.2,1.1c-0.1,0.4-0.3,0.7-0.5,0.9   c-0.2,0.3-0.5,0.5-0.8,0.6c-0.3,0.1-0.7,0.2-1.1,0.2c-0.4,0-0.8-0.1-1.1-0.2c-0.3-0.1-0.6-0.4-0.8-0.6c-0.2-0.3-0.4-0.6-0.5-0.9   c-0.1-0.4-0.2-0.7-0.2-1.1v-0.1C307.1,204.2,307.2,203.8,307.3,203.5z M308.2,205.6c0.1,0.3,0.2,0.5,0.3,0.7   c0.1,0.2,0.3,0.3,0.5,0.5s0.4,0.2,0.7,0.2c0.3,0,0.5-0.1,0.7-0.2c0.2-0.1,0.4-0.3,0.5-0.5c0.1-0.2,0.2-0.4,0.3-0.7   c0.1-0.3,0.1-0.5,0.1-0.8v-0.1c0-0.3,0-0.5-0.1-0.8c-0.1-0.3-0.2-0.5-0.3-0.7c-0.1-0.2-0.3-0.3-0.5-0.5c-0.2-0.1-0.4-0.2-0.7-0.2   s-0.5,0.1-0.7,0.2c-0.2,0.1-0.4,0.3-0.5,0.5c-0.1,0.2-0.2,0.4-0.3,0.7c-0.1,0.3-0.1,0.5-0.1,0.8v0.1   C308.1,205,308.1,205.3,308.2,205.6z"
   id="path31799" />
	<path
   d="M318.6,205.5c0,0.2-0.1,0.4-0.2,0.6c-0.1,0.3-0.2,0.5-0.4,0.7c-0.2,0.2-0.3,0.4-0.6,0.5c-0.2,0.1-0.3,0.2-0.5,0.2   s-0.4,0.1-0.6,0.1c-0.2,0-0.5,0-0.7-0.1c-0.2-0.1-0.4-0.1-0.5-0.3c-0.1-0.1-0.2-0.1-0.2-0.2c-0.1-0.1-0.1-0.1-0.2-0.2l0,0.6h-0.9   v-8.1h1v3c0.1-0.1,0.2-0.2,0.3-0.3c0.1-0.1,0.2-0.2,0.3-0.2c0.1-0.1,0.3-0.1,0.5-0.2s0.4-0.1,0.5-0.1c0.2,0,0.5,0,0.7,0.1   s0.4,0.2,0.6,0.3c0.2,0.1,0.3,0.2,0.4,0.4s0.2,0.3,0.3,0.5c0.1,0.2,0.2,0.5,0.2,0.7c0,0.3,0.1,0.6,0.1,0.9v0.1   C318.7,205,318.7,205.2,318.6,205.5z M317.7,204.1c0-0.2-0.1-0.3-0.1-0.5c-0.1-0.2-0.1-0.4-0.2-0.5s-0.2-0.3-0.4-0.4   c-0.1-0.1-0.2-0.1-0.3-0.1s-0.3-0.1-0.4-0.1c-0.2,0-0.3,0-0.5,0.1c-0.1,0-0.3,0.1-0.4,0.2c-0.1,0.1-0.2,0.2-0.3,0.3   c-0.1,0.1-0.2,0.2-0.2,0.4v2.5c0.1,0.1,0.1,0.2,0.2,0.4c0.1,0.1,0.2,0.2,0.3,0.3c0.1,0.1,0.2,0.1,0.4,0.2c0.1,0,0.3,0.1,0.5,0.1   c0.2,0,0.3,0,0.4-0.1s0.3-0.1,0.4-0.2c0.1-0.1,0.3-0.2,0.4-0.4c0.1-0.2,0.2-0.3,0.2-0.5c0-0.1,0.1-0.3,0.1-0.5c0-0.2,0-0.3,0-0.5   v-0.1C317.7,204.5,317.7,204.3,317.7,204.1z"
   id="path31801" />
	<path
   d="M323.9,201.8v5.7c0,0.4-0.1,0.7-0.2,1c-0.1,0.3-0.2,0.5-0.4,0.7c-0.2,0.2-0.4,0.3-0.7,0.4c-0.3,0.1-0.6,0.2-0.9,0.2   c-0.1,0-0.2,0-0.3,0s-0.2,0-0.3,0c-0.1,0-0.2,0-0.2,0c-0.1,0-0.2,0-0.3,0l0.1-0.8c0.1,0,0.1,0,0.2,0s0.2,0,0.3,0c0.1,0,0.2,0,0.3,0   c0.1,0,0.2,0,0.2,0c0.2,0,0.4,0,0.5-0.1c0.2,0,0.3-0.1,0.4-0.2c0.1-0.1,0.2-0.3,0.3-0.4c0.1-0.2,0.1-0.4,0.1-0.7v-4.9H321v-0.9   H323.9z M322.9,199.9c0.1-0.1,0.2-0.2,0.4-0.2s0.3,0.1,0.4,0.2s0.1,0.2,0.1,0.4c0,0.2,0,0.3-0.1,0.4s-0.2,0.2-0.4,0.2   s-0.3-0.1-0.4-0.2c-0.1-0.1-0.1-0.2-0.1-0.4C322.8,200.2,322.8,200,322.9,199.9z"
   id="path31803" />
	<path
   d="M328.2,207.4c-0.3-0.1-0.6-0.3-0.9-0.6c-0.2-0.2-0.4-0.5-0.6-0.9s-0.2-0.7-0.2-1.1v-0.2c0-0.5,0.1-0.9,0.2-1.2   c0.1-0.4,0.3-0.7,0.6-0.9c0.2-0.2,0.5-0.4,0.8-0.6c0.3-0.1,0.6-0.2,1-0.2c0.4,0,0.8,0.1,1.1,0.2c0.3,0.1,0.6,0.3,0.8,0.6   c0.2,0.3,0.4,0.6,0.5,0.9c0.1,0.3,0.2,0.7,0.2,1.1v0.4h-4.1v0c0,0.3,0.1,0.5,0.2,0.7c0.1,0.2,0.2,0.4,0.4,0.6   c0.2,0.2,0.3,0.3,0.6,0.4c0.2,0.1,0.5,0.1,0.7,0.1c0.3,0,0.7-0.1,0.9-0.2c0.3-0.1,0.5-0.3,0.7-0.6l0.6,0.5   c-0.2,0.3-0.5,0.5-0.9,0.8c-0.4,0.2-0.8,0.3-1.4,0.3C328.9,207.7,328.6,207.6,328.2,207.4z M328.7,202.6c-0.2,0.1-0.3,0.2-0.5,0.3   c-0.1,0.1-0.3,0.3-0.4,0.5s-0.2,0.4-0.2,0.7h3.1v0c0-0.2,0-0.4-0.1-0.6c-0.1-0.2-0.2-0.4-0.3-0.5c-0.1-0.1-0.3-0.3-0.5-0.4   c-0.2-0.1-0.4-0.1-0.6-0.1C329,202.5,328.8,202.6,328.7,202.6z"
   id="path31805" />
	<path
   d="M336.3,206.8c0.2-0.1,0.3-0.1,0.4-0.2c0.1-0.1,0.2-0.2,0.3-0.4c0.1-0.1,0.1-0.3,0.1-0.4h0.9c0,0.3-0.1,0.5-0.2,0.7   c-0.1,0.2-0.3,0.4-0.5,0.6c-0.2,0.2-0.5,0.3-0.7,0.4c-0.3,0.1-0.6,0.2-0.9,0.2c-0.4,0-0.8-0.1-1.1-0.2s-0.6-0.4-0.8-0.6   c-0.2-0.3-0.4-0.6-0.5-0.9c-0.1-0.3-0.2-0.7-0.2-1.1v-0.2c0-0.4,0.1-0.7,0.2-1.1c0.1-0.3,0.3-0.6,0.5-0.9c0.2-0.3,0.5-0.5,0.8-0.6   s0.7-0.2,1.1-0.2c0.3,0,0.6,0.1,0.9,0.2s0.5,0.3,0.7,0.4c0.2,0.2,0.4,0.4,0.5,0.7s0.2,0.5,0.2,0.8h-0.9c0-0.2,0-0.3-0.1-0.5   c-0.1-0.2-0.2-0.3-0.3-0.4c-0.1-0.1-0.3-0.2-0.4-0.3c-0.2-0.1-0.4-0.1-0.6-0.1c-0.3,0-0.6,0.1-0.8,0.2c-0.2,0.1-0.4,0.3-0.5,0.5   c-0.1,0.2-0.2,0.4-0.3,0.7c-0.1,0.2-0.1,0.5-0.1,0.7v0.2c0,0.2,0,0.5,0.1,0.7c0.1,0.2,0.1,0.5,0.3,0.7c0.1,0.2,0.3,0.4,0.5,0.5   c0.2,0.1,0.5,0.2,0.8,0.2C335.9,206.9,336.1,206.8,336.3,206.8z"
   id="path31807" />
	
	<path
   d="m 342.6,201.8 h 2.2 v 0.8 h -2.2 v 3.1 c 0,0.2 0,0.4 0.1,0.5 0.1,0.1 0.1,0.3 0.2,0.3 0.1,0.1 0.2,0.1 0.3,0.2 0.1,0.1 0.3,0.1 0.4,0.1 0.1,0 0.2,0 0.3,0 0.1,0 0.2,0 0.3,0 0.1,0 0.2,0 0.3,-0.1 0.1,0 0.2,0 0.2,-0.1 l 0.1,0.7 c -0.1,0 -0.2,0.1 -0.3,0.1 -0.1,0 -0.2,0.1 -0.4,0.1 -0.1,0 -0.3,0 -0.4,0.1 -0.2,0 -0.3,0 -0.5,0 -0.3,0 -0.5,0 -0.7,-0.1 -0.2,-0.1 -0.4,-0.2 -0.6,-0.3 -0.2,-0.2 -0.3,-0.4 -0.4,-0.6 -0.1,-0.2 -0.1,-0.5 -0.1,-0.9 v -3.1 h -1.5 v -0.8 h 1.5 v -1.4 h 1 v 1.4 z"
   id="path31811" />
	<path
   d="m 348.7,206.4 c 0.1,-0.1 0.3,-0.2 0.6,-0.2 0.3,0 0.4,0.1 0.6,0.2 0.1,0.1 0.2,0.3 0.2,0.5 0,0.2 -0.1,0.4 -0.2,0.5 -0.1,0.1 -0.3,0.2 -0.6,0.2 -0.3,0 -0.4,-0.1 -0.6,-0.2 -0.1,-0.1 -0.2,-0.3 -0.2,-0.5 0,-0.2 0,-0.4 0.2,-0.5 z"
   id="path31813" />
	<path
   d="m 354.7,207.4 c -0.3,-0.1 -0.6,-0.3 -0.9,-0.6 -0.2,-0.2 -0.4,-0.5 -0.6,-0.9 -0.2,-0.4 -0.2,-0.7 -0.2,-1.1 v -0.2 c 0,-0.5 0.1,-0.9 0.2,-1.2 0.1,-0.4 0.3,-0.7 0.6,-0.9 0.2,-0.2 0.5,-0.4 0.8,-0.6 0.3,-0.1 0.6,-0.2 1,-0.2 0.4,0 0.8,0.1 1.1,0.2 0.3,0.1 0.6,0.3 0.8,0.6 0.2,0.3 0.4,0.6 0.5,0.9 0.1,0.3 0.2,0.7 0.2,1.1 v 0.4 H 354 v 0 c 0,0.3 0.1,0.5 0.2,0.7 0.1,0.2 0.2,0.4 0.4,0.6 0.2,0.2 0.3,0.3 0.6,0.4 0.2,0.1 0.5,0.1 0.7,0.1 0.3,0 0.7,-0.1 0.9,-0.2 0.3,-0.1 0.5,-0.3 0.7,-0.6 l 0.6,0.5 c -0.2,0.3 -0.5,0.5 -0.9,0.8 -0.4,0.2 -0.8,0.3 -1.4,0.3 -0.4,0.2 -0.8,0.1 -1.1,-0.1 z m 0.4,-4.8 c -0.2,0.1 -0.3,0.2 -0.5,0.3 -0.1,0.1 -0.3,0.3 -0.4,0.5 -0.1,0.2 -0.2,0.4 -0.2,0.7 h 3.1 v 0 c 0,-0.2 0,-0.4 -0.1,-0.6 -0.1,-0.2 -0.2,-0.4 -0.3,-0.5 -0.1,-0.1 -0.3,-0.3 -0.5,-0.4 -0.2,-0.1 -0.4,-0.1 -0.6,-0.1 -0.1,0 -0.3,0.1 -0.5,0.1 z"
   id="path31815" />
	<path
   d="m 363.6,201.8 h 1.1 l -2.1,2.8 2.2,2.9 h -1.1 l -1.6,-2.2 -1.6,2.2 h -1.1 l 2.2,-2.9 -2.1,-2.8 h 1.1 l 1.5,2.1 z"
   id="path31817" />
	<path
   d="m 368.5,201.8 h 2.2 v 0.8 h -2.2 v 3.1 c 0,0.2 0,0.4 0.1,0.5 0.1,0.1 0.1,0.3 0.2,0.3 0.1,0.1 0.2,0.1 0.3,0.2 0.1,0.1 0.3,0.1 0.4,0.1 0.1,0 0.2,0 0.3,0 0.1,0 0.2,0 0.3,0 0.1,0 0.2,0 0.3,-0.1 0.1,0 0.2,0 0.2,-0.1 l 0.1,0.7 c -0.1,0 -0.2,0.1 -0.3,0.1 -0.1,0 -0.2,0.1 -0.4,0.1 -0.1,0 -0.3,0 -0.4,0.1 -0.2,0 -0.3,0 -0.5,0 -0.3,0 -0.5,0 -0.7,-0.1 -0.2,-0.1 -0.4,-0.2 -0.6,-0.3 -0.2,-0.2 -0.3,-0.4 -0.4,-0.6 -0.1,-0.2 -0.1,-0.5 -0.1,-0.9 v -3.1 h -1.5 v -0.8 h 1.5 v -1.4 h 1 v 1.4 z"
   id="path31819" />
	<path
   d="m 374.1,207.4 c -0.3,-0.1 -0.6,-0.3 -0.9,-0.6 -0.2,-0.2 -0.4,-0.5 -0.6,-0.9 -0.2,-0.4 -0.2,-0.7 -0.2,-1.1 v -0.2 c 0,-0.5 0.1,-0.9 0.2,-1.2 0.1,-0.4 0.3,-0.7 0.6,-0.9 0.2,-0.2 0.5,-0.4 0.8,-0.6 0.3,-0.1 0.6,-0.2 1,-0.2 0.4,0 0.8,0.1 1.1,0.2 0.3,0.1 0.6,0.3 0.8,0.6 0.2,0.3 0.4,0.6 0.5,0.9 0.1,0.3 0.2,0.7 0.2,1.1 v 0.4 h -4.1 v 0 c 0,0.3 0.1,0.5 0.2,0.7 0.1,0.2 0.2,0.4 0.4,0.6 0.2,0.2 0.3,0.3 0.6,0.4 0.2,0.1 0.5,0.1 0.7,0.1 0.3,0 0.7,-0.1 0.9,-0.2 0.3,-0.1 0.5,-0.3 0.7,-0.6 l 0.6,0.5 c -0.2,0.3 -0.5,0.5 -0.9,0.8 -0.4,0.2 -0.8,0.3 -1.4,0.3 -0.5,0.2 -0.8,0.1 -1.2,-0.1 z m 0.5,-4.8 c -0.2,0.1 -0.3,0.2 -0.5,0.3 -0.1,0.1 -0.3,0.3 -0.4,0.5 -0.1,0.2 -0.2,0.4 -0.2,0.7 h 3.1 v 0 c 0,-0.2 0,-0.4 -0.1,-0.6 -0.1,-0.2 -0.2,-0.4 -0.3,-0.5 -0.1,-0.1 -0.3,-0.3 -0.5,-0.4 -0.2,-0.1 -0.4,-0.1 -0.6,-0.1 -0.2,0 -0.4,0.1 -0.5,0.1 z"
   id="path31821" />
	<path
   d="m 379.2,201.8 h 0.9 l 0.1,0.8 c 0.1,-0.1 0.2,-0.2 0.3,-0.3 0.1,-0.1 0.2,-0.2 0.3,-0.3 0.2,-0.1 0.4,-0.2 0.6,-0.3 0.2,-0.1 0.4,-0.1 0.6,-0.1 0.3,0 0.6,0 0.8,0.1 0.2,0.1 0.5,0.2 0.6,0.4 0.2,0.2 0.3,0.4 0.4,0.7 0.1,0.3 0.1,0.6 0.1,1 v 3.6 h -1 v -3.6 c 0,-0.3 0,-0.5 -0.1,-0.6 -0.1,-0.2 -0.1,-0.3 -0.2,-0.4 -0.1,-0.1 -0.2,-0.2 -0.4,-0.2 -0.2,0 -0.3,-0.1 -0.6,-0.1 -0.2,0 -0.3,0 -0.5,0.1 -0.2,0.1 -0.3,0.1 -0.4,0.2 -0.1,0.1 -0.2,0.2 -0.3,0.3 -0.1,0.1 -0.2,0.2 -0.2,0.3 v 4.1 h -1 z"
   id="path31823" />
	<path
   d="m 389.4,205.7 c 0,-0.1 -0.1,-0.2 -0.2,-0.3 -0.1,-0.1 -0.3,-0.1 -0.4,-0.2 -0.2,-0.1 -0.4,-0.1 -0.7,-0.2 -0.3,-0.1 -0.6,-0.1 -0.9,-0.2 -0.3,-0.1 -0.5,-0.2 -0.7,-0.3 -0.2,-0.1 -0.3,-0.3 -0.4,-0.5 -0.1,-0.2 -0.2,-0.4 -0.2,-0.6 0,-0.2 0.1,-0.4 0.2,-0.7 0.1,-0.2 0.3,-0.4 0.5,-0.5 0.2,-0.2 0.4,-0.3 0.7,-0.4 0.3,-0.1 0.6,-0.1 0.9,-0.1 0.4,0 0.7,0 1,0.1 0.3,0.1 0.5,0.2 0.7,0.4 0.2,0.2 0.3,0.4 0.5,0.6 0.1,0.2 0.2,0.4 0.2,0.7 h -1 c 0,-0.1 0,-0.2 -0.1,-0.4 -0.1,-0.1 -0.2,-0.2 -0.3,-0.3 -0.1,-0.1 -0.2,-0.2 -0.4,-0.2 -0.2,0 -0.3,-0.1 -0.5,-0.1 -0.2,0 -0.4,0 -0.5,0.1 -0.2,0 -0.3,0.1 -0.4,0.2 -0.1,0.1 -0.2,0.2 -0.2,0.3 -0.1,0.1 -0.1,0.2 -0.1,0.3 0,0.1 0,0.2 0.1,0.3 0.1,0.1 0.1,0.2 0.2,0.2 0.1,0.1 0.2,0.1 0.4,0.2 0.2,0.1 0.4,0.1 0.7,0.2 0.4,0.1 0.7,0.2 0.9,0.3 0.2,0.1 0.5,0.2 0.7,0.3 0.2,0.1 0.3,0.3 0.4,0.5 0.1,0.2 0.2,0.4 0.2,0.6 0,0.3 -0.1,0.5 -0.2,0.7 -0.1,0.2 -0.3,0.4 -0.5,0.5 -0.2,0.1 -0.4,0.3 -0.7,0.3 -0.3,0.1 -0.6,0.1 -0.9,0.1 -0.4,0 -0.7,-0.1 -1,-0.2 -0.3,-0.1 -0.6,-0.2 -0.8,-0.4 -0.2,-0.2 -0.4,-0.4 -0.5,-0.6 -0.1,-0.2 -0.2,-0.5 -0.2,-0.7 h 1 c 0,0.2 0.1,0.4 0.2,0.5 0.1,0.1 0.2,0.2 0.4,0.3 0.1,0.1 0.3,0.1 0.5,0.2 0.2,0.1 0.3,0.1 0.5,0.1 0.3,0 0.5,0 0.7,-0.1 0.2,-0.1 0.3,-0.1 0.5,-0.3 0.1,-0.1 0.1,-0.1 0.2,-0.2 0,-0.1 0.1,-0.2 0.1,-0.3 -0.5,0 -0.5,-0.1 -0.6,-0.2 z"
   id="path31825" />
	<path
   d="m 395.3,201.8 v 4.9 h 1.9 v 0.8 h -4.8 v -0.8 h 1.9 v -4 h -1.9 v -0.9 z m -1.1,-1.7 c 0,-0.1 0.1,-0.1 0.1,-0.2 0,0 0.1,-0.1 0.2,-0.1 0.1,0 0.2,0 0.2,0 0.1,0 0.2,0 0.2,0 0.1,0 0.1,0.1 0.2,0.1 0.1,0 0.1,0.1 0.1,0.2 0,0.1 0,0.2 0,0.2 0,0.2 0,0.3 -0.1,0.4 -0.1,0.1 -0.2,0.2 -0.4,0.2 -0.2,0 -0.3,-0.1 -0.4,-0.2 -0.1,-0.1 -0.1,-0.2 -0.1,-0.4 -0.1,0 0,-0.1 0,-0.2 z"
   id="path31827" />
	<path
   d="m 398.6,203.5 c 0.1,-0.4 0.3,-0.7 0.5,-0.9 0.2,-0.3 0.5,-0.5 0.8,-0.6 0.3,-0.1 0.7,-0.2 1.1,-0.2 0.4,0 0.8,0.1 1.1,0.2 0.3,0.1 0.6,0.4 0.8,0.6 0.2,0.3 0.4,0.6 0.5,0.9 0.1,0.4 0.2,0.7 0.2,1.1 v 0.1 c 0,0.4 -0.1,0.8 -0.2,1.1 -0.1,0.4 -0.3,0.7 -0.5,0.9 -0.2,0.3 -0.5,0.5 -0.8,0.6 -0.3,0.1 -0.7,0.2 -1.1,0.2 -0.4,0 -0.8,-0.1 -1.1,-0.2 -0.3,-0.1 -0.6,-0.4 -0.8,-0.6 -0.2,-0.3 -0.4,-0.6 -0.5,-0.9 -0.1,-0.4 -0.2,-0.7 -0.2,-1.1 v -0.1 c 0,-0.4 0,-0.8 0.2,-1.1 z m 0.9,2.1 c 0.1,0.3 0.2,0.5 0.3,0.7 0.1,0.2 0.3,0.3 0.5,0.5 0.2,0.2 0.4,0.2 0.7,0.2 0.3,0 0.5,-0.1 0.7,-0.2 0.2,-0.1 0.4,-0.3 0.5,-0.5 0.1,-0.2 0.2,-0.4 0.3,-0.7 0.1,-0.3 0.1,-0.5 0.1,-0.8 v -0.1 c 0,-0.3 0,-0.5 -0.1,-0.8 -0.1,-0.3 -0.2,-0.5 -0.3,-0.7 -0.1,-0.2 -0.3,-0.3 -0.5,-0.5 -0.2,-0.1 -0.4,-0.2 -0.7,-0.2 -0.3,0 -0.5,0.1 -0.7,0.2 -0.2,0.1 -0.4,0.3 -0.5,0.5 -0.1,0.2 -0.2,0.4 -0.3,0.7 -0.1,0.3 -0.1,0.5 -0.1,0.8 v 0.1 c 0,0.2 0,0.5 0.1,0.8 z"
   id="path31829" />
	<path
   d="m 405.2,201.8 h 0.9 l 0.1,0.8 c 0.1,-0.1 0.2,-0.2 0.3,-0.3 0.1,-0.1 0.2,-0.2 0.3,-0.3 0.2,-0.1 0.4,-0.2 0.6,-0.3 0.2,-0.1 0.4,-0.1 0.6,-0.1 0.3,0 0.6,0 0.8,0.1 0.2,0.1 0.5,0.2 0.6,0.4 0.2,0.2 0.3,0.4 0.4,0.7 0.1,0.3 0.1,0.6 0.1,1 v 3.6 h -1 v -3.6 c 0,-0.3 0,-0.5 -0.1,-0.6 -0.1,-0.2 -0.1,-0.3 -0.2,-0.4 -0.1,-0.1 -0.2,-0.2 -0.4,-0.2 -0.2,0 -0.3,-0.1 -0.6,-0.1 -0.2,0 -0.3,0 -0.5,0.1 -0.2,0.1 -0.3,0.1 -0.4,0.2 -0.1,0.1 -0.2,0.2 -0.3,0.3 -0.1,0.1 -0.2,0.2 -0.2,0.3 v 4.1 h -1 z"
   id="path31831" />
	<path
   d="m 413.7,200.6 c 0,0.2 -0.1,0.4 -0.2,0.5 -0.1,0.2 -0.2,0.4 -0.3,0.5 -0.1,0.2 -0.2,0.3 -0.4,0.4 l -0.5,-0.4 c 0.2,-0.2 0.3,-0.5 0.4,-0.8 0.1,-0.3 0.1,-0.5 0.1,-0.8 v -0.8 h 1 v 0.8 c 0,0.3 -0.1,0.4 -0.1,0.6 z m 1.8,0 c 0,0.2 -0.1,0.4 -0.2,0.5 -0.1,0.2 -0.2,0.4 -0.3,0.5 -0.1,0.2 -0.2,0.3 -0.4,0.4 l -0.5,-0.4 c 0.2,-0.2 0.3,-0.5 0.4,-0.8 0.1,-0.3 0.1,-0.5 0.1,-0.8 v -0.8 h 1 v 0.8 c -0.1,0.3 -0.1,0.4 -0.1,0.6 z"
   id="path31833" />
	<path
   d="m 421.6,205.9 c -0.1,0.4 -0.2,0.9 -0.3,1.2 -0.1,0.4 -0.3,0.7 -0.5,1 -0.2,0.3 -0.4,0.6 -0.5,0.8 -0.2,0.2 -0.4,0.5 -0.6,0.6 -0.2,0.2 -0.4,0.3 -0.6,0.4 l -0.2,-0.6 c 0.1,-0.1 0.3,-0.2 0.4,-0.4 0.1,-0.2 0.3,-0.4 0.4,-0.6 0.1,-0.2 0.3,-0.5 0.4,-0.8 0.1,-0.3 0.2,-0.6 0.3,-0.9 0.1,-0.3 0.1,-0.7 0.2,-1 0.1,-0.3 0.1,-0.8 0.1,-1.2 v -0.1 c 0,-0.5 0,-0.9 -0.1,-1.3 -0.1,-0.4 -0.1,-0.7 -0.2,-1 -0.1,-0.4 -0.2,-0.7 -0.4,-1 -0.1,-0.3 -0.3,-0.6 -0.4,-0.8 -0.1,-0.2 -0.2,-0.3 -0.4,-0.5 -0.1,-0.1 -0.2,-0.3 -0.4,-0.3 l 0.2,-0.6 c 0.2,0.1 0.4,0.2 0.6,0.4 0.2,0.2 0.4,0.4 0.6,0.6 0.2,0.2 0.4,0.5 0.6,0.8 0.2,0.3 0.3,0.7 0.5,1 0.1,0.4 0.2,0.8 0.3,1.2 0.1,0.4 0.1,0.9 0.1,1.5 v 0.1 c 0,0.6 -0.1,1.1 -0.1,1.5 z"
   id="path31835" />
	<path
   d="m 424.6,203.4 v -0.9 h 4.7 v 0.9 z m 0,2.2 v -0.8 h 4.7 v 0.8 z"
   id="path31837" />
	<path
   d="m 432.1,204 v 2.7 h 3.7 v 0.8 h -4.7 v -7.7 h 4.7 v 0.8 h -3.7 v 2.5 h 3.2 v 0.8 h -3.2 z"
   id="path31839" />
	<path
   d="m 438.6,204.4 v 3.1 h -1 v -7.7 h 2.3 c 0.4,0 0.7,0.1 1,0.2 0.3,0.1 0.6,0.2 0.8,0.4 0.2,0.2 0.4,0.4 0.6,0.7 0.1,0.3 0.2,0.6 0.2,1 0,0.2 0,0.5 -0.1,0.7 -0.1,0.2 -0.2,0.4 -0.3,0.6 -0.1,0.2 -0.3,0.3 -0.5,0.4 -0.2,0.1 -0.4,0.2 -0.6,0.3 l 1.6,3.3 v 0.1 h -1 l -1.5,-3.1 z m 1.3,-0.8 c 0.2,0 0.4,0 0.6,-0.1 0.2,-0.1 0.4,-0.2 0.5,-0.3 0.1,-0.1 0.3,-0.3 0.3,-0.5 0,-0.2 0.1,-0.4 0.1,-0.6 0,-0.2 0,-0.5 -0.1,-0.6 -0.1,-0.2 -0.2,-0.3 -0.3,-0.5 -0.1,-0.1 -0.3,-0.2 -0.5,-0.3 -0.2,-0.1 -0.4,-0.1 -0.7,-0.1 h -1.3 v 2.9 h 1.4 z"
   id="path31841" />
	<path
   d="m 445.2,205.6 -0.6,2 h -1 l 2.5,-7.7 h 0.8 l 2.4,7.7 h -1 l -0.6,-2 z m 2.3,-0.9 -1,-3.3 -1,3.3 z"
   id="path31843" />
	<path
   d="m 454.4,205 c -0.1,-0.2 -0.2,-0.3 -0.4,-0.4 -0.2,-0.1 -0.4,-0.2 -0.6,-0.3 -0.2,-0.1 -0.4,-0.1 -0.6,-0.2 -0.3,-0.1 -0.5,-0.2 -0.8,-0.3 -0.3,-0.1 -0.5,-0.3 -0.8,-0.5 -0.2,-0.2 -0.4,-0.4 -0.6,-0.6 -0.2,-0.2 -0.2,-0.5 -0.2,-0.9 0,-0.4 0.1,-0.6 0.2,-0.9 0.1,-0.3 0.3,-0.5 0.6,-0.7 0.2,-0.2 0.5,-0.3 0.8,-0.4 0.3,-0.1 0.6,-0.1 0.9,-0.1 0.3,0 0.7,0.1 1,0.2 0.3,0.1 0.6,0.3 0.8,0.5 0.2,0.2 0.4,0.4 0.6,0.7 0.1,0.3 0.2,0.6 0.2,1 h -1 c 0,-0.2 -0.1,-0.4 -0.2,-0.6 -0.1,-0.2 -0.2,-0.3 -0.3,-0.5 -0.1,-0.1 -0.3,-0.2 -0.5,-0.3 -0.2,-0.1 -0.4,-0.1 -0.6,-0.1 -0.2,0 -0.4,0 -0.5,0.1 -0.2,0.1 -0.3,0.1 -0.5,0.2 -0.1,0.1 -0.3,0.2 -0.3,0.4 -0.1,0.2 -0.1,0.3 -0.1,0.5 0,0.2 0.1,0.4 0.2,0.6 0.1,0.2 0.2,0.3 0.4,0.4 0.2,0.1 0.3,0.2 0.5,0.3 0.2,0.1 0.4,0.1 0.6,0.2 0.3,0.1 0.6,0.2 0.9,0.3 0.3,0.1 0.5,0.3 0.8,0.5 0.2,0.2 0.4,0.4 0.6,0.7 0.1,0.3 0.2,0.6 0.2,0.9 0,0.3 -0.1,0.6 -0.2,0.9 -0.2,0.3 -0.4,0.5 -0.6,0.6 -0.2,0.2 -0.5,0.3 -0.8,0.4 -0.3,0.1 -0.6,0.1 -0.9,0.1 -0.4,0 -0.7,-0.1 -1.1,-0.2 -0.4,-0.1 -0.7,-0.3 -0.9,-0.5 -0.2,-0.2 -0.4,-0.4 -0.6,-0.7 -0.2,-0.3 -0.2,-0.6 -0.2,-0.9 h 1 c 0,0.2 0.1,0.5 0.2,0.6 0.1,0.2 0.2,0.3 0.4,0.5 0.2,0.1 0.3,0.2 0.5,0.3 0.2,0.1 0.4,0.1 0.7,0.1 0.2,0 0.4,0 0.6,-0.1 0.2,0 0.3,-0.1 0.5,-0.2 0.1,-0.1 0.3,-0.2 0.4,-0.4 0.1,-0.2 0.1,-0.3 0.1,-0.5 -0.2,-0.3 -0.3,-0.5 -0.4,-0.7 z"
   id="path31845" />
	<path
   d="m 461.9,205.1 c 0,0.4 -0.1,0.7 -0.2,1 -0.1,0.3 -0.3,0.6 -0.5,0.8 -0.2,0.2 -0.5,0.4 -0.8,0.6 -0.3,0.1 -0.6,0.2 -1,0.2 -0.4,0 -0.7,-0.1 -1,-0.2 -0.3,-0.1 -0.6,-0.3 -0.8,-0.6 -0.2,-0.2 -0.4,-0.5 -0.5,-0.8 -0.1,-0.3 -0.2,-0.7 -0.2,-1 v -5.2 h 0.9 v 5.2 c 0,0.2 0,0.4 0.1,0.7 0.1,0.2 0.2,0.4 0.3,0.6 0.1,0.2 0.3,0.3 0.5,0.4 0.2,0.1 0.4,0.1 0.7,0.1 0.2,0 0.5,0 0.7,-0.1 0.2,-0.1 0.4,-0.2 0.5,-0.4 0.1,-0.2 0.2,-0.3 0.3,-0.6 0.1,-0.2 0.1,-0.4 0.1,-0.7 v -5.2 h 0.9 z"
   id="path31847" />
	<path
   d="m 464.5,204.4 v 3.1 h -1 v -7.7 h 2.3 c 0.4,0 0.7,0.1 1,0.2 0.3,0.1 0.6,0.2 0.8,0.4 0.2,0.2 0.4,0.4 0.6,0.7 0.1,0.3 0.2,0.6 0.2,1 0,0.2 0,0.5 -0.1,0.7 -0.1,0.2 -0.2,0.4 -0.3,0.6 -0.1,0.2 -0.3,0.3 -0.5,0.4 -0.2,0.1 -0.4,0.2 -0.6,0.3 l 1.6,3.3 v 0.1 h -1 l -1.5,-3.1 z m 1.3,-0.8 c 0.2,0 0.4,0 0.6,-0.1 0.2,-0.1 0.4,-0.2 0.5,-0.3 0.1,-0.1 0.3,-0.3 0.3,-0.5 0,-0.2 0.1,-0.4 0.1,-0.6 0,-0.2 0,-0.5 -0.1,-0.6 -0.1,-0.2 -0.2,-0.3 -0.3,-0.5 -0.1,-0.1 -0.3,-0.2 -0.5,-0.3 -0.2,-0.1 -0.4,-0.1 -0.7,-0.1 h -1.3 v 2.9 h 1.4 z"
   id="path31849" />
	<path
   d="m 471,204 v 2.7 h 3.7 v 0.8 H 470 v -7.7 h 4.7 v 0.8 H 471 v 2.5 h 3.2 v 0.8 H 471 Z"
   id="path31851" />
	<path
   d="m 486.9,205 c -0.1,-0.2 -0.2,-0.3 -0.4,-0.4 -0.2,-0.1 -0.4,-0.2 -0.6,-0.3 -0.2,-0.1 -0.4,-0.1 -0.6,-0.2 -0.3,-0.1 -0.5,-0.2 -0.8,-0.3 -0.3,-0.1 -0.5,-0.3 -0.8,-0.5 -0.2,-0.2 -0.4,-0.4 -0.6,-0.6 -0.2,-0.2 -0.2,-0.5 -0.2,-0.9 0,-0.4 0.1,-0.6 0.2,-0.9 0.1,-0.3 0.3,-0.5 0.6,-0.7 0.2,-0.2 0.5,-0.3 0.8,-0.4 0.3,-0.1 0.6,-0.1 0.9,-0.1 0.3,0 0.7,0.1 1,0.2 0.3,0.1 0.6,0.3 0.8,0.5 0.2,0.2 0.4,0.4 0.6,0.7 0.1,0.3 0.2,0.6 0.2,1 h -1 c 0,-0.2 -0.1,-0.4 -0.2,-0.6 -0.1,-0.2 -0.2,-0.3 -0.3,-0.5 -0.1,-0.1 -0.3,-0.2 -0.5,-0.3 -0.2,-0.1 -0.4,-0.1 -0.6,-0.1 -0.2,0 -0.4,0 -0.5,0.1 -0.2,0.1 -0.3,0.1 -0.5,0.2 -0.1,0.1 -0.3,0.2 -0.3,0.4 -0.1,0.2 -0.1,0.3 -0.1,0.5 0,0.2 0.1,0.4 0.2,0.6 0.1,0.2 0.2,0.3 0.4,0.4 0.2,0.1 0.3,0.2 0.5,0.3 0.2,0.1 0.4,0.1 0.6,0.2 0.3,0.1 0.6,0.2 0.9,0.3 0.3,0.1 0.5,0.3 0.8,0.5 0.2,0.2 0.4,0.4 0.6,0.7 0.1,0.3 0.2,0.6 0.2,0.9 0,0.3 -0.1,0.6 -0.2,0.9 -0.2,0.3 -0.4,0.5 -0.6,0.6 -0.2,0.2 -0.5,0.3 -0.8,0.4 -0.3,0.1 -0.6,0.1 -0.9,0.1 -0.4,0 -0.7,-0.1 -1.1,-0.2 -0.4,-0.1 -0.7,-0.3 -0.9,-0.5 -0.2,-0.2 -0.4,-0.4 -0.6,-0.7 -0.2,-0.3 -0.2,-0.6 -0.2,-0.9 h 1 c 0,0.2 0.1,0.5 0.2,0.6 0.1,0.2 0.2,0.3 0.4,0.5 0.2,0.1 0.3,0.2 0.5,0.3 0.2,0.1 0.4,0.1 0.7,0.1 0.2,0 0.4,0 0.6,-0.1 0.2,0 0.3,-0.1 0.5,-0.2 0.1,-0.1 0.3,-0.2 0.4,-0.4 0.1,-0.2 0.1,-0.3 0.1,-0.5 -0.3,-0.3 -0.3,-0.5 -0.4,-0.7 z"
   id="path31853" />
	<path
   d="m 490.5,204 v 2.7 h 3.7 v 0.8 h -4.7 v -7.7 h 4.7 v 0.8 h -3.7 v 2.5 h 3.2 v 0.8 h -3.2 z"
   id="path31855" />
	<path
   d="m 498.8,200.7 v 6.9 h -0.9 v -6.9 h -2.4 v -0.8 h 5.7 v 0.8 z"
   id="path31857" />
	<path
   d="m 511.1,207.5 v -6.4 l -2,0.8 V 201 l 2.9,-1.1 h 0.1 v 7.7 h -1 z"
   id="path31859" />
</g>
<path
   id="rect31863"
   class="st21"
   style="fill:none;stroke:#cf2144;stroke-miterlimit:10"
   d="M 105.9,183.7 H 539.50001 V 223 H 105.9 Z" />
<path
   id="rect31865"
   class="st11"
   style="fill:#cf2144"
   d="m 197.60001,90.300003 h 250.1 V 143.2 h -250.1 z" />
<g
   id="g31883">
	<g
   id="g31881">
		<g
   id="g31879">
			<g
   id="g31873">
				<path
   id="rect31867"
   class="st12"
   style="fill:#ffffff"
   d="m 308.60001,111.9 h 4.5 v 11.7 h -4.5 z" />
				<path
   class="st12"
   d="M303.1,112.1L294,117c-0.1,0.1-0.3,0.1-0.4,0l-9.1-4.9c-0.2-0.1-0.4-0.2-0.7-0.2h0c-0.7,0-1.2,0.5-1.2,1.1      l0,10.6h4.5v-5c0-0.3,0.4-0.5,0.7-0.3l5.1,2.8c0.5,0.3,1.1,0.3,1.6,0l5.4-2.8c0.3-0.2,0.7,0,0.7,0.3v5.1l4.5,0V113      c0-0.6-0.6-1.1-1.2-1.1h0C303.6,111.9,303.3,112,303.1,112.1z"
   id="path31869" />
				<path
   class="st12"
   d="M335.5,111.9l-4.6,0v5.3c0,0.3-0.4,0.5-0.7,0.3l-11.8-5.6c-0.2-0.1-0.4-0.1-0.6-0.1h0      c-0.7,0-1.2,0.5-1.2,1.1v10.6l4.5,0v-5.3c0-0.3,0.4-0.5,0.7-0.4l11.8,5.5c0.2,0.1,0.4,0.1,0.6,0.1l0,0c0.7,0,1.2-0.5,1.2-1.1      V111.9z"
   id="path31871" />
			</g>
			<path
   class="st12"
   d="M339,123.6v-11.7h2.1l0,11.7L339,123.6z"
   id="path31875" />
			<path
   class="st12"
   d="M353.2,123.8c-5.6,0-9.5-2.3-9.5-6.1c0-3.7,4-6.1,9.5-6.1s9.5,2.3,9.5,6.1     C362.7,121.5,358.9,123.8,353.2,123.8z M353.2,113.2c-4.1,0-7.3,1.6-7.3,4.5c0,2.9,3.2,4.5,7.3,4.5c4.1,0,7.3-1.6,7.3-4.5     C360.6,114.8,357.4,113.2,353.2,113.2z"
   id="path31877" />
		</g>
	</g>
</g>
<path
   id="polyline31885"
   class="st2"
   style="fill:#1b1717"
   d="m 323,85.4 h 2.2 l -2.5,4.4 -2.6,-4.4 h 1.9" />
<path
   id="line31887"
   class="st26"
   style="fill:none;stroke:#1b1717;stroke-miterlimit:10"
   d="M 322.70001,39.700001 V 85.400002" />
<path
   id="polyline31889"
   class="st2"
   style="fill:#1b1717"
   d="m 172.7,301.2 h 2.2 l -2.6,4.4 -2.5,-4.4 h 1.9" />
<path
   id="polyline31891"
   class="st26"
   style="fill:none;stroke:#1b1717;stroke-miterlimit:10"
   d="M 172.3,301.2 V 262.4 H 322.7" />
<path
   id="rect31893"
   class="st4"
   style="fill:#577f9a"
   d="M 44.299999,304.39999 H 294.40001 V 357.3 H 44.299999 Z" />
<g
   id="g31917">
	<path
   class="st12"
   d="M110.4,334.9v-10.7h7.2v1.9h-5v2.6h4.6v1.9h-4.6v2.6h5v1.9H110.4z"
   id="path31895" />
	<path
   class="st12"
   d="M119.4,334.9v-10.7h4.2c0.8,0,1.5,0.1,2.1,0.4c0.6,0.3,1,0.7,1.3,1.2c0.3,0.5,0.5,1.1,0.5,1.9   c0,0.7-0.2,1.3-0.5,1.8s-0.8,0.9-1.3,1.2c-0.6,0.3-1.3,0.4-2.1,0.4h-2.8v-1.8h2.5c0.4,0,0.8-0.1,1.1-0.2s0.5-0.3,0.6-0.5   s0.2-0.5,0.2-0.9c0-0.4-0.1-0.7-0.2-0.9c-0.1-0.2-0.4-0.4-0.6-0.6c-0.3-0.1-0.6-0.2-1.1-0.2h-1.5v8.9H119.4z M125.2,330l2.7,4.9   h-2.5l-2.6-4.9H125.2z"
   id="path31897" />
	<path
   class="st12"
   d="M130.9,334.9h-2.4l3.7-10.7h2.9l3.7,10.7h-2.4l-2.7-8.3h-0.1L130.9,334.9z M130.8,330.7h5.7v1.8h-5.7V330.7z"
   id="path31899" />
	<path
   class="st12"
   d="M145.7,327.3c0-0.4-0.2-0.8-0.5-1c-0.3-0.2-0.7-0.4-1.3-0.4c-0.4,0-0.7,0.1-0.9,0.2c-0.3,0.1-0.4,0.2-0.6,0.4   s-0.2,0.4-0.2,0.6c0,0.2,0,0.4,0.1,0.5s0.2,0.3,0.4,0.4c0.2,0.1,0.3,0.2,0.5,0.3c0.2,0.1,0.4,0.1,0.7,0.2l1,0.2   c0.5,0.1,0.9,0.2,1.3,0.4s0.7,0.4,1,0.6c0.3,0.3,0.5,0.6,0.7,0.9c0.2,0.3,0.2,0.7,0.2,1.2c0,0.7-0.2,1.2-0.5,1.7   c-0.3,0.5-0.8,0.9-1.4,1.1c-0.6,0.3-1.4,0.4-2.2,0.4c-0.9,0-1.6-0.1-2.3-0.4c-0.6-0.3-1.1-0.7-1.5-1.2s-0.5-1.2-0.6-1.9h2.2   c0,0.4,0.1,0.7,0.3,0.9c0.2,0.2,0.4,0.4,0.7,0.5c0.3,0.1,0.7,0.2,1,0.2c0.4,0,0.7-0.1,1-0.2c0.3-0.1,0.5-0.3,0.7-0.5   c0.2-0.2,0.2-0.4,0.2-0.7c0-0.2-0.1-0.4-0.2-0.6c-0.1-0.2-0.3-0.3-0.6-0.4s-0.6-0.2-1-0.3l-1.2-0.3c-0.9-0.2-1.6-0.6-2.1-1   c-0.5-0.5-0.8-1.1-0.8-1.9c0-0.6,0.2-1.2,0.5-1.7s0.8-0.9,1.4-1.1c0.6-0.3,1.3-0.4,2.1-0.4c0.8,0,1.5,0.1,2.1,0.4   c0.6,0.3,1.1,0.7,1.4,1.1s0.5,1,0.5,1.7H145.7z"
   id="path31901" />
	<path
   class="st12"
   d="M156.1,324.2h2.3v7c0,0.8-0.2,1.5-0.6,2.1c-0.4,0.6-0.9,1-1.6,1.4c-0.7,0.3-1.4,0.5-2.3,0.5   c-0.9,0-1.7-0.2-2.3-0.5c-0.7-0.3-1.2-0.8-1.6-1.4c-0.4-0.6-0.6-1.3-0.6-2.1v-7h2.3v6.8c0,0.4,0.1,0.8,0.3,1.1   c0.2,0.3,0.4,0.6,0.8,0.7c0.3,0.2,0.7,0.3,1.1,0.3c0.4,0,0.8-0.1,1.1-0.3c0.3-0.2,0.6-0.4,0.8-0.7c0.2-0.3,0.3-0.7,0.3-1.1V324.2z"
   id="path31903" />
	<path
   class="st12"
   d="M160.3,334.9v-10.7h4.2c0.8,0,1.5,0.1,2.1,0.4c0.6,0.3,1,0.7,1.3,1.2c0.3,0.5,0.5,1.1,0.5,1.9   c0,0.7-0.2,1.3-0.5,1.8s-0.8,0.9-1.3,1.2c-0.6,0.3-1.3,0.4-2.1,0.4h-2.8v-1.8h2.5c0.4,0,0.8-0.1,1.1-0.2s0.5-0.3,0.6-0.5   s0.2-0.5,0.2-0.9c0-0.4-0.1-0.7-0.2-0.9c-0.1-0.2-0.4-0.4-0.6-0.6c-0.3-0.1-0.6-0.2-1.1-0.2h-1.5v8.9H160.3z M166.1,330l2.7,4.9   h-2.5l-2.6-4.9H166.1z"
   id="path31905" />
	<path
   class="st12"
   d="M169.9,334.9v-10.7h7.2v1.9h-5v2.6h4.6v1.9h-4.6v2.6h5v1.9H169.9z"
   id="path31907" />
	<path
   class="st12"
   d="M188.2,327.3c0-0.4-0.2-0.8-0.5-1c-0.3-0.2-0.7-0.4-1.3-0.4c-0.4,0-0.7,0.1-0.9,0.2c-0.3,0.1-0.4,0.2-0.6,0.4   s-0.2,0.4-0.2,0.6c0,0.2,0,0.4,0.1,0.5s0.2,0.3,0.4,0.4c0.2,0.1,0.3,0.2,0.5,0.3c0.2,0.1,0.4,0.1,0.7,0.2l1,0.2   c0.5,0.1,0.9,0.2,1.3,0.4s0.7,0.4,1,0.6c0.3,0.3,0.5,0.6,0.7,0.9c0.2,0.3,0.2,0.7,0.2,1.2c0,0.7-0.2,1.2-0.5,1.7   c-0.3,0.5-0.8,0.9-1.4,1.1c-0.6,0.3-1.4,0.4-2.2,0.4c-0.9,0-1.6-0.1-2.3-0.4c-0.6-0.3-1.1-0.7-1.5-1.2s-0.5-1.2-0.6-1.9h2.2   c0,0.4,0.1,0.7,0.3,0.9c0.2,0.2,0.4,0.4,0.7,0.5c0.3,0.1,0.7,0.2,1,0.2c0.4,0,0.7-0.1,1-0.2c0.3-0.1,0.5-0.3,0.7-0.5   c0.2-0.2,0.2-0.4,0.2-0.7c0-0.2-0.1-0.4-0.2-0.6c-0.1-0.2-0.3-0.3-0.6-0.4s-0.6-0.2-1-0.3l-1.2-0.3c-0.9-0.2-1.6-0.6-2.1-1   c-0.5-0.5-0.8-1.1-0.8-1.9c0-0.6,0.2-1.2,0.5-1.7s0.8-0.9,1.4-1.1c0.6-0.3,1.3-0.4,2.1-0.4c0.8,0,1.5,0.1,2.1,0.4   c0.6,0.3,1.1,0.7,1.4,1.1s0.5,1,0.5,1.7H188.2z"
   id="path31909" />
	<path
   class="st12"
   d="M192,334.9v-10.7h7.2v1.9h-5v2.6h4.6v1.9h-4.6v2.6h5v1.9H192z"
   id="path31911" />
	<path
   class="st12"
   d="M200.7,326.1v-1.9h8.8v1.9h-3.3v8.9h-2.2v-8.9H200.7z"
   id="path31913" />
	<path
   class="st12"
   d="M218.9,324.2v10.7h-2.3v-8.6h-0.1l-2.5,1.5v-2l2.7-1.7H218.9z"
   id="path31915" />
</g>
<path
   id="rect31919"
   class="st4"
   style="fill:#577f9a"
   d="M 352.70001,304.39999 H 602.80002 V 357.3 H 352.70001 Z" />
<g
   id="g31943">
	<path
   class="st12"
   d="M417.8,334.9v-10.7h7.2v1.9h-5v2.6h4.6v1.9H420v2.6h5v1.9H417.8z"
   id="path31921" />
	<path
   class="st12"
   d="M426.8,334.9v-10.7h4.2c0.8,0,1.5,0.1,2.1,0.4c0.6,0.3,1,0.7,1.3,1.2c0.3,0.5,0.5,1.1,0.5,1.9   c0,0.7-0.2,1.3-0.5,1.8s-0.8,0.9-1.3,1.2c-0.6,0.3-1.3,0.4-2.1,0.4h-2.8v-1.8h2.5c0.4,0,0.8-0.1,1.1-0.2s0.5-0.3,0.6-0.5   s0.2-0.5,0.2-0.9c0-0.4-0.1-0.7-0.2-0.9c-0.1-0.2-0.4-0.4-0.6-0.6c-0.3-0.1-0.6-0.2-1.1-0.2h-1.5v8.9H426.8z M432.6,330l2.7,4.9   h-2.5l-2.6-4.9H432.6z"
   id="path31923" />
	<path
   class="st12"
   d="M438.3,334.9h-2.4l3.7-10.7h2.9l3.7,10.7h-2.4l-2.7-8.3H441L438.3,334.9z M438.2,330.7h5.7v1.8h-5.7V330.7z"
   id="path31925" />
	<path
   class="st12"
   d="M453,327.3c0-0.4-0.2-0.8-0.5-1c-0.3-0.2-0.7-0.4-1.3-0.4c-0.4,0-0.7,0.1-0.9,0.2c-0.3,0.1-0.4,0.2-0.6,0.4   s-0.2,0.4-0.2,0.6c0,0.2,0,0.4,0.1,0.5s0.2,0.3,0.4,0.4c0.2,0.1,0.3,0.2,0.5,0.3c0.2,0.1,0.4,0.1,0.7,0.2l1,0.2   c0.5,0.1,0.9,0.2,1.3,0.4s0.7,0.4,1,0.6c0.3,0.3,0.5,0.6,0.7,0.9c0.2,0.3,0.2,0.7,0.2,1.2c0,0.7-0.2,1.2-0.5,1.7   c-0.3,0.5-0.8,0.9-1.4,1.1c-0.6,0.3-1.4,0.4-2.2,0.4c-0.9,0-1.6-0.1-2.3-0.4c-0.6-0.3-1.1-0.7-1.5-1.2s-0.5-1.2-0.6-1.9h2.2   c0,0.4,0.1,0.7,0.3,0.9c0.2,0.2,0.4,0.4,0.7,0.5c0.3,0.1,0.7,0.2,1,0.2c0.4,0,0.7-0.1,1-0.2c0.3-0.1,0.5-0.3,0.7-0.5   c0.2-0.2,0.2-0.4,0.2-0.7c0-0.2-0.1-0.4-0.2-0.6c-0.1-0.2-0.3-0.3-0.6-0.4s-0.6-0.2-1-0.3l-1.2-0.3c-0.9-0.2-1.6-0.6-2.1-1   c-0.5-0.5-0.8-1.1-0.8-1.9c0-0.6,0.2-1.2,0.5-1.7s0.8-0.9,1.4-1.1c0.6-0.3,1.3-0.4,2.1-0.4c0.8,0,1.5,0.1,2.1,0.4   c0.6,0.3,1.1,0.7,1.4,1.1s0.5,1,0.5,1.7H453z"
   id="path31927" />
	<path
   class="st12"
   d="M463.5,324.2h2.3v7c0,0.8-0.2,1.5-0.6,2.1c-0.4,0.6-0.9,1-1.6,1.4c-0.7,0.3-1.4,0.5-2.3,0.5   c-0.9,0-1.7-0.2-2.3-0.5c-0.7-0.3-1.2-0.8-1.6-1.4c-0.4-0.6-0.6-1.3-0.6-2.1v-7h2.3v6.8c0,0.4,0.1,0.8,0.3,1.1   c0.2,0.3,0.4,0.6,0.8,0.7c0.3,0.2,0.7,0.3,1.1,0.3c0.4,0,0.8-0.1,1.1-0.3c0.3-0.2,0.6-0.4,0.8-0.7c0.2-0.3,0.3-0.7,0.3-1.1V324.2z"
   id="path31929" />
	<path
   class="st12"
   d="M467.6,334.9v-10.7h4.2c0.8,0,1.5,0.1,2.1,0.4c0.6,0.3,1,0.7,1.3,1.2c0.3,0.5,0.5,1.1,0.5,1.9   c0,0.7-0.2,1.3-0.5,1.8s-0.8,0.9-1.3,1.2c-0.6,0.3-1.3,0.4-2.1,0.4H469v-1.8h2.5c0.4,0,0.8-0.1,1.1-0.2s0.5-0.3,0.6-0.5   s0.2-0.5,0.2-0.9c0-0.4-0.1-0.7-0.2-0.9c-0.1-0.2-0.4-0.4-0.6-0.6c-0.3-0.1-0.6-0.2-1.1-0.2h-1.5v8.9H467.6z M473.4,330l2.7,4.9   h-2.5L471,330H473.4z"
   id="path31931" />
	<path
   class="st12"
   d="M477.3,334.9v-10.7h7.2v1.9h-5v2.6h4.6v1.9h-4.6v2.6h5v1.9H477.3z"
   id="path31933" />
	<path
   class="st12"
   d="M495.6,327.3c0-0.4-0.2-0.8-0.5-1c-0.3-0.2-0.7-0.4-1.3-0.4c-0.4,0-0.7,0.1-0.9,0.2c-0.3,0.1-0.4,0.2-0.6,0.4   s-0.2,0.4-0.2,0.6c0,0.2,0,0.4,0.1,0.5s0.2,0.3,0.4,0.4c0.2,0.1,0.3,0.2,0.5,0.3c0.2,0.1,0.4,0.1,0.7,0.2l1,0.2   c0.5,0.1,0.9,0.2,1.3,0.4s0.7,0.4,1,0.6c0.3,0.3,0.5,0.6,0.7,0.9c0.2,0.3,0.2,0.7,0.2,1.2c0,0.7-0.2,1.2-0.5,1.7   c-0.3,0.5-0.8,0.9-1.4,1.1c-0.6,0.3-1.4,0.4-2.2,0.4c-0.9,0-1.6-0.1-2.3-0.4c-0.6-0.3-1.1-0.7-1.5-1.2s-0.5-1.2-0.6-1.9h2.2   c0,0.4,0.1,0.7,0.3,0.9c0.2,0.2,0.4,0.4,0.7,0.5c0.3,0.1,0.7,0.2,1,0.2c0.4,0,0.7-0.1,1-0.2c0.3-0.1,0.5-0.3,0.7-0.5   c0.2-0.2,0.2-0.4,0.2-0.7c0-0.2-0.1-0.4-0.2-0.6c-0.1-0.2-0.3-0.3-0.6-0.4s-0.6-0.2-1-0.3l-1.2-0.3c-0.9-0.2-1.6-0.6-2.1-1   c-0.5-0.5-0.8-1.1-0.8-1.9c0-0.6,0.2-1.2,0.5-1.7s0.8-0.9,1.4-1.1c0.6-0.3,1.3-0.4,2.1-0.4c0.8,0,1.5,0.1,2.1,0.4   c0.6,0.3,1.1,0.7,1.4,1.1s0.5,1,0.5,1.7H495.6z"
   id="path31935" />
	<path
   class="st12"
   d="M499.4,334.9v-10.7h7.2v1.9h-5v2.6h4.6v1.9h-4.6v2.6h5v1.9H499.4z"
   id="path31937" />
	<path
   class="st12"
   d="M508,326.1v-1.9h8.8v1.9h-3.3v8.9h-2.2v-8.9H508z"
   id="path31939" />
	<path
   class="st12"
   d="M521.6,334.9v-1.6l3.8-3.5c0.3-0.3,0.6-0.6,0.8-0.8c0.2-0.3,0.4-0.5,0.5-0.7c0.1-0.2,0.2-0.5,0.2-0.8   c0-0.3-0.1-0.6-0.2-0.8s-0.3-0.4-0.6-0.5s-0.5-0.2-0.8-0.2c-0.3,0-0.6,0.1-0.9,0.2c-0.2,0.1-0.4,0.3-0.6,0.6   c-0.1,0.2-0.2,0.5-0.2,0.9h-2.2c0-0.7,0.2-1.3,0.5-1.8c0.3-0.5,0.8-0.9,1.3-1.2s1.2-0.4,2-0.4c0.8,0,1.4,0.1,2,0.4   c0.6,0.3,1,0.6,1.3,1.1c0.3,0.5,0.5,1,0.5,1.6c0,0.4-0.1,0.8-0.2,1.2c-0.2,0.4-0.4,0.8-0.8,1.3s-1,1.1-1.7,1.7l-1.6,1.5v0.1h4.5   v1.9H521.6z"
   id="path31941" />
</g>
</svg>
