<?xml version="1.0" encoding="UTF-8"?><svg id="a" xmlns="http://www.w3.org/2000/svg" viewBox="0 0 1015.5 769.84"><defs><style>.c{fill:#17556c;}.c,.d,.e,.f,.g{stroke-width:0px;}.h{stroke:#010201;stroke-width:2px;}.h,.i,.j,.k{stroke-miterlimit:10;}.h,.k{fill:none;}.d{fill:#e3efef;}.i{fill:#ffdce7;}.i,.j{stroke:#d31047;}.e{fill:#000;}.f{fill:#010201;}.g{fill:#fff;}.j{fill:#d31047;}.k{stroke:#000;stroke-dasharray:0 0 7.87 7.87;stroke-width:1.48px;}</style></defs><rect class="j" x="12.42" y="413.5" width="311.99" height="93.31"/><rect class="i" x="12.42" y="507.33" width="311.99" height="93.31"/><rect class="c" x="16.05" y="19.77" width="983.39" height="66.96"/><rect class="d" x="16.05" y="86.73" width="983.39" height="66.96"/><path class="g" d="M482.68,64.09v-19.64h7.66c2.23,0,3.96.58,5.19,1.75,1.23,1.16,1.84,2.71,1.84,4.65,0,1.35-.3,2.49-.9,3.45-.6.95-1.46,1.67-2.58,2.14l4.18,7.66h-4.46l-3.74-7.01h-3.16v7.01h-4.02ZM486.7,53.82h2.9c2.41,0,3.61-.99,3.61-2.98,0-.99-.3-1.75-.89-2.28-.59-.53-1.51-.79-2.74-.79h-2.89v6.05Z"/><path class="g" d="M506.58,64.38c-1.48,0-2.76-.32-3.84-.96-1.08-.64-1.91-1.52-2.5-2.66-.58-1.14-.88-2.46-.88-3.97s.29-2.85.88-4c.58-1.14,1.42-2.03,2.5-2.67,1.08-.64,2.36-.96,3.84-.96s2.76.32,3.84.96c1.08.64,1.91,1.53,2.5,2.67.58,1.14.88,2.47.88,4s-.29,2.84-.88,3.97c-.58,1.14-1.42,2.03-2.5,2.66-1.08.64-2.36.96-3.84.96ZM506.58,61.27c1.05,0,1.85-.43,2.39-1.28s.8-1.93.8-3.22-.27-2.38-.8-3.22c-.54-.85-1.33-1.27-2.39-1.27s-1.85.42-2.38,1.27c-.53.85-.8,1.92-.8,3.22s.27,2.36.8,3.22,1.33,1.28,2.38,1.28Z"/><path class="g" d="M523.14,64.38c-1.48,0-2.76-.32-3.84-.96-1.08-.64-1.91-1.52-2.5-2.66-.58-1.14-.88-2.46-.88-3.97s.29-2.85.88-4c.58-1.14,1.42-2.03,2.5-2.67,1.08-.64,2.36-.96,3.84-.96s2.76.32,3.84.96c1.08.64,1.91,1.53,2.5,2.67.58,1.14.88,2.47.88,4s-.29,2.84-.88,3.97c-.58,1.14-1.42,2.03-2.5,2.66-1.08.64-2.36.96-3.84.96ZM523.14,61.27c1.05,0,1.85-.43,2.39-1.28s.8-1.93.8-3.22-.27-2.38-.8-3.22c-.54-.85-1.33-1.27-2.39-1.27s-1.85.42-2.38,1.27c-.53.85-.8,1.92-.8,3.22s.27,2.36.8,3.22,1.33,1.28,2.38,1.28Z"/><path class="g" d="M540.43,49.35v3.02h-2.76v7.41c0,.91.45,1.37,1.34,1.37.15,0,.36-.02.63-.06.27-.04.48-.08.63-.11l.57,2.97c-.44.13-.88.22-1.31.28-.44.05-.85.08-1.25.08-1.48,0-2.61-.36-3.39-1.07-.78-.72-1.17-1.75-1.17-3.11v-7.75h-2.03v-3.02h2.03v-3.51h3.96v3.51h2.76Z"/><path class="e" d="M440.48,130.53c-1.51,0-2.86-.36-4.04-1.07s-2.12-1.74-2.8-3.08-1.02-2.94-1.02-4.8.34-3.47,1.02-4.81,1.61-2.37,2.8-3.09,2.54-1.08,4.04-1.08c.92,0,1.79.13,2.6.4s1.53.65,2.17,1.16,1.16,1.12,1.58,1.85.7,1.55.85,2.47h-2.68c-.11-.55-.3-1.04-.58-1.47s-.62-.79-1.01-1.08-.84-.52-1.34-.67-1.01-.22-1.56-.22c-1,0-1.9.25-2.69.76s-1.42,1.24-1.87,2.21-.68,2.16-.68,3.57.23,2.6.69,3.57,1.09,1.71,1.88,2.2,1.68.74,2.67.74c.55,0,1.06-.08,1.55-.23s.93-.38,1.34-.67.74-.65,1.02-1.08.47-.92.58-1.46h2.7c-.13.86-.4,1.65-.81,2.36s-.93,1.34-1.56,1.87-1.36.94-2.17,1.22-1.71.43-2.67.43Z"/><path class="e" d="M453.21,112.83v17.46h-2.58v-17.46h2.58Z"/><path class="e" d="M461.14,130.46c-.89,0-1.67-.19-2.34-.56s-1.19-.93-1.56-1.66-.56-1.64-.56-2.72v-8.32h2.58v8c0,.95.25,1.68.74,2.21s1.17.8,2.02.8c.59,0,1.11-.13,1.56-.38s.82-.62,1.08-1.11.4-1.08.4-1.76v-7.76h2.58v13.1h-2.46v-3.21s.23,0,.23,0c-.38,1.19-.94,2.05-1.68,2.58s-1.6.8-2.6.8Z"/><path class="e" d="M475.82,130.56c-.95,0-1.79-.14-2.53-.41s-1.34-.68-1.82-1.21-.79-1.19-.94-1.96l2.43-.5c.18.68.52,1.18,1.01,1.51s1.12.49,1.88.49c.83,0,1.49-.17,1.98-.52s.74-.76.74-1.25c0-.42-.15-.77-.45-1.04s-.76-.48-1.39-.61l-2.2-.5c-1.22-.27-2.12-.71-2.72-1.31s-.89-1.37-.89-2.31c0-.78.22-1.46.66-2.05s1.04-1.04,1.79-1.37,1.63-.49,2.62-.49,1.75.14,2.43.41,1.22.66,1.63,1.15.72,1.06.9,1.71l-2.31.5c-.16-.46-.45-.87-.86-1.21s-1-.52-1.77-.52c-.71,0-1.3.16-1.78.48s-.71.73-.71,1.22c0,.44.16.79.47,1.06s.83.49,1.55.65l2.11.47c1.21.27,2.11.7,2.7,1.29s.88,1.34.88,2.25c0,.8-.23,1.5-.69,2.12s-1.09,1.09-1.9,1.44-1.75.52-2.82.52Z"/><path class="e" d="M489.64,117.19v2.1h-7.1v-2.1h7.1ZM484.45,114.07h2.58v12.68c0,.52.11.91.33,1.15s.59.37,1.1.37c.13,0,.31-.02.53-.05s.41-.06.56-.09l.46,2.06c-.27.09-.57.16-.88.21s-.62.06-.93.06c-1.19,0-2.11-.31-2.77-.92s-.98-1.47-.98-2.58v-12.89Z"/><path class="e" d="M497.63,130.56c-1.29,0-2.4-.28-3.34-.83s-1.66-1.34-2.16-2.34-.76-2.19-.76-3.55.25-2.53.74-3.55,1.2-1.82,2.1-2.4,1.97-.86,3.19-.86c.75,0,1.47.12,2.17.37s1.32.63,1.88,1.15.99,1.2,1.32,2.03.49,1.84.49,3.03v.91h-10.44v-1.92h9.12l-1.21.63c0-.8-.12-1.51-.38-2.13s-.62-1.09-1.11-1.44-1.1-.52-1.83-.52-1.35.18-1.86.53-.91.81-1.18,1.39-.4,1.2-.4,1.88v1.31c0,.9.15,1.66.46,2.28s.74,1.09,1.29,1.41,1.2.47,1.93.47c.48,0,.92-.07,1.31-.21s.73-.34,1.01-.62.5-.62.65-1.03l2.43.57c-.21.67-.56,1.27-1.06,1.78s-1.11.92-1.85,1.2-1.58.43-2.51.43Z"/><path class="e" d="M506.07,130.29v-13.1h2.5v2.11h.14c.24-.72.66-1.28,1.27-1.69s1.29-.61,2.05-.61c.16,0,.35,0,.56.02s.39.03.53.05v2.46c-.09-.03-.27-.06-.54-.09s-.54-.05-.81-.05c-.59,0-1.13.12-1.61.38s-.85.6-1.11,1.04-.4.95-.4,1.53v7.96h-2.58Z"/><path class="e" d="M518.6,112.83v17.46h-2.67v-17.46h2.67Z"/><path class="e" d="M526.97,130.56c-.95,0-1.79-.14-2.53-.41s-1.34-.68-1.82-1.21-.79-1.19-.94-1.96l2.43-.5c.18.68.52,1.18,1.01,1.51s1.12.49,1.88.49c.83,0,1.49-.17,1.98-.52s.74-.76.74-1.25c0-.42-.15-.77-.45-1.04s-.76-.48-1.39-.61l-2.2-.5c-1.22-.27-2.12-.71-2.72-1.31s-.89-1.37-.89-2.31c0-.78.22-1.46.66-2.05s1.04-1.04,1.79-1.37,1.63-.49,2.62-.49,1.75.14,2.43.41,1.22.66,1.63,1.15.72,1.06.9,1.71l-2.31.5c-.16-.46-.45-.87-.86-1.21s-1-.52-1.77-.52c-.71,0-1.3.16-1.78.48s-.71.73-.71,1.22c0,.44.16.79.47,1.06s.83.49,1.55.65l2.11.47c1.21.27,2.11.7,2.7,1.29s.88,1.34.88,2.25c0,.8-.23,1.5-.69,2.12s-1.09,1.09-1.9,1.44-1.75.52-2.82.52Z"/><path class="e" d="M539.89,130.56c-.95,0-1.79-.14-2.53-.41s-1.34-.68-1.82-1.21-.79-1.19-.94-1.96l2.43-.5c.18.68.52,1.18,1.01,1.51s1.12.49,1.88.49c.83,0,1.49-.17,1.98-.52s.74-.76.74-1.25c0-.42-.15-.77-.45-1.04s-.76-.48-1.39-.61l-2.2-.5c-1.22-.27-2.12-.71-2.72-1.31s-.89-1.37-.89-2.31c0-.78.22-1.46.66-2.05s1.04-1.04,1.79-1.37,1.63-.49,2.62-.49,1.75.14,2.43.41,1.22.66,1.63,1.15.72,1.06.9,1.71l-2.31.5c-.16-.46-.45-.87-.86-1.21s-1-.52-1.77-.52c-.71,0-1.3.16-1.78.48s-.71.73-.71,1.22c0,.44.16.79.47,1.06s.83.49,1.55.65l2.11.47c1.21.27,2.11.7,2.7,1.29s.88,1.34.88,2.25c0,.8-.23,1.5-.69,2.12s-1.09,1.09-1.9,1.44-1.75.52-2.82.52Z"/><path class="e" d="M552.59,130.46c-.89,0-1.67-.19-2.34-.56s-1.19-.93-1.56-1.66-.56-1.64-.56-2.72v-8.32h2.58v8c0,.95.25,1.68.74,2.21s1.17.8,2.02.8c.59,0,1.11-.13,1.56-.38s.82-.62,1.08-1.11.4-1.08.4-1.76v-7.76h2.58v13.1h-2.46v-3.21s.23,0,.23,0c-.38,1.19-.94,2.05-1.68,2.58s-1.6.8-2.6.8Z"/><path class="e" d="M568.21,130.56c-1.29,0-2.4-.28-3.34-.83s-1.66-1.34-2.16-2.34-.76-2.19-.76-3.55.25-2.53.74-3.55,1.2-1.82,2.1-2.4,1.97-.86,3.19-.86c.75,0,1.47.12,2.17.37s1.32.63,1.88,1.15.99,1.2,1.32,2.03.49,1.84.49,3.03v.91h-10.44v-1.92h9.12l-1.21.63c0-.8-.12-1.51-.38-2.13s-.62-1.09-1.11-1.44-1.1-.52-1.83-.52-1.35.18-1.86.53-.91.81-1.18,1.39-.4,1.2-.4,1.88v1.31c0,.9.15,1.66.46,2.28s.74,1.09,1.29,1.41,1.2.47,1.93.47c.48,0,.92-.07,1.31-.21s.73-.34,1.01-.62.5-.62.65-1.03l2.43.57c-.21.67-.56,1.27-1.06,1.78s-1.11.92-1.85,1.2-1.58.43-2.51.43Z"/><path class="e" d="M576.66,130.29v-13.1h2.5v2.11h.14c.24-.72.66-1.28,1.27-1.69s1.29-.61,2.05-.61c.16,0,.35,0,.56.02s.39.03.53.05v2.46c-.09-.03-.27-.06-.54-.09s-.54-.05-.81-.05c-.59,0-1.13.12-1.61.38s-.85.6-1.11,1.04-.4.95-.4,1.53v7.96h-2.58Z"/><path class="g" d="M135.39,489.75c-1.19,0-2.26-.28-3.21-.85-.94-.57-1.69-1.38-2.23-2.44-.54-1.06-.81-2.33-.81-3.8s.27-2.75.81-3.81c.54-1.06,1.28-1.88,2.23-2.44.94-.57,2.01-.85,3.21-.85s2.26.28,3.2.85c.94.57,1.68,1.38,2.22,2.44.54,1.06.81,2.33.81,3.81s-.27,2.74-.81,3.8c-.54,1.06-1.28,1.87-2.22,2.44-.94.57-2,.85-3.2.85ZM135.39,487.82c.79,0,1.49-.2,2.11-.59.62-.39,1.11-.97,1.48-1.74.36-.77.54-1.71.54-2.83s-.18-2.07-.54-2.84c-.36-.77-.85-1.35-1.48-1.74-.62-.39-1.33-.59-2.11-.59s-1.5.2-2.12.59c-.62.4-1.12.98-1.48,1.75-.36.77-.54,1.71-.54,2.83s.18,2.05.54,2.82c.36.77.85,1.35,1.48,1.74.62.4,1.33.59,2.12.59Z"/><path class="g" d="M144.04,493.44v-14.25h1.99v1.69h.17c.12-.22.3-.47.51-.75.22-.28.53-.53.92-.75.39-.21.91-.32,1.56-.32.83,0,1.57.21,2.22.63.65.42,1.17,1.03,1.54,1.83.38.8.57,1.76.57,2.88s-.19,2.07-.56,2.87c-.37.8-.88,1.42-1.54,1.85-.65.43-1.4.64-2.24.64-.62,0-1.14-.11-1.54-.32-.4-.21-.71-.46-.94-.75-.23-.28-.4-.54-.52-.76h-.11v5.5h-2.04ZM148.73,488.04c.59,0,1.09-.16,1.49-.48.4-.32.7-.76.9-1.31.2-.55.3-1.17.3-1.86s-.1-1.29-.3-1.83c-.2-.54-.5-.97-.9-1.29-.4-.32-.9-.47-1.5-.47s-1.07.15-1.48.45c-.4.3-.71.72-.91,1.25s-.31,1.16-.31,1.89.1,1.35.31,1.9c.21.55.51.98.91,1.29.4.31.89.46,1.47.46Z"/><path class="g" d="M160.26,489.78c-1.02,0-1.9-.22-2.64-.66s-1.31-1.06-1.71-1.86c-.4-.8-.6-1.73-.6-2.81s.2-2,.59-2.81c.39-.81.95-1.44,1.67-1.9.72-.45,1.56-.68,2.52-.68.59,0,1.17.1,1.72.29.55.2,1.04.5,1.48.91.44.41.79.95,1.04,1.61.26.66.38,1.46.38,2.4v.72h-8.27v-1.52h7.22l-.96.5c0-.64-.1-1.2-.3-1.68-.2-.49-.49-.86-.88-1.14-.39-.27-.87-.41-1.45-.41s-1.07.14-1.48.42c-.41.28-.72.65-.93,1.1-.21.46-.32.95-.32,1.49v1.04c0,.71.12,1.31.37,1.8.24.49.59.86,1.02,1.11.44.25.95.38,1.53.38.38,0,.73-.05,1.04-.16.31-.11.58-.27.8-.49.23-.22.4-.49.51-.81l1.92.46c-.17.53-.45,1-.84,1.41-.39.41-.88.73-1.47.95-.58.23-1.25.34-1.99.34Z"/><path class="g" d="M166.94,489.57v-10.37h1.98v1.67h.11c.19-.57.53-1.01,1-1.34.48-.32,1.02-.48,1.62-.48.13,0,.28,0,.45.01.17,0,.31.02.42.04v1.95c-.07-.02-.22-.05-.43-.07-.21-.02-.42-.04-.64-.04-.47,0-.89.1-1.27.3-.38.2-.67.47-.88.82-.21.35-.32.75-.32,1.21v6.3h-2.04Z"/><path class="g" d="M177.11,489.8c-.66,0-1.25-.12-1.78-.37-.53-.24-.95-.6-1.26-1.07-.31-.47-.46-1.04-.46-1.73,0-.59.11-1.07.34-1.45.23-.38.53-.68.92-.9.39-.22.82-.39,1.29-.5.47-.11.95-.2,1.44-.25.61-.07,1.11-.13,1.49-.18.38-.05.67-.12.85-.23.18-.11.27-.28.27-.52v-.06c0-.39-.07-.72-.22-.98-.15-.27-.37-.47-.66-.62-.29-.15-.66-.22-1.1-.22s-.84.07-1.16.21c-.32.14-.59.32-.79.53-.2.22-.35.44-.45.68l-1.92-.5c.23-.62.57-1.12,1.01-1.49.44-.38.94-.65,1.51-.83.57-.17,1.16-.26,1.76-.26.42,0,.87.05,1.34.15.47.1.91.28,1.33.54.41.26.75.62,1.01,1.09s.39,1.08.39,1.84v6.88h-1.98v-1.42h-.1c-.14.27-.34.53-.6.78-.27.25-.6.46-1.01.63-.4.16-.89.25-1.45.25ZM177.57,488.16c.56,0,1.03-.11,1.43-.32.4-.22.7-.5.91-.86.21-.36.32-.74.32-1.14v-1.33c-.07.07-.21.14-.42.2-.21.06-.44.11-.71.16-.27.05-.52.08-.77.12-.25.03-.45.05-.61.07-.38.05-.73.13-1.05.25-.32.12-.57.28-.76.5-.19.22-.28.5-.28.86,0,.33.08.6.26.83.17.22.4.39.69.5.29.11.63.17,1.01.17Z"/><path class="g" d="M189.43,479.19v1.66h-5.62v-1.66h5.62ZM185.32,476.73h2.04v10.04c0,.41.09.72.26.91.18.19.47.29.87.29.1,0,.24-.01.42-.04.17-.02.32-.05.45-.07l.36,1.63c-.22.07-.45.13-.7.16-.25.03-.49.05-.73.05-.94,0-1.67-.24-2.19-.73s-.78-1.17-.78-2.05v-10.21Z"/><path class="g" d="M195.64,489.78c-.97,0-1.82-.22-2.55-.67-.73-.45-1.29-1.07-1.69-1.87s-.6-1.74-.6-2.8.2-2.02.6-2.82c.4-.81.97-1.43,1.69-1.88.73-.45,1.58-.67,2.55-.67s1.83.22,2.56.67c.73.45,1.29,1.07,1.69,1.88.4.81.6,1.75.6,2.82s-.2,2-.6,2.8c-.4.8-.97,1.43-1.69,1.87-.73.45-1.58.67-2.56.67ZM195.64,488.06c.63,0,1.15-.17,1.56-.5.41-.33.72-.77.92-1.32.2-.55.3-1.15.3-1.8s-.1-1.27-.3-1.82c-.2-.55-.51-1-.92-1.33-.41-.33-.93-.5-1.56-.5s-1.14.17-1.55.5c-.41.33-.71.77-.91,1.32-.2.55-.3,1.16-.3,1.83s.1,1.26.3,1.8c.2.55.51.99.91,1.32.41.33.92.5,1.55.5Z"/><path class="g" d="M202.76,489.57v-10.37h1.98v1.67h.11c.19-.57.53-1.01,1-1.34.48-.32,1.02-.48,1.62-.48.13,0,.28,0,.45.01.17,0,.31.02.42.04v1.95c-.07-.02-.22-.05-.43-.07-.21-.02-.42-.04-.64-.04-.47,0-.89.1-1.27.3-.38.2-.67.47-.88.82-.21.35-.32.75-.32,1.21v6.3h-2.04Z"/><path class="e" d="M546.54,211.42c-1.06,0-2-.26-2.83-.77-.83-.51-1.48-1.24-1.95-2.19-.47-.95-.71-2.08-.71-3.38s.24-2.44.71-3.39c.47-.95,1.12-1.68,1.95-2.2.83-.52,1.77-.77,2.83-.77.63,0,1.22.09,1.77.27.56.18,1.06.45,1.5.8s.81.78,1.11,1.28c.3.5.5,1.07.61,1.71h-1.58c-.09-.43-.24-.8-.45-1.12-.21-.32-.47-.59-.78-.81-.31-.22-.65-.39-1.02-.5s-.76-.17-1.16-.17c-.74,0-1.41.19-2.01.56s-1.07.93-1.42,1.66-.52,1.62-.52,2.68.18,1.94.53,2.67c.35.73.83,1.28,1.42,1.65.6.37,1.26.56,2,.56.4,0,.79-.06,1.16-.17s.71-.28,1.02-.5c.31-.22.57-.49.78-.81.21-.32.36-.7.45-1.12h1.58c-.1.63-.31,1.2-.6,1.69-.3.5-.67.92-1.11,1.28-.44.35-.94.62-1.5.81-.56.19-1.15.28-1.78.28Z"/><path class="e" d="M557.67,211.45c-.9,0-1.67-.2-2.32-.6-.65-.4-1.15-.96-1.5-1.67-.35-.71-.53-1.55-.53-2.5s.17-1.79.51-2.51c.34-.73.83-1.29,1.46-1.7.63-.41,1.36-.61,2.2-.61.49,0,.98.08,1.46.25.48.16.91.43,1.3.79.39.36.7.84.93,1.43.23.59.35,1.32.35,2.18v.62h-7.21v-1.26h6.4l-.7.46c0-.61-.1-1.15-.29-1.62-.19-.47-.47-.84-.85-1.11s-.84-.4-1.4-.4-1.04.14-1.44.41c-.4.27-.7.63-.91,1.07-.21.44-.32.91-.32,1.42v.84c0,.69.12,1.27.36,1.75s.57.84,1,1.09c.43.25.93.37,1.49.37.37,0,.7-.05,1-.16.3-.1.56-.26.77-.48s.38-.48.5-.79l1.44.4c-.14.46-.39.87-.73,1.23s-.77.63-1.27.83c-.51.2-1.08.3-1.71.3Z"/><path class="e" d="M563.68,211.25v-9.28h1.44v1.43h.1c.17-.47.48-.85.92-1.13.44-.29.94-.43,1.49-.43.11,0,.24,0,.39,0,.15,0,.27.01.36.02v1.5s-.15-.03-.33-.05-.37-.03-.56-.03c-.44,0-.84.09-1.19.28-.35.19-.63.44-.83.76-.2.32-.3.7-.3,1.12v5.81h-1.49Z"/><path class="e" d="M574,201.97v1.28h-4.8v-1.28h4.8ZM570.6,199.76h1.49v9.08c0,.42.08.72.25.91.17.19.45.29.84.29.09,0,.21-.01.36-.03.15-.02.28-.04.4-.07l.31,1.26c-.15.06-.33.1-.53.12-.2.03-.39.04-.59.04-.8,0-1.43-.21-1.88-.63-.45-.42-.67-1.01-.67-1.77v-9.2Z"/><path class="e" d="M576.66,200.45c-.28,0-.53-.1-.73-.29s-.31-.43-.31-.7.1-.51.31-.7c.2-.19.45-.29.73-.29s.53.1.74.29c.2.19.31.42.31.7s-.1.5-.31.7-.45.29-.74.29ZM575.91,211.25v-9.28h1.49v9.28h-1.49Z"/><path class="e" d="M584.34,201.97v1.28h-5.46v-1.28h5.46ZM580.71,211.25v-10.52c0-.54.13-.98.38-1.34.25-.36.58-.63.98-.81.4-.18.83-.27,1.28-.27.35,0,.65.03.88.09.23.06.4.11.51.16l-.42,1.28c-.08-.03-.18-.06-.3-.09-.12-.03-.29-.05-.5-.05-.46,0-.79.12-1,.35s-.32.58-.32,1.02v10.19h-1.49Z"/><path class="e" d="M587.07,200.45c-.28,0-.53-.1-.73-.29s-.31-.43-.31-.7.1-.51.31-.7c.2-.19.45-.29.73-.29s.53.1.74.29c.2.19.31.42.31.7s-.1.5-.31.7-.45.29-.74.29ZM586.32,211.25v-9.28h1.49v9.28h-1.49Z"/><path class="e" d="M594.21,211.45c-.84,0-1.58-.2-2.21-.6-.63-.4-1.13-.96-1.48-1.68s-.53-1.55-.53-2.51.18-1.81.53-2.54c.35-.72.85-1.28,1.48-1.68.63-.4,1.37-.6,2.21-.6.45,0,.87.06,1.27.17.4.12.76.28,1.09.5.33.22.61.49.85.8s.42.68.55,1.08l-1.44.41c-.07-.24-.17-.46-.31-.66s-.31-.37-.5-.52c-.2-.15-.42-.26-.68-.34s-.53-.12-.84-.12c-.62,0-1.13.16-1.53.49-.4.32-.69.75-.89,1.27-.19.53-.29,1.1-.29,1.72s.1,1.17.29,1.7c.19.52.49.95.89,1.27.4.32.91.48,1.53.48.31,0,.59-.04.85-.12s.49-.2.69-.35c.2-.15.37-.33.51-.54s.24-.44.31-.69l1.43.41c-.12.42-.3.78-.54,1.11-.24.32-.53.6-.86.83s-.7.4-1.1.52-.83.18-1.29.18Z"/><path class="e" d="M602.91,211.47c-.59,0-1.12-.11-1.6-.33-.48-.22-.86-.54-1.14-.97-.28-.43-.42-.94-.42-1.55,0-.53.1-.96.32-1.29s.49-.59.84-.78c.35-.19.74-.33,1.17-.43s.85-.17,1.29-.22c.55-.07,1-.13,1.35-.17.35-.04.61-.1.78-.2.17-.09.25-.25.25-.48v-.05c0-.39-.07-.71-.22-.98s-.36-.47-.65-.62-.65-.22-1.08-.22-.82.07-1.14.21c-.32.14-.57.31-.77.52-.2.21-.34.42-.44.63l-1.44-.47c.24-.56.56-1,.96-1.32s.85-.54,1.34-.68.97-.2,1.44-.2c.31,0,.66.04,1.06.11.4.07.78.22,1.15.44.37.22.67.55.91.98.24.43.36,1.01.36,1.74v6.12h-1.47v-1.26h-.1c-.1.22-.27.44-.51.67s-.53.42-.9.58-.82.23-1.34.23ZM603.17,210.15c.55,0,1.02-.11,1.4-.32s.67-.5.87-.84.3-.71.3-1.08v-1.29c-.06.07-.19.14-.4.2-.2.06-.44.11-.7.15-.26.04-.52.08-.76.11-.25.03-.44.05-.59.07-.36.04-.7.12-1.01.23-.31.11-.56.27-.75.47-.19.21-.28.49-.28.84,0,.32.08.59.25.8s.39.38.68.49c.29.11.62.17.99.17Z"/><path class="e" d="M613.51,201.97v1.28h-4.8v-1.28h4.8ZM610.11,199.76h1.49v9.08c0,.42.08.72.25.91.17.19.45.29.84.29.09,0,.21-.01.36-.03.15-.02.28-.04.4-.07l.31,1.26c-.15.06-.33.1-.53.12-.2.03-.39.04-.59.04-.8,0-1.43-.21-1.88-.63-.45-.42-.67-1.01-.67-1.77v-9.2Z"/><path class="e" d="M619.16,211.45c-.9,0-1.67-.2-2.32-.6-.65-.4-1.15-.96-1.5-1.67-.35-.71-.53-1.55-.53-2.5s.17-1.79.51-2.51c.34-.73.83-1.29,1.46-1.7.63-.41,1.36-.61,2.2-.61.49,0,.98.08,1.46.25.48.16.91.43,1.3.79.39.36.7.84.93,1.43.23.59.35,1.32.35,2.18v.62h-7.21v-1.26h6.4l-.7.46c0-.61-.1-1.15-.29-1.62-.19-.47-.47-.84-.85-1.11s-.84-.4-1.4-.4-1.04.14-1.44.41c-.4.27-.7.63-.91,1.07-.21.44-.32.91-.32,1.42v.84c0,.69.12,1.27.36,1.75s.57.84,1,1.09c.43.25.93.37,1.49.37.37,0,.7-.05,1-.16.3-.1.56-.26.77-.48s.38-.48.5-.79l1.44.4c-.14.46-.39.87-.73,1.23s-.77.63-1.27.83c-.51.2-1.08.3-1.71.3Z"/><path class="e" d="M628.32,211.45c-.64,0-1.2-.09-1.7-.28-.5-.19-.9-.46-1.22-.83s-.54-.81-.65-1.35l1.42-.34c.13.51.38.88.75,1.12.37.24.83.36,1.38.36.65,0,1.16-.14,1.55-.42.38-.28.58-.61.58-.99,0-.32-.11-.59-.34-.8-.22-.21-.57-.37-1.03-.48l-1.54-.37c-.84-.2-1.47-.51-1.88-.93s-.61-.95-.61-1.61c0-.53.15-1,.45-1.41.3-.41.71-.72,1.22-.95.52-.23,1.1-.34,1.76-.34s1.18.1,1.62.29c.45.19.81.45,1.09.79.28.33.49.72.63,1.16l-1.35.35c-.13-.33-.34-.63-.64-.91-.3-.27-.74-.41-1.34-.41-.55,0-1.01.13-1.38.38-.37.25-.55.58-.55.96,0,.34.12.62.37.83.25.21.64.38,1.19.5l1.4.33c.84.2,1.46.51,1.87.92s.61.95.61,1.58c0,.54-.15,1.03-.46,1.45-.31.42-.74.76-1.29,1-.55.24-1.19.37-1.91.37Z"/><path class="e" d="M640.68,198.88v12.37h-1.58v-12.37h1.58Z"/><path class="e" d="M646.64,211.45c-.64,0-1.2-.09-1.7-.28-.5-.19-.9-.46-1.22-.83s-.54-.81-.65-1.35l1.42-.34c.13.51.38.88.75,1.12.37.24.83.36,1.38.36.65,0,1.16-.14,1.55-.42.38-.28.58-.61.58-.99,0-.32-.11-.59-.34-.8-.22-.21-.57-.37-1.03-.48l-1.54-.37c-.84-.2-1.47-.51-1.88-.93s-.61-.95-.61-1.61c0-.53.15-1,.45-1.41.3-.41.71-.72,1.22-.95.52-.23,1.1-.34,1.76-.34s1.18.1,1.62.29c.45.19.81.45,1.09.79.28.33.49.72.63,1.16l-1.35.35c-.13-.33-.34-.63-.64-.91-.3-.27-.74-.41-1.34-.41-.55,0-1.01.13-1.38.38-.37.25-.55.58-.55.96,0,.34.12.62.37.83.25.21.64.38,1.19.5l1.4.33c.84.2,1.46.51,1.87.92s.61.95.61,1.58c0,.54-.15,1.03-.46,1.45-.31.42-.74.76-1.29,1-.55.24-1.19.37-1.91.37Z"/><path class="e" d="M655.61,211.45c-.64,0-1.2-.09-1.7-.28-.5-.19-.9-.46-1.22-.83s-.54-.81-.65-1.35l1.42-.34c.13.51.38.88.75,1.12.37.24.83.36,1.38.36.65,0,1.16-.14,1.55-.42.38-.28.58-.61.58-.99,0-.32-.11-.59-.34-.8-.22-.21-.57-.37-1.03-.48l-1.54-.37c-.84-.2-1.47-.51-1.88-.93s-.61-.95-.61-1.61c0-.53.15-1,.45-1.41.3-.41.71-.72,1.22-.95.52-.23,1.1-.34,1.76-.34s1.18.1,1.62.29c.45.19.81.45,1.09.79.28.33.49.72.63,1.16l-1.35.35c-.13-.33-.34-.63-.64-.91-.3-.27-.74-.41-1.34-.41-.55,0-1.01.13-1.38.38-.37.25-.55.58-.55.96,0,.34.12.62.37.83.25.21.64.38,1.19.5l1.4.33c.84.2,1.46.51,1.87.92s.61.95.61,1.58c0,.54-.15,1.03-.46,1.45-.31.42-.74.76-1.29,1-.55.24-1.19.37-1.91.37Z"/><path class="e" d="M664.58,211.37c-.63,0-1.17-.13-1.65-.39-.47-.26-.84-.65-1.1-1.17-.26-.52-.39-1.17-.39-1.95v-5.89h1.49v5.77c0,.71.19,1.27.56,1.68.38.4.89.61,1.54.61.44,0,.84-.1,1.19-.29.35-.19.63-.48.83-.85.2-.37.31-.82.31-1.35v-5.56h1.5v9.28h-1.44v-2.25h.2c-.29.87-.7,1.48-1.22,1.83-.53.35-1.13.53-1.81.53Z"/><path class="e" d="M675.39,211.45c-.9,0-1.67-.2-2.32-.6-.65-.4-1.15-.96-1.5-1.67-.35-.71-.53-1.55-.53-2.5s.17-1.79.51-2.51c.34-.73.83-1.29,1.46-1.7.63-.41,1.36-.61,2.2-.61.49,0,.98.08,1.46.25.48.16.91.43,1.3.79.39.36.7.84.93,1.43.23.59.35,1.32.35,2.18v.62h-7.21v-1.26h6.4l-.7.46c0-.61-.1-1.15-.29-1.62-.19-.47-.47-.84-.85-1.11s-.84-.4-1.4-.4-1.04.14-1.44.41c-.4.27-.7.63-.91,1.07-.21.44-.32.91-.32,1.42v.84c0,.69.12,1.27.36,1.75s.57.84,1,1.09c.43.25.93.37,1.49.37.37,0,.7-.05,1-.16.3-.1.56-.26.77-.48s.38-.48.5-.79l1.44.4c-.14.46-.39.87-.73,1.23s-.77.63-1.27.83c-.51.2-1.08.3-1.71.3Z"/><path class="e" d="M684.87,211.45c-.77,0-1.45-.2-2.04-.59-.59-.39-1.05-.95-1.39-1.67s-.5-1.57-.5-2.56.17-1.83.5-2.54c.33-.72.8-1.27,1.39-1.66s1.27-.58,2.04-.58c.6,0,1.08.1,1.44.3s.63.42.82.68c.19.25.34.46.44.63h.12v-4.57h1.49v12.37h-1.44v-1.44h-.17c-.1.17-.25.39-.44.64-.2.26-.47.49-.83.69-.36.2-.83.3-1.42.3ZM685.1,210.12c.56,0,1.04-.15,1.43-.44s.68-.71.88-1.23c.2-.53.3-1.13.3-1.82s-.1-1.29-.29-1.8c-.2-.51-.49-.91-.88-1.2-.39-.29-.87-.43-1.44-.43s-1.08.15-1.46.46c-.39.3-.68.71-.88,1.23s-.29,1.1-.29,1.74.1,1.24.29,1.76c.2.53.49.95.88,1.26s.88.47,1.45.47Z"/><path class="e" d="M342.13,720.44c-1.06,0-2-.26-2.83-.77-.83-.51-1.48-1.24-1.96-2.19s-.71-2.08-.71-3.38.24-2.44.71-3.39,1.13-1.68,1.96-2.2c.83-.52,1.77-.77,2.83-.77s2,.26,2.82.77c.82.51,1.47,1.25,1.95,2.2.47.95.71,2.08.71,3.39s-.24,2.43-.71,3.38c-.47.95-1.12,1.68-1.95,2.19s-1.77.77-2.82.77ZM342.13,718.98c.74,0,1.4-.19,2-.56.6-.37,1.07-.92,1.42-1.65.35-.73.53-1.62.53-2.67s-.18-1.96-.53-2.69c-.35-.73-.82-1.28-1.42-1.65-.59-.37-1.26-.56-2-.56s-1.41.19-2.01.56-1.07.93-1.42,1.66c-.35.73-.53,1.62-.53,2.68s.18,1.94.53,2.66c.35.73.83,1.28,1.42,1.65s1.27.56,2.01.56Z"/><path class="e" d="M349.94,723.75v-12.75h1.44v1.49h.17c.1-.17.25-.37.44-.63s.46-.48.81-.68.83-.3,1.44-.3c.77,0,1.46.19,2.05.58.59.39,1.05.94,1.39,1.66.33.72.5,1.56.5,2.54s-.17,1.84-.5,2.56-.79,1.28-1.38,1.67c-.59.39-1.27.59-2.05.59-.59,0-1.06-.1-1.42-.3s-.64-.43-.83-.69c-.19-.26-.34-.47-.45-.64h-.12v4.91h-1.49ZM354.02,719.14c.58,0,1.07-.16,1.46-.47.39-.31.68-.73.88-1.26.2-.53.29-1.12.29-1.76s-.1-1.22-.29-1.74-.49-.93-.88-1.23c-.39-.3-.88-.46-1.46-.46s-1.05.14-1.44.43c-.39.29-.68.69-.88,1.2-.2.51-.29,1.11-.29,1.8s.1,1.29.3,1.82c.2.53.49.94.88,1.23.39.3.86.44,1.42.44Z"/><path class="e" d="M364.25,720.48c-.9,0-1.67-.2-2.32-.6-.65-.4-1.15-.96-1.5-1.67-.35-.71-.53-1.55-.53-2.5s.17-1.79.51-2.51c.34-.73.83-1.29,1.46-1.7.63-.41,1.36-.61,2.2-.61.49,0,.98.08,1.46.25.48.16.91.43,1.3.79.39.36.7.84.93,1.43.23.59.35,1.32.35,2.18v.62h-7.21v-1.26h6.4l-.7.46c0-.61-.1-1.15-.29-1.62-.19-.47-.47-.84-.85-1.11s-.84-.4-1.4-.4-1.04.14-1.44.41c-.4.27-.7.63-.91,1.07-.21.44-.32.91-.32,1.42v.84c0,.69.12,1.27.36,1.75s.57.84,1,1.09c.43.25.93.37,1.49.37.37,0,.7-.05,1-.16.3-.1.56-.26.77-.48s.38-.48.5-.79l1.44.4c-.14.46-.39.87-.73,1.23s-.77.63-1.27.83c-.51.2-1.08.3-1.71.3Z"/><path class="e" d="M370.26,720.28v-9.28h1.44v1.43h.1c.17-.47.48-.85.92-1.13.44-.29.94-.43,1.49-.43.11,0,.24,0,.39,0,.15,0,.27.01.36.02v1.5s-.15-.03-.33-.05-.37-.03-.56-.03c-.44,0-.84.09-1.19.28-.35.19-.63.44-.83.76-.2.32-.3.7-.3,1.12v5.81h-1.49Z"/><path class="e" d="M379.25,720.49c-.59,0-1.12-.11-1.6-.33-.48-.22-.86-.54-1.14-.97-.28-.43-.42-.94-.42-1.55,0-.53.1-.96.32-1.29s.49-.59.84-.78c.35-.19.74-.33,1.17-.43s.85-.17,1.29-.22c.55-.07,1-.13,1.35-.17.35-.04.61-.1.78-.2.17-.09.25-.25.25-.48v-.05c0-.39-.07-.71-.22-.98s-.36-.47-.65-.62-.65-.22-1.08-.22-.82.07-1.14.21c-.32.14-.57.31-.77.52-.2.21-.34.42-.44.63l-1.44-.47c.24-.56.56-1,.96-1.32s.85-.54,1.34-.68.97-.2,1.44-.2c.31,0,.66.04,1.06.11.4.07.78.22,1.15.44.37.22.67.55.91.98.24.43.36,1.01.36,1.74v6.12h-1.47v-1.26h-.1c-.1.22-.27.44-.51.67s-.53.42-.9.58-.82.23-1.34.23ZM379.51,719.17c.55,0,1.02-.11,1.4-.32s.67-.5.87-.84.3-.71.3-1.08v-1.29c-.06.07-.19.14-.4.2-.2.06-.44.11-.7.15-.26.04-.52.08-.76.11-.25.03-.44.05-.59.07-.36.04-.7.12-1.01.23-.31.11-.56.27-.75.47-.19.21-.28.49-.28.84,0,.32.08.59.25.8s.39.38.68.49c.29.11.62.17.99.17Z"/><path class="e" d="M389.85,711v1.28h-4.8v-1.28h4.8ZM386.45,708.79h1.49v9.08c0,.42.08.72.25.91.17.19.45.29.84.29.09,0,.21-.01.36-.03.15-.02.28-.04.4-.07l.31,1.26c-.15.06-.33.1-.53.12-.2.03-.39.04-.59.04-.8,0-1.43-.21-1.88-.63-.45-.42-.67-1.01-.67-1.77v-9.2Z"/><path class="e" d="M395.37,720.48c-.84,0-1.58-.2-2.21-.6-.63-.4-1.13-.96-1.48-1.68s-.53-1.55-.53-2.51.18-1.81.53-2.54c.35-.72.85-1.28,1.48-1.68.63-.4,1.37-.6,2.21-.6s1.59.2,2.22.6,1.13.96,1.49,1.68c.35.72.53,1.57.53,2.54s-.18,1.79-.53,2.51-.85,1.28-1.49,1.68-1.38.6-2.22.6ZM395.37,719.14c.63,0,1.14-.16,1.54-.48.4-.32.7-.74.9-1.27.19-.52.29-1.09.29-1.7s-.1-1.19-.29-1.71-.49-.96-.9-1.28c-.4-.32-.92-.49-1.54-.49s-1.13.16-1.53.49c-.4.32-.69.75-.89,1.27-.19.53-.29,1.1-.29,1.72s.1,1.17.29,1.7c.19.52.49.95.89,1.27.4.32.91.48,1.53.48Z"/><path class="e" d="M401.79,720.28v-9.28h1.44v1.43h.1c.17-.47.48-.85.92-1.13.44-.29.94-.43,1.49-.43.11,0,.24,0,.39,0,.15,0,.27.01.36.02v1.5s-.15-.03-.33-.05-.37-.03-.56-.03c-.44,0-.84.09-1.19.28-.35.19-.63.44-.83.76-.2.32-.3.7-.3,1.12v5.81h-1.49Z"/><path class="e" d="M412.97,720.28v-9.28h1.45v2.08s-.11,0-.11,0c.13-.5.33-.92.6-1.25.27-.33.6-.58.96-.74.37-.17.75-.25,1.15-.25.68,0,1.22.21,1.64.62.42.42.69.96.81,1.64h-.2c.11-.46.31-.87.61-1.2.29-.34.65-.6,1.07-.78.42-.18.87-.27,1.37-.27.54,0,1.03.12,1.47.35s.8.58,1.06,1.05c.26.47.39,1.06.39,1.78v6.26h-1.5v-6.22c0-.67-.19-1.15-.56-1.44-.37-.29-.81-.43-1.31-.43-.42,0-.77.09-1.08.26-.3.17-.53.41-.7.72-.16.3-.24.65-.24,1.05v6.06h-1.49v-6.37c0-.51-.17-.93-.51-1.24-.34-.32-.78-.47-1.3-.47-.36,0-.7.08-1.02.25-.32.17-.57.42-.77.75s-.29.74-.29,1.24v5.84h-1.49Z"/><path class="e" d="M431.01,720.39c-.63,0-1.17-.13-1.65-.39-.47-.26-.84-.65-1.1-1.17-.26-.52-.39-1.17-.39-1.95v-5.89h1.49v5.77c0,.71.19,1.27.56,1.68.38.4.89.61,1.54.61.44,0,.84-.1,1.19-.29.35-.19.63-.48.83-.85.2-.37.31-.82.31-1.35v-5.56h1.5v9.28h-1.44v-2.25h.2c-.29.87-.7,1.48-1.22,1.83-.53.35-1.13.53-1.81.53Z"/><path class="e" d="M441.07,720.48c-.64,0-1.2-.09-1.7-.28-.5-.19-.9-.46-1.22-.83s-.54-.81-.65-1.35l1.42-.34c.13.51.38.88.75,1.12.37.24.83.36,1.38.36.65,0,1.16-.14,1.55-.42.38-.28.58-.61.58-.99,0-.32-.11-.59-.34-.8-.22-.21-.57-.37-1.03-.48l-1.54-.37c-.84-.2-1.47-.51-1.88-.93s-.61-.95-.61-1.61c0-.53.15-1,.45-1.41.3-.41.71-.72,1.22-.95.52-.23,1.1-.34,1.76-.34s1.18.1,1.62.29c.45.19.81.45,1.09.79.28.33.49.72.63,1.16l-1.35.35c-.13-.33-.34-.63-.64-.91-.3-.27-.74-.41-1.34-.41-.55,0-1.01.13-1.38.38-.37.25-.55.58-.55.96,0,.34.12.62.37.83.25.21.64.38,1.19.5l1.4.33c.84.2,1.46.51,1.87.92s.61.95.61,1.58c0,.54-.15,1.03-.46,1.45-.31.42-.74.76-1.29,1-.55.24-1.19.37-1.91.37Z"/><path class="e" d="M450.54,711v1.28h-4.8v-1.28h4.8ZM447.14,708.79h1.49v9.08c0,.42.08.72.25.91.17.19.45.29.84.29.09,0,.21-.01.36-.03.15-.02.28-.04.4-.07l.31,1.26c-.15.06-.33.1-.53.12-.2.03-.39.04-.59.04-.8,0-1.43-.21-1.88-.63-.45-.42-.67-1.01-.67-1.77v-9.2Z"/><path class="e" d="M460.88,711v1.28h-4.8v-1.28h4.8ZM457.48,708.79h1.49v9.08c0,.42.08.72.25.91.17.19.45.29.84.29.09,0,.21-.01.36-.03.15-.02.28-.04.4-.07l.31,1.26c-.15.06-.33.1-.53.12-.2.03-.39.04-.59.04-.8,0-1.43-.21-1.88-.63-.45-.42-.67-1.01-.67-1.77v-9.2Z"/><path class="e" d="M462.79,720.28v-9.28h1.44v1.43h.1c.17-.47.48-.85.92-1.13.44-.29.94-.43,1.49-.43.11,0,.24,0,.39,0,.15,0,.27.01.36.02v1.5s-.15-.03-.33-.05-.37-.03-.56-.03c-.44,0-.84.09-1.19.28-.35.19-.63.44-.83.76-.2.32-.3.7-.3,1.12v5.81h-1.49Z"/><path class="e" d="M472.34,720.39c-.63,0-1.17-.13-1.65-.39-.47-.26-.84-.65-1.1-1.17-.26-.52-.39-1.17-.39-1.95v-5.89h1.49v5.77c0,.71.19,1.27.56,1.68.38.4.89.61,1.54.61.44,0,.84-.1,1.19-.29.35-.19.63-.48.83-.85.2-.37.31-.82.31-1.35v-5.56h1.5v9.28h-1.44v-2.25h.2c-.29.87-.7,1.48-1.22,1.83-.53.35-1.13.53-1.81.53Z"/><path class="e" d="M482.4,720.48c-.64,0-1.2-.09-1.7-.28-.5-.19-.9-.46-1.22-.83s-.54-.81-.65-1.35l1.42-.34c.13.51.38.88.75,1.12.37.24.83.36,1.38.36.65,0,1.16-.14,1.55-.42.38-.28.58-.61.58-.99,0-.32-.11-.59-.34-.8-.22-.21-.57-.37-1.03-.48l-1.54-.37c-.84-.2-1.47-.51-1.88-.93s-.61-.95-.61-1.61c0-.53.15-1,.45-1.41.3-.41.71-.72,1.22-.95.52-.23,1.1-.34,1.76-.34s1.18.1,1.62.29c.45.19.81.45,1.09.79.28.33.49.72.63,1.16l-1.35.35c-.13-.33-.34-.63-.64-.91-.3-.27-.74-.41-1.34-.41-.55,0-1.01.13-1.38.38-.37.25-.55.58-.55.96,0,.34.12.62.37.83.25.21.64.38,1.19.5l1.4.33c.84.2,1.46.51,1.87.92s.61.95.61,1.58c0,.54-.15,1.03-.46,1.45-.31.42-.74.76-1.29,1-.55.24-1.19.37-1.91.37Z"/><path class="e" d="M491.87,711v1.28h-4.8v-1.28h4.8ZM488.47,708.79h1.49v9.08c0,.42.08.72.25.91.17.19.45.29.84.29.09,0,.21-.01.36-.03.15-.02.28-.04.4-.07l.31,1.26c-.15.06-.33.1-.53.12-.2.03-.39.04-.59.04-.8,0-1.43-.21-1.88-.63-.45-.42-.67-1.01-.67-1.77v-9.2Z"/><path class="e" d="M502.21,711v1.28h-4.8v-1.28h4.8ZM498.81,708.79h1.49v9.08c0,.42.08.72.25.91.17.19.45.29.84.29.09,0,.21-.01.36-.03.15-.02.28-.04.4-.07l.31,1.26c-.15.06-.33.1-.53.12-.2.03-.39.04-.59.04-.8,0-1.43-.21-1.88-.63-.45-.42-.67-1.01-.67-1.77v-9.2Z"/><path class="e" d="M505.62,714.72v5.56h-1.49v-12.37h1.49v5.34h-.26c.28-.86.69-1.47,1.21-1.83.52-.36,1.14-.54,1.84-.54.63,0,1.17.13,1.65.39.47.26.84.64,1.1,1.16.26.52.39,1.17.39,1.96v5.89h-1.5v-5.77c0-.71-.19-1.27-.56-1.68-.37-.4-.88-.61-1.53-.61-.44,0-.84.1-1.2.29-.35.19-.63.48-.84.85-.2.37-.31.82-.31,1.35Z"/><path class="e" d="M518.08,720.48c-.9,0-1.67-.2-2.32-.6-.65-.4-1.15-.96-1.5-1.67-.35-.71-.53-1.55-.53-2.5s.17-1.79.51-2.51c.34-.73.83-1.29,1.46-1.7.63-.41,1.36-.61,2.2-.61.49,0,.98.08,1.46.25.48.16.91.43,1.3.79.39.36.7.84.93,1.43.23.59.35,1.32.35,2.18v.62h-7.21v-1.26h6.4l-.7.46c0-.61-.1-1.15-.29-1.62-.19-.47-.47-.84-.85-1.11s-.84-.4-1.4-.4-1.04.14-1.44.41c-.4.27-.7.63-.91,1.07-.21.44-.32.91-.32,1.42v.84c0,.69.12,1.27.36,1.75s.57.84,1,1.09c.43.25.93.37,1.49.37.37,0,.7-.05,1-.16.3-.1.56-.26.77-.48s.38-.48.5-.79l1.44.4c-.14.46-.39.87-.73,1.23s-.77.63-1.27.83c-.51.2-1.08.3-1.71.3Z"/><path class="e" d="M528.37,709.3v-1.39h9.35v1.39h-3.88v10.97h-1.58v-10.97h-3.89Z"/><path class="e" d="M542.41,720.48c-.9,0-1.67-.2-2.32-.6-.65-.4-1.15-.96-1.5-1.67-.35-.71-.53-1.55-.53-2.5s.17-1.79.51-2.51c.34-.73.83-1.29,1.46-1.7.63-.41,1.36-.61,2.2-.61.49,0,.98.08,1.46.25.48.16.91.43,1.3.79.39.36.7.84.93,1.43.23.59.35,1.32.35,2.18v.62h-7.21v-1.26h6.4l-.7.46c0-.61-.1-1.15-.29-1.62-.19-.47-.47-.84-.85-1.11s-.84-.4-1.4-.4-1.04.14-1.44.41c-.4.27-.7.63-.91,1.07-.21.44-.32.91-.32,1.42v.84c0,.69.12,1.27.36,1.75s.57.84,1,1.09c.43.25.93.37,1.49.37.37,0,.7-.05,1-.16.3-.1.56-.26.77-.48s.38-.48.5-.79l1.44.4c-.14.46-.39.87-.73,1.23s-.77.63-1.27.83c-.51.2-1.08.3-1.71.3Z"/><path class="e" d="M549.92,714.72v5.56h-1.49v-9.28h1.44v2.25s-.2,0-.2,0c.28-.86.69-1.47,1.21-1.83.52-.36,1.14-.54,1.84-.54.63,0,1.17.13,1.64.39.47.26.84.64,1.1,1.16.26.52.39,1.17.39,1.96v5.89h-1.49v-5.77c0-.71-.19-1.27-.56-1.68-.37-.4-.88-.61-1.53-.61-.44,0-.84.1-1.2.29-.35.19-.63.48-.84.85-.2.37-.31.82-.31,1.35Z"/><path class="e" d="M561.07,720.49c-.59,0-1.12-.11-1.6-.33-.48-.22-.86-.54-1.14-.97-.28-.43-.42-.94-.42-1.55,0-.53.1-.96.32-1.29s.49-.59.84-.78c.35-.19.74-.33,1.17-.43s.85-.17,1.29-.22c.55-.07,1-.13,1.35-.17.35-.04.61-.1.78-.2.17-.09.25-.25.25-.48v-.05c0-.39-.07-.71-.22-.98s-.36-.47-.65-.62-.65-.22-1.08-.22-.82.07-1.14.21c-.32.14-.57.31-.77.52-.2.21-.34.42-.44.63l-1.44-.47c.24-.56.56-1,.96-1.32s.85-.54,1.34-.68.97-.2,1.44-.2c.31,0,.66.04,1.06.11.4.07.78.22,1.15.44.37.22.67.55.91.98.24.43.36,1.01.36,1.74v6.12h-1.47v-1.26h-.1c-.1.22-.27.44-.51.67s-.53.42-.9.58-.82.23-1.34.23ZM561.32,719.17c.55,0,1.02-.11,1.4-.32s.67-.5.87-.84.3-.71.3-1.08v-1.29c-.06.07-.19.14-.4.2-.2.06-.44.11-.7.15-.26.04-.52.08-.76.11-.25.03-.44.05-.59.07-.36.04-.7.12-1.01.23-.31.11-.56.27-.75.47-.19.21-.28.49-.28.84,0,.32.08.59.25.8s.39.38.68.49c.29.11.62.17.99.17Z"/><path class="e" d="M569.51,714.72v5.56h-1.49v-9.28h1.44v2.25s-.2,0-.2,0c.28-.86.69-1.47,1.21-1.83.52-.36,1.14-.54,1.84-.54.63,0,1.17.13,1.64.39.47.26.84.64,1.1,1.16.26.52.39,1.17.39,1.96v5.89h-1.49v-5.77c0-.71-.19-1.27-.56-1.68-.37-.4-.88-.61-1.53-.61-.44,0-.84.1-1.2.29-.35.19-.63.48-.84.85-.2.37-.31.82-.31,1.35Z"/><path class="e" d="M581.71,711v1.28h-4.8v-1.28h4.8ZM578.31,708.79h1.49v9.08c0,.42.08.72.25.91.17.19.45.29.84.29.09,0,.21-.01.36-.03.15-.02.28-.04.4-.07l.31,1.26c-.15.06-.33.1-.53.12-.2.03-.39.04-.59.04-.8,0-1.43-.21-1.88-.63-.45-.42-.67-1.01-.67-1.77v-9.2Z"/><path class="e" d="M593.59,720.44c-1.06,0-2-.26-2.83-.77-.83-.51-1.48-1.24-1.95-2.19-.47-.95-.71-2.08-.71-3.38s.24-2.44.71-3.39c.47-.95,1.12-1.68,1.95-2.2.83-.52,1.77-.77,2.83-.77.63,0,1.22.09,1.77.27.56.18,1.06.45,1.5.8s.81.78,1.11,1.28c.3.5.5,1.07.61,1.71h-1.58c-.09-.43-.24-.8-.45-1.12-.21-.32-.47-.59-.78-.81-.31-.22-.65-.39-1.02-.5s-.76-.17-1.16-.17c-.74,0-1.41.19-2.01.56s-1.07.93-1.42,1.66-.52,1.62-.52,2.68.18,1.94.53,2.67c.35.73.83,1.28,1.42,1.65.6.37,1.26.56,2,.56.4,0,.79-.06,1.16-.17s.71-.28,1.02-.5c.31-.22.57-.49.78-.81.21-.32.36-.7.45-1.12h1.58c-.1.63-.31,1.2-.6,1.69-.3.5-.67.92-1.11,1.28-.44.35-.94.62-1.5.81-.56.19-1.15.28-1.78.28Z"/><path class="e" d="M604.72,720.48c-.9,0-1.67-.2-2.32-.6-.65-.4-1.15-.96-1.5-1.67-.35-.71-.53-1.55-.53-2.5s.17-1.79.51-2.51c.34-.73.83-1.29,1.46-1.7.63-.41,1.36-.61,2.2-.61.49,0,.98.08,1.46.25.48.16.91.43,1.3.79.39.36.7.84.93,1.43.23.59.35,1.32.35,2.18v.62h-7.21v-1.26h6.4l-.7.46c0-.61-.1-1.15-.29-1.62-.19-.47-.47-.84-.85-1.11s-.84-.4-1.4-.4-1.04.14-1.44.41c-.4.27-.7.63-.91,1.07-.21.44-.32.91-.32,1.42v.84c0,.69.12,1.27.36,1.75s.57.84,1,1.09c.43.25.93.37,1.49.37.37,0,.7-.05,1-.16.3-.1.56-.26.77-.48s.38-.48.5-.79l1.44.4c-.14.46-.39.87-.73,1.23s-.77.63-1.27.83c-.51.2-1.08.3-1.71.3Z"/><path class="e" d="M610.73,720.28v-9.28h1.44v1.43h.1c.17-.47.48-.85.92-1.13.44-.29.94-.43,1.49-.43.11,0,.24,0,.39,0,.15,0,.27.01.36.02v1.5s-.15-.03-.33-.05-.37-.03-.56-.03c-.44,0-.84.09-1.19.28-.35.19-.63.44-.83.76-.2.32-.3.7-.3,1.12v5.81h-1.49Z"/><path class="e" d="M621.05,711v1.28h-4.8v-1.28h4.8ZM617.64,708.79h1.49v9.08c0,.42.08.72.25.91.17.19.45.29.84.29.09,0,.21-.01.36-.03.15-.02.28-.04.4-.07l.31,1.26c-.15.06-.33.1-.53.12-.2.03-.39.04-.59.04-.8,0-1.43-.21-1.88-.63-.45-.42-.67-1.01-.67-1.77v-9.2Z"/><path class="e" d="M623.71,709.48c-.28,0-.53-.1-.73-.29s-.31-.43-.31-.7.1-.51.31-.7c.2-.19.45-.29.73-.29s.53.1.74.29c.2.19.31.42.31.7s-.1.5-.31.7-.45.29-.74.29ZM622.96,720.28v-9.28h1.49v9.28h-1.49Z"/><path class="e" d="M631.39,711v1.28h-5.46v-1.28h5.46ZM627.75,720.28v-10.52c0-.54.13-.98.38-1.34.25-.36.58-.63.98-.81.4-.18.83-.27,1.28-.27.35,0,.65.03.88.09.23.06.4.11.51.16l-.42,1.28c-.08-.03-.18-.06-.3-.09-.12-.03-.29-.05-.5-.05-.46,0-.79.12-1,.35s-.32.58-.32,1.02v10.19h-1.49Z"/><path class="e" d="M634.12,709.48c-.28,0-.53-.1-.73-.29s-.31-.43-.31-.7.1-.51.31-.7c.2-.19.45-.29.73-.29s.53.1.74.29c.2.19.31.42.31.7s-.1.5-.31.7-.45.29-.74.29ZM633.37,720.28v-9.28h1.49v9.28h-1.49Z"/><path class="e" d="M641.26,720.48c-.84,0-1.58-.2-2.21-.6-.63-.4-1.13-.96-1.48-1.68s-.53-1.55-.53-2.51.18-1.81.53-2.54c.35-.72.85-1.28,1.48-1.68.63-.4,1.37-.6,2.21-.6.45,0,.87.06,1.27.17.4.12.76.28,1.09.5.33.22.61.49.85.8s.42.68.55,1.08l-1.44.41c-.07-.24-.17-.46-.31-.66s-.31-.37-.5-.52c-.2-.15-.42-.26-.68-.34s-.53-.12-.84-.12c-.62,0-1.13.16-1.53.49-.4.32-.69.75-.89,1.27-.19.53-.29,1.1-.29,1.72s.1,1.17.29,1.7c.19.52.49.95.89,1.27.4.32.91.48,1.53.48.31,0,.59-.04.85-.12s.49-.2.69-.35c.2-.15.37-.33.51-.54s.24-.44.31-.69l1.43.41c-.12.42-.3.78-.54,1.11-.24.32-.53.6-.86.83s-.7.4-1.1.52-.83.18-1.29.18Z"/><path class="e" d="M649.96,720.49c-.59,0-1.12-.11-1.6-.33-.48-.22-.86-.54-1.14-.97-.28-.43-.42-.94-.42-1.55,0-.53.1-.96.32-1.29s.49-.59.84-.78c.35-.19.74-.33,1.17-.43s.85-.17,1.29-.22c.55-.07,1-.13,1.35-.17.35-.04.61-.1.78-.2.17-.09.25-.25.25-.48v-.05c0-.39-.07-.71-.22-.98s-.36-.47-.65-.62-.65-.22-1.08-.22-.82.07-1.14.21c-.32.14-.57.31-.77.52-.2.21-.34.42-.44.63l-1.44-.47c.24-.56.56-1,.96-1.32s.85-.54,1.34-.68.97-.2,1.44-.2c.31,0,.66.04,1.06.11.4.07.78.22,1.15.44.37.22.67.55.91.98.24.43.36,1.01.36,1.74v6.12h-1.47v-1.26h-.1c-.1.22-.27.44-.51.67s-.53.42-.9.58-.82.23-1.34.23ZM650.22,719.17c.55,0,1.02-.11,1.4-.32s.67-.5.87-.84.3-.71.3-1.08v-1.29c-.06.07-.19.14-.4.2-.2.06-.44.11-.7.15-.26.04-.52.08-.76.11-.25.03-.44.05-.59.07-.36.04-.7.12-1.01.23-.31.11-.56.27-.75.47-.19.21-.28.49-.28.84,0,.32.08.59.25.8s.39.38.68.49c.29.11.62.17.99.17Z"/><path class="e" d="M660.56,711v1.28h-4.8v-1.28h4.8ZM657.16,708.79h1.49v9.08c0,.42.08.72.25.91.17.19.45.29.84.29.09,0,.21-.01.36-.03.15-.02.28-.04.4-.07l.31,1.26c-.15.06-.33.1-.53.12-.2.03-.39.04-.59.04-.8,0-1.43-.21-1.88-.63-.45-.42-.67-1.01-.67-1.77v-9.2Z"/><path class="e" d="M666.2,720.48c-.9,0-1.67-.2-2.32-.6-.65-.4-1.15-.96-1.5-1.67-.35-.71-.53-1.55-.53-2.5s.17-1.79.51-2.51c.34-.73.83-1.29,1.46-1.7.63-.41,1.36-.61,2.2-.61.49,0,.98.08,1.46.25.48.16.91.43,1.3.79.39.36.7.84.93,1.43.23.59.35,1.32.35,2.18v.62h-7.21v-1.26h6.4l-.7.46c0-.61-.1-1.15-.29-1.62-.19-.47-.47-.84-.85-1.11s-.84-.4-1.4-.4-1.04.14-1.44.41c-.4.27-.7.63-.91,1.07-.21.44-.32.91-.32,1.42v.84c0,.69.12,1.27.36,1.75s.57.84,1,1.09c.43.25.93.37,1.49.37.37,0,.7-.05,1-.16.3-.1.56-.26.77-.48s.38-.48.5-.79l1.44.4c-.14.46-.39.87-.73,1.23s-.77.63-1.27.83c-.51.2-1.08.3-1.71.3Z"/><path class="e" d="M675.37,720.48c-.64,0-1.2-.09-1.7-.28-.5-.19-.9-.46-1.22-.83s-.54-.81-.65-1.35l1.42-.34c.13.51.38.88.75,1.12.37.24.83.36,1.38.36.65,0,1.16-.14,1.55-.42.38-.28.58-.61.58-.99,0-.32-.11-.59-.34-.8-.22-.21-.57-.37-1.03-.48l-1.54-.37c-.84-.2-1.47-.51-1.88-.93s-.61-.95-.61-1.61c0-.53.15-1,.45-1.41.3-.41.71-.72,1.22-.95.52-.23,1.1-.34,1.76-.34s1.18.1,1.62.29c.45.19.81.45,1.09.79.28.33.49.72.63,1.16l-1.35.35c-.13-.33-.34-.63-.64-.91-.3-.27-.74-.41-1.34-.41-.55,0-1.01.13-1.38.38-.37.25-.55.58-.55.96,0,.34.12.62.37.83.25.21.64.38,1.19.5l1.4.33c.84.2,1.46.51,1.87.92s.61.95.61,1.58c0,.54-.15,1.03-.46,1.45-.31.42-.74.76-1.29,1-.55.24-1.19.37-1.91.37Z"/><path class="e" d="M138.35,540.7v17.46h-2.23v-17.46h2.23Z"/><path class="e" d="M146.76,558.44c-.9,0-1.7-.13-2.4-.39s-1.28-.65-1.73-1.17-.76-1.15-.91-1.9l2-.48c.19.72.54,1.25,1.06,1.58s1.17.5,1.95.5c.91,0,1.64-.2,2.19-.59s.81-.86.81-1.39c0-.45-.16-.83-.47-1.13s-.8-.53-1.45-.67l-2.18-.52c-1.19-.28-2.07-.72-2.65-1.31s-.87-1.35-.87-2.27c0-.75.21-1.41.63-1.99s1-1.02,1.73-1.35,1.56-.49,2.49-.49,1.66.13,2.29.4,1.14.64,1.54,1.11.69,1.02.88,1.63l-1.91.49c-.18-.47-.48-.89-.9-1.28s-1.05-.57-1.89-.57c-.78,0-1.43.18-1.95.54s-.78.81-.78,1.36c0,.48.18.87.53,1.17s.91.53,1.68.71l1.98.47c1.19.28,2.07.72,2.64,1.31s.86,1.33.86,2.23c0,.77-.22,1.45-.65,2.04s-1.04,1.07-1.82,1.41-1.68.52-2.7.52Z"/><path class="e" d="M159.43,558.44c-.9,0-1.7-.13-2.4-.39s-1.28-.65-1.73-1.17-.76-1.15-.91-1.9l2-.48c.19.72.54,1.25,1.06,1.58s1.17.5,1.95.5c.91,0,1.64-.2,2.19-.59s.81-.86.81-1.39c0-.45-.16-.83-.47-1.13s-.8-.53-1.45-.67l-2.18-.52c-1.19-.28-2.07-.72-2.65-1.31s-.87-1.35-.87-2.27c0-.75.21-1.41.63-1.99s1-1.02,1.73-1.35,1.56-.49,2.49-.49,1.66.13,2.29.4,1.14.64,1.54,1.11.69,1.02.88,1.63l-1.91.49c-.18-.47-.48-.89-.9-1.28s-1.05-.57-1.89-.57c-.78,0-1.43.18-1.95.54s-.78.81-.78,1.36c0,.48.18.87.53,1.17s.91.53,1.68.71l1.98.47c1.19.28,2.07.72,2.64,1.31s.86,1.33.86,2.23c0,.77-.22,1.45-.65,2.04s-1.04,1.07-1.82,1.41-1.68.52-2.7.52Z"/><path class="e" d="M172.09,558.32c-.88,0-1.66-.18-2.33-.54s-1.19-.91-1.56-1.65-.56-1.65-.56-2.75v-8.32h2.11v8.14c0,1.01.27,1.8.8,2.37s1.25.86,2.17.86c.62,0,1.19-.14,1.68-.41s.89-.67,1.18-1.2.43-1.16.43-1.9v-7.85h2.12v13.1h-2.04v-3.18h.28c-.41,1.23-.98,2.09-1.73,2.59s-1.6.75-2.56.75Z"/><path class="e" d="M187.35,558.44c-1.27,0-2.36-.28-3.28-.84s-1.62-1.35-2.12-2.36-.74-2.18-.74-3.53.24-2.53.73-3.55,1.17-1.82,2.06-2.4,1.92-.87,3.11-.87c.7,0,1.38.12,2.06.35s1.29.6,1.84,1.11.99,1.19,1.32,2.02.49,1.86.49,3.07v.88h-10.17v-1.78h9.04l-.98.66c0-.86-.13-1.62-.4-2.29s-.67-1.19-1.2-1.57-1.19-.57-1.98-.57-1.46.19-2.03.58-.99.89-1.29,1.51-.45,1.29-.45,2v1.18c0,.97.17,1.79.5,2.47s.81,1.19,1.41,1.54,1.31.52,2.1.52c.52,0,.98-.07,1.41-.22s.79-.37,1.09-.67.54-.67.7-1.12l2.04.56c-.2.66-.55,1.23-1.03,1.73s-1.08.89-1.8,1.17-1.52.42-2.42.42Z"/><path class="e" d="M195.83,558.16v-13.1h2.04v2.02h.14c.24-.66.67-1.2,1.29-1.6s1.32-.6,2.1-.6c.16,0,.34,0,.56.01s.38.02.51.02v2.12c-.06-.02-.22-.04-.47-.07s-.52-.05-.8-.05c-.62,0-1.19.13-1.68.39s-.88.62-1.17,1.08-.42.98-.42,1.58v8.2h-2.11Z"/><rect class="i" x="349.94" y="507.33" width="311.99" height="93.31"/><path class="e" d="M475.87,540.7v17.46h-2.23v-17.46h2.23Z"/><path class="e" d="M484.28,558.44c-.9,0-1.7-.13-2.4-.39s-1.28-.65-1.73-1.17-.76-1.15-.91-1.9l2-.48c.19.72.54,1.25,1.06,1.58s1.17.5,1.95.5c.91,0,1.64-.2,2.19-.59s.81-.86.81-1.39c0-.45-.16-.83-.47-1.13s-.8-.53-1.45-.67l-2.18-.52c-1.19-.28-2.07-.72-2.65-1.31s-.87-1.35-.87-2.27c0-.75.21-1.41.63-1.99s1-1.02,1.73-1.35,1.56-.49,2.49-.49,1.66.13,2.29.4,1.14.64,1.54,1.11.69,1.02.88,1.63l-1.91.49c-.18-.47-.48-.89-.9-1.28s-1.05-.57-1.89-.57c-.78,0-1.43.18-1.95.54s-.78.81-.78,1.36c0,.48.18.87.53,1.17s.91.53,1.68.71l1.98.47c1.19.28,2.07.72,2.64,1.31s.86,1.33.86,2.23c0,.77-.22,1.45-.65,2.04s-1.04,1.07-1.82,1.41-1.68.52-2.7.52Z"/><path class="e" d="M496.95,558.44c-.9,0-1.7-.13-2.4-.39s-1.28-.65-1.73-1.17-.76-1.15-.91-1.9l2-.48c.19.72.54,1.25,1.06,1.58s1.17.5,1.95.5c.91,0,1.64-.2,2.19-.59s.81-.86.81-1.39c0-.45-.16-.83-.47-1.13s-.8-.53-1.45-.67l-2.18-.52c-1.19-.28-2.07-.72-2.65-1.31s-.87-1.35-.87-2.27c0-.75.21-1.41.63-1.99s1-1.02,1.73-1.35,1.56-.49,2.49-.49,1.66.13,2.29.4,1.14.64,1.54,1.11.69,1.02.88,1.63l-1.91.49c-.18-.47-.48-.89-.9-1.28s-1.05-.57-1.89-.57c-.78,0-1.43.18-1.95.54s-.78.81-.78,1.36c0,.48.18.87.53,1.17s.91.53,1.68.71l1.98.47c1.19.28,2.07.72,2.64,1.31s.86,1.33.86,2.23c0,.77-.22,1.45-.65,2.04s-1.04,1.07-1.82,1.41-1.68.52-2.7.52Z"/><path class="e" d="M509.61,558.32c-.88,0-1.66-.18-2.33-.54s-1.19-.91-1.56-1.65-.56-1.65-.56-2.75v-8.32h2.11v8.14c0,1.01.27,1.8.8,2.37s1.25.86,2.17.86c.62,0,1.19-.14,1.68-.41s.89-.67,1.18-1.2.43-1.16.43-1.9v-7.85h2.12v13.1h-2.04v-3.18h.28c-.41,1.23-.98,2.09-1.73,2.59s-1.6.75-2.56.75Z"/><path class="e" d="M524.86,558.44c-1.27,0-2.36-.28-3.28-.84s-1.62-1.35-2.12-2.36-.74-2.18-.74-3.53.24-2.53.73-3.55,1.17-1.82,2.06-2.4,1.92-.87,3.11-.87c.7,0,1.38.12,2.06.35s1.29.6,1.84,1.11.99,1.19,1.32,2.02.49,1.86.49,3.07v.88h-10.17v-1.78h9.04l-.98.66c0-.86-.13-1.62-.4-2.29s-.67-1.19-1.2-1.57-1.19-.57-1.98-.57-1.46.19-2.03.58-.99.89-1.29,1.51-.45,1.29-.45,2v1.18c0,.97.17,1.79.5,2.47s.81,1.19,1.41,1.54,1.31.52,2.1.52c.52,0,.98-.07,1.41-.22s.79-.37,1.09-.67.54-.67.7-1.12l2.04.56c-.2.66-.55,1.23-1.03,1.73s-1.08.89-1.8,1.17-1.52.42-2.42.42Z"/><path class="e" d="M533.35,558.16v-13.1h2.04v2.02h.14c.24-.66.67-1.2,1.29-1.6s1.32-.6,2.1-.6c.16,0,.34,0,.56.01s.38.02.51.02v2.12c-.06-.02-.22-.04-.47-.07s-.52-.05-.8-.05c-.62,0-1.19.13-1.68.39s-.88.62-1.17,1.08-.42.98-.42,1.58v8.2h-2.11Z"/><rect class="i" x="687.46" y="507.33" width="311.99" height="93.31"/><path class="e" d="M813.39,540.7v17.46h-2.23v-17.46h2.23Z"/><path class="e" d="M821.8,558.44c-.9,0-1.7-.13-2.4-.39s-1.28-.65-1.73-1.17-.76-1.15-.91-1.9l2-.48c.19.72.54,1.25,1.06,1.58s1.17.5,1.95.5c.91,0,1.64-.2,2.19-.59s.81-.86.81-1.39c0-.45-.16-.83-.47-1.13s-.8-.53-1.45-.67l-2.18-.52c-1.19-.28-2.07-.72-2.65-1.31s-.87-1.35-.87-2.27c0-.75.21-1.41.63-1.99s1-1.02,1.73-1.35,1.56-.49,2.49-.49,1.66.13,2.29.4,1.14.64,1.54,1.11.69,1.02.88,1.63l-1.91.49c-.18-.47-.48-.89-.9-1.28s-1.05-.57-1.89-.57c-.78,0-1.43.18-1.95.54s-.78.81-.78,1.36c0,.48.18.87.53,1.17s.91.53,1.68.71l1.98.47c1.19.28,2.07.72,2.64,1.31s.86,1.33.86,2.23c0,.77-.22,1.45-.65,2.04s-1.04,1.07-1.82,1.41-1.68.52-2.7.52Z"/><path class="e" d="M834.47,558.44c-.9,0-1.7-.13-2.4-.39s-1.28-.65-1.73-1.17-.76-1.15-.91-1.9l2-.48c.19.72.54,1.25,1.06,1.58s1.17.5,1.95.5c.91,0,1.64-.2,2.19-.59s.81-.86.81-1.39c0-.45-.16-.83-.47-1.13s-.8-.53-1.45-.67l-2.18-.52c-1.19-.28-2.07-.72-2.65-1.31s-.87-1.35-.87-2.27c0-.75.21-1.41.63-1.99s1-1.02,1.73-1.35,1.56-.49,2.49-.49,1.66.13,2.29.4,1.14.64,1.54,1.11.69,1.02.88,1.63l-1.91.49c-.18-.47-.48-.89-.9-1.28s-1.05-.57-1.89-.57c-.78,0-1.43.18-1.95.54s-.78.81-.78,1.36c0,.48.18.87.53,1.17s.91.53,1.68.71l1.98.47c1.19.28,2.07.72,2.64,1.31s.86,1.33.86,2.23c0,.77-.22,1.45-.65,2.04s-1.04,1.07-1.82,1.41-1.68.52-2.7.52Z"/><path class="e" d="M847.13,558.32c-.88,0-1.66-.18-2.33-.54s-1.19-.91-1.56-1.65-.56-1.65-.56-2.75v-8.32h2.11v8.14c0,1.01.27,1.8.8,2.37s1.25.86,2.17.86c.62,0,1.19-.14,1.68-.41s.89-.67,1.18-1.2.43-1.16.43-1.9v-7.85h2.12v13.1h-2.04v-3.18h.28c-.41,1.23-.98,2.09-1.73,2.59s-1.6.75-2.56.75Z"/><path class="e" d="M862.38,558.44c-1.27,0-2.36-.28-3.28-.84s-1.62-1.35-2.12-2.36-.74-2.18-.74-3.53.24-2.53.73-3.55,1.17-1.82,2.06-2.4,1.92-.87,3.11-.87c.7,0,1.38.12,2.06.35s1.29.6,1.84,1.11.99,1.19,1.32,2.02.49,1.86.49,3.07v.88h-10.17v-1.78h9.04l-.98.66c0-.86-.13-1.62-.4-2.29s-.67-1.19-1.2-1.57-1.19-.57-1.98-.57-1.46.19-2.03.58-.99.89-1.29,1.51-.45,1.29-.45,2v1.18c0,.97.17,1.79.5,2.47s.81,1.19,1.41,1.54,1.31.52,2.1.52c.52,0,.98-.07,1.41-.22s.79-.37,1.09-.67.54-.67.7-1.12l2.04.56c-.2.66-.55,1.23-1.03,1.73s-1.08.89-1.8,1.17-1.52.42-2.42.42Z"/><path class="e" d="M870.87,558.16v-13.1h2.04v2.02h.14c.24-.66.67-1.2,1.29-1.6s1.32-.6,2.1-.6c.16,0,.34,0,.56.01s.38.02.51.02v2.12c-.06-.02-.22-.04-.47-.07s-.52-.05-.8-.05c-.62,0-1.19.13-1.68.39s-.88.62-1.17,1.08-.42.98-.42,1.58v8.2h-2.11Z"/><rect class="g" x="146.62" y="438.5" width="8.11" height="21.15"/><path class="g" d="M136.79,438.8l-16.46,8.88c-.23.13-.53.13-.76,0l-16.46-8.88c-.35-.19-.76-.29-1.18-.29h-.02c-1.25,0-2.26.89-2.26,1.99v19.13s8.1,0,8.1,0v-9.11c0-.56.69-.9,1.23-.61l9.22,4.98c.91.49,2.05.5,2.97.02l9.73-5.04c.54-.28,1.22.06,1.22.62v9.13s8.1,0,8.1,0v-19.13c0-1.1-1.01-1.99-2.26-1.99h-.02c-.42,0-.82.1-1.18.29Z"/><path class="g" d="M195.17,438.5h-8.22s0,9.63,0,9.63c0,.54-.65.89-1.19.63l-21.31-10.02c-.33-.15-.69-.23-1.06-.23h-.01c-1.25,0-2.26.89-2.26,1.99v19.13s8.16,0,8.16,0v-9.62c0-.54.65-.89,1.19-.63l21.4,10.02c.33.15.69.23,1.06.23h0c1.25,0,2.26-.89,2.26-1.99v-19.14Z"/><path class="g" d="M201.54,459.65v-21.15s3.73,0,3.73,0v21.15s-3.73,0-3.73,0Z"/><path class="g" d="M227.24,460.03c-10.04,0-17.16-4.21-17.16-10.95,0-6.71,7.16-10.95,17.16-10.95,10,0,17.2,4.21,17.2,10.95,0,6.74-7.04,10.95-17.2,10.95ZM227.24,440.94c-7.46,0-13.21,2.88-13.21,8.15,0,5.3,5.75,8.15,13.21,8.15,7.46,0,13.26-2.84,13.26-8.15,0-5.27-5.79-8.15-13.26-8.15Z"/><rect class="j" x="687.46" y="413.5" width="311.99" height="93.31"/><path class="g" d="M803.4,477.56v-1.82h10.73v1.82h-4.3v12h-2.12v-12h-4.31Z"/><path class="g" d="M819.33,489.78c-1.02,0-1.9-.22-2.64-.66s-1.31-1.06-1.71-1.86c-.4-.8-.6-1.73-.6-2.81s.2-2,.59-2.81c.39-.81.95-1.44,1.67-1.9.72-.45,1.56-.68,2.52-.68.59,0,1.17.1,1.72.29.55.2,1.04.5,1.48.91.44.41.79.95,1.04,1.61.26.66.38,1.46.38,2.4v.72h-8.27v-1.52h7.22l-.96.5c0-.64-.1-1.2-.3-1.68-.2-.49-.49-.86-.88-1.14-.39-.27-.87-.41-1.45-.41s-1.07.14-1.48.42c-.41.28-.72.65-.93,1.1-.21.46-.32.95-.32,1.49v1.04c0,.71.12,1.31.37,1.8.24.49.59.86,1.02,1.11.44.25.95.38,1.53.38.38,0,.73-.05,1.04-.16.31-.11.58-.27.8-.49.23-.22.4-.49.51-.81l1.92.46c-.17.53-.45,1-.84,1.41-.39.41-.88.73-1.47.95-.58.23-1.25.34-1.99.34Z"/><path class="g" d="M828.06,483.43v6.14h-2.04v-10.37h1.95l.02,2.54h-.21c.3-.93.74-1.61,1.32-2.03.58-.43,1.27-.64,2.09-.64.71,0,1.32.15,1.85.45.53.3.94.73,1.23,1.31.3.58.45,1.3.45,2.16v6.59h-2.04v-6.34c0-.75-.19-1.33-.58-1.75s-.92-.63-1.6-.63c-.46,0-.87.1-1.23.3-.37.2-.65.49-.86.88-.21.38-.32.85-.32,1.4Z"/><path class="g" d="M840.36,489.8c-.66,0-1.25-.12-1.78-.37-.53-.24-.95-.6-1.26-1.07-.31-.47-.46-1.04-.46-1.73,0-.59.11-1.07.34-1.45.23-.38.53-.68.92-.9.39-.22.82-.39,1.29-.5.47-.11.95-.2,1.44-.25.61-.07,1.11-.13,1.49-.18.38-.05.67-.12.85-.23.18-.11.27-.28.27-.52v-.06c0-.39-.07-.72-.22-.98-.15-.27-.37-.47-.66-.62-.29-.15-.66-.22-1.1-.22s-.84.07-1.16.21c-.32.14-.59.32-.79.53-.2.22-.35.44-.45.68l-1.92-.5c.23-.62.57-1.12,1.01-1.49.44-.38.94-.65,1.51-.83.57-.17,1.16-.26,1.76-.26.42,0,.87.05,1.34.15.47.1.91.28,1.33.54.41.26.75.62,1.01,1.09s.39,1.08.39,1.84v6.88h-1.98v-1.42h-.1c-.14.27-.34.53-.6.78-.27.25-.6.46-1.01.63-.4.16-.89.25-1.45.25ZM840.81,488.16c.56,0,1.03-.11,1.43-.32.4-.22.7-.5.91-.86.21-.36.32-.74.32-1.14v-1.33c-.07.07-.21.14-.42.2-.21.06-.44.11-.71.16-.27.05-.52.08-.77.12-.25.03-.45.05-.61.07-.38.05-.73.13-1.05.25-.32.12-.57.28-.76.5-.19.22-.28.5-.28.86,0,.33.08.6.26.83.17.22.4.39.69.5.29.11.63.17,1.01.17Z"/><path class="g" d="M850.28,483.43v6.14h-2.04v-10.37h1.95l.02,2.54h-.21c.3-.93.74-1.61,1.32-2.03.58-.43,1.27-.64,2.09-.64.71,0,1.32.15,1.85.45.53.3.94.73,1.23,1.31.3.58.45,1.3.45,2.16v6.59h-2.04v-6.34c0-.75-.19-1.33-.58-1.75s-.92-.63-1.6-.63c-.46,0-.87.1-1.23.3-.37.2-.65.49-.86.88-.21.38-.32.85-.32,1.4Z"/><path class="g" d="M864.11,479.19v1.66h-5.62v-1.66h5.62ZM860,476.73h2.04v10.04c0,.41.09.72.26.91.18.19.47.29.87.29.1,0,.24-.01.42-.04.17-.02.32-.05.45-.07l.36,1.63c-.22.07-.45.13-.7.16-.25.03-.49.05-.73.05-.94,0-1.67-.24-2.19-.73s-.78-1.17-.78-2.05v-10.21Z"/><path class="g" d="M871.88,482.86v1.76h-6.14v-1.76h6.14Z"/><path class="g" d="M873.97,489.57v-1.53l4.69-4.85c.48-.51.88-.96,1.21-1.35.32-.39.57-.76.73-1.12s.25-.74.25-1.15c0-.46-.11-.86-.32-1.2-.21-.33-.5-.59-.87-.77-.37-.18-.79-.27-1.26-.27s-.92.1-1.28.3c-.37.2-.65.48-.84.85-.2.36-.3.79-.3,1.29h-2.03c0-.84.19-1.58.58-2.21.39-.63.92-1.12,1.6-1.47.67-.35,1.44-.52,2.31-.52s1.65.17,2.31.52c.67.35,1.19.82,1.56,1.41.38.59.57,1.26.57,2.01,0,.51-.09,1-.28,1.48-.19.48-.52,1.03-.99,1.63-.47.61-1.14,1.34-2,2.21l-2.71,2.83v.11h6.2v1.81h-9.13Z"/><rect class="g" x="821.66" y="438.5" width="8.11" height="21.15"/><path class="g" d="M811.83,438.8l-16.46,8.88c-.23.13-.53.13-.76,0l-16.46-8.88c-.35-.19-.76-.29-1.18-.29h-.02c-1.25,0-2.26.89-2.26,1.99v19.13s8.1,0,8.1,0v-9.11c0-.56.69-.9,1.23-.61l9.22,4.98c.91.49,2.05.5,2.97.02l9.73-5.04c.54-.28,1.22.06,1.22.62v9.13s8.1,0,8.1,0v-19.13c0-1.1-1.01-1.99-2.26-1.99h-.02c-.42,0-.82.1-1.18.29Z"/><path class="g" d="M870.21,438.5h-8.22s0,9.63,0,9.63c0,.54-.65.89-1.19.63l-21.31-10.02c-.33-.15-.69-.23-1.06-.23h-.01c-1.25,0-2.26.89-2.26,1.99v19.13s8.16,0,8.16,0v-9.62c0-.54.65-.89,1.19-.63l21.4,10.02c.33.15.69.23,1.06.23h0c1.25,0,2.26-.89,2.26-1.99v-19.14Z"/><path class="g" d="M876.58,459.65v-21.15s3.73,0,3.73,0v21.15s-3.73,0-3.73,0Z"/><path class="g" d="M902.28,460.03c-10.04,0-17.16-4.21-17.16-10.95,0-6.71,7.16-10.95,17.16-10.95,10,0,17.2,4.21,17.2,10.95,0,6.74-7.04,10.95-17.2,10.95ZM902.28,440.94c-7.46,0-13.21,2.88-13.21,8.15,0,5.3,5.75,8.15,13.21,8.15,7.46,0,13.26-2.84,13.26-8.15,0-5.27-5.79-8.15-13.26-8.15Z"/><rect class="j" x="349.94" y="413.5" width="311.99" height="93.31"/><path class="g" d="M467.51,477.56v-1.82h10.73v1.82h-4.3v12h-2.12v-12h-4.31Z"/><path class="g" d="M483.44,489.78c-1.02,0-1.9-.22-2.64-.66s-1.31-1.06-1.71-1.86c-.4-.8-.6-1.73-.6-2.81s.2-2,.59-2.81c.39-.81.95-1.44,1.67-1.9.72-.45,1.56-.68,2.52-.68.59,0,1.17.1,1.72.29.55.2,1.04.5,1.48.91.44.41.79.95,1.04,1.61.26.66.38,1.46.38,2.4v.72h-8.27v-1.52h7.22l-.96.5c0-.64-.1-1.2-.3-1.68-.2-.49-.49-.86-.88-1.14-.39-.27-.87-.41-1.45-.41s-1.07.14-1.48.42c-.41.28-.72.65-.93,1.1-.21.46-.32.95-.32,1.49v1.04c0,.71.12,1.31.37,1.8.24.49.59.86,1.02,1.11.44.25.95.38,1.53.38.38,0,.73-.05,1.04-.16.31-.11.58-.27.8-.49.23-.22.4-.49.51-.81l1.92.46c-.17.53-.45,1-.84,1.41-.39.41-.88.73-1.47.95-.58.23-1.25.34-1.99.34Z"/><path class="g" d="M492.17,483.43v6.14h-2.04v-10.37h1.95l.02,2.54h-.21c.3-.93.74-1.61,1.32-2.03.58-.43,1.27-.64,2.09-.64.71,0,1.32.15,1.85.45.53.3.94.73,1.23,1.31.3.58.45,1.3.45,2.16v6.59h-2.04v-6.34c0-.75-.19-1.33-.58-1.75s-.92-.63-1.6-.63c-.46,0-.87.1-1.23.3-.37.2-.65.49-.86.88-.21.38-.32.85-.32,1.4Z"/><path class="g" d="M504.46,489.8c-.66,0-1.25-.12-1.78-.37-.53-.24-.95-.6-1.26-1.07-.31-.47-.46-1.04-.46-1.73,0-.59.11-1.07.34-1.45.23-.38.53-.68.92-.9.39-.22.82-.39,1.29-.5.47-.11.95-.2,1.44-.25.61-.07,1.11-.13,1.49-.18.38-.05.67-.12.85-.23.18-.11.27-.28.27-.52v-.06c0-.39-.07-.72-.22-.98-.15-.27-.37-.47-.66-.62-.29-.15-.66-.22-1.1-.22s-.84.07-1.16.21c-.32.14-.59.32-.79.53-.2.22-.35.44-.45.68l-1.92-.5c.23-.62.57-1.12,1.01-1.49.44-.38.94-.65,1.51-.83.57-.17,1.16-.26,1.76-.26.42,0,.87.05,1.34.15.47.1.91.28,1.33.54.41.26.75.62,1.01,1.09s.39,1.08.39,1.84v6.88h-1.98v-1.42h-.1c-.14.27-.34.53-.6.78-.27.25-.6.46-1.01.63-.4.16-.89.25-1.45.25ZM504.92,488.16c.56,0,1.03-.11,1.43-.32.4-.22.7-.5.91-.86.21-.36.32-.74.32-1.14v-1.33c-.07.07-.21.14-.42.2-.21.06-.44.11-.71.16-.27.05-.52.08-.77.12-.25.03-.45.05-.61.07-.38.05-.73.13-1.05.25-.32.12-.57.28-.76.5-.19.22-.28.5-.28.86,0,.33.08.6.26.83.17.22.4.39.69.5.29.11.63.17,1.01.17Z"/><path class="g" d="M514.39,483.43v6.14h-2.04v-10.37h1.95l.02,2.54h-.21c.3-.93.74-1.61,1.32-2.03.58-.43,1.27-.64,2.09-.64.71,0,1.32.15,1.85.45.53.3.94.73,1.23,1.31.3.58.45,1.3.45,2.16v6.59h-2.04v-6.34c0-.75-.19-1.33-.58-1.75s-.92-.63-1.6-.63c-.46,0-.87.1-1.23.3-.37.2-.65.49-.86.88-.21.38-.32.85-.32,1.4Z"/><path class="g" d="M528.21,479.19v1.66h-5.62v-1.66h5.62ZM524.1,476.73h2.04v10.04c0,.41.09.72.26.91.18.19.47.29.87.29.1,0,.24-.01.42-.04.17-.02.32-.05.45-.07l.36,1.63c-.22.07-.45.13-.7.16-.25.03-.49.05-.73.05-.94,0-1.67-.24-2.19-.73s-.78-1.17-.78-2.05v-10.21Z"/><path class="g" d="M535.99,482.86v1.76h-6.14v-1.76h6.14Z"/><path class="g" d="M543.66,475.74v13.82h-2.1v-11.9h-.09l-3.28,2.39v-2.12l3.02-2.19h2.45Z"/><rect class="g" x="484.14" y="438.5" width="8.11" height="21.15"/><path class="g" d="M474.31,438.8l-16.46,8.88c-.23.13-.53.13-.76,0l-16.46-8.88c-.35-.19-.76-.29-1.18-.29h-.02c-1.25,0-2.26.89-2.26,1.99v19.13s8.1,0,8.1,0v-9.11c0-.56.69-.9,1.23-.61l9.22,4.98c.91.49,2.05.5,2.97.02l9.73-5.04c.54-.28,1.22.06,1.22.62v9.13s8.1,0,8.1,0v-19.13c0-1.1-1.01-1.99-2.26-1.99h-.02c-.42,0-.82.1-1.18.29Z"/><path class="g" d="M532.69,438.5h-8.22s0,9.63,0,9.63c0,.54-.65.89-1.19.63l-21.31-10.02c-.33-.15-.69-.23-1.06-.23h-.01c-1.25,0-2.26.89-2.26,1.99v19.13s8.16,0,8.16,0v-9.62c0-.54.65-.89,1.19-.63l21.4,10.02c.33.15.69.23,1.06.23h0c1.25,0,2.26-.89,2.26-1.99v-19.14Z"/><path class="g" d="M539.06,459.65v-21.15s3.73,0,3.73,0v21.15s-3.73,0-3.73,0Z"/><path class="g" d="M564.76,460.03c-10.04,0-17.16-4.21-17.16-10.95,0-6.71,7.16-10.95,17.16-10.95,10,0,17.2,4.21,17.2,10.95,0,6.74-7.04,10.95-17.2,10.95ZM564.76,440.94c-7.46,0-13.21,2.88-13.21,8.15,0,5.3,5.75,8.15,13.21,8.15,7.46,0,13.26-2.84,13.26-8.15,0-5.27-5.79-8.15-13.26-8.15Z"/><line class="h" x1="507.75" y1="153.69" x2="507.75" y2="399.69"/><polygon class="f" points="520.08 387.63 507.75 399.96 495.42 387.63 520.08 387.63"/><line class="h" x1="161.11" y1="236.3" x2="161.11" y2="399.69"/><polygon class="f" points="173.43 387.63 161.11 399.96 148.78 387.63 173.43 387.63"/><polyline class="h" points="843.45 399.69 843.45 236.3 161.11 236.3"/><polygon class="f" points="855.78 387.63 843.45 399.96 831.13 387.63 855.78 387.63"/><polyline class="k" points="843.45 600.64 843.45 661.42 161.11 661.42 161.11 607.99"/><polygon class="f" points="148.78 619.65 161.11 607.33 173.43 619.65 148.78 619.65"/><line class="k" x1="507.75" y1="600.64" x2="507.75" y2="661.42"/></svg>