<?xml version="1.0" encoding="UTF-8"?>
<svg id="b" xmlns="http://www.w3.org/2000/svg" version="1.1" viewBox="0 0 1089.8 837.5">
  <defs>
    <style>
      .cls-1 {
        fill: #a1c7ff;
      }

      .cls-1, .cls-2, .cls-3, .cls-4, .cls-5, .cls-6, .cls-7, .cls-8, .cls-9, .cls-10, .cls-11 {
        stroke-width: 0px;
      }

      .cls-2, .cls-8 {
        fill: #3471db;
      }

      .cls-2, .cls-11 {
        fill-rule: evenodd;
      }

      .cls-3 {
        fill: #e3efef;
      }

      .cls-4 {
        fill: #020202;
      }

      .cls-5 {
        fill: #e1eaf9;
      }

      .cls-6, .cls-11 {
        fill: #000;
      }

      .cls-7 {
        fill: #2a76ec;
      }

      .cls-9 {
        fill: #f2f2f2;
      }

      .cls-12 {
        isolation: isolate;
      }

      .cls-10 {
        fill: #fff;
      }
    </style>
  </defs>
  <g>
    <rect class="cls-9" x="38" y="43.3" width="1004.8" height="752.4" rx="21.1" ry="21.1"/>
    <path class="cls-6" d="M1021,795.3v1-1ZM1017,795.3v1-1ZM1013,795.3v1-1ZM1009,795.3v1-1ZM1005,795.3v1-1ZM1001,795.3v1-1ZM997,795.3v1-1ZM993,795.3v1-1ZM989,795.3v1-1ZM985,795.3v1-1ZM981,795.3v1-1ZM977,795.3v1-1ZM973,795.3v1-1ZM969,795.3v1-1ZM965,795.3v1-1ZM961,795.3v1-1ZM957,795.3v1-1ZM953,795.3v1-1ZM949,795.3v1-1ZM945,795.3v1-1ZM941,795.3v1-1ZM937,795.3v1-1ZM933,795.3v1-1ZM929,795.3v1-1ZM925,795.3v1-1ZM921,795.3v1-1ZM917,795.3v1-1ZM913,795.3v1-1ZM909,795.3v1-1ZM905,795.3v1-1ZM901,795.3v1-1ZM897,795.3v1-1ZM893,795.3v1-1ZM889,795.3v1-1ZM885,795.3v1-1ZM881,795.3v1-1ZM877,795.3v1-1ZM873,795.3v1-1ZM869,795.3v1-1ZM865,795.3v1-1ZM861,795.3v1-1ZM857,795.3v1-1ZM853,795.3v1-1ZM849,795.3v1-1ZM845,795.3v1-1ZM841,795.3v1-1ZM837,795.3v1-1ZM833,795.3v1-1ZM829,795.3v1-1ZM825,795.3v1-1ZM821,795.3v1-1ZM817,795.3v1-1ZM813,795.3v1-1ZM809,795.3v1-1ZM805,795.3v1-1ZM801,795.3v1-1ZM797,795.3v1-1ZM793,795.3v1-1ZM789,795.3v1-1ZM785,795.3v1-1ZM781,795.3v1-1ZM777,795.3v1-1ZM773,795.3v1-1ZM769,795.3v1-1ZM765,795.3v1-1ZM761,795.3v1-1ZM757,795.3v1-1ZM753,795.3v1-1ZM749,795.3v1-1ZM745,795.3v1-1ZM741,795.3v1-1ZM737,795.3v1-1ZM733,795.3v1-1ZM729,795.3v1-1ZM725,795.3v1-1ZM721,795.3v1-1ZM717,795.3v1-1ZM713,795.3v1-1ZM709,795.3v1-1ZM705,795.3v1-1ZM701,795.3v1-1ZM697,795.3v1-1ZM693,795.3v1-1ZM689,795.3v1-1ZM685,795.3v1-1ZM681,795.3v1-1ZM677,795.3v1-1ZM673,795.3v1-1ZM669,795.3v1-1ZM665,795.3v1-1ZM661,795.3v1-1ZM657,795.3v1-1ZM653,795.3v1-1ZM649,795.3v1-1ZM645,795.3v1-1ZM641,795.3v1-1ZM637,795.3v1-1ZM633,795.3v1-1ZM629,795.3v1-1ZM625,795.3v1-1ZM621,795.3v1-1ZM617,795.3v1-1ZM613,795.3v1-1ZM609,795.3v1-1ZM605,795.3v1-1ZM601,795.3v1-1ZM597,795.3v1-1ZM593,795.3v1-1ZM589,795.3v1-1ZM585,795.3v1-1ZM581,795.3v1-1ZM577,795.3v1-1ZM573,795.3v1-1ZM569,795.3v1-1ZM565,795.3v1-1ZM561,795.3v1-1ZM557,795.3v1-1ZM553,795.3v1-1ZM549,795.3v1-1ZM545,795.3v1-1ZM541,795.3v1-1ZM537,795.3v1-1ZM533,795.3v1-1ZM529,795.3v1-1ZM525,795.3v1-1ZM521,795.3v1-1ZM517,795.3v1-1ZM513,795.3v1-1ZM509,795.3v1-1ZM505,795.3v1-1ZM501,795.3v1-1ZM497,795.3v1-1ZM493,795.3v1-1ZM489,795.3v1-1ZM485,795.3v1-1ZM481,795.3v1-1ZM477,795.3v1-1ZM473,795.3v1-1ZM469,795.3v1-1ZM465,795.3v1-1ZM461,795.3v1-1ZM457,795.3v1-1ZM453,795.3v1-1ZM449,795.3v1-1ZM445,795.3v1-1ZM441,795.3v1-1ZM437,795.3v1-1ZM433,795.3v1-1ZM429,795.3v1-1ZM425,795.3v1-1ZM421,795.3v1-1ZM417,795.3v1-1ZM413,795.3v1-1ZM409,795.3v1-1ZM405,795.3v1-1ZM401,795.3v1-1ZM397,795.3v1-1ZM393,795.3v1-1ZM389,795.3v1-1ZM385,795.3v1-1ZM381,795.3v1-1ZM377,795.3v1-1ZM373,795.3v1-1ZM369,795.3v1-1ZM365,795.3v1-1ZM361,795.3v1-1ZM357,795.3v1-1ZM353,795.3v1-1ZM349,795.3v1-1ZM345,795.3v1-1ZM341,795.3v1-1ZM337,795.3v1-1ZM333,795.3v1-1ZM329,795.3v1-1ZM325,795.3v1-1ZM321,795.3v1-1ZM317,795.3v1-1ZM313,795.3v1-1ZM309,795.3v1-1ZM305,795.3v1-1ZM301,795.3v1-1ZM297,795.3v1-1ZM293,795.3v1-1ZM289,795.3v1-1ZM285,795.3v1-1ZM281,795.3v1-1ZM277,795.3v1-1ZM273,795.3v1-1ZM269,795.3v1-1ZM265,795.3v1-1ZM261,795.3v1-1ZM257,795.3v1-1ZM253,795.3v1-1ZM249,795.3v1-1ZM245,795.3v1-1ZM241,795.3v1-1ZM237,795.3v1-1ZM233,795.3v1-1ZM229,795.3v1-1ZM225,795.3v1-1ZM221,795.3v1-1ZM217,795.3v1-1ZM213,795.3v1-1ZM209,795.3v1-1ZM205,795.3v1-1ZM201,795.3v1-1ZM197,795.3v1-1ZM193,795.3v1-1ZM189,795.3v1-1ZM185,795.3v1-1ZM181,795.3v1-1ZM177,795.3v1-1ZM173,795.3v1-1ZM169,795.3v1-1ZM165,795.3v1-1ZM161,795.3v1-1ZM157,795.3v1-1ZM153,795.3v1-1ZM149,795.3v1-1ZM145,795.3v1-1ZM141,795.3v1-1ZM137,795.3v1-1ZM133,795.3v1-1ZM129,795.3v1-1ZM125,795.3v1-1ZM121,795.3v1-1ZM117,795.3v1-1ZM113,795.3v1-1ZM109,795.3v1-1ZM105,795.3v1-1ZM101,795.3v1-1ZM97,795.3v1-1ZM93,795.3v1-1ZM89,795.3v1-1ZM85,795.3v1-1ZM81,795.3v1-1ZM77,795.3v1-1ZM73,795.3v1-1ZM69,795.3v1-1ZM65,795.3v1-1ZM61,795.3v1-1ZM57,795.2h0v1c0-1-.1,0,0-1ZM1024.9,795h0l.2,1-.2-1ZM52.9,795.4v-.2c0,0,0,.2,0,.2h0ZM53.2,794.4h0l-.2.7.2-.7ZM1028.8,794.6l.2.5h0l-.2-.5ZM1028.7,794.1h0l.2.5-.2-.5ZM49.1,793.8l.2-.4-.2.4h0ZM49.6,792.9h0l-.2.4.2-.4ZM1032.2,792.4l.5.9h0l-.5-.9ZM45.7,791.6l.6-.8-.6.8h0ZM1035.4,790.2l.7.8-.7-.8ZM43.5,788.1l-.8.7.8-.7ZM1038,787.3l.8.6-.8-.6ZM41.3,784.9l-.9.5.9-.5ZM1040.1,784l.9.5-.9-.5ZM39.6,781.4l-.9.3.9-.3ZM1042,780.5h.5c-.5,0,0,.1-.5,0ZM1041.6,780.4h.5c-.5,0,0,.1-.5,0ZM38.8,777.6h-1c1,0,0,.1,1,0ZM1042.3,776.6h1c-1,0,0,0-1,0ZM37.5,773.7h1-1ZM1042.4,772.6h1-1ZM37.5,769.7h1-1ZM1042.4,768.6h1-1ZM37.5,765.7h1-1ZM1042.4,764.6h1-1ZM37.5,761.7h1-1ZM1042.4,760.6h1-1ZM37.5,757.7h1-1ZM1042.4,756.6h1-1ZM37.5,753.7h1-1ZM1042.4,752.6h1-1ZM37.5,749.7h1-1ZM1042.4,748.6h1-1ZM37.5,745.7h1-1ZM1042.4,744.6h1-1ZM37.5,741.7h1-1ZM1042.4,740.6h1-1ZM37.5,737.7h1-1ZM1042.4,736.6h1-1ZM37.5,733.7h1-1ZM1042.4,732.6h1-1ZM37.5,729.7h1-1ZM1042.4,728.6h1-1ZM37.5,725.7h1-1ZM1042.4,724.6h1-1ZM37.5,721.7h1-1ZM1042.4,720.6h1-1ZM37.5,717.7h1-1ZM1042.4,716.6h1-1ZM37.5,713.7h1-1ZM1042.4,712.6h1-1ZM37.5,709.7h1-1ZM1042.4,708.6h1-1ZM37.5,705.7h1-1ZM1042.4,704.6h1-1ZM37.5,701.7h1-1ZM1042.4,700.6h1-1ZM37.5,697.7h1-1ZM1042.4,696.6h1-1ZM37.5,693.7h1-1ZM1042.4,692.6h1-1ZM37.5,689.7h1-1ZM1042.4,688.6h1-1ZM37.5,685.7h1-1ZM1042.4,684.6h1-1ZM37.5,681.7h1-1ZM1042.4,680.6h1-1ZM37.5,677.7h1-1ZM1042.4,676.6h1-1ZM37.5,673.7h1-1ZM1042.4,672.6h1-1ZM37.5,669.7h1-1ZM1042.4,668.6h1-1ZM37.5,665.7h1-1ZM1042.4,664.6h1-1ZM37.5,661.7h1-1ZM1042.4,660.6h1-1ZM37.5,657.7h1-1ZM1042.4,656.6h1-1ZM37.5,653.7h1-1ZM1042.4,652.6h1-1ZM37.5,649.7h1-1ZM1042.4,648.6h1-1ZM37.5,645.7h1-1ZM1042.4,644.6h1-1ZM37.5,641.7h1-1ZM1042.4,640.6h1-1ZM37.5,637.7h1-1ZM1042.4,636.6h1-1ZM37.5,633.7h1-1ZM1042.4,632.6h1-1ZM37.5,629.7h1-1ZM1042.4,628.6h1-1ZM37.5,625.7h1-1ZM1042.4,624.6h1-1ZM37.5,621.7h1-1ZM1042.4,620.6h1-1ZM37.5,617.7h1-1ZM1042.4,616.6h1-1ZM37.5,613.7h1-1ZM1042.4,612.6h1-1ZM37.5,609.7h1-1ZM1042.4,608.6h1-1ZM37.5,605.7h1-1ZM1042.4,604.6h1-1ZM37.5,601.7h1-1ZM1042.4,600.6h1-1ZM37.5,597.7h1-1ZM1042.4,596.6h1-1ZM37.5,593.7h1-1ZM1042.4,592.6h1-1ZM37.5,589.7h1-1ZM1042.4,588.6h1-1ZM37.5,585.7h1-1ZM1042.4,584.6h1-1ZM37.5,581.7h1-1ZM1042.4,580.6h1-1ZM37.5,577.7h1-1ZM1042.4,576.6h1-1ZM37.5,573.7h1-1ZM1042.4,572.6h1-1ZM37.5,569.7h1-1ZM1042.4,568.6h1-1ZM37.5,565.7h1-1ZM1042.4,564.6h1-1ZM37.5,561.7h1-1ZM1042.4,560.6h1-1ZM37.5,557.7h1-1ZM1042.4,556.6h1-1ZM37.5,553.7h1-1ZM1042.4,552.6h1-1ZM37.5,549.7h1-1ZM1042.4,548.6h1-1ZM37.5,545.7h1-1ZM1042.4,544.6h1-1ZM37.5,541.7h1-1ZM1042.4,540.6h1-1ZM37.5,537.7h1-1ZM1042.4,536.6h1-1ZM37.5,533.7h1-1ZM1042.4,532.6h1-1ZM37.5,529.7h1-1ZM1042.4,528.6h1-1ZM37.5,525.7h1-1ZM1042.4,524.6h1-1ZM37.5,521.7h1-1ZM1042.4,520.6h1-1ZM37.5,517.7h1-1ZM1042.4,516.6h1-1ZM37.5,513.7h1-1ZM1042.4,512.6h1-1ZM37.5,509.7h1-1ZM1042.4,508.6h1-1ZM37.5,505.7h1-1ZM1042.4,504.6h1-1ZM37.5,501.7h1-1ZM1042.4,500.6h1-1ZM37.5,497.7h1-1ZM1042.4,496.6h1-1ZM37.5,493.7h1-1ZM1042.4,492.6h1-1ZM37.5,489.7h1-1ZM1042.4,488.6h1-1ZM37.5,485.7h1-1ZM1042.4,484.6h1-1ZM37.5,481.7h1-1ZM1042.4,480.6h1-1ZM37.5,477.7h1-1ZM1042.4,476.6h1-1ZM37.5,473.7h1-1ZM1042.4,472.6h1-1ZM37.5,469.7h1-1ZM1042.4,468.6h1-1ZM37.5,465.7h1-1ZM1042.4,464.6h1-1ZM37.5,461.7h1-1ZM1042.4,460.6h1-1ZM37.5,457.7h1-1ZM1042.4,456.6h1-1ZM37.5,453.7h1-1ZM1042.4,452.6h1-1ZM37.5,449.7h1-1ZM1042.4,448.6h1-1ZM37.5,445.7h1-1ZM1042.4,444.6h1-1ZM37.5,441.7h1-1ZM1042.4,440.6h1-1ZM37.5,437.7h1-1ZM1042.4,436.6h1-1ZM37.5,433.7h1-1ZM1042.4,432.6h1-1ZM37.5,429.7h1-1ZM1042.4,428.6h1-1ZM37.5,425.7h1-1ZM1042.4,424.6h1-1ZM37.5,421.7h1-1ZM1042.4,420.6h1-1ZM37.5,417.7h1-1ZM1042.4,416.6h1-1ZM37.5,413.7h1-1ZM1042.4,412.6h1-1ZM37.5,409.7h1-1ZM1042.4,408.6h1-1ZM37.5,405.7h1-1ZM1042.4,404.6h1-1ZM37.5,401.7h1-1ZM1042.4,400.6h1-1ZM37.5,397.7h1-1ZM1042.4,396.6h1-1ZM37.5,393.7h1-1ZM1042.4,392.6h1-1ZM37.5,389.7h1-1ZM1042.4,388.6h1-1ZM37.5,385.7h1-1ZM1042.4,384.6h1-1ZM37.5,381.7h1-1ZM1042.4,380.6h1-1ZM37.5,377.7h1-1ZM1042.4,376.6h1-1ZM37.5,373.7h1-1ZM1042.4,372.6h1-1ZM37.5,369.7h1-1ZM1042.4,368.6h1-1ZM37.5,365.7h1-1ZM1042.4,364.6h1-1ZM37.5,361.7h1-1ZM1042.4,360.6h1-1ZM37.5,357.7h1-1ZM1042.4,356.6h1-1ZM37.5,353.7h1-1ZM1042.4,352.6h1-1ZM37.5,349.7h1-1ZM1042.4,348.6h1-1ZM37.5,345.7h1-1ZM1042.4,344.6h1-1ZM37.5,341.7h1-1ZM1042.4,340.6h1-1ZM37.5,337.7h1-1ZM1042.4,336.6h1-1ZM37.5,333.7h1-1ZM1042.4,332.6h1-1ZM37.5,329.7h1-1ZM1042.4,328.6h1-1ZM37.5,325.7h1-1ZM1042.4,324.6h1-1ZM37.5,321.7h1-1ZM1042.4,320.6h1-1ZM37.5,317.7h1-1ZM1042.4,316.6h1-1ZM37.5,313.7h1-1ZM1042.4,312.6h1-1ZM37.5,309.7h1-1ZM1042.4,308.6h1-1ZM37.5,305.7h1-1ZM1042.4,304.6h1-1ZM37.5,301.7h1-1ZM1042.4,300.6h1-1ZM37.5,297.7h1-1ZM1042.4,296.6h1-1ZM37.5,293.7h1-1ZM1042.4,292.6h1-1ZM37.5,289.7h1-1ZM1042.4,288.6h1-1ZM37.5,285.7h1-1ZM1042.4,284.6h1-1ZM37.5,281.7h1-1ZM1042.4,280.6h1-1ZM37.5,277.7h1-1ZM1042.4,276.6h1-1ZM37.5,273.7h1-1ZM1042.4,272.6h1-1ZM37.5,269.7h1-1ZM1042.4,268.6h1-1ZM37.5,265.7h1-1ZM1042.4,264.6h1-1ZM37.5,261.7h1-1ZM1042.4,260.6h1-1ZM37.5,257.7h1-1ZM1042.4,256.6h1-1ZM37.5,253.7h1-1ZM1042.4,252.6h1-1ZM37.5,249.7h1-1ZM1042.4,248.6h1-1ZM37.5,245.7h1-1ZM1042.4,244.6h1-1ZM37.5,241.7h1-1ZM1042.4,240.6h1-1ZM37.5,237.7h1-1ZM1042.4,236.6h1-1ZM37.5,233.7h1-1ZM1042.4,232.6h1-1ZM37.5,229.7h1-1ZM1042.4,228.6h1-1ZM37.5,225.7h1-1ZM1042.4,224.6h1-1ZM37.5,221.7h1-1ZM1042.4,220.6h1-1ZM37.5,217.7h1-1ZM1042.4,216.6h1-1ZM37.5,213.7h1-1ZM1042.4,212.6h1-1ZM37.5,209.7h1-1ZM1042.4,208.6h1-1ZM37.5,205.7h1-1ZM1042.4,204.6h1-1ZM37.5,201.7h1-1ZM1042.4,200.6h1-1ZM37.5,197.7h1-1ZM1042.4,196.6h1-1ZM37.5,193.7h1-1ZM1042.4,192.6h1-1ZM37.5,189.7h1-1ZM1042.4,188.6h1-1ZM37.5,185.7h1-1ZM1042.4,184.6h1-1ZM37.5,181.7h1-1ZM1042.4,180.6h1-1ZM37.5,177.7h1-1ZM1042.4,176.6h1-1ZM37.5,173.7h1-1ZM1042.4,172.6h1-1ZM37.5,169.7h1-1ZM1042.4,168.6h1-1ZM37.5,165.7h1-1ZM1042.4,164.6h1-1ZM37.5,161.7h1-1ZM1042.4,160.6h1-1ZM37.5,157.7h1-1ZM1042.4,156.6h1-1ZM37.5,153.7h1-1ZM1042.4,152.6h1-1ZM37.5,149.7h1-1ZM1042.4,148.6h1-1ZM37.5,145.7h1-1ZM1042.4,144.6h1-1ZM37.5,141.7h1-1ZM1042.4,140.6h1-1ZM37.5,137.7h1-1ZM1042.4,136.6h1-1ZM37.5,133.7h1-1ZM1042.4,132.6h1-1ZM37.5,129.7h1-1ZM1042.4,128.6h1-1ZM37.5,125.7h1-1ZM1042.4,124.6h1-1ZM37.5,121.7h1-1ZM1042.4,120.6h1-1ZM37.5,117.7h1-1ZM1042.4,116.6h1-1ZM37.5,113.7h1-1ZM1042.4,112.6h1-1ZM37.5,109.7h1-1ZM1042.4,108.6h1-1ZM37.5,105.7h1-1ZM1042.4,104.6h1-1ZM37.5,101.7h1-1ZM1042.4,100.6h1-1ZM37.5,97.7h1-1ZM1042.4,96.6h1-1ZM37.5,93.7h1-1ZM1042.4,92.6h1-1ZM37.5,89.7h1-1ZM1042.4,88.6h1-1ZM37.5,85.7h1-1ZM1042.4,84.6h1-1ZM37.5,81.7h1-1ZM1042.4,80.6h1-1ZM37.5,77.7h1-1ZM1042.4,76.6h1-1ZM37.5,73.7h1-1ZM1042.4,72.6h1-1ZM37.5,69.7h1-1ZM1042.4,68.6h1-1ZM37.5,65.7h1-1ZM1042.4,64.6h1-1ZM37.7,61.6h1c-1,0,0,.1-1,0ZM1043,60.6l-1,.2,1-.2ZM38.6,57.6l.9.3-.9-.3ZM1041.9,56.6l-.9.4.9-.4ZM41.2,54.4l-.4-.2.4.2ZM40.3,53.9h0l.4.2-.4-.2ZM1039.2,53.5l.8-.5-.8.5h0ZM42.6,50.5l.8.6-.8-.6ZM1036.9,50.4l.4-.3-.4.3ZM1037.6,49.7h0l-.4.3.4-.3ZM45.5,47.6l.6.8-.6-.8ZM1034.6,47h0l-.6.8.6-.8ZM48.9,45.4l.5.9-.5-.9ZM1031,44.9l-.4.9.4-.9ZM52.7,43.8l.3,1-.3-1ZM1027,44.5v-.5c.1,0,0,.5,0,.5h0ZM1027.2,43.5h0v.5c0-.5-.1,0,0-.5ZM56.7,43h0v1c0-1,.1,0,0-1ZM1023.1,43.9v-1c0,0,0,1,0,1ZM1019.1,42.8v1-1ZM1015.1,42.8v1-1ZM1011.1,42.8v1-1ZM1007.1,42.8v1-1ZM1003.1,42.8v1-1ZM999.1,42.8v1-1ZM995.1,42.8v1-1ZM991.1,42.8v1-1ZM987.1,42.8v1-1ZM983.1,42.8v1-1ZM979.1,42.8v1-1ZM975.1,42.8v1-1ZM971.1,42.8v1-1ZM967.1,42.8v1-1ZM963.1,42.8v1-1ZM959.1,42.8v1-1ZM955.1,42.8v1-1ZM951.1,42.8v1-1ZM947.1,42.8v1-1ZM943.1,42.8v1-1ZM939.1,42.8v1-1ZM935.1,42.8v1-1ZM931.1,42.8v1-1ZM927.1,42.8v1-1ZM923.1,42.8v1-1ZM919.1,42.8v1-1ZM915.1,42.8v1-1ZM911.1,42.8v1-1ZM907.1,42.8v1-1ZM903.1,42.8v1-1ZM899.1,42.8v1-1ZM895.1,42.8v1-1ZM891.1,42.8v1-1ZM887.1,42.8v1-1ZM883.1,42.8v1-1ZM879.1,42.8v1-1ZM875.1,42.8v1-1ZM871.1,42.8v1-1ZM867.1,42.8v1-1ZM863.1,42.8v1-1ZM859.1,42.8v1-1ZM855.1,42.8v1-1ZM851.1,42.8v1-1ZM847.1,42.8v1-1ZM843.1,42.8v1-1ZM839.1,42.8v1-1ZM835.1,42.8v1-1ZM831.1,42.8v1-1ZM827.1,42.8v1-1ZM823.1,42.8v1-1ZM819.1,42.8v1-1ZM815.1,42.8v1-1ZM811.1,42.8v1-1ZM807.1,42.8v1-1ZM803.1,42.8v1-1ZM799.1,42.8v1-1ZM795.1,42.8v1-1ZM791.1,42.8v1-1ZM787.1,42.8v1-1ZM783.1,42.8v1-1ZM779.1,42.8v1-1ZM775.1,42.8v1-1ZM771.1,42.8v1-1ZM767.1,42.8v1-1ZM763.1,42.8v1-1ZM759.1,42.8v1-1ZM755.1,42.8v1-1ZM751.1,42.8v1-1ZM747.1,42.8v1-1ZM743.1,42.8v1-1ZM739.1,42.8v1-1ZM735.1,42.8v1-1ZM731.1,42.8v1-1ZM727.1,42.8v1-1ZM723.1,42.8v1-1ZM719.1,42.8v1-1ZM715.1,42.8v1-1ZM711.1,42.8v1-1ZM707.1,42.8v1-1ZM703.1,42.8v1-1ZM699.1,42.8v1-1ZM695.1,42.8v1-1ZM691.1,42.8v1-1ZM687.1,42.8v1-1ZM683.1,42.8v1-1ZM679.1,42.8v1-1ZM675.1,42.8v1-1ZM671.1,42.8v1-1ZM667.1,42.8v1-1ZM663.1,42.8v1-1ZM659.1,42.8v1-1ZM655.1,42.8v1-1ZM651.1,42.8v1-1ZM647.1,42.8v1-1ZM643.1,42.8v1-1ZM639.1,42.8v1-1ZM635.1,42.8v1-1ZM631.1,42.8v1-1ZM627.1,42.8v1-1ZM623.1,42.8v1-1ZM619.1,42.8v1-1ZM615.1,42.8v1-1ZM611.1,42.8v1-1ZM607.1,42.8v1-1ZM603.1,42.8v1-1ZM599.1,42.8v1-1ZM595.1,42.8v1-1ZM591.1,42.8v1-1ZM587.1,42.8v1-1ZM583.1,42.8v1-1ZM579.1,42.8v1-1ZM575.1,42.8v1-1ZM571.1,42.8v1-1ZM567.1,42.8v1-1ZM563.1,42.8v1-1ZM559.1,42.8v1-1ZM555.1,42.8v1-1ZM551.1,42.8v1-1ZM547.1,42.8v1-1ZM543.1,42.8v1-1ZM539.1,42.8v1-1ZM535.1,42.8v1-1ZM531.1,42.8v1-1ZM527.1,42.8v1-1ZM523.1,42.8v1-1ZM519.1,42.8v1-1ZM515.1,42.8v1-1ZM511.1,42.8v1-1ZM507.1,42.8v1-1ZM503.1,42.8v1-1ZM499.1,42.8v1-1ZM495.1,42.8v1-1ZM491.1,42.8v1-1ZM487.1,42.8v1-1ZM483.1,42.8v1-1ZM479.1,42.8v1-1ZM475.1,42.8v1-1ZM471.1,42.8v1-1ZM467.1,42.8v1-1ZM463.1,42.8v1-1ZM459.1,42.8v1-1ZM455.1,42.8v1-1ZM451.1,42.8v1-1ZM447.1,42.8v1-1ZM443.1,42.8v1-1ZM439.1,42.8v1-1ZM435.1,42.8v1-1ZM431.1,42.8v1-1ZM427.1,42.8v1-1ZM423.1,42.8v1-1ZM419.1,42.8v1-1ZM415.1,42.8v1-1ZM411.1,42.8v1-1ZM407.1,42.8v1-1ZM403.1,42.8v1-1ZM399.1,42.8v1-1ZM395.1,42.8v1-1ZM391.1,42.8v1-1ZM387.1,42.8v1-1ZM383.1,42.8v1-1ZM379.1,42.8v1-1ZM375.1,42.8v1-1ZM371.1,42.8v1-1ZM367.1,42.8v1-1ZM363.1,42.8v1-1ZM359.1,42.8v1-1ZM355.1,42.8v1-1ZM351.1,42.8v1-1ZM347.1,42.8v1-1ZM343.1,42.8v1-1ZM339.1,42.8v1-1ZM335.1,42.8v1-1ZM331.1,42.8v1-1ZM327.1,42.8v1-1ZM323.1,42.8v1-1ZM319.1,42.8v1-1ZM315.1,42.8v1-1ZM311.1,42.8v1-1ZM307.1,42.8v1-1ZM303.1,42.8v1-1ZM299.1,42.8v1-1ZM295.1,42.8v1-1ZM291.1,42.8v1-1ZM287.1,42.8v1-1ZM283.1,42.8v1-1ZM279.1,42.8v1-1ZM275.1,42.8v1-1ZM271.1,42.8v1-1ZM267.1,42.8v1-1ZM263.1,42.8v1-1ZM259.1,42.8v1-1ZM255.1,42.8v1-1ZM251.1,42.8v1-1ZM247.1,42.8v1-1ZM243.1,42.8v1-1ZM239.1,42.8v1-1ZM235.1,42.8v1-1ZM231.1,42.8v1-1ZM227.1,42.8v1-1ZM223.1,42.8v1-1ZM219.1,42.8v1-1ZM215.1,42.8v1-1ZM211.1,42.8v1-1ZM207.1,42.8v1-1ZM203.1,42.8v1-1ZM199.1,42.8v1-1ZM195.1,42.8v1-1ZM191.1,42.8v1-1ZM187.1,42.8v1-1ZM183.1,42.8v1-1ZM179.1,42.8v1-1ZM175.1,42.8v1-1ZM171.1,42.8v1-1ZM167.1,42.8v1-1ZM163.1,42.8v1-1ZM159.1,42.8v1-1ZM155.1,42.8v1-1ZM151.1,42.8v1-1ZM147.1,42.8v1-1ZM143.1,42.8v1-1ZM139.1,42.8v1-1ZM135.1,42.8v1-1ZM131.1,42.8v1-1ZM127.1,42.8v1-1ZM123.1,42.8v1-1ZM119.1,42.8v1-1ZM115.1,42.8v1-1ZM111.1,42.8v1-1ZM107.1,42.8v1-1ZM103.1,42.8v1-1ZM99.1,42.8v1-1ZM95.1,42.8v1-1ZM91.1,42.8v1-1ZM87.1,42.8v1-1ZM83.1,42.8v1-1ZM79.1,42.8v1-1ZM75.1,42.8v1-1ZM71.1,42.8v1-1ZM67.1,42.8v1-1ZM63.1,42.8v1-1ZM59.1,42.8v1-1Z"/>
  </g>
  <g>
    <rect class="cls-10" x="70.7" y="138.6" width="291.4" height="291.4" rx="12" ry="12"/>
    <path class="cls-6" d="M346.7,429.5v1-1ZM342.7,429.5v1-1ZM338.7,429.5v1-1ZM334.7,429.5v1-1ZM330.7,429.5v1-1ZM326.7,429.5v1-1ZM322.7,429.5v1-1ZM318.7,429.5v1-1ZM314.7,429.5v1-1ZM310.7,429.5v1-1ZM306.7,429.5v1-1ZM302.7,429.5v1-1ZM298.7,429.5v1-1ZM294.7,429.5v1-1ZM290.7,429.5v1-1ZM286.7,429.5v1-1ZM282.7,429.5v1-1ZM278.7,429.5v1-1ZM274.7,429.5v1-1ZM270.7,429.5v1-1ZM266.7,429.5v1-1ZM262.7,429.5v1-1ZM258.7,429.5v1-1ZM254.7,429.5v1-1ZM250.7,429.5v1-1ZM246.7,429.5v1-1ZM242.7,429.5v1-1ZM238.7,429.5v1-1ZM234.7,429.5v1-1ZM230.7,429.5v1-1ZM226.7,429.5v1-1ZM222.7,429.5v1-1ZM218.7,429.5v1-1ZM214.7,429.5v1-1ZM210.7,429.5v1-1ZM206.7,429.5v1-1ZM202.7,429.5v1-1ZM198.7,429.5v1-1ZM194.7,429.5v1-1ZM190.7,429.5v1-1ZM186.7,429.5v1-1ZM182.7,429.5v1-1ZM178.7,429.5v1-1ZM174.7,429.5v1-1ZM170.7,429.5v1-1ZM166.7,429.5v1-1ZM162.7,429.5v1-1ZM158.7,429.5v1-1ZM154.7,429.5v1-1ZM150.7,429.5v1-1ZM146.7,429.5v1-1ZM142.7,429.5v1-1ZM138.7,429.5v1-1ZM134.7,429.5v1-1ZM130.7,429.5v1-1ZM126.7,429.5v1-1ZM122.7,429.5v1-1ZM118.7,429.5v1-1ZM114.7,429.5v1-1ZM110.7,429.5v1-1ZM106.7,429.5v1-1ZM102.7,429.5v1-1ZM98.7,429.5v1-1ZM94.7,429.5v1-1ZM90.7,429.5v1-1ZM86.7,429.5v1-1ZM82.7,429.5v1-1ZM350.7,429.5h0v1c0-1,0,0,0-1ZM79,428.9l-.3.9.3-.9ZM354.4,428.7l.4.9-.4-.9ZM75.6,427h0l-.6.8h0c.6-.8,0,0,.6-.8ZM357.7,426.7l.7.8-.7-.8ZM73,424.2l-.9.5.9-.5ZM360.1,423.7l.9.5h0l-.9-.5ZM70.6,420.9l1-.2-1,.2h0ZM361.4,420.2h0l1,.2-1-.2ZM70.2,416.9h1-1ZM361.6,416.3h1-1ZM70.2,412.9h1-1ZM361.6,412.3h1-1ZM70.2,408.9h1-1ZM361.6,408.3h1-1ZM70.2,404.9h1-1ZM361.6,404.3h1-1ZM70.2,400.9h1-1ZM361.6,400.3h1-1ZM70.2,396.9h1-1ZM361.6,396.3h1-1ZM70.2,392.9h1-1ZM361.6,392.3h1-1ZM70.2,388.9h1-1ZM361.6,388.3h1-1ZM70.2,384.9h1-1ZM361.6,384.3h1-1ZM70.2,380.9h1-1ZM361.6,380.3h1-1ZM70.2,376.9h1-1ZM361.6,376.3h1-1ZM70.2,372.9h1-1ZM361.6,372.3h1-1ZM70.2,368.9h1-1ZM361.6,368.3h1-1ZM70.2,364.9h1-1ZM361.6,364.3h1-1ZM70.2,360.9h1-1ZM361.6,360.3h1-1ZM70.2,356.9h1-1ZM361.6,356.3h1-1ZM70.2,352.9h1-1ZM361.6,352.3h1-1ZM70.2,348.9h1-1ZM361.6,348.3h1-1ZM70.2,344.9h1-1ZM361.6,344.3h1-1ZM70.2,340.9h1-1ZM361.6,340.3h1-1ZM70.2,336.9h1-1ZM361.6,336.3h1-1ZM70.2,332.9h1-1ZM361.6,332.3h1-1ZM70.2,328.9h1-1ZM361.6,328.3h1-1ZM70.2,324.9h1-1ZM361.6,324.3h1-1ZM70.2,320.9h1-1ZM361.6,320.3h1-1ZM70.2,316.9h1-1ZM361.6,316.3h1-1ZM70.2,312.9h1-1ZM361.6,312.3h1-1ZM70.2,308.9h1-1ZM361.6,308.3h1-1ZM70.2,304.9h1-1ZM361.6,304.3h1-1ZM70.2,300.9h1-1ZM361.6,300.3h1-1ZM70.2,296.9h1-1ZM361.6,296.3h1-1ZM70.2,292.9h1-1ZM361.6,292.3h1-1ZM70.2,288.9h1-1ZM361.6,288.3h1-1ZM70.2,284.9h1-1ZM361.6,284.3h1-1ZM70.2,280.9h1-1ZM361.6,280.3h1-1ZM70.2,276.9h1-1ZM361.6,276.3h1-1ZM70.2,272.9h1-1ZM361.6,272.3h1-1ZM70.2,268.9h1-1ZM361.6,268.3h1-1ZM70.2,264.9h1-1ZM361.6,264.3h1-1ZM70.2,260.9h1-1ZM361.6,260.3h1-1ZM70.2,256.9h1-1ZM361.6,256.3h1-1ZM70.2,252.9h1-1ZM361.6,252.3h1-1ZM70.2,248.9h1-1ZM361.6,248.3h1-1ZM70.2,244.9h1-1ZM361.6,244.3h1-1ZM70.2,240.9h1-1ZM361.6,240.3h1-1ZM70.2,236.9h1-1ZM361.6,236.3h1-1ZM70.2,232.9h1-1ZM361.6,232.3h1-1ZM70.2,228.9h1-1ZM361.6,228.3h1-1ZM70.2,224.9h1-1ZM361.6,224.3h1-1ZM70.2,220.9h1-1ZM361.6,220.3h1-1ZM70.2,216.9h1-1ZM361.6,216.3h1-1ZM70.2,212.9h1-1ZM361.6,212.3h1-1ZM70.2,208.9h1-1ZM361.6,208.3h1-1ZM70.2,204.9h1-1ZM361.6,204.3h1-1ZM70.2,200.9h1-1ZM361.6,200.3h1-1ZM70.2,196.9h1-1ZM361.6,196.3h1-1ZM70.2,192.9h1-1ZM361.6,192.3h1-1ZM70.2,188.9h1-1ZM361.6,188.3h1-1ZM70.2,184.9h1-1ZM361.6,184.3h1-1ZM70.2,180.9h1-1ZM361.6,180.3h1-1ZM70.2,176.9h1-1ZM361.6,176.3h1-1ZM70.2,172.9h1-1ZM361.6,172.3h1-1ZM70.2,168.9h1-1ZM361.6,168.3h1-1ZM70.2,164.9h1-1ZM361.6,164.3h1-1ZM70.2,160.9h1-1ZM361.6,160.3h1-1ZM70.2,156.9h1-1ZM361.6,156.3h1-1ZM70.2,152.9h1-1ZM361.6,152.3h1-1ZM70.3,148.8h1c-1,0,0,.1-1,0ZM361.4,148.4l1-.2-1,.2ZM71.6,144.8l.9.5-.9-.5ZM361,144.3l-.9.5.9-.5ZM74.1,141.5l.7.7-.7-.7ZM358.3,141.1l-.7.8.7-.8ZM77.5,139.2l.4.9-.4-.9ZM354.8,139l-.4.9.4-.9ZM81.6,139.1v-.9c0,0,0,.9,0,.9ZM350.7,138.1v1c0-1,0,0,0-1ZM346.7,138.1v1-1ZM342.7,138.1v1-1ZM338.7,138.1v1-1ZM334.7,138.1v1-1ZM330.7,138.1v1-1ZM326.7,138.1v1-1ZM322.7,138.1v1-1ZM318.7,138.1v1-1ZM314.7,138.1v1-1ZM310.7,138.1v1-1ZM306.7,138.1v1-1ZM302.7,138.1v1-1ZM298.7,138.1v1-1ZM294.7,138.1v1-1ZM290.7,138.1v1-1ZM286.7,138.1v1-1ZM282.7,138.1v1-1ZM278.7,138.1v1-1ZM274.7,138.1v1-1ZM270.7,138.1v1-1ZM266.7,138.1v1-1ZM262.7,138.1v1-1ZM258.7,138.1v1-1ZM254.7,138.1v1-1ZM250.7,138.1v1-1ZM246.7,138.1v1-1ZM242.7,138.1v1-1ZM238.7,138.1v1-1ZM234.7,138.1v1-1ZM230.7,138.1v1-1ZM226.7,138.1v1-1ZM222.7,138.1v1-1ZM218.7,138.1v1-1ZM214.7,138.1v1-1ZM210.7,138.1v1-1ZM206.7,138.1v1-1ZM202.7,138.1v1-1ZM198.7,138.1v1-1ZM194.7,138.1v1-1ZM190.7,138.1v1-1ZM186.7,138.1v1-1ZM182.7,138.1v1-1ZM178.7,138.1v1-1ZM174.7,138.1v1-1ZM170.7,138.1v1-1ZM166.7,138.1v1-1ZM162.7,138.1v1-1ZM158.7,138.1v1-1ZM154.7,138.1v1-1ZM150.7,138.1v1-1ZM146.7,138.1v1-1ZM142.7,138.1v1-1ZM138.7,138.1v1-1ZM134.7,138.1v1-1ZM130.7,138.1v1-1ZM126.7,138.1v1-1ZM122.7,138.1v1-1ZM118.7,138.1v1-1ZM114.7,138.1v1-1ZM110.7,138.1v1-1ZM106.7,138.1v1-1ZM102.7,138.1v1-1ZM98.7,138.1v1-1ZM94.7,138.1v1-1ZM90.7,138.1v1-1ZM86.7,138.1v1-1ZM82.7,138.1v1-1ZM81.5,138.1h0s0,0,0,0Z"/>
  </g>
  <rect class="cls-3" x="94.4" y="359.6" width="238.3" height="43"/>
  <g class="cls-12">
    <g class="cls-12">
      <path class="cls-6" d="M106.3,387.3v-11.5h1.8v2.1c.3-.8.7-1.4,1.3-1.7.6-.4,1.2-.6,1.9-.6s1.4.2,1.9.6c.5.4.8,1,1.1,1.7.3-.7.7-1.3,1.4-1.7.7-.4,1.4-.6,2.2-.6s1.3.1,1.8.4,1,.7,1.3,1.3c.3.6.5,1.3.5,2.2v7.7h-1.9v-7.7c0-.8-.2-1.4-.7-1.8-.5-.4-1-.5-1.6-.5s-1.4.2-1.8.7c-.4.5-.7,1.1-.7,1.8v7.5h-1.8v-7.9c0-.6-.2-1.1-.6-1.5-.4-.4-1-.6-1.6-.6s-1.3.2-1.8.7-.8,1.2-.8,2.1v7.2h-1.8Z"/>
      <path class="cls-6" d="M125.6,374c-.3,0-.6-.1-.9-.4s-.4-.5-.4-.9.1-.6.4-.9c.3-.2.6-.4.9-.4s.7.1.9.4c.3.2.4.5.4.9s-.1.6-.4.9-.6.4-.9.4ZM124.7,387.3v-11.5h1.8v11.5h-1.8Z"/>
      <path class="cls-6" d="M131.6,380.4v6.9h-1.8v-11.5h1.8v2.1c.4-.8.9-1.4,1.5-1.7.6-.3,1.3-.5,2.1-.5,1.2,0,2.1.4,2.8,1.1.7.7,1.1,1.8,1.1,3.3v7.3h-1.8v-7.1c0-.9-.2-1.6-.7-2.1-.5-.5-1.1-.7-1.9-.7s-1.5.3-2.1.8c-.5.5-.8,1.3-.8,2.3Z"/>
      <path class="cls-6" d="M143.1,374c-.3,0-.6-.1-.9-.4s-.4-.5-.4-.9.1-.6.4-.9c.3-.2.6-.4.9-.4s.7.1.9.4c.3.2.4.5.4.9s-.1.6-.4.9-.6.4-.9.4ZM142.2,387.3v-11.5h1.8v11.5h-1.8Z"/>
      <path class="cls-6" d="M151.9,387.6c-1,0-2-.2-2.7-.7-.8-.5-1.4-1.2-1.8-2.1s-.7-1.9-.7-3.1.2-2.2.7-3.1c.4-.9,1-1.6,1.8-2.1.8-.5,1.7-.7,2.7-.7s2,.2,2.7.7,1.4,1.2,1.8,2.1c.4.9.7,1.9.7,3.1s-.2,2.2-.7,3.1-1,1.6-1.8,2.1-1.7.7-2.7.7ZM151.9,385.9c.8,0,1.4-.2,1.9-.6.5-.4.9-.9,1.1-1.6.2-.6.4-1.3.4-2.1s-.1-1.5-.4-2.1c-.2-.7-.6-1.2-1.1-1.6-.5-.4-1.1-.6-1.9-.6s-1.4.2-1.9.6c-.5.4-.9.9-1.1,1.6-.2.7-.4,1.4-.4,2.1s.1,1.5.4,2.1c.2.6.6,1.2,1.1,1.6.5.4,1.1.6,1.9.6Z"/>
      <path class="cls-6" d="M166.4,379.9v1.7h-6.7v-1.7h6.7Z"/>
      <path class="cls-6" d="M174.2,387.6c-1,0-2-.2-2.7-.7-.8-.5-1.4-1.2-1.8-2.1s-.7-1.9-.7-3.1.2-2.2.7-3.1c.4-.9,1-1.6,1.8-2.1.8-.5,1.7-.7,2.7-.7s2,.2,2.7.7,1.4,1.2,1.8,2.1c.4.9.7,1.9.7,3.1s-.2,2.2-.7,3.1-1,1.6-1.8,2.1-1.7.7-2.7.7ZM174.2,385.9c.8,0,1.4-.2,1.9-.6.5-.4.9-.9,1.1-1.6.2-.6.4-1.3.4-2.1s-.1-1.5-.4-2.1c-.2-.7-.6-1.2-1.1-1.6-.5-.4-1.1-.6-1.9-.6s-1.4.2-1.9.6c-.5.4-.9.9-1.1,1.6-.2.7-.4,1.4-.4,2.1s.1,1.5.4,2.1c.2.6.6,1.2,1.1,1.6.5.4,1.1.6,1.9.6Z"/>
      <path class="cls-6" d="M182.1,391.6v-15.8h1.8v1.8h.2c.1-.2.3-.5.5-.8.2-.3.6-.6,1-.8s1-.4,1.8-.4,1.8.2,2.5.7c.7.5,1.3,1.2,1.7,2,.4.9.6,1.9.6,3.1s-.2,2.3-.6,3.2-1,1.6-1.7,2.1c-.7.5-1.6.7-2.5.7s-1.3-.1-1.8-.4c-.4-.2-.8-.5-1-.9-.2-.3-.4-.6-.6-.8h-.1v6.1h-1.8ZM187.2,385.9c.7,0,1.3-.2,1.8-.6.5-.4.8-.9,1.1-1.6.2-.7.4-1.4.4-2.2s-.1-1.5-.4-2.1c-.2-.6-.6-1.1-1.1-1.5-.5-.4-1.1-.6-1.8-.6-1.1,0-1.9.4-2.4,1.2s-.8,1.8-.8,3.1.3,2.3.8,3.1,1.3,1.2,2.4,1.2Z"/>
      <path class="cls-6" d="M199.8,387.6c-1.1,0-2.1-.2-2.9-.7-.8-.5-1.4-1.2-1.9-2.1-.4-.9-.7-1.9-.7-3.1s.2-2.2.6-3.1,1-1.6,1.8-2.1c.8-.5,1.7-.8,2.7-.8s1.2.1,1.8.3c.6.2,1.1.5,1.6,1,.5.4.9,1,1.2,1.8.3.7.4,1.6.4,2.7v.8h-8.3c0,1.2.4,2.1,1,2.8s1.5,1,2.5,1,1.3-.1,1.7-.4c.5-.3.8-.7,1.1-1.3l1.8.5c-.3.9-.8,1.6-1.6,2.1-.8.5-1.8.8-3,.8ZM196.3,380.7h6.4c0-1-.4-1.8-.9-2.4-.5-.6-1.3-.9-2.2-.9s-1.2.2-1.7.5c-.5.3-.8.7-1.1,1.2s-.4,1-.5,1.6Z"/>
      <path class="cls-6" d="M207.2,387.3v-11.5h1.8v1.8h.1c.2-.6.6-1,1.1-1.4.5-.4,1.2-.5,1.8-.5s.3,0,.5,0c.2,0,.3,0,.4,0v1.9c0,0-.2,0-.4,0s-.5,0-.7,0c-.8,0-1.5.3-2.1.8-.5.5-.8,1.1-.8,1.9v7.2h-1.8Z"/>
      <path class="cls-6" d="M218.3,387.6c-.7,0-1.4-.1-2-.4-.6-.3-1.1-.7-1.4-1.2-.3-.5-.5-1.2-.5-1.9s.1-1.2.4-1.6.6-.7,1-1c.4-.2.9-.4,1.4-.5s1.1-.2,1.6-.3c.7,0,1.2-.2,1.7-.2.4,0,.8-.1,1-.2.2-.1.3-.3.3-.6h0c0-.8-.2-1.3-.6-1.7-.4-.4-1-.6-1.8-.6s-1.5.2-1.9.5c-.5.4-.8.7-1,1.1l-1.8-.6c.3-.7.7-1.2,1.2-1.6.5-.4,1-.7,1.7-.8s1.2-.2,1.8-.2.8,0,1.3.1c.5,0,1,.3,1.4.5.5.3.8.7,1.1,1.2.3.5.4,1.3.4,2.1v7.6h-1.8v-1.6h-.1c-.1.3-.3.5-.6.8-.3.3-.7.5-1.1.7s-1,.3-1.7.3ZM218.7,386c.7,0,1.3-.1,1.7-.4s.8-.6,1.1-1c.2-.4.4-.9.4-1.3v-1.6c0,0-.2.2-.5.2-.3,0-.5.1-.9.2-.3,0-.6.1-.9.1-.3,0-.5,0-.7,0-.4,0-.9.1-1.2.3-.4.1-.7.3-.9.6-.2.3-.3.6-.3,1s.2,1,.7,1.3c.4.3,1,.5,1.7.5Z"/>
    </g>
    <g class="cls-12">
      <path class="cls-6" d="M230.7,375.9v1.6h-2.4v6.9c0,.5.1.9.3,1.1.2.2.6.4,1,.4s.3,0,.4,0c.2,0,.3,0,.5,0l.4,1.6c-.2,0-.4.1-.7.2-.2,0-.5,0-.7,0-1,0-1.8-.3-2.3-.8-.6-.5-.8-1.3-.8-2.2v-7.1h-1.7v-1.6h1.7v-2.7h1.8v2.7h2.4Z"/>
    </g>
    <g class="cls-12">
      <path class="cls-6" d="M238.4,387.6c-1,0-2-.2-2.7-.7-.8-.5-1.4-1.2-1.8-2.1s-.7-1.9-.7-3.1.2-2.2.7-3.1c.4-.9,1-1.6,1.8-2.1.8-.5,1.7-.7,2.7-.7s2,.2,2.7.7,1.4,1.2,1.8,2.1c.4.9.7,1.9.7,3.1s-.2,2.2-.7,3.1-1,1.6-1.8,2.1-1.7.7-2.7.7ZM238.4,385.9c.8,0,1.4-.2,1.9-.6.5-.4.9-.9,1.1-1.6.2-.6.4-1.3.4-2.1s-.1-1.5-.4-2.1c-.2-.7-.6-1.2-1.1-1.6-.5-.4-1.1-.6-1.9-.6s-1.4.2-1.9.6c-.5.4-.9.9-1.1,1.6-.2.7-.4,1.4-.4,2.1s.1,1.5.4,2.1c.2.6.6,1.2,1.1,1.6.5.4,1.1.6,1.9.6Z"/>
      <path class="cls-6" d="M246.3,387.3v-11.5h1.8v1.8h.1c.2-.6.6-1,1.1-1.4.5-.4,1.2-.5,1.8-.5s.3,0,.5,0c.2,0,.3,0,.4,0v1.9c0,0-.2,0-.4,0s-.5,0-.7,0c-.8,0-1.5.3-2.1.8-.5.5-.8,1.1-.8,1.9v7.2h-1.8Z"/>
      <path class="cls-6" d="M255.6,379.2c-.4,0-.7-.1-1-.4-.3-.3-.4-.6-.4-1s.1-.7.4-1c.3-.3.6-.4,1-.4s.7.1,1,.4c.3.3.4.6.4,1s-.1.7-.4,1c-.3.3-.6.4-1,.4ZM255.6,387.5c-.4,0-.7-.1-1-.4s-.4-.6-.4-1,.1-.7.4-1,.6-.4,1-.4.7.1,1,.4.4.6.4,1-.1.7-.4,1-.6.4-1,.4Z"/>
      <path class="cls-6" d="M267.1,374c-.3,0-.6-.1-.9-.4s-.4-.5-.4-.9.1-.6.4-.9c.3-.2.6-.4.9-.4s.7.1.9.4c.3.2.4.5.4.9s-.1.6-.4.9-.6.4-.9.4ZM266.2,387.3v-11.5h1.8v11.5h-1.8Z"/>
      <path class="cls-6" d="M275.2,387.6c-1.2,0-2.2-.3-2.9-.8-.8-.5-1.3-1.3-1.5-2.3l1.8-.4c.2.6.5,1.1.9,1.4.5.3,1,.4,1.7.4s1.4-.2,1.9-.5c.5-.3.7-.7.7-1.2,0-.8-.6-1.3-1.7-1.6l-1.9-.5c-2.1-.5-3.1-1.5-3.1-3.1s.2-1.2.6-1.7c.4-.5.9-.9,1.5-1.2.6-.3,1.4-.4,2.2-.4,1.2,0,2.1.3,2.8.8.7.5,1.1,1.2,1.4,2l-1.7.4c-.2-.4-.4-.8-.8-1.1-.4-.3-.9-.5-1.7-.5s-1.3.2-1.7.5c-.5.3-.7.7-.7,1.2s.2.8.5,1c.3.3.8.5,1.5.6l1.7.4c1,.2,1.8.6,2.3,1.1.5.5.7,1.2.7,2s-.2,1.3-.6,1.8c-.4.5-.9.9-1.6,1.2-.7.3-1.5.5-2.4.5Z"/>
      <path class="cls-6" d="M286.3,387.6c-1.2,0-2.2-.3-2.9-.8-.8-.5-1.3-1.3-1.5-2.3l1.8-.4c.2.6.5,1.1.9,1.4.5.3,1,.4,1.7.4s1.4-.2,1.9-.5c.5-.3.7-.7.7-1.2,0-.8-.6-1.3-1.7-1.6l-1.9-.5c-2.1-.5-3.1-1.5-3.1-3.1s.2-1.2.6-1.7c.4-.5.9-.9,1.5-1.2.6-.3,1.4-.4,2.2-.4,1.2,0,2.1.3,2.8.8.7.5,1.1,1.2,1.4,2l-1.7.4c-.2-.4-.4-.8-.8-1.1-.4-.3-.9-.5-1.7-.5s-1.3.2-1.7.5c-.5.3-.7.7-.7,1.2s.2.8.5,1c.3.3.8.5,1.5.6l1.7.4c1,.2,1.8.6,2.3,1.1.5.5.7,1.2.7,2s-.2,1.3-.6,1.8c-.4.5-.9.9-1.6,1.2-.7.3-1.5.5-2.4.5Z"/>
      <path class="cls-6" d="M297.3,387.5c-1.2,0-2.1-.4-2.8-1.1-.7-.7-1.1-1.8-1.1-3.2v-7.3h1.8v7.1c0,.9.2,1.6.7,2.1s1.1.7,1.9.7,1.5-.3,2.1-.8c.5-.5.8-1.3.8-2.3v-6.9h1.9v11.5h-1.8v-2.1c-.4.8-.9,1.4-1.5,1.8-.6.3-1.3.5-2,.5Z"/>
      <path class="cls-6" d="M310.7,387.6c-1.1,0-2.1-.2-2.9-.7-.8-.5-1.4-1.2-1.9-2.1-.4-.9-.7-1.9-.7-3.1s.2-2.2.6-3.1,1-1.6,1.8-2.1c.8-.5,1.7-.8,2.7-.8s1.2.1,1.8.3c.6.2,1.1.5,1.6,1,.5.4.9,1,1.2,1.8.3.7.4,1.6.4,2.7v.8h-8.3c0,1.2.4,2.1,1,2.8.6.6,1.5,1,2.5,1s1.3-.1,1.7-.4c.5-.3.8-.7,1.1-1.3l1.8.5c-.3.9-.8,1.6-1.6,2.1-.8.5-1.8.8-3,.8ZM307.2,380.7h6.4c0-1-.4-1.8-.9-2.4-.5-.6-1.3-.9-2.2-.9s-1.2.2-1.7.5c-.5.3-.8.7-1.1,1.2s-.4,1-.5,1.6Z"/>
      <path class="cls-6" d="M318.1,387.3v-11.5h1.8v1.8h.1c.2-.6.6-1,1.1-1.4.5-.4,1.2-.5,1.8-.5s.3,0,.5,0c.2,0,.3,0,.4,0v1.9c0,0-.2,0-.4,0s-.5,0-.7,0c-.8,0-1.5.3-2.1.8-.5.5-.8,1.1-.8,1.9v7.2h-1.8Z"/>
    </g>
  </g>
  <g>
    <rect class="cls-10" x="104" y="157.4" width="217.1" height="48.5"/>
    <path class="cls-4" d="M321.6,206.4H103.5v-49.5h218.1v49.5ZM104.5,205.4h216.1v-47.5H104.5v47.5Z"/>
  </g>
  <g class="cls-12">
    <g class="cls-12">
      <path class="cls-6" d="M139,187.4v-11.5h2.1v2.1c.3-.8.8-1.4,1.4-1.8s1.2-.6,1.9-.6,1.4.2,1.9.6c.5.4.9,1,1.1,1.8.3-.8.8-1.4,1.4-1.8.7-.4,1.4-.6,2.2-.6s1.3.1,1.8.4,1,.7,1.3,1.3c.3.6.5,1.3.5,2.2v7.7h-2.3v-7.5c0-.8-.2-1.3-.6-1.7s-.9-.5-1.5-.5-1.3.2-1.7.7c-.4.4-.6,1-.6,1.7v7.3h-2.2v-7.6c0-.6-.2-1.1-.6-1.5-.4-.4-.9-.6-1.5-.6s-1.2.2-1.6.7c-.5.4-.7,1.1-.7,1.9v7.1h-2.3Z"/>
      <path class="cls-6" d="M158.8,174.1c-.4,0-.7-.1-1-.4-.3-.3-.4-.6-.4-.9s.1-.7.4-1c.3-.3.6-.4,1-.4s.7.1,1,.4.4.6.4,1-.1.7-.4.9c-.3.3-.6.4-1,.4ZM157.6,187.4v-11.5h2.3v11.5h-2.3Z"/>
      <path class="cls-6" d="M165.2,180.6v6.8h-2.3v-11.5h2.2v2.2c.4-.8.8-1.4,1.4-1.8.6-.4,1.3-.6,2.1-.6,1.2,0,2.1.4,2.8,1.1.7.7,1.1,1.8,1.1,3.2v7.3h-2.3v-7c0-.8-.2-1.5-.6-1.9s-1-.7-1.8-.7-1.4.2-1.9.7c-.5.5-.8,1.2-.8,2.1Z"/>
      <path class="cls-6" d="M176.7,174.1c-.4,0-.7-.1-1-.4-.3-.3-.4-.6-.4-.9s.1-.7.4-1c.3-.3.6-.4,1-.4s.7.1,1,.4.4.6.4,1-.1.7-.4.9c-.3.3-.6.4-1,.4ZM175.6,187.4v-11.5h2.3v11.5h-2.3Z"/>
      <path class="cls-6" d="M185.7,187.6c-1.1,0-2-.2-2.8-.7-.8-.5-1.4-1.2-1.9-2.1-.4-.9-.7-1.9-.7-3.1s.2-2.2.7-3.1c.4-.9,1.1-1.6,1.9-2.1.8-.5,1.7-.7,2.8-.7s2,.2,2.8.7c.8.5,1.4,1.2,1.9,2.1.4.9.7,1.9.7,3.1s-.2,2.2-.7,3.1c-.4.9-1.1,1.6-1.9,2.1-.8.5-1.7.7-2.8.7ZM185.7,185.7c.7,0,1.3-.2,1.7-.5.5-.4.8-.9,1-1.5.2-.6.3-1.3.3-2s-.1-1.4-.3-2c-.2-.6-.6-1.1-1-1.5-.5-.4-1-.5-1.7-.5s-1.3.2-1.7.5c-.5.4-.8.9-1,1.5-.2.6-.3,1.3-.3,2s.1,1.4.3,2c.2.6.6,1.1,1,1.5.5.4,1,.5,1.7.5Z"/>
      <path class="cls-6" d="M200.3,179.9v2h-6.8v-2h6.8Z"/>
      <path class="cls-6" d="M208.1,187.6c-1.1,0-2-.2-2.8-.7-.8-.5-1.4-1.2-1.9-2.1-.4-.9-.7-1.9-.7-3.1s.2-2.2.7-3.1c.4-.9,1.1-1.6,1.9-2.1.8-.5,1.7-.7,2.8-.7s2,.2,2.8.7c.8.5,1.4,1.2,1.9,2.1.4.9.7,1.9.7,3.1s-.2,2.2-.7,3.1c-.4.9-1.1,1.6-1.9,2.1-.8.5-1.7.7-2.8.7ZM208.1,185.7c.7,0,1.3-.2,1.7-.5.5-.4.8-.9,1-1.5.2-.6.3-1.3.3-2s-.1-1.4-.3-2c-.2-.6-.6-1.1-1-1.5-.5-.4-1-.5-1.7-.5s-1.3.2-1.7.5c-.5.4-.8.9-1,1.5-.2.6-.3,1.3-.3,2s.1,1.4.3,2c.2.6.6,1.1,1,1.5.5.4,1,.5,1.7.5Z"/>
      <path class="cls-6" d="M215.9,191.6v-15.8h2.2v1.9h.2c.1-.2.3-.5.6-.8.2-.3.6-.6,1-.8.4-.2,1-.4,1.7-.4s1.7.2,2.5.7c.7.5,1.3,1.1,1.7,2,.4.9.6,1.9.6,3.2s-.2,2.3-.6,3.2-1,1.6-1.7,2c-.7.5-1.5.7-2.5.7s-1.3-.1-1.7-.4c-.4-.2-.8-.5-1-.8-.2-.3-.4-.6-.6-.8h-.1v6.1h-2.3ZM221.1,185.7c.7,0,1.2-.2,1.6-.5.4-.4.8-.8,1-1.4s.3-1.3.3-2.1-.1-1.4-.3-2c-.2-.6-.6-1.1-1-1.4-.4-.3-1-.5-1.7-.5-1,0-1.7.4-2.2,1.1-.5.7-.8,1.7-.8,2.9s.3,2.2.8,2.9,1.2,1.1,2.2,1.1Z"/>
      <path class="cls-6" d="M233.9,187.6c-1.1,0-2.1-.2-2.9-.7s-1.5-1.2-1.9-2.1c-.4-.9-.7-1.9-.7-3.1s.2-2.2.7-3.1c.4-.9,1-1.6,1.8-2.1.8-.5,1.7-.8,2.8-.8s1.7.2,2.5.6c.8.4,1.4,1,1.9,1.8.5.8.7,2,.7,3.3v.8h-8.1c0,1.1.4,2,.9,2.5.6.6,1.3.9,2.3.9s1.2-.1,1.6-.4c.5-.3.8-.7,1-1.2l2.1.5c-.3.9-.8,1.6-1.7,2.2s-1.9.8-3.1.8ZM230.7,180.6h5.9c0-.9-.4-1.6-.8-2.2-.5-.6-1.2-.8-2-.8s-1.6.3-2.1.9c-.5.6-.8,1.3-.9,2.1Z"/>
    </g>
    <g class="cls-12">
      <path class="cls-6" d="M240.9,187.4v-11.5h2.2v1.8h.1c.2-.6.6-1.1,1.1-1.5.5-.4,1.1-.5,1.8-.5s.3,0,.5,0c.2,0,.3,0,.5,0v2.2c0,0-.2,0-.5,0-.2,0-.5,0-.7,0-.8,0-1.4.2-2,.7-.5.5-.8,1.1-.8,1.9v7h-2.3Z"/>
    </g>
    <g class="cls-12">
      <path class="cls-6" d="M252,187.6c-.7,0-1.4-.1-2-.4-.6-.3-1-.7-1.4-1.2s-.5-1.2-.5-1.9.1-1.2.4-1.6c.3-.4.6-.8,1-1,.4-.2.9-.4,1.4-.5.5-.1,1.1-.2,1.6-.3,1-.1,1.7-.2,2.2-.3.5,0,.7-.3.7-.7h0c0-.7-.2-1.2-.6-1.5-.4-.4-.9-.5-1.6-.5s-1.3.2-1.8.5-.7.7-.9,1.1l-2.1-.6c.3-.7.6-1.2,1.1-1.7.5-.4,1-.7,1.7-.9.6-.2,1.3-.3,2-.3s.9,0,1.5.2,1,.3,1.5.6c.5.3.8.7,1.1,1.2s.4,1.2.4,2v7.6h-2.2v-1.6h-.1c-.2.5-.6.9-1.2,1.2-.6.4-1.3.6-2.2.6ZM252.5,185.8c.6,0,1.1-.1,1.6-.4.4-.2.8-.6,1-.9.2-.4.4-.8.4-1.3v-1.5c-.1.1-.3.2-.7.3-.4,0-.7.1-1.1.2-.4,0-.7,0-.9.1-.6,0-1.2.3-1.6.5-.5.3-.7.7-.7,1.3s.2,1,.6,1.2c.4.3.9.4,1.6.4Z"/>
    </g>
    <g class="cls-12">
      <path class="cls-6" d="M265.7,175.9v1.8h-2.3v6.5c0,.5,0,.8.3,1,.2.2.5.3,1,.3s.3,0,.5,0c.2,0,.4,0,.5,0l.4,1.8c-.2,0-.5.1-.8.2-.3,0-.5,0-.8,0-1,0-1.8-.3-2.4-.8-.6-.5-.9-1.3-.9-2.3v-6.7h-1.7v-1.8h1.7v-2.7h2.3v2.7h2.3Z"/>
    </g>
    <g class="cls-12">
      <path class="cls-6" d="M273.3,187.6c-1.1,0-2-.2-2.8-.7-.8-.5-1.4-1.2-1.9-2.1-.4-.9-.7-1.9-.7-3.1s.2-2.2.7-3.1c.4-.9,1.1-1.6,1.9-2.1.8-.5,1.7-.7,2.8-.7s2,.2,2.8.7c.8.5,1.4,1.2,1.9,2.1.4.9.7,1.9.7,3.1s-.2,2.2-.7,3.1c-.4.9-1.1,1.6-1.9,2.1-.8.5-1.7.7-2.8.7ZM273.3,185.7c.7,0,1.3-.2,1.7-.5.5-.4.8-.9,1-1.5.2-.6.3-1.3.3-2s-.1-1.4-.3-2c-.2-.6-.6-1.1-1-1.5-.5-.4-1-.5-1.7-.5s-1.3.2-1.7.5c-.5.4-.8.9-1,1.5-.2.6-.3,1.3-.3,2s.1,1.4.3,2c.2.6.6,1.1,1,1.5.5.4,1,.5,1.7.5Z"/>
      <path class="cls-6" d="M281.1,187.4v-11.5h2.2v1.8h.1c.2-.6.6-1.1,1.1-1.5.5-.4,1.1-.5,1.8-.5s.3,0,.5,0,.3,0,.5,0v2.2c0,0-.2,0-.5,0-.2,0-.5,0-.7,0-.8,0-1.4.2-2,.7-.5.5-.8,1.1-.8,1.9v7h-2.3Z"/>
    </g>
  </g>
  <g class="cls-12">
    <g class="cls-12">
      <path class="cls-6" d="M510.3,101c-2.1,0-4-.5-5.7-1.4-1.7-1-3-2.4-3.9-4.2s-1.4-4-1.4-6.6.5-4.8,1.5-6.6c1-1.8,2.3-3.2,4-4.2,1.7-1,3.6-1.4,5.6-1.4s3.4.3,4.9,1c1.5.7,2.7,1.6,3.6,2.9s1.5,2.8,1.8,4.6h-4.9c-.2-1.3-.8-2.3-1.8-3-.9-.7-2.1-1.1-3.5-1.1s-3.4.7-4.5,2.1-1.7,3.3-1.7,5.9.6,4.5,1.7,5.9c1.1,1.3,2.6,2,4.5,2s2.5-.4,3.5-1.1c1-.7,1.5-1.7,1.8-3h4.9c-.2,1.5-.7,2.9-1.6,4.1-.9,1.3-2,2.3-3.5,3.1-1.5.8-3.2,1.2-5.2,1.2Z"/>
      <path class="cls-6" d="M528.8,76.8v23.8h-4.8v-23.8h4.8Z"/>
      <path class="cls-6" d="M539,100.9c-1.9,0-3.3-.6-4.5-1.8-1.1-1.2-1.7-2.8-1.7-4.9v-11.4h4.8v10.5c0,1.1.3,2,.9,2.6.6.6,1.4.9,2.4.9s1.9-.3,2.5-1c.6-.7,1-1.6,1-2.8v-10.3h4.8v17.9h-4.5v-3.7c-.6,1.3-1.3,2.2-2.2,2.9-.9.7-2.1,1-3.4,1Z"/>
      <path class="cls-6" d="M560.4,101c-2.2,0-3.9-.5-5.3-1.4-1.4-.9-2.3-2.2-2.6-3.9l4.5-.8c.5,1.7,1.7,2.5,3.6,2.5s1.6-.2,2.2-.5c.5-.3.8-.8.8-1.3,0-.9-.8-1.5-2.3-1.8l-3.1-.6c-3.4-.7-5.1-2.4-5.1-5.1s.7-3.1,2.1-4.1c1.4-1,3.2-1.5,5.5-1.5s3.8.4,5.1,1.3,2.1,2,2.4,3.5l-4.3.8c-.2-.6-.5-1.1-1.1-1.5-.5-.4-1.2-.6-2.1-.6s-1.5.2-2,.5-.8.8-.8,1.3.2.8.5,1.1c.3.3.9.6,1.8.7l3.2.6c3.4.7,5.1,2.3,5.1,4.8s-.3,2.2-1,3.1c-.7.9-1.6,1.6-2.8,2.1-1.2.5-2.6.7-4.1.7Z"/>
    </g>
    <g class="cls-12">
      <path class="cls-6" d="M581,82.8v3.7h-3.3v9c0,1.1.5,1.7,1.6,1.7s.4,0,.8,0c.3,0,.6,0,.8-.1l.7,3.6c-.5.2-1.1.3-1.6.3-.5,0-1,0-1.5,0-1.8,0-3.2-.4-4.1-1.3-.9-.9-1.4-2.1-1.4-3.8v-9.4h-2.5v-3.7h2.5v-4.3h4.8v4.3h3.3Z"/>
    </g>
    <g class="cls-12">
      <path class="cls-6" d="M592.7,101c-1.8,0-3.4-.4-4.7-1.1s-2.3-1.8-3-3.2c-.7-1.4-1.1-3-1.1-4.9s.4-3.5,1.1-4.8c.7-1.4,1.7-2.5,3-3.2s2.8-1.2,4.5-1.2,3,.3,4.2,1c1.3.7,2.3,1.7,3,3,.8,1.3,1.1,3,1.1,5.1v1.3h-12.2c0,1.5.5,2.6,1.2,3.3.8.7,1.7,1.1,2.9,1.1s1.6-.2,2.2-.5c.6-.4,1-.9,1.3-1.6l4.3.8c-.4,1.5-1.3,2.7-2.7,3.6-1.4.9-3.1,1.3-5.2,1.3ZM588.6,89.9h7.6c-.1-1.2-.5-2.1-1.1-2.8-.6-.7-1.5-1-2.6-1s-2.1.4-2.7,1.1c-.7.7-1,1.6-1.1,2.7Z"/>
      <path class="cls-6" d="M604.1,100.6v-17.9h4.6v3.1h.2c.3-1.1.9-1.9,1.7-2.5s1.7-.9,2.7-.9,1.1,0,1.6.2v4.3c-.2,0-.5-.1-.9-.2-.4,0-.8,0-1.1,0-1.1,0-2,.3-2.7,1-.7.7-1.1,1.6-1.1,2.7v10.2h-4.8Z"/>
    </g>
  </g>
  <path class="cls-7" d="M470.5,87.5c.4,0,.7-.3.7-.7l.2-4.1-.8.2c-1.4.3-2.8,1.1-3.8,2.1l3.4,2.4c.1,0,.2,0,.3,0h0Z"/>
  <path class="cls-7" d="M473.8,87.2c.2.3.6.3.9.2l3.4-2.4c-1.2-1.2-2.8-2-4.7-2.2l.2,4.2c0,.1,0,.2.1.3h0Z"/>
  <path class="cls-7" d="M469,92.8l-4.1.7c.6,1.7,1.7,3.1,3.2,4l1.6-3.8c0-.1,0-.3,0-.4,0-.3-.4-.5-.7-.5h0Z"/>
  <polygon class="cls-7" points="471.3 91.6 472.5 92.2 473.6 91.6 473.9 90.4 473.1 89.4 471.8 89.4 471 90.4 471.3 91.6"/>
  <path class="cls-7" d="M468.7,90.2c.2-.3.2-.7,0-.9l-3-2.7c-.9,1.5-1.3,3.3-1.2,5l4-1.2c.2,0,.2,0,.3-.2h0Z"/>
  <path class="cls-7" d="M472.7,94.6c-.3-.2-.6,0-.8.2l-2,3.7c.8.2,1.7.4,2.6.4s1.2,0,1.8-.2c.3,0,.5-.1.8-.2l-2-3.6c-.1-.1-.2-.2-.3-.3Z"/>
  <path class="cls-7" d="M490.5,93.4l-3.1-13.5c-.2-.7-.7-1.2-1.3-1.5l-12.6-6c-.3-.2-.7-.2-1-.2s-.7,0-1,0l-12.6,6.1c-.6.3-1.1.8-1.2,1.5l-3.1,13.6c-.1.7,0,1.4.5,2l8.7,10.8c.5.5,1.2.8,1.9.9h13.8c.7,0,1.4-.2,1.9-.9l8.7-10.8c.4-.6.6-1.3.5-2h0ZM485.4,94.4c0,0-.1,0-.2,0,0,0,0,0,0,0,0,0-.1,0-.2,0-.2,0-.3-.1-.5-.2,0,0-.2,0-.2,0h0c-.4-.2-.9-.3-1.3-.4h0c-.1,0-.2,0-.3.1,0,0,0,0,0,0h-.3c-.7,2.3-2.4,4.3-4.5,5.6v.3c.1,0,0,0,0,0,0,.1,0,.3,0,.4.2.4.4.8.7,1.2h0c0,.2.1.2.2.3.1.1.2.2.3.4,0,0,0,0,0,.1,0,0,0,0,0,0,0,.2,0,.4,0,.6,0,.2-.2.4-.4.4-.1,0-.2,0-.3,0-.3,0-.6-.2-.8-.5,0,0,0,0,0,0,0,0,0,0,0-.1,0-.1-.1-.3-.2-.4v-.2c0,0,0,0,0,0-.1-.4-.3-.9-.5-1.3,0-.1-.2-.2-.3-.2,0,0,0,0,0,0l-.2-.3c-.4.1-.9.3-1.3.4-.7.2-1.5.3-2.2.3-1.2,0-2.4-.2-3.6-.7l-.2.3s0,0,0,0c-.1,0-.2.1-.3.2-.2.4-.4.8-.5,1.3v.2c-.1.2-.2.3-.2.4,0,0,0,0,0,.1,0,0,0,0,0,0-.2.3-.5.5-.8.5s-.2,0-.3,0c-.4-.2-.5-.7-.3-1.1,0,0,0,0,0,0,0,0,0,0,0-.1.1-.2.2-.3.3-.4,0,0,.1-.1.2-.2h0c.2-.4.5-.8.7-1.2,0-.1,0-.3,0-.4,0,0,0,0,0,0l.2-.3c-.4-.2-.7-.4-1.1-.7-1.6-1.2-2.8-2.9-3.4-4.8h-.4s0,0,0,0c0,0-.2-.1-.3-.1h0c-.5,0-.9.2-1.4.4h0c0,0-.2,0-.2,0-.1,0-.3.1-.5.2,0,0-.2,0-.2,0s0,0,0,0c0,0-.1,0-.2,0-.4,0-.7-.2-.8-.6,0-.4.2-.9.7-.9.3,0,.3,0,0,0,0,0,.1,0,.2,0,.2,0,.3,0,.5,0,0,0,.2,0,.2,0,.5,0,1-.1,1.4-.2.1,0,.2-.2.3-.3,0,0,0,0,0,0h.3c-.4-2.4.2-4.8,1.4-6.8,0,0,0-.1.1-.2l-.2-.2h0s0,0,0,0h0c0-.1,0-.2-.1-.3-.3-.3-.7-.6-1.1-.8,0,0-.2,0-.2-.1-.2,0-.3-.2-.5-.2,0,0-.1,0-.1,0,0,0,0,0,0,0-.3-.3-.4-.8-.2-1.2.1-.2.3-.3.6-.3s.4,0,.6.2h0s0,0,.1.1c.1.1.2.2.3.4,0,0,.1,0,.2.2.3.3.7.7,1,.9,0,0,.2,0,.2,0s.1,0,.2,0h0l.2.2c1.4-1.4,3.1-2.5,5.1-2.9.5,0,1-.2,1.4-.2v-.3s0,0,0,0c.1,0,.2-.2.2-.3,0-.5,0-.9,0-1.4h0c0-.1,0-.2,0-.3,0-.2,0-.3,0-.5v-.2c0-.2,0-.4.2-.6.2-.2.5-.3.7-.3.4,0,.7.4.7.9v.2c0,.2,0,.3,0,.5,0,0,0,.2,0,.2h0c0,.5,0,1,0,1.4,0,.1,0,.2.2.3h0s0,.3,0,.3c1.9.2,3.8.9,5.4,2.1.3.3.7.7,1,1l.3-.2h0s.1,0,.2,0c0,0,.2,0,.2,0,.4-.2.7-.6,1-.9,0,0,.1,0,.2-.2,0-.1.2-.2.3-.4,0,0,0,0,.1,0h0c.2-.2.4-.2.6-.2s.5.1.6.3c.3.4.2.9-.2,1.2,0,0,0,0,0,0s0,0-.1,0c-.2,0-.3.2-.5.2,0,0-.2,0-.2.1-.4.2-.8.5-1.1.8,0,0-.1.2-.1.4h0s-.2.3-.2.3c.7,1,1.1,2.2,1.4,3.4.2,1.2.3,2.4.2,3.6h.3c0,.2.2.3.3.4.5.1,1,.2,1.4.2h0c0,0,.2,0,.2,0,.2,0,.3,0,.5,0,0,0,.2,0,.2,0s0,0,0,0h0c.4,0,.7.4.7.9-.1.3-.5.6-.8.6h0Z"/>
  <path class="cls-7" d="M479.3,86.5l-3.1,2.8c0,0-.1.2-.2.3,0,.4.1.7.5.8l3.9,1.1c0-.9,0-1.7-.2-2.6-.2-.9-.5-1.7-1-2.4h0Z"/>
  <path class="cls-7" d="M475.5,92.8c-.3.1-.5.4-.4.8l1.6,3.9c1-.6,1.9-1.5,2.5-2.5.3-.4.6-1,.8-1.6l-4.1-.7c-.1,0-.2,0-.4,0h0Z"/>
  <g>
    <rect class="cls-10" x="223.4" y="467.9" width="291.4" height="291.4" rx="12" ry="12"/>
    <path class="cls-6" d="M499.4,758.8v1-1ZM495.4,758.8v1-1ZM491.4,758.8v1-1ZM487.4,758.8v1-1ZM483.4,758.8v1-1ZM479.4,758.8v1-1ZM475.4,758.8v1-1ZM471.4,758.8v1-1ZM467.4,758.8v1-1ZM463.4,758.8v1-1ZM459.4,758.8v1-1ZM455.4,758.8v1-1ZM451.4,758.8v1-1ZM447.4,758.8v1-1ZM443.4,758.8v1-1ZM439.4,758.8v1-1ZM435.4,758.8v1-1ZM431.4,758.8v1-1ZM427.4,758.8v1-1ZM423.4,758.8v1-1ZM419.4,758.8v1-1ZM415.4,758.8v1-1ZM411.4,758.8v1-1ZM407.4,758.8v1-1ZM403.4,758.8v1-1ZM399.4,758.8v1-1ZM395.4,758.8v1-1ZM391.4,758.8v1-1ZM387.4,758.8v1-1ZM383.4,758.8v1-1ZM379.4,758.8v1-1ZM375.4,758.8v1-1ZM371.4,758.8v1-1ZM367.4,758.8v1-1ZM363.4,758.8v1-1ZM359.4,758.8v1-1ZM355.4,758.8v1-1ZM351.4,758.8v1-1ZM347.4,758.8v1-1ZM343.4,758.8v1-1ZM339.4,758.8v1-1ZM335.4,758.8v1-1ZM331.4,758.8v1-1ZM327.4,758.8v1-1ZM323.4,758.8v1-1ZM319.4,758.8v1-1ZM315.4,758.8v1-1ZM311.4,758.8v1-1ZM307.4,758.8v1-1ZM303.4,758.8v1-1ZM299.4,758.8v1-1ZM295.4,758.8v1-1ZM291.4,758.8v1-1ZM287.4,758.8v1-1ZM283.4,758.8v1-1ZM279.4,758.8v1-1ZM275.4,758.8v1-1ZM271.4,758.8v1-1ZM267.4,758.8v1-1ZM263.4,758.8v1-1ZM259.4,758.8v1-1ZM255.4,758.8v1-1ZM251.4,758.8v1-1ZM247.4,758.8v1-1ZM243.4,758.8v1-1ZM239.4,758.8v1-1ZM235.4,758.8v1-1ZM503.3,758.8v1h0v-1ZM231.6,758.2l-.3.9.3-.9ZM507.1,758l.4.9-.4-.9ZM227.6,757.2l.3-.4-.3.4h0ZM510.3,756l.7.8-.7-.8ZM228.2,756.4h0l-.3.4.3-.4ZM225.7,753.6l-.8.5.8-.5ZM512.8,753.1l.9.5-.9-.5ZM224.2,750l-1,.2,1-.2ZM514.1,749.5l1,.2-1-.2ZM222.9,746.2h1-1ZM514.3,745.6h1-1ZM222.9,742.2h1-1ZM514.3,741.6h1-1ZM222.9,738.2h1-1ZM514.3,737.6h1-1ZM222.9,734.2h1-1ZM514.3,733.6h1-1ZM222.9,730.2h1-1ZM514.3,729.6h1-1ZM222.9,726.2h1-1ZM514.3,725.6h1-1ZM222.9,722.2h1-1ZM514.3,721.6h1-1ZM222.9,718.2h1-1ZM514.3,717.6h1-1ZM222.9,714.2h1-1ZM514.3,713.6h1-1ZM222.9,710.2h1-1ZM514.3,709.6h1-1ZM222.9,706.2h1-1ZM514.3,705.6h1-1ZM222.9,702.2h1-1ZM514.3,701.6h1-1ZM222.9,698.2h1-1ZM514.3,697.6h1-1ZM222.9,694.2h1-1ZM514.3,693.6h1-1ZM222.9,690.2h1-1ZM514.3,689.6h1-1ZM222.9,686.2h1-1ZM514.3,685.6h1-1ZM222.9,682.2h1-1ZM514.3,681.6h1-1ZM222.9,678.2h1-1ZM514.3,677.6h1-1ZM222.9,674.2h1-1ZM514.3,673.6h1-1ZM222.9,670.2h1-1ZM514.3,669.6h1-1ZM222.9,666.2h1-1ZM514.3,665.6h1-1ZM222.9,662.2h1-1ZM514.3,661.6h1-1ZM222.9,658.2h1-1ZM514.3,657.6h1-1ZM222.9,654.2h1-1ZM514.3,653.6h1-1ZM222.9,650.2h1-1ZM514.3,649.6h1-1ZM222.9,646.2h1-1ZM514.3,645.6h1-1ZM222.9,642.2h1-1ZM514.3,641.6h1-1ZM222.9,638.2h1-1ZM514.3,637.6h1-1ZM222.9,634.2h1-1ZM514.3,633.6h1-1ZM222.9,630.2h1-1ZM514.3,629.6h1-1ZM222.9,626.2h1-1ZM514.3,625.6h1-1ZM222.9,622.2h1-1ZM514.3,621.6h1-1ZM222.9,618.2h1-1ZM514.3,617.6h1-1ZM222.9,614.2h1-1ZM514.3,613.6h1-1ZM222.9,610.2h1-1ZM514.3,609.6h1-1ZM222.9,606.2h1-1ZM514.3,605.6h1-1ZM222.9,602.2h1-1ZM514.3,601.6h1-1ZM222.9,598.2h1-1ZM514.3,597.6h1-1ZM222.9,594.2h1-1ZM514.3,593.6h1-1ZM222.9,590.2h1-1ZM514.3,589.6h1-1ZM222.9,586.2h1-1ZM514.3,585.6h1-1ZM222.9,582.2h1-1ZM514.3,581.6h1-1ZM222.9,578.2h1-1ZM514.3,577.6h1-1ZM222.9,574.2h1-1ZM514.3,573.6h1-1ZM222.9,570.2h1-1ZM514.3,569.6h1-1ZM222.9,566.2h1-1ZM514.3,565.6h1-1ZM222.9,562.2h1-1ZM514.3,561.6h1-1ZM222.9,558.2h1-1ZM514.3,557.6h1-1ZM222.9,554.2h1-1ZM514.3,553.6h1-1ZM222.9,550.2h1-1ZM514.3,549.6h1-1ZM222.9,546.2h1-1ZM514.3,545.6h1-1ZM222.9,542.2h1-1ZM514.3,541.6h1-1ZM222.9,538.2h1-1ZM514.3,537.6h1-1ZM222.9,534.2h1-1ZM514.3,533.6h1-1ZM222.9,530.2h1-1ZM514.3,529.6h1-1ZM222.9,526.2h1-1ZM514.3,525.6h1-1ZM222.9,522.2h1-1ZM514.3,521.6h1-1ZM222.9,518.2h1-1ZM514.3,517.6h1-1ZM222.9,514.2h1-1ZM514.3,513.6h1-1ZM222.9,510.2h1-1ZM514.3,509.6h1-1ZM222.9,506.2h1-1ZM514.3,505.6h1-1ZM222.9,502.2h1-1ZM514.3,501.6h1-1ZM222.9,498.2h1-1ZM514.3,497.6h1-1ZM222.9,494.2h1-1ZM514.3,493.6h1-1ZM222.9,490.2h1-1ZM514.3,489.6h1-1ZM222.9,486.2h1-1ZM514.3,485.6h1-1ZM222.9,482.2h1-1ZM514.3,481.6h1-1ZM223,478.1h1c-1,0,0,.1-1,0ZM515.1,477.5l-1,.2,1-.2ZM224.2,474.2l.9.5-.9-.5ZM513.6,473.6l-.9.5.9-.5ZM226.7,470.9l.7.7-.7-.7ZM511,470.5h0l-.7.8c.7-.8,0,0,.6-.8ZM230.2,468.5h0l.4.9-.4-.9ZM507.1,469.2l.4-.9-.4.9ZM234.2,467.5v1c0-1,0,0,0-1ZM503.3,468.4v-1s0,1,0,1ZM499.4,467.4v1-1ZM495.4,467.4v1-1ZM491.4,467.4v1-1ZM487.4,467.4v1-1ZM483.4,467.4v1-1ZM479.4,467.4v1-1ZM475.4,467.4v1-1ZM471.4,467.4v1-1ZM467.4,467.4v1-1ZM463.4,467.4v1-1ZM459.4,467.4v1-1ZM455.4,467.4v1-1ZM451.4,467.4v1-1ZM447.4,467.4v1-1ZM443.4,467.4v1-1ZM439.4,467.4v1-1ZM435.4,467.4v1-1ZM431.4,467.4v1-1ZM427.4,467.4v1-1ZM423.4,467.4v1-1ZM419.4,467.4v1-1ZM415.4,467.4v1-1ZM411.4,467.4v1-1ZM407.4,467.4v1-1ZM403.4,467.4v1-1ZM399.4,467.4v1-1ZM395.4,467.4v1-1ZM391.4,467.4v1-1ZM387.4,467.4v1-1ZM383.4,467.4v1-1ZM379.4,467.4v1-1ZM375.4,467.4v1-1ZM371.4,467.4v1-1ZM367.4,467.4v1-1ZM363.4,467.4v1-1ZM359.4,467.4v1-1ZM355.4,467.4v1-1ZM351.4,467.4v1-1ZM347.4,467.4v1-1ZM343.4,467.4v1-1ZM339.4,467.4v1-1ZM335.4,467.4v1-1ZM331.4,467.4v1-1ZM327.4,467.4v1-1ZM323.4,467.4v1-1ZM319.4,467.4v1-1ZM315.4,467.4v1-1ZM311.4,467.4v1-1ZM307.4,467.4v1-1ZM303.4,467.4v1-1ZM299.4,467.4v1-1ZM295.4,467.4v1-1ZM291.4,467.4v1-1ZM287.4,467.4v1-1ZM283.4,467.4v1-1ZM279.4,467.4v1-1ZM275.4,467.4v1-1ZM271.4,467.4v1-1ZM267.4,467.4v1-1ZM263.4,467.4v1-1ZM259.4,467.4v1-1ZM255.4,467.4v1-1ZM251.4,467.4v1-1ZM247.4,467.4v1-1ZM243.4,467.4v1-1ZM239.4,467.4v1-1ZM235.4,467.4v1-1Z"/>
  </g>
  <rect class="cls-3" x="247.1" y="689" width="238.3" height="43"/>
  <g class="cls-12">
    <g class="cls-12">
      <path class="cls-6" d="M293.5,705.2v1.6h-2.4v6.9c0,.5.1.9.3,1.1s.6.4,1,.4.3,0,.4,0c.2,0,.3,0,.5,0l.4,1.6c-.2,0-.4.1-.7.2-.2,0-.5,0-.7,0-1,0-1.8-.3-2.3-.8-.6-.5-.8-1.3-.8-2.2v-7.1h-1.7v-1.6h1.7v-2.7h1.8v2.7h2.4Z"/>
    </g>
    <g class="cls-12">
      <path class="cls-6" d="M301.3,716.9c-1.1,0-2.1-.2-2.9-.7s-1.4-1.2-1.9-2.1c-.4-.9-.7-1.9-.7-3.1s.2-2.2.6-3.1c.4-.9,1-1.6,1.8-2.1.8-.5,1.7-.8,2.7-.8s1.2,0,1.8.3c.6.2,1.1.5,1.6,1,.5.4.9,1,1.2,1.8.3.7.4,1.6.4,2.7v.8h-8.3c0,1.2.4,2.1,1,2.8s1.5,1,2.5,1,1.3-.1,1.7-.4c.5-.3.8-.7,1.1-1.3l1.8.5c-.3.9-.8,1.6-1.6,2.1-.8.5-1.8.8-3,.8ZM297.8,710h6.4c0-1-.4-1.8-.9-2.4-.5-.6-1.3-.9-2.2-.9s-1.2.2-1.7.5c-.5.3-.8.7-1.1,1.2-.3.5-.4,1-.5,1.6Z"/>
      <path class="cls-6" d="M310.6,709.8v6.9h-1.8v-11.5h1.8v2.1c.4-.8.9-1.4,1.5-1.7.6-.3,1.3-.5,2.1-.5,1.2,0,2.1.4,2.8,1.1.7.7,1.1,1.8,1.1,3.2v7.3h-1.8v-7.1c0-.9-.2-1.6-.7-2.1-.5-.5-1.1-.8-1.9-.8s-1.5.3-2.1.8c-.6.5-.8,1.3-.8,2.3Z"/>
      <path class="cls-6" d="M324.3,716.9c-.7,0-1.4-.1-2-.4s-1.1-.7-1.4-1.2c-.3-.5-.5-1.2-.5-1.9s.1-1.2.4-1.6.6-.7,1-1c.4-.2.9-.4,1.4-.5.5-.1,1.1-.2,1.6-.3.7,0,1.2-.2,1.7-.2.4,0,.8-.1,1-.2.2-.1.3-.3.3-.6h0c0-.8-.2-1.3-.6-1.7s-1-.6-1.8-.6-1.5.2-1.9.5-.8.7-1,1.1l-1.8-.6c.3-.7.7-1.2,1.2-1.6.5-.4,1-.7,1.7-.8s1.2-.2,1.8-.2.8,0,1.3.1c.5,0,1,.3,1.4.5s.8.7,1.1,1.2c.3.5.4,1.3.4,2.1v7.6h-1.8v-1.6h-.1c-.1.3-.3.5-.6.8-.3.3-.7.5-1.1.7s-1,.3-1.7.3ZM324.6,715.3c.7,0,1.3-.1,1.7-.4.5-.3.8-.6,1.1-1s.4-.9.4-1.3v-1.6c0,0-.2.2-.5.2-.3,0-.5.1-.9.2-.3,0-.6,0-.9.1-.3,0-.5,0-.7,0-.4,0-.9.1-1.2.3-.4.1-.7.3-.9.6-.2.3-.3.6-.3,1s.2,1,.7,1.3,1,.5,1.7.5Z"/>
      <path class="cls-6" d="M334.8,709.8v6.9h-1.8v-11.5h1.8v2.1c.4-.8.9-1.4,1.5-1.7.6-.3,1.3-.5,2.1-.5,1.2,0,2.1.4,2.8,1.1.7.7,1.1,1.8,1.1,3.2v7.3h-1.8v-7.1c0-.9-.2-1.6-.7-2.1-.5-.5-1.1-.8-1.9-.8s-1.5.3-2.1.8c-.6.5-.8,1.3-.8,2.3Z"/>
    </g>
    <g class="cls-12">
      <path class="cls-6" d="M349.6,705.2v1.6h-2.4v6.9c0,.5.1.9.3,1.1s.6.4,1,.4.3,0,.4,0c.2,0,.3,0,.5,0l.4,1.6c-.2,0-.4.1-.7.2-.2,0-.5,0-.7,0-1,0-1.8-.3-2.3-.8-.6-.5-.8-1.3-.8-2.2v-7.1h-1.7v-1.6h1.7v-2.7h1.8v2.7h2.4Z"/>
    </g>
    <g class="cls-12">
      <path class="cls-6" d="M358.9,709.3v1.7h-6.7v-1.7h6.7Z"/>
    </g>
    <g class="cls-12">
      <path class="cls-6" d="M361.2,716.7v-1.4l5.1-5.5c.6-.6,1-1.2,1.4-1.6s.7-.9.9-1.3.3-.9.3-1.3c0-.8-.3-1.4-.8-1.9-.6-.5-1.2-.7-2-.7s-1.6.3-2.1.8c-.5.5-.8,1.2-.8,2.1h-1.9c0-.9.2-1.7.6-2.4s1-1.2,1.7-1.6c.7-.4,1.5-.6,2.4-.6s1.7.2,2.4.6c.7.4,1.3.9,1.7,1.5.4.6.6,1.4.6,2.2s0,1.1-.3,1.6-.5,1.1-1,1.8c-.5.7-1.2,1.5-2.1,2.4l-3.3,3.6h0c0,.1,7,.1,7,.1v1.7h-9.7Z"/>
      <path class="cls-6" d="M375.5,708.5c-.4,0-.7-.1-1-.4-.3-.3-.4-.6-.4-1s.1-.7.4-1c.3-.3.6-.4,1-.4s.7.1,1,.4c.3.3.4.6.4,1s-.1.7-.4,1c-.3.3-.6.4-1,.4ZM375.5,716.8c-.4,0-.7-.1-1-.4-.3-.3-.4-.6-.4-1s.1-.7.4-1c.3-.3.6-.4,1-.4s.7.1,1,.4.4.6.4,1-.1.7-.4,1c-.3.3-.6.4-1,.4Z"/>
      <path class="cls-6" d="M387,703.3c-.3,0-.6-.1-.9-.4-.3-.2-.4-.5-.4-.9s.1-.6.4-.9.6-.4.9-.4.7.1.9.4.4.5.4.9-.1.6-.4.9c-.3.2-.6.4-.9.4ZM386.1,716.7v-11.5h1.8v11.5h-1.8Z"/>
      <path class="cls-6" d="M395,716.9c-1.2,0-2.2-.3-2.9-.8-.8-.5-1.3-1.3-1.5-2.3l1.8-.4c.2.6.5,1.1.9,1.4.5.3,1,.4,1.7.4s1.4-.2,1.9-.5.7-.7.7-1.2c0-.8-.6-1.3-1.7-1.6l-1.9-.5c-2.1-.5-3.1-1.5-3.1-3.1s.2-1.2.6-1.7c.4-.5.9-.9,1.5-1.2.6-.3,1.4-.4,2.2-.4,1.2,0,2.1.3,2.8.8s1.1,1.2,1.4,2l-1.7.4c-.2-.4-.4-.8-.8-1.1-.4-.3-.9-.5-1.7-.5s-1.3.2-1.7.5-.7.7-.7,1.2.2.8.5,1,.8.5,1.5.6l1.7.4c1,.2,1.8.6,2.3,1.1s.7,1.2.7,2-.2,1.3-.6,1.8c-.4.5-.9.9-1.6,1.2s-1.5.5-2.4.5Z"/>
      <path class="cls-6" d="M406.1,716.9c-1.2,0-2.2-.3-2.9-.8-.8-.5-1.3-1.3-1.5-2.3l1.8-.4c.2.6.5,1.1.9,1.4.5.3,1,.4,1.7.4s1.4-.2,1.9-.5.7-.7.7-1.2c0-.8-.6-1.3-1.7-1.6l-1.9-.5c-2.1-.5-3.1-1.5-3.1-3.1s.2-1.2.6-1.7c.4-.5.9-.9,1.5-1.2.6-.3,1.4-.4,2.2-.4,1.2,0,2.1.3,2.8.8s1.1,1.2,1.4,2l-1.7.4c-.2-.4-.4-.8-.8-1.1-.4-.3-.9-.5-1.7-.5s-1.3.2-1.7.5-.7.7-.7,1.2.2.8.5,1,.8.5,1.5.6l1.7.4c1,.2,1.8.6,2.3,1.1s.7,1.2.7,2-.2,1.3-.6,1.8c-.4.5-.9.9-1.6,1.2s-1.5.5-2.4.5Z"/>
      <path class="cls-6" d="M417.2,716.8c-1.2,0-2.1-.4-2.8-1.1-.7-.7-1.1-1.8-1.1-3.2v-7.3h1.8v7.1c0,.9.2,1.6.7,2.1.5.5,1.1.7,1.9.7s1.5-.3,2.1-.8c.5-.5.8-1.3.8-2.3v-6.9h1.9v11.5h-1.8v-2.1c-.4.8-.9,1.4-1.5,1.8-.6.3-1.3.5-2,.5Z"/>
      <path class="cls-6" d="M430.5,716.9c-1.1,0-2.1-.2-2.9-.7s-1.4-1.2-1.9-2.1c-.4-.9-.7-1.9-.7-3.1s.2-2.2.6-3.1c.4-.9,1-1.6,1.8-2.1.8-.5,1.7-.8,2.7-.8s1.2,0,1.8.3c.6.2,1.1.5,1.6,1,.5.4.9,1,1.2,1.8.3.7.4,1.6.4,2.7v.8h-8.3c0,1.2.4,2.1,1,2.8s1.5,1,2.5,1,1.3-.1,1.7-.4c.5-.3.8-.7,1.1-1.3l1.8.5c-.3.9-.8,1.6-1.6,2.1-.8.5-1.8.8-3,.8ZM427,710h6.4c0-1-.4-1.8-.9-2.4-.5-.6-1.3-.9-2.2-.9s-1.2.2-1.7.5c-.5.3-.8.7-1.1,1.2-.3.5-.4,1-.5,1.6Z"/>
      <path class="cls-6" d="M438,716.7v-11.5h1.8v1.8h.1c.2-.6.6-1,1.1-1.4.5-.4,1.2-.5,1.8-.5s.3,0,.5,0c.2,0,.3,0,.4,0v1.9c0,0-.2,0-.4,0s-.5,0-.7,0c-.8,0-1.5.2-2.1.8-.5.5-.8,1.1-.8,1.9v7.2h-1.8Z"/>
    </g>
  </g>
  <g>
    <rect class="cls-10" x="256.7" y="486.7" width="217.1" height="48.5"/>
    <path class="cls-4" d="M474.2,535.7h-218.1v-49.5h218.1v49.5ZM257.2,534.7h216.1v-47.5h-216.1v47.5Z"/>
  </g>
  <g class="cls-12">
    <g class="cls-12">
      <path class="cls-6" d="M332.5,505.2v1.8h-2.3v6.5c0,.5,0,.8.3,1,.2.2.5.3,1,.3s.3,0,.5,0,.4,0,.5,0l.4,1.8c-.2,0-.5.1-.8.2-.3,0-.5,0-.8,0-1,0-1.8-.3-2.4-.8s-.9-1.3-.9-2.3v-6.7h-1.7v-1.8h1.7v-2.7h2.3v2.7h2.3Z"/>
    </g>
    <g class="cls-12">
      <path class="cls-6" d="M340.3,516.9c-1.1,0-2.1-.2-2.9-.7-.8-.5-1.5-1.2-1.9-2.1s-.7-1.9-.7-3.1.2-2.2.7-3.1c.4-.9,1-1.6,1.8-2.1s1.7-.8,2.8-.8,1.7.2,2.5.6c.8.4,1.4,1,1.9,1.8.5.8.7,2,.7,3.3v.8h-8.1c0,1.1.4,2,.9,2.5.6.6,1.3.9,2.3.9s1.2-.1,1.6-.4c.5-.3.8-.7,1-1.2l2.1.5c-.3.9-.8,1.6-1.7,2.2s-1.9.8-3.1.8ZM337.1,510h5.9c0-.9-.4-1.6-.8-2.2-.5-.6-1.2-.8-2-.8s-1.6.3-2.1.9c-.5.6-.8,1.3-.9,2.1Z"/>
      <path class="cls-6" d="M349.9,509.9v6.8h-2.3v-11.5h2.2v2.2c.4-.8.8-1.4,1.4-1.8.6-.4,1.3-.6,2.1-.6,1.2,0,2.1.4,2.8,1.1.7.7,1.1,1.8,1.1,3.2v7.3h-2.3v-7c0-.8-.2-1.5-.6-1.9s-1-.7-1.8-.7-1.4.2-1.9.7-.8,1.2-.8,2.1Z"/>
      <path class="cls-6" d="M363.5,516.9c-.7,0-1.4-.1-2-.4-.6-.3-1-.7-1.4-1.2s-.5-1.2-.5-1.9.1-1.2.4-1.6c.3-.4.6-.8,1-1,.4-.2.9-.4,1.4-.5.5-.1,1.1-.2,1.6-.3,1-.1,1.7-.2,2.2-.3s.7-.3.7-.7h0c0-.7-.2-1.2-.6-1.5-.4-.4-.9-.5-1.6-.5s-1.3.2-1.8.5-.7.7-.9,1.1l-2.1-.6c.3-.7.6-1.2,1.1-1.7.5-.4,1-.7,1.7-.9.6-.2,1.3-.3,2-.3s.9,0,1.5.2,1,.3,1.5.6.8.7,1.1,1.2c.3.5.4,1.2.4,2v7.6h-2.2v-1.6h-.1c-.2.5-.6.9-1.2,1.2-.6.4-1.3.6-2.2.6ZM364,515.1c.6,0,1.1-.1,1.6-.4s.8-.6,1-.9c.2-.4.4-.8.4-1.3v-1.5c-.1.1-.3.2-.7.3-.4,0-.7.1-1.1.2-.4,0-.7,0-.9.1-.6,0-1.2.3-1.6.5-.5.3-.7.7-.7,1.3s.2,1,.6,1.2c.4.3.9.4,1.6.4Z"/>
      <path class="cls-6" d="M374.5,509.9v6.8h-2.3v-11.5h2.2v2.2c.4-.8.8-1.4,1.4-1.8.6-.4,1.3-.6,2.1-.6,1.2,0,2.1.4,2.8,1.1.7.7,1.1,1.8,1.1,3.2v7.3h-2.3v-7c0-.8-.2-1.5-.6-1.9s-1-.7-1.8-.7-1.4.2-1.9.7-.8,1.2-.8,2.1Z"/>
    </g>
    <g class="cls-12">
      <path class="cls-6" d="M389.6,505.2v1.8h-2.3v6.5c0,.5,0,.8.3,1,.2.2.5.3,1,.3s.3,0,.5,0,.4,0,.5,0l.4,1.8c-.2,0-.5.1-.8.2-.3,0-.5,0-.8,0-1,0-1.8-.3-2.4-.8s-.9-1.3-.9-2.3v-6.7h-1.7v-1.8h1.7v-2.7h2.3v2.7h2.3Z"/>
    </g>
    <g class="cls-12">
      <path class="cls-6" d="M398.8,509.3v2h-6.8v-2h6.8Z"/>
    </g>
    <g class="cls-12">
      <path class="cls-6" d="M401.2,516.7v-1.7l5.2-5.4c.8-.8,1.4-1.5,1.8-2.1.4-.6.6-1.2.6-1.9s-.3-1.4-.8-1.8-1.2-.7-1.9-.7-1.5.2-1.9.7-.7,1.1-.7,2h-2.2c0-.9.2-1.7.6-2.4s1-1.2,1.8-1.6c.7-.4,1.6-.6,2.5-.6s1.8.2,2.6.6c.7.4,1.3.9,1.7,1.6s.6,1.4.6,2.2-.1,1.1-.3,1.6-.6,1.1-1.1,1.8c-.5.7-1.3,1.5-2.2,2.4l-3,3.1h0c0,.1,6.8.1,6.8.1v2h-10.1Z"/>
    </g>
  </g>
  <g>
    <rect class="cls-10" x="555.1" y="467.9" width="291.4" height="291.4" rx="12" ry="12"/>
    <path class="cls-6" d="M831.1,758.8v1-1ZM827.1,758.8v1-1ZM823.1,758.8v1-1ZM819.1,758.8v1-1ZM815.1,758.8v1-1ZM811.1,758.8v1-1ZM807.1,758.8v1-1ZM803.1,758.8v1-1ZM799.1,758.8v1-1ZM795.1,758.8v1-1ZM791.1,758.8v1-1ZM787.1,758.8v1-1ZM783.1,758.8v1-1ZM779.1,758.8v1-1ZM775.1,758.8v1-1ZM771.1,758.8v1-1ZM767.1,758.8v1-1ZM763.1,758.8v1-1ZM759.1,758.8v1-1ZM755.1,758.8v1-1ZM751.1,758.8v1-1ZM747.1,758.8v1-1ZM743.1,758.8v1-1ZM739.1,758.8v1-1ZM735.1,758.8v1-1ZM731.1,758.8v1-1ZM727.1,758.8v1-1ZM723.1,758.8v1-1ZM719.1,758.8v1-1ZM715.1,758.8v1-1ZM711.1,758.8v1-1ZM707.1,758.8v1-1ZM703.1,758.8v1-1ZM699.1,758.8v1-1ZM695.1,758.8v1-1ZM691.1,758.8v1-1ZM687.1,758.8v1-1ZM683.1,758.8v1-1ZM679.1,758.8v1-1ZM675.1,758.8v1-1ZM671.1,758.8v1-1ZM667.1,758.8v1-1ZM663.1,758.8v1-1ZM659.1,758.8v1-1ZM655.1,758.8v1-1ZM651.1,758.8v1-1ZM647.1,758.8v1-1ZM643.1,758.8v1-1ZM639.1,758.8v1-1ZM635.1,758.8v1-1ZM631.1,758.8v1-1ZM627.1,758.8v1-1ZM623.1,758.8v1-1ZM619.1,758.8v1-1ZM615.1,758.8v1-1ZM611.1,758.8v1-1ZM607.1,758.8v1-1ZM603.1,758.8v1-1ZM599.1,758.8v1-1ZM595.1,758.8v1-1ZM591.1,758.8v1-1ZM587.1,758.8v1-1ZM583.1,758.8v1-1ZM579.1,758.8v1-1ZM575.1,758.8v1-1ZM571.1,758.8v1-1ZM567.1,758.8v1-1ZM835,758.8v1h0v-1ZM563.3,758.2l-.3.9.3-.9ZM839.1,758.9l-.4-.9.4.9h0ZM559.3,757.2l.2-.2-.2.2h0ZM560,756.4h0l-.4.5.4-.5ZM842.2,756.3l.4.5h0l-.4-.5ZM842,756h0l.2.3-.2-.3ZM556.5,754.1l.8-.5-.8.5h0ZM844.5,753.1h0l.9.5-.9-.5ZM554.9,750.3l1-.2h0l-1,.2h0ZM845.8,749.5l1,.2-1-.2ZM554.6,746.2h1-1ZM846,745.6h1-1ZM554.6,742.2h1-1ZM846,741.6h1-1ZM554.6,738.2h1-1ZM846,737.6h1-1ZM554.6,734.2h1-1ZM846,733.6h1-1ZM554.6,730.2h1-1ZM846,729.6h1-1ZM554.6,726.2h1-1ZM846,725.6h1-1ZM554.6,722.2h1-1ZM846,721.6h1-1ZM554.6,718.2h1-1ZM846,717.6h1-1ZM554.6,714.2h1-1ZM846,713.6h1-1ZM554.6,710.2h1-1ZM846,709.6h1-1ZM554.6,706.2h1-1ZM846,705.6h1-1ZM554.6,702.2h1-1ZM846,701.6h1-1ZM554.6,698.2h1-1ZM846,697.6h1-1ZM554.6,694.2h1-1ZM846,693.6h1-1ZM554.6,690.2h1-1ZM846,689.6h1-1ZM554.6,686.2h1-1ZM846,685.6h1-1ZM554.6,682.2h1-1ZM846,681.6h1-1ZM554.6,678.2h1-1ZM846,677.6h1-1ZM554.6,674.2h1-1ZM846,673.6h1-1ZM554.6,670.2h1-1ZM846,669.6h1-1ZM554.6,666.2h1-1ZM846,665.6h1-1ZM554.6,662.2h1-1ZM846,661.6h1-1ZM554.6,658.2h1-1ZM846,657.6h1-1ZM554.6,654.2h1-1ZM846,653.6h1-1ZM554.6,650.2h1-1ZM846,649.6h1-1ZM554.6,646.2h1-1ZM846,645.6h1-1ZM554.6,642.2h1-1ZM846,641.6h1-1ZM554.6,638.2h1-1ZM846,637.6h1-1ZM554.6,634.2h1-1ZM846,633.6h1-1ZM554.6,630.2h1-1ZM846,629.6h1-1ZM554.6,626.2h1-1ZM846,625.6h1-1ZM554.6,622.2h1-1ZM846,621.6h1-1ZM554.6,618.2h1-1ZM846,617.6h1-1ZM554.6,614.2h1-1ZM846,613.6h1-1ZM554.6,610.2h1-1ZM846,609.6h1-1ZM554.6,606.2h1-1ZM846,605.6h1-1ZM554.6,602.2h1-1ZM846,601.6h1-1ZM554.6,598.2h1-1ZM846,597.6h1-1ZM554.6,594.2h1-1ZM846,593.6h1-1ZM554.6,590.2h1-1ZM846,589.6h1-1ZM554.6,586.2h1-1ZM846,585.6h1-1ZM554.6,582.2h1-1ZM846,581.6h1-1ZM554.6,578.2h1-1ZM846,577.6h1-1ZM554.6,574.2h1-1ZM846,573.6h1-1ZM554.6,570.2h1-1ZM846,569.6h1-1ZM554.6,566.2h1-1ZM846,565.6h1-1ZM554.6,562.2h1-1ZM846,561.6h1-1ZM554.6,558.2h1-1ZM846,557.6h1-1ZM554.6,554.2h1-1ZM846,553.6h1-1ZM554.6,550.2h1-1ZM846,549.6h1-1ZM554.6,546.2h1-1ZM846,545.6h1-1ZM554.6,542.2h1-1ZM846,541.6h1-1ZM554.6,538.2h1-1ZM846,537.6h1-1ZM554.6,534.2h1-1ZM846,533.6h1-1ZM554.6,530.2h1-1ZM846,529.6h1-1ZM554.6,526.2h1-1ZM846,525.6h1-1ZM554.6,522.2h1-1ZM846,521.6h1-1ZM554.6,518.2h1-1ZM846,517.6h1-1ZM554.6,514.2h1-1ZM846,513.6h1-1ZM554.6,510.2h1-1ZM846,509.6h1-1ZM554.6,506.2h1-1ZM846,505.6h1-1ZM554.6,502.2h1-1ZM846,501.6h1-1ZM554.6,498.2h1-1ZM846,497.6h1-1ZM554.6,494.2h1-1ZM846,493.6h1-1ZM554.6,490.2h1-1ZM846,489.6h1-1ZM554.6,486.2h1-1ZM846,485.6h1-1ZM554.6,482.2h1-1ZM846,481.6h1-1ZM554.7,478.1l1,.2-1-.2ZM846.8,477.5l-1,.2,1-.2ZM556,474.2l.9.5-.9-.5ZM845.3,473.6l-.9.5.9-.5ZM558.4,470.9h0l.7.7-.7-.7ZM842,471.2l.6-.7-.6.7ZM842.7,470.5h0,0c0,0,0,0,0,0ZM561.9,468.5l.4.9-.4-.9ZM838.8,469.2v-.3c.1,0,0,.3,0,.3ZM839.1,468.3h0l-.3.7.3-.7ZM565.9,468v.5c0-.5,0,0,0-.5ZM835,468.4h0s0,0,0,0ZM831.1,467.4v1-1ZM827.1,467.4v1-1ZM823.1,467.4v1-1ZM819.1,467.4v1-1ZM815.1,467.4v1-1ZM811.1,467.4v1-1ZM807.1,467.4v1-1ZM803.1,467.4v1-1ZM799.1,467.4v1-1ZM795.1,467.4v1-1ZM791.1,467.4v1-1ZM787.1,467.4v1-1ZM783.1,467.4v1-1ZM779.1,467.4v1-1ZM775.1,467.4v1-1ZM771.1,467.4v1-1ZM767.1,467.4v1-1ZM763.1,467.4v1-1ZM759.1,467.4v1-1ZM755.1,467.4v1-1ZM751.1,467.4v1-1ZM747.1,467.4v1-1ZM743.1,467.4v1-1ZM739.1,467.4v1-1ZM735.1,467.4v1-1ZM731.1,467.4v1-1ZM727.1,467.4v1-1ZM723.1,467.4v1-1ZM719.1,467.4v1-1ZM715.1,467.4v1-1ZM711.1,467.4v1-1ZM707.1,467.4v1-1ZM703.1,467.4v1-1ZM699.1,467.4v1-1ZM695.1,467.4v1-1ZM691.1,467.4v1-1ZM687.1,467.4v1-1ZM683.1,467.4v1-1ZM679.1,467.4v1-1ZM675.1,467.4v1-1ZM671.1,467.4v1-1ZM667.1,467.4v1-1ZM663.1,467.4v1-1ZM659.1,467.4v1-1ZM655.1,467.4v1-1ZM651.1,467.4v1-1ZM647.1,467.4v1-1ZM643.1,467.4v1-1ZM639.1,467.4v1-1ZM635.1,467.4v1-1ZM631.1,467.4v1-1ZM627.1,467.4v1-1ZM623.1,467.4v1-1ZM619.1,467.4v1-1ZM615.1,467.4v1-1ZM611.1,467.4v1-1ZM607.1,467.4v1-1ZM603.1,467.4v1-1ZM599.1,467.4v1-1ZM595.1,467.4v1-1ZM591.1,467.4v1-1ZM587.1,467.4v1-1ZM583.1,467.4v1-1ZM579.1,467.4v1-1ZM575.1,467.4v1-1ZM571.1,467.4v1-1ZM567.1,467.4v1-1ZM835.1,467.4h0v1c0-1,0,0,0-1ZM565.9,467.5h0v.5c0-.5,0,0,0-.5Z"/>
  </g>
  <rect class="cls-3" x="578.8" y="689" width="238.3" height="43"/>
  <g class="cls-12">
    <g class="cls-12">
      <path class="cls-6" d="M590.6,716.7v-11.5h1.8v2.1c.3-.8.7-1.4,1.3-1.7s1.2-.6,1.9-.6,1.4.2,1.9.6c.5.4.8,1,1.1,1.7.3-.7.7-1.3,1.4-1.7.7-.4,1.4-.6,2.2-.6s1.3.1,1.8.4,1,.7,1.3,1.3c.3.6.5,1.3.5,2.2v7.7h-1.9v-7.7c0-.8-.2-1.4-.7-1.8-.5-.4-1-.5-1.6-.5s-1.4.2-1.8.7c-.4.5-.7,1.1-.7,1.8v7.5h-1.8v-7.9c0-.6-.2-1.1-.6-1.5-.4-.4-1-.6-1.6-.6s-1.3.2-1.8.7-.8,1.2-.8,2.1v7.2h-1.8Z"/>
      <path class="cls-6" d="M610,703.3c-.3,0-.6-.1-.9-.4-.3-.2-.4-.5-.4-.9s.1-.6.4-.9.6-.4.9-.4.7.1.9.4c.3.2.4.5.4.9s-.1.6-.4.9c-.3.2-.6.4-.9.4ZM609,716.7v-11.5h1.8v11.5h-1.8Z"/>
      <path class="cls-6" d="M616,709.8v6.9h-1.8v-11.5h1.8v2.1c.4-.8.9-1.4,1.5-1.7.6-.3,1.3-.5,2.1-.5,1.2,0,2.1.4,2.8,1.1.7.7,1.1,1.8,1.1,3.2v7.3h-1.8v-7.1c0-.9-.2-1.6-.7-2.1-.5-.5-1.1-.8-1.9-.8s-1.5.3-2.1.8c-.6.5-.8,1.3-.8,2.3Z"/>
      <path class="cls-6" d="M627.5,703.3c-.3,0-.6-.1-.9-.4-.3-.2-.4-.5-.4-.9s.1-.6.4-.9.6-.4.9-.4.7.1.9.4c.3.2.4.5.4.9s-.1.6-.4.9c-.3.2-.6.4-.9.4ZM626.5,716.7v-11.5h1.8v11.5h-1.8Z"/>
      <path class="cls-6" d="M636.3,716.9c-1,0-2-.2-2.7-.7-.8-.5-1.4-1.2-1.8-2.1s-.7-1.9-.7-3.1.2-2.2.7-3.1,1-1.6,1.8-2.1c.8-.5,1.7-.7,2.7-.7s2,.2,2.7.7,1.4,1.2,1.8,2.1.7,1.9.7,3.1-.2,2.2-.7,3.1-1,1.6-1.8,2.1-1.7.7-2.7.7ZM636.3,715.2c.8,0,1.4-.2,1.9-.6s.9-.9,1.1-1.6c.2-.6.4-1.3.4-2.1s-.1-1.5-.4-2.1c-.2-.7-.6-1.2-1.1-1.6s-1.1-.6-1.9-.6-1.4.2-1.9.6-.9.9-1.1,1.6c-.2.7-.4,1.4-.4,2.1s.1,1.5.4,2.1c.2.6.6,1.2,1.1,1.6s1.1.6,1.9.6Z"/>
      <path class="cls-6" d="M650.8,709.3v1.7h-6.7v-1.7h6.7Z"/>
      <path class="cls-6" d="M658.5,716.9c-1,0-2-.2-2.7-.7-.8-.5-1.4-1.2-1.8-2.1s-.7-1.9-.7-3.1.2-2.2.7-3.1,1-1.6,1.8-2.1c.8-.5,1.7-.7,2.7-.7s2,.2,2.7.7,1.4,1.2,1.8,2.1.7,1.9.7,3.1-.2,2.2-.7,3.1-1,1.6-1.8,2.1-1.7.7-2.7.7ZM658.5,715.2c.8,0,1.4-.2,1.9-.6s.9-.9,1.1-1.6c.2-.6.4-1.3.4-2.1s-.1-1.5-.4-2.1c-.2-.7-.6-1.2-1.1-1.6s-1.1-.6-1.9-.6-1.4.2-1.9.6-.9.9-1.1,1.6c-.2.7-.4,1.4-.4,2.1s.1,1.5.4,2.1c.2.6.6,1.2,1.1,1.6s1.1.6,1.9.6Z"/>
      <path class="cls-6" d="M666.5,720.9v-15.8h1.8v1.8h.2c.1-.2.3-.5.5-.8.2-.3.6-.6,1-.8s1-.4,1.8-.4,1.8.2,2.5.7,1.3,1.2,1.7,2c.4.9.6,1.9.6,3.1s-.2,2.3-.6,3.2-1,1.6-1.7,2.1-1.6.7-2.5.7-1.3-.1-1.8-.4c-.4-.2-.8-.5-1-.9-.2-.3-.4-.6-.6-.8h-.1v6.1h-1.8ZM671.5,715.2c.7,0,1.3-.2,1.8-.6.5-.4.8-.9,1.1-1.6s.4-1.4.4-2.2-.1-1.5-.4-2.1c-.2-.6-.6-1.1-1.1-1.5-.5-.4-1.1-.6-1.8-.6-1.1,0-1.9.4-2.4,1.2s-.8,1.8-.8,3.1.3,2.3.8,3.1c.6.8,1.3,1.2,2.4,1.2Z"/>
      <path class="cls-6" d="M684.1,716.9c-1.1,0-2.1-.2-2.9-.7-.8-.5-1.4-1.2-1.9-2.1-.4-.9-.7-1.9-.7-3.1s.2-2.2.6-3.1c.4-.9,1-1.6,1.8-2.1s1.7-.8,2.7-.8,1.2,0,1.8.3c.6.2,1.1.5,1.6,1,.5.4.9,1,1.2,1.8.3.7.4,1.6.4,2.7v.8h-8.3c0,1.2.4,2.1,1,2.8.6.6,1.5,1,2.5,1s1.3-.1,1.7-.4c.5-.3.8-.7,1.1-1.3l1.8.5c-.3.9-.8,1.6-1.6,2.1-.8.5-1.8.8-3,.8ZM680.6,710h6.4c0-1-.4-1.8-.9-2.4-.5-.6-1.3-.9-2.2-.9s-1.2.2-1.7.5c-.5.3-.8.7-1.1,1.2-.3.5-.4,1-.5,1.6Z"/>
      <path class="cls-6" d="M691.6,716.7v-11.5h1.8v1.8h.1c.2-.6.6-1,1.1-1.4.5-.4,1.2-.5,1.8-.5s.3,0,.5,0c.2,0,.3,0,.4,0v1.9c0,0-.2,0-.4,0s-.5,0-.7,0c-.8,0-1.5.2-2.1.8-.5.5-.8,1.1-.8,1.9v7.2h-1.8Z"/>
      <path class="cls-6" d="M702.7,716.9c-.7,0-1.4-.1-2-.4s-1.1-.7-1.4-1.2c-.3-.5-.5-1.2-.5-1.9s.1-1.2.4-1.6.6-.7,1-1c.4-.2.9-.4,1.4-.5.5-.1,1.1-.2,1.6-.3.7,0,1.2-.2,1.7-.2.4,0,.8-.1,1-.2.2-.1.3-.3.3-.6h0c0-.8-.2-1.3-.6-1.7-.4-.4-1-.6-1.8-.6s-1.5.2-1.9.5-.8.7-1,1.1l-1.8-.6c.3-.7.7-1.2,1.2-1.6.5-.4,1-.7,1.7-.8s1.2-.2,1.8-.2.8,0,1.3.1c.5,0,1,.3,1.4.5s.8.7,1.1,1.2c.3.5.4,1.3.4,2.1v7.6h-1.8v-1.6h-.1c-.1.3-.3.5-.6.8-.3.3-.7.5-1.1.7-.5.2-1,.3-1.7.3ZM703,715.3c.7,0,1.3-.1,1.7-.4.5-.3.8-.6,1.1-1s.4-.9.4-1.3v-1.6c0,0-.2.2-.5.2-.3,0-.5.1-.9.2-.3,0-.6,0-.9.1-.3,0-.5,0-.7,0-.4,0-.9.1-1.2.3-.4.1-.7.3-.9.6-.2.3-.3.6-.3,1s.2,1,.7,1.3,1,.5,1.7.5Z"/>
    </g>
    <g class="cls-12">
      <path class="cls-6" d="M715.1,705.2v1.6h-2.4v6.9c0,.5.1.9.3,1.1.2.2.6.4,1,.4s.3,0,.4,0c.2,0,.3,0,.5,0l.4,1.6c-.2,0-.4.1-.7.2-.2,0-.5,0-.7,0-1,0-1.8-.3-2.3-.8-.6-.5-.8-1.3-.8-2.2v-7.1h-1.7v-1.6h1.7v-2.7h1.8v2.7h2.4Z"/>
    </g>
    <g class="cls-12">
      <path class="cls-6" d="M722.7,716.9c-1,0-2-.2-2.7-.7-.8-.5-1.4-1.2-1.8-2.1s-.7-1.9-.7-3.1.2-2.2.7-3.1,1-1.6,1.8-2.1c.8-.5,1.7-.7,2.7-.7s2,.2,2.7.7,1.4,1.2,1.8,2.1.7,1.9.7,3.1-.2,2.2-.7,3.1-1,1.6-1.8,2.1-1.7.7-2.7.7ZM722.7,715.2c.8,0,1.4-.2,1.9-.6s.9-.9,1.1-1.6c.2-.6.4-1.3.4-2.1s-.1-1.5-.4-2.1c-.2-.7-.6-1.2-1.1-1.6s-1.1-.6-1.9-.6-1.4.2-1.9.6-.9.9-1.1,1.6c-.2.7-.4,1.4-.4,2.1s.1,1.5.4,2.1c.2.6.6,1.2,1.1,1.6s1.1.6,1.9.6Z"/>
      <path class="cls-6" d="M730.7,716.7v-11.5h1.8v1.8h.1c.2-.6.6-1,1.1-1.4.5-.4,1.2-.5,1.8-.5s.3,0,.5,0c.2,0,.3,0,.4,0v1.9c0,0-.2,0-.4,0s-.5,0-.7,0c-.8,0-1.5.2-2.1.8-.5.5-.8,1.1-.8,1.9v7.2h-1.8Z"/>
      <path class="cls-6" d="M740,708.5c-.4,0-.7-.1-1-.4-.3-.3-.4-.6-.4-1s.1-.7.4-1c.3-.3.6-.4,1-.4s.7.1,1,.4c.3.3.4.6.4,1s-.1.7-.4,1c-.3.3-.6.4-1,.4ZM740,716.8c-.4,0-.7-.1-1-.4-.3-.3-.4-.6-.4-1s.1-.7.4-1c.3-.3.6-.4,1-.4s.7.1,1,.4c.3.3.4.6.4,1s-.1.7-.4,1c-.3.3-.6.4-1,.4Z"/>
      <path class="cls-6" d="M751.5,703.3c-.3,0-.6-.1-.9-.4-.3-.2-.4-.5-.4-.9s.1-.6.4-.9.6-.4.9-.4.7.1.9.4.4.5.4.9-.1.6-.4.9c-.3.2-.6.4-.9.4ZM750.5,716.7v-11.5h1.8v11.5h-1.8Z"/>
      <path class="cls-6" d="M759.5,716.9c-1.2,0-2.2-.3-2.9-.8-.8-.5-1.3-1.3-1.5-2.3l1.8-.4c.2.6.5,1.1.9,1.4.5.3,1,.4,1.7.4s1.4-.2,1.9-.5c.5-.3.7-.7.7-1.2,0-.8-.6-1.3-1.7-1.6l-1.9-.5c-2.1-.5-3.1-1.5-3.1-3.1s.2-1.2.6-1.7c.4-.5.9-.9,1.5-1.2.6-.3,1.4-.4,2.2-.4,1.2,0,2.1.3,2.8.8.7.5,1.1,1.2,1.4,2l-1.7.4c-.2-.4-.4-.8-.8-1.1-.4-.3-.9-.5-1.7-.5s-1.3.2-1.7.5c-.5.3-.7.7-.7,1.2s.2.8.5,1,.8.5,1.5.6l1.7.4c1,.2,1.8.6,2.3,1.1s.7,1.2.7,2-.2,1.3-.6,1.8c-.4.5-.9.9-1.6,1.2-.7.3-1.5.5-2.4.5Z"/>
      <path class="cls-6" d="M770.6,716.9c-1.2,0-2.2-.3-2.9-.8-.8-.5-1.3-1.3-1.5-2.3l1.8-.4c.2.6.5,1.1.9,1.4.5.3,1,.4,1.7.4s1.4-.2,1.9-.5c.5-.3.7-.7.7-1.2,0-.8-.6-1.3-1.7-1.6l-1.9-.5c-2.1-.5-3.1-1.5-3.1-3.1s.2-1.2.6-1.7c.4-.5.9-.9,1.5-1.2.6-.3,1.4-.4,2.2-.4,1.2,0,2.1.3,2.8.8.7.5,1.1,1.2,1.4,2l-1.7.4c-.2-.4-.4-.8-.8-1.1-.4-.3-.9-.5-1.7-.5s-1.3.2-1.7.5c-.5.3-.7.7-.7,1.2s.2.8.5,1,.8.5,1.5.6l1.7.4c1,.2,1.8.6,2.3,1.1s.7,1.2.7,2-.2,1.3-.6,1.8c-.4.5-.9.9-1.6,1.2-.7.3-1.5.5-2.4.5Z"/>
      <path class="cls-6" d="M781.7,716.8c-1.2,0-2.1-.4-2.8-1.1-.7-.7-1.1-1.8-1.1-3.2v-7.3h1.8v7.1c0,.9.2,1.6.7,2.1.5.5,1.1.7,1.9.7s1.5-.3,2.1-.8c.5-.5.8-1.3.8-2.3v-6.9h1.9v11.5h-1.8v-2.1c-.4.8-.9,1.4-1.5,1.8-.6.3-1.3.5-2,.5Z"/>
      <path class="cls-6" d="M795,716.9c-1.1,0-2.1-.2-2.9-.7-.8-.5-1.4-1.2-1.9-2.1-.4-.9-.7-1.9-.7-3.1s.2-2.2.6-3.1c.4-.9,1-1.6,1.8-2.1.8-.5,1.7-.8,2.7-.8s1.2,0,1.8.3c.6.2,1.1.5,1.6,1,.5.4.9,1,1.2,1.8.3.7.4,1.6.4,2.7v.8h-8.3c0,1.2.4,2.1,1,2.8.6.6,1.5,1,2.5,1s1.3-.1,1.7-.4c.5-.3.8-.7,1.1-1.3l1.8.5c-.3.9-.8,1.6-1.6,2.1-.8.5-1.8.8-3,.8ZM791.5,710h6.4c0-1-.4-1.8-.9-2.4-.5-.6-1.3-.9-2.2-.9s-1.2.2-1.7.5c-.5.3-.8.7-1.1,1.2-.3.5-.4,1-.5,1.6Z"/>
      <path class="cls-6" d="M802.4,716.7v-11.5h1.8v1.8h.1c.2-.6.6-1,1.1-1.4.5-.4,1.2-.5,1.8-.5s.3,0,.5,0c.2,0,.3,0,.4,0v1.9c0,0-.2,0-.4,0s-.5,0-.7,0c-.8,0-1.5.2-2.1.8-.5.5-.8,1.1-.8,1.9v7.2h-1.8Z"/>
    </g>
  </g>
  <g>
    <rect class="cls-10" x="588.4" y="486.7" width="217.1" height="48.5"/>
    <path class="cls-4" d="M806,535.7h-218.1v-49.5h218.1v49.5ZM588.9,534.7h216.1v-47.5h-216.1v47.5Z"/>
  </g>
  <g class="cls-12">
    <g class="cls-12">
      <path class="cls-6" d="M636.1,516.9c-1.1,0-2-.2-2.8-.7s-1.4-1.2-1.9-2.1-.7-1.9-.7-3.1.2-2.2.7-3.1c.4-.9,1.1-1.6,1.9-2.1s1.7-.7,2.8-.7,2.2.3,3.1.9c.9.6,1.4,1.4,1.7,2.5l-2.1.5c-.2-.6-.5-1.1-.9-1.4-.5-.4-1-.5-1.7-.5s-1.3.2-1.7.5c-.5.4-.8.8-1,1.5-.2.6-.3,1.3-.3,2s.1,1.4.3,2c.2.6.6,1.1,1,1.5.5.4,1,.5,1.7.5s1.3-.2,1.8-.6.8-.9.9-1.5l2.1.5c-.3,1.1-.9,1.9-1.7,2.5s-1.9.9-3.1.9Z"/>
      <path class="cls-6" d="M648.4,516.9c-1.1,0-2.1-.2-2.9-.7-.8-.5-1.5-1.2-1.9-2.1-.4-.9-.7-1.9-.7-3.1s.2-2.2.7-3.1c.4-.9,1-1.6,1.8-2.1s1.7-.8,2.8-.8,1.7.2,2.5.6c.8.4,1.4,1,1.9,1.8.5.8.7,2,.7,3.3v.8h-8.1c0,1.1.4,2,.9,2.5.6.6,1.4.9,2.3.9s1.2-.1,1.6-.4c.5-.3.8-.7,1-1.2l2.1.5c-.3.9-.8,1.6-1.7,2.2s-1.9.8-3.1.8ZM645.2,510h5.9c0-.9-.4-1.6-.8-2.2-.5-.6-1.2-.8-2-.8s-1.6.3-2.1.9c-.5.6-.8,1.3-.9,2.1Z"/>
    </g>
    <g class="cls-12">
      <path class="cls-6" d="M655.6,516.7v-11.5h2.2v1.8h.1c.2-.6.6-1.1,1.1-1.5.5-.4,1.1-.5,1.8-.5s.3,0,.5,0c.2,0,.3,0,.5,0v2.2c0,0-.2,0-.5,0-.2,0-.5,0-.7,0-.8,0-1.4.2-2,.7-.5.5-.8,1.1-.8,1.8v7h-2.3Z"/>
    </g>
    <g class="cls-12">
      <path class="cls-6" d="M669.2,505.2v1.8h-2.3v6.5c0,.5,0,.8.3,1s.5.3,1,.3.3,0,.5,0c.2,0,.3,0,.5,0l.4,1.8c-.2,0-.5.1-.8.2-.3,0-.5,0-.8,0-1,0-1.8-.3-2.4-.8s-.9-1.3-.9-2.3v-6.7h-1.7v-1.8h1.7v-2.7h2.3v2.7h2.3Z"/>
    </g>
    <g class="cls-12">
      <path class="cls-6" d="M678.5,509.3v2h-6.8v-2h6.8Z"/>
      <path class="cls-6" d="M681.4,516.7v-11.5h2.1v2.1c.3-.8.8-1.4,1.4-1.8s1.2-.6,1.9-.6,1.4.2,1.9.6c.5.4.9,1,1.1,1.8.3-.8.8-1.4,1.4-1.8.7-.4,1.4-.6,2.2-.6s1.3.1,1.8.4c.5.3,1,.7,1.3,1.3.3.6.5,1.3.5,2.2v7.7h-2.3v-7.5c0-.8-.2-1.3-.6-1.7s-.9-.5-1.5-.5-1.3.2-1.7.7c-.4.4-.6,1-.6,1.7v7.3h-2.2v-7.6c0-.6-.2-1.1-.6-1.5-.4-.4-.9-.6-1.5-.6s-1.2.2-1.6.7c-.5.4-.7,1.1-.7,1.9v7.1h-2.3Z"/>
      <path class="cls-6" d="M703.3,516.9c-.7,0-1.4-.1-2-.4-.6-.3-1-.7-1.4-1.2s-.5-1.2-.5-1.9.1-1.2.4-1.6c.3-.4.6-.8,1-1,.4-.2.9-.4,1.4-.5.5-.1,1.1-.2,1.6-.3,1-.1,1.7-.2,2.2-.3s.7-.3.7-.7h0c0-.7-.2-1.2-.6-1.5-.4-.4-.9-.5-1.6-.5s-1.3.2-1.8.5-.7.7-.9,1.1l-2.1-.6c.3-.7.6-1.2,1.1-1.7.5-.4,1-.7,1.7-.9.6-.2,1.3-.3,2-.3s.9,0,1.5.2,1,.3,1.5.6.8.7,1.1,1.2c.3.5.4,1.2.4,2v7.6h-2.2v-1.6h-.1c-.2.5-.6.9-1.2,1.2-.6.4-1.3.6-2.2.6ZM703.8,515.1c.6,0,1.1-.1,1.6-.4s.8-.6,1-.9c.2-.4.4-.8.4-1.3v-1.5c-.1.1-.3.2-.7.3-.4,0-.7.1-1.1.2-.4,0-.7,0-.9.1-.6,0-1.2.3-1.6.5-.5.3-.7.7-.7,1.3s.2,1,.6,1.2c.4.3.9.4,1.6.4Z"/>
      <path class="cls-6" d="M714.3,509.9v6.8h-2.3v-11.5h2.2v2.2c.4-.8.8-1.4,1.4-1.8.6-.4,1.3-.6,2.1-.6,1.2,0,2.1.4,2.8,1.1.7.7,1.1,1.8,1.1,3.2v7.3h-2.3v-7c0-.8-.2-1.5-.6-1.9s-1-.7-1.8-.7-1.4.2-1.9.7-.8,1.2-.8,2.1Z"/>
      <path class="cls-6" d="M727.9,516.9c-.7,0-1.4-.1-2-.4-.6-.3-1-.7-1.4-1.2s-.5-1.2-.5-1.9.1-1.2.4-1.6c.3-.4.6-.8,1-1,.4-.2.9-.4,1.4-.5.5-.1,1.1-.2,1.6-.3,1-.1,1.7-.2,2.2-.3s.7-.3.7-.7h0c0-.7-.2-1.2-.6-1.5-.4-.4-.9-.5-1.6-.5s-1.3.2-1.8.5-.7.7-.9,1.1l-2.1-.6c.3-.7.6-1.2,1.1-1.7.5-.4,1-.7,1.7-.9.6-.2,1.3-.3,2-.3s.9,0,1.5.2,1,.3,1.5.6.8.7,1.1,1.2c.3.5.4,1.2.4,2v7.6h-2.2v-1.6h-.1c-.2.5-.6.9-1.2,1.2-.6.4-1.3.6-2.2.6ZM728.4,515.1c.6,0,1.1-.1,1.6-.4s.8-.6,1-.9c.2-.4.4-.8.4-1.3v-1.5c-.1.1-.3.2-.7.3-.4,0-.7.1-1.1.2-.4,0-.7,0-.9.1-.6,0-1.2.3-1.6.5-.5.3-.7.7-.7,1.3s.2,1,.6,1.2c.4.3.9.4,1.6.4Z"/>
      <path class="cls-6" d="M741.4,521.2c-1.3,0-2.4-.2-3.2-.7-.8-.5-1.4-1.1-1.7-1.8l1.9-.9c.1.2.3.4.5.7.2.2.5.4.9.6.4.2.9.3,1.5.3s1.6-.2,2.1-.6.8-1.1.8-1.9v-2.2h-.2c-.1.3-.3.5-.6.8-.2.3-.6.5-1,.8-.4.2-1,.3-1.7.3s-1.7-.2-2.4-.6c-.7-.4-1.3-1.1-1.7-1.9s-.6-1.9-.6-3.1.2-2.3.6-3.1c.4-.9,1-1.5,1.7-2s1.5-.7,2.5-.7,1.3.1,1.7.4c.4.2.8.5,1,.8.2.3.4.6.6.8h.2v-1.9h2.2v11.6c0,1-.2,1.8-.7,2.5s-1.1,1.1-1.9,1.4-1.7.5-2.6.5ZM741.4,514.6c1,0,1.7-.3,2.2-1,.5-.7.8-1.6.8-2.8s-.3-2.1-.8-2.8c-.5-.7-1.2-1.1-2.2-1.1s-1.2.2-1.7.5c-.4.3-.8.8-1,1.4-.2.6-.3,1.2-.3,2,0,1.1.3,2,.8,2.7.5.7,1.3,1,2.2,1Z"/>
      <path class="cls-6" d="M754.5,516.9c-1.1,0-2.1-.2-2.9-.7-.8-.5-1.5-1.2-1.9-2.1s-.7-1.9-.7-3.1.2-2.2.7-3.1c.4-.9,1-1.6,1.8-2.1s1.7-.8,2.8-.8,1.7.2,2.5.6c.8.4,1.4,1,1.9,1.8.5.8.7,2,.7,3.3v.8h-8.1c0,1.1.4,2,.9,2.5.6.6,1.4.9,2.3.9s1.2-.1,1.6-.4c.5-.3.8-.7,1-1.2l2.1.5c-.3.9-.8,1.6-1.7,2.2s-1.9.8-3.1.8ZM751.3,510h5.9c0-.9-.4-1.6-.8-2.2-.5-.6-1.2-.8-2-.8s-1.6.3-2.1.9c-.5.6-.8,1.3-.9,2.1Z"/>
      <path class="cls-6" d="M761.9,516.7v-11.5h2.2v1.8h.1c.2-.6.6-1.1,1.1-1.5.5-.4,1.1-.5,1.8-.5s.3,0,.5,0c.2,0,.3,0,.5,0v2.2c0,0-.2,0-.5,0-.2,0-.5,0-.7,0-.8,0-1.4.2-2,.7-.5.5-.8,1.1-.8,1.8v7h-2.3Z"/>
    </g>
  </g>
  <g>
    <rect class="cls-10" x="398.2" y="138.6" width="291.4" height="291.4" rx="12" ry="12"/>
    <path class="cls-6" d="M674.2,429.5v1-1ZM670.2,429.5v1-1ZM666.2,429.5v1-1ZM662.2,429.5v1-1ZM658.2,429.5v1-1ZM654.2,429.5v1-1ZM650.2,429.5v1-1ZM646.2,429.5v1-1ZM642.2,429.5v1-1ZM638.2,429.5v1-1ZM634.2,429.5v1-1ZM630.2,429.5v1-1ZM626.2,429.5v1-1ZM622.2,429.5v1-1ZM618.2,429.5v1-1ZM614.2,429.5v1-1ZM610.2,429.5v1-1ZM606.2,429.5v1-1ZM602.2,429.5v1-1ZM598.2,429.5v1-1ZM594.2,429.5v1-1ZM590.2,429.5v1-1ZM586.2,429.5v1-1ZM582.2,429.5v1-1ZM578.2,429.5v1-1ZM574.2,429.5v1-1ZM570.2,429.5v1-1ZM566.2,429.5v1-1ZM562.2,429.5v1-1ZM558.2,429.5v1-1ZM554.2,429.5v1-1ZM550.2,429.5v1-1ZM546.2,429.5v1-1ZM542.2,429.5v1-1ZM538.2,429.5v1-1ZM534.2,429.5v1-1ZM530.2,429.5v1-1ZM526.2,429.5v1-1ZM522.2,429.5v1-1ZM518.2,429.5v1-1ZM514.2,429.5v1-1ZM510.2,429.5v1-1ZM506.2,429.5v1-1ZM502.2,429.5v1-1ZM498.2,429.5v1-1ZM494.2,429.5v1-1ZM490.2,429.5v1-1ZM486.2,429.5v1-1ZM482.2,429.5v1-1ZM478.2,429.5v1-1ZM474.2,429.5v1-1ZM470.2,429.5v1-1ZM466.2,429.5v1-1ZM462.2,429.5v1-1ZM458.2,429.5v1-1ZM454.2,429.5v1-1ZM450.2,429.5v1-1ZM446.2,429.5v1-1ZM442.2,429.5v1-1ZM438.2,429.5v1-1ZM434.2,429.5v1-1ZM430.2,429.5v1-1ZM426.2,429.5v1-1ZM422.2,429.5v1-1ZM418.2,429.5v1-1ZM414.2,429.5v1-1ZM410.2,429.5v1-1ZM678.2,429.5v1h0v-1ZM406.5,428.9h0l-.3.9.3-.9ZM682,428.7l.4.9-.4-.9ZM403.1,427l-.6.8.6-.8ZM685.2,426.7l.7.8-.7-.8ZM399.7,424.8l.9-.5-.8.5h0ZM687.6,423.7h0l.9.5h0l-.9-.5ZM399.1,420.7l-1,.2,1-.2ZM689,420.2l1,.2-1-.2ZM397.7,416.9h1-1ZM689.2,416.3h1-1ZM397.7,412.9h1-1ZM689.2,412.3h1-1ZM397.7,408.9h1-1ZM689.2,408.3h1-1ZM397.7,404.9h1-1ZM689.2,404.3h1-1ZM397.7,400.9h1-1ZM689.2,400.3h1-1ZM397.7,396.9h1-1ZM689.2,396.3h1-1ZM397.7,392.9h1-1ZM689.2,392.3h1-1ZM397.7,388.9h1-1ZM689.2,388.3h1-1ZM397.7,384.9h1-1ZM689.2,384.3h1-1ZM397.7,380.9h1-1ZM689.2,380.3h1-1ZM397.7,376.9h1-1ZM689.2,376.3h1-1ZM397.7,372.9h1-1ZM689.2,372.3h1-1ZM397.7,368.9h1-1ZM689.2,368.3h1-1ZM397.7,364.9h1-1ZM689.2,364.3h1-1ZM397.7,360.9h1-1ZM689.2,360.3h1-1ZM397.7,356.9h1-1ZM689.2,356.3h1-1ZM397.7,352.9h1-1ZM689.2,352.3h1-1ZM397.7,348.9h1-1ZM689.2,348.3h1-1ZM397.7,344.9h1-1ZM689.2,344.3h1-1ZM397.7,340.9h1-1ZM689.2,340.3h1-1ZM397.7,336.9h1-1ZM689.2,336.3h1-1ZM397.7,332.9h1-1ZM689.2,332.3h1-1ZM397.7,328.9h1-1ZM689.2,328.3h1-1ZM397.7,324.9h1-1ZM689.2,324.3h1-1ZM397.7,320.9h1-1ZM689.2,320.3h1-1ZM397.7,316.9h1-1ZM689.2,316.3h1-1ZM397.7,312.9h1-1ZM689.2,312.3h1-1ZM397.7,308.9h1-1ZM689.2,308.3h1-1ZM397.7,304.9h1-1ZM689.2,304.3h1-1ZM397.7,300.9h1-1ZM689.2,300.3h1-1ZM397.7,296.9h1-1ZM689.2,296.3h1-1ZM397.7,292.9h1-1ZM689.2,292.3h1-1ZM397.7,288.9h1-1ZM689.2,288.3h1-1ZM397.7,284.9h1-1ZM689.2,284.3h1-1ZM397.7,280.9h1-1ZM689.2,280.3h1-1ZM397.7,276.9h1-1ZM689.2,276.3h1-1ZM397.7,272.9h1-1ZM689.2,272.3h1-1ZM397.7,268.9h1-1ZM689.2,268.3h1-1ZM397.7,264.9h1-1ZM689.2,264.3h1-1ZM397.7,260.9h1-1ZM689.2,260.3h1-1ZM397.7,256.9h1-1ZM689.2,256.3h1-1ZM397.7,252.9h1-1ZM689.2,252.3h1-1ZM397.7,248.9h1-1ZM689.2,248.3h1-1ZM397.7,244.9h1-1ZM689.2,244.3h1-1ZM397.7,240.9h1-1ZM689.2,240.3h1-1ZM397.7,236.9h1-1ZM689.2,236.3h1-1ZM397.7,232.9h1-1ZM689.2,232.3h1-1ZM397.7,228.9h1-1ZM689.2,228.3h1-1ZM397.7,224.9h1-1ZM689.2,224.3h1-1ZM397.7,220.9h1-1ZM689.2,220.3h1-1ZM397.7,216.9h1-1ZM689.2,216.3h1-1ZM397.7,212.9h1-1ZM689.2,212.3h1-1ZM397.7,208.9h1-1ZM689.2,208.3h1-1ZM397.7,204.9h1-1ZM689.2,204.3h1-1ZM397.7,200.9h1-1ZM689.2,200.3h1-1ZM397.7,196.9h1-1ZM689.2,196.3h1-1ZM397.7,192.9h1-1ZM689.2,192.3h1-1ZM397.7,188.9h1-1ZM689.2,188.3h1-1ZM397.7,184.9h1-1ZM689.2,184.3h1-1ZM397.7,180.9h1-1ZM689.2,180.3h1-1ZM397.7,176.9h1-1ZM689.2,176.3h1-1ZM397.7,172.9h1-1ZM689.2,172.3h1-1ZM397.7,168.9h1-1ZM689.2,168.3h1-1ZM397.7,164.9h1-1ZM689.2,164.3h1-1ZM397.7,160.9h1-1ZM689.2,160.3h1-1ZM397.7,156.9h1-1ZM689.2,156.3h1-1ZM397.7,152.9h1-1ZM689.2,152.3h1-1ZM397.9,148.8h1c-1,0,0,.1-1,0ZM690,148.2l-1,.2,1-.2ZM399.1,144.8l.9.5-.9-.5ZM687.6,144.8l.4-.2-.4.2ZM688.5,144.3h0l-.4.2.4-.2ZM401.6,141.5l.7.7-.7-.7ZM685.2,141.9l.3-.4-.3.4h0ZM685.8,141.1h0l-.3.4c.3-.4,0,0,.3-.4ZM405,139.2l.4.9-.4-.9ZM681.9,139.9l.4-.9-.4.9ZM409,138.1v1c0-1,0,0,0-1ZM678.2,139.1v-.5s0,.5,0,.5ZM674.2,138.1v1-1ZM670.2,138.1v1-1ZM666.2,138.1v1-1ZM662.2,138.1v1-1ZM658.2,138.1v1-1ZM654.2,138.1v1-1ZM650.2,138.1v1-1ZM646.2,138.1v1-1ZM642.2,138.1v1-1ZM638.2,138.1v1-1ZM634.2,138.1v1-1ZM630.2,138.1v1-1ZM626.2,138.1v1-1ZM622.2,138.1v1-1ZM618.2,138.1v1-1ZM614.2,138.1v1-1ZM610.2,138.1v1-1ZM606.2,138.1v1-1ZM602.2,138.1v1-1ZM598.2,138.1v1-1ZM594.2,138.1v1-1ZM590.2,138.1v1-1ZM586.2,138.1v1-1ZM582.2,138.1v1-1ZM578.2,138.1v1-1ZM574.2,138.1v1-1ZM570.2,138.1v1-1ZM566.2,138.1v1-1ZM562.2,138.1v1-1ZM558.2,138.1v1-1ZM554.2,138.1v1-1ZM550.2,138.1v1-1ZM546.2,138.1v1-1ZM542.2,138.1v1-1ZM538.2,138.1v1-1ZM534.2,138.1v1-1ZM530.2,138.1v1-1ZM526.2,138.1v1-1ZM522.2,138.1v1-1ZM518.2,138.1v1-1ZM514.2,138.1v1-1ZM510.2,138.1v1-1ZM506.2,138.1v1-1ZM502.2,138.1v1-1ZM498.2,138.1v1-1ZM494.2,138.1v1-1ZM490.2,138.1v1-1ZM486.2,138.1v1-1ZM482.2,138.1v1-1ZM478.2,138.1v1-1ZM474.2,138.1v1-1ZM470.2,138.1v1-1ZM466.2,138.1v1-1ZM462.2,138.1v1-1ZM458.2,138.1v1-1ZM454.2,138.1v1-1ZM450.2,138.1v1-1ZM446.2,138.1v1-1ZM442.2,138.1v1-1ZM438.2,138.1v1-1ZM434.2,138.1v1-1ZM430.2,138.1v1-1ZM426.2,138.1v1-1ZM422.2,138.1v1-1ZM418.2,138.1v1-1ZM414.2,138.1v1-1ZM410.2,138.1v1-1ZM678.3,138.1h0v.5c0-.5,0,0,0-.5Z"/>
  </g>
  <rect class="cls-3" x="425.3" y="359.6" width="238.3" height="43"/>
  <g class="cls-12">
    <g class="cls-12">
      <path class="cls-6" d="M473.7,375.9v1.6h-2.4v6.9c0,.5.1.9.3,1.1.2.2.6.4,1,.4s.3,0,.4,0c.2,0,.3,0,.5,0l.4,1.6c-.2,0-.4.1-.7.2-.2,0-.5,0-.7,0-1,0-1.8-.3-2.3-.8-.6-.5-.8-1.3-.8-2.2v-7.1h-1.7v-1.6h1.7v-2.7h1.8v2.7h2.4Z"/>
    </g>
    <g class="cls-12">
      <path class="cls-6" d="M481.5,387.6c-1.1,0-2.1-.2-2.9-.7s-1.4-1.2-1.9-2.1c-.4-.9-.7-1.9-.7-3.1s.2-2.2.6-3.1,1-1.6,1.8-2.1c.8-.5,1.7-.8,2.7-.8s1.2.1,1.8.3c.6.2,1.1.5,1.6,1,.5.4.9,1,1.2,1.8.3.7.4,1.6.4,2.7v.8h-8.3c0,1.2.4,2.1,1,2.8.6.6,1.5,1,2.5,1s1.3-.1,1.7-.4c.5-.3.8-.7,1.1-1.3l1.8.5c-.3.9-.8,1.6-1.6,2.1-.8.5-1.8.8-3,.8ZM478.1,380.7h6.4c0-1-.4-1.8-.9-2.4-.5-.6-1.3-.9-2.2-.9s-1.2.2-1.7.5c-.5.3-.8.7-1.1,1.2s-.4,1-.5,1.6Z"/>
      <path class="cls-6" d="M490.8,380.4v6.9h-1.8v-11.5h1.8v2.1c.4-.8.9-1.4,1.5-1.7.6-.3,1.3-.5,2.1-.5,1.2,0,2.1.4,2.8,1.1.7.7,1.1,1.8,1.1,3.3v7.3h-1.8v-7.1c0-.9-.2-1.6-.7-2.1-.5-.5-1.1-.7-1.9-.7s-1.5.3-2.1.8c-.6.5-.8,1.3-.8,2.3Z"/>
      <path class="cls-6" d="M504.6,387.6c-.7,0-1.4-.1-2-.4s-1.1-.7-1.4-1.2c-.3-.5-.5-1.2-.5-1.9s.1-1.2.4-1.6.6-.7,1-1c.4-.2.9-.4,1.4-.5s1.1-.2,1.6-.3c.7,0,1.2-.2,1.7-.2.4,0,.8-.1,1-.2.2-.1.3-.3.3-.6h0c0-.8-.2-1.3-.6-1.7-.4-.4-1-.6-1.8-.6s-1.5.2-1.9.5c-.5.4-.8.7-1,1.1l-1.8-.6c.3-.7.7-1.2,1.2-1.6.5-.4,1-.7,1.7-.8s1.2-.2,1.8-.2.8,0,1.3.1c.5,0,1,.3,1.4.5s.8.7,1.1,1.2c.3.5.4,1.3.4,2.1v7.6h-1.8v-1.6h-.1c-.1.3-.3.5-.6.8-.3.3-.7.5-1.1.7s-1,.3-1.7.3ZM504.9,386c.7,0,1.3-.1,1.7-.4s.8-.6,1.1-1c.2-.4.4-.9.4-1.3v-1.6c0,0-.2.2-.5.2-.3,0-.5.1-.9.2-.3,0-.6.1-.9.1-.3,0-.5,0-.7,0-.4,0-.9.1-1.2.3-.4.1-.7.3-.9.6-.2.3-.3.6-.3,1s.2,1,.7,1.3c.4.3,1,.5,1.7.5Z"/>
      <path class="cls-6" d="M515,380.4v6.9h-1.8v-11.5h1.8v2.1c.4-.8.9-1.4,1.5-1.7.6-.3,1.3-.5,2.1-.5,1.2,0,2.1.4,2.8,1.1.7.7,1.1,1.8,1.1,3.3v7.3h-1.8v-7.1c0-.9-.2-1.6-.7-2.1-.5-.5-1.1-.7-1.9-.7s-1.5.3-2.1.8c-.6.5-.8,1.3-.8,2.3Z"/>
    </g>
    <g class="cls-12">
      <path class="cls-6" d="M529.9,375.9v1.6h-2.4v6.9c0,.5.1.9.3,1.1.2.2.6.4,1,.4s.3,0,.4,0c.2,0,.3,0,.5,0l.4,1.6c-.2,0-.4.1-.7.2-.2,0-.5,0-.7,0-1,0-1.8-.3-2.3-.8-.6-.5-.8-1.3-.8-2.2v-7.1h-1.7v-1.6h1.7v-2.7h1.8v2.7h2.4Z"/>
    </g>
    <g class="cls-12">
      <path class="cls-6" d="M539.2,379.9v1.7h-6.7v-1.7h6.7Z"/>
      <path class="cls-6" d="M547.3,372v15.3h-1.9v-13.5h-.1l-3.7,2.7v-2.1l3.3-2.5h2.4Z"/>
      <path class="cls-6" d="M552.2,379.2c-.4,0-.7-.1-1-.4-.3-.3-.4-.6-.4-1s.1-.7.4-1c.3-.3.6-.4,1-.4s.7.1,1,.4c.3.3.4.6.4,1s-.1.7-.4,1c-.3.3-.6.4-1,.4ZM552.2,387.5c-.4,0-.7-.1-1-.4s-.4-.6-.4-1,.1-.7.4-1,.6-.4,1-.4.7.1,1,.4c.3.3.4.6.4,1s-.1.7-.4,1c-.3.3-.6.4-1,.4Z"/>
      <path class="cls-6" d="M563.7,374c-.3,0-.6-.1-.9-.4-.3-.2-.4-.5-.4-.9s.1-.6.4-.9c.3-.2.6-.4.9-.4s.7.1.9.4c.3.2.4.5.4.9s-.1.6-.4.9-.6.4-.9.4ZM562.8,387.3v-11.5h1.8v11.5h-1.8Z"/>
      <path class="cls-6" d="M571.7,387.6c-1.2,0-2.2-.3-2.9-.8-.8-.5-1.3-1.3-1.5-2.3l1.8-.4c.2.6.5,1.1.9,1.4.5.3,1,.4,1.7.4s1.4-.2,1.9-.5.7-.7.7-1.2c0-.8-.6-1.3-1.7-1.6l-1.9-.5c-2.1-.5-3.1-1.5-3.1-3.1s.2-1.2.6-1.7c.4-.5.9-.9,1.5-1.2.6-.3,1.4-.4,2.2-.4,1.2,0,2.1.3,2.8.8.7.5,1.1,1.2,1.4,2l-1.7.4c-.2-.4-.4-.8-.8-1.1s-.9-.5-1.7-.5-1.3.2-1.7.5-.7.7-.7,1.2.2.8.5,1c.3.3.8.5,1.5.6l1.7.4c1,.2,1.8.6,2.3,1.1.5.5.7,1.2.7,2s-.2,1.3-.6,1.8c-.4.5-.9.9-1.6,1.2s-1.5.5-2.4.5Z"/>
      <path class="cls-6" d="M582.8,387.6c-1.2,0-2.2-.3-2.9-.8-.8-.5-1.3-1.3-1.5-2.3l1.8-.4c.2.6.5,1.1.9,1.4s1,.4,1.7.4,1.4-.2,1.9-.5c.5-.3.7-.7.7-1.2,0-.8-.6-1.3-1.7-1.6l-1.9-.5c-2.1-.5-3.1-1.5-3.1-3.1s.2-1.2.6-1.7c.4-.5.9-.9,1.5-1.2.6-.3,1.4-.4,2.2-.4,1.2,0,2.1.3,2.8.8.7.5,1.1,1.2,1.4,2l-1.7.4c-.2-.4-.4-.8-.8-1.1-.4-.3-.9-.5-1.7-.5s-1.3.2-1.7.5c-.5.3-.7.7-.7,1.2s.2.8.5,1c.3.3.8.5,1.5.6l1.7.4c1,.2,1.8.6,2.3,1.1.5.5.7,1.2.7,2s-.2,1.3-.6,1.8c-.4.5-.9.9-1.6,1.2-.7.3-1.5.5-2.4.5Z"/>
      <path class="cls-6" d="M593.9,387.5c-1.2,0-2.1-.4-2.8-1.1s-1.1-1.8-1.1-3.2v-7.3h1.8v7.1c0,.9.2,1.6.7,2.1s1.1.7,1.9.7,1.5-.3,2.1-.8c.5-.5.8-1.3.8-2.3v-6.9h1.9v11.5h-1.8v-2.1c-.4.8-.9,1.4-1.5,1.8-.6.3-1.3.5-2,.5Z"/>
      <path class="cls-6" d="M607.2,387.6c-1.1,0-2.1-.2-2.9-.7-.8-.5-1.4-1.2-1.9-2.1-.4-.9-.7-1.9-.7-3.1s.2-2.2.6-3.1,1-1.6,1.8-2.1,1.7-.8,2.7-.8,1.2.1,1.8.3c.6.2,1.1.5,1.6,1,.5.4.9,1,1.2,1.8.3.7.4,1.6.4,2.7v.8h-8.3c0,1.2.4,2.1,1,2.8s1.5,1,2.5,1,1.3-.1,1.7-.4c.5-.3.8-.7,1.1-1.3l1.8.5c-.3.9-.8,1.6-1.6,2.1-.8.5-1.8.8-3,.8ZM603.8,380.7h6.4c0-1-.4-1.8-.9-2.4-.5-.6-1.3-.9-2.2-.9s-1.2.2-1.7.5c-.5.3-.8.7-1.1,1.2s-.4,1-.5,1.6Z"/>
      <path class="cls-6" d="M614.7,387.3v-11.5h1.8v1.8h.1c.2-.6.6-1,1.1-1.4.5-.4,1.2-.5,1.8-.5s.3,0,.5,0c.2,0,.3,0,.4,0v1.9c0,0-.2,0-.4,0s-.5,0-.7,0c-.8,0-1.5.3-2.1.8-.5.5-.8,1.1-.8,1.9v7.2h-1.8Z"/>
    </g>
  </g>
  <g>
    <rect class="cls-10" x="435.9" y="157.4" width="217.1" height="48.5"/>
    <path class="cls-4" d="M653.5,206.4h-218.1v-49.5h218.1v49.5ZM436.4,205.4h216.1v-47.5h-216.1v47.5Z"/>
  </g>
  <g class="cls-12">
    <g class="cls-12">
      <path class="cls-6" d="M508.8,175.9v1.8h-2.3v6.5c0,.5,0,.8.3,1,.2.2.5.3,1,.3s.3,0,.5,0,.4,0,.5,0l.4,1.8c-.2,0-.5.1-.8.2-.3,0-.5,0-.8,0-1,0-1.8-.3-2.4-.8-.6-.5-.9-1.3-.9-2.3v-6.7h-1.7v-1.8h1.7v-2.7h2.3v2.7h2.3Z"/>
    </g>
    <g class="cls-12">
      <path class="cls-6" d="M516.5,187.6c-1.1,0-2.1-.2-2.9-.7s-1.5-1.2-1.9-2.1c-.4-.9-.7-1.9-.7-3.1s.2-2.2.7-3.1c.4-.9,1-1.6,1.8-2.1.8-.5,1.7-.8,2.8-.8s1.7.2,2.5.6c.8.4,1.4,1,1.9,1.8.5.8.7,2,.7,3.3v.8h-8.1c0,1.1.4,2,.9,2.5.6.6,1.4.9,2.3.9s1.2-.1,1.6-.4c.5-.3.8-.7,1-1.2l2.1.5c-.3.9-.8,1.6-1.7,2.2s-1.9.8-3.1.8ZM513.3,180.6h5.9c0-.9-.4-1.6-.8-2.2-.5-.6-1.2-.8-2-.8s-1.6.3-2.1.9c-.5.6-.8,1.3-.9,2.1Z"/>
      <path class="cls-6" d="M526.2,180.6v6.8h-2.3v-11.5h2.2v2.2c.4-.8.8-1.4,1.4-1.8.6-.4,1.3-.6,2.1-.6,1.2,0,2.1.4,2.8,1.1.7.7,1.1,1.8,1.1,3.2v7.3h-2.3v-7c0-.8-.2-1.5-.6-1.9s-1-.7-1.8-.7-1.4.2-1.9.7c-.5.5-.8,1.2-.8,2.1Z"/>
      <path class="cls-6" d="M539.8,187.6c-.7,0-1.4-.1-2-.4-.6-.3-1-.7-1.4-1.2s-.5-1.2-.5-1.9.1-1.2.4-1.6c.3-.4.6-.8,1-1,.4-.2.9-.4,1.4-.5.5-.1,1.1-.2,1.6-.3,1-.1,1.7-.2,2.2-.3.5,0,.7-.3.7-.7h0c0-.7-.2-1.2-.6-1.5-.4-.4-.9-.5-1.6-.5s-1.3.2-1.8.5-.7.7-.9,1.1l-2.1-.6c.3-.7.6-1.2,1.1-1.7.5-.4,1-.7,1.7-.9.6-.2,1.3-.3,2-.3s.9,0,1.5.2,1,.3,1.5.6c.5.3.8.7,1.1,1.2s.4,1.2.4,2v7.6h-2.2v-1.6h-.1c-.2.5-.6.9-1.2,1.2-.6.4-1.3.6-2.2.6ZM540.3,185.8c.6,0,1.1-.1,1.6-.4.4-.2.8-.6,1-.9.2-.4.4-.8.4-1.3v-1.5c-.1.1-.3.2-.7.3-.4,0-.7.1-1.1.2-.4,0-.7,0-.9.1-.6,0-1.2.3-1.6.5-.5.3-.7.7-.7,1.3s.2,1,.6,1.2c.4.3.9.4,1.6.4Z"/>
      <path class="cls-6" d="M550.7,180.6v6.8h-2.3v-11.5h2.2v2.2c.4-.8.8-1.4,1.4-1.8.6-.4,1.3-.6,2.1-.6,1.2,0,2.1.4,2.8,1.1.7.7,1.1,1.8,1.1,3.2v7.3h-2.3v-7c0-.8-.2-1.5-.6-1.9s-1-.7-1.8-.7-1.4.2-1.9.7c-.5.5-.8,1.2-.8,2.1Z"/>
    </g>
    <g class="cls-12">
      <path class="cls-6" d="M565.8,175.9v1.8h-2.3v6.5c0,.5,0,.8.3,1,.2.2.5.3,1,.3s.3,0,.5,0c.2,0,.4,0,.5,0l.4,1.8c-.2,0-.5.1-.8.2-.3,0-.5,0-.8,0-1,0-1.8-.3-2.4-.8-.6-.5-.9-1.3-.9-2.3v-6.7h-1.7v-1.8h1.7v-2.7h2.3v2.7h2.3Z"/>
    </g>
    <g class="cls-12">
      <path class="cls-6" d="M575.1,179.9v2h-6.8v-2h6.8Z"/>
      <path class="cls-6" d="M583.6,172.1v15.3h-2.3v-13.2h-.1l-3.6,2.6v-2.3l3.3-2.4h2.7Z"/>
    </g>
  </g>
  <g>
    <rect class="cls-5" x="723.7" y="138.6" width="291.4" height="291.4" rx="12" ry="12"/>
    <path class="cls-6" d="M999.7,429.5v1-1ZM995.7,429.5v1-1ZM991.7,429.5v1-1ZM987.7,429.5v1-1ZM983.7,429.5v1-1ZM979.7,429.5v1-1ZM975.7,429.5v1-1ZM971.7,429.5v1-1ZM967.7,429.5v1-1ZM963.7,429.5v1-1ZM959.7,429.5v1-1ZM955.7,429.5v1-1ZM951.7,429.5v1-1ZM947.7,429.5v1-1ZM943.7,429.5v1-1ZM939.7,429.5v1-1ZM935.7,429.5v1-1ZM931.7,429.5v1-1ZM927.7,429.5v1-1ZM923.7,429.5v1-1ZM919.7,429.5v1-1ZM915.7,429.5v1-1ZM911.7,429.5v1-1ZM907.7,429.5v1-1ZM903.7,429.5v1-1ZM899.7,429.5v1-1ZM895.7,429.5v1-1ZM891.7,429.5v1-1ZM887.7,429.5v1-1ZM883.7,429.5v1-1ZM879.7,429.5v1-1ZM875.7,429.5v1-1ZM871.7,429.5v1-1ZM867.7,429.5v1-1ZM863.7,429.5v1-1ZM859.7,429.5v1-1ZM855.7,429.5v1-1ZM851.7,429.5v1-1ZM847.7,429.5v1-1ZM843.7,429.5v1-1ZM839.7,429.5v1-1ZM835.7,429.5v1-1ZM831.7,429.5v1-1ZM827.7,429.5v1-1ZM823.7,429.5v1-1ZM819.7,429.5v1-1ZM815.7,429.5v1-1ZM811.7,429.5v1-1ZM807.7,429.5v1-1ZM803.7,429.5v1-1ZM799.7,429.5v1-1ZM795.7,429.5v1-1ZM791.7,429.5v1-1ZM787.7,429.5v1-1ZM783.7,429.5v1-1ZM779.7,429.5v1-1ZM775.7,429.5v1-1ZM771.7,429.5v1-1ZM767.7,429.5v1-1ZM763.7,429.5v1-1ZM759.7,429.5v1-1ZM755.7,429.5v1-1ZM751.7,429.5v1-1ZM747.7,429.5v1-1ZM743.7,429.5v1-1ZM739.7,429.5v1-1ZM735.7,429.5v1-1ZM1003.7,429.5v1c0-1,0,0,0-1ZM732,428.9l-.3.9.3-.9ZM1007.4,428.7l.4.9h0c-.4-.9,0,0-.4-.9ZM728,427.8l.3-.4-.3.4h0ZM1010.7,426.7h0l.7.8-.7-.8ZM728.6,427h0l-.3.4.3-.4ZM725.2,424.8l.4-.3-.4.3h0ZM726,424.2h0l-.4.3.4-.3ZM1013.1,423.7h0l.9.5-.9-.5ZM723.6,420.9l1-.2-1,.2h0ZM1014.4,420.2l1,.2-1-.2ZM723.2,416.9h1-1ZM1014.6,416.3h1-1ZM723.2,412.9h1-1ZM1014.6,412.3h1-1ZM723.2,408.9h1-1ZM1014.6,408.3h1-1ZM723.2,404.9h1-1ZM1014.6,404.3h1-1ZM723.2,400.9h1-1ZM1014.6,400.3h1-1ZM723.2,396.9h1-1ZM1014.6,396.3h1-1ZM723.2,392.9h1-1ZM1014.6,392.3h1-1ZM723.2,388.9h1-1ZM1014.6,388.3h1-1ZM723.2,384.9h1-1ZM1014.6,384.3h1-1ZM723.2,380.9h1-1ZM1014.6,380.3h1-1ZM723.2,376.9h1-1ZM1014.6,376.3h1-1ZM723.2,372.9h1-1ZM1014.6,372.3h1-1ZM723.2,368.9h1-1ZM1014.6,368.3h1-1ZM723.2,364.9h1-1ZM1014.6,364.3h1-1ZM723.2,360.9h1-1ZM1014.6,360.3h1-1ZM723.2,356.9h1-1ZM1014.6,356.3h1-1ZM723.2,352.9h1-1ZM1014.6,352.3h1-1ZM723.2,348.9h1-1ZM1014.6,348.3h1-1ZM723.2,344.9h1-1ZM1014.6,344.3h1-1ZM723.2,340.9h1-1ZM1014.6,340.3h1-1ZM723.2,336.9h1-1ZM1014.6,336.3h1-1ZM723.2,332.9h1-1ZM1014.6,332.3h1-1ZM723.2,328.9h1-1ZM1014.6,328.3h1-1ZM723.2,324.9h1-1ZM1014.6,324.3h1-1ZM723.2,320.9h1-1ZM1014.6,320.3h1-1ZM723.2,316.9h1-1ZM1014.6,316.3h1-1ZM723.2,312.9h1-1ZM1014.6,312.3h1-1ZM723.2,308.9h1-1ZM1014.6,308.3h1-1ZM723.2,304.9h1-1ZM1014.6,304.3h1-1ZM723.2,300.9h1-1ZM1014.6,300.3h1-1ZM723.2,296.9h1-1ZM1014.6,296.3h1-1ZM723.2,292.9h1-1ZM1014.6,292.3h1-1ZM723.2,288.9h1-1ZM1014.6,288.3h1-1ZM723.2,284.9h1-1ZM1014.6,284.3h1-1ZM723.2,280.9h1-1ZM1014.6,280.3h1-1ZM723.2,276.9h1-1ZM1014.6,276.3h1-1ZM723.2,272.9h1-1ZM1014.6,272.3h1-1ZM723.2,268.9h1-1ZM1014.6,268.3h1-1ZM723.2,264.9h1-1ZM1014.6,264.3h1-1ZM723.2,260.9h1-1ZM1014.6,260.3h1-1ZM723.2,256.9h1-1ZM1014.6,256.3h1-1ZM723.2,252.9h1-1ZM1014.6,252.3h1-1ZM723.2,248.9h1-1ZM1014.6,248.3h1-1ZM723.2,244.9h1-1ZM1014.6,244.3h1-1ZM723.2,240.9h1-1ZM1014.6,240.3h1-1ZM723.2,236.9h1-1ZM1014.6,236.3h1-1ZM723.2,232.9h1-1ZM1014.6,232.3h1-1ZM723.2,228.9h1-1ZM1014.6,228.3h1-1ZM723.2,224.9h1-1ZM1014.6,224.3h1-1ZM723.2,220.9h1-1ZM1014.6,220.3h1-1ZM723.2,216.9h1-1ZM1014.6,216.3h1-1ZM723.2,212.9h1-1ZM1014.6,212.3h1-1ZM723.2,208.9h1-1ZM1014.6,208.3h1-1ZM723.2,204.9h1-1ZM1014.6,204.3h1-1ZM723.2,200.9h1-1ZM1014.6,200.3h1-1ZM723.2,196.9h1-1ZM1014.6,196.3h1-1ZM723.2,192.9h1-1ZM1014.6,192.3h1-1ZM723.2,188.9h1-1ZM1014.6,188.3h1-1ZM723.2,184.9h1-1ZM1014.6,184.3h1-1ZM723.2,180.9h1-1ZM1014.6,180.3h1-1ZM723.2,176.9h1-1ZM1014.6,176.3h1-1ZM723.2,172.9h1-1ZM1014.6,172.3h1-1ZM723.2,168.9h1-1ZM1014.6,168.3h1-1ZM723.2,164.9h1-1ZM1014.6,164.3h1-1ZM723.2,160.9h1-1ZM1014.6,160.3h1-1ZM723.2,156.9h1-1ZM1014.6,156.3h1-1ZM723.2,152.9h1-1ZM1014.6,152.3h1-1ZM723.3,148.8h1c-1,0,0,.1-1,0ZM1015.4,148.2l-1,.2,1-.2ZM724.6,144.8l.9.5-.9-.5ZM1014,144.3l-.9.5.9-.5ZM727.1,141.5h0l.7.7-.7-.7ZM1010.7,141.9l.7-.8-.7.8ZM730.5,139.2h0l.4.9-.4-.9ZM1007.4,139.9l.4-.9-.4.9h0ZM734.5,138.2v.9h0v-.9ZM1003.7,138.1v1c0-1,0,0,0-1ZM999.7,138.1v1-1ZM995.7,138.1v1-1ZM991.7,138.1v1-1ZM987.7,138.1v1-1ZM983.7,138.1v1-1ZM979.7,138.1v1-1ZM975.7,138.1v1-1ZM971.7,138.1v1-1ZM967.7,138.1v1-1ZM963.7,138.1v1-1ZM959.7,138.1v1-1ZM955.7,138.1v1-1ZM951.7,138.1v1-1ZM947.7,138.1v1-1ZM943.7,138.1v1-1ZM939.7,138.1v1-1ZM935.7,138.1v1-1ZM931.7,138.1v1-1ZM927.7,138.1v1-1ZM923.7,138.1v1-1ZM919.7,138.1v1-1ZM915.7,138.1v1-1ZM911.7,138.1v1-1ZM907.7,138.1v1-1ZM903.7,138.1v1-1ZM899.7,138.1v1-1ZM895.7,138.1v1-1ZM891.7,138.1v1-1ZM887.7,138.1v1-1ZM883.7,138.1v1-1ZM879.7,138.1v1-1ZM875.7,138.1v1-1ZM871.7,138.1v1-1ZM867.7,138.1v1-1ZM863.7,138.1v1-1ZM859.7,138.1v1-1ZM855.7,138.1v1-1ZM851.7,138.1v1-1ZM847.7,138.1v1-1ZM843.7,138.1v1-1ZM839.7,138.1v1-1ZM835.7,138.1v1-1ZM831.7,138.1v1-1ZM827.7,138.1v1-1ZM823.7,138.1v1-1ZM819.7,138.1v1-1ZM815.7,138.1v1-1ZM811.7,138.1v1-1ZM807.7,138.1v1-1ZM803.7,138.1v1-1ZM799.7,138.1v1-1ZM795.7,138.1v1-1ZM791.7,138.1v1-1ZM787.7,138.1v1-1ZM783.7,138.1v1-1ZM779.7,138.1v1-1ZM775.7,138.1v1-1ZM771.7,138.1v1-1ZM767.7,138.1v1-1ZM763.7,138.1v1-1ZM759.7,138.1v1-1ZM755.7,138.1v1-1ZM751.7,138.1v1-1ZM747.7,138.1v1-1ZM743.7,138.1v1-1ZM739.7,138.1v1-1ZM735.7,138.1v1-1ZM734.5,138.1h0s0,0,0,0Z"/>
  </g>
  <rect class="cls-8" x="827" y="237.6" width="86.5" height="86.5" rx="16.8" ry="16.8"/>
  <path class="cls-11" d="M853,256.4c1.3-1.3,3.1-2,4.9-2h20.4c.6,0,1.2.2,1.7.7l11.3,11.3c.5.5.7,1,.7,1.7v29.5c0,1.8-.7,3.6-2,4.9s-3.1,2-4.9,2h-27.2c-1.8,0-3.6-.7-4.9-2s-2-3.1-2-4.9v-36.3c0-1.8.7-3.6,2-4.9h0ZM886.1,268l-7.8-7.8v5.6c0,.6.2,1.1.6,1.5s1,.6,1.5.6h5.6ZM873.6,259.1h-15.8c-.6,0-1.1.2-1.5.6s-.6,1-.6,1.5v36.3c0,.6.2,1.1.6,1.5s1,.6,1.5.6h27.2c.6,0,1.1-.2,1.5-.6s.6-1,.6-1.5v-24.8h-6.8c.2.7.2,1.4.2,2.2,0,2.3-.8,4.3-2.2,5.9l2.1,11.8c.2.8-.2,1.7-.8,2.2-.6.5-1.5.7-2.3.5l-6-2-6,2c-.8.3-1.7,0-2.3-.5-.6-.5-.9-1.4-.8-2.2l2.1-11.8c-1.4-1.6-2.2-3.7-2.2-5.9,0-5.1,4.1-9.2,9.2-9.2s1.5,0,2.2.2h0v-6.8h0ZM868.8,283.7l-1.1,5.8,3-1c.5-.2,1-.2,1.5,0l3,1-1.1-5.8c-.8.3-1.8.4-2.7.4s-1.8-.1-2.7-.4h0ZM871.5,270.5c-2.4,0-4.4,2-4.4,4.4s2,4.4,4.4,4.4,4.4-2,4.4-4.4-2-4.4-4.4-4.4Z"/>
  <rect class="cls-1" x="750.8" y="359.6" width="238.3" height="43"/>
  <g class="cls-12">
    <g class="cls-12">
      <path class="cls-6" d="M783.2,387.3v-11.5h1.8v1.8h.1c.2-.6.6-1,1.1-1.4.5-.4,1.2-.5,1.8-.5s.3,0,.5,0c.2,0,.3,0,.4,0v1.9c0,0-.2,0-.4,0s-.5,0-.7,0c-.8,0-1.5.3-2.1.8-.5.5-.8,1.1-.8,1.9v7.2h-1.8Z"/>
    </g>
    <g class="cls-12">
      <path class="cls-6" d="M795.3,387.6c-1,0-2-.2-2.7-.7s-1.4-1.2-1.8-2.1-.7-1.9-.7-3.1.2-2.2.7-3.1c.4-.9,1-1.6,1.8-2.1s1.7-.7,2.7-.7,2,.2,2.7.7c.8.5,1.4,1.2,1.8,2.1.4.9.7,1.9.7,3.1s-.2,2.2-.7,3.1-1,1.6-1.8,2.1c-.8.5-1.7.7-2.7.7ZM795.3,385.9c.8,0,1.4-.2,1.9-.6.5-.4.9-.9,1.1-1.6.2-.6.4-1.3.4-2.1s-.1-1.5-.4-2.1c-.2-.7-.6-1.2-1.1-1.6-.5-.4-1.1-.6-1.9-.6s-1.4.2-1.9.6c-.5.4-.9.9-1.1,1.6-.2.7-.4,1.4-.4,2.1s.1,1.5.4,2.1c.2.6.6,1.2,1.1,1.6.5.4,1.1.6,1.9.6Z"/>
      <path class="cls-6" d="M807.9,387.6c-1,0-2-.2-2.7-.7s-1.4-1.2-1.8-2.1-.7-1.9-.7-3.1.2-2.2.7-3.1c.4-.9,1-1.6,1.8-2.1s1.7-.7,2.7-.7,2,.2,2.7.7c.8.5,1.4,1.2,1.8,2.1.4.9.7,1.9.7,3.1s-.2,2.2-.7,3.1-1,1.6-1.8,2.1c-.8.5-1.7.7-2.7.7ZM807.9,385.9c.8,0,1.4-.2,1.9-.6.5-.4.9-.9,1.1-1.6.2-.6.4-1.3.4-2.1s-.1-1.5-.4-2.1c-.2-.7-.6-1.2-1.1-1.6-.5-.4-1.1-.6-1.9-.6s-1.4.2-1.9.6c-.5.4-.9.9-1.1,1.6-.2.7-.4,1.4-.4,2.1s.1,1.5.4,2.1c.2.6.6,1.2,1.1,1.6.5.4,1.1.6,1.9.6Z"/>
      <path class="cls-6" d="M820.4,375.9v1.6h-2.4v6.9c0,.5.1.9.3,1.1.2.2.6.4,1,.4s.3,0,.4,0c.2,0,.3,0,.5,0l.4,1.6c-.2,0-.4.1-.7.2-.2,0-.5,0-.7,0-1,0-1.8-.3-2.3-.8-.6-.5-.8-1.3-.8-2.2v-7.1h-1.7v-1.6h1.7v-2.7h1.8v2.7h2.4Z"/>
      <path class="cls-6" d="M824.1,379.2c-.4,0-.7-.1-1-.4-.3-.3-.4-.6-.4-1s.1-.7.4-1c.3-.3.6-.4,1-.4s.7.1,1,.4c.3.3.4.6.4,1s-.1.7-.4,1c-.3.3-.6.4-1,.4ZM824.1,387.5c-.4,0-.7-.1-1-.4s-.4-.6-.4-1,.1-.7.4-1,.6-.4,1-.4.7.1,1,.4c.3.3.4.6.4,1s-.1.7-.4,1c-.3.3-.6.4-1,.4Z"/>
      <path class="cls-6" d="M835.2,387.5c-1.3,0-2.5-.3-3.5-.9-1-.6-1.8-1.5-2.4-2.7-.6-1.2-.9-2.6-.9-4.2s.3-3,.9-4.2c.6-1.2,1.4-2.1,2.4-2.7,1-.6,2.2-1,3.5-1s2,.2,2.8.6c.9.4,1.6,1,2.2,1.7.6.7,1,1.6,1.1,2.7h-1.9c-.1-.7-.4-1.3-.8-1.8s-.9-.8-1.5-1.1c-.6-.2-1.2-.4-1.9-.4s-1.7.2-2.5.7-1.3,1.1-1.8,2c-.4.9-.6,2-.6,3.3s.2,2.4.7,3.3c.4.9,1,1.6,1.8,2,.7.5,1.6.7,2.5.7s1.3-.1,1.9-.4c.6-.2,1.1-.6,1.5-1.1s.7-1.1.8-1.8h1.9c-.2,1-.6,1.9-1.1,2.7-.6.8-1.3,1.3-2.2,1.7-.9.4-1.8.6-2.9.6Z"/>
      <path class="cls-6" d="M845.9,372v15.3h-1.8v-15.3h1.8Z"/>
      <path class="cls-6" d="M853.1,387.5c-1.2,0-2.1-.4-2.8-1.1s-1.1-1.8-1.1-3.2v-7.3h1.8v7.1c0,.9.2,1.6.7,2.1s1.1.7,1.9.7,1.5-.3,2.1-.8c.5-.5.8-1.3.8-2.3v-6.9h1.9v11.5h-1.8v-2.1c-.4.8-.9,1.4-1.5,1.8-.6.3-1.3.5-2,.5Z"/>
      <path class="cls-6" d="M865.5,387.6c-1.2,0-2.2-.3-2.9-.8-.8-.5-1.3-1.3-1.5-2.3l1.8-.4c.2.6.5,1.1.9,1.4s1,.4,1.7.4,1.4-.2,1.9-.5c.5-.3.7-.7.7-1.2,0-.8-.6-1.3-1.7-1.6l-1.9-.5c-2.1-.5-3.1-1.5-3.1-3.1s.2-1.2.6-1.7c.4-.5.9-.9,1.5-1.2.6-.3,1.4-.4,2.2-.4,1.2,0,2.1.3,2.8.8.7.5,1.1,1.2,1.4,2l-1.7.4c-.2-.4-.4-.8-.8-1.1-.4-.3-.9-.5-1.7-.5s-1.3.2-1.7.5c-.5.3-.7.7-.7,1.2s.2.8.5,1c.3.3.8.5,1.5.6l1.7.4c1,.2,1.8.6,2.3,1.1.5.5.7,1.2.7,2s-.2,1.3-.6,1.8c-.4.5-.9.9-1.6,1.2-.7.3-1.5.5-2.4.5Z"/>
    </g>
    <g class="cls-12">
      <path class="cls-6" d="M877.1,375.9v1.6h-2.4v6.9c0,.5.1.9.3,1.1.2.2.6.4,1,.4s.3,0,.4,0c.2,0,.3,0,.5,0l.4,1.6c-.2,0-.4.1-.7.2-.2,0-.5,0-.7,0-1,0-1.8-.3-2.3-.8-.6-.5-.8-1.3-.8-2.2v-7.1h-1.7v-1.6h1.7v-2.7h1.8v2.7h2.4Z"/>
    </g>
    <g class="cls-12">
      <path class="cls-6" d="M884.9,387.6c-1.1,0-2.1-.2-2.9-.7-.8-.5-1.4-1.2-1.9-2.1-.4-.9-.7-1.9-.7-3.1s.2-2.2.6-3.1,1-1.6,1.8-2.1c.8-.5,1.7-.8,2.7-.8s1.2.1,1.8.3c.6.2,1.1.5,1.6,1,.5.4.9,1,1.2,1.8.3.7.4,1.6.4,2.7v.8h-8.3c0,1.2.4,2.1,1,2.8s1.5,1,2.5,1,1.3-.1,1.7-.4c.5-.3.8-.7,1.1-1.3l1.8.5c-.3.9-.8,1.6-1.6,2.1-.8.5-1.8.8-3,.8ZM881.4,380.7h6.4c0-1-.4-1.8-.9-2.4-.5-.6-1.3-.9-2.2-.9s-1.2.2-1.7.5c-.5.3-.8.7-1.1,1.2s-.4,1-.5,1.6Z"/>
      <path class="cls-6" d="M892.3,387.3v-11.5h1.8v1.8h.1c.2-.6.6-1,1.1-1.4.5-.4,1.2-.5,1.8-.5s.3,0,.5,0c.2,0,.3,0,.4,0v1.9c0,0-.2,0-.4,0s-.5,0-.7,0c-.8,0-1.5.3-2.1.8-.5.5-.8,1.1-.8,1.9v7.2h-1.8Z"/>
      <path class="cls-6" d="M902.7,372v15.3h-1.9v-15.3h1.9Z"/>
      <path class="cls-6" d="M910.1,387.6c-1.2,0-2.2-.3-2.9-.8-.8-.5-1.3-1.3-1.5-2.3l1.8-.4c.2.6.5,1.1.9,1.4.5.3,1,.4,1.7.4s1.4-.2,1.9-.5c.5-.3.7-.7.7-1.2,0-.8-.6-1.3-1.7-1.6l-1.9-.5c-2.1-.5-3.1-1.5-3.1-3.1s.2-1.2.6-1.7c.4-.5.9-.9,1.5-1.2.6-.3,1.4-.4,2.2-.4,1.2,0,2.1.3,2.8.8.7.5,1.1,1.2,1.4,2l-1.7.4c-.2-.4-.4-.8-.8-1.1-.4-.3-.9-.5-1.7-.5s-1.3.2-1.7.5c-.5.3-.7.7-.7,1.2s.2.8.5,1c.3.3.8.5,1.5.6l1.7.4c1,.2,1.8.6,2.3,1.1.5.5.7,1.2.7,2s-.2,1.3-.6,1.8c-.4.5-.9.9-1.6,1.2-.7.3-1.5.5-2.4.5Z"/>
      <path class="cls-6" d="M921.2,387.6c-1.2,0-2.2-.3-2.9-.8-.8-.5-1.3-1.3-1.5-2.3l1.8-.4c.2.6.5,1.1.9,1.4.5.3,1,.4,1.7.4s1.4-.2,1.9-.5c.5-.3.7-.7.7-1.2,0-.8-.6-1.3-1.7-1.6l-1.9-.5c-2.1-.5-3.1-1.5-3.1-3.1s.2-1.2.6-1.7c.4-.5.9-.9,1.5-1.2.6-.3,1.4-.4,2.2-.4,1.2,0,2.1.3,2.8.8.7.5,1.1,1.2,1.4,2l-1.7.4c-.2-.4-.4-.8-.8-1.1-.4-.3-.9-.5-1.7-.5s-1.3.2-1.7.5c-.5.3-.7.7-.7,1.2s.2.8.5,1c.3.3.8.5,1.5.6l1.7.4c1,.2,1.8.6,2.3,1.1.5.5.7,1.2.7,2s-.2,1.3-.6,1.8c-.4.5-.9.9-1.6,1.2-.7.3-1.5.5-2.4.5Z"/>
      <path class="cls-6" d="M932.3,387.5c-1.2,0-2.1-.4-2.8-1.1-.7-.7-1.1-1.8-1.1-3.2v-7.3h1.8v7.1c0,.9.2,1.6.7,2.1s1.1.7,1.9.7,1.5-.3,2.1-.8c.5-.5.8-1.3.8-2.3v-6.9h1.9v11.5h-1.8v-2.1c-.4.8-.9,1.4-1.5,1.8-.6.3-1.3.5-2,.5Z"/>
      <path class="cls-6" d="M945.6,387.6c-1.1,0-2.1-.2-2.9-.7-.8-.5-1.4-1.2-1.9-2.1-.4-.9-.7-1.9-.7-3.1s.2-2.2.6-3.1,1-1.6,1.8-2.1c.8-.5,1.7-.8,2.7-.8s1.2.1,1.8.3c.6.2,1.1.5,1.6,1,.5.4.9,1,1.2,1.8.3.7.4,1.6.4,2.7v.8h-8.3c0,1.2.4,2.1,1,2.8s1.5,1,2.5,1,1.3-.1,1.7-.4c.5-.3.8-.7,1.1-1.3l1.8.5c-.3.9-.8,1.6-1.6,2.1-.8.5-1.8.8-3,.8ZM942.1,380.7h6.4c0-1-.4-1.8-.9-2.4-.5-.6-1.3-.9-2.2-.9s-1.2.2-1.7.5c-.5.3-.8.7-1.1,1.2s-.4,1-.5,1.6Z"/>
      <path class="cls-6" d="M953,387.3v-11.5h1.8v1.8h.1c.2-.6.6-1,1.1-1.4.5-.4,1.2-.5,1.8-.5s.3,0,.5,0c.2,0,.3,0,.4,0v1.9c0,0-.2,0-.4,0s-.5,0-.7,0c-.8,0-1.5.3-2.1.8-.5.5-.8,1.1-.8,1.9v7.2h-1.8Z"/>
    </g>
  </g>
  <g>
    <rect class="cls-10" x="761.4" y="157.4" width="217.1" height="48.5"/>
    <path class="cls-4" d="M979,206.4h-218.1v-49.5h218.1v49.5ZM761.9,205.4h216.1v-47.5h-216.1v47.5Z"/>
  </g>
  <g class="cls-12">
    <g class="cls-12">
      <path class="cls-6" d="M840.5,187.6c-.9,0-1.8-.2-2.5-.7-.7-.5-1.3-1.2-1.7-2s-.6-1.9-.6-3.2.2-2.3.6-3.2c.4-.9,1-1.6,1.7-2,.7-.5,1.5-.7,2.5-.7s1.3.1,1.7.4c.4.2.8.5,1,.8.2.3.4.6.6.8h.1v-5.7h2.3v15.3h-2.2v-1.8h-.2c-.1.2-.3.5-.6.8-.2.3-.6.6-1,.8-.4.2-1,.4-1.7.4ZM841,185.7c1,0,1.7-.4,2.2-1.1.5-.7.8-1.7.8-2.9s-.3-2.1-.8-2.9c-.5-.7-1.2-1.1-2.2-1.1s-1.2.2-1.7.5c-.4.3-.8.8-1,1.4-.2.6-.3,1.3-.3,2s.1,1.4.3,2.1.6,1.1,1,1.4,1,.5,1.6.5Z"/>
      <path class="cls-6" d="M854.2,187.6c-1.1,0-2.1-.2-2.9-.7s-1.5-1.2-1.9-2.1c-.4-.9-.7-1.9-.7-3.1s.2-2.2.7-3.1c.4-.9,1-1.6,1.8-2.1.8-.5,1.7-.8,2.8-.8s1.7.2,2.5.6c.8.4,1.4,1,1.9,1.8.5.8.7,2,.7,3.3v.8h-8.1c0,1.1.4,2,.9,2.5.6.6,1.3.9,2.3.9s1.2-.1,1.6-.4c.5-.3.8-.7,1-1.2l2.1.5c-.3.9-.8,1.6-1.7,2.2s-1.9.8-3.1.8ZM851,180.6h5.9c0-.9-.4-1.6-.8-2.2-.5-.6-1.2-.8-2-.8s-1.6.3-2.1.9c-.5.6-.8,1.3-.9,2.1Z"/>
    </g>
    <g class="cls-12">
      <path class="cls-6" d="M867.4,175.9v1.8h-2.6v9.6h-2.3v-9.6h-2.2v-1.8h2.2v-1.3c0-.7.2-1.3.5-1.8.3-.5.7-.8,1.3-1.1.5-.2,1.1-.4,1.7-.4s.8,0,1.2.1c.3,0,.6.1.7.2l-.5,1.8h-.4c-.2-.1-.4-.2-.6-.2-.5,0-.9.1-1.2.4-.2.3-.4.7-.4,1.2v1h2.6Z"/>
    </g>
    <g class="cls-12">
      <path class="cls-6" d="M872.3,187.6c-.7,0-1.4-.1-2-.4-.6-.3-1-.7-1.4-1.2s-.5-1.2-.5-1.9.1-1.2.4-1.6c.3-.4.6-.8,1-1,.4-.2.9-.4,1.4-.5s1.1-.2,1.6-.3c1-.1,1.7-.2,2.2-.3.5,0,.7-.3.7-.7h0c0-.7-.2-1.2-.6-1.5-.4-.4-.9-.5-1.6-.5s-1.3.2-1.8.5c-.4.3-.7.7-.9,1.1l-2.1-.6c.3-.7.6-1.2,1.1-1.7.5-.4,1-.7,1.7-.9.6-.2,1.3-.3,2-.3s.9,0,1.5.2,1,.3,1.5.6c.5.3.8.7,1.1,1.2s.4,1.2.4,2v7.6h-2.2v-1.6h-.1c-.2.5-.6.9-1.2,1.2-.6.4-1.3.6-2.2.6ZM872.8,185.8c.6,0,1.1-.1,1.6-.4.4-.2.8-.6,1-.9s.4-.8.4-1.3v-1.5c-.1.1-.3.2-.7.3-.4,0-.7.1-1.1.2-.4,0-.7,0-.9.1-.6,0-1.2.3-1.6.5-.5.3-.7.7-.7,1.3s.2,1,.6,1.2c.4.3.9.4,1.6.4Z"/>
      <path class="cls-6" d="M885,187.5c-1.2,0-2.1-.4-2.8-1.1-.7-.7-1.1-1.8-1.1-3.2v-7.3h2.3v7c0,.8.2,1.5.7,1.9.4.5,1,.7,1.8.7s1.4-.2,1.9-.7c.5-.5.8-1.2.8-2.1v-6.8h2.3v11.5h-2.2v-2.2c-.4.8-.9,1.4-1.5,1.8-.6.4-1.3.6-2.1.6Z"/>
      <path class="cls-6" d="M895.9,172.1v15.3h-2.3v-15.3h2.3Z"/>
      <path class="cls-6" d="M904.2,175.9v1.8h-2.3v6.5c0,.5,0,.8.3,1,.2.2.5.3,1,.3s.3,0,.5,0,.4,0,.5,0l.4,1.8c-.2,0-.5.1-.8.2-.3,0-.5,0-.8,0-1,0-1.8-.3-2.4-.8-.6-.5-.9-1.3-.9-2.3v-6.7h-1.7v-1.8h1.7v-2.7h2.3v2.7h2.3Z"/>
    </g>
  </g>
  <path class="cls-11" d="M193.2,255c1.8-1.8,4.1-2.8,6.6-2.8h27.7c.9,0,1.7.3,2.3.9l15.4,15.4c.6.6.9,1.4.9,2.3v40c0,2.5-1,4.9-2.8,6.6s-4.1,2.8-6.6,2.8h-18.5c-1.8,0-3.2-1.5-3.2-3.2s1.4-3.2,3.2-3.2h18.5c.8,0,1.5-.3,2.1-.9s.9-1.3.9-2.1v-33.7h-9.1c-2.5,0-4.9-1-6.6-2.8s-2.8-4.1-2.8-6.6v-9.1h-21.4c-.8,0-1.5.3-2.1.9s-.9,1.3-.9,2.1v9.2c0,1.8-1.4,3.2-3.2,3.2s-3.2-1.5-3.2-3.2v-9.2c0-2.5,1-4.9,2.8-6.6h0ZM227.6,260.2v7.6c0,.8.3,1.5.9,2.1.6.5,1.3.9,2.1.9h7.6l-10.5-10.5h0ZM187.9,283.6c2.3-2.3,5.5-3.6,8.8-3.6s3.3.3,4.8,1c1.5.6,2.9,1.5,4,2.7s2.1,2.5,2.7,4c.6,1.5.9,3.1.9,4.8s-.3,3.3-.9,4.8c-.5,1.2-1.2,2.3-2,3.3l2.9,16c.2,1.1-.2,2.3-1.1,3s-2.1,1-3.1.6l-8.2-2.7-8.2,2.7c-1.1.4-2.3.1-3.1-.6-.9-.8-1.3-1.9-1.1-3l2.9-16c-1.9-2.2-3-5.1-3-8.1s1.3-6.5,3.6-8.8h0ZM193.1,304.3l-1.4,7.9,4.1-1.4c.7-.2,1.4-.2,2,0l4.1,1.4-1.4-7.9c-1.2.4-2.4.5-3.6.5s-2.5-.2-3.6-.5h0ZM196.7,286.4c-1.6,0-3.1.6-4.2,1.8-1.1,1.1-1.8,2.6-1.8,4.2s.6,3.1,1.8,4.2c1.1,1.1,2.6,1.8,4.2,1.8s1.6-.2,2.3-.5,1.4-.7,1.9-1.3,1-1.2,1.3-2,.5-1.5.5-2.3-.2-1.6-.5-2.3c-.3-.7-.7-1.4-1.3-2s-1.2-1-1.9-1.3-1.5-.5-2.3-.5h0Z"/>
  <path class="cls-11" d="M518.4,255c1.8-1.8,4.2-2.8,6.6-2.8h27.7c.9,0,1.7.3,2.3.9l15.4,15.4c.6.6,1,1.4,1,2.3v40c0,2.5-1,4.9-2.8,6.6s-4.2,2.8-6.6,2.8h-18.5c-1.8,0-3.2-1.5-3.2-3.2s1.5-3.2,3.2-3.2h18.5c.8,0,1.5-.3,2.1-.9s.9-1.3.9-2.1v-33.7h-9.1c-2.5,0-4.9-1-6.6-2.8s-2.8-4.1-2.8-6.6v-9.1h-21.4c-.8,0-1.5.3-2.1.9s-.9,1.3-.9,2.1v9.2c0,1.8-1.5,3.2-3.2,3.2s-3.2-1.5-3.2-3.2v-9.2c0-2.5,1-4.9,2.8-6.6h0ZM552.9,260.2v7.6c0,.8.3,1.5.9,2.1.5.5,1.3.9,2.1.9h7.6l-10.5-10.5h0ZM513.2,283.6c2.3-2.3,5.5-3.6,8.8-3.6s3.3.3,4.8,1,2.9,1.5,4,2.7,2.1,2.5,2.7,4c.6,1.5,1,3.1,1,4.8s-.3,3.3-1,4.8c-.5,1.2-1.2,2.3-2,3.3l2.9,16c.2,1.1-.2,2.3-1.1,3s-2.1,1-3.1.6l-8.2-2.7-8.2,2.7c-1.1.4-2.3.1-3.1-.6-.9-.8-1.3-1.9-1.1-3l2.9-16c-1.9-2.2-3-5.1-3-8.1s1.3-6.5,3.6-8.8h0ZM518.4,304.3l-1.4,7.9,4-1.4c.7-.2,1.4-.2,2,0l4,1.4-1.4-7.9c-1.2.4-2.4.5-3.6.5s-2.5-.2-3.6-.5h0ZM522,286.4c-1.6,0-3.1.6-4.2,1.8-1.1,1.1-1.8,2.6-1.8,4.2s.6,3.1,1.8,4.2c1.1,1.1,2.7,1.8,4.2,1.8s1.6-.2,2.3-.5,1.4-.7,2-1.3,1-1.2,1.3-2,.5-1.5.5-2.3-.2-1.6-.5-2.3c-.3-.7-.7-1.4-1.3-2s-1.2-1-2-1.3c-.7-.3-1.5-.5-2.3-.5h0Z"/>
  <path class="cls-11" d="M347.6,581.1c1.8-1.8,4.1-2.8,6.6-2.8h27.7c.9,0,1.7.3,2.3,1l15.4,15.4c.6.6,1,1.4,1,2.3v40c0,2.5-1,4.9-2.8,6.6s-4.1,2.8-6.6,2.8h-18.5c-1.8,0-3.2-1.5-3.2-3.2s1.5-3.2,3.2-3.2h18.5c.8,0,1.5-.3,2.1-.9.5-.5.9-1.3.9-2.1v-33.7h-9.1c-2.5,0-4.9-1-6.6-2.8s-2.8-4.2-2.8-6.6v-9.1h-21.4c-.8,0-1.5.3-2.1.9-.5.5-.9,1.3-.9,2.1v9.2c0,1.8-1.5,3.2-3.2,3.2s-3.2-1.5-3.2-3.2v-9.2c0-2.5,1-4.9,2.8-6.6h0ZM382.1,586.3v7.6c0,.8.3,1.5.9,2.1s1.3.9,2.1.9h7.6l-10.5-10.5h0ZM342.3,609.7c2.3-2.3,5.5-3.7,8.8-3.7s3.3.3,4.8,1c1.5.6,2.9,1.5,4,2.7s2.1,2.5,2.7,4c.6,1.5,1,3.1,1,4.8s-.3,3.3-1,4.8c-.5,1.2-1.2,2.3-2,3.3l2.9,16c.2,1.1-.2,2.3-1.1,3s-2.1,1-3.1.6l-8.2-2.7-8.2,2.7c-1.1.4-2.3.1-3.1-.6-.9-.8-1.3-1.9-1.1-3l2.9-16c-1.9-2.2-3-5.1-3-8.1s1.3-6.5,3.6-8.8h0ZM347.5,630.4l-1.4,7.9,4-1.3c.7-.2,1.4-.2,2,0l4,1.3-1.4-7.9c-1.2.4-2.4.5-3.6.5s-2.5-.2-3.6-.5h0ZM351.1,612.5c-1.6,0-3.1.6-4.2,1.8-1.1,1.1-1.8,2.7-1.8,4.2s.6,3.1,1.8,4.2c1.1,1.1,2.6,1.8,4.2,1.8s1.6-.2,2.3-.5c.7-.3,1.4-.7,2-1.3s1-1.2,1.3-2c.3-.7.5-1.5.5-2.3s-.2-1.6-.5-2.3-.7-1.4-1.3-2-1.2-1-2-1.3-1.5-.5-2.3-.5h0Z"/>
  <path class="cls-2" d="M696.9,599.6c-1.6,0-3,1.3-3,3s1.3,3,3,3,3-1.3,3-3-1.3-3-3-3ZM690.8,602.5c0-3.4,2.8-6.2,6.2-6.2s6.2,2.8,6.2,6.2-1.9,5.2-4.5,5.9v18.2c3-.4,5.8-1.7,8-3.9,2.2-2.2,3.5-5,3.9-8h-2.9c-.9,0-1.6-.7-1.6-1.6s.7-1.6,1.6-1.6h4.5c.9,0,1.6.7,1.6,1.6,0,4.5-1.8,8.7-4.9,11.9-3.2,3.2-7.4,4.9-11.9,4.9s-8.7-1.8-11.9-4.9c-3.2-3.2-4.9-7.4-4.9-11.9s.2-.8.5-1.1.7-.5,1.1-.5h4.5c.9,0,1.6.7,1.6,1.6s-.7,1.6-1.6,1.6h-2.9c.4,3,1.7,5.8,3.9,8,2.2,2.2,5,3.5,8,3.9v-18.2c-2.6-.7-4.5-3.1-4.5-5.9h0Z"/>
  <path class="cls-2" d="M696.9,581.2c-1.8,0-3.5.5-5.1,1.3s-2.9,2.1-3.8,3.6c-.8,1.3-2.5,2-4,1.6-1.7-.4-3.5-.3-5.2.2s-3.3,1.4-4.5,2.7-2.2,2.8-2.7,4.5c-.5,1.7-.6,3.5-.2,5.2.3,1.5-.3,3.1-1.7,4-1.5,1-2.7,2.3-3.6,3.8s-1.3,3.3-1.3,5.1.5,3.5,1.3,5.1,2.1,2.9,3.6,3.8c1.3.8,2,2.4,1.7,4-.4,1.7-.3,3.5.2,5.2s1.4,3.3,2.7,4.5c1.3,1.3,2.8,2.2,4.5,2.7,1.7.5,3.5.5,5.2.2,1.5-.3,3.1.3,4,1.7,1,1.5,2.3,2.7,3.8,3.6,1.6.8,3.3,1.3,5.1,1.3s3.5-.5,5.1-1.3,2.9-2.1,3.8-3.6c.8-1.3,2.4-2,4-1.7,1.7.4,3.5.3,5.2-.2s3.3-1.4,4.5-2.7c1.3-1.3,2.2-2.8,2.7-4.5.5-1.7.5-3.5.2-5.2-.3-1.5.3-3.1,1.6-4,1.5-1,2.7-2.3,3.6-3.8s1.3-3.3,1.3-5.1-.5-3.5-1.3-5.1-2.1-2.9-3.6-3.8c-1.3-.8-2-2.5-1.6-4,.4-1.7.3-3.5-.2-5.2s-1.4-3.3-2.7-4.5c-1.3-1.3-2.8-2.2-4.5-2.7-1.7-.5-3.5-.5-5.2-.2-1.5.3-3.1-.3-4-1.6-1-1.5-2.3-2.7-3.8-3.6s-3.3-1.3-5.1-1.3h0ZM688.2,575.9c2.7-1.5,5.7-2.2,8.7-2.2s6,.8,8.7,2.2c1.9,1,3.6,2.4,5,4.1,2.2-.2,4.4,0,6.5.7,2.9.8,5.6,2.4,7.8,4.6,2.2,2.2,3.7,4.8,4.6,7.8.6,2.1.8,4.3.7,6.5,1.7,1.4,3,3.1,4.1,5,1.5,2.7,2.2,5.7,2.2,8.7s-.8,6-2.2,8.7c-1,1.9-2.4,3.6-4.1,5,.2,2.2,0,4.4-.7,6.5-.8,2.9-2.4,5.6-4.6,7.7-2.2,2.2-4.8,3.7-7.7,4.6-2.1.6-4.3.8-6.5.7-1.4,1.7-3.1,3.1-5,4.1-2.7,1.5-5.7,2.2-8.7,2.2s-6-.8-8.7-2.2c-1.9-1.1-3.6-2.5-5-4.1-2.2.2-4.4,0-6.5-.7-2.9-.8-5.6-2.4-7.7-4.6-2.2-2.2-3.7-4.8-4.6-7.7-.6-2.1-.8-4.3-.7-6.5-1.7-1.4-3.1-3.1-4.1-5.1-1.5-2.7-2.2-5.7-2.2-8.7s.8-6,2.2-8.7c1.1-1.9,2.5-3.6,4.1-5.1-.2-2.2,0-4.4.7-6.5.8-2.9,2.4-5.6,4.6-7.7,2.2-2.2,4.8-3.7,7.7-4.6,2.1-.6,4.3-.8,6.5-.7,1.4-1.7,3.1-3,5-4.1h0Z"/>
</svg>