<svg version="1.1" viewBox="0.0 0.0 960.0 540.0" fill="none" stroke="none" stroke-linecap="square" stroke-miterlimit="10" xmlns:xlink="http://www.w3.org/1999/xlink" xmlns="http://www.w3.org/2000/svg"><clipPath id="geef4c57eb9_0_1102.0"><path d="m0 0l960.0 0l0 540.0l-960.0 0l0 -540.0z" clip-rule="nonzero"/></clipPath><g clip-path="url(#geef4c57eb9_0_1102.0)"><path fill="#ffffff" d="m0 0l960.0 0l0 540.0l-960.0 0z" fill-rule="evenodd"/><path fill="#edf7f7" d="m547.5486 47.627296l326.8346 0l0 452.9134l-326.8346 0z" fill-rule="evenodd"/><path stroke="#c72e49" stroke-width="1.0" stroke-linejoin="round" stroke-linecap="butt" d="m547.5486 47.627296l326.8346 0l0 452.9134l-326.8346 0z" fill-rule="evenodd"/><path fill="#76a5af" d="m653.3945 355.54092l114.86615 0l0 -105.03769l-36.505615 -36.505615l-78.360535 0z" fill-rule="evenodd"/><path fill="#5e838b" d="m731.755 213.99762l7.3011475 29.204483l29.204468 7.301132z" fill-rule="evenodd"/><path fill="#000000" fill-opacity="0.0" d="m731.755 213.99762l7.3011475 29.204483l29.204468 7.301132l-36.505615 -36.505615l-78.360535 0l0 141.5433l114.86615 0l0 -105.03769" fill-rule="evenodd"/><path stroke="#45818e" stroke-width="1.0" stroke-linejoin="round" stroke-linecap="butt" d="m731.755 213.99762l7.3011475 29.204483l29.204468 7.301132l-36.505615 -36.505615l-78.360535 0l0 141.5433l114.86615 0l0 -105.03769" fill-rule="evenodd"/><path fill="#eeeeee" d="m43.454067 47.627296l405.03937 0l0 42.015747l-405.03937 0z" fill-rule="evenodd"/><path fill="#000000" d="m53.157192 74.547295l0 -8.53125l1.234375 0l0 0.84375q0.203125 -0.3125 0.46875 -0.546875q0.28125 -0.234375 0.609375 -0.359375q0.328125 -0.140625 0.65625 -0.140625q0.375 0 0.6875 0.171875q0.328125 0.15625 0.53125 0.4375q0.21875 0.265625 0.296875 0.640625q0.171875 -0.375 0.453125 -0.640625q0.296875 -0.28125 0.671875 -0.4375q0.390625 -0.171875 0.796875 -0.171875q0.421875 0 0.734375 0.171875q0.328125 0.171875 0.53125 0.46875q0.203125 0.28125 0.296875 0.6875q0.09375 0.390625 0.078125 0.859375l0 6.546875l-1.234375 0l0 -6.046875q0 -0.78125 -0.109375 -1.125q-0.09375 -0.359375 -0.28125 -0.46875q-0.1875 -0.109375 -0.40625 -0.109375q-0.359375 0 -0.671875 0.328125q-0.296875 0.328125 -0.5 0.8125q-0.1875 0.484375 -0.1875 0.96875l0 5.640625l-1.25 0l0 -5.9375q0 -1.0625 -0.203125 -1.40625q-0.1875 -0.359375 -0.734375 -0.359375q-0.203125 0 -0.421875 0.140625q-0.21875 0.140625 -0.40625 0.390625q-0.171875 0.25 -0.296875 0.625q-0.109375 0.375 -0.109375 0.859375l0 5.6875l-1.234375 0zm13.937504 0.203125q-0.921875 0 -1.71875 -0.328125q-0.78125 -0.34375 -1.359375 -0.9375q-0.5625038 -0.59375 -0.8750038 -1.40625q-0.3125 -0.8125 -0.3125 -1.78125q0 -0.953125 0.3125 -1.765625q0.3125 -0.8125 0.8750038 -1.40625q0.578125 -0.59375 1.359375 -0.921875q0.796875 -0.34375 1.703125 -0.34375q1.046875 0 1.875 0.421875q0.828125 0.40625 1.359375 1.15625l-0.84375 0.828125l-0.125 0.125l-0.09375 -0.09375q0 -0.15625 -0.078125 -0.28125q-0.0625 -0.125 -0.28125 -0.359375q-0.40625 -0.359375 -0.875 -0.515625q-0.46875 -0.15625 -1.078125 -0.15625q-0.546875 0 -1.03125 0.234375q-0.484375 0.21875 -0.875 0.640625q-0.375 0.421875 -0.609375 1.015625q-0.21875 0.59375 -0.21875 1.328125q0 0.71875 0.21875 1.328125q0.234375 0.609375 0.625 1.0625q0.390625 0.4375 0.9375 0.703125q0.546875 0.25 1.1875 0.25q0.4375 0 0.828125 -0.125q0.390625 -0.125 0.734375 -0.359375q0.359375 -0.234375 0.65625 -0.5625l0.78125 0.90625q-0.625 0.671875 -1.40625 1.015625q-0.765625 0.328125 -1.671875 0.328125l0 0zm18.65625 0q-0.921875 0 -1.71875 -0.328125q-0.78125 -0.34375 -1.359375 -0.9375q-0.5625 -0.59375 -0.875 -1.40625q-0.3125 -0.8125 -0.3125 -1.78125q0 -0.953125 0.3125 -1.765625q0.3125 -0.8125 0.875 -1.40625q0.578125 -0.59375 1.359375 -0.921875q0.796875 -0.34375 1.703125 -0.34375q1.046875 0 1.875 0.421875q0.828125 0.40625 1.359375 1.15625l-0.84375 0.828125l-0.125 0.125l-0.09375 -0.09375q0 -0.15625 -0.078125 -0.28125q-0.0625 -0.125 -0.28125 -0.359375q-0.40625 -0.359375 -0.875 -0.515625q-0.46875 -0.15625 -1.078125 -0.15625q-0.546875 0 -1.03125 0.234375q-0.484375 0.21875 -0.875 0.640625q-0.375 0.421875 -0.609375 1.015625q-0.21875 0.59375 -0.21875 1.328125q0 0.71875 0.21875 1.328125q0.234375 0.609375 0.625 1.0625q0.390625 0.4375 0.9375 0.703125q0.546875 0.25 1.1875 0.25q0.4375 0 0.828125 -0.125q0.390625 -0.125 0.734375 -0.359375q0.359375 -0.234375 0.65625 -0.5625l0.78125 0.90625q-0.625 0.671875 -1.40625 1.015625q-0.765625 0.328125 -1.671875 0.328125l0 0zm5.140625 2.90625l0 -11.640625l1.359375 0l0 1.6875q0.203125 -0.65625 0.578125 -1.0625q0.390625 -0.421875 0.90625 -0.609375q0.515625 -0.203125 1.109375 -0.203125q0.703125 0 1.34375 0.28125q0.65625 0.265625 1.140625 0.8125q0.5 0.53125 0.78125 1.359375q0.296875 0.8125 0.296875 1.9375q0 1.125 -0.3125 1.984375q-0.3125 0.84375 -0.828125 1.421875q-0.5 0.5625 -1.15625 0.859375q-0.640625 0.28125 -1.3125 0.28125q-0.5 0 -0.984375 -0.15625q-0.46875 -0.15625 -0.859375 -0.453125q-0.390625 -0.3125 -0.6875 -0.734375l0 4.234375l-1.375 0zm3.6875 -4.078125q0.453125 0 0.875 -0.15625q0.4375 -0.15625 0.78125 -0.53125q0.359375 -0.375 0.5625 -1.015625q0.203125 -0.65625 0.203125 -1.59375q0 -1.03125 -0.265625 -1.75q-0.25 -0.71875 -0.75 -1.109375q-0.484375 -0.390625 -1.203125 -0.4375q-0.515625 -0.03125 -0.984375 0.15625q-0.453125 0.1875 -0.8125 0.625q-0.34375 0.421875 -0.546875 1.125q-0.1875 0.6875 -0.1875 1.6875q0.015625 0.59375 0.125 1.078125q0.109375 0.484375 0.3125 0.859375q0.21875 0.359375 0.484375 0.59375q0.28125 0.21875 0.640625 0.34375q0.359375 0.125 0.765625 0.125zm18.515625 1.125q-1.171875 0 -2.0625 -0.5625q-0.875 -0.578125 -1.375 -1.578125q-0.5 -1.0 -0.5 -2.28125q0 -1.3125 0.5 -2.3125q0.5 -1.0 1.375 -1.5625q0.890625 -0.578125 2.0625 -0.578125q1.15625 0 2.03125 0.578125q0.890625 0.5625 1.390625 1.5625q0.5 1.0 0.5 2.3125q0 1.28125 -0.5 2.28125q-0.5 1.0 -1.390625 1.578125q-0.875 0.5625 -2.03125 0.5625zm0 -1.125q0.734375 0 1.296875 -0.421875q0.5625 -0.4375 0.890625 -1.1875q0.328125 -0.75 0.328125 -1.71875q0 -0.96875 -0.328125 -1.703125q-0.328125 -0.75 -0.890625 -1.171875q-0.5625 -0.421875 -1.296875 -0.421875q-0.734375 0 -1.3125 0.421875q-0.5625 0.421875 -0.890625 1.171875q-0.328125 0.734375 -0.328125 1.703125q0 0.96875 0.328125 1.71875q0.328125 0.75 0.890625 1.1875q0.578125 0.421875 1.3125 0.421875zm9.625 1.171875q-0.53125 0 -1.0 -0.15625q-0.46875 -0.15625 -0.84375 -0.453125q-0.375 -0.296875 -0.6875 -0.71875l-0.453125 1.125l-0.859375 0l0 -12.40625l1.34375 0l0.1875 0l0 0.125q-0.125 0.125 -0.15625 0.25q-0.015625 0.125 -0.015625 0.453125l0 4.359375q0.203125 -0.34375 0.484375 -0.609375q0.28125 -0.28125 0.609375 -0.484375q0.34375 -0.21875 0.71875 -0.3125q0.375 -0.109375 0.71875 -0.109375q0.78125 0 1.421875 0.28125q0.65625 0.265625 1.109375 0.8125q0.46875 0.546875 0.71875 1.375q0.265625 0.8125 0.265625 1.921875q0 1.140625 -0.3125 2.0q-0.296875 0.84375 -0.8125 1.421875q-0.5 0.5625 -1.140625 0.84375q-0.625 0.28125 -1.296875 0.28125l0 0zm-0.171875 -1.1875q0.453125 0 0.859375 -0.171875q0.421875 -0.171875 0.75 -0.546875q0.34375 -0.390625 0.53125 -1.015625q0.203125 -0.640625 0.203125 -1.546875q0 -0.84375 -0.171875 -1.46875q-0.15625 -0.625 -0.46875 -1.03125q-0.3125 -0.421875 -0.75 -0.609375q-0.421875 -0.203125 -0.921875 -0.203125q-0.6875 0 -1.21875 0.421875q-0.53125 0.421875 -0.828125 1.1875q-0.296875 0.75 -0.296875 1.734375q0 0.734375 0.125 1.328125q0.140625 0.59375 0.40625 1.03125q0.265625 0.421875 0.703125 0.65625q0.4375 0.234375 1.078125 0.234375l0 0zm8.15625 4.234375q-0.8125 0 -1.53125 -0.296875q-0.71875 -0.296875 -1.203125 -0.90625l0.75 -1.0l0.109375 -0.15625l0.109375 0.078125q0.046875 0.15625 0.09375 0.296875q0.0625 0.140625 0.265625 0.359375q0.265625 0.203125 0.609375 0.328125q0.34375 0.140625 0.765625 0.140625q0.5625 0 1.0 -0.265625q0.4375 -0.25 0.671875 -0.78125q0.25 -0.53125 0.25 -1.375l0 -7.09375l-3.171875 0l0 -1.109375l4.546875 0l0 8.125q0 1.28125 -0.453125 2.09375q-0.453125 0.8125 -1.1875 1.1875q-0.734375 0.375 -1.625 0.375l0 0zm2.46875 -13.5625q-0.390625 0 -0.671875 -0.28125q-0.28125 -0.28125 -0.28125 -0.671875q0 -0.40625 0.265625 -0.6875q0.28125 -0.28125 0.6875 -0.28125q0.390625 0 0.671875 0.296875q0.296875 0.28125 0.296875 0.671875q0 0.390625 -0.296875 0.671875q-0.28125 0.28125 -0.671875 0.28125zm8.3125 10.5q-0.9375 0 -1.703125 -0.28125q-0.765625 -0.296875 -1.3125 -0.859375q-0.546875 -0.5625 -0.84375 -1.390625q-0.296875 -0.828125 -0.296875 -1.890625q0 -1.078125 0.296875 -1.921875q0.3125 -0.84375 0.84375 -1.40625q0.53125 -0.578125 1.25 -0.875q0.71875 -0.296875 1.515625 -0.296875q0.734375 0 1.359375 0.25q0.640625 0.234375 1.109375 0.734375q0.46875 0.5 0.734375 1.265625q0.265625 0.75 0.265625 1.796875q0 0.15625 -0.015625 0.3125q0 0.15625 -0.015625 0.3125l-6.0625 0q0.03125 0.8125 0.265625 1.421875q0.25 0.609375 0.640625 1.0q0.390625 0.375 0.90625 0.5625q0.515625 0.1875 1.09375 0.1875q0.453125 0 0.84375 -0.09375q0.390625 -0.109375 0.734375 -0.328125q0.34375 -0.21875 0.625 -0.53125l0.75 0.71875q-0.359375 0.4375 -0.8125 0.734375q-0.453125 0.296875 -1.0 0.4375q-0.546875 0.140625 -1.171875 0.140625zm-2.828125 -5.296875l4.6875 0q0 -0.59375 -0.15625 -1.0625q-0.15625 -0.484375 -0.453125 -0.828125q-0.28125 -0.34375 -0.6875 -0.515625q-0.390625 -0.1875 -0.90625 -0.1875q-0.4375 0 -0.84375 0.15625q-0.40625 0.140625 -0.75 0.46875q-0.328125 0.328125 -0.5625 0.8125q-0.234375 0.484375 -0.328125 1.15625zm12.390625 5.3125q-0.921875 0 -1.71875 -0.328125q-0.78125 -0.34375 -1.359375 -0.9375q-0.5625 -0.59375 -0.875 -1.40625q-0.3125 -0.8125 -0.3125 -1.78125q0 -0.953125 0.3125 -1.765625q0.3125 -0.8125 0.875 -1.40625q0.578125 -0.59375 1.359375 -0.921875q0.796875 -0.34375 1.703125 -0.34375q1.046875 0 1.875 0.421875q0.828125 0.40625 1.359375 1.15625l-0.84375 0.828125l-0.125 0.125l-0.09375 -0.09375q0 -0.15625 -0.078125 -0.28125q-0.0625 -0.125 -0.28125 -0.359375q-0.40625 -0.359375 -0.875 -0.515625q-0.46875 -0.15625 -1.078125 -0.15625q-0.546875 0 -1.03125 0.234375q-0.484375 0.21875 -0.875 0.640625q-0.375 0.421875 -0.609375 1.015625q-0.21875 0.59375 -0.21875 1.328125q0 0.71875 0.21875 1.328125q0.234375 0.609375 0.625 1.0625q0.390625 0.4375 0.9375 0.703125q0.546875 0.25 1.1875 0.25q0.4375 0 0.828125 -0.125q0.390625 -0.125 0.734375 -0.359375q0.359375 -0.234375 0.65625 -0.5625l0.78125 0.90625q-0.625 0.671875 -1.40625 1.015625q-0.765625 0.328125 -1.671875 0.328125l0 0zm9.59375 -0.078125q-0.828125 0 -1.34375 -0.265625q-0.515625 -0.28125 -0.796875 -0.875q-0.28125 -0.59375 -0.375 -1.484375q-0.078125 -0.890625 -0.046875 -2.125l0.234375 -6.078125l1.390625 -0.171875l0.1875 -0.015625l0.015625 0.125q-0.09375 0.125 -0.15625 0.265625q-0.0625 0.125 -0.09375 0.4375l-0.171875 2.109375l0.0625 0.34375l-0.140625 3.078125q-0.046875 1.421875 0.078125 2.203125q0.125 0.765625 0.453125 1.0625q0.34375 0.28125 0.90625 0.28125q0.625 0 1.09375 -0.234375q0.46875 -0.25 1.0 -0.625l0.40625 1.0625q-0.625 0.46875 -1.296875 0.6875q-0.671875 0.21875 -1.40625 0.21875l0 0zm-4.265625 -8.65625l6.125 0l0 1.109375l-6.125 0l0 -1.109375zm12.453125 8.734375q-0.4375 0 -0.765625 -0.3125q-0.3125 -0.3125 -0.3125 -0.75q0 -0.421875 0.3125 -0.734375q0.328125 -0.328125 0.765625 -0.328125q0.4375 0 0.75 0.328125q0.3125 0.3125 0.3125 0.734375q0 0.4375 -0.3125 0.75q-0.3125 0.3125 -0.75 0.3125zm9.859375 0q-0.53125 0 -1.0 -0.15625q-0.46875 -0.15625 -0.84375 -0.453125q-0.375 -0.296875 -0.6875 -0.71875l-0.453125 1.125l-0.859375 0l0 -12.40625l1.34375 0l0.1875 0l0 0.125q-0.125 0.125 -0.15625 0.25q-0.015625 0.125 -0.015625 0.453125l0 4.359375q0.203125 -0.34375 0.484375 -0.609375q0.28125 -0.28125 0.609375 -0.484375q0.34375 -0.21875 0.71875 -0.3125q0.375 -0.109375 0.71875 -0.109375q0.78125 0 1.421875 0.28125q0.65625 0.265625 1.109375 0.8125q0.46875 0.546875 0.71875 1.375q0.265625 0.8125 0.265625 1.921875q0 1.140625 -0.3125 2.0q-0.296875 0.84375 -0.8125 1.421875q-0.5 0.5625 -1.140625 0.84375q-0.625 0.28125 -1.296875 0.28125l0 0zm-0.171875 -1.1875q0.453125 0 0.859375 -0.171875q0.421875 -0.171875 0.75 -0.546875q0.34375 -0.390625 0.53125 -1.015625q0.203125 -0.640625 0.203125 -1.546875q0 -0.84375 -0.171875 -1.46875q-0.15625 -0.625 -0.46875 -1.03125q-0.3125 -0.421875 -0.75 -0.609375q-0.421875 -0.203125 -0.921875 -0.203125q-0.6875 0 -1.21875 0.421875q-0.53125 0.421875 -0.828125 1.1875q-0.296875 0.75 -0.296875 1.734375q0 0.734375 0.125 1.328125q0.140625 0.59375 0.40625 1.03125q0.265625 0.421875 0.703125 0.65625q0.4375 0.234375 1.078125 0.234375l0 0zm6.0 0.984375l0 -1.078125l2.53125 0l0 -10.25l-2.421875 0l0 -1.078125l3.78125 0l0 11.328125l2.5 0l0 1.078125l-6.390625 0zm12.53125 0.15625q-1.171875 0 -2.0625 -0.5625q-0.875 -0.578125 -1.375 -1.578125q-0.5 -1.0 -0.5 -2.28125q0 -1.3125 0.5 -2.3125q0.5 -1.0 1.375 -1.5625q0.890625 -0.578125 2.0625 -0.578125q1.15625 0 2.03125 0.578125q0.890625 0.5625 1.390625 1.5625q0.5 1.0 0.5 2.3125q0 1.28125 -0.5 2.28125q-0.5 1.0 -1.390625 1.578125q-0.875 0.5625 -2.03125 0.5625zm0 -1.125q0.734375 0 1.296875 -0.421875q0.5625 -0.4375 0.890625 -1.1875q0.328125 -0.75 0.328125 -1.71875q0 -0.96875 -0.328125 -1.703125q-0.328125 -0.75 -0.890625 -1.171875q-0.5625 -0.421875 -1.296875 -0.421875q-0.734375 0 -1.3125 0.421875q-0.5625 0.421875 -0.890625 1.171875q-0.328125 0.734375 -0.328125 1.703125q0 0.96875 0.328125 1.71875q0.328125 0.75 0.890625 1.1875q0.578125 0.421875 1.3125 0.421875zm9.625 1.171875q-0.53125 0 -1.0 -0.15625q-0.46875 -0.15625 -0.84375 -0.453125q-0.375 -0.296875 -0.6875 -0.71875l-0.453125 1.125l-0.859375 0l0 -12.40625l1.34375 0l0.1875 0l0 0.125q-0.125 0.125 -0.15625 0.25q-0.015625 0.125 -0.015625 0.453125l0 4.359375q0.203125 -0.34375 0.484375 -0.609375q0.28125 -0.28125 0.609375 -0.484375q0.34375 -0.21875 0.71875 -0.3125q0.375 -0.109375 0.71875 -0.109375q0.78125 0 1.421875 0.28125q0.65625 0.265625 1.109375 0.8125q0.46875 0.546875 0.71875 1.375q0.265625 0.8125 0.265625 1.921875q0 1.140625 -0.3125 2.0q-0.296875 0.84375 -0.8125 1.421875q-0.5 0.5625 -1.140625 0.84375q-0.625 0.28125 -1.296875 0.28125l0 0zm-0.171875 -1.1875q0.453125 0 0.859375 -0.171875q0.421875 -0.171875 0.75 -0.546875q0.34375 -0.390625 0.53125 -1.015625q0.203125 -0.640625 0.203125 -1.546875q0 -0.84375 -0.171875 -1.46875q-0.15625 -0.625 -0.46875 -1.03125q-0.3125 -0.421875 -0.75 -0.609375q-0.421875 -0.203125 -0.921875 -0.203125q-0.6875 0 -1.21875 0.421875q-0.53125 0.421875 -0.828125 1.1875q-0.296875 0.75 -0.296875 1.734375q0 0.734375 0.125 1.328125q0.140625 0.59375 0.40625 1.03125q0.265625 0.421875 0.703125 0.65625q0.4375 0.234375 1.078125 0.234375l0 0zm14.5625 0.984375l0 -8.53125l1.234375 0l0 0.84375q0.203125 -0.3125 0.46875 -0.546875q0.28125 -0.234375 0.609375 -0.359375q0.328125 -0.140625 0.65625 -0.140625q0.375 0 0.6875 0.171875q0.328125 0.15625 0.53125 0.4375q0.21875 0.265625 0.296875 0.640625q0.171875 -0.375 0.453125 -0.640625q0.296875 -0.28125 0.671875 -0.4375q0.390625 -0.171875 0.796875 -0.171875q0.421875 0 0.734375 0.171875q0.328125 0.171875 0.53125 0.46875q0.203125 0.28125 0.296875 0.6875q0.09375 0.390625 0.078125 0.859375l0 6.546875l-1.234375 0l0 -6.046875q0 -0.78125 -0.109375 -1.125q-0.09375 -0.359375 -0.28125 -0.46875q-0.1875 -0.109375 -0.40625 -0.109375q-0.359375 0 -0.671875 0.328125q-0.296875 0.328125 -0.5 0.8125q-0.1875 0.484375 -0.1875 0.96875l0 5.640625l-1.25 0l0 -5.9375q0 -1.0625 -0.203125 -1.40625q-0.1875 -0.359375 -0.734375 -0.359375q-0.203125 0 -0.421875 0.140625q-0.21875 0.140625 -0.40625 0.390625q-0.171875 0.25 -0.296875 0.625q-0.109375 0.375 -0.109375 0.859375l0 5.6875l-1.234375 0zm10.484375 0l0 -1.078125l2.1875 0l0 -6.359375l-2.0625 0l0 -1.09375l3.40625 0l0 7.453125l2.0 0l0 1.078125l-5.53125 0zm2.78125 -10.3125q-0.390625 0 -0.671875 -0.28125q-0.28125 -0.28125 -0.28125 -0.671875q0 -0.40625 0.265625 -0.6875q0.28125 -0.28125 0.6875 -0.28125q0.390625 0 0.671875 0.296875q0.296875 0.28125 0.296875 0.671875q0 0.390625 -0.296875 0.671875q-0.28125 0.28125 -0.671875 0.28125zm6.03125 10.3125l0 -8.53125l1.3125 0l0 1.515625q0.328125 -0.515625 0.765625 -0.890625q0.453125 -0.390625 1.0 -0.609375q0.546875 -0.21875 1.125 -0.21875q0.703125 0 1.265625 0.359375q0.5625 0.359375 0.890625 1.140625q0.34375 0.78125 0.34375 2.0625l0 5.171875l-1.3125 0l0 -5.125q0 -0.90625 -0.203125 -1.4375q-0.203125 -0.53125 -0.5625 -0.765625q-0.359375 -0.234375 -0.796875 -0.234375q-0.4375 0 -0.875 0.1875q-0.4375 0.1875 -0.8125 0.53125q-0.375 0.34375 -0.609375 0.84375q-0.21875 0.484375 -0.21875 1.09375l0 4.90625l-1.3125 0zm9.84375 0l0 -1.078125l2.1875 0l0 -6.359375l-2.0625 0l0 -1.09375l3.40625 0l0 7.453125l2.0 0l0 1.078125l-5.53125 0zm2.78125 -10.3125q-0.390625 0 -0.671875 -0.28125q-0.28125 -0.28125 -0.28125 -0.671875q0 -0.40625 0.265625 -0.6875q0.28125 -0.28125 0.6875 -0.28125q0.390625 0 0.671875 0.296875q0.296875 0.28125 0.296875 0.671875q0 0.390625 -0.296875 0.671875q-0.28125 0.28125 -0.671875 0.28125zm9.359375 10.46875q-1.171875 0 -2.0625 -0.5625q-0.875 -0.578125 -1.375 -1.578125q-0.5 -1.0 -0.5 -2.28125q0 -1.3125 0.5 -2.3125q0.5 -1.0 1.375 -1.5625q0.890625 -0.578125 2.0625 -0.578125q1.15625 0 2.03125 0.578125q0.890625 0.5625 1.390625 1.5625q0.5 1.0 0.5 2.3125q0 1.28125 -0.5 2.28125q-0.5 1.0 -1.390625 1.578125q-0.875 0.5625 -2.03125 0.5625zm0 -1.125q0.734375 0 1.296875 -0.421875q0.5625 -0.4375 0.890625 -1.1875q0.328125 -0.75 0.328125 -1.71875q0 -0.96875 -0.328125 -1.703125q-0.328125 -0.75 -0.890625 -1.171875q-0.5625 -0.421875 -1.296875 -0.421875q-0.734375 0 -1.3125 0.421875q-0.5625 0.421875 -0.890625 1.171875q-0.328125 0.734375 -0.328125 1.703125q0 0.96875 0.328125 1.71875q0.328125 0.75 0.890625 1.1875q0.578125 0.421875 1.3125 0.421875zm6.953125 1.75l-1.109375 -0.53125l5.84375 -12.65625l1.125 0.578125l-5.859375 12.609375zm11.390625 -0.59375q-0.640625 0 -1.265625 -0.28125q-0.625 -0.28125 -1.140625 -0.84375q-0.515625 -0.5625 -0.8125 -1.40625q-0.296875 -0.859375 -0.296875 -2.0q0 -1.171875 0.3125 -2.0q0.3125 -0.84375 0.828125 -1.375q0.53125 -0.53125 1.15625 -0.78125q0.640625 -0.25 1.296875 -0.25q0.59375 0 1.0625 0.1875q0.484375 0.1875 0.84375 0.515625q0.375 0.328125 0.578125 0.765625l0 -5.125l1.234375 0l0.1875 0l0 0.125q-0.109375 0.125 -0.140625 0.25q-0.03125 0.125 -0.03125 0.453125l0.015625 10.25q0 0.34375 0.03125 0.671875q0.03125 0.328125 0.15625 0.65625l-1.328125 0q-0.09375 -0.21875 -0.125 -0.4375q-0.03125 -0.234375 -0.046875 -0.4375q-0.015625 -0.21875 -0.015625 -0.453125q-0.25 0.453125 -0.625 0.796875q-0.375 0.34375 -0.84375 0.53125q-0.46875 0.1875 -1.03125 0.1875l0 0zm0.21875 -1.171875q0.609375 0 1.03125 -0.25q0.4375 -0.265625 0.6875 -0.71875q0.265625 -0.453125 0.390625 -1.0625q0.125 -0.609375 0.125 -1.296875q0 -0.953125 -0.25 -1.703125q-0.234375 -0.75 -0.765625 -1.1875q-0.515625 -0.453125 -1.34375 -0.453125q-0.546875 0 -1.0 0.21875q-0.4375 0.21875 -0.734375 0.625q-0.28125 0.40625 -0.4375 0.984375q-0.140625 0.5625 -0.140625 1.28125q0 1.0625 0.28125 1.859375q0.28125 0.796875 0.8125 1.25q0.546875 0.453125 1.34375 0.453125l0 0zm8.6875 1.1875q-1.453125 0 -2.234375 -0.65625q-0.78125 -0.671875 -0.78125 -1.6875q0 -0.6875 0.328125 -1.234375q0.328125 -0.5625 0.921875 -0.9375q0.59375 -0.390625 1.375 -0.59375q0.78125 -0.203125 1.65625 -0.203125q0.3125 0 0.640625 0.015625q0.328125 0 0.6875 0.03125q0.375 0.03125 0.765625 0.078125l0.03125 1.03125q-0.328125 -0.0625 -0.671875 -0.078125q-0.34375 -0.03125 -0.6875 -0.046875q-0.328125 -0.03125 -0.65625 -0.03125q-0.671875 0 -1.234375 0.125q-0.546875 0.109375 -0.96875 0.328125q-0.40625 0.21875 -0.640625 0.578125q-0.21875 0.359375 -0.21875 0.859375q0 0.390625 0.140625 0.671875q0.140625 0.265625 0.375 0.421875q0.25 0.15625 0.578125 0.234375q0.328125 0.0625 0.71875 0.0625q0.734375 0 1.296875 -0.21875q0.578125 -0.234375 0.96875 -0.6875q0.40625 -0.453125 0.609375 -1.09375q0.203125 -0.65625 0.203125 -1.5q0 -1.265625 -0.296875 -1.96875q-0.296875 -0.71875 -0.890625 -1.015625q-0.578125 -0.296875 -1.5 -0.296875q-0.609375 0 -1.203125 0.234375q-0.59375 0.234375 -1.078125 0.71875l-0.65625 -0.859375q0.59375 -0.59375 1.375 -0.890625q0.78125 -0.3125 1.65625 -0.3125q0.84375 0 1.53125 0.21875q0.6875 0.203125 1.1875 0.6875q0.5 0.46875 0.765625 1.265625q0.265625 0.796875 0.265625 2.015625l0 4.53125l-1.453125 0l0 -1.3125q-0.234375 0.46875 -0.59375 0.765625q-0.34375 0.296875 -0.734375 0.46875q-0.390625 0.15625 -0.796875 0.21875q-0.40625 0.0625 -0.78125 0.0625zm10.96875 -0.078125q-0.828125 0 -1.34375 -0.265625q-0.515625 -0.28125 -0.796875 -0.875q-0.28125 -0.59375 -0.375 -1.484375q-0.078125 -0.890625 -0.046875 -2.125l0.234375 -6.078125l1.390625 -0.171875l0.1875 -0.015625l0.015625 0.125q-0.09375 0.125 -0.15625 0.265625q-0.0625 0.125 -0.09375 0.4375l-0.171875 2.109375l0.0625 0.34375l-0.140625 3.078125q-0.046875 1.421875 0.078125 2.203125q0.125 0.765625 0.453125 1.0625q0.34375 0.28125 0.90625 0.28125q0.625 0 1.09375 -0.234375q0.46875 -0.25 1.0 -0.625l0.40625 1.0625q-0.625 0.46875 -1.296875 0.6875q-0.671875 0.21875 -1.40625 0.21875l0 0zm-4.265625 -8.65625l6.125 0l0 1.109375l-6.125 0l0 -1.109375zm11.953125 8.734375q-1.453125 0 -2.234375 -0.65625q-0.78125 -0.671875 -0.78125 -1.6875q0 -0.6875 0.328125 -1.234375q0.328125 -0.5625 0.921875 -0.9375q0.59375 -0.390625 1.375 -0.59375q0.78125 -0.203125 1.65625 -0.203125q0.3125 0 0.640625 0.015625q0.328125 0 0.6875 0.03125q0.375 0.03125 0.765625 0.078125l0.03125 1.03125q-0.328125 -0.0625 -0.671875 -0.078125q-0.34375 -0.03125 -0.6875 -0.046875q-0.328125 -0.03125 -0.65625 -0.03125q-0.671875 0 -1.234375 0.125q-0.546875 0.109375 -0.96875 0.328125q-0.40625 0.21875 -0.640625 0.578125q-0.21875 0.359375 -0.21875 0.859375q0 0.390625 0.140625 0.671875q0.140625 0.265625 0.375 0.421875q0.25 0.15625 0.578125 0.234375q0.328125 0.0625 0.71875 0.0625q0.734375 0 1.296875 -0.21875q0.578125 -0.234375 0.96875 -0.6875q0.40625 -0.453125 0.609375 -1.09375q0.203125 -0.65625 0.203125 -1.5q0 -1.265625 -0.296875 -1.96875q-0.296875 -0.71875 -0.890625 -1.015625q-0.578125 -0.296875 -1.5 -0.296875q-0.609375 0 -1.203125 0.234375q-0.59375 0.234375 -1.078125 0.71875l-0.65625 -0.859375q0.59375 -0.59375 1.375 -0.890625q0.78125 -0.3125 1.65625 -0.3125q0.84375 0 1.53125 0.21875q0.6875 0.203125 1.1875 0.6875q0.5 0.46875 0.765625 1.265625q0.265625 0.796875 0.265625 2.015625l0 4.53125l-1.453125 0l0 -1.3125q-0.234375 0.46875 -0.59375 0.765625q-0.34375 0.296875 -0.734375 0.46875q-0.390625 0.15625 -0.796875 0.21875q-0.40625 0.0625 -0.78125 0.0625zm7.6875 0.578125l-1.109375 -0.53125l5.84375 -12.65625l1.125 0.578125l-5.859375 12.609375zm11.703125 -0.625q-1.171875 0 -2.0625 -0.5625q-0.875 -0.578125 -1.375 -1.578125q-0.5 -1.0 -0.5 -2.28125q0 -1.3125 0.5 -2.3125q0.5 -1.0 1.375 -1.5625q0.890625 -0.578125 2.0625 -0.578125q1.15625 0 2.03125 0.578125q0.890625 0.5625 1.390625 1.5625q0.5 1.0 0.5 2.3125q0 1.28125 -0.5 2.28125q-0.5 1.0 -1.390625 1.578125q-0.875 0.5625 -2.03125 0.5625zm0 -1.125q0.734375 0 1.296875 -0.421875q0.5625 -0.4375 0.890625 -1.1875q0.328125 -0.75 0.328125 -1.71875q0 -0.96875 -0.328125 -1.703125q-0.328125 -0.75 -0.890625 -1.171875q-0.5625 -0.421875 -1.296875 -0.421875q-0.734375 0 -1.3125 0.421875q-0.5625 0.421875 -0.890625 1.171875q-0.328125 0.734375 -0.328125 1.703125q0 0.96875 0.328125 1.71875q0.328125 0.75 0.890625 1.1875q0.578125 0.421875 1.3125 0.421875zm9.625 1.171875q-0.53125 0 -1.0 -0.15625q-0.46875 -0.15625 -0.84375 -0.453125q-0.375 -0.296875 -0.6875 -0.71875l-0.453125 1.125l-0.859375 0l0 -12.40625l1.34375 0l0.1875 0l0 0.125q-0.125 0.125 -0.15625 0.25q-0.015625 0.125 -0.015625 0.453125l0 4.359375q0.203125 -0.34375 0.484375 -0.609375q0.28125 -0.28125 0.609375 -0.484375q0.34375 -0.21875 0.71875 -0.3125q0.375 -0.109375 0.71875 -0.109375q0.78125 0 1.421875 0.28125q0.65625 0.265625 1.109375 0.8125q0.46875 0.546875 0.71875 1.375q0.265625 0.8125 0.265625 1.921875q0 1.140625 -0.3125 2.0q-0.296875 0.84375 -0.8125 1.421875q-0.5 0.5625 -1.140625 0.84375q-0.625 0.28125 -1.296875 0.28125l0 0zm-0.171875 -1.1875q0.453125 0 0.859375 -0.171875q0.421875 -0.171875 0.75 -0.546875q0.34375 -0.390625 0.53125 -1.015625q0.203125 -0.640625 0.203125 -1.546875q0 -0.84375 -0.171875 -1.46875q-0.15625 -0.625 -0.46875 -1.03125q-0.3125 -0.421875 -0.75 -0.609375q-0.421875 -0.203125 -0.921875 -0.203125q-0.6875 0 -1.21875 0.421875q-0.53125 0.421875 -0.828125 1.1875q-0.296875 0.75 -0.296875 1.734375q0 0.734375 0.125 1.328125q0.140625 0.59375 0.40625 1.03125q0.265625 0.421875 0.703125 0.65625q0.4375 0.234375 1.078125 0.234375l0 0zm8.15625 4.234375q-0.8125 0 -1.53125 -0.296875q-0.71875 -0.296875 -1.203125 -0.90625l0.75 -1.0l0.109375 -0.15625l0.109375 0.078125q0.046875 0.15625 0.09375 0.296875q0.0625 0.140625 0.265625 0.359375q0.265625 0.203125 0.609375 0.328125q0.34375 0.140625 0.765625 0.140625q0.5625 0 1.0 -0.265625q0.4375 -0.25 0.671875 -0.78125q0.25 -0.53125 0.25 -1.375l0 -7.09375l-3.171875 0l0 -1.109375l4.546875 0l0 8.125q0 1.28125 -0.453125 2.09375q-0.453125 0.8125 -1.1875 1.1875q-0.734375 0.375 -1.625 0.375l0 0zm2.46875 -13.5625q-0.390625 0 -0.671875 -0.28125q-0.28125 -0.28125 -0.28125 -0.671875q0 -0.40625 0.265625 -0.6875q0.28125 -0.28125 0.6875 -0.28125q0.390625 0 0.671875 0.296875q0.296875 0.28125 0.296875 0.671875q0 0.390625 -0.296875 0.671875q-0.28125 0.28125 -0.671875 0.28125zm8.3125 10.5q-0.9375 0 -1.703125 -0.28125q-0.765625 -0.296875 -1.3125 -0.859375q-0.546875 -0.5625 -0.84375 -1.390625q-0.296875 -0.828125 -0.296875 -1.890625q0 -1.078125 0.296875 -1.921875q0.3125 -0.84375 0.84375 -1.40625q0.53125 -0.578125 1.25 -0.875q0.71875 -0.296875 1.515625 -0.296875q0.734375 0 1.359375 0.25q0.640625 0.234375 1.109375 0.734375q0.46875 0.5 0.734375 1.265625q0.265625 0.75 0.265625 1.796875q0 0.15625 -0.015625 0.3125q0 0.15625 -0.015625 0.3125l-6.0625 0q0.03125 0.8125 0.265625 1.421875q0.25 0.609375 0.640625 1.0q0.390625 0.375 0.90625 0.5625q0.515625 0.1875 1.09375 0.1875q0.453125 0 0.84375 -0.09375q0.390625 -0.109375 0.734375 -0.328125q0.34375 -0.21875 0.625 -0.53125l0.75 0.71875q-0.359375 0.4375 -0.8125 0.734375q-0.453125 0.296875 -1.0 0.4375q-0.546875 0.140625 -1.171875 0.140625zm-2.828125 -5.296875l4.6875 0q0 -0.59375 -0.15625 -1.0625q-0.15625 -0.484375 -0.453125 -0.828125q-0.28125 -0.34375 -0.6875 -0.515625q-0.390625 -0.1875 -0.90625 -0.1875q-0.4375 0 -0.84375 0.15625q-0.40625 0.140625 -0.75 0.46875q-0.328125 0.328125 -0.5625 0.8125q-0.234375 0.484375 -0.328125 1.15625zm12.390625 5.3125q-0.921875 0 -1.71875 -0.328125q-0.78125 -0.34375 -1.359375 -0.9375q-0.5625 -0.59375 -0.875 -1.40625q-0.3125 -0.8125 -0.3125 -1.78125q0 -0.953125 0.3125 -1.765625q0.3125 -0.8125 0.875 -1.40625q0.578125 -0.59375 1.359375 -0.921875q0.796875 -0.34375 1.703125 -0.34375q1.046875 0 1.875 0.421875q0.828125 0.40625 1.359375 1.15625l-0.84375 0.828125l-0.125 0.125l-0.09375 -0.09375q0 -0.15625 -0.078125 -0.28125q-0.0625 -0.125 -0.28125 -0.359375q-0.40625 -0.359375 -0.875 -0.515625q-0.46875 -0.15625 -1.078125 -0.15625q-0.546875 0 -1.03125 0.234375q-0.484375 0.21875 -0.875 0.640625q-0.375 0.421875 -0.609375 1.015625q-0.21875 0.59375 -0.21875 1.328125q0 0.71875 0.21875 1.328125q0.234375 0.609375 0.625 1.0625q0.390625 0.4375 0.9375 0.703125q0.546875 0.25 1.1875 0.25q0.4375 0 0.828125 -0.125q0.390625 -0.125 0.734375 -0.359375q0.359375 -0.234375 0.65625 -0.5625l0.78125 0.90625q-0.625 0.671875 -1.40625 1.015625q-0.765625 0.328125 -1.671875 0.328125l0 0zm9.59375 -0.078125q-0.828125 0 -1.34375 -0.265625q-0.515625 -0.28125 -0.796875 -0.875q-0.28125 -0.59375 -0.375 -1.484375q-0.078125 -0.890625 -0.046875 -2.125l0.234375 -6.078125l1.390625 -0.171875l0.1875 -0.015625l0.015625 0.125q-0.09375 0.125 -0.15625 0.265625q-0.0625 0.125 -0.09375 0.4375l-0.171875 2.109375l0.0625 0.34375l-0.140625 3.078125q-0.046875 1.421875 0.078125 2.203125q0.125 0.765625 0.453125 1.0625q0.34375 0.28125 0.90625 0.28125q0.625 0 1.09375 -0.234375q0.46875 -0.25 1.0 -0.625l0.40625 1.0625q-0.625 0.46875 -1.296875 0.6875q-0.671875 0.21875 -1.40625 0.21875l0 0zm-4.265625 -8.65625l6.125 0l0 1.109375l-6.125 0l0 -1.109375zm12.453125 8.734375q-0.4375 0 -0.765625 -0.3125q-0.3125 -0.3125 -0.3125 -0.75q0 -0.421875 0.3125 -0.734375q0.328125 -0.328125 0.765625 -0.328125q0.4375 0 0.75 0.328125q0.3125 0.3125 0.3125 0.734375q0 0.4375 -0.3125 0.75q-0.3125 0.3125 -0.75 0.3125zm9.859375 0q-0.53125 0 -1.0 -0.15625q-0.46875 -0.15625 -0.84375 -0.453125q-0.375 -0.296875 -0.6875 -0.71875l-0.453125 1.125l-0.859375 0l0 -12.40625l1.34375 0l0.1875 0l0 0.125q-0.125 0.125 -0.15625 0.25q-0.015625 0.125 -0.015625 0.453125l0 4.359375q0.203125 -0.34375 0.484375 -0.609375q0.28125 -0.28125 0.609375 -0.484375q0.34375 -0.21875 0.71875 -0.3125q0.375 -0.109375 0.71875 -0.109375q0.78125 0 1.421875 0.28125q0.65625 0.265625 1.109375 0.8125q0.46875 0.546875 0.71875 1.375q0.265625 0.8125 0.265625 1.921875q0 1.140625 -0.3125 2.0q-0.296875 0.84375 -0.8125 1.421875q-0.5 0.5625 -1.140625 0.84375q-0.625 0.28125 -1.296875 0.28125l0 0zm-0.171875 -1.1875q0.453125 0 0.859375 -0.171875q0.421875 -0.171875 0.75 -0.546875q0.34375 -0.390625 0.53125 -1.015625q0.203125 -0.640625 0.203125 -1.546875q0 -0.84375 -0.171875 -1.46875q-0.15625 -0.625 -0.46875 -1.03125q-0.3125 -0.421875 -0.75 -0.609375q-0.421875 -0.203125 -0.921875 -0.203125q-0.6875 0 -1.21875 0.421875q-0.53125 0.421875 -0.828125 1.1875q-0.296875 0.75 -0.296875 1.734375q0 0.734375 0.125 1.328125q0.140625 0.59375 0.40625 1.03125q0.265625 0.421875 0.703125 0.65625q0.4375 0.234375 1.078125 0.234375l0 0zm6.0 0.984375l0 -1.078125l2.53125 0l0 -10.25l-2.421875 0l0 -1.078125l3.78125 0l0 11.328125l2.5 0l0 1.078125l-6.390625 0zm12.53125 0.15625q-1.171875 0 -2.0625 -0.5625q-0.875 -0.578125 -1.375 -1.578125q-0.5 -1.0 -0.5 -2.28125q0 -1.3125 0.5 -2.3125q0.5 -1.0 1.375 -1.5625q0.890625 -0.578125 2.0625 -0.578125q1.15625 0 2.03125 0.578125q0.890625 0.5625 1.390625 1.5625q0.5 1.0 0.5 2.3125q0 1.28125 -0.5 2.28125q-0.5 1.0 -1.390625 1.578125q-0.875 0.5625 -2.03125 0.5625zm0 -1.125q0.734375 0 1.296875 -0.421875q0.5625 -0.4375 0.890625 -1.1875q0.328125 -0.75 0.328125 -1.71875q0 -0.96875 -0.328125 -1.703125q-0.328125 -0.75 -0.890625 -1.171875q-0.5625 -0.421875 -1.296875 -0.421875q-0.734375 0 -1.3125 0.421875q-0.5625 0.421875 -0.890625 1.171875q-0.328125 0.734375 -0.328125 1.703125q0 0.96875 0.328125 1.71875q0.328125 0.75 0.890625 1.1875q0.578125 0.421875 1.3125 0.421875zm9.625 1.171875q-0.53125 0 -1.0 -0.15625q-0.46875 -0.15625 -0.84375 -0.453125q-0.375 -0.296875 -0.6875 -0.71875l-0.453125 1.125l-0.859375 0l0 -12.40625l1.34375 0l0.1875 0l0 0.125q-0.125 0.125 -0.15625 0.25q-0.015625 0.125 -0.015625 0.453125l0 4.359375q0.203125 -0.34375 0.484375 -0.609375q0.28125 -0.28125 0.609375 -0.484375q0.34375 -0.21875 0.71875 -0.3125q0.375 -0.109375 0.71875 -0.109375q0.78125 0 1.421875 0.28125q0.65625 0.265625 1.109375 0.8125q0.46875 0.546875 0.71875 1.375q0.265625 0.8125 0.265625 1.921875q0 1.140625 -0.3125 2.0q-0.296875 0.84375 -0.8125 1.421875q-0.5 0.5625 -1.140625 0.84375q-0.625 0.28125 -1.296875 0.28125l0 0zm-0.171875 -1.1875q0.453125 0 0.859375 -0.171875q0.421875 -0.171875 0.75 -0.546875q0.34375 -0.390625 0.53125 -1.015625q0.203125 -0.640625 0.203125 -1.546875q0 -0.84375 -0.171875 -1.46875q-0.15625 -0.625 -0.46875 -1.03125q-0.3125 -0.421875 -0.75 -0.609375q-0.421875 -0.203125 -0.921875 -0.203125q-0.6875 0 -1.21875 0.421875q-0.53125 0.421875 -0.828125 1.1875q-0.296875 0.75 -0.296875 1.734375q0 0.734375 0.125 1.328125q0.140625 0.59375 0.40625 1.03125q0.265625 0.421875 0.703125 0.65625q0.4375 0.234375 1.078125 0.234375l0 0z" fill-rule="nonzero"/><path fill="#eeeeee" d="m548.16534 48.375328l325.3228 0l0 45.259842l-325.3228 0z" fill-rule="evenodd"/><path fill="#000000" d="m557.97784 77.85533l0 -9.75l1.40625 0l0 0.96875q0.234375 -0.375 0.546875 -0.640625q0.3125 -0.265625 0.671875 -0.40625q0.375 -0.15625 0.765625 -0.15625q0.421875 0 0.78125 0.1875q0.375 0.171875 0.609375 0.5q0.25 0.3125 0.328125 0.75q0.203125 -0.4375 0.53125 -0.75q0.328125 -0.328125 0.765625 -0.5q0.4375 -0.1875 0.90625 -0.1875q0.484375 0 0.84375 0.203125q0.375 0.1875 0.609375 0.515625q0.234375 0.328125 0.34375 0.796875q0.109375 0.453125 0.078125 0.984375l0 7.484375l-1.40625 0l0 -6.90625q0 -0.90625 -0.125 -1.296875q-0.109375 -0.40625 -0.328125 -0.515625q-0.203125 -0.125 -0.46875 -0.125q-0.40625 0 -0.765625 0.375q-0.34375 0.359375 -0.5625 0.921875q-0.21875 0.546875 -0.21875 1.109375l0 6.4375l-1.4375 0l0 -6.78125q0 -1.21875 -0.21875 -1.625q-0.21875 -0.40625 -0.84375 -0.40625q-0.234375 0 -0.484375 0.171875q-0.234375 0.15625 -0.453125 0.453125q-0.21875 0.28125 -0.34375 0.703125q-0.125 0.421875 -0.125 0.984375l0 6.5l-1.40625 0zm11.992249 0l0 -1.234375l2.484375 0l0 -7.28125l-2.359375 0l0 -1.234375l3.890625 0l0 8.515625l2.296875 0l0 1.234375l-6.3125 0zm3.171875 -11.796875q-0.453125 0 -0.78125 -0.3125q-0.3125 -0.328125 -0.3125 -0.765625q0 -0.46875 0.3125 -0.78125q0.3125 -0.3281288 0.78125 -0.3281288q0.4375 0 0.765625 0.3281288q0.34375 0.328125 0.34375 0.78125q0 0.4375 -0.34375 0.765625q-0.328125 0.3125 -0.765625 0.3125zm6.8828735 11.796875l0 -9.75l1.5 0l0 1.734375q0.375 -0.59375 0.890625 -1.03125q0.515625 -0.4375 1.125 -0.6875q0.625 -0.25 1.28125 -0.25q0.8125 0 1.453125 0.40625q0.640625 0.40625 1.015625 1.3125q0.390625 0.890625 0.390625 2.359375l0 5.90625l-1.484375 0l0 -5.859375q0 -1.03125 -0.234375 -1.640625q-0.234375 -0.609375 -0.640625 -0.875q-0.40625 -0.265625 -0.921875 -0.265625q-0.484375 0 -0.984375 0.21875q-0.5 0.203125 -0.9375 0.609375q-0.421875 0.390625 -0.6875 0.953125q-0.265625 0.546875 -0.265625 1.25l0 5.609375l-1.5 0zm11.2734375 0l0 -1.234375l2.484375 0l0 -7.28125l-2.359375 0l0 -1.234375l3.890625 0l0 8.515625l2.296875 0l0 1.234375l-6.3125 0zm3.171875 -11.796875q-0.453125 0 -0.78125 -0.3125q-0.3125 -0.328125 -0.3125 -0.765625q0 -0.46875 0.3125 -0.78125q0.3125 -0.3281288 0.78125 -0.3281288q0.4375 0 0.765625 0.3281288q0.34375 0.328125 0.34375 0.78125q0 0.4375 -0.34375 0.765625q-0.328125 0.3125 -0.765625 0.3125zm10.679749 11.96875q-1.3125 0 -2.328125 -0.640625q-1.015625 -0.65625 -1.59375 -1.796875q-0.578125 -1.140625 -0.578125 -2.625q0 -1.484375 0.578125 -2.625q0.578125 -1.140625 1.59375 -1.78125q1.015625 -0.65625 2.328125 -0.65625q1.328125 0 2.34375 0.65625q1.015625 0.640625 1.578125 1.78125q0.578125 1.140625 0.578125 2.625q0 1.484375 -0.578125 2.625q-0.5625 1.140625 -1.578125 1.796875q-1.015625 0.640625 -2.34375 0.640625zm0 -1.28125q0.859375 0 1.5 -0.484375q0.640625 -0.5 1.015625 -1.34375q0.375 -0.859375 0.375 -1.96875q0 -1.109375 -0.375 -1.953125q-0.375 -0.859375 -1.015625 -1.34375q-0.640625 -0.484375 -1.5 -0.484375q-0.828125 0 -1.484375 0.484375q-0.640625 0.484375 -1.015625 1.34375q-0.375 0.84375 -0.375 1.953125q0 1.109375 0.375 1.96875q0.375 0.84375 1.015625 1.34375q0.65625 0.484375 1.484375 0.484375zm7.9609985 2.0l-1.265625 -0.609375l6.6875 -14.468754l1.28125 0.6718788l-6.703125 14.40625zm13.023499 -0.671875q-0.734375 0 -1.453125 -0.3125q-0.71875 -0.328125 -1.3125 -0.96875q-0.578125 -0.640625 -0.921875 -1.625q-0.34375 -0.984375 -0.34375 -2.28125q0 -1.34375 0.359375 -2.296875q0.375 -0.953125 0.96875 -1.546875q0.59375 -0.609375 1.3125 -0.890625q0.734375 -0.296875 1.484375 -0.296875q0.6875 0 1.21875 0.21875q0.546875 0.203125 0.953125 0.578125q0.421875 0.375 0.65625 0.890625l0 -5.875004l1.421875 0l0.203125 0l0 0.15625q-0.125 0.125 -0.15625 0.2812538q-0.03125 0.140625 -0.03125 0.5l0.015625 11.734375q0 0.390625 0.03125 0.765625q0.03125 0.359375 0.1875 0.75l-1.515625 0q-0.109375 -0.25 -0.15625 -0.5q-0.03125 -0.265625 -0.046875 -0.515625q-0.015625 -0.25 -0.015625 -0.5q-0.296875 0.515625 -0.71875 0.90625q-0.421875 0.390625 -0.96875 0.609375q-0.53125 0.21875 -1.171875 0.21875l0 0zm0.234375 -1.34375q0.703125 0 1.1875 -0.28125q0.5 -0.296875 0.796875 -0.8125q0.296875 -0.53125 0.4375 -1.21875q0.140625 -0.703125 0.140625 -1.484375q0 -1.09375 -0.28125 -1.953125q-0.265625 -0.859375 -0.875 -1.359375q-0.59375 -0.515625 -1.53125 -0.515625q-0.640625 0 -1.140625 0.25q-0.5 0.25 -0.828125 0.71875q-0.328125 0.46875 -0.5 1.125q-0.171875 0.640625 -0.171875 1.453125q0 1.21875 0.3125 2.140625q0.328125 0.90625 0.9375 1.421875q0.625 0.515625 1.515625 0.515625l0 0zm9.9453125 1.359375q-1.65625 0 -2.5625 -0.75q-0.890625 -0.765625 -0.890625 -1.9375q0 -0.78125 0.375 -1.40625q0.390625 -0.640625 1.0625 -1.078125q0.671875 -0.4375 1.5625 -0.671875q0.90625 -0.234375 1.90625 -0.234375q0.359375 0 0.734375 0.015625q0.375 0 0.78125 0.03125q0.421875 0.03125 0.875 0.109375l0.03125 1.171875q-0.375 -0.0625 -0.78125 -0.09375q-0.390625 -0.046875 -0.78125 -0.0625q-0.375 -0.015625 -0.734375 -0.015625q-0.765625 0 -1.40625 0.125q-0.640625 0.125 -1.109375 0.390625q-0.46875 0.25 -0.734375 0.65625q-0.25 0.40625 -0.25 0.984375q0 0.4375 0.15625 0.75q0.171875 0.3125 0.4375 0.5q0.28125 0.171875 0.65625 0.265625q0.375 0.078125 0.828125 0.078125q0.828125 0 1.46875 -0.265625q0.65625 -0.265625 1.109375 -0.78125q0.46875 -0.515625 0.703125 -1.25q0.234375 -0.75 0.234375 -1.71875q0 -1.453125 -0.34375 -2.25q-0.34375 -0.8125 -1.015625 -1.15625q-0.671875 -0.34375 -1.71875 -0.34375q-0.703125 0 -1.390625 0.265625q-0.671875 0.265625 -1.234375 0.828125l-0.734375 -0.984375q0.671875 -0.6875 1.5625 -1.015625q0.90625 -0.34375 1.90625 -0.34375q0.953125 0 1.734375 0.234375q0.796875 0.234375 1.359375 0.78125q0.578125 0.53125 0.875 1.453125q0.3125 0.921875 0.3125 2.296875l0 5.1875l-1.65625 0l0 -1.5q-0.28125 0.546875 -0.671875 0.890625q-0.390625 0.328125 -0.84375 0.515625q-0.453125 0.171875 -0.921875 0.25q-0.46875 0.078125 -0.890625 0.078125zm12.539124 -0.078125q-0.9375 0 -1.53125 -0.3125q-0.59375 -0.328125 -0.921875 -1.0q-0.3125 -0.671875 -0.421875 -1.6875q-0.09375 -1.03125 -0.046875 -2.453125l0.265625 -6.953125l1.59375 -0.1875l0.21875 -0.015625l0.015625 0.140625q-0.109375 0.15625 -0.1875 0.3125q-0.0625 0.140625 -0.109375 0.5l-0.1875 2.421875l0.0625 0.375l-0.15625 3.515625q-0.0625 1.625 0.078125 2.515625q0.15625 0.875 0.53125 1.21875q0.390625 0.328125 1.03125 0.328125q0.703125 0 1.25 -0.28125q0.546875 -0.28125 1.140625 -0.703125l0.46875 1.21875q-0.71875 0.53125 -1.5 0.796875q-0.765625 0.25 -1.59375 0.25l0 0zm-4.875 -9.90625l7.015625 0l0 1.265625l-7.015625 0l0 -1.265625zm13.664124 9.984375q-1.65625 0 -2.5625 -0.75q-0.890625 -0.765625 -0.890625 -1.9375q0 -0.78125 0.375 -1.40625q0.390625 -0.640625 1.0625 -1.078125q0.671875 -0.4375 1.5625 -0.671875q0.90625 -0.234375 1.90625 -0.234375q0.359375 0 0.734375 0.015625q0.375 0 0.78125 0.03125q0.421875 0.03125 0.875 0.109375l0.03125 1.171875q-0.375 -0.0625 -0.78125 -0.09375q-0.390625 -0.046875 -0.78125 -0.0625q-0.375 -0.015625 -0.734375 -0.015625q-0.765625 0 -1.40625 0.125q-0.640625 0.125 -1.109375 0.390625q-0.46875 0.25 -0.734375 0.65625q-0.25 0.40625 -0.25 0.984375q0 0.4375 0.15625 0.75q0.171875 0.3125 0.4375 0.5q0.28125 0.171875 0.65625 0.265625q0.375 0.078125 0.828125 0.078125q0.828125 0 1.46875 -0.265625q0.65625 -0.265625 1.109375 -0.78125q0.46875 -0.515625 0.703125 -1.25q0.234375 -0.75 0.234375 -1.71875q0 -1.453125 -0.34375 -2.25q-0.34375 -0.8125 -1.015625 -1.15625q-0.671875 -0.34375 -1.71875 -0.34375q-0.703125 0 -1.390625 0.265625q-0.671875 0.265625 -1.234375 0.828125l-0.734375 -0.984375q0.671875 -0.6875 1.5625 -1.015625q0.90625 -0.34375 1.90625 -0.34375q0.953125 0 1.734375 0.234375q0.796875 0.234375 1.359375 0.78125q0.578125 0.53125 0.875 1.453125q0.3125 0.921875 0.3125 2.296875l0 5.1875l-1.65625 0l0 -1.5q-0.28125 0.546875 -0.671875 0.890625q-0.390625 0.328125 -0.84375 0.515625q-0.453125 0.171875 -0.921875 0.25q-0.46875 0.078125 -0.890625 0.078125zm8.789124 0.65625l-1.265625 -0.609375l6.6875 -14.468754l1.28125 0.6718788l-6.703125 14.40625zm13.3671875 -0.71875q-1.3125 0 -2.328125 -0.640625q-1.015625 -0.65625 -1.59375 -1.796875q-0.578125 -1.140625 -0.578125 -2.625q0 -1.484375 0.578125 -2.625q0.578125 -1.140625 1.59375 -1.78125q1.015625 -0.65625 2.328125 -0.65625q1.328125 0 2.34375 0.65625q1.015625 0.640625 1.578125 1.78125q0.578125 1.140625 0.578125 2.625q0 1.484375 -0.578125 2.625q-0.5625 1.140625 -1.578125 1.796875q-1.015625 0.640625 -2.34375 0.640625zm0 -1.28125q0.859375 0 1.5 -0.484375q0.640625 -0.5 1.015625 -1.34375q0.375 -0.859375 0.375 -1.96875q0 -1.109375 -0.375 -1.953125q-0.375 -0.859375 -1.015625 -1.34375q-0.640625 -0.484375 -1.5 -0.484375q-0.828125 0 -1.484375 0.484375q-0.640625 0.484375 -1.015625 1.34375q-0.375 0.84375 -0.375 1.953125q0 1.109375 0.375 1.96875q0.375 0.84375 1.015625 1.34375q0.65625 0.484375 1.484375 0.484375zm11.007874 1.34375q-0.59375 0 -1.125 -0.1875q-0.53125 -0.171875 -0.96875 -0.515625q-0.4375 -0.34375 -0.78125 -0.8125l-0.53125 1.28125l-0.984375 0l0 -14.187504l1.53125 0l0.21875 0l0 0.15625q-0.125 0.125 -0.15625 0.2812538q-0.03125 0.140625 -0.03125 0.5l0 5.0q0.234375 -0.390625 0.546875 -0.703125q0.328125 -0.328125 0.703125 -0.5625q0.390625 -0.234375 0.8125 -0.34375q0.421875 -0.125 0.828125 -0.125q0.90625 0 1.640625 0.3125q0.734375 0.3125 1.265625 0.9375q0.53125 0.625 0.8125 1.5625q0.296875 0.9375 0.296875 2.203125q0 1.296875 -0.34375 2.28125q-0.34375 0.984375 -0.9375 1.640625q-0.578125 0.640625 -1.3125 0.96875q-0.71875 0.3125 -1.484375 0.3125l0 0zm-0.1875 -1.359375q0.515625 0 0.984375 -0.1875q0.484375 -0.203125 0.859375 -0.640625q0.390625 -0.4375 0.609375 -1.15625q0.234375 -0.734375 0.234375 -1.78125q0 -0.953125 -0.203125 -1.65625q-0.1875 -0.71875 -0.546875 -1.1875q-0.34375 -0.484375 -0.84375 -0.703125q-0.484375 -0.21875 -1.046875 -0.21875q-0.796875 0 -1.40625 0.484375q-0.609375 0.46875 -0.953125 1.34375q-0.328125 0.859375 -0.328125 1.984375q0 0.828125 0.140625 1.515625q0.15625 0.6875 0.453125 1.1875q0.3125 0.484375 0.8125 0.75q0.5 0.265625 1.234375 0.265625l0 0zm9.320374 4.84375q-0.921875 0 -1.75 -0.34375q-0.8125 -0.34375 -1.359375 -1.03125l0.84375 -1.15625l0.125 -0.15625l0.140625 0.078125q0.03125 0.171875 0.09375 0.328125q0.0625 0.15625 0.296875 0.421875q0.3125 0.234375 0.703125 0.375q0.390625 0.15625 0.875 0.15625q0.640625 0 1.140625 -0.296875q0.515625 -0.28125 0.78125 -0.890625q0.28125 -0.609375 0.28125 -1.59375l0 -8.09375l-3.625 0l0 -1.265625l5.1875 0l0 9.28125q0 1.46875 -0.515625 2.390625q-0.515625 0.9375 -1.359375 1.359375q-0.84375 0.4375 -1.859375 0.4375l0 0zm2.84375 -15.515625q-0.453125 0 -0.78125 -0.3125q-0.3125 -0.328125 -0.3125 -0.765625q0 -0.46875 0.3125 -0.78125q0.3125 -0.3281288 0.78125 -0.3281288q0.4375 0 0.765625 0.3281288q0.34375 0.328125 0.34375 0.78125q0 0.4375 -0.34375 0.765625q-0.328125 0.3125 -0.765625 0.3125zm9.476624 12.015625q-1.0625 0 -1.9375 -0.328125q-0.875 -0.34375 -1.5 -0.984375q-0.625 -0.640625 -0.96875 -1.578125q-0.34375 -0.953125 -0.34375 -2.171875q0 -1.234375 0.34375 -2.1875q0.359375 -0.96875 0.96875 -1.609375q0.609375 -0.65625 1.421875 -1.0q0.828125 -0.34375 1.75 -0.34375q0.828125 0 1.546875 0.28125q0.734375 0.28125 1.265625 0.84375q0.53125 0.5625 0.828125 1.4375q0.3125 0.875 0.3125 2.0625q0 0.171875 -0.015625 0.359375q0 0.1875 -0.015625 0.34375l-6.9375 0q0.046875 0.9375 0.3125 1.640625q0.28125 0.6875 0.734375 1.125q0.453125 0.4375 1.03125 0.65625q0.59375 0.203125 1.25 0.203125q0.515625 0 0.953125 -0.109375q0.453125 -0.125 0.84375 -0.359375q0.40625 -0.25 0.71875 -0.609375l0.859375 0.828125q-0.40625 0.484375 -0.9375 0.828125q-0.515625 0.34375 -1.140625 0.5q-0.609375 0.171875 -1.34375 0.171875zm-3.21875 -6.0625l5.359375 0q0 -0.6875 -0.1875 -1.21875q-0.171875 -0.546875 -0.515625 -0.9375q-0.328125 -0.40625 -0.78125 -0.609375q-0.453125 -0.203125 -1.03125 -0.203125q-0.515625 0 -0.984375 0.171875q-0.453125 0.171875 -0.84375 0.546875q-0.375 0.375 -0.640625 0.9375q-0.265625 0.546875 -0.375 1.3125zm14.1640625 6.078125q-1.0625 0 -1.96875 -0.375q-0.890625 -0.390625 -1.546875 -1.0625q-0.640625 -0.6875 -1.015625 -1.609375q-0.359375 -0.9375 -0.359375 -2.046875q0 -1.09375 0.359375 -2.015625q0.375 -0.9375 1.015625 -1.609375q0.65625 -0.6875 1.546875 -1.0625q0.90625 -0.390625 1.953125 -0.390625q1.1875 0 2.140625 0.484375q0.953125 0.46875 1.546875 1.328125l-0.96875 0.9375l-0.140625 0.15625l-0.109375 -0.109375q0 -0.171875 -0.078125 -0.3125q-0.078125 -0.15625 -0.328125 -0.421875q-0.46875 -0.421875 -1.0 -0.59375q-0.53125 -0.171875 -1.234375 -0.171875q-0.625 0 -1.1875 0.265625q-0.546875 0.25 -0.984375 0.734375q-0.4375 0.46875 -0.703125 1.15625q-0.25 0.6875 -0.25 1.515625q0 0.828125 0.25 1.53125q0.265625 0.6875 0.71875 1.203125q0.453125 0.5 1.078125 0.796875q0.625 0.28125 1.34375 0.28125q0.5 0 0.9375 -0.125q0.453125 -0.140625 0.859375 -0.40625q0.40625 -0.28125 0.75 -0.65625l0.890625 1.046875q-0.71875 0.765625 -1.609375 1.15625q-0.875 0.375 -1.90625 0.375l0 0zm10.960999 -0.078125q-0.9375 0 -1.53125 -0.3125q-0.59375 -0.328125 -0.921875 -1.0q-0.3125 -0.671875 -0.421875 -1.6875q-0.09375 -1.03125 -0.046875 -2.453125l0.265625 -6.953125l1.59375 -0.1875l0.21875 -0.015625l0.015625 0.140625q-0.109375 0.15625 -0.1875 0.3125q-0.0625 0.140625 -0.109375 0.5l-0.1875 2.421875l0.0625 0.375l-0.15625 3.515625q-0.0625 1.625 0.078125 2.515625q0.15625 0.875 0.53125 1.21875q0.390625 0.328125 1.03125 0.328125q0.703125 0 1.25 -0.28125q0.546875 -0.28125 1.140625 -0.703125l0.46875 1.21875q-0.71875 0.53125 -1.5 0.796875q-0.765625 0.25 -1.59375 0.25l0 0zm-4.875 -9.90625l7.015625 0l0 1.265625l-7.015625 0l0 -1.265625zm14.242249 9.984375q-0.515625 0 -0.875 -0.359375q-0.359375 -0.359375 -0.359375 -0.859375q0 -0.484375 0.359375 -0.84375q0.359375 -0.375 0.875 -0.375q0.484375 0 0.84375 0.375q0.375 0.359375 0.375 0.84375q0 0.5 -0.375 0.859375q-0.359375 0.359375 -0.84375 0.359375zm11.257874 0q-0.59375 0 -1.125 -0.1875q-0.53125 -0.171875 -0.96875 -0.515625q-0.4375 -0.34375 -0.78125 -0.8125l-0.53125 1.28125l-0.984375 0l0 -14.187504l1.53125 0l0.21875 0l0 0.15625q-0.125 0.125 -0.15625 0.2812538q-0.03125 0.140625 -0.03125 0.5l0 5.0q0.234375 -0.390625 0.546875 -0.703125q0.328125 -0.328125 0.703125 -0.5625q0.390625 -0.234375 0.8125 -0.34375q0.421875 -0.125 0.828125 -0.125q0.90625 0 1.640625 0.3125q0.734375 0.3125 1.265625 0.9375q0.53125 0.625 0.8125 1.5625q0.296875 0.9375 0.296875 2.203125q0 1.296875 -0.34375 2.28125q-0.34375 0.984375 -0.9375 1.640625q-0.578125 0.640625 -1.3125 0.96875q-0.71875 0.3125 -1.484375 0.3125l0 0zm-0.1875 -1.359375q0.515625 0 0.984375 -0.1875q0.484375 -0.203125 0.859375 -0.640625q0.390625 -0.4375 0.609375 -1.15625q0.234375 -0.734375 0.234375 -1.78125q0 -0.953125 -0.203125 -1.65625q-0.1875 -0.71875 -0.546875 -1.1875q-0.34375 -0.484375 -0.84375 -0.703125q-0.484375 -0.21875 -1.046875 -0.21875q-0.796875 0 -1.40625 0.484375q-0.609375 0.46875 -0.953125 1.34375q-0.328125 0.859375 -0.328125 1.984375q0 0.828125 0.140625 1.515625q0.15625 0.6875 0.453125 1.1875q0.3125 0.484375 0.8125 0.75q0.5 0.265625 1.234375 0.265625l0 0zm6.8671875 1.125l0 -1.234375l2.875 0l0 -11.71875l-2.75 0l0 -1.2343788l4.3125 0l0 12.953129l2.859375 0l0 1.234375l-7.296875 0zm14.304749 0.171875q-1.3125 0 -2.328125 -0.640625q-1.015625 -0.65625 -1.59375 -1.796875q-0.578125 -1.140625 -0.578125 -2.625q0 -1.484375 0.578125 -2.625q0.578125 -1.140625 1.59375 -1.78125q1.015625 -0.65625 2.328125 -0.65625q1.328125 0 2.34375 0.65625q1.015625 0.640625 1.578125 1.78125q0.578125 1.140625 0.578125 2.625q0 1.484375 -0.578125 2.625q-0.5625 1.140625 -1.578125 1.796875q-1.015625 0.640625 -2.34375 0.640625zm0 -1.28125q0.859375 0 1.5 -0.484375q0.640625 -0.5 1.015625 -1.34375q0.375 -0.859375 0.375 -1.96875q0 -1.109375 -0.375 -1.953125q-0.375 -0.859375 -1.015625 -1.34375q-0.640625 -0.484375 -1.5 -0.484375q-0.828125 0 -1.484375 0.484375q-0.640625 0.484375 -1.015625 1.34375q-0.375 0.84375 -0.375 1.953125q0 1.109375 0.375 1.96875q0.375 0.84375 1.015625 1.34375q0.65625 0.484375 1.484375 0.484375zm11.007874 1.34375q-0.59375 0 -1.125 -0.1875q-0.53125 -0.171875 -0.96875 -0.515625q-0.4375 -0.34375 -0.78125 -0.8125l-0.53125 1.28125l-0.984375 0l0 -14.187504l1.53125 0l0.21875 0l0 0.15625q-0.125 0.125 -0.15625 0.2812538q-0.03125 0.140625 -0.03125 0.5l0 5.0q0.234375 -0.390625 0.546875 -0.703125q0.328125 -0.328125 0.703125 -0.5625q0.390625 -0.234375 0.8125 -0.34375q0.421875 -0.125 0.828125 -0.125q0.90625 0 1.640625 0.3125q0.734375 0.3125 1.265625 0.9375q0.53125 0.625 0.8125 1.5625q0.296875 0.9375 0.296875 2.203125q0 1.296875 -0.34375 2.28125q-0.34375 0.984375 -0.9375 1.640625q-0.578125 0.640625 -1.3125 0.96875q-0.71875 0.3125 -1.484375 0.3125l0 0zm-0.1875 -1.359375q0.515625 0 0.984375 -0.1875q0.484375 -0.203125 0.859375 -0.640625q0.390625 -0.4375 0.609375 -1.15625q0.234375 -0.734375 0.234375 -1.78125q0 -0.953125 -0.203125 -1.65625q-0.1875 -0.71875 -0.546875 -1.1875q-0.34375 -0.484375 -0.84375 -0.703125q-0.484375 -0.21875 -1.046875 -0.21875q-0.796875 0 -1.40625 0.484375q-0.609375 0.46875 -0.953125 1.34375q-0.328125 0.859375 -0.328125 1.984375q0 0.828125 0.140625 1.515625q0.15625 0.6875 0.453125 1.1875q0.3125 0.484375 0.8125 0.75q0.5 0.265625 1.234375 0.265625l0 0z" fill-rule="nonzero"/><path fill="#000000" fill-opacity="0.0" d="m448.5013 229.66667l98.48819 -180.66142" fill-rule="evenodd"/><path stroke="#c72e49" stroke-width="2.0" stroke-linejoin="round" stroke-linecap="butt" stroke-dasharray="8.0,6.0" d="m448.5013 229.66667l98.48819 -180.66142" fill-rule="evenodd"/><path fill="#000000" fill-opacity="0.0" d="m449.5013 342.66666l98.992096 158.36221" fill-rule="evenodd"/><path stroke="#c72e49" stroke-width="2.0" stroke-linejoin="round" stroke-linecap="butt" stroke-dasharray="8.0,6.0" d="m449.5013 342.66666l98.992096 158.36221" fill-rule="evenodd"/><path fill="#edf7f7" d="m41.910763 227.66667l408.12598 0l0 114.20473l-408.12598 0z" fill-rule="evenodd"/><path stroke="#c72e49" stroke-width="2.0" stroke-linejoin="round" stroke-linecap="butt" d="m41.910763 227.66667l408.12598 0l0 114.20473l-408.12598 0z" fill-rule="evenodd"/><path fill="#ffffff" d="m63.987503 242.50348l149.94221 0l0 35.504456l-149.94221 0z" fill-rule="evenodd"/><path stroke="#c72e49" stroke-width="2.0" stroke-linejoin="round" stroke-linecap="butt" d="m63.987503 242.50348l149.94221 0l0 35.504456l-149.94221 0z" fill-rule="evenodd"/><path fill="#ffffff" d="m75.53322 252.35535l3.9657288 0l0 15.800751l-3.9657288 0z" fill-rule="evenodd"/><path stroke="#c72e49" stroke-width="1.0" stroke-linejoin="round" stroke-linecap="butt" d="m75.53322 252.35535l3.9657288 0l0 15.800751l-3.9657288 0z" fill-rule="evenodd"/><path fill="#ffffff" d="m97.44109 252.35535l3.9657288 0l0 15.800751l-3.9657288 0z" fill-rule="evenodd"/><path stroke="#c72e49" stroke-width="1.0" stroke-linejoin="round" stroke-linecap="butt" d="m97.44109 252.35535l3.9657288 0l0 15.800751l-3.9657288 0z" fill-rule="evenodd"/><path fill="#ffffff" d="m86.48716 252.35535l3.9657211 0l0 15.800751l-3.9657211 0z" fill-rule="evenodd"/><path stroke="#c72e49" stroke-width="1.0" stroke-linejoin="round" stroke-linecap="butt" d="m86.48716 252.35535l3.9657211 0l0 15.800751l-3.9657211 0z" fill-rule="evenodd"/><path fill="#ffffff" d="m134.72536 260.2557l0 0c0 -3.5462341 2.8746338 -6.4210052 6.4207 -6.4210052l0 0c1.7028656 0 3.3359985 0.6764984 4.5401154 1.880661c1.2041168 1.2041931 1.8805847 2.8374023 1.8805847 4.540344l0 0c0 3.5462341 -2.874649 6.4210205 -6.4207 6.4210205l0 0c-3.5460663 0 -6.4207 -2.8747864 -6.4207 -6.4210205z" fill-rule="evenodd"/><path stroke="#c72e49" stroke-width="1.0" stroke-linejoin="round" stroke-linecap="butt" d="m134.72536 260.2557l0 0c0 -3.5462341 2.8746338 -6.4210052 6.4207 -6.4210052l0 0c1.7028656 0 3.3359985 0.6764984 4.5401154 1.880661c1.2041168 1.2041931 1.8805847 2.8374023 1.8805847 4.540344l0 0c0 3.5462341 -2.874649 6.4210205 -6.4207 6.4210205l0 0c-3.5460663 0 -6.4207 -2.8747864 -6.4207 -6.4210205z" fill-rule="evenodd"/><path fill="#ffffff" d="m178.37161 252.35535l3.9657135 0l0 15.800751l-3.9657135 0z" fill-rule="evenodd"/><path stroke="#c72e49" stroke-width="1.0" stroke-linejoin="round" stroke-linecap="butt" d="m178.37161 252.35535l3.9657135 0l0 15.800751l-3.9657135 0z" fill-rule="evenodd"/><path fill="#ffffff" d="m200.27948 252.35535l3.9657288 0l0 15.800751l-3.9657288 0z" fill-rule="evenodd"/><path stroke="#c72e49" stroke-width="1.0" stroke-linejoin="round" stroke-linecap="butt" d="m200.27948 252.35535l3.9657288 0l0 15.800751l-3.9657288 0z" fill-rule="evenodd"/><path fill="#ffffff" d="m189.32555 252.35535l3.9657288 0l0 15.800751l-3.9657288 0z" fill-rule="evenodd"/><path stroke="#c72e49" stroke-width="1.0" stroke-linejoin="round" stroke-linecap="butt" d="m189.32555 252.35535l3.9657288 0l0 15.800751l-3.9657288 0z" fill-rule="evenodd"/><path fill="#ffffff" d="m271.98486 242.50351l149.9422 0l0 35.504456l-149.9422 0z" fill-rule="evenodd"/><path stroke="#c72e49" stroke-width="2.0" stroke-linejoin="round" stroke-linecap="butt" d="m271.98486 242.50351l149.9422 0l0 35.504456l-149.9422 0z" fill-rule="evenodd"/><path fill="#ffffff" d="m283.53058 252.35536l3.9657288 0l0 15.800766l-3.9657288 0z" fill-rule="evenodd"/><path stroke="#c72e49" stroke-width="1.0" stroke-linejoin="round" stroke-linecap="butt" d="m283.53058 252.35536l3.9657288 0l0 15.800766l-3.9657288 0z" fill-rule="evenodd"/><path fill="#ffffff" d="m305.43845 252.35536l3.9657288 0l0 15.800766l-3.9657288 0z" fill-rule="evenodd"/><path stroke="#c72e49" stroke-width="1.0" stroke-linejoin="round" stroke-linecap="butt" d="m305.43845 252.35536l3.9657288 0l0 15.800766l-3.9657288 0z" fill-rule="evenodd"/><path fill="#ffffff" d="m294.4845 252.35536l3.9657288 0l0 15.800766l-3.9657288 0z" fill-rule="evenodd"/><path stroke="#c72e49" stroke-width="1.0" stroke-linejoin="round" stroke-linecap="butt" d="m294.4845 252.35536l3.9657288 0l0 15.800766l-3.9657288 0z" fill-rule="evenodd"/><path fill="#ffffff" d="m342.7227 260.25574l0 0c0 -3.5462341 2.8746643 -6.4210205 6.4207153 -6.4210205l0 0c1.7028809 0 3.3359985 0.6764984 4.5401306 1.8806763c1.2041016 1.2041626 1.8805542 2.8374023 1.8805542 4.540344l0 0c0 3.5462341 -2.8746338 6.4210205 -6.420685 6.4210205l0 0c-3.546051 0 -6.4207153 -2.8747864 -6.4207153 -6.4210205z" fill-rule="evenodd"/><path stroke="#c72e49" stroke-width="1.0" stroke-linejoin="round" stroke-linecap="butt" d="m342.7227 260.25574l0 0c0 -3.5462341 2.8746643 -6.4210205 6.4207153 -6.4210205l0 0c1.7028809 0 3.3359985 0.6764984 4.5401306 1.8806763c1.2041016 1.2041626 1.8805542 2.8374023 1.8805542 4.540344l0 0c0 3.5462341 -2.8746338 6.4210205 -6.420685 6.4210205l0 0c-3.546051 0 -6.4207153 -2.8747864 -6.4207153 -6.4210205z" fill-rule="evenodd"/><path fill="#ffffff" d="m386.36896 252.35536l3.9657288 0l0 15.800766l-3.9657288 0z" fill-rule="evenodd"/><path stroke="#c72e49" stroke-width="1.0" stroke-linejoin="round" stroke-linecap="butt" d="m386.36896 252.35536l3.9657288 0l0 15.800766l-3.9657288 0z" fill-rule="evenodd"/><path fill="#ffffff" d="m408.27682 252.35536l3.9657288 0l0 15.800766l-3.9657288 0z" fill-rule="evenodd"/><path stroke="#c72e49" stroke-width="1.0" stroke-linejoin="round" stroke-linecap="butt" d="m408.27682 252.35536l3.9657288 0l0 15.800766l-3.9657288 0z" fill-rule="evenodd"/><path fill="#ffffff" d="m397.32288 252.35536l3.9657288 0l0 15.800766l-3.9657288 0z" fill-rule="evenodd"/><path stroke="#c72e49" stroke-width="1.0" stroke-linejoin="round" stroke-linecap="butt" d="m397.32288 252.35536l3.9657288 0l0 15.800766l-3.9657288 0z" fill-rule="evenodd"/><path fill="#ffffff" d="m63.987503 289.72397l149.94221 0l0 35.504456l-149.94221 0z" fill-rule="evenodd"/><path stroke="#c72e49" stroke-width="2.0" stroke-linejoin="round" stroke-linecap="butt" d="m63.987503 289.72397l149.94221 0l0 35.504456l-149.94221 0z" fill-rule="evenodd"/><path fill="#ffffff" d="m75.53322 299.5758l3.9657288 0l0 15.800751l-3.9657288 0z" fill-rule="evenodd"/><path stroke="#c72e49" stroke-width="1.0" stroke-linejoin="round" stroke-linecap="butt" d="m75.53322 299.5758l3.9657288 0l0 15.800751l-3.9657288 0z" fill-rule="evenodd"/><path fill="#ffffff" d="m97.44109 299.5758l3.9657288 0l0 15.800751l-3.9657288 0z" fill-rule="evenodd"/><path stroke="#c72e49" stroke-width="1.0" stroke-linejoin="round" stroke-linecap="butt" d="m97.44109 299.5758l3.9657288 0l0 15.800751l-3.9657288 0z" fill-rule="evenodd"/><path fill="#ffffff" d="m86.48716 299.5758l3.9657211 0l0 15.800751l-3.9657211 0z" fill-rule="evenodd"/><path stroke="#c72e49" stroke-width="1.0" stroke-linejoin="round" stroke-linecap="butt" d="m86.48716 299.5758l3.9657211 0l0 15.800751l-3.9657211 0z" fill-rule="evenodd"/><path fill="#ffffff" d="m134.72536 307.4762l0 0c0 -3.5462341 2.8746338 -6.4210205 6.4207 -6.4210205l0 0c1.7028656 0 3.3359985 0.67648315 4.5401154 1.8806763c1.2041168 1.2041626 1.8805847 2.8373718 1.8805847 4.540344l0 0c0 3.5462341 -2.874649 6.4210205 -6.4207 6.4210205l0 0c-3.5460663 0 -6.4207 -2.8747864 -6.4207 -6.4210205z" fill-rule="evenodd"/><path stroke="#c72e49" stroke-width="1.0" stroke-linejoin="round" stroke-linecap="butt" d="m134.72536 307.4762l0 0c0 -3.5462341 2.8746338 -6.4210205 6.4207 -6.4210205l0 0c1.7028656 0 3.3359985 0.67648315 4.5401154 1.8806763c1.2041168 1.2041626 1.8805847 2.8373718 1.8805847 4.540344l0 0c0 3.5462341 -2.874649 6.4210205 -6.4207 6.4210205l0 0c-3.5460663 0 -6.4207 -2.8747864 -6.4207 -6.4210205z" fill-rule="evenodd"/><path fill="#ffffff" d="m178.37161 299.5758l3.9657135 0l0 15.800751l-3.9657135 0z" fill-rule="evenodd"/><path stroke="#c72e49" stroke-width="1.0" stroke-linejoin="round" stroke-linecap="butt" d="m178.37161 299.5758l3.9657135 0l0 15.800751l-3.9657135 0z" fill-rule="evenodd"/><path fill="#ffffff" d="m200.27948 299.5758l3.9657288 0l0 15.800751l-3.9657288 0z" fill-rule="evenodd"/><path stroke="#c72e49" stroke-width="1.0" stroke-linejoin="round" stroke-linecap="butt" d="m200.27948 299.5758l3.9657288 0l0 15.800751l-3.9657288 0z" fill-rule="evenodd"/><path fill="#ffffff" d="m189.32555 299.5758l3.9657288 0l0 15.800751l-3.9657288 0z" fill-rule="evenodd"/><path stroke="#c72e49" stroke-width="1.0" stroke-linejoin="round" stroke-linecap="butt" d="m189.32555 299.5758l3.9657288 0l0 15.800751l-3.9657288 0z" fill-rule="evenodd"/><path fill="#ffffff" d="m271.98486 289.72397l149.94223 0l0 35.504456l-149.94223 0z" fill-rule="evenodd"/><path stroke="#c72e49" stroke-width="2.0" stroke-linejoin="round" stroke-linecap="butt" d="m271.98486 289.72397l149.94223 0l0 35.504456l-149.94223 0z" fill-rule="evenodd"/><path fill="#ffffff" d="m283.5306 299.5758l3.9656982 0l0 15.800751l-3.9656982 0z" fill-rule="evenodd"/><path stroke="#c72e49" stroke-width="1.0" stroke-linejoin="round" stroke-linecap="butt" d="m283.5306 299.5758l3.9656982 0l0 15.800751l-3.9656982 0z" fill-rule="evenodd"/><path fill="#ffffff" d="m305.43848 299.5758l3.9657288 0l0 15.800751l-3.9657288 0z" fill-rule="evenodd"/><path stroke="#c72e49" stroke-width="1.0" stroke-linejoin="round" stroke-linecap="butt" d="m305.43848 299.5758l3.9657288 0l0 15.800751l-3.9657288 0z" fill-rule="evenodd"/><path fill="#ffffff" d="m294.48453 299.5758l3.9657288 0l0 15.800751l-3.9657288 0z" fill-rule="evenodd"/><path stroke="#c72e49" stroke-width="1.0" stroke-linejoin="round" stroke-linecap="butt" d="m294.48453 299.5758l3.9657288 0l0 15.800751l-3.9657288 0z" fill-rule="evenodd"/><path fill="#ffffff" d="m342.72272 307.4762l0 0c0 -3.5462341 2.8746643 -6.4210205 6.4207153 -6.4210205l0 0c1.7028809 0 3.3359985 0.67648315 4.5401 1.8806763c1.2041321 1.2041626 1.8805847 2.8373718 1.8805847 4.540344l0 0c0 3.5462341 -2.8746338 6.4210205 -6.420685 6.4210205l0 0c-3.546051 0 -6.4207153 -2.8747864 -6.4207153 -6.4210205z" fill-rule="evenodd"/><path stroke="#c72e49" stroke-width="1.0" stroke-linejoin="round" stroke-linecap="butt" d="m342.72272 307.4762l0 0c0 -3.5462341 2.8746643 -6.4210205 6.4207153 -6.4210205l0 0c1.7028809 0 3.3359985 0.67648315 4.5401 1.8806763c1.2041321 1.2041626 1.8805847 2.8373718 1.8805847 4.540344l0 0c0 3.5462341 -2.8746338 6.4210205 -6.420685 6.4210205l0 0c-3.546051 0 -6.4207153 -2.8747864 -6.4207153 -6.4210205z" fill-rule="evenodd"/><path fill="#ffffff" d="m386.369 299.5758l3.9657288 0l0 15.800751l-3.9657288 0z" fill-rule="evenodd"/><path stroke="#c72e49" stroke-width="1.0" stroke-linejoin="round" stroke-linecap="butt" d="m386.369 299.5758l3.9657288 0l0 15.800751l-3.9657288 0z" fill-rule="evenodd"/><path fill="#ffffff" d="m408.27686 299.5758l3.9657288 0l0 15.800751l-3.9657288 0z" fill-rule="evenodd"/><path stroke="#c72e49" stroke-width="1.0" stroke-linejoin="round" stroke-linecap="butt" d="m408.27686 299.5758l3.9657288 0l0 15.800751l-3.9657288 0z" fill-rule="evenodd"/><path fill="#ffffff" d="m397.3229 299.5758l3.9657288 0l0 15.800751l-3.9657288 0z" fill-rule="evenodd"/><path stroke="#c72e49" stroke-width="1.0" stroke-linejoin="round" stroke-linecap="butt" d="m397.3229 299.5758l3.9657288 0l0 15.800751l-3.9657288 0z" fill-rule="evenodd"/><path fill="#000000" fill-opacity="0.0" d="m41.910763 342.85303l405.03937 0l0 42.015747l-405.03937 0z" fill-rule="evenodd"/><path fill="#ffffff" d="m127.82888 351.85303l233.20312 0l0 22.399994l-233.20312 0l0 -22.399994z" fill-rule="nonzero"/><path fill="#000000" fill-opacity="0.0" d="m127.82888 353.74728l233.20312 0l0 19.570435l-233.20312 0l0 -19.570435z" fill-rule="nonzero"/><path fill="#000000" d="m129.18826 357.36676l1.296875 0l0.171875 0l0 0.125q-0.109375 0.125 -0.140625 0.25q-0.015625 0.125 -0.015625 0.453125l0 4.5625q0.328125 -0.515625 0.78125 -0.890625q0.46875 -0.390625 0.96875 -0.609375q0.515625 -0.21875 1.046875 -0.21875q0.765625 0 1.34375 0.359375q0.59375 0.359375 0.921875 1.140625q0.328125 0.78125 0.328125 2.0625l0 5.171875l-1.3125 0l0 -5.125q0 -0.90625 -0.203125 -1.4375q-0.203125 -0.53125 -0.5625 -0.765625q-0.34375 -0.234375 -0.796875 -0.234375q-0.34375 0 -0.703125 0.125q-0.34375 0.109375 -0.671875 0.328125q-0.328125 0.21875 -0.59375 0.546875q-0.25 0.328125 -0.40625 0.75q-0.140625 0.40625 -0.140625 0.90625l0 4.90625l-1.3125 0l0 -12.40625zm13.546875 12.53125q-0.828125 0 -1.34375 -0.265625q-0.515625 -0.28125 -0.796875 -0.875q-0.28125 -0.59375 -0.375 -1.484375q-0.078125 -0.890625 -0.046875 -2.125l0.234375 -6.078125l1.390625 -0.171875l0.1875 -0.015625l0.015625 0.125q-0.09375 0.125 -0.15625 0.265625q-0.0625 0.125 -0.09375 0.4375l-0.171875 2.109375l0.0625 0.34375l-0.140625 3.078125q-0.046875 1.421875 0.078125 2.203125q0.125 0.765625 0.453125 1.0625q0.34375 0.28125 0.90625 0.28125q0.625 0 1.09375 -0.234375q0.46875 -0.25 1.0 -0.625l0.40625 1.0625q-0.625 0.46875 -1.296875 0.6875q-0.671875 0.21875 -1.40625 0.21875l0 0zm-4.265625 -8.65625l6.125 0l0 1.109375l-6.125 0l0 -1.109375zm13.59375 8.65625q-0.828125 0 -1.34375 -0.265625q-0.515625 -0.28125 -0.796875 -0.875q-0.28125 -0.59375 -0.375 -1.484375q-0.078125 -0.890625 -0.046875 -2.125l0.234375 -6.078125l1.390625 -0.171875l0.1875 -0.015625l0.015625 0.125q-0.09375 0.125 -0.15625 0.265625q-0.0625 0.125 -0.09375 0.4375l-0.171875 2.109375l0.0625 0.34375l-0.140625 3.078125q-0.046875 1.421875 0.078125 2.203125q0.125 0.765625 0.453125 1.0625q0.34375 0.28125 0.90625 0.28125q0.625 0 1.09375 -0.234375q0.46875 -0.25 1.0 -0.625l0.40625 1.0625q-0.625 0.46875 -1.296875 0.6875q-0.671875 0.21875 -1.40625 0.21875l0 0zm-4.265625 -8.65625l6.125 0l0 1.109375l-6.125 0l0 -1.109375zm9.140625 11.640625l0 -11.640625l1.359375 0l0 1.6875q0.203125 -0.65625 0.578125 -1.0625q0.390625 -0.421875 0.90625 -0.609375q0.515625 -0.203125 1.109375 -0.203125q0.703125 0 1.34375 0.28125q0.65625 0.265625 1.140625 0.8125q0.5 0.53125 0.78125 1.359375q0.296875 0.8125 0.296875 1.9375q0 1.125 -0.3125 1.984375q-0.3125 0.84375 -0.828125 1.421875q-0.5 0.5625 -1.15625 0.859375q-0.640625 0.28125 -1.3125 0.28125q-0.5 0 -0.984375 -0.15625q-0.46875 -0.15625 -0.859375 -0.453125q-0.390625 -0.3125 -0.6875 -0.734375l0 4.234375l-1.375 0zm3.6875 -4.078125q0.453125 0 0.875 -0.15625q0.4375 -0.15625 0.78125 -0.53125q0.359375 -0.375 0.5625 -1.015625q0.203125 -0.65625 0.203125 -1.59375q0 -1.03125 -0.265625 -1.75q-0.25 -0.71875 -0.75 -1.109375q-0.484375 -0.390625 -1.203125 -0.4375q-0.515625 -0.03125 -0.984375 0.15625q-0.453125 0.1875 -0.8125 0.625q-0.34375 0.421875 -0.546875 1.125q-0.1875 0.6875 -0.1875 1.6875q0.015625 0.59375 0.125 1.078125q0.109375 0.484375 0.3125 0.859375q0.21875 0.359375 0.484375 0.59375q0.28125 0.21875 0.640625 0.34375q0.359375 0.125 0.765625 0.125zm9.203125 1.15625q-0.71875 0 -1.359375 -0.15625q-0.640625 -0.140625 -1.21875 -0.4375q-0.5625 -0.296875 -1.046875 -0.75l0.75 -1.265625l0.109375 -0.171875l0.109375 0.078125q0.046875 0.140625 0.09375 0.3125q0.046875 0.15625 0.25 0.375q0.390625 0.390625 0.9375 0.640625q0.546875 0.25 1.40625 0.25q0.6875 0 1.15625 -0.15625q0.484375 -0.171875 0.75 -0.484375q0.265625 -0.3125 0.265625 -0.71875q0 -0.28125 -0.125 -0.484375q-0.109375 -0.21875 -0.359375 -0.40625q-0.25 -0.1875 -0.671875 -0.375q-0.40625 -0.1875 -1.0 -0.375q-0.96875 -0.28125 -1.703125 -0.65625q-0.71875 -0.375 -1.109375 -0.859375q-0.390625 -0.5 -0.390625 -1.125q0 -0.65625 0.34375 -1.125q0.359375 -0.484375 1.0625 -0.75q0.703125 -0.28125 1.734375 -0.28125q0.59375 0 1.078125 0.09375q0.484375 0.078125 0.890625 0.25q0.40625 0.15625 0.75 0.421875q0.359375 0.25 0.671875 0.578125l-0.765625 0.9375l-0.140625 0.140625l-0.078125 -0.09375q-0.03125 -0.140625 -0.09375 -0.28125q-0.0625 -0.140625 -0.265625 -0.34375q-0.4375 -0.34375 -0.984375 -0.515625q-0.53125 -0.171875 -1.03125 -0.171875q-0.75 0 -1.296875 0.265625q-0.53125 0.25 -0.53125 0.796875q0 0.28125 0.1875 0.546875q0.203125 0.265625 0.71875 0.546875q0.53125 0.265625 1.5 0.546875q1.0625 0.328125 1.703125 0.671875q0.640625 0.34375 0.921875 0.796875q0.296875 0.453125 0.296875 1.0625q0 0.71875 -0.390625 1.328125q-0.375 0.609375 -1.15625 0.984375q-0.78125 0.359375 -1.96875 0.359375l0 0zm9.078125 -5.9375q-0.421875 0 -0.765625 -0.3125q-0.328125 -0.3125 -0.328125 -0.75q0 -0.4375 0.328125 -0.75q0.34375 -0.328125 0.765625 -0.328125q0.4375 0 0.78125 0.328125q0.34375 0.3125 0.34375 0.75q0 0.4375 -0.34375 0.75q-0.328125 0.3125 -0.78125 0.3125zm0 5.953125q-0.46875 0 -0.78125 -0.296875q-0.3125 -0.3125 -0.3125 -0.765625q0 -0.453125 0.328125 -0.765625q0.34375 -0.3125 0.765625 -0.3125q0.4375 0 0.78125 0.3125q0.34375 0.3125 0.34375 0.765625q0 0.4375 -0.328125 0.75q-0.328125 0.3125 -0.796875 0.3125zm7.1875 0.578125l-1.109375 -0.53125l5.84375 -12.65625l1.125 0.578125l-5.859375 12.609375zm9.328125 0l-1.109375 -0.53125l5.84375 -12.65625l1.125 0.578125l-5.859375 12.609375zm7.734375 -0.78125l0 -8.53125l1.234375 0l0 0.84375q0.203125 -0.3125 0.46875 -0.546875q0.28125 -0.234375 0.609375 -0.359375q0.328125 -0.140625 0.65625 -0.140625q0.375 0 0.6875 0.171875q0.328125 0.15625 0.53125 0.4375q0.21875 0.265625 0.296875 0.640625q0.171875 -0.375 0.453125 -0.640625q0.296875 -0.28125 0.671875 -0.4375q0.390625 -0.171875 0.796875 -0.171875q0.421875 0 0.734375 0.171875q0.328125 0.171875 0.53125 0.46875q0.203125 0.28125 0.296875 0.6875q0.09375 0.390625 0.078125 0.859375l0 6.546875l-1.234375 0l0 -6.046875q0 -0.78125 -0.109375 -1.125q-0.09375 -0.359375 -0.28125 -0.46875q-0.1875 -0.109375 -0.40625 -0.109375q-0.359375 0 -0.671875 0.328125q-0.296875 0.328125 -0.5 0.8125q-0.1875 0.484375 -0.1875 0.96875l0 5.640625l-1.25 0l0 -5.9375q0 -1.0625 -0.203125 -1.40625q-0.1875 -0.359375 -0.734375 -0.359375q-0.203125 0 -0.421875 0.140625q-0.21875 0.140625 -0.40625 0.390625q-0.171875 0.25 -0.296875 0.625q-0.109375 0.375 -0.109375 0.859375l0 5.6875l-1.234375 0zm10.484375 0l0 -1.078125l2.1875 0l0 -6.359375l-2.0625 0l0 -1.09375l3.40625 0l0 7.453125l2.0 0l0 1.078125l-5.53125 0zm2.78125 -10.3125q-0.390625 0 -0.671875 -0.28125q-0.28125 -0.28125 -0.28125 -0.671875q0 -0.40625 0.265625 -0.6875q0.28125 -0.28125 0.6875 -0.28125q0.390625 0 0.671875 0.296875q0.296875 0.28125 0.296875 0.671875q0 0.390625 -0.296875 0.671875q-0.28125 0.28125 -0.671875 0.28125zm6.03125 10.3125l0 -8.53125l1.3125 0l0 1.515625q0.328125 -0.515625 0.765625 -0.890625q0.453125 -0.390625 1.0 -0.609375q0.546875 -0.21875 1.125 -0.21875q0.703125 0 1.265625 0.359375q0.5625 0.359375 0.890625 1.140625q0.34375 0.78125 0.34375 2.0625l0 5.171875l-1.3125 0l0 -5.125q0 -0.90625 -0.203125 -1.4375q-0.203125 -0.53125 -0.5625 -0.765625q-0.359375 -0.234375 -0.796875 -0.234375q-0.4375 0 -0.875 0.1875q-0.4375 0.1875 -0.8125 0.53125q-0.375 0.34375 -0.609375 0.84375q-0.21875 0.484375 -0.21875 1.09375l0 4.90625l-1.3125 0zm9.84375 0l0 -1.078125l2.1875 0l0 -6.359375l-2.0625 0l0 -1.09375l3.40625 0l0 7.453125l2.0 0l0 1.078125l-5.53125 0zm2.78125 -10.3125q-0.390625 0 -0.671875 -0.28125q-0.28125 -0.28125 -0.28125 -0.671875q0 -0.40625 0.265625 -0.6875q0.28125 -0.28125 0.6875 -0.28125q0.390625 0 0.671875 0.296875q0.296875 0.28125 0.296875 0.671875q0 0.390625 -0.296875 0.671875q-0.28125 0.28125 -0.671875 0.28125zm9.359375 10.46875q-1.171875 0 -2.0625 -0.5625q-0.875 -0.578125 -1.375 -1.578125q-0.5 -1.0 -0.5 -2.28125q0 -1.3125 0.5 -2.3125q0.5 -1.0 1.375 -1.5625q0.890625 -0.578125 2.0625 -0.578125q1.15625 0 2.03125 0.578125q0.890625 0.5625 1.390625 1.5625q0.5 1.0 0.5 2.3125q0 1.28125 -0.5 2.28125q-0.5 1.0 -1.390625 1.578125q-0.875 0.5625 -2.03125 0.5625zm0 -1.125q0.734375 0 1.296875 -0.421875q0.5625 -0.4375 0.890625 -1.1875q0.328125 -0.75 0.328125 -1.71875q0 -0.96875 -0.328125 -1.703125q-0.328125 -0.75 -0.890625 -1.171875q-0.5625 -0.421875 -1.296875 -0.421875q-0.734375 0 -1.3125 0.421875q-0.5625 0.421875 -0.890625 1.171875q-0.328125 0.734375 -0.328125 1.703125q0 0.96875 0.328125 1.71875q0.328125 0.75 0.890625 1.1875q0.578125 0.421875 1.3125 0.421875zm9.09375 1.171875q-0.4375 0 -0.765625 -0.3125q-0.3125 -0.3125 -0.3125 -0.75q0 -0.421875 0.3125 -0.734375q0.328125 -0.328125 0.765625 -0.328125q0.4375 0 0.75 0.328125q0.3125 0.3125 0.3125 0.734375q0 0.4375 -0.3125 0.75q-0.3125 0.3125 -0.75 0.3125zm9.96875 -0.015625q-0.9375 0 -1.703125 -0.28125q-0.765625 -0.296875 -1.3125 -0.859375q-0.546875 -0.5625 -0.84375 -1.390625q-0.296875 -0.828125 -0.296875 -1.890625q0 -1.078125 0.296875 -1.921875q0.3125 -0.84375 0.84375 -1.40625q0.53125 -0.578125 1.25 -0.875q0.71875 -0.296875 1.515625 -0.296875q0.734375 0 1.359375 0.25q0.640625 0.234375 1.109375 0.734375q0.46875 0.5 0.734375 1.265625q0.265625 0.75 0.265625 1.796875q0 0.15625 -0.015625 0.3125q0 0.15625 -0.015625 0.3125l-6.0625 0q0.03125 0.8125 0.265625 1.421875q0.25 0.609375 0.640625 1.0q0.390625 0.375 0.90625 0.5625q0.515625 0.1875 1.09375 0.1875q0.453125 0 0.84375 -0.09375q0.390625 -0.109375 0.734375 -0.328125q0.34375 -0.21875 0.625 -0.53125l0.75 0.71875q-0.359375 0.4375 -0.8125 0.734375q-0.453125 0.296875 -1.0 0.4375q-0.546875 0.140625 -1.171875 0.140625zm-2.828125 -5.296875l4.6875 0q0 -0.59375 -0.15625 -1.0625q-0.15625 -0.484375 -0.453125 -0.828125q-0.28125 -0.34375 -0.6875 -0.515625q-0.390625 -0.1875 -0.90625 -0.1875q-0.4375 0 -0.84375 0.15625q-0.40625 0.140625 -0.75 0.46875q-0.328125 0.328125 -0.5625 0.8125q-0.234375 0.484375 -0.328125 1.15625zm7.953125 5.109375l3.0 -4.328125l-2.9375 -4.203125l1.46875 0l2.21875 3.15625l2.125 -3.15625l1.390625 0l-2.765625 4.140625l3.125 4.390625l-1.515625 0l-2.359375 -3.328125l-2.21875 3.328125l-1.53125 0zm12.390625 0.203125q-1.453125 0 -2.234375 -0.65625q-0.78125 -0.671875 -0.78125 -1.6875q0 -0.6875 0.328125 -1.234375q0.328125 -0.5625 0.921875 -0.9375q0.59375 -0.390625 1.375 -0.59375q0.78125 -0.203125 1.65625 -0.203125q0.3125 0 0.640625 0.015625q0.328125 0 0.6875 0.03125q0.375 0.03125 0.765625 0.078125l0.03125 1.03125q-0.328125 -0.0625 -0.671875 -0.078125q-0.34375 -0.03125 -0.6875 -0.046875q-0.328125 -0.03125 -0.65625 -0.03125q-0.671875 0 -1.234375 0.125q-0.546875 0.109375 -0.96875 0.328125q-0.40625 0.21875 -0.640625 0.578125q-0.21875 0.359375 -0.21875 0.859375q0 0.390625 0.140625 0.671875q0.140625 0.265625 0.375 0.421875q0.25 0.15625 0.578125 0.234375q0.328125 0.0625 0.71875 0.0625q0.734375 0 1.296875 -0.21875q0.578125 -0.234375 0.96875 -0.6875q0.40625 -0.453125 0.609375 -1.09375q0.203125 -0.65625 0.203125 -1.5q0 -1.265625 -0.296875 -1.96875q-0.296875 -0.71875 -0.890625 -1.015625q-0.578125 -0.296875 -1.5 -0.296875q-0.609375 0 -1.203125 0.234375q-0.59375 0.234375 -1.078125 0.71875l-0.65625 -0.859375q0.59375 -0.59375 1.375 -0.890625q0.78125 -0.3125 1.65625 -0.3125q0.84375 0 1.53125 0.21875q0.6875 0.203125 1.1875 0.6875q0.5 0.46875 0.765625 1.265625q0.265625 0.796875 0.265625 2.015625l0 4.53125l-1.453125 0l0 -1.3125q-0.234375 0.46875 -0.59375 0.765625q-0.34375 0.296875 -0.734375 0.46875q-0.390625 0.15625 -0.796875 0.21875q-0.40625 0.0625 -0.78125 0.0625zm6.09375 -0.203125l0 -8.53125l1.234375 0l0 0.84375q0.203125 -0.3125 0.46875 -0.546875q0.28125 -0.234375 0.609375 -0.359375q0.328125 -0.140625 0.65625 -0.140625q0.375 0 0.6875 0.171875q0.328125 0.15625 0.53125 0.4375q0.21875 0.265625 0.296875 0.640625q0.171875 -0.375 0.453125 -0.640625q0.296875 -0.28125 0.671875 -0.4375q0.390625 -0.171875 0.796875 -0.171875q0.421875 0 0.734375 0.171875q0.328125 0.171875 0.53125 0.46875q0.203125 0.28125 0.296875 0.6875q0.09375 0.390625 0.078125 0.859375l0 6.546875l-1.234375 0l0 -6.046875q0 -0.78125 -0.109375 -1.125q-0.09375 -0.359375 -0.28125 -0.46875q-0.1875 -0.109375 -0.40625 -0.109375q-0.359375 0 -0.671875 0.328125q-0.296875 0.328125 -0.5 0.8125q-0.1875 0.484375 -0.1875 0.96875l0 5.640625l-1.25 0l0 -5.9375q0 -1.0625 -0.203125 -1.40625q-0.1875 -0.359375 -0.734375 -0.359375q-0.203125 0 -0.421875 0.140625q-0.21875 0.140625 -0.40625 0.390625q-0.171875 0.25 -0.296875 0.625q-0.109375 0.375 -0.109375 0.859375l0 5.6875l-1.234375 0zm9.75 3.109375l0 -11.640625l1.359375 0l0 1.6875q0.203125 -0.65625 0.578125 -1.0625q0.390625 -0.421875 0.90625 -0.609375q0.515625 -0.203125 1.109375 -0.203125q0.703125 0 1.34375 0.28125q0.65625 0.265625 1.140625 0.8125q0.5 0.53125 0.78125 1.359375q0.296875 0.8125 0.296875 1.9375q0 1.125 -0.3125 1.984375q-0.3125 0.84375 -0.828125 1.421875q-0.5 0.5625 -1.15625 0.859375q-0.640625 0.28125 -1.3125 0.28125q-0.5 0 -0.984375 -0.15625q-0.46875 -0.15625 -0.859375 -0.453125q-0.390625 -0.3125 -0.6875 -0.734375l0 4.234375l-1.375 0zm3.6875 -4.078125q0.453125 0 0.875 -0.15625q0.4375 -0.15625 0.78125 -0.53125q0.359375 -0.375 0.5625 -1.015625q0.203125 -0.65625 0.203125 -1.59375q0 -1.03125 -0.265625 -1.75q-0.25 -0.71875 -0.75 -1.109375q-0.484375 -0.390625 -1.203125 -0.4375q-0.515625 -0.03125 -0.984375 0.15625q-0.453125 0.1875 -0.8125 0.625q-0.34375 0.421875 -0.546875 1.125q-0.1875 0.6875 -0.1875 1.6875q0.015625 0.59375 0.125 1.078125q0.109375 0.484375 0.3125 0.859375q0.21875 0.359375 0.484375 0.59375q0.28125 0.21875 0.640625 0.34375q0.359375 0.125 0.765625 0.125zm5.984375 0.96875l0 -1.078125l2.53125 0l0 -10.25l-2.421875 0l0 -1.078125l3.78125 0l0 11.328125l2.5 0l0 1.078125l-6.390625 0zm12.9375 0.1875q-0.9375 0 -1.703125 -0.28125q-0.765625 -0.296875 -1.3125 -0.859375q-0.546875 -0.5625 -0.84375 -1.390625q-0.296875 -0.828125 -0.296875 -1.890625q0 -1.078125 0.296875 -1.921875q0.3125 -0.84375 0.84375 -1.40625q0.53125 -0.578125 1.25 -0.875q0.71875 -0.296875 1.515625 -0.296875q0.734375 0 1.359375 0.25q0.640625 0.234375 1.109375 0.734375q0.46875 0.5 0.734375 1.265625q0.265625 0.75 0.265625 1.796875q0 0.15625 -0.015625 0.3125q0 0.15625 -0.015625 0.3125l-6.0625 0q0.03125 0.8125 0.265625 1.421875q0.25 0.609375 0.640625 1.0q0.390625 0.375 0.90625 0.5625q0.515625 0.1875 1.09375 0.1875q0.453125 0 0.84375 -0.09375q0.390625 -0.109375 0.734375 -0.328125q0.34375 -0.21875 0.625 -0.53125l0.75 0.71875q-0.359375 0.4375 -0.8125 0.734375q-0.453125 0.296875 -1.0 0.4375q-0.546875 0.140625 -1.171875 0.140625zm-2.828125 -5.296875l4.6875 0q0 -0.59375 -0.15625 -1.0625q-0.15625 -0.484375 -0.453125 -0.828125q-0.28125 -0.34375 -0.6875 -0.515625q-0.390625 -0.1875 -0.90625 -0.1875q-0.4375 0 -0.84375 0.15625q-0.40625 0.140625 -0.75 0.46875q-0.328125 0.328125 -0.5625 0.8125q-0.234375 0.484375 -0.328125 1.15625zm11.515625 5.3125q-0.4375 0 -0.765625 -0.3125q-0.3125 -0.3125 -0.3125 -0.75q0 -0.421875 0.3125 -0.734375q0.328125 -0.328125 0.765625 -0.328125q0.4375 0 0.75 0.328125q0.3125 0.3125 0.3125 0.734375q0 0.4375 -0.3125 0.75q-0.3125 0.3125 -0.75 0.3125zm6.234375 -0.203125l0 -8.53125l1.3125 0l0 1.515625q0.328125 -0.515625 0.765625 -0.890625q0.453125 -0.390625 1.0 -0.609375q0.546875 -0.21875 1.125 -0.21875q0.703125 0 1.265625 0.359375q0.5625 0.359375 0.890625 1.140625q0.34375 0.78125 0.34375 2.0625l0 5.171875l-1.3125 0l0 -5.125q0 -0.90625 -0.203125 -1.4375q-0.203125 -0.53125 -0.5625 -0.765625q-0.359375 -0.234375 -0.796875 -0.234375q-0.4375 0 -0.875 0.1875q-0.4375 0.1875 -0.8125 0.53125q-0.375 0.34375 -0.609375 0.84375q-0.21875 0.484375 -0.21875 1.09375l0 4.90625l-1.3125 0zm13.0625 0.1875q-0.9375 0 -1.703125 -0.28125q-0.765625 -0.296875 -1.3125 -0.859375q-0.546875 -0.5625 -0.84375 -1.390625q-0.296875 -0.828125 -0.296875 -1.890625q0 -1.078125 0.296875 -1.921875q0.3125 -0.84375 0.84375 -1.40625q0.53125 -0.578125 1.25 -0.875q0.71875 -0.296875 1.515625 -0.296875q0.734375 0 1.359375 0.25q0.640625 0.234375 1.109375 0.734375q0.46875 0.5 0.734375 1.265625q0.265625 0.75 0.265625 1.796875q0 0.15625 -0.015625 0.3125q0 0.15625 -0.015625 0.3125l-6.0625 0q0.03125 0.8125 0.265625 1.421875q0.25 0.609375 0.640625 1.0q0.390625 0.375 0.90625 0.5625q0.515625 0.1875 1.09375 0.1875q0.453125 0 0.84375 -0.09375q0.390625 -0.109375 0.734375 -0.328125q0.34375 -0.21875 0.625 -0.53125l0.75 0.71875q-0.359375 0.4375 -0.8125 0.734375q-0.453125 0.296875 -1.0 0.4375q-0.546875 0.140625 -1.171875 0.140625zm-2.828125 -5.296875l4.6875 0q0 -0.59375 -0.15625 -1.0625q-0.15625 -0.484375 -0.453125 -0.828125q-0.28125 -0.34375 -0.6875 -0.515625q-0.390625 -0.1875 -0.90625 -0.1875q-0.4375 0 -0.84375 0.15625q-0.40625 0.140625 -0.75 0.46875q-0.328125 0.328125 -0.5625 0.8125q-0.234375 0.484375 -0.328125 1.15625zm12.65625 5.234375q-0.828125 0 -1.34375 -0.265625q-0.515625 -0.28125 -0.796875 -0.875q-0.28125 -0.59375 -0.375 -1.484375q-0.078125 -0.890625 -0.046875 -2.125l0.234375 -6.078125l1.390625 -0.171875l0.1875 -0.015625l0.015625 0.125q-0.09375 0.125 -0.15625 0.265625q-0.0625 0.125 -0.09375 0.4375l-0.171875 2.109375l0.0625 0.34375l-0.140625 3.078125q-0.046875 1.421875 0.078125 2.203125q0.125 0.765625 0.453125 1.0625q0.34375 0.28125 0.90625 0.28125q0.625 0 1.09375 -0.234375q0.46875 -0.25 1.0 -0.625l0.40625 1.0625q-0.625 0.46875 -1.296875 0.6875q-0.671875 0.21875 -1.40625 0.21875l0 0zm-4.265625 -8.65625l6.125 0l0 1.109375l-6.125 0l0 -1.109375z" fill-rule="nonzero"/><path fill="#000000" fill-opacity="0.0" d="m361.032 353.74728l0 0l0 19.570435l0 0l0 -19.570435z" fill-rule="nonzero"/><path fill="#000000" fill-opacity="0.0" d="m245.97375 89.64304l0 69.01202l0.06298828 0l0 69.00374" fill-rule="evenodd"/><path stroke="#595959" stroke-width="2.0" stroke-linejoin="round" stroke-linecap="butt" d="m245.97375 89.64304l0 69.01202l0.06298828 0l0 57.00374" fill-rule="evenodd"/><path fill="#595959" stroke="#595959" stroke-width="2.0" stroke-linecap="butt" d="m242.73328 215.6588l3.3034668 9.076187l3.3034668 -9.076187z" fill-rule="evenodd"/><path fill="#000000" fill-opacity="0.0" d="m450.03674 284.76904l101.678955 0l0 0.06298828l101.6911 0" fill-rule="evenodd"/><path stroke="#595959" stroke-width="2.0" stroke-linejoin="round" stroke-linecap="butt" d="m450.03674 284.76904l101.678955 0l0 0.06298828l89.6911 0" fill-rule="evenodd"/><path fill="#595959" stroke="#595959" stroke-width="2.0" stroke-linecap="butt" d="m641.4068 288.1355l9.076233 -3.3034668l-9.076233 -3.3034668z" fill-rule="evenodd"/></g></svg>