<?xml version="1.0" encoding="UTF-8" standalone="no"?>
<svg
   id="a"
   viewBox="0 0 645.33 320.16"
   version="1.1"
   sodipodi:docname="architecture-load-balancer-multi-site.svg"
   width="645.33002"
   height="320.16"
   inkscape:version="1.2.2 (b0a8486541, 2022-12-01)"
   xmlns:inkscape="http://www.inkscape.org/namespaces/inkscape"
   xmlns:sodipodi="http://sodipodi.sourceforge.net/DTD/sodipodi-0.dtd"
   xmlns="http://www.w3.org/2000/svg"
   xmlns:svg="http://www.w3.org/2000/svg">
  <sodipodi:namedview
     id="namedview143"
     pagecolor="#505050"
     bordercolor="#eeeeee"
     borderopacity="1"
     inkscape:showpageshadow="0"
     inkscape:pageopacity="0"
     inkscape:pagecheckerboard="0"
     inkscape:deskcolor="#505050"
     showgrid="false"
     inkscape:zoom="4.5586246"
     inkscape:cx="333.10485"
     inkscape:cy="129.75405"
     inkscape:window-width="3840"
     inkscape:window-height="2303"
     inkscape:window-x="3840"
     inkscape:window-y="2160"
     inkscape:window-maximized="1"
     inkscape:current-layer="a"
     showguides="true">
    <sodipodi:guide
       position="52.099046,285.17138"
       orientation="0,-1"
       id="guide4927"
       inkscape:locked="false" />
  </sodipodi:namedview>
  <defs
     id="defs4">
    <style
       id="style2">.b{font-family:RobotoMono-Regular, 'Roboto Mono';font-size:11.39px;font-variation-settings:'wght' 400;}.c{letter-spacing:-.04em;}.d{letter-spacing:-.04em;}.e,.f,.g{fill:#fff;}.h{fill:#afcddd;}.i,.j{fill:#cf2144;}.k{fill:#1b1717;}.l{fill:#0c1835;}.m{fill:#577f9a;}.n{stroke-dasharray:0 0 1.39 1.39;}.n,.o,.p,.q,.r,.s,.t,.u,.v{stroke-miterlimit:10;}.n,.p,.q,.r,.s,.t,.u,.v{fill:none;}.n,.p,.r,.s,.v{stroke:#577f9a;stroke-width:.68px;}.w{letter-spacing:.02em;}.o{fill:#f6f6f6;}.o,.t{stroke-dasharray:0 0 3 3;}.o,.t,.u{stroke:#cf2144;}.p{stroke-dasharray:0 0 1.37 1.37;}.q{stroke:#1b1717;stroke-width:1.47px;}.r{stroke-dasharray:0 0 1.38 1.38;}.s{stroke-dasharray:0 0 1.27 1.27;}.x{letter-spacing:-.03em;}.y{letter-spacing:-.09em;}.f,.g,.j,.z{font-family:Inter-Bold, Inter;font-variation-settings:'wght' 700, 'slnt' 0;font-weight:700;}.f,.j{font-size:14px;}.g,.z{font-size:9px;}</style>
  </defs>
  <path
     id="polyline6"
     class="t"
     transform="translate(0,4)"
     style="fill:none;stroke:#000000;stroke-miterlimit:10;stroke-dasharray:none;stroke-opacity:1"
     d="m 321.6,156.22 v 38.77 H 91.94 v 31.12" />
  <polyline
     class="i"
     points="92.28 223.86 94.47 223.86 91.93 228.24 89.41 223.86 91.29 223.86"
     id="polyline8"
     transform="translate(0,4)"
     style="fill:#000000;fill-opacity:1" />
  <polyline
     class="i"
     points="92.28 223.86 94.47 223.86 91.93 228.24 89.41 223.86 91.29 223.86"
     id="polyline8-6"
     transform="translate(459.31208,3.423434)"
     style="fill:#000000;fill-opacity:1" />
  <polyline
     class="i"
     points="182.4 257.76 182.4 259.94 178.02 257.41 182.4 254.88 182.4 256.77"
     id="polyline10"
     transform="translate(0,4)" />
  <polyline
     class="i"
     points="459.94 257.06 459.94 254.88 464.32 257.41 459.94 259.94 459.94 258.05"
     id="polyline12"
     transform="translate(0,4)" />
  <polyline
     class="k"
     points="321.94 121.87 324.13 121.87 321.59 126.25 319.07 121.87 320.95 121.87"
     id="polyline14"
     transform="translate(0,4)" />
  <line
     class="q"
     x1="321.60001"
     y1="74.099998"
     x2="321.60001"
     y2="125.87"
     id="line16" />
  <g
     id="g24"
     transform="translate(0,4)">
    <path
       d="m 240.7,21.34 3.42,-1.29 0.32,-0.09 -0.32,-0.1 -3.42,-1.27 v -1.01 l 4.66,2 v 0.77 l -4.66,2 z"
       id="path18" />
    <text
       class="b"
       transform="translate(246.12,23.67)"
       id="text22"><tspan
         x="0"
         y="0"
         id="tspan20">minioClient.putObject()</tspan></text>
  </g>
  <rect
     class="u"
     x="228.67"
     y="3.5699999"
     width="185.86"
     height="39.330002"
     id="rect26" />
  <rect
     class="i"
     x="228.67"
     y="130.14999"
     width="185.86"
     height="52.93"
     id="rect28" />
  <g
     id="g42"
     transform="translate(0,4)">
    <g
       id="g36">
      <rect
         class="e"
         x="308.59"
         y="147.71001"
         width="4.4899998"
         height="11.71"
         id="rect30" />
      <path
         class="e"
         d="m 303.14,147.87 -9.11,4.92 c -0.13,0.07 -0.29,0.07 -0.42,0 l -9.11,-4.92 c -0.2,-0.11 -0.42,-0.16 -0.65,-0.16 h -0.01 c -0.69,0 -1.25,0.49 -1.25,1.1 v 10.59 c 0,0 4.49,0 4.49,0 v -5.04 c 0,-0.31 0.38,-0.5 0.68,-0.34 l 5.11,2.76 c 0.5,0.27 1.14,0.28 1.64,0.01 L 299.9,154 c 0.3,-0.15 0.68,0.04 0.68,0.34 v 5.06 c 0,0 4.49,0 4.49,0 v -10.59 c 0,-0.61 -0.56,-1.1 -1.25,-1.1 h -0.01 c -0.23,0 -0.46,0.06 -0.65,0.16 z"
         id="path32" />
      <path
         class="e"
         d="m 335.47,147.71 h -4.55 c 0,0 0,5.33 0,5.33 0,0.3 -0.36,0.49 -0.66,0.35 l -11.8,-5.55 c -0.18,-0.09 -0.38,-0.13 -0.59,-0.13 v 0 c -0.69,0 -1.25,0.49 -1.25,1.1 v 10.59 c 0,0 4.52,0 4.52,0 v -5.32 c 0,-0.3 0.36,-0.49 0.66,-0.35 l 11.85,5.55 c 0.18,0.08 0.38,0.13 0.59,0.13 v 0 c 0.69,0 1.25,-0.49 1.25,-1.1 v -10.6 z"
         id="path34" />
    </g>
    <path
       class="e"
       d="m 339,159.42 v -11.71 h 2.07 v 11.71 z"
       id="path38" />
    <path
       class="e"
       d="m 353.22,159.63 c -5.56,0 -9.5,-2.33 -9.5,-6.06 0,-3.71 3.97,-6.06 9.5,-6.06 5.53,0 9.53,2.33 9.53,6.06 0,3.73 -3.9,6.06 -9.53,6.06 z m 0,-10.57 c -4.13,0 -7.32,1.59 -7.32,4.51 0,2.94 3.18,4.51 7.32,4.51 4.13,0 7.34,-1.57 7.34,-4.51 0,-2.94 -3.21,-4.51 -7.34,-4.51 z"
       id="path40" />
  </g>
  <line
     class="q"
     x1="321.60001"
     y1="43.099998"
     x2="321.60001"
     y2="58.869999"
     id="line44" />
  <rect
     class="l"
     x="228.67"
     y="58.060001"
     width="185.86"
     height="52.93"
     id="rect46" />
  <text
     class="f"
     id="text58"
     x="262.20001"
     y="89.410004"><tspan
       class="x"
       x="262.20001"
       y="89.410004"
       id="tspan48">L</tspan><tspan
       class="c"
       x="269.75"
       y="89.410004"
       id="tspan50">O</tspan><tspan
       x="280.12"
       y="89.410004"
       id="tspan52">AD BA</tspan><tspan
       class="w"
       x="323.73999"
       y="89.410004"
       id="tspan54">L</tspan><tspan
       x="331.94"
       y="89.410004"
       id="tspan56">ANCER</tspan></text>
  <rect
     class="i"
     x="7.4899998"
     y="233.22"
     width="171.42"
     height="52.93"
     id="rect60" />
  <g
     id="g74"
     transform="translate(0,4)">
    <g
       id="g68">
      <rect
         class="e"
         x="54.139999"
         y="252.31"
         width="3.9200001"
         height="10.21"
         id="rect62" />
      <path
         class="e"
         d="m 49.39,252.45 -7.95,4.29 c -0.11,0.06 -0.26,0.06 -0.37,0 l -7.95,-4.29 c -0.17,-0.09 -0.37,-0.14 -0.57,-0.14 v 0 c -0.6,0 -1.09,0.43 -1.09,0.96 v 9.24 c 0,0 3.91,0 3.91,0 v -4.4 c 0,-0.27 0.33,-0.44 0.6,-0.29 l 4.45,2.41 c 0.44,0.24 0.99,0.24 1.43,0.01 l 4.7,-2.43 c 0.26,-0.14 0.59,0.03 0.59,0.3 v 4.41 c 0,0 3.91,0 3.91,0 v -9.24 c 0,-0.53 -0.49,-0.96 -1.09,-0.96 v 0 c -0.2,0 -0.4,0.05 -0.57,0.14 z"
         id="path64" />
      <path
         class="e"
         d="m 77.58,252.31 h -3.97 c 0,0 0,4.65 0,4.65 0,0.26 -0.31,0.43 -0.58,0.31 l -10.29,-4.84 c -0.16,-0.07 -0.33,-0.11 -0.51,-0.11 v 0 c -0.6,0 -1.09,0.43 -1.09,0.96 v 9.24 c 0,0 3.94,0 3.94,0 v -4.64 c 0,-0.26 0.31,-0.43 0.57,-0.31 l 10.33,4.84 c 0.16,0.07 0.33,0.11 0.51,0.11 v 0 c 0.6,0 1.09,-0.43 1.09,-0.96 v -9.24 z"
         id="path66" />
    </g>
    <path
       class="e"
       d="m 80.66,262.52 v -10.21 h 1.8 v 10.21 z"
       id="path70" />
    <path
       class="e"
       d="m 93.06,262.7 c -4.85,0 -8.28,-2.03 -8.28,-5.29 0,-3.24 3.46,-5.29 8.28,-5.29 4.82,0 8.31,2.03 8.31,5.29 0,3.26 -3.4,5.29 -8.31,5.29 z m 0,-9.22 c -3.6,0 -6.38,1.39 -6.38,3.93 0,2.56 2.78,3.93 6.38,3.93 3.6,0 6.4,-1.37 6.4,-3.93 0,-2.54 -2.8,-3.93 -6.4,-3.93 z"
       id="path72" />
  </g>
  <text
     class="f"
     id="text78"
     x="110.18"
     y="266.48001"><tspan
       x="110.18"
       y="266.48001"
       id="tspan76">SITE A</tspan></text>
  <rect
     class="o"
     x="464.32001"
     y="233.22"
     width="171.42"
     height="52.93"
     id="rect80" />
  <g
     id="g94"
     transform="translate(0,4)">
    <g
       id="g88">
      <rect
         class="i"
         x="510.97"
         y="252.31"
         width="3.9200001"
         height="10.21"
         id="rect82" />
      <path
         class="i"
         d="m 506.23,252.45 -7.95,4.29 c -0.11,0.06 -0.26,0.06 -0.37,0 l -7.95,-4.29 c -0.17,-0.09 -0.37,-0.14 -0.57,-0.14 v 0 c -0.6,0 -1.09,0.43 -1.09,0.96 v 9.24 c 0,0 3.91,0 3.91,0 v -4.4 c 0,-0.27 0.33,-0.44 0.6,-0.29 l 4.45,2.41 c 0.44,0.24 0.99,0.24 1.43,0.01 l 4.7,-2.43 c 0.26,-0.14 0.59,0.03 0.59,0.3 v 4.41 c 0,0 3.91,0 3.91,0 v -9.24 c 0,-0.53 -0.49,-0.96 -1.09,-0.96 v 0 c -0.2,0 -0.4,0.05 -0.57,0.14 z"
         id="path84" />
      <path
         class="i"
         d="m 534.41,252.31 h -3.97 c 0,0 0,4.65 0,4.65 0,0.26 -0.31,0.43 -0.58,0.31 l -10.29,-4.84 c -0.16,-0.07 -0.33,-0.11 -0.51,-0.11 v 0 c -0.6,0 -1.09,0.43 -1.09,0.96 v 9.24 c 0,0 3.94,0 3.94,0 v -4.64 c 0,-0.26 0.31,-0.43 0.57,-0.31 l 10.33,4.84 c 0.16,0.07 0.33,0.11 0.51,0.11 v 0 c 0.6,0 1.09,-0.43 1.09,-0.96 v -9.24 z"
         id="path86" />
    </g>
    <path
       class="i"
       d="m 537.49,262.52 v -10.21 h 1.8 v 10.21 z"
       id="path90" />
    <path
       class="i"
       d="m 549.9,262.7 c -4.85,0 -8.28,-2.03 -8.28,-5.29 0,-3.24 3.46,-5.29 8.28,-5.29 4.82,0 8.31,2.03 8.31,5.29 0,3.26 -3.4,5.29 -8.31,5.29 z m 0,-9.22 c -3.6,0 -6.38,1.39 -6.38,3.93 0,2.56 2.78,3.93 6.38,3.93 3.6,0 6.4,-1.37 6.4,-3.93 0,-2.54 -2.8,-3.93 -6.4,-3.93 z"
       id="path92" />
  </g>
  <text
     class="j"
     id="text98"
     x="567.62"
     y="266.48001"><tspan
       x="567.62"
       y="266.48001"
       id="tspan96">SITE B</tspan></text>
  <line
     class="t"
     x1="182.39999"
     y1="261.41"
     x2="459.94"
     y2="261.41"
     id="line100" />
  <polygon
     class="m"
     points="178.91,310.51 178.91,296.13 173.93,290.06 126.99,290.06 126.99,310.51 "
     id="polygon102"
     transform="translate(0,4)" />
  <text
     class="g"
     id="text110"
     x="140.25"
     y="307.95999"><tspan
       class="d"
       x="140.25"
       y="307.95999"
       id="tspan104">DATA</tspan></text>
  <g
     id="g132"
     transform="translate(0,4)">
    <polygon
       class="h"
       points="516.24,315.08 516.24,300.7 511.26,294.63 464.32,294.63 464.32,315.08 "
       id="polygon112" />
    <g
       id="g130">
      <polyline
         class="v"
         points="511.69 295.15 511.26 294.63 510.58 294.63"
         id="polyline114" />
      <line
         class="r"
         x1="509.20001"
         y1="294.63"
         x2="465.69"
         y2="294.63"
         id="line116" />
      <polyline
         class="v"
         points="465 294.63 464.32 294.63 464.32 295.31"
         id="polyline118" />
      <line
         class="s"
         x1="464.32001"
         y1="296.57999"
         x2="464.32001"
         y2="313.76001"
         id="line120" />
      <polyline
         class="v"
         points="464.32 314.4 464.32 315.08 465 315.08"
         id="polyline122" />
      <line
         class="p"
         x1="466.35999"
         y1="315.07999"
         x2="514.88"
         y2="315.07999"
         id="line124" />
      <polyline
         class="v"
         points="515.56 315.08 516.24 315.08 516.24 314.4"
         id="polyline126" />
      <polyline
         class="n"
         points="516.24 313.01 516.24 300.7 512.13 295.69"
         id="polyline128" />
    </g>
  </g>
  <text
     class="z"
     id="text140"
     x="477.57999"
     y="312.54001"><tspan
       class="d"
       x="477.57999"
       y="312.54001"
       id="tspan134">DATA</tspan></text>
  <rect
     class="f"
     x="-0.23100162"
     y="0.31324539"
     width="156.61"
     height="53.630001"
     id="rect66"
     style="fill:#f6f6f6" />
  <line
     class="c"
     x1="14.018998"
     y1="17.073256"
     x2="46.089005"
     y2="17.073256"
     id="line68"
     style="fill:none;stroke:#cf2144;stroke-miterlimit:10;stroke-dasharray:0, 0, 2, 3" />
  <line
     class="b"
     x1="14.018998"
     y1="35.053249"
     x2="46.089005"
     y2="35.053249"
     id="line70"
     style="fill:none;stroke:#1b1717;stroke-miterlimit:10;stroke-dasharray:none" />
  <text
     xml:space="preserve"
     style="font-style:normal;font-variant:normal;font-weight:normal;font-stretch:normal;font-size:8px;font-family:sans-serif;-inkscape-font-specification:'sans-serif, Normal';font-variant-ligatures:normal;font-variant-caps:normal;font-variant-numeric:normal;font-variant-east-asian:normal;text-align:center;text-anchor:middle;fill:#000000;fill-opacity:1;stroke:#000000;stroke-width:0;stroke-linejoin:bevel;stroke-dasharray:none;stroke-opacity:1"
     x="100.13007"
     y="19.173256"
     id="text4884"><tspan
       sodipodi:role="line"
       id="tspan4886"
       x="100.13007"
       y="19.173256">Replication Traffic</tspan></text>
  <text
     xml:space="preserve"
     style="font-style:normal;font-variant:normal;font-weight:normal;font-stretch:normal;font-size:8px;font-family:sans-serif;-inkscape-font-specification:'sans-serif, Normal';font-variant-ligatures:normal;font-variant-caps:normal;font-variant-numeric:normal;font-variant-east-asian:normal;text-align:center;text-anchor:middle;fill:#000000;fill-opacity:1;stroke:#000000;stroke-width:0;stroke-linejoin:bevel;stroke-dasharray:none;stroke-opacity:1"
     x="84.182083"
     y="37.933666"
     id="text4884-2"><tspan
       sodipodi:role="line"
       id="tspan4886-5"
       x="84.182083"
       y="37.933666">S3 Traffic</tspan></text>
</svg>
