<?xml version="1.0" encoding="UTF-8" standalone="no"?>
<!-- Generator: Adobe Illustrator 27.0.0, SVG Export Plug-In . SVG Version: 6.00 Build 0)  -->

<svg
   version="1.1"
   id="a"
   x="0px"
   y="0px"
   viewBox="0 0 645.3 320.2"
   style="enable-background:new 0 0 645.3 320.2;"
   xml:space="preserve"
   sodipodi:docname="architecture-load-balancer-multi-site.svg"
   inkscape:version="1.2.2 (b0a8486541, 2022-12-01)"
   xmlns:inkscape="http://www.inkscape.org/namespaces/inkscape"
   xmlns:sodipodi="http://sodipodi.sourceforge.net/DTD/sodipodi-0.dtd"
   xmlns="http://www.w3.org/2000/svg"
   xmlns:svg="http://www.w3.org/2000/svg"><defs
   id="defs6178" />
<style
   type="text/css"
   id="style5972">
	.st0{fill:none;stroke:#000000;stroke-miterlimit:10;}
	.st1{fill:#CF2144;}
	.st2{fill:#1B1717;}
	.st3{fill:none;stroke:#1B1717;stroke-width:1.47;stroke-miterlimit:10;}
	.st4{enable-background:new    ;}
	.st5{fill:none;stroke:#CF2144;stroke-miterlimit:10;}
	.st6{fill:#FFFFFF;}
	.st7{fill:#0C1835;}
	.st8{fill:#F6F6F6;stroke:#CF2144;stroke-miterlimit:10;stroke-dasharray:0,0,3,3;}
	.st9{fill:none;stroke:#CF2144;stroke-miterlimit:10;stroke-dasharray:0,0,3,3;}
	.st10{fill:#577F9A;}
	.st11{fill:#AFCDDD;}
	.st12{fill:none;stroke:#577F9A;stroke-width:0.68;stroke-miterlimit:10;}
	.st13{fill:none;stroke:#577F9A;stroke-width:0.68;stroke-miterlimit:10;stroke-dasharray:0,0,1.38,1.38;}
	.st14{fill:none;stroke:#577F9A;stroke-width:0.68;stroke-miterlimit:10;stroke-dasharray:0,0,1.27,1.27;}
	.st15{fill:none;stroke:#577F9A;stroke-width:0.68;stroke-miterlimit:10;stroke-dasharray:0,0,1.37,1.37;}
	.st16{fill:none;stroke:#577F9A;stroke-width:0.68;stroke-miterlimit:10;stroke-dasharray:0,0,1.39,1.39;}
	.st17{fill:#F6F6F6;}
	.st18{fill:none;stroke:#CF2144;stroke-miterlimit:10;stroke-dasharray:0,0,2,3;}
	.st19{fill:none;stroke:#1B1717;stroke-miterlimit:10;}
	.st20{font-family:'Helvetica';}
	.st21{font-size:8px;}
</style>
<sodipodi:namedview
   bordercolor="#eeeeee"
   borderopacity="1"
   id="namedview143"
   inkscape:current-layer="a"
   inkscape:cx="333.32422"
   inkscape:cy="168.58155"
   inkscape:deskcolor="#505050"
   inkscape:pagecheckerboard="0"
   inkscape:pageopacity="0"
   inkscape:showpageshadow="0"
   inkscape:window-height="2123"
   inkscape:window-maximized="1"
   inkscape:window-width="3840"
   inkscape:window-x="3840"
   inkscape:window-y="0"
   inkscape:zoom="4.5586246"
   pagecolor="#505050"
   showgrid="false"
   showguides="true">
	<sodipodi:guide
   id="guide4927"
   inkscape:locked="false"
   orientation="0,-1"
   position="52.099046,285.17138" />
</sodipodi:namedview>
<path
   id="polyline6"
   class="st0"
   d="M321.6,160.2V199H91.9v31.1" />
<path
   id="polyline8"
   d="m 92.3,227.9 h 2.2 l -2.6,4.3 -2.5,-4.3 h 1.9" />
<path
   id="polyline10"
   class="st1"
   style="fill:#cf2144"
   d="m 182.4,261.8 v 2.1 l -4.4,-2.5 4.4,-2.5 v 1.9" />
<path
   id="polyline12"
   class="st1"
   style="fill:#cf2144"
   d="m 459.9,261.1 v -2.2 l 4.4,2.5 -4.4,2.5 V 262" />
<path
   id="polyline14"
   class="st2"
   style="fill:#1b1717"
   d="m 321.9,125.9 h 2.2 l -2.5,4.3 -2.5,-4.3 h 1.9" />
<path
   id="line16"
   class="st3"
   style="fill:none;stroke:#1b1717;stroke-width:1.47;stroke-miterlimit:10"
   d="M 321.60001,74.099998 V 125.9" />
<g
   id="g24"
   transform="translate(0,4)">
	<path
   id="path18"
   d="M240.7,21.3l3.4-1.3l0.3-0.1l-0.3-0.1l-3.4-1.3v-1l4.7,2v0.8l-4.7,2V21.3z" />
	<g
   id="g6031">
		<g
   class="st4"
   id="g6029">
			<path
   d="M247.6,18.2c0.1-0.2,0.3-0.4,0.5-0.5c0.2-0.1,0.4-0.2,0.7-0.2c0.2,0,0.3,0,0.4,0.1s0.2,0.1,0.3,0.2     c0.1,0.1,0.1,0.1,0.2,0.2c0.1,0.1,0.1,0.2,0.1,0.3c0.1-0.1,0.1-0.2,0.2-0.2c0.1-0.1,0.1-0.1,0.2-0.2c0.1-0.1,0.2-0.1,0.3-0.2     s0.3-0.1,0.4-0.1c0.2,0,0.4,0,0.6,0.1s0.3,0.2,0.4,0.3c0.1,0.1,0.2,0.3,0.3,0.5c0.1,0.2,0.1,0.5,0.1,0.8v4.5h-1v-4.5     c0-0.1,0-0.2,0-0.3c0-0.1-0.1-0.2-0.1-0.2c-0.1-0.1-0.1-0.1-0.2-0.1c-0.1,0-0.2,0-0.3,0c-0.1,0-0.2,0-0.3,0     c-0.1,0-0.2,0.1-0.2,0.1c-0.1,0.1-0.1,0.1-0.1,0.2S250,19,250,19.1c0,0,0,0,0,0.1s0,0,0,0.1v4.5h-1v-4.5c0-0.1,0-0.2,0-0.3     c0-0.1-0.1-0.2-0.1-0.2c-0.1-0.1-0.1-0.1-0.2-0.1c-0.1,0-0.2,0-0.3,0c-0.1,0-0.2,0-0.3,0c-0.1,0-0.2,0.1-0.2,0.1     c0,0-0.1,0.1-0.1,0.1c0,0.1-0.1,0.1-0.1,0.2v4.8h-1v-6h0.9L247.6,18.2z"
   id="path5983" />
			<path
   d="M257.2,17.7v5.1h2v0.9h-5v-0.9h2v-4.2h-2v-0.9H257.2z M256,15.8c0-0.1,0.1-0.1,0.1-0.2c0,0,0.1-0.1,0.2-0.1     c0.1,0,0.2,0,0.3,0c0.1,0,0.2,0,0.3,0c0.1,0,0.1,0.1,0.2,0.1c0.1,0.1,0.1,0.1,0.1,0.2c0,0.1,0,0.2,0,0.3c0,0.2-0.1,0.3-0.2,0.4     c-0.1,0.1-0.3,0.2-0.5,0.2c-0.2,0-0.4-0.1-0.5-0.2c-0.1-0.1-0.2-0.3-0.2-0.4C256,16,256,15.9,256,15.8z"
   id="path5985" />
			<path
   d="M260.8,17.7h0.9l0.1,0.9c0.1-0.1,0.2-0.2,0.3-0.3c0.1-0.1,0.2-0.2,0.3-0.3c0.2-0.1,0.4-0.2,0.6-0.3     c0.2-0.1,0.4-0.1,0.7-0.1c0.3,0,0.6,0,0.9,0.1s0.5,0.2,0.7,0.4c0.2,0.2,0.3,0.4,0.4,0.7c0.1,0.3,0.1,0.6,0.1,1v3.8h-1v-3.8     c0-0.3,0-0.5-0.1-0.7c-0.1-0.2-0.1-0.3-0.3-0.5c-0.1-0.1-0.3-0.2-0.4-0.2c-0.2-0.1-0.4-0.1-0.6-0.1c-0.2,0-0.4,0-0.5,0.1     c-0.2,0.1-0.3,0.1-0.5,0.2c-0.1,0.1-0.2,0.2-0.3,0.3c-0.1,0.1-0.2,0.2-0.2,0.4v4.3h-1V17.7z"
   id="path5987" />
			<path
   d="M270.8,17.7v5.1h2v0.9h-5v-0.9h2v-4.2h-2v-0.9H270.8z M269.7,15.8c0-0.1,0.1-0.1,0.1-0.2c0,0,0.1-0.1,0.2-0.1     c0.1,0,0.2,0,0.3,0c0.1,0,0.2,0,0.3,0c0.1,0,0.1,0.1,0.2,0.1c0.1,0.1,0.1,0.1,0.1,0.2c0,0.1,0,0.2,0,0.3c0,0.2-0.1,0.3-0.2,0.4     c-0.1,0.1-0.3,0.2-0.5,0.2c-0.2,0-0.4-0.1-0.5-0.2c-0.1-0.1-0.2-0.3-0.2-0.4C269.7,16,269.7,15.9,269.7,15.8z"
   id="path5989" />
			<path
   d="M274.3,19.4c0.1-0.4,0.3-0.7,0.5-1c0.2-0.3,0.5-0.5,0.9-0.6c0.3-0.2,0.7-0.2,1.1-0.2c0.4,0,0.8,0.1,1.1,0.2     c0.3,0.2,0.6,0.4,0.9,0.6c0.2,0.3,0.4,0.6,0.5,1c0.1,0.4,0.2,0.8,0.2,1.2v0.1c0,0.4-0.1,0.8-0.2,1.2c-0.1,0.4-0.3,0.7-0.5,1     c-0.2,0.3-0.5,0.5-0.9,0.6c-0.3,0.2-0.7,0.2-1.1,0.2c-0.4,0-0.8-0.1-1.1-0.2c-0.3-0.2-0.6-0.4-0.9-0.6c-0.2-0.3-0.4-0.6-0.5-1     c-0.1-0.4-0.2-0.8-0.2-1.2v-0.1C274.1,20.2,274.2,19.8,274.3,19.4z M275.3,21.6c0.1,0.3,0.2,0.5,0.3,0.7c0.1,0.2,0.3,0.4,0.5,0.5     c0.2,0.1,0.5,0.2,0.8,0.2c0.3,0,0.5-0.1,0.7-0.2c0.2-0.1,0.4-0.3,0.5-0.5c0.1-0.2,0.2-0.4,0.3-0.7c0.1-0.3,0.1-0.6,0.1-0.8v-0.1     c0-0.3,0-0.6-0.1-0.8c-0.1-0.3-0.2-0.5-0.3-0.7c-0.1-0.2-0.3-0.4-0.5-0.5s-0.5-0.2-0.7-0.2s-0.5,0.1-0.7,0.2s-0.4,0.3-0.5,0.5     c-0.1,0.2-0.3,0.4-0.3,0.7c-0.1,0.3-0.1,0.5-0.1,0.8v0.1C275.2,21,275.2,21.3,275.3,21.6z"
   id="path5991" />
			<path
   d="M286.2,22.3c-0.1,0.3-0.3,0.6-0.6,0.8c-0.2,0.2-0.5,0.4-0.8,0.5c-0.3,0.1-0.7,0.2-1.1,0.2c-0.3,0-0.6,0-0.9-0.1     c-0.3-0.1-0.5-0.2-0.7-0.4c-0.2-0.2-0.4-0.4-0.6-0.6c-0.2-0.2-0.3-0.5-0.4-0.7c-0.1-0.3-0.2-0.5-0.2-0.8     c-0.1-0.3-0.1-0.6-0.1-0.9v-1.1c0-0.3,0-0.6,0.1-0.9c0-0.3,0.1-0.6,0.2-0.8c0.1-0.3,0.2-0.5,0.4-0.7c0.2-0.2,0.3-0.4,0.6-0.6     c0.2-0.2,0.5-0.3,0.7-0.4c0.3-0.1,0.6-0.1,0.9-0.1c0.4,0,0.8,0.1,1.1,0.2s0.6,0.3,0.8,0.5c0.2,0.2,0.4,0.5,0.6,0.8     c0.1,0.3,0.2,0.7,0.3,1.1h-1c0-0.2-0.1-0.5-0.2-0.7c-0.1-0.2-0.2-0.4-0.3-0.6s-0.3-0.3-0.5-0.4c-0.2-0.1-0.4-0.1-0.7-0.1     c-0.2,0-0.5,0-0.6,0.1c-0.2,0.1-0.3,0.2-0.5,0.3c-0.1,0.1-0.3,0.3-0.3,0.5c-0.1,0.2-0.2,0.4-0.2,0.6s-0.1,0.4-0.1,0.6     c0,0.2,0,0.4,0,0.6v1.1c0,0.2,0,0.4,0,0.6c0,0.2,0.1,0.4,0.1,0.6c0.1,0.2,0.1,0.4,0.2,0.6c0.1,0.2,0.2,0.3,0.3,0.5     c0.1,0.1,0.3,0.3,0.5,0.3c0.2,0.1,0.4,0.1,0.7,0.1c0.3,0,0.5,0,0.7-0.1c0.2-0.1,0.4-0.2,0.5-0.4c0.1-0.2,0.2-0.3,0.3-0.5     c0.1-0.2,0.1-0.4,0.2-0.7h1C286.5,21.6,286.4,22,286.2,22.3z"
   id="path5993" />
			<path
   d="M291.3,15.1v7.7h2v0.9h-5v-0.9h2V16h-2v-0.9H291.3z"
   id="path5995" />
			<path
   d="M298.2,17.7v5.1h2v0.9h-5v-0.9h2v-4.2h-2v-0.9H298.2z M297,15.8c0-0.1,0.1-0.1,0.1-0.2c0,0,0.1-0.1,0.2-0.1     c0.1,0,0.2,0,0.3,0c0.1,0,0.2,0,0.3,0c0.1,0,0.1,0.1,0.2,0.1c0.1,0.1,0.1,0.1,0.1,0.2c0,0.1,0,0.2,0,0.3c0,0.2-0.1,0.3-0.2,0.4     c-0.1,0.1-0.3,0.2-0.5,0.2c-0.2,0-0.4-0.1-0.5-0.2c-0.1-0.1-0.2-0.3-0.2-0.4C297,16,297,15.9,297,15.8z"
   id="path5997" />
			<path
   d="M303.3,23.6c-0.4-0.1-0.7-0.3-0.9-0.6c-0.3-0.3-0.4-0.6-0.6-0.9c-0.1-0.4-0.2-0.7-0.2-1.2v-0.2c0-0.5,0.1-0.9,0.2-1.3     s0.4-0.7,0.6-1c0.3-0.3,0.5-0.5,0.9-0.6c0.3-0.1,0.7-0.2,1-0.2c0.4,0,0.8,0.1,1.1,0.2c0.3,0.2,0.6,0.4,0.8,0.6     c0.2,0.3,0.4,0.6,0.5,0.9c0.1,0.4,0.2,0.7,0.2,1.2V21h-4.3v0c0,0.3,0.1,0.6,0.2,0.8c0.1,0.2,0.2,0.4,0.4,0.6     c0.2,0.2,0.4,0.3,0.6,0.4c0.2,0.1,0.5,0.2,0.8,0.2c0.4,0,0.7-0.1,1-0.2c0.3-0.1,0.5-0.3,0.7-0.6l0.6,0.5     c-0.2,0.3-0.5,0.6-0.9,0.8s-0.9,0.4-1.5,0.4C304,23.8,303.6,23.7,303.3,23.6z M303.7,18.5c-0.2,0.1-0.4,0.2-0.5,0.3     c-0.1,0.1-0.3,0.3-0.4,0.5c-0.1,0.2-0.2,0.5-0.2,0.7h3.2v0c0-0.2,0-0.4-0.1-0.6c-0.1-0.2-0.2-0.4-0.3-0.6     c-0.1-0.2-0.3-0.3-0.5-0.4s-0.4-0.1-0.7-0.1C304.1,18.4,303.9,18.4,303.7,18.5z"
   id="path5999" />
			<path
   d="M308.6,17.7h0.9l0.1,0.9c0.1-0.1,0.2-0.2,0.3-0.3c0.1-0.1,0.2-0.2,0.3-0.3c0.2-0.1,0.4-0.2,0.6-0.3     c0.2-0.1,0.4-0.1,0.7-0.1c0.3,0,0.6,0,0.9,0.1s0.5,0.2,0.7,0.4c0.2,0.2,0.3,0.4,0.4,0.7c0.1,0.3,0.1,0.6,0.1,1v3.8h-1v-3.8     c0-0.3,0-0.5-0.1-0.7c-0.1-0.2-0.1-0.3-0.3-0.5c-0.1-0.1-0.3-0.2-0.4-0.2c-0.2-0.1-0.4-0.1-0.6-0.1c-0.2,0-0.4,0-0.5,0.1     c-0.2,0.1-0.3,0.1-0.5,0.2c-0.1,0.1-0.2,0.2-0.3,0.3c-0.1,0.1-0.2,0.2-0.2,0.4v4.3h-1V17.7z"
   id="path6001" />
			<path
   d="M317.9,17.7h2.3v0.8h-2.3v3.3c0,0.2,0,0.4,0.1,0.6c0.1,0.2,0.1,0.3,0.2,0.4c0.1,0.1,0.2,0.2,0.4,0.2     c0.1,0,0.3,0.1,0.4,0.1c0.1,0,0.2,0,0.3,0s0.2,0,0.4,0c0.1,0,0.2,0,0.3-0.1c0.1,0,0.2,0,0.2-0.1l0.1,0.7     c-0.1,0.1-0.2,0.1-0.3,0.1c-0.1,0-0.3,0.1-0.4,0.1c-0.1,0-0.3,0.1-0.5,0.1c-0.2,0-0.3,0-0.5,0c-0.3,0-0.5,0-0.7-0.1     c-0.2-0.1-0.4-0.2-0.6-0.4c-0.2-0.2-0.3-0.4-0.4-0.6s-0.1-0.6-0.1-0.9v-3.3h-1.6v-0.8h1.6v-1.5h1V17.7z"
   id="path6003" />
			<path
   d="M324.3,22.4c0.1-0.2,0.3-0.2,0.6-0.2c0.3,0,0.5,0.1,0.6,0.2c0.1,0.2,0.2,0.3,0.2,0.6c0,0.2-0.1,0.4-0.2,0.5     c-0.1,0.1-0.3,0.2-0.6,0.2c-0.3,0-0.5-0.1-0.6-0.2c-0.1-0.2-0.2-0.3-0.2-0.5C324.1,22.8,324.1,22.6,324.3,22.4z"
   id="path6005" />
			<path
   d="M329.1,17.7h0.9l0,0.7c0.1-0.1,0.2-0.2,0.3-0.3c0.1-0.1,0.2-0.2,0.3-0.2c0.2-0.1,0.3-0.2,0.5-0.2c0.2,0,0.4-0.1,0.6-0.1     c0.4,0,0.7,0.1,1,0.2c0.3,0.2,0.5,0.4,0.7,0.6s0.4,0.6,0.5,1c0.1,0.4,0.2,0.8,0.2,1.2v0.1c0,0.4-0.1,0.8-0.2,1.2     c-0.1,0.4-0.3,0.7-0.5,1s-0.4,0.5-0.7,0.6c-0.3,0.2-0.6,0.2-1,0.2c-0.2,0-0.4,0-0.6-0.1c-0.2,0-0.4-0.1-0.5-0.2     c-0.1-0.1-0.2-0.1-0.3-0.2c-0.1-0.1-0.2-0.1-0.2-0.2V26h-1V17.7z M333.1,19.8c-0.1-0.3-0.2-0.5-0.3-0.7c-0.1-0.2-0.3-0.4-0.5-0.5     c-0.2-0.1-0.5-0.2-0.7-0.2c-0.2,0-0.3,0-0.4,0.1c-0.1,0-0.3,0.1-0.4,0.2c-0.1,0.1-0.2,0.2-0.3,0.3c-0.1,0.1-0.2,0.2-0.2,0.3v2.9     c0.1,0.1,0.1,0.2,0.2,0.3c0.1,0.1,0.2,0.2,0.3,0.2c0.1,0.1,0.3,0.1,0.4,0.2c0.1,0,0.3,0.1,0.5,0.1c0.3,0,0.5-0.1,0.7-0.2     c0.2-0.1,0.4-0.3,0.5-0.5c0.1-0.2,0.2-0.4,0.3-0.7c0.1-0.3,0.1-0.5,0.1-0.8v-0.1C333.2,20.3,333.1,20,333.1,19.8z"
   id="path6007" />
			<path
   d="M339.8,22.8c-0.2,0.3-0.5,0.5-0.8,0.7c-0.3,0.2-0.6,0.2-1,0.2c-0.3,0-0.6,0-0.9-0.1s-0.5-0.3-0.7-0.5     c-0.2-0.2-0.3-0.5-0.4-0.8c-0.1-0.3-0.1-0.7-0.1-1.2v-3.6h1v3.6c0,0.3,0,0.6,0.1,0.8s0.1,0.4,0.2,0.5c0.1,0.1,0.2,0.2,0.4,0.3     c0.2,0.1,0.3,0.1,0.5,0.1c0.2,0,0.4,0,0.6-0.1s0.3-0.1,0.5-0.2c0.1-0.1,0.2-0.2,0.3-0.3c0.1-0.1,0.2-0.2,0.2-0.4v-4.3h1v6h-0.9     L339.8,22.8z"
   id="path6009" />
			<path
   d="M345.2,17.7h2.3v0.8h-2.3v3.3c0,0.2,0,0.4,0.1,0.6c0.1,0.2,0.1,0.3,0.2,0.4c0.1,0.1,0.2,0.2,0.4,0.2s0.3,0.1,0.4,0.1     c0.1,0,0.2,0,0.3,0c0.1,0,0.2,0,0.3,0c0.1,0,0.2,0,0.3-0.1s0.2,0,0.2-0.1l0.1,0.7c-0.1,0.1-0.2,0.1-0.3,0.1s-0.3,0.1-0.4,0.1     c-0.1,0-0.3,0.1-0.5,0.1s-0.3,0-0.5,0c-0.3,0-0.5,0-0.7-0.1c-0.2-0.1-0.4-0.2-0.6-0.4c-0.2-0.2-0.3-0.4-0.4-0.6     c-0.1-0.3-0.1-0.6-0.1-0.9v-3.3h-1.6v-0.8h1.6v-1.5h1V17.7z"
   id="path6011" />
			<path
   d="M354.8,21c0,0.3-0.1,0.6-0.2,0.9c-0.1,0.3-0.2,0.5-0.4,0.8c-0.2,0.2-0.3,0.4-0.5,0.6c-0.2,0.2-0.4,0.3-0.7,0.4     c-0.3,0.1-0.6,0.2-0.9,0.2s-0.6-0.1-0.9-0.2c-0.3-0.1-0.5-0.2-0.7-0.4c-0.2-0.2-0.4-0.4-0.5-0.6c-0.2-0.2-0.3-0.5-0.4-0.8     c-0.1-0.3-0.2-0.6-0.2-0.9s-0.1-0.6-0.1-0.9v-0.9c0-0.3,0-0.6,0.1-0.9c0-0.3,0.1-0.6,0.2-0.9c0.1-0.3,0.2-0.5,0.4-0.8     s0.3-0.4,0.5-0.6c0.2-0.2,0.4-0.3,0.7-0.4c0.3-0.1,0.6-0.2,0.9-0.2c0.3,0,0.6,0.1,0.9,0.2c0.3,0.1,0.5,0.2,0.7,0.4     c0.2,0.2,0.4,0.4,0.5,0.6c0.2,0.2,0.3,0.5,0.4,0.8c0.1,0.3,0.2,0.6,0.2,0.9c0,0.3,0.1,0.6,0.1,0.9v0.9     C354.9,20.4,354.9,20.7,354.8,21z M353.8,18.6c0-0.2-0.1-0.4-0.1-0.6c-0.1-0.2-0.1-0.4-0.2-0.6c-0.1-0.2-0.2-0.4-0.3-0.5     c-0.1-0.1-0.3-0.3-0.5-0.3s-0.4-0.1-0.6-0.1c-0.2,0-0.4,0-0.6,0.1s-0.3,0.2-0.5,0.3c-0.1,0.1-0.2,0.3-0.3,0.5     c-0.1,0.2-0.2,0.4-0.2,0.6c-0.1,0.2-0.1,0.4-0.1,0.6c0,0.2,0,0.4,0,0.6v0.9c0,0.2,0,0.4,0,0.6c0,0.2,0.1,0.4,0.1,0.6     c0.1,0.2,0.1,0.4,0.2,0.6c0.1,0.2,0.2,0.4,0.3,0.5c0.1,0.1,0.3,0.3,0.5,0.3c0.2,0.1,0.4,0.1,0.6,0.1s0.5,0,0.6-0.1     c0.2-0.1,0.3-0.2,0.5-0.3c0.1-0.1,0.2-0.3,0.3-0.5c0.1-0.2,0.2-0.4,0.2-0.6c0.1-0.2,0.1-0.4,0.1-0.6c0-0.2,0-0.4,0-0.6v-0.9     C353.9,19,353.8,18.8,353.8,18.6z"
   id="path6013" />
			<path
   d="M361.5,21.5c0,0.2-0.1,0.5-0.2,0.7c-0.1,0.3-0.2,0.5-0.4,0.7s-0.4,0.4-0.6,0.5c-0.2,0.1-0.3,0.2-0.5,0.2     c-0.2,0.1-0.4,0.1-0.6,0.1c-0.3,0-0.5,0-0.7-0.1c-0.2-0.1-0.4-0.2-0.6-0.3c-0.1-0.1-0.2-0.1-0.2-0.2s-0.1-0.1-0.2-0.2l0,0.7h-0.9     v-8.5h1v3.2c0.1-0.1,0.2-0.2,0.3-0.3c0.1-0.1,0.2-0.2,0.3-0.2c0.1-0.1,0.3-0.1,0.5-0.2s0.4-0.1,0.6-0.1c0.3,0,0.5,0,0.7,0.1     s0.4,0.2,0.6,0.3c0.2,0.1,0.3,0.3,0.4,0.4c0.1,0.2,0.2,0.4,0.3,0.6c0.1,0.2,0.2,0.5,0.2,0.8s0.1,0.6,0.1,0.9v0.1     C361.5,21,361.5,21.2,361.5,21.5z M360.5,20.1c0-0.2-0.1-0.3-0.1-0.5c-0.1-0.2-0.2-0.4-0.3-0.5s-0.2-0.3-0.4-0.4     c-0.1-0.1-0.2-0.1-0.4-0.2s-0.3-0.1-0.4-0.1c-0.2,0-0.3,0-0.5,0.1c-0.1,0-0.3,0.1-0.4,0.2c-0.1,0.1-0.2,0.2-0.3,0.3     c-0.1,0.1-0.2,0.2-0.2,0.4V22c0.1,0.1,0.1,0.3,0.2,0.4s0.2,0.2,0.3,0.3c0.1,0.1,0.3,0.2,0.4,0.2c0.1,0,0.3,0.1,0.5,0.1     c0.2,0,0.3,0,0.5-0.1c0.1,0,0.3-0.1,0.4-0.2c0.1-0.1,0.3-0.2,0.4-0.4c0.1-0.2,0.2-0.3,0.2-0.5c0-0.1,0.1-0.3,0.1-0.5     c0-0.2,0-0.3,0-0.5v-0.1C360.5,20.4,360.5,20.2,360.5,20.1z"
   id="path6015" />
			<path
   d="M367,17.7v6.1c0,0.4-0.1,0.7-0.2,1c-0.1,0.3-0.3,0.5-0.5,0.7c-0.2,0.2-0.5,0.4-0.7,0.5c-0.3,0.1-0.6,0.2-1,0.2     c-0.1,0-0.2,0-0.3,0s-0.2,0-0.3,0c-0.1,0-0.2,0-0.3,0c-0.1,0-0.2,0-0.3,0l0.1-0.8c0.1,0,0.1,0,0.2,0c0.1,0,0.2,0,0.3,0     c0.1,0,0.2,0,0.3,0s0.2,0,0.2,0c0.2,0,0.4,0,0.5-0.1c0.2-0.1,0.3-0.1,0.4-0.3c0.1-0.1,0.2-0.3,0.3-0.5c0.1-0.2,0.1-0.4,0.1-0.7     v-5.2h-2v-0.9H367z M366,15.6c0.1-0.1,0.3-0.2,0.5-0.2c0.2,0,0.4,0.1,0.5,0.2c0.1,0.1,0.2,0.3,0.2,0.4s-0.1,0.3-0.2,0.4     c-0.1,0.1-0.3,0.2-0.5,0.2c-0.2,0-0.4-0.1-0.5-0.2c-0.1-0.1-0.2-0.3-0.2-0.4S365.9,15.8,366,15.6z"
   id="path6017" />
			<path
   d="M371.6,23.6c-0.4-0.1-0.7-0.3-0.9-0.6s-0.4-0.6-0.6-0.9c-0.1-0.4-0.2-0.7-0.2-1.2v-0.2c0-0.5,0.1-0.9,0.2-1.3     c0.2-0.4,0.4-0.7,0.6-1c0.3-0.3,0.5-0.5,0.9-0.6c0.3-0.1,0.7-0.2,1-0.2c0.4,0,0.8,0.1,1.1,0.2c0.3,0.2,0.6,0.4,0.8,0.6     c0.2,0.3,0.4,0.6,0.5,0.9c0.1,0.4,0.2,0.7,0.2,1.2V21h-4.3v0c0,0.3,0.1,0.6,0.2,0.8c0.1,0.2,0.2,0.4,0.4,0.6     c0.2,0.2,0.4,0.3,0.6,0.4c0.2,0.1,0.5,0.2,0.8,0.2c0.4,0,0.7-0.1,1-0.2c0.3-0.1,0.5-0.3,0.7-0.6l0.6,0.5     c-0.2,0.3-0.5,0.6-0.9,0.8s-0.9,0.4-1.5,0.4C372.4,23.8,372,23.7,371.6,23.6z M372.1,18.5c-0.2,0.1-0.4,0.2-0.5,0.3     c-0.1,0.1-0.3,0.3-0.4,0.5c-0.1,0.2-0.2,0.5-0.2,0.7h3.2v0c0-0.2,0-0.4-0.1-0.6c-0.1-0.2-0.2-0.4-0.3-0.6     c-0.1-0.2-0.3-0.3-0.5-0.4c-0.2-0.1-0.4-0.1-0.7-0.1C372.4,18.4,372.2,18.4,372.1,18.5z"
   id="path6019" />
			<path
   d="M380.1,22.9c0.2-0.1,0.3-0.1,0.5-0.3c0.1-0.1,0.2-0.2,0.3-0.4c0.1-0.1,0.1-0.3,0.1-0.5h1c0,0.3-0.1,0.5-0.2,0.8     c-0.1,0.2-0.3,0.5-0.5,0.6c-0.2,0.2-0.5,0.3-0.8,0.4s-0.6,0.2-0.9,0.2c-0.5,0-0.9-0.1-1.2-0.2s-0.6-0.4-0.9-0.7     c-0.2-0.3-0.4-0.6-0.5-1s-0.2-0.7-0.2-1.1v-0.2c0-0.4,0.1-0.8,0.2-1.1s0.3-0.7,0.5-1c0.2-0.3,0.5-0.5,0.9-0.7s0.7-0.2,1.2-0.2     c0.4,0,0.7,0.1,1,0.2c0.3,0.1,0.6,0.3,0.8,0.5c0.2,0.2,0.4,0.4,0.5,0.7c0.1,0.3,0.2,0.6,0.2,0.9h-1c0-0.2,0-0.4-0.1-0.5     s-0.2-0.3-0.3-0.4s-0.3-0.2-0.5-0.3s-0.4-0.1-0.6-0.1c-0.3,0-0.6,0.1-0.8,0.2s-0.4,0.3-0.5,0.5c-0.1,0.2-0.2,0.4-0.3,0.7     s-0.1,0.5-0.1,0.8v0.2c0,0.3,0,0.5,0.1,0.8s0.2,0.5,0.3,0.7c0.1,0.2,0.3,0.4,0.5,0.5s0.5,0.2,0.8,0.2     C379.7,22.9,379.9,22.9,380.1,22.9z"
   id="path6021" />
			<path
   d="M386.2,17.7h2.3v0.8h-2.3v3.3c0,0.2,0,0.4,0.1,0.6c0.1,0.2,0.1,0.3,0.2,0.4c0.1,0.1,0.2,0.2,0.4,0.2s0.3,0.1,0.4,0.1     c0.1,0,0.2,0,0.3,0c0.1,0,0.2,0,0.3,0c0.1,0,0.2,0,0.3-0.1s0.2,0,0.2-0.1l0.1,0.7c-0.1,0.1-0.2,0.1-0.3,0.1s-0.3,0.1-0.4,0.1     c-0.1,0-0.3,0.1-0.5,0.1s-0.3,0-0.5,0c-0.3,0-0.5,0-0.7-0.1c-0.2-0.1-0.4-0.2-0.6-0.4c-0.2-0.2-0.3-0.4-0.4-0.6     c-0.1-0.3-0.1-0.6-0.1-0.9v-3.3h-1.6v-0.8h1.6v-1.5h1V17.7z"
   id="path6023" />
			<path
   d="M391.8,18.9c0.1-0.5,0.2-0.9,0.3-1.3c0.1-0.4,0.3-0.8,0.5-1.1c0.2-0.3,0.4-0.6,0.6-0.9c0.2-0.3,0.4-0.5,0.6-0.7     s0.4-0.3,0.6-0.4l0.2,0.7c-0.1,0.1-0.2,0.2-0.4,0.3c-0.1,0.1-0.2,0.3-0.4,0.4c-0.2,0.2-0.3,0.5-0.5,0.8c-0.2,0.3-0.3,0.7-0.4,1.1     c-0.1,0.3-0.2,0.7-0.2,1.2s-0.1,0.9-0.1,1.4v0.1c0,0.5,0,0.9,0.1,1.3s0.1,0.8,0.2,1.1c0.1,0.3,0.2,0.7,0.3,1s0.3,0.6,0.4,0.8     c0.1,0.2,0.3,0.4,0.4,0.6c0.1,0.2,0.3,0.3,0.5,0.4l-0.2,0.6c-0.2-0.1-0.4-0.2-0.6-0.4s-0.4-0.4-0.6-0.7c-0.2-0.3-0.4-0.5-0.6-0.9     s-0.3-0.7-0.5-1.1c-0.1-0.4-0.3-0.8-0.3-1.3c-0.1-0.5-0.1-1-0.1-1.5v-0.1C391.6,19.9,391.7,19.4,391.8,18.9z"
   id="path6025" />
			<path
   d="M401.1,21.9c-0.1,0.5-0.2,0.9-0.3,1.3c-0.1,0.4-0.3,0.8-0.5,1.1s-0.4,0.6-0.6,0.9c-0.2,0.3-0.4,0.5-0.6,0.7     s-0.4,0.3-0.6,0.4l-0.2-0.6c0.2-0.1,0.3-0.3,0.5-0.4c0.2-0.2,0.3-0.4,0.5-0.6c0.1-0.2,0.3-0.5,0.4-0.8c0.1-0.3,0.2-0.6,0.3-1     c0.1-0.3,0.2-0.7,0.2-1.1c0-0.4,0.1-0.8,0.1-1.2v-0.1c0-0.5,0-1-0.1-1.4c-0.1-0.4-0.1-0.8-0.2-1c-0.1-0.4-0.2-0.8-0.4-1.1     s-0.3-0.6-0.5-0.8c-0.1-0.2-0.2-0.4-0.4-0.5s-0.3-0.3-0.4-0.4l0.2-0.6c0.2,0.1,0.4,0.2,0.6,0.4s0.4,0.4,0.6,0.7     c0.2,0.3,0.4,0.6,0.6,0.9c0.2,0.3,0.3,0.7,0.5,1.1c0.1,0.4,0.2,0.8,0.3,1.3s0.1,1,0.1,1.5v0.1C401.2,21,401.2,21.5,401.1,21.9z"
   id="path6027" />
		</g>
	</g>
</g>
<path
   id="rect26"
   class="st5"
   style="fill:none;stroke:#cf2144;stroke-miterlimit:10"
   d="M 228.7,3.5999999 H 414.59999 V 42.899999 H 228.7 Z" />
<path
   id="rect28"
   class="st1"
   style="fill:#cf2144"
   d="m 228.7,130.10001 h 185.89999 v 52.9 H 228.7 Z" />
<g
   id="g42"
   transform="translate(0,4)">
	<g
   id="g36">
		<path
   id="rect30"
   class="st6"
   style="fill:#ffffff"
   d="m 308.60001,147.7 h 4.5 v 11.7 h -4.5 z" />
		<path
   id="path32"
   class="st6"
   d="M303.1,147.9l-9.1,4.9c-0.1,0.1-0.3,0.1-0.4,0l-9.1-4.9c-0.2-0.1-0.4-0.2-0.6-0.2h0    c-0.7,0-1.2,0.5-1.2,1.1v10.6h4.5v-5c0-0.3,0.4-0.5,0.7-0.3l5.1,2.8c0.5,0.3,1.1,0.3,1.6,0l5.4-2.8c0.3-0.1,0.7,0,0.7,0.3v5.1h4.5    v-10.6c0-0.6-0.6-1.1-1.2-1.1h0C303.6,147.7,303.3,147.8,303.1,147.9L303.1,147.9z" />
		<path
   id="path34"
   class="st6"
   d="M335.5,147.7h-4.5v5.3c0,0.3-0.4,0.5-0.7,0.4l-11.8-5.6c-0.2-0.1-0.4-0.1-0.6-0.1l0,0    c-0.7,0-1.2,0.5-1.2,1.1v10.6h4.5v-5.3c0-0.3,0.4-0.5,0.7-0.4l11.9,5.6c0.2,0.1,0.4,0.1,0.6,0.1l0,0c0.7,0,1.2-0.5,1.2-1.1    L335.5,147.7L335.5,147.7z" />
	</g>
	<path
   id="path38"
   class="st6"
   d="M339,159.4v-11.7h2.1v11.7H339z" />
	<path
   id="path40"
   class="st6"
   d="M353.2,159.6c-5.6,0-9.5-2.3-9.5-6.1c0-3.7,4-6.1,9.5-6.1s9.5,2.3,9.5,6.1   S358.9,159.6,353.2,159.6z M353.2,149.1c-4.1,0-7.3,1.6-7.3,4.5c0,2.9,3.2,4.5,7.3,4.5c4.1,0,7.3-1.6,7.3-4.5   C360.6,150.6,357.4,149.1,353.2,149.1z" />
</g>
<path
   id="line44"
   class="st3"
   style="fill:none;stroke:#1b1717;stroke-width:1.47;stroke-miterlimit:10"
   d="M 321.60001,43.099998 V 58.900002" />
<path
   id="rect46"
   class="st7"
   style="fill:#0c1835"
   d="M 228.7,58.099998 H 414.59999 V 111 H 228.7 Z" />
<g
   id="g6049">
	<g
   class="st4"
   id="g6047">
		<path
   class="st6"
   d="M263.4,89.4V79.2h1.2v9.1h4.7v1.1H263.4z"
   id="path6045" />
	</g>
</g>
<g
   id="g6055">
	<g
   class="st4"
   id="g6053">
		<path
   class="st6"
   d="M279.6,84.3c0,1.1-0.2,2-0.6,2.8s-0.9,1.4-1.6,1.8c-0.7,0.4-1.4,0.6-2.3,0.6c-0.9,0-1.6-0.2-2.3-0.6    s-1.2-1-1.6-1.8s-0.6-1.7-0.6-2.8s0.2-2,0.6-2.8s0.9-1.4,1.6-1.8s1.4-0.6,2.3-0.6c0.9,0,1.6,0.2,2.3,0.6c0.7,0.4,1.2,1,1.6,1.8    S279.6,83.2,279.6,84.3z M278.4,84.3c0-0.9-0.1-1.6-0.4-2.2c-0.3-0.6-0.7-1.1-1.2-1.4s-1.1-0.5-1.7-0.5c-0.6,0-1.2,0.2-1.7,0.5    c-0.5,0.3-0.9,0.8-1.2,1.4c-0.3,0.6-0.4,1.4-0.4,2.2s0.1,1.6,0.4,2.2c0.3,0.6,0.7,1.1,1.2,1.4c0.5,0.3,1.1,0.5,1.7,0.5    c0.6,0,1.2-0.2,1.7-0.5s0.9-0.8,1.2-1.4C278.2,85.9,278.4,85.2,278.4,84.3z"
   id="path6051" />
	</g>
</g>
<g
   id="g6067">
	<g
   class="st4"
   id="g6065">
		<path
   class="st6"
   d="M281.8,89.4h-1.3l3.7-10.2h1.3l3.7,10.2h-1.3l-3-8.6h-0.1L281.8,89.4z M282.2,85.4h5.2v1.1h-5.2V85.4z"
   id="path6057" />
		<path
   class="st6"
   d="M294,89.4h-3.1V79.2h3.3c1,0,1.8,0.2,2.5,0.6c0.7,0.4,1.2,1,1.6,1.7c0.4,0.8,0.6,1.7,0.6,2.7    c0,1.1-0.2,2-0.6,2.7s-0.9,1.4-1.7,1.8S295,89.4,294,89.4z M292.1,88.3h1.8c0.8,0,1.5-0.2,2.1-0.5c0.6-0.3,1-0.8,1.2-1.4    c0.3-0.6,0.4-1.3,0.4-2.1c0-0.8-0.1-1.5-0.4-2.1s-0.7-1.1-1.2-1.4c-0.5-0.3-1.2-0.5-2-0.5h-2V88.3z"
   id="path6059" />
		<path
   class="st6"
   d="M304.8,89.4V79.2h3.6c0.7,0,1.3,0.1,1.8,0.4c0.5,0.2,0.8,0.6,1,1s0.3,0.9,0.3,1.4c0,0.4-0.1,0.8-0.2,1.1    s-0.4,0.5-0.6,0.7c-0.3,0.2-0.5,0.3-0.8,0.4v0.1c0.3,0,0.6,0.1,0.9,0.3s0.6,0.5,0.8,0.9c0.2,0.4,0.3,0.8,0.3,1.4    c0,0.5-0.1,1-0.3,1.4c-0.2,0.4-0.6,0.7-1.1,1c-0.5,0.2-1.2,0.4-2,0.4H304.8z M306.1,83.7h2.3c0.4,0,0.7-0.1,1-0.2    c0.3-0.1,0.5-0.4,0.7-0.6c0.2-0.3,0.3-0.6,0.3-0.9c0-0.4-0.2-0.8-0.5-1.1s-0.8-0.5-1.5-0.5h-2.3V83.7z M306.1,88.3h2.4    c0.8,0,1.4-0.2,1.7-0.5c0.3-0.3,0.5-0.7,0.5-1.1c0-0.3-0.1-0.7-0.3-1c-0.2-0.3-0.4-0.5-0.8-0.7c-0.3-0.2-0.7-0.3-1.2-0.3h-2.5    V88.3z"
   id="path6061" />
		<path
   class="st6"
   d="M314.3,89.4h-1.3l3.7-10.2h1.3l3.7,10.2h-1.3l-3-8.6h-0.1L314.3,89.4z M314.8,85.4h5.2v1.1h-5.2V85.4z"
   id="path6063" />
	</g>
</g>
<g
   id="g6073">
	<g
   class="st4"
   id="g6071">
		<path
   class="st6"
   d="M325,89.4V79.2h1.2v9.1h4.7v1.1H325z"
   id="path6069" />
	</g>
</g>
<g
   id="g6087">
	<g
   class="st4"
   id="g6085">
		<path
   class="st6"
   d="M333.6,89.4h-1.3l3.7-10.2h1.3l3.7,10.2h-1.3l-3-8.6h-0.1L333.6,89.4z M334.1,85.4h5.2v1.1h-5.2V85.4z"
   id="path6075" />
		<path
   class="st6"
   d="M350.7,79.2v10.2h-1.2l-5.5-8h-0.1v8h-1.2V79.2h1.2l5.6,8h0.1v-8H350.7z"
   id="path6077" />
		<path
   class="st6"
   d="M361.4,82.4h-1.2c-0.1-0.4-0.2-0.7-0.4-0.9s-0.4-0.5-0.7-0.7s-0.5-0.3-0.9-0.4c-0.3-0.1-0.6-0.1-1-0.1    c-0.6,0-1.2,0.2-1.7,0.5c-0.5,0.3-0.9,0.8-1.2,1.4s-0.4,1.4-0.4,2.2s0.1,1.6,0.4,2.2s0.7,1.1,1.2,1.4c0.5,0.3,1.1,0.5,1.7,0.5    c0.3,0,0.7,0,1-0.1c0.3-0.1,0.6-0.2,0.9-0.4c0.3-0.2,0.5-0.4,0.7-0.7c0.2-0.3,0.3-0.6,0.4-0.9h1.2c-0.1,0.5-0.3,1-0.5,1.4    c-0.2,0.4-0.5,0.8-0.9,1c-0.4,0.3-0.8,0.5-1.2,0.7c-0.5,0.1-0.9,0.2-1.4,0.2c-0.9,0-1.6-0.2-2.3-0.6c-0.7-0.4-1.2-1-1.6-1.8    s-0.6-1.7-0.6-2.8s0.2-2,0.6-2.8s0.9-1.4,1.6-1.8c0.7-0.4,1.4-0.6,2.3-0.6c0.5,0,1,0.1,1.4,0.2c0.5,0.1,0.9,0.4,1.2,0.7    c0.4,0.3,0.7,0.6,0.9,1S361.3,81.9,361.4,82.4z"
   id="path6079" />
		<path
   class="st6"
   d="M363.4,89.4V79.2h6.1v1.1h-4.9v3.4h4.6v1.1h-4.6v3.5h5v1.1H363.4z"
   id="path6081" />
		<path
   class="st6"
   d="M371.7,89.4V79.2h3.4c0.8,0,1.4,0.1,2,0.4c0.5,0.3,0.9,0.6,1.1,1.1s0.4,1,0.4,1.6s-0.1,1.1-0.4,1.6    s-0.6,0.8-1.1,1.1c-0.5,0.3-1.2,0.4-1.9,0.4h-2.8v-1.1h2.7c0.5,0,1-0.1,1.3-0.2c0.3-0.2,0.6-0.4,0.7-0.7c0.2-0.3,0.2-0.6,0.2-1.1    c0-0.4-0.1-0.8-0.2-1.1c-0.2-0.3-0.4-0.5-0.7-0.7s-0.8-0.3-1.3-0.3H373v9.1H371.7z M376.5,84.8l2.5,4.6h-1.4l-2.5-4.6H376.5z"
   id="path6083" />
	</g>
</g>
<path
   id="rect60"
   class="st1"
   style="fill:#cf2144"
   d="m 7.5,233.2 h 171.39999 v 52.9 H 7.5 Z" />
<g
   id="g74"
   transform="translate(0,4)">
	<g
   id="g68">
		<path
   id="rect62"
   class="st6"
   style="fill:#ffffff"
   d="m 54.099998,252.3 h 3.900001 v 10.2 h -3.900001 z" />
		<path
   id="path64"
   class="st6"
   d="M49.4,252.4l-8,4.3c-0.1,0.1-0.3,0.1-0.4,0l-8-4.3c-0.2-0.1-0.4-0.1-0.6-0.1l0,0    c-0.6,0-1.1,0.4-1.1,1v9.2h3.9v-4.4c0-0.3,0.3-0.4,0.6-0.3l4.5,2.4c0.4,0.2,1,0.2,1.4,0l4.7-2.4c0.3-0.1,0.6,0,0.6,0.3v4.4H51    v-9.2c0-0.5-0.5-1-1.1-1l0,0C49.8,252.3,49.6,252.4,49.4,252.4L49.4,252.4z" />
		<path
   id="path66"
   class="st6"
   d="M77.6,252.3h-4v4.6c0,0.3-0.3,0.4-0.6,0.3l-10.3-4.8c-0.2-0.1-0.3-0.1-0.5-0.1l0,0    c-0.6,0-1.1,0.4-1.1,1v9.2h3.9v-4.6c0-0.3,0.3-0.4,0.6-0.3l10.3,4.8c0.2,0.1,0.3,0.1,0.5,0.1l0,0c0.6,0,1.1-0.4,1.1-1V252.3    L77.6,252.3z" />
	</g>
	<path
   id="path70"
   class="st6"
   d="M80.7,262.5v-10.2h1.8v10.2H80.7z" />
	<path
   id="path72"
   class="st6"
   d="M93.1,262.7c-4.8,0-8.3-2-8.3-5.3c0-3.2,3.5-5.3,8.3-5.3s8.3,2,8.3,5.3   C101.4,260.7,98,262.7,93.1,262.7z M93.1,253.5c-3.6,0-6.4,1.4-6.4,3.9c0,2.6,2.8,3.9,6.4,3.9s6.4-1.4,6.4-3.9   C99.5,254.9,96.7,253.5,93.1,253.5z" />
</g>
<g
   id="g6109">
	<g
   class="st4"
   id="g6107">
		<path
   class="st6"
   d="M117,258.8c-0.1-0.5-0.3-0.9-0.7-1.2c-0.4-0.3-0.9-0.4-1.6-0.4c-0.5,0-0.8,0.1-1.2,0.2    c-0.3,0.1-0.6,0.3-0.8,0.6c-0.2,0.3-0.3,0.5-0.3,0.9c0,0.3,0.1,0.5,0.2,0.7c0.1,0.2,0.3,0.4,0.5,0.5c0.2,0.1,0.4,0.2,0.6,0.3    c0.2,0.1,0.4,0.1,0.6,0.2l1,0.3c0.3,0.1,0.6,0.2,0.9,0.3c0.3,0.1,0.6,0.3,0.9,0.5c0.3,0.2,0.5,0.5,0.7,0.8    c0.2,0.3,0.3,0.7,0.3,1.2c0,0.6-0.1,1-0.4,1.5c-0.3,0.4-0.7,0.8-1.3,1.1c-0.5,0.3-1.2,0.4-2,0.4c-0.7,0-1.4-0.1-1.9-0.4    c-0.5-0.2-0.9-0.6-1.3-1c-0.3-0.4-0.5-0.9-0.5-1.5h1.3c0,0.4,0.2,0.7,0.4,1s0.5,0.4,0.9,0.6c0.3,0.1,0.7,0.2,1.1,0.2    c0.5,0,0.9-0.1,1.3-0.2s0.7-0.4,0.9-0.6s0.3-0.6,0.3-1c0-0.3-0.1-0.6-0.3-0.8c-0.2-0.2-0.4-0.4-0.7-0.5s-0.6-0.2-1-0.3l-1.3-0.4    c-0.8-0.2-1.4-0.6-1.9-1c-0.5-0.4-0.7-1-0.7-1.7c0-0.6,0.2-1.1,0.5-1.5c0.3-0.4,0.7-0.8,1.3-1c0.5-0.2,1.1-0.4,1.8-0.4    c0.7,0,1.2,0.1,1.8,0.4c0.5,0.2,0.9,0.6,1.2,1s0.5,0.9,0.5,1.4H117z"
   id="path6097" />
		<path
   class="st6"
   d="M121.6,256.3v10.2h-1.2v-10.2H121.6z"
   id="path6099" />
		<path
   class="st6"
   d="M123.5,257.4v-1.1h7.6v1.1h-3.2v9.1h-1.2v-9.1H123.5z"
   id="path6101" />
		<path
   class="st6"
   d="M133,266.5v-10.2h6.1v1.1h-4.9v3.4h4.6v1.1h-4.6v3.5h5v1.1H133z"
   id="path6103" />
		<path
   class="st6"
   d="M145.8,266.5h-1.3l3.7-10.2h1.3l3.7,10.2h-1.3l-3-8.6h-0.1L145.8,266.5z M146.2,262.5h5.2v1.1h-5.2V262.5z"
   id="path6105" />
	</g>
</g>
<path
   id="rect80"
   class="st8"
   style="fill:#f6f6f6;stroke:#cf2144;stroke-miterlimit:10;stroke-dasharray:0, 0, 3, 3"
   d="m 464.29999,233.2 h 171.39999 v 52.9 H 464.29999 Z" />
<g
   id="g94"
   transform="translate(0,4)">
	<g
   id="g88">
		<path
   id="rect82"
   class="st1"
   style="fill:#cf2144"
   d="m 511,252.3 h 3.9 v 10.2 H 511 Z" />
		<path
   id="path84"
   class="st1"
   d="M506.2,252.4l-8,4.3c-0.1,0.1-0.3,0.1-0.4,0l-8-4.3c-0.2-0.1-0.4-0.1-0.6-0.1l0,0    c-0.6,0-1.1,0.4-1.1,1v9.2h3.9v-4.4c0-0.3,0.3-0.4,0.6-0.3l4.5,2.4c0.4,0.2,1,0.2,1.4,0l4.7-2.4c0.3-0.1,0.6,0,0.6,0.3v4.4h3.9    v-9.2c0-0.5-0.5-1-1.1-1l0,0C506.6,252.3,506.4,252.4,506.2,252.4L506.2,252.4z" />
		<path
   id="path86"
   class="st1"
   d="M534.4,252.3h-4v4.6c0,0.3-0.3,0.4-0.6,0.3l-10.3-4.8c-0.2-0.1-0.3-0.1-0.5-0.1l0,0    c-0.6,0-1.1,0.4-1.1,1v9.2h3.9v-4.6c0-0.3,0.3-0.4,0.6-0.3l10.3,4.8c0.2,0.1,0.3,0.1,0.5,0.1l0,0c0.6,0,1.1-0.4,1.1-1L534.4,252.3    L534.4,252.3z" />
	</g>
	<path
   id="path90"
   class="st1"
   d="M537.5,262.5v-10.2h1.8v10.2H537.5z" />
	<path
   id="path92"
   class="st1"
   d="M549.9,262.7c-4.8,0-8.3-2-8.3-5.3c0-3.2,3.5-5.3,8.3-5.3s8.3,2,8.3,5.3   C558.2,260.7,554.8,262.7,549.9,262.7z M549.9,253.5c-3.6,0-6.4,1.4-6.4,3.9c0,2.6,2.8,3.9,6.4,3.9s6.4-1.4,6.4-3.9   C556.3,254.9,553.5,253.5,549.9,253.5z" />
</g>
<g
   id="g6131">
	<g
   class="st4"
   id="g6129">
		<path
   class="st1"
   d="M574.4,258.8c-0.1-0.5-0.3-0.9-0.7-1.2c-0.4-0.3-0.9-0.4-1.6-0.4c-0.5,0-0.8,0.1-1.2,0.2    c-0.3,0.1-0.6,0.3-0.8,0.6c-0.2,0.3-0.3,0.5-0.3,0.9c0,0.3,0.1,0.5,0.2,0.7c0.1,0.2,0.3,0.4,0.5,0.5c0.2,0.1,0.4,0.2,0.6,0.3    c0.2,0.1,0.4,0.1,0.6,0.2l1,0.3c0.3,0.1,0.6,0.2,0.9,0.3c0.3,0.1,0.6,0.3,0.9,0.5c0.3,0.2,0.5,0.5,0.7,0.8s0.3,0.7,0.3,1.2    c0,0.6-0.1,1-0.4,1.5c-0.3,0.4-0.7,0.8-1.3,1.1s-1.2,0.4-2,0.4c-0.7,0-1.4-0.1-1.9-0.4c-0.5-0.2-0.9-0.6-1.3-1    c-0.3-0.4-0.5-0.9-0.5-1.5h1.3c0,0.4,0.2,0.7,0.4,1c0.2,0.2,0.5,0.4,0.9,0.6s0.7,0.2,1.1,0.2c0.5,0,0.9-0.1,1.3-0.2    c0.4-0.2,0.7-0.4,0.9-0.6s0.3-0.6,0.3-1c0-0.3-0.1-0.6-0.3-0.8c-0.2-0.2-0.4-0.4-0.7-0.5c-0.3-0.1-0.6-0.2-1-0.3l-1.3-0.4    c-0.8-0.2-1.4-0.6-1.9-1s-0.7-1-0.7-1.7c0-0.6,0.2-1.1,0.5-1.5c0.3-0.4,0.7-0.8,1.3-1c0.5-0.2,1.1-0.4,1.8-0.4    c0.7,0,1.2,0.1,1.8,0.4c0.5,0.2,0.9,0.6,1.2,1s0.5,0.9,0.5,1.4H574.4z"
   id="path6119" />
		<path
   class="st1"
   d="M579,256.3v10.2h-1.2v-10.2H579z"
   id="path6121" />
		<path
   class="st1"
   d="M580.9,257.4v-1.1h7.6v1.1h-3.2v9.1h-1.2v-9.1H580.9z"
   id="path6123" />
		<path
   class="st1"
   d="M590.5,266.5v-10.2h6.1v1.1h-4.9v3.4h4.6v1.1h-4.6v3.5h5v1.1H590.5z"
   id="path6125" />
		<path
   class="st1"
   d="M602.8,266.5v-10.2h3.6c0.7,0,1.3,0.1,1.8,0.4c0.5,0.2,0.8,0.6,1,1c0.2,0.4,0.3,0.9,0.3,1.4    c0,0.4-0.1,0.8-0.2,1.1s-0.4,0.5-0.6,0.7c-0.3,0.2-0.5,0.3-0.8,0.4v0.1c0.3,0,0.6,0.1,0.9,0.3c0.3,0.2,0.6,0.5,0.8,0.9    s0.3,0.8,0.3,1.4c0,0.5-0.1,1-0.3,1.4c-0.2,0.4-0.6,0.7-1.1,1c-0.5,0.2-1.2,0.4-2,0.4H602.8z M604,260.8h2.3c0.4,0,0.7-0.1,1-0.2    c0.3-0.1,0.5-0.4,0.7-0.6c0.2-0.3,0.3-0.6,0.3-0.9c0-0.4-0.2-0.8-0.5-1.1c-0.3-0.3-0.8-0.5-1.5-0.5H604V260.8z M604,265.4h2.4    c0.8,0,1.4-0.2,1.7-0.5c0.3-0.3,0.5-0.7,0.5-1.1c0-0.3-0.1-0.7-0.3-1c-0.2-0.3-0.4-0.5-0.8-0.7c-0.3-0.2-0.7-0.3-1.2-0.3H604    V265.4z"
   id="path6127" />
	</g>
</g>
<path
   id="line100"
   class="st9"
   style="fill:none;stroke:#cf2144;stroke-miterlimit:10;stroke-dasharray:0, 0, 3, 3"
   d="m 182.39999,261.39999 h 277.5" />
<path
   id="polygon102"
   class="st10"
   style="fill:#577f9a"
   d="m 178.9,314.5 v -14.4 l -5,-6 H 127 v 20.4 z" />
<g
   id="g6145">
	<g
   class="st4"
   id="g6143">
		<path
   class="st6"
   d="M143.1,308h-2v-6.5h2.1c0.6,0,1.2,0.1,1.6,0.4c0.5,0.3,0.8,0.6,1,1.1c0.2,0.5,0.4,1.1,0.4,1.7    c0,0.7-0.1,1.3-0.4,1.8c-0.2,0.5-0.6,0.9-1.1,1.1C144.3,307.8,143.7,308,143.1,308z M141.8,307.3h1.2c0.5,0,1-0.1,1.3-0.3    s0.6-0.5,0.8-0.9c0.2-0.4,0.3-0.8,0.3-1.4c0-0.5-0.1-1-0.3-1.4c-0.2-0.4-0.4-0.7-0.8-0.9c-0.3-0.2-0.8-0.3-1.3-0.3h-1.3V307.3z"
   id="path6135" />
		<path
   class="st6"
   d="M147.4,308h-0.8l2.4-6.5h0.8l2.4,6.5h-0.8l-2-5.5h-0.1L147.4,308z M147.7,305.4h3.3v0.7h-3.3V305.4z"
   id="path6137" />
		<path
   class="st6"
   d="M152.5,302.1v-0.7h4.9v0.7h-2.1v5.8h-0.8v-5.8H152.5z"
   id="path6139" />
		<path
   class="st6"
   d="M158.6,308h-0.8l2.4-6.5h0.8l2.4,6.5h-0.8l-2-5.5h-0.1L158.6,308z M158.9,305.4h3.3v0.7h-3.3V305.4z"
   id="path6141" />
	</g>
</g>
<g
   id="g132"
   transform="translate(0,4)">
	<path
   id="polygon112"
   class="st11"
   style="fill:#afcddd"
   d="m 516.2,310.5 v -14.4 l -4.9,-6 h -47 v 20.4 z" />
	<g
   id="g130">
		<path
   id="polyline114"
   class="st12"
   style="fill:none;stroke:#577f9a;stroke-width:0.68;stroke-miterlimit:10"
   d="m 511.7,290.6 -0.4,-0.5 h -0.7" />
		<path
   id="line116"
   class="st13"
   style="fill:none;stroke:#577f9a;stroke-width:0.68;stroke-miterlimit:10;stroke-dasharray:0, 0, 1.38, 1.38"
   d="m 509.20001,290.10001 h -43.5" />
		<path
   id="polyline118"
   class="st12"
   style="fill:none;stroke:#577f9a;stroke-width:0.68;stroke-miterlimit:10"
   d="m 465,290.1 h -0.7 v 0.6" />
		<path
   id="line120"
   class="st14"
   style="fill:none;stroke:#577f9a;stroke-width:0.68;stroke-miterlimit:10;stroke-dasharray:0, 0, 1.27, 1.27"
   d="m 464.29999,292 v 17.20001" />
		<path
   id="polyline122"
   class="st12"
   style="fill:none;stroke:#577f9a;stroke-width:0.68;stroke-miterlimit:10"
   d="m 464.3,309.8 v 0.7 h 0.7" />
		<path
   id="line124"
   class="st15"
   style="fill:none;stroke:#577f9a;stroke-width:0.68;stroke-miterlimit:10;stroke-dasharray:0, 0, 1.37, 1.37"
   d="m 466.39999,310.5 h 48.50003" />
		<path
   id="polyline126"
   class="st12"
   style="fill:none;stroke:#577f9a;stroke-width:0.68;stroke-miterlimit:10"
   d="m 515.6,310.5 h 0.6 v -0.7" />
		<path
   id="polyline128"
   class="st16"
   style="fill:none;stroke:#577f9a;stroke-width:0.68;stroke-miterlimit:10;stroke-dasharray:0, 0, 1.39, 1.39"
   d="m 516.2,308.4 v -12.3 l -4.1,-5" />
	</g>
</g>
<g
   id="g6168">
	<g
   class="st4"
   id="g6166">
		<path
   d="M480.4,308h-2v-6.5h2.1c0.6,0,1.2,0.1,1.6,0.4c0.5,0.3,0.8,0.6,1,1.1c0.2,0.5,0.4,1.1,0.4,1.7c0,0.7-0.1,1.3-0.4,1.8    s-0.6,0.9-1.1,1.1C481.6,307.8,481.1,308,480.4,308z M479.2,307.3h1.2c0.5,0,1-0.1,1.3-0.3c0.4-0.2,0.6-0.5,0.8-0.9    s0.3-0.8,0.3-1.4c0-0.5-0.1-1-0.3-1.4c-0.2-0.4-0.4-0.7-0.8-0.9c-0.3-0.2-0.8-0.3-1.3-0.3h-1.3V307.3z"
   id="path6158" />
		<path
   d="M484.8,308h-0.8l2.4-6.5h0.8l2.4,6.5h-0.8l-2-5.5h-0.1L484.8,308z M485.1,305.4h3.3v0.7h-3.3V305.4z"
   id="path6160" />
		<path
   d="M489.9,302.1v-0.7h4.9v0.7h-2.1v5.8h-0.8v-5.8H489.9z"
   id="path6162" />
		<path
   d="M495.9,308h-0.8l2.4-6.5h0.8l2.4,6.5h-0.8l-2-5.5h-0.1L495.9,308z M496.2,305.4h3.3v0.7h-3.3V305.4z"
   id="path6164" />
	</g>
</g>
<path
   id="rect66"
   class="st17"
   style="fill:#f6f6f6"
   d="M -0.2,0.30000001 H 156.40001 V 53.899998 H -0.2 Z" />
<path
   id="line68"
   class="st18"
   style="fill:none;stroke:#cf2144;stroke-miterlimit:10;stroke-dasharray:0, 0, 2, 3"
   d="M 14,17.1 H 46.099998" />
<path
   id="line70"
   class="st19"
   style="fill:none;stroke:#1b1717;stroke-miterlimit:10"
   d="M 14,35.099998 H 46.099998" />
<g
   aria-label="Replication Traffic"
   transform="matrix(1 0 0 1 68.4055 19.1732)"
   id="text6173"
   class="st20 st21"
   style="font-size:8px;font-family:Helvetica"><path
     d="m 1.488,-2.512 h 1.92 c 0.664,0 0.96,0.32 0.96,1.04 l -0.008,0.52 c 0,0.36 0.064,0.712 0.168,0.952 H 5.432 V -0.184 C 5.152,-0.376 5.096,-0.584 5.08,-1.36 5.072,-2.32 4.92,-2.608 4.288,-2.88 c 0.656,-0.328 0.92,-0.72 0.92,-1.392 0,-1.008 -0.624,-1.56 -1.776,-1.56 H 0.744 V 0 h 0.744 z m 0,-0.656 v -2.008 h 1.8 c 0.416,0 0.656,0.064 0.84,0.224 0.2,0.168 0.304,0.432 0.304,0.776 0,0.696 -0.352,1.008 -1.144,1.008 z"
     id="path22026" /><path
     d="m 9.7999991,-1.872 c 0,-0.64 -0.048,-1.024 -0.168,-1.336 -0.272,-0.688 -0.912,-1.104 -1.696,-1.104 -1.168,0 -1.92,0.888 -1.92,2.272 0,1.384 0.72,2.224 1.904,2.224 0.96,0 1.624,-0.544 1.792,-1.456 h -0.672 c -0.184,0.552 -0.56,0.84 -1.096,0.84 -0.424,0 -0.784,-0.192 -1.008,-0.544 -0.16,-0.24 -0.216,-0.48 -0.224,-0.896 z m -3.072,-0.544 c 0.056,-0.776 0.528,-1.28 1.2,-1.28 0.68,0 1.152,0.528 1.152,1.28 z"
     id="path22028" /><path
     d="m 10.575997,1.744 h 0.672 V -0.44 c 0.352,0.432 0.744,0.624 1.288,0.624 1.088,0 1.792,-0.872 1.792,-2.208 0,-1.408 -0.688,-2.288 -1.8,-2.288 -0.568,0 -1.024,0.256 -1.336,0.752 v -0.632 h -0.616 z m 1.84,-5.432 c 0.736,0 1.216,0.648 1.216,1.648 0,0.952 -0.488,1.6 -1.216,1.6 -0.712,0 -1.168,-0.64 -1.168,-1.624 0,-0.984 0.456,-1.624 1.168,-1.624 z"
     id="path22030" /><path
     d="m 15.807995,-5.832 h -0.672 V 0 h 0.672 z"
     id="path22032" /><path
     d="m 17.567996,-4.192 h -0.664 V 0 h 0.664 z m 0,-1.64 h -0.672 v 0.84 h 0.672 z"
     id="path22034" /><path
     d="m 21.911997,-2.784 c -0.032,-0.408 -0.12,-0.672 -0.28,-0.904 -0.288,-0.392 -0.792,-0.624 -1.376,-0.624 -1.136,0 -1.864,0.896 -1.864,2.288 0,1.352 0.72,2.208 1.856,2.208 1,0 1.632,-0.6 1.712,-1.624 h -0.672 c -0.112,0.672 -0.456,1.008 -1.024,1.008 -0.736,0 -1.176,-0.6 -1.176,-1.592 0,-1.048 0.432,-1.672 1.16,-1.672 0.56,0 0.912,0.328 0.992,0.912 z"
     id="path22036" /><path
     d="m 26.479997,-0.392 c -0.072,0.016 -0.104,0.016 -0.144,0.016 -0.232,0 -0.36,-0.12 -0.36,-0.328 v -2.464 c 0,-0.744 -0.544,-1.144 -1.576,-1.144 -0.616,0 -1.104,0.176 -1.392,0.488 -0.192,0.216 -0.272,0.456 -0.288,0.872 h 0.672 c 0.056,-0.512 0.36,-0.744 0.984,-0.744 0.608,0 0.936,0.224 0.936,0.624 v 0.176 c -0.008,0.288 -0.152,0.392 -0.696,0.464 -0.944,0.12 -1.088,0.152 -1.344,0.256 -0.488,0.208 -0.736,0.576 -0.736,1.12 0,0.76 0.528,1.24 1.376,1.24 0.528,0 0.952,-0.184 1.424,-0.616 0.048,0.432 0.256,0.616 0.688,0.616 0.144,0 0.232,-0.016 0.456,-0.072 z m -1.168,-0.928 c 0,0.224 -0.064,0.36 -0.264,0.544 -0.272,0.248 -0.6,0.376 -0.992,0.376 -0.52,0 -0.824,-0.248 -0.824,-0.672 0,-0.44 0.288,-0.664 1.008,-0.768 0.712,-0.096 0.848,-0.128 1.072,-0.232 z"
     id="path22038" /><path
     d="m 28.591998,-4.192 h -0.688 v -1.152 h -0.664 v 1.152 h -0.568 v 0.544 h 0.568 v 3.168 c 0,0.432 0.288,0.664 0.808,0.664 0.176,0 0.32,-0.016 0.544,-0.056 v -0.56 c -0.096,0.024 -0.184,0.032 -0.32,0.032 -0.288,0 -0.368,-0.08 -0.368,-0.376 v -2.872 h 0.688 z"
     id="path22040" /><path
     d="m 29.944003,-4.192 h -0.664 V 0 h 0.664 z m 0,-1.64 h -0.672 v 0.84 h 0.672 z"
     id="path22042" /><path
     d="m 32.696004,-4.312 c -1.184,0 -1.888,0.84 -1.888,2.248 0,1.416 0.704,2.248 1.896,2.248 1.184,0 1.896,-0.84 1.896,-2.216 0,-1.456 -0.688,-2.28 -1.904,-2.28 z m 0.008,0.616 c 0.752,0 1.2,0.616 1.2,1.656 0,0.992 -0.464,1.608 -1.2,1.608 -0.744,0 -1.2,-0.616 -1.2,-1.632 0,-1.016 0.456,-1.632 1.2,-1.632 z"
     id="path22044" /><path
     d="M 35.528002,-4.192 V 0 h 0.672 v -2.312 c 0,-0.856 0.448,-1.416 1.136,-1.416 0.528,0 0.864,0.32 0.864,0.824 V 0 h 0.664 v -3.168 c 0,-0.696 -0.52,-1.144 -1.328,-1.144 -0.624,0 -1.024,0.24 -1.392,0.824 v -0.704 z"
     id="path22046" /><path
     d="m 44.471999,-5.176 h 1.912 v -0.656 h -4.576 v 0.656 h 1.92 V 0 h 0.744 z"
     id="path22048" /><path
     d="M 46.344007,-4.192 V 0 h 0.672 v -2.176 c 0.008,-1.008 0.424,-1.456 1.344,-1.432 v -0.68 c -0.112,-0.016 -0.176,-0.024 -0.256,-0.024 -0.432,0 -0.76,0.256 -1.144,0.88 v -0.76 z"
     id="path22050" /><path
     d="m 52.704011,-0.392 c -0.072,0.016 -0.104,0.016 -0.144,0.016 -0.232,0 -0.36,-0.12 -0.36,-0.328 v -2.464 c 0,-0.744 -0.544,-1.144 -1.576,-1.144 -0.616,0 -1.104,0.176 -1.392,0.488 -0.192,0.216 -0.272,0.456 -0.288,0.872 h 0.672 c 0.056,-0.512 0.36,-0.744 0.984,-0.744 0.608,0 0.936,0.224 0.936,0.624 v 0.176 c -0.008,0.288 -0.152,0.392 -0.696,0.464 -0.944,0.12 -1.088,0.152 -1.344,0.256 -0.488,0.208 -0.736,0.576 -0.736,1.12 0,0.76 0.528,1.24 1.376,1.24 0.528,0 0.952,-0.184 1.424,-0.616 0.048,0.432 0.256,0.616 0.688,0.616 0.144,0 0.232,-0.016 0.456,-0.072 z m -1.168,-0.928 c 0,0.224 -0.064,0.36 -0.264,0.544 -0.272,0.248 -0.6,0.376 -0.992,0.376 -0.52,0 -0.824,-0.248 -0.824,-0.672 0,-0.44 0.288,-0.664 1.008,-0.768 0.712,-0.096 0.848,-0.128 1.072,-0.232 z"
     id="path22052" /><path
     d="m 54.936009,-4.192 h -0.696 v -0.656 c 0,-0.28 0.152,-0.424 0.464,-0.424 0.056,0 0.08,0 0.232,0.008 v -0.552 c -0.152,-0.032 -0.24,-0.04 -0.376,-0.04 -0.616,0 -0.984,0.352 -0.984,0.952 v 0.712 h -0.56 v 0.544 h 0.56 V 0 h 0.664 v -3.648 h 0.696 z m 2.224,0 h -0.696 v -0.656 c 0,-0.28 0.152,-0.424 0.464,-0.424 0.056,0 0.08,0 0.232,0.008 v -0.552 c -0.152,-0.032 -0.24,-0.04 -0.376,-0.04 -0.616,0 -0.984,0.352 -0.984,0.952 v 0.712 h -0.56 v 0.544 h 0.56 V 0 h 0.664 v -3.648 h 0.696 z m 1.36,0 h -0.664 V 0 h 0.664 z m 0,-1.64 h -0.672 v 0.84 h 0.672 z"
     id="path22054" /><path
     d="m 62.864008,-2.784 c -0.032,-0.408 -0.12,-0.672 -0.28,-0.904 -0.288,-0.392 -0.792,-0.624 -1.376,-0.624 -1.136,0 -1.864,0.896 -1.864,2.288 0,1.352 0.72,2.208 1.856,2.208 1,0 1.632,-0.6 1.712,-1.624 h -0.672 c -0.112,0.672 -0.456,1.008 -1.024,1.008 -0.736,0 -1.176,-0.6 -1.176,-1.592 0,-1.048 0.432,-1.672 1.16,-1.672 0.56,0 0.912,0.328 0.992,0.912 z"
     id="path22056" /></g>
<g
   aria-label="S3 Traffic"
   transform="matrix(1 0 0 1 67.3539 37.9337)"
   id="text6175"
   class="st20 st21"
   style="font-size:8px;font-family:Helvetica"><path
     d="m 4.768,-4.12 c 0,-0.4 -0.024,-0.512 -0.152,-0.784 -0.32,-0.672 -1,-1.024 -1.984,-1.024 -1.28,0 -2.072,0.656 -2.072,1.712 0,0.712 0.376,1.16 1.144,1.36 l 1.448,0.384 c 0.744,0.192 1.072,0.488 1.072,0.944 0,0.312 -0.168,0.632 -0.416,0.808 -0.232,0.168 -0.6,0.248 -1.072,0.248 -0.64,0 -1.064,-0.152 -1.344,-0.488 C 1.176,-1.216 1.08,-1.496 1.088,-1.856 H 0.384 c 0.008,0.536 0.112,0.888 0.344,1.208 0.4,0.552 1.072,0.832 1.96,0.832 0.696,0 1.264,-0.16 1.64,-0.448 0.392,-0.312 0.64,-0.832 0.64,-1.336 0,-0.72 -0.448,-1.248 -1.24,-1.464 L 2.264,-3.456 C 1.56,-3.648 1.304,-3.872 1.304,-4.32 c 0,-0.592 0.52,-0.984 1.304,-0.984 0.928,0 1.448,0.416 1.456,1.184 z"
     id="path22011" /><path
     d="m 7.1039985,-2.664 h 0.088 0.296 c 0.768,0 1.176,0.36 1.176,1.056 0,0.728 -0.44,1.168 -1.168,1.168 -0.776,0 -1.152,-0.392 -1.2,-1.24 h -0.704 c 0.032,0.464 0.112,0.768 0.248,1.024 0.296,0.56 0.848,0.84 1.624,0.84 1.168,0 1.92,-0.704 1.92,-1.8 0,-0.736 -0.28,-1.136 -0.96,-1.376 0.528,-0.216 0.792,-0.616 0.792,-1.2 0,-0.992 -0.648,-1.592 -1.728,-1.592 -1.144,0 -1.752,0.64 -1.776,1.864 h 0.704 c 0.008,-0.352 0.04,-0.552 0.128,-0.728 0.16,-0.328 0.512,-0.52 0.952,-0.52 0.624,0 1,0.376 1,1 0,0.408 -0.144,0.656 -0.456,0.792 -0.192,0.08 -0.448,0.112 -0.936,0.12 z"
     id="path22013" /><path
     d="m 14.839996,-5.176 h 1.912 v -0.656 h -4.576 v 0.656 h 1.92 V 0 h 0.744 z"
     id="path22015" /><path
     d="M 16.712004,-4.192 V 0 h 0.672 v -2.176 c 0.008,-1.008 0.424,-1.456 1.344,-1.432 v -0.68 c -0.112,-0.016 -0.176,-0.024 -0.256,-0.024 -0.432,0 -0.76,0.256 -1.144,0.88 v -0.76 z"
     id="path22017" /><path
     d="m 23.072007,-0.392 c -0.072,0.016 -0.104,0.016 -0.144,0.016 -0.232,0 -0.36,-0.12 -0.36,-0.328 v -2.464 c 0,-0.744 -0.544,-1.144 -1.576,-1.144 -0.616,0 -1.104,0.176 -1.392,0.488 -0.192,0.216 -0.272,0.456 -0.288,0.872 h 0.672 c 0.056,-0.512 0.36,-0.744 0.984,-0.744 0.608,0 0.936,0.224 0.936,0.624 v 0.176 c -0.008,0.288 -0.152,0.392 -0.696,0.464 -0.944,0.12 -1.088,0.152 -1.344,0.256 -0.488,0.208 -0.736,0.576 -0.736,1.12 0,0.76 0.528,1.24 1.376,1.24 0.528,0 0.952,-0.184 1.424,-0.616 0.048,0.432 0.256,0.616 0.688,0.616 0.144,0 0.232,-0.016 0.456,-0.072 z m -1.168,-0.928 c 0,0.224 -0.064,0.36 -0.264,0.544 -0.272,0.248 -0.6,0.376 -0.992,0.376 -0.52,0 -0.824,-0.248 -0.824,-0.672 0,-0.44 0.288,-0.664 1.008,-0.768 0.712,-0.096 0.848,-0.128 1.072,-0.232 z"
     id="path22019" /><path
     d="m 25.304005,-4.192 h -0.696 v -0.656 c 0,-0.28 0.152,-0.424 0.464,-0.424 0.056,0 0.08,0 0.232,0.008 v -0.552 c -0.152,-0.032 -0.24,-0.04 -0.376,-0.04 -0.616,0 -0.984,0.352 -0.984,0.952 v 0.712 h -0.56 v 0.544 h 0.56 V 0 h 0.664 v -3.648 h 0.696 z m 2.224,0 h -0.696 v -0.656 c 0,-0.28 0.152,-0.424 0.464,-0.424 0.056,0 0.08,0 0.232,0.008 v -0.552 c -0.152,-0.032 -0.24,-0.04 -0.376,-0.04 -0.616,0 -0.984,0.352 -0.984,0.952 v 0.712 h -0.56 v 0.544 h 0.56 V 0 h 0.664 v -3.648 h 0.696 z m 1.36,0 h -0.664 V 0 h 0.664 z m 0,-1.64 h -0.672 v 0.84 h 0.672 z"
     id="path22021" /><path
     d="m 33.232005,-2.784 c -0.032,-0.408 -0.12,-0.672 -0.28,-0.904 -0.288,-0.392 -0.792,-0.624 -1.376,-0.624 -1.136,0 -1.864,0.896 -1.864,2.288 0,1.352 0.72,2.208 1.856,2.208 1,0 1.632,-0.6 1.712,-1.624 h -0.672 c -0.112,0.672 -0.456,1.008 -1.024,1.008 -0.736,0 -1.176,-0.6 -1.176,-1.592 0,-1.048 0.432,-1.672 1.16,-1.672 0.56,0 0.912,0.328 0.992,0.912 z"
     id="path22023" /></g>
</svg>
