<?xml version="1.0" encoding="utf-8"?>
<!-- Generator: Adobe Illustrator 27.0.0, SVG Export Plug-In . SVG Version: 6.00 Build 0)  -->
<svg version="1.1"
	 id="a" xmlns:svg="http://www.w3.org/2000/svg" xmlns:inkscape="http://www.inkscape.org/namespaces/inkscape" xmlns:sodipodi="http://sodipodi.sourceforge.net/DTD/sodipodi-0.dtd"
	 xmlns="http://www.w3.org/2000/svg" xmlns:xlink="http://www.w3.org/1999/xlink" x="0px" y="0px" viewBox="0 0 645.3 320.2"
	 style="enable-background:new 0 0 645.3 320.2;" xml:space="preserve">
<style type="text/css">
	.st0{fill:none;stroke:#000000;stroke-miterlimit:10;}
	.st1{fill:#CF2144;}
	.st2{fill:#1B1717;}
	.st3{fill:none;stroke:#1B1717;stroke-width:1.47;stroke-miterlimit:10;}
	.st4{enable-background:new    ;}
	.st5{fill:none;stroke:#CF2144;stroke-miterlimit:10;}
	.st6{fill:#FFFFFF;}
	.st7{fill:#0C1835;}
	.st8{fill:#F6F6F6;stroke:#CF2144;stroke-miterlimit:10;stroke-dasharray:0,0,3,3;}
	.st9{fill:none;stroke:#CF2144;stroke-miterlimit:10;stroke-dasharray:0,0,3,3;}
	.st10{fill:#577F9A;}
	.st11{fill:#AFCDDD;}
	.st12{fill:none;stroke:#577F9A;stroke-width:0.68;stroke-miterlimit:10;}
	.st13{fill:none;stroke:#577F9A;stroke-width:0.68;stroke-miterlimit:10;stroke-dasharray:0,0,1.38,1.38;}
	.st14{fill:none;stroke:#577F9A;stroke-width:0.68;stroke-miterlimit:10;stroke-dasharray:0,0,1.27,1.27;}
	.st15{fill:none;stroke:#577F9A;stroke-width:0.68;stroke-miterlimit:10;stroke-dasharray:0,0,1.37,1.37;}
	.st16{fill:none;stroke:#577F9A;stroke-width:0.68;stroke-miterlimit:10;stroke-dasharray:0,0,1.39,1.39;}
	.st17{fill:#F6F6F6;}
	.st18{fill:none;stroke:#CF2144;stroke-miterlimit:10;stroke-dasharray:0,0,2,3;}
	.st19{fill:none;stroke:#1B1717;stroke-miterlimit:10;}
	.st20{font-family:'Helvetica';}
	.st21{font-size:8px;}
</style>
<sodipodi:namedview  bordercolor="#eeeeee" borderopacity="1" id="namedview143" inkscape:current-layer="a" inkscape:cx="333.10485" inkscape:cy="129.75405" inkscape:deskcolor="#505050" inkscape:pagecheckerboard="0" inkscape:pageopacity="0" inkscape:showpageshadow="0" inkscape:window-height="2303" inkscape:window-maximized="1" inkscape:window-width="3840" inkscape:window-x="3840" inkscape:window-y="2160" inkscape:zoom="4.5586246" pagecolor="#505050" showgrid="false" showguides="true">
	<sodipodi:guide  id="guide4927" inkscape:locked="false" orientation="0,-1" position="52.099046,285.17138"></sodipodi:guide>
</sodipodi:namedview>
<path id="polyline6" class="st0" d="M321.6,160.2V199H91.9v31.1"/>
<polyline id="polyline8" points="92.3,227.9 94.5,227.9 91.9,232.2 89.4,227.9 91.3,227.9 "/>
<polyline id="polyline10" class="st1" points="182.4,261.8 182.4,263.9 178,261.4 182.4,258.9 182.4,260.8 "/>
<polyline id="polyline12" class="st1" points="459.9,261.1 459.9,258.9 464.3,261.4 459.9,263.9 459.9,262 "/>
<polyline id="polyline14" class="st2" points="321.9,125.9 324.1,125.9 321.6,130.2 319.1,125.9 321,125.9 "/>
<line id="line16" class="st3" x1="321.6" y1="74.1" x2="321.6" y2="125.9"/>
<g id="g24" transform="translate(0,4)">
	<path id="path18" d="M240.7,21.3l3.4-1.3l0.3-0.1l-0.3-0.1l-3.4-1.3v-1l4.7,2v0.8l-4.7,2V21.3z"/>
	<g>
		<g class="st4">
			<path d="M247.6,18.2c0.1-0.2,0.3-0.4,0.5-0.5c0.2-0.1,0.4-0.2,0.7-0.2c0.2,0,0.3,0,0.4,0.1s0.2,0.1,0.3,0.2
				c0.1,0.1,0.1,0.1,0.2,0.2c0.1,0.1,0.1,0.2,0.1,0.3c0.1-0.1,0.1-0.2,0.2-0.2c0.1-0.1,0.1-0.1,0.2-0.2c0.1-0.1,0.2-0.1,0.3-0.2
				s0.3-0.1,0.4-0.1c0.2,0,0.4,0,0.6,0.1s0.3,0.2,0.4,0.3c0.1,0.1,0.2,0.3,0.3,0.5c0.1,0.2,0.1,0.5,0.1,0.8v4.5h-1v-4.5
				c0-0.1,0-0.2,0-0.3c0-0.1-0.1-0.2-0.1-0.2c-0.1-0.1-0.1-0.1-0.2-0.1c-0.1,0-0.2,0-0.3,0c-0.1,0-0.2,0-0.3,0
				c-0.1,0-0.2,0.1-0.2,0.1c-0.1,0.1-0.1,0.1-0.1,0.2S250,19,250,19.1c0,0,0,0,0,0.1s0,0,0,0.1v4.5h-1v-4.5c0-0.1,0-0.2,0-0.3
				c0-0.1-0.1-0.2-0.1-0.2c-0.1-0.1-0.1-0.1-0.2-0.1c-0.1,0-0.2,0-0.3,0c-0.1,0-0.2,0-0.3,0c-0.1,0-0.2,0.1-0.2,0.1
				c0,0-0.1,0.1-0.1,0.1c0,0.1-0.1,0.1-0.1,0.2v4.8h-1v-6h0.9L247.6,18.2z"/>
			<path d="M257.2,17.7v5.1h2v0.9h-5v-0.9h2v-4.2h-2v-0.9H257.2z M256,15.8c0-0.1,0.1-0.1,0.1-0.2c0,0,0.1-0.1,0.2-0.1
				c0.1,0,0.2,0,0.3,0c0.1,0,0.2,0,0.3,0c0.1,0,0.1,0.1,0.2,0.1c0.1,0.1,0.1,0.1,0.1,0.2c0,0.1,0,0.2,0,0.3c0,0.2-0.1,0.3-0.2,0.4
				c-0.1,0.1-0.3,0.2-0.5,0.2c-0.2,0-0.4-0.1-0.5-0.2c-0.1-0.1-0.2-0.3-0.2-0.4C256,16,256,15.9,256,15.8z"/>
			<path d="M260.8,17.7h0.9l0.1,0.9c0.1-0.1,0.2-0.2,0.3-0.3c0.1-0.1,0.2-0.2,0.3-0.3c0.2-0.1,0.4-0.2,0.6-0.3
				c0.2-0.1,0.4-0.1,0.7-0.1c0.3,0,0.6,0,0.9,0.1s0.5,0.2,0.7,0.4c0.2,0.2,0.3,0.4,0.4,0.7c0.1,0.3,0.1,0.6,0.1,1v3.8h-1v-3.8
				c0-0.3,0-0.5-0.1-0.7c-0.1-0.2-0.1-0.3-0.3-0.5c-0.1-0.1-0.3-0.2-0.4-0.2c-0.2-0.1-0.4-0.1-0.6-0.1c-0.2,0-0.4,0-0.5,0.1
				c-0.2,0.1-0.3,0.1-0.5,0.2c-0.1,0.1-0.2,0.2-0.3,0.3c-0.1,0.1-0.2,0.2-0.2,0.4v4.3h-1V17.7z"/>
			<path d="M270.8,17.7v5.1h2v0.9h-5v-0.9h2v-4.2h-2v-0.9H270.8z M269.7,15.8c0-0.1,0.1-0.1,0.1-0.2c0,0,0.1-0.1,0.2-0.1
				c0.1,0,0.2,0,0.3,0c0.1,0,0.2,0,0.3,0c0.1,0,0.1,0.1,0.2,0.1c0.1,0.1,0.1,0.1,0.1,0.2c0,0.1,0,0.2,0,0.3c0,0.2-0.1,0.3-0.2,0.4
				c-0.1,0.1-0.3,0.2-0.5,0.2c-0.2,0-0.4-0.1-0.5-0.2c-0.1-0.1-0.2-0.3-0.2-0.4C269.7,16,269.7,15.9,269.7,15.8z"/>
			<path d="M274.3,19.4c0.1-0.4,0.3-0.7,0.5-1c0.2-0.3,0.5-0.5,0.9-0.6c0.3-0.2,0.7-0.2,1.1-0.2c0.4,0,0.8,0.1,1.1,0.2
				c0.3,0.2,0.6,0.4,0.9,0.6c0.2,0.3,0.4,0.6,0.5,1c0.1,0.4,0.2,0.8,0.2,1.2v0.1c0,0.4-0.1,0.8-0.2,1.2c-0.1,0.4-0.3,0.7-0.5,1
				c-0.2,0.3-0.5,0.5-0.9,0.6c-0.3,0.2-0.7,0.2-1.1,0.2c-0.4,0-0.8-0.1-1.1-0.2c-0.3-0.2-0.6-0.4-0.9-0.6c-0.2-0.3-0.4-0.6-0.5-1
				c-0.1-0.4-0.2-0.8-0.2-1.2v-0.1C274.1,20.2,274.2,19.8,274.3,19.4z M275.3,21.6c0.1,0.3,0.2,0.5,0.3,0.7c0.1,0.2,0.3,0.4,0.5,0.5
				c0.2,0.1,0.5,0.2,0.8,0.2c0.3,0,0.5-0.1,0.7-0.2c0.2-0.1,0.4-0.3,0.5-0.5c0.1-0.2,0.2-0.4,0.3-0.7c0.1-0.3,0.1-0.6,0.1-0.8v-0.1
				c0-0.3,0-0.6-0.1-0.8c-0.1-0.3-0.2-0.5-0.3-0.7c-0.1-0.2-0.3-0.4-0.5-0.5s-0.5-0.2-0.7-0.2s-0.5,0.1-0.7,0.2s-0.4,0.3-0.5,0.5
				c-0.1,0.2-0.3,0.4-0.3,0.7c-0.1,0.3-0.1,0.5-0.1,0.8v0.1C275.2,21,275.2,21.3,275.3,21.6z"/>
			<path d="M286.2,22.3c-0.1,0.3-0.3,0.6-0.6,0.8c-0.2,0.2-0.5,0.4-0.8,0.5c-0.3,0.1-0.7,0.2-1.1,0.2c-0.3,0-0.6,0-0.9-0.1
				c-0.3-0.1-0.5-0.2-0.7-0.4c-0.2-0.2-0.4-0.4-0.6-0.6c-0.2-0.2-0.3-0.5-0.4-0.7c-0.1-0.3-0.2-0.5-0.2-0.8
				c-0.1-0.3-0.1-0.6-0.1-0.9v-1.1c0-0.3,0-0.6,0.1-0.9c0-0.3,0.1-0.6,0.2-0.8c0.1-0.3,0.2-0.5,0.4-0.7c0.2-0.2,0.3-0.4,0.6-0.6
				c0.2-0.2,0.5-0.3,0.7-0.4c0.3-0.1,0.6-0.1,0.9-0.1c0.4,0,0.8,0.1,1.1,0.2s0.6,0.3,0.8,0.5c0.2,0.2,0.4,0.5,0.6,0.8
				c0.1,0.3,0.2,0.7,0.3,1.1h-1c0-0.2-0.1-0.5-0.2-0.7c-0.1-0.2-0.2-0.4-0.3-0.6s-0.3-0.3-0.5-0.4c-0.2-0.1-0.4-0.1-0.7-0.1
				c-0.2,0-0.5,0-0.6,0.1c-0.2,0.1-0.3,0.2-0.5,0.3c-0.1,0.1-0.3,0.3-0.3,0.5c-0.1,0.2-0.2,0.4-0.2,0.6s-0.1,0.4-0.1,0.6
				c0,0.2,0,0.4,0,0.6v1.1c0,0.2,0,0.4,0,0.6c0,0.2,0.1,0.4,0.1,0.6c0.1,0.2,0.1,0.4,0.2,0.6c0.1,0.2,0.2,0.3,0.3,0.5
				c0.1,0.1,0.3,0.3,0.5,0.3c0.2,0.1,0.4,0.1,0.7,0.1c0.3,0,0.5,0,0.7-0.1c0.2-0.1,0.4-0.2,0.5-0.4c0.1-0.2,0.2-0.3,0.3-0.5
				c0.1-0.2,0.1-0.4,0.2-0.7h1C286.5,21.6,286.4,22,286.2,22.3z"/>
			<path d="M291.3,15.1v7.7h2v0.9h-5v-0.9h2V16h-2v-0.9H291.3z"/>
			<path d="M298.2,17.7v5.1h2v0.9h-5v-0.9h2v-4.2h-2v-0.9H298.2z M297,15.8c0-0.1,0.1-0.1,0.1-0.2c0,0,0.1-0.1,0.2-0.1
				c0.1,0,0.2,0,0.3,0c0.1,0,0.2,0,0.3,0c0.1,0,0.1,0.1,0.2,0.1c0.1,0.1,0.1,0.1,0.1,0.2c0,0.1,0,0.2,0,0.3c0,0.2-0.1,0.3-0.2,0.4
				c-0.1,0.1-0.3,0.2-0.5,0.2c-0.2,0-0.4-0.1-0.5-0.2c-0.1-0.1-0.2-0.3-0.2-0.4C297,16,297,15.9,297,15.8z"/>
			<path d="M303.3,23.6c-0.4-0.1-0.7-0.3-0.9-0.6c-0.3-0.3-0.4-0.6-0.6-0.9c-0.1-0.4-0.2-0.7-0.2-1.2v-0.2c0-0.5,0.1-0.9,0.2-1.3
				s0.4-0.7,0.6-1c0.3-0.3,0.5-0.5,0.9-0.6c0.3-0.1,0.7-0.2,1-0.2c0.4,0,0.8,0.1,1.1,0.2c0.3,0.2,0.6,0.4,0.8,0.6
				c0.2,0.3,0.4,0.6,0.5,0.9c0.1,0.4,0.2,0.7,0.2,1.2V21h-4.3v0c0,0.3,0.1,0.6,0.2,0.8c0.1,0.2,0.2,0.4,0.4,0.6
				c0.2,0.2,0.4,0.3,0.6,0.4c0.2,0.1,0.5,0.2,0.8,0.2c0.4,0,0.7-0.1,1-0.2c0.3-0.1,0.5-0.3,0.7-0.6l0.6,0.5
				c-0.2,0.3-0.5,0.6-0.9,0.8s-0.9,0.4-1.5,0.4C304,23.8,303.6,23.7,303.3,23.6z M303.7,18.5c-0.2,0.1-0.4,0.2-0.5,0.3
				c-0.1,0.1-0.3,0.3-0.4,0.5c-0.1,0.2-0.2,0.5-0.2,0.7h3.2v0c0-0.2,0-0.4-0.1-0.6c-0.1-0.2-0.2-0.4-0.3-0.6
				c-0.1-0.2-0.3-0.3-0.5-0.4s-0.4-0.1-0.7-0.1C304.1,18.4,303.9,18.4,303.7,18.5z"/>
			<path d="M308.6,17.7h0.9l0.1,0.9c0.1-0.1,0.2-0.2,0.3-0.3c0.1-0.1,0.2-0.2,0.3-0.3c0.2-0.1,0.4-0.2,0.6-0.3
				c0.2-0.1,0.4-0.1,0.7-0.1c0.3,0,0.6,0,0.9,0.1s0.5,0.2,0.7,0.4c0.2,0.2,0.3,0.4,0.4,0.7c0.1,0.3,0.1,0.6,0.1,1v3.8h-1v-3.8
				c0-0.3,0-0.5-0.1-0.7c-0.1-0.2-0.1-0.3-0.3-0.5c-0.1-0.1-0.3-0.2-0.4-0.2c-0.2-0.1-0.4-0.1-0.6-0.1c-0.2,0-0.4,0-0.5,0.1
				c-0.2,0.1-0.3,0.1-0.5,0.2c-0.1,0.1-0.2,0.2-0.3,0.3c-0.1,0.1-0.2,0.2-0.2,0.4v4.3h-1V17.7z"/>
			<path d="M317.9,17.7h2.3v0.8h-2.3v3.3c0,0.2,0,0.4,0.1,0.6c0.1,0.2,0.1,0.3,0.2,0.4c0.1,0.1,0.2,0.2,0.4,0.2
				c0.1,0,0.3,0.1,0.4,0.1c0.1,0,0.2,0,0.3,0s0.2,0,0.4,0c0.1,0,0.2,0,0.3-0.1c0.1,0,0.2,0,0.2-0.1l0.1,0.7
				c-0.1,0.1-0.2,0.1-0.3,0.1c-0.1,0-0.3,0.1-0.4,0.1c-0.1,0-0.3,0.1-0.5,0.1c-0.2,0-0.3,0-0.5,0c-0.3,0-0.5,0-0.7-0.1
				c-0.2-0.1-0.4-0.2-0.6-0.4c-0.2-0.2-0.3-0.4-0.4-0.6s-0.1-0.6-0.1-0.9v-3.3h-1.6v-0.8h1.6v-1.5h1V17.7z"/>
			<path d="M324.3,22.4c0.1-0.2,0.3-0.2,0.6-0.2c0.3,0,0.5,0.1,0.6,0.2c0.1,0.2,0.2,0.3,0.2,0.6c0,0.2-0.1,0.4-0.2,0.5
				c-0.1,0.1-0.3,0.2-0.6,0.2c-0.3,0-0.5-0.1-0.6-0.2c-0.1-0.2-0.2-0.3-0.2-0.5C324.1,22.8,324.1,22.6,324.3,22.4z"/>
			<path d="M329.1,17.7h0.9l0,0.7c0.1-0.1,0.2-0.2,0.3-0.3c0.1-0.1,0.2-0.2,0.3-0.2c0.2-0.1,0.3-0.2,0.5-0.2c0.2,0,0.4-0.1,0.6-0.1
				c0.4,0,0.7,0.1,1,0.2c0.3,0.2,0.5,0.4,0.7,0.6s0.4,0.6,0.5,1c0.1,0.4,0.2,0.8,0.2,1.2v0.1c0,0.4-0.1,0.8-0.2,1.2
				c-0.1,0.4-0.3,0.7-0.5,1s-0.4,0.5-0.7,0.6c-0.3,0.2-0.6,0.2-1,0.2c-0.2,0-0.4,0-0.6-0.1c-0.2,0-0.4-0.1-0.5-0.2
				c-0.1-0.1-0.2-0.1-0.3-0.2c-0.1-0.1-0.2-0.1-0.2-0.2V26h-1V17.7z M333.1,19.8c-0.1-0.3-0.2-0.5-0.3-0.7c-0.1-0.2-0.3-0.4-0.5-0.5
				c-0.2-0.1-0.5-0.2-0.7-0.2c-0.2,0-0.3,0-0.4,0.1c-0.1,0-0.3,0.1-0.4,0.2c-0.1,0.1-0.2,0.2-0.3,0.3c-0.1,0.1-0.2,0.2-0.2,0.3v2.9
				c0.1,0.1,0.1,0.2,0.2,0.3c0.1,0.1,0.2,0.2,0.3,0.2c0.1,0.1,0.3,0.1,0.4,0.2c0.1,0,0.3,0.1,0.5,0.1c0.3,0,0.5-0.1,0.7-0.2
				c0.2-0.1,0.4-0.3,0.5-0.5c0.1-0.2,0.2-0.4,0.3-0.7c0.1-0.3,0.1-0.5,0.1-0.8v-0.1C333.2,20.3,333.1,20,333.1,19.8z"/>
			<path d="M339.8,22.8c-0.2,0.3-0.5,0.5-0.8,0.7c-0.3,0.2-0.6,0.2-1,0.2c-0.3,0-0.6,0-0.9-0.1s-0.5-0.3-0.7-0.5
				c-0.2-0.2-0.3-0.5-0.4-0.8c-0.1-0.3-0.1-0.7-0.1-1.2v-3.6h1v3.6c0,0.3,0,0.6,0.1,0.8s0.1,0.4,0.2,0.5c0.1,0.1,0.2,0.2,0.4,0.3
				c0.2,0.1,0.3,0.1,0.5,0.1c0.2,0,0.4,0,0.6-0.1s0.3-0.1,0.5-0.2c0.1-0.1,0.2-0.2,0.3-0.3c0.1-0.1,0.2-0.2,0.2-0.4v-4.3h1v6h-0.9
				L339.8,22.8z"/>
			<path d="M345.2,17.7h2.3v0.8h-2.3v3.3c0,0.2,0,0.4,0.1,0.6c0.1,0.2,0.1,0.3,0.2,0.4c0.1,0.1,0.2,0.2,0.4,0.2s0.3,0.1,0.4,0.1
				c0.1,0,0.2,0,0.3,0c0.1,0,0.2,0,0.3,0c0.1,0,0.2,0,0.3-0.1s0.2,0,0.2-0.1l0.1,0.7c-0.1,0.1-0.2,0.1-0.3,0.1s-0.3,0.1-0.4,0.1
				c-0.1,0-0.3,0.1-0.5,0.1s-0.3,0-0.5,0c-0.3,0-0.5,0-0.7-0.1c-0.2-0.1-0.4-0.2-0.6-0.4c-0.2-0.2-0.3-0.4-0.4-0.6
				c-0.1-0.3-0.1-0.6-0.1-0.9v-3.3h-1.6v-0.8h1.6v-1.5h1V17.7z"/>
			<path d="M354.8,21c0,0.3-0.1,0.6-0.2,0.9c-0.1,0.3-0.2,0.5-0.4,0.8c-0.2,0.2-0.3,0.4-0.5,0.6c-0.2,0.2-0.4,0.3-0.7,0.4
				c-0.3,0.1-0.6,0.2-0.9,0.2s-0.6-0.1-0.9-0.2c-0.3-0.1-0.5-0.2-0.7-0.4c-0.2-0.2-0.4-0.4-0.5-0.6c-0.2-0.2-0.3-0.5-0.4-0.8
				c-0.1-0.3-0.2-0.6-0.2-0.9s-0.1-0.6-0.1-0.9v-0.9c0-0.3,0-0.6,0.1-0.9c0-0.3,0.1-0.6,0.2-0.9c0.1-0.3,0.2-0.5,0.4-0.8
				s0.3-0.4,0.5-0.6c0.2-0.2,0.4-0.3,0.7-0.4c0.3-0.1,0.6-0.2,0.9-0.2c0.3,0,0.6,0.1,0.9,0.2c0.3,0.1,0.5,0.2,0.7,0.4
				c0.2,0.2,0.4,0.4,0.5,0.6c0.2,0.2,0.3,0.5,0.4,0.8c0.1,0.3,0.2,0.6,0.2,0.9c0,0.3,0.1,0.6,0.1,0.9v0.9
				C354.9,20.4,354.9,20.7,354.8,21z M353.8,18.6c0-0.2-0.1-0.4-0.1-0.6c-0.1-0.2-0.1-0.4-0.2-0.6c-0.1-0.2-0.2-0.4-0.3-0.5
				c-0.1-0.1-0.3-0.3-0.5-0.3s-0.4-0.1-0.6-0.1c-0.2,0-0.4,0-0.6,0.1s-0.3,0.2-0.5,0.3c-0.1,0.1-0.2,0.3-0.3,0.5
				c-0.1,0.2-0.2,0.4-0.2,0.6c-0.1,0.2-0.1,0.4-0.1,0.6c0,0.2,0,0.4,0,0.6v0.9c0,0.2,0,0.4,0,0.6c0,0.2,0.1,0.4,0.1,0.6
				c0.1,0.2,0.1,0.4,0.2,0.6c0.1,0.2,0.2,0.4,0.3,0.5c0.1,0.1,0.3,0.3,0.5,0.3c0.2,0.1,0.4,0.1,0.6,0.1s0.5,0,0.6-0.1
				c0.2-0.1,0.3-0.2,0.5-0.3c0.1-0.1,0.2-0.3,0.3-0.5c0.1-0.2,0.2-0.4,0.2-0.6c0.1-0.2,0.1-0.4,0.1-0.6c0-0.2,0-0.4,0-0.6v-0.9
				C353.9,19,353.8,18.8,353.8,18.6z"/>
			<path d="M361.5,21.5c0,0.2-0.1,0.5-0.2,0.7c-0.1,0.3-0.2,0.5-0.4,0.7s-0.4,0.4-0.6,0.5c-0.2,0.1-0.3,0.2-0.5,0.2
				c-0.2,0.1-0.4,0.1-0.6,0.1c-0.3,0-0.5,0-0.7-0.1c-0.2-0.1-0.4-0.2-0.6-0.3c-0.1-0.1-0.2-0.1-0.2-0.2s-0.1-0.1-0.2-0.2l0,0.7h-0.9
				v-8.5h1v3.2c0.1-0.1,0.2-0.2,0.3-0.3c0.1-0.1,0.2-0.2,0.3-0.2c0.1-0.1,0.3-0.1,0.5-0.2s0.4-0.1,0.6-0.1c0.3,0,0.5,0,0.7,0.1
				s0.4,0.2,0.6,0.3c0.2,0.1,0.3,0.3,0.4,0.4c0.1,0.2,0.2,0.4,0.3,0.6c0.1,0.2,0.2,0.5,0.2,0.8s0.1,0.6,0.1,0.9v0.1
				C361.5,21,361.5,21.2,361.5,21.5z M360.5,20.1c0-0.2-0.1-0.3-0.1-0.5c-0.1-0.2-0.2-0.4-0.3-0.5s-0.2-0.3-0.4-0.4
				c-0.1-0.1-0.2-0.1-0.4-0.2s-0.3-0.1-0.4-0.1c-0.2,0-0.3,0-0.5,0.1c-0.1,0-0.3,0.1-0.4,0.2c-0.1,0.1-0.2,0.2-0.3,0.3
				c-0.1,0.1-0.2,0.2-0.2,0.4V22c0.1,0.1,0.1,0.3,0.2,0.4s0.2,0.2,0.3,0.3c0.1,0.1,0.3,0.2,0.4,0.2c0.1,0,0.3,0.1,0.5,0.1
				c0.2,0,0.3,0,0.5-0.1c0.1,0,0.3-0.1,0.4-0.2c0.1-0.1,0.3-0.2,0.4-0.4c0.1-0.2,0.2-0.3,0.2-0.5c0-0.1,0.1-0.3,0.1-0.5
				c0-0.2,0-0.3,0-0.5v-0.1C360.5,20.4,360.5,20.2,360.5,20.1z"/>
			<path d="M367,17.7v6.1c0,0.4-0.1,0.7-0.2,1c-0.1,0.3-0.3,0.5-0.5,0.7c-0.2,0.2-0.5,0.4-0.7,0.5c-0.3,0.1-0.6,0.2-1,0.2
				c-0.1,0-0.2,0-0.3,0s-0.2,0-0.3,0c-0.1,0-0.2,0-0.3,0c-0.1,0-0.2,0-0.3,0l0.1-0.8c0.1,0,0.1,0,0.2,0c0.1,0,0.2,0,0.3,0
				c0.1,0,0.2,0,0.3,0s0.2,0,0.2,0c0.2,0,0.4,0,0.5-0.1c0.2-0.1,0.3-0.1,0.4-0.3c0.1-0.1,0.2-0.3,0.3-0.5c0.1-0.2,0.1-0.4,0.1-0.7
				v-5.2h-2v-0.9H367z M366,15.6c0.1-0.1,0.3-0.2,0.5-0.2c0.2,0,0.4,0.1,0.5,0.2c0.1,0.1,0.2,0.3,0.2,0.4s-0.1,0.3-0.2,0.4
				c-0.1,0.1-0.3,0.2-0.5,0.2c-0.2,0-0.4-0.1-0.5-0.2c-0.1-0.1-0.2-0.3-0.2-0.4S365.9,15.8,366,15.6z"/>
			<path d="M371.6,23.6c-0.4-0.1-0.7-0.3-0.9-0.6s-0.4-0.6-0.6-0.9c-0.1-0.4-0.2-0.7-0.2-1.2v-0.2c0-0.5,0.1-0.9,0.2-1.3
				c0.2-0.4,0.4-0.7,0.6-1c0.3-0.3,0.5-0.5,0.9-0.6c0.3-0.1,0.7-0.2,1-0.2c0.4,0,0.8,0.1,1.1,0.2c0.3,0.2,0.6,0.4,0.8,0.6
				c0.2,0.3,0.4,0.6,0.5,0.9c0.1,0.4,0.2,0.7,0.2,1.2V21h-4.3v0c0,0.3,0.1,0.6,0.2,0.8c0.1,0.2,0.2,0.4,0.4,0.6
				c0.2,0.2,0.4,0.3,0.6,0.4c0.2,0.1,0.5,0.2,0.8,0.2c0.4,0,0.7-0.1,1-0.2c0.3-0.1,0.5-0.3,0.7-0.6l0.6,0.5
				c-0.2,0.3-0.5,0.6-0.9,0.8s-0.9,0.4-1.5,0.4C372.4,23.8,372,23.7,371.6,23.6z M372.1,18.5c-0.2,0.1-0.4,0.2-0.5,0.3
				c-0.1,0.1-0.3,0.3-0.4,0.5c-0.1,0.2-0.2,0.5-0.2,0.7h3.2v0c0-0.2,0-0.4-0.1-0.6c-0.1-0.2-0.2-0.4-0.3-0.6
				c-0.1-0.2-0.3-0.3-0.5-0.4c-0.2-0.1-0.4-0.1-0.7-0.1C372.4,18.4,372.2,18.4,372.1,18.5z"/>
			<path d="M380.1,22.9c0.2-0.1,0.3-0.1,0.5-0.3c0.1-0.1,0.2-0.2,0.3-0.4c0.1-0.1,0.1-0.3,0.1-0.5h1c0,0.3-0.1,0.5-0.2,0.8
				c-0.1,0.2-0.3,0.5-0.5,0.6c-0.2,0.2-0.5,0.3-0.8,0.4s-0.6,0.2-0.9,0.2c-0.5,0-0.9-0.1-1.2-0.2s-0.6-0.4-0.9-0.7
				c-0.2-0.3-0.4-0.6-0.5-1s-0.2-0.7-0.2-1.1v-0.2c0-0.4,0.1-0.8,0.2-1.1s0.3-0.7,0.5-1c0.2-0.3,0.5-0.5,0.9-0.7s0.7-0.2,1.2-0.2
				c0.4,0,0.7,0.1,1,0.2c0.3,0.1,0.6,0.3,0.8,0.5c0.2,0.2,0.4,0.4,0.5,0.7c0.1,0.3,0.2,0.6,0.2,0.9h-1c0-0.2,0-0.4-0.1-0.5
				s-0.2-0.3-0.3-0.4s-0.3-0.2-0.5-0.3s-0.4-0.1-0.6-0.1c-0.3,0-0.6,0.1-0.8,0.2s-0.4,0.3-0.5,0.5c-0.1,0.2-0.2,0.4-0.3,0.7
				s-0.1,0.5-0.1,0.8v0.2c0,0.3,0,0.5,0.1,0.8s0.2,0.5,0.3,0.7c0.1,0.2,0.3,0.4,0.5,0.5s0.5,0.2,0.8,0.2
				C379.7,22.9,379.9,22.9,380.1,22.9z"/>
			<path d="M386.2,17.7h2.3v0.8h-2.3v3.3c0,0.2,0,0.4,0.1,0.6c0.1,0.2,0.1,0.3,0.2,0.4c0.1,0.1,0.2,0.2,0.4,0.2s0.3,0.1,0.4,0.1
				c0.1,0,0.2,0,0.3,0c0.1,0,0.2,0,0.3,0c0.1,0,0.2,0,0.3-0.1s0.2,0,0.2-0.1l0.1,0.7c-0.1,0.1-0.2,0.1-0.3,0.1s-0.3,0.1-0.4,0.1
				c-0.1,0-0.3,0.1-0.5,0.1s-0.3,0-0.5,0c-0.3,0-0.5,0-0.7-0.1c-0.2-0.1-0.4-0.2-0.6-0.4c-0.2-0.2-0.3-0.4-0.4-0.6
				c-0.1-0.3-0.1-0.6-0.1-0.9v-3.3h-1.6v-0.8h1.6v-1.5h1V17.7z"/>
			<path d="M391.8,18.9c0.1-0.5,0.2-0.9,0.3-1.3c0.1-0.4,0.3-0.8,0.5-1.1c0.2-0.3,0.4-0.6,0.6-0.9c0.2-0.3,0.4-0.5,0.6-0.7
				s0.4-0.3,0.6-0.4l0.2,0.7c-0.1,0.1-0.2,0.2-0.4,0.3c-0.1,0.1-0.2,0.3-0.4,0.4c-0.2,0.2-0.3,0.5-0.5,0.8c-0.2,0.3-0.3,0.7-0.4,1.1
				c-0.1,0.3-0.2,0.7-0.2,1.2s-0.1,0.9-0.1,1.4v0.1c0,0.5,0,0.9,0.1,1.3s0.1,0.8,0.2,1.1c0.1,0.3,0.2,0.7,0.3,1s0.3,0.6,0.4,0.8
				c0.1,0.2,0.3,0.4,0.4,0.6c0.1,0.2,0.3,0.3,0.5,0.4l-0.2,0.6c-0.2-0.1-0.4-0.2-0.6-0.4s-0.4-0.4-0.6-0.7c-0.2-0.3-0.4-0.5-0.6-0.9
				s-0.3-0.7-0.5-1.1c-0.1-0.4-0.3-0.8-0.3-1.3c-0.1-0.5-0.1-1-0.1-1.5v-0.1C391.6,19.9,391.7,19.4,391.8,18.9z"/>
			<path d="M401.1,21.9c-0.1,0.5-0.2,0.9-0.3,1.3c-0.1,0.4-0.3,0.8-0.5,1.1s-0.4,0.6-0.6,0.9c-0.2,0.3-0.4,0.5-0.6,0.7
				s-0.4,0.3-0.6,0.4l-0.2-0.6c0.2-0.1,0.3-0.3,0.5-0.4c0.2-0.2,0.3-0.4,0.5-0.6c0.1-0.2,0.3-0.5,0.4-0.8c0.1-0.3,0.2-0.6,0.3-1
				c0.1-0.3,0.2-0.7,0.2-1.1c0-0.4,0.1-0.8,0.1-1.2v-0.1c0-0.5,0-1-0.1-1.4c-0.1-0.4-0.1-0.8-0.2-1c-0.1-0.4-0.2-0.8-0.4-1.1
				s-0.3-0.6-0.5-0.8c-0.1-0.2-0.2-0.4-0.4-0.5s-0.3-0.3-0.4-0.4l0.2-0.6c0.2,0.1,0.4,0.2,0.6,0.4s0.4,0.4,0.6,0.7
				c0.2,0.3,0.4,0.6,0.6,0.9c0.2,0.3,0.3,0.7,0.5,1.1c0.1,0.4,0.2,0.8,0.3,1.3s0.1,1,0.1,1.5v0.1C401.2,21,401.2,21.5,401.1,21.9z"
				/>
		</g>
	</g>
</g>
<rect id="rect26" x="228.7" y="3.6" class="st5" width="185.9" height="39.3"/>
<rect id="rect28" x="228.7" y="130.1" class="st1" width="185.9" height="52.9"/>
<g id="g42" transform="translate(0,4)">
	<g id="g36">
		<rect id="rect30" x="308.6" y="147.7" class="st6" width="4.5" height="11.7"/>
		<path id="path32" class="st6" d="M303.1,147.9l-9.1,4.9c-0.1,0.1-0.3,0.1-0.4,0l-9.1-4.9c-0.2-0.1-0.4-0.2-0.6-0.2h0
			c-0.7,0-1.2,0.5-1.2,1.1v10.6h4.5v-5c0-0.3,0.4-0.5,0.7-0.3l5.1,2.8c0.5,0.3,1.1,0.3,1.6,0l5.4-2.8c0.3-0.1,0.7,0,0.7,0.3v5.1h4.5
			v-10.6c0-0.6-0.6-1.1-1.2-1.1h0C303.6,147.7,303.3,147.8,303.1,147.9L303.1,147.9z"/>
		<path id="path34" class="st6" d="M335.5,147.7h-4.5v5.3c0,0.3-0.4,0.5-0.7,0.4l-11.8-5.6c-0.2-0.1-0.4-0.1-0.6-0.1l0,0
			c-0.7,0-1.2,0.5-1.2,1.1v10.6h4.5v-5.3c0-0.3,0.4-0.5,0.7-0.4l11.9,5.6c0.2,0.1,0.4,0.1,0.6,0.1l0,0c0.7,0,1.2-0.5,1.2-1.1
			L335.5,147.7L335.5,147.7z"/>
	</g>
	<path id="path38" class="st6" d="M339,159.4v-11.7h2.1v11.7H339z"/>
	<path id="path40" class="st6" d="M353.2,159.6c-5.6,0-9.5-2.3-9.5-6.1c0-3.7,4-6.1,9.5-6.1s9.5,2.3,9.5,6.1
		S358.9,159.6,353.2,159.6z M353.2,149.1c-4.1,0-7.3,1.6-7.3,4.5c0,2.9,3.2,4.5,7.3,4.5c4.1,0,7.3-1.6,7.3-4.5
		C360.6,150.6,357.4,149.1,353.2,149.1z"/>
</g>
<line id="line44" class="st3" x1="321.6" y1="43.1" x2="321.6" y2="58.9"/>
<rect id="rect46" x="228.7" y="58.1" class="st7" width="185.9" height="52.9"/>
<g>
	<g class="st4">
		<path class="st6" d="M263.4,89.4V79.2h1.2v9.1h4.7v1.1H263.4z"/>
	</g>
</g>
<g>
	<g class="st4">
		<path class="st6" d="M279.6,84.3c0,1.1-0.2,2-0.6,2.8s-0.9,1.4-1.6,1.8c-0.7,0.4-1.4,0.6-2.3,0.6c-0.9,0-1.6-0.2-2.3-0.6
			s-1.2-1-1.6-1.8s-0.6-1.7-0.6-2.8s0.2-2,0.6-2.8s0.9-1.4,1.6-1.8s1.4-0.6,2.3-0.6c0.9,0,1.6,0.2,2.3,0.6c0.7,0.4,1.2,1,1.6,1.8
			S279.6,83.2,279.6,84.3z M278.4,84.3c0-0.9-0.1-1.6-0.4-2.2c-0.3-0.6-0.7-1.1-1.2-1.4s-1.1-0.5-1.7-0.5c-0.6,0-1.2,0.2-1.7,0.5
			c-0.5,0.3-0.9,0.8-1.2,1.4c-0.3,0.6-0.4,1.4-0.4,2.2s0.1,1.6,0.4,2.2c0.3,0.6,0.7,1.1,1.2,1.4c0.5,0.3,1.1,0.5,1.7,0.5
			c0.6,0,1.2-0.2,1.7-0.5s0.9-0.8,1.2-1.4C278.2,85.9,278.4,85.2,278.4,84.3z"/>
	</g>
</g>
<g>
	<g class="st4">
		<path class="st6" d="M281.8,89.4h-1.3l3.7-10.2h1.3l3.7,10.2h-1.3l-3-8.6h-0.1L281.8,89.4z M282.2,85.4h5.2v1.1h-5.2V85.4z"/>
		<path class="st6" d="M294,89.4h-3.1V79.2h3.3c1,0,1.8,0.2,2.5,0.6c0.7,0.4,1.2,1,1.6,1.7c0.4,0.8,0.6,1.7,0.6,2.7
			c0,1.1-0.2,2-0.6,2.7s-0.9,1.4-1.7,1.8S295,89.4,294,89.4z M292.1,88.3h1.8c0.8,0,1.5-0.2,2.1-0.5c0.6-0.3,1-0.8,1.2-1.4
			c0.3-0.6,0.4-1.3,0.4-2.1c0-0.8-0.1-1.5-0.4-2.1s-0.7-1.1-1.2-1.4c-0.5-0.3-1.2-0.5-2-0.5h-2V88.3z"/>
		<path class="st6" d="M304.8,89.4V79.2h3.6c0.7,0,1.3,0.1,1.8,0.4c0.5,0.2,0.8,0.6,1,1s0.3,0.9,0.3,1.4c0,0.4-0.1,0.8-0.2,1.1
			s-0.4,0.5-0.6,0.7c-0.3,0.2-0.5,0.3-0.8,0.4v0.1c0.3,0,0.6,0.1,0.9,0.3s0.6,0.5,0.8,0.9c0.2,0.4,0.3,0.8,0.3,1.4
			c0,0.5-0.1,1-0.3,1.4c-0.2,0.4-0.6,0.7-1.1,1c-0.5,0.2-1.2,0.4-2,0.4H304.8z M306.1,83.7h2.3c0.4,0,0.7-0.1,1-0.2
			c0.3-0.1,0.5-0.4,0.7-0.6c0.2-0.3,0.3-0.6,0.3-0.9c0-0.4-0.2-0.8-0.5-1.1s-0.8-0.5-1.5-0.5h-2.3V83.7z M306.1,88.3h2.4
			c0.8,0,1.4-0.2,1.7-0.5c0.3-0.3,0.5-0.7,0.5-1.1c0-0.3-0.1-0.7-0.3-1c-0.2-0.3-0.4-0.5-0.8-0.7c-0.3-0.2-0.7-0.3-1.2-0.3h-2.5
			V88.3z"/>
		<path class="st6" d="M314.3,89.4h-1.3l3.7-10.2h1.3l3.7,10.2h-1.3l-3-8.6h-0.1L314.3,89.4z M314.8,85.4h5.2v1.1h-5.2V85.4z"/>
	</g>
</g>
<g>
	<g class="st4">
		<path class="st6" d="M325,89.4V79.2h1.2v9.1h4.7v1.1H325z"/>
	</g>
</g>
<g>
	<g class="st4">
		<path class="st6" d="M333.6,89.4h-1.3l3.7-10.2h1.3l3.7,10.2h-1.3l-3-8.6h-0.1L333.6,89.4z M334.1,85.4h5.2v1.1h-5.2V85.4z"/>
		<path class="st6" d="M350.7,79.2v10.2h-1.2l-5.5-8h-0.1v8h-1.2V79.2h1.2l5.6,8h0.1v-8H350.7z"/>
		<path class="st6" d="M361.4,82.4h-1.2c-0.1-0.4-0.2-0.7-0.4-0.9s-0.4-0.5-0.7-0.7s-0.5-0.3-0.9-0.4c-0.3-0.1-0.6-0.1-1-0.1
			c-0.6,0-1.2,0.2-1.7,0.5c-0.5,0.3-0.9,0.8-1.2,1.4s-0.4,1.4-0.4,2.2s0.1,1.6,0.4,2.2s0.7,1.1,1.2,1.4c0.5,0.3,1.1,0.5,1.7,0.5
			c0.3,0,0.7,0,1-0.1c0.3-0.1,0.6-0.2,0.9-0.4c0.3-0.2,0.5-0.4,0.7-0.7c0.2-0.3,0.3-0.6,0.4-0.9h1.2c-0.1,0.5-0.3,1-0.5,1.4
			c-0.2,0.4-0.5,0.8-0.9,1c-0.4,0.3-0.8,0.5-1.2,0.7c-0.5,0.1-0.9,0.2-1.4,0.2c-0.9,0-1.6-0.2-2.3-0.6c-0.7-0.4-1.2-1-1.6-1.8
			s-0.6-1.7-0.6-2.8s0.2-2,0.6-2.8s0.9-1.4,1.6-1.8c0.7-0.4,1.4-0.6,2.3-0.6c0.5,0,1,0.1,1.4,0.2c0.5,0.1,0.9,0.4,1.2,0.7
			c0.4,0.3,0.7,0.6,0.9,1S361.3,81.9,361.4,82.4z"/>
		<path class="st6" d="M363.4,89.4V79.2h6.1v1.1h-4.9v3.4h4.6v1.1h-4.6v3.5h5v1.1H363.4z"/>
		<path class="st6" d="M371.7,89.4V79.2h3.4c0.8,0,1.4,0.1,2,0.4c0.5,0.3,0.9,0.6,1.1,1.1s0.4,1,0.4,1.6s-0.1,1.1-0.4,1.6
			s-0.6,0.8-1.1,1.1c-0.5,0.3-1.2,0.4-1.9,0.4h-2.8v-1.1h2.7c0.5,0,1-0.1,1.3-0.2c0.3-0.2,0.6-0.4,0.7-0.7c0.2-0.3,0.2-0.6,0.2-1.1
			c0-0.4-0.1-0.8-0.2-1.1c-0.2-0.3-0.4-0.5-0.7-0.7s-0.8-0.3-1.3-0.3H373v9.1H371.7z M376.5,84.8l2.5,4.6h-1.4l-2.5-4.6H376.5z"/>
	</g>
</g>
<rect id="rect60" x="7.5" y="233.2" class="st1" width="171.4" height="52.9"/>
<g id="g74" transform="translate(0,4)">
	<g id="g68">
		<rect id="rect62" x="54.1" y="252.3" class="st6" width="3.9" height="10.2"/>
		<path id="path64" class="st6" d="M49.4,252.4l-8,4.3c-0.1,0.1-0.3,0.1-0.4,0l-8-4.3c-0.2-0.1-0.4-0.1-0.6-0.1l0,0
			c-0.6,0-1.1,0.4-1.1,1v9.2h3.9v-4.4c0-0.3,0.3-0.4,0.6-0.3l4.5,2.4c0.4,0.2,1,0.2,1.4,0l4.7-2.4c0.3-0.1,0.6,0,0.6,0.3v4.4H51
			v-9.2c0-0.5-0.5-1-1.1-1l0,0C49.8,252.3,49.6,252.4,49.4,252.4L49.4,252.4z"/>
		<path id="path66" class="st6" d="M77.6,252.3h-4v4.6c0,0.3-0.3,0.4-0.6,0.3l-10.3-4.8c-0.2-0.1-0.3-0.1-0.5-0.1l0,0
			c-0.6,0-1.1,0.4-1.1,1v9.2h3.9v-4.6c0-0.3,0.3-0.4,0.6-0.3l10.3,4.8c0.2,0.1,0.3,0.1,0.5,0.1l0,0c0.6,0,1.1-0.4,1.1-1V252.3
			L77.6,252.3z"/>
	</g>
	<path id="path70" class="st6" d="M80.7,262.5v-10.2h1.8v10.2H80.7z"/>
	<path id="path72" class="st6" d="M93.1,262.7c-4.8,0-8.3-2-8.3-5.3c0-3.2,3.5-5.3,8.3-5.3s8.3,2,8.3,5.3
		C101.4,260.7,98,262.7,93.1,262.7z M93.1,253.5c-3.6,0-6.4,1.4-6.4,3.9c0,2.6,2.8,3.9,6.4,3.9s6.4-1.4,6.4-3.9
		C99.5,254.9,96.7,253.5,93.1,253.5z"/>
</g>
<g>
	<g class="st4">
		<path class="st6" d="M117,258.8c-0.1-0.5-0.3-0.9-0.7-1.2c-0.4-0.3-0.9-0.4-1.6-0.4c-0.5,0-0.8,0.1-1.2,0.2
			c-0.3,0.1-0.6,0.3-0.8,0.6c-0.2,0.3-0.3,0.5-0.3,0.9c0,0.3,0.1,0.5,0.2,0.7c0.1,0.2,0.3,0.4,0.5,0.5c0.2,0.1,0.4,0.2,0.6,0.3
			c0.2,0.1,0.4,0.1,0.6,0.2l1,0.3c0.3,0.1,0.6,0.2,0.9,0.3c0.3,0.1,0.6,0.3,0.9,0.5c0.3,0.2,0.5,0.5,0.7,0.8
			c0.2,0.3,0.3,0.7,0.3,1.2c0,0.6-0.1,1-0.4,1.5c-0.3,0.4-0.7,0.8-1.3,1.1c-0.5,0.3-1.2,0.4-2,0.4c-0.7,0-1.4-0.1-1.9-0.4
			c-0.5-0.2-0.9-0.6-1.3-1c-0.3-0.4-0.5-0.9-0.5-1.5h1.3c0,0.4,0.2,0.7,0.4,1s0.5,0.4,0.9,0.6c0.3,0.1,0.7,0.2,1.1,0.2
			c0.5,0,0.9-0.1,1.3-0.2s0.7-0.4,0.9-0.6s0.3-0.6,0.3-1c0-0.3-0.1-0.6-0.3-0.8c-0.2-0.2-0.4-0.4-0.7-0.5s-0.6-0.2-1-0.3l-1.3-0.4
			c-0.8-0.2-1.4-0.6-1.9-1c-0.5-0.4-0.7-1-0.7-1.7c0-0.6,0.2-1.1,0.5-1.5c0.3-0.4,0.7-0.8,1.3-1c0.5-0.2,1.1-0.4,1.8-0.4
			c0.7,0,1.2,0.1,1.8,0.4c0.5,0.2,0.9,0.6,1.2,1s0.5,0.9,0.5,1.4H117z"/>
		<path class="st6" d="M121.6,256.3v10.2h-1.2v-10.2H121.6z"/>
		<path class="st6" d="M123.5,257.4v-1.1h7.6v1.1h-3.2v9.1h-1.2v-9.1H123.5z"/>
		<path class="st6" d="M133,266.5v-10.2h6.1v1.1h-4.9v3.4h4.6v1.1h-4.6v3.5h5v1.1H133z"/>
		<path class="st6" d="M145.8,266.5h-1.3l3.7-10.2h1.3l3.7,10.2h-1.3l-3-8.6h-0.1L145.8,266.5z M146.2,262.5h5.2v1.1h-5.2V262.5z"/>
	</g>
</g>
<rect id="rect80" x="464.3" y="233.2" class="st8" width="171.4" height="52.9"/>
<g id="g94" transform="translate(0,4)">
	<g id="g88">
		<rect id="rect82" x="511" y="252.3" class="st1" width="3.9" height="10.2"/>
		<path id="path84" class="st1" d="M506.2,252.4l-8,4.3c-0.1,0.1-0.3,0.1-0.4,0l-8-4.3c-0.2-0.1-0.4-0.1-0.6-0.1l0,0
			c-0.6,0-1.1,0.4-1.1,1v9.2h3.9v-4.4c0-0.3,0.3-0.4,0.6-0.3l4.5,2.4c0.4,0.2,1,0.2,1.4,0l4.7-2.4c0.3-0.1,0.6,0,0.6,0.3v4.4h3.9
			v-9.2c0-0.5-0.5-1-1.1-1l0,0C506.6,252.3,506.4,252.4,506.2,252.4L506.2,252.4z"/>
		<path id="path86" class="st1" d="M534.4,252.3h-4v4.6c0,0.3-0.3,0.4-0.6,0.3l-10.3-4.8c-0.2-0.1-0.3-0.1-0.5-0.1l0,0
			c-0.6,0-1.1,0.4-1.1,1v9.2h3.9v-4.6c0-0.3,0.3-0.4,0.6-0.3l10.3,4.8c0.2,0.1,0.3,0.1,0.5,0.1l0,0c0.6,0,1.1-0.4,1.1-1L534.4,252.3
			L534.4,252.3z"/>
	</g>
	<path id="path90" class="st1" d="M537.5,262.5v-10.2h1.8v10.2H537.5z"/>
	<path id="path92" class="st1" d="M549.9,262.7c-4.8,0-8.3-2-8.3-5.3c0-3.2,3.5-5.3,8.3-5.3s8.3,2,8.3,5.3
		C558.2,260.7,554.8,262.7,549.9,262.7z M549.9,253.5c-3.6,0-6.4,1.4-6.4,3.9c0,2.6,2.8,3.9,6.4,3.9s6.4-1.4,6.4-3.9
		C556.3,254.9,553.5,253.5,549.9,253.5z"/>
</g>
<g>
	<g class="st4">
		<path class="st1" d="M574.4,258.8c-0.1-0.5-0.3-0.9-0.7-1.2c-0.4-0.3-0.9-0.4-1.6-0.4c-0.5,0-0.8,0.1-1.2,0.2
			c-0.3,0.1-0.6,0.3-0.8,0.6c-0.2,0.3-0.3,0.5-0.3,0.9c0,0.3,0.1,0.5,0.2,0.7c0.1,0.2,0.3,0.4,0.5,0.5c0.2,0.1,0.4,0.2,0.6,0.3
			c0.2,0.1,0.4,0.1,0.6,0.2l1,0.3c0.3,0.1,0.6,0.2,0.9,0.3c0.3,0.1,0.6,0.3,0.9,0.5c0.3,0.2,0.5,0.5,0.7,0.8s0.3,0.7,0.3,1.2
			c0,0.6-0.1,1-0.4,1.5c-0.3,0.4-0.7,0.8-1.3,1.1s-1.2,0.4-2,0.4c-0.7,0-1.4-0.1-1.9-0.4c-0.5-0.2-0.9-0.6-1.3-1
			c-0.3-0.4-0.5-0.9-0.5-1.5h1.3c0,0.4,0.2,0.7,0.4,1c0.2,0.2,0.5,0.4,0.9,0.6s0.7,0.2,1.1,0.2c0.5,0,0.9-0.1,1.3-0.2
			c0.4-0.2,0.7-0.4,0.9-0.6s0.3-0.6,0.3-1c0-0.3-0.1-0.6-0.3-0.8c-0.2-0.2-0.4-0.4-0.7-0.5c-0.3-0.1-0.6-0.2-1-0.3l-1.3-0.4
			c-0.8-0.2-1.4-0.6-1.9-1s-0.7-1-0.7-1.7c0-0.6,0.2-1.1,0.5-1.5c0.3-0.4,0.7-0.8,1.3-1c0.5-0.2,1.1-0.4,1.8-0.4
			c0.7,0,1.2,0.1,1.8,0.4c0.5,0.2,0.9,0.6,1.2,1s0.5,0.9,0.5,1.4H574.4z"/>
		<path class="st1" d="M579,256.3v10.2h-1.2v-10.2H579z"/>
		<path class="st1" d="M580.9,257.4v-1.1h7.6v1.1h-3.2v9.1h-1.2v-9.1H580.9z"/>
		<path class="st1" d="M590.5,266.5v-10.2h6.1v1.1h-4.9v3.4h4.6v1.1h-4.6v3.5h5v1.1H590.5z"/>
		<path class="st1" d="M602.8,266.5v-10.2h3.6c0.7,0,1.3,0.1,1.8,0.4c0.5,0.2,0.8,0.6,1,1c0.2,0.4,0.3,0.9,0.3,1.4
			c0,0.4-0.1,0.8-0.2,1.1s-0.4,0.5-0.6,0.7c-0.3,0.2-0.5,0.3-0.8,0.4v0.1c0.3,0,0.6,0.1,0.9,0.3c0.3,0.2,0.6,0.5,0.8,0.9
			s0.3,0.8,0.3,1.4c0,0.5-0.1,1-0.3,1.4c-0.2,0.4-0.6,0.7-1.1,1c-0.5,0.2-1.2,0.4-2,0.4H602.8z M604,260.8h2.3c0.4,0,0.7-0.1,1-0.2
			c0.3-0.1,0.5-0.4,0.7-0.6c0.2-0.3,0.3-0.6,0.3-0.9c0-0.4-0.2-0.8-0.5-1.1c-0.3-0.3-0.8-0.5-1.5-0.5H604V260.8z M604,265.4h2.4
			c0.8,0,1.4-0.2,1.7-0.5c0.3-0.3,0.5-0.7,0.5-1.1c0-0.3-0.1-0.7-0.3-1c-0.2-0.3-0.4-0.5-0.8-0.7c-0.3-0.2-0.7-0.3-1.2-0.3H604
			V265.4z"/>
	</g>
</g>
<line id="line100" class="st9" x1="182.4" y1="261.4" x2="459.9" y2="261.4"/>
<polygon id="polygon102" class="st10" points="178.9,314.5 178.9,300.1 173.9,294.1 127,294.1 127,314.5 "/>
<g>
	<g class="st4">
		<path class="st6" d="M143.1,308h-2v-6.5h2.1c0.6,0,1.2,0.1,1.6,0.4c0.5,0.3,0.8,0.6,1,1.1c0.2,0.5,0.4,1.1,0.4,1.7
			c0,0.7-0.1,1.3-0.4,1.8c-0.2,0.5-0.6,0.9-1.1,1.1C144.3,307.8,143.7,308,143.1,308z M141.8,307.3h1.2c0.5,0,1-0.1,1.3-0.3
			s0.6-0.5,0.8-0.9c0.2-0.4,0.3-0.8,0.3-1.4c0-0.5-0.1-1-0.3-1.4c-0.2-0.4-0.4-0.7-0.8-0.9c-0.3-0.2-0.8-0.3-1.3-0.3h-1.3V307.3z"/>
		<path class="st6" d="M147.4,308h-0.8l2.4-6.5h0.8l2.4,6.5h-0.8l-2-5.5h-0.1L147.4,308z M147.7,305.4h3.3v0.7h-3.3V305.4z"/>
		<path class="st6" d="M152.5,302.1v-0.7h4.9v0.7h-2.1v5.8h-0.8v-5.8H152.5z"/>
		<path class="st6" d="M158.6,308h-0.8l2.4-6.5h0.8l2.4,6.5h-0.8l-2-5.5h-0.1L158.6,308z M158.9,305.4h3.3v0.7h-3.3V305.4z"/>
	</g>
</g>
<g id="g132" transform="translate(0,4)">
	<polygon id="polygon112" class="st11" points="516.2,310.5 516.2,296.1 511.3,290.1 464.3,290.1 464.3,310.5 	"/>
	<g id="g130">
		<polyline id="polyline114" class="st12" points="511.7,290.6 511.3,290.1 510.6,290.1 		"/>
		<line id="line116" class="st13" x1="509.2" y1="290.1" x2="465.7" y2="290.1"/>
		<polyline id="polyline118" class="st12" points="465,290.1 464.3,290.1 464.3,290.7 		"/>
		<line id="line120" class="st14" x1="464.3" y1="292" x2="464.3" y2="309.2"/>
		<polyline id="polyline122" class="st12" points="464.3,309.8 464.3,310.5 465,310.5 		"/>
		<line id="line124" class="st15" x1="466.4" y1="310.5" x2="514.9" y2="310.5"/>
		<polyline id="polyline126" class="st12" points="515.6,310.5 516.2,310.5 516.2,309.8 		"/>
		<polyline id="polyline128" class="st16" points="516.2,308.4 516.2,296.1 512.1,291.1 		"/>
	</g>
</g>
<g>
	<g class="st4">
		<path d="M480.4,308h-2v-6.5h2.1c0.6,0,1.2,0.1,1.6,0.4c0.5,0.3,0.8,0.6,1,1.1c0.2,0.5,0.4,1.1,0.4,1.7c0,0.7-0.1,1.3-0.4,1.8
			s-0.6,0.9-1.1,1.1C481.6,307.8,481.1,308,480.4,308z M479.2,307.3h1.2c0.5,0,1-0.1,1.3-0.3c0.4-0.2,0.6-0.5,0.8-0.9
			s0.3-0.8,0.3-1.4c0-0.5-0.1-1-0.3-1.4c-0.2-0.4-0.4-0.7-0.8-0.9c-0.3-0.2-0.8-0.3-1.3-0.3h-1.3V307.3z"/>
		<path d="M484.8,308h-0.8l2.4-6.5h0.8l2.4,6.5h-0.8l-2-5.5h-0.1L484.8,308z M485.1,305.4h3.3v0.7h-3.3V305.4z"/>
		<path d="M489.9,302.1v-0.7h4.9v0.7h-2.1v5.8h-0.8v-5.8H489.9z"/>
		<path d="M495.9,308h-0.8l2.4-6.5h0.8l2.4,6.5h-0.8l-2-5.5h-0.1L495.9,308z M496.2,305.4h3.3v0.7h-3.3V305.4z"/>
	</g>
</g>
<rect id="rect66" x="-0.2" y="0.3" class="st17" width="156.6" height="53.6"/>
<line id="line68" class="st18" x1="14" y1="17.1" x2="46.1" y2="17.1"/>
<line id="line70" class="st19" x1="14" y1="35.1" x2="46.1" y2="35.1"/>
<text transform="matrix(1 0 0 1 68.4055 19.1732)" class="st20 st21">Replication Traffic</text>
<text transform="matrix(1 0 0 1 67.3539 37.9337)" class="st20 st21">S3 Traffic</text>
</svg>
