<?xml version="1.0" encoding="UTF-8"?><svg id="a" xmlns="http://www.w3.org/2000/svg" viewBox="0 0 645.33 370.33"><defs><style>.b{font-family:RobotoMono-Regular, 'Roboto Mono';font-size:11.39px;font-variation-settings:'wght' 400;}.c{letter-spacing:-.04em;}.d{fill:#f6f6f6;}.e,.f{fill:#fff;}.g{fill:#cf2144;}.h{fill:#1b1717;}.i{fill:#0c1835;}.j{letter-spacing:.02em;}.k{stroke-width:1.47px;}.k,.l,.m,.n{fill:none;stroke-miterlimit:10;}.k,.m{stroke:#1b1717;}.l{stroke-dasharray:0 0 3 3;}.l,.n{stroke:#cf2144;}.o{letter-spacing:-.03em;}.p{font-size:10px;}.p,.f{font-family:Inter-Bold, Inter;font-variation-settings:'wght' 700, 'slnt' 0;font-weight:700;}.f{font-size:14px;}</style></defs><polyline class="k" points="321.6 156.22 321.6 194.99 91.94 194.99 91.94 226.11"/><polyline class="h" points="92.28 223.86 94.47 223.86 91.93 228.24 89.41 223.86 91.29 223.86"/><polyline class="g" points="90.75 304.1 92.94 304.1 90.4 308.48 87.87 304.1 89.76 304.1"/><polyline class="g" points="90.06 278.22 87.87 278.22 90.41 273.84 92.94 278.22 91.05 278.22"/><polyline class="h" points="321.94 121.87 324.13 121.87 321.59 126.25 319.07 121.87 320.95 121.87"/><line class="k" x1="321.6" y1="70.1" x2="321.6" y2="121.87"/><g><path d="M240.7,21.34l3.42-1.29,.32-.09-.32-.1-3.42-1.27v-1.01l4.66,2v.77l-4.66,2v-1.01Z"/><text class="b" transform="translate(246.12 23.67)"><tspan x="0" y="0">minioClient.getObject()</tspan></text></g><rect class="n" x="228.67" y="-.43" width="185.86" height="39.33"/><rect class="g" x="228.67" y="126.15" width="185.86" height="52.93"/><g><g><rect class="e" x="308.59" y="147.71" width="4.49" height="11.71"/><path class="e" d="M303.14,147.87l-9.11,4.92c-.13,.07-.29,.07-.42,0l-9.11-4.92c-.2-.11-.42-.16-.65-.16h-.01c-.69,0-1.25,.49-1.25,1.1v10.59s4.49,0,4.49,0v-5.04c0-.31,.38-.5,.68-.34l5.11,2.76c.5,.27,1.14,.28,1.64,.01l5.39-2.79c.3-.15,.68,.04,.68,.34v5.06s4.49,0,4.49,0v-10.59c0-.61-.56-1.1-1.25-1.1h-.01c-.23,0-.46,.06-.65,.16Z"/><path class="e" d="M335.47,147.71h-4.55s0,5.33,0,5.33c0,.3-.36,.49-.66,.35l-11.8-5.55c-.18-.09-.38-.13-.59-.13h0c-.69,0-1.25,.49-1.25,1.1v10.59s4.52,0,4.52,0v-5.32c0-.3,.36-.49,.66-.35l11.85,5.55c.18,.08,.38,.13,.59,.13h0c.69,0,1.25-.49,1.25-1.1v-10.6Z"/></g><path class="e" d="M339,159.42v-11.71h2.07v11.71h-2.07Z"/><path class="e" d="M353.22,159.63c-5.56,0-9.5-2.33-9.5-6.06,0-3.71,3.97-6.06,9.5-6.06,5.53,0,9.53,2.33,9.53,6.06s-3.9,6.06-9.53,6.06Zm0-10.57c-4.13,0-7.32,1.59-7.32,4.51,0,2.94,3.18,4.51,7.32,4.51,4.13,0,7.34-1.57,7.34-4.51s-3.21-4.51-7.34-4.51Z"/></g><line class="k" x1="321.6" y1="39.1" x2="321.6" y2="54.87"/><rect class="d" x=".02" y=".41" width="156.61" height="56.08"/><g><path d="M56.63,14.15v5.82h-.88v-5.82h.88Z"/><path d="M58.69,17.38v2.59h-.85v-4.36h.82v.71h.05c.1-.23,.26-.42,.47-.56,.21-.14,.49-.21,.81-.21,.3,0,.56,.06,.78,.19,.22,.12,.4,.31,.52,.55,.12,.24,.18,.55,.18,.91v2.78h-.85v-2.67c0-.32-.08-.56-.25-.74-.17-.18-.39-.27-.68-.27-.2,0-.37,.04-.52,.13-.15,.08-.27,.21-.36,.37-.09,.16-.13,.36-.13,.59Z"/><path d="M64.65,15.6v.68h-2.38v-.68h2.38Zm-1.74-1.05h.85v4.13c0,.16,.02,.29,.07,.37,.05,.08,.11,.14,.19,.17,.08,.03,.16,.04,.26,.04,.07,0,.13,0,.18-.01,.05,0,.09-.02,.12-.02l.15,.7s-.12,.04-.21,.06c-.09,.02-.2,.03-.34,.03-.22,0-.43-.04-.62-.12-.19-.08-.35-.21-.47-.39-.12-.17-.18-.39-.18-.66v-4.3Z"/><path d="M67.43,20.06c-.43,0-.8-.09-1.11-.28s-.55-.44-.72-.78c-.17-.34-.25-.73-.25-1.18s.08-.84,.25-1.18c.17-.34,.4-.61,.7-.8,.3-.19,.66-.29,1.06-.29,.25,0,.48,.04,.72,.12s.44,.21,.62,.38c.18,.17,.33,.4,.43,.68,.11,.28,.16,.61,.16,1.01v.3h-3.47v-.64h2.64c0-.22-.05-.42-.14-.6s-.22-.31-.38-.41c-.16-.1-.36-.15-.58-.15-.24,0-.45,.06-.62,.17-.18,.12-.31,.27-.41,.45-.1,.19-.14,.39-.14,.61v.5c0,.29,.05,.54,.15,.74,.1,.2,.25,.36,.43,.47,.19,.11,.4,.16,.65,.16,.16,0,.31-.02,.44-.07,.13-.05,.25-.12,.34-.21,.1-.09,.17-.21,.22-.34l.8,.15c-.06,.24-.18,.44-.35,.62-.17,.18-.37,.31-.62,.41-.25,.1-.53,.15-.85,.15Z"/><path d="M70.24,19.97v-4.36h.82v.69h.05c.08-.23,.22-.42,.42-.56,.2-.14,.43-.2,.69-.2,.05,0,.12,0,.19,0s.13,0,.17,.01v.81s-.09-.02-.18-.03c-.09-.01-.17-.02-.26-.02-.2,0-.38,.04-.54,.13-.16,.08-.28,.2-.37,.35-.09,.15-.14,.32-.14,.51v2.66h-.85Z"/><path d="M74.17,17.38v2.59h-.85v-4.36h.82v.71h.05c.1-.23,.26-.42,.47-.56,.21-.14,.49-.21,.81-.21,.3,0,.56,.06,.78,.19,.22,.12,.4,.31,.52,.55,.12,.24,.18,.55,.18,.91v2.78h-.85v-2.67c0-.32-.08-.56-.25-.74-.17-.18-.39-.27-.68-.27-.2,0-.37,.04-.52,.13-.15,.08-.27,.21-.36,.37-.09,.16-.13,.36-.13,.59Z"/><path d="M79.93,20.06c-.41,0-.77-.09-1.07-.28-.3-.19-.54-.45-.71-.79-.17-.34-.25-.73-.25-1.18s.08-.85,.25-1.19c.17-.34,.41-.6,.71-.79,.31-.19,.66-.28,1.07-.28s.77,.09,1.07,.28c.31,.19,.54,.45,.71,.79,.17,.34,.25,.73,.25,1.19s-.08,.84-.25,1.18c-.17,.34-.41,.6-.71,.79-.3,.19-.66,.28-1.07,.28Zm0-.71c.27,0,.48-.07,.66-.21,.17-.14,.3-.33,.39-.56,.08-.23,.13-.49,.13-.77s-.04-.53-.13-.77c-.08-.23-.21-.42-.39-.56-.17-.14-.39-.21-.66-.21s-.49,.07-.66,.21-.3,.33-.39,.56-.13,.49-.13,.77,.04,.54,.13,.77,.21,.42,.39,.56c.18,.14,.4,.21,.66,.21Z"/><path d="M84.55,20.05c-.35,0-.67-.09-.94-.27-.28-.18-.49-.44-.65-.78-.16-.34-.23-.74-.23-1.21s.08-.88,.24-1.21c.16-.34,.38-.59,.65-.77,.28-.18,.59-.27,.94-.27,.27,0,.49,.04,.65,.13,.17,.09,.29,.19,.39,.31,.09,.12,.16,.22,.21,.32h.05v-2.16h.85v5.82h-.83v-.68h-.07c-.05,.09-.12,.2-.22,.32s-.23,.22-.39,.31c-.17,.09-.38,.13-.65,.13Zm.19-.72c.24,0,.45-.06,.62-.19,.17-.13,.3-.31,.39-.54,.09-.23,.13-.5,.13-.81s-.04-.57-.13-.8c-.09-.23-.21-.4-.38-.53-.17-.13-.38-.19-.62-.19s-.47,.07-.64,.2c-.17,.13-.3,.31-.39,.54-.09,.23-.13,.49-.13,.78s.04,.55,.13,.79c.09,.23,.22,.42,.39,.55,.17,.14,.38,.2,.63,.2Z"/><path d="M89.8,20.06c-.43,0-.8-.09-1.11-.28s-.55-.44-.72-.78c-.17-.34-.25-.73-.25-1.18s.08-.84,.25-1.18c.17-.34,.4-.61,.7-.8,.3-.19,.66-.29,1.06-.29,.25,0,.48,.04,.72,.12s.44,.21,.62,.38c.18,.17,.33,.4,.43,.68,.11,.28,.16,.61,.16,1.01v.3h-3.47v-.64h2.64c0-.22-.05-.42-.14-.6s-.22-.31-.38-.41c-.16-.1-.36-.15-.58-.15-.24,0-.45,.06-.62,.17-.18,.12-.31,.27-.41,.45-.1,.19-.14,.39-.14,.61v.5c0,.29,.05,.54,.15,.74,.1,.2,.25,.36,.43,.47,.19,.11,.4,.16,.65,.16,.16,0,.31-.02,.44-.07,.13-.05,.25-.12,.34-.21,.1-.09,.17-.21,.22-.34l.8,.15c-.06,.24-.18,.44-.35,.62-.17,.18-.37,.31-.62,.41-.25,.1-.53,.15-.85,.15Z"/><path d="M94.52,14.91v-.76h4.5v.76h-1.82v5.06h-.88v-5.06h-1.81Z"/><path d="M99.49,19.97v-4.36h.82v.69h.05c.08-.23,.22-.42,.42-.56,.2-.14,.43-.2,.69-.2,.05,0,.12,0,.19,0s.13,0,.17,.01v.81s-.09-.02-.18-.03c-.09-.01-.17-.02-.26-.02-.2,0-.38,.04-.54,.13-.16,.08-.28,.2-.37,.35-.09,.15-.14,.32-.14,.51v2.66h-.85Z"/><path d="M103.79,20.06c-.28,0-.53-.05-.75-.15-.22-.1-.4-.25-.53-.45-.13-.2-.19-.44-.19-.72,0-.25,.05-.45,.14-.61s.22-.29,.38-.38,.34-.16,.54-.21c.2-.05,.4-.08,.61-.11,.26-.03,.47-.06,.64-.08,.16-.02,.28-.05,.35-.1,.07-.05,.11-.12,.11-.22v-.02c0-.25-.07-.44-.21-.58s-.35-.2-.62-.2-.51,.06-.67,.19c-.16,.13-.28,.27-.34,.42l-.8-.18c.09-.27,.23-.48,.42-.64,.18-.16,.39-.28,.63-.36s.49-.11,.75-.11c.17,0,.36,.02,.56,.06,.2,.04,.38,.12,.55,.22s.31,.26,.42,.46,.16,.46,.16,.78v2.9h-.83v-.6h-.03c-.06,.11-.14,.22-.25,.32-.11,.11-.25,.19-.42,.26-.17,.07-.38,.1-.62,.1Zm.18-.68c.23,0,.44-.05,.6-.14,.17-.09,.3-.21,.38-.36,.09-.15,.13-.31,.13-.48v-.56s-.09,.06-.17,.08c-.09,.03-.18,.05-.29,.07s-.22,.03-.32,.05c-.1,.01-.19,.03-.26,.04-.16,.02-.31,.06-.45,.1-.14,.05-.24,.12-.32,.21-.08,.09-.12,.21-.12,.36,0,.21,.08,.37,.23,.48s.35,.16,.59,.16Z"/><path d="M109.16,15.6v.68h-2.47v-.68h2.47Zm-1.79,4.36v-4.87c0-.27,.06-.5,.18-.68,.12-.18,.28-.32,.47-.41,.2-.09,.41-.13,.64-.13,.17,0,.32,.01,.44,.04s.21,.05,.27,.08l-.2,.69s-.09-.02-.15-.04-.14-.02-.23-.02c-.21,0-.35,.05-.44,.15-.09,.1-.13,.25-.13,.44v4.76h-.85Z"/><path d="M112.11,15.6v.68h-2.47v-.68h2.47Zm-1.79,4.36v-4.87c0-.27,.06-.5,.18-.68,.12-.18,.28-.32,.47-.41,.2-.09,.41-.13,.64-.13,.17,0,.32,.01,.44,.04s.21,.05,.27,.08l-.2,.69s-.09-.02-.15-.04-.14-.02-.23-.02c-.21,0-.35,.05-.44,.15-.09,.1-.13,.25-.13,.44v4.76h-.85Z"/><path d="M113.41,14.93c-.15,0-.27-.05-.38-.15-.1-.1-.16-.22-.16-.36s.05-.26,.16-.36c.11-.1,.23-.15,.38-.15s.27,.05,.38,.15c.1,.1,.16,.22,.16,.36s-.05,.26-.16,.36c-.11,.1-.23,.15-.38,.15Zm-.43,5.04v-4.36h.85v4.36h-.85Z"/><path d="M116.81,20.06c-.42,0-.79-.1-1.09-.29-.3-.19-.54-.46-.7-.8-.16-.34-.24-.73-.24-1.17s.08-.83,.25-1.17c.17-.34,.4-.61,.7-.8,.3-.19,.66-.29,1.07-.29,.33,0,.63,.06,.89,.18,.26,.12,.47,.29,.63,.51,.16,.22,.26,.48,.29,.77h-.83c-.05-.2-.15-.38-.31-.53-.16-.15-.38-.22-.65-.22-.24,0-.44,.06-.62,.19s-.31,.3-.41,.53c-.1,.23-.15,.5-.15,.81s.05,.59,.15,.82,.23,.41,.41,.54c.18,.13,.39,.19,.63,.19,.16,0,.31-.03,.44-.09,.13-.06,.24-.15,.33-.26,.09-.11,.15-.25,.19-.4h.83c-.03,.28-.12,.53-.28,.76s-.36,.4-.62,.52c-.26,.13-.56,.19-.9,.19Z"/></g><g><path d="M64.75,35.77c-.03-.27-.16-.48-.38-.63-.22-.15-.5-.22-.83-.22-.24,0-.44,.04-.62,.11-.17,.08-.31,.18-.4,.31-.1,.13-.14,.28-.14,.44,0,.14,.03,.26,.1,.36,.06,.1,.15,.18,.26,.25s.22,.12,.35,.17c.12,.04,.24,.08,.35,.11l.57,.15c.19,.04,.38,.11,.57,.18,.2,.08,.38,.18,.54,.31,.17,.13,.3,.28,.4,.47,.1,.19,.15,.41,.15,.67,0,.33-.08,.62-.25,.88s-.41,.46-.74,.61c-.32,.15-.71,.22-1.16,.22s-.81-.07-1.13-.21c-.32-.14-.57-.33-.75-.59-.18-.25-.28-.56-.3-.91h.88c.02,.21,.09,.38,.21,.52,.12,.14,.27,.24,.46,.31s.4,.1,.62,.1c.25,0,.47-.04,.66-.12,.19-.08,.35-.19,.46-.33,.11-.14,.17-.31,.17-.5,0-.17-.05-.31-.15-.42-.1-.11-.23-.2-.4-.27-.17-.07-.35-.14-.56-.19l-.69-.19c-.47-.13-.83-.31-1.11-.56-.27-.25-.41-.57-.41-.98,0-.33,.09-.63,.27-.88,.18-.25,.43-.44,.74-.58,.31-.14,.66-.21,1.05-.21s.74,.07,1.04,.21c.3,.14,.54,.33,.71,.57s.27,.52,.27,.83h-.85Z"/><path d="M68.67,40.14c-.39,0-.74-.07-1.04-.2-.31-.13-.55-.32-.72-.56-.18-.24-.27-.52-.29-.83h.89c.01,.17,.07,.32,.17,.45,.1,.13,.24,.22,.41,.29,.17,.07,.36,.1,.57,.1,.23,0,.43-.04,.61-.12,.18-.08,.32-.19,.42-.33,.1-.14,.15-.31,.15-.5s-.05-.37-.15-.52c-.1-.15-.24-.27-.43-.35-.19-.08-.42-.13-.69-.13h-.49v-.72h.49c.22,0,.41-.04,.57-.12,.16-.08,.29-.19,.38-.33,.09-.14,.14-.3,.14-.49s-.04-.34-.12-.47-.19-.24-.34-.31c-.15-.08-.32-.11-.52-.11s-.37,.03-.53,.1c-.16,.07-.3,.17-.4,.3-.1,.13-.16,.28-.16,.46h-.85c0-.31,.1-.59,.28-.83,.18-.24,.41-.42,.7-.56,.29-.13,.62-.2,.97-.2s.7,.07,.97,.22c.27,.14,.48,.34,.63,.58,.15,.24,.22,.5,.22,.79,0,.33-.09,.6-.27,.83s-.43,.38-.73,.46v.04c.39,.06,.69,.21,.9,.46,.21,.25,.32,.56,.32,.92,0,.32-.09,.61-.27,.86-.18,.25-.42,.45-.73,.6-.31,.14-.66,.22-1.06,.22Z"/><path d="M74.48,40.06h-.93l2.09-5.82h1.01l2.09,5.82h-.93l-1.65-4.76h-.05l-1.65,4.76Zm.16-2.28h3.02v.74h-3.02v-.74Z"/><path d="M79.59,40.06v-5.82h2.07c.45,0,.83,.08,1.12,.25s.52,.39,.67,.67c.15,.29,.22,.61,.22,.96s-.07,.68-.22,.96c-.15,.29-.37,.51-.67,.68-.3,.17-.67,.25-1.12,.25h-1.43v-.74h1.35c.29,0,.52-.05,.7-.15s.31-.24,.39-.41c.08-.17,.12-.37,.12-.59s-.04-.42-.12-.59c-.08-.17-.21-.3-.39-.4-.18-.1-.41-.14-.71-.14h-1.1v5.07h-.88Z"/><path d="M85.58,34.24v5.82h-.88v-5.82h.88Z"/><path d="M88.69,35v-.76h4.5v.76h-1.82v5.06h-.88v-5.06h-1.81Z"/><path d="M93.67,40.06v-4.36h.82v.69h.05c.08-.23,.22-.42,.42-.56,.2-.13,.43-.2,.69-.2,.05,0,.12,0,.19,0s.13,0,.17,.01v.81s-.09-.02-.18-.03c-.09-.01-.17-.02-.26-.02-.2,0-.38,.04-.54,.13s-.28,.2-.37,.35c-.09,.15-.14,.32-.14,.51v2.67h-.85Z"/><path d="M97.97,40.16c-.28,0-.53-.05-.75-.16s-.4-.25-.53-.45-.19-.44-.19-.72c0-.25,.05-.45,.14-.61s.22-.29,.38-.38,.34-.16,.54-.21c.2-.05,.4-.08,.61-.11,.26-.03,.47-.06,.64-.08,.16-.02,.28-.05,.35-.1,.07-.04,.11-.12,.11-.22v-.02c0-.25-.07-.44-.21-.58-.14-.14-.35-.21-.62-.21s-.51,.06-.67,.19c-.16,.13-.28,.27-.34,.42l-.8-.18c.09-.27,.23-.48,.42-.64,.18-.16,.39-.28,.63-.36,.24-.07,.49-.11,.75-.11,.17,0,.36,.02,.56,.06,.2,.04,.38,.12,.55,.22,.17,.11,.31,.26,.42,.46,.11,.2,.16,.46,.16,.78v2.9h-.83v-.6h-.03c-.06,.11-.14,.22-.25,.32-.11,.11-.25,.19-.42,.26-.17,.07-.38,.11-.62,.11Zm.18-.68c.23,0,.44-.05,.6-.14,.17-.09,.3-.21,.38-.37,.09-.15,.13-.31,.13-.48v-.56s-.09,.06-.17,.08c-.09,.03-.18,.05-.29,.07-.11,.02-.22,.03-.32,.05-.1,.01-.19,.03-.26,.04-.16,.02-.31,.06-.45,.1-.14,.05-.24,.12-.32,.21-.08,.09-.12,.21-.12,.37,0,.21,.08,.37,.23,.48,.16,.11,.35,.16,.59,.16Z"/><path d="M103.33,35.69v.68h-2.47v-.68h2.47Zm-1.79,4.36v-4.87c0-.27,.06-.5,.18-.68,.12-.18,.28-.32,.47-.41,.2-.09,.41-.13,.64-.13,.17,0,.32,.01,.44,.04s.21,.05,.27,.08l-.2,.69s-.09-.03-.15-.04c-.06-.02-.14-.02-.23-.02-.21,0-.35,.05-.44,.15-.09,.1-.13,.25-.13,.44v4.76h-.85Z"/><path d="M106.28,35.69v.68h-2.47v-.68h2.47Zm-1.79,4.36v-4.87c0-.27,.06-.5,.18-.68,.12-.18,.28-.32,.47-.41,.2-.09,.41-.13,.64-.13,.17,0,.32,.01,.44,.04s.21,.05,.27,.08l-.2,.69s-.09-.03-.15-.04c-.06-.02-.14-.02-.23-.02-.21,0-.35,.05-.44,.15-.09,.1-.13,.25-.13,.44v4.76h-.85Z"/><path d="M107.59,35.02c-.15,0-.27-.05-.38-.15-.1-.1-.16-.22-.16-.36s.05-.26,.16-.36c.11-.1,.23-.15,.38-.15s.27,.05,.38,.15c.1,.1,.16,.22,.16,.36s-.05,.26-.16,.36c-.11,.1-.23,.15-.38,.15Zm-.43,5.04v-4.36h.85v4.36h-.85Z"/><path d="M110.99,40.15c-.42,0-.79-.1-1.09-.29-.3-.19-.54-.46-.7-.8-.16-.34-.24-.73-.24-1.17s.08-.83,.25-1.17,.4-.61,.7-.8c.3-.19,.66-.29,1.07-.29,.33,0,.63,.06,.89,.18,.26,.12,.47,.29,.63,.51,.16,.22,.26,.48,.29,.77h-.83c-.05-.2-.15-.38-.31-.53s-.38-.22-.65-.22c-.24,0-.44,.06-.62,.19s-.31,.3-.41,.53c-.1,.23-.15,.5-.15,.81s.05,.59,.15,.82c.1,.23,.23,.41,.41,.54,.18,.13,.39,.19,.63,.19,.16,0,.31-.03,.44-.09,.13-.06,.24-.15,.33-.26s.15-.25,.19-.4h.83c-.03,.28-.12,.53-.28,.76s-.36,.4-.62,.52-.56,.19-.9,.19Z"/></g><line class="l" x1="14.26" y1="17.18" x2="46.34" y2="17.18"/><line class="m" x1="14.26" y1="37.15" x2="46.34" y2="37.15"/><rect class="i" x="228.67" y="54.06" width="185.86" height="52.93"/><text class="f" transform="translate(262.2 85.41)"><tspan class="o" x="0" y="0">L</tspan><tspan class="c" x="7.55" y="0">O</tspan><tspan x="17.92" y="0">AD BA</tspan><tspan class="j" x="61.54" y="0">L</tspan><tspan x="69.74" y="0">ANCER</tspan></text><g><g><rect class="n" x="38.94" y="230.53" width="104.98" height="39.33"/><text class="p" transform="translate(77.15 254)"><tspan x="0" y="0">NODE</tspan></text></g><g><rect class="n" x="193.09" y="230.53" width="104.98" height="39.33"/><text class="p" transform="translate(231.3 254)"><tspan x="0" y="0">NODE</tspan></text></g><g><rect class="n" x="347.25" y="230.53" width="104.98" height="39.33"/><text class="p" transform="translate(385.46 254)"><tspan x="0" y="0">NODE</tspan></text></g><g><rect class="n" x="501.4" y="230.53" width="104.98" height="39.33"/><text class="p" transform="translate(539.61 254)"><tspan x="0" y="0">NODE</tspan></text></g></g><g><g><rect class="n" x="38.94" y="312.94" width="104.98" height="39.33"/><text class="p" transform="translate(77.15 336.41)"><tspan x="0" y="0">NODE</tspan></text></g><g><rect class="n" x="193.09" y="312.94" width="104.98" height="39.33"/><text class="p" transform="translate(231.3 336.41)"><tspan x="0" y="0">NODE</tspan></text></g><g><rect class="n" x="347.25" y="312.94" width="104.98" height="39.33"/><text class="p" transform="translate(385.46 336.41)"><tspan x="0" y="0">NODE</tspan></text></g><g><rect class="n" x="501.4" y="312.94" width="104.98" height="39.33"/><text class="p" transform="translate(539.61 336.41)"><tspan x="0" y="0">NODE</tspan></text></g></g><line class="l" x1="91.94" y1="291.85" x2="553.9" y2="291.85"/><line class="l" x1="90.41" y1="278.03" x2="90.41" y2="305.53"/><polyline class="g" points="245.93 304.1 248.12 304.1 245.59 308.48 243.06 304.1 244.94 304.1"/><polyline class="g" points="245.24 278.22 243.06 278.22 245.59 273.84 248.12 278.22 246.23 278.22"/><line class="l" x1="245.59" y1="278.03" x2="245.59" y2="305.53"/><polyline class="g" points="400.09 304.1 402.27 304.1 399.74 308.48 397.21 304.1 399.1 304.1"/><polyline class="g" points="399.39 278.22 397.21 278.22 399.74 273.84 402.27 278.22 400.38 278.22"/><line class="l" x1="399.74" y1="278.03" x2="399.74" y2="305.53"/><polyline class="g" points="551.71 304.1 553.9 304.1 551.37 308.48 548.84 304.1 550.72 304.1"/><polyline class="g" points="551.02 278.22 548.84 278.22 551.37 273.84 553.9 278.22 552.01 278.22"/><line class="l" x1="551.37" y1="278.03" x2="551.37" y2="305.53"/></svg>