<?xml version="1.0" encoding="UTF-8" standalone="no"?>
<svg
   id="a"
   viewBox="0 0 645.33 320.16"
   version="1.1"
   sodipodi:docname="architecture-multi-site-latency.svg"
   width="645.33002"
   height="320.16"
   inkscape:version="1.2.2 (b0a8486541, 2022-12-01)"
   xmlns:inkscape="http://www.inkscape.org/namespaces/inkscape"
   xmlns:sodipodi="http://sodipodi.sourceforge.net/DTD/sodipodi-0.dtd"
   xmlns="http://www.w3.org/2000/svg"
   xmlns:svg="http://www.w3.org/2000/svg">
  <sodipodi:namedview
     id="namedview277"
     pagecolor="#505050"
     bordercolor="#eeeeee"
     borderopacity="1"
     inkscape:showpageshadow="0"
     inkscape:pageopacity="0"
     inkscape:pagecheckerboard="0"
     inkscape:deskcolor="#505050"
     showgrid="false"
     inkscape:zoom="3.2234344"
     inkscape:cx="343.26742"
     inkscape:cy="227.55233"
     inkscape:window-width="3840"
     inkscape:window-height="2123"
     inkscape:window-x="3840"
     inkscape:window-y="0"
     inkscape:window-maximized="1"
     inkscape:current-layer="a" />
  <defs
     id="defs4">
    <style
       id="style2">.b,.c{stroke-dasharray:0 0 2 3;}.b,.c,.d,.e,.f,.g,.h,.i,.j,.k,.l{stroke-miterlimit:10;}.b,.c,.d,.e,.f,.g,.h,.i,.j,.l{fill:none;}.b,.i{stroke:#1b1717;}.c,.g,.j{stroke:#cf2144;}.m{letter-spacing:-.04em;}.n{fill:#f6f6f6;}.o,.p,.q,.k{fill:#fff;}.r{fill:#afcddd;}.s{fill:#cf2144;}.t{fill:#1b1717;}.u{fill:#577f9a;}.d{stroke-dasharray:0 0 1.39 1.39;}.d,.e,.f,.h,.l{stroke:#577f9a;stroke-width:.68px;}.v{letter-spacing:0em;}.w{font-family:RobotoMono-Regular, 'Roboto Mono';font-variation-settings:'wght' 400;}.w,.x{font-size:8px;}.e{stroke-dasharray:0 0 1.37 1.37;}.f{stroke-dasharray:0 0 1.38 1.38;}.y{letter-spacing:0em;}.x{font-family:Inter-Medium, Inter;font-variation-settings:'wght' 500, 'slnt' 0;font-weight:500;}.g{stroke-dasharray:0 0 2 2;}.h{stroke-dasharray:0 0 1.27 1.27;}.z{letter-spacing:-.06em;}.aa{letter-spacing:0em;}.ab{letter-spacing:-.09em;}.ac{letter-spacing:0em;}.p{font-size:14px;}.p,.q,.ad{font-family:Inter-Bold, Inter;font-variation-settings:'wght' 700, 'slnt' 0;font-weight:700;}.q,.ad{font-size:9px;}.ae{letter-spacing:0em;}.k{stroke:#000;stroke-width:1.08px;}</style>
  </defs>
  <g
     id="g10"
     transform="translate(0,4)">
    <polyline
       class="t"
       points="99.6 151.11 101.79 151.11 99.26 155.49 96.73 151.11 98.61 151.11"
       id="polyline6" />
    <polyline
       class="i"
       points="99.26 151.11 99.26 105.35 322.73 105.35 322.73 38.9"
       id="polyline8" />
  </g>
  <rect
     class="n"
     x="0.02"
     y="4.4099998"
     width="156.61"
     height="65.879997"
     id="rect12" />
  <line
     class="c"
     x1="14.26"
     y1="21.18"
     x2="46.34"
     y2="21.18"
     id="line14" />
  <line
     class="b"
     x1="14.26"
     y1="39.150002"
     x2="46.34"
     y2="39.150002"
     id="line16" />
  <text
     class="x"
     id="text28"
     y="4"><tspan
       class="v"
       x="63.18"
       y="23.870001"
       id="tspan18">R</tspan><tspan
       class="ac"
       x="68.290001"
       y="23.870001"
       id="tspan20">eplication</tspan><tspan
       class="z"
       x="107.69"
       y="23.870001"
       id="tspan22">T</tspan><tspan
       class="ae"
       x="112.44"
       y="23.870001"
       id="tspan24">r</tspan><tspan
       class="aa"
       x="115.47"
       y="23.870001"
       id="tspan26">affic</tspan></text>
  <text
     class="x"
     id="text38"
     y="4"><tspan
       class="v"
       x="63.18"
       y="42.049999"
       id="tspan30">R</tspan><tspan
       class="ac"
       x="68.290001"
       y="42.049999"
       id="tspan32">eplica</tspan><tspan
       class="y"
       x="91.010002"
       y="42.049999"
       id="tspan34">t</tspan><tspan
       x="93.93"
       y="42.049999"
       id="tspan36">ed Data</tspan></text>
  <line
     class="i"
     x1="14.26"
     y1="56.360001"
     x2="46.34"
     y2="56.360001"
     id="line40" />
  <text
     class="x"
     id="text50"
     y="4"><tspan
       x="63.18"
       y="59.259998"
       id="tspan42">S3 API</tspan><tspan
       class="z"
       x="90.589996"
       y="59.259998"
       id="tspan44">T</tspan><tspan
       class="ae"
       x="95.349998"
       y="59.259998"
       id="tspan46">r</tspan><tspan
       class="aa"
       x="98.379997"
       y="59.259998"
       id="tspan48">affic</tspan></text>
  <polygon
     class="u"
     points="417.09,75.79 417.09,61.41 412.11,55.34 365.17,55.34 365.17,75.79 "
     id="polygon52"
     transform="translate(0,4)" />
  <text
     class="q"
     id="text60"
     x="378.42999"
     y="73.25"><tspan
       class="m"
       x="378.42999"
       y="73.25"
       id="tspan54">D</tspan><tspan
       class="ab"
       x="384.60999"
       y="73.25"
       id="tspan56">AT</tspan><tspan
       x="395.73999"
       y="73.25"
       id="tspan58">A</tspan></text>
  <polygon
     class="u"
     points="125.22,237.49 125.22,223.11 120.24,217.04 73.3,217.04 73.3,237.49 "
     id="polygon62"
     transform="translate(0,4)" />
  <text
     class="q"
     id="text70"
     x="86.559998"
     y="234.94"><tspan
       class="m"
       x="86.559998"
       y="234.94"
       id="tspan64">D</tspan><tspan
       class="ab"
       x="92.739998"
       y="234.94"
       id="tspan66">AT</tspan><tspan
       x="103.87"
       y="234.94"
       id="tspan68">A</tspan></text>
  <g
     id="g92"
     transform="translate(0,4)">
    <polygon
       class="r"
       points="625,161.33 625,146.95 620.02,140.88 573.08,140.88 573.08,161.33 "
       id="polygon72" />
    <g
       id="g90">
      <polyline
         class="l"
         points="620.46 141.41 620.02 140.88 619.34 140.88"
         id="polyline74" />
      <line
         class="f"
         x1="617.96002"
         y1="140.88"
         x2="574.45001"
         y2="140.88"
         id="line76" />
      <polyline
         class="l"
         points="573.76 140.88 573.08 140.88 573.08 141.56"
         id="polyline78" />
      <line
         class="h"
         x1="573.08002"
         y1="142.84"
         x2="573.08002"
         y2="160.02"
         id="line80" />
      <polyline
         class="l"
         points="573.08 160.65 573.08 161.33 573.76 161.33"
         id="polyline82" />
      <line
         class="e"
         x1="575.13"
         y1="161.33"
         x2="623.64001"
         y2="161.33"
         id="line84" />
      <polyline
         class="l"
         points="624.32 161.33 625 161.33 625 160.65"
         id="polyline86" />
      <polyline
         class="d"
         points="625 159.26 625 146.95 620.9 141.95"
         id="polyline88" />
    </g>
  </g>
  <text
     class="ad"
     id="text100"
     x="586.34003"
     y="158.78999"><tspan
       class="m"
       x="586.34003"
       y="158.78999"
       id="tspan94">D</tspan><tspan
       class="ab"
       x="592.52002"
       y="158.78999"
       id="tspan96">AT</tspan><tspan
       x="603.65002"
       y="158.78999"
       id="tspan98">A</tspan></text>
  <g
     id="g122"
     transform="translate(0,4)">
    <polygon
       class="r"
       points="625,309.74 625,295.36 620.02,289.29 573.08,289.29 573.08,309.74 "
       id="polygon102" />
    <g
       id="g120">
      <polyline
         class="l"
         points="620.46 289.81 620.02 289.29 619.34 289.29"
         id="polyline104" />
      <line
         class="f"
         x1="617.96002"
         y1="289.29001"
         x2="574.45001"
         y2="289.29001"
         id="line106" />
      <polyline
         class="l"
         points="573.76 289.29 573.08 289.29 573.08 289.97"
         id="polyline108" />
      <line
         class="h"
         x1="573.08002"
         y1="291.23999"
         x2="573.08002"
         y2="308.42001"
         id="line110" />
      <polyline
         class="l"
         points="573.08 309.06 573.08 309.74 573.76 309.74"
         id="polyline112" />
      <line
         class="e"
         x1="575.13"
         y1="309.73999"
         x2="623.64001"
         y2="309.73999"
         id="line114" />
      <polyline
         class="l"
         points="624.32 309.74 625 309.74 625 309.06"
         id="polyline116" />
      <polyline
         class="d"
         points="625 307.67 625 295.36 620.9 290.35"
         id="polyline118" />
    </g>
  </g>
  <text
     class="ad"
     id="text130"
     x="586.34003"
     y="307.20001"><tspan
       class="m"
       x="586.34003"
       y="307.20001"
       id="tspan124">D</tspan><tspan
       class="ab"
       x="592.52002"
       y="307.20001"
       id="tspan126">AT</tspan><tspan
       x="603.65002"
       y="307.20001"
       id="tspan128">A</tspan></text>
  <rect
     class="s"
     x="13.67"
     y="159.49001"
     width="171.42"
     height="52.93"
     id="rect132" />
  <g
     id="g146"
     transform="translate(0,4)">
    <g
       id="g140">
      <rect
         class="o"
         x="60.32"
         y="178.58"
         width="3.9200001"
         height="10.21"
         id="rect134" />
      <path
         class="o"
         d="m 55.58,178.72 -7.95,4.29 c -0.11,0.06 -0.26,0.06 -0.37,0 l -7.95,-4.29 c -0.17,-0.09 -0.37,-0.14 -0.57,-0.14 v 0 c -0.6,0 -1.09,0.43 -1.09,0.96 v 9.24 c 0,0 3.91,0 3.91,0 v -4.4 c 0,-0.27 0.33,-0.44 0.6,-0.29 l 4.45,2.41 c 0.44,0.24 0.99,0.24 1.43,0.01 l 4.7,-2.43 c 0.26,-0.14 0.59,0.03 0.59,0.3 v 4.41 c 0,0 3.91,0 3.91,0 v -9.24 c 0,-0.53 -0.49,-0.96 -1.09,-0.96 v 0 c -0.2,0 -0.4,0.05 -0.57,0.14 z"
         id="path136" />
      <path
         class="o"
         d="m 83.76,178.58 h -3.97 c 0,0 0,4.65 0,4.65 0,0.26 -0.31,0.43 -0.58,0.31 L 68.92,178.7 c -0.16,-0.07 -0.33,-0.11 -0.51,-0.11 v 0 c -0.6,0 -1.09,0.43 -1.09,0.96 v 9.24 c 0,0 3.94,0 3.94,0 v -4.64 c 0,-0.26 0.31,-0.43 0.57,-0.31 l 10.33,4.84 c 0.16,0.07 0.33,0.11 0.51,0.11 v 0 c 0.6,0 1.09,-0.43 1.09,-0.96 v -9.24 z"
         id="path138" />
    </g>
    <path
       class="o"
       d="m 86.84,188.79 v -10.21 h 1.8 v 10.21 z"
       id="path142" />
    <path
       class="o"
       d="m 99.25,188.97 c -4.85,0 -8.28,-2.03 -8.28,-5.29 0,-3.24 3.46,-5.29 8.28,-5.29 4.82,0 8.31,2.03 8.31,5.29 0,3.26 -3.4,5.29 -8.31,5.29 z m 0,-9.22 c -3.6,0 -6.38,1.39 -6.38,3.93 0,2.56 2.78,3.93 6.38,3.93 3.6,0 6.4,-1.37 6.4,-3.93 0,-2.56 -2.8,-3.93 -6.4,-3.93 z"
       id="path144" />
  </g>
  <text
     class="p"
     id="text150"
     x="116.36"
     y="192.75"><tspan
       x="116.36"
       y="192.75"
       id="tspan148">SITE A</tspan></text>
  <rect
     class="s"
     x="457.88"
     y="86.540001"
     width="171.42"
     height="52.93"
     id="rect152" />
  <g
     id="g166"
     transform="translate(0,4)">
    <g
       id="g160">
      <rect
         class="o"
         x="504.53"
         y="105.63"
         width="3.9200001"
         height="10.21"
         id="rect154" />
      <path
         class="o"
         d="m 499.79,105.77 -7.95,4.29 c -0.11,0.06 -0.26,0.06 -0.37,0 l -7.95,-4.29 c -0.17,-0.09 -0.37,-0.14 -0.57,-0.14 v 0 c -0.6,0 -1.09,0.43 -1.09,0.96 v 9.24 c 0,0 3.91,0 3.91,0 v -4.4 c 0,-0.27 0.33,-0.44 0.6,-0.29 l 4.45,2.41 c 0.44,0.24 0.99,0.24 1.43,0.01 l 4.7,-2.43 c 0.26,-0.14 0.59,0.03 0.59,0.3 v 4.41 c 0,0 3.91,0 3.91,0 v -9.24 c 0,-0.53 -0.49,-0.96 -1.09,-0.96 v 0 c -0.2,0 -0.4,0.05 -0.57,0.14 z"
         id="path156" />
      <path
         class="o"
         d="M 527.97,105.63 H 524 c 0,0 0,4.65 0,4.65 0,0.26 -0.31,0.43 -0.58,0.31 l -10.29,-4.84 c -0.16,-0.07 -0.33,-0.11 -0.51,-0.11 v 0 c -0.6,0 -1.09,0.43 -1.09,0.96 v 9.24 c 0,0 3.94,0 3.94,0 v -4.64 c 0,-0.26 0.31,-0.43 0.57,-0.31 l 10.33,4.84 c 0.16,0.07 0.33,0.11 0.51,0.11 v 0 c 0.6,0 1.09,-0.43 1.09,-0.96 v -9.24 z"
         id="path158" />
    </g>
    <path
       class="o"
       d="m 531.05,115.84 v -10.21 h 1.8 v 10.21 z"
       id="path162" />
    <path
       class="o"
       d="m 543.46,116.03 c -4.85,0 -8.28,-2.03 -8.28,-5.29 0,-3.24 3.46,-5.29 8.28,-5.29 4.82,0 8.31,2.03 8.31,5.29 0,3.26 -3.4,5.29 -8.31,5.29 z m 0,-9.22 c -3.6,0 -6.38,1.39 -6.38,3.93 0,2.56 2.78,3.93 6.38,3.93 3.6,0 6.4,-1.37 6.4,-3.93 0,-2.56 -2.8,-3.93 -6.4,-3.93 z"
       id="path164" />
  </g>
  <text
     class="p"
     id="text170"
     x="561.17999"
     y="119.8"><tspan
       x="561.17999"
       y="119.8"
       id="tspan168">SITE B</tspan></text>
  <rect
     class="s"
     x="457.88"
     y="235.03999"
     width="171.42"
     height="52.93"
     id="rect172" />
  <g
     id="g186"
     transform="translate(0,4)">
    <g
       id="g180">
      <rect
         class="o"
         x="504.53"
         y="254.13"
         width="3.9200001"
         height="10.21"
         id="rect174" />
      <path
         class="o"
         d="m 499.79,254.27 -7.95,4.29 c -0.11,0.06 -0.26,0.06 -0.37,0 l -7.95,-4.29 c -0.17,-0.09 -0.37,-0.14 -0.57,-0.14 v 0 c -0.6,0 -1.09,0.43 -1.09,0.96 v 9.24 c 0,0 3.91,0 3.91,0 v -4.4 c 0,-0.27 0.33,-0.44 0.6,-0.29 l 4.45,2.41 c 0.44,0.24 0.99,0.24 1.43,0.01 l 4.7,-2.43 c 0.26,-0.14 0.59,0.03 0.59,0.3 v 4.41 c 0,0 3.91,0 3.91,0 v -9.24 c 0,-0.53 -0.49,-0.96 -1.09,-0.96 v 0 c -0.2,0 -0.4,0.05 -0.57,0.14 z"
         id="path176" />
      <path
         class="o"
         d="M 527.97,254.13 H 524 c 0,0 0,4.65 0,4.65 0,0.26 -0.31,0.43 -0.58,0.31 l -10.29,-4.84 c -0.16,-0.07 -0.33,-0.11 -0.51,-0.11 v 0 c -0.6,0 -1.09,0.43 -1.09,0.96 v 9.24 c 0,0 3.94,0 3.94,0 v -4.64 c 0,-0.26 0.31,-0.43 0.57,-0.31 l 10.33,4.84 c 0.16,0.07 0.33,0.11 0.51,0.11 v 0 c 0.6,0 1.09,-0.43 1.09,-0.96 v -9.24 z"
         id="path178" />
    </g>
    <path
       class="o"
       d="m 531.05,264.34 v -10.21 h 1.8 v 10.21 z"
       id="path182" />
    <path
       class="o"
       d="m 543.46,264.52 c -4.85,0 -8.28,-2.03 -8.28,-5.29 0,-3.24 3.46,-5.29 8.28,-5.29 4.82,0 8.31,2.03 8.31,5.29 0,3.26 -3.4,5.29 -8.31,5.29 z m 0,-9.22 c -3.6,0 -6.38,1.39 -6.38,3.93 0,2.56 2.78,3.93 6.38,3.93 3.6,0 6.4,-1.37 6.4,-3.93 0,-2.56 -2.8,-3.93 -6.4,-3.93 z"
       id="path184" />
  </g>
  <text
     class="p"
     id="text190"
     x="560.53998"
     y="268.29999"><tspan
       x="560.53998"
       y="268.29999"
       id="tspan188">SITE C</tspan></text>
  <g
     id="g240"
     transform="translate(0,4)">
    <path
       d="m 244.7,21.34 3.42,-1.29 0.32,-0.09 -0.32,-0.1 -3.42,-1.27 v -1.01 l 4.66,2 v 0.77 l -4.66,2 z"
       id="path192" />
    <path
       d="m 251.64,18.22 c 0.12,-0.2 0.27,-0.36 0.46,-0.47 0.19,-0.11 0.42,-0.17 0.68,-0.17 0.15,0 0.29,0.02 0.41,0.05 0.12,0.03 0.23,0.08 0.32,0.15 0.07,0.05 0.13,0.11 0.18,0.18 0.05,0.07 0.1,0.15 0.14,0.24 0.05,-0.08 0.11,-0.16 0.17,-0.23 0.06,-0.07 0.14,-0.13 0.22,-0.18 0.1,-0.06 0.21,-0.11 0.33,-0.14 0.12,-0.03 0.25,-0.05 0.4,-0.06 0.2,0 0.38,0.03 0.53,0.09 0.16,0.06 0.29,0.14 0.4,0.26 0.12,0.13 0.21,0.29 0.27,0.49 0.06,0.2 0.1,0.44 0.1,0.72 v 4.26 h -0.93 v -4.28 c 0,-0.12 -0.01,-0.23 -0.04,-0.32 -0.03,-0.09 -0.07,-0.17 -0.12,-0.23 -0.06,-0.06 -0.13,-0.1 -0.21,-0.13 -0.08,-0.03 -0.18,-0.04 -0.29,-0.04 -0.12,0 -0.22,0.02 -0.3,0.05 -0.08,0.03 -0.15,0.07 -0.21,0.13 -0.06,0.06 -0.1,0.12 -0.13,0.19 -0.03,0.07 -0.05,0.15 -0.06,0.24 v 4.38 h -0.93 v -4.28 c 0,-0.12 -0.01,-0.23 -0.04,-0.32 -0.03,-0.09 -0.07,-0.17 -0.12,-0.23 -0.05,-0.06 -0.12,-0.1 -0.2,-0.12 -0.08,-0.02 -0.17,-0.04 -0.28,-0.04 -0.12,0 -0.22,0.01 -0.3,0.04 -0.08,0.03 -0.16,0.06 -0.22,0.11 -0.05,0.04 -0.08,0.08 -0.12,0.13 -0.03,0.05 -0.06,0.1 -0.08,0.16 v 4.54 h -0.93 v -5.71 h 0.88 l 0.03,0.54 z"
       id="path194" />
    <path
       d="m 260.72,17.68 v 4.87 h 1.86 v 0.84 h -4.78 v -0.84 h 1.94 v -4.02 h -1.94 v -0.85 z m -1.06,-1.74 c 0.03,-0.07 0.07,-0.14 0.12,-0.19 0.05,-0.05 0.1,-0.08 0.18,-0.11 0.07,-0.03 0.15,-0.04 0.25,-0.04 0.1,0 0.17,0.01 0.24,0.04 0.07,0.03 0.13,0.06 0.17,0.11 0.06,0.05 0.1,0.11 0.13,0.18 0.03,0.07 0.04,0.15 0.04,0.24 0,0.16 -0.05,0.29 -0.15,0.4 -0.1,0.11 -0.24,0.16 -0.44,0.16 -0.2,0 -0.34,-0.05 -0.44,-0.16 -0.1,-0.11 -0.15,-0.24 -0.15,-0.4 0,-0.08 0.01,-0.16 0.04,-0.24 z"
       id="path196" />
    <path
       d="m 264.13,17.68 h 0.88 l 0.07,0.84 c 0.08,-0.12 0.18,-0.23 0.28,-0.33 0.1,-0.1 0.21,-0.19 0.32,-0.26 0.17,-0.11 0.35,-0.2 0.55,-0.26 0.2,-0.06 0.41,-0.09 0.63,-0.1 0.3,0 0.57,0.04 0.82,0.13 0.25,0.09 0.45,0.22 0.63,0.4 0.17,0.18 0.31,0.41 0.4,0.68 0.09,0.27 0.14,0.6 0.14,0.98 v 3.63 h -0.98 v -3.6 c 0,-0.25 -0.03,-0.47 -0.08,-0.64 -0.06,-0.18 -0.14,-0.32 -0.25,-0.43 -0.11,-0.11 -0.25,-0.19 -0.41,-0.24 -0.16,-0.05 -0.34,-0.07 -0.55,-0.07 -0.18,0 -0.35,0.03 -0.5,0.08 -0.15,0.05 -0.3,0.12 -0.43,0.21 -0.11,0.08 -0.2,0.17 -0.29,0.27 -0.09,0.1 -0.17,0.21 -0.23,0.34 v 4.1 h -0.98 V 17.7 Z"
       id="path198" />
    <path
       d="m 273.69,17.68 v 4.87 h 1.86 v 0.84 h -4.78 v -0.84 h 1.94 v -4.02 h -1.94 v -0.85 z m -1.06,-1.74 c 0.03,-0.07 0.07,-0.14 0.12,-0.19 0.05,-0.05 0.1,-0.08 0.18,-0.11 0.07,-0.03 0.15,-0.04 0.25,-0.04 0.1,0 0.17,0.01 0.24,0.04 0.07,0.03 0.13,0.06 0.17,0.11 0.06,0.05 0.1,0.11 0.13,0.18 0.03,0.07 0.04,0.15 0.04,0.24 0,0.16 -0.05,0.29 -0.15,0.4 -0.1,0.11 -0.24,0.16 -0.44,0.16 -0.2,0 -0.34,-0.05 -0.44,-0.16 -0.1,-0.11 -0.15,-0.24 -0.15,-0.4 0,-0.08 0.01,-0.16 0.04,-0.24 z"
       id="path200" />
    <path
       d="m 277.01,19.33 c 0.12,-0.35 0.29,-0.66 0.52,-0.92 0.22,-0.26 0.49,-0.47 0.81,-0.61 0.32,-0.15 0.68,-0.22 1.08,-0.22 0.4,0 0.77,0.07 1.09,0.22 0.32,0.15 0.6,0.35 0.82,0.61 0.22,0.26 0.39,0.57 0.51,0.92 0.12,0.35 0.18,0.74 0.18,1.15 v 0.12 c 0,0.41 -0.06,0.79 -0.18,1.15 -0.12,0.35 -0.29,0.66 -0.51,0.92 -0.23,0.26 -0.5,0.46 -0.82,0.61 -0.32,0.15 -0.68,0.22 -1.08,0.22 -0.4,0 -0.77,-0.07 -1.09,-0.22 -0.32,-0.15 -0.59,-0.35 -0.82,-0.61 -0.23,-0.26 -0.4,-0.57 -0.52,-0.92 -0.12,-0.35 -0.18,-0.73 -0.18,-1.15 v -0.12 c 0,-0.41 0.06,-0.79 0.18,-1.15 z m 0.9,2.07 c 0.07,0.26 0.17,0.48 0.31,0.67 0.13,0.19 0.3,0.35 0.51,0.46 0.21,0.11 0.44,0.17 0.71,0.17 0.27,0 0.5,-0.06 0.7,-0.17 0.2,-0.11 0.37,-0.27 0.51,-0.46 0.13,-0.19 0.23,-0.42 0.3,-0.67 0.07,-0.25 0.1,-0.52 0.1,-0.8 v -0.12 c 0,-0.28 -0.03,-0.54 -0.1,-0.8 -0.07,-0.25 -0.17,-0.48 -0.3,-0.67 -0.14,-0.19 -0.31,-0.35 -0.51,-0.46 -0.2,-0.11 -0.44,-0.17 -0.71,-0.17 -0.27,0 -0.51,0.06 -0.71,0.17 -0.2,0.11 -0.37,0.27 -0.5,0.46 -0.14,0.19 -0.24,0.42 -0.31,0.67 -0.07,0.26 -0.1,0.52 -0.1,0.8 v 0.12 c 0,0.28 0.03,0.55 0.1,0.8 z"
       id="path202" />
    <path
       d="m 288.3,22.06 c -0.14,0.3 -0.31,0.55 -0.53,0.76 -0.22,0.21 -0.48,0.38 -0.78,0.5 -0.3,0.12 -0.64,0.18 -1.01,0.18 -0.32,0 -0.6,-0.04 -0.86,-0.13 -0.26,-0.09 -0.49,-0.21 -0.69,-0.37 -0.2,-0.16 -0.38,-0.34 -0.53,-0.56 -0.15,-0.21 -0.27,-0.45 -0.36,-0.7 -0.1,-0.25 -0.17,-0.52 -0.22,-0.8 -0.05,-0.28 -0.07,-0.56 -0.08,-0.84 v -1.07 c 0,-0.29 0.03,-0.57 0.08,-0.84 0.05,-0.28 0.12,-0.54 0.22,-0.8 0.09,-0.25 0.22,-0.49 0.36,-0.7 0.15,-0.22 0.32,-0.4 0.53,-0.56 0.2,-0.16 0.43,-0.28 0.69,-0.37 0.26,-0.09 0.55,-0.13 0.87,-0.13 0.38,0 0.73,0.06 1.03,0.18 0.3,0.12 0.56,0.28 0.78,0.5 0.22,0.22 0.39,0.48 0.53,0.78 0.14,0.3 0.22,0.64 0.26,1 h -0.98 c -0.03,-0.23 -0.09,-0.45 -0.16,-0.65 -0.08,-0.2 -0.18,-0.38 -0.31,-0.53 -0.13,-0.15 -0.29,-0.27 -0.48,-0.36 -0.19,-0.09 -0.41,-0.13 -0.67,-0.13 -0.23,0 -0.44,0.04 -0.61,0.11 -0.18,0.08 -0.33,0.18 -0.46,0.31 -0.13,0.13 -0.24,0.28 -0.32,0.45 -0.09,0.17 -0.16,0.36 -0.21,0.55 -0.05,0.19 -0.09,0.39 -0.11,0.59 -0.02,0.2 -0.03,0.4 -0.03,0.59 v 1.08 c 0,0.19 0.01,0.39 0.03,0.59 0.02,0.2 0.06,0.4 0.11,0.59 0.05,0.2 0.12,0.38 0.21,0.55 0.09,0.17 0.19,0.32 0.32,0.45 0.13,0.13 0.28,0.24 0.46,0.31 0.18,0.08 0.38,0.11 0.62,0.11 0.26,0 0.48,-0.04 0.67,-0.12 0.19,-0.08 0.35,-0.2 0.48,-0.34 0.13,-0.14 0.23,-0.32 0.31,-0.51 0.08,-0.2 0.13,-0.41 0.16,-0.65 h 0.98 c -0.05,0.35 -0.14,0.68 -0.27,0.98 z"
       id="path204" />
    <path
       d="m 293.15,15.28 v 7.26 h 1.86 v 0.84 h -4.78 v -0.84 h 1.94 v -6.41 h -1.94 v -0.85 z"
       id="path206" />
    <path
       d="m 299.64,17.68 v 4.87 h 1.86 v 0.84 h -4.78 v -0.84 h 1.94 v -4.02 h -1.94 v -0.85 z m -1.06,-1.74 c 0.03,-0.07 0.07,-0.14 0.12,-0.19 0.05,-0.05 0.1,-0.08 0.18,-0.11 0.07,-0.03 0.15,-0.04 0.25,-0.04 0.1,0 0.17,0.01 0.24,0.04 0.07,0.03 0.13,0.06 0.17,0.11 0.06,0.05 0.1,0.11 0.13,0.18 0.03,0.07 0.04,0.15 0.04,0.24 0,0.16 -0.05,0.29 -0.15,0.4 -0.1,0.11 -0.24,0.16 -0.44,0.16 -0.2,0 -0.34,-0.05 -0.44,-0.16 -0.1,-0.11 -0.15,-0.24 -0.15,-0.4 0,-0.08 0.01,-0.16 0.04,-0.24 z"
       id="path208" />
    <path
       d="m 304.47,23.29 c -0.34,-0.14 -0.62,-0.33 -0.86,-0.58 -0.24,-0.25 -0.43,-0.54 -0.56,-0.88 -0.13,-0.34 -0.2,-0.71 -0.2,-1.1 v -0.22 c 0,-0.46 0.07,-0.87 0.22,-1.24 0.15,-0.36 0.34,-0.67 0.59,-0.93 0.24,-0.25 0.52,-0.44 0.83,-0.58 0.31,-0.13 0.63,-0.2 0.96,-0.2 0.41,0 0.77,0.07 1.08,0.21 0.31,0.14 0.56,0.34 0.77,0.59 0.2,0.25 0.36,0.55 0.46,0.89 0.1,0.34 0.15,0.71 0.15,1.11 v 0.44 h -4.08 v 0.04 c 0.02,0.28 0.08,0.52 0.17,0.73 0.09,0.21 0.21,0.4 0.36,0.56 0.15,0.17 0.34,0.31 0.56,0.41 0.22,0.1 0.46,0.15 0.72,0.15 0.35,0 0.66,-0.07 0.93,-0.21 0.27,-0.14 0.5,-0.33 0.68,-0.56 l 0.6,0.46 c -0.19,0.29 -0.47,0.54 -0.85,0.77 -0.38,0.22 -0.85,0.33 -1.4,0.33 -0.4,0 -0.77,-0.07 -1.11,-0.21 z m 0.42,-4.81 c -0.18,0.07 -0.33,0.18 -0.47,0.31 -0.14,0.14 -0.26,0.31 -0.36,0.51 -0.1,0.2 -0.16,0.44 -0.2,0.7 h 3.07 v -0.05 c 0,-0.18 -0.03,-0.37 -0.1,-0.57 -0.07,-0.2 -0.16,-0.38 -0.28,-0.53 -0.12,-0.15 -0.27,-0.27 -0.45,-0.36 -0.18,-0.09 -0.4,-0.14 -0.65,-0.14 -0.2,0 -0.38,0.04 -0.56,0.11 z"
       id="path210" />
    <path
       d="m 309.54,17.68 h 0.88 l 0.07,0.84 c 0.08,-0.12 0.18,-0.23 0.28,-0.33 0.1,-0.1 0.21,-0.19 0.32,-0.26 0.17,-0.11 0.35,-0.2 0.55,-0.26 0.2,-0.06 0.41,-0.09 0.63,-0.1 0.3,0 0.57,0.04 0.82,0.13 0.25,0.09 0.45,0.22 0.63,0.4 0.17,0.18 0.31,0.41 0.4,0.68 0.09,0.27 0.14,0.6 0.14,0.98 v 3.63 h -0.98 v -3.6 c 0,-0.25 -0.03,-0.47 -0.08,-0.64 -0.06,-0.18 -0.14,-0.32 -0.25,-0.43 -0.11,-0.11 -0.25,-0.19 -0.41,-0.24 -0.16,-0.05 -0.34,-0.07 -0.55,-0.07 -0.18,0 -0.35,0.03 -0.5,0.08 -0.15,0.05 -0.3,0.12 -0.43,0.21 -0.11,0.08 -0.2,0.17 -0.29,0.27 -0.09,0.1 -0.17,0.21 -0.23,0.34 v 4.1 h -0.98 V 17.7 Z"
       id="path212" />
    <path
       d="m 318.34,17.68 h 2.17 v 0.75 h -2.17 v 3.1 c 0,0.22 0.03,0.4 0.08,0.55 0.06,0.14 0.13,0.26 0.23,0.34 0.1,0.09 0.21,0.15 0.34,0.18 0.13,0.03 0.26,0.05 0.41,0.05 0.11,0 0.21,0 0.33,-0.02 0.11,-0.01 0.22,-0.03 0.33,-0.04 0.11,-0.02 0.21,-0.04 0.3,-0.06 0.09,-0.02 0.17,-0.04 0.23,-0.05 l 0.14,0.69 c -0.08,0.05 -0.18,0.09 -0.3,0.13 -0.12,0.04 -0.24,0.07 -0.38,0.09 -0.14,0.03 -0.28,0.05 -0.44,0.06 -0.15,0.01 -0.31,0.02 -0.46,0.02 -0.25,0 -0.49,-0.04 -0.71,-0.11 -0.22,-0.07 -0.41,-0.19 -0.57,-0.35 -0.16,-0.15 -0.29,-0.36 -0.38,-0.6 -0.09,-0.24 -0.14,-0.55 -0.14,-0.9 v -3.1 h -1.5 v -0.75 h 1.5 v -1.38 h 0.98 v 1.38 z"
       id="path214" />
    <path
       d="m 324.4,22.22 c 0.13,-0.15 0.32,-0.22 0.58,-0.22 0.26,0 0.45,0.07 0.58,0.22 0.13,0.15 0.2,0.32 0.2,0.54 0,0.22 -0.07,0.38 -0.2,0.52 -0.13,0.14 -0.33,0.21 -0.58,0.21 -0.25,0 -0.44,-0.07 -0.57,-0.21 -0.13,-0.14 -0.19,-0.32 -0.19,-0.52 0,-0.2 0.06,-0.39 0.19,-0.53 z"
       id="path216" />
    <path
       d="m 329,17.68 h 0.89 l 0.05,0.62 c 0.08,-0.1 0.16,-0.19 0.25,-0.27 0.09,-0.08 0.19,-0.15 0.3,-0.2 0.15,-0.08 0.31,-0.15 0.49,-0.19 0.18,-0.04 0.38,-0.07 0.58,-0.07 0.37,0 0.69,0.07 0.97,0.22 0.28,0.14 0.52,0.35 0.71,0.6 0.19,0.25 0.33,0.56 0.43,0.92 0.1,0.36 0.15,0.75 0.15,1.17 v 0.11 c 0,0.41 -0.05,0.79 -0.15,1.14 -0.1,0.35 -0.24,0.66 -0.43,0.92 -0.19,0.26 -0.42,0.46 -0.7,0.61 -0.28,0.15 -0.6,0.22 -0.96,0.22 -0.22,0 -0.42,-0.02 -0.61,-0.07 -0.19,-0.05 -0.36,-0.11 -0.51,-0.2 -0.09,-0.05 -0.18,-0.11 -0.26,-0.18 -0.08,-0.07 -0.16,-0.14 -0.23,-0.21 v 2.74 h -0.98 v -7.91 z m 3.76,2.01 c -0.06,-0.25 -0.16,-0.47 -0.28,-0.67 -0.13,-0.19 -0.29,-0.34 -0.49,-0.45 -0.2,-0.11 -0.43,-0.17 -0.71,-0.17 -0.15,0 -0.29,0.02 -0.42,0.05 -0.13,0.03 -0.24,0.09 -0.35,0.15 -0.11,0.07 -0.21,0.15 -0.3,0.25 -0.09,0.1 -0.17,0.21 -0.23,0.33 v 2.75 c 0.06,0.11 0.13,0.2 0.21,0.3 0.08,0.09 0.17,0.17 0.26,0.23 0.11,0.07 0.24,0.13 0.38,0.17 0.14,0.04 0.29,0.06 0.46,0.06 0.27,0 0.5,-0.06 0.7,-0.17 0.2,-0.11 0.36,-0.27 0.49,-0.46 0.13,-0.19 0.22,-0.42 0.28,-0.67 0.06,-0.25 0.09,-0.52 0.09,-0.8 v -0.11 c 0,-0.28 -0.03,-0.54 -0.09,-0.79 z"
       id="path218" />
    <path
       d="m 339.19,22.6 c -0.19,0.28 -0.43,0.5 -0.71,0.66 -0.29,0.16 -0.61,0.23 -0.99,0.23 -0.3,0 -0.57,-0.05 -0.81,-0.14 -0.24,-0.09 -0.45,-0.24 -0.62,-0.44 -0.17,-0.2 -0.31,-0.45 -0.4,-0.75 -0.09,-0.3 -0.14,-0.67 -0.14,-1.1 v -3.39 h 0.98 v 3.4 c 0,0.31 0.02,0.57 0.07,0.77 0.05,0.2 0.12,0.37 0.22,0.49 0.1,0.12 0.22,0.21 0.36,0.26 0.14,0.05 0.31,0.07 0.49,0.07 0.22,0 0.41,-0.03 0.59,-0.08 0.17,-0.05 0.32,-0.12 0.45,-0.21 0.11,-0.07 0.2,-0.16 0.28,-0.27 0.08,-0.1 0.15,-0.22 0.2,-0.34 v -4.1 h 0.98 v 5.71 h -0.89 l -0.06,-0.79 z"
       id="path220" />
    <path
       d="m 344.29,17.68 h 2.17 v 0.75 h -2.17 v 3.1 c 0,0.22 0.03,0.4 0.08,0.55 0.06,0.14 0.13,0.26 0.23,0.34 0.1,0.09 0.21,0.15 0.34,0.18 0.13,0.03 0.26,0.05 0.41,0.05 0.11,0 0.21,0 0.33,-0.02 0.11,-0.01 0.22,-0.03 0.33,-0.04 0.11,-0.02 0.21,-0.04 0.3,-0.06 0.09,-0.02 0.17,-0.04 0.23,-0.05 l 0.14,0.69 c -0.08,0.05 -0.18,0.09 -0.3,0.13 -0.12,0.04 -0.24,0.07 -0.38,0.09 -0.14,0.03 -0.28,0.05 -0.44,0.06 -0.15,0.01 -0.31,0.02 -0.46,0.02 -0.25,0 -0.49,-0.04 -0.71,-0.11 -0.22,-0.07 -0.41,-0.19 -0.57,-0.35 -0.16,-0.15 -0.29,-0.36 -0.38,-0.6 -0.09,-0.24 -0.14,-0.55 -0.14,-0.9 v -3.1 h -1.5 v -0.75 h 1.5 v -1.38 h 0.98 v 1.38 z"
       id="path222" />
    <path
       d="m 353.39,20.82 c -0.04,0.28 -0.11,0.55 -0.2,0.81 -0.09,0.26 -0.21,0.5 -0.35,0.73 -0.14,0.23 -0.31,0.42 -0.51,0.59 -0.2,0.17 -0.42,0.3 -0.68,0.4 -0.25,0.1 -0.54,0.15 -0.86,0.15 -0.32,0 -0.6,-0.05 -0.86,-0.15 -0.25,-0.1 -0.48,-0.23 -0.68,-0.4 -0.2,-0.17 -0.37,-0.37 -0.51,-0.59 -0.14,-0.23 -0.26,-0.47 -0.35,-0.73 -0.09,-0.26 -0.17,-0.53 -0.21,-0.81 -0.04,-0.28 -0.07,-0.55 -0.07,-0.83 v -0.88 c 0,-0.27 0.03,-0.55 0.07,-0.83 0.04,-0.28 0.11,-0.55 0.21,-0.81 0.09,-0.26 0.21,-0.5 0.35,-0.73 0.14,-0.23 0.31,-0.43 0.51,-0.6 0.2,-0.17 0.42,-0.3 0.68,-0.4 0.25,-0.1 0.54,-0.15 0.86,-0.15 0.32,0 0.6,0.05 0.86,0.15 0.26,0.1 0.48,0.23 0.68,0.4 0.2,0.17 0.37,0.37 0.51,0.59 0.14,0.23 0.26,0.47 0.36,0.73 0.09,0.26 0.16,0.53 0.2,0.81 0.04,0.28 0.07,0.56 0.07,0.83 v 0.88 c 0,0.27 -0.03,0.55 -0.07,0.83 z m -0.93,-2.29 c -0.02,-0.2 -0.06,-0.4 -0.11,-0.59 -0.05,-0.19 -0.12,-0.38 -0.21,-0.56 -0.09,-0.18 -0.19,-0.34 -0.32,-0.47 -0.13,-0.13 -0.28,-0.24 -0.45,-0.32 -0.17,-0.08 -0.37,-0.12 -0.6,-0.12 -0.23,0 -0.42,0.04 -0.6,0.12 -0.17,0.08 -0.32,0.19 -0.45,0.32 -0.13,0.14 -0.23,0.29 -0.32,0.47 -0.08,0.18 -0.15,0.36 -0.2,0.56 -0.05,0.2 -0.09,0.4 -0.11,0.59 -0.02,0.19 -0.04,0.39 -0.04,0.57 v 0.89 c 0,0.18 0.02,0.37 0.04,0.57 0.02,0.2 0.06,0.4 0.11,0.59 0.05,0.2 0.12,0.39 0.21,0.56 0.08,0.18 0.19,0.34 0.32,0.47 0.13,0.14 0.28,0.25 0.45,0.33 0.17,0.08 0.37,0.12 0.6,0.12 0.23,0 0.43,-0.04 0.6,-0.12 0.17,-0.08 0.32,-0.19 0.45,-0.33 0.12,-0.13 0.23,-0.29 0.31,-0.47 0.08,-0.18 0.15,-0.37 0.2,-0.56 0.05,-0.19 0.08,-0.39 0.1,-0.59 0.02,-0.2 0.03,-0.39 0.03,-0.58 v -0.89 c 0,-0.18 -0.02,-0.37 -0.04,-0.57 z"
       id="path224" />
    <path
       d="m 359.73,21.32 c -0.04,0.23 -0.09,0.45 -0.16,0.65 -0.1,0.26 -0.22,0.5 -0.37,0.71 -0.15,0.21 -0.34,0.38 -0.55,0.52 -0.15,0.1 -0.32,0.17 -0.51,0.22 -0.19,0.05 -0.38,0.08 -0.6,0.08 -0.25,0 -0.47,-0.03 -0.67,-0.09 -0.2,-0.06 -0.38,-0.15 -0.55,-0.26 -0.08,-0.06 -0.15,-0.12 -0.22,-0.19 -0.07,-0.07 -0.14,-0.14 -0.2,-0.22 l -0.05,0.65 h -0.9 v -8.11 h 0.98 v 3.01 c 0.08,-0.1 0.17,-0.19 0.27,-0.28 0.1,-0.08 0.2,-0.15 0.32,-0.21 0.14,-0.07 0.3,-0.13 0.46,-0.17 0.16,-0.04 0.35,-0.06 0.55,-0.06 0.25,0 0.47,0.03 0.68,0.1 0.21,0.07 0.4,0.16 0.56,0.28 0.15,0.11 0.29,0.25 0.41,0.41 0.12,0.16 0.23,0.34 0.32,0.54 0.1,0.22 0.17,0.47 0.22,0.74 0.05,0.27 0.07,0.55 0.07,0.85 v 0.11 c 0,0.25 -0.02,0.49 -0.06,0.72 z m -0.96,-1.36 c -0.02,-0.17 -0.06,-0.33 -0.1,-0.48 -0.06,-0.19 -0.15,-0.36 -0.25,-0.51 -0.1,-0.15 -0.23,-0.28 -0.37,-0.36 -0.1,-0.06 -0.22,-0.11 -0.34,-0.15 -0.12,-0.04 -0.27,-0.05 -0.42,-0.05 -0.17,0 -0.32,0.02 -0.46,0.07 -0.14,0.04 -0.27,0.1 -0.37,0.18 -0.11,0.08 -0.21,0.18 -0.3,0.28 -0.09,0.11 -0.16,0.22 -0.22,0.35 v 2.5 c 0.06,0.13 0.14,0.24 0.22,0.35 0.09,0.11 0.19,0.2 0.3,0.28 0.11,0.08 0.24,0.14 0.38,0.19 0.14,0.04 0.3,0.07 0.46,0.07 0.16,0 0.31,-0.02 0.44,-0.06 0.13,-0.04 0.25,-0.1 0.36,-0.18 0.14,-0.1 0.26,-0.22 0.35,-0.38 0.1,-0.15 0.17,-0.32 0.23,-0.51 0.05,-0.14 0.08,-0.29 0.1,-0.45 0.02,-0.16 0.03,-0.33 0.03,-0.5 v -0.11 c 0,-0.18 -0.01,-0.35 -0.03,-0.53 z"
       id="path226" />
    <path
       d="m 364.98,17.68 v 5.75 c 0,0.37 -0.05,0.69 -0.15,0.97 -0.1,0.28 -0.25,0.52 -0.44,0.71 -0.19,0.19 -0.43,0.34 -0.7,0.44 -0.28,0.1 -0.59,0.15 -0.94,0.15 -0.11,0 -0.21,0 -0.32,0 -0.11,0 -0.2,0 -0.3,-0.02 -0.08,0 -0.16,-0.02 -0.24,-0.03 -0.08,-0.01 -0.17,-0.03 -0.25,-0.04 l 0.07,-0.8 c 0.06,0.01 0.14,0.02 0.23,0.03 0.09,0.01 0.18,0.02 0.28,0.02 0.09,0 0.18,0.01 0.27,0.01 0.09,0 0.15,0 0.2,0 0.18,0 0.36,-0.02 0.52,-0.07 0.16,-0.05 0.3,-0.13 0.42,-0.24 0.12,-0.11 0.21,-0.26 0.28,-0.45 0.07,-0.18 0.1,-0.41 0.1,-0.68 v -4.9 h -1.91 v -0.85 z m -0.97,-1.91 c 0.09,-0.11 0.24,-0.17 0.44,-0.17 0.2,0 0.34,0.06 0.44,0.17 0.1,0.11 0.15,0.25 0.15,0.4 0,0.15 -0.05,0.29 -0.15,0.4 -0.1,0.11 -0.25,0.16 -0.44,0.16 -0.19,0 -0.34,-0.05 -0.44,-0.16 -0.1,-0.11 -0.14,-0.24 -0.14,-0.4 0,-0.16 0.05,-0.29 0.14,-0.4 z"
       id="path228" />
    <path
       d="m 369.34,23.29 c -0.34,-0.14 -0.62,-0.33 -0.86,-0.58 -0.24,-0.25 -0.43,-0.54 -0.56,-0.88 -0.13,-0.34 -0.2,-0.71 -0.2,-1.1 v -0.22 c 0,-0.46 0.07,-0.87 0.22,-1.24 0.15,-0.36 0.34,-0.67 0.59,-0.93 0.24,-0.25 0.52,-0.44 0.83,-0.58 0.31,-0.13 0.63,-0.2 0.96,-0.2 0.41,0 0.77,0.07 1.08,0.21 0.31,0.14 0.56,0.34 0.77,0.59 0.2,0.25 0.36,0.55 0.46,0.89 0.1,0.34 0.15,0.71 0.15,1.11 v 0.44 h -4.08 v 0.04 c 0.02,0.28 0.08,0.52 0.17,0.73 0.09,0.21 0.21,0.4 0.36,0.56 0.15,0.17 0.34,0.31 0.56,0.41 0.22,0.1 0.46,0.15 0.72,0.15 0.35,0 0.66,-0.07 0.93,-0.21 0.27,-0.14 0.5,-0.33 0.68,-0.56 l 0.6,0.46 c -0.19,0.29 -0.47,0.54 -0.85,0.77 -0.38,0.22 -0.85,0.33 -1.4,0.33 -0.4,0 -0.77,-0.07 -1.11,-0.21 z m 0.42,-4.81 c -0.18,0.07 -0.33,0.18 -0.47,0.31 -0.14,0.14 -0.26,0.31 -0.36,0.51 -0.1,0.2 -0.16,0.44 -0.2,0.7 h 3.07 v -0.05 c 0,-0.18 -0.03,-0.37 -0.1,-0.57 -0.07,-0.2 -0.16,-0.38 -0.28,-0.53 -0.12,-0.15 -0.27,-0.27 -0.45,-0.36 -0.18,-0.09 -0.4,-0.14 -0.65,-0.14 -0.2,0 -0.38,0.04 -0.56,0.11 z"
       id="path230" />
    <path
       d="m 377.35,22.62 c 0.17,-0.06 0.32,-0.14 0.45,-0.24 0.13,-0.1 0.23,-0.22 0.31,-0.35 0.08,-0.14 0.12,-0.28 0.12,-0.44 h 0.92 c 0,0.25 -0.07,0.5 -0.2,0.73 -0.13,0.23 -0.3,0.43 -0.51,0.6 -0.21,0.18 -0.46,0.32 -0.74,0.42 -0.28,0.1 -0.57,0.16 -0.87,0.16 -0.43,0 -0.81,-0.08 -1.13,-0.23 -0.32,-0.15 -0.59,-0.36 -0.81,-0.63 -0.22,-0.26 -0.38,-0.56 -0.49,-0.91 -0.11,-0.34 -0.16,-0.7 -0.16,-1.08 v -0.22 c 0,-0.38 0.05,-0.74 0.16,-1.08 0.11,-0.34 0.27,-0.65 0.49,-0.91 0.21,-0.26 0.48,-0.47 0.81,-0.62 0.33,-0.15 0.7,-0.23 1.13,-0.23 0.34,0 0.65,0.05 0.93,0.16 0.28,0.11 0.53,0.25 0.74,0.44 0.2,0.19 0.36,0.41 0.48,0.66 0.12,0.25 0.17,0.52 0.17,0.81 h -0.92 c 0,-0.17 -0.04,-0.33 -0.11,-0.49 -0.07,-0.15 -0.17,-0.29 -0.29,-0.4 -0.12,-0.12 -0.27,-0.21 -0.44,-0.27 -0.17,-0.07 -0.35,-0.1 -0.55,-0.1 -0.3,0 -0.56,0.06 -0.76,0.18 -0.21,0.12 -0.37,0.28 -0.5,0.47 -0.13,0.2 -0.22,0.42 -0.27,0.66 -0.05,0.24 -0.08,0.49 -0.08,0.73 v 0.22 c 0,0.25 0.03,0.5 0.08,0.74 0.05,0.24 0.15,0.46 0.27,0.66 0.12,0.2 0.29,0.36 0.49,0.48 0.21,0.12 0.46,0.18 0.77,0.18 0.18,0 0.35,-0.03 0.51,-0.08 z"
       id="path232" />
    <path
       d="m 383.21,17.68 h 2.17 v 0.75 h -2.17 v 3.1 c 0,0.22 0.03,0.4 0.08,0.55 0.06,0.14 0.13,0.26 0.23,0.34 0.1,0.09 0.21,0.15 0.34,0.18 0.13,0.03 0.26,0.05 0.41,0.05 0.11,0 0.21,0 0.33,-0.02 0.11,-0.01 0.22,-0.03 0.33,-0.04 0.11,-0.02 0.21,-0.04 0.3,-0.06 0.09,-0.02 0.17,-0.04 0.23,-0.05 l 0.14,0.69 c -0.08,0.05 -0.18,0.09 -0.3,0.13 -0.12,0.04 -0.24,0.07 -0.38,0.09 -0.14,0.03 -0.28,0.05 -0.44,0.06 -0.15,0.01 -0.31,0.02 -0.46,0.02 -0.25,0 -0.49,-0.04 -0.71,-0.11 -0.22,-0.07 -0.41,-0.19 -0.57,-0.35 -0.16,-0.15 -0.29,-0.36 -0.38,-0.6 -0.09,-0.24 -0.14,-0.55 -0.14,-0.9 v -3.1 h -1.5 v -0.75 h 1.5 v -1.38 h 0.98 v 1.38 z"
       id="path234" />
    <path
       d="m 388.46,18.85 c 0.08,-0.44 0.19,-0.85 0.32,-1.23 0.13,-0.38 0.29,-0.72 0.46,-1.03 0.17,-0.31 0.36,-0.59 0.55,-0.83 0.19,-0.24 0.38,-0.45 0.58,-0.62 0.19,-0.17 0.38,-0.31 0.55,-0.41 l 0.21,0.64 c -0.11,0.08 -0.23,0.19 -0.34,0.31 -0.11,0.12 -0.23,0.25 -0.33,0.4 -0.16,0.23 -0.32,0.5 -0.46,0.8 -0.15,0.31 -0.27,0.65 -0.37,1.01 -0.1,0.33 -0.17,0.69 -0.22,1.09 -0.05,0.4 -0.08,0.83 -0.08,1.28 v 0.07 c 0,0.44 0.02,0.85 0.07,1.24 0.05,0.38 0.12,0.74 0.2,1.06 0.09,0.33 0.2,0.63 0.32,0.91 0.12,0.28 0.24,0.53 0.38,0.75 0.13,0.21 0.27,0.4 0.41,0.56 0.14,0.16 0.29,0.3 0.43,0.42 l -0.21,0.6 c -0.18,-0.1 -0.36,-0.23 -0.56,-0.4 -0.2,-0.17 -0.39,-0.38 -0.58,-0.62 -0.19,-0.24 -0.38,-0.52 -0.55,-0.83 -0.17,-0.31 -0.33,-0.66 -0.46,-1.04 -0.13,-0.38 -0.24,-0.79 -0.32,-1.23 -0.08,-0.44 -0.12,-0.92 -0.12,-1.42 v -0.05 c 0,-0.5 0.04,-0.98 0.12,-1.42 z"
       id="path236" />
    <path
       d="m 397.31,21.74 c -0.08,0.44 -0.19,0.85 -0.32,1.23 -0.13,0.38 -0.29,0.73 -0.46,1.04 -0.17,0.31 -0.36,0.59 -0.55,0.83 -0.19,0.25 -0.39,0.45 -0.58,0.62 -0.2,0.17 -0.38,0.31 -0.56,0.4 l -0.21,-0.6 c 0.15,-0.11 0.3,-0.25 0.45,-0.42 0.15,-0.17 0.3,-0.37 0.43,-0.6 0.13,-0.23 0.26,-0.49 0.38,-0.77 0.12,-0.28 0.22,-0.6 0.3,-0.94 0.08,-0.32 0.14,-0.66 0.19,-1.03 0.05,-0.37 0.07,-0.76 0.07,-1.18 v -0.07 c 0,-0.48 -0.03,-0.91 -0.09,-1.29 -0.06,-0.38 -0.12,-0.72 -0.19,-0.99 -0.1,-0.39 -0.23,-0.73 -0.37,-1.04 -0.14,-0.31 -0.29,-0.58 -0.44,-0.81 -0.12,-0.18 -0.24,-0.34 -0.36,-0.47 -0.12,-0.14 -0.24,-0.25 -0.36,-0.35 l 0.21,-0.6 c 0.18,0.1 0.36,0.23 0.56,0.41 0.2,0.17 0.39,0.38 0.58,0.62 0.2,0.25 0.38,0.53 0.55,0.83 0.17,0.3 0.32,0.65 0.45,1.03 0.13,0.37 0.23,0.77 0.31,1.2 0.08,0.43 0.12,0.92 0.12,1.45 v 0.05 c 0,0.5 -0.04,0.98 -0.12,1.42 z"
       id="path238" />
  </g>
  <rect
     class="j"
     x="228.67"
     y="3.5699999"
     width="185.86"
     height="39.330002"
     id="rect242" />
  <polyline
     class="g"
     points="185.09 181.96 322.73 181.96 543.59 181.96"
     id="polyline244"
     transform="translate(0,4)" />
  <polyline
     class="g"
     points="543.47 141.21 543.47 184.49 543.47 225.71"
     id="polyline246"
     transform="translate(0,4)" />
  <polyline
     class="s"
     points="543.24 141.21 541.06 141.21 543.59 136.83 546.12 141.21 544.23 141.21"
     id="polyline248"
     transform="translate(0,4)" />
  <polyline
     class="s"
     points="543.81 225.71 546 225.71 543.47 230.09 540.94 225.71 542.82 225.71"
     id="polyline250"
     transform="translate(0,4)" />
  <g
     id="g258"
     transform="translate(0,4)">
    <rect
       class="k"
       x="16.33"
       y="133.21001"
       width="61.990002"
       height="16.52"
       id="rect252" />
    <text
       class="w"
       transform="translate(23.44,144.21)"
       id="text256"><tspan
         x="0"
         y="0"
         id="tspan254">200OK 10ms</tspan></text>
  </g>
  <g
     id="g266"
     transform="translate(0,4)">
    <rect
       class="k"
       x="457.88"
       y="142.85001"
       width="61.990002"
       height="16.52"
       id="rect260" />
    <text
       class="w"
       transform="translate(462.59,153.84)"
       id="text264"><tspan
         x="0"
         y="0"
         id="tspan262">200OK 100ms</tspan></text>
  </g>
  <g
     id="g274"
     transform="translate(0,4)">
    <rect
       class="k"
       x="457.88"
       y="289.29001"
       width="61.990002"
       height="16.52"
       id="rect268" />
    <text
       class="w"
       transform="translate(462.59,300.28)"
       id="text272"><tspan
         x="0"
         y="0"
         id="tspan270">200OK 100ms</tspan></text>
  </g>
</svg>
