<?xml version="1.0" encoding="UTF-8" standalone="no"?>
<svg
   id="a"
   viewBox="0 0 645.33 370.33"
   version="1.1"
   sodipodi:docname="architecture-multiple-clients.svg"
   inkscape:version="1.2.2 (b0a8486541, 2022-12-01)"
   xmlns:inkscape="http://www.inkscape.org/namespaces/inkscape"
   xmlns:sodipodi="http://sodipodi.sourceforge.net/DTD/sodipodi-0.dtd"
   xmlns="http://www.w3.org/2000/svg"
   xmlns:svg="http://www.w3.org/2000/svg">
  <sodipodi:namedview
     id="namedview7927"
     pagecolor="#505050"
     bordercolor="#eeeeee"
     borderopacity="1"
     inkscape:showpageshadow="0"
     inkscape:pageopacity="0"
     inkscape:pagecheckerboard="0"
     inkscape:deskcolor="#505050"
     showgrid="false"
     inkscape:zoom="2.2533701"
     inkscape:cx="385.86648"
     inkscape:cy="269.59619"
     inkscape:window-width="3840"
     inkscape:window-height="2123"
     inkscape:window-x="3840"
     inkscape:window-y="0"
     inkscape:window-maximized="1"
     inkscape:current-layer="a" />
  <defs
     id="defs7742">
    <style
       id="style7740">.b{font-family:RobotoMono-Regular, 'Roboto Mono';font-size:11.39px;font-variation-settings:'wght' 400;}.c{letter-spacing:-.04em;}.d{letter-spacing:0em;}.e{fill:#ededed;}.f,.g{fill:#fff;}.h{fill:#cf2144;}.i{fill:#1b1717;}.j{fill:#0c1835;}.k{letter-spacing:-.02em;}.l{stroke-width:1.28px;}.l,.m{stroke:#cf2144;}.l,.m,.n{fill:none;stroke-miterlimit:10;}.o{letter-spacing:.02em;}.m{stroke-width:1.36px;}.n{stroke:#1b1717;}.p{letter-spacing:-.03em;}.q{font-size:10px;}.q,.g{font-family:Inter-Bold, Inter;font-variation-settings:'wght' 700, 'slnt' 0;font-weight:700;}.r{letter-spacing:.01em;}.g{font-size:14px;}.s{letter-spacing:-.02em;}</style>
  </defs>
  <path
     id="polyline7744"
     class="i"
     style="fill:#1b1717"
     d="m 219.3,41.12 v 2.19 l -4.38,-2.53 4.38,-2.53 v 1.88" />
  <path
     id="line7746"
     class="n"
     style="fill:none;stroke:#1b1717;stroke-miterlimit:10"
     d="M 355.07001,40.779999 H 219.3" />
  <path
     id="polyline7748"
     class="i"
     style="fill:#1b1717"
     d="m 452.6,40.43 v -2.18 l 4.38,2.53 -4.38,2.53 v -1.89" />
  <path
     id="line7750"
     class="n"
     style="fill:none;stroke:#1b1717;stroke-miterlimit:10"
     d="M 316.84,40.779999 H 452.60001" />
  <path
     id="polyline7752"
     class="i"
     style="fill:#1b1717"
     d="m 219.3,113.63 v 2.19 l -4.38,-2.53 4.38,-2.53 v 1.88" />
  <path
     id="line7754"
     class="n"
     style="fill:none;stroke:#1b1717;stroke-miterlimit:10"
     d="M 355.07001,113.29 H 219.3" />
  <path
     id="polyline7756"
     class="i"
     style="fill:#1b1717"
     d="m 452.6,112.94 v -2.18 l 4.38,2.53 -4.38,2.53 v -1.89" />
  <path
     id="line7758"
     class="n"
     style="fill:none;stroke:#1b1717;stroke-miterlimit:10"
     d="M 316.84,113.29 H 452.60001" />
  <path
     id="polyline7760"
     class="i"
     style="fill:#1b1717"
     d="m 219.3,186.15 v 2.18 l -4.38,-2.53 4.38,-2.53 v 1.89" />
  <path
     id="line7762"
     class="n"
     style="fill:none;stroke:#1b1717;stroke-miterlimit:10"
     d="M 355.07001,185.8 H 219.3" />
  <path
     id="polyline7764"
     class="i"
     style="fill:#1b1717"
     d="m 452.6,185.45 v -2.18 l 4.38,2.53 -4.38,2.53 v -1.89" />
  <path
     id="line7766"
     class="n"
     style="fill:none;stroke:#1b1717;stroke-miterlimit:10"
     d="M 316.84,185.8 H 452.60001" />
  <path
     id="polyline7768"
     class="i"
     style="fill:#1b1717"
     d="m 219.3,258.66 v 2.18 l -4.38,-2.53 4.38,-2.53 v 1.89" />
  <path
     id="line7770"
     class="n"
     style="fill:none;stroke:#1b1717;stroke-miterlimit:10"
     d="M 355.07001,258.31 H 219.3" />
  <path
     id="polyline7772"
     class="i"
     style="fill:#1b1717"
     d="m 452.6,257.96 v -2.18 l 4.38,2.53 -4.38,2.53 v -1.89" />
  <path
     id="line7774"
     class="n"
     style="fill:none;stroke:#1b1717;stroke-miterlimit:10"
     d="M 316.84,258.31 H 452.60001" />
  <path
     id="polyline7776"
     class="i"
     style="fill:#1b1717"
     d="m 219.3,331.17 v 2.18 l -4.38,-2.53 4.38,-2.53 v 1.89" />
  <path
     id="line7778"
     class="n"
     style="fill:none;stroke:#1b1717;stroke-miterlimit:10"
     d="M 355.07001,330.82001 H 219.3" />
  <path
     id="polyline7780"
     class="i"
     style="fill:#1b1717"
     d="m 452.6,330.48 v -2.19 l 4.38,2.53 -4.38,2.53 v -1.88" />
  <path
     id="line7782"
     class="n"
     style="fill:none;stroke:#1b1717;stroke-miterlimit:10"
     d="M 316.84,330.82001 H 452.60001" />
  <g
     id="g7790">
    <path
       id="rect7784"
       class="e"
       style="fill:#ededed"
       d="m 17.99,40.779999 h 194.94 v 27.52 H 17.99 Z" />
    <path
       id="rect7786"
       class="l"
       style="fill:none;stroke:#cf2144;stroke-width:1.28px;stroke-miterlimit:10"
       d="M 17.99,13.8 H 212.93 V 68.3 H 17.99 Z" />
    <path
       id="line7788"
       class="m"
       style="fill:none;stroke:#cf2144;stroke-width:1.36px;stroke-miterlimit:10"
       d="M 18.49,40.779999 H 212.42" />
  </g>
  <g
     id="g7798">
    <path
       id="rect7792"
       class="e"
       style="fill:#ededed"
       d="m 17.99,113.02 h 194.94 v 27.52 H 17.99 Z" />
    <path
       id="rect7794"
       class="l"
       style="fill:none;stroke:#cf2144;stroke-width:1.28px;stroke-miterlimit:10"
       d="M 17.99,86.040001 H 212.93 V 140.54 H 17.99 Z" />
    <path
       id="line7796"
       class="m"
       style="fill:none;stroke:#cf2144;stroke-width:1.36px;stroke-miterlimit:10"
       d="M 18.49,113.02 H 212.42" />
  </g>
  <g
     id="g7806">
    <path
       id="rect7800"
       class="e"
       style="fill:#ededed"
       d="m 17.99,185.25999 h 194.94 v 27.52 H 17.99 Z" />
    <path
       id="rect7802"
       class="l"
       style="fill:none;stroke:#cf2144;stroke-width:1.28px;stroke-miterlimit:10"
       d="m 17.99,158.28 h 194.94 v 54.5 H 17.99 Z" />
    <path
       id="line7804"
       class="m"
       style="fill:none;stroke:#cf2144;stroke-width:1.36px;stroke-miterlimit:10"
       d="M 18.49,185.25999 H 212.42" />
  </g>
  <g
     id="g7814">
    <path
       id="rect7808"
       class="e"
       style="fill:#ededed"
       d="m 17.99,257.5 h 194.94 v 27.52 H 17.99 Z" />
    <path
       id="rect7810"
       class="l"
       style="fill:none;stroke:#cf2144;stroke-width:1.28px;stroke-miterlimit:10"
       d="m 17.99,230.53 h 194.94 v 54.5 H 17.99 Z" />
    <path
       id="line7812"
       class="m"
       style="fill:none;stroke:#cf2144;stroke-width:1.36px;stroke-miterlimit:10"
       d="M 18.49,257.5 H 212.42" />
  </g>
  <g
     id="g7822">
    <path
       id="rect7816"
       class="e"
       style="fill:#ededed"
       d="m 17.99,329.75 h 194.94 v 27.52 H 17.99 Z" />
    <path
       id="rect7818"
       class="l"
       style="fill:none;stroke:#cf2144;stroke-width:1.28px;stroke-miterlimit:10"
       d="m 17.99,302.76999 h 194.94 v 54.5 H 17.99 Z" />
    <path
       id="line7820"
       class="m"
       style="fill:none;stroke:#cf2144;stroke-width:1.36px;stroke-miterlimit:10"
       d="M 18.49,329.75 H 212.42" />
  </g>
  <g
     id="g7830">
    <path
       d="M60.47,29.22l3.42-1.29,.32-.09-.32-.1-3.42-1.27v-1.01l4.66,2v.77l-4.66,2v-1.01Z"
       id="path7824" />
    <g
       aria-label=" GO_CLIENT .APP"
       transform="translate(67.9 31.56)"
       id="text7828"
       class="b"
       style="font-size:11.39px;font-family:RobotoMono-Regular, 'Roboto Mono';font-variation-settings:'wght' 400">
      <path
         d="m 7.5971328,-4.2940301 h 2.8133302 v 3.98650009 Q 9.7498429,-0.09112 9.0778328,0.01139 q -0.67201,0.10251 -1.52626,0.10251 -1.26429,0 -2.1299301,-0.50116001 -0.86564,-0.51255002 -1.32124,-1.44653009 -0.44421,-0.94537 -0.44421,-2.23244 0,-1.2756801 0.50116,-2.2096601 0.50116,-0.93398 1.43514,-1.44653 0.9453701,-0.52394 2.2780001,-0.52394 0.6834,0 1.28707,0.12529 0.6150601,0.12529 1.1390002,0.35309 l -0.3872601,0.88842 q -0.43282,-0.19363 -0.9795401,-0.33031 -0.53533,-0.13668 -1.11622,-0.13668 -1.45792,0 -2.2780001,0.87703 -0.80869,0.87703 -0.80869,2.4032901 0,0.96815 0.30753,1.71989 0.31892,0.7403501 0.99093,1.1617801 0.6720101,0.41003998 1.7654501,0.41003998 0.53533,0 0.9112,-0.05695 0.37587,-0.05695 0.6834,-0.13668 V -3.3828301 h -1.78823 z"
         id="path16563" />
      <path
         d="m 19.45413,-4.0776201 q 0,1.26429 -0.43282,2.20966 -0.42143,0.93398007 -1.2529,1.45792009 Q 16.93694,0.1139 15.70682,0.1139 q -1.26429,0 -2.10715,-0.52394001 -0.83147,-0.52394002 -1.24151,-1.46931009 -0.41004,-0.94537 -0.41004,-2.20966 0,-1.2529001 0.41004,-2.1868801 0.41004,-0.93398 1.24151,-1.45792 0.84286,-0.52394 2.11854,-0.52394 1.21873,0 2.0502,0.52394 0.83147,0.51255 1.2529,1.45792 0.43282,0.93398 0.43282,2.1982701 z m -6.42396,0 q 0,1.53765 0.64923,2.4260701 0.64923,0.87702998 2.02742,0.87702998 1.38958,0 2.02742,-0.87702998 0.63784,-0.8884201 0.63784,-2.4260701 0,-1.5376501 -0.63784,-2.4032901 -0.63784,-0.87703 -2.01603,-0.87703 -1.37819,0 -2.03881,0.87703 -0.64923,0.86564 -0.64923,2.4032901 z"
         id="path16565" />
      <path
         d="m 25.228862,1.7540601 h -5.10272 V 1.0251 h 5.10272 z"
         id="path16567" />
      <path
         d="m 29.796255,-7.3465502 q -1.30985,0 -2.06159,0.87703 -0.75174,0.87703 -0.75174,2.4032901 0,1.51487 0.69479,2.40329 0.70618,0.87703008 2.10715,0.87703008 0.53533,0 1.01371,-0.09112 0.47838,-0.09112 0.93398,-0.22779997 v 0.88841999 q -0.4556,0.17085001 -0.94537,0.25058001 -0.47838,0.07973 -1.15039,0.07973 -1.24151,0 -2.07298,-0.51255001 -0.83147,-0.51255002 -1.2529,-1.45792009 -0.41004,-0.94537 -0.41004,-2.22105 0,-1.2301201 0.44421,-2.1641001 0.4556,-0.94537 1.33263,-1.46931 0.87703,-0.53533 2.12993,-0.53533 1.28707,0 2.24383,0.47838 l -0.41004,0.86564 q -0.37587,-0.17085 -0.84286,-0.30753 -0.4556,-0.13668 -1.00232,-0.13668 z"
         id="path16569" />
      <path
         d="m 33.509394,0 v -8.1324602 h 1.0251 v 7.22126017 h 3.55368 V 0 Z"
         id="path16571" />
      <path
         d="m 41.767145,0 h -2.93862 v -0.59228002 l 0.95676,-0.21641 V -7.3123802 l -0.95676,-0.2278 v -0.59228 h 2.93862 v 0.59228 l -0.95676,0.2278 v 6.50369018 l 0.95676,0.21641 z"
         id="path16573" />
      <path
         d="m 47.883586,0 h -4.54461 v -8.1324602 h 4.54461 v 0.89981 h -3.51951 v 2.5399701 h 3.31449 v 0.88842 h -3.31449 v 2.90445007 h 3.51951 z"
         id="path16575" />
      <path
         d="m 56.118552,0 h -1.19595 l -4.35098,-6.7542702 h -0.04556 q 0.02278,0.39865 0.05695,0.99093 0.03417,0.59228 0.03417,1.2187301 V 0 h -0.94537 v -8.1324602 h 1.18456 l 4.33959,6.7314902 h 0.04556 q -0.01139,-0.18224 -0.03417,-0.5467201 -0.01139,-0.36448 -0.03417,-0.7973 -0.01139,-0.43282 -0.01139,-0.7973 v -4.5901701 h 0.95676 z"
         id="path16577" />
      <path
         d="m 60.902355,0 h -1.0251 v -7.2326502 h -2.53997 v -0.89981 h 6.09365 v 0.89981 h -2.52858 z"
         id="path16579" />
      <path
         d="m 67.337704,-0.61506002 q 0,-0.42142998 0.20502,-0.59227998 0.20502,-0.17085 0.48977,-0.17085 0.29614,0 0.50116,0.17085 0.21641,0.17085 0.21641,0.59227998 0,0.41004001 -0.21641,0.59228002 -0.20502,0.18224 -0.50116,0.18224 -0.28475,0 -0.48977,-0.18224 -0.20502,-0.18224001 -0.20502,-0.59228002 z"
         id="path16581" />
      <path
         d="m 75.777687,0 -0.97954,-2.5171901 h -3.22337 L 70.606627,0 h -1.03649 l 3.17781,-8.1666302 h 0.92259 L 76.836957,0 Z m -2.19827,-5.8886302 q -0.03417,-0.09112 -0.1139,-0.33031 -0.07973,-0.23919 -0.15946,-0.48977 -0.06834,-0.26197 -0.1139,-0.39865 -0.07973,0.35309 -0.18224,0.69479 -0.10251,0.33031 -0.17085,0.52394 l -0.92259,2.4602401 h 2.57414 z"
         id="path16583" />
      <path
         d="m 80.105891,-8.1324602 q 1.5946,0 2.32356,0.62645 0.72896,0.62645 0.72896,1.76545 0,0.67201 -0.30753,1.2642901 -0.29614,0.58089 -1.01371,0.94537 -0.70618,0.36448 -1.92491,0.36448 h -0.93398 V 0 h -1.0251 v -8.1324602 z m -0.09112,0.87703 h -1.03649 v 3.2119801 h 0.82008 q 1.16178,0 1.73128,-0.37587 0.5695,-0.37587 0.5695,-1.2756801 0,-0.78591 -0.50116,-1.17317 -0.50116,-0.38726 -1.58321,-0.38726 z"
         id="path16585" />
      <path
         d="m 86.996836,-8.1324602 q 1.5946,0 2.32356,0.62645 0.72896,0.62645 0.72896,1.76545 0,0.67201 -0.30753,1.2642901 -0.29614,0.58089 -1.01371,0.94537 -0.70618,0.36448 -1.92491,0.36448 h -0.93398 V 0 h -1.0251 v -8.1324602 z m -0.09112,0.87703 h -1.03649 v 3.2119801 h 0.82008 q 1.16178,0 1.73128,-0.37587 0.5695,-0.37587 0.5695,-1.2756801 0,-0.78591 -0.50116,-1.17317 -0.50116,-0.38726 -1.58321,-0.38726 z"
         id="path16587" />
    </g>
  </g>
  <g
     id="g7838">
    <path
       d="M53.81,101.47l3.42-1.29,.32-.09-.32-.1-3.42-1.27v-1.01l4.66,2v.77l-4.66,2v-1.01Z"
       id="path7832" />
    <g
       aria-label=" JAVA_CLIENT .APP"
       transform="translate(59.68 103.81)"
       id="text7836"
       class="b"
       style="font-size:11.39px;font-family:RobotoMono-Regular, 'Roboto Mono';font-variation-settings:'wght' 400">
      <path
         d="m 2.9158427,2.1641001 q -0.2733601,0 -0.4783801,-0.04556 -0.20502,-0.03417 -0.36448,-0.10251 V 1.15039 q 0.18224,0.04556 0.38726,0.07973 0.20502,0.03417 0.4328201,0.03417 0.28475,0 0.53533,-0.1139 0.26197,-0.1139 0.42143,-0.39864998 0.15946,-0.28475001 0.15946,-0.79730002 v -8.0869002 h 1.0251 V -0.12529 q 0,1.17317 -0.58089,1.73128 -0.58089,0.5581101 -1.53765,0.5581101 z"
         id="path16532" />
      <path
         d="m 12.278431,0 -0.97954,-2.5171901 H 8.075521 L 7.1073709,0 h -1.03649 L 9.248691,-8.1666302 h 0.92259 L 13.337701,0 Z m -2.19827,-5.8886302 q -0.03417,-0.09112 -0.1139,-0.33031 -0.07973,-0.23919 -0.15946,-0.48977 -0.06834,-0.26197 -0.1139,-0.39865 -0.07973,0.35309 -0.18224,0.69479 -0.10251,0.33031 -0.17085,0.52394 l -0.92259,2.4602401 h 2.57414 z"
         id="path16534" />
      <path
         d="M 19.727481,-8.1324602 16.82303,0 h -1.0251 l -2.90445,-8.1324602 h 1.07066 l 1.83379,5.2166201 q 0.18224,0.50116 0.30753,0.94537 0.12529,0.4328201 0.20502,0.8314701 0.07973,-0.39865 0.20502,-0.8428601 0.12529,-0.44421 0.30753,-0.95676 l 1.8224,-5.1938401 z"
         id="path16536" />
      <path
         d="m 25.479424,0 -0.97954,-2.5171901 h -3.22337 L 20.308364,0 h -1.036491 l 3.177811,-8.1666302 h 0.92259 L 26.538694,0 Z m -2.19827,-5.8886302 q -0.03417,-0.09112 -0.1139,-0.33031 -0.07973,-0.23919 -0.15946,-0.48977 -0.06834,-0.26197 -0.1139,-0.39865 -0.07973,0.35309 -0.18224,0.69479 -0.10251,0.33031 -0.17085,0.52394 l -0.92259,2.4602401 h 2.57414 z"
         id="path16538" />
      <path
         d="m 31.630023,1.7540601 h -5.10272 V 1.0251 h 5.10272 z"
         id="path16540" />
      <path
         d="m 36.197417,-7.3465502 q -1.309851,0 -2.061591,0.87703 -0.75174,0.87703 -0.75174,2.4032901 0,1.51487 0.69479,2.40329 0.70618,0.87703008 2.107151,0.87703008 0.53533,0 1.01371,-0.09112 0.47838,-0.09112 0.93398,-0.22779997 v 0.88841999 q -0.4556,0.17085001 -0.94537,0.25058001 -0.47838,0.07973 -1.15039,0.07973 -1.241511,0 -2.072981,-0.51255001 -0.83147,-0.51255002 -1.2529,-1.45792009 -0.41004,-0.94537 -0.41004,-2.22105 0,-1.2301201 0.44421,-2.1641001 0.4556,-0.94537 1.33263,-1.46931 0.87703,-0.53533 2.129931,-0.53533 1.28707,0 2.24383,0.47838 l -0.41004,0.86564 q -0.37587,-0.17085 -0.84286,-0.30753 -0.4556,-0.13668 -1.00232,-0.13668 z"
         id="path16542" />
      <path
         d="m 39.910555,0 v -8.1324602 h 1.0251 v 7.22126017 h 3.55368 V 0 Z"
         id="path16544" />
      <path
         d="m 48.168306,0 h -2.93862 v -0.59228002 l 0.95676,-0.21641 V -7.3123802 l -0.95676,-0.2278 v -0.59228 h 2.93862 v 0.59228 l -0.95676,0.2278 v 6.50369018 l 0.95676,0.21641 z"
         id="path16546" />
      <path
         d="m 54.284747,0 h -4.54461 v -8.1324602 h 4.54461 v 0.89981 h -3.51951 v 2.5399701 h 3.31449 v 0.88842 h -3.31449 v 2.90445007 h 3.51951 z"
         id="path16548" />
      <path
         d="m 62.519714,0 h -1.19595 l -4.35098,-6.7542702 h -0.04556 q 0.02278,0.39865 0.05695,0.99093 0.03417,0.59228 0.03417,1.2187301 V 0 h -0.945371 v -8.1324602 h 1.184561 l 4.33959,6.7314902 h 0.04556 q -0.01139,-0.18224 -0.03417,-0.5467201 -0.01139,-0.36448 -0.03417,-0.7973 -0.01139,-0.43282 -0.01139,-0.7973 v -4.5901701 h 0.95676 z"
         id="path16550" />
      <path
         d="m 67.303516,0 h -1.0251 v -7.2326502 h -2.53997 v -0.89981 h 6.09365 v 0.89981 h -2.52858 z"
         id="path16552" />
      <path
         d="m 73.738865,-0.61506002 q 0,-0.42142998 0.20502,-0.59227998 0.20502,-0.17085 0.48977,-0.17085 0.29614,0 0.50116,0.17085 0.21641,0.17085 0.21641,0.59227998 0,0.41004001 -0.21641,0.59228002 -0.20502,0.18224 -0.50116,0.18224 -0.28475,0 -0.48977,-0.18224 -0.20502,-0.18224001 -0.20502,-0.59228002 z"
         id="path16554" />
      <path
         d="m 82.178856,0 -0.97954,-2.5171901 h -3.22337 L 77.007796,0 h -1.03649 l 3.17781,-8.1666302 h 0.92259 L 83.238126,0 Z m -2.19827,-5.8886302 q -0.03417,-0.09112 -0.1139,-0.33031 -0.07973,-0.23919 -0.15946,-0.48977 -0.06834,-0.26197 -0.1139,-0.39865 -0.07973,0.35309 -0.18224,0.69479 -0.10251,0.33031 -0.17085,0.52394 l -0.92259,2.4602401 h 2.57414 z"
         id="path16556" />
      <path
         d="m 86.507052,-8.1324602 q 1.5946,0 2.32356,0.62645 0.72896,0.62645 0.72896,1.76545 0,0.67201 -0.30753,1.2642901 -0.29614,0.58089 -1.01371,0.94537 -0.70618,0.36448 -1.92491,0.36448 h -0.93398 V 0 h -1.0251 v -8.1324602 z m -0.09112,0.87703 h -1.03649 v 3.2119801 h 0.82008 q 1.16178,0 1.73128,-0.37587 0.5695,-0.37587 0.5695,-1.2756801 0,-0.78591 -0.50116,-1.17317 -0.50116,-0.38726 -1.58321,-0.38726 z"
         id="path16558" />
      <path
         d="m 93.397997,-8.1324602 q 1.5946,0 2.32356,0.62645 0.72896,0.62645 0.72896,1.76545 0,0.67201 -0.30753,1.2642901 -0.29614,0.58089 -1.01371,0.94537 -0.70618,0.36448 -1.92491,0.36448 h -0.93398 V 0 h -1.0251 v -8.1324602 z m -0.09112,0.87703 h -1.03649 v 3.2119801 h 0.82008 q 1.16178,0 1.73128,-0.37587 0.5695,-0.37587 0.5695,-1.2756801 0,-0.78591 -0.50116,-1.17317 -0.50116,-0.38726 -1.58321,-0.38726 z"
         id="path16560" />
    </g>
  </g>
  <g
     id="g7846">
    <path
       d="M46.82,173.89l3.42-1.29,.32-.09-.32-.1-3.42-1.27v-1.01l4.66,2v.77l-4.66,2v-1.01Z"
       id="path7840" />
    <g
       aria-label=" PYTHON_CLIENT .APP"
       transform="translate(53.64 176.23)"
       id="text7844"
       class="b"
       style="font-size:11.39px;font-family:RobotoMono-Regular, 'Roboto Mono';font-variation-settings:'wght' 400">
      <path
         d="m 6.2189428,-8.1324602 q 1.5946,0 2.32356,0.62645 0.72896,0.62645 0.72896,1.76545 0,0.67201 -0.30753,1.2642901 -0.29614,0.58089 -1.01371,0.94537 -0.70618,0.36448 -1.9249101,0.36448 h -0.93398 V 0 h -1.0251 v -8.1324602 z m -0.09112,0.87703 H 5.0913327 v 3.2119801 h 0.82008 q 1.1617801,0 1.7312801,-0.37587 0.5695,-0.37587 0.5695,-1.2756801 0,-0.78591 -0.50116,-1.17317 -0.50116,-0.38726 -1.58321,-0.38726 z"
         id="path16497" />
      <path
         d="m 13.075717,-4.1345701 2.118541,-3.9978901 h 1.10483 l -2.710821,4.9774301 V 0 h -1.0251 V -3.1094701 L 9.8523474,-8.1324602 h 1.1162196 z"
         id="path16499" />
      <path
         d="m 19.978058,0 h -1.0251 v -7.2326502 h -2.53997 v -0.89981 h 6.09365 v 0.89981 h -2.52858 z"
         id="path16501" />
      <path
         d="m 29.955696,0 h -1.0251 v -3.7928701 h -4.16874 V 0 h -1.0251 v -8.1324602 h 1.0251 v 3.4397801 h 4.16874 v -3.4397801 h 1.0251 z"
         id="path16503" />
      <path
         d="m 39.272707,-4.0776201 q 0,1.26429 -0.43282,2.20966 -0.42143,0.93398007 -1.2529,1.45792009 Q 36.755517,0.1139 35.525397,0.1139 q -1.26429,0 -2.10715,-0.52394001 -0.83147,-0.52394002 -1.24151,-1.46931009 -0.41004,-0.94537 -0.41004,-2.20966 0,-1.2529001 0.41004,-2.1868801 0.41004,-0.93398 1.24151,-1.45792 0.84286,-0.52394 2.11854,-0.52394 1.21873,0 2.0502,0.52394 0.83147,0.51255 1.2529,1.45792 0.43282,0.93398 0.43282,2.1982701 z m -6.42396,0 q 0,1.53765 0.64923,2.4260701 0.64923,0.87702998 2.02742,0.87702998 1.38958,0 2.02742,-0.87702998 0.63784,-0.8884201 0.63784,-2.4260701 0,-1.5376501 -0.63784,-2.4032901 -0.63784,-0.87703 -2.01603,-0.87703 -1.37819,0 -2.03881,0.87703 -0.64923,0.86564 -0.64923,2.4032901 z"
         id="path16505" />
      <path
         d="m 47.519069,0 h -1.19595 l -4.35098,-6.7542702 h -0.04556 q 0.02278,0.39865 0.05695,0.99093 0.03417,0.59228 0.03417,1.2187301 V 0 h -0.94537 v -8.1324602 h 1.18456 l 4.33959,6.7314902 h 0.04556 q -0.01139,-0.18224 -0.03417,-0.5467201 -0.01139,-0.36448 -0.03417,-0.7973 -0.01139,-0.43282 -0.01139,-0.7973 v -4.5901701 h 0.95676 z"
         id="path16507" />
      <path
         d="M 53.703842,1.7540601 H 48.601121 V 1.0251 h 5.102721 z"
         id="path16509" />
      <path
         d="m 58.271235,-7.3465502 q -1.30985,0 -2.06159,0.87703 -0.75174,0.87703 -0.75174,2.4032901 0,1.51487 0.69479,2.40329 0.70618,0.87703008 2.10715,0.87703008 0.53533,0 1.01371,-0.09112 0.47838,-0.09112 0.93398,-0.22779997 v 0.88841999 q -0.4556,0.17085001 -0.94537,0.25058001 -0.47838,0.07973 -1.15039,0.07973 -1.24151,0 -2.07298,-0.51255001 -0.83147,-0.51255002 -1.2529,-1.45792009 -0.41004,-0.94537 -0.41004,-2.22105 0,-1.2301201 0.44421,-2.1641001 0.4556,-0.94537 1.33263,-1.46931 0.87703,-0.53533 2.12993,-0.53533 1.28707,0 2.24383,0.47838 l -0.41004,0.86564 q -0.37587,-0.17085 -0.84286,-0.30753 -0.4556,-0.13668 -1.00232,-0.13668 z"
         id="path16511" />
      <path
         d="m 61.984373,0 v -8.1324602 h 1.0251 v 7.22126017 h 3.55368 V 0 Z"
         id="path16513" />
      <path
         d="m 70.242128,0 h -2.93862 v -0.59228002 l 0.95676,-0.21641 V -7.3123802 l -0.95676,-0.2278 v -0.59228 h 2.93862 v 0.59228 l -0.95676,0.2278 v 6.50369018 l 0.95676,0.21641 z"
         id="path16515" />
      <path
         d="m 76.358562,0 h -4.54461 v -8.1324602 h 4.54461 v 0.89981 h -3.51951 v 2.5399701 h 3.31449 v 0.88842 h -3.31449 v 2.90445007 h 3.51951 z"
         id="path16517" />
      <path
         d="m 84.593532,0 h -1.19595 l -4.35098,-6.7542702 h -0.04556 q 0.02278,0.39865 0.05695,0.99093 0.03417,0.59228 0.03417,1.2187301 V 0 h -0.94537 v -8.1324602 h 1.18456 l 4.33959,6.7314902 h 0.04556 q -0.01139,-0.18224 -0.03417,-0.5467201 -0.01139,-0.36448 -0.03417,-0.7973 -0.01139,-0.43282 -0.01139,-0.7973 v -4.5901701 h 0.95676 z"
         id="path16519" />
      <path
         d="m 89.377334,0 h -1.0251 v -7.2326502 h -2.53997 v -0.89981 h 6.09365 v 0.89981 h -2.52858 z"
         id="path16521" />
      <path
         d="m 95.812687,-0.61506002 q 0,-0.42142998 0.20502,-0.59227998 0.20502,-0.17085 0.48977,-0.17085 0.29614,0 0.50116,0.17085 0.21641,0.17085 0.21641,0.59227998 0,0.41004001 -0.21641,0.59228002 -0.20502,0.18224 -0.50116,0.18224 -0.28475,0 -0.48977,-0.18224 -0.20502,-0.18224001 -0.20502,-0.59228002 z"
         id="path16523" />
      <path
         d="m 104.25267,0 -0.97954,-2.5171901 h -3.22337 L 99.08161,0 h -1.03649 l 3.17781,-8.1666302 h 0.92259 L 105.31194,0 Z m -2.19827,-5.8886302 q -0.0342,-0.09112 -0.1139,-0.33031 -0.0797,-0.23919 -0.15946,-0.48977 -0.0683,-0.26197 -0.1139,-0.39865 -0.0797,0.35309 -0.18224,0.69479 -0.10251,0.33031 -0.17085,0.52394 l -0.92259,2.4602401 h 2.57414 z"
         id="path16525" />
      <path
         d="m 108.58087,-8.1324602 q 1.5946,0 2.32356,0.62645 0.72896,0.62645 0.72896,1.76545 0,0.67201 -0.30753,1.2642901 -0.29614,0.58089 -1.01371,0.94537 -0.70618,0.36448 -1.92491,0.36448 h -0.93398 V 0 h -1.0251 v -8.1324602 z m -0.0911,0.87703 h -1.03649 v 3.2119801 h 0.82008 q 1.16178,0 1.73128,-0.37587 0.5695,-0.37587 0.5695,-1.2756801 0,-0.78591 -0.50116,-1.17317 -0.50116,-0.38726 -1.58321,-0.38726 z"
         id="path16527" />
      <path
         d="m 115.47181,-8.1324602 q 1.5946,0 2.32356,0.62645 0.72896,0.62645 0.72896,1.76545 0,0.67201 -0.30753,1.2642901 -0.29614,0.58089 -1.01371,0.94537 -0.70618,0.36448 -1.92491,0.36448 H 114.3442 V 0 h -1.0251 v -8.1324602 z m -0.0911,0.87703 h -1.03649 v 3.2119801 h 0.82008 q 1.16178,0 1.73128,-0.37587 0.5695,-0.37587 0.5695,-1.2756801 0,-0.78591 -0.50116,-1.17317 -0.50116,-0.38726 -1.58321,-0.38726 z"
         id="path16529" />
    </g>
  </g>
  <g
     id="g7854">
    <path
       d="M46.9,244.72l3.42-1.29,.32-.09-.32-.1-3.42-1.27v-1.01l4.66,2v.77l-4.66,2v-1.01Z"
       id="path7848" />
    <g
       aria-label=" DOTNET_CLIENT .APP"
       transform="translate(54.72 247.05)"
       id="text7852"
       class="b"
       style="font-size:11.39px;font-family:RobotoMono-Regular, 'Roboto Mono';font-variation-settings:'wght' 400">
      <path
         d="m 10.581313,-4.1459601 q 0,2.06159 -1.1276101,3.1094701 Q 8.3374828,0 6.3328428,0 H 4.0662327 v -8.1324602 h 2.5058001 q 1.23012,0 2.12993,0.4556 0.8998101,0.4556 1.3895802,1.34402 0.48977,0.87703 0.48977,2.1868801 z m -1.0820501,0.03417 q 0,-1.6287701 -0.8086901,-2.3805101 -0.7973,-0.76313 -2.26661,-0.76313 H 5.0913327 v 6.37840017 h 1.1048301 q 3.3031001,0 3.3031001,-3.23476007 z"
         id="path16462" />
      <path
         d="m 19.476898,-4.0776201 q 0,1.26429 -0.43282,2.20966 -0.42143,0.93398007 -1.2529,1.45792009 Q 16.959708,0.1139 15.729588,0.1139 q -1.26429,0 -2.10715,-0.52394001 -0.83147,-0.52394002 -1.24151,-1.46931009 -0.41004,-0.94537 -0.41004,-2.20966 0,-1.2529001 0.41004,-2.1868801 0.41004,-0.93398 1.24151,-1.45792 0.84286,-0.52394 2.11854,-0.52394 1.21873,0 2.0502,0.52394 0.83147,0.51255 1.2529,1.45792 0.43282,0.93398 0.43282,2.1982701 z m -6.42396,0 q 0,1.53765 0.64923,2.4260701 0.64923,0.87702998 2.02742,0.87702998 1.38958,0 2.02742,-0.87702998 0.63784,-0.8884201 0.63784,-2.4260701 0,-1.5376501 -0.63784,-2.4032901 -0.63784,-0.87703 -2.01603,-0.87703 -1.37819,0 -2.03881,0.87703 -0.64923,0.86564 -0.64923,2.4032901 z"
         id="path16464" />
      <path
         d="m 23.508951,0 h -1.0251 v -7.2326502 h -2.53997 v -0.89981 h 6.09365 v 0.89981 h -2.52858 z"
         id="path16466" />
      <path
         d="m 33.714389,0 h -1.19595 l -4.35098,-6.7542702 h -0.04556 q 0.02278,0.39865 0.05695,0.99093 0.03417,0.59228 0.03417,1.2187301 V 0 h -0.94537 v -8.1324602 h 1.18456 l 4.33959,6.7314902 h 0.04556 q -0.01139,-0.18224 -0.03417,-0.5467201 -0.01139,-0.36448 -0.03417,-0.7973 -0.01139,-0.43282 -0.01139,-0.7973 v -4.5901701 h 0.95676 z"
         id="path16468" />
      <path
         d="m 40.468662,0 h -4.54461 v -8.1324602 h 4.54461 v 0.89981 h -3.51951 v 2.5399701 h 3.31449 v 0.88842 h -3.31449 v 2.90445007 h 3.51951 z"
         id="path16470" />
      <path
         d="m 44.831028,0 h -1.0251 v -7.2326502 h -2.53997 v -0.89981 h 6.09365 v 0.89981 h -2.52858 z"
         id="path16472" />
      <path
         d="m 52.564838,1.7540601 h -5.10272 V 1.0251 h 5.10272 z"
         id="path16474" />
      <path
         d="m 57.132231,-7.3465502 q -1.30985,0 -2.06159,0.87703 -0.75174,0.87703 -0.75174,2.4032901 0,1.51487 0.69479,2.40329 0.70618,0.87703008 2.10715,0.87703008 0.53533,0 1.01371,-0.09112 0.47838,-0.09112 0.93398,-0.22779997 v 0.88841999 q -0.4556,0.17085001 -0.94537,0.25058001 -0.47838,0.07973 -1.15039,0.07973 -1.24151,0 -2.07298,-0.51255001 -0.83147,-0.51255002 -1.2529,-1.45792009 -0.41004,-0.94537 -0.41004,-2.22105 0,-1.2301201 0.44421,-2.1641001 0.4556,-0.94537 1.33263,-1.46931 0.87703,-0.53533 2.12993,-0.53533 1.28707,0 2.24383,0.47838 l -0.41004,0.86564 q -0.37587,-0.17085 -0.84286,-0.30753 -0.4556,-0.13668 -1.00232,-0.13668 z"
         id="path16476" />
      <path
         d="m 60.84537,0 v -8.1324602 h 1.0251 v 7.22126017 h 3.55368 V 0 Z"
         id="path16478" />
      <path
         d="M 69.103121,0 H 66.1645 v -0.59228002 l 0.95676,-0.21641 V -7.3123802 l -0.95676,-0.2278 v -0.59228 h 2.938621 v 0.59228 l -0.95676,0.2278 v 6.50369018 l 0.95676,0.21641 z"
         id="path16480" />
      <path
         d="m 75.219562,0 h -4.54461 v -8.1324602 h 4.54461 v 0.89981 h -3.51951 v 2.5399701 h 3.31449 v 0.88842 h -3.31449 v 2.90445007 h 3.51951 z"
         id="path16482" />
      <path
         d="m 83.454524,0 h -1.19595 l -4.35098,-6.7542702 h -0.04556 q 0.02278,0.39865 0.05695,0.99093 0.03417,0.59228 0.03417,1.2187301 V 0 h -0.94537 v -8.1324602 h 1.18456 l 4.33959,6.7314902 h 0.04556 q -0.01139,-0.18224 -0.03417,-0.5467201 -0.01139,-0.36448 -0.03417,-0.7973 -0.01139,-0.43282 -0.01139,-0.7973 v -4.5901701 h 0.95676 z"
         id="path16484" />
      <path
         d="m 88.238327,0 h -1.0251 v -7.2326502 h -2.53997 v -0.89981 h 6.09365 v 0.89981 h -2.52858 z"
         id="path16486" />
      <path
         d="m 94.67368,-0.61506002 q 0,-0.42142998 0.20502,-0.59227998 0.20502,-0.17085 0.48977,-0.17085 0.29614,0 0.50116,0.17085 0.21641,0.17085 0.21641,0.59227998 0,0.41004001 -0.21641,0.59228002 -0.20502,0.18224 -0.50116,0.18224 -0.28475,0 -0.48977,-0.18224 -0.20502,-0.18224001 -0.20502,-0.59228002 z"
         id="path16488" />
      <path
         d="m 103.11366,0 -0.97954,-2.5171901 H 98.910753 L 97.942603,0 h -1.03649 l 3.177807,-8.1666302 h 0.92259 L 104.17293,0 Z m -2.19827,-5.8886302 q -0.0342,-0.09112 -0.1139,-0.33031 -0.0797,-0.23919 -0.15946,-0.48977 -0.0683,-0.26197 -0.1139,-0.39865 -0.0797,0.35309 -0.18224,0.69479 -0.10251,0.33031 -0.17085,0.52394 l -0.922587,2.4602401 h 2.574137 z"
         id="path16490" />
      <path
         d="m 107.44187,-8.1324602 q 1.5946,0 2.32356,0.62645 0.72896,0.62645 0.72896,1.76545 0,0.67201 -0.30753,1.2642901 -0.29614,0.58089 -1.01371,0.94537 -0.70618,0.36448 -1.92491,0.36448 h -0.93398 V 0 h -1.0251 v -8.1324602 z m -0.0911,0.87703 h -1.03649 v 3.2119801 h 0.82008 q 1.16178,0 1.73128,-0.37587 0.5695,-0.37587 0.5695,-1.2756801 0,-0.78591 -0.50116,-1.17317 -0.50116,-0.38726 -1.58321,-0.38726 z"
         id="path16492" />
      <path
         d="m 114.33281,-8.1324602 q 1.5946,0 2.32356,0.62645 0.72896,0.62645 0.72896,1.76545 0,0.67201 -0.30753,1.2642901 -0.29614,0.58089 -1.01371,0.94537 -0.70618,0.36448 -1.92491,0.36448 H 113.2052 V 0 h -1.0251 v -8.1324602 z m -0.0911,0.87703 h -1.03649 v 3.2119801 h 0.82008 q 1.16178,0 1.73128,-0.37587 0.5695,-0.37587 0.5695,-1.2756801 0,-0.78591 -0.50116,-1.17317 -0.50116,-0.38726 -1.58321,-0.38726 z"
         id="path16494" />
    </g>
  </g>
  <g
     id="g7862">
    <path
       d="M24.53,317.38l3.42-1.29,.32-.09-.32-.1-3.42-1.27v-1.01l4.66,2v.77l-4.66,2v-1.01Z"
       id="path7856" />
    <g
       aria-label=" S3_COMPATIBLE_CLIENT .APP"
       transform="translate(30 319.72)"
       id="text7860"
       class="b"
       style="font-size:11.39px;font-family:RobotoMono-Regular, 'Roboto Mono';font-variation-settings:'wght' 400">
      <path
         d="m 8.6791828,-2.1754901 q 0,1.0820501 -0.78591,1.68572009 Q 7.1073628,0.1139 5.7747327,0.1139 q -0.6834,0 -1.26429,-0.10251 -0.58089,-0.10251 -0.96815,-0.28475001 V -1.2529 q 0.41004,0.18224 1.01371,0.33030997 0.61506,0.14807001 1.26429,0.14807001 0.9112001,0 1.3668001,-0.35308998 0.46699,-0.35309 0.46699,-0.9567601 0,-0.39865 -0.17085,-0.67201 -0.17085,-0.27336 -0.59228,-0.50116 -0.41004,-0.23919 -1.1503901,-0.50116 -1.03649,-0.37587 -1.57182,-0.92259 -0.52394,-0.5467201 -0.52394,-1.4920901 0,-0.64923 0.33031,-1.10483 0.33031,-0.46699 0.9112,-0.71757 0.59228,-0.25058 1.3554101,-0.25058 0.67201,0 1.23012,0.12529 0.55811,0.12529 1.01371,0.33031 l -0.31892,0.87703 q -0.42143,-0.18224 -0.92259,-0.30753 -0.48977,-0.12529 -1.0251,-0.12529 -0.7631301,0 -1.1503901,0.33031 -0.38726,0.31892 -0.38726,0.85425 0,0.41004 0.17085,0.6834 0.17085,0.27336 0.55811,0.48977 0.38726,0.2164101 1.0478801,0.4669901 0.71757,0.26197 1.20734,0.5695 0.50116,0.29614 0.75174,0.71757 0.26197,0.42143 0.26197,1.05927 z"
         id="path16413" />
      <path
         d="m 14.82978,-6.2303302 q 0,0.82008 -0.4556,1.3098501 -0.4556,0.47838 -1.23012,0.63784 v 0.04556 q 0.97954,0.1139 1.45792,0.61506 0.47838,0.50116 0.47838,1.30985 0,0.7061801 -0.33031,1.2642901 -0.33031,0.54671998 -1.0251,0.85424999 Q 13.04155,0.1139 11.9595,0.1139 q -0.63784,0 -1.18456,-0.10251 -0.54672,-0.09112 -1.04788,-0.34170001 V -1.26429 q 0.51255,0.25058 1.10483,0.39864997 0.59228,0.13668001 1.139,0.13668001 1.09344,0 1.57182,-0.42142998 0.48977,-0.43282 0.48977,-1.1845601 0,-0.76313 -0.60367,-1.09344 -0.59228,-0.3417 -1.67433,-0.3417 h -0.78591 v -0.85425 h 0.7973 q 1.00232,0 1.51487,-0.4214301 0.52394,-0.42143 0.52394,-1.11622 0,-0.59228 -0.39865,-0.9112 -0.39865,-0.33031 -1.08205,-0.33031 -0.66062,0 -1.12761,0.19363 -0.46699,0.19363 -0.92259,0.48977 l -0.50116,-0.6834 q 0.43282,-0.3417 1.07066,-0.59228 0.64923,-0.25058 1.46931,-0.25058 1.27568,0 1.89074,0.5695 0.62645,0.5695 0.62645,1.44653 z"
         id="path16415" />
      <path
         d="m 20.809536,1.7540601 h -5.10272 V 1.0251 h 5.10272 z"
         id="path16417" />
      <path
         d="m 25.376929,-7.3465502 q -1.30985,0 -2.061591,0.87703 -0.75174,0.87703 -0.75174,2.4032901 0,1.51487 0.69479,2.40329 0.706181,0.87703008 2.107151,0.87703008 0.53533,0 1.01371,-0.09112 0.47838,-0.09112 0.93398,-0.22779997 v 0.88841999 q -0.4556,0.17085001 -0.94537,0.25058001 -0.47838,0.07973 -1.15039,0.07973 -1.24151,0 -2.072981,-0.51255001 -0.83147,-0.51255002 -1.2529,-1.45792009 -0.41004,-0.94537 -0.41004,-2.22105 0,-1.2301201 0.44421,-2.1641001 0.4556,-0.94537 1.33263,-1.46931 0.877031,-0.53533 2.129931,-0.53533 1.28707,0 2.24383,0.47838 l -0.41004,0.86564 q -0.37587,-0.17085 -0.84286,-0.30753 -0.4556,-0.13668 -1.00232,-0.13668 z"
         id="path16419" />
      <path
         d="m 35.958233,-4.0776201 q 0,1.26429 -0.43282,2.20966 -0.42143,0.93398007 -1.2529,1.45792009 Q 33.441043,0.1139 32.210923,0.1139 q -1.26429,0 -2.10715,-0.52394001 -0.83147,-0.52394002 -1.24151,-1.46931009 -0.41004,-0.94537 -0.41004,-2.20966 0,-1.2529001 0.41004,-2.1868801 0.41004,-0.93398 1.24151,-1.45792 0.84286,-0.52394 2.11854,-0.52394 1.21873,0 2.0502,0.52394 0.83147,0.51255 1.2529,1.45792 0.43282,0.93398 0.43282,2.1982701 z m -6.42396,0 q 0,1.53765 0.64923,2.4260701 0.64923,0.87702998 2.02742,0.87702998 1.38958,0 2.02742,-0.87702998 0.63784,-0.8884201 0.63784,-2.4260701 0,-1.5376501 -0.63784,-2.4032901 -0.63784,-0.87703 -2.01603,-0.87703 -1.37819,0 -2.03881,0.87703 -0.64923,0.86564 -0.64923,2.4032901 z"
         id="path16421" />
      <path
         d="m 41.345707,0 -2.67665,-7.1301402 h -0.04556 q 0.03417,0.35309 0.05695,0.95676 0.02278,0.59228 0.02278,1.2415101 V 0 h -0.94537 v -8.1324602 h 1.51487 l 2.5058,6.6631502 h 0.04556 l 2.55136,-6.6631502 h 1.50348 V 0 h -1.01371 v -5.0002102 q 0,-0.59228 0.02278,-1.17317 0.03417,-0.58089 0.05695,-0.94537 h -0.04556 L 42.188567,0 Z"
         id="path16423" />
      <path
         d="m 50.241289,-8.1324602 q 1.594601,0 2.323561,0.62645 0.72896,0.62645 0.72896,1.76545 0,0.67201 -0.30753,1.2642901 -0.29614,0.58089 -1.01371,0.94537 -0.70618,0.36448 -1.924911,0.36448 h -0.93398 V 0 h -1.0251 v -8.1324602 z m -0.09112,0.87703 h -1.03649 v 3.2119801 h 0.82008 q 1.161781,0 1.731281,-0.37587 0.5695,-0.37587 0.5695,-1.2756801 0,-0.78591 -0.50116,-1.17317 -0.50116,-0.38726 -1.583211,-0.38726 z"
         id="path16425" />
      <path
         d="m 59.512753,0 -0.97954,-2.5171901 h -3.22337 L 54.341693,0 h -1.036491 l 3.177811,-8.1666302 h 0.92259 L 60.572023,0 Z m -2.19827,-5.8886302 q -0.03417,-0.09112 -0.1139,-0.33031 -0.07973,-0.23919 -0.15946,-0.48977 -0.06834,-0.26197 -0.1139,-0.39865 -0.07973,0.35309 -0.18224,0.69479 -0.10251,0.33031 -0.17085,0.52394 l -0.92259,2.4602401 h 2.57414 z"
         id="path16427" />
      <path
         d="m 63.465088,0 h -1.0251 v -7.2326502 h -2.53997 v -0.89981 h 6.09365 v 0.89981 h -2.52858 z"
         id="path16429" />
      <path
         d="m 69.513178,0 h -2.93862 v -0.59228002 l 0.95676,-0.21641 V -7.3123802 l -0.95676,-0.2278 v -0.59228 h 2.93862 v 0.59228 l -0.95676,0.2278 v 6.50369018 l 0.95676,0.21641 z"
         id="path16431" />
      <path
         d="m 73.408561,-8.1324602 q 1.52626,0 2.30078,0.4556 0.78591,0.44421 0.78591,1.56043 0,0.71757 -0.39865,1.1959501 -0.39865,0.46699 -1.15039,0.60367 v 0.05695 q 0.51255,0.07973 0.92259,0.29614 0.42143,0.21641 0.66062,0.61506 0.23919,0.39865 0.23919,1.03649 0,1.1048301 -0.76313,1.70850008 Q 75.253741,0 73.943891,0 h -2.85889 v -8.1324602 z m 0.20502,3.4625601 q 1.04788,0 1.43514,-0.3303101 0.38726,-0.3417 0.38726,-1.00232 0,-0.67201 -0.47838,-0.95676 -0.46699,-0.29614 -1.50348,-0.29614 h -1.34402 v 2.5855301 z m -1.50348,0.85425 v 2.95001007 h 1.64016 q 1.08205,0 1.50348,-0.42142997 0.42143,-0.4214301 0.42143,-1.1048301 0,-0.63784 -0.44421,-1.0251 -0.43282,-0.39865 -1.56043,-0.39865 z"
         id="path16433" />
      <path
         d="m 78.488497,0 v -8.1324602 h 1.0251 v 7.22126017 h 3.55368 V 0 Z"
         id="path16435" />
      <path
         d="m 89.001468,0 h -4.54461 v -8.1324602 h 4.54461 v 0.89981 h -3.51951 v 2.5399701 h 3.31449 v 0.88842 h -3.31449 v 2.90445007 h 3.51951 z"
         id="path16437" />
      <path
         d="m 94.764808,1.7540601 h -5.10272 V 1.0251 h 5.10272 z"
         id="path16439" />
      <path
         d="m 99.332205,-7.3465502 q -1.30985,0 -2.06159,0.87703 -0.75174,0.87703 -0.75174,2.4032901 0,1.51487 0.69479,2.40329 0.70618,0.87703008 2.10715,0.87703008 0.53533,0 1.013715,-0.09112 0.47838,-0.09112 0.93398,-0.22779997 v 0.88841999 Q 100.81291,-0.04556 100.32314,0.03417 99.844755,0.1139 99.172745,0.1139 q -1.24151,0 -2.07298,-0.51255001 -0.83147,-0.51255002 -1.2529,-1.45792009 -0.41004,-0.94537 -0.41004,-2.22105 0,-1.2301201 0.44421,-2.1641001 0.4556,-0.94537 1.33263,-1.46931 0.87703,-0.53533 2.12993,-0.53533 1.287075,0 2.243835,0.47838 l -0.41004,0.86564 q -0.37587,-0.17085 -0.84286,-0.30753 -0.455605,-0.13668 -1.002325,-0.13668 z"
         id="path16441" />
      <path
         d="m 103.04534,0 v -8.1324602 h 1.0251 v 7.22126017 h 3.55368 V 0 Z"
         id="path16443" />
      <path
         d="m 111.30309,0 h -2.93862 v -0.59228002 l 0.95676,-0.21641 V -7.3123802 l -0.95676,-0.2278 v -0.59228 h 2.93862 v 0.59228 l -0.95676,0.2278 v 6.50369018 l 0.95676,0.21641 z"
         id="path16445" />
      <path
         d="m 117.41953,0 h -4.54461 v -8.1324602 h 4.54461 v 0.89981 h -3.51951 v 2.5399701 h 3.31449 v 0.88842 h -3.31449 v 2.90445007 h 3.51951 z"
         id="path16447" />
      <path
         d="m 125.6545,0 h -1.19595 l -4.35098,-6.7542702 h -0.0456 q 0.0228,0.39865 0.057,0.99093 0.0342,0.59228 0.0342,1.2187301 V 0 h -0.94537 v -8.1324602 h 1.18456 l 4.33959,6.7314902 h 0.0456 q -0.0114,-0.18224 -0.0342,-0.5467201 -0.0114,-0.36448 -0.0342,-0.7973 -0.0114,-0.43282 -0.0114,-0.7973 v -4.5901701 h 0.95676 z"
         id="path16449" />
      <path
         d="m 130.4383,0 h -1.0251 v -7.2326502 h -2.53997 v -0.89981 h 6.09365 v 0.89981 h -2.52858 z"
         id="path16451" />
      <path
         d="m 136.87365,-0.61506002 q 0,-0.42142998 0.20502,-0.59227998 0.20502,-0.17085 0.48977,-0.17085 0.29614,0 0.50116,0.17085 0.21641,0.17085 0.21641,0.59227998 0,0.41004001 -0.21641,0.59228002 -0.20502,0.18224 -0.50116,0.18224 -0.28475,0 -0.48977,-0.18224 -0.20502,-0.18224001 -0.20502,-0.59228002 z"
         id="path16453" />
      <path
         d="m 145.31364,0 -0.97954,-2.5171901 h -3.22337 L 140.14258,0 h -1.03649 l 3.17781,-8.1666302 h 0.92259 L 146.37291,0 Z m -2.19827,-5.8886302 q -0.0342,-0.09112 -0.1139,-0.33031 -0.0797,-0.23919 -0.15946,-0.48977 -0.0683,-0.26197 -0.1139,-0.39865 -0.0797,0.35309 -0.18224,0.69479 -0.10251,0.33031 -0.17085,0.52394 l -0.92259,2.4602401 h 2.57414 z"
         id="path16455" />
      <path
         d="m 149.64183,-8.1324602 q 1.5946,0 2.32356,0.62645 0.72896,0.62645 0.72896,1.76545 0,0.67201 -0.30753,1.2642901 -0.29614,0.58089 -1.01371,0.94537 -0.70618,0.36448 -1.92491,0.36448 h -0.93398 V 0 h -1.0251 v -8.1324602 z m -0.0911,0.87703 h -1.03649 v 3.2119801 h 0.82008 q 1.16178,0 1.73128,-0.37587 0.5695,-0.37587 0.5695,-1.2756801 0,-0.78591 -0.50116,-1.17317 -0.50116,-0.38726 -1.58321,-0.38726 z"
         id="path16457" />
      <path
         d="m 156.53278,-8.1324602 q 1.5946,0 2.32356,0.62645 0.72896,0.62645 0.72896,1.76545 0,0.67201 -0.30753,1.2642901 -0.29614,0.58089 -1.01371,0.94537 -0.70618,0.36448 -1.92491,0.36448 h -0.93398 V 0 h -1.0251 v -8.1324602 z m -0.0911,0.87703 h -1.03649 v 3.2119801 h 0.82008 q 1.16178,0 1.73128,-0.37587 0.5695,-0.37587 0.5695,-1.2756801 0,-0.78591 -0.50116,-1.17317 -0.50116,-0.38726 -1.58321,-0.38726 z"
         id="path16459" />
    </g>
  </g>
  <g
     aria-label="Go SDK"
     transform="translate(97.07 57.98)"
     id="text7866"
     class="q"
     style="font-weight:700;font-size:10px;font-family:Inter-Bold, Inter;font-variation-settings:'slnt' 0, 'wght' 700">
    <path
       d="m 3.61,-4.01 h 2.83 v 3.7 Q 5.88,-0.12 5.27,-0.01 4.67,0.1 3.9,0.1 2.3,0.1 1.44,-0.84 0.58,-1.78 0.58,-3.58 q 0,-1.12 0.43,-1.94 0.44,-0.82 1.27,-1.27 0.83,-0.45 2.03,-0.45 0.57,0 1.12,0.12 0.55,0.12 1,0.32 l -0.5,1.21 Q 5.6,-5.76 5.18,-5.87 4.76,-5.98 4.3,-5.98 q -0.66,0 -1.15,0.3 -0.48,0.3 -0.75,0.85 -0.26,0.54 -0.26,1.28 0,0.7 0.19,1.24 0.19,0.54 0.6,0.85 0.41,0.3 1.07,0.3 0.32,0 0.54,-0.03 0.23,-0.03 0.42,-0.07 V -2.75 H 3.61 Z"
       id="path16402" />
    <path
       d="m 12.980009,-2.74 q 0,1.36 -0.72,2.1 -0.71,0.74 -1.94,0.74 -0.7599997,0 -1.3599997,-0.33 -0.59,-0.33 -0.93,-0.96 -0.34,-0.64 -0.34,-1.55 0,-1.36 0.71,-2.09 0.71,-0.73 1.9499997,-0.73 0.77,0 1.36,0.33 0.59,0.33 0.93,0.96 0.34,0.62 0.34,1.53 z m -3.7699997,0 q 0,0.81 0.26,1.23 0.27,0.41 0.8699997,0.41 0.59,0 0.85,-0.41 0.27,-0.42 0.27,-1.23 0,-0.81 -0.27,-1.21 -0.26,-0.41 -0.86,-0.41 -0.5899997,0 -0.8599997,0.41 -0.26,0.4 -0.26,1.21 z"
       id="path16404" />
    <path
       d="m 21.140006,-1.98 q 0,0.95 -0.69,1.52 -0.68,0.56 -1.94,0.56 -1.13,0 -2.02,-0.43 v -1.41 q 0.51,0.22 1.05,0.41 0.55,0.18 1.09,0.18 0.56,0 0.79,-0.21 0.24,-0.22 0.24,-0.55 0,-0.27 -0.19,-0.46 -0.18,-0.19 -0.49,-0.35 -0.31,-0.17 -0.71,-0.36 -0.25,-0.12 -0.54,-0.28 -0.29,-0.17 -0.56,-0.41 -0.26,-0.25 -0.43,-0.6 -0.17,-0.35 -0.17,-0.84 0,-0.96 0.65,-1.49 0.65,-0.54 1.77,-0.54 0.56,0 1.06,0.13 0.51,0.13 1.06,0.37 l -0.49,1.18 q -0.49,-0.2 -0.88,-0.31 -0.39,-0.11 -0.8,-0.11 -0.43,0 -0.66,0.2 -0.23,0.2 -0.23,0.52 0,0.38 0.34,0.6 0.34,0.22 1.01,0.54 0.55,0.26 0.93,0.54 0.39,0.28 0.6,0.66 0.21,0.38 0.21,0.94 z"
       id="path16406" />
    <path
       d="m 28.360012,-3.64 q 0,1.81 -1.03,2.73 -1.02,0.91 -2.87,0.91 h -2.02 v -7.14 h 2.24 q 1.12,0 1.94,0.4 0.83,0.4 1.28,1.18 0.46,0.77 0.46,1.92 z m -1.57,0.04 q 0,-1.19 -0.52,-1.74 -0.52,-0.56 -1.51,-0.56 h -0.81 v 4.65 h 0.65 q 2.19,0 2.19,-2.35 z"
       id="path16408" />
    <path
       d="m 35.58001,0 h -1.72 l -1.87,-3.01 -0.64,0.46 V 0 h -1.51 v -7.14 h 1.51 v 3.27 q 0.15,-0.21 0.3,-0.42 0.15,-0.21 0.3,-0.42 l 1.93,-2.43 h 1.68 l -2.49,3.16 z"
       id="path16410" />
  </g>
  <g
     aria-label="Java SDK"
     transform="translate(92.47 131.1)"
     id="text7876"
     class="q"
     style="font-weight:700;font-size:10px;font-family:Inter-Bold, Inter;font-variation-settings:'slnt' 0, 'wght' 700">
    <path
       d="M 0.15,2.1 Q -0.14,2.1 -0.36,2.06 -0.58,2.03 -0.74,1.99 V 0.73 q 0.16,0.04 0.34,0.07 0.17,0.03 0.37,0.03 0.26,0 0.47,-0.1 Q 0.66,0.63 0.78,0.35 0.9,0.07 0.9,-0.45 v -6.69 h 1.51 v 6.68 Q 2.41,0.46 2.12,1.02 1.84,1.59 1.33,1.84 0.82,2.1 0.15,2.1 Z"
       id="path16387" />
    <path
       d="m 8.7199998,-5.57 q 1.1,0 1.6800002,0.48 0.59,0.47 0.59,1.45 V 0 H 9.9499998 l -0.29,-0.74 h -0.04 q -0.35,0.44 -0.74,0.64 -0.39,0.2 -1.07,0.2 -0.73,0 -1.21,-0.42 -0.48,-0.43 -0.48,-1.31 0,-0.87 0.61,-1.28 0.61,-0.42 1.83,-0.46 l 0.95,-0.03 v -0.24 q 0,-0.43 -0.23,-0.63 -0.22,-0.2 -0.62,-0.2 -0.4,0 -0.78,0.12 -0.38,0.11 -0.76,0.28 l -0.49,-1.01 q 0.44,-0.23 0.97,-0.36 0.54,-0.13 1.12,-0.13 z m 0.21,3.06 q -0.72,0.02 -1,0.26 -0.28,0.24 -0.28,0.63 0,0.34 0.2,0.49 0.2,0.14 0.52,0.14 0.48,0 0.81,-0.28 0.33,-0.29 0.33,-0.81 v -0.45 z"
       style="letter-spacing:-0.02em"
       id="path16389" />
    <path
       d="M 13.38,0 11.3,-5.46 h 1.56 l 1.05,3.11 q 0.09,0.28 0.14,0.58 0.06,0.3 0.07,0.54 h 0.04 q 0.03,-0.54 0.22,-1.12 l 1.05,-3.11 h 1.56 L 14.91,0 Z"
       style="letter-spacing:-0.02em"
       id="path16391" />
    <path
       d="m 20.03,-5.57 q 1.1,0 1.68,0.48 0.59,0.47 0.59,1.45 V 0 h -1.04 l -0.29,-0.74 h -0.04 q -0.35,0.44 -0.74,0.64 -0.39,0.2 -1.07,0.2 -0.73,0 -1.21,-0.42 -0.48,-0.43 -0.48,-1.31 0,-0.87 0.61,-1.28 0.61,-0.42 1.83,-0.46 l 0.95,-0.03 v -0.24 q 0,-0.43 -0.23,-0.63 -0.22,-0.2 -0.62,-0.2 -0.4,0 -0.78,0.12 -0.38,0.11 -0.76,0.28 l -0.49,-1.01 q 0.44,-0.23 0.97,-0.36 0.54,-0.13 1.12,-0.13 z m 0.21,3.06 q -0.72,0.02 -1,0.26 -0.28,0.24 -0.28,0.63 0,0.34 0.2,0.49 0.2,0.14 0.52,0.14 0.48,0 0.81,-0.28 0.33,-0.29 0.33,-0.81 v -0.45 z"
       style="letter-spacing:0em"
       id="path16393" />
    <path
       d="m 30.760003,-1.98 q 0,0.95 -0.69,1.52 -0.68,0.56 -1.94,0.56 -1.13,0 -2.02,-0.43 v -1.41 q 0.51,0.22 1.05,0.41 0.55,0.18 1.09,0.18 0.56,0 0.79,-0.21 0.24,-0.22 0.24,-0.55 0,-0.27 -0.19,-0.46 -0.18,-0.19 -0.49,-0.35 -0.31,-0.17 -0.71,-0.36 -0.25,-0.12 -0.54,-0.28 -0.29,-0.17 -0.56,-0.41 -0.26,-0.25 -0.43,-0.6 -0.17,-0.35 -0.17,-0.84 0,-0.96 0.65,-1.49 0.65,-0.54 1.77,-0.54 0.56,0 1.06,0.13 0.51,0.13 1.06,0.37 l -0.49,1.18 q -0.49,-0.2 -0.88,-0.31 -0.39,-0.11 -0.8,-0.11 -0.43,0 -0.66,0.2 -0.23,0.2 -0.23,0.52 0,0.38 0.34,0.6 0.34,0.22 1.01,0.54 0.55,0.26 0.93,0.54 0.39,0.28 0.6,0.66 0.21,0.38 0.21,0.94 z"
       style="letter-spacing:0em"
       id="path16395" />
    <path
       d="m 37.980009,-3.64 q 0,1.81 -1.03,2.73 -1.02,0.91 -2.87,0.91 h -2.02 v -7.14 h 2.24 q 1.12,0 1.94,0.4 0.83,0.4 1.28,1.18 0.46,0.77 0.46,1.92 z m -1.57,0.04 q 0,-1.19 -0.52,-1.74 -0.52,-0.56 -1.51,-0.56 h -0.81 v 4.65 h 0.65 q 2.19,0 2.19,-2.35 z"
       style="letter-spacing:0em"
       id="path16397" />
    <path
       d="m 45.200007,0 h -1.72 l -1.87,-3.01 -0.64,0.46 V 0 h -1.51 v -7.14 h 1.51 v 3.27 q 0.15,-0.21 0.3,-0.42 0.15,-0.21 0.3,-0.42 l 1.93,-2.43 h 1.68 l -2.49,3.16 z"
       style="letter-spacing:0em"
       id="path16399" />
  </g>
  <g
     aria-label="Python SDK"
     transform="translate(86.32 202.25)"
     id="text7884"
     class="q"
     style="font-weight:700;font-size:10px;font-family:Inter-Bold, Inter;font-variation-settings:'slnt' 0, 'wght' 700">
    <path
       d="m 3.18,-7.14 q 1.38,0 2.01,0.6 0.64,0.59 0.64,1.63 0,0.62 -0.26,1.17 Q 5.31,-3.2 4.7,-2.87 4.1,-2.54 3.06,-2.54 H 2.41 V 0 H 0.9 V -7.14 Z M 3.1,-5.9 H 2.41 v 2.12 h 0.5 q 0.64,0 1.01,-0.25 Q 4.3,-4.29 4.3,-4.86 4.3,-5.9 3.1,-5.9 Z"
       id="path16368" />
    <path
       d="m 6.2800026,-5.46 h 1.63 l 1.03,3.07 q 0.08,0.22 0.12,0.46 0.04,0.23 0.06,0.49 h 0.03 q 0.03,-0.26 0.08,-0.49 0.06,-0.24 0.13,-0.46 l 1.0100004,-3.07 h 1.6 L 9.6600026,0.7 q -0.31,0.85 -0.91,1.27 -0.59,0.43 -1.37,0.43 -0.25,0 -0.44,-0.03 -0.18,-0.02 -0.32,-0.05 V 1.14 q 0.11,0.02 0.26,0.04 0.16,0.02 0.33,0.02 0.47,0 0.74,-0.29 0.28,-0.28 0.41,-0.68 l 0.09,-0.27 z"
       id="path16370" />
    <path
       d="m 15.42,-1.09 q 0.25,0 0.48,-0.05 0.23,-0.05 0.46,-0.12 v 1.11 q -0.24,0.1 -0.6,0.17 -0.35,0.08 -0.77,0.08 -0.49,0 -0.88,-0.16 -0.38,-0.16 -0.61,-0.55 -0.22,-0.4 -0.22,-1.1 v -2.63 h -0.71 v -0.63 l 0.82,-0.5 0.43,-1.15 h 0.95 v 1.16 h 1.53 v 1.12 h -1.53 v 2.63 q 0,0.31 0.18,0.47 0.18,0.15 0.47,0.15 z"
       style="letter-spacing:0.01em"
       id="path16372" />
    <path
       d="m 18.6,-6.05 q 0,0.4 -0.03,0.77 -0.02,0.37 -0.04,0.52 h 0.08 q 0.26,-0.42 0.67,-0.61 0.41,-0.19 0.91,-0.19 0.89,0 1.42,0.48 0.54,0.47 0.54,1.52 V 0 h -1.49 v -3.19 q 0,-1.18 -0.88,-1.18 -0.67,0 -0.93,0.47 -0.25,0.46 -0.25,1.33 V 0 h -1.49 v -7.6 h 1.49 z"
       id="path16374" />
    <path
       d="m 28.639996,-2.74 q 0,1.36 -0.72,2.1 -0.71,0.74 -1.94,0.74 -0.76,0 -1.36,-0.33 -0.59,-0.33 -0.93,-0.96 -0.34,-0.64 -0.34,-1.55 0,-1.36 0.71,-2.09 0.71,-0.73 1.95,-0.73 0.77,0 1.36,0.33 0.59,0.33 0.93,0.96 0.34,0.62 0.34,1.53 z m -3.77,0 q 0,0.81 0.26,1.23 0.27,0.41 0.87,0.41 0.59,0 0.85,-0.41 0.27,-0.42 0.27,-1.23 0,-0.81 -0.27,-1.21 -0.26,-0.41 -0.86,-0.41 -0.59,0 -0.86,0.41 -0.26,0.4 -0.26,1.21 z"
       id="path16376" />
    <path
       d="m 32.969991,-5.56 q 0.88,0 1.41,0.48 0.53,0.47 0.53,1.52 V 0 h -1.49 v -3.19 q 0,-0.59 -0.21,-0.88 -0.21,-0.3 -0.67,-0.3 -0.68,0 -0.93,0.47 -0.25,0.46 -0.25,1.33 V 0 h -1.49 v -5.46 h 1.14 l 0.2,0.7 h 0.08 q 0.26,-0.42 0.71,-0.61 0.46,-0.19 0.97,-0.19 z"
       id="path16378" />
    <path
       d="m 43.369989,-1.98 q 0,0.95 -0.69,1.52 -0.68,0.56 -1.94,0.56 -1.13,0 -2.02,-0.43 v -1.41 q 0.51,0.22 1.05,0.41 0.55,0.18 1.09,0.18 0.56,0 0.79,-0.21 0.24,-0.22 0.24,-0.55 0,-0.27 -0.19,-0.46 -0.18,-0.19 -0.49,-0.35 -0.31,-0.17 -0.71,-0.36 -0.25,-0.12 -0.54,-0.28 -0.29,-0.17 -0.56,-0.41 -0.26,-0.25 -0.43,-0.6 -0.17,-0.35 -0.17,-0.84 0,-0.96 0.65,-1.49 0.65,-0.54 1.77,-0.54 0.56,0 1.06,0.13 0.51,0.13 1.06,0.37 l -0.49,1.18 q -0.49,-0.2 -0.88,-0.31 -0.39,-0.11 -0.8,-0.11 -0.43,0 -0.66,0.2 -0.23,0.2 -0.23,0.52 0,0.38 0.34,0.6 0.34,0.22 1.01,0.54 0.55,0.26 0.93,0.54 0.39,0.28 0.6,0.66 0.21,0.38 0.21,0.94 z"
       id="path16380" />
    <path
       d="m 50.589995,-3.64 q 0,1.81 -1.03,2.73 -1.02,0.91 -2.87,0.91 h -2.02 v -7.14 h 2.24 q 1.12,0 1.94,0.4 0.83,0.4 1.28,1.18 0.46,0.77 0.46,1.92 z m -1.57,0.04 q 0,-1.19 -0.52,-1.74 -0.52,-0.56 -1.51,-0.56 h -0.81 v 4.65 h 0.65 q 2.19,0 2.19,-2.35 z"
       id="path16382" />
    <path
       d="m 57.809992,0 h -1.72 l -1.87,-3.01 -0.64,0.46 V 0 h -1.51 v -7.14 h 1.51 v 3.27 q 0.15,-0.21 0.3,-0.42 0.15,-0.21 0.3,-0.42 l 1.93,-2.43 h 1.68 l -2.49,3.16 z"
       id="path16384" />
  </g>
  <g
     aria-label=".NET SDK"
     transform="translate(92.31 275.42)"
     id="text7888"
     class="q"
     style="font-weight:700;font-size:10px;font-family:Inter-Bold, Inter;font-variation-settings:'slnt' 0, 'wght' 700">
    <path
       d="m 0.57,-0.7 q 0,-0.46 0.25,-0.64 0.25,-0.19 0.61,-0.19 0.35,0 0.6,0.19 0.25,0.18 0.25,0.64 0,0.44 -0.25,0.64 -0.25,0.19 -0.6,0.19 -0.36,0 -0.61,-0.19 -0.25,-0.2 -0.25,-0.64 z"
       id="path16353" />
    <path
       d="M 10.079998,0 H 8.1599985 l -3.11,-5.4 h -0.04 q 0.02,0.51 0.04,1.02 0.03,0.51 0.05,1.02 V 0 h -1.35 v -7.14 h 1.91 l 3.1,5.35 h 0.03 q -0.01,-0.5 -0.03,-0.99 -0.02,-0.49 -0.04,-0.98 v -3.38 h 1.3599995 z"
       id="path16355" />
    <path
       d="m 15.989996,0 h -4.11 v -7.14 h 4.11 v 1.24 h -2.6 v 1.57 h 2.42 v 1.24 h -2.42 v 1.84 h 2.6 z"
       id="path16357" />
    <path
       d="m 20.22999,0 h -1.51 v -5.88 h -1.94 v -1.26 h 5.39 v 1.26 h -1.94 z"
       id="path16359" />
    <path
       d="m 30.079997,-1.98 q 0,0.95 -0.69,1.52 -0.68,0.56 -1.94,0.56 -1.13,0 -2.02,-0.43 v -1.41 q 0.51,0.22 1.05,0.41 0.55,0.18 1.09,0.18 0.56,0 0.79,-0.21 0.24,-0.22 0.24,-0.55 0,-0.27 -0.19,-0.46 -0.18,-0.19 -0.49,-0.35 -0.31,-0.17 -0.71,-0.36 -0.25,-0.12 -0.54,-0.28 -0.29,-0.17 -0.56,-0.41 -0.26,-0.25 -0.43,-0.6 -0.17,-0.35 -0.17,-0.84 0,-0.96 0.65,-1.49 0.65,-0.54 1.77,-0.54 0.56,0 1.06,0.13 0.51,0.13 1.06,0.37 l -0.49,1.18 q -0.49,-0.2 -0.88,-0.31 -0.39,-0.11 -0.8,-0.11 -0.43,0 -0.66,0.2 -0.23,0.2 -0.23,0.52 0,0.38 0.34,0.6 0.34,0.22 1.01,0.54 0.55,0.26 0.93,0.54 0.39,0.28 0.6,0.66 0.21,0.38 0.21,0.94 z"
       id="path16361" />
    <path
       d="m 37.300003,-3.64 q 0,1.81 -1.03,2.73 -1.02,0.91 -2.87,0.91 h -2.02 v -7.14 h 2.24 q 1.12,0 1.94,0.4 0.83,0.4 1.28,1.18 0.46,0.77 0.46,1.92 z m -1.57,0.04 q 0,-1.19 -0.52,-1.74 -0.52,-0.56 -1.51,-0.56 h -0.81 v 4.65 h 0.65 q 2.19,0 2.19,-2.35 z"
       id="path16363" />
    <path
       d="m 44.520001,0 h -1.72 l -1.87,-3.01 -0.64,0.46 V 0 h -1.51 v -7.14 h 1.51 v 3.27 q 0.15,-0.21 0.3,-0.42 0.15,-0.21 0.3,-0.42 l 1.93,-2.43 h 1.68 l -2.49,3.16 z"
       id="path16365" />
  </g>
  <g
     aria-label="S3 Compatible SDK"
     transform="translate(68.3 346.57)"
     id="text7892"
     class="q"
     style="font-weight:700;font-size:10px;font-family:Inter-Bold, Inter;font-variation-settings:'slnt' 0, 'wght' 700">
    <path
       d="m 5.11,-1.98 q 0,0.95 -0.69,1.52 Q 3.74,0.1 2.48,0.1 1.35,0.1 0.46,-0.33 v -1.41 q 0.51,0.22 1.05,0.41 0.55,0.18 1.09,0.18 0.56,0 0.79,-0.21 0.24,-0.22 0.24,-0.55 0,-0.27 -0.19,-0.46 Q 3.26,-2.56 2.95,-2.72 2.64,-2.89 2.24,-3.08 1.99,-3.2 1.7,-3.36 1.41,-3.53 1.14,-3.77 0.88,-4.02 0.71,-4.37 0.54,-4.72 0.54,-5.21 q 0,-0.96 0.65,-1.49 0.65,-0.54 1.77,-0.54 0.56,0 1.06,0.13 0.51,0.13 1.06,0.37 L 4.59,-5.56 Q 4.1,-5.76 3.71,-5.87 3.32,-5.98 2.91,-5.98 q -0.43,0 -0.66,0.2 -0.23,0.2 -0.23,0.52 0,0.38 0.34,0.6 0.34,0.22 1.01,0.54 0.55,0.26 0.93,0.54 0.39,0.28 0.6,0.66 0.21,0.38 0.21,0.94 z"
       id="path16322" />
    <path
       d="m 10.620006,-5.54 q 0,0.74 -0.45,1.18 -0.44,0.44 -1.09,0.6 v 0.03 q 0.86,0.1 1.3,0.52 0.45,0.42 0.45,1.13 0,0.62 -0.31,1.12 -0.3,0.49 -0.94,0.78 -0.63,0.28 -1.63,0.28 -1.16,0 -2.06,-0.39 v -1.28 q 0.46,0.23 0.96,0.35 0.51,0.12 0.94,0.12 0.81,0 1.13,-0.28 0.33,-0.28 0.33,-0.79 0,-0.3 -0.15,-0.5 -0.15,-0.21 -0.53,-0.31 -0.37,-0.11 -1.04,-0.11 h -0.54 v -1.16 h 0.55 q 0.66,0 1,-0.12 0.35,-0.13 0.47,-0.34 0.13,-0.22 0.13,-0.5 0,-0.38 -0.24,-0.59 -0.23,-0.22 -0.78,-0.22 -0.51,0 -0.89,0.18 -0.37,0.17 -0.63,0.34 l -0.7,-1.04 q 0.42,-0.3 0.98,-0.5 0.57,-0.2 1.35,-0.2 1.1,0 1.74,0.45 0.65,0.44 0.65,1.25 z"
       id="path16324" />
    <path
       d="m 17.760013,-5.98 q -0.87,0 -1.33,0.65 -0.46,0.65 -0.46,1.78 0,1.14 0.42,1.77 0.43,0.62 1.37,0.62 0.44,0 0.87,-0.1 0.44,-0.1 0.95,-0.28 v 1.27 q -0.47,0.19 -0.93,0.28 -0.46,0.09 -1.03,0.09 -1.1,0 -1.82,-0.45 -0.71,-0.46 -1.05,-1.28 -0.34,-0.83 -0.34,-1.93 0,-1.08 0.39,-1.91 0.39,-0.83 1.13,-1.3 0.75,-0.47 1.83,-0.47 0.53,0 1.06,0.14 0.54,0.13 1.03,0.36 l -0.49,1.23 q -0.4,-0.19 -0.81,-0.33 -0.4,-0.14 -0.79,-0.14 z"
       id="path16326" />
    <path
       d="m 25.940005,-2.74 q 0,1.36 -0.72,2.1 -0.71,0.74 -1.94,0.74 -0.76,0 -1.36,-0.33 -0.59,-0.33 -0.93,-0.96 -0.34,-0.64 -0.34,-1.55 0,-1.36 0.71,-2.09 0.71,-0.73 1.95,-0.73 0.77,0 1.36,0.33 0.59,0.33 0.93,0.96 0.34,0.62 0.34,1.53 z m -3.77,0 q 0,0.81 0.26,1.23 0.27,0.41 0.87,0.41 0.59,0 0.85,-0.41 0.27,-0.42 0.27,-1.23 0,-0.81 -0.27,-1.21 -0.26,-0.41 -0.86,-0.41 -0.59,0 -0.86,0.41 -0.26,0.4 -0.26,1.21 z"
       id="path16328" />
    <path
       d="m 33.579999,-5.56 q 0.93,0 1.4,0.48 0.48,0.47 0.48,1.52 V 0 h -1.49 v -3.19 q 0,-1.18 -0.82,-1.18 -0.59,0 -0.84,0.42 -0.25,0.42 -0.25,1.21 V 0 h -1.49 v -3.19 q 0,-1.18 -0.82,-1.18 -0.62,0 -0.86,0.47 -0.23,0.46 -0.23,1.33 V 0 h -1.49 v -5.46 h 1.14 l 0.2,0.7 h 0.08 q 0.25,-0.42 0.68,-0.61 0.44,-0.19 0.91,-0.19 0.6,0 1.02,0.2 0.42,0.19 0.64,0.6 h 0.13 q 0.25,-0.42 0.69,-0.61 0.45,-0.19 0.92,-0.19 z"
       id="path16330" />
    <path
       d="m 40.030003,-5.56 q 0.92,0 1.49,0.72 0.57,0.71 0.57,2.1 0,1.39 -0.59,2.12 -0.59,0.72 -1.51,0.72 -0.59,0 -0.94,-0.21 -0.35,-0.22 -0.57,-0.49 h -0.08 q 0.08,0.42 0.08,0.8 v 2.2 h -1.49 v -7.86 h 1.21 l 0.21,0.71 h 0.07 q 0.22,-0.33 0.59,-0.57 0.37,-0.24 0.96,-0.24 z m -0.48,1.19 q -0.58,0 -0.82,0.36 -0.23,0.36 -0.25,1.1 v 0.16 q 0,0.79 0.23,1.22 0.24,0.42 0.86,0.42 0.51,0 0.75,-0.42 0.25,-0.43 0.25,-1.23 0,-1.61 -1.02,-1.61 z"
       id="path16332" />
    <path
       d="m 45.559997,-5.57 q 1.1,0 1.68,0.48 0.59,0.47 0.59,1.45 V 0 h -1.04 l -0.29,-0.74 h -0.04 q -0.35,0.44 -0.74,0.64 -0.39,0.2 -1.07,0.2 -0.73,0 -1.21,-0.42 -0.48,-0.43 -0.48,-1.31 0,-0.87 0.61,-1.28 0.61,-0.42 1.83,-0.46 l 0.95,-0.03 v -0.24 q 0,-0.43 -0.23,-0.63 -0.22,-0.2 -0.62,-0.2 -0.4,0 -0.78,0.12 -0.38,0.11 -0.76,0.28 l -0.49,-1.01 q 0.44,-0.23 0.97,-0.36 0.54,-0.13 1.12,-0.13 z m 0.21,3.06 q -0.72,0.02 -1,0.26 -0.28,0.24 -0.28,0.63 0,0.34 0.2,0.49 0.2,0.14 0.52,0.14 0.48,0 0.81,-0.28 0.33,-0.29 0.33,-0.81 v -0.45 z"
       id="path16334" />
    <path
       d="m 51.659998,-1.09 q 0.25,0 0.48,-0.05 0.23,-0.05 0.46,-0.12 v 1.11 q -0.24,0.1 -0.6,0.17 -0.35,0.08 -0.77,0.08 -0.49,0 -0.88,-0.16 -0.38,-0.16 -0.61,-0.55 -0.22,-0.4 -0.22,-1.1 v -2.63 h -0.71 v -0.63 l 0.82,-0.5 0.43,-1.15 h 0.95 v 1.16 h 1.53 v 1.12 h -1.53 v 2.63 q 0,0.31 0.18,0.47 0.18,0.15 0.47,0.15 z"
       id="path16336" />
    <path
       d="m 54.449998,-7.6 q 0.33,0 0.57,0.16 0.24,0.15 0.24,0.57 0,0.41 -0.24,0.57 -0.24,0.16 -0.57,0.16 -0.34,0 -0.58,-0.16 -0.23,-0.16 -0.23,-0.57 0,-0.42 0.23,-0.57 0.24,-0.16 0.58,-0.16 z m 0.74,2.14 V 0 h -1.49 v -5.46 z"
       id="path16338" />
    <path
       d="m 58.240001,-5.83 q 0,0.31 -0.02,0.61 -0.02,0.3 -0.04,0.47 h 0.06 q 0.22,-0.34 0.59,-0.57 0.37,-0.24 0.96,-0.24 0.92,0 1.49,0.72 0.57,0.71 0.57,2.1 0,1.4 -0.58,2.12 -0.58,0.72 -1.52,0.72 -0.6,0 -0.95,-0.21 -0.34,-0.22 -0.56,-0.49 h -0.1 l -0.25,0.6 h -1.14 v -7.6 h 1.49 z m 1.07,1.46 q -0.58,0 -0.82,0.36 -0.23,0.36 -0.25,1.1 v 0.16 q 0,0.79 0.23,1.22 0.24,0.42 0.86,0.42 0.46,0 0.73,-0.42 0.27,-0.43 0.27,-1.23 0,-0.8 -0.28,-1.2 -0.27,-0.41 -0.74,-0.41 z"
       id="path16340" />
    <path
       d="m 64.569995,0 h -1.49 v -7.6 h 1.49 z"
       id="path16342" />
    <path
       d="m 68.379998,-5.56 q 1.13,0 1.79,0.65 0.66,0.64 0.66,1.83 v 0.72 h -3.52 q 0.02,0.63 0.37,0.99 0.36,0.36 0.99,0.36 0.53,0 0.96,-0.1 0.43,-0.11 0.89,-0.33 v 1.15 q -0.4,0.2 -0.85,0.29 -0.44,0.1 -1.07,0.1 -0.82,0 -1.45,-0.3 -0.63,-0.31 -0.99,-0.93 -0.36,-0.62 -0.36,-1.56 0,-0.96 0.32,-1.59 0.33,-0.64 0.91,-0.96 0.58,-0.32 1.35,-0.32 z m 0.01,1.06 q -0.43,0 -0.72,0.28 -0.28,0.28 -0.33,0.87 h 2.09 q -0.01,-0.5 -0.26,-0.82 -0.25,-0.33 -0.78,-0.33 z"
       id="path16344" />
    <path
       d="m 78.970001,-1.98 q 0,0.95 -0.69,1.52 -0.68,0.56 -1.94,0.56 -1.13,0 -2.02,-0.43 v -1.41 q 0.51,0.22 1.05,0.41 0.55,0.18 1.09,0.18 0.56,0 0.79,-0.21 0.24,-0.22 0.24,-0.55 0,-0.27 -0.19,-0.46 -0.18,-0.19 -0.49,-0.35 -0.31,-0.17 -0.71,-0.36 -0.25,-0.12 -0.54,-0.28 -0.29,-0.17 -0.56,-0.41 -0.26,-0.25 -0.43,-0.6 -0.17,-0.35 -0.17,-0.84 0,-0.96 0.65,-1.49 0.65,-0.54 1.77,-0.54 0.56,0 1.06,0.13 0.51,0.13 1.06,0.37 l -0.49,1.18 q -0.49,-0.2 -0.88,-0.31 -0.39,-0.11 -0.8,-0.11 -0.43,0 -0.66,0.2 -0.23,0.2 -0.23,0.52 0,0.38 0.34,0.6 0.34,0.22 1.01,0.54 0.55,0.26 0.93,0.54 0.39,0.28 0.6,0.66 0.21,0.38 0.21,0.94 z"
       id="path16346" />
    <path
       d="m 86.190003,-3.64 q 0,1.81 -1.03,2.73 -1.02,0.91 -2.87,0.91 h -2.02 v -7.14 h 2.24 q 1.12,0 1.94,0.4 0.83,0.4 1.28,1.18 0.46,0.77 0.46,1.92 z m -1.57,0.04 q 0,-1.19 -0.52,-1.74 -0.52,-0.56 -1.51,-0.56 h -0.81 v 4.65 h 0.65 q 2.19,0 2.19,-2.35 z"
       id="path16348" />
    <path
       d="m 93.410004,0 h -1.72 l -1.87,-3.01 -0.64,0.46 V 0 h -1.51 v -7.14 h 1.51 v 3.27 q 0.15,-0.21 0.3,-0.42 0.15,-0.21 0.3,-0.42 l 1.93,-2.43 h 1.68 l -2.49,3.16 z"
       id="path16350" />
  </g>
  <path
     id="rect7894"
     class="h"
     transform="translate(708.68 -335.74) rotate(90)"
     style="fill:#cf2144"
     d="M 349.72,121.53 H 694.70001 V 251.41 H 349.72 Z" />
  <g
     id="g7908">
    <g
       id="g7902">
      <path
         id="rect7896"
         class="f"
         style="fill:#ffffff"
         d="m 508.13,180.61 h 4.49 v 11.71 h -4.49 z" />
      <path
         class="f"
         d="M502.69,180.77l-9.11,4.92c-.13,.07-.29,.07-.42,0l-9.11-4.92c-.2-.11-.42-.16-.65-.16h-.01c-.69,0-1.25,.49-1.25,1.1v10.59s4.49,0,4.49,0v-5.04c0-.31,.38-.5,.68-.34l5.11,2.76c.5,.27,1.14,.28,1.64,.01l5.39-2.79c.3-.15,.68,.04,.68,.34v5.06s4.49,0,4.49,0v-10.59c0-.61-.56-1.1-1.25-1.1h-.01c-.23,0-.46,.06-.65,.16Z"
         id="path7898" />
      <path
         class="f"
         d="M535.01,180.61h-4.55s0,5.33,0,5.33c0,.3-.36,.49-.66,.35l-11.8-5.55c-.18-.09-.38-.13-.59-.13h0c-.69,0-1.25,.49-1.25,1.1v10.59s4.52,0,4.52,0v-5.32c0-.3,.36-.49,.66-.35l11.85,5.55c.18,.08,.38,.13,.59,.13h0c.69,0,1.25-.49,1.25-1.1v-10.6Z"
         id="path7900" />
    </g>
    <path
       class="f"
       d="M538.54,192.32v-11.71h2.07v11.71h-2.07Z"
       id="path7904" />
    <path
       class="f"
       d="M552.77,192.53c-5.56,0-9.5-2.33-9.5-6.06,0-3.71,3.97-6.06,9.5-6.06,5.53,0,9.53,2.33,9.53,6.06,0,3.73-3.9,6.06-9.53,6.06Zm0-10.57c-4.13,0-7.32,1.59-7.32,4.51,0,2.94,3.18,4.51,7.32,4.51,4.13,0,7.34-1.57,7.34-4.51,0-2.92-3.21-4.51-7.34-4.51Z"
       id="path7906" />
  </g>
  <path
     id="rect7910"
     class="j"
     transform="translate(528.09 -154.99) rotate(90)"
     style="fill:#0c1835"
     d="M 169.05,121.61 H 514.03001 V 251.49001 H 169.05 Z" />
  <g
     aria-label="LOADBALANCER"
     transform="translate(322.25 181.96)"
     id="text7924"
     class="g"
     style="font-weight:700;font-size:14px;font-family:Inter-Bold, Inter;font-variation-settings:'slnt' 0, 'wght' 700;fill:#ffffff">
    <path
       d="m 1.26,0 v -9.996 h 2.114 v 8.246 h 4.06 V 0 Z"
       style="letter-spacing:-0.03em"
       id="path16294" />
    <path
       d="m 17.882,-5.012 q 0,1.554 -0.518,2.716 -0.504,1.148 -1.554,1.792 -1.05,0.644 -2.688,0.644 -1.624,0 -2.688,-0.644 -1.0499998,-0.644 -1.5679998,-1.806 -0.504,-1.162 -0.504,-2.716 0,-1.554 0.504,-2.702 0.518,-1.148 1.5679998,-1.778 1.064,-0.644 2.702,-0.644 1.624,0 2.674,0.644 1.05,0.63 1.554,1.792 0.518,1.148 0.518,2.702 z m -7.294,0 q 0,1.568 0.602,2.478 0.602,0.896 1.932,0.896 1.358,0 1.946,-0.896 0.588,-0.91 0.588,-2.478 0,-1.582 -0.588,-2.478 -0.588,-0.896 -1.932,-0.896 -1.344,0 -1.946,0.896 -0.602,0.896 -0.602,2.478 z"
       style="letter-spacing:-0.04em"
       id="path16296" />
    <path
       d="M 25.298,0 24.57,-2.38 H 20.93 L 20.202,0 H 17.92 l 3.528,-10.038 h 2.59 L 27.58,0 Z m -1.96,-6.482 q -0.07,-0.238 -0.182,-0.602 -0.112,-0.364 -0.224,-0.742 -0.112,-0.378 -0.182,-0.658 -0.07,0.28 -0.196,0.7 -0.112,0.406 -0.224,0.784 -0.098,0.364 -0.154,0.518 l -0.714,2.324 h 2.604 z"
       id="path16298" />
    <path
       d="m 37.128008,-5.096 q 0,2.534 -1.442,3.822 -1.428,1.274 -4.018,1.274 h -2.828 v -9.996 h 3.136 q 1.568,0 2.716,0.56 1.162,0.56 1.792,1.652 0.644,1.078 0.644,2.688 z m -2.198,0.056 q 0,-1.666 -0.728,-2.436 -0.728,-0.784 -2.114,-0.784 h -1.134 v 6.51 h 0.91 q 3.066,0 3.066,-3.29 z"
       id="path16300" />
    <path
       d="m -14.832001,6.8039992 q 2.002,0 3.024,0.56 1.022,0.56 1.022,1.974 0,0.8539998 -0.406,1.4419998 -0.392,0.588 -1.134,0.714 v 0.07 q 0.504,0.098 0.91,0.35 0.406,0.252 0.644,0.728 0.238,0.476 0.238,1.26 0,1.358 -0.98,2.128 -0.98,0.77 -2.688,0.77 h -3.738 V 6.8039992 Z m 0.238,3.9619998 q 0.924,0 1.274,-0.294 0.364,-0.294 0.364,-0.8539998 0,-0.574 -0.42,-0.826 -0.42,-0.252 -1.33,-0.252 h -1.12 v 2.2259998 z m -1.232,1.68 v 2.604 h 1.386 q 0.952,0 1.33,-0.364 0.378,-0.378 0.378,-0.994 0,-0.56 -0.392,-0.896 -0.378,-0.35 -1.386,-0.35 z"
       id="path16302" />
    <path
       d="m -2.4139884,16.799999 -0.728,-2.38 h -3.64 l -0.728,2.38 h -2.282 l 3.528,-10.0379998 h 2.59 l 3.54200003,10.0379998 z m -1.96,-6.482 q -0.07,-0.238 -0.182,-0.6019998 -0.112,-0.364 -0.224,-0.742 -0.112,-0.378 -0.182,-0.658 -0.07,0.28 -0.196,0.7 -0.112,0.406 -0.224,0.784 -0.098,0.3639998 -0.154,0.5179998 l -0.714,2.324 h 2.604 z"
       id="path16304" />
    <path
       d="M 1.78,16.799999 V 6.8039992 h 2.114 v 8.2459998 h 4.06 v 1.75 z"
       style="letter-spacing:0.02em"
       id="path16306" />
    <path
       d="m 16.098,16.799999 -0.728,-2.38 h -3.64 l -0.728,2.38 H 8.7200003 L 12.248,6.7619992 h 2.59 L 18.38,16.799999 Z m -1.96,-6.482 q -0.07,-0.238 -0.182,-0.6019998 -0.112,-0.364 -0.224,-0.742 -0.112,-0.378 -0.182,-0.658 -0.07,0.28 -0.196,0.7 -0.112,0.406 -0.224,0.784 -0.098,0.3639998 -0.154,0.5179998 l -0.714,2.324 h 2.604 z"
       id="path16308" />
    <path
       d="m 28.502008,16.799999 h -2.688 l -4.354,-7.5599998 h -0.056 q 0.028,0.714 0.056,1.4279998 0.042,0.714 0.07,1.428 v 4.704 h -1.89 V 6.8039992 h 2.674 l 4.34,7.4899998 h 0.042 q -0.014,-0.7 -0.042,-1.386 -0.028,-0.686 -0.056,-1.372 V 6.8039992 h 1.904 z"
       id="path16310" />
    <path
       d="m 35.264004,8.4279992 q -1.218,0 -1.862,0.91 -0.644,0.9099998 -0.644,2.4919998 0,1.596 0.588,2.478 0.602,0.868 1.918,0.868 0.616,0 1.218,-0.14 0.616,-0.14 1.33,-0.392 v 1.778 q -0.658,0.266 -1.302,0.392 -0.644,0.126 -1.442,0.126 -1.54,0 -2.548,-0.63 -0.994,-0.644 -1.47,-1.792 -0.476,-1.162 -0.476,-2.702 0,-1.512 0.546,-2.6739998 0.546,-1.162 1.582,-1.82 1.05,-0.658 2.562,-0.658 0.742,0 1.484,0.196 0.756,0.182 1.442,0.504 l -0.686,1.722 q -0.56,-0.266 -1.134,-0.462 -0.56,-0.196 -1.106,-0.196 z"
       id="path16312" />
    <path
       d="m 45.693992,16.799999 h -5.754 V 6.8039992 h 5.754 v 1.736 h -3.64 v 2.1979998 h 3.388 v 1.736 h -3.388 v 2.576 h 3.64 z"
       id="path16314" />
    <path
       d="m 50.691984,6.8039992 q 2.044,0 3.01,0.742 0.98,0.742 0.98,2.254 0,0.6859998 -0.266,1.2039998 -0.252,0.504 -0.686,0.868 -0.42,0.35 -0.91,0.574 l 2.94,4.354 h -2.352 l -2.38,-3.836 h -1.134 v 3.836 h -2.114 V 6.8039992 Z m -0.154,1.736 h -0.644 v 2.7019998 h 0.686 q 1.05,0 1.498,-0.35 0.462,-0.35 0.462,-1.0359998 0,-0.714 -0.49,-1.008 -0.476,-0.308 -1.512,-0.308 z"
       id="path16316" />
  </g>
</svg>
