<?xml version="1.0" encoding="UTF-8" standalone="no"?>
<svg
   id="a"
   viewBox="0 0 645.33 414.16"
   version="1.1"
   sodipodi:docname="architecture-multi-site-setup.svg"
   inkscape:version="1.2.2 (b0a8486541, 2022-12-01)"
   xmlns:inkscape="http://www.inkscape.org/namespaces/inkscape"
   xmlns:sodipodi="http://sodipodi.sourceforge.net/DTD/sodipodi-0.dtd"
   xmlns="http://www.w3.org/2000/svg"
   xmlns:svg="http://www.w3.org/2000/svg">
  <sodipodi:namedview
     id="namedview171"
     pagecolor="#505050"
     bordercolor="#eeeeee"
     borderopacity="1"
     inkscape:showpageshadow="0"
     inkscape:pageopacity="0"
     inkscape:pagecheckerboard="0"
     inkscape:deskcolor="#505050"
     showgrid="false"
     showguides="true"
     inkscape:zoom="3.2234344"
     inkscape:cx="441.91996"
     inkscape:cy="246.47624"
     inkscape:window-width="3840"
     inkscape:window-height="2123"
     inkscape:window-x="0"
     inkscape:window-y="0"
     inkscape:window-maximized="1"
     inkscape:current-layer="a">
    <sodipodi:guide
       position="332.87477,220.19"
       orientation="0,-1"
       id="guide1010"
       inkscape:locked="false" />
  </sodipodi:namedview>
  <defs
     id="defs4">
    <style
       id="style2">.b{stroke:#1b1717;}.b,.c{stroke-dasharray:0 0 2 3;}.b,.c,.d,.e{stroke-miterlimit:10;}.b,.c,.e{fill:none;}.c,.e{stroke:#cf2144;}.f{fill:#f6f6f6;}.g,.h,.i{fill:#fff;}.j{fill:#9fbecc;}.k{fill:#cf2144;}.l{fill:#577f9a;}.m{fill:#4e7489;}.d{fill:#afcddd;stroke:#577f9a;stroke-dasharray:0 0 1.36 1.36;stroke-width:.68px;}.n{letter-spacing:0em;}.o{letter-spacing:0em;}.p{font-family:Inter-Medium, Inter;font-size:8px;font-variation-settings:'wght' 500, 'slnt' 0;font-weight:500;}.e{stroke-dasharray:0 0 2 2;}.q{letter-spacing:-.06em;}.r,.h,.i{font-family:Inter-Bold, Inter;font-variation-settings:'wght' 700, 'slnt' 0;font-weight:700;}.r,.i{font-size:10.56px;}.s{letter-spacing:0em;}.t{letter-spacing:0em;}.h{font-size:14px;}.u{letter-spacing:0em;}</style>
  </defs>
  <rect
     class="k"
     x="13.67"
     y="167"
     width="171.42"
     height="52.93"
     id="rect6" />
  <g
     id="g20">
    <g
       id="g14">
      <rect
         class="g"
         x="60.32"
         y="190.1"
         width="3.92"
         height="10.21"
         id="rect8" />
      <path
         class="g"
         d="M55.58,190.24l-7.95,4.29c-.11,.06-.26,.06-.37,0l-7.95-4.29c-.17-.09-.37-.14-.57-.14h0c-.6,0-1.09,.43-1.09,.96v9.24s3.91,0,3.91,0v-4.4c0-.27,.33-.44,.6-.29l4.45,2.41c.44,.24,.99,.24,1.43,.01l4.7-2.43c.26-.14,.59,.03,.59,.3v4.41s3.91,0,3.91,0v-9.24c0-.53-.49-.96-1.09-.96h0c-.2,0-.4,.05-.57,.14Z"
         id="path10" />
      <path
         class="g"
         d="M83.76,190.1h-3.97s0,4.65,0,4.65c0,.26-.31,.43-.58,.31l-10.29-4.84c-.16-.07-.33-.11-.51-.11h0c-.6,0-1.09,.43-1.09,.96v9.24s3.94,0,3.94,0v-4.64c0-.26,.31-.43,.57-.31l10.33,4.84c.16,.07,.33,.11,.51,.11h0c.6,0,1.09-.43,1.09-.96v-9.24Z"
         id="path12" />
    </g>
    <path
       class="g"
       d="M86.84,200.31v-10.21h1.8v10.21h-1.8Z"
       id="path16" />
    <path
       class="g"
       d="M99.25,200.49c-4.85,0-8.28-2.03-8.28-5.29,0-3.24,3.46-5.29,8.28-5.29s8.31,2.03,8.31,5.29c0,3.26-3.4,5.29-8.31,5.29Zm0-9.22c-3.6,0-6.38,1.39-6.38,3.93,0,2.56,2.78,3.93,6.38,3.93s6.4-1.37,6.4-3.93-2.8-3.93-6.4-3.93Z"
       id="path18" />
  </g>
  <text
     class="h"
     transform="translate(116.36 200.27)"
     id="text24"><tspan
       x="0"
       y="0"
       id="tspan22">SITE A</tspan></text>
  <rect
     class="k"
     x="447.14999"
     y="165.23999"
     width="171.42"
     height="52.93"
     id="rect26" />
  <g
     id="g40"
     transform="translate(3.79,112.53)">
    <g
       id="g34">
      <rect
         class="g"
         x="490.01999"
         y="75.800003"
         width="3.9200001"
         height="10.21"
         id="rect28" />
      <path
         class="g"
         d="m 485.27,75.94 -7.95,4.29 c -0.11,0.06 -0.26,0.06 -0.37,0 L 469,75.94 c -0.17,-0.09 -0.37,-0.14 -0.57,-0.14 v 0 c -0.6,0 -1.09,0.43 -1.09,0.96 V 86 c 0,0 3.91,0 3.91,0 v -4.4 c 0,-0.27 0.33,-0.44 0.6,-0.29 l 4.45,2.41 c 0.44,0.24 0.99,0.24 1.43,0.01 l 4.7,-2.43 c 0.26,-0.14 0.59,0.03 0.59,0.3 v 4.41 c 0,0 3.91,0 3.91,0 v -9.24 c 0,-0.53 -0.49,-0.96 -1.09,-0.96 v 0 c -0.2,0 -0.4,0.05 -0.57,0.14 z"
         id="path30" />
      <path
         class="g"
         d="m 513.46,75.8 h -3.97 c 0,0 0,4.65 0,4.65 0,0.26 -0.31,0.43 -0.58,0.31 l -10.29,-4.84 c -0.16,-0.07 -0.33,-0.11 -0.51,-0.11 v 0 c -0.6,0 -1.09,0.43 -1.09,0.96 v 9.24 c 0,0 3.94,0 3.94,0 v -4.64 c 0,-0.26 0.31,-0.43 0.57,-0.31 l 10.33,4.84 c 0.16,0.07 0.33,0.11 0.51,0.11 v 0 c 0.6,0 1.09,-0.43 1.09,-0.96 v -9.24 z"
         id="path32" />
    </g>
    <path
       class="g"
       d="M 516.53,86.01 V 75.8 h 1.8 v 10.21 z"
       id="path36" />
    <path
       class="g"
       d="m 528.94,86.19 c -4.85,0 -8.28,-2.03 -8.28,-5.29 0,-3.24 3.46,-5.29 8.28,-5.29 4.82,0 8.31,2.03 8.31,5.29 0,3.26 -3.4,5.29 -8.31,5.29 z m 0,-9.22 c -3.6,0 -6.38,1.39 -6.38,3.93 0,2.56 2.78,3.93 6.38,3.93 3.6,0 6.4,-1.37 6.4,-3.93 0,-2.56 -2.8,-3.93 -6.4,-3.93 z"
       id="path38" />
  </g>
  <text
     class="h"
     id="text44"
     x="550.44995"
     y="198.5"><tspan
       x="550.44995"
       y="198.5"
       id="tspan42">SITE B</tspan></text>
  <rect
     class="f"
     x="14.99"
     y="18.85"
     width="156.61"
     height="53.63"
     id="rect66" />
  <line
     class="c"
     x1="29.24"
     y1="35.61"
     x2="61.31"
     y2="35.61"
     id="line68" />
  <line
     class="b"
     x1="29.24"
     y1="53.59"
     x2="61.31"
     y2="53.59"
     id="line70" />
  <text
     class="p"
     id="text82"><tspan
       class="n"
       x="78.16"
       y="38.31"
       id="tspan72">R</tspan><tspan
       class="t"
       x="83.26"
       y="38.31"
       id="tspan74">eplication </tspan><tspan
       class="q"
       x="122.66"
       y="38.31"
       id="tspan76">T</tspan><tspan
       class="u"
       x="127.41"
       y="38.31"
       id="tspan78">r</tspan><tspan
       class="s"
       x="130.45"
       y="38.31"
       id="tspan80">affic</tspan></text>
  <text
     class="p"
     id="text92"><tspan
       class="n"
       x="78.16"
       y="56.49"
       id="tspan84">R</tspan><tspan
       class="t"
       x="83.26"
       y="56.49"
       id="tspan86">eplica</tspan><tspan
       class="o"
       x="105.98"
       y="56.49"
       id="tspan88">t</tspan><tspan
       x="108.91"
       y="56.49"
       id="tspan90">ed Data</tspan></text>
  <polygon
     class="l"
     points="71.79 238.78 16.73 238.78 16.73 262.76 77.63 262.76 77.63 245.89 71.79 238.78"
     id="polygon94" />
  <polygon
     class="m"
     points="68.51 262.76 77.63 262.76 77.63 245.89 76.59 244.63 68.51 244.63 68.51 262.76"
     id="polygon96" />
  <text
     class="i"
     transform="translate(24.65 255.09)"
     id="text100"><tspan
       x="0"
       y="0"
       id="tspan98">CONFIG</tspan></text>
  <polygon
     class="l"
     points="125.68 246.99 70.63 246.99 70.63 270.97 131.52 270.97 131.52 254.1 125.68 246.99"
     id="polygon102" />
  <g
     id="g108">
    <polygon
       class="m"
       points="122.08 270.98 131.2 270.98 131.2 254.11 130.16 252.84 122.08 252.84 122.08 270.98"
       id="polygon104" />
    <polygon
       class="l"
       points="179.25 255.2 124.2 255.2 124.2 279.19 185.09 279.19 185.09 262.32 179.25 255.2"
       id="polygon106" />
  </g>
  <text
     class="i"
     transform="translate(88.85 263.3)"
     id="text112"><tspan
       x="0"
       y="0"
       id="tspan110">IAM</tspan></text>
  <text
     class="i"
     transform="translate(130.39 271.51)"
     id="text116"><tspan
       x="0"
       y="0"
       id="tspan114">BUCKETS</tspan></text>
  <polygon
     class="d"
     points="497.83,125 442.77,125 442.77,148.99 503.67,148.99 503.67,132.12 "
     id="polygon118"
     transform="translate(3.79,110.53)" />
  <polygon
     class="j"
     points="503.67,148.99 503.67,132.12 502.63,130.85 494.55,130.85 494.55,148.99 "
     id="polygon120"
     transform="translate(3.79,112.53)" />
  <text
     class="r"
     id="text124"
     x="454.48001"
     y="253.85001"><tspan
       x="454.48001"
       y="253.85001"
       id="tspan122">CONFIG</tspan></text>
  <polygon
     class="d"
     points="496.67,133.21 496.67,157.2 557.56,157.2 557.56,140.33 551.72,133.21 "
     id="polygon126"
     transform="translate(3.79,112.53)" />
  <polygon
     class="j"
     points="557.24,157.21 557.24,140.34 556.2,139.07 548.12,139.07 548.12,157.21 "
     id="polygon128"
     transform="translate(3.79,112.53)" />
  <polygon
     class="d"
     points="550.23,141.43 550.23,165.42 611.13,165.42 611.13,148.55 605.29,141.43 "
     id="polygon130"
     transform="translate(3.79,112.53)" />
  <text
     class="r"
     id="text134"
     x="518.67999"
     y="262.06"><tspan
       x="518.67999"
       y="262.06"
       id="tspan132">IAM</tspan></text>
  <text
     class="r"
     id="text138"
     x="560.21997"
     y="270.26999"><tspan
       x="560.21997"
       y="270.26999"
       id="tspan136">BUCKETS</tspan></text>
  <path
     id="polyline162"
     class="e"
     style="fill:none;stroke:#cf2144;stroke-miterlimit:10;stroke-dasharray:0, 0, 2, 2"
     d="m 185.09,193.47 257.68,0.5"
     sodipodi:nodetypes="cc" />
  <polyline
     class="k"
     points="438.98 80.56 438.98 78.37 443.36 80.91 438.98 83.44 438.98 81.55"
     id="polyline166"
     transform="translate(3.79,112.53)" />
</svg>
