<?xml version="1.0" encoding="UTF-8" standalone="no"?>
<svg
   id="a"
   viewBox="0 0 645.33 320.16"
   version="1.1"
   sodipodi:docname="architecture-multi-site-latency.svg"
   width="645.33002"
   height="320.16"
   inkscape:version="1.2.2 (b0a8486541, 2022-12-01)"
   xmlns:inkscape="http://www.inkscape.org/namespaces/inkscape"
   xmlns:sodipodi="http://sodipodi.sourceforge.net/DTD/sodipodi-0.dtd"
   xmlns="http://www.w3.org/2000/svg"
   xmlns:svg="http://www.w3.org/2000/svg">
  <sodipodi:namedview
     id="namedview277"
     pagecolor="#505050"
     bordercolor="#eeeeee"
     borderopacity="1"
     inkscape:showpageshadow="0"
     inkscape:pageopacity="0"
     inkscape:pagecheckerboard="0"
     inkscape:deskcolor="#505050"
     showgrid="false"
     inkscape:zoom="3.2234344"
     inkscape:cx="343.57765"
     inkscape:cy="227.86256"
     inkscape:window-width="3840"
     inkscape:window-height="2123"
     inkscape:window-x="3840"
     inkscape:window-y="0"
     inkscape:window-maximized="1"
     inkscape:current-layer="a" />
  <defs
     id="defs4">
    <style
       id="style2">.b,.c{stroke-dasharray:0 0 2 3;}.b,.c,.d,.e,.f,.g,.h,.i,.j,.k,.l{stroke-miterlimit:10;}.b,.c,.d,.e,.f,.g,.h,.i,.j,.l{fill:none;}.b,.i{stroke:#1b1717;}.c,.g,.j{stroke:#cf2144;}.m{letter-spacing:-.04em;}.n{fill:#f6f6f6;}.o,.p,.q,.k{fill:#fff;}.r{fill:#afcddd;}.s{fill:#cf2144;}.t{fill:#1b1717;}.u{fill:#577f9a;}.d{stroke-dasharray:0 0 1.39 1.39;}.d,.e,.f,.h,.l{stroke:#577f9a;stroke-width:.68px;}.v{letter-spacing:0em;}.w{font-family:RobotoMono-Regular, 'Roboto Mono';font-variation-settings:'wght' 400;}.w,.x{font-size:8px;}.e{stroke-dasharray:0 0 1.37 1.37;}.f{stroke-dasharray:0 0 1.38 1.38;}.y{letter-spacing:0em;}.x{font-family:Inter-Medium, Inter;font-variation-settings:'wght' 500, 'slnt' 0;font-weight:500;}.g{stroke-dasharray:0 0 2 2;}.h{stroke-dasharray:0 0 1.27 1.27;}.z{letter-spacing:-.06em;}.aa{letter-spacing:0em;}.ab{letter-spacing:-.09em;}.ac{letter-spacing:0em;}.p{font-size:14px;}.p,.q,.ad{font-family:Inter-Bold, Inter;font-variation-settings:'wght' 700, 'slnt' 0;font-weight:700;}.q,.ad{font-size:9px;}.ae{letter-spacing:0em;}.k{stroke:#000;stroke-width:1.08px;}</style>
  </defs>
  <g
     id="g10"
     transform="translate(0,4)">
    <path
       id="polyline6"
       class="t"
       style="fill:#1b1717"
       d="m 99.6,151.11 h 2.19 l -2.53,4.38 -2.53,-4.38 h 1.88" />
    <path
       id="polyline8"
       class="i"
       style="fill:none;stroke:#1b1717;stroke-miterlimit:10"
       d="M 99.26,151.11 V 105.35 H 322.73 V 38.9" />
  </g>
  <path
     id="rect12"
     class="n"
     style="fill:#f6f6f6"
     d="M 0.02,4.4099998 H 156.63 V 70.289997 H 0.02 Z" />
  <path
     id="line14"
     class="c"
     style="fill:none;stroke:#cf2144;stroke-miterlimit:10;stroke-dasharray:0, 0, 2, 3"
     d="M 14.26,21.18 H 46.34" />
  <path
     id="line16"
     class="b"
     style="fill:none;stroke:#1b1717;stroke-miterlimit:10;stroke-dasharray:0, 0, 2, 3"
     d="M 14.26,39.150002 H 46.34" />
  <g
     aria-label="ReplicationTraffic"
     id="text28"
     class="x"
     style="font-weight:500;font-size:8px;font-family:Inter-Medium, Inter;font-variation-settings:'slnt' 0, 'wght' 500">
    <path
       d="m 65.54,18.158001 q 1.096,0 1.616,0.408 0.528,0.408 0.528,1.24 0,0.44 -0.168,0.744 -0.16,0.296 -0.416,0.488 -0.256,0.184 -0.536,0.296 l 1.6,2.536 h -0.992 l -1.376,-2.312 h -0.992 v 2.312 H 63.94 v -5.712 z m -0.056,0.736 h -0.68 v 1.944 h 0.72 q 0.664,0 0.968,-0.248 0.304,-0.256 0.304,-0.752 0,-0.512 -0.32,-0.728 -0.32,-0.216 -0.992,-0.216 z"
       style="letter-spacing:0em"
       id="path18418" />
    <path
       d="m 70.650001,19.478001 q 0.848,0 1.336,0.528 0.488,0.52 0.488,1.424 v 0.464 h -2.896 q 0.016,0.664 0.344,1.016 0.336,0.352 0.936,0.352 0.416,0 0.736,-0.072 0.328,-0.08 0.672,-0.232 v 0.704 q -0.328,0.144 -0.656,0.216 -0.328,0.072 -0.784,0.072 -0.632,0 -1.112,-0.248 -0.472,-0.248 -0.744,-0.736 -0.264,-0.496 -0.264,-1.216 0,-0.728 0.24,-1.232 0.248,-0.504 0.68,-0.768 0.44,-0.272 1.024,-0.272 z m 0,0.656 q -0.456,0 -0.736,0.296 -0.272,0.296 -0.32,0.84 h 2.032 q -0.008,-0.504 -0.248,-0.816 -0.232,-0.32 -0.728,-0.32 z"
       style="letter-spacing:0em"
       id="path18420" />
    <path
       d="m 75.682005,19.478001 q 0.776,0 1.248,0.56 0.48,0.56 0.48,1.672 0,1.096 -0.48,1.672 -0.48,0.568 -1.256,0.568 -0.496,0 -0.808,-0.176 -0.304,-0.184 -0.488,-0.432 h -0.056 q 0.024,0.144 0.04,0.344 0.016,0.192 0.016,0.344 v 1.76 h -0.848 v -6.232 h 0.688 l 0.12,0.576 h 0.04 q 0.184,-0.272 0.488,-0.464 0.312,-0.192 0.816,-0.192 z m -0.2,0.696 q -0.6,0 -0.848,0.352 -0.248,0.344 -0.256,1.048 v 0.128 q 0,0.744 0.24,1.152 0.24,0.4 0.88,0.4 0.528,0 0.784,-0.432 0.256,-0.432 0.256,-1.128 0,-0.704 -0.256,-1.112 -0.256,-0.408 -0.8,-0.408 z"
       style="letter-spacing:0em"
       id="path18422" />
    <path
       d="m 79.338012,23.870001 h -0.848 v -6.08 h 0.848 z"
       style="letter-spacing:0em"
       id="path18424" />
    <path
       d="m 81.098007,17.918001 q 0.192,0 0.336,0.112 0.144,0.112 0.144,0.376 0,0.256 -0.144,0.376 -0.144,0.112 -0.336,0.112 -0.208,0 -0.352,-0.112 -0.136,-0.12 -0.136,-0.376 0,-0.264 0.136,-0.376 0.144,-0.112 0.352,-0.112 z m 0.416,1.64 v 4.312 h -0.848 v -4.312 z"
       style="letter-spacing:0em"
       id="path18426" />
    <path
       d="m 84.578001,23.950001 q -0.896,0 -1.44,-0.528 -0.544,-0.536 -0.544,-1.68 0,-0.8 0.264,-1.296 0.264,-0.496 0.728,-0.728 0.464,-0.24 1.056,-0.24 0.36,0 0.672,0.08 0.32,0.072 0.528,0.168 l -0.256,0.688 q -0.224,-0.088 -0.48,-0.152 -0.248,-0.064 -0.472,-0.064 -1.168,0 -1.168,1.536 0,0.736 0.288,1.12 0.288,0.384 0.848,0.384 0.36,0 0.632,-0.08 0.28,-0.08 0.512,-0.208 v 0.736 q -0.232,0.136 -0.504,0.2 -0.272,0.064 -0.664,0.064 z"
       style="letter-spacing:0em"
       id="path18428" />
    <path
       d="m 88.434,19.478001 q 0.808,0 1.208,0.36 0.408,0.352 0.408,1.112 v 2.92 h -0.6 l -0.168,-0.6 H 89.25 q -0.28,0.352 -0.592,0.52 -0.304,0.16 -0.848,0.16 -0.584,0 -0.968,-0.312 -0.384,-0.32 -0.384,-0.992 0,-0.656 0.496,-1 0.496,-0.344 1.528,-0.376 l 0.736,-0.024 v -0.24 q 0,-0.472 -0.216,-0.664 -0.216,-0.2 -0.608,-0.2 -0.328,0 -0.632,0.096 -0.304,0.096 -0.584,0.232 l -0.272,-0.616 q 0.304,-0.16 0.696,-0.264 0.4,-0.112 0.832,-0.112 z m 0.2,2.336 q -0.736,0.032 -1.024,0.248 -0.28,0.208 -0.28,0.592 0,0.336 0.2,0.488 0.2,0.152 0.52,0.152 0.496,0 0.824,-0.28 0.336,-0.28 0.336,-0.84 v -0.376 z"
       style="letter-spacing:0em"
       id="path18430" />
    <path
       d="m 92.905995,23.262001 q 0.168,0 0.344,-0.024 0.176,-0.032 0.304,-0.08 v 0.64 q -0.144,0.064 -0.376,0.104 -0.224,0.048 -0.456,0.048 -0.352,0 -0.648,-0.12 -0.296,-0.12 -0.472,-0.416 -0.168,-0.296 -0.168,-0.824 v -2.384 h -0.6 v -0.384 l 0.632,-0.32 0.296,-0.912 h 0.52 v 0.968 h 1.232 v 0.648 h -1.232 v 2.368 q 0,0.352 0.168,0.52 0.176,0.168 0.456,0.168 z"
       style="letter-spacing:0em"
       id="path18432" />
    <path
       d="m 94.84999,17.918001 q 0.192,0 0.336,0.112 0.144,0.112 0.144,0.376 0,0.256 -0.144,0.376 -0.144,0.112 -0.336,0.112 -0.208,0 -0.352,-0.112 -0.136,-0.12 -0.136,-0.376 0,-0.264 0.136,-0.376 0.144,-0.112 0.352,-0.112 z m 0.416,1.64 v 4.312 h -0.848 v -4.312 z"
       style="letter-spacing:0em"
       id="path18434" />
    <path
       d="m 100.39399,21.710001 q 0,1.072 -0.552005,1.656 -0.552,0.584 -1.488,0.584 -0.584,0 -1.04,-0.264 -0.448,-0.264 -0.712,-0.76 -0.256,-0.504 -0.256,-1.216 0,-1.072 0.544,-1.648 0.544,-0.584 1.488,-0.584 0.592,0 1.04,0.264 0.456,0.256 0.712005,0.752 0.264,0.496 0.264,1.216 z m -3.176005,0 q 0,0.728 0.272,1.136 0.28,0.408 0.88,0.408 0.6,0 0.872,-0.408 0.28,-0.408 0.28,-1.136 0,-0.736 -0.28,-1.128 -0.28,-0.4 -0.88,-0.4 -0.6,0 -0.872,0.4 -0.272,0.392 -0.272,1.128 z"
       style="letter-spacing:0em"
       id="path18436" />
    <path
       d="m 103.64998,19.478001 q 0.752,0 1.152,0.376 0.4,0.376 0.4,1.208 v 2.808 h -0.84 v -2.688 q 0,-1.008 -0.888,-1.008 -0.664,0 -0.912,0.392 -0.248,0.392 -0.248,1.128 v 2.176 h -0.848 v -4.312 h 0.672 l 0.12,0.576 h 0.048 q 0.208,-0.336 0.568,-0.496 0.368,-0.16 0.776,-0.16 z"
       style="letter-spacing:0em"
       id="path18438" />
    <path
       d="m 110.37,23.870001 h -0.864 v -4.968 h -1.712 v -0.744 h 4.288 v 0.744 h -1.712 z"
       style="letter-spacing:-0.06em"
       id="path18440" />
    <path
       d="m 115.232,19.478001 q 0.112,0 0.24,0.016 0.136,0.008 0.232,0.024 l -0.088,0.792 q -0.208,-0.056 -0.432,-0.056 -0.32,0 -0.608,0.16 -0.28,0.16 -0.456,0.464 -0.168,0.296 -0.168,0.72 v 2.272 h -0.848 v -4.312 h 0.672 l 0.112,0.768 h 0.032 q 0.208,-0.344 0.536,-0.592 0.328,-0.256 0.776,-0.256 z"
       style="letter-spacing:0em"
       id="path18442" />
    <path
       d="m 117.806,19.478001 q 0.808,0 1.208,0.36 0.408,0.352 0.408,1.112 v 2.92 h -0.6 l -0.168,-0.6 h -0.032 q -0.28,0.352 -0.592,0.52 -0.304,0.16 -0.848,0.16 -0.584,0 -0.968,-0.312 -0.384,-0.32 -0.384,-0.992 0,-0.656 0.496,-1 0.496,-0.344 1.528,-0.376 l 0.736,-0.024 v -0.24 q 0,-0.472 -0.216,-0.664 -0.216,-0.2 -0.608,-0.2 -0.328,0 -0.632,0.096 -0.304,0.096 -0.584,0.232 l -0.272,-0.616 q 0.304,-0.16 0.696,-0.264 0.4,-0.112 0.832,-0.112 z m 0.2,2.336 q -0.736,0.032 -1.024,0.248 -0.28,0.208 -0.28,0.592 0,0.336 0.2,0.488 0.2,0.152 0.52,0.152 0.496,0 0.824,-0.28 0.336,-0.28 0.336,-0.84 v -0.376 z"
       style="letter-spacing:0em"
       id="path18444" />
    <path
       d="m 122.83,20.206001 h -1.064 v 3.664 h -0.848 v -3.664 h -0.728 v -0.4 l 0.728,-0.264 v -0.272 q 0,-0.824 0.376,-1.168 0.384,-0.352 1.064,-0.352 0.28,0 0.512,0.048 0.232,0.048 0.392,0.104 l -0.216,0.648 q -0.136,-0.04 -0.304,-0.072 -0.16,-0.04 -0.344,-0.04 -0.632,0 -0.632,0.84 v 0.28 h 1.064 z m 2.856,0 h -1.064 v 3.664 h -0.848 v -3.664 h -0.728 v -0.4 l 0.728,-0.264 v -0.272 q 0,-0.824 0.376,-1.168 0.384,-0.352 1.064,-0.352 0.28,0 0.512,0.048 0.232,0.048 0.392,0.104 l -0.216,0.648 q -0.136,-0.04 -0.304,-0.072 -0.16,-0.04 -0.344,-0.04 -0.632,0 -0.632,0.84 v 0.28 h 1.064 z m 1.176,-2.288 q 0.192,0 0.336,0.112 0.144,0.112 0.144,0.376 0,0.256 -0.144,0.376 -0.144,0.112 -0.336,0.112 -0.208,0 -0.352,-0.112 -0.136,-0.12 -0.136,-0.376 0,-0.264 0.136,-0.376 0.144,-0.112 0.352,-0.112 z m 0.416,1.64 v 4.312 h -0.848 v -4.312 z"
       style="letter-spacing:0em"
       id="path18446" />
    <path
       d="m 130.342,23.950001 q -0.896,0 -1.44,-0.528 -0.544,-0.536 -0.544,-1.68 0,-0.8 0.264,-1.296 0.264,-0.496 0.728,-0.728 0.464,-0.24 1.056,-0.24 0.36,0 0.672,0.08 0.32,0.072 0.528,0.168 l -0.256,0.688 q -0.224,-0.088 -0.48,-0.152 -0.248,-0.064 -0.472,-0.064 -1.168,0 -1.168,1.536 0,0.736 0.288,1.12 0.288,0.384 0.848,0.384 0.36,0 0.632,-0.08 0.28,-0.08 0.512,-0.208 v 0.736 q -0.232,0.136 -0.504,0.2 -0.272,0.064 -0.664,0.064 z"
       style="letter-spacing:0em"
       id="path18448" />
  </g>
  <g
     aria-label="Replicated Data"
     id="text38"
     class="x"
     style="font-weight:500;font-size:8px;font-family:Inter-Medium, Inter;font-variation-settings:'slnt' 0, 'wght' 500">
    <path
       d="m 65.54,36.337999 q 1.096,0 1.616,0.408 0.528,0.408 0.528,1.24 0,0.44 -0.168,0.744 -0.16,0.296 -0.416,0.488 -0.256,0.184 -0.536,0.296 l 1.6,2.536 h -0.992 l -1.376,-2.312 h -0.992 v 2.312 H 63.94 v -5.712 z m -0.056,0.736 h -0.68 v 1.944 h 0.72 q 0.664,0 0.968,-0.248 0.304,-0.256 0.304,-0.752 0,-0.512 -0.32,-0.728 -0.32,-0.216 -0.992,-0.216 z"
       style="letter-spacing:0em"
       id="path18389" />
    <path
       d="m 70.650001,37.657999 q 0.848,0 1.336,0.528 0.488,0.52 0.488,1.424 v 0.464 h -2.896 q 0.016,0.664 0.344,1.016 0.336,0.352 0.936,0.352 0.416,0 0.736,-0.072 0.328,-0.08 0.672,-0.232 v 0.704 q -0.328,0.144 -0.656,0.216 -0.328,0.072 -0.784,0.072 -0.632,0 -1.112,-0.248 -0.472,-0.248 -0.744,-0.736 -0.264,-0.496 -0.264,-1.216 0,-0.728 0.24,-1.232 0.248,-0.504 0.68,-0.768 0.44,-0.272 1.024,-0.272 z m 0,0.656 q -0.456,0 -0.736,0.296 -0.272,0.296 -0.32,0.84 h 2.032 q -0.008,-0.504 -0.248,-0.816 -0.232,-0.32 -0.728,-0.32 z"
       style="letter-spacing:0em"
       id="path18391" />
    <path
       d="m 75.682005,37.657999 q 0.776,0 1.248,0.56 0.48,0.56 0.48,1.672 0,1.096 -0.48,1.672 -0.48,0.568 -1.256,0.568 -0.496,0 -0.808,-0.176 -0.304,-0.184 -0.488,-0.432 h -0.056 q 0.024,0.144 0.04,0.344 0.016,0.192 0.016,0.344 v 1.76 h -0.848 v -6.232 h 0.688 l 0.12,0.576 h 0.04 q 0.184,-0.272 0.488,-0.464 0.312,-0.192 0.816,-0.192 z m -0.2,0.696 q -0.6,0 -0.848,0.352 -0.248,0.344 -0.256,1.048 v 0.128 q 0,0.744 0.24,1.152 0.24,0.4 0.88,0.4 0.528,0 0.784,-0.432 0.256,-0.432 0.256,-1.128 0,-0.704 -0.256,-1.112 -0.256,-0.408 -0.8,-0.408 z"
       style="letter-spacing:0em"
       id="path18393" />
    <path
       d="m 79.338012,42.049999 h -0.848 v -6.08 h 0.848 z"
       style="letter-spacing:0em"
       id="path18395" />
    <path
       d="m 81.098007,36.097999 q 0.192,0 0.336,0.112 0.144,0.112 0.144,0.376 0,0.256 -0.144,0.376 -0.144,0.112 -0.336,0.112 -0.208,0 -0.352,-0.112 -0.136,-0.12 -0.136,-0.376 0,-0.264 0.136,-0.376 0.144,-0.112 0.352,-0.112 z m 0.416,1.64 v 4.312 h -0.848 v -4.312 z"
       style="letter-spacing:0em"
       id="path18397" />
    <path
       d="m 84.578001,42.129999 q -0.896,0 -1.44,-0.528 -0.544,-0.536 -0.544,-1.68 0,-0.8 0.264,-1.296 0.264,-0.496 0.728,-0.728 0.464,-0.24 1.056,-0.24 0.36,0 0.672,0.08 0.32,0.072 0.528,0.168 l -0.256,0.688 q -0.224,-0.088 -0.48,-0.152 -0.248,-0.064 -0.472,-0.064 -1.168,0 -1.168,1.536 0,0.736 0.288,1.12 0.288,0.384 0.848,0.384 0.36,0 0.632,-0.08 0.28,-0.08 0.512,-0.208 v 0.736 q -0.232,0.136 -0.504,0.2 -0.272,0.064 -0.664,0.064 z"
       style="letter-spacing:0em"
       id="path18399" />
    <path
       d="m 88.434,37.657999 q 0.808,0 1.208,0.36 0.408,0.352 0.408,1.112 v 2.92 h -0.6 l -0.168,-0.6 H 89.25 q -0.28,0.352 -0.592,0.52 -0.304,0.16 -0.848,0.16 -0.584,0 -0.968,-0.312 -0.384,-0.32 -0.384,-0.992 0,-0.656 0.496,-1 0.496,-0.344 1.528,-0.376 l 0.736,-0.024 v -0.24 q 0,-0.472 -0.216,-0.664 -0.216,-0.2 -0.608,-0.2 -0.328,0 -0.632,0.096 -0.304,0.096 -0.584,0.232 l -0.272,-0.616 q 0.304,-0.16 0.696,-0.264 0.4,-0.112 0.832,-0.112 z m 0.2,2.336 q -0.736,0.032 -1.024,0.248 -0.28,0.208 -0.28,0.592 0,0.336 0.2,0.488 0.2,0.152 0.52,0.152 0.496,0 0.824,-0.28 0.336,-0.28 0.336,-0.84 v -0.376 z"
       style="letter-spacing:0em"
       id="path18401" />
    <path
       d="m 93.226002,41.441999 q 0.168,0 0.344,-0.024 0.176,-0.032 0.304,-0.08 v 0.64 q -0.144,0.064 -0.376,0.104 -0.224,0.048 -0.456,0.048 -0.352,0 -0.648,-0.12 -0.296,-0.12 -0.472,-0.416 -0.168,-0.296 -0.168,-0.824 v -2.384 h -0.6 v -0.384 l 0.632,-0.32 0.296,-0.912 h 0.52 v 0.968 h 1.232 v 0.648 h -1.232 v 2.368 q 0,0.352 0.168,0.52 0.176,0.168 0.456,0.168 z"
       style="letter-spacing:0em"
       id="path18403" />
    <path
       d="m 96.29,37.657999 q 0.848,0 1.336,0.528 0.488,0.52 0.488,1.424 v 0.464 h -2.896 q 0.016,0.664 0.344,1.016 0.336,0.352 0.936,0.352 0.416,0 0.736,-0.072 0.328,-0.08 0.672,-0.232 v 0.704 q -0.328,0.144 -0.656,0.216 -0.328,0.072 -0.784,0.072 -0.632,0 -1.112,-0.248 -0.472,-0.248 -0.744,-0.736 -0.264,-0.496 -0.264,-1.216 0,-0.728 0.24,-1.232 0.248,-0.504 0.68,-0.768 0.44,-0.272 1.024,-0.272 z m 0,0.656 q -0.456,0 -0.736,0.296 -0.272,0.296 -0.32,0.84 h 2.032 q -0.008,-0.504 -0.248,-0.816 -0.232,-0.32 -0.728,-0.32 z"
       id="path18405" />
    <path
       d="m 100.65,42.129999 q -0.775996,0 -1.255996,-0.56 -0.472,-0.56 -0.472,-1.664 0,-1.112 0.48,-1.68 0.48,-0.568 1.263996,-0.568 0.488,0 0.8,0.184 0.312,0.184 0.504,0.448 h 0.048 q -0.016,-0.104 -0.04,-0.32 -0.024,-0.216 -0.024,-0.384 v -1.616 h 0.848 v 6.08 h -0.664 l -0.144,-0.576 h -0.04 q -0.184,0.28 -0.496,0.472 -0.312,0.184 -0.808,0.184 z m 0.2,-0.696 q 0.624,0 0.88,-0.344 0.256,-0.352 0.256,-1.048 v -0.128 q 0,-0.752 -0.248,-1.152 -0.24,-0.408 -0.896,-0.408 -0.52,0 -0.784,0.424 -0.263996,0.416 -0.263996,1.144 0,0.728 0.263996,1.12 0.264,0.392 0.792,0.392 z"
       id="path18407" />
    <path
       d="m 110.93001,39.137999 q 0,1.448 -0.8,2.184 -0.792,0.728 -2.224,0.728 h -1.6 v -5.712 h 1.768 q 0.872,0 1.512,0.32 0.64,0.32 0.992,0.944 0.352,0.616 0.352,1.536 z m -0.904,0.024 q 0,-1.08 -0.528,-1.584 -0.52,-0.512 -1.48,-0.512 h -0.848 v 4.256 h 0.696 q 2.16,0 2.16,-2.16 z"
       id="path18409" />
    <path
       d="m 113.74601,37.657999 q 0.808,0 1.208,0.36 0.408,0.352 0.408,1.112 v 2.92 h -0.6 l -0.168,-0.6 h -0.032 q -0.28,0.352 -0.592,0.52 -0.304,0.16 -0.848,0.16 -0.584,0 -0.968,-0.312 -0.384,-0.32 -0.384,-0.992 0,-0.656 0.496,-1 0.496,-0.344 1.528,-0.376 l 0.736,-0.024 v -0.24 q 0,-0.472 -0.216,-0.664 -0.216,-0.2 -0.608,-0.2 -0.328,0 -0.632,0.096 -0.304,0.096 -0.584,0.232 l -0.272,-0.616 q 0.304,-0.16 0.696,-0.264 0.4,-0.112 0.832,-0.112 z m 0.2,2.336 q -0.736,0.032 -1.024,0.248 -0.28,0.208 -0.28,0.592 0,0.336 0.2,0.488 0.2,0.152 0.52,0.152 0.496,0 0.824,-0.28 0.336,-0.28 0.336,-0.84 v -0.376 z"
       id="path18411" />
    <path
       d="m 118.21801,41.441999 q 0.168,0 0.344,-0.024 0.176,-0.032 0.304,-0.08 v 0.64 q -0.144,0.064 -0.376,0.104 -0.224,0.048 -0.456,0.048 -0.352,0 -0.648,-0.12 -0.296,-0.12 -0.472,-0.416 -0.168,-0.296 -0.168,-0.824 v -2.384 h -0.6 v -0.384 l 0.632,-0.32 0.296,-0.912 h 0.52 v 0.968 h 1.232 v 0.648 h -1.232 v 2.368 q 0,0.352 0.168,0.52 0.176,0.168 0.456,0.168 z"
       id="path18413" />
    <path
       d="m 121.402,37.657999 q 0.808,0 1.208,0.36 0.408,0.352 0.408,1.112 v 2.92 h -0.6 l -0.168,-0.6 h -0.032 q -0.28,0.352 -0.592,0.52 -0.304,0.16 -0.848,0.16 -0.584,0 -0.968,-0.312 -0.384,-0.32 -0.384,-0.992 0,-0.656 0.496,-1 0.496,-0.344 1.528,-0.376 l 0.736,-0.024 v -0.24 q 0,-0.472 -0.216,-0.664 -0.216,-0.2 -0.608,-0.2 -0.328,0 -0.632,0.096 -0.304,0.096 -0.584,0.232 l -0.272,-0.616 q 0.304,-0.16 0.696,-0.264 0.4,-0.112 0.832,-0.112 z m 0.2,2.336 q -0.736,0.032 -1.024,0.248 -0.28,0.208 -0.28,0.592 0,0.336 0.2,0.488 0.2,0.152 0.52,0.152 0.496,0 0.824,-0.28 0.336,-0.28 0.336,-0.84 v -0.376 z"
       id="path18415" />
  </g>
  <path
     id="line40"
     class="i"
     style="fill:none;stroke:#1b1717;stroke-miterlimit:10"
     d="M 14.26,56.360001 H 46.34" />
  <g
     aria-label="S3 APITraffic"
     id="text50"
     class="x"
     style="font-weight:500;font-size:8px;font-family:Inter-Medium, Inter;font-variation-settings:'slnt' 0, 'wght' 500">
    <path
       d="m 67.22,57.715998 q 0,0.76 -0.552,1.192 -0.552,0.432 -1.512,0.432 -0.464,0 -0.88,-0.08 -0.408,-0.072 -0.696,-0.216 v -0.816 q 0.32,0.144 0.752,0.264 0.432,0.112 0.88,0.112 0.576,0 0.864,-0.224 0.288,-0.224 0.288,-0.6 0,-0.264 -0.136,-0.44 -0.128,-0.184 -0.408,-0.336 -0.28,-0.152 -0.736,-0.336 -0.424,-0.16 -0.752,-0.376 -0.32,-0.216 -0.504,-0.536 -0.184,-0.32 -0.184,-0.784 0,-0.704 0.512,-1.104 0.512,-0.4 1.344,-0.4 0.464,0 0.856,0.096 0.4,0.088 0.76,0.248 l -0.272,0.712 q -0.328,-0.136 -0.672,-0.224 -0.336,-0.088 -0.696,-0.088 -0.472,0 -0.72,0.208 -0.248,0.208 -0.248,0.544 0,0.264 0.12,0.448 0.12,0.176 0.384,0.32 0.264,0.144 0.696,0.32 0.48,0.192 0.816,0.408 0.344,0.208 0.52,0.512 0.176,0.296 0.176,0.744 z"
       id="path18367" />
    <path
       d="m 71.563994,54.867998 q 0,0.584 -0.336,0.928 -0.328,0.344 -0.856,0.456 v 0.032 q 0.68,0.08 1.024,0.432 0.344,0.344 0.344,0.912 0,0.496 -0.24,0.888 -0.232,0.384 -0.728,0.608 -0.488,0.216 -1.256,0.216 -0.456,0 -0.848,-0.072 -0.392,-0.072 -0.744,-0.24 v -0.768 q 0.36,0.184 0.768,0.28 0.416,0.096 0.792,0.096 0.728,0 1.048,-0.272 0.32,-0.28 0.32,-0.776 0,-0.48 -0.384,-0.704 -0.384,-0.224 -1.152,-0.224 h -0.52 v -0.696 h 0.528 q 0.728,0 1.056,-0.272 0.328,-0.272 0.328,-0.712 0,-0.384 -0.256,-0.592 -0.248,-0.216 -0.72,-0.216 -0.44,0 -0.768,0.136 -0.32,0.136 -0.6,0.328 l -0.416,-0.584 q 0.312,-0.24 0.76,-0.408 0.456,-0.176 1.048,-0.176 0.888,0 1.344,0.392 0.464,0.384 0.464,1.008 z"
       id="path18369" />
    <path
       d="m 78.556,59.259998 -0.608,-1.648 H 75.74 l -0.608,1.648 h -0.896 l 2.168,-5.736 H 77.3 l 2.16,5.736 z m -1.424,-4.008 q -0.024,-0.088 -0.088,-0.264 -0.056,-0.176 -0.112,-0.368 -0.056,-0.192 -0.088,-0.312 -0.064,0.248 -0.144,0.528 -0.08,0.28 -0.128,0.416 l -0.576,1.608 h 1.712 z"
       id="path18371" />
    <path
       d="m 81.827995,53.547998 q 1.12,0 1.632,0.456 0.512,0.448 0.512,1.256 0,0.48 -0.216,0.896 -0.208,0.416 -0.704,0.68 -0.496,0.256 -1.344,0.256 h -0.616 v 2.168 h -0.864 v -5.712 z m -0.064,0.728 h -0.672 v 2.088 h 0.52 q 0.728,0 1.096,-0.248 0.376,-0.248 0.376,-0.824 0,-0.512 -0.32,-0.76 -0.32,-0.256 -1,-0.256 z"
       id="path18373" />
    <path
       d="m 86.883991,59.259998 h -2.216 v -0.496 l 0.68,-0.2 v -4.312 l -0.68,-0.208 v -0.496 h 2.216 v 0.496 l -0.672,0.208 v 4.312 l 0.672,0.2 z"
       id="path18375" />
    <path
       d="m 93.269996,59.259998 h -0.864 v -4.968 h -1.712 v -0.744 h 4.288 v 0.744 h -1.712 z"
       style="letter-spacing:-0.06em"
       id="path18377" />
    <path
       d="m 98.141998,54.867998 q 0.112,0 0.24,0.016 0.136,0.008 0.232,0.024 l -0.088,0.792 q -0.208,-0.056 -0.432,-0.056 -0.32,0 -0.608,0.16 -0.28,0.16 -0.456,0.464 -0.168,0.296 -0.168,0.72 v 2.272 h -0.848 v -4.312 h 0.672 l 0.112,0.768 h 0.032 q 0.208,-0.344 0.536,-0.592 0.328,-0.256 0.776,-0.256 z"
       style="letter-spacing:0em"
       id="path18379" />
    <path
       d="m 100.716,54.867998 q 0.808,0 1.208,0.36 0.408,0.352 0.408,1.112 v 2.92 h -0.6 l -0.168,-0.6 h -0.032 q -0.28,0.352 -0.592,0.52 -0.304,0.16 -0.848,0.16 -0.584003,0 -0.968003,-0.312 -0.384,-0.32 -0.384,-0.992 0,-0.656 0.496,-1 0.496,-0.344 1.528003,-0.376 l 0.736,-0.024 v -0.24 q 0,-0.472 -0.216,-0.664 -0.216,-0.2 -0.608,-0.2 -0.328,0 -0.632,0.096 -0.304003,0.096 -0.584003,0.232 l -0.272,-0.616 q 0.304,-0.16 0.696,-0.264 0.400003,-0.112 0.832003,-0.112 z m 0.2,2.336 q -0.736,0.032 -1.024003,0.248 -0.28,0.208 -0.28,0.592 0,0.336 0.2,0.488 0.200003,0.152 0.520003,0.152 0.496,0 0.824,-0.28 0.336,-0.28 0.336,-0.84 v -0.376 z"
       style="letter-spacing:0em"
       id="path18381" />
    <path
       d="m 105.73999,55.595998 h -1.064 v 3.664 h -0.848 v -3.664 h -0.728 v -0.4 l 0.728,-0.264 v -0.272 q 0,-0.824 0.376,-1.168 0.384,-0.352 1.064,-0.352 0.28,0 0.512,0.048 0.232,0.048 0.392,0.104 l -0.216,0.648 q -0.136,-0.04 -0.304,-0.072 -0.16,-0.04 -0.344,-0.04 -0.632,0 -0.632,0.84 v 0.28 h 1.064 z m 2.856,0 h -1.064 v 3.664 h -0.848 v -3.664 h -0.728 v -0.4 l 0.728,-0.264 v -0.272 q 0,-0.824 0.376,-1.168 0.384,-0.352 1.064,-0.352 0.28,0 0.512,0.048 0.232,0.048 0.392,0.104 l -0.216,0.648 q -0.136,-0.04 -0.304,-0.072 -0.16,-0.04 -0.344,-0.04 -0.632,0 -0.632,0.84 v 0.28 h 1.064 z m 1.176,-2.288 q 0.192,0 0.336,0.112 0.144,0.112 0.144,0.376 0,0.256 -0.144,0.376 -0.144,0.112 -0.336,0.112 -0.208,0 -0.352,-0.112 -0.136,-0.12 -0.136,-0.376 0,-0.264 0.136,-0.376 0.144,-0.112 0.352,-0.112 z m 0.416,1.64 v 4.312 h -0.848 v -4.312 z"
       style="letter-spacing:0em"
       id="path18383" />
    <path
       d="m 113.252,59.339998 q -0.896,0 -1.44,-0.528 -0.544,-0.536 -0.544,-1.68 0,-0.8 0.264,-1.296 0.264,-0.496 0.728,-0.728 0.464,-0.24 1.056,-0.24 0.36,0 0.672,0.08 0.32,0.072 0.528,0.168 l -0.256,0.688 q -0.224,-0.088 -0.48,-0.152 -0.248,-0.064 -0.472,-0.064 -1.168,0 -1.168,1.536 0,0.736 0.288,1.12 0.288,0.384 0.848,0.384 0.36,0 0.632,-0.08 0.28,-0.08 0.512,-0.208 v 0.736 q -0.232,0.136 -0.504,0.2 -0.272,0.064 -0.664,0.064 z"
       style="letter-spacing:0em"
       id="path18385" />
  </g>
  <path
     id="polygon52"
     class="u"
     transform="translate(0,4)"
     style="fill:#577f9a"
     d="M 417.09,75.79 V 61.41 l -4.98,-6.07 h -46.94 v 20.45 z" />
  <g
     aria-label="DATA"
     id="text60"
     class="q"
     style="font-weight:700;font-size:9px;font-family:Inter-Bold, Inter;font-variation-settings:'slnt' 0, 'wght' 700;fill:#ffffff">
    <path
       d="m 384.56799,69.974 q 0,1.629 -0.927,2.457 -0.918,0.819 -2.583,0.819 h -1.818 v -6.426 h 2.016 q 1.008,0 1.746,0.36 0.747,0.36 1.152,1.062 0.414,0.693 0.414,1.728 z m -1.413,0.036 q 0,-1.071 -0.468,-1.566 -0.468,-0.504 -1.359,-0.504 h -0.729 v 4.185 h 0.585 q 1.971,0 1.971,-2.115 z"
       style="letter-spacing:-0.04em"
       id="path18357" />
    <path
       d="m 389.29299,73.25 -0.468,-1.53 h -2.34 l -0.468,1.53 h -1.467 l 2.268,-6.453 h 1.665 l 2.277,6.453 z m -1.26,-4.167 q -0.045,-0.153 -0.117,-0.387 -0.072,-0.234 -0.144,-0.477 -0.072,-0.243 -0.117,-0.423 -0.045,0.18 -0.126,0.45 -0.072,0.261 -0.144,0.504 -0.063,0.234 -0.099,0.333 l -0.459,1.494 h 1.674 z"
       style="letter-spacing:-0.04em"
       id="path18359" />
    <path
       d="m 393.05499,73.25 h -1.359 v -5.292 h -1.746 v -1.134 h 4.851 v 1.134 h -1.746 z"
       style="letter-spacing:-0.04em"
       id="path18361" />
    <path
       d="m 398.734,73.25 -0.468,-1.53 h -2.34 l -0.468,1.53 h -1.467 l 2.268,-6.453 h 1.665 l 2.277,6.453 z m -1.26,-4.167 q -0.045,-0.153 -0.117,-0.387 -0.072,-0.234 -0.144,-0.477 -0.072,-0.243 -0.117,-0.423 -0.045,0.18 -0.126,0.45 -0.072,0.261 -0.144,0.504 -0.063,0.234 -0.099,0.333 l -0.459,1.494 h 1.674 z"
       style="letter-spacing:-0.04em"
       id="path18363" />
  </g>
  <path
     id="polygon62"
     class="u"
     transform="translate(0,4)"
     style="fill:#577f9a"
     d="m 125.22,237.49 v -14.38 l -4.98,-6.07 H 73.3 v 20.45 z" />
  <g
     aria-label="DATA"
     id="text70"
     class="q"
     style="font-weight:700;font-size:9px;font-family:Inter-Bold, Inter;font-variation-settings:'slnt' 0, 'wght' 700;fill:#ffffff">
    <path
       d="m 92.697998,231.664 q 0,1.629 -0.927,2.457 -0.918,0.819 -2.583,0.819 h -1.818 v -6.426 h 2.016 q 1.008,0 1.746,0.36 0.747,0.36 1.152,1.062 0.414,0.693 0.414,1.728 z m -1.413,0.036 q 0,-1.071 -0.468,-1.566 -0.468,-0.504 -1.359,-0.504 h -0.729 v 4.185 h 0.585 q 1.971,0 1.971,-2.115 z"
       style="letter-spacing:-0.04em"
       id="path18347" />
    <path
       d="m 97.422991,234.94 -0.468,-1.53 h -2.34 l -0.468,1.53 h -1.467 l 2.268,-6.453 h 1.665 l 2.277,6.453 z m -1.26,-4.167 q -0.045,-0.153 -0.117,-0.387 -0.072,-0.234 -0.144,-0.477 -0.072,-0.243 -0.117,-0.423 -0.045,0.18 -0.126,0.45 -0.072,0.261 -0.144,0.504 -0.063,0.234 -0.099,0.333 l -0.459,1.494 h 1.674 z"
       style="letter-spacing:-0.04em"
       id="path18349" />
    <path
       d="m 101.185,234.94 h -1.359001 v -5.292 h -1.746 v -1.134 H 102.931 v 1.134 h -1.746 z"
       style="letter-spacing:-0.04em"
       id="path18351" />
    <path
       d="m 106.86401,234.94 -0.468,-1.53 h -2.34 l -0.468,1.53 h -1.467 l 2.268,-6.453 h 1.665 l 2.277,6.453 z m -1.26,-4.167 q -0.045,-0.153 -0.117,-0.387 -0.072,-0.234 -0.144,-0.477 -0.072,-0.243 -0.117,-0.423 -0.045,0.18 -0.126,0.45 -0.072,0.261 -0.144,0.504 -0.063,0.234 -0.099,0.333 l -0.459,1.494 h 1.674 z"
       style="letter-spacing:-0.04em"
       id="path18353" />
  </g>
  <g
     id="g92"
     transform="translate(0,4)">
    <path
       id="polygon72"
       class="r"
       style="fill:#afcddd"
       d="m 625,161.33 v -14.38 l -4.98,-6.07 h -46.94 v 20.45 z" />
    <g
       id="g90">
      <path
         id="polyline74"
         class="l"
         style="fill:none;stroke:#577f9a;stroke-width:0.68px;stroke-miterlimit:10"
         d="m 620.46,141.41 -0.44,-0.53 h -0.68" />
      <path
         id="line76"
         class="f"
         style="fill:none;stroke:#577f9a;stroke-width:0.68px;stroke-miterlimit:10;stroke-dasharray:0, 0, 1.38, 1.38"
         d="M 617.96002,140.88 H 574.45001" />
      <path
         id="polyline78"
         class="l"
         style="fill:none;stroke:#577f9a;stroke-width:0.68px;stroke-miterlimit:10"
         d="m 573.76,140.88 h -0.68 v 0.68" />
      <path
         id="line80"
         class="h"
         style="fill:none;stroke:#577f9a;stroke-width:0.68px;stroke-miterlimit:10;stroke-dasharray:0, 0, 1.27, 1.27"
         d="m 573.08002,142.84 v 17.18" />
      <path
         id="polyline82"
         class="l"
         style="fill:none;stroke:#577f9a;stroke-width:0.68px;stroke-miterlimit:10"
         d="m 573.08,160.65 v 0.68 h 0.68" />
      <path
         id="line84"
         class="e"
         style="fill:none;stroke:#577f9a;stroke-width:0.68px;stroke-miterlimit:10;stroke-dasharray:0, 0, 1.37, 1.37"
         d="m 575.13,161.33 h 48.51001" />
      <path
         id="polyline86"
         class="l"
         style="fill:none;stroke:#577f9a;stroke-width:0.68px;stroke-miterlimit:10"
         d="M 624.32,161.33 H 625 v -0.68" />
      <path
         id="polyline88"
         class="d"
         style="fill:none;stroke:#577f9a;stroke-width:0.68px;stroke-miterlimit:10;stroke-dasharray:0, 0, 1.39, 1.39"
         d="m 625,159.26 v -12.31 l -4.1,-5" />
    </g>
  </g>
  <g
     aria-label="DATA"
     id="text100"
     class="ad"
     style="font-weight:700;font-size:9px;font-family:Inter-Bold, Inter;font-variation-settings:'slnt' 0, 'wght' 700">
    <path
       d="m 592.47803,155.51399 q 0,1.629 -0.927,2.457 -0.918,0.819 -2.583,0.819 h -1.818 v -6.426 h 2.016 q 1.008,0 1.746,0.36 0.747,0.36 1.152,1.062 0.414,0.693 0.414,1.728 z m -1.413,0.036 q 0,-1.071 -0.468,-1.566 -0.468,-0.504 -1.359,-0.504 h -0.729 v 4.185 h 0.585 q 1.971,0 1.971,-2.115 z"
       style="letter-spacing:-0.04em"
       id="path18329" />
    <path
       d="m 597.20302,158.78999 -0.468,-1.53 h -2.34 l -0.468,1.53 h -1.467 l 2.268,-6.453 h 1.665 l 2.277,6.453 z m -1.26,-4.167 q -0.045,-0.153 -0.117,-0.387 -0.072,-0.234 -0.144,-0.477 -0.072,-0.243 -0.117,-0.423 -0.045,0.18 -0.126,0.45 -0.072,0.261 -0.144,0.504 -0.063,0.234 -0.099,0.333 l -0.459,1.494 h 1.674 z"
       style="letter-spacing:-0.04em"
       id="path18331" />
    <path
       d="m 600.96503,158.78999 h -1.359 v -5.292 h -1.746 v -1.134 h 4.851 v 1.134 h -1.746 z"
       style="letter-spacing:-0.04em"
       id="path18333" />
    <path
       d="m 606.64404,158.78999 -0.468,-1.53 h -2.34 l -0.468,1.53 h -1.467 l 2.268,-6.453 h 1.665 l 2.277,6.453 z m -1.26,-4.167 q -0.045,-0.153 -0.117,-0.387 -0.072,-0.234 -0.144,-0.477 -0.072,-0.243 -0.117,-0.423 -0.045,0.18 -0.126,0.45 -0.072,0.261 -0.144,0.504 -0.063,0.234 -0.099,0.333 l -0.459,1.494 h 1.674 z"
       style="letter-spacing:-0.04em"
       id="path18335" />
  </g>
  <g
     id="g122"
     transform="translate(0,4)">
    <path
       id="polygon102"
       class="r"
       style="fill:#afcddd"
       d="m 625,309.74 v -14.38 l -4.98,-6.07 h -46.94 v 20.45 z" />
    <g
       id="g120">
      <path
         id="polyline104"
         class="l"
         style="fill:none;stroke:#577f9a;stroke-width:0.68px;stroke-miterlimit:10"
         d="m 620.46,289.81 -0.44,-0.52 h -0.68" />
      <path
         id="line106"
         class="f"
         style="fill:none;stroke:#577f9a;stroke-width:0.68px;stroke-miterlimit:10;stroke-dasharray:0, 0, 1.38, 1.38"
         d="M 617.96002,289.29001 H 574.45001" />
      <path
         id="polyline108"
         class="l"
         style="fill:none;stroke:#577f9a;stroke-width:0.68px;stroke-miterlimit:10"
         d="m 573.76,289.29 h -0.68 v 0.68" />
      <path
         id="line110"
         class="h"
         style="fill:none;stroke:#577f9a;stroke-width:0.68px;stroke-miterlimit:10;stroke-dasharray:0, 0, 1.27, 1.27"
         d="m 573.08002,291.23999 v 17.18002" />
      <path
         id="polyline112"
         class="l"
         style="fill:none;stroke:#577f9a;stroke-width:0.68px;stroke-miterlimit:10"
         d="m 573.08,309.06 v 0.68 h 0.68" />
      <path
         id="line114"
         class="e"
         style="fill:none;stroke:#577f9a;stroke-width:0.68px;stroke-miterlimit:10;stroke-dasharray:0, 0, 1.37, 1.37"
         d="m 575.13,309.73999 h 48.51001" />
      <path
         id="polyline116"
         class="l"
         style="fill:none;stroke:#577f9a;stroke-width:0.68px;stroke-miterlimit:10"
         d="M 624.32,309.74 H 625 v -0.68" />
      <path
         id="polyline118"
         class="d"
         style="fill:none;stroke:#577f9a;stroke-width:0.68px;stroke-miterlimit:10;stroke-dasharray:0, 0, 1.39, 1.39"
         d="m 625,307.67 v -12.31 l -4.1,-5.01" />
    </g>
  </g>
  <g
     aria-label="DATA"
     id="text130"
     class="ad"
     style="font-weight:700;font-size:9px;font-family:Inter-Bold, Inter;font-variation-settings:'slnt' 0, 'wght' 700">
    <path
       d="m 592.47803,303.92401 q 0,1.629 -0.927,2.457 -0.918,0.819 -2.583,0.819 h -1.818 v -6.426 h 2.016 q 1.008,0 1.746,0.36 0.747,0.36 1.152,1.062 0.414,0.693 0.414,1.728 z m -1.413,0.036 q 0,-1.071 -0.468,-1.566 -0.468,-0.504 -1.359,-0.504 h -0.729 v 4.185 h 0.585 q 1.971,0 1.971,-2.115 z"
       style="letter-spacing:-0.04em"
       id="path18311" />
    <path
       d="m 597.20302,307.20001 -0.468,-1.53 h -2.34 l -0.468,1.53 h -1.467 l 2.268,-6.453 h 1.665 l 2.277,6.453 z m -1.26,-4.167 q -0.045,-0.153 -0.117,-0.387 -0.072,-0.234 -0.144,-0.477 -0.072,-0.243 -0.117,-0.423 -0.045,0.18 -0.126,0.45 -0.072,0.261 -0.144,0.504 -0.063,0.234 -0.099,0.333 l -0.459,1.494 h 1.674 z"
       style="letter-spacing:-0.04em"
       id="path18313" />
    <path
       d="m 600.96503,307.20001 h -1.359 v -5.292 h -1.746 v -1.134 h 4.851 v 1.134 h -1.746 z"
       style="letter-spacing:-0.04em"
       id="path18315" />
    <path
       d="m 606.64404,307.20001 -0.468,-1.53 h -2.34 l -0.468,1.53 h -1.467 l 2.268,-6.453 h 1.665 l 2.277,6.453 z m -1.26,-4.167 q -0.045,-0.153 -0.117,-0.387 -0.072,-0.234 -0.144,-0.477 -0.072,-0.243 -0.117,-0.423 -0.045,0.18 -0.126,0.45 -0.072,0.261 -0.144,0.504 -0.063,0.234 -0.099,0.333 l -0.459,1.494 h 1.674 z"
       style="letter-spacing:-0.04em"
       id="path18317" />
  </g>
  <path
     id="rect132"
     class="s"
     style="fill:#cf2144"
     d="m 13.67,159.49001 h 171.42 v 52.93 H 13.67 Z" />
  <g
     id="g146"
     transform="translate(0,4)">
    <g
       id="g140">
      <path
         id="rect134"
         class="o"
         style="fill:#ffffff"
         d="m 60.32,178.58 h 3.92 v 10.21 h -3.92 z" />
      <path
         class="o"
         d="m 55.58,178.72 -7.95,4.29 c -0.11,0.06 -0.26,0.06 -0.37,0 l -7.95,-4.29 c -0.17,-0.09 -0.37,-0.14 -0.57,-0.14 v 0 c -0.6,0 -1.09,0.43 -1.09,0.96 v 9.24 c 0,0 3.91,0 3.91,0 v -4.4 c 0,-0.27 0.33,-0.44 0.6,-0.29 l 4.45,2.41 c 0.44,0.24 0.99,0.24 1.43,0.01 l 4.7,-2.43 c 0.26,-0.14 0.59,0.03 0.59,0.3 v 4.41 c 0,0 3.91,0 3.91,0 v -9.24 c 0,-0.53 -0.49,-0.96 -1.09,-0.96 v 0 c -0.2,0 -0.4,0.05 -0.57,0.14 z"
         id="path136" />
      <path
         class="o"
         d="m 83.76,178.58 h -3.97 c 0,0 0,4.65 0,4.65 0,0.26 -0.31,0.43 -0.58,0.31 L 68.92,178.7 c -0.16,-0.07 -0.33,-0.11 -0.51,-0.11 v 0 c -0.6,0 -1.09,0.43 -1.09,0.96 v 9.24 c 0,0 3.94,0 3.94,0 v -4.64 c 0,-0.26 0.31,-0.43 0.57,-0.31 l 10.33,4.84 c 0.16,0.07 0.33,0.11 0.51,0.11 v 0 c 0.6,0 1.09,-0.43 1.09,-0.96 v -9.24 z"
         id="path138" />
    </g>
    <path
       class="o"
       d="m 86.84,188.79 v -10.21 h 1.8 v 10.21 z"
       id="path142" />
    <path
       class="o"
       d="m 99.25,188.97 c -4.85,0 -8.28,-2.03 -8.28,-5.29 0,-3.24 3.46,-5.29 8.28,-5.29 4.82,0 8.31,2.03 8.31,5.29 0,3.26 -3.4,5.29 -8.31,5.29 z m 0,-9.22 c -3.6,0 -6.38,1.39 -6.38,3.93 0,2.56 2.78,3.93 6.38,3.93 3.6,0 6.4,-1.37 6.4,-3.93 0,-2.56 -2.8,-3.93 -6.4,-3.93 z"
       id="path144" />
  </g>
  <g
     aria-label="SITE A"
     id="text150"
     class="p"
     style="font-weight:700;font-size:14px;font-family:Inter-Bold, Inter;font-variation-settings:'slnt' 0, 'wght' 700;fill:#ffffff">
    <path
       d="m 123.514,189.978 q 0,1.33 -0.966,2.128 -0.952,0.784 -2.716,0.784 -1.582,0 -2.828,-0.602 v -1.974 q 0.714,0.308 1.47,0.574 0.77,0.252 1.526,0.252 0.784,0 1.106,-0.294 0.336,-0.308 0.336,-0.77 0,-0.378 -0.266,-0.644 -0.252,-0.266 -0.686,-0.49 -0.434,-0.238 -0.994,-0.504 -0.35,-0.168 -0.756,-0.392 -0.406,-0.238 -0.784,-0.574 -0.364,-0.35 -0.602,-0.84 -0.238,-0.49 -0.238,-1.176 0,-1.344 0.91,-2.086 0.91,-0.756 2.478,-0.756 0.784,0 1.484,0.182 0.714,0.182 1.484,0.518 l -0.686,1.652 q -0.686,-0.28 -1.232,-0.434 -0.546,-0.154 -1.12,-0.154 -0.602,0 -0.924,0.28 -0.322,0.28 -0.322,0.728 0,0.532 0.476,0.84 0.476,0.308 1.414,0.756 0.77,0.364 1.302,0.756 0.546,0.392 0.84,0.924 0.294,0.532 0.294,1.316 z"
       id="path18298" />
    <path
       d="m 129.07201,192.75 h -4.55 v -1.204 l 1.218,-0.56 v -6.468 l -1.218,-0.56 v -1.204 h 4.55 v 1.204 l -1.218,0.56 v 6.468 l 1.218,0.56 z"
       id="path18300" />
    <path
       d="m 134.63001,192.75 h -2.114 v -8.232 h -2.716 v -1.764 h 7.546 v 1.764 h -2.716 z"
       id="path18302" />
    <path
       d="m 144.64001,192.75 h -5.754 v -9.996 h 5.754 v 1.736 h -3.64 v 2.198 h 3.388 v 1.736 h -3.388 V 191 h 3.64 z"
       id="path18304" />
    <path
       d="m 156.48401,192.75 -0.728,-2.38 h -3.64 l -0.728,2.38 h -2.282 l 3.528,-10.038 h 2.59 l 3.542,10.038 z m -1.96,-6.482 q -0.07,-0.238 -0.182,-0.602 -0.112,-0.364 -0.224,-0.742 -0.112,-0.378 -0.182,-0.658 -0.07,0.28 -0.196,0.7 -0.112,0.406 -0.224,0.784 -0.098,0.364 -0.154,0.518 l -0.714,2.324 h 2.604 z"
       id="path18306" />
  </g>
  <path
     id="rect152"
     class="s"
     style="fill:#cf2144"
     d="M 457.88,86.540001 H 629.3 V 139.47 H 457.88 Z" />
  <g
     id="g166"
     transform="translate(0,4)">
    <g
       id="g160">
      <path
         id="rect154"
         class="o"
         style="fill:#ffffff"
         d="m 504.53,105.63 h 3.92 v 10.21 h -3.92 z" />
      <path
         class="o"
         d="m 499.79,105.77 -7.95,4.29 c -0.11,0.06 -0.26,0.06 -0.37,0 l -7.95,-4.29 c -0.17,-0.09 -0.37,-0.14 -0.57,-0.14 v 0 c -0.6,0 -1.09,0.43 -1.09,0.96 v 9.24 c 0,0 3.91,0 3.91,0 v -4.4 c 0,-0.27 0.33,-0.44 0.6,-0.29 l 4.45,2.41 c 0.44,0.24 0.99,0.24 1.43,0.01 l 4.7,-2.43 c 0.26,-0.14 0.59,0.03 0.59,0.3 v 4.41 c 0,0 3.91,0 3.91,0 v -9.24 c 0,-0.53 -0.49,-0.96 -1.09,-0.96 v 0 c -0.2,0 -0.4,0.05 -0.57,0.14 z"
         id="path156" />
      <path
         class="o"
         d="M 527.97,105.63 H 524 c 0,0 0,4.65 0,4.65 0,0.26 -0.31,0.43 -0.58,0.31 l -10.29,-4.84 c -0.16,-0.07 -0.33,-0.11 -0.51,-0.11 v 0 c -0.6,0 -1.09,0.43 -1.09,0.96 v 9.24 c 0,0 3.94,0 3.94,0 v -4.64 c 0,-0.26 0.31,-0.43 0.57,-0.31 l 10.33,4.84 c 0.16,0.07 0.33,0.11 0.51,0.11 v 0 c 0.6,0 1.09,-0.43 1.09,-0.96 v -9.24 z"
         id="path158" />
    </g>
    <path
       class="o"
       d="m 531.05,115.84 v -10.21 h 1.8 v 10.21 z"
       id="path162" />
    <path
       class="o"
       d="m 543.46,116.03 c -4.85,0 -8.28,-2.03 -8.28,-5.29 0,-3.24 3.46,-5.29 8.28,-5.29 4.82,0 8.31,2.03 8.31,5.29 0,3.26 -3.4,5.29 -8.31,5.29 z m 0,-9.22 c -3.6,0 -6.38,1.39 -6.38,3.93 0,2.56 2.78,3.93 6.38,3.93 3.6,0 6.4,-1.37 6.4,-3.93 0,-2.56 -2.8,-3.93 -6.4,-3.93 z"
       id="path164" />
  </g>
  <g
     aria-label="SITE B"
     id="text170"
     class="p"
     style="font-weight:700;font-size:14px;font-family:Inter-Bold, Inter;font-variation-settings:'slnt' 0, 'wght' 700;fill:#ffffff">
    <path
       d="m 568.33399,117.028 q 0,1.33 -0.966,2.128 -0.952,0.784 -2.716,0.784 -1.582,0 -2.828,-0.602 v -1.974 q 0.714,0.308 1.47,0.574 0.77,0.252 1.526,0.252 0.784,0 1.106,-0.294 0.336,-0.308 0.336,-0.77 0,-0.378 -0.266,-0.644 -0.252,-0.266 -0.686,-0.49 -0.434,-0.238 -0.994,-0.504 -0.35,-0.168 -0.756,-0.392 -0.406,-0.238 -0.784,-0.574 -0.364,-0.35 -0.602,-0.84 -0.238,-0.49 -0.238,-1.176 0,-1.344 0.91,-2.086 0.91,-0.756 2.478,-0.756 0.784,0 1.484,0.182 0.714,0.182 1.484,0.518 l -0.686,1.652 q -0.686,-0.28 -1.232,-0.434 -0.546,-0.154 -1.12,-0.154 -0.602,0 -0.924,0.28 -0.322,0.28 -0.322,0.728 0,0.532 0.476,0.84 0.476,0.308 1.414,0.756 0.77,0.364 1.302,0.756 0.546,0.392 0.84,0.924 0.294,0.532 0.294,1.316 z"
       id="path18285" />
    <path
       d="m 573.892,119.8 h -4.55 v -1.204 l 1.218,-0.56 v -6.468 l -1.218,-0.56 v -1.204 h 4.55 v 1.204 l -1.218,0.56 v 6.468 l 1.218,0.56 z"
       id="path18287" />
    <path
       d="m 579.45,119.8 h -2.114 v -8.232 h -2.716 v -1.764 h 7.546 v 1.764 h -2.716 z"
       id="path18289" />
    <path
       d="m 589.46001,119.8 h -5.754 v -9.996 h 5.754 v 1.736 h -3.64 v 2.198 h 3.388 v 1.736 h -3.388 v 2.576 h 3.64 z"
       id="path18291" />
    <path
       d="m 598.294,109.804 q 2.002,0 3.024,0.56 1.022,0.56 1.022,1.974 0,0.854 -0.406,1.442 -0.392,0.588 -1.134,0.714 v 0.07 q 0.504,0.098 0.91,0.35 0.406,0.252 0.644,0.728 0.238,0.476 0.238,1.26 0,1.358 -0.98,2.128 -0.98,0.77 -2.688,0.77 h -3.738 v -9.996 z m 0.238,3.962 q 0.924,0 1.274,-0.294 0.364,-0.294 0.364,-0.854 0,-0.574 -0.42,-0.826 -0.42,-0.252 -1.33,-0.252 h -1.12 v 2.226 z m -1.232,1.68 v 2.604 h 1.386 q 0.952,0 1.33,-0.364 0.378,-0.378 0.378,-0.994 0,-0.56 -0.392,-0.896 -0.378,-0.35 -1.386,-0.35 z"
       id="path18293" />
  </g>
  <path
     id="rect172"
     class="s"
     style="fill:#cf2144"
     d="M 457.88,235.03999 H 629.3 v 52.93 H 457.88 Z" />
  <g
     id="g186"
     transform="translate(0,4)">
    <g
       id="g180">
      <path
         id="rect174"
         class="o"
         style="fill:#ffffff"
         d="m 504.53,254.13 h 3.92 v 10.21 h -3.92 z" />
      <path
         class="o"
         d="m 499.79,254.27 -7.95,4.29 c -0.11,0.06 -0.26,0.06 -0.37,0 l -7.95,-4.29 c -0.17,-0.09 -0.37,-0.14 -0.57,-0.14 v 0 c -0.6,0 -1.09,0.43 -1.09,0.96 v 9.24 c 0,0 3.91,0 3.91,0 v -4.4 c 0,-0.27 0.33,-0.44 0.6,-0.29 l 4.45,2.41 c 0.44,0.24 0.99,0.24 1.43,0.01 l 4.7,-2.43 c 0.26,-0.14 0.59,0.03 0.59,0.3 v 4.41 c 0,0 3.91,0 3.91,0 v -9.24 c 0,-0.53 -0.49,-0.96 -1.09,-0.96 v 0 c -0.2,0 -0.4,0.05 -0.57,0.14 z"
         id="path176" />
      <path
         class="o"
         d="M 527.97,254.13 H 524 c 0,0 0,4.65 0,4.65 0,0.26 -0.31,0.43 -0.58,0.31 l -10.29,-4.84 c -0.16,-0.07 -0.33,-0.11 -0.51,-0.11 v 0 c -0.6,0 -1.09,0.43 -1.09,0.96 v 9.24 c 0,0 3.94,0 3.94,0 v -4.64 c 0,-0.26 0.31,-0.43 0.57,-0.31 l 10.33,4.84 c 0.16,0.07 0.33,0.11 0.51,0.11 v 0 c 0.6,0 1.09,-0.43 1.09,-0.96 v -9.24 z"
         id="path178" />
    </g>
    <path
       class="o"
       d="m 531.05,264.34 v -10.21 h 1.8 v 10.21 z"
       id="path182" />
    <path
       class="o"
       d="m 543.46,264.52 c -4.85,0 -8.28,-2.03 -8.28,-5.29 0,-3.24 3.46,-5.29 8.28,-5.29 4.82,0 8.31,2.03 8.31,5.29 0,3.26 -3.4,5.29 -8.31,5.29 z m 0,-9.22 c -3.6,0 -6.38,1.39 -6.38,3.93 0,2.56 2.78,3.93 6.38,3.93 3.6,0 6.4,-1.37 6.4,-3.93 0,-2.56 -2.8,-3.93 -6.4,-3.93 z"
       id="path184" />
  </g>
  <g
     aria-label="SITE C"
     id="text190"
     class="p"
     style="font-weight:700;font-size:14px;font-family:Inter-Bold, Inter;font-variation-settings:'slnt' 0, 'wght' 700;fill:#ffffff">
    <path
       d="m 567.69398,265.52799 q 0,1.33 -0.966,2.128 -0.952,0.784 -2.716,0.784 -1.582,0 -2.828,-0.602 v -1.974 q 0.714,0.308 1.47,0.574 0.77,0.252 1.526,0.252 0.784,0 1.106,-0.294 0.336,-0.308 0.336,-0.77 0,-0.378 -0.266,-0.644 -0.252,-0.266 -0.686,-0.49 -0.434,-0.238 -0.994,-0.504 -0.35,-0.168 -0.756,-0.392 -0.406,-0.238 -0.784,-0.574 -0.364,-0.35 -0.602,-0.84 -0.238,-0.49 -0.238,-1.176 0,-1.344 0.91,-2.086 0.91,-0.756 2.478,-0.756 0.784,0 1.484,0.182 0.714,0.182 1.484,0.518 l -0.686,1.652 q -0.686,-0.28 -1.232,-0.434 -0.546,-0.154 -1.12,-0.154 -0.602,0 -0.924,0.28 -0.322,0.28 -0.322,0.728 0,0.532 0.476,0.84 0.476,0.308 1.414,0.756 0.77,0.364 1.302,0.756 0.546,0.392 0.84,0.924 0.294,0.532 0.294,1.316 z"
       id="path18272" />
    <path
       d="m 573.25199,268.29999 h -4.55 v -1.204 l 1.218,-0.56 v -6.468 l -1.218,-0.56 v -1.204 h 4.55 v 1.204 l -1.218,0.56 v 6.468 l 1.218,0.56 z"
       id="path18274" />
    <path
       d="m 578.80999,268.29999 h -2.114 v -8.232 h -2.716 v -1.764 h 7.546 v 1.764 h -2.716 z"
       id="path18276" />
    <path
       d="m 588.81999,268.29999 h -5.754 v -9.996 h 5.754 v 1.736 h -3.64 v 2.198 h 3.388 v 1.736 h -3.388 v 2.576 h 3.64 z"
       id="path18278" />
    <path
       d="m 598.78799,259.92799 q -1.218,0 -1.862,0.91 -0.644,0.91 -0.644,2.492 0,1.596 0.588,2.478 0.602,0.868 1.918,0.868 0.616,0 1.218,-0.14 0.616,-0.14 1.33,-0.392 v 1.778 q -0.658,0.266 -1.302,0.392 -0.644,0.126 -1.442,0.126 -1.54,0 -2.548,-0.63 -0.994,-0.644 -1.47,-1.792 -0.476,-1.162 -0.476,-2.702 0,-1.512 0.546,-2.674 0.546,-1.162 1.582,-1.82 1.05,-0.658 2.562,-0.658 0.742,0 1.484,0.196 0.756,0.182 1.442,0.504 l -0.686,1.722 q -0.56,-0.266 -1.134,-0.462 -0.56,-0.196 -1.106,-0.196 z"
       id="path18280" />
  </g>
  <g
     id="g240"
     transform="translate(0,4)">
    <path
       d="m 244.7,21.34 3.42,-1.29 0.32,-0.09 -0.32,-0.1 -3.42,-1.27 v -1.01 l 4.66,2 v 0.77 l -4.66,2 z"
       id="path192" />
    <path
       d="m 251.64,18.22 c 0.12,-0.2 0.27,-0.36 0.46,-0.47 0.19,-0.11 0.42,-0.17 0.68,-0.17 0.15,0 0.29,0.02 0.41,0.05 0.12,0.03 0.23,0.08 0.32,0.15 0.07,0.05 0.13,0.11 0.18,0.18 0.05,0.07 0.1,0.15 0.14,0.24 0.05,-0.08 0.11,-0.16 0.17,-0.23 0.06,-0.07 0.14,-0.13 0.22,-0.18 0.1,-0.06 0.21,-0.11 0.33,-0.14 0.12,-0.03 0.25,-0.05 0.4,-0.06 0.2,0 0.38,0.03 0.53,0.09 0.16,0.06 0.29,0.14 0.4,0.26 0.12,0.13 0.21,0.29 0.27,0.49 0.06,0.2 0.1,0.44 0.1,0.72 v 4.26 h -0.93 v -4.28 c 0,-0.12 -0.01,-0.23 -0.04,-0.32 -0.03,-0.09 -0.07,-0.17 -0.12,-0.23 -0.06,-0.06 -0.13,-0.1 -0.21,-0.13 -0.08,-0.03 -0.18,-0.04 -0.29,-0.04 -0.12,0 -0.22,0.02 -0.3,0.05 -0.08,0.03 -0.15,0.07 -0.21,0.13 -0.06,0.06 -0.1,0.12 -0.13,0.19 -0.03,0.07 -0.05,0.15 -0.06,0.24 v 4.38 h -0.93 v -4.28 c 0,-0.12 -0.01,-0.23 -0.04,-0.32 -0.03,-0.09 -0.07,-0.17 -0.12,-0.23 -0.05,-0.06 -0.12,-0.1 -0.2,-0.12 -0.08,-0.02 -0.17,-0.04 -0.28,-0.04 -0.12,0 -0.22,0.01 -0.3,0.04 -0.08,0.03 -0.16,0.06 -0.22,0.11 -0.05,0.04 -0.08,0.08 -0.12,0.13 -0.03,0.05 -0.06,0.1 -0.08,0.16 v 4.54 h -0.93 v -5.71 h 0.88 l 0.03,0.54 z"
       id="path194" />
    <path
       d="m 260.72,17.68 v 4.87 h 1.86 v 0.84 h -4.78 v -0.84 h 1.94 v -4.02 h -1.94 v -0.85 z m -1.06,-1.74 c 0.03,-0.07 0.07,-0.14 0.12,-0.19 0.05,-0.05 0.1,-0.08 0.18,-0.11 0.07,-0.03 0.15,-0.04 0.25,-0.04 0.1,0 0.17,0.01 0.24,0.04 0.07,0.03 0.13,0.06 0.17,0.11 0.06,0.05 0.1,0.11 0.13,0.18 0.03,0.07 0.04,0.15 0.04,0.24 0,0.16 -0.05,0.29 -0.15,0.4 -0.1,0.11 -0.24,0.16 -0.44,0.16 -0.2,0 -0.34,-0.05 -0.44,-0.16 -0.1,-0.11 -0.15,-0.24 -0.15,-0.4 0,-0.08 0.01,-0.16 0.04,-0.24 z"
       id="path196" />
    <path
       d="m 264.13,17.68 h 0.88 l 0.07,0.84 c 0.08,-0.12 0.18,-0.23 0.28,-0.33 0.1,-0.1 0.21,-0.19 0.32,-0.26 0.17,-0.11 0.35,-0.2 0.55,-0.26 0.2,-0.06 0.41,-0.09 0.63,-0.1 0.3,0 0.57,0.04 0.82,0.13 0.25,0.09 0.45,0.22 0.63,0.4 0.17,0.18 0.31,0.41 0.4,0.68 0.09,0.27 0.14,0.6 0.14,0.98 v 3.63 h -0.98 v -3.6 c 0,-0.25 -0.03,-0.47 -0.08,-0.64 -0.06,-0.18 -0.14,-0.32 -0.25,-0.43 -0.11,-0.11 -0.25,-0.19 -0.41,-0.24 -0.16,-0.05 -0.34,-0.07 -0.55,-0.07 -0.18,0 -0.35,0.03 -0.5,0.08 -0.15,0.05 -0.3,0.12 -0.43,0.21 -0.11,0.08 -0.2,0.17 -0.29,0.27 -0.09,0.1 -0.17,0.21 -0.23,0.34 v 4.1 h -0.98 V 17.7 Z"
       id="path198" />
    <path
       d="m 273.69,17.68 v 4.87 h 1.86 v 0.84 h -4.78 v -0.84 h 1.94 v -4.02 h -1.94 v -0.85 z m -1.06,-1.74 c 0.03,-0.07 0.07,-0.14 0.12,-0.19 0.05,-0.05 0.1,-0.08 0.18,-0.11 0.07,-0.03 0.15,-0.04 0.25,-0.04 0.1,0 0.17,0.01 0.24,0.04 0.07,0.03 0.13,0.06 0.17,0.11 0.06,0.05 0.1,0.11 0.13,0.18 0.03,0.07 0.04,0.15 0.04,0.24 0,0.16 -0.05,0.29 -0.15,0.4 -0.1,0.11 -0.24,0.16 -0.44,0.16 -0.2,0 -0.34,-0.05 -0.44,-0.16 -0.1,-0.11 -0.15,-0.24 -0.15,-0.4 0,-0.08 0.01,-0.16 0.04,-0.24 z"
       id="path200" />
    <path
       d="m 277.01,19.33 c 0.12,-0.35 0.29,-0.66 0.52,-0.92 0.22,-0.26 0.49,-0.47 0.81,-0.61 0.32,-0.15 0.68,-0.22 1.08,-0.22 0.4,0 0.77,0.07 1.09,0.22 0.32,0.15 0.6,0.35 0.82,0.61 0.22,0.26 0.39,0.57 0.51,0.92 0.12,0.35 0.18,0.74 0.18,1.15 v 0.12 c 0,0.41 -0.06,0.79 -0.18,1.15 -0.12,0.35 -0.29,0.66 -0.51,0.92 -0.23,0.26 -0.5,0.46 -0.82,0.61 -0.32,0.15 -0.68,0.22 -1.08,0.22 -0.4,0 -0.77,-0.07 -1.09,-0.22 -0.32,-0.15 -0.59,-0.35 -0.82,-0.61 -0.23,-0.26 -0.4,-0.57 -0.52,-0.92 -0.12,-0.35 -0.18,-0.73 -0.18,-1.15 v -0.12 c 0,-0.41 0.06,-0.79 0.18,-1.15 z m 0.9,2.07 c 0.07,0.26 0.17,0.48 0.31,0.67 0.13,0.19 0.3,0.35 0.51,0.46 0.21,0.11 0.44,0.17 0.71,0.17 0.27,0 0.5,-0.06 0.7,-0.17 0.2,-0.11 0.37,-0.27 0.51,-0.46 0.13,-0.19 0.23,-0.42 0.3,-0.67 0.07,-0.25 0.1,-0.52 0.1,-0.8 v -0.12 c 0,-0.28 -0.03,-0.54 -0.1,-0.8 -0.07,-0.25 -0.17,-0.48 -0.3,-0.67 -0.14,-0.19 -0.31,-0.35 -0.51,-0.46 -0.2,-0.11 -0.44,-0.17 -0.71,-0.17 -0.27,0 -0.51,0.06 -0.71,0.17 -0.2,0.11 -0.37,0.27 -0.5,0.46 -0.14,0.19 -0.24,0.42 -0.31,0.67 -0.07,0.26 -0.1,0.52 -0.1,0.8 v 0.12 c 0,0.28 0.03,0.55 0.1,0.8 z"
       id="path202" />
    <path
       d="m 288.3,22.06 c -0.14,0.3 -0.31,0.55 -0.53,0.76 -0.22,0.21 -0.48,0.38 -0.78,0.5 -0.3,0.12 -0.64,0.18 -1.01,0.18 -0.32,0 -0.6,-0.04 -0.86,-0.13 -0.26,-0.09 -0.49,-0.21 -0.69,-0.37 -0.2,-0.16 -0.38,-0.34 -0.53,-0.56 -0.15,-0.21 -0.27,-0.45 -0.36,-0.7 -0.1,-0.25 -0.17,-0.52 -0.22,-0.8 -0.05,-0.28 -0.07,-0.56 -0.08,-0.84 v -1.07 c 0,-0.29 0.03,-0.57 0.08,-0.84 0.05,-0.28 0.12,-0.54 0.22,-0.8 0.09,-0.25 0.22,-0.49 0.36,-0.7 0.15,-0.22 0.32,-0.4 0.53,-0.56 0.2,-0.16 0.43,-0.28 0.69,-0.37 0.26,-0.09 0.55,-0.13 0.87,-0.13 0.38,0 0.73,0.06 1.03,0.18 0.3,0.12 0.56,0.28 0.78,0.5 0.22,0.22 0.39,0.48 0.53,0.78 0.14,0.3 0.22,0.64 0.26,1 h -0.98 c -0.03,-0.23 -0.09,-0.45 -0.16,-0.65 -0.08,-0.2 -0.18,-0.38 -0.31,-0.53 -0.13,-0.15 -0.29,-0.27 -0.48,-0.36 -0.19,-0.09 -0.41,-0.13 -0.67,-0.13 -0.23,0 -0.44,0.04 -0.61,0.11 -0.18,0.08 -0.33,0.18 -0.46,0.31 -0.13,0.13 -0.24,0.28 -0.32,0.45 -0.09,0.17 -0.16,0.36 -0.21,0.55 -0.05,0.19 -0.09,0.39 -0.11,0.59 -0.02,0.2 -0.03,0.4 -0.03,0.59 v 1.08 c 0,0.19 0.01,0.39 0.03,0.59 0.02,0.2 0.06,0.4 0.11,0.59 0.05,0.2 0.12,0.38 0.21,0.55 0.09,0.17 0.19,0.32 0.32,0.45 0.13,0.13 0.28,0.24 0.46,0.31 0.18,0.08 0.38,0.11 0.62,0.11 0.26,0 0.48,-0.04 0.67,-0.12 0.19,-0.08 0.35,-0.2 0.48,-0.34 0.13,-0.14 0.23,-0.32 0.31,-0.51 0.08,-0.2 0.13,-0.41 0.16,-0.65 h 0.98 c -0.05,0.35 -0.14,0.68 -0.27,0.98 z"
       id="path204" />
    <path
       d="m 293.15,15.28 v 7.26 h 1.86 v 0.84 h -4.78 v -0.84 h 1.94 v -6.41 h -1.94 v -0.85 z"
       id="path206" />
    <path
       d="m 299.64,17.68 v 4.87 h 1.86 v 0.84 h -4.78 v -0.84 h 1.94 v -4.02 h -1.94 v -0.85 z m -1.06,-1.74 c 0.03,-0.07 0.07,-0.14 0.12,-0.19 0.05,-0.05 0.1,-0.08 0.18,-0.11 0.07,-0.03 0.15,-0.04 0.25,-0.04 0.1,0 0.17,0.01 0.24,0.04 0.07,0.03 0.13,0.06 0.17,0.11 0.06,0.05 0.1,0.11 0.13,0.18 0.03,0.07 0.04,0.15 0.04,0.24 0,0.16 -0.05,0.29 -0.15,0.4 -0.1,0.11 -0.24,0.16 -0.44,0.16 -0.2,0 -0.34,-0.05 -0.44,-0.16 -0.1,-0.11 -0.15,-0.24 -0.15,-0.4 0,-0.08 0.01,-0.16 0.04,-0.24 z"
       id="path208" />
    <path
       d="m 304.47,23.29 c -0.34,-0.14 -0.62,-0.33 -0.86,-0.58 -0.24,-0.25 -0.43,-0.54 -0.56,-0.88 -0.13,-0.34 -0.2,-0.71 -0.2,-1.1 v -0.22 c 0,-0.46 0.07,-0.87 0.22,-1.24 0.15,-0.36 0.34,-0.67 0.59,-0.93 0.24,-0.25 0.52,-0.44 0.83,-0.58 0.31,-0.13 0.63,-0.2 0.96,-0.2 0.41,0 0.77,0.07 1.08,0.21 0.31,0.14 0.56,0.34 0.77,0.59 0.2,0.25 0.36,0.55 0.46,0.89 0.1,0.34 0.15,0.71 0.15,1.11 v 0.44 h -4.08 v 0.04 c 0.02,0.28 0.08,0.52 0.17,0.73 0.09,0.21 0.21,0.4 0.36,0.56 0.15,0.17 0.34,0.31 0.56,0.41 0.22,0.1 0.46,0.15 0.72,0.15 0.35,0 0.66,-0.07 0.93,-0.21 0.27,-0.14 0.5,-0.33 0.68,-0.56 l 0.6,0.46 c -0.19,0.29 -0.47,0.54 -0.85,0.77 -0.38,0.22 -0.85,0.33 -1.4,0.33 -0.4,0 -0.77,-0.07 -1.11,-0.21 z m 0.42,-4.81 c -0.18,0.07 -0.33,0.18 -0.47,0.31 -0.14,0.14 -0.26,0.31 -0.36,0.51 -0.1,0.2 -0.16,0.44 -0.2,0.7 h 3.07 v -0.05 c 0,-0.18 -0.03,-0.37 -0.1,-0.57 -0.07,-0.2 -0.16,-0.38 -0.28,-0.53 -0.12,-0.15 -0.27,-0.27 -0.45,-0.36 -0.18,-0.09 -0.4,-0.14 -0.65,-0.14 -0.2,0 -0.38,0.04 -0.56,0.11 z"
       id="path210" />
    <path
       d="m 309.54,17.68 h 0.88 l 0.07,0.84 c 0.08,-0.12 0.18,-0.23 0.28,-0.33 0.1,-0.1 0.21,-0.19 0.32,-0.26 0.17,-0.11 0.35,-0.2 0.55,-0.26 0.2,-0.06 0.41,-0.09 0.63,-0.1 0.3,0 0.57,0.04 0.82,0.13 0.25,0.09 0.45,0.22 0.63,0.4 0.17,0.18 0.31,0.41 0.4,0.68 0.09,0.27 0.14,0.6 0.14,0.98 v 3.63 h -0.98 v -3.6 c 0,-0.25 -0.03,-0.47 -0.08,-0.64 -0.06,-0.18 -0.14,-0.32 -0.25,-0.43 -0.11,-0.11 -0.25,-0.19 -0.41,-0.24 -0.16,-0.05 -0.34,-0.07 -0.55,-0.07 -0.18,0 -0.35,0.03 -0.5,0.08 -0.15,0.05 -0.3,0.12 -0.43,0.21 -0.11,0.08 -0.2,0.17 -0.29,0.27 -0.09,0.1 -0.17,0.21 -0.23,0.34 v 4.1 h -0.98 V 17.7 Z"
       id="path212" />
    <path
       d="m 318.34,17.68 h 2.17 v 0.75 h -2.17 v 3.1 c 0,0.22 0.03,0.4 0.08,0.55 0.06,0.14 0.13,0.26 0.23,0.34 0.1,0.09 0.21,0.15 0.34,0.18 0.13,0.03 0.26,0.05 0.41,0.05 0.11,0 0.21,0 0.33,-0.02 0.11,-0.01 0.22,-0.03 0.33,-0.04 0.11,-0.02 0.21,-0.04 0.3,-0.06 0.09,-0.02 0.17,-0.04 0.23,-0.05 l 0.14,0.69 c -0.08,0.05 -0.18,0.09 -0.3,0.13 -0.12,0.04 -0.24,0.07 -0.38,0.09 -0.14,0.03 -0.28,0.05 -0.44,0.06 -0.15,0.01 -0.31,0.02 -0.46,0.02 -0.25,0 -0.49,-0.04 -0.71,-0.11 -0.22,-0.07 -0.41,-0.19 -0.57,-0.35 -0.16,-0.15 -0.29,-0.36 -0.38,-0.6 -0.09,-0.24 -0.14,-0.55 -0.14,-0.9 v -3.1 h -1.5 v -0.75 h 1.5 v -1.38 h 0.98 v 1.38 z"
       id="path214" />
    <path
       d="m 324.4,22.22 c 0.13,-0.15 0.32,-0.22 0.58,-0.22 0.26,0 0.45,0.07 0.58,0.22 0.13,0.15 0.2,0.32 0.2,0.54 0,0.22 -0.07,0.38 -0.2,0.52 -0.13,0.14 -0.33,0.21 -0.58,0.21 -0.25,0 -0.44,-0.07 -0.57,-0.21 -0.13,-0.14 -0.19,-0.32 -0.19,-0.52 0,-0.2 0.06,-0.39 0.19,-0.53 z"
       id="path216" />
    <path
       d="m 329,17.68 h 0.89 l 0.05,0.62 c 0.08,-0.1 0.16,-0.19 0.25,-0.27 0.09,-0.08 0.19,-0.15 0.3,-0.2 0.15,-0.08 0.31,-0.15 0.49,-0.19 0.18,-0.04 0.38,-0.07 0.58,-0.07 0.37,0 0.69,0.07 0.97,0.22 0.28,0.14 0.52,0.35 0.71,0.6 0.19,0.25 0.33,0.56 0.43,0.92 0.1,0.36 0.15,0.75 0.15,1.17 v 0.11 c 0,0.41 -0.05,0.79 -0.15,1.14 -0.1,0.35 -0.24,0.66 -0.43,0.92 -0.19,0.26 -0.42,0.46 -0.7,0.61 -0.28,0.15 -0.6,0.22 -0.96,0.22 -0.22,0 -0.42,-0.02 -0.61,-0.07 -0.19,-0.05 -0.36,-0.11 -0.51,-0.2 -0.09,-0.05 -0.18,-0.11 -0.26,-0.18 -0.08,-0.07 -0.16,-0.14 -0.23,-0.21 v 2.74 h -0.98 v -7.91 z m 3.76,2.01 c -0.06,-0.25 -0.16,-0.47 -0.28,-0.67 -0.13,-0.19 -0.29,-0.34 -0.49,-0.45 -0.2,-0.11 -0.43,-0.17 -0.71,-0.17 -0.15,0 -0.29,0.02 -0.42,0.05 -0.13,0.03 -0.24,0.09 -0.35,0.15 -0.11,0.07 -0.21,0.15 -0.3,0.25 -0.09,0.1 -0.17,0.21 -0.23,0.33 v 2.75 c 0.06,0.11 0.13,0.2 0.21,0.3 0.08,0.09 0.17,0.17 0.26,0.23 0.11,0.07 0.24,0.13 0.38,0.17 0.14,0.04 0.29,0.06 0.46,0.06 0.27,0 0.5,-0.06 0.7,-0.17 0.2,-0.11 0.36,-0.27 0.49,-0.46 0.13,-0.19 0.22,-0.42 0.28,-0.67 0.06,-0.25 0.09,-0.52 0.09,-0.8 v -0.11 c 0,-0.28 -0.03,-0.54 -0.09,-0.79 z"
       id="path218" />
    <path
       d="m 339.19,22.6 c -0.19,0.28 -0.43,0.5 -0.71,0.66 -0.29,0.16 -0.61,0.23 -0.99,0.23 -0.3,0 -0.57,-0.05 -0.81,-0.14 -0.24,-0.09 -0.45,-0.24 -0.62,-0.44 -0.17,-0.2 -0.31,-0.45 -0.4,-0.75 -0.09,-0.3 -0.14,-0.67 -0.14,-1.1 v -3.39 h 0.98 v 3.4 c 0,0.31 0.02,0.57 0.07,0.77 0.05,0.2 0.12,0.37 0.22,0.49 0.1,0.12 0.22,0.21 0.36,0.26 0.14,0.05 0.31,0.07 0.49,0.07 0.22,0 0.41,-0.03 0.59,-0.08 0.17,-0.05 0.32,-0.12 0.45,-0.21 0.11,-0.07 0.2,-0.16 0.28,-0.27 0.08,-0.1 0.15,-0.22 0.2,-0.34 v -4.1 h 0.98 v 5.71 h -0.89 l -0.06,-0.79 z"
       id="path220" />
    <path
       d="m 344.29,17.68 h 2.17 v 0.75 h -2.17 v 3.1 c 0,0.22 0.03,0.4 0.08,0.55 0.06,0.14 0.13,0.26 0.23,0.34 0.1,0.09 0.21,0.15 0.34,0.18 0.13,0.03 0.26,0.05 0.41,0.05 0.11,0 0.21,0 0.33,-0.02 0.11,-0.01 0.22,-0.03 0.33,-0.04 0.11,-0.02 0.21,-0.04 0.3,-0.06 0.09,-0.02 0.17,-0.04 0.23,-0.05 l 0.14,0.69 c -0.08,0.05 -0.18,0.09 -0.3,0.13 -0.12,0.04 -0.24,0.07 -0.38,0.09 -0.14,0.03 -0.28,0.05 -0.44,0.06 -0.15,0.01 -0.31,0.02 -0.46,0.02 -0.25,0 -0.49,-0.04 -0.71,-0.11 -0.22,-0.07 -0.41,-0.19 -0.57,-0.35 -0.16,-0.15 -0.29,-0.36 -0.38,-0.6 -0.09,-0.24 -0.14,-0.55 -0.14,-0.9 v -3.1 h -1.5 v -0.75 h 1.5 v -1.38 h 0.98 v 1.38 z"
       id="path222" />
    <path
       d="m 353.39,20.82 c -0.04,0.28 -0.11,0.55 -0.2,0.81 -0.09,0.26 -0.21,0.5 -0.35,0.73 -0.14,0.23 -0.31,0.42 -0.51,0.59 -0.2,0.17 -0.42,0.3 -0.68,0.4 -0.25,0.1 -0.54,0.15 -0.86,0.15 -0.32,0 -0.6,-0.05 -0.86,-0.15 -0.25,-0.1 -0.48,-0.23 -0.68,-0.4 -0.2,-0.17 -0.37,-0.37 -0.51,-0.59 -0.14,-0.23 -0.26,-0.47 -0.35,-0.73 -0.09,-0.26 -0.17,-0.53 -0.21,-0.81 -0.04,-0.28 -0.07,-0.55 -0.07,-0.83 v -0.88 c 0,-0.27 0.03,-0.55 0.07,-0.83 0.04,-0.28 0.11,-0.55 0.21,-0.81 0.09,-0.26 0.21,-0.5 0.35,-0.73 0.14,-0.23 0.31,-0.43 0.51,-0.6 0.2,-0.17 0.42,-0.3 0.68,-0.4 0.25,-0.1 0.54,-0.15 0.86,-0.15 0.32,0 0.6,0.05 0.86,0.15 0.26,0.1 0.48,0.23 0.68,0.4 0.2,0.17 0.37,0.37 0.51,0.59 0.14,0.23 0.26,0.47 0.36,0.73 0.09,0.26 0.16,0.53 0.2,0.81 0.04,0.28 0.07,0.56 0.07,0.83 v 0.88 c 0,0.27 -0.03,0.55 -0.07,0.83 z m -0.93,-2.29 c -0.02,-0.2 -0.06,-0.4 -0.11,-0.59 -0.05,-0.19 -0.12,-0.38 -0.21,-0.56 -0.09,-0.18 -0.19,-0.34 -0.32,-0.47 -0.13,-0.13 -0.28,-0.24 -0.45,-0.32 -0.17,-0.08 -0.37,-0.12 -0.6,-0.12 -0.23,0 -0.42,0.04 -0.6,0.12 -0.17,0.08 -0.32,0.19 -0.45,0.32 -0.13,0.14 -0.23,0.29 -0.32,0.47 -0.08,0.18 -0.15,0.36 -0.2,0.56 -0.05,0.2 -0.09,0.4 -0.11,0.59 -0.02,0.19 -0.04,0.39 -0.04,0.57 v 0.89 c 0,0.18 0.02,0.37 0.04,0.57 0.02,0.2 0.06,0.4 0.11,0.59 0.05,0.2 0.12,0.39 0.21,0.56 0.08,0.18 0.19,0.34 0.32,0.47 0.13,0.14 0.28,0.25 0.45,0.33 0.17,0.08 0.37,0.12 0.6,0.12 0.23,0 0.43,-0.04 0.6,-0.12 0.17,-0.08 0.32,-0.19 0.45,-0.33 0.12,-0.13 0.23,-0.29 0.31,-0.47 0.08,-0.18 0.15,-0.37 0.2,-0.56 0.05,-0.19 0.08,-0.39 0.1,-0.59 0.02,-0.2 0.03,-0.39 0.03,-0.58 v -0.89 c 0,-0.18 -0.02,-0.37 -0.04,-0.57 z"
       id="path224" />
    <path
       d="m 359.73,21.32 c -0.04,0.23 -0.09,0.45 -0.16,0.65 -0.1,0.26 -0.22,0.5 -0.37,0.71 -0.15,0.21 -0.34,0.38 -0.55,0.52 -0.15,0.1 -0.32,0.17 -0.51,0.22 -0.19,0.05 -0.38,0.08 -0.6,0.08 -0.25,0 -0.47,-0.03 -0.67,-0.09 -0.2,-0.06 -0.38,-0.15 -0.55,-0.26 -0.08,-0.06 -0.15,-0.12 -0.22,-0.19 -0.07,-0.07 -0.14,-0.14 -0.2,-0.22 l -0.05,0.65 h -0.9 v -8.11 h 0.98 v 3.01 c 0.08,-0.1 0.17,-0.19 0.27,-0.28 0.1,-0.08 0.2,-0.15 0.32,-0.21 0.14,-0.07 0.3,-0.13 0.46,-0.17 0.16,-0.04 0.35,-0.06 0.55,-0.06 0.25,0 0.47,0.03 0.68,0.1 0.21,0.07 0.4,0.16 0.56,0.28 0.15,0.11 0.29,0.25 0.41,0.41 0.12,0.16 0.23,0.34 0.32,0.54 0.1,0.22 0.17,0.47 0.22,0.74 0.05,0.27 0.07,0.55 0.07,0.85 v 0.11 c 0,0.25 -0.02,0.49 -0.06,0.72 z m -0.96,-1.36 c -0.02,-0.17 -0.06,-0.33 -0.1,-0.48 -0.06,-0.19 -0.15,-0.36 -0.25,-0.51 -0.1,-0.15 -0.23,-0.28 -0.37,-0.36 -0.1,-0.06 -0.22,-0.11 -0.34,-0.15 -0.12,-0.04 -0.27,-0.05 -0.42,-0.05 -0.17,0 -0.32,0.02 -0.46,0.07 -0.14,0.04 -0.27,0.1 -0.37,0.18 -0.11,0.08 -0.21,0.18 -0.3,0.28 -0.09,0.11 -0.16,0.22 -0.22,0.35 v 2.5 c 0.06,0.13 0.14,0.24 0.22,0.35 0.09,0.11 0.19,0.2 0.3,0.28 0.11,0.08 0.24,0.14 0.38,0.19 0.14,0.04 0.3,0.07 0.46,0.07 0.16,0 0.31,-0.02 0.44,-0.06 0.13,-0.04 0.25,-0.1 0.36,-0.18 0.14,-0.1 0.26,-0.22 0.35,-0.38 0.1,-0.15 0.17,-0.32 0.23,-0.51 0.05,-0.14 0.08,-0.29 0.1,-0.45 0.02,-0.16 0.03,-0.33 0.03,-0.5 v -0.11 c 0,-0.18 -0.01,-0.35 -0.03,-0.53 z"
       id="path226" />
    <path
       d="m 364.98,17.68 v 5.75 c 0,0.37 -0.05,0.69 -0.15,0.97 -0.1,0.28 -0.25,0.52 -0.44,0.71 -0.19,0.19 -0.43,0.34 -0.7,0.44 -0.28,0.1 -0.59,0.15 -0.94,0.15 -0.11,0 -0.21,0 -0.32,0 -0.11,0 -0.2,0 -0.3,-0.02 -0.08,0 -0.16,-0.02 -0.24,-0.03 -0.08,-0.01 -0.17,-0.03 -0.25,-0.04 l 0.07,-0.8 c 0.06,0.01 0.14,0.02 0.23,0.03 0.09,0.01 0.18,0.02 0.28,0.02 0.09,0 0.18,0.01 0.27,0.01 0.09,0 0.15,0 0.2,0 0.18,0 0.36,-0.02 0.52,-0.07 0.16,-0.05 0.3,-0.13 0.42,-0.24 0.12,-0.11 0.21,-0.26 0.28,-0.45 0.07,-0.18 0.1,-0.41 0.1,-0.68 v -4.9 h -1.91 v -0.85 z m -0.97,-1.91 c 0.09,-0.11 0.24,-0.17 0.44,-0.17 0.2,0 0.34,0.06 0.44,0.17 0.1,0.11 0.15,0.25 0.15,0.4 0,0.15 -0.05,0.29 -0.15,0.4 -0.1,0.11 -0.25,0.16 -0.44,0.16 -0.19,0 -0.34,-0.05 -0.44,-0.16 -0.1,-0.11 -0.14,-0.24 -0.14,-0.4 0,-0.16 0.05,-0.29 0.14,-0.4 z"
       id="path228" />
    <path
       d="m 369.34,23.29 c -0.34,-0.14 -0.62,-0.33 -0.86,-0.58 -0.24,-0.25 -0.43,-0.54 -0.56,-0.88 -0.13,-0.34 -0.2,-0.71 -0.2,-1.1 v -0.22 c 0,-0.46 0.07,-0.87 0.22,-1.24 0.15,-0.36 0.34,-0.67 0.59,-0.93 0.24,-0.25 0.52,-0.44 0.83,-0.58 0.31,-0.13 0.63,-0.2 0.96,-0.2 0.41,0 0.77,0.07 1.08,0.21 0.31,0.14 0.56,0.34 0.77,0.59 0.2,0.25 0.36,0.55 0.46,0.89 0.1,0.34 0.15,0.71 0.15,1.11 v 0.44 h -4.08 v 0.04 c 0.02,0.28 0.08,0.52 0.17,0.73 0.09,0.21 0.21,0.4 0.36,0.56 0.15,0.17 0.34,0.31 0.56,0.41 0.22,0.1 0.46,0.15 0.72,0.15 0.35,0 0.66,-0.07 0.93,-0.21 0.27,-0.14 0.5,-0.33 0.68,-0.56 l 0.6,0.46 c -0.19,0.29 -0.47,0.54 -0.85,0.77 -0.38,0.22 -0.85,0.33 -1.4,0.33 -0.4,0 -0.77,-0.07 -1.11,-0.21 z m 0.42,-4.81 c -0.18,0.07 -0.33,0.18 -0.47,0.31 -0.14,0.14 -0.26,0.31 -0.36,0.51 -0.1,0.2 -0.16,0.44 -0.2,0.7 h 3.07 v -0.05 c 0,-0.18 -0.03,-0.37 -0.1,-0.57 -0.07,-0.2 -0.16,-0.38 -0.28,-0.53 -0.12,-0.15 -0.27,-0.27 -0.45,-0.36 -0.18,-0.09 -0.4,-0.14 -0.65,-0.14 -0.2,0 -0.38,0.04 -0.56,0.11 z"
       id="path230" />
    <path
       d="m 377.35,22.62 c 0.17,-0.06 0.32,-0.14 0.45,-0.24 0.13,-0.1 0.23,-0.22 0.31,-0.35 0.08,-0.14 0.12,-0.28 0.12,-0.44 h 0.92 c 0,0.25 -0.07,0.5 -0.2,0.73 -0.13,0.23 -0.3,0.43 -0.51,0.6 -0.21,0.18 -0.46,0.32 -0.74,0.42 -0.28,0.1 -0.57,0.16 -0.87,0.16 -0.43,0 -0.81,-0.08 -1.13,-0.23 -0.32,-0.15 -0.59,-0.36 -0.81,-0.63 -0.22,-0.26 -0.38,-0.56 -0.49,-0.91 -0.11,-0.34 -0.16,-0.7 -0.16,-1.08 v -0.22 c 0,-0.38 0.05,-0.74 0.16,-1.08 0.11,-0.34 0.27,-0.65 0.49,-0.91 0.21,-0.26 0.48,-0.47 0.81,-0.62 0.33,-0.15 0.7,-0.23 1.13,-0.23 0.34,0 0.65,0.05 0.93,0.16 0.28,0.11 0.53,0.25 0.74,0.44 0.2,0.19 0.36,0.41 0.48,0.66 0.12,0.25 0.17,0.52 0.17,0.81 h -0.92 c 0,-0.17 -0.04,-0.33 -0.11,-0.49 -0.07,-0.15 -0.17,-0.29 -0.29,-0.4 -0.12,-0.12 -0.27,-0.21 -0.44,-0.27 -0.17,-0.07 -0.35,-0.1 -0.55,-0.1 -0.3,0 -0.56,0.06 -0.76,0.18 -0.21,0.12 -0.37,0.28 -0.5,0.47 -0.13,0.2 -0.22,0.42 -0.27,0.66 -0.05,0.24 -0.08,0.49 -0.08,0.73 v 0.22 c 0,0.25 0.03,0.5 0.08,0.74 0.05,0.24 0.15,0.46 0.27,0.66 0.12,0.2 0.29,0.36 0.49,0.48 0.21,0.12 0.46,0.18 0.77,0.18 0.18,0 0.35,-0.03 0.51,-0.08 z"
       id="path232" />
    <path
       d="m 383.21,17.68 h 2.17 v 0.75 h -2.17 v 3.1 c 0,0.22 0.03,0.4 0.08,0.55 0.06,0.14 0.13,0.26 0.23,0.34 0.1,0.09 0.21,0.15 0.34,0.18 0.13,0.03 0.26,0.05 0.41,0.05 0.11,0 0.21,0 0.33,-0.02 0.11,-0.01 0.22,-0.03 0.33,-0.04 0.11,-0.02 0.21,-0.04 0.3,-0.06 0.09,-0.02 0.17,-0.04 0.23,-0.05 l 0.14,0.69 c -0.08,0.05 -0.18,0.09 -0.3,0.13 -0.12,0.04 -0.24,0.07 -0.38,0.09 -0.14,0.03 -0.28,0.05 -0.44,0.06 -0.15,0.01 -0.31,0.02 -0.46,0.02 -0.25,0 -0.49,-0.04 -0.71,-0.11 -0.22,-0.07 -0.41,-0.19 -0.57,-0.35 -0.16,-0.15 -0.29,-0.36 -0.38,-0.6 -0.09,-0.24 -0.14,-0.55 -0.14,-0.9 v -3.1 h -1.5 v -0.75 h 1.5 v -1.38 h 0.98 v 1.38 z"
       id="path234" />
    <path
       d="m 388.46,18.85 c 0.08,-0.44 0.19,-0.85 0.32,-1.23 0.13,-0.38 0.29,-0.72 0.46,-1.03 0.17,-0.31 0.36,-0.59 0.55,-0.83 0.19,-0.24 0.38,-0.45 0.58,-0.62 0.19,-0.17 0.38,-0.31 0.55,-0.41 l 0.21,0.64 c -0.11,0.08 -0.23,0.19 -0.34,0.31 -0.11,0.12 -0.23,0.25 -0.33,0.4 -0.16,0.23 -0.32,0.5 -0.46,0.8 -0.15,0.31 -0.27,0.65 -0.37,1.01 -0.1,0.33 -0.17,0.69 -0.22,1.09 -0.05,0.4 -0.08,0.83 -0.08,1.28 v 0.07 c 0,0.44 0.02,0.85 0.07,1.24 0.05,0.38 0.12,0.74 0.2,1.06 0.09,0.33 0.2,0.63 0.32,0.91 0.12,0.28 0.24,0.53 0.38,0.75 0.13,0.21 0.27,0.4 0.41,0.56 0.14,0.16 0.29,0.3 0.43,0.42 l -0.21,0.6 c -0.18,-0.1 -0.36,-0.23 -0.56,-0.4 -0.2,-0.17 -0.39,-0.38 -0.58,-0.62 -0.19,-0.24 -0.38,-0.52 -0.55,-0.83 -0.17,-0.31 -0.33,-0.66 -0.46,-1.04 -0.13,-0.38 -0.24,-0.79 -0.32,-1.23 -0.08,-0.44 -0.12,-0.92 -0.12,-1.42 v -0.05 c 0,-0.5 0.04,-0.98 0.12,-1.42 z"
       id="path236" />
    <path
       d="m 397.31,21.74 c -0.08,0.44 -0.19,0.85 -0.32,1.23 -0.13,0.38 -0.29,0.73 -0.46,1.04 -0.17,0.31 -0.36,0.59 -0.55,0.83 -0.19,0.25 -0.39,0.45 -0.58,0.62 -0.2,0.17 -0.38,0.31 -0.56,0.4 l -0.21,-0.6 c 0.15,-0.11 0.3,-0.25 0.45,-0.42 0.15,-0.17 0.3,-0.37 0.43,-0.6 0.13,-0.23 0.26,-0.49 0.38,-0.77 0.12,-0.28 0.22,-0.6 0.3,-0.94 0.08,-0.32 0.14,-0.66 0.19,-1.03 0.05,-0.37 0.07,-0.76 0.07,-1.18 v -0.07 c 0,-0.48 -0.03,-0.91 -0.09,-1.29 -0.06,-0.38 -0.12,-0.72 -0.19,-0.99 -0.1,-0.39 -0.23,-0.73 -0.37,-1.04 -0.14,-0.31 -0.29,-0.58 -0.44,-0.81 -0.12,-0.18 -0.24,-0.34 -0.36,-0.47 -0.12,-0.14 -0.24,-0.25 -0.36,-0.35 l 0.21,-0.6 c 0.18,0.1 0.36,0.23 0.56,0.41 0.2,0.17 0.39,0.38 0.58,0.62 0.2,0.25 0.38,0.53 0.55,0.83 0.17,0.3 0.32,0.65 0.45,1.03 0.13,0.37 0.23,0.77 0.31,1.2 0.08,0.43 0.12,0.92 0.12,1.45 v 0.05 c 0,0.5 -0.04,0.98 -0.12,1.42 z"
       id="path238" />
  </g>
  <path
     id="rect242"
     class="j"
     style="fill:none;stroke:#cf2144;stroke-miterlimit:10"
     d="M 228.67,3.5699999 H 414.53 V 42.900002 H 228.67 Z" />
  <path
     id="polyline244"
     class="g"
     transform="translate(0,4)"
     style="fill:none;stroke:#cf2144;stroke-miterlimit:10;stroke-dasharray:0, 0, 2, 2"
     d="M 185.09,181.96 H 322.73 543.59" />
  <path
     id="polyline246"
     class="g"
     transform="translate(0,4)"
     style="fill:none;stroke:#cf2144;stroke-miterlimit:10;stroke-dasharray:0, 0, 2, 2"
     d="m 543.47,141.21 v 43.28 41.22" />
  <path
     id="polyline248"
     class="s"
     transform="translate(0,4)"
     style="fill:#cf2144"
     d="m 543.24,141.21 h -2.18 l 2.53,-4.38 2.53,4.38 h -1.89" />
  <path
     id="polyline250"
     class="s"
     transform="translate(0,4)"
     style="fill:#cf2144"
     d="M 543.81,225.71 H 546 l -2.53,4.38 -2.53,-4.38 h 1.88" />
  <g
     id="g258"
     transform="translate(0,4)">
    <path
       id="rect252"
       class="k"
       style="fill:#ffffff;stroke:#000000;stroke-width:1.08px;stroke-miterlimit:10"
       d="m 16.33,133.21001 h 61.990002 v 16.52 H 16.33 Z" />
    <g
       aria-label="200OK 10ms"
       transform="translate(23.44,144.21)"
       id="text256"
       class="w"
       style="font-size:8px;font-family:RobotoMono-Regular, 'Roboto Mono';font-variation-settings:'wght' 400">
      <path
         d="M 4.16,0 H 0.384 V -0.584 L 1.88,-2.096 Q 2.312,-2.528 2.608,-2.864 2.904,-3.2 3.056,-3.52 q 0.152,-0.328 0.152,-0.712 0,-0.472 -0.28,-0.712 -0.28,-0.248 -0.728,-0.248 -0.416,0 -0.736,0.144 -0.312,0.144 -0.64,0.4 L 0.448,-5.12 q 0.336,-0.28 0.768,-0.472 0.44,-0.2 0.984,-0.2 0.8,0 1.264,0.408 0.464,0.4 0.464,1.112 0,0.448 -0.184,0.84 Q 3.56,-3.04 3.232,-2.656 2.904,-2.28 2.464,-1.848 L 1.272,-0.672 V -0.64 H 4.16 Z"
         id="path18248" />
      <path
         d="m 8.760004,-2.864 q 0,0.92 -0.192,1.584 -0.192,0.656 -0.608,1.008 -0.416,0.352 -1.104,0.352 -0.968,0 -1.432,-0.776 -0.456,-0.784 -0.456,-2.168 0,-0.928 0.184,-1.584 0.192,-0.656 0.608,-1 0.416,-0.352 1.096,-0.352 0.96,0 1.432,0.776 0.472,0.768 0.472,2.16 z m -3.088,0 q 0,1.176 0.264,1.76 0.272,0.584 0.92,0.584 0.64,0 0.912,-0.576 0.28,-0.584 0.28,-1.768 0,-1.168 -0.28,-1.752 -0.272,-0.584 -0.912,-0.584 -0.648,0 -0.92,0.584 -0.264,0.584 -0.264,1.752 z"
         id="path18250" />
      <path
         d="m 13.336008,-2.864 q 0,0.92 -0.192,1.584 -0.192,0.656 -0.608,1.008 -0.416,0.352 -1.104,0.352 -0.968,0 -1.432,-0.776 -0.4559999,-0.784 -0.4559999,-2.168 0,-0.928 0.184,-1.584 0.192,-0.656 0.6079999,-1 0.416,-0.352 1.096,-0.352 0.96,0 1.432,0.776 0.472,0.768 0.472,2.16 z m -3.088,0 q 0,1.176 0.264,1.76 0.272,0.584 0.92,0.584 0.64,0 0.912,-0.576 0.28,-0.584 0.28,-1.768 0,-1.168 -0.28,-1.752 -0.272,-0.584 -0.912,-0.584 -0.648,0 -0.92,0.584 -0.264,0.584 -0.264,1.752 z"
         id="path18252" />
      <path
         d="m 19.488012,-2.864 q 0,0.888 -0.304,1.552 -0.296,0.656 -0.88,1.024 -0.584,0.368 -1.448,0.368 -0.888,0 -1.48,-0.368 -0.584,-0.368 -0.872,-1.032 -0.288,-0.664 -0.288,-1.552 0,-0.88 0.288,-1.536 0.288,-0.656 0.872,-1.024 0.592,-0.368 1.488,-0.368 0.856,0 1.44,0.368 0.584,0.36 0.88,1.024 0.304,0.656 0.304,1.544 z m -4.512,0 q 0,1.08 0.456,1.704 0.456,0.616 1.424,0.616 0.976,0 1.424,-0.616 0.448,-0.624 0.448,-1.704 0,-1.08 -0.448,-1.688 -0.448,-0.616 -1.416,-0.616 -0.968,0 -1.432,0.616 -0.456,0.608 -0.456,1.688 z"
         id="path18254" />
      <path
         d="m 24.928013,0 h -0.848 l -2.024,-2.728 -0.584,0.512 V 0 h -0.72 v -5.712 h 0.72 v 2.816 q 0.24,-0.272 0.488,-0.544 0.248,-0.272 0.496,-0.544 l 1.544,-1.728 h 0.84 l -2.264,2.488 z"
         id="path18256" />
      <path
         d="m 29.848011,0 h -0.688 v -3.992 q 0,-0.344 0.008,-0.552 0.008,-0.208 0.024,-0.432 -0.128,0.128 -0.232,0.216 -0.104,0.088 -0.264,0.224 l -0.608,0.496 -0.368,-0.472 1.544,-1.2 h 0.584 z"
         id="path18258" />
      <path
         d="m 35.768015,-2.864 q 0,0.92 -0.192,1.584 -0.192,0.656 -0.608,1.008 -0.416,0.352 -1.104,0.352 -0.968,0 -1.432,-0.776 -0.456,-0.784 -0.456,-2.168 0,-0.928 0.184,-1.584 0.192,-0.656 0.608,-1 0.416,-0.352 1.096,-0.352 0.96,0 1.432,0.776 0.472,0.768 0.472,2.16 z m -3.088,0 q 0,1.176 0.264,1.76 0.272,0.584 0.92,0.584 0.64,0 0.912,-0.576 0.28,-0.584 0.28,-1.768 0,-1.168 -0.28,-1.752 -0.272,-0.584 -0.912,-0.584 -0.648,0 -0.92,0.584 -0.264,0.584 -0.264,1.752 z"
         id="path18260" />
      <path
         d="m 41.544019,-4.368 q 0.728,0 1.088,0.376 0.36,0.368 0.36,1.2 V 0 h -0.696 v -2.76 q 0,-1.016 -0.872,-1.016 -0.624,0 -0.896,0.36 -0.264,0.36 -0.264,1.048 V 0 h -0.696 v -2.76 q 0,-1.016 -0.88,-1.016 -0.648,0 -0.896,0.4 -0.248,0.4 -0.248,1.152 V 0 h -0.704 v -4.288 h 0.568 l 0.104,0.584 h 0.04 q 0.2,-0.336 0.536,-0.496 0.344,-0.168 0.728,-0.168 1.008,0 1.312,0.72 h 0.04 q 0.216,-0.368 0.584,-0.544 0.376,-0.176 0.792,-0.176 z"
         id="path18262" />
      <path
         d="m 47.112015,-1.184 q 0,0.624 -0.464,0.944 -0.464,0.32 -1.248,0.32 -0.448,0 -0.776,-0.072 -0.32,-0.072 -0.568,-0.2 v -0.64 q 0.256,0.128 0.616,0.24 0.368,0.104 0.744,0.104 0.536,0 0.776,-0.168 0.24,-0.176 0.24,-0.464 0,-0.16 -0.088,-0.288 -0.088,-0.128 -0.32,-0.256 -0.224,-0.128 -0.648,-0.288 -0.416,-0.16 -0.712,-0.32 -0.296,-0.16 -0.456,-0.384 -0.16,-0.224 -0.16,-0.576 0,-0.544 0.44,-0.84 0.448,-0.296 1.168,-0.296 0.392,0 0.728,0.08 0.344,0.072 0.64,0.208 l -0.24,0.56 q -0.272,-0.112 -0.568,-0.192 -0.296,-0.08 -0.608,-0.08 -0.432,0 -0.664,0.144 -0.224,0.136 -0.224,0.376 0,0.176 0.104,0.304 0.104,0.12 0.344,0.24 0.248,0.112 0.656,0.272 0.408,0.152 0.696,0.312 0.288,0.16 0.44,0.392 0.152,0.224 0.152,0.568 z"
         id="path18264" />
    </g>
  </g>
  <g
     id="g266"
     transform="translate(0,4)">
    <path
       id="rect260"
       class="k"
       style="fill:#ffffff;stroke:#000000;stroke-width:1.08px;stroke-miterlimit:10"
       d="m 457.88,142.85001 h 61.99001 v 16.52 H 457.88 Z" />
    <g
       aria-label="200OK 100ms"
       transform="translate(462.59,153.84)"
       id="text264"
       class="w"
       style="font-size:8px;font-family:RobotoMono-Regular, 'Roboto Mono';font-variation-settings:'wght' 400">
      <path
         d="M 4.16,0 H 0.384 V -0.584 L 1.88,-2.096 Q 2.312,-2.528 2.608,-2.864 2.904,-3.2 3.056,-3.52 q 0.152,-0.328 0.152,-0.712 0,-0.472 -0.28,-0.712 -0.28,-0.248 -0.728,-0.248 -0.416,0 -0.736,0.144 -0.312,0.144 -0.64,0.4 L 0.448,-5.12 q 0.336,-0.28 0.768,-0.472 0.44,-0.2 0.984,-0.2 0.8,0 1.264,0.408 0.464,0.4 0.464,1.112 0,0.448 -0.184,0.84 Q 3.56,-3.04 3.232,-2.656 2.904,-2.28 2.464,-1.848 L 1.272,-0.672 V -0.64 H 4.16 Z"
         id="path18226" />
      <path
         d="m 8.760004,-2.864 q 0,0.92 -0.192,1.584 -0.192,0.656 -0.608,1.008 -0.416,0.352 -1.104,0.352 -0.968,0 -1.432,-0.776 -0.456,-0.784 -0.456,-2.168 0,-0.928 0.184,-1.584 0.192,-0.656 0.608,-1 0.416,-0.352 1.096,-0.352 0.96,0 1.432,0.776 0.472,0.768 0.472,2.16 z m -3.088,0 q 0,1.176 0.264,1.76 0.272,0.584 0.92,0.584 0.64,0 0.912,-0.576 0.28,-0.584 0.28,-1.768 0,-1.168 -0.28,-1.752 -0.272,-0.584 -0.912,-0.584 -0.648,0 -0.92,0.584 -0.264,0.584 -0.264,1.752 z"
         id="path18228" />
      <path
         d="m 13.336008,-2.864 q 0,0.92 -0.192,1.584 -0.192,0.656 -0.608,1.008 -0.416,0.352 -1.104,0.352 -0.968,0 -1.432,-0.776 -0.4559999,-0.784 -0.4559999,-2.168 0,-0.928 0.184,-1.584 0.192,-0.656 0.6079999,-1 0.416,-0.352 1.096,-0.352 0.96,0 1.432,0.776 0.472,0.768 0.472,2.16 z m -3.088,0 q 0,1.176 0.264,1.76 0.272,0.584 0.92,0.584 0.64,0 0.912,-0.576 0.28,-0.584 0.28,-1.768 0,-1.168 -0.28,-1.752 -0.272,-0.584 -0.912,-0.584 -0.648,0 -0.92,0.584 -0.264,0.584 -0.264,1.752 z"
         id="path18230" />
      <path
         d="m 19.488012,-2.864 q 0,0.888 -0.304,1.552 -0.296,0.656 -0.88,1.024 -0.584,0.368 -1.448,0.368 -0.888,0 -1.48,-0.368 -0.584,-0.368 -0.872,-1.032 -0.288,-0.664 -0.288,-1.552 0,-0.88 0.288,-1.536 0.288,-0.656 0.872,-1.024 0.592,-0.368 1.488,-0.368 0.856,0 1.44,0.368 0.584,0.36 0.88,1.024 0.304,0.656 0.304,1.544 z m -4.512,0 q 0,1.08 0.456,1.704 0.456,0.616 1.424,0.616 0.976,0 1.424,-0.616 0.448,-0.624 0.448,-1.704 0,-1.08 -0.448,-1.688 -0.448,-0.616 -1.416,-0.616 -0.968,0 -1.432,0.616 -0.456,0.608 -0.456,1.688 z"
         id="path18232" />
      <path
         d="m 24.928013,0 h -0.848 l -2.024,-2.728 -0.584,0.512 V 0 h -0.72 v -5.712 h 0.72 v 2.816 q 0.24,-0.272 0.488,-0.544 0.248,-0.272 0.496,-0.544 l 1.544,-1.728 h 0.84 l -2.264,2.488 z"
         id="path18234" />
      <path
         d="m 29.848011,0 h -0.688 v -3.992 q 0,-0.344 0.008,-0.552 0.008,-0.208 0.024,-0.432 -0.128,0.128 -0.232,0.216 -0.104,0.088 -0.264,0.224 l -0.608,0.496 -0.368,-0.472 1.544,-1.2 h 0.584 z"
         id="path18236" />
      <path
         d="m 35.768015,-2.864 q 0,0.92 -0.192,1.584 -0.192,0.656 -0.608,1.008 -0.416,0.352 -1.104,0.352 -0.968,0 -1.432,-0.776 -0.456,-0.784 -0.456,-2.168 0,-0.928 0.184,-1.584 0.192,-0.656 0.608,-1 0.416,-0.352 1.096,-0.352 0.96,0 1.432,0.776 0.472,0.768 0.472,2.16 z m -3.088,0 q 0,1.176 0.264,1.76 0.272,0.584 0.92,0.584 0.64,0 0.912,-0.576 0.28,-0.584 0.28,-1.768 0,-1.168 -0.28,-1.752 -0.272,-0.584 -0.912,-0.584 -0.648,0 -0.92,0.584 -0.264,0.584 -0.264,1.752 z"
         id="path18238" />
      <path
         d="m 40.344019,-2.864 q 0,0.92 -0.192,1.584 -0.192,0.656 -0.608,1.008 -0.416,0.352 -1.104,0.352 -0.968,0 -1.432,-0.776 -0.456,-0.784 -0.456,-2.168 0,-0.928 0.184,-1.584 0.192,-0.656 0.608,-1 0.416,-0.352 1.096,-0.352 0.96,0 1.432,0.776 0.472,0.768 0.472,2.16 z m -3.088,0 q 0,1.176 0.264,1.76 0.272,0.584 0.92,0.584 0.64,0 0.912,-0.576 0.28,-0.584 0.28,-1.768 0,-1.168 -0.28,-1.752 -0.272,-0.584 -0.912,-0.584 -0.648,0 -0.92,0.584 -0.264,0.584 -0.264,1.752 z"
         id="path18240" />
      <path
         d="m 46.120023,-4.368 q 0.728,0 1.088,0.376 0.36,0.368 0.36,1.2 V 0 h -0.696 v -2.76 q 0,-1.016 -0.872,-1.016 -0.624,0 -0.896,0.36 -0.264,0.36 -0.264,1.048 V 0 h -0.696 v -2.76 q 0,-1.016 -0.88,-1.016 -0.648,0 -0.896,0.4 -0.248,0.4 -0.248,1.152 V 0 h -0.704 v -4.288 h 0.568 l 0.104,0.584 h 0.04 q 0.2,-0.336 0.536,-0.496 0.344,-0.168 0.728,-0.168 1.008,0 1.312,0.72 h 0.04 q 0.216,-0.368 0.584,-0.544 0.376,-0.176 0.792,-0.176 z"
         id="path18242" />
      <path
         d="m 51.688019,-1.184 q 0,0.624 -0.464,0.944 -0.464,0.32 -1.248,0.32 -0.448,0 -0.776,-0.072 -0.32,-0.072 -0.568,-0.2 v -0.64 q 0.256,0.128 0.616,0.24 0.368,0.104 0.744,0.104 0.536,0 0.776,-0.168 0.24,-0.176 0.24,-0.464 0,-0.16 -0.088,-0.288 -0.088,-0.128 -0.32,-0.256 -0.224,-0.128 -0.648,-0.288 -0.416,-0.16 -0.712,-0.32 -0.296,-0.16 -0.456,-0.384 -0.16,-0.224 -0.16,-0.576 0,-0.544 0.44,-0.84 0.448,-0.296 1.168,-0.296 0.392,0 0.728,0.08 0.344,0.072 0.64,0.208 l -0.24,0.56 q -0.272,-0.112 -0.568,-0.192 -0.296,-0.08 -0.608,-0.08 -0.432,0 -0.664,0.144 -0.224,0.136 -0.224,0.376 0,0.176 0.104,0.304 0.104,0.12 0.344,0.24 0.248,0.112 0.656,0.272 0.408,0.152 0.696,0.312 0.288,0.16 0.44,0.392 0.152,0.224 0.152,0.568 z"
         id="path18244" />
    </g>
  </g>
  <g
     id="g274"
     transform="translate(0,4)">
    <path
       id="rect268"
       class="k"
       style="fill:#ffffff;stroke:#000000;stroke-width:1.08px;stroke-miterlimit:10"
       d="m 457.88,289.29001 h 61.99001 v 16.52 H 457.88 Z" />
    <g
       aria-label="200OK 100ms"
       transform="translate(462.59,300.28)"
       id="text272"
       class="w"
       style="font-size:8px;font-family:RobotoMono-Regular, 'Roboto Mono';font-variation-settings:'wght' 400">
      <path
         d="M 4.16,0 H 0.384 V -0.584 L 1.88,-2.096 Q 2.312,-2.528 2.608,-2.864 2.904,-3.2 3.056,-3.52 q 0.152,-0.328 0.152,-0.712 0,-0.472 -0.28,-0.712 -0.28,-0.248 -0.728,-0.248 -0.416,0 -0.736,0.144 -0.312,0.144 -0.64,0.4 L 0.448,-5.12 q 0.336,-0.28 0.768,-0.472 0.44,-0.2 0.984,-0.2 0.8,0 1.264,0.408 0.464,0.4 0.464,1.112 0,0.448 -0.184,0.84 Q 3.56,-3.04 3.232,-2.656 2.904,-2.28 2.464,-1.848 L 1.272,-0.672 V -0.64 H 4.16 Z"
         id="path18204" />
      <path
         d="m 8.760004,-2.864 q 0,0.92 -0.192,1.584 -0.192,0.656 -0.608,1.008 -0.416,0.352 -1.104,0.352 -0.968,0 -1.432,-0.776 -0.456,-0.784 -0.456,-2.168 0,-0.928 0.184,-1.584 0.192,-0.656 0.608,-1 0.416,-0.352 1.096,-0.352 0.96,0 1.432,0.776 0.472,0.768 0.472,2.16 z m -3.088,0 q 0,1.176 0.264,1.76 0.272,0.584 0.92,0.584 0.64,0 0.912,-0.576 0.28,-0.584 0.28,-1.768 0,-1.168 -0.28,-1.752 -0.272,-0.584 -0.912,-0.584 -0.648,0 -0.92,0.584 -0.264,0.584 -0.264,1.752 z"
         id="path18206" />
      <path
         d="m 13.336008,-2.864 q 0,0.92 -0.192,1.584 -0.192,0.656 -0.608,1.008 -0.416,0.352 -1.104,0.352 -0.968,0 -1.432,-0.776 -0.4559999,-0.784 -0.4559999,-2.168 0,-0.928 0.184,-1.584 0.192,-0.656 0.6079999,-1 0.416,-0.352 1.096,-0.352 0.96,0 1.432,0.776 0.472,0.768 0.472,2.16 z m -3.088,0 q 0,1.176 0.264,1.76 0.272,0.584 0.92,0.584 0.64,0 0.912,-0.576 0.28,-0.584 0.28,-1.768 0,-1.168 -0.28,-1.752 -0.272,-0.584 -0.912,-0.584 -0.648,0 -0.92,0.584 -0.264,0.584 -0.264,1.752 z"
         id="path18208" />
      <path
         d="m 19.488012,-2.864 q 0,0.888 -0.304,1.552 -0.296,0.656 -0.88,1.024 -0.584,0.368 -1.448,0.368 -0.888,0 -1.48,-0.368 -0.584,-0.368 -0.872,-1.032 -0.288,-0.664 -0.288,-1.552 0,-0.88 0.288,-1.536 0.288,-0.656 0.872,-1.024 0.592,-0.368 1.488,-0.368 0.856,0 1.44,0.368 0.584,0.36 0.88,1.024 0.304,0.656 0.304,1.544 z m -4.512,0 q 0,1.08 0.456,1.704 0.456,0.616 1.424,0.616 0.976,0 1.424,-0.616 0.448,-0.624 0.448,-1.704 0,-1.08 -0.448,-1.688 -0.448,-0.616 -1.416,-0.616 -0.968,0 -1.432,0.616 -0.456,0.608 -0.456,1.688 z"
         id="path18210" />
      <path
         d="m 24.928013,0 h -0.848 l -2.024,-2.728 -0.584,0.512 V 0 h -0.72 v -5.712 h 0.72 v 2.816 q 0.24,-0.272 0.488,-0.544 0.248,-0.272 0.496,-0.544 l 1.544,-1.728 h 0.84 l -2.264,2.488 z"
         id="path18212" />
      <path
         d="m 29.848011,0 h -0.688 v -3.992 q 0,-0.344 0.008,-0.552 0.008,-0.208 0.024,-0.432 -0.128,0.128 -0.232,0.216 -0.104,0.088 -0.264,0.224 l -0.608,0.496 -0.368,-0.472 1.544,-1.2 h 0.584 z"
         id="path18214" />
      <path
         d="m 35.768015,-2.864 q 0,0.92 -0.192,1.584 -0.192,0.656 -0.608,1.008 -0.416,0.352 -1.104,0.352 -0.968,0 -1.432,-0.776 -0.456,-0.784 -0.456,-2.168 0,-0.928 0.184,-1.584 0.192,-0.656 0.608,-1 0.416,-0.352 1.096,-0.352 0.96,0 1.432,0.776 0.472,0.768 0.472,2.16 z m -3.088,0 q 0,1.176 0.264,1.76 0.272,0.584 0.92,0.584 0.64,0 0.912,-0.576 0.28,-0.584 0.28,-1.768 0,-1.168 -0.28,-1.752 -0.272,-0.584 -0.912,-0.584 -0.648,0 -0.92,0.584 -0.264,0.584 -0.264,1.752 z"
         id="path18216" />
      <path
         d="m 40.344019,-2.864 q 0,0.92 -0.192,1.584 -0.192,0.656 -0.608,1.008 -0.416,0.352 -1.104,0.352 -0.968,0 -1.432,-0.776 -0.456,-0.784 -0.456,-2.168 0,-0.928 0.184,-1.584 0.192,-0.656 0.608,-1 0.416,-0.352 1.096,-0.352 0.96,0 1.432,0.776 0.472,0.768 0.472,2.16 z m -3.088,0 q 0,1.176 0.264,1.76 0.272,0.584 0.92,0.584 0.64,0 0.912,-0.576 0.28,-0.584 0.28,-1.768 0,-1.168 -0.28,-1.752 -0.272,-0.584 -0.912,-0.584 -0.648,0 -0.92,0.584 -0.264,0.584 -0.264,1.752 z"
         id="path18218" />
      <path
         d="m 46.120023,-4.368 q 0.728,0 1.088,0.376 0.36,0.368 0.36,1.2 V 0 h -0.696 v -2.76 q 0,-1.016 -0.872,-1.016 -0.624,0 -0.896,0.36 -0.264,0.36 -0.264,1.048 V 0 h -0.696 v -2.76 q 0,-1.016 -0.88,-1.016 -0.648,0 -0.896,0.4 -0.248,0.4 -0.248,1.152 V 0 h -0.704 v -4.288 h 0.568 l 0.104,0.584 h 0.04 q 0.2,-0.336 0.536,-0.496 0.344,-0.168 0.728,-0.168 1.008,0 1.312,0.72 h 0.04 q 0.216,-0.368 0.584,-0.544 0.376,-0.176 0.792,-0.176 z"
         id="path18220" />
      <path
         d="m 51.688019,-1.184 q 0,0.624 -0.464,0.944 -0.464,0.32 -1.248,0.32 -0.448,0 -0.776,-0.072 -0.32,-0.072 -0.568,-0.2 v -0.64 q 0.256,0.128 0.616,0.24 0.368,0.104 0.744,0.104 0.536,0 0.776,-0.168 0.24,-0.176 0.24,-0.464 0,-0.16 -0.088,-0.288 -0.088,-0.128 -0.32,-0.256 -0.224,-0.128 -0.648,-0.288 -0.416,-0.16 -0.712,-0.32 -0.296,-0.16 -0.456,-0.384 -0.16,-0.224 -0.16,-0.576 0,-0.544 0.44,-0.84 0.448,-0.296 1.168,-0.296 0.392,0 0.728,0.08 0.344,0.072 0.64,0.208 l -0.24,0.56 q -0.272,-0.112 -0.568,-0.192 -0.296,-0.08 -0.608,-0.08 -0.432,0 -0.664,0.144 -0.224,0.136 -0.224,0.376 0,0.176 0.104,0.304 0.104,0.12 0.344,0.24 0.248,0.112 0.656,0.272 0.408,0.152 0.696,0.312 0.288,0.16 0.44,0.392 0.152,0.224 0.152,0.568 z"
         id="path18222" />
    </g>
  </g>
</svg>
