<?xml version="1.0" encoding="UTF-8"?><svg id="a" xmlns="http://www.w3.org/2000/svg" viewBox="0 0 645.33 370.33"><defs><style>.b{font-family:RobotoMono-Regular, 'Roboto Mono';font-size:11.39px;font-variation-settings:'wght' 400;}.c{letter-spacing:-.04em;}.d{letter-spacing:0em;}.e{fill:#ededed;}.f,.g{fill:#fff;}.h{fill:#cf2144;}.i{fill:#1b1717;}.j{fill:#0c1835;}.k{letter-spacing:-.02em;}.l{stroke-width:1.28px;}.l,.m{stroke:#cf2144;}.l,.m,.n{fill:none;stroke-miterlimit:10;}.o{letter-spacing:.02em;}.m{stroke-width:1.36px;}.n{stroke:#1b1717;}.p{letter-spacing:-.03em;}.q{font-size:10px;}.q,.g{font-family:Inter-Bold, Inter;font-variation-settings:'wght' 700, 'slnt' 0;font-weight:700;}.r{letter-spacing:.01em;}.g{font-size:14px;}.s{letter-spacing:-.02em;}</style></defs><polyline class="i" points="219.3 41.12 219.3 43.31 214.92 40.78 219.3 38.25 219.3 40.13"/><line class="n" x1="355.07" y1="40.78" x2="219.3" y2="40.78"/><polyline class="i" points="452.6 40.43 452.6 38.25 456.98 40.78 452.6 43.31 452.6 41.42"/><line class="n" x1="316.84" y1="40.78" x2="452.6" y2="40.78"/><polyline class="i" points="219.3 113.63 219.3 115.82 214.92 113.29 219.3 110.76 219.3 112.64"/><line class="n" x1="355.07" y1="113.29" x2="219.3" y2="113.29"/><polyline class="i" points="452.6 112.94 452.6 110.76 456.98 113.29 452.6 115.82 452.6 113.93"/><line class="n" x1="316.84" y1="113.29" x2="452.6" y2="113.29"/><polyline class="i" points="219.3 186.15 219.3 188.33 214.92 185.8 219.3 183.27 219.3 185.16"/><line class="n" x1="355.07" y1="185.8" x2="219.3" y2="185.8"/><polyline class="i" points="452.6 185.45 452.6 183.27 456.98 185.8 452.6 188.33 452.6 186.44"/><line class="n" x1="316.84" y1="185.8" x2="452.6" y2="185.8"/><polyline class="i" points="219.3 258.66 219.3 260.84 214.92 258.31 219.3 255.78 219.3 257.67"/><line class="n" x1="355.07" y1="258.31" x2="219.3" y2="258.31"/><polyline class="i" points="452.6 257.96 452.6 255.78 456.98 258.31 452.6 260.84 452.6 258.95"/><line class="n" x1="316.84" y1="258.31" x2="452.6" y2="258.31"/><polyline class="i" points="219.3 331.17 219.3 333.35 214.92 330.82 219.3 328.29 219.3 330.18"/><line class="n" x1="355.07" y1="330.82" x2="219.3" y2="330.82"/><polyline class="i" points="452.6 330.48 452.6 328.29 456.98 330.82 452.6 333.35 452.6 331.47"/><line class="n" x1="316.84" y1="330.82" x2="452.6" y2="330.82"/><g><rect class="e" x="17.99" y="40.78" width="194.94" height="27.52"/><rect class="l" x="17.99" y="13.8" width="194.94" height="54.5"/><line class="m" x1="18.49" y1="40.78" x2="212.42" y2="40.78"/></g><g><rect class="e" x="17.99" y="113.02" width="194.94" height="27.52"/><rect class="l" x="17.99" y="86.04" width="194.94" height="54.5"/><line class="m" x1="18.49" y1="113.02" x2="212.42" y2="113.02"/></g><g><rect class="e" x="17.99" y="185.26" width="194.94" height="27.52"/><rect class="l" x="17.99" y="158.28" width="194.94" height="54.5"/><line class="m" x1="18.49" y1="185.26" x2="212.42" y2="185.26"/></g><g><rect class="e" x="17.99" y="257.5" width="194.94" height="27.52"/><rect class="l" x="17.99" y="230.53" width="194.94" height="54.5"/><line class="m" x1="18.49" y1="257.5" x2="212.42" y2="257.5"/></g><g><rect class="e" x="17.99" y="329.75" width="194.94" height="27.52"/><rect class="l" x="17.99" y="302.77" width="194.94" height="54.5"/><line class="m" x1="18.49" y1="329.75" x2="212.42" y2="329.75"/></g><g><path d="M60.47,29.22l3.42-1.29,.32-.09-.32-.1-3.42-1.27v-1.01l4.66,2v.77l-4.66,2v-1.01Z"/><text class="b" transform="translate(67.9 31.56)"><tspan x="0" y="0" xml:space="preserve"> GO_CLIENT .APP</tspan></text></g><g><path d="M53.81,101.47l3.42-1.29,.32-.09-.32-.1-3.42-1.27v-1.01l4.66,2v.77l-4.66,2v-1.01Z"/><text class="b" transform="translate(59.68 103.81)"><tspan x="0" y="0" xml:space="preserve"> JAVA_CLIENT .APP</tspan></text></g><g><path d="M46.82,173.89l3.42-1.29,.32-.09-.32-.1-3.42-1.27v-1.01l4.66,2v.77l-4.66,2v-1.01Z"/><text class="b" transform="translate(53.64 176.23)"><tspan x="0" y="0" xml:space="preserve"> PYTHON_CLIENT .APP</tspan></text></g><g><path d="M46.9,244.72l3.42-1.29,.32-.09-.32-.1-3.42-1.27v-1.01l4.66,2v.77l-4.66,2v-1.01Z"/><text class="b" transform="translate(54.72 247.05)"><tspan x="0" y="0" xml:space="preserve"> DOTNET_CLIENT .APP</tspan></text></g><g><path d="M24.53,317.38l3.42-1.29,.32-.09-.32-.1-3.42-1.27v-1.01l4.66,2v.77l-4.66,2v-1.01Z"/><text class="b" transform="translate(30 319.72)"><tspan x="0" y="0" xml:space="preserve"> S3_COMPATIBLE_CLIENT .APP</tspan></text></g><text class="q" transform="translate(97.07 57.98)"><tspan x="0" y="0">Go SDK</tspan></text><text class="q" transform="translate(92.47 131.1)"><tspan x="0" y="0">J</tspan><tspan class="s" x="5.7" y="0">a</tspan><tspan class="k" x="11.3" y="0">v</tspan><tspan class="d" x="17.01" y="0">a SDK</tspan></text><text class="q" transform="translate(86.32 202.25)"><tspan x="0" y="0">Py</tspan><tspan class="r" x="12.34" y="0">t</tspan><tspan x="16.33" y="0">hon SDK</tspan></text><text class="q" transform="translate(92.31 275.42)"><tspan x="0" y="0">.NET SDK</tspan></text><text class="q" transform="translate(68.3 346.57)"><tspan x="0" y="0">S3 Compatible SDK</tspan></text><rect class="h" x="349.72" y="121.53" width="344.98" height="129.88" transform="translate(708.68 -335.74) rotate(90)"/><g><g><rect class="f" x="508.13" y="180.61" width="4.49" height="11.71"/><path class="f" d="M502.69,180.77l-9.11,4.92c-.13,.07-.29,.07-.42,0l-9.11-4.92c-.2-.11-.42-.16-.65-.16h-.01c-.69,0-1.25,.49-1.25,1.1v10.59s4.49,0,4.49,0v-5.04c0-.31,.38-.5,.68-.34l5.11,2.76c.5,.27,1.14,.28,1.64,.01l5.39-2.79c.3-.15,.68,.04,.68,.34v5.06s4.49,0,4.49,0v-10.59c0-.61-.56-1.1-1.25-1.1h-.01c-.23,0-.46,.06-.65,.16Z"/><path class="f" d="M535.01,180.61h-4.55s0,5.33,0,5.33c0,.3-.36,.49-.66,.35l-11.8-5.55c-.18-.09-.38-.13-.59-.13h0c-.69,0-1.25,.49-1.25,1.1v10.59s4.52,0,4.52,0v-5.32c0-.3,.36-.49,.66-.35l11.85,5.55c.18,.08,.38,.13,.59,.13h0c.69,0,1.25-.49,1.25-1.1v-10.6Z"/></g><path class="f" d="M538.54,192.32v-11.71h2.07v11.71h-2.07Z"/><path class="f" d="M552.77,192.53c-5.56,0-9.5-2.33-9.5-6.06,0-3.71,3.97-6.06,9.5-6.06,5.53,0,9.53,2.33,9.53,6.06,0,3.73-3.9,6.06-9.53,6.06Zm0-10.57c-4.13,0-7.32,1.59-7.32,4.51,0,2.94,3.18,4.51,7.32,4.51,4.13,0,7.34-1.57,7.34-4.51,0-2.92-3.21-4.51-7.34-4.51Z"/></g><rect class="j" x="169.05" y="121.61" width="344.98" height="129.88" transform="translate(528.09 -154.99) rotate(90)"/><text class="g" transform="translate(322.25 181.96)"><tspan class="p" x="0" y="0">L</tspan><tspan class="c" x="7.55" y="0">O</tspan><tspan x="17.92" y="0">AD</tspan><tspan x="-19.2" y="16.8">BA</tspan><tspan class="o" x=".52" y="16.8">L</tspan><tspan x="8.72" y="16.8">ANCER</tspan></text></svg>