<svg version="1.1" viewBox="0.0 0.0 643.3595800524935 309.12073490813646" fill="none" stroke="none" stroke-linecap="square" stroke-miterlimit="10" xmlns:xlink="http://www.w3.org/1999/xlink" xmlns="http://www.w3.org/2000/svg"><clipPath id="p.0"><path d="m0 0l643.35956 0l0 309.12073l-643.35956 0l0 -309.12073z" clip-rule="nonzero"/></clipPath><g clip-path="url(#p.0)"><path fill="#000000" fill-opacity="0.0" d="m0 0l643.35956 0l0 309.12073l-643.35956 0z" fill-rule="evenodd"/><path fill="#c72e49" d="m9.245407 143.21008l0 0c0 -3.220993 2.6111364 -5.832123 5.832137 -5.832123l614.00507 0c1.5467529 0 3.0302124 0.6144409 4.1239014 1.7081909c1.09375 1.0937347 1.7081909 2.5771637 1.7081909 4.123932l0 23.327866c0 3.220993 -2.611084 5.832123 -5.8320923 5.832123l-614.00507 0c-3.2210007 0 -5.832137 -2.6111298 -5.832137 -5.832123z" fill-rule="evenodd"/><path stroke="#980000" stroke-width="4.0" stroke-linejoin="round" stroke-linecap="butt" d="m9.245407 143.21008l0 0c0 -3.220993 2.6111364 -5.832123 5.832137 -5.832123l614.00507 0c1.5467529 0 3.0302124 0.6144409 4.1239014 1.7081909c1.09375 1.0937347 1.7081909 2.5771637 1.7081909 4.123932l0 23.327866c0 3.220993 -2.611084 5.832123 -5.8320923 5.832123l-614.00507 0c-3.2210007 0 -5.832137 -2.6111298 -5.832137 -5.832123z" fill-rule="evenodd"/><path fill="#ffffff" d="m297.50076 161.794l0 -13.359375l4.03125 0l2.421875 9.109375l2.390625 -9.109375l4.046875 0l0 13.359375l-2.5 0l0 -10.515625l-2.65625 10.515625l-2.59375 0l-2.640625 -10.515625l0 10.515625l-2.5 0zm15.556427 -10.984375l0 -2.375l2.5625 0l0 2.375l-2.5625 0zm0 10.984375l0 -9.671875l2.5625 0l0 9.671875l-2.5625 0zm13.980194 0l-2.5625 0l0 -4.9375q0 -1.5625 -0.171875 -2.015625q-0.15625 -0.46875 -0.53125 -0.71875q-0.359375 -0.265625 -0.875 -0.265625q-0.671875 0 -1.203125 0.375q-0.53125 0.359375 -0.734375 0.96875q-0.1875 0.59375 -0.1875 2.21875l0 4.375l-2.546875 0l0 -9.671875l2.375 0l0 1.421875q1.265625 -1.640625 3.1875 -1.640625q0.84375 0 1.546875 0.3125q0.703125 0.296875 1.0625 0.78125q0.359375 0.46875 0.5 1.078125q0.140625 0.59375 0.140625 1.703125l0 6.015625zm2.5365906 0l0 -13.359375l2.6875 0l0 13.359375l-2.6875 0zm4.714569 -6.59375q0 -2.046875 0.609375 -3.421875q0.453125 -1.03125 1.234375 -1.828125q0.796875 -0.8125 1.734375 -1.203125q1.25 -0.53125 2.875 -0.53125q2.953125 0 4.71875 1.828125q1.78125 1.828125 1.78125 5.09375q0 3.234375 -1.765625 5.0625q-1.75 1.828125 -4.6875 1.828125q-2.984375 0 -4.75 -1.8125q-1.75 -1.828125 -1.75 -5.015625zm2.78125 -0.09375q0 2.265625 1.046875 3.4375q1.046875 1.171875 2.65625 1.171875q1.609375 0 2.640625 -1.15625q1.046875 -1.171875 1.046875 -3.484375q0 -2.296875 -1.015625 -3.421875q-1.0 -1.140625 -2.671875 -1.140625q-1.671875 0 -2.6875 1.15625q-1.015625 1.140625 -1.015625 3.4375z" fill-rule="nonzero"/><path fill="#f3f3f3" d="m9.246719 214.87674l0 0c0 -2.5397034 2.0588264 -4.598526 4.5985174 -4.598526l92.66123 0c1.2196045 0 2.3892517 0.4844818 3.2516403 1.346878c0.8623886 0.862381 1.346878 2.0320435 1.346878 3.251648l0 18.393509c0 2.539688 -2.0588303 4.5985107 -4.5985184 4.5985107l-92.66123 0c-2.539691 0 -4.5985174 -2.0588226 -4.5985174 -4.5985107z" fill-rule="evenodd"/><path stroke="#c72e49" stroke-width="2.0" stroke-linejoin="round" stroke-linecap="butt" d="m9.246719 214.87674l0 0c0 -2.5397034 2.0588264 -4.598526 4.5985174 -4.598526l92.66123 0c1.2196045 0 2.3892517 0.4844818 3.2516403 1.346878c0.8623886 0.862381 1.346878 2.0320435 1.346878 3.251648l0 18.393509c0 2.539688 -2.0588303 4.5985107 -4.5985184 4.5985107l-92.66123 0c-2.539691 0 -4.5985174 -2.0588226 -4.5985174 -4.5985107z" fill-rule="evenodd"/><path fill="#000000" d="m41.937923 228.87349l0 -9.546875l1.296875 0l5.015625 7.5l0 -7.5l1.203125 0l0 9.546875l-1.296875 0l-5.015625 -7.5l0 7.5l-1.203125 0zm9.250153 -4.640625q0 -2.375 1.28125 -3.71875q1.28125 -1.34375 3.296875 -1.34375q1.3125 0 2.375 0.625q1.0625 0.625 1.609375 1.765625q0.5625 1.125 0.5625 2.5625q0 1.4375 -0.59375 2.59375q-0.578125 1.140625 -1.65625 1.734375q-1.0625 0.578125 -2.3125 0.578125q-1.34375 0 -2.40625 -0.640625q-1.0625 -0.65625 -1.609375 -1.78125q-0.546875 -1.125 -0.546875 -2.375zm1.3125 0.015625q0 1.71875 0.921875 2.71875q0.921875 0.984375 2.328125 0.984375q1.421875 0 2.34375 -1.0q0.921875 -1.0 0.921875 -2.84375q0 -1.15625 -0.40625 -2.03125q-0.390625 -0.875 -1.15625 -1.34375q-0.75 -0.484375 -1.6875 -0.484375q-1.34375 0 -2.3125 0.921875q-0.953125 0.921875 -0.953125 3.078125zm9.445175 4.625l0 -9.546875l3.2812538 0q1.109375 0 1.703125 0.140625q0.8125 0.1875 1.390625 0.6875q0.765625 0.640625 1.140625 1.640625q0.375 0.984375 0.375 2.25q0 1.09375 -0.265625 1.9375q-0.25 0.828125 -0.65625 1.390625q-0.390625 0.546875 -0.859375 0.859375q-0.46875 0.3125 -1.140625 0.484375q-0.65625 0.15625 -1.53125 0.15625l-3.4375038 0zm1.265625 -1.125l2.0312538 0q0.9375 0 1.46875 -0.171875q0.546875 -0.1875 0.875 -0.5q0.4375 -0.453125 0.6875 -1.203125q0.25 -0.765625 0.25 -1.84375q0 -1.5 -0.5 -2.296875q-0.484375 -0.8125 -1.1875 -1.078125q-0.5 -0.203125 -1.625 -0.203125l-2.0000038 0l0 7.296875zm8.375156 1.125l0 -9.546875l6.90625 0l0 1.125l-5.640625 0l0 2.921875l5.28125 0l0 1.125l-5.28125 0l0 3.25l5.859375 0l0 1.125l-7.125 0z" fill-rule="nonzero"/><path fill="#f3f3f3" d="m183.85039 214.87674l0 0c0 -2.5397034 2.058838 -4.598526 4.598526 -4.598526l92.661224 0c1.2196045 0 2.3892517 0.4844818 3.251648 1.346878c0.86239624 0.862381 1.3468628 2.0320435 1.3468628 3.251648l0 18.393509c0 2.539688 -2.0588074 4.5985107 -4.5985107 4.5985107l-92.661224 0c-2.539688 0 -4.598526 -2.0588226 -4.598526 -4.5985107z" fill-rule="evenodd"/><path stroke="#c72e49" stroke-width="2.0" stroke-linejoin="round" stroke-linecap="butt" d="m183.85039 214.87674l0 0c0 -2.5397034 2.058838 -4.598526 4.598526 -4.598526l92.661224 0c1.2196045 0 2.3892517 0.4844818 3.251648 1.346878c0.86239624 0.862381 1.3468628 2.0320435 1.3468628 3.251648l0 18.393509c0 2.539688 -2.0588074 4.5985107 -4.5985107 4.5985107l-92.661224 0c-2.539688 0 -4.598526 -2.0588226 -4.598526 -4.5985107z" fill-rule="evenodd"/><path fill="#000000" d="m216.5416 228.87349l0 -9.546875l1.296875 0l5.015625 7.5l0 -7.5l1.203125 0l0 9.546875l-1.296875 0l-5.015625 -7.5l0 7.5l-1.203125 0zm9.250153 -4.640625q0 -2.375 1.28125 -3.71875q1.28125 -1.34375 3.296875 -1.34375q1.3125 0 2.375 0.625q1.0625 0.625 1.609375 1.765625q0.5625 1.125 0.5625 2.5625q0 1.4375 -0.59375 2.59375q-0.578125 1.140625 -1.65625 1.734375q-1.0625 0.578125 -2.3125 0.578125q-1.34375 0 -2.40625 -0.640625q-1.0625 -0.65625 -1.609375 -1.78125q-0.546875 -1.125 -0.546875 -2.375zm1.3125 0.015625q0 1.71875 0.921875 2.71875q0.921875 0.984375 2.328125 0.984375q1.421875 0 2.34375 -1.0q0.921875 -1.0 0.921875 -2.84375q0 -1.15625 -0.40625 -2.03125q-0.390625 -0.875 -1.15625 -1.34375q-0.75 -0.484375 -1.6875 -0.484375q-1.34375 0 -2.3125 0.921875q-0.953125 0.921875 -0.953125 3.078125zm9.445175 4.625l0 -9.546875l3.28125 0q1.109375 0 1.703125 0.140625q0.8125 0.1875 1.390625 0.6875q0.765625 0.640625 1.140625 1.640625q0.375 0.984375 0.375 2.25q0 1.09375 -0.265625 1.9375q-0.25 0.828125 -0.65625 1.390625q-0.390625 0.546875 -0.859375 0.859375q-0.46875 0.3125 -1.140625 0.484375q-0.65625 0.15625 -1.53125 0.15625l-3.4375 0zm1.265625 -1.125l2.03125 0q0.9375 0 1.46875 -0.171875q0.546875 -0.1875 0.875 -0.5q0.4375 -0.453125 0.6875 -1.203125q0.25 -0.765625 0.25 -1.84375q0 -1.5 -0.5 -2.296875q-0.484375 -0.8125 -1.1875 -1.078125q-0.5 -0.203125 -1.625 -0.203125l-2.0 0l0 7.296875zm8.375153 1.125l0 -9.546875l6.90625 0l0 1.125l-5.640625 0l0 2.921875l5.28125 0l0 1.125l-5.28125 0l0 3.25l5.859375 0l0 1.125l-7.125 0z" fill-rule="nonzero"/><path fill="#f3f3f3" d="m533.05774 214.87674l0 0c0 -2.5397034 2.058838 -4.598526 4.5985107 -4.598526l92.661255 0c1.2196045 0 2.3892212 0.4844818 3.251648 1.346878c0.8623657 0.862381 1.3468628 2.0320435 1.3468628 3.251648l0 18.393509c0 2.539688 -2.058838 4.5985107 -4.5985107 4.5985107l-92.661255 0c-2.5396729 0 -4.5985107 -2.0588226 -4.5985107 -4.5985107z" fill-rule="evenodd"/><path stroke="#c72e49" stroke-width="2.0" stroke-linejoin="round" stroke-linecap="butt" d="m533.05774 214.87674l0 0c0 -2.5397034 2.058838 -4.598526 4.5985107 -4.598526l92.661255 0c1.2196045 0 2.3892212 0.4844818 3.251648 1.346878c0.8623657 0.862381 1.3468628 2.0320435 1.3468628 3.251648l0 18.393509c0 2.539688 -2.058838 4.5985107 -4.5985107 4.5985107l-92.661255 0c-2.5396729 0 -4.5985107 -2.0588226 -4.5985107 -4.5985107z" fill-rule="evenodd"/><path fill="#000000" d="m565.74896 228.87349l0 -9.546875l1.296875 0l5.015625 7.5l0 -7.5l1.203125 0l0 9.546875l-1.296875 0l-5.015625 -7.5l0 7.5l-1.203125 0zm9.250122 -4.640625q0 -2.375 1.28125 -3.71875q1.28125 -1.34375 3.296875 -1.34375q1.3125 0 2.375 0.625q1.0625 0.625 1.609375 1.765625q0.5625 1.125 0.5625 2.5625q0 1.4375 -0.59375 2.59375q-0.578125 1.140625 -1.65625 1.734375q-1.0625 0.578125 -2.3125 0.578125q-1.34375 0 -2.40625 -0.640625q-1.0625 -0.65625 -1.609375 -1.78125q-0.546875 -1.125 -0.546875 -2.375zm1.3125 0.015625q0 1.71875 0.921875 2.71875q0.921875 0.984375 2.328125 0.984375q1.421875 0 2.34375 -1.0q0.921875 -1.0 0.921875 -2.84375q0 -1.15625 -0.40625 -2.03125q-0.390625 -0.875 -1.15625 -1.34375q-0.75 -0.484375 -1.6875 -0.484375q-1.34375 0 -2.3125 0.921875q-0.953125 0.921875 -0.953125 3.078125zm9.44519 4.625l0 -9.546875l3.28125 0q1.109375 0 1.703125 0.140625q0.8125 0.1875 1.390625 0.6875q0.765625 0.640625 1.140625 1.640625q0.375 0.984375 0.375 2.25q0 1.09375 -0.265625 1.9375q-0.25 0.828125 -0.65625 1.390625q-0.390625 0.546875 -0.859375 0.859375q-0.46875 0.3125 -1.140625 0.484375q-0.65625 0.15625 -1.53125 0.15625l-3.4375 0zm1.265625 -1.125l2.03125 0q0.9375 0 1.46875 -0.171875q0.546875 -0.1875 0.875 -0.5q0.4375 -0.453125 0.6875 -1.203125q0.25 -0.765625 0.25 -1.84375q0 -1.5 -0.5 -2.296875q-0.484375 -0.8125 -1.1875 -1.078125q-0.5 -0.203125 -1.625 -0.203125l-2.0 0l0 7.296875zm8.375183 1.125l0 -9.546875l6.90625 0l0 1.125l-5.640625 0l0 2.921875l5.28125 0l0 1.125l-5.28125 0l0 3.25l5.859375 0l0 1.125l-7.125 0z" fill-rule="nonzero"/><path fill="#f3f3f3" d="m358.45407 214.87674l0 0c0 -2.5397034 2.058838 -4.598526 4.5985107 -4.598526l92.661224 0c1.2196045 0 2.3892517 0.4844818 3.251648 1.346878c0.86239624 0.862381 1.3468933 2.0320435 1.3468933 3.251648l0 18.393509c0 2.539688 -2.058838 4.5985107 -4.5985413 4.5985107l-92.661224 0c-2.5396729 0 -4.5985107 -2.0588226 -4.5985107 -4.5985107z" fill-rule="evenodd"/><path stroke="#c72e49" stroke-width="2.0" stroke-linejoin="round" stroke-linecap="butt" d="m358.45407 214.87674l0 0c0 -2.5397034 2.058838 -4.598526 4.5985107 -4.598526l92.661224 0c1.2196045 0 2.3892517 0.4844818 3.251648 1.346878c0.86239624 0.862381 1.3468933 2.0320435 1.3468933 3.251648l0 18.393509c0 2.539688 -2.058838 4.5985107 -4.5985413 4.5985107l-92.661224 0c-2.5396729 0 -4.5985107 -2.0588226 -4.5985107 -4.5985107z" fill-rule="evenodd"/><path fill="#000000" d="m391.14526 228.87349l0 -9.546875l1.296875 0l5.015625 7.5l0 -7.5l1.203125 0l0 9.546875l-1.296875 0l-5.015625 -7.5l0 7.5l-1.203125 0zm9.250153 -4.640625q0 -2.375 1.28125 -3.71875q1.28125 -1.34375 3.296875 -1.34375q1.3125 0 2.375 0.625q1.0625 0.625 1.609375 1.765625q0.5625 1.125 0.5625 2.5625q0 1.4375 -0.59375 2.59375q-0.578125 1.140625 -1.65625 1.734375q-1.0625 0.578125 -2.3125 0.578125q-1.34375 0 -2.40625 -0.640625q-1.0625 -0.65625 -1.609375 -1.78125q-0.546875 -1.125 -0.546875 -2.375zm1.3125 0.015625q0 1.71875 0.921875 2.71875q0.921875 0.984375 2.328125 0.984375q1.421875 0 2.34375 -1.0q0.921875 -1.0 0.921875 -2.84375q0 -1.15625 -0.40625 -2.03125q-0.390625 -0.875 -1.15625 -1.34375q-0.75 -0.484375 -1.6875 -0.484375q-1.34375 0 -2.3125 0.921875q-0.953125 0.921875 -0.953125 3.078125zm9.44519 4.625l0 -9.546875l3.28125 0q1.109375 0 1.703125 0.140625q0.8125 0.1875 1.390625 0.6875q0.765625 0.640625 1.140625 1.640625q0.375 0.984375 0.375 2.25q0 1.09375 -0.265625 1.9375q-0.25 0.828125 -0.65625 1.390625q-0.390625 0.546875 -0.859375 0.859375q-0.46875 0.3125 -1.140625 0.484375q-0.65625 0.15625 -1.53125 0.15625l-3.4375 0zm1.265625 -1.125l2.03125 0q0.9375 0 1.46875 -0.171875q0.546875 -0.1875 0.875 -0.5q0.4375 -0.453125 0.6875 -1.203125q0.25 -0.765625 0.25 -1.84375q0 -1.5 -0.5 -2.296875q-0.484375 -0.8125 -1.1875 -1.078125q-0.5 -0.203125 -1.625 -0.203125l-2.0 0l0 7.296875zm8.375153 1.125l0 -9.546875l6.90625 0l0 1.125l-5.640625 0l0 2.921875l5.28125 0l0 1.125l-5.28125 0l0 3.25l5.859375 0l0 1.125l-7.125 0z" fill-rule="nonzero"/><path fill="#f3f3f3" d="m9.246719 278.87674l0 0c0 -2.5397034 2.0588264 -4.5985107 4.5985174 -4.5985107l92.66123 0c1.2196045 0 2.3892517 0.48446655 3.2516403 1.3468628c0.8623886 0.86239624 1.346878 2.0320435 1.346878 3.251648l0 18.393524c0 2.5396729 -2.0588303 4.5985107 -4.5985184 4.5985107l-92.66123 0c-2.539691 0 -4.5985174 -2.058838 -4.5985174 -4.5985107z" fill-rule="evenodd"/><path stroke="#c72e49" stroke-width="2.0" stroke-linejoin="round" stroke-linecap="butt" d="m9.246719 278.87674l0 0c0 -2.5397034 2.0588264 -4.5985107 4.5985174 -4.5985107l92.66123 0c1.2196045 0 2.3892517 0.48446655 3.2516403 1.3468628c0.8623886 0.86239624 1.346878 2.0320435 1.346878 3.251648l0 18.393524c0 2.5396729 -2.0588303 4.5985107 -4.5985184 4.5985107l-92.66123 0c-2.539691 0 -4.5985174 -2.058838 -4.5985174 -4.5985107z" fill-rule="evenodd"/><path fill="#000000" d="m41.937923 292.8735l0 -9.546875l1.296875 0l5.015625 7.5l0 -7.5l1.203125 0l0 9.546875l-1.296875 0l-5.015625 -7.5l0 7.5l-1.203125 0zm9.250153 -4.640625q0 -2.375 1.28125 -3.71875q1.28125 -1.34375 3.296875 -1.34375q1.3125 0 2.375 0.625q1.0625 0.625 1.609375 1.765625q0.5625 1.125 0.5625 2.5625q0 1.4375 -0.59375 2.59375q-0.578125 1.140625 -1.65625 1.734375q-1.0625 0.578125 -2.3125 0.578125q-1.34375 0 -2.40625 -0.640625q-1.0625 -0.65625 -1.609375 -1.78125q-0.546875 -1.125 -0.546875 -2.375zm1.3125 0.015625q0 1.71875 0.921875 2.71875q0.921875 0.984375 2.328125 0.984375q1.421875 0 2.34375 -1.0q0.921875 -1.0 0.921875 -2.84375q0 -1.15625 -0.40625 -2.03125q-0.390625 -0.875 -1.15625 -1.34375q-0.75 -0.484375 -1.6875 -0.484375q-1.34375 0 -2.3125 0.921875q-0.953125 0.921875 -0.953125 3.078125zm9.445175 4.625l0 -9.546875l3.2812538 0q1.109375 0 1.703125 0.140625q0.8125 0.1875 1.390625 0.6875q0.765625 0.640625 1.140625 1.640625q0.375 0.984375 0.375 2.25q0 1.09375 -0.265625 1.9375q-0.25 0.828125 -0.65625 1.390625q-0.390625 0.546875 -0.859375 0.859375q-0.46875 0.3125 -1.140625 0.484375q-0.65625 0.15625 -1.53125 0.15625l-3.4375038 0zm1.265625 -1.125l2.0312538 0q0.9375 0 1.46875 -0.171875q0.546875 -0.1875 0.875 -0.5q0.4375 -0.453125 0.6875 -1.203125q0.25 -0.765625 0.25 -1.84375q0 -1.5 -0.5 -2.296875q-0.484375 -0.8125 -1.1875 -1.078125q-0.5 -0.203125 -1.625 -0.203125l-2.0000038 0l0 7.296875zm8.375156 1.125l0 -9.546875l6.90625 0l0 1.125l-5.640625 0l0 2.921875l5.28125 0l0 1.125l-5.28125 0l0 3.25l5.859375 0l0 1.125l-7.125 0z" fill-rule="nonzero"/><path fill="#f3f3f3" d="m183.85039 278.87674l0 0c0 -2.5397034 2.058838 -4.5985107 4.598526 -4.5985107l92.661224 0c1.2196045 0 2.3892517 0.48446655 3.251648 1.3468628c0.86239624 0.86239624 1.3468628 2.0320435 1.3468628 3.251648l0 18.393524c0 2.5396729 -2.0588074 4.5985107 -4.5985107 4.5985107l-92.661224 0c-2.539688 0 -4.598526 -2.058838 -4.598526 -4.5985107z" fill-rule="evenodd"/><path stroke="#c72e49" stroke-width="2.0" stroke-linejoin="round" stroke-linecap="butt" d="m183.85039 278.87674l0 0c0 -2.5397034 2.058838 -4.5985107 4.598526 -4.5985107l92.661224 0c1.2196045 0 2.3892517 0.48446655 3.251648 1.3468628c0.86239624 0.86239624 1.3468628 2.0320435 1.3468628 3.251648l0 18.393524c0 2.5396729 -2.0588074 4.5985107 -4.5985107 4.5985107l-92.661224 0c-2.539688 0 -4.598526 -2.058838 -4.598526 -4.5985107z" fill-rule="evenodd"/><path fill="#000000" d="m216.5416 292.8735l0 -9.546875l1.296875 0l5.015625 7.5l0 -7.5l1.203125 0l0 9.546875l-1.296875 0l-5.015625 -7.5l0 7.5l-1.203125 0zm9.250153 -4.640625q0 -2.375 1.28125 -3.71875q1.28125 -1.34375 3.296875 -1.34375q1.3125 0 2.375 0.625q1.0625 0.625 1.609375 1.765625q0.5625 1.125 0.5625 2.5625q0 1.4375 -0.59375 2.59375q-0.578125 1.140625 -1.65625 1.734375q-1.0625 0.578125 -2.3125 0.578125q-1.34375 0 -2.40625 -0.640625q-1.0625 -0.65625 -1.609375 -1.78125q-0.546875 -1.125 -0.546875 -2.375zm1.3125 0.015625q0 1.71875 0.921875 2.71875q0.921875 0.984375 2.328125 0.984375q1.421875 0 2.34375 -1.0q0.921875 -1.0 0.921875 -2.84375q0 -1.15625 -0.40625 -2.03125q-0.390625 -0.875 -1.15625 -1.34375q-0.75 -0.484375 -1.6875 -0.484375q-1.34375 0 -2.3125 0.921875q-0.953125 0.921875 -0.953125 3.078125zm9.445175 4.625l0 -9.546875l3.28125 0q1.109375 0 1.703125 0.140625q0.8125 0.1875 1.390625 0.6875q0.765625 0.640625 1.140625 1.640625q0.375 0.984375 0.375 2.25q0 1.09375 -0.265625 1.9375q-0.25 0.828125 -0.65625 1.390625q-0.390625 0.546875 -0.859375 0.859375q-0.46875 0.3125 -1.140625 0.484375q-0.65625 0.15625 -1.53125 0.15625l-3.4375 0zm1.265625 -1.125l2.03125 0q0.9375 0 1.46875 -0.171875q0.546875 -0.1875 0.875 -0.5q0.4375 -0.453125 0.6875 -1.203125q0.25 -0.765625 0.25 -1.84375q0 -1.5 -0.5 -2.296875q-0.484375 -0.8125 -1.1875 -1.078125q-0.5 -0.203125 -1.625 -0.203125l-2.0 0l0 7.296875zm8.375153 1.125l0 -9.546875l6.90625 0l0 1.125l-5.640625 0l0 2.921875l5.28125 0l0 1.125l-5.28125 0l0 3.25l5.859375 0l0 1.125l-7.125 0z" fill-rule="nonzero"/><path fill="#f3f3f3" d="m533.05774 278.87674l0 0c0 -2.5397034 2.058838 -4.5985107 4.5985107 -4.5985107l92.661255 0c1.2196045 0 2.3892212 0.48446655 3.251648 1.3468628c0.8623657 0.86239624 1.3468628 2.0320435 1.3468628 3.251648l0 18.393524c0 2.5396729 -2.058838 4.5985107 -4.5985107 4.5985107l-92.661255 0c-2.5396729 0 -4.5985107 -2.058838 -4.5985107 -4.5985107z" fill-rule="evenodd"/><path stroke="#c72e49" stroke-width="2.0" stroke-linejoin="round" stroke-linecap="butt" d="m533.05774 278.87674l0 0c0 -2.5397034 2.058838 -4.5985107 4.5985107 -4.5985107l92.661255 0c1.2196045 0 2.3892212 0.48446655 3.251648 1.3468628c0.8623657 0.86239624 1.3468628 2.0320435 1.3468628 3.251648l0 18.393524c0 2.5396729 -2.058838 4.5985107 -4.5985107 4.5985107l-92.661255 0c-2.5396729 0 -4.5985107 -2.058838 -4.5985107 -4.5985107z" fill-rule="evenodd"/><path fill="#000000" d="m565.74896 292.8735l0 -9.546875l1.296875 0l5.015625 7.5l0 -7.5l1.203125 0l0 9.546875l-1.296875 0l-5.015625 -7.5l0 7.5l-1.203125 0zm9.250122 -4.640625q0 -2.375 1.28125 -3.71875q1.28125 -1.34375 3.296875 -1.34375q1.3125 0 2.375 0.625q1.0625 0.625 1.609375 1.765625q0.5625 1.125 0.5625 2.5625q0 1.4375 -0.59375 2.59375q-0.578125 1.140625 -1.65625 1.734375q-1.0625 0.578125 -2.3125 0.578125q-1.34375 0 -2.40625 -0.640625q-1.0625 -0.65625 -1.609375 -1.78125q-0.546875 -1.125 -0.546875 -2.375zm1.3125 0.015625q0 1.71875 0.921875 2.71875q0.921875 0.984375 2.328125 0.984375q1.421875 0 2.34375 -1.0q0.921875 -1.0 0.921875 -2.84375q0 -1.15625 -0.40625 -2.03125q-0.390625 -0.875 -1.15625 -1.34375q-0.75 -0.484375 -1.6875 -0.484375q-1.34375 0 -2.3125 0.921875q-0.953125 0.921875 -0.953125 3.078125zm9.44519 4.625l0 -9.546875l3.28125 0q1.109375 0 1.703125 0.140625q0.8125 0.1875 1.390625 0.6875q0.765625 0.640625 1.140625 1.640625q0.375 0.984375 0.375 2.25q0 1.09375 -0.265625 1.9375q-0.25 0.828125 -0.65625 1.390625q-0.390625 0.546875 -0.859375 0.859375q-0.46875 0.3125 -1.140625 0.484375q-0.65625 0.15625 -1.53125 0.15625l-3.4375 0zm1.265625 -1.125l2.03125 0q0.9375 0 1.46875 -0.171875q0.546875 -0.1875 0.875 -0.5q0.4375 -0.453125 0.6875 -1.203125q0.25 -0.765625 0.25 -1.84375q0 -1.5 -0.5 -2.296875q-0.484375 -0.8125 -1.1875 -1.078125q-0.5 -0.203125 -1.625 -0.203125l-2.0 0l0 7.296875zm8.375183 1.125l0 -9.546875l6.90625 0l0 1.125l-5.640625 0l0 2.921875l5.28125 0l0 1.125l-5.28125 0l0 3.25l5.859375 0l0 1.125l-7.125 0z" fill-rule="nonzero"/><path fill="#f3f3f3" d="m358.45407 278.87674l0 0c0 -2.5397034 2.058838 -4.5985107 4.5985107 -4.5985107l92.661224 0c1.2196045 0 2.3892517 0.48446655 3.251648 1.3468628c0.86239624 0.86239624 1.3468933 2.0320435 1.3468933 3.251648l0 18.393524c0 2.5396729 -2.058838 4.5985107 -4.5985413 4.5985107l-92.661224 0c-2.5396729 0 -4.5985107 -2.058838 -4.5985107 -4.5985107z" fill-rule="evenodd"/><path stroke="#c72e49" stroke-width="2.0" stroke-linejoin="round" stroke-linecap="butt" d="m358.45407 278.87674l0 0c0 -2.5397034 2.058838 -4.5985107 4.5985107 -4.5985107l92.661224 0c1.2196045 0 2.3892517 0.48446655 3.251648 1.3468628c0.86239624 0.86239624 1.3468933 2.0320435 1.3468933 3.251648l0 18.393524c0 2.5396729 -2.058838 4.5985107 -4.5985413 4.5985107l-92.661224 0c-2.5396729 0 -4.5985107 -2.058838 -4.5985107 -4.5985107z" fill-rule="evenodd"/><path fill="#000000" d="m391.14526 292.8735l0 -9.546875l1.296875 0l5.015625 7.5l0 -7.5l1.203125 0l0 9.546875l-1.296875 0l-5.015625 -7.5l0 7.5l-1.203125 0zm9.250153 -4.640625q0 -2.375 1.28125 -3.71875q1.28125 -1.34375 3.296875 -1.34375q1.3125 0 2.375 0.625q1.0625 0.625 1.609375 1.765625q0.5625 1.125 0.5625 2.5625q0 1.4375 -0.59375 2.59375q-0.578125 1.140625 -1.65625 1.734375q-1.0625 0.578125 -2.3125 0.578125q-1.34375 0 -2.40625 -0.640625q-1.0625 -0.65625 -1.609375 -1.78125q-0.546875 -1.125 -0.546875 -2.375zm1.3125 0.015625q0 1.71875 0.921875 2.71875q0.921875 0.984375 2.328125 0.984375q1.421875 0 2.34375 -1.0q0.921875 -1.0 0.921875 -2.84375q0 -1.15625 -0.40625 -2.03125q-0.390625 -0.875 -1.15625 -1.34375q-0.75 -0.484375 -1.6875 -0.484375q-1.34375 0 -2.3125 0.921875q-0.953125 0.921875 -0.953125 3.078125zm9.44519 4.625l0 -9.546875l3.28125 0q1.109375 0 1.703125 0.140625q0.8125 0.1875 1.390625 0.6875q0.765625 0.640625 1.140625 1.640625q0.375 0.984375 0.375 2.25q0 1.09375 -0.265625 1.9375q-0.25 0.828125 -0.65625 1.390625q-0.390625 0.546875 -0.859375 0.859375q-0.46875 0.3125 -1.140625 0.484375q-0.65625 0.15625 -1.53125 0.15625l-3.4375 0zm1.265625 -1.125l2.03125 0q0.9375 0 1.46875 -0.171875q0.546875 -0.1875 0.875 -0.5q0.4375 -0.453125 0.6875 -1.203125q0.25 -0.765625 0.25 -1.84375q0 -1.5 -0.5 -2.296875q-0.484375 -0.8125 -1.1875 -1.078125q-0.5 -0.203125 -1.625 -0.203125l-2.0 0l0 7.296875zm8.375153 1.125l0 -9.546875l6.90625 0l0 1.125l-5.640625 0l0 2.921875l5.28125 0l0 1.125l-5.28125 0l0 3.25l5.859375 0l0 1.125l-7.125 0z" fill-rule="nonzero"/><path fill="#000000" fill-opacity="0.0" d="m322.08136 54.855644l0 41.26149l0.06298828 0l0 41.2582" fill-rule="evenodd"/><path stroke="#000000" stroke-width="1.0" stroke-linejoin="round" stroke-linecap="butt" d="m322.08136 54.855644l0 41.26149l0.06298828 0l0 35.2582" fill-rule="evenodd"/><path fill="#000000" stroke="#000000" stroke-width="1.0" stroke-linecap="butt" d="m320.4926 131.37534l1.6517334 4.538086l1.6517334 -4.538086z" fill-rule="evenodd"/><path fill="#00303f" d="m9.245407 79.21009l0 0c0 -3.2210007 2.6111364 -5.832138 5.832137 -5.832138l614.00507 0c1.5467529 0 3.0302124 0.6144562 4.1239014 1.7081909c1.09375 1.0937424 1.7081909 2.5771713 1.7081909 4.123947l0 23.32785c0 3.2210007 -2.611084 5.832138 -5.8320923 5.832138l-614.00507 0c-3.2210007 0 -5.832137 -2.6111374 -5.832137 -5.832138z" fill-rule="evenodd"/><path stroke="#980000" stroke-width="4.0" stroke-linejoin="round" stroke-linecap="butt" d="m9.245407 79.21009l0 0c0 -3.2210007 2.6111364 -5.832138 5.832137 -5.832138l614.00507 0c1.5467529 0 3.0302124 0.6144562 4.1239014 1.7081909c1.09375 1.0937424 1.7081909 2.5771713 1.7081909 4.123947l0 23.32785c0 3.2210007 -2.611084 5.832138 -5.8320923 5.832138l-614.00507 0c-3.2210007 0 -5.832137 -2.6111374 -5.832137 -5.832138z" fill-rule="evenodd"/><path fill="#ffffff" d="m259.2364 97.794014l0 -13.25l2.6875 0l0 11.0l6.703125 0l0 2.25l-9.390625 0zm10.708466 -4.96875q0 -1.28125 0.625 -2.46875q0.625 -1.203125 1.78125 -1.828125q1.15625 -0.625 2.578125 -0.625q2.1875 0 3.59375 1.421875q1.40625 1.421875 1.40625 3.609375q0 2.1875 -1.421875 3.640625q-1.421875 1.4375 -3.5625 1.4375q-1.328125 0 -2.546875 -0.59375q-1.203125 -0.609375 -1.828125 -1.765625q-0.625 -1.171875 -0.625 -2.828125zm2.625 0.125q0 1.453125 0.671875 2.21875q0.6875 0.75 1.6875 0.75q1.0 0 1.671875 -0.75q0.6875 -0.765625 0.6875 -2.234375q0 -1.421875 -0.6875 -2.1875q-0.671875 -0.765625 -1.671875 -0.765625q-1.0 0 -1.6875 0.765625q-0.671875 0.765625 -0.671875 2.203125zm11.270996 -1.875l-2.328125 -0.421875q0.40625 -1.40625 1.359375 -2.078125q0.953125 -0.671875 2.84375 -0.671875q1.703125 0 2.546875 0.40625q0.84375 0.40625 1.171875 1.03125q0.34375 0.625 0.34375 2.28125l-0.015625 3.0q0 1.265625 0.109375 1.875q0.125 0.609375 0.46875 1.296875l-2.53125 0q-0.109375 -0.25 -0.25 -0.75q-0.0625 -0.234375 -0.09375 -0.3125q-0.65625 0.640625 -1.40625 0.96875q-0.734375 0.3125 -1.59375 0.3125q-1.484375 0 -2.34375 -0.8125q-0.859375 -0.8125 -0.859375 -2.046875q0 -0.828125 0.390625 -1.46875q0.390625 -0.640625 1.09375 -0.96875q0.703125 -0.34375 2.03125 -0.609375q1.796875 -0.328125 2.484375 -0.625l0 -0.25q0 -0.75 -0.359375 -1.0625q-0.359375 -0.3125 -1.375 -0.3125q-0.6875 0 -1.078125 0.28125q-0.375 0.265625 -0.609375 0.9375zm3.421875 2.078125q-0.484375 0.15625 -1.5625 0.390625q-1.0625 0.21875 -1.390625 0.4375q-0.5 0.359375 -0.5 0.90625q0 0.53125 0.40625 0.9375q0.40625 0.390625 1.015625 0.390625q0.703125 0 1.328125 -0.46875q0.46875 -0.34375 0.609375 -0.84375q0.09375 -0.328125 0.09375 -1.25l0 -0.5zm13.922607 4.640625l-2.390625 0l0 -1.421875q-0.59375 0.828125 -1.40625 1.234375q-0.796875 0.40625 -1.609375 0.40625q-1.671875 0 -2.859375 -1.34375q-1.1875 -1.34375 -1.1875 -3.75q0 -2.453125 1.15625 -3.734375q1.15625 -1.28125 2.921875 -1.28125q1.625 0 2.8125 1.34375l0 -4.8125l2.5625 0l0 13.359375zm-6.84375 -5.046875q0 1.546875 0.4375 2.234375q0.609375 1.015625 1.71875 1.015625q0.890625 0 1.5 -0.75q0.625 -0.765625 0.625 -2.25q0 -1.671875 -0.609375 -2.40625q-0.59375 -0.734375 -1.53125 -0.734375q-0.90625 0 -1.53125 0.734375q-0.609375 0.71875 -0.609375 2.15625zm14.56366 -8.3125l5.34375 0q1.59375 0 2.359375 0.140625q0.78125 0.125 1.390625 0.546875q0.625 0.421875 1.03125 1.125q0.40625 0.6875 0.40625 1.546875q0 0.9375 -0.5 1.734375q-0.5 0.78125 -1.375 1.171875q1.21875 0.359375 1.875 1.21875q0.65625 0.84375 0.65625 2.0q0 0.921875 -0.421875 1.78125q-0.421875 0.859375 -1.15625 1.375q-0.734375 0.515625 -1.796875 0.625q-0.6875 0.078125 -3.265625 0.09375l-4.546875 0l0 -13.359375zm2.703125 2.234375l0 3.078125l1.765625 0q1.578125 0 1.953125 -0.046875q0.703125 -0.078125 1.09375 -0.46875q0.40625 -0.40625 0.40625 -1.046875q0 -0.625 -0.34375 -1.0q-0.34375 -0.390625 -1.015625 -0.484375q-0.40625 -0.03125 -2.3125 -0.03125l-1.546875 0zm0 5.296875l0 3.578125l2.5 0q1.453125 0 1.84375 -0.078125q0.609375 -0.109375 0.984375 -0.53125q0.375 -0.421875 0.375 -1.140625q0 -0.59375 -0.296875 -1.015625q-0.28125 -0.421875 -0.84375 -0.609375q-0.546875 -0.203125 -2.390625 -0.203125l-2.171875 0zm12.660431 -0.890625l-2.328125 -0.421875q0.40625 -1.40625 1.359375 -2.078125q0.953125 -0.671875 2.84375 -0.671875q1.703125 0 2.546875 0.40625q0.84375 0.40625 1.171875 1.03125q0.34375 0.625 0.34375 2.28125l-0.015625 3.0q0 1.265625 0.109375 1.875q0.125 0.609375 0.46875 1.296875l-2.53125 0q-0.109375 -0.25 -0.25 -0.75q-0.0625 -0.234375 -0.09375 -0.3125q-0.65625 0.640625 -1.40625 0.96875q-0.734375 0.3125 -1.59375 0.3125q-1.484375 0 -2.34375 -0.8125q-0.859375 -0.8125 -0.859375 -2.046875q0 -0.828125 0.390625 -1.46875q0.390625 -0.640625 1.09375 -0.96875q0.703125 -0.34375 2.03125 -0.609375q1.796875 -0.328125 2.484375 -0.625l0 -0.25q0 -0.75 -0.359375 -1.0625q-0.359375 -0.3125 -1.375 -0.3125q-0.6875 0 -1.078125 0.28125q-0.375 0.265625 -0.609375 0.9375zm3.421875 2.078125q-0.484375 0.15625 -1.5625 0.390625q-1.0625 0.21875 -1.390625 0.4375q-0.5 0.359375 -0.5 0.90625q0 0.53125 0.40625 0.9375q0.40625 0.390625 1.015625 0.390625q0.703125 0 1.328125 -0.46875q0.46875 -0.34375 0.609375 -0.84375q0.09375 -0.328125 0.09375 -1.25l0 -0.5zm5.047577 4.640625l0 -13.359375l2.5625 0l0 13.359375l-2.5625 0zm7.089569 -6.71875l-2.328125 -0.421875q0.40625 -1.40625 1.359375 -2.078125q0.953125 -0.671875 2.84375 -0.671875q1.703125 0 2.546875 0.40625q0.84375 0.40625 1.171875 1.03125q0.34375 0.625 0.34375 2.28125l-0.015625 3.0q0 1.265625 0.109375 1.875q0.125 0.609375 0.46875 1.296875l-2.53125 0q-0.109375 -0.25 -0.25 -0.75q-0.0625 -0.234375 -0.09375 -0.3125q-0.65625 0.640625 -1.40625 0.96875q-0.734375 0.3125 -1.59375 0.3125q-1.484375 0 -2.34375 -0.8125q-0.859375 -0.8125 -0.859375 -2.046875q0 -0.828125 0.390625 -1.46875q0.390625 -0.640625 1.09375 -0.96875q0.703125 -0.34375 2.03125 -0.609375q1.796875 -0.328125 2.484375 -0.625l0 -0.25q0 -0.75 -0.359375 -1.0625q-0.359375 -0.3125 -1.375 -0.3125q-0.6875 0 -1.078125 0.28125q-0.375 0.265625 -0.609375 0.9375zm3.421875 2.078125q-0.484375 0.15625 -1.5625 0.390625q-1.0625 0.21875 -1.390625 0.4375q-0.5 0.359375 -0.5 0.90625q0 0.53125 0.40625 0.9375q0.40625 0.390625 1.015625 0.390625q0.703125 0 1.328125 -0.46875q0.46875 -0.34375 0.609375 -0.84375q0.09375 -0.328125 0.09375 -1.25l0 -0.5zm13.844452 4.640625l-2.5625 0l0 -4.9375q0 -1.5625 -0.171875 -2.015625q-0.15625 -0.46875 -0.53125 -0.71875q-0.359375 -0.265625 -0.875 -0.265625q-0.671875 0 -1.203125 0.375q-0.53125 0.359375 -0.734375 0.96875q-0.1875 0.59375 -0.1875 2.21875l0 4.375l-2.546875 0l0 -9.671875l2.375 0l0 1.421875q1.265625 -1.640625 3.1875 -1.640625q0.84375 0 1.546875 0.3125q0.703125 0.296875 1.0625 0.78125q0.359375 0.46875 0.5 1.078125q0.140625 0.59375 0.140625 1.703125l0 6.015625zm11.036621 -6.8125l-2.53125 0.453125q-0.125 -0.75 -0.578125 -1.125q-0.453125 -0.390625 -1.171875 -0.390625q-0.953125 0 -1.53125 0.65625q-0.5625 0.65625 -0.5625 2.203125q0 1.734375 0.578125 2.4375q0.578125 0.703125 1.546875 0.703125q0.734375 0 1.203125 -0.40625q0.46875 -0.421875 0.65625 -1.421875l2.515625 0.421875q-0.390625 1.734375 -1.515625 2.625q-1.109375 0.875 -2.96875 0.875q-2.125 0 -3.390625 -1.328125q-1.25 -1.34375 -1.25 -3.71875q0 -2.390625 1.265625 -3.71875q1.265625 -1.34375 3.421875 -1.34375q1.765625 0 2.796875 0.765625q1.046875 0.75 1.515625 2.3125zm7.5319824 3.734375l2.546875 0.421875q-0.484375 1.40625 -1.546875 2.140625q-1.0625 0.734375 -2.65625 0.734375q-2.515625 0 -3.734375 -1.65625q-0.953125 -1.3125 -0.953125 -3.328125q0 -2.40625 1.25 -3.765625q1.265625 -1.359375 3.1875 -1.359375q2.15625 0 3.40625 1.421875q1.25 1.421875 1.1875 4.375l-6.40625 0q0.03125 1.140625 0.609375 1.78125q0.59375 0.625 1.484375 0.625q0.59375 0 1.0 -0.328125q0.421875 -0.328125 0.625 -1.0625zm0.15625 -2.59375q-0.03125 -1.109375 -0.578125 -1.6875q-0.546875 -0.578125 -1.328125 -0.578125q-0.84375 0 -1.390625 0.609375q-0.546875 0.609375 -0.53125 1.65625l3.828125 0zm7.078827 5.671875l-2.5625 0l0 -9.671875l2.375 0l0 1.375q0.609375 -0.984375 1.09375 -1.28125q0.484375 -0.3125 1.109375 -0.3125q0.875 0 1.6875 0.484375l-0.796875 2.234375q-0.640625 -0.421875 -1.203125 -0.421875q-0.53125 0 -0.90625 0.296875q-0.375 0.296875 -0.59375 1.078125q-0.203125 0.765625 -0.203125 3.234375l0 2.984375z" fill-rule="nonzero"/><path fill="#000000" fill-opacity="0.0" d="m322.08005 172.37007l0 18.954193l-261.88977 0l0 18.967072" fill-rule="evenodd"/><path stroke="#000000" stroke-width="1.0" stroke-linejoin="round" stroke-linecap="butt" d="m322.08005 172.37007l0 18.954193l-261.88977 0l0 12.967072" fill-rule="evenodd"/><path fill="#000000" stroke="#000000" stroke-width="1.0" stroke-linecap="butt" d="m58.538555 204.29134l1.6517334 4.538101l1.6517334 -4.538101z" fill-rule="evenodd"/><path fill="#efefef" d="m237.32545 6.9501314l169.51183 0l0 47.905514l-169.51183 0z" fill-rule="evenodd"/><path stroke="#c72e49" stroke-width="1.0" stroke-linejoin="round" stroke-linecap="butt" d="m237.32545 6.9501314l169.51183 0l0 47.905514l-169.51183 0z" fill-rule="evenodd"/><path fill="#000000" d="m246.74733 34.142887l0 -0.8125l3.71875 -2.093752l-3.6875 -1.875l0 -0.765625l4.515625 2.375l0 0.515625l-4.546875 2.656252zm10.640762 0.5l0 -4.875002l0.703125 0l0 0.484375q0.109375 -0.1875 0.265625 -0.3125q0.15625 -0.140625 0.34375 -0.203125q0.1875 -0.078125 0.375 -0.078125q0.21875 0 0.390625 0.09375q0.1875 0.078125 0.3125 0.25q0.125 0.15625 0.171875 0.375q0.09375 -0.21875 0.25 -0.375q0.171875 -0.171875 0.390625 -0.25q0.21875 -0.09375 0.453125 -0.09375q0.25 0 0.421875 0.09375q0.1875 0.09375 0.296875 0.265625q0.125 0.15625 0.171875 0.390625q0.0625 0.234375 0.046875 0.5l0 3.734377l-0.703125 0l0 -3.453127q0 -0.453125 -0.0625 -0.65625q-0.0625 -0.203125 -0.171875 -0.25q-0.09375 -0.0625 -0.21875 -0.0625q-0.203125 0 -0.390625 0.1875q-0.171875 0.1875 -0.28125 0.46875q-0.109375 0.265625 -0.109375 0.546875l0 3.218752l-0.71875 0l0 -3.390627q0 -0.609375 -0.109375 -0.8125q-0.109375 -0.203125 -0.421875 -0.203125q-0.125 0 -0.25 0.09375q-0.109375 0.078125 -0.21875 0.21875q-0.109375 0.140625 -0.171875 0.359375q-0.0625 0.203125 -0.0625 0.484375l0 3.250002l-0.703125 0zm5.984436 0l0 -0.625l1.25 0l0 -3.625002l-1.1875 0l0 -0.625l1.953125 0l0 4.250002l1.140625 0l0 0.625l-3.15625 0zm1.59375 -5.890627q-0.21875 0 -0.390625 -0.15625q-0.15625 -0.171875 -0.15625 -0.390625q0 -0.234375 0.15625 -0.390625q0.15625 -0.15625 0.390625 -0.15625q0.234375 0 0.390625 0.171875q0.171875 0.15625 0.171875 0.375q0 0.21875 -0.171875 0.390625q-0.15625 0.15625 -0.390625 0.15625zm3.437561 5.890627l0 -4.875002l0.75 0l0 0.875q0.1875 -0.3125 0.4375 -0.515625q0.265625 -0.21875 0.5625 -0.34375q0.3125 -0.125 0.65625 -0.125q0.390625 0 0.703125 0.203125q0.328125 0.203125 0.515625 0.65625q0.203125 0.4375 0.203125 1.171875l0 2.953127l-0.75 0l0 -2.937502q0 -0.5 -0.125 -0.796875q-0.109375 -0.3125 -0.3125 -0.4375q-0.203125 -0.140625 -0.453125 -0.140625q-0.25 0 -0.5 0.109375q-0.25 0.09375 -0.46875 0.296875q-0.203125 0.203125 -0.34375 0.484375q-0.125 0.265625 -0.125 0.625l0 2.796877l-0.75 0zm5.625061 0l0 -0.625l1.25 0l0 -3.625002l-1.1875 0l0 -0.625l1.953125 0l0 4.250002l1.140625 0l0 0.625l-3.15625 0zm1.59375 -5.890627q-0.21875 0 -0.390625 -0.15625q-0.15625 -0.171875 -0.15625 -0.390625q0 -0.234375 0.15625 -0.390625q0.15625 -0.15625 0.390625 -0.15625q0.234375 0 0.390625 0.171875q0.171875 0.15625 0.171875 0.375q0 0.21875 -0.171875 0.390625q-0.15625 0.15625 -0.390625 0.15625zm5.343811 5.968752q-0.671875 0 -1.1875 -0.3125q-0.5 -0.328125 -0.78125 -0.890625q-0.28125 -0.578125 -0.28125 -1.3125q0 -0.7500019 0.28125 -1.3125019q0.28125 -0.578125 0.78125 -0.890625q0.515625 -0.328125 1.1875 -0.328125q0.65625 0 1.15625 0.328125q0.515625 0.3125 0.796875 0.890625q0.28125 0.5625 0.28125 1.3125019q0 0.734375 -0.28125 1.3125q-0.28125 0.5625 -0.796875 0.890625q-0.5 0.3125 -1.15625 0.3125zm0 -0.625q0.421875 0 0.734375 -0.25q0.328125 -0.25 0.515625 -0.671875q0.1875 -0.421875 0.1875 -0.984375q0 -0.5468769 -0.1875 -0.9687519q-0.1875 -0.4375 -0.515625 -0.671875q-0.3125 -0.25 -0.734375 -0.25q-0.421875 0 -0.75 0.25q-0.328125 0.234375 -0.515625 0.671875q-0.1875 0.421875 -0.1875 0.9687519q0 0.5625 0.1875 0.984375q0.1875 0.421875 0.515625 0.671875q0.328125 0.25 0.75 0.25zm5.687561 0.65625q-0.53125 0 -1.0 -0.1875q-0.46875 -0.203125 -0.828125 -0.625q-0.359375 -0.421875 -0.5625 -1.046875q-0.203125 -0.640625 -0.203125 -1.5312519q0 -0.78125 0.140625 -1.359375q0.15625 -0.578125 0.40625 -0.96875q0.265625 -0.40625 0.59375 -0.640625q0.328125 -0.234375 0.6875 -0.328125q0.359375 -0.109375 0.734375 -0.109375q0.71875 0 1.21875 0.359375q0.515625 0.34375 0.78125 0.953125l-0.640625 0.296875l-0.09375 0.03125l-0.03125 -0.0625q0.03125 -0.09375 0 -0.15625q-0.03125 -0.078125 -0.125 -0.21875q-0.265625 -0.359375 -0.546875 -0.484375q-0.28125 -0.125 -0.59375 -0.125q-0.40625 0 -0.75 0.1875q-0.328125 0.1875 -0.578125 0.546875q-0.234375 0.34375 -0.359375 0.859375q-0.125 0.515625 -0.125 1.171875q0 0.625 0.140625 1.1406269q0.15625 0.5 0.40625 0.875q0.25 0.375 0.578125 0.578125q0.34375 0.203125 0.71875 0.203125q0.265625 0 0.515625 -0.09375q0.25 -0.09375 0.46875 -0.28125q0.21875 -0.1875 0.359375 -0.4375l0.5625 0.359375q-0.328125 0.53125 -0.78125 0.8125q-0.4375 0.28125 -1.09375 0.28125l0 0zm3.140686 -0.109375l0 -0.625l1.4375 0l0 -5.843752l-1.375 0l0 -0.625l2.15625 0l0 6.468752l1.421875 0l0 0.625l-3.640625 0zm5.546936 0l0 -0.625l1.25 0l0 -3.625002l-1.1875 0l0 -0.625l1.953125 0l0 4.250002l1.140625 0l0 0.625l-3.15625 0zm1.59375 -5.890627q-0.21875 0 -0.390625 -0.15625q-0.15625 -0.171875 -0.15625 -0.390625q0 -0.234375 0.15625 -0.390625q0.15625 -0.15625 0.390625 -0.15625q0.234375 0 0.390625 0.171875q0.171875 0.15625 0.171875 0.375q0 0.21875 -0.171875 0.390625q-0.15625 0.15625 -0.390625 0.15625zm5.578186 6.000002q-0.546875 0 -0.984375 -0.15625q-0.4375 -0.171875 -0.75 -0.484375q-0.3125 -0.328125 -0.484375 -0.796875q-0.171875 -0.484375 -0.171875 -1.09375q0 -0.6093769 0.171875 -1.0937519q0.1875 -0.484375 0.484375 -0.796875q0.3125 -0.328125 0.71875 -0.5q0.40625 -0.171875 0.875 -0.171875q0.40625 0 0.765625 0.140625q0.375 0.140625 0.640625 0.421875q0.265625 0.28125 0.40625 0.71875q0.15625 0.4375 0.15625 1.03125q0 0.07812691 0 0.1718769q0 0.09375 -0.015625 0.171875l-3.46875 0q0.03125 0.46875 0.171875 0.828125q0.140625 0.34375 0.359375 0.5625q0.21875 0.21875 0.515625 0.328125q0.296875 0.09375 0.625 0.09375q0.25 0 0.46875 -0.046875q0.234375 -0.0625 0.421875 -0.1875q0.203125 -0.125 0.359375 -0.3125l0.4375 0.421875q-0.203125 0.25 -0.46875 0.421875q-0.265625 0.171875 -0.578125 0.25q-0.296875 0.078125 -0.65625 0.078125zm-1.609375 -3.031252l2.671875 0q0 -0.34375 -0.09375 -0.609375q-0.09375 -0.265625 -0.265625 -0.46875q-0.15625 -0.203125 -0.390625 -0.296875q-0.21875 -0.109375 -0.515625 -0.109375q-0.25 0 -0.484375 0.09375q-0.21875 0.078125 -0.421875 0.265625q-0.1875 0.1875 -0.328125 0.46875q-0.125 0.28125 -0.171875 0.65625zm4.796936 2.921877l0 -4.875002l0.75 0l0 0.875q0.1875 -0.3125 0.4375 -0.515625q0.265625 -0.21875 0.5625 -0.34375q0.3125 -0.125 0.65625 -0.125q0.390625 0 0.703125 0.203125q0.328125 0.203125 0.515625 0.65625q0.203125 0.4375 0.203125 1.171875l0 2.953127l-0.75 0l0 -2.937502q0 -0.5 -0.125 -0.796875q-0.109375 -0.3125 -0.3125 -0.4375q-0.203125 -0.140625 -0.453125 -0.140625q-0.25 0 -0.5 0.109375q-0.25 0.09375 -0.46875 0.296875q-0.203125 0.203125 -0.34375 0.484375q-0.125 0.265625 -0.125 0.625l0 2.796877l-0.75 0zm7.750061 0.078125q-0.46875 0 -0.765625 -0.15625q-0.296875 -0.171875 -0.46875 -0.5q-0.15625 -0.34375 -0.203125 -0.84375q-0.046875 -0.515625 -0.03125 -1.21875l0.140625 -3.468752l0.796875 -0.109375l0.109375 0l0 0.0625q-0.046875 0.078125 -0.09375 0.15625q-0.03125 0.078125 -0.046875 0.25l-0.09375 1.203125l0.03125 0.203125l-0.078125 1.7500019q-0.03125 0.8125 0.03125 1.265625q0.078125 0.4375 0.265625 0.609375q0.203125 0.15625 0.515625 0.15625q0.359375 0 0.625 -0.140625q0.28125 -0.140625 0.578125 -0.359375l0.234375 0.609375q-0.359375 0.265625 -0.75 0.40625q-0.375 0.125 -0.796875 0.125l0 0zm-2.4375 -4.953127l3.5 0l0 0.640625l-3.5 0l0 -0.640625zm7.109436 5.000002q-0.25 0 -0.4375 -0.1875q-0.171875 -0.1875 -0.171875 -0.421875q0 -0.25 0.171875 -0.421875q0.1875 -0.1875 0.4375 -0.1875q0.25 0 0.421875 0.1875q0.1875 0.171875 0.1875 0.421875q0 0.234375 -0.1875 0.421875q-0.171875 0.1875 -0.421875 0.1875zm5.421936 1.703125q-0.5 0 -0.921875 -0.078125q-0.40625 -0.078125 -0.703125 -0.234375q-0.28125 -0.15625 -0.4375 -0.390625q-0.15625 -0.234375 -0.15625 -0.546875q0 -0.296875 0.125 -0.53125q0.125 -0.234375 0.328125 -0.390625q0.21875 -0.15625 0.46875 -0.234375l0.3125 0.1875q-0.1875 0.125 -0.3125 0.25q-0.109375 0.109375 -0.171875 0.265625q-0.046875 0.15625 -0.046875 0.359375q0 0.1875 0.109375 0.328125q0.109375 0.140625 0.296875 0.234375q0.203125 0.109375 0.484375 0.15625q0.28125 0.046875 0.640625 0.046875q0.5 0 0.796875 -0.09375q0.296875 -0.09375 0.4375 -0.28125q0.15625 -0.171875 0.15625 -0.390625q0 -0.234375 -0.078125 -0.390625q-0.078125 -0.140625 -0.359375 -0.21875q-0.265625 -0.078125 -0.796875 -0.078125q-0.375 0 -0.6875 -0.03125q-0.3125 -0.03125 -0.5625 -0.109375q-0.234375 -0.078125 -0.40625 -0.1875q-0.15625 -0.109375 -0.25 -0.265625q-0.078125 -0.15625 -0.078125 -0.375q0 -0.28125 0.15625 -0.53125q0.15625 -0.25 0.421875 -0.484375l0.359375 0.28125q-0.109375 0.109375 -0.171875 0.203125q-0.0625 0.09375 -0.09375 0.171875q-0.03125 0.078125 -0.03125 0.171875q0 0.171875 0.125 0.28125q0.140625 0.109375 0.46875 0.15625q0.34375 0.046875 0.90625 0.046875q0.5625 0 0.90625 0.09375q0.359375 0.09375 0.546875 0.265625q0.1875 0.15625 0.25 0.390625q0.078125 0.21875 0.078125 0.484375q0 0.296875 -0.109375 0.546875q-0.109375 0.265625 -0.359375 0.46875q-0.234375 0.21875 -0.640625 0.328125q-0.40625 0.125 -1.0 0.125zm-0.21875 -3.484375q-0.515625 0 -0.90625 -0.21875q-0.375 -0.234375 -0.59375 -0.625q-0.203125 -0.3906269 -0.203125 -0.8593769q0 -0.46875 0.203125 -0.84375q0.21875 -0.390625 0.59375 -0.609375q0.390625 -0.234375 0.90625 -0.234375q0.53125 0 0.90625 0.234375q0.390625 0.21875 0.59375 0.609375q0.203125 0.375 0.203125 0.84375q0 0.46875 -0.203125 0.8593769q-0.203125 0.390625 -0.59375 0.625q-0.375 0.21875 -0.90625 0.21875zm0 -0.640625q0.3125 0 0.546875 -0.140625q0.25 -0.140625 0.375 -0.3750019q0.140625 -0.25 0.140625 -0.546875q0 -0.296875 -0.140625 -0.53125q-0.125 -0.25 -0.375 -0.390625q-0.234375 -0.140625 -0.546875 -0.140625q-0.3125 0 -0.546875 0.140625q-0.234375 0.140625 -0.375 0.390625q-0.140625 0.234375 -0.140625 0.53125q0 0.296875 0.140625 0.546875q0.140625 0.2343769 0.375 0.3750019q0.234375 0.140625 0.546875 0.140625zm1.421875 -1.7812519l-0.296875 -0.359375q0.3125 -0.296875 0.640625 -0.4375q0.328125 -0.15625 0.796875 -0.125l0.09375 0.625q-0.359375 -0.03125 -0.671875 0.03125q-0.296875 0.046875 -0.5625 0.265625zm4.406311 4.187502q-0.546875 0 -0.984375 -0.15625q-0.4375 -0.171875 -0.75 -0.484375q-0.3125 -0.328125 -0.484375 -0.796875q-0.171875 -0.484375 -0.171875 -1.09375q0 -0.6093769 0.171875 -1.0937519q0.1875 -0.484375 0.484375 -0.796875q0.3125 -0.328125 0.71875 -0.5q0.40625 -0.171875 0.875 -0.171875q0.40625 0 0.765625 0.140625q0.375 0.140625 0.640625 0.421875q0.265625 0.28125 0.40625 0.71875q0.15625 0.4375 0.15625 1.03125q0 0.07812691 0 0.1718769q0 0.09375 -0.015625 0.171875l-3.46875 0q0.03125 0.46875 0.171875 0.828125q0.140625 0.34375 0.359375 0.5625q0.21875 0.21875 0.515625 0.328125q0.296875 0.09375 0.625 0.09375q0.25 0 0.46875 -0.046875q0.234375 -0.0625 0.421875 -0.1875q0.203125 -0.125 0.359375 -0.3125l0.4375 0.421875q-0.203125 0.25 -0.46875 0.421875q-0.265625 0.171875 -0.578125 0.25q-0.296875 0.078125 -0.65625 0.078125zm-1.609375 -3.031252l2.671875 0q0 -0.34375 -0.09375 -0.609375q-0.09375 -0.265625 -0.265625 -0.46875q-0.15625 -0.203125 -0.390625 -0.296875q-0.21875 -0.109375 -0.515625 -0.109375q-0.25 0 -0.484375 0.09375q-0.21875 0.078125 -0.421875 0.265625q-0.1875 0.1875 -0.328125 0.46875q-0.125 0.28125 -0.171875 0.65625zm7.218811 3.000002q-0.46875 0 -0.765625 -0.15625q-0.296875 -0.171875 -0.46875 -0.5q-0.15625 -0.34375 -0.203125 -0.84375q-0.046875 -0.515625 -0.03125 -1.21875l0.140625 -3.468752l0.796875 -0.109375l0.109375 0l0 0.0625q-0.046875 0.078125 -0.09375 0.15625q-0.03125 0.078125 -0.046875 0.25l-0.09375 1.203125l0.03125 0.203125l-0.078125 1.7500019q-0.03125 0.8125 0.03125 1.265625q0.078125 0.4375 0.265625 0.609375q0.203125 0.15625 0.515625 0.15625q0.359375 0 0.625 -0.140625q0.28125 -0.140625 0.578125 -0.359375l0.234375 0.609375q-0.359375 0.265625 -0.75 0.40625q-0.375 0.125 -0.796875 0.125l0 0zm-2.4375 -4.953127l3.5 0l0 0.640625l-3.5 0l0 -0.640625zm7.250061 5.000002q-0.765625 0 -1.296875 -0.390625q-0.53125 -0.40625 -0.8125 -1.15625q-0.28125 -0.765625 -0.28125 -1.8593769q0 -1.0625 0.28125 -1.8125q0.28125 -0.765625 0.8125 -1.171875q0.53125 -0.421875 1.296875 -0.421875q0.765625 0 1.28125 0.421875q0.53125 0.40625 0.8125 1.171875q0.28125 0.75 0.28125 1.8125q0 1.0937519 -0.28125 1.8593769q-0.28125 0.75 -0.8125 1.15625q-0.515625 0.390625 -1.28125 0.390625zm0 -0.65625q0.5 0 0.859375 -0.3125q0.359375 -0.328125 0.546875 -0.9375q0.1875 -0.609375 0.1875 -1.5000019q0 -0.84375 -0.1875 -1.453125q-0.1875 -0.609375 -0.546875 -0.953125q-0.359375 -0.34375 -0.859375 -0.34375q-0.515625 0 -0.875 0.34375q-0.359375 0.34375 -0.546875 0.953125q-0.1875 0.609375 -0.1875 1.453125q0 0.8906269 0.1875 1.5000019q0.1875 0.609375 0.546875 0.9375q0.359375 0.3125 0.875 0.3125zm5.484436 0.65625q-0.296875 0 -0.5625 -0.09375q-0.265625 -0.09375 -0.484375 -0.265625q-0.21875 -0.171875 -0.390625 -0.40625l-0.265625 0.640625l-0.484375 0l0 -7.093752l0.765625 0l0.109375 0l0 0.078125q-0.0625 0.0625 -0.078125 0.140625q-0.015625 0.078125 -0.015625 0.25l0 2.5q0.109375 -0.1875 0.265625 -0.34375q0.171875 -0.171875 0.359375 -0.28125q0.1875 -0.125 0.40625 -0.171875q0.21875 -0.0625 0.40625 -0.0625q0.453125 0 0.8125 0.15625q0.375 0.15625 0.640625 0.46875q0.265625 0.3125 0.40625 0.78125q0.15625 0.46875 0.15625 1.0937519q0 0.65625 -0.171875 1.140625q-0.171875 0.484375 -0.46875 0.8125q-0.296875 0.328125 -0.65625 0.5q-0.359375 0.15625 -0.75 0.15625l0 0zm-0.09375 -0.6875q0.265625 0 0.5 -0.09375q0.234375 -0.09375 0.421875 -0.3125q0.203125 -0.21875 0.3125 -0.578125q0.109375 -0.375 0.109375 -0.890625q0 -0.4843769 -0.09375 -0.8437519q-0.09375 -0.359375 -0.28125 -0.59375q-0.171875 -0.234375 -0.421875 -0.34375q-0.234375 -0.109375 -0.515625 -0.109375q-0.40625 0 -0.703125 0.25q-0.296875 0.234375 -0.46875 0.671875q-0.171875 0.421875 -0.171875 0.9843769q0 0.421875 0.0625 0.765625q0.078125 0.328125 0.234375 0.578125q0.15625 0.25 0.40625 0.390625q0.25 0.125 0.609375 0.125l0 0zm4.656311 2.421875q-0.453125 0 -0.875 -0.171875q-0.40625 -0.171875 -0.671875 -0.515625l0.421875 -0.578125l0.0625 -0.078125l0.0625 0.03125q0.03125 0.09375 0.0625 0.171875q0.03125 0.078125 0.140625 0.203125q0.15625 0.125 0.34375 0.1875q0.203125 0.078125 0.453125 0.078125q0.3125 0 0.5625 -0.140625q0.25 -0.140625 0.390625 -0.453125q0.140625 -0.296875 0.140625 -0.78125l0 -4.046877l-1.8125 0l0 -0.640625l2.59375 0l0 4.640627q0 0.734375 -0.265625 1.1875q-0.25 0.46875 -0.671875 0.6875q-0.421875 0.21875 -0.9375 0.21875l0 0zm1.421875 -7.750002q-0.21875 0 -0.390625 -0.15625q-0.15625 -0.171875 -0.15625 -0.390625q0 -0.234375 0.15625 -0.390625q0.15625 -0.15625 0.390625 -0.15625q0.234375 0 0.390625 0.171875q0.171875 0.15625 0.171875 0.375q0 0.21875 -0.171875 0.390625q-0.15625 0.15625 -0.390625 0.15625zm4.750061 6.000002q-0.546875 0 -0.984375 -0.15625q-0.4375 -0.171875 -0.75 -0.484375q-0.3125 -0.328125 -0.484375 -0.796875q-0.171875 -0.484375 -0.171875 -1.09375q0 -0.6093769 0.171875 -1.0937519q0.1875 -0.484375 0.484375 -0.796875q0.3125 -0.328125 0.71875 -0.5q0.40625 -0.171875 0.875 -0.171875q0.40625 0 0.765625 0.140625q0.375 0.140625 0.640625 0.421875q0.265625 0.28125 0.40625 0.71875q0.15625 0.4375 0.15625 1.03125q0 0.07812691 0 0.1718769q0 0.09375 -0.015625 0.171875l-3.46875 0q0.03125 0.46875 0.171875 0.828125q0.140625 0.34375 0.359375 0.5625q0.21875 0.21875 0.515625 0.328125q0.296875 0.09375 0.625 0.09375q0.25 0 0.46875 -0.046875q0.234375 -0.0625 0.421875 -0.1875q0.203125 -0.125 0.359375 -0.3125l0.4375 0.421875q-0.203125 0.25 -0.46875 0.421875q-0.265625 0.171875 -0.578125 0.25q-0.296875 0.078125 -0.65625 0.078125zm-1.609375 -3.031252l2.671875 0q0 -0.34375 -0.09375 -0.609375q-0.09375 -0.265625 -0.265625 -0.46875q-0.15625 -0.203125 -0.390625 -0.296875q-0.21875 -0.109375 -0.515625 -0.109375q-0.25 0 -0.484375 0.09375q-0.21875 0.078125 -0.421875 0.265625q-0.1875 0.1875 -0.328125 0.46875q-0.125 0.28125 -0.171875 0.65625zm7.062561 3.046877q-0.53125 0 -0.984375 -0.1875q-0.4375 -0.203125 -0.765625 -0.546875q-0.328125 -0.34375 -0.515625 -0.796875q-0.171875 -0.46875 -0.171875 -1.015625q0 -0.5468769 0.171875 -1.0156269q0.1875 -0.46875 0.515625 -0.796875q0.328125 -0.34375 0.765625 -0.53125q0.453125 -0.203125 0.984375 -0.203125q0.59375 0 1.0625 0.25q0.484375 0.234375 0.78125 0.65625l-0.484375 0.46875l-0.078125 0.078125l-0.046875 -0.046875q0 -0.09375 -0.046875 -0.15625q-0.03125 -0.078125 -0.15625 -0.21875q-0.234375 -0.203125 -0.5 -0.28125q-0.265625 -0.09375 -0.625 -0.09375q-0.3125 0 -0.59375 0.125q-0.265625 0.125 -0.484375 0.375q-0.21875 0.234375 -0.34375 0.578125q-0.125 0.328125 -0.125 0.7500019q0 0.421875 0.125 0.765625q0.125 0.34375 0.34375 0.609375q0.234375 0.25 0.546875 0.390625q0.3125 0.140625 0.671875 0.140625q0.25 0 0.46875 -0.0625q0.21875 -0.078125 0.421875 -0.203125q0.203125 -0.140625 0.375 -0.328125l0.453125 0.515625q-0.359375 0.390625 -0.8125 0.59375q-0.4375 0.1875 -0.953125 0.1875l0 0zm5.484436 -0.046875q-0.46875 0 -0.765625 -0.15625q-0.296875 -0.171875 -0.46875 -0.5q-0.15625 -0.34375 -0.203125 -0.84375q-0.046875 -0.515625 -0.03125 -1.21875l0.140625 -3.468752l0.796875 -0.109375l0.109375 0l0 0.0625q-0.046875 0.078125 -0.09375 0.15625q-0.03125 0.078125 -0.046875 0.25l-0.09375 1.203125l0.03125 0.203125l-0.078125 1.7500019q-0.03125 0.8125 0.03125 1.265625q0.078125 0.4375 0.265625 0.609375q0.203125 0.15625 0.515625 0.15625q0.359375 0 0.625 -0.140625q0.28125 -0.140625 0.578125 -0.359375l0.234375 0.609375q-0.359375 0.265625 -0.75 0.40625q-0.375 0.125 -0.796875 0.125l0 0zm-2.4375 -4.953127l3.5 0l0 0.640625l-3.5 0l0 -0.640625zm8.781311 5.984377q-0.875 -0.421875 -1.53125 -1.109375q-0.65625 -0.703125 -1.015625 -1.578125q-0.359375 -0.890625 -0.359375 -1.8281269q0 -0.953125 0.34375 -1.8125q0.359375 -0.859375 1.0 -1.53125q0.640625 -0.671875 1.5 -1.078125l0.203125 0.65625q-0.5 0.28125 -0.921875 0.6875q-0.421875 0.40625 -0.734375 0.890625q-0.296875 0.484375 -0.46875 1.0625q-0.15625 0.5625 -0.15625 1.15625q0 0.59375 0.15625 1.1562519q0.171875 0.5625 0.46875 1.078125q0.3125 0.5 0.75 0.921875q0.4375 0.40625 0.96875 0.6875l-0.203125 0.640625zm2.546936 0l-0.203125 -0.640625q0.546875 -0.28125 0.96875 -0.6875q0.4375 -0.421875 0.734375 -0.921875q0.3125 -0.515625 0.46875 -1.078125q0.171875 -0.5625019 0.171875 -1.1562519q0 -0.59375 -0.171875 -1.15625q-0.15625 -0.578125 -0.46875 -1.0625q-0.296875 -0.484375 -0.71875 -0.890625q-0.40625 -0.40625 -0.921875 -0.6875l0.203125 -0.65625q0.859375 0.40625 1.5 1.078125q0.640625 0.671875 0.984375 1.53125q0.359375 0.859375 0.359375 1.8125q0 0.9375019 -0.359375 1.8281269q-0.359375 0.875 -1.015625 1.578125q-0.65625 0.6875 -1.53125 1.109375z" fill-rule="nonzero"/><path fill="#000000" fill-opacity="0.0" d="m60.175854 237.86876l0 18.204727l0.062992096 0l0 18.204742" fill-rule="evenodd"/><path stroke="#c72e49" stroke-width="1.0" stroke-linejoin="round" stroke-linecap="butt" stroke-dasharray="4.0,3.0" d="m60.175854 243.86876l0 12.204727l0.062992096 0l0 12.204742" fill-rule="evenodd"/><path fill="#c72e49" stroke="#c72e49" stroke-width="1.0" stroke-linecap="butt" d="m61.827587 243.86876l-1.6517334 -4.538086l-1.6517334 4.538086z" fill-rule="evenodd"/><path fill="#c72e49" stroke="#c72e49" stroke-width="1.0" stroke-linecap="butt" d="m58.587112 268.27823l1.6517334 4.538086l1.6517334 -4.538086z" fill-rule="evenodd"/><path fill="#000000" fill-opacity="0.0" d="m60.175854 237.86876l0 18.204727l174.61417 0l0 18.204742" fill-rule="evenodd"/><path stroke="#c72e49" stroke-width="1.0" stroke-linejoin="round" stroke-linecap="butt" stroke-dasharray="4.0,3.0" d="m60.175854 243.86876l0 12.204727l174.61417 0l0 12.204742" fill-rule="evenodd"/><path fill="#c72e49" stroke="#c72e49" stroke-width="1.0" stroke-linecap="butt" d="m61.827587 243.86876l-1.6517334 -4.538086l-1.6517334 4.538086z" fill-rule="evenodd"/><path fill="#c72e49" stroke="#c72e49" stroke-width="1.0" stroke-linecap="butt" d="m233.13829 268.27823l1.6517334 4.538086l1.6517334 -4.538086z" fill-rule="evenodd"/><path fill="#000000" fill-opacity="0.0" d="m60.175854 237.86876l0 18.204727l349.19687 0l0 18.204742" fill-rule="evenodd"/><path stroke="#c72e49" stroke-width="1.0" stroke-linejoin="round" stroke-linecap="butt" stroke-dasharray="4.0,3.0" d="m60.175854 243.86876l0 12.204727l349.19687 0l0 12.204742" fill-rule="evenodd"/><path fill="#c72e49" stroke="#c72e49" stroke-width="1.0" stroke-linecap="butt" d="m61.827587 243.86876l-1.6517334 -4.538086l-1.6517334 4.538086z" fill-rule="evenodd"/><path fill="#c72e49" stroke="#c72e49" stroke-width="1.0" stroke-linecap="butt" d="m407.72098 268.27823l1.6517334 4.538086l1.6517334 -4.538086z" fill-rule="evenodd"/><path fill="#000000" fill-opacity="0.0" d="m60.175854 237.86876l0 18.204727l523.81104 0l0 18.204742" fill-rule="evenodd"/><path stroke="#c72e49" stroke-width="1.0" stroke-linejoin="round" stroke-linecap="butt" stroke-dasharray="4.0,3.0" d="m60.175854 243.86876l0 12.204727l523.81104 0l0 12.204742" fill-rule="evenodd"/><path fill="#c72e49" stroke="#c72e49" stroke-width="1.0" stroke-linecap="butt" d="m61.827587 243.86876l-1.6517334 -4.538086l-1.6517334 4.538086z" fill-rule="evenodd"/><path fill="#c72e49" stroke="#c72e49" stroke-width="1.0" stroke-linecap="butt" d="m582.33514 268.27823l1.6517334 4.538086l1.6517334 -4.538086z" fill-rule="evenodd"/><path fill="#000000" fill-opacity="0.0" d="m234.77953 274.27823l0 -18.204742l0.06298828 0l0 -18.204727" fill-rule="evenodd"/><path stroke="#c72e49" stroke-width="1.0" stroke-linejoin="round" stroke-linecap="butt" stroke-dasharray="4.0,3.0" d="m234.77953 268.27823l0 -12.204742l0.06298828 0l0 -12.204727" fill-rule="evenodd"/><path fill="#c72e49" stroke="#c72e49" stroke-width="1.0" stroke-linecap="butt" d="m233.12779 268.27823l1.6517334 4.538086l1.6517334 -4.538086z" fill-rule="evenodd"/><path fill="#c72e49" stroke="#c72e49" stroke-width="1.0" stroke-linecap="butt" d="m236.49425 243.86876l-1.6517334 -4.538086l-1.6517334 4.538086z" fill-rule="evenodd"/><path fill="#000000" fill-opacity="0.0" d="m409.3832 274.27823l0 -18.204742l0.06298828 0l0 -18.204727" fill-rule="evenodd"/><path stroke="#c72e49" stroke-width="1.0" stroke-linejoin="round" stroke-linecap="butt" stroke-dasharray="4.0,3.0" d="m409.3832 268.27823l0 -12.204742l0.06298828 0l0 -12.204727" fill-rule="evenodd"/><path fill="#c72e49" stroke="#c72e49" stroke-width="1.0" stroke-linecap="butt" d="m407.73148 268.27823l1.6517334 4.538086l1.6517334 -4.538086z" fill-rule="evenodd"/><path fill="#c72e49" stroke="#c72e49" stroke-width="1.0" stroke-linecap="butt" d="m411.09793 243.86876l-1.6517334 -4.538086l-1.6517334 4.538086z" fill-rule="evenodd"/><path fill="#000000" fill-opacity="0.0" d="m583.9869 274.27823l0 -18.204742l0.06298828 0l0 -18.204727" fill-rule="evenodd"/><path stroke="#c72e49" stroke-width="1.0" stroke-linejoin="round" stroke-linecap="butt" stroke-dasharray="4.0,3.0" d="m583.9869 268.27823l0 -12.204742l0.06298828 0l0 -12.204727" fill-rule="evenodd"/><path fill="#c72e49" stroke="#c72e49" stroke-width="1.0" stroke-linecap="butt" d="m582.33514 268.27823l1.6517334 4.538086l1.6517334 -4.538086z" fill-rule="evenodd"/><path fill="#c72e49" stroke="#c72e49" stroke-width="1.0" stroke-linecap="butt" d="m585.7016 243.86876l-1.6517334 -4.538086l-1.6517334 4.538086z" fill-rule="evenodd"/><path fill="#f3f3f3" d="m6.272966 7.375328l137.29134 0l0 47.90551l-137.29134 0z" fill-rule="evenodd"/><path stroke="#ffffff" stroke-width="1.0" stroke-linejoin="round" stroke-linecap="butt" d="m6.272966 7.375328l137.29134 0l0 47.90551l-137.29134 0z" fill-rule="evenodd"/><path fill="#000000" fill-opacity="0.0" d="m12.259843 22.632545l38.582676 0" fill-rule="evenodd"/><path stroke="#c72e49" stroke-width="1.0" stroke-linejoin="round" stroke-linecap="butt" stroke-dasharray="4.0,3.0" d="m12.259843 22.632545l38.582676 0" fill-rule="evenodd"/><path fill="#000000" fill-opacity="0.0" d="m58.401573 15.2021l85.16535 0l0 12.913386l-85.16535 0z" fill-rule="evenodd"/><path fill="#000000" d="m59.401573 25.442099l0 -7.625l1.0 0l0 7.625l-1.0 0zm2.6637726 0l0 -5.53125l0.84375 0l0 0.796875q0.609375 -0.921875 1.75 -0.921875q0.5 0 0.921875 0.1875q0.421875 0.171875 0.625 0.46875q0.21875 0.296875 0.296875 0.6875q0.046875 0.265625 0.046875 0.921875l0 3.390625l-0.9375 0l0 -3.359375q0 -0.578125 -0.109375 -0.859375q-0.109375 -0.28125 -0.390625 -0.453125q-0.265625 -0.171875 -0.640625 -0.171875q-0.59375 0 -1.03125 0.390625q-0.4375 0.375 -0.4375 1.4375l0 3.015625l-0.9375 0zm7.9733734 -0.84375l0.125 0.828125q-0.390625 0.09375 -0.703125 0.09375q-0.5 0 -0.78125 -0.15625q-0.28125 -0.171875 -0.40625 -0.4375q-0.109375 -0.265625 -0.109375 -1.109375l0 -3.171875l-0.6875 0l0 -0.734375l0.6875 0l0 -1.359375l0.9375 -0.5625l0 1.921875l0.9375 0l0 0.734375l-0.9375 0l0 3.234375q0 0.390625 0.046875 0.515625q0.046875 0.109375 0.15625 0.1875q0.109375 0.0625 0.328125 0.0625q0.15625 0 0.40625 -0.046875zm4.6950226 -0.9375l0.96875 0.125q-0.234375 0.84375 -0.859375 1.3125q-0.609375 0.46875 -1.578125 0.46875q-1.203125 0 -1.921875 -0.75q-0.703125 -0.75 -0.703125 -2.09375q0 -1.390625 0.71875 -2.15625q0.71875 -0.78125 1.859375 -0.78125q1.109375 0 1.8125 0.765625q0.703125 0.75 0.703125 2.125q0 0.078125 0 0.234375l-4.125 0q0.046875 0.921875 0.515625 1.40625q0.46875 0.484375 1.15625 0.484375q0.515625 0 0.875 -0.265625q0.359375 -0.28125 0.578125 -0.875zm-3.078125 -1.515625l3.09375 0q-0.0625 -0.6875 -0.359375 -1.046875q-0.453125 -0.53125 -1.15625 -0.53125q-0.640625 0 -1.09375 0.4375q-0.4375 0.421875 -0.484375 1.140625zm5.2077484 3.296875l0 -5.53125l0.84375 0l0 0.84375q0.328125 -0.59375 0.59375 -0.78125q0.28125 -0.1875 0.609375 -0.1875q0.46875 0 0.953125 0.3125l-0.3125 0.859375q-0.34375 -0.203125 -0.6875 -0.203125q-0.3125 0 -0.5625 0.1875q-0.234375 0.1875 -0.34375 0.515625q-0.15625 0.5 -0.15625 1.09375l0 2.890625l-0.9375 0zm3.5642395 0l0 -5.53125l0.84375 0l0 0.796875q0.609375 -0.921875 1.75 -0.921875q0.5 0 0.921875 0.1875q0.421875 0.171875 0.625 0.46875q0.21875 0.296875 0.296875 0.6875q0.046875 0.265625 0.046875 0.921875l0 3.390625l-0.9375 0l0 -3.359375q0 -0.578125 -0.109375 -0.859375q-0.109375 -0.28125 -0.390625 -0.453125q-0.265625 -0.171875 -0.640625 -0.171875q-0.59375 0 -1.03125 0.390625q-0.4375 0.375 -0.4375 1.4375l0 3.015625l-0.9375 0zm5.5827484 -2.765625q0 -1.53125 0.84375 -2.265625q0.71875 -0.625 1.734375 -0.625q1.140625 0 1.859375 0.75q0.734375 0.75 0.734375 2.0625q0 1.0625 -0.328125 1.6875q-0.3125 0.609375 -0.921875 0.953125q-0.609375 0.328125 -1.34375 0.328125q-1.15625 0 -1.875 -0.734375q-0.703125 -0.75 -0.703125 -2.15625zm0.953125 0q0 1.0625 0.46875 1.59375q0.46875 0.53125 1.15625 0.53125q0.703125 0 1.15625 -0.53125q0.46875 -0.53125 0.46875 -1.625q0 -1.015625 -0.46875 -1.546875q-0.453125 -0.53125 -1.15625 -0.53125q-0.6875 0 -1.15625 0.53125q-0.46875 0.515625 -0.46875 1.578125zm8.895248 2.765625l0 -0.703125q-0.515625 0.828125 -1.546875 0.828125q-0.65625 0 -1.21875 -0.359375q-0.546875 -0.375 -0.859375 -1.015625q-0.296875 -0.65625 -0.296875 -1.5q0 -0.828125 0.28125 -1.5q0.28125 -0.6875 0.828125 -1.046875q0.546875 -0.359375 1.234375 -0.359375q0.5 0 0.890625 0.21875q0.390625 0.203125 0.625 0.546875l0 -2.734375l0.9375 0l0 7.625l-0.875 0zm-2.953125 -2.75q0 1.046875 0.4375 1.578125q0.453125 0.53125 1.0625 0.53125q0.609375 0 1.03125 -0.5q0.4375 -0.515625 0.4375 -1.53125q0 -1.140625 -0.4375 -1.671875q-0.4375 -0.53125 -1.078125 -0.53125q-0.609375 0 -1.03125 0.515625q-0.421875 0.5 -0.421875 1.609375zm9.082748 0.96875l0.96875 0.125q-0.234375 0.84375 -0.859375 1.3125q-0.609375 0.46875 -1.578125 0.46875q-1.203125 0 -1.921875 -0.75q-0.703125 -0.75 -0.703125 -2.09375q0 -1.390625 0.71875 -2.15625q0.71875 -0.78125 1.859375 -0.78125q1.109375 0 1.8125 0.765625q0.703125 0.75 0.703125 2.125q0 0.078125 0 0.234375l-4.125 0q0.046875 0.921875 0.515625 1.40625q0.46875 0.484375 1.15625 0.484375q0.515625 0 0.875 -0.265625q0.359375 -0.28125 0.578125 -0.875zm-3.078125 -1.515625l3.09375 0q-0.0625 -0.6875 -0.359375 -1.046875q-0.453125 -0.53125 -1.15625 -0.53125q-0.640625 0 -1.09375 0.4375q-0.4375 0.421875 -0.484375 1.140625zm10.053818 3.296875l0 -6.734375l-2.515625 0l0 -0.890625l6.046875 0l0 0.890625l-2.53125 0l0 6.734375l-1.0 0zm4.035309 0l0 -5.53125l0.84375 0l0 0.84375q0.328125 -0.59375 0.59375 -0.78125q0.28125 -0.1875 0.609375 -0.1875q0.46875 0 0.953125 0.3125l-0.3125 0.859375q-0.34375 -0.203125 -0.6875 -0.203125q-0.3125 0 -0.5625 0.1875q-0.234375 0.1875 -0.34375 0.515625q-0.15625 0.5 -0.15625 1.09375l0 2.890625l-0.9375 0zm7.1736145 -0.6875q-0.53125 0.453125 -1.015625 0.640625q-0.46875 0.171875 -1.015625 0.171875q-0.921875 0 -1.40625 -0.4375q-0.484375 -0.453125 -0.484375 -1.140625q0 -0.40625 0.171875 -0.734375q0.1875 -0.34375 0.484375 -0.546875q0.3125 -0.203125 0.6875 -0.3125q0.265625 -0.0625 0.828125 -0.140625q1.125 -0.125 1.671875 -0.3125q0 -0.203125 0 -0.25q0 -0.578125 -0.265625 -0.8125q-0.359375 -0.3125 -1.0625 -0.3125q-0.65625 0 -0.984375 0.234375q-0.3125 0.234375 -0.453125 0.8125l-0.921875 -0.125q0.125 -0.578125 0.40625 -0.9375q0.296875 -0.375 0.828125 -0.5625q0.546875 -0.203125 1.25 -0.203125q0.71875 0 1.15625 0.171875q0.4375 0.171875 0.640625 0.421875q0.21875 0.25 0.296875 0.640625q0.046875 0.234375 0.046875 0.859375l0 1.25q0 1.296875 0.0625 1.65625q0.0625 0.34375 0.234375 0.65625l-0.96875 0q-0.15625 -0.296875 -0.1875 -0.6875zm-0.078125 -2.078125q-0.515625 0.203125 -1.53125 0.34375q-0.578125 0.078125 -0.828125 0.1875q-0.234375 0.109375 -0.359375 0.3125q-0.125 0.1875 -0.125 0.4375q0 0.375 0.28125 0.625q0.28125 0.25 0.828125 0.25q0.53125 0 0.953125 -0.234375q0.421875 -0.234375 0.625 -0.65625q0.15625 -0.3125 0.15625 -0.9375l0 -0.328125zm2.6139984 2.765625l0 -4.796875l-0.828125 0l0 -0.734375l0.828125 0l0 -0.578125q0 -0.5625 0.109375 -0.828125q0.125 -0.375 0.46875 -0.59375q0.34375 -0.234375 0.953125 -0.234375q0.390625 0 0.875 0.09375l-0.140625 0.828125q-0.296875 -0.0625 -0.546875 -0.0625q-0.421875 0 -0.609375 0.1875q-0.171875 0.1875 -0.171875 0.6875l0 0.5l1.078125 0l0 0.734375l-1.078125 0l0 4.796875l-0.9375 0zm2.7679443 0l0 -4.796875l-0.828125 0l0 -0.734375l0.828125 0l0 -0.578125q0 -0.5625 0.109375 -0.828125q0.125 -0.375 0.46875 -0.59375q0.34375 -0.234375 0.953125 -0.234375q0.390625 0 0.875 0.09375l-0.140625 0.828125q-0.296875 -0.0625 -0.546875 -0.0625q-0.421875 0 -0.609375 0.1875q-0.171875 0.1875 -0.171875 0.6875l0 0.5l1.078125 0l0 0.734375l-1.078125 0l0 4.796875l-0.9375 0zm2.7419052 -6.546875l0 -1.078125l0.9375 0l0 1.078125l-0.9375 0zm0 6.546875l0 -5.53125l0.9375 0l0 5.53125l-0.9375 0zm5.9768524 -2.03125l0.921875 0.125q-0.15625 0.953125 -0.78125 1.5q-0.625 0.53125 -1.53125 0.53125q-1.125 0 -1.8125 -0.734375q-0.6875 -0.75 -0.6875 -2.125q0 -0.90625 0.296875 -1.578125q0.296875 -0.671875 0.890625 -1.0q0.609375 -0.34375 1.328125 -0.34375q0.890625 0 1.46875 0.46875q0.578125 0.453125 0.734375 1.28125l-0.90625 0.140625q-0.140625 -0.546875 -0.46875 -0.828125q-0.328125 -0.28125 -0.796875 -0.28125q-0.703125 0 -1.15625 0.515625q-0.4375 0.5 -0.4375 1.59375q0 1.109375 0.421875 1.625q0.4375 0.5 1.125 0.5q0.546875 0 0.90625 -0.34375q0.375 -0.34375 0.484375 -1.046875z" fill-rule="nonzero"/><path fill="#000000" fill-opacity="0.0" d="m12.259843 38.632545l38.582676 0" fill-rule="evenodd"/><path stroke="#00303f" stroke-width="1.0" stroke-linejoin="round" stroke-linecap="butt" d="m12.259843 38.632545l38.582676 0" fill-rule="evenodd"/><path fill="#000000" fill-opacity="0.0" d="m58.401573 31.202099l85.16535 0l0 12.913387l-85.16535 0z" fill-rule="evenodd"/><path fill="#000000" d="m58.88595 38.988976l0.953125 -0.078125q0.0625 0.5625 0.3125 0.9375q0.25 0.359375 0.765625 0.59375q0.515625 0.21875 1.171875 0.21875q0.578125 0 1.015625 -0.171875q0.4375 -0.171875 0.65625 -0.46875q0.21875 -0.296875 0.21875 -0.65625q0 -0.359375 -0.21875 -0.625q-0.203125 -0.265625 -0.671875 -0.4375q-0.3125 -0.125 -1.359375 -0.375q-1.046875 -0.25 -1.46875 -0.484375q-0.546875 -0.28125 -0.828125 -0.703125q-0.265625 -0.421875 -0.265625 -0.953125q0 -0.578125 0.328125 -1.078125q0.328125 -0.5 0.953125 -0.765625q0.640625 -0.265625 1.40625 -0.265625q0.84375 0 1.484375 0.28125q0.65625 0.265625 1.0 0.796875q0.359375 0.53125 0.390625 1.203125l-0.96875 0.078125q-0.078125 -0.71875 -0.53125 -1.09375q-0.453125 -0.375 -1.328125 -0.375q-0.921875 0 -1.34375 0.34375q-0.40625 0.328125 -0.40625 0.8125q0 0.40625 0.296875 0.671875q0.28125 0.265625 1.515625 0.546875q1.234375 0.28125 1.6875 0.484375q0.671875 0.3125 0.984375 0.78125q0.3125 0.46875 0.3125 1.078125q0 0.609375 -0.34375 1.15625q-0.34375 0.53125 -1.0 0.828125q-0.65625 0.296875 -1.46875 0.296875q-1.046875 0 -1.75 -0.296875q-0.6875 -0.296875 -1.09375 -0.90625q-0.390625 -0.609375 -0.40625 -1.375zm7.0763855 0.4375l0.9375 -0.125q0.15625 0.796875 0.546875 1.15625q0.390625 0.34375 0.9375 0.34375q0.65625 0 1.109375 -0.453125q0.46875 -0.46875 0.46875 -1.140625q0 -0.640625 -0.421875 -1.0625q-0.421875 -0.421875 -1.078125 -0.421875q-0.265625 0 -0.65625 0.109375l0.109375 -0.828125q0.09375 0.015625 0.140625 0.015625q0.59375 0 1.078125 -0.3125q0.484375 -0.3125 0.484375 -0.96875q0 -0.515625 -0.359375 -0.84375q-0.34375 -0.34375 -0.890625 -0.34375q-0.546875 0 -0.921875 0.34375q-0.359375 0.34375 -0.453125 1.03125l-0.9375 -0.171875q0.171875 -0.9375 0.78125 -1.453125q0.609375 -0.515625 1.5 -0.515625q0.625 0 1.15625 0.265625q0.53125 0.265625 0.796875 0.734375q0.28125 0.453125 0.28125 0.984375q0 0.484375 -0.265625 0.890625q-0.265625 0.40625 -0.78125 0.65625q0.671875 0.15625 1.046875 0.65625q0.375 0.484375 0.375 1.21875q0 1.0 -0.734375 1.703125q-0.71875 0.6875 -1.828125 0.6875q-1.0 0 -1.671875 -0.59375q-0.65625 -0.609375 -0.75 -1.5625zm7.8298492 2.015625l2.921875 -7.625l1.09375 0l3.125 7.625l-1.15625 0l-0.890625 -2.3125l-3.1875 0l-0.828125 2.3125l-1.078125 0zm2.203125 -3.125l2.578125 0l-0.796875 -2.125q-0.359375 -0.953125 -0.53125 -1.578125q-0.15625 0.734375 -0.421875 1.453125l-0.828125 2.25zm5.7482605 3.125l0 -7.625l2.875 0q0.75 0 1.15625 0.0625q0.5625 0.09375 0.9375 0.359375q0.390625 0.265625 0.609375 0.75q0.234375 0.46875 0.234375 1.03125q0 0.96875 -0.625 1.65625q-0.609375 0.671875 -2.234375 0.671875l-1.953125 0l0 3.09375l-1.0 0zm1.0 -4.0l1.96875 0q0.984375 0 1.390625 -0.359375q0.421875 -0.375 0.421875 -1.03125q0 -0.484375 -0.25 -0.8125q-0.234375 -0.34375 -0.640625 -0.453125q-0.25 -0.078125 -0.9375 -0.078125l-1.953125 0l0 2.734375zm6.2795105 4.0l0 -7.625l1.0 0l0 7.625l-1.0 0zm7.494217 0l0 -6.734375l-2.515625 0l0 -0.890625l6.046875 0l0 0.890625l-2.53125 0l0 6.734375l-1.0 0zm4.035309 0l0 -5.53125l0.84375 0l0 0.84375q0.328125 -0.59375 0.59375 -0.78125q0.28125 -0.1875 0.609375 -0.1875q0.46875 0 0.953125 0.3125l-0.3125 0.859375q-0.34375 -0.203125 -0.6875 -0.203125q-0.3125 0 -0.5625 0.1875q-0.234375 0.1875 -0.34375 0.515625q-0.15625 0.5 -0.15625 1.09375l0 2.890625l-0.9375 0zm7.1736145 -0.6875q-0.53125 0.453125 -1.015625 0.640625q-0.46875 0.171875 -1.015625 0.171875q-0.921875 0 -1.40625 -0.4375q-0.484375 -0.453125 -0.484375 -1.140625q0 -0.40625 0.171875 -0.734375q0.1875 -0.34375 0.484375 -0.546875q0.3125 -0.203125 0.6875 -0.3125q0.265625 -0.0625 0.828125 -0.140625q1.125 -0.125 1.671875 -0.3125q0 -0.203125 0 -0.25q0 -0.578125 -0.265625 -0.8125q-0.359375 -0.3125 -1.0625 -0.3125q-0.65625 0 -0.984375 0.234375q-0.3125 0.234375 -0.453125 0.8125l-0.921875 -0.125q0.125 -0.578125 0.40625 -0.9375q0.296875 -0.375 0.828125 -0.5625q0.546875 -0.203125 1.25 -0.203125q0.71875 0 1.15625 0.171875q0.4375 0.171875 0.640625 0.421875q0.21875 0.25 0.296875 0.640625q0.046875 0.234375 0.046875 0.859375l0 1.25q0 1.296875 0.0625 1.65625q0.0625 0.34375 0.234375 0.65625l-0.96875 0q-0.15625 -0.296875 -0.1875 -0.6875zm-0.078125 -2.078125q-0.515625 0.203125 -1.53125 0.34375q-0.578125 0.078125 -0.828125 0.1875q-0.234375 0.109375 -0.359375 0.3125q-0.125 0.1875 -0.125 0.4375q0 0.375 0.28125 0.625q0.28125 0.25 0.828125 0.25q0.53125 0 0.953125 -0.234375q0.421875 -0.234375 0.625 -0.65625q0.15625 -0.3125 0.15625 -0.9375l0 -0.328125zm2.6139984 2.765625l0 -4.796875l-0.828125 0l0 -0.734375l0.828125 0l0 -0.578125q0 -0.5625 0.109375 -0.828125q0.125 -0.375 0.46875 -0.59375q0.34375 -0.234375 0.953125 -0.234375q0.390625 0 0.875 0.09375l-0.140625 0.828125q-0.296875 -0.0625 -0.546875 -0.0625q-0.421875 0 -0.609375 0.1875q-0.171875 0.1875 -0.171875 0.6875l0 0.5l1.078125 0l0 0.734375l-1.078125 0l0 4.796875l-0.9375 0zm2.7679443 0l0 -4.796875l-0.828125 0l0 -0.734375l0.828125 0l0 -0.578125q0 -0.5625 0.109375 -0.828125q0.125 -0.375 0.46875 -0.59375q0.34375 -0.234375 0.953125 -0.234375q0.390625 0 0.875 0.09375l-0.140625 0.828125q-0.296875 -0.0625 -0.546875 -0.0625q-0.421875 0 -0.609375 0.1875q-0.171875 0.1875 -0.171875 0.6875l0 0.5l1.078125 0l0 0.734375l-1.078125 0l0 4.796875l-0.9375 0zm2.7418976 -6.546875l0 -1.078125l0.9375 0l0 1.078125l-0.9375 0zm0 6.546875l0 -5.53125l0.9375 0l0 5.53125l-0.9375 0zm5.9768524 -2.03125l0.921875 0.125q-0.15625 0.953125 -0.78125 1.5q-0.625 0.53125 -1.53125 0.53125q-1.125 0 -1.8125 -0.734375q-0.6875 -0.75 -0.6875 -2.125q0 -0.90625 0.296875 -1.578125q0.296875 -0.671875 0.890625 -1.0q0.609375 -0.34375 1.328125 -0.34375q0.890625 0 1.46875 0.46875q0.578125 0.453125 0.734375 1.28125l-0.90625 0.140625q-0.140625 -0.546875 -0.46875 -0.828125q-0.328125 -0.28125 -0.796875 -0.28125q-0.703125 0 -1.15625 0.515625q-0.4375 0.5 -0.4375 1.59375q0 1.109375 0.421875 1.625q0.4375 0.5 1.125 0.5q0.546875 0 0.90625 -0.34375q0.375 -0.34375 0.484375 -1.046875z" fill-rule="nonzero"/></g></svg>