<?xml version="1.0" encoding="UTF-8" standalone="no"?>
<svg
   id="a"
   viewBox="0 0 645.33 285.16"
   version="1.1"
   sodipodi:docname="architecture-multi-site-setup.svg"
   inkscape:version="1.2.2 (b0a8486541, 2022-12-01)"
   width="645.33002"
   height="285.16"
   xmlns:inkscape="http://www.inkscape.org/namespaces/inkscape"
   xmlns:sodipodi="http://sodipodi.sourceforge.net/DTD/sodipodi-0.dtd"
   xmlns="http://www.w3.org/2000/svg"
   xmlns:svg="http://www.w3.org/2000/svg">
  <sodipodi:namedview
     id="namedview171"
     pagecolor="#505050"
     bordercolor="#eeeeee"
     borderopacity="1"
     inkscape:showpageshadow="0"
     inkscape:pageopacity="0"
     inkscape:pagecheckerboard="0"
     inkscape:deskcolor="#505050"
     showgrid="false"
     showguides="true"
     inkscape:zoom="3.2234344"
     inkscape:cx="442.23019"
     inkscape:cy="246.47624"
     inkscape:window-width="3840"
     inkscape:window-height="2123"
     inkscape:window-x="3840"
     inkscape:window-y="0"
     inkscape:window-maximized="1"
     inkscape:current-layer="a">
    <sodipodi:guide
       position="0.515821,-128.46834"
       orientation="0,-1"
       id="guide1010"
       inkscape:locked="false" />
  </sodipodi:namedview>
  <defs
     id="defs4">
    <style
       id="style2">.b{stroke:#1b1717;}.b,.c{stroke-dasharray:0 0 2 3;}.b,.c,.d,.e{stroke-miterlimit:10;}.b,.c,.e{fill:none;}.c,.e{stroke:#cf2144;}.f{fill:#f6f6f6;}.g,.h,.i{fill:#fff;}.j{fill:#9fbecc;}.k{fill:#cf2144;}.l{fill:#577f9a;}.m{fill:#4e7489;}.d{fill:#afcddd;stroke:#577f9a;stroke-dasharray:0 0 1.36 1.36;stroke-width:.68px;}.n{letter-spacing:0em;}.o{letter-spacing:0em;}.p{font-family:Inter-Medium, Inter;font-size:8px;font-variation-settings:'wght' 500, 'slnt' 0;font-weight:500;}.e{stroke-dasharray:0 0 2 2;}.q{letter-spacing:-.06em;}.r,.h,.i{font-family:Inter-Bold, Inter;font-variation-settings:'wght' 700, 'slnt' 0;font-weight:700;}.r,.i{font-size:10.56px;}.s{letter-spacing:0em;}.t{letter-spacing:0em;}.h{font-size:14px;}.u{letter-spacing:0em;}</style>
  </defs>
  <rect
     class="k"
     x="13.67"
     y="167"
     width="171.42"
     height="52.93"
     id="rect6" />
  <g
     id="g20">
    <g
       id="g14">
      <rect
         class="g"
         x="60.32"
         y="190.10001"
         width="3.9200001"
         height="10.21"
         id="rect8" />
      <path
         class="g"
         d="m 55.58,190.24 -7.95,4.29 c -0.11,0.06 -0.26,0.06 -0.37,0 l -7.95,-4.29 c -0.17,-0.09 -0.37,-0.14 -0.57,-0.14 v 0 c -0.6,0 -1.09,0.43 -1.09,0.96 v 9.24 c 0,0 3.91,0 3.91,0 v -4.4 c 0,-0.27 0.33,-0.44 0.6,-0.29 l 4.45,2.41 c 0.44,0.24 0.99,0.24 1.43,0.01 l 4.7,-2.43 c 0.26,-0.14 0.59,0.03 0.59,0.3 v 4.41 c 0,0 3.91,0 3.91,0 v -9.24 c 0,-0.53 -0.49,-0.96 -1.09,-0.96 v 0 c -0.2,0 -0.4,0.05 -0.57,0.14 z"
         id="path10" />
      <path
         class="g"
         d="m 83.76,190.1 h -3.97 c 0,0 0,4.65 0,4.65 0,0.26 -0.31,0.43 -0.58,0.31 l -10.29,-4.84 c -0.16,-0.07 -0.33,-0.11 -0.51,-0.11 v 0 c -0.6,0 -1.09,0.43 -1.09,0.96 v 9.24 c 0,0 3.94,0 3.94,0 v -4.64 c 0,-0.26 0.31,-0.43 0.57,-0.31 l 10.33,4.84 c 0.16,0.07 0.33,0.11 0.51,0.11 v 0 c 0.6,0 1.09,-0.43 1.09,-0.96 v -9.24 z"
         id="path12" />
    </g>
    <path
       class="g"
       d="M 86.84,200.31 V 190.1 h 1.8 v 10.21 z"
       id="path16" />
    <path
       class="g"
       d="m 99.25,200.49 c -4.85,0 -8.28,-2.03 -8.28,-5.29 0,-3.24 3.46,-5.29 8.28,-5.29 4.82,0 8.31,2.03 8.31,5.29 0,3.26 -3.4,5.29 -8.31,5.29 z m 0,-9.22 c -3.6,0 -6.38,1.39 -6.38,3.93 0,2.56 2.78,3.93 6.38,3.93 3.6,0 6.4,-1.37 6.4,-3.93 0,-2.56 -2.8,-3.93 -6.4,-3.93 z"
       id="path18" />
  </g>
  <text
     class="h"
     id="text24"
     x="116.36"
     y="200.27"><tspan
       x="116.36"
       y="200.27"
       id="tspan22">SITE A</tspan></text>
  <rect
     class="k"
     x="447.14999"
     y="165.23999"
     width="171.42"
     height="52.93"
     id="rect26" />
  <g
     id="g40"
     transform="translate(3.79,112.53)">
    <g
       id="g34">
      <rect
         class="g"
         x="490.01999"
         y="75.800003"
         width="3.9200001"
         height="10.21"
         id="rect28" />
      <path
         class="g"
         d="m 485.27,75.94 -7.95,4.29 c -0.11,0.06 -0.26,0.06 -0.37,0 L 469,75.94 c -0.17,-0.09 -0.37,-0.14 -0.57,-0.14 v 0 c -0.6,0 -1.09,0.43 -1.09,0.96 V 86 c 0,0 3.91,0 3.91,0 v -4.4 c 0,-0.27 0.33,-0.44 0.6,-0.29 l 4.45,2.41 c 0.44,0.24 0.99,0.24 1.43,0.01 l 4.7,-2.43 c 0.26,-0.14 0.59,0.03 0.59,0.3 v 4.41 c 0,0 3.91,0 3.91,0 v -9.24 c 0,-0.53 -0.49,-0.96 -1.09,-0.96 v 0 c -0.2,0 -0.4,0.05 -0.57,0.14 z"
         id="path30" />
      <path
         class="g"
         d="m 513.46,75.8 h -3.97 c 0,0 0,4.65 0,4.65 0,0.26 -0.31,0.43 -0.58,0.31 l -10.29,-4.84 c -0.16,-0.07 -0.33,-0.11 -0.51,-0.11 v 0 c -0.6,0 -1.09,0.43 -1.09,0.96 v 9.24 c 0,0 3.94,0 3.94,0 v -4.64 c 0,-0.26 0.31,-0.43 0.57,-0.31 l 10.33,4.84 c 0.16,0.07 0.33,0.11 0.51,0.11 v 0 c 0.6,0 1.09,-0.43 1.09,-0.96 v -9.24 z"
         id="path32" />
    </g>
    <path
       class="g"
       d="M 516.53,86.01 V 75.8 h 1.8 v 10.21 z"
       id="path36" />
    <path
       class="g"
       d="m 528.94,86.19 c -4.85,0 -8.28,-2.03 -8.28,-5.29 0,-3.24 3.46,-5.29 8.28,-5.29 4.82,0 8.31,2.03 8.31,5.29 0,3.26 -3.4,5.29 -8.31,5.29 z m 0,-9.22 c -3.6,0 -6.38,1.39 -6.38,3.93 0,2.56 2.78,3.93 6.38,3.93 3.6,0 6.4,-1.37 6.4,-3.93 0,-2.56 -2.8,-3.93 -6.4,-3.93 z"
       id="path38" />
  </g>
  <text
     class="h"
     id="text44"
     x="550.44995"
     y="198.5"><tspan
       x="550.44995"
       y="198.5"
       id="tspan42">SITE B</tspan></text>
  <rect
     class="f"
     x="14.99"
     y="18.85"
     width="156.61"
     height="53.630001"
     id="rect66" />
  <line
     class="c"
     x1="29.24"
     y1="35.610001"
     x2="61.310001"
     y2="35.610001"
     id="line68" />
  <line
     class="b"
     x1="29.24"
     y1="53.59"
     x2="61.310001"
     y2="53.59"
     id="line70" />
  <text
     class="p"
     id="text82"><tspan
       class="n"
       x="78.160004"
       y="38.310001"
       id="tspan72">R</tspan><tspan
       class="t"
       x="83.260002"
       y="38.310001"
       id="tspan74">eplication</tspan><tspan
       class="q"
       x="122.66"
       y="38.310001"
       id="tspan76">T</tspan><tspan
       class="u"
       x="127.41"
       y="38.310001"
       id="tspan78">r</tspan><tspan
       class="s"
       x="130.45"
       y="38.310001"
       id="tspan80">affic</tspan></text>
  <text
     class="p"
     id="text92"><tspan
       class="n"
       x="78.160004"
       y="56.490002"
       id="tspan84">R</tspan><tspan
       class="t"
       x="83.260002"
       y="56.490002"
       id="tspan86">eplica</tspan><tspan
       class="o"
       x="105.98"
       y="56.490002"
       id="tspan88">t</tspan><tspan
       x="108.91"
       y="56.490002"
       id="tspan90">ed Data</tspan></text>
  <polygon
     class="l"
     points="77.63,262.76 77.63,245.89 71.79,238.78 16.73,238.78 16.73,262.76 "
     id="polygon94" />
  <polygon
     class="m"
     points="76.59,244.63 68.51,244.63 68.51,262.76 77.63,262.76 77.63,245.89 "
     id="polygon96" />
  <text
     class="i"
     id="text100"
     x="24.65"
     y="255.09"><tspan
       x="24.65"
       y="255.09"
       id="tspan98">CONFIG</tspan></text>
  <polygon
     class="l"
     points="131.52,270.97 131.52,254.1 125.68,246.99 70.63,246.99 70.63,270.97 "
     id="polygon102" />
  <g
     id="g108">
    <polygon
       class="m"
       points="130.16,252.84 122.08,252.84 122.08,270.98 131.2,270.98 131.2,254.11 "
       id="polygon104" />
    <polygon
       class="l"
       points="185.09,279.19 185.09,262.32 179.25,255.2 124.2,255.2 124.2,279.19 "
       id="polygon106" />
  </g>
  <text
     class="i"
     id="text112"
     x="88.849998"
     y="263.29999"><tspan
       x="88.849998"
       y="263.29999"
       id="tspan110">IAM</tspan></text>
  <text
     class="i"
     id="text116"
     x="130.39"
     y="271.51001"><tspan
       x="130.39"
       y="271.51001"
       id="tspan114">BUCKETS</tspan></text>
  <polygon
     class="d"
     points="503.67,148.99 503.67,132.12 497.83,125 442.77,125 442.77,148.99 "
     id="polygon118"
     transform="translate(3.79,110.53)" />
  <polygon
     class="j"
     points="494.55,130.85 494.55,148.99 503.67,148.99 503.67,132.12 502.63,130.85 "
     id="polygon120"
     transform="translate(3.79,112.53)" />
  <text
     class="r"
     id="text124"
     x="454.48001"
     y="253.85001"><tspan
       x="454.48001"
       y="253.85001"
       id="tspan122">CONFIG</tspan></text>
  <polygon
     class="d"
     points="557.56,140.33 551.72,133.21 496.67,133.21 496.67,157.2 557.56,157.2 "
     id="polygon126"
     transform="translate(3.79,112.53)" />
  <polygon
     class="j"
     points="548.12,139.07 548.12,157.21 557.24,157.21 557.24,140.34 556.2,139.07 "
     id="polygon128"
     transform="translate(3.79,112.53)" />
  <polygon
     class="d"
     points="611.13,148.55 605.29,141.43 550.23,141.43 550.23,165.42 611.13,165.42 "
     id="polygon130"
     transform="translate(3.79,112.53)" />
  <text
     class="r"
     id="text134"
     x="518.67999"
     y="262.06"><tspan
       x="518.67999"
       y="262.06"
       id="tspan132">IAM</tspan></text>
  <text
     class="r"
     id="text138"
     x="560.21997"
     y="270.26999"><tspan
       x="560.21997"
       y="270.26999"
       id="tspan136">BUCKETS</tspan></text>
  <path
     id="polyline162"
     class="e"
     style="fill:none;stroke:#cf2144;stroke-miterlimit:10;stroke-dasharray:0, 0, 2, 2"
     d="m 185.09,193.47 257.68,0.5"
     sodipodi:nodetypes="cc" />
  <polyline
     class="k"
     points="438.98 80.56 438.98 78.37 443.36 80.91 438.98 83.44 438.98 81.55"
     id="polyline166"
     transform="translate(3.79,112.53)" />
</svg>
