<?xml version="1.0" encoding="UTF-8" standalone="no"?>
<svg
   id="a"
   viewBox="0 0 645.33 370.33"
   version="1.1"
   sodipodi:docname="architecture-load-balancer-8-node.svg"
   inkscape:version="1.2.2 (b0a8486541, 2022-12-01)"
   xmlns:inkscape="http://www.inkscape.org/namespaces/inkscape"
   xmlns:sodipodi="http://sodipodi.sourceforge.net/DTD/sodipodi-0.dtd"
   xmlns="http://www.w3.org/2000/svg"
   xmlns:svg="http://www.w3.org/2000/svg">
  <sodipodi:namedview
     id="namedview9113"
     pagecolor="#505050"
     bordercolor="#eeeeee"
     borderopacity="1"
     inkscape:showpageshadow="0"
     inkscape:pageopacity="0"
     inkscape:pagecheckerboard="0"
     inkscape:deskcolor="#505050"
     showgrid="false"
     inkscape:zoom="2.9821158"
     inkscape:cx="184.60048"
     inkscape:cy="207.40308"
     inkscape:window-width="3840"
     inkscape:window-height="2123"
     inkscape:window-x="3840"
     inkscape:window-y="0"
     inkscape:window-maximized="1"
     inkscape:current-layer="a" />
  <defs
     id="defs8900">
    <style
       id="style8898">.b{font-family:RobotoMono-Regular, 'Roboto Mono';font-size:11.39px;font-variation-settings:'wght' 400;}.c{letter-spacing:-.04em;}.d{fill:#f6f6f6;}.e,.f{fill:#fff;}.g{fill:#cf2144;}.h{fill:#1b1717;}.i{fill:#0c1835;}.j{letter-spacing:.02em;}.k{stroke-width:1.47px;}.k,.l,.m,.n{fill:none;stroke-miterlimit:10;}.k,.m{stroke:#1b1717;}.l{stroke-dasharray:0 0 3 3;}.l,.n{stroke:#cf2144;}.o{letter-spacing:-.03em;}.p{font-size:10px;}.p,.f{font-family:Inter-Bold, Inter;font-variation-settings:'wght' 700, 'slnt' 0;font-weight:700;}.f{font-size:14px;}</style>
  </defs>
  <path
     id="polyline8902"
     class="k"
     style="fill:none;stroke:#1b1717;stroke-width:1.47px;stroke-miterlimit:10"
     d="m 321.6,156.22 v 38.77 H 91.94 v 31.12" />
  <path
     id="polyline8904"
     class="h"
     style="fill:#1b1717"
     d="m 92.28,223.86 h 2.19 l -2.54,4.38 -2.52,-4.38 h 1.88" />
  <path
     id="polyline8906"
     class="g"
     style="fill:#cf2144"
     d="m 90.75,304.1 h 2.19 l -2.54,4.38 -2.53,-4.38 h 1.89" />
  <path
     id="polyline8908"
     class="g"
     style="fill:#cf2144"
     d="m 90.06,278.22 h -2.19 l 2.54,-4.38 2.53,4.38 h -1.89" />
  <path
     id="polyline8910"
     class="h"
     style="fill:#1b1717"
     d="m 321.94,121.87 h 2.19 l -2.54,4.38 -2.52,-4.38 h 1.88" />
  <path
     id="line8912"
     class="k"
     style="fill:none;stroke:#1b1717;stroke-width:1.47px;stroke-miterlimit:10"
     d="M 321.60001,70.099998 V 121.87" />
  <g
     id="g8920">
    <path
       d="M240.7,21.34l3.42-1.29,.32-.09-.32-.1-3.42-1.27v-1.01l4.66,2v.77l-4.66,2v-1.01Z"
       id="path8914" />
    <g
       aria-label="minioClient.getObject()"
       transform="translate(246.12 23.67)"
       id="text8918"
       class="b"
       style="font-size:11.39px;font-family:RobotoMono-Regular, 'Roboto Mono';font-variation-settings:'wght' 400">
      <path
         d="m 7.6654702,-6.2189402 q 1.0364901,0 1.5490401,0.53533 0.51255,0.52394 0.51255,1.7085001 V 0 h -0.99093 v -3.9295501 q 0,-1.4465301 -1.2415101,-1.4465301 -0.88842,0 -1.27568,0.5125501 -0.37587,0.51255 -0.37587,1.49209 V 0 H 4.8521401 v -3.9295501 q 0,-1.4465301 -1.2529,-1.4465301 -0.92259,0 -1.27568,0.5695001 -0.35309,0.5695 -0.35309,1.64016 V 0 H 0.96815003 V -6.1050402 H 1.7768401 l 0.14807,0.83147 h 0.05695 q 0.28475,-0.47838 0.76313,-0.70618 0.48977,-0.23919 1.03649,-0.23919 1.4351401,0 1.8679601,1.0251 h 0.05695 q 0.30753,-0.52394 0.83147,-0.77452 0.53533,-0.25058 1.12761,-0.25058 z"
         id="path14618" />
      <path
         d="m 12.130344,-8.3944303 q 0.2278,0 0.39865,0.1594601 0.18224,0.14807 0.18224,0.47838 0,0.31892 -0.18224,0.47838 -0.17085,0.15946 -0.39865,0.15946 -0.25058,0 -0.42143,-0.15946 -0.17085,-0.15946 -0.17085,-0.47838 0,-0.33031 0.17085,-0.47838 0.17085,-0.1594601 0.42143,-0.1594601 z m 0.48977,2.2893901 V 0 h -1.00232 v -6.1050402 z"
         id="path14620" />
      <path
         d="m 17.495027,-6.2189402 q 1.09344,0 1.65155,0.53533 0.55811,0.52394 0.55811,1.7085001 V 0 h -0.99093 v -3.9067701 q 0,-1.4693101 -1.3668,-1.4693101 -1.01371,0 -1.40097,0.5695001 -0.38726,0.5695 -0.38726,1.64016 V 0 h -1.00232 v -6.1050402 h 0.80869 l 0.14807,0.83147 h 0.05695 q 0.29614,-0.47838 0.82008,-0.70618 0.52394,-0.23919 1.10483,-0.23919 z"
         id="path14622" />
      <path
         d="m 22.107977,-8.3944303 q 0.2278,0 0.39865,0.1594601 0.18224,0.14807 0.18224,0.47838 0,0.31892 -0.18224,0.47838 -0.17085,0.15946 -0.39865,0.15946 -0.25058,0 -0.42143,-0.15946 -0.17085,-0.15946 -0.17085,-0.47838 0,-0.33031 0.17085,-0.47838 0.17085,-0.1594601 0.42143,-0.1594601 z m 0.48977,2.2893901 V 0 h -1.00232 v -6.1050402 z"
         id="path14624" />
      <path
         d="m 29.841781,-3.0639101 q 0,1.5148701 -0.77452,2.34634008 Q 28.304131,0.1139 26.994281,0.1139 q -0.80869,0 -1.44653,-0.36448001 -0.62645,-0.37587001 -0.99093,-1.08204999 -0.36448,-0.7175701 -0.36448,-1.7312801 0,-1.51487 0.76313,-2.3349501 0.76313,-0.82008 2.07298,-0.82008 0.83147,0 1.45792,0.37587 0.63784,0.36448 0.99093,1.0706601 0.36448,0.69479 0.36448,1.7085 z m -4.61295,0 q 0,1.08205 0.42143,1.7198901 0.43282,0.62644998 1.3668,0.62644998 0.92259,0 1.35541,-0.62644998 0.43282,-0.6378401 0.43282,-1.7198901 0,-1.08205 -0.43282,-1.69711 -0.43282,-0.6150601 -1.3668,-0.6150601 -0.93398,0 -1.35541,0.6150601 -0.42143,0.61506 -0.42143,1.69711 z"
         id="path14626" />
      <path
         d="m 35.047007,-7.3465502 q -1.30985,0 -2.06159,0.87703 -0.75174,0.87703 -0.75174,2.4032901 0,1.51487 0.69479,2.40329 0.70618,0.87703008 2.10715,0.87703008 0.53533,0 1.01371,-0.09112 0.47838,-0.09112 0.93398,-0.22779997 v 0.88841999 q -0.4556,0.17085001 -0.94537,0.25058001 -0.47838,0.07973 -1.15039,0.07973 -1.24151,0 -2.07298,-0.51255001 -0.83147,-0.51255002 -1.2529,-1.45792009 -0.41004,-0.94537 -0.41004,-2.22105 0,-1.2301201 0.44421,-2.1641001 0.4556,-0.94537 1.33263,-1.46931 0.87703,-0.53533 2.12993,-0.53533 1.28707,0 2.24383,0.47838 l -0.41004,0.86564 q -0.37587,-0.17085 -0.84286,-0.30753 -0.4556,-0.13668 -1.00232,-0.13668 z"
         id="path14628" />
      <path
         d="m 39.625785,0 h -1.00232 v -8.6564003 h 1.00232 z"
         id="path14630" />
      <path
         d="m 42.074629,-8.3944303 q 0.2278,0 0.39865,0.1594601 0.18224,0.14807 0.18224,0.47838 0,0.31892 -0.18224,0.47838 -0.17085,0.15946 -0.39865,0.15946 -0.25058,0 -0.42143,-0.15946 -0.17085,-0.15946 -0.17085,-0.47838 0,-0.33031 0.17085,-0.47838 0.17085,-0.1594601 0.42143,-0.1594601 z m 0.48977,2.2893901 V 0 h -1.00232 v -6.1050402 z"
         id="path14632" />
      <path
         d="m 46.858423,-6.2189402 q 0.78591,0 1.34402,0.3417 0.5695,0.3417 0.86564,0.9681501 0.30753,0.61506 0.30753,1.44653 v 0.60367 h -4.18013 q 0.02278,1.03649 0.52394,1.5832101 0.51255,0.53532998 1.42375,0.53532998 0.58089,0 1.0251,-0.10251001 0.4556,-0.1139 0.93398,-0.31891997 v 0.87702999 Q 48.635263,-0.07973 48.179663,0.01139 q -0.4556,0.10251 -1.08205,0.10251 -0.86564,0 -1.53765,-0.35309001 -0.66062,-0.35309001 -1.03649,-1.04787999 -0.36448,-0.7061801 -0.36448,-1.7198901 0,-1.00232 0.33031,-1.71989 0.3417,-0.7175701 0.94537,-1.1048301 0.61506,-0.38726 1.42375,-0.38726 z m -0.01139,0.82008 q -0.71757,0 -1.139,0.4669901 -0.41004,0.4556 -0.48977,1.27568 h 3.10947 q -0.01139,-0.77452 -0.36448,-1.2529 -0.35309,-0.4897701 -1.11622,-0.4897701 z"
         id="path14634" />
      <path
         d="m 53.863263,-6.2189402 q 1.093441,0 1.651551,0.53533 0.55811,0.52394 0.55811,1.7085001 V 0 h -0.99093 v -3.9067701 q 0,-1.4693101 -1.366801,-1.4693101 -1.01371,0 -1.40097,0.5695001 -0.38726,0.5695 -0.38726,1.64016 V 0 h -1.00232 v -6.1050402 h 0.80869 l 0.14807,0.83147 h 0.05695 q 0.29614,-0.47838 0.82008,-0.70618 0.52394,-0.23919 1.10483,-0.23919 z"
         id="path14636" />
      <path
         d="m 60.002474,-0.70618002 q 0.2278,0 0.46699,-0.03417 0.23919,-0.04556 0.38726,-0.09112 V -0.06834 q -0.15946,0.07973 -0.4556,0.12529 -0.29614,0.05695 -0.5695,0.05695 -0.47838,0 -0.88842,-0.15946 -0.39865,-0.17085001 -0.64923,-0.58089002 -0.25058,-0.41003998 -0.25058,-1.15039008 v -3.5536801 h -0.86564 v -0.47838 l 0.87703,-0.39865 0.39865,-1.29846 h 0.59228 v 1.40097 h 1.76545 v 0.77452 h -1.76545 v 3.5309001 q 0,0.5581101 0.26197,0.83147007 0.27336,0.26197001 0.69479,0.26197001 z"
         id="path14638" />
      <path
         d="m 61.927384,-0.61506002 q 0,-0.42142998 0.20502,-0.59227998 0.20502,-0.17085 0.48977,-0.17085 0.29614,0 0.50116,0.17085 0.21641,0.17085 0.21641,0.59227998 0,0.41004001 -0.21641,0.59228002 -0.20502,0.18224 -0.50116,0.18224 -0.28475,0 -0.48977,-0.18224 -0.20502,-0.18224001 -0.20502,-0.59228002 z"
         id="path14640" />
      <path
         d="m 67.292071,-6.2189402 q 0.60367,0 1.08205,0.2278 0.48977,0.2278 0.83147,0.69479 h 0.05695 l 0.13668,-0.80869 h 0.7973 V 0.10251 q 0,1.30985 -0.67201,1.9704701 -0.66062,0.66062 -2.06159,0.66062 -1.34402,0 -2.19827,-0.38726 V 1.42375 q 0.89981,0.4783801 2.25522,0.4783801 0.78591,0 1.23012,-0.4669901 0.4556,-0.45559997 0.4556,-1.25289999 V -0.05695 q 0,-0.13668001 0.01139,-0.38726001 0.01139,-0.26197001 0.02278,-0.36448001 h -0.04556 Q 68.579141,0.1139 67.303461,0.1139 q -1.18456,0 -1.85657,-0.83147002 -0.66062,-0.83146998 -0.66062,-2.32356008 0,-1.45792 0.66062,-2.3121701 0.67201,-0.86564 1.84518,-0.86564 z m 0.13668,0.84286 q -0.76313,0 -1.18456,0.6150601 -0.42143,0.60367 -0.42143,1.73128 0,1.12761 0.41004,1.7312801 0.42143,0.59227998 1.21873,0.59227998 0.92259,0 1.34402,-0.48976998 0.42143,-0.5011601 0.42143,-1.6059901 v -0.23919 q 0,-1.2529 -0.43282,-1.78823 -0.43282,-0.5467201 -1.35541,-0.5467201 z"
         id="path14642" />
      <path
         d="m 74.490545,-6.2189402 q 0.78591,0 1.34402,0.3417 0.5695,0.3417 0.86564,0.9681501 0.30753,0.61506 0.30753,1.44653 v 0.60367 h -4.18013 q 0.02278,1.03649 0.52394,1.5832101 0.51255,0.53532998 1.42375,0.53532998 0.58089,0 1.0251,-0.10251001 0.4556,-0.1139 0.93398,-0.31891997 v 0.87702999 Q 76.267385,-0.07973 75.811785,0.01139 q -0.4556,0.10251 -1.08205,0.10251 -0.86564,0 -1.53765,-0.35309001 -0.66062,-0.35309001 -1.03649,-1.04787999 -0.36448,-0.7061801 -0.36448,-1.7198901 0,-1.00232 0.33031,-1.71989 0.3417,-0.7175701 0.94537,-1.1048301 0.61506,-0.38726 1.42375,-0.38726 z m -0.01139,0.82008 q -0.71757,0 -1.139,0.4669901 -0.41004,0.4556 -0.48977,1.27568 h 3.10947 q -0.01139,-0.77452 -0.36448,-1.2529 -0.35309,-0.4897701 -1.11622,-0.4897701 z"
         id="path14644" />
      <path
         d="m 80.595576,-0.70618002 q 0.2278,0 0.46699,-0.03417 0.23919,-0.04556 0.38726,-0.09112 V -0.06834 q -0.15946,0.07973 -0.4556,0.12529 -0.29614,0.05695 -0.5695,0.05695 -0.478381,0 -0.888421,-0.15946 -0.39865,-0.17085001 -0.64923,-0.58089002 -0.25058,-0.41003998 -0.25058,-1.15039008 v -3.5536801 h -0.86564 v -0.47838 l 0.87703,-0.39865 0.39865,-1.29846 h 0.59228 v 1.40097 h 1.765451 v 0.77452 h -1.765451 v 3.5309001 q 0,0.5581101 0.26197,0.83147007 0.27336,0.26197001 0.694791,0.26197001 z"
         id="path14646" />
      <path
         d="m 89.901209,-4.0776201 q 0,1.26429 -0.43282,2.20966 -0.42143,0.93398007 -1.2529,1.45792009 Q 87.384019,0.1139 86.153899,0.1139 q -1.26429,0 -2.10715,-0.52394001 -0.83147,-0.52394002 -1.24151,-1.46931009 -0.41004,-0.94537 -0.41004,-2.20966 0,-1.2529001 0.41004,-2.1868801 0.41004,-0.93398 1.24151,-1.45792 0.84286,-0.52394 2.11854,-0.52394 1.21873,0 2.0502,0.52394 0.83147,0.51255 1.2529,1.45792 0.43282,0.93398 0.43282,2.1982701 z m -6.42396,0 q 0,1.53765 0.64923,2.4260701 0.64923,0.87702998 2.02742,0.87702998 1.38958,0 2.02742,-0.87702998 0.63784,-0.8884201 0.63784,-2.4260701 0,-1.5376501 -0.63784,-2.4032901 -0.63784,-0.87703 -2.01603,-0.87703 -1.37819,0 -2.03881,0.87703 -0.64923,0.86564 -0.64923,2.4032901 z"
         id="path14648" />
      <path
         d="m 92.566471,-6.5492502 q 0,0.38726 -0.02278,0.72896 -0.01139,0.33031 -0.03417,0.52394 h 0.05695 q 0.26197,-0.38726 0.71757,-0.64923 0.4556,-0.26197 1.17317,-0.26197 1.139,0 1.8224,0.7973 0.69479,0.7859101 0.69479,2.3577301 0,1.5718201 -0.69479,2.36912008 Q 95.584821,0.1139 94.457211,0.1139 q -0.71757,0 -1.17317,-0.26197 -0.4556,-0.26197001 -0.71757,-0.62645002 h -0.07973 L 92.281721,0 h -0.71757 v -8.6564003 h 1.00232 z m 1.71989,1.17317 q -0.96815,0 -1.34402,0.5581101 -0.37587,0.55811 -0.37587,1.73128 v 0.04556 q 0,1.12761 0.36448,1.7312801 0.37587,0.59227998 1.37819,0.59227998 0.82008,0 1.21873,-0.60366998 0.41004,-0.6036701 0.41004,-1.7426701 0,-2.3121701 -1.65155,-2.3121701 z"
         id="path14650" />
      <path
         d="m 98.489265,-7.7565902 q 0,-0.33031 0.17085,-0.47838 0.17085,-0.1594601 0.42143,-0.1594601 0.2278,0 0.39865,0.1594601 0.18224,0.14807 0.18224,0.47838 0,0.31892 -0.18224,0.47838 -0.17085,0.15946 -0.39865,0.15946 -0.25058,0 -0.42143,-0.15946 -0.17085,-0.15946 -0.17085,-0.47838 z m -0.63784,10.4901903 q -0.28475,0 -0.50116,-0.04556 -0.21641,-0.03417 -0.37587,-0.09112 v -0.80869 q 0.17085,0.04556 0.35309,0.07973 0.18224,0.03417 0.39865,0.03417 0.36448,0 0.60367,-0.20502 0.23919,-0.1936301 0.23919,-0.75174007 V -6.1050402 h 1.00232 v 7.01624023 q 0,0.85425007 -0.41004,1.33263007 -0.41004,0.48977 -1.30985,0.48977 z"
         id="path14652" />
      <path
         d="m 103.86534,-6.2189402 q 0.78591,0 1.34402,0.3417 0.5695,0.3417 0.86564,0.9681501 0.30753,0.61506 0.30753,1.44653 v 0.60367 h -4.18013 q 0.0228,1.03649 0.52394,1.5832101 0.51255,0.53532998 1.42375,0.53532998 0.58089,0 1.0251,-0.10251001 0.4556,-0.1139 0.93398,-0.31891997 v 0.87702999 Q 105.64218,-0.07973 105.18658,0.01139 q -0.4556,0.10251 -1.08205,0.10251 -0.86564,0 -1.53765,-0.35309001 -0.66062,-0.35309001 -1.03649,-1.04787999 -0.36448,-0.7061801 -0.36448,-1.7198901 0,-1.00232 0.33031,-1.71989 0.3417,-0.7175701 0.94537,-1.1048301 0.61506,-0.38726 1.42375,-0.38726 z m -0.0114,0.82008 q -0.71757,0 -1.139,0.4669901 -0.41004,0.4556 -0.48977,1.27568 h 3.10947 q -0.0114,-0.77452 -0.36448,-1.2529 -0.35309,-0.4897701 -1.11622,-0.4897701 z"
         id="path14654" />
      <path
         d="m 110.38041,0.1139 q -0.80869,0 -1.44653,-0.33031001 -0.62645,-0.33031001 -0.99093,-1.02509999 -0.35309,-0.6947901 -0.35309,-1.7768401 0,-1.12761 0.37587,-1.83379 0.37587,-0.7061801 1.01371,-1.0364901 0.64923,-0.33031 1.46931,-0.33031 0.46699,0 0.89981,0.10251 0.43282,0.09112 0.70618,0.2278 l -0.30753,0.83147 q -0.27336,-0.10251 -0.63784,-0.19363 -0.36448,-0.09112 -0.6834,-0.09112 -1.79962,0 -1.79962,2.3121701 0,1.10483 0.43282,1.6971101 0.44421,0.58088998 1.30985,0.58088998 0.50116,0 0.87703,-0.10251001 0.38726,-0.10251 0.70618,-0.25057997 v 0.88841999 Q 111.6447,-0.05695 111.26883,0.02278 110.90435,0.1139 110.38041,0.1139 Z"
         id="path14656" />
      <path
         d="m 115.43757,-0.70618002 q 0.2278,0 0.46699,-0.03417 0.23919,-0.04556 0.38726,-0.09112 V -0.06834 q -0.15946,0.07973 -0.4556,0.12529 -0.29614,0.05695 -0.5695,0.05695 -0.47838,0 -0.88842,-0.15946 -0.39865,-0.17085001 -0.64923,-0.58089002 -0.25058,-0.41003998 -0.25058,-1.15039008 v -3.5536801 h -0.86564 v -0.47838 l 0.87703,-0.39865 0.39865,-1.29846 h 0.59228 v 1.40097 h 1.76545 v 0.77452 h -1.76545 v 3.5309001 q 0,0.5581101 0.26197,0.83147007 0.27336,0.26197001 0.69479,0.26197001 z"
         id="path14658" />
      <path
         d="m 116.998,-3.1208601 q 0,-1.38958 0.39865,-2.6766501 0.41004,-1.29846 1.27568,-2.33495 h 0.94537 q -0.7973,1.07066 -1.20734,2.35773 -0.39865,1.2870701 -0.39865,2.6424801 0,1.32124 0.39865,2.59692008 0.41004,1.26429004 1.19595,2.33495012 h -0.93398 Q 117.80669,0.79730002 117.39665,-0.46699001 116.998,-1.7426701 116.998,-3.1208601 Z"
         id="path14660" />
      <path
         d="m 122.92079,-3.1208601 q 0,1.37819 -0.41004,2.65387009 -0.39865,1.26429003 -1.26429,2.26661011 h -0.93398 q 0.78591,-1.07066008 1.18456,-2.33495012 0.41004,-1.27568008 0.41004,-2.59692008 0,-1.35541 -0.41004,-2.6424801 -0.39865,-1.28707 -1.19595,-2.35773 h 0.94537 q 0.86564,1.03649 1.26429,2.33495 0.41004,1.2870701 0.41004,2.6766501 z"
         id="path14662" />
    </g>
  </g>
  <path
     id="rect8922"
     class="n"
     style="fill:none;stroke:#cf2144;stroke-miterlimit:10"
     d="M 228.67,-0.43000001 H 414.53 V 38.900002 H 228.67 Z" />
  <path
     id="rect8924"
     class="g"
     style="fill:#cf2144"
     d="m 228.67,126.15 h 185.86 v 52.93 H 228.67 Z" />
  <g
     id="g8938">
    <g
       id="g8932">
      <path
         id="rect8926"
         class="e"
         style="fill:#ffffff"
         d="m 308.59,147.71001 h 4.49 v 11.71 h -4.49 z" />
      <path
         class="e"
         d="M303.14,147.87l-9.11,4.92c-.13,.07-.29,.07-.42,0l-9.11-4.92c-.2-.11-.42-.16-.65-.16h-.01c-.69,0-1.25,.49-1.25,1.1v10.59s4.49,0,4.49,0v-5.04c0-.31,.38-.5,.68-.34l5.11,2.76c.5,.27,1.14,.28,1.64,.01l5.39-2.79c.3-.15,.68,.04,.68,.34v5.06s4.49,0,4.49,0v-10.59c0-.61-.56-1.1-1.25-1.1h-.01c-.23,0-.46,.06-.65,.16Z"
         id="path8928" />
      <path
         class="e"
         d="M335.47,147.71h-4.55s0,5.33,0,5.33c0,.3-.36,.49-.66,.35l-11.8-5.55c-.18-.09-.38-.13-.59-.13h0c-.69,0-1.25,.49-1.25,1.1v10.59s4.52,0,4.52,0v-5.32c0-.3,.36-.49,.66-.35l11.85,5.55c.18,.08,.38,.13,.59,.13h0c.69,0,1.25-.49,1.25-1.1v-10.6Z"
         id="path8930" />
    </g>
    <path
       class="e"
       d="M339,159.42v-11.71h2.07v11.71h-2.07Z"
       id="path8934" />
    <path
       class="e"
       d="M353.22,159.63c-5.56,0-9.5-2.33-9.5-6.06,0-3.71,3.97-6.06,9.5-6.06,5.53,0,9.53,2.33,9.53,6.06s-3.9,6.06-9.53,6.06Zm0-10.57c-4.13,0-7.32,1.59-7.32,4.51,0,2.94,3.18,4.51,7.32,4.51,4.13,0,7.34-1.57,7.34-4.51s-3.21-4.51-7.34-4.51Z"
       id="path8936" />
  </g>
  <path
     id="line8940"
     class="k"
     style="fill:none;stroke:#1b1717;stroke-width:1.47px;stroke-miterlimit:10"
     d="M 321.60001,39.099998 V 54.869999" />
  <path
     id="rect8942"
     class="d"
     style="fill:#f6f6f6"
     d="M 0.02,0.41 H 156.63 V 56.490002 H 0.02 Z" />
  <g
     id="g8976">
    <path
       d="M56.63,14.15v5.82h-.88v-5.82h.88Z"
       id="path8944" />
    <path
       d="M58.69,17.38v2.59h-.85v-4.36h.82v.71h.05c.1-.23,.26-.42,.47-.56,.21-.14,.49-.21,.81-.21,.3,0,.56,.06,.78,.19,.22,.12,.4,.31,.52,.55,.12,.24,.18,.55,.18,.91v2.78h-.85v-2.67c0-.32-.08-.56-.25-.74-.17-.18-.39-.27-.68-.27-.2,0-.37,.04-.52,.13-.15,.08-.27,.21-.36,.37-.09,.16-.13,.36-.13,.59Z"
       id="path8946" />
    <path
       d="M64.65,15.6v.68h-2.38v-.68h2.38Zm-1.74-1.05h.85v4.13c0,.16,.02,.29,.07,.37,.05,.08,.11,.14,.19,.17,.08,.03,.16,.04,.26,.04,.07,0,.13,0,.18-.01,.05,0,.09-.02,.12-.02l.15,.7s-.12,.04-.21,.06c-.09,.02-.2,.03-.34,.03-.22,0-.43-.04-.62-.12-.19-.08-.35-.21-.47-.39-.12-.17-.18-.39-.18-.66v-4.3Z"
       id="path8948" />
    <path
       d="M67.43,20.06c-.43,0-.8-.09-1.11-.28s-.55-.44-.72-.78c-.17-.34-.25-.73-.25-1.18s.08-.84,.25-1.18c.17-.34,.4-.61,.7-.8,.3-.19,.66-.29,1.06-.29,.25,0,.48,.04,.72,.12s.44,.21,.62,.38c.18,.17,.33,.4,.43,.68,.11,.28,.16,.61,.16,1.01v.3h-3.47v-.64h2.64c0-.22-.05-.42-.14-.6s-.22-.31-.38-.41c-.16-.1-.36-.15-.58-.15-.24,0-.45,.06-.62,.17-.18,.12-.31,.27-.41,.45-.1,.19-.14,.39-.14,.61v.5c0,.29,.05,.54,.15,.74,.1,.2,.25,.36,.43,.47,.19,.11,.4,.16,.65,.16,.16,0,.31-.02,.44-.07,.13-.05,.25-.12,.34-.21,.1-.09,.17-.21,.22-.34l.8,.15c-.06,.24-.18,.44-.35,.62-.17,.18-.37,.31-.62,.41-.25,.1-.53,.15-.85,.15Z"
       id="path8950" />
    <path
       d="M70.24,19.97v-4.36h.82v.69h.05c.08-.23,.22-.42,.42-.56,.2-.14,.43-.2,.69-.2,.05,0,.12,0,.19,0s.13,0,.17,.01v.81s-.09-.02-.18-.03c-.09-.01-.17-.02-.26-.02-.2,0-.38,.04-.54,.13-.16,.08-.28,.2-.37,.35-.09,.15-.14,.32-.14,.51v2.66h-.85Z"
       id="path8952" />
    <path
       d="M74.17,17.38v2.59h-.85v-4.36h.82v.71h.05c.1-.23,.26-.42,.47-.56,.21-.14,.49-.21,.81-.21,.3,0,.56,.06,.78,.19,.22,.12,.4,.31,.52,.55,.12,.24,.18,.55,.18,.91v2.78h-.85v-2.67c0-.32-.08-.56-.25-.74-.17-.18-.39-.27-.68-.27-.2,0-.37,.04-.52,.13-.15,.08-.27,.21-.36,.37-.09,.16-.13,.36-.13,.59Z"
       id="path8954" />
    <path
       d="M79.93,20.06c-.41,0-.77-.09-1.07-.28-.3-.19-.54-.45-.71-.79-.17-.34-.25-.73-.25-1.18s.08-.85,.25-1.19c.17-.34,.41-.6,.71-.79,.31-.19,.66-.28,1.07-.28s.77,.09,1.07,.28c.31,.19,.54,.45,.71,.79,.17,.34,.25,.73,.25,1.19s-.08,.84-.25,1.18c-.17,.34-.41,.6-.71,.79-.3,.19-.66,.28-1.07,.28Zm0-.71c.27,0,.48-.07,.66-.21,.17-.14,.3-.33,.39-.56,.08-.23,.13-.49,.13-.77s-.04-.53-.13-.77c-.08-.23-.21-.42-.39-.56-.17-.14-.39-.21-.66-.21s-.49,.07-.66,.21-.3,.33-.39,.56-.13,.49-.13,.77,.04,.54,.13,.77,.21,.42,.39,.56c.18,.14,.4,.21,.66,.21Z"
       id="path8956" />
    <path
       d="M84.55,20.05c-.35,0-.67-.09-.94-.27-.28-.18-.49-.44-.65-.78-.16-.34-.23-.74-.23-1.21s.08-.88,.24-1.21c.16-.34,.38-.59,.65-.77,.28-.18,.59-.27,.94-.27,.27,0,.49,.04,.65,.13,.17,.09,.29,.19,.39,.31,.09,.12,.16,.22,.21,.32h.05v-2.16h.85v5.82h-.83v-.68h-.07c-.05,.09-.12,.2-.22,.32s-.23,.22-.39,.31c-.17,.09-.38,.13-.65,.13Zm.19-.72c.24,0,.45-.06,.62-.19,.17-.13,.3-.31,.39-.54,.09-.23,.13-.5,.13-.81s-.04-.57-.13-.8c-.09-.23-.21-.4-.38-.53-.17-.13-.38-.19-.62-.19s-.47,.07-.64,.2c-.17,.13-.3,.31-.39,.54-.09,.23-.13,.49-.13,.78s.04,.55,.13,.79c.09,.23,.22,.42,.39,.55,.17,.14,.38,.2,.63,.2Z"
       id="path8958" />
    <path
       d="M89.8,20.06c-.43,0-.8-.09-1.11-.28s-.55-.44-.72-.78c-.17-.34-.25-.73-.25-1.18s.08-.84,.25-1.18c.17-.34,.4-.61,.7-.8,.3-.19,.66-.29,1.06-.29,.25,0,.48,.04,.72,.12s.44,.21,.62,.38c.18,.17,.33,.4,.43,.68,.11,.28,.16,.61,.16,1.01v.3h-3.47v-.64h2.64c0-.22-.05-.42-.14-.6s-.22-.31-.38-.41c-.16-.1-.36-.15-.58-.15-.24,0-.45,.06-.62,.17-.18,.12-.31,.27-.41,.45-.1,.19-.14,.39-.14,.61v.5c0,.29,.05,.54,.15,.74,.1,.2,.25,.36,.43,.47,.19,.11,.4,.16,.65,.16,.16,0,.31-.02,.44-.07,.13-.05,.25-.12,.34-.21,.1-.09,.17-.21,.22-.34l.8,.15c-.06,.24-.18,.44-.35,.62-.17,.18-.37,.31-.62,.41-.25,.1-.53,.15-.85,.15Z"
       id="path8960" />
    <path
       d="M94.52,14.91v-.76h4.5v.76h-1.82v5.06h-.88v-5.06h-1.81Z"
       id="path8962" />
    <path
       d="M99.49,19.97v-4.36h.82v.69h.05c.08-.23,.22-.42,.42-.56,.2-.14,.43-.2,.69-.2,.05,0,.12,0,.19,0s.13,0,.17,.01v.81s-.09-.02-.18-.03c-.09-.01-.17-.02-.26-.02-.2,0-.38,.04-.54,.13-.16,.08-.28,.2-.37,.35-.09,.15-.14,.32-.14,.51v2.66h-.85Z"
       id="path8964" />
    <path
       d="M103.79,20.06c-.28,0-.53-.05-.75-.15-.22-.1-.4-.25-.53-.45-.13-.2-.19-.44-.19-.72,0-.25,.05-.45,.14-.61s.22-.29,.38-.38,.34-.16,.54-.21c.2-.05,.4-.08,.61-.11,.26-.03,.47-.06,.64-.08,.16-.02,.28-.05,.35-.1,.07-.05,.11-.12,.11-.22v-.02c0-.25-.07-.44-.21-.58s-.35-.2-.62-.2-.51,.06-.67,.19c-.16,.13-.28,.27-.34,.42l-.8-.18c.09-.27,.23-.48,.42-.64,.18-.16,.39-.28,.63-.36s.49-.11,.75-.11c.17,0,.36,.02,.56,.06,.2,.04,.38,.12,.55,.22s.31,.26,.42,.46,.16,.46,.16,.78v2.9h-.83v-.6h-.03c-.06,.11-.14,.22-.25,.32-.11,.11-.25,.19-.42,.26-.17,.07-.38,.1-.62,.1Zm.18-.68c.23,0,.44-.05,.6-.14,.17-.09,.3-.21,.38-.36,.09-.15,.13-.31,.13-.48v-.56s-.09,.06-.17,.08c-.09,.03-.18,.05-.29,.07s-.22,.03-.32,.05c-.1,.01-.19,.03-.26,.04-.16,.02-.31,.06-.45,.1-.14,.05-.24,.12-.32,.21-.08,.09-.12,.21-.12,.36,0,.21,.08,.37,.23,.48s.35,.16,.59,.16Z"
       id="path8966" />
    <path
       d="M109.16,15.6v.68h-2.47v-.68h2.47Zm-1.79,4.36v-4.87c0-.27,.06-.5,.18-.68,.12-.18,.28-.32,.47-.41,.2-.09,.41-.13,.64-.13,.17,0,.32,.01,.44,.04s.21,.05,.27,.08l-.2,.69s-.09-.02-.15-.04-.14-.02-.23-.02c-.21,0-.35,.05-.44,.15-.09,.1-.13,.25-.13,.44v4.76h-.85Z"
       id="path8968" />
    <path
       d="M112.11,15.6v.68h-2.47v-.68h2.47Zm-1.79,4.36v-4.87c0-.27,.06-.5,.18-.68,.12-.18,.28-.32,.47-.41,.2-.09,.41-.13,.64-.13,.17,0,.32,.01,.44,.04s.21,.05,.27,.08l-.2,.69s-.09-.02-.15-.04-.14-.02-.23-.02c-.21,0-.35,.05-.44,.15-.09,.1-.13,.25-.13,.44v4.76h-.85Z"
       id="path8970" />
    <path
       d="M113.41,14.93c-.15,0-.27-.05-.38-.15-.1-.1-.16-.22-.16-.36s.05-.26,.16-.36c.11-.1,.23-.15,.38-.15s.27,.05,.38,.15c.1,.1,.16,.22,.16,.36s-.05,.26-.16,.36c-.11,.1-.23,.15-.38,.15Zm-.43,5.04v-4.36h.85v4.36h-.85Z"
       id="path8972" />
    <path
       d="M116.81,20.06c-.42,0-.79-.1-1.09-.29-.3-.19-.54-.46-.7-.8-.16-.34-.24-.73-.24-1.17s.08-.83,.25-1.17c.17-.34,.4-.61,.7-.8,.3-.19,.66-.29,1.07-.29,.33,0,.63,.06,.89,.18,.26,.12,.47,.29,.63,.51,.16,.22,.26,.48,.29,.77h-.83c-.05-.2-.15-.38-.31-.53-.16-.15-.38-.22-.65-.22-.24,0-.44,.06-.62,.19s-.31,.3-.41,.53c-.1,.23-.15,.5-.15,.81s.05,.59,.15,.82,.23,.41,.41,.54c.18,.13,.39,.19,.63,.19,.16,0,.31-.03,.44-.09,.13-.06,.24-.15,.33-.26,.09-.11,.15-.25,.19-.4h.83c-.03,.28-.12,.53-.28,.76s-.36,.4-.62,.52c-.26,.13-.56,.19-.9,.19Z"
       id="path8974" />
  </g>
  <g
     id="g9002">
    <path
       d="M64.75,35.77c-.03-.27-.16-.48-.38-.63-.22-.15-.5-.22-.83-.22-.24,0-.44,.04-.62,.11-.17,.08-.31,.18-.4,.31-.1,.13-.14,.28-.14,.44,0,.14,.03,.26,.1,.36,.06,.1,.15,.18,.26,.25s.22,.12,.35,.17c.12,.04,.24,.08,.35,.11l.57,.15c.19,.04,.38,.11,.57,.18,.2,.08,.38,.18,.54,.31,.17,.13,.3,.28,.4,.47,.1,.19,.15,.41,.15,.67,0,.33-.08,.62-.25,.88s-.41,.46-.74,.61c-.32,.15-.71,.22-1.16,.22s-.81-.07-1.13-.21c-.32-.14-.57-.33-.75-.59-.18-.25-.28-.56-.3-.91h.88c.02,.21,.09,.38,.21,.52,.12,.14,.27,.24,.46,.31s.4,.1,.62,.1c.25,0,.47-.04,.66-.12,.19-.08,.35-.19,.46-.33,.11-.14,.17-.31,.17-.5,0-.17-.05-.31-.15-.42-.1-.11-.23-.2-.4-.27-.17-.07-.35-.14-.56-.19l-.69-.19c-.47-.13-.83-.31-1.11-.56-.27-.25-.41-.57-.41-.98,0-.33,.09-.63,.27-.88,.18-.25,.43-.44,.74-.58,.31-.14,.66-.21,1.05-.21s.74,.07,1.04,.21c.3,.14,.54,.33,.71,.57s.27,.52,.27,.83h-.85Z"
       id="path8978" />
    <path
       d="M68.67,40.14c-.39,0-.74-.07-1.04-.2-.31-.13-.55-.32-.72-.56-.18-.24-.27-.52-.29-.83h.89c.01,.17,.07,.32,.17,.45,.1,.13,.24,.22,.41,.29,.17,.07,.36,.1,.57,.1,.23,0,.43-.04,.61-.12,.18-.08,.32-.19,.42-.33,.1-.14,.15-.31,.15-.5s-.05-.37-.15-.52c-.1-.15-.24-.27-.43-.35-.19-.08-.42-.13-.69-.13h-.49v-.72h.49c.22,0,.41-.04,.57-.12,.16-.08,.29-.19,.38-.33,.09-.14,.14-.3,.14-.49s-.04-.34-.12-.47-.19-.24-.34-.31c-.15-.08-.32-.11-.52-.11s-.37,.03-.53,.1c-.16,.07-.3,.17-.4,.3-.1,.13-.16,.28-.16,.46h-.85c0-.31,.1-.59,.28-.83,.18-.24,.41-.42,.7-.56,.29-.13,.62-.2,.97-.2s.7,.07,.97,.22c.27,.14,.48,.34,.63,.58,.15,.24,.22,.5,.22,.79,0,.33-.09,.6-.27,.83s-.43,.38-.73,.46v.04c.39,.06,.69,.21,.9,.46,.21,.25,.32,.56,.32,.92,0,.32-.09,.61-.27,.86-.18,.25-.42,.45-.73,.6-.31,.14-.66,.22-1.06,.22Z"
       id="path8980" />
    <path
       d="M74.48,40.06h-.93l2.09-5.82h1.01l2.09,5.82h-.93l-1.65-4.76h-.05l-1.65,4.76Zm.16-2.28h3.02v.74h-3.02v-.74Z"
       id="path8982" />
    <path
       d="M79.59,40.06v-5.82h2.07c.45,0,.83,.08,1.12,.25s.52,.39,.67,.67c.15,.29,.22,.61,.22,.96s-.07,.68-.22,.96c-.15,.29-.37,.51-.67,.68-.3,.17-.67,.25-1.12,.25h-1.43v-.74h1.35c.29,0,.52-.05,.7-.15s.31-.24,.39-.41c.08-.17,.12-.37,.12-.59s-.04-.42-.12-.59c-.08-.17-.21-.3-.39-.4-.18-.1-.41-.14-.71-.14h-1.1v5.07h-.88Z"
       id="path8984" />
    <path
       d="M85.58,34.24v5.82h-.88v-5.82h.88Z"
       id="path8986" />
    <path
       d="M88.69,35v-.76h4.5v.76h-1.82v5.06h-.88v-5.06h-1.81Z"
       id="path8988" />
    <path
       d="M93.67,40.06v-4.36h.82v.69h.05c.08-.23,.22-.42,.42-.56,.2-.13,.43-.2,.69-.2,.05,0,.12,0,.19,0s.13,0,.17,.01v.81s-.09-.02-.18-.03c-.09-.01-.17-.02-.26-.02-.2,0-.38,.04-.54,.13s-.28,.2-.37,.35c-.09,.15-.14,.32-.14,.51v2.67h-.85Z"
       id="path8990" />
    <path
       d="M97.97,40.16c-.28,0-.53-.05-.75-.16s-.4-.25-.53-.45-.19-.44-.19-.72c0-.25,.05-.45,.14-.61s.22-.29,.38-.38,.34-.16,.54-.21c.2-.05,.4-.08,.61-.11,.26-.03,.47-.06,.64-.08,.16-.02,.28-.05,.35-.1,.07-.04,.11-.12,.11-.22v-.02c0-.25-.07-.44-.21-.58-.14-.14-.35-.21-.62-.21s-.51,.06-.67,.19c-.16,.13-.28,.27-.34,.42l-.8-.18c.09-.27,.23-.48,.42-.64,.18-.16,.39-.28,.63-.36,.24-.07,.49-.11,.75-.11,.17,0,.36,.02,.56,.06,.2,.04,.38,.12,.55,.22,.17,.11,.31,.26,.42,.46,.11,.2,.16,.46,.16,.78v2.9h-.83v-.6h-.03c-.06,.11-.14,.22-.25,.32-.11,.11-.25,.19-.42,.26-.17,.07-.38,.11-.62,.11Zm.18-.68c.23,0,.44-.05,.6-.14,.17-.09,.3-.21,.38-.37,.09-.15,.13-.31,.13-.48v-.56s-.09,.06-.17,.08c-.09,.03-.18,.05-.29,.07-.11,.02-.22,.03-.32,.05-.1,.01-.19,.03-.26,.04-.16,.02-.31,.06-.45,.1-.14,.05-.24,.12-.32,.21-.08,.09-.12,.21-.12,.37,0,.21,.08,.37,.23,.48,.16,.11,.35,.16,.59,.16Z"
       id="path8992" />
    <path
       d="M103.33,35.69v.68h-2.47v-.68h2.47Zm-1.79,4.36v-4.87c0-.27,.06-.5,.18-.68,.12-.18,.28-.32,.47-.41,.2-.09,.41-.13,.64-.13,.17,0,.32,.01,.44,.04s.21,.05,.27,.08l-.2,.69s-.09-.03-.15-.04c-.06-.02-.14-.02-.23-.02-.21,0-.35,.05-.44,.15-.09,.1-.13,.25-.13,.44v4.76h-.85Z"
       id="path8994" />
    <path
       d="M106.28,35.69v.68h-2.47v-.68h2.47Zm-1.79,4.36v-4.87c0-.27,.06-.5,.18-.68,.12-.18,.28-.32,.47-.41,.2-.09,.41-.13,.64-.13,.17,0,.32,.01,.44,.04s.21,.05,.27,.08l-.2,.69s-.09-.03-.15-.04c-.06-.02-.14-.02-.23-.02-.21,0-.35,.05-.44,.15-.09,.1-.13,.25-.13,.44v4.76h-.85Z"
       id="path8996" />
    <path
       d="M107.59,35.02c-.15,0-.27-.05-.38-.15-.1-.1-.16-.22-.16-.36s.05-.26,.16-.36c.11-.1,.23-.15,.38-.15s.27,.05,.38,.15c.1,.1,.16,.22,.16,.36s-.05,.26-.16,.36c-.11,.1-.23,.15-.38,.15Zm-.43,5.04v-4.36h.85v4.36h-.85Z"
       id="path8998" />
    <path
       d="M110.99,40.15c-.42,0-.79-.1-1.09-.29-.3-.19-.54-.46-.7-.8-.16-.34-.24-.73-.24-1.17s.08-.83,.25-1.17,.4-.61,.7-.8c.3-.19,.66-.29,1.07-.29,.33,0,.63,.06,.89,.18,.26,.12,.47,.29,.63,.51,.16,.22,.26,.48,.29,.77h-.83c-.05-.2-.15-.38-.31-.53s-.38-.22-.65-.22c-.24,0-.44,.06-.62,.19s-.31,.3-.41,.53c-.1,.23-.15,.5-.15,.81s.05,.59,.15,.82c.1,.23,.23,.41,.41,.54,.18,.13,.39,.19,.63,.19,.16,0,.31-.03,.44-.09,.13-.06,.24-.15,.33-.26s.15-.25,.19-.4h.83c-.03,.28-.12,.53-.28,.76s-.36,.4-.62,.52-.56,.19-.9,.19Z"
       id="path9000" />
  </g>
  <path
     id="line9004"
     class="l"
     style="fill:none;stroke:#cf2144;stroke-miterlimit:10;stroke-dasharray:0, 0, 3, 3"
     d="M 14.26,17.18 H 46.34" />
  <path
     id="line9006"
     class="m"
     style="fill:none;stroke:#1b1717;stroke-miterlimit:10"
     d="M 14.26,37.150002 H 46.34" />
  <path
     id="rect9008"
     class="i"
     style="fill:#0c1835"
     d="M 228.67,54.060001 H 414.53 V 106.99 H 228.67 Z" />
  <g
     aria-label="LOAD BALANCER"
     transform="translate(262.2 85.41)"
     id="text9020"
     class="f"
     style="font-weight:700;font-size:14px;font-family:Inter-Bold, Inter;font-variation-settings:'slnt' 0, 'wght' 700;fill:#ffffff">
    <path
       d="m 1.26,0 v -9.996 h 2.114 v 8.246 h 4.06 V 0 Z"
       style="letter-spacing:-0.03em"
       id="path14585" />
    <path
       d="m 17.882,-5.012 q 0,1.554 -0.518,2.716 -0.504,1.148 -1.554,1.792 -1.05,0.644 -2.688,0.644 -1.624,0 -2.688,-0.644 -1.0499998,-0.644 -1.5679998,-1.806 -0.504,-1.162 -0.504,-2.716 0,-1.554 0.504,-2.702 0.518,-1.148 1.5679998,-1.778 1.064,-0.644 2.702,-0.644 1.624,0 2.674,0.644 1.05,0.63 1.554,1.792 0.518,1.148 0.518,2.702 z m -7.294,0 q 0,1.568 0.602,2.478 0.602,0.896 1.932,0.896 1.358,0 1.946,-0.896 0.588,-0.91 0.588,-2.478 0,-1.582 -0.588,-2.478 -0.588,-0.896 -1.932,-0.896 -1.344,0 -1.946,0.896 -0.602,0.896 -0.602,2.478 z"
       style="letter-spacing:-0.04em"
       id="path14587" />
    <path
       d="M 25.298,0 24.57,-2.38 H 20.93 L 20.202,0 H 17.92 l 3.528,-10.038 h 2.59 L 27.58,0 Z m -1.96,-6.482 q -0.07,-0.238 -0.182,-0.602 -0.112,-0.364 -0.224,-0.742 -0.112,-0.378 -0.182,-0.658 -0.07,0.28 -0.196,0.7 -0.112,0.406 -0.224,0.784 -0.098,0.364 -0.154,0.518 l -0.714,2.324 h 2.604 z"
       id="path14589" />
    <path
       d="m 37.128008,-5.096 q 0,2.534 -1.442,3.822 -1.428,1.274 -4.018,1.274 h -2.828 v -9.996 h 3.136 q 1.568,0 2.716,0.56 1.162,0.56 1.792,1.652 0.644,1.078 0.644,2.688 z m -2.198,0.056 q 0,-1.666 -0.728,-2.436 -0.728,-0.784 -2.114,-0.784 h -1.134 v 6.51 h 0.91 q 3.066,0 3.066,-3.29 z"
       id="path14591" />
    <path
       d="m 45.948008,-9.996 q 2.002,0 3.024,0.56 1.022,0.56 1.022,1.974 0,0.854 -0.406,1.442 -0.392,0.588 -1.134,0.714 v 0.07 q 0.504,0.098 0.91,0.35 0.406,0.252 0.644,0.728 0.238,0.476 0.238,1.26 0,1.358 -0.98,2.128 -0.98,0.77 -2.688,0.77 h -3.738 v -9.996 z m 0.238,3.962 q 0.924,0 1.274,-0.294 0.364,-0.294 0.364,-0.854 0,-0.574 -0.42,-0.826 -0.42,-0.252 -1.33,-0.252 h -1.12 v 2.226 z m -1.232,1.68 v 2.604 h 1.386 q 0.952,0 1.33,-0.364 0.378,-0.378 0.378,-0.994 0,-0.56 -0.392,-0.896 -0.378,-0.35 -1.386,-0.35 z"
       id="path14593" />
    <path
       d="m 58.36602,0 -0.728,-2.38 h -3.64 L 53.27002,0 h -2.282 l 3.528,-10.038 h 2.59 L 60.64802,0 Z m -1.96,-6.482 q -0.07,-0.238 -0.182,-0.602 -0.112,-0.364 -0.224,-0.742 -0.112,-0.378 -0.182,-0.658 -0.07,0.28 -0.196,0.7 -0.112,0.406 -0.224,0.784 -0.098,0.364 -0.154,0.518 l -0.714,2.324 h 2.604 z"
       id="path14595" />
    <path
       d="m 62.800001,0 v -9.996 h 2.114 v 8.246 h 4.06 V 0 Z"
       style="letter-spacing:0.02em"
       id="path14597" />
    <path
       d="m 77.117998,0 -0.728,-2.38 h -3.64 l -0.728,2.38 h -2.282 l 3.528,-10.038 h 2.59 L 79.399998,0 Z m -1.96,-6.482 q -0.07,-0.238 -0.182,-0.602 -0.112,-0.364 -0.224,-0.742 -0.112,-0.378 -0.182,-0.658 -0.07,0.28 -0.196,0.7 -0.112,0.406 -0.224,0.784 -0.098,0.364 -0.154,0.518 l -0.714,2.324 h 2.604 z"
       id="path14599" />
    <path
       d="m 89.522005,0 h -2.688 l -4.354,-7.56 h -0.056 q 0.028,0.714 0.056,1.428 0.042,0.714 0.07,1.428 V 0 h -1.89 v -9.996 h 2.674 l 4.34,7.49 h 0.042 q -0.014,-0.7 -0.042,-1.386 -0.028,-0.686 -0.056,-1.372 v -4.732 h 1.904 z"
       id="path14601" />
    <path
       d="m 96.284001,-8.372 q -1.218,0 -1.862,0.91 -0.644,0.91 -0.644,2.492 0,1.596 0.588,2.478 0.602,0.868 1.918,0.868 0.616,0 1.218,-0.14 0.616,-0.14 1.33,-0.392 v 1.778 q -0.658,0.266 -1.302,0.392 -0.644,0.126 -1.442,0.126 -1.54,0 -2.548,-0.63 -0.994,-0.644 -1.47,-1.792 -0.476,-1.162 -0.476,-2.702 0,-1.512 0.546,-2.674 0.546,-1.162 1.582,-1.82 1.05,-0.658 2.562,-0.658 0.742,0 1.484,0.196 0.756,0.182 1.442,0.504 l -0.686,1.722 q -0.56,-0.266 -1.134,-0.462 -0.56,-0.196 -1.106,-0.196 z"
       id="path14603" />
    <path
       d="m 106.71399,0 h -5.754 v -9.996 h 5.754 v 1.736 h -3.64 v 2.198 h 3.388 v 1.736 h -3.388 v 2.576 h 3.64 z"
       id="path14605" />
    <path
       d="m 111.71198,-9.996 q 2.044,0 3.01,0.742 0.98,0.742 0.98,2.254 0,0.686 -0.266,1.204 -0.252,0.504 -0.686,0.868 -0.42,0.35 -0.91,0.574 l 2.94,4.354 h -2.352 l -2.38,-3.836 h -1.134 V 0 h -2.114 v -9.996 z m -0.154,1.736 h -0.644 v 2.702 h 0.686 q 1.05,0 1.498,-0.35 0.462,-0.35 0.462,-1.036 0,-0.714 -0.49,-1.008 -0.476,-0.308 -1.512,-0.308 z"
       id="path14607" />
  </g>
  <g
     id="g9054">
    <g
       id="g9028">
      <path
         id="rect9022"
         class="n"
         style="fill:none;stroke:#cf2144;stroke-miterlimit:10"
         d="M 38.939999,230.53 H 143.92 v 39.33 H 38.939999 Z" />
      <g
         aria-label="NODE"
         transform="translate(77.15 254)"
         id="text9026"
         class="p"
         style="font-weight:700;font-size:10px;font-family:Inter-Bold, Inter;font-variation-settings:'slnt' 0, 'wght' 700">
        <path
           d="M 7.23,0 H 5.31 L 2.2,-5.4 H 2.16 q 0.02,0.51 0.04,1.02 0.03,0.51 0.05,1.02 V 0 H 0.9 v -7.14 h 1.91 l 3.1,5.35 H 5.94 Q 5.93,-2.29 5.91,-2.78 5.89,-3.27 5.87,-3.76 v -3.38 h 1.36 z"
           id="path14546" />
        <path
           d="m 15.509997,-3.58 q 0,1.11 -0.37,1.94 -0.36,0.82 -1.11,1.28 -0.75,0.46 -1.92,0.46 -1.16,0 -1.92,-0.46 -0.7499997,-0.46 -1.1199997,-1.29 -0.36,-0.83 -0.36,-1.94 0,-1.11 0.36,-1.93 0.37,-0.82 1.1199997,-1.27 0.76,-0.46 1.93,-0.46 1.16,0 1.91,0.46 0.75,0.45 1.11,1.28 0.37,0.82 0.37,1.93 z m -5.21,0 q 0,1.12 0.43,1.77 0.43,0.64 1.38,0.64 0.97,0 1.39,-0.64 0.42,-0.65 0.42,-1.77 0,-1.13 -0.42,-1.77 -0.42,-0.64 -1.38,-0.64 -0.96,0 -1.39,0.64 -0.43,0.64 -0.43,1.77 z"
           id="path14548" />
        <path
           d="m 22.909993,-3.64 q 0,1.81 -1.03,2.73 -1.02,0.91 -2.87,0.91 h -2.02 v -7.14 h 2.24 q 1.12,0 1.94,0.4 0.83,0.4 1.28,1.18 0.46,0.77 0.46,1.92 z m -1.57,0.04 q 0,-1.19 -0.52,-1.74 -0.52,-0.56 -1.51,-0.56 h -0.81 v 4.65 h 0.65 q 2.19,0 2.19,-2.35 z"
           id="path14550" />
        <path
           d="m 28.49999,0 h -4.11 v -7.14 h 4.11 v 1.24 h -2.6 v 1.57 h 2.42 v 1.24 h -2.42 v 1.84 h 2.6 z"
           id="path14552" />
      </g>
    </g>
    <g
       id="g9036">
      <path
         id="rect9030"
         class="n"
         style="fill:none;stroke:#cf2144;stroke-miterlimit:10"
         d="m 193.09,230.53 h 104.98 v 39.33 H 193.09 Z" />
      <g
         aria-label="NODE"
         transform="translate(231.3 254)"
         id="text9034"
         class="p"
         style="font-weight:700;font-size:10px;font-family:Inter-Bold, Inter;font-variation-settings:'slnt' 0, 'wght' 700">
        <path
           d="M 7.23,0 H 5.31 L 2.2,-5.4 H 2.16 q 0.02,0.51 0.04,1.02 0.03,0.51 0.05,1.02 V 0 H 0.9 v -7.14 h 1.91 l 3.1,5.35 H 5.94 Q 5.93,-2.29 5.91,-2.78 5.89,-3.27 5.87,-3.76 v -3.38 h 1.36 z"
           id="path14556" />
        <path
           d="m 15.509997,-3.58 q 0,1.11 -0.37,1.94 -0.36,0.82 -1.11,1.28 -0.75,0.46 -1.92,0.46 -1.16,0 -1.92,-0.46 -0.7499997,-0.46 -1.1199997,-1.29 -0.36,-0.83 -0.36,-1.94 0,-1.11 0.36,-1.93 0.37,-0.82 1.1199997,-1.27 0.76,-0.46 1.93,-0.46 1.16,0 1.91,0.46 0.75,0.45 1.11,1.28 0.37,0.82 0.37,1.93 z m -5.21,0 q 0,1.12 0.43,1.77 0.43,0.64 1.38,0.64 0.97,0 1.39,-0.64 0.42,-0.65 0.42,-1.77 0,-1.13 -0.42,-1.77 -0.42,-0.64 -1.38,-0.64 -0.96,0 -1.39,0.64 -0.43,0.64 -0.43,1.77 z"
           id="path14558" />
        <path
           d="m 22.909993,-3.64 q 0,1.81 -1.03,2.73 -1.02,0.91 -2.87,0.91 h -2.02 v -7.14 h 2.24 q 1.12,0 1.94,0.4 0.83,0.4 1.28,1.18 0.46,0.77 0.46,1.92 z m -1.57,0.04 q 0,-1.19 -0.52,-1.74 -0.52,-0.56 -1.51,-0.56 h -0.81 v 4.65 h 0.65 q 2.19,0 2.19,-2.35 z"
           id="path14560" />
        <path
           d="m 28.49999,0 h -4.11 v -7.14 h 4.11 v 1.24 h -2.6 v 1.57 h 2.42 v 1.24 h -2.42 v 1.84 h 2.6 z"
           id="path14562" />
      </g>
    </g>
    <g
       id="g9044">
      <path
         id="rect9038"
         class="n"
         style="fill:none;stroke:#cf2144;stroke-miterlimit:10"
         d="m 347.25,230.53 h 104.98 v 39.33 H 347.25 Z" />
      <g
         aria-label="NODE"
         transform="translate(385.46 254)"
         id="text9042"
         class="p"
         style="font-weight:700;font-size:10px;font-family:Inter-Bold, Inter;font-variation-settings:'slnt' 0, 'wght' 700">
        <path
           d="M 7.23,0 H 5.31 L 2.2,-5.4 H 2.16 q 0.02,0.51 0.04,1.02 0.03,0.51 0.05,1.02 V 0 H 0.9 v -7.14 h 1.91 l 3.1,5.35 H 5.94 Q 5.93,-2.29 5.91,-2.78 5.89,-3.27 5.87,-3.76 v -3.38 h 1.36 z"
           id="path14566" />
        <path
           d="m 15.509997,-3.58 q 0,1.11 -0.37,1.94 -0.36,0.82 -1.11,1.28 -0.75,0.46 -1.92,0.46 -1.16,0 -1.92,-0.46 -0.7499997,-0.46 -1.1199997,-1.29 -0.36,-0.83 -0.36,-1.94 0,-1.11 0.36,-1.93 0.37,-0.82 1.1199997,-1.27 0.76,-0.46 1.93,-0.46 1.16,0 1.91,0.46 0.75,0.45 1.11,1.28 0.37,0.82 0.37,1.93 z m -5.21,0 q 0,1.12 0.43,1.77 0.43,0.64 1.38,0.64 0.97,0 1.39,-0.64 0.42,-0.65 0.42,-1.77 0,-1.13 -0.42,-1.77 -0.42,-0.64 -1.38,-0.64 -0.96,0 -1.39,0.64 -0.43,0.64 -0.43,1.77 z"
           id="path14568" />
        <path
           d="m 22.909993,-3.64 q 0,1.81 -1.03,2.73 -1.02,0.91 -2.87,0.91 h -2.02 v -7.14 h 2.24 q 1.12,0 1.94,0.4 0.83,0.4 1.28,1.18 0.46,0.77 0.46,1.92 z m -1.57,0.04 q 0,-1.19 -0.52,-1.74 -0.52,-0.56 -1.51,-0.56 h -0.81 v 4.65 h 0.65 q 2.19,0 2.19,-2.35 z"
           id="path14570" />
        <path
           d="m 28.49999,0 h -4.11 v -7.14 h 4.11 v 1.24 h -2.6 v 1.57 h 2.42 v 1.24 h -2.42 v 1.84 h 2.6 z"
           id="path14572" />
      </g>
    </g>
    <g
       id="g9052">
      <path
         id="rect9046"
         class="n"
         style="fill:none;stroke:#cf2144;stroke-miterlimit:10"
         d="M 501.39999,230.53 H 606.38 v 39.33 H 501.39999 Z" />
      <g
         aria-label="NODE"
         transform="translate(539.61 254)"
         id="text9050"
         class="p"
         style="font-weight:700;font-size:10px;font-family:Inter-Bold, Inter;font-variation-settings:'slnt' 0, 'wght' 700">
        <path
           d="M 7.23,0 H 5.31 L 2.2,-5.4 H 2.16 q 0.02,0.51 0.04,1.02 0.03,0.51 0.05,1.02 V 0 H 0.9 v -7.14 h 1.91 l 3.1,5.35 H 5.94 Q 5.93,-2.29 5.91,-2.78 5.89,-3.27 5.87,-3.76 v -3.38 h 1.36 z"
           id="path14576" />
        <path
           d="m 15.509997,-3.58 q 0,1.11 -0.37,1.94 -0.36,0.82 -1.11,1.28 -0.75,0.46 -1.92,0.46 -1.16,0 -1.92,-0.46 -0.7499997,-0.46 -1.1199997,-1.29 -0.36,-0.83 -0.36,-1.94 0,-1.11 0.36,-1.93 0.37,-0.82 1.1199997,-1.27 0.76,-0.46 1.93,-0.46 1.16,0 1.91,0.46 0.75,0.45 1.11,1.28 0.37,0.82 0.37,1.93 z m -5.21,0 q 0,1.12 0.43,1.77 0.43,0.64 1.38,0.64 0.97,0 1.39,-0.64 0.42,-0.65 0.42,-1.77 0,-1.13 -0.42,-1.77 -0.42,-0.64 -1.38,-0.64 -0.96,0 -1.39,0.64 -0.43,0.64 -0.43,1.77 z"
           id="path14578" />
        <path
           d="m 22.909993,-3.64 q 0,1.81 -1.03,2.73 -1.02,0.91 -2.87,0.91 h -2.02 v -7.14 h 2.24 q 1.12,0 1.94,0.4 0.83,0.4 1.28,1.18 0.46,0.77 0.46,1.92 z m -1.57,0.04 q 0,-1.19 -0.52,-1.74 -0.52,-0.56 -1.51,-0.56 h -0.81 v 4.65 h 0.65 q 2.19,0 2.19,-2.35 z"
           id="path14580" />
        <path
           d="m 28.49999,0 h -4.11 v -7.14 h 4.11 v 1.24 h -2.6 v 1.57 h 2.42 v 1.24 h -2.42 v 1.84 h 2.6 z"
           id="path14582" />
      </g>
    </g>
  </g>
  <g
     id="g9088">
    <g
       id="g9062">
      <path
         id="rect9056"
         class="n"
         style="fill:none;stroke:#cf2144;stroke-miterlimit:10"
         d="M 38.939999,312.94 H 143.92 v 39.33 H 38.939999 Z" />
      <g
         aria-label="NODE"
         transform="translate(77.15 336.41)"
         id="text9060"
         class="p"
         style="font-weight:700;font-size:10px;font-family:Inter-Bold, Inter;font-variation-settings:'slnt' 0, 'wght' 700">
        <path
           d="M 7.23,0 H 5.31 L 2.2,-5.4 H 2.16 q 0.02,0.51 0.04,1.02 0.03,0.51 0.05,1.02 V 0 H 0.9 v -7.14 h 1.91 l 3.1,5.35 H 5.94 Q 5.93,-2.29 5.91,-2.78 5.89,-3.27 5.87,-3.76 v -3.38 h 1.36 z"
           id="path14506" />
        <path
           d="m 15.509997,-3.58 q 0,1.11 -0.37,1.94 -0.36,0.82 -1.11,1.28 -0.75,0.46 -1.92,0.46 -1.16,0 -1.92,-0.46 -0.7499997,-0.46 -1.1199997,-1.29 -0.36,-0.83 -0.36,-1.94 0,-1.11 0.36,-1.93 0.37,-0.82 1.1199997,-1.27 0.76,-0.46 1.93,-0.46 1.16,0 1.91,0.46 0.75,0.45 1.11,1.28 0.37,0.82 0.37,1.93 z m -5.21,0 q 0,1.12 0.43,1.77 0.43,0.64 1.38,0.64 0.97,0 1.39,-0.64 0.42,-0.65 0.42,-1.77 0,-1.13 -0.42,-1.77 -0.42,-0.64 -1.38,-0.64 -0.96,0 -1.39,0.64 -0.43,0.64 -0.43,1.77 z"
           id="path14508" />
        <path
           d="m 22.909993,-3.64 q 0,1.81 -1.03,2.73 -1.02,0.91 -2.87,0.91 h -2.02 v -7.14 h 2.24 q 1.12,0 1.94,0.4 0.83,0.4 1.28,1.18 0.46,0.77 0.46,1.92 z m -1.57,0.04 q 0,-1.19 -0.52,-1.74 -0.52,-0.56 -1.51,-0.56 h -0.81 v 4.65 h 0.65 q 2.19,0 2.19,-2.35 z"
           id="path14510" />
        <path
           d="m 28.49999,0 h -4.11 v -7.14 h 4.11 v 1.24 h -2.6 v 1.57 h 2.42 v 1.24 h -2.42 v 1.84 h 2.6 z"
           id="path14512" />
      </g>
    </g>
    <g
       id="g9070">
      <path
         id="rect9064"
         class="n"
         style="fill:none;stroke:#cf2144;stroke-miterlimit:10"
         d="m 193.09,312.94 h 104.98 v 39.33 H 193.09 Z" />
      <g
         aria-label="NODE"
         transform="translate(231.3 336.41)"
         id="text9068"
         class="p"
         style="font-weight:700;font-size:10px;font-family:Inter-Bold, Inter;font-variation-settings:'slnt' 0, 'wght' 700">
        <path
           d="M 7.23,0 H 5.31 L 2.2,-5.4 H 2.16 q 0.02,0.51 0.04,1.02 0.03,0.51 0.05,1.02 V 0 H 0.9 v -7.14 h 1.91 l 3.1,5.35 H 5.94 Q 5.93,-2.29 5.91,-2.78 5.89,-3.27 5.87,-3.76 v -3.38 h 1.36 z"
           id="path14516" />
        <path
           d="m 15.509997,-3.58 q 0,1.11 -0.37,1.94 -0.36,0.82 -1.11,1.28 -0.75,0.46 -1.92,0.46 -1.16,0 -1.92,-0.46 -0.7499997,-0.46 -1.1199997,-1.29 -0.36,-0.83 -0.36,-1.94 0,-1.11 0.36,-1.93 0.37,-0.82 1.1199997,-1.27 0.76,-0.46 1.93,-0.46 1.16,0 1.91,0.46 0.75,0.45 1.11,1.28 0.37,0.82 0.37,1.93 z m -5.21,0 q 0,1.12 0.43,1.77 0.43,0.64 1.38,0.64 0.97,0 1.39,-0.64 0.42,-0.65 0.42,-1.77 0,-1.13 -0.42,-1.77 -0.42,-0.64 -1.38,-0.64 -0.96,0 -1.39,0.64 -0.43,0.64 -0.43,1.77 z"
           id="path14518" />
        <path
           d="m 22.909993,-3.64 q 0,1.81 -1.03,2.73 -1.02,0.91 -2.87,0.91 h -2.02 v -7.14 h 2.24 q 1.12,0 1.94,0.4 0.83,0.4 1.28,1.18 0.46,0.77 0.46,1.92 z m -1.57,0.04 q 0,-1.19 -0.52,-1.74 -0.52,-0.56 -1.51,-0.56 h -0.81 v 4.65 h 0.65 q 2.19,0 2.19,-2.35 z"
           id="path14520" />
        <path
           d="m 28.49999,0 h -4.11 v -7.14 h 4.11 v 1.24 h -2.6 v 1.57 h 2.42 v 1.24 h -2.42 v 1.84 h 2.6 z"
           id="path14522" />
      </g>
    </g>
    <g
       id="g9078">
      <path
         id="rect9072"
         class="n"
         style="fill:none;stroke:#cf2144;stroke-miterlimit:10"
         d="m 347.25,312.94 h 104.98 v 39.33 H 347.25 Z" />
      <g
         aria-label="NODE"
         transform="translate(385.46 336.41)"
         id="text9076"
         class="p"
         style="font-weight:700;font-size:10px;font-family:Inter-Bold, Inter;font-variation-settings:'slnt' 0, 'wght' 700">
        <path
           d="M 7.23,0 H 5.31 L 2.2,-5.4 H 2.16 q 0.02,0.51 0.04,1.02 0.03,0.51 0.05,1.02 V 0 H 0.9 v -7.14 h 1.91 l 3.1,5.35 H 5.94 Q 5.93,-2.29 5.91,-2.78 5.89,-3.27 5.87,-3.76 v -3.38 h 1.36 z"
           id="path14526" />
        <path
           d="m 15.509997,-3.58 q 0,1.11 -0.37,1.94 -0.36,0.82 -1.11,1.28 -0.75,0.46 -1.92,0.46 -1.16,0 -1.92,-0.46 -0.7499997,-0.46 -1.1199997,-1.29 -0.36,-0.83 -0.36,-1.94 0,-1.11 0.36,-1.93 0.37,-0.82 1.1199997,-1.27 0.76,-0.46 1.93,-0.46 1.16,0 1.91,0.46 0.75,0.45 1.11,1.28 0.37,0.82 0.37,1.93 z m -5.21,0 q 0,1.12 0.43,1.77 0.43,0.64 1.38,0.64 0.97,0 1.39,-0.64 0.42,-0.65 0.42,-1.77 0,-1.13 -0.42,-1.77 -0.42,-0.64 -1.38,-0.64 -0.96,0 -1.39,0.64 -0.43,0.64 -0.43,1.77 z"
           id="path14528" />
        <path
           d="m 22.909993,-3.64 q 0,1.81 -1.03,2.73 -1.02,0.91 -2.87,0.91 h -2.02 v -7.14 h 2.24 q 1.12,0 1.94,0.4 0.83,0.4 1.28,1.18 0.46,0.77 0.46,1.92 z m -1.57,0.04 q 0,-1.19 -0.52,-1.74 -0.52,-0.56 -1.51,-0.56 h -0.81 v 4.65 h 0.65 q 2.19,0 2.19,-2.35 z"
           id="path14530" />
        <path
           d="m 28.49999,0 h -4.11 v -7.14 h 4.11 v 1.24 h -2.6 v 1.57 h 2.42 v 1.24 h -2.42 v 1.84 h 2.6 z"
           id="path14532" />
      </g>
    </g>
    <g
       id="g9086">
      <path
         id="rect9080"
         class="n"
         style="fill:none;stroke:#cf2144;stroke-miterlimit:10"
         d="M 501.39999,312.94 H 606.38 v 39.33 H 501.39999 Z" />
      <g
         aria-label="NODE"
         transform="translate(539.61 336.41)"
         id="text9084"
         class="p"
         style="font-weight:700;font-size:10px;font-family:Inter-Bold, Inter;font-variation-settings:'slnt' 0, 'wght' 700">
        <path
           d="M 7.23,0 H 5.31 L 2.2,-5.4 H 2.16 q 0.02,0.51 0.04,1.02 0.03,0.51 0.05,1.02 V 0 H 0.9 v -7.14 h 1.91 l 3.1,5.35 H 5.94 Q 5.93,-2.29 5.91,-2.78 5.89,-3.27 5.87,-3.76 v -3.38 h 1.36 z"
           id="path14536" />
        <path
           d="m 15.509997,-3.58 q 0,1.11 -0.37,1.94 -0.36,0.82 -1.11,1.28 -0.75,0.46 -1.92,0.46 -1.16,0 -1.92,-0.46 -0.7499997,-0.46 -1.1199997,-1.29 -0.36,-0.83 -0.36,-1.94 0,-1.11 0.36,-1.93 0.37,-0.82 1.1199997,-1.27 0.76,-0.46 1.93,-0.46 1.16,0 1.91,0.46 0.75,0.45 1.11,1.28 0.37,0.82 0.37,1.93 z m -5.21,0 q 0,1.12 0.43,1.77 0.43,0.64 1.38,0.64 0.97,0 1.39,-0.64 0.42,-0.65 0.42,-1.77 0,-1.13 -0.42,-1.77 -0.42,-0.64 -1.38,-0.64 -0.96,0 -1.39,0.64 -0.43,0.64 -0.43,1.77 z"
           id="path14538" />
        <path
           d="m 22.909993,-3.64 q 0,1.81 -1.03,2.73 -1.02,0.91 -2.87,0.91 h -2.02 v -7.14 h 2.24 q 1.12,0 1.94,0.4 0.83,0.4 1.28,1.18 0.46,0.77 0.46,1.92 z m -1.57,0.04 q 0,-1.19 -0.52,-1.74 -0.52,-0.56 -1.51,-0.56 h -0.81 v 4.65 h 0.65 q 2.19,0 2.19,-2.35 z"
           id="path14540" />
        <path
           d="m 28.49999,0 h -4.11 v -7.14 h 4.11 v 1.24 h -2.6 v 1.57 h 2.42 v 1.24 h -2.42 v 1.84 h 2.6 z"
           id="path14542" />
      </g>
    </g>
  </g>
  <path
     id="line9090"
     class="l"
     style="fill:none;stroke:#cf2144;stroke-miterlimit:10;stroke-dasharray:0, 0, 3, 3"
     d="M 91.940002,291.85001 H 553.90002" />
  <path
     id="line9092"
     class="l"
     style="fill:none;stroke:#cf2144;stroke-miterlimit:10;stroke-dasharray:0, 0, 3, 3"
     d="m 90.410004,278.03 v 27.5" />
  <path
     id="polyline9094"
     class="g"
     style="fill:#cf2144"
     d="m 245.93,304.1 h 2.19 l -2.53,4.38 -2.53,-4.38 h 1.88" />
  <path
     id="polyline9096"
     class="g"
     style="fill:#cf2144"
     d="m 245.24,278.22 h -2.18 l 2.53,-4.38 2.53,4.38 h -1.89" />
  <path
     id="line9098"
     class="l"
     style="fill:none;stroke:#cf2144;stroke-miterlimit:10;stroke-dasharray:0, 0, 3, 3"
     d="m 245.59,278.03 v 27.5" />
  <path
     id="polyline9100"
     class="g"
     style="fill:#cf2144"
     d="m 400.09,304.1 h 2.18 l -2.53,4.38 -2.53,-4.38 h 1.89" />
  <path
     id="polyline9102"
     class="g"
     style="fill:#cf2144"
     d="m 399.39,278.22 h -2.18 l 2.53,-4.38 2.53,4.38 h -1.89" />
  <path
     id="line9104"
     class="l"
     style="fill:none;stroke:#cf2144;stroke-miterlimit:10;stroke-dasharray:0, 0, 3, 3"
     d="m 399.73999,278.03 v 27.5" />
  <path
     id="polyline9106"
     class="g"
     style="fill:#cf2144"
     d="m 551.71,304.1 h 2.19 l -2.53,4.38 -2.53,-4.38 h 1.88" />
  <path
     id="polyline9108"
     class="g"
     style="fill:#cf2144"
     d="m 551.02,278.22 h -2.18 l 2.53,-4.38 2.53,4.38 h -1.89" />
  <path
     id="line9110"
     class="l"
     style="fill:none;stroke:#cf2144;stroke-miterlimit:10;stroke-dasharray:0, 0, 3, 3"
     d="m 551.37,278.03 v 27.5" />
</svg>
