<?xml version="1.0" encoding="UTF-8" standalone="no"?>
<svg
   id="a"
   viewBox="0 0 645.33 370.33"
   version="1.1"
   sodipodi:docname="architecture-one-node-DAS.svg"
   inkscape:version="1.2.2 (b0a8486541, 2022-12-01)"
   xmlns:inkscape="http://www.inkscape.org/namespaces/inkscape"
   xmlns:sodipodi="http://sodipodi.sourceforge.net/DTD/sodipodi-0.dtd"
   xmlns="http://www.w3.org/2000/svg"
   xmlns:svg="http://www.w3.org/2000/svg">
  <sodipodi:namedview
     id="namedview7621"
     pagecolor="#505050"
     bordercolor="#eeeeee"
     borderopacity="1"
     inkscape:showpageshadow="0"
     inkscape:pageopacity="0"
     inkscape:pagecheckerboard="0"
     inkscape:deskcolor="#505050"
     showgrid="false"
     inkscape:zoom="1.9690529"
     inkscape:cx="415.68208"
     inkscape:cy="291.76464"
     inkscape:window-width="3840"
     inkscape:window-height="2123"
     inkscape:window-x="3840"
     inkscape:window-y="0"
     inkscape:window-maximized="1"
     inkscape:current-layer="a" />
  <defs
     id="defs7512">
    <style
       id="style7510">.b{font-size:14px;}.b,.c,.d{font-family:Inter-Medium, Inter;font-variation-settings:'wght' 500, 'slnt' 0;font-weight:500;}.e{stroke-width:3px;}.e,.f{fill:none;stroke:#1b1717;}.e,.f,.g{stroke-miterlimit:10;}.h{letter-spacing:-.03em;}.i{fill:#6c9cb7;}.j{fill:#577f9a;}.c{fill:#fff;font-size:18.69px;}.f{stroke-width:2px;}.g{fill:#efefef;stroke:#cf2144;stroke-width:.83px;}.d{font-size:16px;}.k{letter-spacing:-.03em;}</style>
  </defs>
  <path
     id="rect7514"
     class="g"
     style="fill:#efefef;stroke:#cf2144;stroke-width:0.83px;stroke-miterlimit:10"
     d="m 2.24,194.11 h 76.239998 v 34.23 H 2.24 Z" />
  <g
     aria-label="SSD"
     transform="translate(27.05 217.04)"
     id="text7518"
     class="b"
     style="font-weight:500;font-size:14px;font-family:Inter-Medium, Inter;font-variation-settings:'slnt' 0, 'wght' 500">
    <path
       d="m 7.07,-2.702 q 0,1.33 -0.966,2.086 Q 5.138,0.14 3.458,0.14 2.646,0.14 1.918,0 1.204,-0.126 0.7,-0.378 v -1.428 q 0.56,0.252 1.316,0.462 0.756,0.196 1.54,0.196 1.008,0 1.512,-0.392 0.504,-0.392 0.504,-1.05 0,-0.462 -0.238,-0.77 Q 5.11,-3.682 4.62,-3.948 4.13,-4.214 3.332,-4.536 2.59,-4.816 2.016,-5.194 1.456,-5.572 1.134,-6.132 0.812,-6.692 0.812,-7.504 q 0,-1.232 0.896,-1.932 0.896,-0.7 2.352,-0.7 0.812,0 1.498,0.168 0.7,0.154 1.33,0.434 L 6.412,-8.288 Q 5.838,-8.526 5.236,-8.68 4.648,-8.834 4.018,-8.834 q -0.826,0 -1.26,0.364 -0.434,0.364 -0.434,0.952 0,0.462 0.21,0.784 0.21,0.308 0.672,0.56 0.462,0.252 1.218,0.56 0.84,0.336 1.428,0.714 0.602,0.364 0.91,0.896 0.308,0.518 0.308,1.302 z"
       id="path17363" />
    <path
       d="m 14.769989,-2.702 q 0,1.33 -0.966,2.086 -0.966,0.756 -2.646,0.756 -0.812,0 -1.5399997,-0.14 -0.714,-0.126 -1.218,-0.378 v -1.428 q 0.56,0.252 1.316,0.462 0.7559997,0.196 1.5399997,0.196 1.008,0 1.512,-0.392 0.504,-0.392 0.504,-1.05 0,-0.462 -0.238,-0.77 -0.224,-0.322 -0.714,-0.588 -0.49,-0.266 -1.288,-0.588 -0.742,-0.28 -1.3159997,-0.658 -0.56,-0.378 -0.882,-0.938 -0.322,-0.56 -0.322,-1.372 0,-1.232 0.896,-1.932 0.8959997,-0.7 2.3519997,-0.7 0.812,0 1.498,0.168 0.7,0.154 1.33,0.434 l -0.476,1.246 q -0.574,-0.238 -1.176,-0.392 -0.588,-0.154 -1.218,-0.154 -0.826,0 -1.26,0.364 -0.434,0.364 -0.434,0.952 0,0.462 0.21,0.784 0.21,0.308 0.672,0.56 0.462,0.252 1.218,0.56 0.84,0.336 1.428,0.714 0.602,0.364 0.91,0.896 0.308,0.518 0.308,1.302 z"
       id="path17365" />
    <path
       d="m 24.821979,-5.096 q 0,2.534 -1.4,3.822 -1.386,1.274 -3.892,1.274 h -2.8 v -9.996 h 3.094 q 1.526,0 2.646,0.56 1.12,0.56 1.736,1.652 0.616,1.078 0.616,2.688 z m -1.582,0.042 q 0,-1.89 -0.924,-2.772 -0.91,-0.896 -2.59,-0.896 h -1.484 v 7.448 h 1.218 q 3.78,0 3.78,-3.78 z"
       id="path17367" />
  </g>
  <path
     id="rect7520"
     class="g"
     style="fill:#efefef;stroke:#cf2144;stroke-width:0.83px;stroke-miterlimit:10"
     d="m 2.24,253.61 h 76.239998 v 34.23 H 2.24 Z" />
  <g
     aria-label="SSD"
     transform="translate(27.05 276.54)"
     id="text7524"
     class="b"
     style="font-weight:500;font-size:14px;font-family:Inter-Medium, Inter;font-variation-settings:'slnt' 0, 'wght' 500">
    <path
       d="m 7.07,-2.702 q 0,1.33 -0.966,2.086 Q 5.138,0.14 3.458,0.14 2.646,0.14 1.918,0 1.204,-0.126 0.7,-0.378 v -1.428 q 0.56,0.252 1.316,0.462 0.756,0.196 1.54,0.196 1.008,0 1.512,-0.392 0.504,-0.392 0.504,-1.05 0,-0.462 -0.238,-0.77 Q 5.11,-3.682 4.62,-3.948 4.13,-4.214 3.332,-4.536 2.59,-4.816 2.016,-5.194 1.456,-5.572 1.134,-6.132 0.812,-6.692 0.812,-7.504 q 0,-1.232 0.896,-1.932 0.896,-0.7 2.352,-0.7 0.812,0 1.498,0.168 0.7,0.154 1.33,0.434 L 6.412,-8.288 Q 5.838,-8.526 5.236,-8.68 4.648,-8.834 4.018,-8.834 q -0.826,0 -1.26,0.364 -0.434,0.364 -0.434,0.952 0,0.462 0.21,0.784 0.21,0.308 0.672,0.56 0.462,0.252 1.218,0.56 0.84,0.336 1.428,0.714 0.602,0.364 0.91,0.896 0.308,0.518 0.308,1.302 z"
       id="path17355" />
    <path
       d="m 14.769989,-2.702 q 0,1.33 -0.966,2.086 -0.966,0.756 -2.646,0.756 -0.812,0 -1.5399997,-0.14 -0.714,-0.126 -1.218,-0.378 v -1.428 q 0.56,0.252 1.316,0.462 0.7559997,0.196 1.5399997,0.196 1.008,0 1.512,-0.392 0.504,-0.392 0.504,-1.05 0,-0.462 -0.238,-0.77 -0.224,-0.322 -0.714,-0.588 -0.49,-0.266 -1.288,-0.588 -0.742,-0.28 -1.3159997,-0.658 -0.56,-0.378 -0.882,-0.938 -0.322,-0.56 -0.322,-1.372 0,-1.232 0.896,-1.932 0.8959997,-0.7 2.3519997,-0.7 0.812,0 1.498,0.168 0.7,0.154 1.33,0.434 l -0.476,1.246 q -0.574,-0.238 -1.176,-0.392 -0.588,-0.154 -1.218,-0.154 -0.826,0 -1.26,0.364 -0.434,0.364 -0.434,0.952 0,0.462 0.21,0.784 0.21,0.308 0.672,0.56 0.462,0.252 1.218,0.56 0.84,0.336 1.428,0.714 0.602,0.364 0.91,0.896 0.308,0.518 0.308,1.302 z"
       id="path17357" />
    <path
       d="m 24.821979,-5.096 q 0,2.534 -1.4,3.822 -1.386,1.274 -3.892,1.274 h -2.8 v -9.996 h 3.094 q 1.526,0 2.646,0.56 1.12,0.56 1.736,1.652 0.616,1.078 0.616,2.688 z m -1.582,0.042 q 0,-1.89 -0.924,-2.772 -0.91,-0.896 -2.59,-0.896 h -1.484 v 7.448 h 1.218 q 3.78,0 3.78,-3.78 z"
       id="path17359" />
  </g>
  <path
     id="polyline7526"
     class="e"
     style="fill:none;stroke:#1b1717;stroke-width:3px;stroke-miterlimit:10"
     d="M 125.32,118.95 V 89.41 h 397.69 v 27.5" />
  <path
     id="line7528"
     class="e"
     style="fill:none;stroke:#1b1717;stroke-width:3px;stroke-miterlimit:10"
     d="M 325.66,52.57 V 89.559998" />
  <path
     id="rect7530"
     class="j"
     style="fill:#577f9a"
     d="m 197.60001,-0.79000002 h 250.13 V 52.14 h -250.13 z" />
  <g
     aria-label="PCI-E-BUS"
     transform="translate(273.99 32.45)"
     id="text7534"
     class="c"
     style="font-weight:500;font-size:18.69px;font-family:Inter-Medium, Inter;font-variation-settings:'slnt' 0, 'wght' 500;fill:#ffffff">
    <path
       d="m 5.5135502,-13.34466 q 2.6166,0 3.8127601,1.06533 1.1961597,1.04664 1.1961597,2.9343297 0,1.1214001 -0.50463,2.0932801 -0.4859397,0.97188 -1.6447198,1.58865 -1.15878,0.5980801 -3.1399201,0.5980801 h -1.43913 V 0 h -2.01852 v -13.34466 z m -0.14952,1.70079 H 3.7940701 v 4.8780898 h 1.21485 q 1.7007901,0 2.5605301,-0.57939 0.87843,-0.57939 0.87843,-1.9250701 0,-1.1961597 -0.7476,-1.7755497 -0.7476,-0.59808 -2.33625,-0.59808 z"
       id="path17333" />
    <path
       d="m 18.914272,-11.79339 q -1.99983,0 -3.12123,1.38306 -1.1214,1.3643697 -1.1214,3.7566898 0,2.3736301 1.04664,3.7380001 1.04664,1.3643701 3.1773,1.3643701 0.85974,0 1.64472,-0.14952 0.80367,-0.1682101 1.62603,-0.4298701 v 1.73817009 Q 21.381352,-0.09345 20.558992,0.03738 q -0.80367,0.14952001 -1.90638,0.14952001 -2.0559,0 -3.40158,-0.84105003 -1.34568,-0.85973998 -2.01852,-2.39232008 -0.67284,-1.55127 -0.67284,-3.6258601 0,-2.01852 0.72891,-3.5697898 0.7476,-1.55127 2.16804,-2.41101 1.42044,-0.87843 3.47634,-0.87843 1.00926,0 1.96245,0.22428 0.97188,0.20559 1.77555,0.59808 l -0.7476,1.6821 q -0.65415,-0.29904 -1.42044,-0.52332 -0.7476,-0.24297 -1.58865,-0.24297 z"
       id="path17335" />
    <path
       d="m 29.156382,0 h -5.17713 v -1.15878 l 1.58865,-0.46725 v -10.07391 l -1.58865,-0.48594 v -1.15878 h 5.17713 v 1.15878 l -1.56996,0.48594 v 10.07391 l 1.56996,0.46725 z"
       id="path17337" />
    <path
       d="m 30.576822,-4.1678701 v -1.6821001 h 4.63512 v 1.6821001 z"
       id="path17339" />
    <path
       d="m 45.192411,0 h -7.51338 v -13.34466 h 7.51338 v 1.71948 h -5.49486 v 3.8127598 h 5.15844 v 1.70079 h -5.15844 V -1.73817 h 5.49486 z"
       id="path17341" />
    <path
       d="m 47.005327,-4.1678701 v -1.6821001 h 4.63512 v 1.6821001 z"
       id="path17343" />
    <path
       d="m 58.013746,-13.34466 q 2.54184,0 3.85014,0.7476 1.32699,0.7476 1.32699,2.57922 0,1.1774697 -0.63546,1.9624498 -0.61677,0.76629 -1.77555,0.97188 v 0.09345 q 0.78498,0.13083 1.42044,0.48594 0.65415,0.35511 1.02795,1.00926 0.3738,0.6354601 0.3738,1.6821001 0,1.81293 -1.27092,2.82219007 Q 61.060216,0 58.892176,0 h -4.78464 v -13.34466 z m 0.33642,5.5696198 q 1.56996,0 2.14935,-0.50463 0.59808,-0.5046301 0.59808,-1.4952001 0,-0.9905697 -0.71022,-1.4204397 -0.71022,-0.44856 -2.26149,-0.44856 h -1.99983 v 3.8688298 z m -2.22411,1.64472 V -1.6821 h 2.44839 q 1.60734,0 2.2428,-0.6354601 0.65415,-0.63546 0.65415,-1.6821 0,-0.95319 -0.67284,-1.5325801 -0.65415,-0.59808 -2.35494,-0.59808 z"
       id="path17345" />
    <path
       d="m 76.722439,-4.7098801 q 0,1.38306 -0.57939,2.50446 -0.57939,1.1027101 -1.75686,1.75686009 -1.15878,0.63546002 -2.95302,0.63546002 -2.54184,0 -3.86883,-1.34568001 -1.3083,-1.3643701 -1.3083,-3.5884801 V -13.34466 h 2.01852 v 8.5039499 q 0,3.3081301 3.25206,3.3081301 1.6821,0 2.4297,-0.8971201 0.76629,-0.89712 0.76629,-2.4297 V -13.34466 h 1.99983 z"
       id="path17347" />
    <path
       d="m 87.824315,-3.6071701 q 0,1.77555 -1.289611,2.78481008 -1.28961,1.00926003 -3.53241,1.00926003 -1.08402,0 -2.0559,-0.18690001 -0.95319,-0.16821 -1.62603,-0.50463001 V -2.4110101 q 0.7476,0.33642 1.75686,0.61677 1.00926,0.2616601 2.0559,0.2616601 1.34568,0 2.01852,-0.5233201 0.67284,-0.52332 0.67284,-1.40175 0,-0.61677 -0.31773,-1.02795 -0.29904,-0.42987 -0.95319,-0.7849801 -0.65415,-0.35511 -1.71948,-0.78498 -0.99057,-0.3738 -1.75686,-0.87843 -0.7476,-0.50463 -1.17747,-1.25223 -0.42987,-0.7476001 -0.42987,-1.8316198 0,-1.64472 1.19616,-2.57922 1.19616,-0.9345 3.13992,-0.9345 1.08402,0 1.99983,0.22428 0.9345,0.20559 1.775551,0.57939 l -0.63546,1.66341 q -0.766291,-0.31773 -1.569961,-0.52332 -0.78498,-0.20559 -1.62603,-0.20559 -1.10271,0 -1.6821,0.48594 -0.57939,0.48594 -0.57939,1.27092 0,0.6167697 0.28035,1.0466397 0.28035,0.4111801 0.89712,0.7476001 0.61677,0.33642 1.62603,0.7476 1.1214,0.44856 1.90638,0.95319 0.803671,0.48594 1.214851,1.19616 0.41118,0.6915301 0.41118,1.7381701 z"
       id="path17349" />
  </g>
  <path
     id="rect7536"
     class="i"
     style="fill:#6c9cb7"
     d="M 1.5700001,116.91 H 251.7 v 52.93 H 1.5700001 Z" />
  <g
     aria-label="STORAGE CONTROLLER"
     transform="translate(33.43 149.73)"
     id="text7548"
     class="d"
     style="font-weight:500;font-size:16px;font-family:Inter-Medium, Inter;font-variation-settings:'slnt' 0, 'wght' 500">
    <path
       d="m 8.08,-3.088 q 0,1.52 -1.104,2.384 Q 5.872,0.16 3.952,0.16 3.024,0.16 2.192,0 1.376,-0.144 0.8,-0.432 v -1.632 q 0.64,0.288 1.504,0.528 0.864,0.224 1.76,0.224 1.152,0 1.728,-0.448 0.576,-0.448 0.576,-1.2 0,-0.528 -0.272,-0.88 Q 5.84,-4.208 5.28,-4.512 4.72,-4.816 3.808,-5.184 2.96,-5.504 2.304,-5.936 1.664,-6.368 1.296,-7.008 0.928,-7.648 0.928,-8.576 q 0,-1.408 1.024,-2.208 1.024,-0.8 2.688,-0.8 0.928,0 1.712,0.192 0.8,0.176 1.52,0.496 L 7.328,-9.472 Q 6.672,-9.744 5.984,-9.92 q -0.672,-0.176 -1.392,-0.176 -0.944,0 -1.44,0.416 -0.496,0.416 -0.496,1.088 0,0.528 0.24,0.896 0.24,0.352 0.768,0.64 0.528,0.288 1.392,0.64 0.96,0.384 1.632,0.816 0.688,0.416 1.04,1.024 0.352,0.592 0.352,1.488 z"
       id="path17297" />
    <path
       d="m 15.66,0 h -1.728 v -9.936 h -3.424 v -1.488 h 8.576 v 1.488 H 15.66 Z"
       style="letter-spacing:-0.03em"
       id="path17299" />
    <path
       d="m 31.819999,-5.728 q 0,1.776 -0.592,3.104 -0.592,1.312 -1.776,2.048 -1.184,0.736 -2.944,0.736 -1.808,0 -2.992,-0.736 -1.184,-0.736 -1.76,-2.064 -0.576,-1.328 -0.576,-3.104 0,-1.76 0.576,-3.072 0.592,-1.312 1.776,-2.048 1.184,-0.736 2.992,-0.736 1.76,0 2.928,0.736 1.184,0.72 1.776,2.048 0.592,1.312 0.592,3.088 z m -8.816,0 q 0,2.048 0.848,3.232 0.848,1.184 2.656,1.184 1.824,0 2.656,-1.184 0.832,-1.184 0.832,-3.232 0,-2.048 -0.832,-3.216 -0.816,-1.168 -2.64,-1.168 -1.824,0 -2.672,1.168 -0.848,1.168 -0.848,3.216 z"
       id="path17301" />
    <path
       d="m 37.499997,-11.424 q 2.192,0 3.232,0.816 1.056,0.816 1.056,2.48 0,0.88 -0.336,1.488 -0.32,0.592 -0.832,0.976 -0.512,0.368 -1.072,0.592 l 3.2,5.072 h -1.984 l -2.752,-4.624 h -1.984 V 0 h -1.728 v -11.424 z m -0.112,1.472 h -1.36 v 3.888 h 1.44 q 1.328,0 1.936,-0.496 0.608,-0.512 0.608,-1.504 0,-1.024 -0.64,-1.456 -0.64,-0.432 -1.984,-0.432 z"
       id="path17303" />
    <path
       d="m 51.470002,0 -1.216,-3.296 h -4.416 L 44.622002,0 h -1.792 l 4.336,-11.472 h 1.792 l 4.32,11.472 z m -2.848,-8.016 q -0.048,-0.176 -0.176,-0.528 -0.112,-0.352 -0.224,-0.736 -0.112,-0.384 -0.176,-0.624 -0.128,0.496 -0.288,1.056 -0.16,0.56 -0.256,0.832 l -1.152,3.216 h 3.424 z"
       style="letter-spacing:-0.03em"
       id="path17305" />
    <path
       d="m 59.768,-6.144 h 4.128 v 5.696 Q 62.984,-0.144 62.024,0 q -0.944,0.16 -2.16,0.16 -2.624,0 -4.032,-1.552 -1.392,-1.568 -1.392,-4.32 0,-1.792 0.688,-3.104 0.704,-1.328 2.032,-2.048 1.328,-0.72 3.216,-0.72 0.944,0 1.808,0.192 0.864,0.176 1.6,0.496 l -0.624,1.44 q -0.592,-0.256 -1.328,-0.448 -0.72,-0.192 -1.52,-0.192 -1.904,0 -2.992,1.184 -1.088,1.184 -1.088,3.216 0,1.296 0.4,2.288 0.4,0.976 1.264,1.536 0.864,0.56 2.256,0.56 0.688,0 1.152,-0.064 0.48,-0.08 0.88,-0.176 v -3.104 h -2.416 z"
       id="path17307" />
    <path
       d="m 73.063988,0 h -6.432 v -11.424 h 6.432 v 1.472 h -4.704 v 3.264 h 4.416 v 1.456 h -4.416 v 3.744 h 4.704 z"
       id="path17309" />
    <path
       d="m 84.583979,-10.096 q -1.712,0 -2.672,1.184 -0.96,1.168 -0.96,3.216 0,2.032 0.896,3.2 0.896,1.168 2.72,1.168 0.736,0 1.408,-0.128 0.688,-0.144 1.392,-0.368 v 1.488 q -0.672,0.256 -1.376,0.368 -0.688,0.128 -1.632,0.128 -1.76,0 -2.912,-0.72 -1.152,-0.736 -1.728,-2.048 -0.576,-1.328 -0.576,-3.104 0,-1.728 0.624,-3.056 0.64,-1.328 1.856,-2.064 1.216,-0.752 2.976,-0.752 0.864,0 1.68,0.192 0.832,0.176 1.52,0.512 l -0.64,1.44 q -0.56,-0.256 -1.216,-0.448 -0.64,-0.208 -1.36,-0.208 z"
       id="path17311" />
    <path
       d="m 99.591962,-5.728 q 0,1.776 -0.592,3.104 -0.592,1.312 -1.776,2.048 -1.184,0.736 -2.944,0.736 -1.808,0 -2.992,-0.736 -1.184,-0.736 -1.76,-2.064 -0.576,-1.328 -0.576,-3.104 0,-1.76 0.576,-3.072 0.592,-1.312 1.776,-2.048 1.184,-0.736 2.992,-0.736 1.76,0 2.928,0.736 1.184,0.72 1.776,2.048 0.592,1.312 0.592,3.088 z m -8.816,0 q 0,2.048 0.848,3.232 0.848,1.184 2.656,1.184 1.824,0 2.656,-1.184 0.832,-1.184 0.832,-3.232 0,-2.048 -0.832,-3.216 -0.816,-1.168 -2.64,-1.168 -1.824,0 -2.672,1.168 -0.848,1.168 -0.848,3.216 z"
       id="path17313" />
    <path
       d="m 111.44796,0 h -2.096 l -5.776,-9.232 h -0.064 q 0.032,0.64 0.08,1.472 0.048,0.816 0.048,1.68 V 0 h -1.568 v -11.424 h 2.08 l 5.76,9.184 h 0.048 q -0.016,-0.336 -0.048,-0.848 -0.016,-0.512 -0.032,-1.088 -0.016,-0.592 -0.032,-1.104 v -6.144 h 1.6 z"
       id="path17315" />
    <path
       d="m 118.32798,0 h -1.728 v -9.936 h -3.424 v -1.488 h 8.576 v 1.488 h -3.424 z"
       id="path17317" />
    <path
       d="m 126.69597,-11.424 q 2.192,0 3.232,0.816 1.056,0.816 1.056,2.48 0,0.88 -0.336,1.488 -0.32,0.592 -0.832,0.976 -0.512,0.368 -1.072,0.592 l 3.2,5.072 h -1.984 l -2.752,-4.624 h -1.984 V 0 h -1.728 v -11.424 z m -0.112,1.472 h -1.36 v 3.888 h 1.44 q 1.328,0 1.936,-0.496 0.608,-0.512 0.608,-1.504 0,-1.024 -0.64,-1.456 -0.64,-0.432 -1.984,-0.432 z"
       id="path17319" />
    <path
       d="m 143.70396,-5.728 q 0,1.776 -0.592,3.104 -0.592,1.312 -1.776,2.048 -1.184,0.736 -2.944,0.736 -1.808,0 -2.992,-0.736 -1.184,-0.736 -1.76,-2.064 -0.576,-1.328 -0.576,-3.104 0,-1.76 0.576,-3.072 0.592,-1.312 1.776,-2.048 1.184,-0.736 2.992,-0.736 1.76,0 2.928,0.736 1.184,0.72 1.776,2.048 0.592,1.312 0.592,3.088 z m -8.816,0 q 0,2.048 0.848,3.232 0.848,1.184 2.656,1.184 1.824,0 2.656,-1.184 0.832,-1.184 0.832,-3.232 0,-2.048 -0.832,-3.216 -0.816,-1.168 -2.64,-1.168 -1.824,0 -2.672,1.168 -0.848,1.168 -0.848,3.216 z"
       id="path17321" />
    <path
       d="m 146.18396,0 v -11.424 h 1.728 v 9.936 h 4.88 V 0 Z"
       id="path17323" />
    <path
       d="m 154.75995,0 v -11.424 h 1.728 v 9.936 h 4.88 V 0 Z"
       id="path17325" />
    <path
       d="m 169.76794,0 h -6.432 v -11.424 h 6.432 v 1.472 h -4.704 v 3.264 h 4.416 v 1.456 h -4.416 v 3.744 h 4.704 z"
       id="path17327" />
    <path
       d="m 175.44792,-11.424 q 2.192,0 3.232,0.816 1.056,0.816 1.056,2.48 0,0.88 -0.336,1.488 -0.32,0.592 -0.832,0.976 -0.512,0.368 -1.072,0.592 l 3.2,5.072 h -1.984 l -2.752,-4.624 h -1.984 V 0 h -1.728 v -11.424 z m -0.112,1.472 h -1.36 v 3.888 h 1.44 q 1.328,0 1.936,-0.496 0.608,-0.512 0.608,-1.504 0,-1.024 -0.64,-1.456 -0.64,-0.432 -1.984,-0.432 z"
       id="path17329" />
  </g>
  <path
     id="rect7550"
     class="i"
     style="fill:#6c9cb7"
     d="M 395.48999,116.91 H 645.62 v 52.93 H 395.48999 Z" />
  <g
     aria-label="STORAGE CONTROLLER"
     transform="translate(427.36 149.73)"
     id="text7562"
     class="d"
     style="font-weight:500;font-size:16px;font-family:Inter-Medium, Inter;font-variation-settings:'slnt' 0, 'wght' 500">
    <path
       d="m 8.08,-3.088 q 0,1.52 -1.104,2.384 Q 5.872,0.16 3.952,0.16 3.024,0.16 2.192,0 1.376,-0.144 0.8,-0.432 v -1.632 q 0.64,0.288 1.504,0.528 0.864,0.224 1.76,0.224 1.152,0 1.728,-0.448 0.576,-0.448 0.576,-1.2 0,-0.528 -0.272,-0.88 Q 5.84,-4.208 5.28,-4.512 4.72,-4.816 3.808,-5.184 2.96,-5.504 2.304,-5.936 1.664,-6.368 1.296,-7.008 0.928,-7.648 0.928,-8.576 q 0,-1.408 1.024,-2.208 1.024,-0.8 2.688,-0.8 0.928,0 1.712,0.192 0.8,0.176 1.52,0.496 L 7.328,-9.472 Q 6.672,-9.744 5.984,-9.92 q -0.672,-0.176 -1.392,-0.176 -0.944,0 -1.44,0.416 -0.496,0.416 -0.496,1.088 0,0.528 0.24,0.896 0.24,0.352 0.768,0.64 0.528,0.288 1.392,0.64 0.96,0.384 1.632,0.816 0.688,0.416 1.04,1.024 0.352,0.592 0.352,1.488 z"
       id="path17261" />
    <path
       d="m 15.66,0 h -1.728 v -9.936 h -3.424 v -1.488 h 8.576 v 1.488 H 15.66 Z"
       style="letter-spacing:-0.03em"
       id="path17263" />
    <path
       d="m 31.819999,-5.728 q 0,1.776 -0.592,3.104 -0.592,1.312 -1.776,2.048 -1.184,0.736 -2.944,0.736 -1.808,0 -2.992,-0.736 -1.184,-0.736 -1.76,-2.064 -0.576,-1.328 -0.576,-3.104 0,-1.76 0.576,-3.072 0.592,-1.312 1.776,-2.048 1.184,-0.736 2.992,-0.736 1.76,0 2.928,0.736 1.184,0.72 1.776,2.048 0.592,1.312 0.592,3.088 z m -8.816,0 q 0,2.048 0.848,3.232 0.848,1.184 2.656,1.184 1.824,0 2.656,-1.184 0.832,-1.184 0.832,-3.232 0,-2.048 -0.832,-3.216 -0.816,-1.168 -2.64,-1.168 -1.824,0 -2.672,1.168 -0.848,1.168 -0.848,3.216 z"
       id="path17265" />
    <path
       d="m 37.499997,-11.424 q 2.192,0 3.232,0.816 1.056,0.816 1.056,2.48 0,0.88 -0.336,1.488 -0.32,0.592 -0.832,0.976 -0.512,0.368 -1.072,0.592 l 3.2,5.072 h -1.984 l -2.752,-4.624 h -1.984 V 0 h -1.728 v -11.424 z m -0.112,1.472 h -1.36 v 3.888 h 1.44 q 1.328,0 1.936,-0.496 0.608,-0.512 0.608,-1.504 0,-1.024 -0.64,-1.456 -0.64,-0.432 -1.984,-0.432 z"
       id="path17267" />
    <path
       d="m 51.470002,0 -1.216,-3.296 h -4.416 L 44.622002,0 h -1.792 l 4.336,-11.472 h 1.792 l 4.32,11.472 z m -2.848,-8.016 q -0.048,-0.176 -0.176,-0.528 -0.112,-0.352 -0.224,-0.736 -0.112,-0.384 -0.176,-0.624 -0.128,0.496 -0.288,1.056 -0.16,0.56 -0.256,0.832 l -1.152,3.216 h 3.424 z"
       style="letter-spacing:-0.03em"
       id="path17269" />
    <path
       d="m 59.768,-6.144 h 4.128 v 5.696 Q 62.984,-0.144 62.024,0 q -0.944,0.16 -2.16,0.16 -2.624,0 -4.032,-1.552 -1.392,-1.568 -1.392,-4.32 0,-1.792 0.688,-3.104 0.704,-1.328 2.032,-2.048 1.328,-0.72 3.216,-0.72 0.944,0 1.808,0.192 0.864,0.176 1.6,0.496 l -0.624,1.44 q -0.592,-0.256 -1.328,-0.448 -0.72,-0.192 -1.52,-0.192 -1.904,0 -2.992,1.184 -1.088,1.184 -1.088,3.216 0,1.296 0.4,2.288 0.4,0.976 1.264,1.536 0.864,0.56 2.256,0.56 0.688,0 1.152,-0.064 0.48,-0.08 0.88,-0.176 v -3.104 h -2.416 z"
       id="path17271" />
    <path
       d="m 73.063988,0 h -6.432 v -11.424 h 6.432 v 1.472 h -4.704 v 3.264 h 4.416 v 1.456 h -4.416 v 3.744 h 4.704 z"
       id="path17273" />
    <path
       d="m 84.583979,-10.096 q -1.712,0 -2.672,1.184 -0.96,1.168 -0.96,3.216 0,2.032 0.896,3.2 0.896,1.168 2.72,1.168 0.736,0 1.408,-0.128 0.688,-0.144 1.392,-0.368 v 1.488 q -0.672,0.256 -1.376,0.368 -0.688,0.128 -1.632,0.128 -1.76,0 -2.912,-0.72 -1.152,-0.736 -1.728,-2.048 -0.576,-1.328 -0.576,-3.104 0,-1.728 0.624,-3.056 0.64,-1.328 1.856,-2.064 1.216,-0.752 2.976,-0.752 0.864,0 1.68,0.192 0.832,0.176 1.52,0.512 l -0.64,1.44 q -0.56,-0.256 -1.216,-0.448 -0.64,-0.208 -1.36,-0.208 z"
       id="path17275" />
    <path
       d="m 99.591962,-5.728 q 0,1.776 -0.592,3.104 -0.592,1.312 -1.776,2.048 -1.184,0.736 -2.944,0.736 -1.808,0 -2.992,-0.736 -1.184,-0.736 -1.76,-2.064 -0.576,-1.328 -0.576,-3.104 0,-1.76 0.576,-3.072 0.592,-1.312 1.776,-2.048 1.184,-0.736 2.992,-0.736 1.76,0 2.928,0.736 1.184,0.72 1.776,2.048 0.592,1.312 0.592,3.088 z m -8.816,0 q 0,2.048 0.848,3.232 0.848,1.184 2.656,1.184 1.824,0 2.656,-1.184 0.832,-1.184 0.832,-3.232 0,-2.048 -0.832,-3.216 -0.816,-1.168 -2.64,-1.168 -1.824,0 -2.672,1.168 -0.848,1.168 -0.848,3.216 z"
       id="path17277" />
    <path
       d="m 111.44796,0 h -2.096 l -5.776,-9.232 h -0.064 q 0.032,0.64 0.08,1.472 0.048,0.816 0.048,1.68 V 0 h -1.568 v -11.424 h 2.08 l 5.76,9.184 h 0.048 q -0.016,-0.336 -0.048,-0.848 -0.016,-0.512 -0.032,-1.088 -0.016,-0.592 -0.032,-1.104 v -6.144 h 1.6 z"
       id="path17279" />
    <path
       d="m 118.32798,0 h -1.728 v -9.936 h -3.424 v -1.488 h 8.576 v 1.488 h -3.424 z"
       id="path17281" />
    <path
       d="m 126.69597,-11.424 q 2.192,0 3.232,0.816 1.056,0.816 1.056,2.48 0,0.88 -0.336,1.488 -0.32,0.592 -0.832,0.976 -0.512,0.368 -1.072,0.592 l 3.2,5.072 h -1.984 l -2.752,-4.624 h -1.984 V 0 h -1.728 v -11.424 z m -0.112,1.472 h -1.36 v 3.888 h 1.44 q 1.328,0 1.936,-0.496 0.608,-0.512 0.608,-1.504 0,-1.024 -0.64,-1.456 -0.64,-0.432 -1.984,-0.432 z"
       id="path17283" />
    <path
       d="m 143.70396,-5.728 q 0,1.776 -0.592,3.104 -0.592,1.312 -1.776,2.048 -1.184,0.736 -2.944,0.736 -1.808,0 -2.992,-0.736 -1.184,-0.736 -1.76,-2.064 -0.576,-1.328 -0.576,-3.104 0,-1.76 0.576,-3.072 0.592,-1.312 1.776,-2.048 1.184,-0.736 2.992,-0.736 1.76,0 2.928,0.736 1.184,0.72 1.776,2.048 0.592,1.312 0.592,3.088 z m -8.816,0 q 0,2.048 0.848,3.232 0.848,1.184 2.656,1.184 1.824,0 2.656,-1.184 0.832,-1.184 0.832,-3.232 0,-2.048 -0.832,-3.216 -0.816,-1.168 -2.64,-1.168 -1.824,0 -2.672,1.168 -0.848,1.168 -0.848,3.216 z"
       id="path17285" />
    <path
       d="m 146.18396,0 v -11.424 h 1.728 v 9.936 h 4.88 V 0 Z"
       id="path17287" />
    <path
       d="m 154.75995,0 v -11.424 h 1.728 v 9.936 h 4.88 V 0 Z"
       id="path17289" />
    <path
       d="m 169.76794,0 h -6.432 v -11.424 h 6.432 v 1.472 h -4.704 v 3.264 h 4.416 v 1.456 h -4.416 v 3.744 h 4.704 z"
       id="path17291" />
    <path
       d="m 175.44792,-11.424 q 2.192,0 3.232,0.816 1.056,0.816 1.056,2.48 0,0.88 -0.336,1.488 -0.32,0.592 -0.832,0.976 -0.512,0.368 -1.072,0.592 l 3.2,5.072 h -1.984 l -2.752,-4.624 h -1.984 V 0 h -1.728 v -11.424 z m -0.112,1.472 h -1.36 v 3.888 h 1.44 q 1.328,0 1.936,-0.496 0.608,-0.512 0.608,-1.504 0,-1.024 -0.64,-1.456 -0.64,-0.432 -1.984,-0.432 z"
       id="path17293" />
  </g>
  <path
     id="line7564"
     class="f"
     style="fill:none;stroke:#1b1717;stroke-width:2px;stroke-miterlimit:10"
     d="M 127.02,169.83 V 301.48001" />
  <path
     id="line7566"
     class="f"
     style="fill:none;stroke:#1b1717;stroke-width:2px;stroke-miterlimit:10"
     d="M 79.480003,212.22 H 126.63" />
  <path
     id="line7568"
     class="f"
     style="fill:none;stroke:#1b1717;stroke-width:2px;stroke-miterlimit:10"
     d="M 79.480003,271.73001 H 126.63" />
  <path
     id="line7570"
     class="f"
     style="fill:none;stroke:#1b1717;stroke-width:2px;stroke-miterlimit:10"
     d="M 127.85,242.22 H 173" />
  <path
     id="line7572"
     class="f"
     style="fill:none;stroke:#1b1717;stroke-width:2px;stroke-miterlimit:10"
     d="M 127.85,301.73001 H 173" />
  <path
     id="rect7574"
     class="g"
     style="fill:#efefef;stroke:#cf2144;stroke-width:0.83px;stroke-miterlimit:10"
     d="m 173.17,224.86 h 76.24 v 34.23 h -76.24 z" />
  <g
     aria-label="SSD"
     transform="translate(197.98 247.79)"
     id="text7578"
     class="b"
     style="font-weight:500;font-size:14px;font-family:Inter-Medium, Inter;font-variation-settings:'slnt' 0, 'wght' 500">
    <path
       d="m 7.07,-2.702 q 0,1.33 -0.966,2.086 Q 5.138,0.14 3.458,0.14 2.646,0.14 1.918,0 1.204,-0.126 0.7,-0.378 v -1.428 q 0.56,0.252 1.316,0.462 0.756,0.196 1.54,0.196 1.008,0 1.512,-0.392 0.504,-0.392 0.504,-1.05 0,-0.462 -0.238,-0.77 Q 5.11,-3.682 4.62,-3.948 4.13,-4.214 3.332,-4.536 2.59,-4.816 2.016,-5.194 1.456,-5.572 1.134,-6.132 0.812,-6.692 0.812,-7.504 q 0,-1.232 0.896,-1.932 0.896,-0.7 2.352,-0.7 0.812,0 1.498,0.168 0.7,0.154 1.33,0.434 L 6.412,-8.288 Q 5.838,-8.526 5.236,-8.68 4.648,-8.834 4.018,-8.834 q -0.826,0 -1.26,0.364 -0.434,0.364 -0.434,0.952 0,0.462 0.21,0.784 0.21,0.308 0.672,0.56 0.462,0.252 1.218,0.56 0.84,0.336 1.428,0.714 0.602,0.364 0.91,0.896 0.308,0.518 0.308,1.302 z"
       id="path17248" />
    <path
       d="m 14.769989,-2.702 q 0,1.33 -0.966,2.086 -0.966,0.756 -2.646,0.756 -0.812,0 -1.5399997,-0.14 -0.714,-0.126 -1.218,-0.378 v -1.428 q 0.56,0.252 1.316,0.462 0.7559997,0.196 1.5399997,0.196 1.008,0 1.512,-0.392 0.504,-0.392 0.504,-1.05 0,-0.462 -0.238,-0.77 -0.224,-0.322 -0.714,-0.588 -0.49,-0.266 -1.288,-0.588 -0.742,-0.28 -1.3159997,-0.658 -0.56,-0.378 -0.882,-0.938 -0.322,-0.56 -0.322,-1.372 0,-1.232 0.896,-1.932 0.8959997,-0.7 2.3519997,-0.7 0.812,0 1.498,0.168 0.7,0.154 1.33,0.434 l -0.476,1.246 q -0.574,-0.238 -1.176,-0.392 -0.588,-0.154 -1.218,-0.154 -0.826,0 -1.26,0.364 -0.434,0.364 -0.434,0.952 0,0.462 0.21,0.784 0.21,0.308 0.672,0.56 0.462,0.252 1.218,0.56 0.84,0.336 1.428,0.714 0.602,0.364 0.91,0.896 0.308,0.518 0.308,1.302 z"
       id="path17250" />
    <path
       d="m 24.821979,-5.096 q 0,2.534 -1.4,3.822 -1.386,1.274 -3.892,1.274 h -2.8 v -9.996 h 3.094 q 1.526,0 2.646,0.56 1.12,0.56 1.736,1.652 0.616,1.078 0.616,2.688 z m -1.582,0.042 q 0,-1.89 -0.924,-2.772 -0.91,-0.896 -2.59,-0.896 h -1.484 v 7.448 h 1.218 q 3.78,0 3.78,-3.78 z"
       id="path17252" />
  </g>
  <path
     id="rect7580"
     class="g"
     style="fill:#efefef;stroke:#cf2144;stroke-width:0.83px;stroke-miterlimit:10"
     d="m 173.17,284.35999 h 76.24 v 34.22999 h -76.24 z" />
  <g
     aria-label="SSD"
     transform="translate(197.98 307.29)"
     id="text7584"
     class="b"
     style="font-weight:500;font-size:14px;font-family:Inter-Medium, Inter;font-variation-settings:'slnt' 0, 'wght' 500">
    <path
       d="m 7.07,-2.702 q 0,1.33 -0.966,2.086 Q 5.138,0.14 3.458,0.14 2.646,0.14 1.918,0 1.204,-0.126 0.7,-0.378 v -1.428 q 0.56,0.252 1.316,0.462 0.756,0.196 1.54,0.196 1.008,0 1.512,-0.392 0.504,-0.392 0.504,-1.05 0,-0.462 -0.238,-0.77 Q 5.11,-3.682 4.62,-3.948 4.13,-4.214 3.332,-4.536 2.59,-4.816 2.016,-5.194 1.456,-5.572 1.134,-6.132 0.812,-6.692 0.812,-7.504 q 0,-1.232 0.896,-1.932 0.896,-0.7 2.352,-0.7 0.812,0 1.498,0.168 0.7,0.154 1.33,0.434 L 6.412,-8.288 Q 5.838,-8.526 5.236,-8.68 4.648,-8.834 4.018,-8.834 q -0.826,0 -1.26,0.364 -0.434,0.364 -0.434,0.952 0,0.462 0.21,0.784 0.21,0.308 0.672,0.56 0.462,0.252 1.218,0.56 0.84,0.336 1.428,0.714 0.602,0.364 0.91,0.896 0.308,0.518 0.308,1.302 z"
       id="path17240" />
    <path
       d="m 14.769989,-2.702 q 0,1.33 -0.966,2.086 -0.966,0.756 -2.646,0.756 -0.812,0 -1.5399997,-0.14 -0.714,-0.126 -1.218,-0.378 v -1.428 q 0.56,0.252 1.316,0.462 0.7559997,0.196 1.5399997,0.196 1.008,0 1.512,-0.392 0.504,-0.392 0.504,-1.05 0,-0.462 -0.238,-0.77 -0.224,-0.322 -0.714,-0.588 -0.49,-0.266 -1.288,-0.588 -0.742,-0.28 -1.3159997,-0.658 -0.56,-0.378 -0.882,-0.938 -0.322,-0.56 -0.322,-1.372 0,-1.232 0.896,-1.932 0.8959997,-0.7 2.3519997,-0.7 0.812,0 1.498,0.168 0.7,0.154 1.33,0.434 l -0.476,1.246 q -0.574,-0.238 -1.176,-0.392 -0.588,-0.154 -1.218,-0.154 -0.826,0 -1.26,0.364 -0.434,0.364 -0.434,0.952 0,0.462 0.21,0.784 0.21,0.308 0.672,0.56 0.462,0.252 1.218,0.56 0.84,0.336 1.428,0.714 0.602,0.364 0.91,0.896 0.308,0.518 0.308,1.302 z"
       id="path17242" />
    <path
       d="m 24.821979,-5.096 q 0,2.534 -1.4,3.822 -1.386,1.274 -3.892,1.274 h -2.8 v -9.996 h 3.094 q 1.526,0 2.646,0.56 1.12,0.56 1.736,1.652 0.616,1.078 0.616,2.688 z m -1.582,0.042 q 0,-1.89 -0.924,-2.772 -0.91,-0.896 -2.59,-0.896 h -1.484 v 7.448 h 1.218 q 3.78,0 3.78,-3.78 z"
       id="path17244" />
  </g>
  <path
     id="rect7586"
     class="g"
     style="fill:#efefef;stroke:#cf2144;stroke-width:0.83px;stroke-miterlimit:10"
     d="m 396.97,194.11 h 76.24 v 34.23 h -76.24 z" />
  <g
     aria-label="SSD"
     transform="translate(421.78 217.04)"
     id="text7590"
     class="b"
     style="font-weight:500;font-size:14px;font-family:Inter-Medium, Inter;font-variation-settings:'slnt' 0, 'wght' 500">
    <path
       d="m 7.07,-2.702 q 0,1.33 -0.966,2.086 Q 5.138,0.14 3.458,0.14 2.646,0.14 1.918,0 1.204,-0.126 0.7,-0.378 v -1.428 q 0.56,0.252 1.316,0.462 0.756,0.196 1.54,0.196 1.008,0 1.512,-0.392 0.504,-0.392 0.504,-1.05 0,-0.462 -0.238,-0.77 Q 5.11,-3.682 4.62,-3.948 4.13,-4.214 3.332,-4.536 2.59,-4.816 2.016,-5.194 1.456,-5.572 1.134,-6.132 0.812,-6.692 0.812,-7.504 q 0,-1.232 0.896,-1.932 0.896,-0.7 2.352,-0.7 0.812,0 1.498,0.168 0.7,0.154 1.33,0.434 L 6.412,-8.288 Q 5.838,-8.526 5.236,-8.68 4.648,-8.834 4.018,-8.834 q -0.826,0 -1.26,0.364 -0.434,0.364 -0.434,0.952 0,0.462 0.21,0.784 0.21,0.308 0.672,0.56 0.462,0.252 1.218,0.56 0.84,0.336 1.428,0.714 0.602,0.364 0.91,0.896 0.308,0.518 0.308,1.302 z"
       id="path17232" />
    <path
       d="m 14.769989,-2.702 q 0,1.33 -0.966,2.086 -0.966,0.756 -2.646,0.756 -0.812,0 -1.5399997,-0.14 -0.714,-0.126 -1.218,-0.378 v -1.428 q 0.56,0.252 1.316,0.462 0.7559997,0.196 1.5399997,0.196 1.008,0 1.512,-0.392 0.504,-0.392 0.504,-1.05 0,-0.462 -0.238,-0.77 -0.224,-0.322 -0.714,-0.588 -0.49,-0.266 -1.288,-0.588 -0.742,-0.28 -1.3159997,-0.658 -0.56,-0.378 -0.882,-0.938 -0.322,-0.56 -0.322,-1.372 0,-1.232 0.896,-1.932 0.8959997,-0.7 2.3519997,-0.7 0.812,0 1.498,0.168 0.7,0.154 1.33,0.434 l -0.476,1.246 q -0.574,-0.238 -1.176,-0.392 -0.588,-0.154 -1.218,-0.154 -0.826,0 -1.26,0.364 -0.434,0.364 -0.434,0.952 0,0.462 0.21,0.784 0.21,0.308 0.672,0.56 0.462,0.252 1.218,0.56 0.84,0.336 1.428,0.714 0.602,0.364 0.91,0.896 0.308,0.518 0.308,1.302 z"
       id="path17234" />
    <path
       d="m 24.821979,-5.096 q 0,2.534 -1.4,3.822 -1.386,1.274 -3.892,1.274 h -2.8 v -9.996 h 3.094 q 1.526,0 2.646,0.56 1.12,0.56 1.736,1.652 0.616,1.078 0.616,2.688 z m -1.582,0.042 q 0,-1.89 -0.924,-2.772 -0.91,-0.896 -2.59,-0.896 h -1.484 v 7.448 h 1.218 q 3.78,0 3.78,-3.78 z"
       id="path17236" />
  </g>
  <path
     id="rect7592"
     class="g"
     style="fill:#efefef;stroke:#cf2144;stroke-width:0.83px;stroke-miterlimit:10"
     d="m 396.97,253.61 h 76.24 v 34.23 h -76.24 z" />
  <g
     aria-label="SSD"
     transform="translate(421.78 276.54)"
     id="text7596"
     class="b"
     style="font-weight:500;font-size:14px;font-family:Inter-Medium, Inter;font-variation-settings:'slnt' 0, 'wght' 500">
    <path
       d="m 7.07,-2.702 q 0,1.33 -0.966,2.086 Q 5.138,0.14 3.458,0.14 2.646,0.14 1.918,0 1.204,-0.126 0.7,-0.378 v -1.428 q 0.56,0.252 1.316,0.462 0.756,0.196 1.54,0.196 1.008,0 1.512,-0.392 0.504,-0.392 0.504,-1.05 0,-0.462 -0.238,-0.77 Q 5.11,-3.682 4.62,-3.948 4.13,-4.214 3.332,-4.536 2.59,-4.816 2.016,-5.194 1.456,-5.572 1.134,-6.132 0.812,-6.692 0.812,-7.504 q 0,-1.232 0.896,-1.932 0.896,-0.7 2.352,-0.7 0.812,0 1.498,0.168 0.7,0.154 1.33,0.434 L 6.412,-8.288 Q 5.838,-8.526 5.236,-8.68 4.648,-8.834 4.018,-8.834 q -0.826,0 -1.26,0.364 -0.434,0.364 -0.434,0.952 0,0.462 0.21,0.784 0.21,0.308 0.672,0.56 0.462,0.252 1.218,0.56 0.84,0.336 1.428,0.714 0.602,0.364 0.91,0.896 0.308,0.518 0.308,1.302 z"
       id="path17224" />
    <path
       d="m 14.769989,-2.702 q 0,1.33 -0.966,2.086 -0.966,0.756 -2.646,0.756 -0.812,0 -1.5399997,-0.14 -0.714,-0.126 -1.218,-0.378 v -1.428 q 0.56,0.252 1.316,0.462 0.7559997,0.196 1.5399997,0.196 1.008,0 1.512,-0.392 0.504,-0.392 0.504,-1.05 0,-0.462 -0.238,-0.77 -0.224,-0.322 -0.714,-0.588 -0.49,-0.266 -1.288,-0.588 -0.742,-0.28 -1.3159997,-0.658 -0.56,-0.378 -0.882,-0.938 -0.322,-0.56 -0.322,-1.372 0,-1.232 0.896,-1.932 0.8959997,-0.7 2.3519997,-0.7 0.812,0 1.498,0.168 0.7,0.154 1.33,0.434 l -0.476,1.246 q -0.574,-0.238 -1.176,-0.392 -0.588,-0.154 -1.218,-0.154 -0.826,0 -1.26,0.364 -0.434,0.364 -0.434,0.952 0,0.462 0.21,0.784 0.21,0.308 0.672,0.56 0.462,0.252 1.218,0.56 0.84,0.336 1.428,0.714 0.602,0.364 0.91,0.896 0.308,0.518 0.308,1.302 z"
       id="path17226" />
    <path
       d="m 24.821979,-5.096 q 0,2.534 -1.4,3.822 -1.386,1.274 -3.892,1.274 h -2.8 v -9.996 h 3.094 q 1.526,0 2.646,0.56 1.12,0.56 1.736,1.652 0.616,1.078 0.616,2.688 z m -1.582,0.042 q 0,-1.89 -0.924,-2.772 -0.91,-0.896 -2.59,-0.896 h -1.484 v 7.448 h 1.218 q 3.78,0 3.78,-3.78 z"
       id="path17228" />
  </g>
  <path
     id="line7598"
     class="f"
     style="fill:none;stroke:#1b1717;stroke-width:2px;stroke-miterlimit:10"
     d="M 521.75,169.83 V 301.48001" />
  <path
     id="line7600"
     class="f"
     style="fill:none;stroke:#1b1717;stroke-width:2px;stroke-miterlimit:10"
     d="m 474.20999,212.22 h 47.15" />
  <path
     id="line7602"
     class="f"
     style="fill:none;stroke:#1b1717;stroke-width:2px;stroke-miterlimit:10"
     d="m 474.20999,271.73001 h 47.15" />
  <path
     id="line7604"
     class="f"
     style="fill:none;stroke:#1b1717;stroke-width:2px;stroke-miterlimit:10"
     d="m 522.58002,242.22 h 45.14996" />
  <path
     id="line7606"
     class="f"
     style="fill:none;stroke:#1b1717;stroke-width:2px;stroke-miterlimit:10"
     d="m 522.58002,301.73001 h 45.14996" />
  <path
     id="rect7608"
     class="g"
     style="fill:#efefef;stroke:#cf2144;stroke-width:0.83px;stroke-miterlimit:10"
     d="m 567.90002,224.86 h 76.24 v 34.23 h -76.24 z" />
  <g
     aria-label="SSD"
     transform="translate(592.71 247.79)"
     id="text7612"
     class="b"
     style="font-weight:500;font-size:14px;font-family:Inter-Medium, Inter;font-variation-settings:'slnt' 0, 'wght' 500">
    <path
       d="m 7.07,-2.702 q 0,1.33 -0.966,2.086 Q 5.138,0.14 3.458,0.14 2.646,0.14 1.918,0 1.204,-0.126 0.7,-0.378 v -1.428 q 0.56,0.252 1.316,0.462 0.756,0.196 1.54,0.196 1.008,0 1.512,-0.392 0.504,-0.392 0.504,-1.05 0,-0.462 -0.238,-0.77 Q 5.11,-3.682 4.62,-3.948 4.13,-4.214 3.332,-4.536 2.59,-4.816 2.016,-5.194 1.456,-5.572 1.134,-6.132 0.812,-6.692 0.812,-7.504 q 0,-1.232 0.896,-1.932 0.896,-0.7 2.352,-0.7 0.812,0 1.498,0.168 0.7,0.154 1.33,0.434 L 6.412,-8.288 Q 5.838,-8.526 5.236,-8.68 4.648,-8.834 4.018,-8.834 q -0.826,0 -1.26,0.364 -0.434,0.364 -0.434,0.952 0,0.462 0.21,0.784 0.21,0.308 0.672,0.56 0.462,0.252 1.218,0.56 0.84,0.336 1.428,0.714 0.602,0.364 0.91,0.896 0.308,0.518 0.308,1.302 z"
       id="path17211" />
    <path
       d="m 14.769989,-2.702 q 0,1.33 -0.966,2.086 -0.966,0.756 -2.646,0.756 -0.812,0 -1.5399997,-0.14 -0.714,-0.126 -1.218,-0.378 v -1.428 q 0.56,0.252 1.316,0.462 0.7559997,0.196 1.5399997,0.196 1.008,0 1.512,-0.392 0.504,-0.392 0.504,-1.05 0,-0.462 -0.238,-0.77 -0.224,-0.322 -0.714,-0.588 -0.49,-0.266 -1.288,-0.588 -0.742,-0.28 -1.3159997,-0.658 -0.56,-0.378 -0.882,-0.938 -0.322,-0.56 -0.322,-1.372 0,-1.232 0.896,-1.932 0.8959997,-0.7 2.3519997,-0.7 0.812,0 1.498,0.168 0.7,0.154 1.33,0.434 l -0.476,1.246 q -0.574,-0.238 -1.176,-0.392 -0.588,-0.154 -1.218,-0.154 -0.826,0 -1.26,0.364 -0.434,0.364 -0.434,0.952 0,0.462 0.21,0.784 0.21,0.308 0.672,0.56 0.462,0.252 1.218,0.56 0.84,0.336 1.428,0.714 0.602,0.364 0.91,0.896 0.308,0.518 0.308,1.302 z"
       id="path17213" />
    <path
       d="m 24.821979,-5.096 q 0,2.534 -1.4,3.822 -1.386,1.274 -3.892,1.274 h -2.8 v -9.996 h 3.094 q 1.526,0 2.646,0.56 1.12,0.56 1.736,1.652 0.616,1.078 0.616,2.688 z m -1.582,0.042 q 0,-1.89 -0.924,-2.772 -0.91,-0.896 -2.59,-0.896 h -1.484 v 7.448 h 1.218 q 3.78,0 3.78,-3.78 z"
       id="path17215" />
  </g>
  <path
     id="rect7614"
     class="g"
     style="fill:#efefef;stroke:#cf2144;stroke-width:0.83px;stroke-miterlimit:10"
     d="m 567.90002,284.35999 h 76.24 v 34.22999 h -76.24 z" />
  <g
     aria-label="SSD"
     transform="translate(592.71 307.29)"
     id="text7618"
     class="b"
     style="font-weight:500;font-size:14px;font-family:Inter-Medium, Inter;font-variation-settings:'slnt' 0, 'wght' 500">
    <path
       d="m 7.07,-2.702 q 0,1.33 -0.966,2.086 Q 5.138,0.14 3.458,0.14 2.646,0.14 1.918,0 1.204,-0.126 0.7,-0.378 v -1.428 q 0.56,0.252 1.316,0.462 0.756,0.196 1.54,0.196 1.008,0 1.512,-0.392 0.504,-0.392 0.504,-1.05 0,-0.462 -0.238,-0.77 Q 5.11,-3.682 4.62,-3.948 4.13,-4.214 3.332,-4.536 2.59,-4.816 2.016,-5.194 1.456,-5.572 1.134,-6.132 0.812,-6.692 0.812,-7.504 q 0,-1.232 0.896,-1.932 0.896,-0.7 2.352,-0.7 0.812,0 1.498,0.168 0.7,0.154 1.33,0.434 L 6.412,-8.288 Q 5.838,-8.526 5.236,-8.68 4.648,-8.834 4.018,-8.834 q -0.826,0 -1.26,0.364 -0.434,0.364 -0.434,0.952 0,0.462 0.21,0.784 0.21,0.308 0.672,0.56 0.462,0.252 1.218,0.56 0.84,0.336 1.428,0.714 0.602,0.364 0.91,0.896 0.308,0.518 0.308,1.302 z"
       id="path17203" />
    <path
       d="m 14.769989,-2.702 q 0,1.33 -0.966,2.086 -0.966,0.756 -2.646,0.756 -0.812,0 -1.5399997,-0.14 -0.714,-0.126 -1.218,-0.378 v -1.428 q 0.56,0.252 1.316,0.462 0.7559997,0.196 1.5399997,0.196 1.008,0 1.512,-0.392 0.504,-0.392 0.504,-1.05 0,-0.462 -0.238,-0.77 -0.224,-0.322 -0.714,-0.588 -0.49,-0.266 -1.288,-0.588 -0.742,-0.28 -1.3159997,-0.658 -0.56,-0.378 -0.882,-0.938 -0.322,-0.56 -0.322,-1.372 0,-1.232 0.896,-1.932 0.8959997,-0.7 2.3519997,-0.7 0.812,0 1.498,0.168 0.7,0.154 1.33,0.434 l -0.476,1.246 q -0.574,-0.238 -1.176,-0.392 -0.588,-0.154 -1.218,-0.154 -0.826,0 -1.26,0.364 -0.434,0.364 -0.434,0.952 0,0.462 0.21,0.784 0.21,0.308 0.672,0.56 0.462,0.252 1.218,0.56 0.84,0.336 1.428,0.714 0.602,0.364 0.91,0.896 0.308,0.518 0.308,1.302 z"
       id="path17205" />
    <path
       d="m 24.821979,-5.096 q 0,2.534 -1.4,3.822 -1.386,1.274 -3.892,1.274 h -2.8 v -9.996 h 3.094 q 1.526,0 2.646,0.56 1.12,0.56 1.736,1.652 0.616,1.078 0.616,2.688 z m -1.582,0.042 q 0,-1.89 -0.924,-2.772 -0.91,-0.896 -2.59,-0.896 h -1.484 v 7.448 h 1.218 q 3.78,0 3.78,-3.78 z"
       id="path17207" />
  </g>
</svg>
