<svg version="1.1" viewBox="0.0 0.0 643.3595800524935 309.12073490813646" fill="none" stroke="none" stroke-linecap="square" stroke-miterlimit="10" xmlns:xlink="http://www.w3.org/1999/xlink" xmlns="http://www.w3.org/2000/svg"><clipPath id="p.0"><path d="m0 0l643.35956 0l0 309.12073l-643.35956 0l0 -309.12073z" clip-rule="nonzero"/></clipPath><g clip-path="url(#p.0)"><path fill="#000000" fill-opacity="0.0" d="m0 0l643.35956 0l0 309.12073l-643.35956 0z" fill-rule="evenodd"/><path fill="#d9d9d9" d="m5.5932603 6.1574802l186.44315 0l0 31.716536l-186.44315 0z" fill-rule="evenodd"/><path stroke="#c72e49" stroke-width="2.0" stroke-linejoin="round" stroke-linecap="butt" d="m5.5932603 6.1574802l186.44315 0l0 31.716536l-186.44315 0z" fill-rule="evenodd"/><path fill="#000000" d="m15.12451 26.190748l0 -1.015625l4.65625 -2.609375l-4.625 -2.359375l0 -0.953125l5.640625 2.984375l0 0.640625l-5.671875 3.3125zm16.484314 0.765625q-0.984375 0 -1.71875 -0.515625q-0.71875 -0.53125 -1.109375 -1.46875q-0.375 -0.953125 -0.375 -2.203125q-0.015625 -1.078125 0.1875 -1.828125q0.203125 -0.765625 0.546875 -1.25q0.359375 -0.5 0.78125 -0.78125q0.421875 -0.28125 0.859375 -0.375q0.4375 -0.109375 0.796875 -0.109375q0.4843769 0 0.9531269 0.1875q0.484375 0.171875 0.875 0.484375q0.390625 0.296875 0.625 0.71875l-0.65625 0.515625l-0.109375 0.09375l-0.046875 -0.078125q0 -0.109375 -0.046875 -0.1875q-0.03125 -0.09375 -0.1875 -0.265625q-0.203125 -0.21875 -0.421875 -0.359375q-0.203125 -0.15625 -0.453125 -0.21875q-0.2500019 -0.078125 -0.5468769 -0.078125q-0.359375 0 -0.703125 0.109375q-0.328125 0.09375 -0.609375 0.328125q-0.28125 0.234375 -0.5 0.625q-0.203125 0.390625 -0.3125 0.953125q-0.109375 0.546875 -0.109375 1.3125q0 0.859375 0.15625 1.53125q0.15625 0.65625 0.453125 1.109375q0.296875 0.453125 0.71875 0.6875q0.421875 0.234375 0.953125 0.234375q0.1875 0 0.390625 -0.03125q0.2187519 -0.03125 0.4218769 -0.078125q0.203125 -0.0625 0.40625 -0.15625q0.203125 -0.109375 0.359375 -0.25l0 -1.96875l-1.5000019 0l0 -0.8125l2.359377 0l0 3.25q-0.578125 0.421875 -1.203125 0.65625q-0.609375 0.21875 -1.2343769 0.21875l0 0zm6.304659 0q-0.9375 0 -1.609375 -0.484375q-0.671875 -0.5 -1.015625 -1.453125q-0.34375 -0.953125 -0.34375 -2.3125q0 -1.3125 0.34375 -2.265625q0.34375 -0.953125 1.015625 -1.46875q0.671875 -0.515625 1.609375 -0.515625q0.96875 0 1.625 0.515625q0.65625 0.515625 1.0 1.46875q0.34375 0.953125 0.34375 2.265625q0 1.359375 -0.34375 2.3125q-0.34375 0.953125 -1.0 1.453125q-0.65625 0.484375 -1.625 0.484375zm0 -0.8125q0.640625 0 1.078125 -0.390625q0.453125 -0.40625 0.6875 -1.171875q0.25 -0.765625 0.25 -1.875q0 -1.046875 -0.25 -1.8125q-0.234375 -0.765625 -0.6875 -1.1875q-0.4375 -0.4375 -1.078125 -0.4375q-0.625 0 -1.078125 0.4375q-0.453125 0.421875 -0.703125 1.1875q-0.234375 0.765625 -0.234375 1.8125q0 1.109375 0.234375 1.875q0.25 0.765625 0.703125 1.171875q0.453125 0.390625 1.078125 0.390625zm3.804657 1.734375l0 -0.8125l5.734375 0l0 0.8125l-5.734375 0zm9.992157 -0.921875q-0.671875 0 -1.265625 -0.25q-0.578125 -0.25 -1.03125 -0.765625q-0.453125 -0.53125 -0.703125 -1.328125q-0.25 -0.796875 -0.25 -1.90625q0 -0.96875 0.1875 -1.6875q0.1875 -0.734375 0.5 -1.21875q0.328125 -0.5 0.734375 -0.796875q0.421875 -0.296875 0.875 -0.421875q0.453125 -0.140625 0.90625 -0.140625q0.90625 0 1.546875 0.453125q0.640625 0.4375 0.953125 1.1875l-0.796875 0.375l-0.125 0.0625l-0.03125 -0.09375q0.03125 -0.109375 -0.015625 -0.1875q-0.03125 -0.09375 -0.140625 -0.28125q-0.328125 -0.453125 -0.6875 -0.609375q-0.34375 -0.15625 -0.734375 -0.15625q-0.515625 0 -0.9375 0.234375q-0.421875 0.234375 -0.71875 0.6875q-0.296875 0.4375 -0.453125 1.078125q-0.15625 0.640625 -0.15625 1.453125q0 0.78125 0.171875 1.421875q0.1875 0.640625 0.5 1.109375q0.3125 0.46875 0.734375 0.71875q0.421875 0.25 0.90625 0.25q0.328125 0 0.640625 -0.109375q0.3125 -0.125 0.578125 -0.359375q0.265625 -0.234375 0.453125 -0.53125l0.6875 0.453125q-0.390625 0.65625 -0.953125 1.015625q-0.5625 0.34375 -1.375 0.34375l0 0zm3.742157 -8.4375l0.96875 0l0.125 0l0 0.09375q-0.078125 0.078125 -0.09375 0.171875q-0.015625 0.09375 -0.015625 0.3125l0 6.921875l3.984375 0l0 0.796875l-4.96875 0l0 -8.296875zm6.867157 8.296875l0 -0.78125l1.640625 0l0 -6.734375l-1.546875 0l0 -0.78125l4.125 0l0 0.78125l-1.640625 0l0 6.75l1.71875 0l0 0.765625l-4.296875 0zm6.367157 0l0 -8.3125l5.09375 0l0 0.828125l-4.203125 0l0 2.71875l3.46875 0l0 0.859375l-3.46875 0l0 3.078125l4.171875 0l0 0.828125l-5.0625 0zm6.554657 -8.296875l0.90625 0l3.484375 6.15625l0 -6.15625l0.875 0l0.140625 0l0 0.09375q-0.078125 0.078125 -0.109375 0.171875q-0.015625 0.09375 -0.015625 0.3125l0 7.71875l-0.734375 0l-3.65625 -6.53125l0 6.53125l-0.890625 0l0 -8.296875zm8.757782 8.296875l0 -7.484375l-2.359375 0l0 -0.828125l5.765625 0l0 0.828125l-2.453125 0l0 7.484375l-0.953125 0zm7.070282 0.140625q-0.3125 0 -0.546875 -0.21875q-0.21875 -0.234375 -0.21875 -0.53125q0 -0.3125 0.21875 -0.53125q0.234375 -0.234375 0.546875 -0.234375q0.3125 0 0.53125 0.234375q0.234375 0.21875 0.234375 0.53125q0 0.296875 -0.234375 0.53125q-0.21875 0.21875 -0.53125 0.21875zm8.257782 -2.5625l-3.015625 0l0.1875 -0.71875l2.609375 0l0.21875 0.71875zm-1.453125 -3.890625l-2.171875 6.3125l-0.921875 0l3.0625 -8.453125l0.109375 0l3.0625 8.453125l-0.96875 0l-2.171875 -6.3125zm4.132782 6.3125l0 -8.296875l2.671875 0q0.9375 0 1.5 0.328125q0.578125 0.3125 0.84375 0.84375q0.28125 0.515625 0.28125 1.171875q0 0.46875 -0.15625 0.890625q-0.140625 0.40625 -0.453125 0.734375q-0.3125 0.3125 -0.796875 0.484375q-0.46875 0.171875 -1.15625 0.171875l-1.765625 0l0 3.671875l-0.96875 0zm0.96875 -4.484375l1.65625 0q0.625 0 0.984375 -0.171875q0.375 -0.1875 0.546875 -0.515625q0.1875 -0.328125 0.1875 -0.765625q0 -0.40625 -0.1875 -0.734375q-0.171875 -0.34375 -0.546875 -0.546875q-0.359375 -0.203125 -0.96875 -0.203125l-1.671875 0l0 2.9375zm5.695282 4.484375l0 -8.296875l2.671875 0q0.9375 0 1.5 0.328125q0.578125 0.3125 0.84375 0.84375q0.28125 0.515625 0.28125 1.171875q0 0.46875 -0.15625 0.890625q-0.140625 0.40625 -0.453125 0.734375q-0.3125 0.3125 -0.796875 0.484375q-0.46875 0.171875 -1.15625 0.171875l-1.765625 0l0 3.671875l-0.96875 0zm0.96875 -4.484375l1.65625 0q0.625 0 0.984375 -0.171875q0.375 -0.1875 0.546875 -0.515625q0.1875 -0.328125 0.1875 -0.765625q0 -0.40625 -0.1875 -0.734375q-0.171875 -0.34375 -0.546875 -0.546875q-0.359375 -0.203125 -0.96875 -0.203125l-1.671875 0l0 2.9375z" fill-rule="nonzero"/><path fill="#f3f3f3" d="m5.5932603 39.454132l0 0c0 -1.7945976 1.4548097 -3.2494087 3.2494082 -3.2494087l179.94434 0c0.86180115 0 1.6882935 0.34235 2.2976837 0.95173264c0.609375 0.6093788 0.9517212 1.4358788 0.9517212 2.297676l0 12.997246c0 1.7946014 -1.4548035 3.2494087 -3.249405 3.2494087l-179.94434 0c-1.7945986 0 -3.2494082 -1.4548073 -3.2494082 -3.2494087z" fill-rule="evenodd"/><path stroke="#c72e49" stroke-width="2.0" stroke-linejoin="round" stroke-linecap="butt" d="m5.5932603 39.454132l0 0c0 -1.7945976 1.4548097 -3.2494087 3.2494082 -3.2494087l179.94434 0c0.86180115 0 1.6882935 0.34235 2.2976837 0.95173264c0.609375 0.6093788 0.9517212 1.4358788 0.9517212 2.297676l0 12.997246c0 1.7946014 -1.4548035 3.2494087 -3.249405 3.2494087l-179.94434 0c-1.7945986 0 -3.2494082 -1.4548073 -3.2494082 -3.2494087z" fill-rule="evenodd"/><path fill="#000000" d="m79.87125 47.01838l0 -1.125l4.03125 -0.015625l0 3.546875q-0.921875 0.75 -1.921875 1.125q-0.984375 0.359375 -2.03125 0.359375q-1.40625 0 -2.5625 -0.59375q-1.140625 -0.609375 -1.734375 -1.734375q-0.578125 -1.140625 -0.578125 -2.546875q0 -1.40625 0.578125 -2.609375q0.59375 -1.203125 1.6875 -1.78125q1.09375 -0.59375 2.515625 -0.59375q1.03125 0 1.859375 0.34375q0.84375 0.328125 1.3125 0.9375q0.484375 0.59375 0.734375 1.546875l-1.140625 0.3125q-0.21875 -0.71875 -0.53125 -1.140625q-0.3125 -0.421875 -0.90625 -0.671875q-0.59375 -0.25 -1.3125 -0.25q-0.875 0 -1.515625 0.265625q-0.625 0.265625 -1.015625 0.703125q-0.375 0.421875 -0.59375 0.9375q-0.359375 0.875 -0.359375 1.921875q0 1.265625 0.4375 2.125q0.4375 0.859375 1.265625 1.28125q0.84375 0.421875 1.796875 0.421875q0.8125 0 1.59375 -0.3125q0.78125 -0.328125 1.1875 -0.6875l0 -1.765625l-2.796875 0zm5.30455 0.28125q0 -1.921875 1.078125 -2.84375q0.890625 -0.765625 2.171875 -0.765625q1.421875 0 2.328125 0.9375q0.90625 0.921875 0.90625 2.578125q0 1.328125 -0.40625 2.09375q-0.390625 0.765625 -1.15625 1.1875q-0.765625 0.421875 -1.671875 0.421875q-1.453125 0 -2.359375 -0.921875q-0.890625 -0.9375 -0.890625 -2.6875zm1.203125 0q0 1.328125 0.578125 1.984375q0.59375 0.65625 1.46875 0.65625q0.875 0 1.453125 -0.65625q0.578125 -0.671875 0.578125 -2.03125q0 -1.28125 -0.59375 -1.9375q-0.578125 -0.65625 -1.4375 -0.65625q-0.875 0 -1.46875 0.65625q-0.578125 0.65625 -0.578125 1.984375zm10.068588 0.390625l1.203125 -0.109375q0.078125 0.71875 0.390625 1.1875q0.3125 0.453125 0.953125 0.734375q0.65625 0.28125 1.46875 0.28125q0.71875 0 1.265625 -0.21875q0.5625 -0.21875 0.828125 -0.578125q0.265625 -0.375 0.265625 -0.828125q0 -0.453125 -0.265625 -0.78125q-0.25 -0.328125 -0.84375 -0.5625q-0.390625 -0.15625 -1.703125 -0.46875q-1.3125 -0.3125 -1.84375 -0.59375q-0.671875 -0.359375 -1.015625 -0.890625q-0.328125 -0.53125 -0.328125 -1.1875q0 -0.71875 0.40625 -1.34375q0.40625 -0.625 1.1875 -0.953125q0.796875 -0.328125 1.765625 -0.328125q1.046875 0 1.859375 0.34375q0.8125 0.34375 1.25 1.015625q0.4375 0.65625 0.46875 1.484375l-1.203125 0.09375q-0.109375 -0.90625 -0.671875 -1.359375q-0.5625 -0.46875 -1.65625 -0.46875q-1.140625 0 -1.671875 0.421875q-0.515625 0.421875 -0.515625 1.015625q0 0.515625 0.359375 0.84375q0.375 0.328125 1.90625 0.6875q1.546875 0.34375 2.109375 0.59375q0.84375 0.390625 1.234375 0.984375q0.390625 0.578125 0.390625 1.359375q0 0.75 -0.4375 1.4375q-0.421875 0.671875 -1.25 1.046875q-0.8125 0.359375 -1.828125 0.359375q-1.296875 0 -2.171875 -0.375q-0.875 -0.375 -1.375 -1.125q-0.5 -0.765625 -0.53125 -1.71875zm9.327255 3.0625l0 -9.546875l3.28125 0q1.109375 0 1.703125 0.140625q0.8125 0.1875 1.390625 0.6875q0.765625 0.640625 1.140625 1.640625q0.375 0.984375 0.375 2.25q0 1.09375 -0.265625 1.9375q-0.25 0.828125 -0.65625 1.390625q-0.390625 0.546875 -0.859375 0.859375q-0.46875 0.3125 -1.140625 0.484375q-0.65625 0.15625 -1.53125 0.15625l-3.4375 0zm1.265625 -1.125l2.03125 0q0.9375 0 1.46875 -0.171875q0.546875 -0.1875 0.875 -0.5q0.4375 -0.453125 0.6875 -1.203125q0.25 -0.765625 0.25 -1.84375q0 -1.5 -0.5 -2.296875q-0.484375 -0.8125 -1.1875 -1.078125q-0.5 -0.203125 -1.625 -0.203125l-2.0 0l0 7.296875zm8.297028 1.125l0 -9.546875l1.265625 0l0 4.734375l4.734375 -4.734375l1.71875 0l-4.0 3.875l4.171875 5.671875l-1.65625 0l-3.40625 -4.828125l-1.5625 1.515625l0 3.3125l-1.265625 0z" fill-rule="nonzero"/><path fill="#d9d9d9" d="m5.5932603 68.13189l186.44315 0l0 31.716537l-186.44315 0z" fill-rule="evenodd"/><path stroke="#c72e49" stroke-width="2.0" stroke-linejoin="round" stroke-linecap="butt" d="m5.5932603 68.13189l186.44315 0l0 31.716537l-186.44315 0z" fill-rule="evenodd"/><path fill="#000000" d="m15.12451 88.16516l0 -1.015625l4.65625 -2.609375l-4.625 -2.359375l0 -0.953125l5.640625 2.984375l0 0.640625l-5.671875 3.3125zm15.406189 0.765625q-0.578125 0 -1.078125 -0.21875q-0.484375 -0.234375 -0.875 -0.6875l0.53125 -0.671875l0.09375 -0.109375l0.0625 0.046875q0.015625 0.125 0.0625 0.21875q0.046875 0.09375 0.21875 0.234375q0.234375 0.1875 0.453125 0.28125q0.234375 0.078125 0.53125 0.078125q0.453125 0 0.734375 -0.1875q0.28125 -0.203125 0.40625 -0.65625q0.140625 -0.46875 0.140625 -1.234375l0 -4.75l-1.59375 0l0 -0.78125l3.796877 0l0 0.78125l-1.28125 0l0 4.734375q0.03125 0.796875 -0.15625 1.359375q-0.171875 0.5625 -0.484375 0.921875q-0.3125019 0.34375 -0.7187519 0.5q-0.40625 0.140625 -0.84375 0.140625l0 0zm8.820284 -2.5625l-3.015625 0l0.1875 -0.71875l2.609375 0l0.21875 0.71875zm-1.453125 -3.890625l-2.171875 6.3125l-0.921875 0l3.0625 -8.453125l0.109375 0l3.0625 8.453125l-0.96875 0l-2.171875 -6.3125zm6.507782 6.359375l-2.828125 -8.359375l0.984375 0l2.125 6.375l2.015625 -6.359375l0.921875 0l-2.796875 8.34375l-0.421875 0zm8.273407 -2.46875l-3.015625 0l0.1875 -0.71875l2.609375 0l0.21875 0.71875zm-1.453125 -3.890625l-2.171875 6.3125l-0.921875 0l3.0625 -8.453125l0.109375 0l3.0625 8.453125l-0.96875 0l-2.171875 -6.3125zm3.820282 7.375l0 -0.8125l5.734375 0l0 0.8125l-5.734375 0zm9.992157 -0.921875q-0.671875 0 -1.265625 -0.25q-0.578125 -0.25 -1.03125 -0.765625q-0.453125 -0.53125 -0.703125 -1.328125q-0.25 -0.796875 -0.25 -1.90625q0 -0.96875 0.1875 -1.6875q0.1875 -0.734375 0.5 -1.21875q0.328125 -0.5 0.734375 -0.796875q0.421875 -0.296875 0.875 -0.421875q0.453125 -0.140625 0.90625 -0.140625q0.90625 0 1.546875 0.453125q0.640625 0.4375 0.953125 1.1875l-0.796875 0.375l-0.125 0.0625l-0.03125 -0.09375q0.03125 -0.109375 -0.015625 -0.1875q-0.03125 -0.09375 -0.140625 -0.28125q-0.328125 -0.453125 -0.6875 -0.609375q-0.34375 -0.15625 -0.734375 -0.15625q-0.515625 0 -0.9375 0.234375q-0.421875 0.234375 -0.71875 0.6875q-0.296875 0.4375 -0.453125 1.078125q-0.15625 0.640625 -0.15625 1.453125q0 0.78125 0.171875 1.421875q0.1875 0.640625 0.5 1.109375q0.3125 0.46875 0.734375 0.71875q0.421875 0.25 0.90625 0.25q0.328125 0 0.640625 -0.109375q0.3125 -0.125 0.578125 -0.359375q0.265625 -0.234375 0.453125 -0.53125l0.6875 0.453125q-0.390625 0.65625 -0.953125 1.015625q-0.5625 0.34375 -1.375 0.34375l0 0zm3.742157 -8.4375l0.96875 0l0.125 0l0 0.09375q-0.078125 0.078125 -0.09375 0.171875q-0.015625 0.09375 -0.015625 0.3125l0 6.921875l3.984375 0l0 0.796875l-4.96875 0l0 -8.296875zm6.867157 8.296875l0 -0.78125l1.640625 0l0 -6.734375l-1.546875 0l0 -0.78125l4.125 0l0 0.78125l-1.640625 0l0 6.75l1.71875 0l0 0.765625l-4.296875 0zm6.367157 0l0 -8.3125l5.09375 0l0 0.828125l-4.203125 0l0 2.71875l3.46875 0l0 0.859375l-3.46875 0l0 3.078125l4.171875 0l0 0.828125l-5.0625 0zm6.554657 -8.296875l0.90625 0l3.484375 6.15625l0 -6.15625l0.875 0l0.140625 0l0 0.09375q-0.078125 0.078125 -0.109375 0.171875q-0.015625 0.09375 -0.015625 0.3125l0 7.71875l-0.734375 0l-3.65625 -6.53125l0 6.53125l-0.890625 0l0 -8.296875zm8.757782 8.296875l0 -7.484375l-2.359375 0l0 -0.828125l5.765625 0l0 0.828125l-2.453125 0l0 7.484375l-0.953125 0zm7.070282 0.140625q-0.3125 0 -0.546875 -0.21875q-0.21875 -0.234375 -0.21875 -0.53125q0 -0.3125 0.21875 -0.53125q0.234375 -0.234375 0.546875 -0.234375q0.3125 0 0.53125 0.234375q0.234375 0.21875 0.234375 0.53125q0 0.296875 -0.234375 0.53125q-0.21875 0.21875 -0.53125 0.21875zm8.257782 -2.5625l-3.015625 0l0.1875 -0.71875l2.609375 0l0.21875 0.71875zm-1.453125 -3.890625l-2.171875 6.3125l-0.921875 0l3.0625 -8.453125l0.109375 0l3.0625 8.453125l-0.96875 0l-2.171875 -6.3125zm4.132782 6.3125l0 -8.296875l2.671875 0q0.9375 0 1.5 0.328125q0.578125 0.3125 0.84375 0.84375q0.28125 0.515625 0.28125 1.171875q0 0.46875 -0.15625 0.890625q-0.140625 0.40625 -0.453125 0.734375q-0.3125 0.3125 -0.796875 0.484375q-0.46875 0.171875 -1.15625 0.171875l-1.765625 0l0 3.671875l-0.96875 0zm0.96875 -4.484375l1.65625 0q0.625 0 0.984375 -0.171875q0.375 -0.1875 0.546875 -0.515625q0.1875 -0.328125 0.1875 -0.765625q0 -0.40625 -0.1875 -0.734375q-0.171875 -0.34375 -0.546875 -0.546875q-0.359375 -0.203125 -0.96875 -0.203125l-1.671875 0l0 2.9375zm5.695282 4.484375l0 -8.296875l2.671875 0q0.9375 0 1.5 0.328125q0.578125 0.3125 0.84375 0.84375q0.28125 0.515625 0.28125 1.171875q0 0.46875 -0.15625 0.890625q-0.140625 0.40625 -0.453125 0.734375q-0.3125 0.3125 -0.796875 0.484375q-0.46875 0.171875 -1.15625 0.171875l-1.765625 0l0 3.671875l-0.96875 0zm0.96875 -4.484375l1.65625 0q0.625 0 0.984375 -0.171875q0.375 -0.1875 0.546875 -0.515625q0.1875 -0.328125 0.1875 -0.765625q0 -0.40625 -0.1875 -0.734375q-0.171875 -0.34375 -0.546875 -0.546875q-0.359375 -0.203125 -0.96875 -0.203125l-1.671875 0l0 2.9375z" fill-rule="nonzero"/><path fill="#f3f3f3" d="m5.5932603 101.42854l0 0c0 -1.7946014 1.4548097 -3.2494125 3.2494082 -3.2494125l179.94434 0c0.86180115 0 1.6882935 0.34235382 2.2976837 0.95173645c0.609375 0.6093826 0.9517212 1.4358826 0.9517212 2.297676l0 12.997246c0 1.7946014 -1.4548035 3.249405 -3.249405 3.249405l-179.94434 0c-1.7945986 0 -3.2494082 -1.4548035 -3.2494082 -3.249405z" fill-rule="evenodd"/><path stroke="#c72e49" stroke-width="2.0" stroke-linejoin="round" stroke-linecap="butt" d="m5.5932603 101.42854l0 0c0 -1.7946014 1.4548097 -3.2494125 3.2494082 -3.2494125l179.94434 0c0.86180115 0 1.6882935 0.34235382 2.2976837 0.95173645c0.609375 0.6093826 0.9517212 1.4358826 0.9517212 2.297676l0 12.997246c0 1.7946014 -1.4548035 3.249405 -3.249405 3.249405l-179.94434 0c-1.7945986 0 -3.2494082 -1.4548035 -3.2494082 -3.249405z" fill-rule="evenodd"/><path fill="#000000" d="m69.575096 110.02404l1.125 -0.15625q0.046875 1.09375 0.40625 1.5q0.375 0.390625 1.015625 0.390625q0.484375 0 0.828125 -0.21875q0.34375 -0.21875 0.46875 -0.578125q0.125 -0.375 0.125 -1.203125l0 -6.578125l1.265625 0l0 6.5q0 1.203125 -0.296875 1.859375q-0.28125 0.65625 -0.90625 1.0q-0.625 0.34375 -1.46875 0.34375q-1.265625 0 -1.9375 -0.71875q-0.65625 -0.71875 -0.625 -2.140625zm11.6640625 1.84375q-0.65625 0.5625 -1.265625 0.796875q-0.59375 0.21875 -1.28125 0.21875q-1.140625 0 -1.75 -0.546875q-0.609375 -0.5625 -0.609375 -1.4375q0 -0.5 0.21875 -0.921875q0.234375 -0.421875 0.609375 -0.671875q0.375 -0.25 0.84375 -0.390625q0.34375 -0.078125 1.046875 -0.171875q1.421875 -0.171875 2.09375 -0.40625q0 -0.234375 0 -0.296875q0 -0.71875 -0.328125 -1.015625q-0.453125 -0.390625 -1.34375 -0.390625q-0.8125 0 -1.21875 0.296875q-0.390625 0.28125 -0.578125 1.015625l-1.140625 -0.15625q0.15625 -0.734375 0.515625 -1.1875q0.359375 -0.453125 1.03125 -0.6875q0.671875 -0.25 1.5625 -0.25q0.890625 0 1.4375 0.203125q0.5625 0.203125 0.8125 0.53125q0.265625 0.3125 0.375 0.796875q0.046875 0.296875 0.046875 1.078125l0 1.5625q0 1.625 0.078125 2.0625q0.078125 0.4375 0.296875 0.828125l-1.21875 0q-0.1875 -0.359375 -0.234375 -0.859375zm-0.09375 -2.609375q-0.640625 0.265625 -1.921875 0.4375q-0.71875 0.109375 -1.015625 0.25q-0.296875 0.125 -0.46875 0.375q-0.15625 0.25 -0.15625 0.546875q0 0.46875 0.34375 0.78125q0.359375 0.3125 1.046875 0.3125q0.671875 0 1.203125 -0.296875q0.53125 -0.296875 0.78125 -0.8125q0.1875 -0.390625 0.1875 -1.171875l0 -0.421875zm4.9124756 3.46875l-2.625 -6.90625l1.234375 0l1.484375 4.140625q0.234375 0.65625 0.4375 1.390625q0.15625 -0.546875 0.4375 -1.3125l1.53125 -4.21875l1.21875 0l-2.625 6.90625l-1.09375 0zm9.2578125 -0.859375q-0.65625 0.5625 -1.265625 0.796875q-0.59375 0.21875 -1.28125 0.21875q-1.140625 0 -1.75 -0.546875q-0.609375 -0.5625 -0.609375 -1.4375q0 -0.5 0.21875 -0.921875q0.234375 -0.421875 0.609375 -0.671875q0.375 -0.25 0.84375 -0.390625q0.34375 -0.078125 1.046875 -0.171875q1.421875 -0.171875 2.09375 -0.40625q0 -0.234375 0 -0.296875q0 -0.71875 -0.328125 -1.015625q-0.453125 -0.390625 -1.34375 -0.390625q-0.8125 0 -1.21875 0.296875q-0.390625 0.28125 -0.578125 1.015625l-1.140625 -0.15625q0.15625 -0.734375 0.515625 -1.1875q0.359375 -0.453125 1.03125 -0.6875q0.671875 -0.25 1.5625 -0.25q0.890625 0 1.4375 0.203125q0.5625 0.203125 0.8125 0.53125q0.265625 0.3125 0.375 0.796875q0.046875 0.296875 0.046875 1.078125l0 1.5625q0 1.625 0.078125 2.0625q0.078125 0.4375 0.296875 0.828125l-1.21875 0q-0.1875 -0.359375 -0.234375 -0.859375zm-0.09375 -2.609375q-0.640625 0.265625 -1.921875 0.4375q-0.71875 0.109375 -1.015625 0.25q-0.296875 0.125 -0.46875 0.375q-0.15625 0.25 -0.15625 0.546875q0 0.46875 0.34375 0.78125q0.359375 0.3125 1.046875 0.3125q0.671875 0 1.203125 -0.296875q0.53125 -0.296875 0.78125 -0.8125q0.1875 -0.390625 0.1875 -1.171875l0 -0.421875zm6.4123383 0.40625l1.203125 -0.109375q0.078125 0.71875 0.390625 1.1875q0.3125 0.453125 0.953125 0.734375q0.65625 0.28125 1.46875 0.28125q0.71875 0 1.265625 -0.21875q0.5625 -0.21875 0.828125 -0.578125q0.265625 -0.375 0.265625 -0.828125q0 -0.453125 -0.265625 -0.78125q-0.25 -0.328125 -0.84375 -0.5625q-0.390625 -0.15625 -1.703125 -0.46875q-1.3125 -0.3125 -1.84375 -0.59375q-0.671875 -0.359375 -1.015625 -0.890625q-0.328125 -0.53125 -0.328125 -1.1875q0 -0.71875 0.40625 -1.34375q0.40625 -0.625 1.1875 -0.953125q0.796875 -0.328125 1.765625 -0.328125q1.046875 0 1.859375 0.34375q0.8125 0.34375 1.25 1.015625q0.4375 0.65625 0.46875 1.484375l-1.203125 0.09375q-0.109375 -0.90625 -0.671875 -1.359375q-0.5625 -0.46875 -1.65625 -0.46875q-1.140625 0 -1.671875 0.421875q-0.515625 0.421875 -0.515625 1.015625q0 0.515625 0.359375 0.84375q0.375 0.328125 1.90625 0.6875q1.546875 0.34375 2.109375 0.59375q0.84375 0.390625 1.234375 0.984375q0.390625 0.578125 0.390625 1.359375q0 0.75 -0.4375 1.4375q-0.421875 0.671875 -1.25 1.046875q-0.8125 0.359375 -1.828125 0.359375q-1.296875 0 -2.171875 -0.375q-0.875 -0.375 -1.375 -1.125q-0.5 -0.765625 -0.53125 -1.71875zm9.327255 3.0625l0 -9.546875l3.28125 0q1.109375 0 1.703125 0.140625q0.8125 0.1875 1.390625 0.6875q0.765625 0.640625 1.140625 1.640625q0.375 0.984375 0.375 2.25q0 1.09375 -0.265625 1.9375q-0.25 0.828125 -0.65625 1.390625q-0.390625 0.546875 -0.859375 0.859375q-0.46875 0.3125 -1.140625 0.484375q-0.65625 0.15625 -1.53125 0.15625l-3.4375 0zm1.265625 -1.125l2.03125 0q0.9375 0 1.46875 -0.171875q0.546875 -0.1875 0.875 -0.5q0.4375 -0.453125 0.6875 -1.203125q0.25 -0.765625 0.25 -1.84375q0 -1.5 -0.5 -2.296875q-0.484375 -0.8125 -1.1875 -1.078125q-0.5 -0.203125 -1.625 -0.203125l-2.0 0l0 7.296875zm8.297028 1.125l0 -9.546875l1.265625 0l0 4.734375l4.734375 -4.734375l1.7187424 0l-3.9999924 3.875l4.1718674 5.671875l-1.6562424 0l-3.40625 -4.828125l-1.5625 1.515625l0 3.3125l-1.265625 0z" fill-rule="nonzero"/><path fill="#d9d9d9" d="m5.5932603 130.1063l186.44315 0l0 31.716537l-186.44315 0z" fill-rule="evenodd"/><path stroke="#c72e49" stroke-width="2.0" stroke-linejoin="round" stroke-linecap="butt" d="m5.5932603 130.1063l186.44315 0l0 31.716537l-186.44315 0z" fill-rule="evenodd"/><path fill="#000000" d="m15.12451 150.13957l0 -1.015625l4.65625 -2.609375l-4.625 -2.359375l0 -0.953125l5.640625 2.984375l0 0.640625l-5.671875 3.3125zm13.578064 0.625l0 -8.296875l2.671875 0q0.9375019 0 1.5000019 0.328125q0.578125 0.3125 0.84375 0.84375q0.28125 0.515625 0.28125 1.171875q0 0.46875 -0.15625 0.890625q-0.140625 0.40625 -0.453125 0.734375q-0.3125 0.3125 -0.796875 0.484375q-0.46875 0.171875 -1.1562519 0.171875l-1.765625 0l0 3.671875l-0.96875 0zm0.96875 -4.484375l1.65625 0q0.625 0 0.9843769 -0.171875q0.375 -0.1875 0.546875 -0.515625q0.1875 -0.328125 0.1875 -0.765625q0 -0.40625 -0.1875 -0.734375q-0.171875 -0.34375 -0.546875 -0.546875q-0.3593769 -0.203125 -0.9687519 -0.203125l-1.671875 0l0 2.9375zm7.851534 4.484375l0 -3.28125l-2.5625 -5.015625l1.0625 0l2.046875 4.015625l1.828125 -4.015625l0.984375 0l-2.359375 5.015625l0 3.28125l-1.0 0zm6.492157 0l0 -7.484375l-2.359375 0l0 -0.828125l5.765625 0l0 0.828125l-2.453125 0l0 7.484375l-0.953125 0zm4.570282 -8.296875l0.953125 0l0.140625 0l0 0.09375q-0.09375 0.078125 -0.109375 0.171875q-0.015625 0.09375 -0.015625 0.3125l0 2.953125l3.25 0l0 -3.53125l0.953125 0l0.140625 0l0 0.09375q-0.078125 0.078125 -0.109375 0.171875q-0.015625 0.09375 -0.015625 0.3125l0 7.71875l-0.984375 0l0 -3.953125l-3.234375 0l0 3.953125l-0.96875 0l0 -8.296875zm9.320282 8.4375q-0.9375 0 -1.609375 -0.484375q-0.671875 -0.5 -1.015625 -1.453125q-0.34375 -0.953125 -0.34375 -2.3125q0 -1.3125 0.34375 -2.265625q0.34375 -0.953125 1.015625 -1.46875q0.671875 -0.515625 1.609375 -0.515625q0.96875 0 1.625 0.515625q0.65625 0.515625 1.0 1.46875q0.34375 0.953125 0.34375 2.265625q0 1.359375 -0.34375 2.3125q-0.34375 0.953125 -1.0 1.453125q-0.65625 0.484375 -1.625 0.484375zm0 -0.8125q0.640625 0 1.078125 -0.390625q0.453125 -0.40625 0.6875 -1.171875q0.25 -0.765625 0.25 -1.875q0 -1.046875 -0.25 -1.8125q-0.234375 -0.765625 -0.6875 -1.1875q-0.4375 -0.4375 -1.078125 -0.4375q-0.625 0 -1.078125 0.4375q-0.453125 0.421875 -0.703125 1.1875q-0.234375 0.765625 -0.234375 1.8125q0 1.109375 0.234375 1.875q0.25 0.765625 0.703125 1.171875q0.453125 0.390625 1.078125 0.390625zm4.007782 -7.625l0.90625 0l3.484375 6.15625l0 -6.15625l0.875 0l0.140625 0l0 0.09375q-0.078125 0.078125 -0.109375 0.171875q-0.015625 0.09375 -0.015625 0.3125l0 7.71875l-0.734375 0l-3.65625 -6.53125l0 6.53125l-0.890625 0l0 -8.296875zm6.460907 9.359375l0 -0.8125l5.734375 0l0 0.8125l-5.734375 0zm9.992157 -0.921875q-0.671875 0 -1.265625 -0.25q-0.578125 -0.25 -1.03125 -0.765625q-0.453125 -0.53125 -0.703125 -1.328125q-0.25 -0.796875 -0.25 -1.90625q0 -0.96875 0.1875 -1.6875q0.1875 -0.734375 0.5 -1.21875q0.328125 -0.5 0.734375 -0.796875q0.421875 -0.296875 0.875 -0.421875q0.453125 -0.140625 0.90625 -0.140625q0.90625 0 1.546875 0.453125q0.640625 0.4375 0.953125 1.1875l-0.796875 0.375l-0.125 0.0625l-0.03125 -0.09375q0.03125 -0.109375 -0.015625 -0.1875q-0.03125 -0.09375 -0.140625 -0.28125q-0.328125 -0.453125 -0.6875 -0.609375q-0.34375 -0.15625 -0.734375 -0.15625q-0.515625 0 -0.9375 0.234375q-0.421875 0.234375 -0.71875 0.6875q-0.296875 0.4375 -0.453125 1.078125q-0.15625 0.640625 -0.15625 1.453125q0 0.78125 0.171875 1.421875q0.1875 0.640625 0.5 1.109375q0.3125 0.46875 0.734375 0.71875q0.421875 0.25 0.90625 0.25q0.328125 0 0.640625 -0.109375q0.3125 -0.125 0.578125 -0.359375q0.265625 -0.234375 0.453125 -0.53125l0.6875 0.453125q-0.390625 0.65625 -0.953125 1.015625q-0.5625 0.34375 -1.375 0.34375l0 0zm3.742157 -8.4375l0.96875 0l0.125 0l0 0.09375q-0.078125 0.078125 -0.09375 0.171875q-0.015625 0.09375 -0.015625 0.3125l0 6.921875l3.984375 0l0 0.796875l-4.96875 0l0 -8.296875zm6.867157 8.296875l0 -0.78125l1.640625 0l0 -6.734375l-1.546875 0l0 -0.78125l4.125 0l0 0.78125l-1.640625 0l0 6.75l1.71875 0l0 0.765625l-4.296875 0zm6.367157 0l0 -8.3125l5.09375 0l0 0.828125l-4.203125 0l0 2.71875l3.46875 0l0 0.859375l-3.46875 0l0 3.078125l4.171875 0l0 0.828125l-5.0625 0zm6.554657 -8.296875l0.90625 0l3.484375 6.15625l0 -6.15625l0.875 0l0.140625 0l0 0.09375q-0.078125 0.078125 -0.109375 0.171875q-0.015625 0.09375 -0.015625 0.3125l0 7.71875l-0.734375 0l-3.65625 -6.53125l0 6.53125l-0.890625 0l0 -8.296875zm8.757782 8.296875l0 -7.484375l-2.359375 0l0 -0.828125l5.765625 0l0 0.828125l-2.453125 0l0 7.484375l-0.953125 0zm7.070282 0.140625q-0.3125 0 -0.546875 -0.21875q-0.21875 -0.234375 -0.21875 -0.53125q0 -0.3125 0.21875 -0.53125q0.234375 -0.234375 0.546875 -0.234375q0.3125 0 0.53125 0.234375q0.234375 0.21875 0.234375 0.53125q0 0.296875 -0.234375 0.53125q-0.21875 0.21875 -0.53125 0.21875zm8.257782 -2.5625l-3.015625 0l0.1875 -0.71875l2.609375 0l0.21875 0.71875zm-1.453125 -3.890625l-2.171875 6.3125l-0.921875 0l3.0625 -8.453125l0.109375 0l3.0625 8.453125l-0.96875 0l-2.171875 -6.3125zm4.132782 6.3125l0 -8.296875l2.671875 0q0.9375 0 1.5 0.328125q0.578125 0.3125 0.84375 0.84375q0.28125 0.515625 0.28125 1.171875q0 0.46875 -0.15625 0.890625q-0.140625 0.40625 -0.453125 0.734375q-0.3125 0.3125 -0.796875 0.484375q-0.46875 0.171875 -1.15625 0.171875l-1.765625 0l0 3.671875l-0.96875 0zm0.96875 -4.484375l1.65625 0q0.625 0 0.984375 -0.171875q0.375 -0.1875 0.546875 -0.515625q0.1875 -0.328125 0.1875 -0.765625q0 -0.40625 -0.1875 -0.734375q-0.171875 -0.34375 -0.546875 -0.546875q-0.359375 -0.203125 -0.96875 -0.203125l-1.671875 0l0 2.9375zm5.695282 4.484375l0 -8.296875l2.671875 0q0.9375 0 1.5 0.328125q0.578125 0.3125 0.84375 0.84375q0.28125 0.515625 0.28125 1.171875q0 0.46875 -0.15625 0.890625q-0.140625 0.40625 -0.453125 0.734375q-0.3125 0.3125 -0.796875 0.484375q-0.46875 0.171875 -1.15625 0.171875l-1.765625 0l0 3.671875l-0.96875 0zm0.96875 -4.484375l1.65625 0q0.625 0 0.984375 -0.171875q0.375 -0.1875 0.546875 -0.515625q0.1875 -0.328125 0.1875 -0.765625q0 -0.40625 -0.1875 -0.734375q-0.171875 -0.34375 -0.546875 -0.546875q-0.359375 -0.203125 -0.96875 -0.203125l-1.671875 0l0 2.9375z" fill-rule="nonzero"/><path fill="#f3f3f3" d="m5.5932603 163.40295l0 0c0 -1.7946014 1.4548097 -3.249405 3.2494082 -3.249405l179.94434 0c0.86180115 0 1.6882935 0.3423462 2.2976837 0.9517212c0.609375 0.60939026 0.9517212 1.4358826 0.9517212 2.2976837l0 12.997238c0 1.7946014 -1.4548035 3.2494202 -3.249405 3.2494202l-179.94434 0c-1.7945986 0 -3.2494082 -1.4548187 -3.2494082 -3.2494202z" fill-rule="evenodd"/><path stroke="#c72e49" stroke-width="2.0" stroke-linejoin="round" stroke-linecap="butt" d="m5.5932603 163.40295l0 0c0 -1.7946014 1.4548097 -3.249405 3.2494082 -3.249405l179.94434 0c0.86180115 0 1.6882935 0.3423462 2.2976837 0.9517212c0.609375 0.60939026 0.9517212 1.4358826 0.9517212 2.2976837l0 12.997238c0 1.7946014 -1.4548035 3.2494202 -3.249405 3.2494202l-179.94434 0c-1.7945986 0 -3.2494082 -1.4548187 -3.2494082 -3.2494202z" fill-rule="evenodd"/><path fill="#000000" d="m63.54514 174.70157l0 -9.546875l3.5937538 0q0.953125 0 1.453125 0.09375q0.703125 0.125 1.171875 0.453125q0.484375 0.328125 0.765625 0.921875q0.296875 0.59375 0.296875 1.296875q0 1.21875 -0.78125 2.0625q-0.765625 0.84375 -2.796875 0.84375l-2.4375 0l0 3.875l-1.2656288 0zm1.2656288 -5.0l2.453125 0q1.234375 0 1.75 -0.453125q0.515625 -0.46875 0.515625 -1.28125q0 -0.609375 -0.3125 -1.03125q-0.296875 -0.421875 -0.796875 -0.5625q-0.3125 -0.09375 -1.171875 -0.09375l-2.4375 0l0 3.421875zm7.4210052 7.65625l-0.125 -1.09375q0.375 0.109375 0.65625 0.109375q0.390625 0 0.625 -0.140625q0.234375 -0.125 0.390625 -0.359375q0.109375 -0.171875 0.359375 -0.875q0.03125 -0.09375 0.109375 -0.28125l-2.625 -6.921875l1.265625 0l1.4375 4.0q0.28125 0.765625 0.5 1.59375q0.203125 -0.796875 0.46875 -1.578125l1.484375 -4.015625l1.171875 0l-2.625 7.015625q-0.421875 1.140625 -0.65625 1.578125q-0.3125 0.578125 -0.71875 0.84375q-0.40625 0.28125 -0.96875 0.28125q-0.328125 0 -0.75 -0.15625zm9.2734375 -3.703125l0.171875 1.03125q-0.5 0.109375 -0.890625 0.109375q-0.640625 0 -1.0 -0.203125q-0.34375 -0.203125 -0.484375 -0.53125q-0.140625 -0.328125 -0.140625 -1.390625l0 -3.96875l-0.859375 0l0 -0.90625l0.859375 0l0 -1.71875l1.171875 -0.703125l0 2.421875l1.171875 0l0 0.90625l-1.171875 0l0 4.046875q0 0.5 0.046875 0.640625q0.0625 0.140625 0.203125 0.234375q0.140625 0.078125 0.40625 0.078125q0.203125 0 0.515625 -0.046875zm1.1404877 1.046875l0 -9.546875l1.171875 0l0 3.421875q0.828125 -0.9375 2.078125 -0.9375q0.765625 0 1.328125 0.296875q0.5625 0.296875 0.8125 0.84375q0.25 0.53125 0.25 1.546875l0 4.375l-1.171875 0l0 -4.375q0 -0.890625 -0.390625 -1.28125q-0.375 -0.40625 -1.078125 -0.40625q-0.515625 0 -0.984375 0.28125q-0.453125 0.265625 -0.65625 0.734375q-0.1875 0.453125 -0.1875 1.265625l0 3.78125l-1.171875 0zm6.9749756 -3.453125q0 -1.921875 1.078125 -2.84375q0.890625 -0.765625 2.171875 -0.765625q1.421875 0 2.328125 0.9375q0.90625 0.921875 0.90625 2.578125q0 1.328125 -0.40625 2.09375q-0.390625 0.765625 -1.15625 1.1875q-0.765625 0.421875 -1.671875 0.421875q-1.453125 0 -2.359375 -0.921875q-0.890625 -0.9375 -0.890625 -2.6875zm1.203125 0q0 1.328125 0.578125 1.984375q0.59375 0.65625 1.46875 0.65625q0.875 0 1.453125 -0.65625q0.578125 -0.671875 0.578125 -2.03125q0 -1.28125 -0.59375 -1.9375q-0.578125 -0.65625 -1.4375 -0.65625q-0.875 0 -1.46875 0.65625q-0.578125 0.65625 -0.578125 1.984375zm6.6468506 3.453125l0 -6.90625l1.0625 0l0 0.984375q0.75 -1.140625 2.1875 -1.140625q0.625 0 1.15625 0.21875q0.53125 0.21875 0.78125 0.59375q0.265625 0.359375 0.375 0.859375q0.0625 0.328125 0.0625 1.140625l0 4.25l-1.171875 0l0 -4.203125q0 -0.71875 -0.140625 -1.0625q-0.140625 -0.359375 -0.484375 -0.5625q-0.34375 -0.21875 -0.8125 -0.21875q-0.75 0 -1.296875 0.46875q-0.546875 0.46875 -0.546875 1.796875l0 3.78125l-1.171875 0zm10.834213 -3.0625l1.203125 -0.109375q0.078125 0.71875 0.390625 1.1875q0.3125 0.453125 0.953125 0.734375q0.65625 0.28125 1.46875 0.28125q0.71875 0 1.265625 -0.21875q0.5625 -0.21875 0.828125 -0.578125q0.265625 -0.375 0.265625 -0.828125q0 -0.453125 -0.265625 -0.78125q-0.25 -0.328125 -0.84375 -0.5625q-0.390625 -0.15625 -1.703125 -0.46875q-1.3125 -0.3125 -1.84375 -0.59375q-0.671875 -0.359375 -1.015625 -0.890625q-0.328125 -0.53125 -0.328125 -1.1875q0 -0.71875 0.40625 -1.34375q0.40625 -0.625 1.1875 -0.953125q0.796875 -0.328125 1.765625 -0.328125q1.046875 0 1.859375 0.34375q0.8125 0.34375 1.25 1.015625q0.4375 0.65625 0.46875 1.484375l-1.203125 0.09375q-0.109375 -0.90625 -0.671875 -1.359375q-0.5625 -0.46875 -1.65625 -0.46875q-1.140625 0 -1.671875 0.421875q-0.515625 0.421875 -0.515625 1.015625q0 0.515625 0.359375 0.84375q0.375 0.328125 1.90625 0.6875q1.546875 0.34375 2.109375 0.59375q0.84375 0.390625 1.234375 0.984375q0.390625 0.578125 0.390625 1.359375q0 0.75 -0.4375 1.4375q-0.421875 0.671875 -1.25 1.046875q-0.8125 0.359375 -1.828125 0.359375q-1.296875 0 -2.171875 -0.375q-0.875 -0.375 -1.375 -1.125q-0.5 -0.765625 -0.53125 -1.71875zm9.327255 3.0625l0 -9.546875l3.28125 0q1.109375 0 1.703125 0.140625q0.8125 0.1875 1.390625 0.6875q0.765625 0.640625 1.140625 1.640625q0.375 0.984375 0.375 2.25q0 1.09375 -0.265625 1.9375q-0.25 0.828125 -0.65625 1.390625q-0.390625 0.546875 -0.859375 0.859375q-0.46875 0.3125 -1.140625 0.484375q-0.65625 0.15625 -1.53125 0.15625l-3.4375 0zm1.265625 -1.125l2.03125 0q0.9375 0 1.46875 -0.171875q0.546875 -0.1875 0.875 -0.5q0.4375 -0.453125 0.6875 -1.203125q0.25 -0.765625 0.25 -1.84375q0 -1.5 -0.5 -2.296875q-0.484375 -0.8125 -1.1875 -1.078125q-0.5 -0.203125 -1.625 -0.203125l-2.0 0l0 7.296875zm8.297028 1.125l0 -9.546875l1.2656174 0l0 4.734375l4.734375 -4.734375l1.71875 0l-4.0 3.875l4.171875 5.671875l-1.65625 0l-3.40625 -4.828125l-1.5625 1.515625l0 3.3125l-1.2656174 0z" fill-rule="nonzero"/><path fill="#d9d9d9" d="m5.5932603 192.0807l186.44315 0l0 31.716537l-186.44315 0z" fill-rule="evenodd"/><path stroke="#c72e49" stroke-width="2.0" stroke-linejoin="round" stroke-linecap="butt" d="m5.5932603 192.0807l186.44315 0l0 31.716537l-186.44315 0z" fill-rule="evenodd"/><path fill="#000000" d="m15.12451 212.11398l0 -1.015625l4.65625 -2.609375l-4.625 -2.359375l0 -0.953125l5.640625 2.984375l0 0.640625l-5.671875 3.3125zm13.515564 0.640625l0 -8.3125l1.9375 0q0.71875 0 1.203125 0.140625q0.5000019 0.125 0.8437519 0.375q0.34375 0.234375 0.609375 0.609375q0.28125 0.375 0.453125 0.84375q0.1875 0.46875 0.265625 1.015625q0.09375 0.546875 0.09375 1.203125q-0.03125 0.96875 -0.25 1.734375q-0.203125 0.75 -0.640625 1.28125q-0.421875 0.53125 -1.09375 0.828125q-0.6718769 0.28125 -1.6406269 0.28125l-1.78125 0zm0.875 -0.734375l0.859375 0q0.953125 0 1.5625 -0.390625q0.6093769 -0.390625 0.9062519 -1.125q0.296875 -0.75 0.28125 -1.8125q0 -1.09375 -0.265625 -1.859375q-0.265625 -0.78125 -0.84375 -1.1875q-0.5625019 -0.421875 -1.5000019 -0.421875l-1.0 0l0 6.796875zm8.398409 0.859375q-0.9375 0 -1.609375 -0.484375q-0.671875 -0.5 -1.015625 -1.453125q-0.34375 -0.953125 -0.34375 -2.3125q0 -1.3125 0.34375 -2.265625q0.34375 -0.953125 1.015625 -1.46875q0.671875 -0.515625 1.609375 -0.515625q0.96875 0 1.625 0.515625q0.65625 0.515625 1.0 1.46875q0.34375 0.953125 0.34375 2.265625q0 1.359375 -0.34375 2.3125q-0.34375 0.953125 -1.0 1.453125q-0.65625 0.484375 -1.625 0.484375zm0 -0.8125q0.640625 0 1.078125 -0.390625q0.453125 -0.40625 0.6875 -1.171875q0.25 -0.765625 0.25 -1.875q0 -1.046875 -0.25 -1.8125q-0.234375 -0.765625 -0.6875 -1.1875q-0.4375 -0.4375 -1.078125 -0.4375q-0.625 0 -1.078125 0.4375q-0.453125 0.421875 -0.703125 1.1875q-0.234375 0.765625 -0.234375 1.8125q0 1.109375 0.234375 1.875q0.25 0.765625 0.703125 1.171875q0.453125 0.390625 1.078125 0.390625zm6.101532 0.671875l0 -7.484375l-2.359375 0l0 -0.828125l5.765625 0l0 0.828125l-2.453125 0l0 7.484375l-0.953125 0zm4.570282 -8.296875l0.90625 0l3.484375 6.15625l0 -6.15625l0.875 0l0.140625 0l0 0.09375q-0.078125 0.078125 -0.109375 0.171875q-0.015625 0.09375 -0.015625 0.3125l0 7.71875l-0.734375 0l-3.65625 -6.53125l0 6.53125l-0.890625 0l0 -8.296875zm6.773407 8.296875l0 -8.3125l5.09375 0l0 0.828125l-4.203125 0l0 2.71875l3.46875 0l0 0.859375l-3.46875 0l0 3.078125l4.171875 0l0 0.828125l-5.0625 0zm8.648407 0l0 -7.484375l-2.359375 0l0 -0.828125l5.765625 0l0 0.828125l-2.453125 0l0 7.484375l-0.953125 0zm4.367157 1.0625l0 -0.8125l5.734375 0l0 0.8125l-5.734375 0zm9.992157 -0.921875q-0.671875 0 -1.265625 -0.25q-0.578125 -0.25 -1.03125 -0.765625q-0.453125 -0.53125 -0.703125 -1.328125q-0.25 -0.796875 -0.25 -1.90625q0 -0.96875 0.1875 -1.6875q0.1875 -0.734375 0.5 -1.21875q0.328125 -0.5 0.734375 -0.796875q0.421875 -0.296875 0.875 -0.421875q0.453125 -0.140625 0.90625 -0.140625q0.90625 0 1.546875 0.453125q0.640625 0.4375 0.953125 1.1875l-0.796875 0.375l-0.125 0.0625l-0.03125 -0.09375q0.03125 -0.109375 -0.015625 -0.1875q-0.03125 -0.09375 -0.140625 -0.28125q-0.328125 -0.453125 -0.6875 -0.609375q-0.34375 -0.15625 -0.734375 -0.15625q-0.515625 0 -0.9375 0.234375q-0.421875 0.234375 -0.71875 0.6875q-0.296875 0.4375 -0.453125 1.078125q-0.15625 0.640625 -0.15625 1.453125q0 0.78125 0.171875 1.421875q0.1875 0.640625 0.5 1.109375q0.3125 0.46875 0.734375 0.71875q0.421875 0.25 0.90625 0.25q0.328125 0 0.640625 -0.109375q0.3125 -0.125 0.578125 -0.359375q0.265625 -0.234375 0.453125 -0.53125l0.6875 0.453125q-0.390625 0.65625 -0.953125 1.015625q-0.5625 0.34375 -1.375 0.34375l0 0zm3.742157 -8.4375l0.96875 0l0.125 0l0 0.09375q-0.078125 0.078125 -0.09375 0.171875q-0.015625 0.09375 -0.015625 0.3125l0 6.921875l3.984375 0l0 0.796875l-4.96875 0l0 -8.296875zm6.867157 8.296875l0 -0.78125l1.640625 0l0 -6.734375l-1.546875 0l0 -0.78125l4.125 0l0 0.78125l-1.640625 0l0 6.75l1.71875 0l0 0.765625l-4.296875 0zm6.367157 0l0 -8.3125l5.09375 0l0 0.828125l-4.203125 0l0 2.71875l3.46875 0l0 0.859375l-3.46875 0l0 3.078125l4.171875 0l0 0.828125l-5.0625 0zm6.554657 -8.296875l0.90625 0l3.484375 6.15625l0 -6.15625l0.875 0l0.140625 0l0 0.09375q-0.078125 0.078125 -0.109375 0.171875q-0.015625 0.09375 -0.015625 0.3125l0 7.71875l-0.734375 0l-3.65625 -6.53125l0 6.53125l-0.890625 0l0 -8.296875zm8.757782 8.296875l0 -7.484375l-2.359375 0l0 -0.828125l5.765625 0l0 0.828125l-2.453125 0l0 7.484375l-0.953125 0zm7.070282 0.140625q-0.3125 0 -0.546875 -0.21875q-0.21875 -0.234375 -0.21875 -0.53125q0 -0.3125 0.21875 -0.53125q0.234375 -0.234375 0.546875 -0.234375q0.3125 0 0.53125 0.234375q0.234375 0.21875 0.234375 0.53125q0 0.296875 -0.234375 0.53125q-0.21875 0.21875 -0.53125 0.21875zm8.257782 -2.5625l-3.015625 0l0.1875 -0.71875l2.609375 0l0.21875 0.71875zm-1.453125 -3.890625l-2.171875 6.3125l-0.921875 0l3.0625 -8.453125l0.109375 0l3.0625 8.453125l-0.96875 0l-2.171875 -6.3125zm4.132782 6.3125l0 -8.296875l2.671875 0q0.9375 0 1.5 0.328125q0.578125 0.3125 0.84375 0.84375q0.28125 0.515625 0.28125 1.171875q0 0.46875 -0.15625 0.890625q-0.140625 0.40625 -0.453125 0.734375q-0.3125 0.3125 -0.796875 0.484375q-0.46875 0.171875 -1.15625 0.171875l-1.765625 0l0 3.671875l-0.96875 0zm0.96875 -4.484375l1.65625 0q0.625 0 0.984375 -0.171875q0.375 -0.1875 0.546875 -0.515625q0.1875 -0.328125 0.1875 -0.765625q0 -0.40625 -0.1875 -0.734375q-0.171875 -0.34375 -0.546875 -0.546875q-0.359375 -0.203125 -0.96875 -0.203125l-1.671875 0l0 2.9375zm5.695282 4.484375l0 -8.296875l2.671875 0q0.9375 0 1.5 0.328125q0.578125 0.3125 0.84375 0.84375q0.28125 0.515625 0.28125 1.171875q0 0.46875 -0.15625 0.890625q-0.140625 0.40625 -0.453125 0.734375q-0.3125 0.3125 -0.796875 0.484375q-0.46875 0.171875 -1.15625 0.171875l-1.765625 0l0 3.671875l-0.96875 0zm0.96875 -4.484375l1.65625 0q0.625 0 0.984375 -0.171875q0.375 -0.1875 0.546875 -0.515625q0.1875 -0.328125 0.1875 -0.765625q0 -0.40625 -0.1875 -0.734375q-0.171875 -0.34375 -0.546875 -0.546875q-0.359375 -0.203125 -0.96875 -0.203125l-1.671875 0l0 2.9375z" fill-rule="nonzero"/><path fill="#f3f3f3" d="m5.5932603 225.37737l0 0c0 -1.7946014 1.4548097 -3.249405 3.2494082 -3.249405l179.94434 0c0.86180115 0 1.6882935 0.3423462 2.2976837 0.9517212c0.609375 0.60939026 0.9517212 1.4358826 0.9517212 2.2976837l0 12.997238c0 1.7946014 -1.4548035 3.249405 -3.249405 3.249405l-179.94434 0c-1.7945986 0 -3.2494082 -1.4548035 -3.2494082 -3.249405z" fill-rule="evenodd"/><path stroke="#c72e49" stroke-width="2.0" stroke-linejoin="round" stroke-linecap="butt" d="m5.5932603 225.37737l0 0c0 -1.7946014 1.4548097 -3.249405 3.2494082 -3.249405l179.94434 0c0.86180115 0 1.6882935 0.3423462 2.2976837 0.9517212c0.609375 0.60939026 0.9517212 1.4358826 0.9517212 2.2976837l0 12.997238c0 1.7946014 -1.4548035 3.249405 -3.249405 3.249405l-179.94434 0c-1.7945986 0 -3.2494082 -1.4548035 -3.2494082 -3.249405z" fill-rule="evenodd"/><path fill="#000000" d="m69.40495 236.67598l0 -1.328125l1.34375 0l0 1.328125l-1.34375 0zm3.5154877 0l0 -9.546875l1.296875 0l5.015625 7.5l0 -7.5l1.203125 0l0 9.546875l-1.296875 0l-5.015625 -7.5l0 7.5l-1.203125 0zm9.656403 0l0 -9.546875l6.90625 0l0 1.125l-5.640625 0l0 2.921875l5.28125 0l0 1.125l-5.28125 0l0 3.25l5.859375 0l0 1.125l-7.125 0zm11.296005 0l0 -8.421875l-3.140625 0l0 -1.125l7.5625 0l0 1.125l-3.15625 0l0 8.421875l-1.265625 0zm8.74408 -3.0625l1.203125 -0.109375q0.078125 0.71875 0.390625 1.1875q0.3125 0.453125 0.953125 0.734375q0.65625 0.28125 1.46875 0.28125q0.71875 0 1.265625 -0.21875q0.5625 -0.21875 0.828125 -0.578125q0.265625 -0.375 0.265625 -0.828125q0 -0.453125 -0.265625 -0.78125q-0.25 -0.328125 -0.84375 -0.5625q-0.390625 -0.15625 -1.703125 -0.46875q-1.3125 -0.3125 -1.84375 -0.59375q-0.671875 -0.359375 -1.015625 -0.890625q-0.328125 -0.53125 -0.328125 -1.1875q0 -0.71875 0.40625 -1.34375q0.40625 -0.625 1.1875 -0.953125q0.796875 -0.328125 1.765625 -0.328125q1.046875 0 1.859375 0.34375q0.8125 0.34375 1.25 1.015625q0.4375 0.65625 0.46875 1.484375l-1.203125 0.09375q-0.109375 -0.90625 -0.671875 -1.359375q-0.5625 -0.46875 -1.65625 -0.46875q-1.140625 0 -1.671875 0.421875q-0.515625 0.421875 -0.515625 1.015625q0 0.515625 0.359375 0.84375q0.375 0.328125 1.90625 0.6875q1.546875 0.34375 2.109375 0.59375q0.84375 0.390625 1.234375 0.984375q0.390625 0.578125 0.390625 1.359375q0 0.75 -0.4375 1.4375q-0.421875 0.671875 -1.25 1.046875q-0.8125 0.359375 -1.828125 0.359375q-1.296875 0 -2.171875 -0.375q-0.875 -0.375 -1.375 -1.125q-0.5 -0.765625 -0.53125 -1.71875zm9.327255 3.0625l0 -9.546875l3.28125 0q1.109375 0 1.703125 0.140625q0.8125 0.1875 1.390625 0.6875q0.765625 0.640625 1.140625 1.640625q0.375 0.984375 0.375 2.25q0 1.09375 -0.265625 1.9375q-0.25 0.828125 -0.65625 1.390625q-0.390625 0.546875 -0.859375 0.859375q-0.46875 0.3125 -1.140625 0.484375q-0.65625 0.15625 -1.53125 0.15625l-3.4375 0zm1.265625 -1.125l2.03125 0q0.9375 0 1.46875 -0.171875q0.546875 -0.1875 0.875 -0.5q0.4375 -0.453125 0.6875 -1.203125q0.25 -0.765625 0.25 -1.84375q0 -1.5 -0.5 -2.296875q-0.484375 -0.8125 -1.1875 -1.078125q-0.5 -0.203125 -1.625 -0.203125l-2.0 0l0 7.296875zm8.297028 1.125l0 -9.546875l1.265625 0l0 4.734375l4.734375 -4.734375l1.71875 0l-4.0 3.875l4.171875 5.671875l-1.65625 0l-3.40625 -4.828125l-1.5625 1.515625l0 3.3125l-1.265625 0z" fill-rule="nonzero"/><path fill="#d9d9d9" d="m5.5932603 254.05511l186.44315 0l0 31.716553l-186.44315 0z" fill-rule="evenodd"/><path stroke="#c72e49" stroke-width="2.0" stroke-linejoin="round" stroke-linecap="butt" d="m5.5932603 254.05511l186.44315 0l0 31.716553l-186.44315 0z" fill-rule="evenodd"/><path fill="#000000" d="m12.713667 274.08838l0 -1.015625l4.65625 -2.609375l-4.625 -2.359375l0 -0.953125l5.640625 2.984375l0 0.640625l-5.671875 3.3125zm16.093689 0.765625q-0.8125 0 -1.46875 -0.265625q-0.640625 -0.28125 -1.140625 -0.796875l0.484375 -0.84375l0.046875 -0.109375l0.09375 0.046875q0.03125 0.09375 0.0625 0.21875q0.046875 0.109375 0.203125 0.265625q0.34375 0.296875 0.796875 0.46875q0.46875 0.171875 1.046875 0.171875q0.375 0 0.6875 -0.109375q0.3125 -0.125 0.546875 -0.3125q0.234375 -0.1875 0.359375 -0.453125q0.125 -0.265625 0.125 -0.546875q0 -0.234375 -0.046875 -0.421875q-0.046875 -0.1875 -0.171875 -0.328125q-0.125 -0.15625 -0.34375 -0.3125q-0.203125 -0.15625 -0.546875 -0.328125q-0.328125 -0.171875 -0.796875 -0.375q-0.859375 -0.328125 -1.359375 -0.71875q-0.5 -0.40625 -0.71875 -0.84375q-0.203125 -0.4375 -0.203125 -0.90625q0 -0.609375 0.3125 -1.0625q0.3125 -0.46875 0.875 -0.71875q0.5625 -0.265625 1.34375 -0.265625q0.453125 0 0.875 0.125q0.421875 0.125 0.78125 0.359375q0.375 0.21875 0.65625 0.546875l-0.515625 0.703125l-0.078125 0.09375l-0.078125 -0.046875q-0.015625 -0.109375 -0.0625 -0.203125q-0.03125 -0.109375 -0.1875 -0.28125q-0.3125 -0.296875 -0.671875 -0.40625q-0.359375 -0.125 -0.859375 -0.125q-0.328125 0 -0.59375 0.09375q-0.25 0.09375 -0.4375 0.265625q-0.1875 0.171875 -0.296875 0.40625q-0.09375 0.21875 -0.09375 0.453125q0 0.21875 0.046875 0.40625q0.0625 0.1875 0.1875 0.359375q0.140625 0.171875 0.375 0.359375q0.234375 0.171875 0.578125 0.34375q0.359375 0.171875 0.859375 0.375q0.609375 0.25 1.015625 0.5q0.40625 0.234375 0.640625 0.515625q0.234375 0.265625 0.328125 0.59375q0.109375 0.3125 0.109375 0.703125q0 0.578125 -0.296875 1.125q-0.28125 0.546875 -0.890625 0.921875q-0.609375 0.359375 -1.578125 0.359375l0 0zm6.570284 0q-0.65625 0 -1.265625 -0.234375q-0.59375 -0.234375 -1.015625 -0.703125l0.609375 -0.734375l0.09375 -0.109375l0.0625 0.0625q0.015625 0.109375 0.046875 0.21875q0.046875 0.09375 0.203125 0.25q0.21875 0.203125 0.515625 0.328125q0.296875 0.125 0.703125 0.125q0.53125 0 0.875 -0.203125q0.359375 -0.21875 0.53125 -0.59375q0.171875 -0.390625 0.171875 -0.859375q0 -0.484375 -0.171875 -0.8125q-0.171875 -0.34375 -0.484375 -0.53125q-0.296875 -0.203125 -0.71875 -0.265625q-0.421875 -0.078125 -0.953125 -0.015625l0 -0.75q0.625 0 1.03125 -0.125q0.421875 -0.140625 0.640625 -0.359375q0.21875 -0.234375 0.296875 -0.53125q0.078125 -0.3125 0.078125 -0.625q0 -0.28125 -0.09375 -0.5q-0.078125 -0.234375 -0.234375 -0.390625q-0.15625 -0.171875 -0.375 -0.25q-0.21875 -0.09375 -0.484375 -0.09375q-0.265625 0 -0.53125 0.0625q-0.25 0.0625 -0.5 0.203125q-0.25 0.125 -0.484375 0.359375l-0.5625 -0.5625q0.453125 -0.46875 0.984375 -0.65625q0.546875 -0.203125 1.078125 -0.203125q0.6875 0 1.15625 0.265625q0.484375 0.25 0.734375 0.71875q0.265625 0.46875 0.265625 1.078125q0 0.4375 -0.140625 0.8125q-0.140625 0.375 -0.4375 0.65625q-0.28125 0.28125 -0.71875 0.4375q0.46875 0.140625 0.828125 0.4375q0.359375 0.28125 0.546875 0.6875q0.203125 0.40625 0.203125 0.984375q0 0.65625 -0.28125 1.21875q-0.28125 0.546875 -0.84375 0.875q-0.546875 0.328125 -1.359375 0.328125l0 0zm3.929657 0.921875l0 -0.8125l5.734375 0l0 0.8125l-5.734375 0zm9.992157 -0.921875q-0.671875 0 -1.265625 -0.25q-0.578125 -0.25 -1.03125 -0.765625q-0.453125 -0.53125 -0.703125 -1.328125q-0.25 -0.796875 -0.25 -1.90625q0 -0.96875 0.1875 -1.6875q0.1875 -0.734375 0.5 -1.21875q0.328125 -0.5 0.734375 -0.796875q0.421875 -0.296875 0.875 -0.421875q0.453125 -0.140625 0.90625 -0.140625q0.90625 0 1.546875 0.453125q0.640625 0.4375 0.953125 1.1875l-0.796875 0.375l-0.125 0.0625l-0.03125 -0.09375q0.03125 -0.109375 -0.015625 -0.1875q-0.03125 -0.09375 -0.140625 -0.28125q-0.328125 -0.453125 -0.6875 -0.609375q-0.34375 -0.15625 -0.734375 -0.15625q-0.515625 0 -0.9375 0.234375q-0.421875 0.234375 -0.71875 0.6875q-0.296875 0.4375 -0.453125 1.078125q-0.15625 0.640625 -0.15625 1.453125q0 0.78125 0.171875 1.421875q0.1875 0.640625 0.5 1.109375q0.3125 0.46875 0.734375 0.71875q0.421875 0.25 0.90625 0.25q0.328125 0 0.640625 -0.109375q0.3125 -0.125 0.578125 -0.359375q0.265625 -0.234375 0.453125 -0.53125l0.6875 0.453125q-0.390625 0.65625 -0.953125 1.015625q-0.5625 0.34375 -1.375 0.34375l0 0zm6.195282 0q-0.9375 0 -1.609375 -0.484375q-0.671875 -0.5 -1.015625 -1.453125q-0.34375 -0.953125 -0.34375 -2.3125q0 -1.3125 0.34375 -2.265625q0.34375 -0.953125 1.015625 -1.46875q0.671875 -0.515625 1.609375 -0.515625q0.96875 0 1.625 0.515625q0.65625 0.515625 1.0 1.46875q0.34375 0.953125 0.34375 2.265625q0 1.359375 -0.34375 2.3125q-0.34375 0.953125 -1.0 1.453125q-0.65625 0.484375 -1.625 0.484375zm0 -0.8125q0.640625 0 1.078125 -0.390625q0.453125 -0.40625 0.6875 -1.171875q0.25 -0.765625 0.25 -1.875q0 -1.046875 -0.25 -1.8125q-0.234375 -0.765625 -0.6875 -1.1875q-0.4375 -0.4375 -1.078125 -0.4375q-0.625 0 -1.078125 0.4375q-0.453125 0.421875 -0.703125 1.1875q-0.234375 0.765625 -0.234375 1.8125q0 1.109375 0.234375 1.875q0.25 0.765625 0.703125 1.171875q0.453125 0.390625 1.078125 0.390625zm3.882782 0.671875l0 -8.296875l0.734375 0l2.046875 4.0625l2.09375 -4.078125l0.703125 0l0 8.3125l-0.875 0l0 -6.265625l-1.796875 3.34375l-0.359375 0l-1.6875 -3.296875l0 6.21875l-0.859375 0zm6.898407 0l0 -8.296875l2.671875 0q0.9375 0 1.5 0.328125q0.578125 0.3125 0.84375 0.84375q0.28125 0.515625 0.28125 1.171875q0 0.46875 -0.15625 0.890625q-0.140625 0.40625 -0.453125 0.734375q-0.3125 0.3125 -0.796875 0.484375q-0.46875 0.171875 -1.15625 0.171875l-1.765625 0l0 3.671875l-0.96875 0zm0.96875 -4.484375l1.65625 0q0.625 0 0.984375 -0.171875q0.375 -0.1875 0.546875 -0.515625q0.1875 -0.328125 0.1875 -0.765625q0 -0.40625 -0.1875 -0.734375q-0.171875 -0.34375 -0.546875 -0.546875q-0.359375 -0.203125 -0.96875 -0.203125l-1.671875 0l0 2.9375zm9.679657 2.0625l-3.015625 0l0.1875 -0.71875l2.609375 0l0.21875 0.71875zm-1.453125 -3.890625l-2.171875 6.3125l-0.921875 0l3.0625 -8.453125l0.109375 0l3.0625 8.453125l-0.96875 0l-2.171875 -6.3125zm6.117157 6.3125l0 -7.484375l-2.359375 0l0 -0.828125l5.765625 0l0 0.828125l-2.453125 0l0 7.484375l-0.953125 0zm4.976532 0l0 -0.78125l1.640625 0l0 -6.734375l-1.546875 0l0 -0.78125l4.125 0l0 0.78125l-1.640625 0l0 6.75l1.71875 0l0 0.765625l-4.296875 0zm6.226532 0l0 -8.296875l2.359375 0q0.71875 0 1.234375 0.140625q0.53125 0.140625 0.859375 0.40625q0.34375 0.265625 0.5 0.640625q0.15625 0.375 0.15625 0.8125q0 0.390625 -0.140625 0.765625q-0.125 0.375 -0.40625 0.65625q-0.265625 0.28125 -0.671875 0.421875q0.34375 0.125 0.625 0.34375q0.296875 0.203125 0.5 0.5q0.203125 0.28125 0.3125 0.609375q0.125 0.328125 0.125 0.671875q0 0.515625 -0.1875 0.953125q-0.1875 0.421875 -0.578125 0.734375q-0.375 0.3125 -0.96875 0.484375q-0.578125 0.15625 -1.375 0.15625l-2.34375 0zm0.921875 -0.8125l1.578125 0q0.59375 0 1.03125 -0.15625q0.4375 -0.15625 0.6875 -0.5q0.25 -0.34375 0.25 -0.921875q0 -0.484375 -0.21875 -0.859375q-0.21875 -0.390625 -0.6875 -0.609375q-0.46875 -0.21875 -1.28125 -0.21875l-1.359375 0l0 3.265625zm0 -4.046875l1.296875 0q0.734375 0 1.15625 -0.171875q0.4375 -0.1875 0.625 -0.484375q0.1875 -0.296875 0.1875 -0.671875q0 -0.28125 -0.109375 -0.515625q-0.09375 -0.234375 -0.3125 -0.40625q-0.203125 -0.1875 -0.5625 -0.296875q-0.34375 -0.109375 -0.828125 -0.109375l-1.453125 0l0 2.65625zm5.976532 -3.4375l0.96875 0l0.125 0l0 0.09375q-0.078125 0.078125 -0.09375 0.171875q-0.015625 0.09375 -0.015625 0.3125l0 6.921875l3.984375 0l0 0.796875l-4.96875 0l0 -8.296875zm6.570282 8.296875l0 -8.3125l5.09375 0l0 0.828125l-4.203125 0l0 2.71875l3.46875 0l0 0.859375l-3.46875 0l0 3.078125l4.171875 0l0 0.828125l-5.0625 0zm6.351532 1.0625l0 -0.8125l5.734375 0l0 0.8125l-5.734375 0zm9.992157 -0.921875q-0.671875 0 -1.265625 -0.25q-0.578125 -0.25 -1.03125 -0.765625q-0.453125 -0.53125 -0.703125 -1.328125q-0.25 -0.796875 -0.25 -1.90625q0 -0.96875 0.1875 -1.6875q0.1875 -0.734375 0.5 -1.21875q0.328125 -0.5 0.734375 -0.796875q0.421875 -0.296875 0.875 -0.421875q0.453125 -0.140625 0.90625 -0.140625q0.90625 0 1.546875 0.453125q0.640625 0.4375 0.953125 1.1875l-0.796875 0.375l-0.125 0.0625l-0.03125 -0.09375q0.03125 -0.109375 -0.015625 -0.1875q-0.03125 -0.09375 -0.140625 -0.28125q-0.328125 -0.453125 -0.6875 -0.609375q-0.34375 -0.15625 -0.734375 -0.15625q-0.515625 0 -0.9375 0.234375q-0.421875 0.234375 -0.71875 0.6875q-0.296875 0.4375 -0.453125 1.078125q-0.15625 0.640625 -0.15625 1.453125q0 0.78125 0.171875 1.421875q0.1875 0.640625 0.5 1.109375q0.3125 0.46875 0.734375 0.71875q0.421875 0.25 0.90625 0.25q0.328125 0 0.640625 -0.109375q0.3125 -0.125 0.578125 -0.359375q0.265625 -0.234375 0.453125 -0.53125l0.6875 0.453125q-0.390625 0.65625 -0.953125 1.015625q-0.5625 0.34375 -1.375 0.34375l0 0zm3.742157 -8.4375l0.96875 0l0.125 0l0 0.09375q-0.078125 0.078125 -0.09375 0.171875q-0.015625 0.09375 -0.015625 0.3125l0 6.921875l3.984375 0l0 0.796875l-4.96875 0l0 -8.296875zm6.867157 8.296875l0 -0.78125l1.640625 0l0 -6.734375l-1.546875 0l0 -0.78125l4.125 0l0 0.78125l-1.640625 0l0 6.75l1.71875 0l0 0.765625l-4.296875 0zm6.367157 0l0 -8.3125l5.09375 0l0 0.828125l-4.203125 0l0 2.71875l3.46875 0l0 0.859375l-3.46875 0l0 3.078125l4.171875 0l0 0.828125l-5.0625 0zm6.554657 -8.296875l0.90625 0l3.484375 6.15625l0 -6.15625l0.875 0l0.140625 0l0 0.09375q-0.078125 0.078125 -0.109375 0.171875q-0.015625 0.09375 -0.015625 0.3125l0 7.71875l-0.734375 0l-3.65625 -6.53125l0 6.53125l-0.890625 0l0 -8.296875zm8.757782 8.296875l0 -7.484375l-2.359375 0l0 -0.828125l5.765625 0l0 0.828125l-2.453125 0l0 7.484375l-0.953125 0zm7.070282 0.140625q-0.3125 0 -0.546875 -0.21875q-0.21875 -0.234375 -0.21875 -0.53125q0 -0.3125 0.21875 -0.53125q0.234375 -0.234375 0.546875 -0.234375q0.3125 0 0.53125 0.234375q0.234375 0.21875 0.234375 0.53125q0 0.296875 -0.234375 0.53125q-0.21875 0.21875 -0.53125 0.21875zm8.257782 -2.5625l-3.015625 0l0.1875 -0.71875l2.609375 0l0.21875 0.71875zm-1.453125 -3.890625l-2.171875 6.3125l-0.921875 0l3.0625 -8.453125l0.109375 0l3.0625 8.453125l-0.96875 0l-2.171875 -6.3125zm4.132782 6.3125l0 -8.296875l2.671875 0q0.9375 0 1.5 0.328125q0.578125 0.3125 0.84375 0.84375q0.28125 0.515625 0.28125 1.171875q0 0.46875 -0.15625 0.890625q-0.140625 0.40625 -0.453125 0.734375q-0.3125 0.3125 -0.796875 0.484375q-0.46875 0.171875 -1.15625 0.171875l-1.765625 0l0 3.671875l-0.96875 0zm0.96875 -4.484375l1.65625 0q0.625 0 0.984375 -0.171875q0.375 -0.1875 0.546875 -0.515625q0.1875 -0.328125 0.1875 -0.765625q0 -0.40625 -0.1875 -0.734375q-0.171875 -0.34375 -0.546875 -0.546875q-0.359375 -0.203125 -0.96875 -0.203125l-1.671875 0l0 2.9375zm5.695282 4.484375l0 -8.296875l2.671875 0q0.9375 0 1.5 0.328125q0.578125 0.3125 0.84375 0.84375q0.28125 0.515625 0.28125 1.171875q0 0.46875 -0.15625 0.890625q-0.140625 0.40625 -0.453125 0.734375q-0.3125 0.3125 -0.796875 0.484375q-0.46875 0.171875 -1.15625 0.171875l-1.765625 0l0 3.671875l-0.96875 0zm0.96875 -4.484375l1.65625 0q0.625 0 0.984375 -0.171875q0.375 -0.1875 0.546875 -0.515625q0.1875 -0.328125 0.1875 -0.765625q0 -0.40625 -0.1875 -0.734375q-0.171875 -0.34375 -0.546875 -0.546875q-0.359375 -0.203125 -0.96875 -0.203125l-1.671875 0l0 2.9375z" fill-rule="nonzero"/><path fill="#f3f3f3" d="m5.5932603 287.35178l0 0c0 -1.7946167 1.4548097 -3.2494202 3.2494082 -3.2494202l179.94434 0c0.86180115 0 1.6882935 0.3423462 2.2976837 0.9517212c0.609375 0.6094055 0.9517212 1.4358826 0.9517212 2.297699l0 12.997253c0 1.7945862 -1.4548035 3.2493896 -3.249405 3.2493896l-179.94434 0c-1.7945986 0 -3.2494082 -1.4548035 -3.2494082 -3.2493896z" fill-rule="evenodd"/><path stroke="#c72e49" stroke-width="2.0" stroke-linejoin="round" stroke-linecap="butt" d="m5.5932603 287.35178l0 0c0 -1.7946167 1.4548097 -3.2494202 3.2494082 -3.2494202l179.94434 0c0.86180115 0 1.6882935 0.3423462 2.2976837 0.9517212c0.609375 0.6094055 0.9517212 1.4358826 0.9517212 2.297699l0 12.997253c0 1.7945862 -1.4548035 3.2493896 -3.249405 3.2493896l-179.94434 0c-1.7945986 0 -3.2494082 -1.4548035 -3.2494082 -3.2493896z" fill-rule="evenodd"/><path fill="#000000" d="m40.14458 295.5879l1.203125 -0.109375q0.078125 0.71875 0.390625 1.1875q0.3125 0.453125 0.953125 0.734375q0.65625 0.28125 1.46875 0.28125q0.71875 0 1.265625 -0.21875q0.5625 -0.21875 0.828125 -0.578125q0.265625 -0.375 0.265625 -0.828125q0 -0.453125 -0.265625 -0.78125q-0.25 -0.328125 -0.84375 -0.5625q-0.390625 -0.15625 -1.703125 -0.46875q-1.3125 -0.3125 -1.84375 -0.59375q-0.671875 -0.359375 -1.015625 -0.890625q-0.328125 -0.53125 -0.328125 -1.1875q0 -0.71875 0.40625 -1.34375q0.40625 -0.625 1.1875 -0.953125q0.796875 -0.328125 1.765625 -0.328125q1.046875 0 1.859375 0.34375q0.8125 0.34375 1.25 1.015625q0.4375 0.65625 0.46875 1.484375l-1.203125 0.09375q-0.109375 -0.90625 -0.671875 -1.359375q-0.5625 -0.46875 -1.65625 -0.46875q-1.140625 0 -1.671875 0.421875q-0.515625 0.421875 -0.515625 1.015625q0 0.515625 0.359375 0.84375q0.375 0.328125 1.90625 0.6875q1.546875 0.34375 2.109375 0.59375q0.84375 0.390625 1.234375 0.984375q0.390625 0.578125 0.390625 1.359375q0 0.75 -0.4375 1.4375q-0.421875 0.671875 -1.25 1.046875q-0.8125 0.359375 -1.828125 0.359375q-1.296875 0 -2.171875 -0.375q-0.875 -0.375 -1.375 -1.125q-0.5 -0.765625 -0.53125 -1.71875zm8.858505 0.546875l1.171875 -0.15625q0.203125 1.0 0.6875 1.4375q0.484375 0.4375 1.171875 0.4375q0.828125 0 1.390625 -0.578125q0.578125 -0.578125 0.578125 -1.421875q0 -0.796875 -0.53125 -1.3125q-0.515625 -0.53125 -1.328125 -0.53125q-0.34375 0 -0.828125 0.125l0.125 -1.03125q0.125 0.015625 0.1875 0.015625q0.75 0 1.34375 -0.390625q0.609375 -0.390625 0.609375 -1.203125q0 -0.640625 -0.4375 -1.0625q-0.4375 -0.421875 -1.125 -0.421875q-0.6875 0 -1.140625 0.4375q-0.453125 0.421875 -0.59375 1.28125l-1.171875 -0.21875q0.21875 -1.171875 0.984375 -1.8125q0.765625 -0.65625 1.890625 -0.65625q0.78125 0 1.4375 0.34375q0.65625 0.328125 1.0 0.90625q0.359375 0.578125 0.359375 1.234375q0 0.609375 -0.34375 1.125q-0.328125 0.5 -0.96875 0.796875q0.84375 0.203125 1.3125 0.828125q0.46875 0.609375 0.46875 1.53125q0 1.25 -0.921875 2.125q-0.90625 0.859375 -2.296875 0.859375q-1.25 0 -2.09375 -0.75q-0.828125 -0.75 -0.9375 -1.9375zm18.381092 -0.828125l1.265625 0.3125q-0.390625 1.5625 -1.421875 2.375q-1.03125 0.8125 -2.53125 0.8125q-1.5312538 0 -2.5000038 -0.625q-0.96875 -0.625 -1.484375 -1.8125q-0.5 -1.1875 -0.5 -2.5625q0 -1.484375 0.5625 -2.59375q0.578125 -1.109375 1.625 -1.6875q1.0625 -0.578125 2.3281288 -0.578125q1.421875 0 2.390625 0.734375q0.984375 0.71875 1.375 2.046875l-1.25 0.296875q-0.328125 -1.046875 -0.96875 -1.515625q-0.625 -0.484375 -1.578125 -0.484375q-1.0937538 0 -1.8437538 0.53125q-0.734375 0.53125 -1.03125 1.421875q-0.296875 0.875 -0.296875 1.828125q0 1.21875 0.34375 2.125q0.359375 0.90625 1.109375 1.359375q0.75 0.4375 1.6250038 0.4375q1.0625 0 1.796875 -0.609375q0.734375 -0.609375 0.984375 -1.8125zm2.2345276 -0.109375q0 -1.921875 1.078125 -2.84375q0.890625 -0.765625 2.171875 -0.765625q1.421875 0 2.328125 0.9375q0.90625 0.921875 0.90625 2.578125q0 1.328125 -0.40625 2.09375q-0.390625 0.765625 -1.15625 1.1875q-0.765625 0.421875 -1.671875 0.421875q-1.453125 0 -2.359375 -0.921875q-0.890625 -0.9375 -0.890625 -2.6875zm1.203125 0q0 1.328125 0.578125 1.984375q0.59375 0.65625 1.46875 0.65625q0.875 0 1.453125 -0.65625q0.578125 -0.671875 0.578125 -2.03125q0 -1.28125 -0.59375 -1.9375q-0.578125 -0.65625 -1.4375 -0.65625q-0.875 0 -1.46875 0.65625q-0.578125 0.65625 -0.578125 1.984375zm6.6468506 3.453125l0 -6.90625l1.046875 0l0 0.96875q0.328125 -0.515625 0.859375 -0.8125q0.546875 -0.3125 1.234375 -0.3125q0.78125 0 1.265625 0.3125q0.484375 0.3125 0.6875 0.890625q0.828125 -1.203125 2.140625 -1.203125q1.03125 0 1.578125 0.578125q0.5625 0.5625 0.5625 1.734375l0 4.75l-1.171875 0l0 -4.359375q0 -0.703125 -0.125 -1.0q-0.109375 -0.3125 -0.40625 -0.5q-0.296875 -0.1875 -0.703125 -0.1875q-0.71875 0 -1.203125 0.484375q-0.484375 0.484375 -0.484375 1.546875l0 4.015625l-1.171875 0l0 -4.484375q0 -0.78125 -0.296875 -1.171875q-0.28125 -0.390625 -0.921875 -0.390625q-0.5 0 -0.921875 0.265625q-0.421875 0.25 -0.609375 0.75q-0.1875 0.5 -0.1875 1.453125l0 3.578125l-1.171875 0zm11.102432 2.65625l0 -9.5625l1.078125 0l0 0.890625q0.375 -0.53125 0.84375 -0.78125q0.484375 -0.265625 1.15625 -0.265625q0.875 0 1.546875 0.453125q0.6875 0.453125 1.03125 1.28125q0.34375 0.828125 0.34375 1.828125q0 1.046875 -0.375 1.90625q-0.375 0.84375 -1.109375 1.296875q-0.71875 0.453125 -1.53125 0.453125q-0.578125 0 -1.046875 -0.25q-0.46875 -0.25 -0.765625 -0.625l0 3.375l-1.171875 0zm1.0625 -6.078125q0 1.34375 0.53125 1.984375q0.546875 0.625 1.3125 0.625q0.78125 0 1.34375 -0.65625q0.5625 -0.65625 0.5625 -2.046875q0 -1.3125 -0.546875 -1.96875q-0.546875 -0.671875 -1.296875 -0.671875q-0.75 0 -1.328125 0.703125q-0.578125 0.703125 -0.578125 2.03125zm10.865601 2.5625q-0.65625 0.5625 -1.265625 0.796875q-0.59375 0.21875 -1.28125 0.21875q-1.140625 0 -1.75 -0.546875q-0.609375 -0.5625 -0.609375 -1.4375q0 -0.5 0.21875 -0.921875q0.234375 -0.421875 0.609375 -0.671875q0.375 -0.25 0.84375 -0.390625q0.34375 -0.078125 1.046875 -0.171875q1.421875 -0.171875 2.09375 -0.40625q0 -0.234375 0 -0.296875q0 -0.71875 -0.328125 -1.015625q-0.453125 -0.390625 -1.34375 -0.390625q-0.8125 0 -1.21875 0.296875q-0.390625 0.28125 -0.578125 1.015625l-1.140625 -0.15625q0.15625 -0.734375 0.515625 -1.1875q0.359375 -0.453125 1.03125 -0.6875q0.671875 -0.25 1.5625 -0.25q0.890625 0 1.4375 0.203125q0.5625 0.203125 0.8125 0.53125q0.265625 0.3125 0.375 0.796875q0.046875 0.296875 0.046875 1.078125l0 1.5625q0 1.625 0.078125 2.0625q0.078125 0.4375 0.296875 0.828125l-1.21875 0q-0.1875 -0.359375 -0.234375 -0.859375zm-0.09375 -2.609375q-0.640625 0.265625 -1.921875 0.4375q-0.71875 0.109375 -1.015625 0.25q-0.296875 0.125 -0.46875 0.375q-0.15625 0.25 -0.15625 0.546875q0 0.46875 0.34375 0.78125q0.359375 0.3125 1.046875 0.3125q0.671875 0 1.203125 -0.296875q0.53125 -0.296875 0.78125 -0.8125q0.1875 -0.390625 0.1875 -1.171875l0 -0.421875zm5.5531006 2.421875l0.171875 1.03125q-0.5 0.109375 -0.890625 0.109375q-0.640625 0 -1.0 -0.203125q-0.34375 -0.203125 -0.484375 -0.53125q-0.140625 -0.328125 -0.140625 -1.390625l0 -3.96875l-0.859375 0l0 -0.90625l0.859375 0l0 -1.71875l1.171875 -0.703125l0 2.421875l1.171875 0l0 0.90625l-1.171875 0l0 4.046875q0 0.5 0.046875 0.640625q0.0625 0.140625 0.203125 0.234375q0.140625 0.078125 0.40625 0.078125q0.203125 0 0.515625 -0.046875zm1.1561127 -7.140625l0 -1.359375l1.171875 0l0 1.359375l-1.171875 0zm0 8.1875l0 -6.90625l1.171875 0l0 6.90625l-1.171875 0zm4.02359 0l-1.078125 0l0 -9.546875l1.171875 0l0 3.40625q0.734375 -0.921875 1.890625 -0.921875q0.640625 0 1.203125 0.265625q0.578125 0.25 0.9375 0.71875q0.375 0.453125 0.578125 1.109375q0.203125 0.65625 0.203125 1.40625q0 1.78125 -0.875 2.75q-0.875 0.96875 -2.109375 0.96875q-1.21875 0 -1.921875 -1.015625l0 0.859375zm0 -3.5q0 1.234375 0.328125 1.78125q0.5625 0.90625 1.5 0.90625q0.765625 0 1.328125 -0.65625q0.5625 -0.671875 0.5625 -2.0q0 -1.34375 -0.546875 -1.984375q-0.53125 -0.65625 -1.296875 -0.65625q-0.765625 0 -1.328125 0.671875q-0.546875 0.671875 -0.546875 1.9375zm6.3187256 3.5l0 -9.546875l1.171875 0l0 9.546875l-1.171875 0zm7.71109 -2.21875l1.203125 0.140625q-0.28125 1.0625 -1.0625 1.65625q-0.765625 0.578125 -1.96875 0.578125q-1.515625 0 -2.40625 -0.9375q-0.890625 -0.9375 -0.890625 -2.609375q0 -1.75 0.890625 -2.703125q0.90625 -0.96875 2.34375 -0.96875q1.390625 0 2.265625 0.9375q0.875 0.9375 0.875 2.65625q0 0.109375 0 0.3125l-5.15625 0q0.0625 1.140625 0.640625 1.75q0.578125 0.59375 1.4375 0.59375q0.65625 0 1.109375 -0.328125q0.453125 -0.34375 0.71875 -1.078125zm-3.84375 -1.90625l3.859375 0q-0.078125 -0.859375 -0.4375 -1.296875q-0.5625 -0.6875 -1.453125 -0.6875q-0.8125 0 -1.359375 0.546875q-0.546875 0.53125 -0.609375 1.4375zm9.943581 1.0625l1.203125 -0.109375q0.078125 0.71875 0.390625 1.1875q0.3125 0.453125 0.953125 0.734375q0.65625 0.28125 1.46875 0.28125q0.71875 0 1.265625 -0.21875q0.5625 -0.21875 0.828125 -0.578125q0.265625 -0.375 0.265625 -0.828125q0 -0.453125 -0.265625 -0.78125q-0.25 -0.328125 -0.84375 -0.5625q-0.390625 -0.15625 -1.703125 -0.46875q-1.3125 -0.3125 -1.84375 -0.59375q-0.671875 -0.359375 -1.015625 -0.890625q-0.328125 -0.53125 -0.328125 -1.1875q0 -0.71875 0.40625 -1.34375q0.40625 -0.625 1.1875 -0.953125q0.796875 -0.328125 1.765625 -0.328125q1.046875 0 1.859375 0.34375q0.8125 0.34375 1.25 1.015625q0.4375 0.65625 0.46875 1.484375l-1.203125 0.09375q-0.109375 -0.90625 -0.671875 -1.359375q-0.5625 -0.46875 -1.65625 -0.46875q-1.140625 0 -1.671875 0.421875q-0.515625 0.421875 -0.515625 1.015625q0 0.515625 0.359375 0.84375q0.375 0.328125 1.90625 0.6875q1.546875 0.34375 2.109375 0.59375q0.84375 0.390625 1.234375 0.984375q0.390625 0.578125 0.390625 1.359375q0 0.75 -0.4375 1.4375q-0.421875 0.671875 -1.25 1.046875q-0.8125 0.359375 -1.828125 0.359375q-1.296875 0 -2.171875 -0.375q-0.875 -0.375 -1.375 -1.125q-0.5 -0.765625 -0.53125 -1.71875zm9.3272705 3.0625l0 -9.546875l3.28125 0q1.109375 0 1.703125 0.140625q0.8125 0.1875 1.390625 0.6875q0.765625 0.640625 1.140625 1.640625q0.375 0.984375 0.375 2.25q0 1.09375 -0.265625 1.9375q-0.25 0.828125 -0.65625 1.390625q-0.390625 0.546875 -0.859375 0.859375q-0.46875 0.3125 -1.140625 0.484375q-0.65625 0.15625 -1.53125 0.15625l-3.4375 0zm1.265625 -1.125l2.03125 0q0.9375 0 1.46875 -0.171875q0.546875 -0.1875 0.875 -0.5q0.4375 -0.453125 0.6875 -1.203125q0.25 -0.765625 0.25 -1.84375q0 -1.5 -0.5 -2.296875q-0.484375 -0.8125 -1.1875 -1.078125q-0.5 -0.203125 -1.625 -0.203125l-2.0 0l0 7.296875zm8.297028 1.125l0 -9.546875l1.265625 0l0 4.734375l4.734375 -4.734375l1.71875 0l-4.0 3.875l4.171875 5.671875l-1.65625 0l-3.40625 -4.828125l-1.5625 1.515625l0 3.3125l-1.265625 0z" fill-rule="nonzero"/><path fill="#000000" fill-opacity="0.0" d="m192.28871 31.524935l156.7874 0l0 0.062992096l156.78741 0" fill-rule="evenodd"/><path stroke="#ff0000" stroke-width="2.0" stroke-linejoin="round" stroke-linecap="butt" d="m204.28871 31.524935l144.7874 0l0 0.062992096l144.78741 0" fill-rule="evenodd"/><path fill="#ff0000" stroke="#ff0000" stroke-width="2.0" stroke-linecap="butt" d="m204.28871 28.22147l-9.076187 3.303465l9.076187 3.303465z" fill-rule="evenodd"/><path fill="#ff0000" stroke="#ff0000" stroke-width="2.0" stroke-linecap="butt" d="m493.86353 34.89139l9.076172 -3.303465l-9.076172 -3.303465z" fill-rule="evenodd"/><path fill="#000000" fill-opacity="0.0" d="m192.28871 92.96588l156.3622 0l0 0.06298828l156.36221 0" fill-rule="evenodd"/><path stroke="#ff9900" stroke-width="2.0" stroke-linejoin="round" stroke-linecap="butt" d="m204.28871 92.96588l144.3622 0l0 0.06298828l144.36221 0" fill-rule="evenodd"/><path fill="#ff9900" stroke="#ff9900" stroke-width="2.0" stroke-linecap="butt" d="m204.28871 89.662415l-9.076187 3.3034668l9.076187 3.3034592z" fill-rule="evenodd"/><path fill="#ff9900" stroke="#ff9900" stroke-width="2.0" stroke-linecap="butt" d="m493.01312 96.33234l9.076202 -3.3034668l-9.076202 -3.3034668z" fill-rule="evenodd"/><path fill="#000000" fill-opacity="0.0" d="m193.13649 278.55905l155.5118 0l0 0.06298828l155.51181 0" fill-rule="evenodd"/><path stroke="#9900ff" stroke-width="2.0" stroke-linejoin="round" stroke-linecap="butt" d="m205.13649 278.55905l143.5118 0l0 0.06298828l143.51181 0" fill-rule="evenodd"/><path fill="#9900ff" stroke="#9900ff" stroke-width="2.0" stroke-linecap="butt" d="m205.13649 275.25558l-9.076202 3.3034668l9.076202 3.3034668z" fill-rule="evenodd"/><path fill="#9900ff" stroke="#9900ff" stroke-width="2.0" stroke-linecap="butt" d="m492.1601 281.9255l9.076202 -3.3034668l-9.076202 -3.3034668z" fill-rule="evenodd"/><path fill="#000000" fill-opacity="0.0" d="m192.28871 219.23622l156.56694 0l0 0.06298828l156.56693 0" fill-rule="evenodd"/><path stroke="#4a86e8" stroke-width="2.0" stroke-linejoin="round" stroke-linecap="butt" d="m204.28871 219.23622l144.56694 0l0 0.06298828l144.56693 0" fill-rule="evenodd"/><path fill="#4a86e8" stroke="#4a86e8" stroke-width="2.0" stroke-linecap="butt" d="m204.28871 215.93275l-9.076187 3.3034668l9.076187 3.3034668z" fill-rule="evenodd"/><path fill="#4a86e8" stroke="#4a86e8" stroke-width="2.0" stroke-linecap="butt" d="m493.42258 222.60268l9.076202 -3.3034668l-9.076202 -3.3034668z" fill-rule="evenodd"/><path fill="#000000" fill-opacity="0.0" d="m191.45407 155.66142l156.96063 0l0 -1.1023712l156.96063 0" fill-rule="evenodd"/><path stroke="#00ff00" stroke-width="2.0" stroke-linejoin="round" stroke-linecap="butt" d="m203.45407 155.66142l144.96063 0l0 -1.1023712l144.96063 0" fill-rule="evenodd"/><path fill="#00ff00" stroke="#00ff00" stroke-width="2.0" stroke-linecap="butt" d="m203.45407 152.35796l-9.076202 3.3034668l9.076202 3.3034668z" fill-rule="evenodd"/><path fill="#00ff00" stroke="#00ff00" stroke-width="2.0" stroke-linecap="butt" d="m493.37534 157.86252l9.076202 -3.3034668l-9.076202 -3.3034668z" fill-rule="evenodd"/><path fill="#00303f" d="m323.79266 34.150013l0 0c0 -11.21117 9.08844 -20.29962 20.299591 -20.29962l81.196045 0l0 0c5.383789 0 10.547089 2.1387043 14.354004 5.9456215c3.8069153 3.8069172 5.9456177 8.970203 5.9456177 14.353998l0 240.8181c0 11.211151 -9.08844 20.299622 -20.299622 20.299622l-81.196045 0c-11.211151 0 -20.299591 -9.08847 -20.299591 -20.299622z" fill-rule="evenodd"/><path stroke="#980000" stroke-width="4.0" stroke-linejoin="round" stroke-linecap="butt" d="m323.79266 34.150013l0 0c0 -11.21117 9.08844 -20.29962 20.299591 -20.29962l81.196045 0l0 0c5.383789 0 10.547089 2.1387043 14.354004 5.9456215c3.8069153 3.8069172 5.9456177 8.970203 5.9456177 14.353998l0 240.8181c0 11.211151 -9.08844 20.299622 -20.299622 20.299622l-81.196045 0c-11.211151 0 -20.299591 -9.08847 -20.299591 -20.299622z" fill-rule="evenodd"/><path fill="#ffffff" d="m363.84595 150.47905l0 -13.25l2.6875 0l0 11.0l6.703125 0l0 2.25l-9.390625 0zm10.708496 -4.96875q0 -1.28125 0.625 -2.46875q0.625 -1.203125 1.78125 -1.828125q1.15625 -0.625 2.578125 -0.625q2.1875 0 3.59375 1.421875q1.40625 1.421875 1.40625 3.609375q0 2.1875 -1.421875 3.640625q-1.421875 1.4375 -3.5625 1.4375q-1.328125 0 -2.546875 -0.59375q-1.203125 -0.609375 -1.828125 -1.765625q-0.625 -1.171875 -0.625 -2.828125zm2.625 0.125q0 1.453125 0.671875 2.21875q0.6875 0.75 1.6875 0.75q1.0 0 1.671875 -0.75q0.6875 -0.765625 0.6875 -2.234375q0 -1.421875 -0.6875 -2.1875q-0.671875 -0.765625 -1.671875 -0.765625q-1.0 0 -1.6875 0.765625q-0.671875 0.765625 -0.671875 2.203125zm11.270966 -1.875l-2.328125 -0.421875q0.40625 -1.40625 1.359375 -2.078125q0.953125 -0.671875 2.84375 -0.671875q1.703125 0 2.546875 0.40625q0.84375 0.40625 1.1719055 1.03125q0.34375 0.625 0.34375 2.28125l-0.015625 3.0q0 1.265625 0.109375 1.875q0.125 0.609375 0.46875 1.296875l-2.5312805 0q-0.109375 -0.25 -0.25 -0.75q-0.0625 -0.234375 -0.09375 -0.3125q-0.65625 0.640625 -1.40625 0.96875q-0.734375 0.3125 -1.59375 0.3125q-1.484375 0 -2.34375 -0.8125q-0.859375 -0.8125 -0.859375 -2.046875q0 -0.828125 0.390625 -1.46875q0.390625 -0.640625 1.09375 -0.96875q0.703125 -0.34375 2.03125 -0.609375q1.796875 -0.328125 2.484375 -0.625l0 -0.25q0 -0.75 -0.359375 -1.0625q-0.359375 -0.3125 -1.375 -0.3125q-0.6875 0 -1.078125 0.28125q-0.375 0.265625 -0.609375 0.9375zm3.421875 2.078125q-0.484375 0.15625 -1.5625 0.390625q-1.0625 0.21875 -1.390625 0.4375q-0.5 0.359375 -0.5 0.90625q0 0.53125 0.40625 0.9375q0.40625 0.390625 1.015625 0.390625q0.703125 0 1.328125 -0.46875q0.46875 -0.34375 0.609375 -0.84375q0.09375 -0.328125 0.09375 -1.25l0 -0.5zm13.922607 4.640625l-2.390625 0l0 -1.421875q-0.59375 0.828125 -1.40625 1.234375q-0.796875 0.40625 -1.609375 0.40625q-1.671875 0 -2.859375 -1.34375q-1.1875 -1.34375 -1.1875 -3.75q0 -2.453125 1.15625 -3.734375q1.15625 -1.28125 2.921875 -1.28125q1.625 0 2.8125 1.34375l0 -4.8125l2.5625 0l0 13.359375zm-6.84375 -5.046875q0 1.546875 0.4375 2.234375q0.609375 1.015625 1.71875 1.015625q0.890625 0 1.5 -0.75q0.625 -0.765625 0.625 -2.25q0 -1.671875 -0.609375 -2.40625q-0.59375 -0.734375 -1.53125 -0.734375q-0.90625 0 -1.53125 0.734375q-0.609375 0.71875 -0.609375 2.15625z" fill-rule="nonzero"/><path fill="#ffffff" d="m346.64197 159.11967l5.34375 0q1.59375 0 2.359375 0.140625q0.78125 0.125 1.390625 0.546875q0.625 0.421875 1.03125 1.125q0.40625 0.6875 0.40625 1.546875q0 0.9375 -0.5 1.734375q-0.5 0.78125 -1.375 1.171875q1.21875 0.359375 1.875 1.21875q0.65625 0.84375 0.65625 2.0q0 0.921875 -0.421875 1.78125q-0.421875 0.859375 -1.15625 1.375q-0.734375 0.515625 -1.796875 0.625q-0.6875 0.078125 -3.265625 0.09375l-4.546875 0l0 -13.359375zm2.703125 2.234375l0 3.078125l1.765625 0q1.578125 0 1.953125 -0.046875q0.703125 -0.078125 1.09375 -0.46875q0.40625 -0.40625 0.40625 -1.046875q0 -0.625 -0.34375 -1.0q-0.34375 -0.390625 -1.015625 -0.484375q-0.40625 -0.03125 -2.3125 -0.03125l-1.546875 0zm0 5.296875l0 3.578125l2.5 0q1.453125 0 1.84375 -0.078125q0.609375 -0.109375 0.984375 -0.53125q0.375 -0.421875 0.375 -1.140625q0 -0.59375 -0.296875 -1.015625q-0.28125 -0.421875 -0.84375 -0.609375q-0.546875 -0.203125 -2.390625 -0.203125l-2.171875 0zm12.660461 -0.890625l-2.328125 -0.421875q0.40625 -1.40625 1.359375 -2.078125q0.953125 -0.671875 2.84375 -0.671875q1.703125 0 2.546875 0.40625q0.84375 0.40625 1.171875 1.03125q0.34375 0.625 0.34375 2.28125l-0.015625 3.0q0 1.265625 0.109375 1.875q0.125 0.609375 0.46875 1.296875l-2.53125 0q-0.109375 -0.25 -0.25 -0.75q-0.0625 -0.234375 -0.09375 -0.3125q-0.65625 0.640625 -1.40625 0.96875q-0.734375 0.3125 -1.59375 0.3125q-1.484375 0 -2.34375 -0.8125q-0.859375 -0.8125 -0.859375 -2.046875q0 -0.828125 0.390625 -1.46875q0.390625 -0.640625 1.09375 -0.96875q0.703125 -0.34375 2.03125 -0.609375q1.796875 -0.328125 2.484375 -0.625l0 -0.25q0 -0.75 -0.359375 -1.0625q-0.359375 -0.3125 -1.375 -0.3125q-0.6875 0 -1.078125 0.28125q-0.375 0.265625 -0.609375 0.9375zm3.421875 2.078125q-0.484375 0.15625 -1.5625 0.390625q-1.0625 0.21875 -1.390625 0.4375q-0.5 0.359375 -0.5 0.90625q0 0.53125 0.40625 0.9375q0.40625 0.390625 1.015625 0.390625q0.703125 0 1.328125 -0.46875q0.46875 -0.34375 0.609375 -0.84375q0.09375 -0.328125 0.09375 -1.25l0 -0.5zm5.047577 4.640625l0 -13.359375l2.5625 0l0 13.359375l-2.5625 0zm7.089569 -6.71875l-2.328125 -0.421875q0.40625 -1.40625 1.359375 -2.078125q0.953125 -0.671875 2.84375 -0.671875q1.703125 0 2.546875 0.40625q0.84375 0.40625 1.171875 1.03125q0.34375 0.625 0.34375 2.28125l-0.015625 3.0q0 1.265625 0.109375 1.875q0.125 0.609375 0.46875 1.296875l-2.53125 0q-0.109375 -0.25 -0.25 -0.75q-0.0625 -0.234375 -0.09375 -0.3125q-0.65625 0.640625 -1.40625 0.96875q-0.734375 0.3125 -1.59375 0.3125q-1.484375 0 -2.34375 -0.8125q-0.859375 -0.8125 -0.859375 -2.046875q0 -0.828125 0.390625 -1.46875q0.390625 -0.640625 1.09375 -0.96875q0.703125 -0.34375 2.03125 -0.609375q1.796875 -0.328125 2.484375 -0.625l0 -0.25q0 -0.75 -0.359375 -1.0625q-0.359375 -0.3125 -1.375 -0.3125q-0.6875 0 -1.078125 0.28125q-0.375 0.265625 -0.609375 0.9375zm3.421875 2.078125q-0.484375 0.15625 -1.5625 0.390625q-1.0625 0.21875 -1.390625 0.4375q-0.5 0.359375 -0.5 0.90625q0 0.53125 0.40625 0.9375q0.40625 0.390625 1.015625 0.390625q0.703125 0 1.328125 -0.46875q0.46875 -0.34375 0.609375 -0.84375q0.09375 -0.328125 0.09375 -1.25l0 -0.5zm13.844482 4.640625l-2.5625305 0l0 -4.9375q0 -1.5625 -0.171875 -2.015625q-0.15625 -0.46875 -0.53125 -0.71875q-0.359375 -0.265625 -0.875 -0.265625q-0.671875 0 -1.203125 0.375q-0.53125 0.359375 -0.734375 0.96875q-0.1875 0.59375 -0.1875 2.21875l0 4.375l-2.546875 0l0 -9.671875l2.375 0l0 1.421875q1.265625 -1.640625 3.1875 -1.640625q0.84375 0 1.546875 0.3125q0.7031555 0.296875 1.0625305 0.78125q0.359375 0.46875 0.5 1.078125q0.140625 0.59375 0.140625 1.703125l0 6.015625zm11.036591 -6.8125l-2.53125 0.453125q-0.125 -0.75 -0.578125 -1.125q-0.453125 -0.390625 -1.171875 -0.390625q-0.953125 0 -1.53125 0.65625q-0.5625 0.65625 -0.5625 2.203125q0 1.734375 0.578125 2.4375q0.578125 0.703125 1.546875 0.703125q0.734375 0 1.203125 -0.40625q0.46875 -0.421875 0.65625 -1.421875l2.515625 0.421875q-0.390625 1.734375 -1.515625 2.625q-1.109375 0.875 -2.96875 0.875q-2.125 0 -3.390625 -1.328125q-1.25 -1.34375 -1.25 -3.71875q0 -2.390625 1.265625 -3.71875q1.265625 -1.34375 3.421875 -1.34375q1.765625 0 2.796875 0.765625q1.046875 0.75 1.515625 2.3125zm7.5319824 3.734375l2.546875 0.421875q-0.484375 1.40625 -1.546875 2.140625q-1.0625 0.734375 -2.65625 0.734375q-2.515625 0 -3.734375 -1.65625q-0.953125 -1.3125 -0.953125 -3.328125q0 -2.40625 1.25 -3.765625q1.265625 -1.359375 3.1875 -1.359375q2.15625 0 3.40625 1.421875q1.25 1.421875 1.1875 4.375l-6.40625 0q0.03125 1.140625 0.609375 1.78125q0.59375 0.625 1.484375 0.625q0.59375 0 1.0 -0.328125q0.421875 -0.328125 0.625 -1.0625zm0.15625 -2.59375q-0.03125 -1.109375 -0.578125 -1.6875q-0.546875 -0.578125 -1.328125 -0.578125q-0.84375 0 -1.390625 0.609375q-0.546875 0.609375 -0.53125 1.65625l3.828125 0zm7.078827 5.671875l-2.5625 0l0 -9.671875l2.375 0l0 1.375q0.609375 -0.984375 1.09375 -1.28125q0.484375 -0.3125 1.109375 -0.3125q0.875 0 1.6875 0.484375l-0.796875 2.234375q-0.640625 -0.421875 -1.203125 -0.421875q-0.53125 0 -0.90625 0.296875q-0.375 0.296875 -0.59375 1.078125q-0.203125 0.765625 -0.203125 3.234375l0 2.984375z" fill-rule="nonzero"/><path fill="#c72e49" d="m505.37534 34.150013l0 0c0 -11.21117 9.08847 -20.29962 20.299591 -20.29962l81.196045 0l0 0c5.383789 0 10.547119 2.1387043 14.354004 5.9456215c3.8069458 3.8069172 5.9456177 8.970203 5.9456177 14.353998l0 240.8181c0 11.211151 -9.08844 20.299622 -20.299622 20.299622l-81.196045 0c-11.211121 0 -20.299591 -9.08847 -20.299591 -20.299622z" fill-rule="evenodd"/><path stroke="#980000" stroke-width="4.0" stroke-linejoin="round" stroke-linecap="butt" d="m505.37534 34.150013l0 0c0 -11.21117 9.08847 -20.29962 20.299591 -20.29962l81.196045 0l0 0c5.383789 0 10.547119 2.1387043 14.354004 5.9456215c3.8069458 3.8069172 5.9456177 8.970203 5.9456177 14.353998l0 240.8181c0 11.211151 -9.08844 20.299622 -20.299622 20.299622l-81.196045 0c-11.211121 0 -20.299591 -9.08847 -20.299591 -20.299622z" fill-rule="evenodd"/><path fill="#ffffff" d="m541.69366 161.47905l0 -13.359375l4.03125 0l2.421875 9.109375l2.390625 -9.109375l4.046875 0l0 13.359375l-2.5 0l0 -10.515625l-2.65625 10.515625l-2.59375 0l-2.640625 -10.515625l0 10.515625l-2.5 0zm15.5564575 -10.984375l0 -2.375l2.5625 0l0 2.375l-2.5625 0zm0 10.984375l0 -9.671875l2.5625 0l0 9.671875l-2.5625 0zm13.980164 0l-2.5625 0l0 -4.9375q0 -1.5625 -0.171875 -2.015625q-0.15625 -0.46875 -0.53125 -0.71875q-0.359375 -0.265625 -0.875 -0.265625q-0.671875 0 -1.203125 0.375q-0.53125 0.359375 -0.734375 0.96875q-0.1875 0.59375 -0.1875 2.21875l0 4.375l-2.546875 0l0 -9.671875l2.375 0l0 1.421875q1.265625 -1.640625 3.1875 -1.640625q0.84375 0 1.546875 0.3125q0.703125 0.296875 1.0625 0.78125q0.359375 0.46875 0.5 1.078125q0.140625 0.59375 0.140625 1.703125l0 6.015625zm2.536621 0l0 -13.359375l2.6875 0l0 13.359375l-2.6875 0zm4.7145386 -6.59375q0 -2.046875 0.609375 -3.421875q0.453125 -1.03125 1.234375 -1.828125q0.796875 -0.8125 1.734375 -1.203125q1.25 -0.53125 2.875 -0.53125q2.953125 0 4.71875 1.828125q1.78125 1.828125 1.78125 5.09375q0 3.234375 -1.765625 5.0625q-1.75 1.828125 -4.6875 1.828125q-2.984375 0 -4.75 -1.8125q-1.75 -1.828125 -1.75 -5.015625zm2.78125 -0.09375q0 2.265625 1.046875 3.4375q1.046875 1.171875 2.65625 1.171875q1.609375 0 2.640625 -1.15625q1.046875 -1.171875 1.046875 -3.484375q0 -2.296875 -1.015625 -3.421875q-1.0 -1.140625 -2.671875 -1.140625q-1.671875 0 -2.6875 1.15625q-1.015625 1.140625 -1.015625 3.4375z" fill-rule="nonzero"/></g></svg>