<?xml version="1.0" encoding="UTF-8" standalone="no"?>
<svg
   id="a"
   viewBox="0 0 645.33 192.33001"
   version="1.1"
   sodipodi:docname="architecture-4-node-deploy.svg"
   inkscape:version="1.2.2 (b0a8486541, 2022-12-01)"
   width="645.33002"
   height="192.33"
   xmlns:inkscape="http://www.inkscape.org/namespaces/inkscape"
   xmlns:sodipodi="http://sodipodi.sourceforge.net/DTD/sodipodi-0.dtd"
   xmlns="http://www.w3.org/2000/svg"
   xmlns:svg="http://www.w3.org/2000/svg">
  <sodipodi:namedview
     id="namedview285"
     pagecolor="#505050"
     bordercolor="#eeeeee"
     borderopacity="1"
     inkscape:showpageshadow="0"
     inkscape:pageopacity="0"
     inkscape:pagecheckerboard="0"
     inkscape:deskcolor="#505050"
     showgrid="false"
     inkscape:zoom="3.6049406"
     inkscape:cx="288.90906"
     inkscape:cy="195.70364"
     inkscape:window-width="3840"
     inkscape:window-height="2123"
     inkscape:window-x="3840"
     inkscape:window-y="0"
     inkscape:window-maximized="1"
     inkscape:current-layer="a" />
  <defs
     id="defs4">
    <style
       id="style2">.b{letter-spacing:0em;}.c{letter-spacing:-.02em;}.d{letter-spacing:-.03em;}.e{letter-spacing:-.03em;}.f,.g{fill:#fff;}.h{fill:#cf2144;}.i{fill:#dcf3f4;}.j{letter-spacing:-.04em;}.g{font-size:15.44px;}.g,.k{font-family:Inter-Bold, Inter;font-variation-settings:'wght' 700, 'slnt' 0;font-weight:700;}.l{fill:none;stroke:#cf2144;stroke-miterlimit:10;}.m{font-family:Inter-Medium, Inter;font-size:12.12px;font-variation-settings:'wght' 500, 'slnt' 0;font-weight:500;}.n{letter-spacing:-.03em;}.o{letter-spacing:-.03em;}.k{font-size:8.52px;}.p{letter-spacing:-.03em;}</style>
  </defs>
  <path
     id="rect6"
     class="l"
     style="fill:none;stroke:#cf2144;stroke-miterlimit:10"
     d="M 0,1.6 H 145.89 V 119.52 H 0 Z" />
  <path
     id="rect8"
     class="h"
     style="fill:#cf2144"
     d="m 0,138 h 645.33002 v 52.93 H 0 Z" />
  <g
     id="g36">
    <g
       id="g22">
      <g
         id="g16">
        <path
           id="rect10"
           class="f"
           style="fill:#ffffff"
           d="m 231.28999,159.56 h 4.49 v 11.71 h -4.49 z" />
        <path
           class="f"
           d="m 225.85,159.72 -9.11,4.92 c -0.13,0.07 -0.29,0.07 -0.42,0 l -9.11,-4.92 c -0.2,-0.11 -0.42,-0.16 -0.65,-0.16 h -0.01 c -0.69,0 -1.25,0.49 -1.25,1.1 v 10.59 c 0,0 4.49,0 4.49,0 v -5.04 c 0,-0.31 0.38,-0.5 0.68,-0.34 l 5.11,2.76 c 0.5,0.27 1.14,0.28 1.64,0.01 l 5.39,-2.79 c 0.3,-0.15 0.68,0.04 0.68,0.34 v 5.06 c 0,0 4.49,0 4.49,0 v -10.59 c 0,-0.61 -0.56,-1.1 -1.25,-1.1 h -0.01 c -0.23,0 -0.46,0.06 -0.65,0.16 z"
           id="path12" />
        <path
           class="f"
           d="m 258.17,159.56 h -4.55 c 0,0 0,5.33 0,5.33 0,0.3 -0.36,0.49 -0.66,0.35 l -11.8,-5.55 c -0.18,-0.09 -0.38,-0.13 -0.59,-0.13 v 0 c -0.69,0 -1.25,0.49 -1.25,1.1 v 10.59 c 0,0 4.52,0 4.52,0 v -5.32 c 0,-0.3 0.36,-0.49 0.66,-0.35 l 11.85,5.55 c 0.18,0.08 0.38,0.13 0.59,0.13 v 0 c 0.69,0 1.25,-0.49 1.25,-1.1 v -10.6 z"
           id="path14" />
      </g>
      <path
         class="f"
         d="m 261.7,171.27 v -11.71 h 2.07 v 11.71 z"
         id="path18" />
      <path
         class="f"
         d="m 275.93,171.48 c -5.56,0 -9.5,-2.33 -9.5,-6.06 0,-3.71 3.97,-6.06 9.5,-6.06 5.53,0 9.53,2.33 9.53,6.06 0,3.73 -3.9,6.06 -9.53,6.06 z m 0,-10.57 c -4.13,0 -7.32,1.59 -7.32,4.51 0,2.94 3.18,4.51 7.32,4.51 4.13,0 7.34,-1.57 7.34,-4.51 0,-2.94 -3.21,-4.51 -7.34,-4.51 z"
         id="path20" />
    </g>
    <g
       aria-label="OBJECT STORAGE"
       transform="translate(296.08,172.06)"
       id="text34"
       class="g"
       style="font-weight:700;font-size:15.44px;font-family:Inter-Bold, Inter;font-variation-settings:'slnt' 0, 'wght' 700;fill:#ffffff">
      <path
         d="m 11.39472,-5.5275198 q 0,1.7138399 -0.57128,2.9953599 Q 10.2676,-1.26608 9.1095998,-0.55583998 7.9515998,0.1544 6.1451198,0.1544 4.3540799,0.1544 3.1806399,-0.55583998 2.0226399,-1.26608 1.45136,-2.5475999 q -0.55584002,-1.28152 -0.55584002,-2.9953599 0,-1.71384 0.55584002,-2.97992 0.5712799,-1.2660799 1.7292799,-1.9608802 1.17344,-0.71024 2.9799199,-0.71024 1.79104,0 2.94904,0.71024 1.1580002,0.6948003 1.7138402,1.9763202 0.57128,1.26608 0.57128,2.97992 z m -8.0442401,0 q 0,1.7292799 0.66392,2.7328799 0.66392,0.9881599 2.1307199,0.9881599 1.49768,0 2.14616,-0.9881599 0.64848,-1.0036 0.64848,-2.7328799 0,-1.74472 -0.64848,-2.73288 -0.64848,-0.9881599 -2.13072,-0.9881599 -1.4822399,0 -2.1461599,0.9881599 -0.66392,0.98816 -0.66392,2.73288 z"
         id="path2024" />
      <path
         d="m 17.107513,-11.02416 q 2.207919,0 3.335039,0.6176 1.12712,0.6176003 1.12712,2.1770402 0,0.94184 -0.44776,1.59032 -0.43232,0.64848 -1.25064,0.78744 v 0.0772 q 0.55584,0.10808 1.0036,0.3859999 0.44776,0.27792 0.71024,0.80288 0.26248,0.52496 0.26248,1.3896 0,1.4976799 -1.0808,2.34687992 Q 19.685992,0 17.802313,0 h -4.12248 v -11.02416 z m 0.26248,4.3695202 q 1.019039,0 1.405039,-0.32424 0.40144,-0.32424 0.40144,-0.94184 0,-0.63304 -0.4632,-0.91096 -0.4632,-0.27792 -1.466799,-0.27792 h -1.2352 v 2.45496 z m -1.35872,1.8527999 v 2.87184 h 1.52856 q 1.049919,0 1.466799,-0.40144 0.41688,-0.41688 0.41688,-1.09624 0,-0.6176 -0.43232,-0.98816 -0.41688,-0.386 -1.528559,-0.386 z"
         id="path2026" />
      <path
         d="m 22.897526,3.2423999 q -0.44776,0 -0.78744,-0.06176 -0.33968,-0.04632 -0.58672,-0.10808 V 1.12712 q 0.24704,0.06176 0.52496,0.10808 0.26248,0.04632 0.57128,0.04632 0.40144,0 0.72568,-0.1544 0.33968,-0.15440003 0.52496,-0.58672001 0.18528,-0.43231999 0.18528,-1.23519997 V -11.02416 h 2.33144 v 10.31392002 q 0,1.42047996 -0.44776,2.28511998 -0.43232,0.8800799 -1.21976,1.2660799 -0.78744,0.40144 -1.82192,0.40144 z"
         id="path2028" />
      <path
         d="m 35.511996,0 h -6.34584 v -11.02416 h 6.34584 v 1.9145602 h -4.0144 v 2.42408 h 3.73648 v 1.9145599 h -3.73648 v 2.84096 h 4.0144 z"
         id="path2030" />
      <path
         d="m 42.490867,-9.2331197 q -1.34328,0 -2.05352,1.0035999 -0.71024,1.0036 -0.71024,2.7483199 0,1.76016 0.64848,2.73288 0.66392,0.9572799 2.11528,0.9572799 0.67936,0 1.34328,-0.1543999 0.67936,-0.1544 1.4668,-0.43232 v 1.96087991 Q 44.575267,-0.12352 43.865027,0.01544 q -0.71024,0.13896 -1.59032,0.13896 -1.6984,0 -2.81008,-0.69479999 -1.09624,-0.71024001 -1.6212,-1.97631991 -0.52496,-1.28152 -0.52496,-2.97992 0,-1.6675199 0.60216,-2.9490399 0.60216,-1.2815199 1.74472,-2.0072002 1.158,-0.72568 2.82552,-0.72568 0.81832,0 1.63664,0.21616 0.83376,0.20072 1.59032,0.55584 l -0.75656,1.8991202 q -0.6176,-0.29336 -1.25064,-0.50952 -0.6176,-0.2161599 -1.21976,-0.2161599 z"
         id="path2032" />
      <path
         d="m 51.893813,0 h -2.33144 v -9.0787198 h -2.99536 V -11.02416 h 8.32216 v 1.9454402 h -2.99536 z"
         id="path2034" />
      <path
         d="m 67.102223,-3.0571199 q 0,1.4667999 -1.06536,2.34687992 Q 64.986943,0.1544 63.041503,0.1544 q -1.74472,0 -3.11888,-0.66391999 V -2.6865599 q 0.78744,0.33968 1.6212,0.63304 0.8492,0.2779199 1.68296,0.2779199 0.86464,0 1.21976,-0.3242399 0.37056,-0.33968 0.37056,-0.8492 0,-0.41688 -0.29336,-0.71024 -0.27792,-0.29336 -0.75656,-0.5404 -0.47864,-0.26248 -1.09624,-0.55584 -0.386,-0.18528 -0.83376,-0.43232 -0.44776,-0.26248 -0.86464,-0.6330399 -0.40144,-0.386 -0.66392,-0.9264 -0.26248,-0.5404 -0.26248,-1.29696 0,-1.4822399 1.0036,-2.3005602 1.0036,-0.83376 2.73288,-0.83376 0.86464,0 1.63664,0.20072 0.78744,0.20072 1.63664,0.57128 l -0.75656,1.8219202 q -0.75656,-0.3088 -1.35872,-0.47864 -0.60216,-0.1698399 -1.2352,-0.1698399 -0.66392,0 -1.01904,0.3087999 -0.35512,0.3088 -0.35512,0.80288 0,0.58672 0.52496,0.9264 0.52496,0.33968 1.55944,0.83376 0.8492,0.40144 1.43592,0.83376 0.60216,0.4323199 0.9264,1.0190399 0.32424,0.58672 0.32424,1.45136 z"
         id="path2036" />
      <path
         d="m 73.355433,0 h -2.33144 v -9.0787198 h -2.99536 V -11.02416 h 8.32216 v 1.9454402 h -2.99536 z"
         id="path2038" />
      <path
         d="m 87.745512,-5.5275198 q 0,1.7138399 -0.57128,2.9953599 -0.55584,1.2660799 -1.71384,1.97631992 -1.158,0.71023998 -2.96448,0.71023998 -1.79104,0 -2.96448,-0.71023998 -1.158,-0.71024002 -1.72928,-1.99175992 -0.55584,-1.28152 -0.55584,-2.9953599 0,-1.71384 0.55584,-2.97992 0.57128,-1.2660799 1.72928,-1.9608802 1.17344,-0.71024 2.97992,-0.71024 1.79104,0 2.94904,0.71024 1.158,0.6948003 1.71384,1.9763202 0.57128,1.26608 0.57128,2.97992 z m -8.04424,0 q 0,1.7292799 0.66392,2.7328799 0.66392,0.9881599 2.13072,0.9881599 1.49768,0 2.14616,-0.9881599 0.64848,-1.0036 0.64848,-2.7328799 0,-1.74472 -0.64848,-2.73288 -0.64848,-0.9881599 -2.13072,-0.9881599 -1.48224,0 -2.14616,0.9881599 -0.66392,0.98816 -0.66392,2.73288 z"
         id="path2040" />
      <path
         d="m 93.242149,-11.02416 q 2.25424,0 3.3196,0.81832 1.0808,0.8183203 1.0808,2.4858402 0,0.75656 -0.29336,1.32784 -0.27792,0.55584 -0.75656,0.9572799 -0.4632,0.386 -1.0036,0.63304 L 98.831429,0 h -2.59392 l -2.6248,-4.2305599 h -1.25064 V 0 h -2.33144 v -11.02416 z m -0.16984,1.9145602 h -0.71024 v 2.97992 h 0.75656 q 1.158,0 1.65208,-0.386 0.50952,-0.386 0.50952,-1.14256 0,-0.78744 -0.5404,-1.11168 -0.52496,-0.33968 -1.66752,-0.33968 z"
         id="path2042" />
      <path
         d="m 106.9683,0 -0.80288,-2.6247999 h -4.0144 L 101.34814,0 h -2.516719 l 3.890879,-11.07048 h 2.8564 L 109.48502,0 Z m -2.1616,-7.1487198 q -0.0772,-0.26248 -0.20072,-0.66392 -0.12352,-0.40144 -0.24704,-0.81832 -0.12352,-0.41688 -0.20072,-0.7256799 -0.0772,0.3087999 -0.21616,0.7719999 -0.12352,0.44776 -0.24704,0.86464 -0.10808,0.40144 -0.16984,0.57128 l -0.78744,2.5630399 h 2.87184 z"
         id="path2044" />
      <path
         d="m 114.75006,-6.1914398 h 4.36952 v 5.71279981 q -0.86464,0.29336 -1.80648,0.46319999 -0.9264,0.16984 -2.11528,0.16984 -2.4704,0 -3.79824,-1.45136 -1.32784,-1.4513599 -1.32784,-4.2305598 0,-1.72928 0.66392,-2.99536 0.67936,-1.2660799 1.96088,-1.9608802 1.28152,-0.6948 3.13432,-0.6948 0.88008,0 1.72928,0.18528 0.8492,0.18528 1.544,0.49408 l -0.772,1.8682402 q -0.50952,-0.26248 -1.158,-0.43232 -0.64848,-0.1698399 -1.35872,-0.1698399 -1.01904,0 -1.7756,0.4631999 -0.74112,0.4632 -1.158,1.3124 -0.40144,0.83376 -0.40144,1.9763199 0,1.0808 0.29336,1.91456 0.29336,0.83376 0.9264,1.3124 0.63304,0.4631999 1.65208,0.4631999 0.49408,0 0.83376,-0.04632 0.35512,-0.04632 0.64848,-0.1080799 v -2.30056 h -2.0844 z"
         id="path2046" />
      <path
         d="m 128.09024,0 h -6.34584 v -11.02416 h 6.34584 v 1.9145602 h -4.0144 v 2.42408 h 3.73648 v 1.9145599 h -3.73648 v 2.84096 h 4.0144 z"
         id="path2048" />
    </g>
  </g>
  <path
     id="rect38"
     class="i"
     style="fill:#dcf3f4"
     d="M 7.27,8.1000004 H 138.63 V 27.110001 H 7.27 Z" />
  <path
     id="rect40"
     class="i"
     style="fill:#dcf3f4"
     d="m 7.27,30.360001 h 131.36 v 19.01 H 7.27 Z" />
  <path
     id="rect42"
     class="i"
     style="fill:#dcf3f4"
     d="m 7.27,52.630001 h 131.36 v 19.01 H 7.27 Z" />
  <path
     id="rect44"
     class="i"
     style="fill:#dcf3f4"
     d="M 7.27,74.889999 H 138.63 V 93.9 H 7.27 Z" />
  <g
     aria-label="COMPUTE"
     id="text48"
     class="m"
     style="font-weight:500;font-size:12.12px;font-family:Inter-Medium, Inter;font-variation-settings:'slnt' 0, 'wght' 500">
    <path
       d="m 47.307999,15.18228 q -1.29684,0 -2.02404,0.89688 -0.7272,0.88476 -0.7272,2.43612 0,1.53924 0.67872,2.424 0.67872,0.88476 2.0604,0.88476 0.55752,0 1.06656,-0.09696 0.52116,-0.10908 1.05444,-0.27876 v 1.12716 q -0.50904,0.19392 -1.04232,0.27876 -0.52116,0.09696 -1.23624,0.09696 -1.3332,0 -2.20584,-0.5454 -0.87264,-0.55752 -1.30896,-1.55136 -0.43632,-1.00596 -0.43632,-2.35128 0,-1.30896 0.47268,-2.31492 0.4848,-1.00596 1.40592,-1.56348 0.92112,-0.56964 2.25432,-0.56964 0.65448,0 1.2726,0.14544 0.63024,0.13332 1.1514,0.38784 l -0.4848,1.0908 q -0.4242,-0.19392 -0.92112,-0.33936 -0.4848,-0.15756 -1.0302,-0.15756 z"
       id="path2004" />
    <path
       d="m 58.676546,18.49104 q 0,1.34532 -0.44844,2.35128 -0.44844,0.99384 -1.34532,1.55136 -0.89688,0.55752 -2.23008,0.55752 -1.36956,0 -2.26644,-0.55752 -0.89688,-0.55752 -1.3332,-1.56348 -0.43632,-1.00596 -0.43632,-2.35128 0,-1.3332 0.43632,-2.32704 0.44844,-0.99384 1.34532,-1.55136 0.89688,-0.55752 2.26644,-0.55752 1.3332,0 2.21796,0.55752 0.89688,0.5454 1.34532,1.55136 0.44844,0.99384 0.44844,2.33916 z m -6.67812,0 q 0,1.55136 0.64236,2.44824 0.64236,0.89688 2.01192,0.89688 1.38168,0 2.01192,-0.89688 0.63024,-0.89688 0.63024,-2.44824 0,-1.55136 -0.63024,-2.43612 -0.61812,-0.88476 -1.9998,-0.88476 -1.38168,0 -2.02404,0.88476 -0.64236,0.88476 -0.64236,2.43612 z"
       id="path2006" />
    <path
       d="m 64.324464,22.83 -2.61792,-7.35684 h -0.04848 q 0.01212,0.25452 0.03636,0.6666 0.02424,0.39996 0.03636,0.87264 0.01212,0.47268 0.01212,0.93324 V 22.83 h -1.18776 v -8.65368 h 1.86648 l 2.4846,6.94476 h 0.04848 l 2.55732,-6.94476 h 1.86648 V 22.83 h -1.2726 v -4.95708 q 0,-0.41208 0.01212,-0.86052 0.02424,-0.46056 0.03636,-0.86052 0.02424,-0.39996 0.03636,-0.6666 h -0.04848 L 65.451624,22.83 Z"
       id="path2008" />
    <path
       d="m 74.105296,14.17632 q 1.6968,0 2.47248,0.69084 0.77568,0.67872 0.77568,1.90284 0,0.7272 -0.32724,1.35744 -0.31512,0.63024 -1.06656,1.0302 -0.75144,0.38784 -2.03616,0.38784 h -0.93324 V 22.83 h -1.30896 v -8.65368 z m -0.09696,1.10292 h -1.01808 v 3.16332 h 0.7878 q 1.10292,0 1.66044,-0.37572 0.56964,-0.37572 0.56964,-1.24836 0,-0.77568 -0.4848,-1.1514 -0.4848,-0.38784 -1.515,-0.38784 z"
       id="path2010" />
    <path
       d="m 85.81321,19.77576 q 0,0.89688 -0.37572,1.62408 -0.37572,0.71508 -1.13928,1.13928 -0.75144,0.41208 -1.91496,0.41208 -1.64832,0 -2.50884,-0.87264 -0.8484,-0.88476 -0.8484,-2.32704 v -5.5752 h 1.30896 v 5.5146 q 0,2.14524 2.10888,2.14524 1.0908,0 1.5756,-0.58176 0.49692,-0.58176 0.49692,-1.5756 v -5.50248 h 1.29684 z"
       id="path2012" />
    <path
       d="m 90.952099,22.83 h -1.30896 v -7.52652 h -2.59368 v -1.12716 h 6.49632 v 1.12716 h -2.59368 z"
       id="path2014" />
    <path
       d="m 99.739098,22.83 h -4.87224 v -8.65368 h 4.87224 v 1.11504 h -3.56328 v 2.47248 h 3.34512 v 1.10292 h -3.34512 v 2.83608 h 3.56328 z"
       id="path2016" />
  </g>
  <g
     aria-label="STORAGE"
     id="text60"
     class="m"
     style="font-weight:500;font-size:12.12px;font-family:Inter-Medium, Inter;font-variation-settings:'slnt' 0, 'wght' 500">
    <path
       d="m 50.6206,87.070844 q 0,1.1514 -0.83628,1.80588 -0.83628,0.65448 -2.29068,0.65448 -0.70296,0 -1.3332,-0.1212 -0.61812,-0.10908 -1.05444,-0.32724 v -1.23624 q 0.4848,0.21816 1.13928,0.39996 0.65448,0.16968 1.3332,0.16968 0.87264,0 1.30896,-0.33936 0.43632,-0.33936 0.43632,-0.909 0,-0.39996 -0.20604,-0.6666 -0.19392,-0.27876 -0.61812,-0.50904 -0.4242,-0.23028 -1.11504,-0.50904 -0.64236,-0.2424 -1.13928,-0.56964 -0.4848,-0.32724 -0.76356,-0.81204 -0.27876,-0.4848 -0.27876,-1.18776 0,-1.06656 0.77568,-1.67256 0.77568,-0.606 2.03616,-0.606 0.70296,0 1.29684,0.14544 0.606,0.13332 1.1514,0.37572 l -0.41208,1.07868 q -0.49692,-0.20604 -1.01808,-0.33936 -0.50904,-0.13332 -1.05444,-0.13332 -0.71508,0 -1.0908,0.31512 -0.37572,0.31512 -0.37572,0.82416 0,0.39996 0.1818,0.67872 0.1818,0.26664 0.58176,0.4848 0.39996,0.21816 1.05444,0.4848 0.7272,0.29088 1.23624,0.61812 0.52116,0.31512 0.7878,0.77568 0.26664,0.44844 0.26664,1.12716 z"
       id="path1989" />
    <path
       d="m 56.360199,89.410004 h -1.30896 v -7.52652 h -2.59368 v -1.12716 h 6.49632 v 1.12716 h -2.59368 z"
       style="letter-spacing:-0.03em"
       id="path1991" />
    <path
       d="m 68.597001,85.071044 q 0,1.34532 -0.44844,2.35128 -0.44844,0.99384 -1.34532,1.55136 -0.89688,0.55752 -2.23008,0.55752 -1.36956,0 -2.26644,-0.55752 -0.89688,-0.55752 -1.3332,-1.56348 -0.43632,-1.00596 -0.43632,-2.35128 0,-1.3332 0.43632,-2.32704 0.44844,-0.99384 1.34532,-1.55136 0.89688,-0.55752 2.26644,-0.55752 1.3332,0 2.21796,0.55752 0.89688,0.5454 1.34532,1.55136 0.44844,0.99384 0.44844,2.33916 z m -6.67812,0 q 0,1.55136 0.64236,2.44824 0.64236,0.89688 2.01192,0.89688 1.38168,0 2.01192,-0.89688 0.63024,-0.89688 0.63024,-2.44824 0,-1.55136 -0.63024,-2.43612 -0.61812,-0.88476 -1.9998,-0.88476 -1.38168,0 -2.02404,0.88476 -0.64236,0.88476 -0.64236,2.43612 z"
       id="path1993" />
    <path
       d="m 72.8996,80.756324 q 1.66044,0 2.44824,0.61812 0.79992,0.61812 0.79992,1.8786 0,0.6666 -0.25452,1.12716 -0.2424,0.44844 -0.63024,0.73932 -0.38784,0.27876 -0.81204,0.44844 l 2.424,3.84204 h -1.50288 l -2.08464,-3.50268 h -1.50288 v 3.50268 H 70.4756 v -8.65368 z m -0.08484,1.11504 h -1.0302 v 2.94516 h 1.0908 q 1.00596,0 1.46652,-0.37572 0.46056,-0.38784 0.46056,-1.13928 0,-0.77568 -0.4848,-1.10292 -0.4848,-0.32724 -1.50288,-0.32724 z"
       id="path1995" />
    <path
       d="m 83.484802,89.410004 -0.92112,-2.49672 h -3.34512 l -0.92112,2.49672 h -1.35744 l 3.28452,-8.69004 h 1.35744 l 3.2724,8.69004 z m -2.15736,-6.07212 q -0.03636,-0.13332 -0.13332,-0.39996 -0.08484,-0.26664 -0.16968,-0.55752 -0.08484,-0.29088 -0.13332,-0.47268 -0.09696,0.37572 -0.21816,0.79992 -0.1212,0.4242 -0.19392,0.63024 l -0.87264,2.43612 h 2.59368 z"
       style="letter-spacing:-0.03em"
       id="path1997" />
    <path
       d="m 89.76316,84.755924 h 3.12696 v 4.31472 q -0.69084,0.23028 -1.41804,0.33936 -0.71508,0.1212 -1.6362,0.1212 -1.98768,0 -3.05424,-1.17564 -1.05444,-1.18776 -1.05444,-3.2724 0,-1.35744 0.52116,-2.35128 0.53328,-1.00596 1.53924,-1.55136 1.00596,-0.5454 2.43612,-0.5454 0.71508,0 1.36956,0.14544 0.65448,0.13332 1.212,0.37572 l -0.47268,1.0908 q -0.44844,-0.19392 -1.00596,-0.33936 -0.5454,-0.14544 -1.1514,-0.14544 -1.44228,0 -2.26644,0.89688 -0.82416,0.89688 -0.82416,2.43612 0,0.98172 0.303,1.73316 0.303,0.73932 0.95748,1.16352 0.65448,0.4242 1.70892,0.4242 0.52116,0 0.87264,-0.04848 0.3636,-0.0606 0.6666,-0.13332 v -2.35128 h -1.83012 z"
       id="path1999" />
    <path
       d="m 99.834872,89.410004 h -4.87224 v -8.65368 h 4.87224 v 1.11504 h -3.56328 v 2.47248 h 3.34512 v 1.10292 h -3.34512 v 2.83608 h 3.56328 z"
       id="path2001" />
  </g>
  <g
     aria-label="MEMORY"
     id="text64"
     class="m"
     style="font-weight:500;font-size:12.12px;font-family:Inter-Medium, Inter;font-variation-settings:'slnt' 0, 'wght' 500">
    <path
       d="m 50.620721,43.07 -2.61792,-7.35684 h -0.04848 q 0.01212,0.25452 0.03636,0.6666 0.02424,0.39996 0.03636,0.87264 0.01212,0.47268 0.01212,0.93324 V 43.07 h -1.18776 v -8.65368 h 1.86648 l 2.4846,6.94476 h 0.04848 l 2.55732,-6.94476 h 1.86648 V 43.07 h -1.2726 v -4.95708 q 0,-0.41208 0.01212,-0.86052 0.02424,-0.46056 0.03636,-0.86052 0.02424,-0.39996 0.03636,-0.6666 h -0.04848 L 51.747881,43.07 Z"
       id="path1976" />
    <path
       d="m 62.849792,43.07 h -4.87224 v -8.65368 h 4.87224 v 1.11504 h -3.56328 v 2.47248 h 3.34512 v 1.10292 h -3.34512 v 2.83608 h 3.56328 z"
       id="path1978" />
    <path
       d="m 68.497702,43.07 -2.61792,-7.35684 h -0.04848 q 0.01212,0.25452 0.03636,0.6666 0.02424,0.39996 0.03636,0.87264 0.01212,0.47268 0.01212,0.93324 V 43.07 h -1.18776 v -8.65368 h 1.86648 l 2.4846,6.94476 h 0.04848 l 2.55732,-6.94476 h 1.86648 V 43.07 h -1.2726 v -4.95708 q 0,-0.41208 0.01212,-0.86052 0.02424,-0.46056 0.03636,-0.86052 0.02424,-0.39996 0.03636,-0.6666 h -0.04848 L 69.624862,43.07 Z"
       id="path1980" />
    <path
       d="m 83.490133,38.73104 q 0,1.34532 -0.44844,2.35128 -0.44844,0.99384 -1.34532,1.55136 -0.89688,0.55752 -2.23008,0.55752 -1.36956,0 -2.26644,-0.55752 -0.89688,-0.55752 -1.3332,-1.56348 -0.43632,-1.00596 -0.43632,-2.35128 0,-1.3332 0.43632,-2.32704 0.44844,-0.99384 1.34532,-1.55136 0.89688,-0.55752 2.26644,-0.55752 1.3332,0 2.21796,0.55752 0.89688,0.5454 1.34532,1.55136 0.44844,0.99384 0.44844,2.33916 z m -6.67812,0 q 0,1.55136 0.64236,2.44824 0.64236,0.89688 2.01192,0.89688 1.38168,0 2.01192,-0.89688 0.63024,-0.89688 0.63024,-2.44824 0,-1.55136 -0.63024,-2.43612 -0.61812,-0.88476 -1.9998,-0.88476 -1.38168,0 -2.02404,0.88476 -0.64236,0.88476 -0.64236,2.43612 z"
       id="path1982" />
    <path
       d="m 87.792731,34.41632 q 1.66044,0 2.44824,0.61812 0.79992,0.61812 0.79992,1.8786 0,0.6666 -0.25452,1.12716 -0.2424,0.44844 -0.63024,0.73932 -0.38784,0.27876 -0.81204,0.44844 l 2.424,3.84204 h -1.50288 l -2.08464,-3.50268 h -1.50288 V 43.07 h -1.30896 v -8.65368 z m -0.08484,1.11504 h -1.0302 v 2.94516 h 1.0908 q 1.00596,0 1.46652,-0.37572 0.46056,-0.38784 0.46056,-1.13928 0,-0.77568 -0.4848,-1.10292 -0.4848,-0.32724 -1.50288,-0.32724 z"
       id="path1984" />
    <path
       d="m 95.428326,38.4644 2.121,-4.04808 h 1.40592 l -2.88456,5.29644 V 43.07 h -1.29684 v -3.30876 l -2.88456,-5.34492 h 1.41804 z"
       id="path1986" />
  </g>
  <g
     aria-label="NETWORK"
     id="text72"
     class="m"
     style="font-weight:500;font-size:12.12px;font-family:Inter-Medium, Inter;font-variation-settings:'slnt' 0, 'wght' 500">
    <path
       d="m 50.783719,66.290001 h -1.58772 l -4.37532,-6.99324 h -0.04848 q 0.02424,0.4848 0.0606,1.11504 0.03636,0.61812 0.03636,1.2726 v 4.6056 h -1.18776 v -8.65368 h 1.5756 l 4.3632,6.95688 h 0.03636 q -0.01212,-0.25452 -0.03636,-0.64236 -0.01212,-0.38784 -0.02424,-0.82416 -0.01212,-0.44844 -0.02424,-0.83628 v -4.65408 h 1.212 z"
       id="path1961" />
    <path
       d="m 57.95877,66.290001 h -4.87224 v -8.65368 h 4.87224 v 1.11504 h -3.56328 v 2.47248 h 3.34512 v 1.10292 h -3.34512 v 2.83608 h 3.56328 z"
       id="path1963" />
    <path
       d="m 62.746161,66.290001 h -1.30896 v -7.52652 h -2.59368 v -1.12716 h 6.49632 v 1.12716 h -2.59368 z"
       id="path1965" />
    <path
       d="m 78.065837,57.636321 -2.27856,8.65368 h -1.3938 l -1.52712,-5.34492 q -0.08484,-0.29088 -0.1818,-0.65448 -0.08484,-0.3636 -0.15756,-0.67872 -0.07272,-0.32724 -0.09696,-0.46056 -0.01212,0.13332 -0.07272,0.44844 -0.0606,0.31512 -0.15756,0.69084 -0.08484,0.37572 -0.16968,0.69084 l -1.50288,5.30856 h -1.3938 l -2.26644,-8.65368 h 1.34532 l 1.2726,5.11464 q 0.13332,0.52116 0.2424,1.10292 0.10908,0.56964 0.16968,1.01808 0.0606,-0.46056 0.1818,-1.05444 0.1212,-0.59388 0.26664,-1.06656 l 1.44228,-5.11464 h 1.30896 l 1.49076,5.13888 q 0.14544,0.4848 0.26664,1.0908 0.1212,0.59388 0.1818,1.00596 0.0606,-0.43632 0.16968,-1.01808 0.1212,-0.58176 0.25452,-1.10292 l 1.2726,-5.11464 z"
       style="letter-spacing:-0.04em"
       id="path1967" />
    <path
       d="m 86.977002,61.951041 q 0,1.34532 -0.44844,2.35128 -0.44844,0.99384 -1.34532,1.55136 -0.89688,0.55752 -2.23008,0.55752 -1.36956,0 -2.26644,-0.55752 -0.89688,-0.55752 -1.3332,-1.56348 -0.43632,-1.00596 -0.43632,-2.35128 0,-1.3332 0.43632,-2.32704 0.44844,-0.99384 1.34532,-1.55136 0.89688,-0.55752 2.26644,-0.55752 1.3332,0 2.21796,0.55752 0.89688,0.5454 1.34532,1.55136 0.44844,0.99384 0.44844,2.33916 z m -6.67812,0 q 0,1.55136 0.64236,2.44824 0.64236,0.89688 2.01192,0.89688 1.38168,0 2.01192,-0.89688 0.63024,-0.89688 0.63024,-2.44824 0,-1.55136 -0.63024,-2.43612 -0.61812,-0.88476 -1.9998,-0.88476 -1.38168,0 -2.02404,0.88476 -0.64236,0.88476 -0.64236,2.43612 z"
       id="path1969" />
    <path
       d="m 91.279601,57.636321 q 1.66044,0 2.44824,0.61812 0.79992,0.61812 0.79992,1.8786 0,0.6666 -0.25452,1.12716 -0.2424,0.44844 -0.63024,0.73932 -0.38784,0.27876 -0.81204,0.44844 l 2.424,3.84204 h -1.50288 l -2.08464,-3.50268 h -1.50288 v 3.50268 h -1.30896 v -8.65368 z m -0.08484,1.11504 h -1.0302 v 2.94516 h 1.0908 q 1.00596,0 1.46652,-0.37572 0.46056,-0.38784 0.46056,-1.13928 0,-0.77568 -0.4848,-1.10292 -0.4848,-0.32724 -1.50288,-0.32724 z"
       id="path1971" />
    <path
       d="m 103.03599,66.290001 h -1.515 l -2.836076,-3.98748 -0.8484,0.70296 v 3.28452 h -1.30896 v -8.65368 h 1.30896 v 4.1814 q 0.31512,-0.3636 0.63024,-0.7272 0.31512,-0.37572 0.63024,-0.73932 l 2.339156,-2.71488 h 1.50288 l -3.308756,3.78144 z"
       id="path1973" />
  </g>
  <g
     id="g96">
    <g
       aria-label="SERVER 1"
       transform="translate(71.48,109.65)"
       id="text80"
       class="k"
       style="font-weight:700;font-size:8.52px;font-family:Inter-Bold, Inter;font-variation-settings:'slnt' 0, 'wght' 700">
      <path
         d="m 4.3537202,-1.6869601 q 0,0.80940005 -0.58788,1.29504008 Q 3.1864802,0.0852 2.1129601,0.0852 q -0.96276,0 -1.72104008,-0.36636002 V -1.4824801 q 0.43452002,0.18744 0.89460008,0.34932 0.4686,0.15336005 0.92868,0.15336005 0.47712,0 0.6730801,-0.17892005 0.20448,-0.18744 0.20448,-0.4686 0,-0.23004 -0.16188,-0.39192 -0.1533601,-0.16188 -0.4174801,-0.2982 -0.26412,-0.14484 -0.60492,-0.30672 -0.213,-0.10224 -0.46008,-0.2385601 -0.24708,-0.14484 -0.47712005,-0.34932 -0.22152001,-0.213 -0.36636002,-0.5112 -0.14484001,-0.2982 -0.14484001,-0.71568 0,-0.8179201 0.55380008,-1.2694801 0.5538,-0.46008 1.50804,-0.46008 0.4771201,0 0.9031201,0.11076 0.43452,0.11076 0.90312,0.31524 l -0.41748,1.00536 q -0.41748,-0.1704 -0.74976,-0.26412 -0.33228,-0.09372 -0.6816001,-0.09372 -0.36636,0 -0.56232,0.1704 -0.19596,0.1704 -0.19596,0.4430401 0,0.32376 0.28968,0.5112 0.28968,0.18744 0.8605201,0.46008 0.4686,0.22152 0.79236,0.46008 0.33228,0.23856 0.5112,0.5623201 0.17892,0.32376 0.17892,0.80088 z"
         id="path1945" />
      <path
         d="M 8.9630455,0 H 5.4613253 v -6.0832803 h 3.5017202 v 1.05648 H 6.7478454 v 1.3376401 h 2.0618401 v 1.0564801 H 6.7478454 v 1.56768 h 2.2152001 z"
         id="path1947" />
      <path
         d="m 13.32896,-6.0832803 q 1.24392,0 1.8318,0.45156 0.5964,0.45156 0.5964,1.3717201 0,0.41748 -0.16188,0.73272 -0.15336,0.30672 -0.41748,0.52824 -0.2556,0.2130001 -0.5538,0.3493201 L 16.4132,0 h -1.43136 l -1.4484,-2.3344801 H 12.84332 V 0 H 11.5568 v -6.0832803 z m -0.09372,1.05648 h -0.39192 v 1.6443601 h 0.41748 q 0.639,0 0.91164,-0.213 0.28116,-0.213 0.28116,-0.63048 0,-0.4345201 -0.2982,-0.6134401 -0.28968,-0.18744 -0.92016,-0.18744 z"
         style="letter-spacing:-0.02em"
         id="path1949" />
      <path
         d="M 21.747999,-6.0832803 19.677639,0 h -1.4058 l -2.06184,-6.0832803 h 1.30356 l 1.14168,3.6210002 q 0.03408,0.09372 0.09372,0.34932 0.06816,0.24708 0.13632,0.52824 0.06816,0.27264 0.09372,0.46008 0.02556,-0.18744 0.0852,-0.46008 0.06816,-0.28116 0.13632,-0.52824 0.06816,-0.2556 0.09372,-0.34932 l 1.1502,-3.6210002 z"
         id="path1951" />
      <path
         d="m 26.016517,0 h -3.501721 v -6.0832803 h 3.501721 v 1.05648 h -2.215201 v 1.3376401 h 2.061841 v 1.0564801 h -2.061841 v 1.56768 h 2.215201 z"
         id="path1953" />
      <path
         d="m 29.058152,-6.0832803 q 1.24392,0 1.8318,0.45156 0.5964,0.45156 0.5964,1.3717201 0,0.41748 -0.16188,0.73272 -0.15336,0.30672 -0.41748,0.52824 -0.2556,0.2130001 -0.5538,0.3493201 L 32.142392,0 h -1.43136 l -1.4484,-2.3344801 h -0.69012 V 0 h -1.28652 v -6.0832803 z m -0.09372,1.05648 h -0.39192 v 1.6443601 h 0.41748 q 0.639,0 0.91164,-0.213 0.28116,-0.213 0.28116,-0.63048 0,-0.4345201 -0.2982,-0.6134401 -0.28968,-0.18744 -0.92016,-0.18744 z"
         id="path1955" />
      <path
         d="m 37.876354,0 h -1.28652 v -3.5187602 q 0,-0.22152 0.0085,-0.57936 0.01704,-0.35784 0.02556,-0.6304801 -0.0426,0.05112 -0.18744,0.1874401 -0.13632,0.1278 -0.2556,0.23004 l -0.69864,0.56232 -0.62196,-0.77532 1.9596,-1.5591601 h 1.05648 z"
         id="path1957" />
    </g>
    <g
       id="g94">
      <g
         id="g88">
        <path
           id="rect82"
           class="h"
           style="fill:#cf2144"
           d="m 41.09,103.89 h 2.17 v 5.66 h -2.17 z" />
        <path
           class="h"
           d="m 38.46,103.97 -4.4,2.38 c -0.06,0.03 -0.14,0.03 -0.2,0 l -4.4,-2.38 c -0.09,-0.05 -0.2,-0.08 -0.31,-0.08 v 0 c -0.33,0 -0.6,0.24 -0.6,0.53 v 5.12 c 0,0 2.17,0 2.17,0 v -2.44 c 0,-0.15 0.19,-0.24 0.33,-0.16 l 2.47,1.33 c 0.24,0.13 0.55,0.13 0.79,0 l 2.6,-1.35 c 0.14,-0.07 0.33,0.02 0.33,0.17 v 2.44 c 0,0 2.17,0 2.17,0 v -5.12 c 0,-0.29 -0.27,-0.53 -0.6,-0.53 v 0 c -0.11,0 -0.22,0.03 -0.31,0.08 z"
           id="path84" />
        <path
           class="h"
           d="m 54.07,103.89 h -2.2 c 0,0 0,2.58 0,2.58 0,0.14 -0.17,0.24 -0.32,0.17 l -5.7,-2.68 c -0.09,-0.04 -0.18,-0.06 -0.28,-0.06 v 0 c -0.33,0 -0.6,0.24 -0.6,0.53 v 5.12 c 0,0 2.18,0 2.18,0 v -2.57 c 0,-0.14 0.17,-0.24 0.32,-0.17 l 5.72,2.68 c 0.09,0.04 0.18,0.06 0.28,0.06 v 0 c 0.33,0 0.6,-0.24 0.6,-0.53 v -5.12 z"
           id="path86" />
      </g>
      <path
         class="h"
         d="m 55.78,109.55 v -5.66 h 1 v 5.66 z"
         id="path90" />
      <path
         class="h"
         d="m 62.65,109.65 c -2.69,0 -4.59,-1.13 -4.59,-2.93 0,-1.79 1.92,-2.93 4.59,-2.93 2.67,0 4.6,1.13 4.6,2.93 0,1.8 -1.88,2.93 -4.6,2.93 z m 0,-5.11 c -2,0 -3.53,0.77 -3.53,2.18 0,1.42 1.54,2.18 3.53,2.18 1.99,0 3.55,-0.76 3.55,-2.18 0,-1.41 -1.55,-2.18 -3.55,-2.18 z"
         id="path92" />
    </g>
  </g>
  <path
     id="rect98"
     class="l"
     style="fill:none;stroke:#cf2144;stroke-miterlimit:10"
     d="M 166.48,1.6 H 312.37 V 119.52 H 166.48 Z" />
  <path
     id="rect100"
     class="i"
     style="fill:#dcf3f4"
     d="m 173.74001,8.1000004 h 131.36 V 27.110001 h -131.36 z" />
  <path
     id="rect102"
     class="i"
     style="fill:#dcf3f4"
     d="m 173.74001,30.360001 h 131.36 v 19.01 h -131.36 z" />
  <path
     id="rect104"
     class="i"
     style="fill:#dcf3f4"
     d="m 173.74001,52.630001 h 131.36 v 19.01 h -131.36 z" />
  <path
     id="rect106"
     class="i"
     style="fill:#dcf3f4"
     d="m 173.74001,74.889999 h 131.36 V 93.9 h -131.36 z" />
  <g
     aria-label="COMPUTE"
     id="text110"
     class="m"
     style="font-weight:500;font-size:12.12px;font-family:Inter-Medium, Inter;font-variation-settings:'slnt' 0, 'wght' 500">
    <path
       d="m 213.788,15.18228 q -1.29684,0 -2.02404,0.89688 -0.7272,0.88476 -0.7272,2.43612 0,1.53924 0.67872,2.424 0.67872,0.88476 2.0604,0.88476 0.55752,0 1.06656,-0.09696 0.52116,-0.10908 1.05444,-0.27876 v 1.12716 q -0.50904,0.19392 -1.04232,0.27876 -0.52116,0.09696 -1.23624,0.09696 -1.3332,0 -2.20584,-0.5454 -0.87264,-0.55752 -1.30896,-1.55136 -0.43632,-1.00596 -0.43632,-2.35128 0,-1.30896 0.47268,-2.31492 0.4848,-1.00596 1.40592,-1.56348 0.92112,-0.56964 2.25432,-0.56964 0.65448,0 1.2726,0.14544 0.63024,0.13332 1.1514,0.38784 l -0.4848,1.0908 q -0.4242,-0.19392 -0.92112,-0.33936 -0.4848,-0.15756 -1.0302,-0.15756 z"
       id="path1925" />
    <path
       d="m 225.15655,18.49104 q 0,1.34532 -0.44844,2.35128 -0.44844,0.99384 -1.34532,1.55136 -0.89688,0.55752 -2.23008,0.55752 -1.36956,0 -2.26644,-0.55752 -0.89688,-0.55752 -1.3332,-1.56348 -0.43632,-1.00596 -0.43632,-2.35128 0,-1.3332 0.43632,-2.32704 0.44844,-0.99384 1.34532,-1.55136 0.89688,-0.55752 2.26644,-0.55752 1.3332,0 2.21796,0.55752 0.89688,0.5454 1.34532,1.55136 0.44844,0.99384 0.44844,2.33916 z m -6.67812,0 q 0,1.55136 0.64236,2.44824 0.64236,0.89688 2.01192,0.89688 1.38168,0 2.01192,-0.89688 0.63024,-0.89688 0.63024,-2.44824 0,-1.55136 -0.63024,-2.43612 -0.61812,-0.88476 -1.9998,-0.88476 -1.38168,0 -2.02404,0.88476 -0.64236,0.88476 -0.64236,2.43612 z"
       id="path1927" />
    <path
       d="m 230.80447,22.83 -2.61792,-7.35684 h -0.0485 q 0.0121,0.25452 0.0364,0.6666 0.0242,0.39996 0.0364,0.87264 0.0121,0.47268 0.0121,0.93324 V 22.83 h -1.18776 v -8.65368 h 1.86648 l 2.4846,6.94476 h 0.0485 l 2.55732,-6.94476 h 1.86648 V 22.83 h -1.2726 v -4.95708 q 0,-0.41208 0.0121,-0.86052 0.0242,-0.46056 0.0364,-0.86052 0.0242,-0.39996 0.0364,-0.6666 h -0.0485 L 231.93163,22.83 Z"
       id="path1929" />
    <path
       d="m 240.5853,14.17632 q 1.6968,0 2.47248,0.69084 0.77568,0.67872 0.77568,1.90284 0,0.7272 -0.32724,1.35744 -0.31512,0.63024 -1.06656,1.0302 -0.75144,0.38784 -2.03616,0.38784 h -0.93324 V 22.83 h -1.30896 v -8.65368 z m -0.097,1.10292 h -1.01808 v 3.16332 h 0.7878 q 1.10292,0 1.66044,-0.37572 0.56964,-0.37572 0.56964,-1.24836 0,-0.77568 -0.4848,-1.1514 -0.4848,-0.38784 -1.515,-0.38784 z"
       id="path1931" />
    <path
       d="m 252.29321,19.77576 q 0,0.89688 -0.37572,1.62408 -0.37572,0.71508 -1.13928,1.13928 -0.75144,0.41208 -1.91496,0.41208 -1.64832,0 -2.50884,-0.87264 -0.8484,-0.88476 -0.8484,-2.32704 v -5.5752 h 1.30896 v 5.5146 q 0,2.14524 2.10888,2.14524 1.0908,0 1.5756,-0.58176 0.49692,-0.58176 0.49692,-1.5756 v -5.50248 h 1.29684 z"
       id="path1933" />
    <path
       d="m 257.4321,22.83 h -1.30896 v -7.52652 h -2.59368 v -1.12716 h 6.49632 v 1.12716 h -2.59368 z"
       id="path1935" />
    <path
       d="m 266.2191,22.83 h -4.87224 v -8.65368 h 4.87224 v 1.11504 h -3.56328 v 2.47248 h 3.34512 v 1.10292 h -3.34512 v 2.83608 h 3.56328 z"
       id="path1937" />
  </g>
  <g
     aria-label="STORAGE"
     id="text122"
     class="m"
     style="font-weight:500;font-size:12.12px;font-family:Inter-Medium, Inter;font-variation-settings:'slnt' 0, 'wght' 500">
    <path
       d="m 217.1006,87.070844 q 0,1.1514 -0.83628,1.80588 -0.83628,0.65448 -2.29068,0.65448 -0.70296,0 -1.3332,-0.1212 -0.61812,-0.10908 -1.05444,-0.32724 v -1.23624 q 0.4848,0.21816 1.13928,0.39996 0.65448,0.16968 1.3332,0.16968 0.87264,0 1.30896,-0.33936 0.43632,-0.33936 0.43632,-0.909 0,-0.39996 -0.20604,-0.6666 -0.19392,-0.27876 -0.61812,-0.50904 -0.4242,-0.23028 -1.11504,-0.50904 -0.64236,-0.2424 -1.13928,-0.56964 -0.4848,-0.32724 -0.76356,-0.81204 -0.27876,-0.4848 -0.27876,-1.18776 0,-1.06656 0.77568,-1.67256 0.77568,-0.606 2.03616,-0.606 0.70296,0 1.29684,0.14544 0.606,0.13332 1.1514,0.37572 l -0.41208,1.07868 q -0.49692,-0.20604 -1.01808,-0.33936 -0.50904,-0.13332 -1.05444,-0.13332 -0.71508,0 -1.0908,0.31512 -0.37572,0.31512 -0.37572,0.82416 0,0.39996 0.1818,0.67872 0.1818,0.26664 0.58176,0.4848 0.39996,0.21816 1.05444,0.4848 0.7272,0.29088 1.23624,0.61812 0.52116,0.31512 0.7878,0.77568 0.26664,0.44844 0.26664,1.12716 z"
       id="path1910" />
    <path
       d="m 222.8402,89.410004 h -1.30896 v -7.52652 h -2.59368 v -1.12716 h 6.49632 v 1.12716 h -2.59368 z"
       style="letter-spacing:-0.03em"
       id="path1912" />
    <path
       d="m 235.07699,85.071044 q 0,1.34532 -0.44844,2.35128 -0.44844,0.99384 -1.34532,1.55136 -0.89688,0.55752 -2.23008,0.55752 -1.36956,0 -2.26644,-0.55752 -0.89688,-0.55752 -1.3332,-1.56348 -0.43632,-1.00596 -0.43632,-2.35128 0,-1.3332 0.43632,-2.32704 0.44844,-0.99384 1.34532,-1.55136 0.89688,-0.55752 2.26644,-0.55752 1.3332,0 2.21796,0.55752 0.89688,0.5454 1.34532,1.55136 0.44844,0.99384 0.44844,2.33916 z m -6.67812,0 q 0,1.55136 0.64236,2.44824 0.64236,0.89688 2.01192,0.89688 1.38168,0 2.01192,-0.89688 0.63024,-0.89688 0.63024,-2.44824 0,-1.55136 -0.63024,-2.43612 -0.61812,-0.88476 -1.9998,-0.88476 -1.38168,0 -2.02404,0.88476 -0.64236,0.88476 -0.64236,2.43612 z"
       id="path1914" />
    <path
       d="m 239.37959,80.756324 q 1.66044,0 2.44824,0.61812 0.79992,0.61812 0.79992,1.8786 0,0.6666 -0.25452,1.12716 -0.2424,0.44844 -0.63024,0.73932 -0.38784,0.27876 -0.81204,0.44844 l 2.424,3.84204 h -1.50288 l -2.08464,-3.50268 h -1.50288 v 3.50268 h -1.30896 v -8.65368 z m -0.0848,1.11504 h -1.0302 v 2.94516 h 1.0908 q 1.00596,0 1.46652,-0.37572 0.46056,-0.38784 0.46056,-1.13928 0,-0.77568 -0.4848,-1.10292 -0.4848,-0.32724 -1.50288,-0.32724 z"
       id="path1916" />
    <path
       d="m 249.9648,89.410004 -0.92112,-2.49672 h -3.34512 l -0.92112,2.49672 H 243.42 l 3.28452,-8.69004 h 1.35744 l 3.2724,8.69004 z m -2.15736,-6.07212 q -0.0364,-0.13332 -0.13332,-0.39996 -0.0848,-0.26664 -0.16968,-0.55752 -0.0848,-0.29088 -0.13332,-0.47268 -0.097,0.37572 -0.21816,0.79992 -0.1212,0.4242 -0.19392,0.63024 l -0.87264,2.43612 h 2.59368 z"
       style="letter-spacing:-0.03em"
       id="path1918" />
    <path
       d="m 256.24316,84.755924 h 3.12696 v 4.31472 q -0.69084,0.23028 -1.41804,0.33936 -0.71508,0.1212 -1.6362,0.1212 -1.98768,0 -3.05424,-1.17564 -1.05444,-1.18776 -1.05444,-3.2724 0,-1.35744 0.52116,-2.35128 0.53328,-1.00596 1.53924,-1.55136 1.00596,-0.5454 2.43612,-0.5454 0.71508,0 1.36956,0.14544 0.65448,0.13332 1.212,0.37572 l -0.47268,1.0908 q -0.44844,-0.19392 -1.00596,-0.33936 -0.5454,-0.14544 -1.1514,-0.14544 -1.44228,0 -2.26644,0.89688 -0.82416,0.89688 -0.82416,2.43612 0,0.98172 0.303,1.73316 0.303,0.73932 0.95748,1.16352 0.65448,0.4242 1.70892,0.4242 0.52116,0 0.87264,-0.04848 0.3636,-0.0606 0.6666,-0.13332 v -2.35128 h -1.83012 z"
       id="path1920" />
    <path
       d="m 266.31487,89.410004 h -4.87224 v -8.65368 h 4.87224 v 1.11504 h -3.56328 v 2.47248 h 3.34512 v 1.10292 h -3.34512 v 2.83608 h 3.56328 z"
       id="path1922" />
  </g>
  <g
     aria-label="MEMORY"
     id="text126"
     class="m"
     style="font-weight:500;font-size:12.12px;font-family:Inter-Medium, Inter;font-variation-settings:'slnt' 0, 'wght' 500">
    <path
       d="m 217.10071,43.07 -2.61792,-7.35684 h -0.0485 q 0.0121,0.25452 0.0364,0.6666 0.0242,0.39996 0.0364,0.87264 0.0121,0.47268 0.0121,0.93324 V 43.07 h -1.18776 v -8.65368 h 1.86648 l 2.4846,6.94476 h 0.0485 l 2.55732,-6.94476 h 1.86648 V 43.07 h -1.2726 v -4.95708 q 0,-0.41208 0.0121,-0.86052 0.0242,-0.46056 0.0364,-0.86052 0.0242,-0.39996 0.0364,-0.6666 h -0.0485 L 218.22787,43.07 Z"
       id="path1897" />
    <path
       d="m 229.32978,43.07 h -4.87224 v -8.65368 h 4.87224 v 1.11504 h -3.56328 v 2.47248 h 3.34512 v 1.10292 h -3.34512 v 2.83608 h 3.56328 z"
       id="path1899" />
    <path
       d="m 234.97769,43.07 -2.61792,-7.35684 h -0.0485 q 0.0121,0.25452 0.0364,0.6666 0.0242,0.39996 0.0364,0.87264 0.0121,0.47268 0.0121,0.93324 V 43.07 h -1.18776 v -8.65368 h 1.86648 l 2.4846,6.94476 h 0.0485 l 2.55732,-6.94476 h 1.86648 V 43.07 h -1.2726 v -4.95708 q 0,-0.41208 0.0121,-0.86052 0.0242,-0.46056 0.0364,-0.86052 0.0242,-0.39996 0.0364,-0.6666 h -0.0485 L 236.10485,43.07 Z"
       id="path1901" />
    <path
       d="m 249.97012,38.73104 q 0,1.34532 -0.44844,2.35128 -0.44844,0.99384 -1.34532,1.55136 -0.89688,0.55752 -2.23008,0.55752 -1.36956,0 -2.26644,-0.55752 -0.89688,-0.55752 -1.3332,-1.56348 -0.43632,-1.00596 -0.43632,-2.35128 0,-1.3332 0.43632,-2.32704 0.44844,-0.99384 1.34532,-1.55136 0.89688,-0.55752 2.26644,-0.55752 1.3332,0 2.21796,0.55752 0.89688,0.5454 1.34532,1.55136 0.44844,0.99384 0.44844,2.33916 z m -6.67812,0 q 0,1.55136 0.64236,2.44824 0.64236,0.89688 2.01192,0.89688 1.38168,0 2.01192,-0.89688 0.63024,-0.89688 0.63024,-2.44824 0,-1.55136 -0.63024,-2.43612 -0.61812,-0.88476 -1.9998,-0.88476 -1.38168,0 -2.02404,0.88476 -0.64236,0.88476 -0.64236,2.43612 z"
       id="path1903" />
    <path
       d="m 254.27272,34.41632 q 1.66044,0 2.44824,0.61812 0.79992,0.61812 0.79992,1.8786 0,0.6666 -0.25452,1.12716 -0.2424,0.44844 -0.63024,0.73932 -0.38784,0.27876 -0.81204,0.44844 l 2.424,3.84204 h -1.50288 l -2.08464,-3.50268 h -1.50288 V 43.07 h -1.30896 v -8.65368 z m -0.0848,1.11504 h -1.0302 v 2.94516 h 1.0908 q 1.00596,0 1.46652,-0.37572 0.46056,-0.38784 0.46056,-1.13928 0,-0.77568 -0.4848,-1.10292 -0.4848,-0.32724 -1.50288,-0.32724 z"
       id="path1905" />
    <path
       d="m 261.90832,38.4644 2.121,-4.04808 h 1.40592 l -2.88456,5.29644 V 43.07 h -1.29684 v -3.30876 l -2.88456,-5.34492 h 1.41804 z"
       id="path1907" />
  </g>
  <g
     aria-label="NETWORK"
     id="text134"
     class="m"
     style="font-weight:500;font-size:12.12px;font-family:Inter-Medium, Inter;font-variation-settings:'slnt' 0, 'wght' 500">
    <path
       d="m 217.26371,66.290001 h -1.58772 l -4.37532,-6.99324 h -0.0485 q 0.0242,0.4848 0.0606,1.11504 0.0364,0.61812 0.0364,1.2726 v 4.6056 h -1.18776 v -8.65368 h 1.5756 l 4.3632,6.95688 h 0.0364 q -0.0121,-0.25452 -0.0364,-0.64236 -0.0121,-0.38784 -0.0242,-0.82416 -0.0121,-0.44844 -0.0242,-0.83628 v -4.65408 h 1.212 z"
       id="path1882" />
    <path
       d="m 224.43877,66.290001 h -4.87224 v -8.65368 h 4.87224 v 1.11504 h -3.56328 v 2.47248 h 3.34512 v 1.10292 h -3.34512 v 2.83608 h 3.56328 z"
       id="path1884" />
    <path
       d="m 229.22616,66.290001 h -1.30896 v -7.52652 h -2.59368 v -1.12716 h 6.49632 v 1.12716 h -2.59368 z"
       id="path1886" />
    <path
       d="m 244.54584,57.636321 -2.27856,8.65368 h -1.3938 l -1.52712,-5.34492 q -0.0848,-0.29088 -0.1818,-0.65448 -0.0848,-0.3636 -0.15756,-0.67872 -0.0727,-0.32724 -0.097,-0.46056 -0.0121,0.13332 -0.0727,0.44844 -0.0606,0.31512 -0.15756,0.69084 -0.0848,0.37572 -0.16968,0.69084 l -1.50288,5.30856 h -1.3938 l -2.26644,-8.65368 h 1.34532 l 1.2726,5.11464 q 0.13332,0.52116 0.2424,1.10292 0.10908,0.56964 0.16968,1.01808 0.0606,-0.46056 0.1818,-1.05444 0.1212,-0.59388 0.26664,-1.06656 l 1.44228,-5.11464 h 1.30896 l 1.49076,5.13888 q 0.14544,0.4848 0.26664,1.0908 0.1212,0.59388 0.1818,1.00596 0.0606,-0.43632 0.16968,-1.01808 0.1212,-0.58176 0.25452,-1.10292 l 1.2726,-5.11464 z"
       style="letter-spacing:-0.04em"
       id="path1888" />
    <path
       d="m 253.457,61.951041 q 0,1.34532 -0.44844,2.35128 -0.44844,0.99384 -1.34532,1.55136 -0.89688,0.55752 -2.23008,0.55752 -1.36956,0 -2.26644,-0.55752 -0.89688,-0.55752 -1.3332,-1.56348 -0.43632,-1.00596 -0.43632,-2.35128 0,-1.3332 0.43632,-2.32704 0.44844,-0.99384 1.34532,-1.55136 0.89688,-0.55752 2.26644,-0.55752 1.3332,0 2.21796,0.55752 0.89688,0.5454 1.34532,1.55136 0.44844,0.99384 0.44844,2.33916 z m -6.67812,0 q 0,1.55136 0.64236,2.44824 0.64236,0.89688 2.01192,0.89688 1.38168,0 2.01192,-0.89688 0.63024,-0.89688 0.63024,-2.44824 0,-1.55136 -0.63024,-2.43612 -0.61812,-0.88476 -1.9998,-0.88476 -1.38168,0 -2.02404,0.88476 -0.64236,0.88476 -0.64236,2.43612 z"
       id="path1890" />
    <path
       d="m 257.7596,57.636321 q 1.66044,0 2.44824,0.61812 0.79992,0.61812 0.79992,1.8786 0,0.6666 -0.25452,1.12716 -0.2424,0.44844 -0.63024,0.73932 -0.38784,0.27876 -0.81204,0.44844 l 2.424,3.84204 h -1.50288 l -2.08464,-3.50268 h -1.50288 v 3.50268 h -1.30896 v -8.65368 z m -0.0848,1.11504 h -1.0302 v 2.94516 h 1.0908 q 1.00596,0 1.46652,-0.37572 0.46056,-0.38784 0.46056,-1.13928 0,-0.77568 -0.4848,-1.10292 -0.4848,-0.32724 -1.50288,-0.32724 z"
       id="path1892" />
    <path
       d="m 269.51599,66.290001 h -1.515 l -2.83608,-3.98748 -0.8484,0.70296 v 3.28452 h -1.30896 v -8.65368 h 1.30896 v 4.1814 q 0.31512,-0.3636 0.63024,-0.7272 0.31512,-0.37572 0.63024,-0.73932 l 2.33916,-2.71488 h 1.50288 l -3.30876,3.78144 z"
       id="path1894" />
  </g>
  <g
     id="g158">
    <g
       aria-label="SERVER 2"
       transform="translate(237.36,109.65)"
       id="text142"
       class="k"
       style="font-weight:700;font-size:8.52px;font-family:Inter-Bold, Inter;font-variation-settings:'slnt' 0, 'wght' 700">
      <path
         d="m 4.3537202,-1.6869601 q 0,0.80940005 -0.58788,1.29504008 Q 3.1864802,0.0852 2.1129601,0.0852 q -0.96276,0 -1.72104008,-0.36636002 V -1.4824801 q 0.43452002,0.18744 0.89460008,0.34932 0.4686,0.15336005 0.92868,0.15336005 0.47712,0 0.6730801,-0.17892005 0.20448,-0.18744 0.20448,-0.4686 0,-0.23004 -0.16188,-0.39192 -0.1533601,-0.16188 -0.4174801,-0.2982 -0.26412,-0.14484 -0.60492,-0.30672 -0.213,-0.10224 -0.46008,-0.2385601 -0.24708,-0.14484 -0.47712005,-0.34932 -0.22152001,-0.213 -0.36636002,-0.5112 -0.14484001,-0.2982 -0.14484001,-0.71568 0,-0.8179201 0.55380008,-1.2694801 0.5538,-0.46008 1.50804,-0.46008 0.4771201,0 0.9031201,0.11076 0.43452,0.11076 0.90312,0.31524 l -0.41748,1.00536 q -0.41748,-0.1704 -0.74976,-0.26412 -0.33228,-0.09372 -0.6816001,-0.09372 -0.36636,0 -0.56232,0.1704 -0.19596,0.1704 -0.19596,0.4430401 0,0.32376 0.28968,0.5112 0.28968,0.18744 0.8605201,0.46008 0.4686,0.22152 0.79236,0.46008 0.33228,0.23856 0.5112,0.5623201 0.17892,0.32376 0.17892,0.80088 z"
         id="path1866" />
      <path
         d="M 8.9630455,0 H 5.4613253 v -6.0832803 h 3.5017202 v 1.05648 H 6.7478454 v 1.3376401 h 2.0618401 v 1.0564801 H 6.7478454 v 1.56768 h 2.2152001 z"
         id="path1868" />
      <path
         d="m 13.32896,-6.0832803 q 1.24392,0 1.8318,0.45156 0.5964,0.45156 0.5964,1.3717201 0,0.41748 -0.16188,0.73272 -0.15336,0.30672 -0.41748,0.52824 -0.2556,0.2130001 -0.5538,0.3493201 L 16.4132,0 h -1.43136 l -1.4484,-2.3344801 H 12.84332 V 0 H 11.5568 v -6.0832803 z m -0.09372,1.05648 h -0.39192 v 1.6443601 h 0.41748 q 0.639,0 0.91164,-0.213 0.28116,-0.213 0.28116,-0.63048 0,-0.4345201 -0.2982,-0.6134401 -0.28968,-0.18744 -0.92016,-0.18744 z"
         style="letter-spacing:-0.02em"
         id="path1870" />
      <path
         d="M 21.747999,-6.0832803 19.677639,0 h -1.4058 l -2.06184,-6.0832803 h 1.30356 l 1.14168,3.6210002 q 0.03408,0.09372 0.09372,0.34932 0.06816,0.24708 0.13632,0.52824 0.06816,0.27264 0.09372,0.46008 0.02556,-0.18744 0.0852,-0.46008 0.06816,-0.28116 0.13632,-0.52824 0.06816,-0.2556 0.09372,-0.34932 l 1.1502,-3.6210002 z"
         id="path1872" />
      <path
         d="m 26.016517,0 h -3.501721 v -6.0832803 h 3.501721 v 1.05648 h -2.215201 v 1.3376401 h 2.061841 v 1.0564801 h -2.061841 v 1.56768 h 2.215201 z"
         id="path1874" />
      <path
         d="m 29.058152,-6.0832803 q 1.24392,0 1.8318,0.45156 0.5964,0.45156 0.5964,1.3717201 0,0.41748 -0.16188,0.73272 -0.15336,0.30672 -0.41748,0.52824 -0.2556,0.2130001 -0.5538,0.3493201 L 32.142392,0 h -1.43136 l -1.4484,-2.3344801 h -0.69012 V 0 h -1.28652 v -6.0832803 z m -0.09372,1.05648 h -0.39192 v 1.6443601 h 0.41748 q 0.639,0 0.91164,-0.213 0.28116,-0.213 0.28116,-0.63048 0,-0.4345201 -0.2982,-0.6134401 -0.28968,-0.18744 -0.92016,-0.18744 z"
         id="path1876" />
      <path
         d="m 38.949874,0 h -4.25148 v -0.89460005 l 1.52508,-1.54212005 q 0.46008,-0.4771201 0.74124,-0.7923601 0.28116,-0.32376 0.40896,-0.57936 0.1278,-0.26412 0.1278,-0.56232 0,-0.3663601 -0.20448,-0.5452801 -0.19596,-0.17892 -0.53676,-0.17892 -0.34932,0 -0.6816,0.16188 -0.33228,0.16188 -0.69864,0.4600801 l -0.69864,-0.8264401 q 0.26412,-0.23004 0.5538,-0.426 0.2982,-0.19596 0.6816,-0.31524 0.39192,-0.1278 0.9372,-0.1278 0.5964,0 1.0224,0.22152 0.43452,0.213 0.66456,0.58788 0.23856,0.36636 0.23856,0.8349601 0,0.50268 -0.20448,0.92016 -0.19596,0.41748 -0.57936,0.8264401 -0.37488,0.40896 -0.91164,0.90312 l -0.78384,0.73272 v 0.05964 h 2.64972 z"
         id="path1878" />
    </g>
    <g
       id="g156">
      <g
         id="g150">
        <path
           id="rect144"
           class="h"
           style="fill:#cf2144"
           d="m 207.56,103.89 h 2.17 v 5.66 h -2.17 z" />
        <path
           class="h"
           d="m 204.94,103.97 -4.4,2.38 c -0.06,0.03 -0.14,0.03 -0.2,0 l -4.4,-2.38 c -0.09,-0.05 -0.2,-0.08 -0.31,-0.08 v 0 c -0.33,0 -0.6,0.24 -0.6,0.53 v 5.12 c 0,0 2.17,0 2.17,0 v -2.44 c 0,-0.15 0.19,-0.24 0.33,-0.16 l 2.47,1.33 c 0.24,0.13 0.55,0.13 0.79,0 l 2.6,-1.35 c 0.14,-0.07 0.33,0.02 0.33,0.17 v 2.44 c 0,0 2.17,0 2.17,0 v -5.12 c 0,-0.29 -0.27,-0.53 -0.6,-0.53 v 0 c -0.11,0 -0.22,0.03 -0.31,0.08 z"
           id="path146" />
        <path
           class="h"
           d="m 220.55,103.89 h -2.2 c 0,0 0,2.58 0,2.58 0,0.14 -0.17,0.24 -0.32,0.17 l -5.7,-2.68 c -0.09,-0.04 -0.18,-0.06 -0.28,-0.06 v 0 c -0.33,0 -0.6,0.24 -0.6,0.53 v 5.12 c 0,0 2.18,0 2.18,0 v -2.57 c 0,-0.14 0.17,-0.24 0.32,-0.17 l 5.72,2.68 c 0.09,0.04 0.18,0.06 0.28,0.06 v 0 c 0.33,0 0.6,-0.24 0.6,-0.53 v -5.12 z"
           id="path148" />
      </g>
      <path
         class="h"
         d="m 222.26,109.55 v -5.66 h 1 v 5.66 z"
         id="path152" />
      <path
         class="h"
         d="m 229.13,109.65 c -2.69,0 -4.59,-1.13 -4.59,-2.93 0,-1.79 1.92,-2.93 4.59,-2.93 2.67,0 4.6,1.13 4.6,2.93 0,1.8 -1.88,2.93 -4.6,2.93 z m 0,-5.11 c -2,0 -3.53,0.77 -3.53,2.18 0,1.42 1.54,2.18 3.53,2.18 1.99,0 3.55,-0.76 3.55,-2.18 0,-1.41 -1.55,-2.18 -3.55,-2.18 z"
         id="path154" />
    </g>
  </g>
  <path
     id="rect160"
     class="l"
     style="fill:none;stroke:#cf2144;stroke-miterlimit:10"
     d="m 332.95999,1.6 h 145.89 v 117.92 h -145.89 z" />
  <path
     id="rect162"
     class="i"
     style="fill:#dcf3f4"
     d="M 340.22,8.1000004 H 471.58 V 27.110001 H 340.22 Z" />
  <path
     id="rect164"
     class="i"
     style="fill:#dcf3f4"
     d="m 340.22,30.360001 h 131.36 v 19.01 H 340.22 Z" />
  <path
     id="rect166"
     class="i"
     style="fill:#dcf3f4"
     d="m 340.22,52.630001 h 131.36 v 19.01 H 340.22 Z" />
  <path
     id="rect168"
     class="i"
     style="fill:#dcf3f4"
     d="M 340.22,74.889999 H 471.58 V 93.9 H 340.22 Z" />
  <g
     aria-label="COMPUTE"
     id="text172"
     class="m"
     style="font-weight:500;font-size:12.12px;font-family:Inter-Medium, Inter;font-variation-settings:'slnt' 0, 'wght' 500">
    <path
       d="m 380.26801,15.18228 q -1.29684,0 -2.02404,0.89688 -0.7272,0.88476 -0.7272,2.43612 0,1.53924 0.67872,2.424 0.67872,0.88476 2.0604,0.88476 0.55752,0 1.06656,-0.09696 0.52116,-0.10908 1.05444,-0.27876 v 1.12716 q -0.50904,0.19392 -1.04232,0.27876 -0.52116,0.09696 -1.23624,0.09696 -1.3332,0 -2.20584,-0.5454 -0.87264,-0.55752 -1.30896,-1.55136 -0.43632,-1.00596 -0.43632,-2.35128 0,-1.30896 0.47268,-2.31492 0.4848,-1.00596 1.40592,-1.56348 0.92112,-0.56964 2.25432,-0.56964 0.65448,0 1.2726,0.14544 0.63024,0.13332 1.1514,0.38784 l -0.4848,1.0908 q -0.4242,-0.19392 -0.92112,-0.33936 -0.4848,-0.15756 -1.0302,-0.15756 z"
       id="path1846" />
    <path
       d="m 391.63656,18.49104 q 0,1.34532 -0.44844,2.35128 -0.44844,0.99384 -1.34532,1.55136 -0.89688,0.55752 -2.23008,0.55752 -1.36956,0 -2.26644,-0.55752 -0.89688,-0.55752 -1.3332,-1.56348 -0.43632,-1.00596 -0.43632,-2.35128 0,-1.3332 0.43632,-2.32704 0.44844,-0.99384 1.34532,-1.55136 0.89688,-0.55752 2.26644,-0.55752 1.3332,0 2.21796,0.55752 0.89688,0.5454 1.34532,1.55136 0.44844,0.99384 0.44844,2.33916 z m -6.67812,0 q 0,1.55136 0.64236,2.44824 0.64236,0.89688 2.01192,0.89688 1.38168,0 2.01192,-0.89688 0.63024,-0.89688 0.63024,-2.44824 0,-1.55136 -0.63024,-2.43612 -0.61812,-0.88476 -1.9998,-0.88476 -1.38168,0 -2.02404,0.88476 -0.64236,0.88476 -0.64236,2.43612 z"
       id="path1848" />
    <path
       d="m 397.28448,22.83 -2.61792,-7.35684 h -0.0485 q 0.0121,0.25452 0.0364,0.6666 0.0242,0.39996 0.0364,0.87264 0.0121,0.47268 0.0121,0.93324 V 22.83 h -1.18776 v -8.65368 h 1.86648 l 2.4846,6.94476 h 0.0485 l 2.55732,-6.94476 h 1.86648 V 22.83 h -1.2726 v -4.95708 q 0,-0.41208 0.0121,-0.86052 0.0242,-0.46056 0.0364,-0.86052 0.0242,-0.39996 0.0364,-0.6666 h -0.0485 L 398.41164,22.83 Z"
       id="path1850" />
    <path
       d="m 407.06531,14.17632 q 1.6968,0 2.47248,0.69084 0.77568,0.67872 0.77568,1.90284 0,0.7272 -0.32724,1.35744 -0.31512,0.63024 -1.06656,1.0302 -0.75144,0.38784 -2.03616,0.38784 h -0.93324 V 22.83 h -1.30896 v -8.65368 z m -0.097,1.10292 h -1.01808 v 3.16332 h 0.7878 q 1.10292,0 1.66044,-0.37572 0.56964,-0.37572 0.56964,-1.24836 0,-0.77568 -0.4848,-1.1514 -0.4848,-0.38784 -1.515,-0.38784 z"
       id="path1852" />
    <path
       d="m 418.77322,19.77576 q 0,0.89688 -0.37572,1.62408 -0.37572,0.71508 -1.13928,1.13928 -0.75144,0.41208 -1.91496,0.41208 -1.64832,0 -2.50884,-0.87264 -0.8484,-0.88476 -0.8484,-2.32704 v -5.5752 h 1.30896 v 5.5146 q 0,2.14524 2.10888,2.14524 1.0908,0 1.5756,-0.58176 0.49692,-0.58176 0.49692,-1.5756 v -5.50248 h 1.29684 z"
       id="path1854" />
    <path
       d="m 423.91211,22.83 h -1.30896 v -7.52652 h -2.59368 v -1.12716 h 6.49632 v 1.12716 h -2.59368 z"
       id="path1856" />
    <path
       d="m 432.69911,22.83 h -4.87224 v -8.65368 h 4.87224 v 1.11504 h -3.56328 v 2.47248 h 3.34512 v 1.10292 h -3.34512 v 2.83608 h 3.56328 z"
       id="path1858" />
  </g>
  <g
     aria-label="STORAGE"
     id="text184"
     class="m"
     style="font-weight:500;font-size:12.12px;font-family:Inter-Medium, Inter;font-variation-settings:'slnt' 0, 'wght' 500">
    <path
       d="m 383.58059,87.070844 q 0,1.1514 -0.83628,1.80588 -0.83628,0.65448 -2.29068,0.65448 -0.70296,0 -1.3332,-0.1212 -0.61812,-0.10908 -1.05444,-0.32724 v -1.23624 q 0.4848,0.21816 1.13928,0.39996 0.65448,0.16968 1.3332,0.16968 0.87264,0 1.30896,-0.33936 0.43632,-0.33936 0.43632,-0.909 0,-0.39996 -0.20604,-0.6666 -0.19392,-0.27876 -0.61812,-0.50904 -0.4242,-0.23028 -1.11504,-0.50904 -0.64236,-0.2424 -1.13928,-0.56964 -0.4848,-0.32724 -0.76356,-0.81204 -0.27876,-0.4848 -0.27876,-1.18776 0,-1.06656 0.77568,-1.67256 0.77568,-0.606 2.03616,-0.606 0.70296,0 1.29684,0.14544 0.606,0.13332 1.1514,0.37572 l -0.41208,1.07868 q -0.49692,-0.20604 -1.01808,-0.33936 -0.50904,-0.13332 -1.05444,-0.13332 -0.71508,0 -1.0908,0.31512 -0.37572,0.31512 -0.37572,0.82416 0,0.39996 0.1818,0.67872 0.1818,0.26664 0.58176,0.4848 0.39996,0.21816 1.05444,0.4848 0.7272,0.29088 1.23624,0.61812 0.52116,0.31512 0.7878,0.77568 0.26664,0.44844 0.26664,1.12716 z"
       id="path1831" />
    <path
       d="m 389.32021,89.410004 h -1.30896 v -7.52652 h -2.59368 v -1.12716 h 6.49632 v 1.12716 h -2.59368 z"
       style="letter-spacing:-0.03em"
       id="path1833" />
    <path
       d="m 401.55699,85.071044 q 0,1.34532 -0.44844,2.35128 -0.44844,0.99384 -1.34532,1.55136 -0.89688,0.55752 -2.23008,0.55752 -1.36956,0 -2.26644,-0.55752 -0.89688,-0.55752 -1.3332,-1.56348 -0.43632,-1.00596 -0.43632,-2.35128 0,-1.3332 0.43632,-2.32704 0.44844,-0.99384 1.34532,-1.55136 0.89688,-0.55752 2.26644,-0.55752 1.3332,0 2.21796,0.55752 0.89688,0.5454 1.34532,1.55136 0.44844,0.99384 0.44844,2.33916 z m -6.67812,0 q 0,1.55136 0.64236,2.44824 0.64236,0.89688 2.01192,0.89688 1.38168,0 2.01192,-0.89688 0.63024,-0.89688 0.63024,-2.44824 0,-1.55136 -0.63024,-2.43612 -0.61812,-0.88476 -1.9998,-0.88476 -1.38168,0 -2.02404,0.88476 -0.64236,0.88476 -0.64236,2.43612 z"
       id="path1835" />
    <path
       d="m 405.85959,80.756324 q 1.66044,0 2.44824,0.61812 0.79992,0.61812 0.79992,1.8786 0,0.6666 -0.25452,1.12716 -0.2424,0.44844 -0.63024,0.73932 -0.38784,0.27876 -0.81204,0.44844 l 2.424,3.84204 h -1.50288 l -2.08464,-3.50268 h -1.50288 v 3.50268 h -1.30896 v -8.65368 z m -0.0848,1.11504 h -1.0302 v 2.94516 h 1.0908 q 1.00596,0 1.46652,-0.37572 0.46056,-0.38784 0.46056,-1.13928 0,-0.77568 -0.4848,-1.10292 -0.4848,-0.32724 -1.50288,-0.32724 z"
       id="path1837" />
    <path
       d="m 416.44479,89.410004 -0.92112,-2.49672 h -3.34512 l -0.92112,2.49672 h -1.35744 l 3.28452,-8.69004 h 1.35744 l 3.2724,8.69004 z m -2.15736,-6.07212 q -0.0364,-0.13332 -0.13332,-0.39996 -0.0848,-0.26664 -0.16968,-0.55752 -0.0848,-0.29088 -0.13332,-0.47268 -0.097,0.37572 -0.21816,0.79992 -0.1212,0.4242 -0.19392,0.63024 l -0.87264,2.43612 h 2.59368 z"
       style="letter-spacing:-0.03em"
       id="path1839" />
    <path
       d="m 422.72315,84.755924 h 3.12696 v 4.31472 q -0.69084,0.23028 -1.41804,0.33936 -0.71508,0.1212 -1.6362,0.1212 -1.98768,0 -3.05424,-1.17564 -1.05444,-1.18776 -1.05444,-3.2724 0,-1.35744 0.52116,-2.35128 0.53328,-1.00596 1.53924,-1.55136 1.00596,-0.5454 2.43612,-0.5454 0.71508,0 1.36956,0.14544 0.65448,0.13332 1.212,0.37572 l -0.47268,1.0908 q -0.44844,-0.19392 -1.00596,-0.33936 -0.5454,-0.14544 -1.1514,-0.14544 -1.44228,0 -2.26644,0.89688 -0.82416,0.89688 -0.82416,2.43612 0,0.98172 0.303,1.73316 0.303,0.73932 0.95748,1.16352 0.65448,0.4242 1.70892,0.4242 0.52116,0 0.87264,-0.04848 0.3636,-0.0606 0.6666,-0.13332 v -2.35128 h -1.83012 z"
       id="path1841" />
    <path
       d="m 432.79486,89.410004 h -4.87224 v -8.65368 h 4.87224 v 1.11504 h -3.56328 v 2.47248 h 3.34512 v 1.10292 h -3.34512 v 2.83608 h 3.56328 z"
       id="path1843" />
  </g>
  <g
     aria-label="MEMORY"
     id="text188"
     class="m"
     style="font-weight:500;font-size:12.12px;font-family:Inter-Medium, Inter;font-variation-settings:'slnt' 0, 'wght' 500">
    <path
       d="m 383.58072,43.07 -2.61792,-7.35684 h -0.0485 q 0.0121,0.25452 0.0364,0.6666 0.0242,0.39996 0.0364,0.87264 0.0121,0.47268 0.0121,0.93324 V 43.07 h -1.18776 v -8.65368 h 1.86648 l 2.4846,6.94476 h 0.0485 l 2.55732,-6.94476 h 1.86648 V 43.07 h -1.2726 v -4.95708 q 0,-0.41208 0.0121,-0.86052 0.0242,-0.46056 0.0364,-0.86052 0.0242,-0.39996 0.0364,-0.6666 h -0.0485 L 384.70788,43.07 Z"
       id="path1818" />
    <path
       d="m 395.80979,43.07 h -4.87224 v -8.65368 h 4.87224 v 1.11504 h -3.56328 v 2.47248 h 3.34512 v 1.10292 h -3.34512 v 2.83608 h 3.56328 z"
       id="path1820" />
    <path
       d="m 401.45771,43.07 -2.61792,-7.35684 h -0.0485 q 0.0121,0.25452 0.0364,0.6666 0.0242,0.39996 0.0364,0.87264 0.0121,0.47268 0.0121,0.93324 V 43.07 h -1.18776 v -8.65368 h 1.86648 l 2.4846,6.94476 h 0.0485 l 2.55732,-6.94476 h 1.86648 V 43.07 h -1.2726 v -4.95708 q 0,-0.41208 0.0121,-0.86052 0.0242,-0.46056 0.0364,-0.86052 0.0242,-0.39996 0.0364,-0.6666 h -0.0485 L 402.58487,43.07 Z"
       id="path1822" />
    <path
       d="m 416.45014,38.73104 q 0,1.34532 -0.44844,2.35128 -0.44844,0.99384 -1.34532,1.55136 -0.89688,0.55752 -2.23008,0.55752 -1.36956,0 -2.26644,-0.55752 -0.89688,-0.55752 -1.3332,-1.56348 -0.43632,-1.00596 -0.43632,-2.35128 0,-1.3332 0.43632,-2.32704 0.44844,-0.99384 1.34532,-1.55136 0.89688,-0.55752 2.26644,-0.55752 1.3332,0 2.21796,0.55752 0.89688,0.5454 1.34532,1.55136 0.44844,0.99384 0.44844,2.33916 z m -6.67812,0 q 0,1.55136 0.64236,2.44824 0.64236,0.89688 2.01192,0.89688 1.38168,0 2.01192,-0.89688 0.63024,-0.89688 0.63024,-2.44824 0,-1.55136 -0.63024,-2.43612 -0.61812,-0.88476 -1.9998,-0.88476 -1.38168,0 -2.02404,0.88476 -0.64236,0.88476 -0.64236,2.43612 z"
       id="path1824" />
    <path
       d="m 420.75273,34.41632 q 1.66044,0 2.44824,0.61812 0.79992,0.61812 0.79992,1.8786 0,0.6666 -0.25452,1.12716 -0.2424,0.44844 -0.63024,0.73932 -0.38784,0.27876 -0.81204,0.44844 l 2.424,3.84204 h -1.50288 l -2.08464,-3.50268 h -1.50288 V 43.07 h -1.30896 v -8.65368 z m -0.0848,1.11504 h -1.0302 v 2.94516 h 1.0908 q 1.00596,0 1.46652,-0.37572 0.46056,-0.38784 0.46056,-1.13928 0,-0.77568 -0.4848,-1.10292 -0.4848,-0.32724 -1.50288,-0.32724 z"
       id="path1826" />
    <path
       d="m 428.38833,38.4644 2.121,-4.04808 h 1.40592 l -2.88456,5.29644 V 43.07 h -1.29684 v -3.30876 l -2.88456,-5.34492 h 1.41804 z"
       id="path1828" />
  </g>
  <g
     aria-label="NETWORK"
     id="text196"
     class="m"
     style="font-weight:500;font-size:12.12px;font-family:Inter-Medium, Inter;font-variation-settings:'slnt' 0, 'wght' 500">
    <path
       d="m 383.74371,66.290001 h -1.58772 l -4.37532,-6.99324 h -0.0485 q 0.0242,0.4848 0.0606,1.11504 0.0364,0.61812 0.0364,1.2726 v 4.6056 h -1.18776 v -8.65368 h 1.5756 l 4.3632,6.95688 h 0.0364 q -0.0121,-0.25452 -0.0364,-0.64236 -0.0121,-0.38784 -0.0242,-0.82416 -0.0121,-0.44844 -0.0242,-0.83628 v -4.65408 h 1.212 z"
       id="path1803" />
    <path
       d="m 390.91876,66.290001 h -4.87224 v -8.65368 h 4.87224 v 1.11504 h -3.56328 v 2.47248 h 3.34512 v 1.10292 h -3.34512 v 2.83608 h 3.56328 z"
       id="path1805" />
    <path
       d="m 395.70615,66.290001 h -1.30896 v -7.52652 h -2.59368 v -1.12716 h 6.49632 v 1.12716 h -2.59368 z"
       id="path1807" />
    <path
       d="m 411.02585,57.636321 -2.27856,8.65368 h -1.3938 l -1.52712,-5.34492 q -0.0848,-0.29088 -0.1818,-0.65448 -0.0848,-0.3636 -0.15756,-0.67872 -0.0727,-0.32724 -0.097,-0.46056 -0.0121,0.13332 -0.0727,0.44844 -0.0606,0.31512 -0.15756,0.69084 -0.0848,0.37572 -0.16968,0.69084 l -1.50288,5.30856 h -1.3938 l -2.26644,-8.65368 h 1.34532 l 1.2726,5.11464 q 0.13332,0.52116 0.2424,1.10292 0.10908,0.56964 0.16968,1.01808 0.0606,-0.46056 0.1818,-1.05444 0.1212,-0.59388 0.26664,-1.06656 l 1.44228,-5.11464 h 1.30896 l 1.49076,5.13888 q 0.14544,0.4848 0.26664,1.0908 0.1212,0.59388 0.1818,1.00596 0.0606,-0.43632 0.16968,-1.01808 0.1212,-0.58176 0.25452,-1.10292 l 1.2726,-5.11464 z"
       style="letter-spacing:-0.04em"
       id="path1809" />
    <path
       d="m 419.93699,61.951041 q 0,1.34532 -0.44844,2.35128 -0.44844,0.99384 -1.34532,1.55136 -0.89688,0.55752 -2.23008,0.55752 -1.36956,0 -2.26644,-0.55752 -0.89688,-0.55752 -1.3332,-1.56348 -0.43632,-1.00596 -0.43632,-2.35128 0,-1.3332 0.43632,-2.32704 0.44844,-0.99384 1.34532,-1.55136 0.89688,-0.55752 2.26644,-0.55752 1.3332,0 2.21796,0.55752 0.89688,0.5454 1.34532,1.55136 0.44844,0.99384 0.44844,2.33916 z m -6.67812,0 q 0,1.55136 0.64236,2.44824 0.64236,0.89688 2.01192,0.89688 1.38168,0 2.01192,-0.89688 0.63024,-0.89688 0.63024,-2.44824 0,-1.55136 -0.63024,-2.43612 -0.61812,-0.88476 -1.9998,-0.88476 -1.38168,0 -2.02404,0.88476 -0.64236,0.88476 -0.64236,2.43612 z"
       id="path1811" />
    <path
       d="m 424.23959,57.636321 q 1.66044,0 2.44824,0.61812 0.79992,0.61812 0.79992,1.8786 0,0.6666 -0.25452,1.12716 -0.2424,0.44844 -0.63024,0.73932 -0.38784,0.27876 -0.81204,0.44844 l 2.424,3.84204 h -1.50288 l -2.08464,-3.50268 h -1.50288 v 3.50268 h -1.30896 v -8.65368 z m -0.0848,1.11504 h -1.0302 v 2.94516 h 1.0908 q 1.00596,0 1.46652,-0.37572 0.46056,-0.38784 0.46056,-1.13928 0,-0.77568 -0.4848,-1.10292 -0.4848,-0.32724 -1.50288,-0.32724 z"
       id="path1813" />
    <path
       d="m 435.99599,66.290001 h -1.515 l -2.83608,-3.98748 -0.8484,0.70296 v 3.28452 h -1.30896 v -8.65368 h 1.30896 v 4.1814 q 0.31512,-0.3636 0.63024,-0.7272 0.31512,-0.37572 0.63024,-0.73932 l 2.33916,-2.71488 h 1.50288 l -3.30876,3.78144 z"
       id="path1815" />
  </g>
  <g
     id="g220">
    <g
       aria-label="SERVER 3"
       transform="translate(403.72,109.65)"
       id="text204"
       class="k"
       style="font-weight:700;font-size:8.52px;font-family:Inter-Bold, Inter;font-variation-settings:'slnt' 0, 'wght' 700">
      <path
         d="m 4.3537202,-1.6869601 q 0,0.80940005 -0.58788,1.29504008 Q 3.1864802,0.0852 2.1129601,0.0852 q -0.96276,0 -1.72104008,-0.36636002 V -1.4824801 q 0.43452002,0.18744 0.89460008,0.34932 0.4686,0.15336005 0.92868,0.15336005 0.47712,0 0.6730801,-0.17892005 0.20448,-0.18744 0.20448,-0.4686 0,-0.23004 -0.16188,-0.39192 -0.1533601,-0.16188 -0.4174801,-0.2982 -0.26412,-0.14484 -0.60492,-0.30672 -0.213,-0.10224 -0.46008,-0.2385601 -0.24708,-0.14484 -0.47712005,-0.34932 -0.22152001,-0.213 -0.36636002,-0.5112 -0.14484001,-0.2982 -0.14484001,-0.71568 0,-0.8179201 0.55380008,-1.2694801 0.5538,-0.46008 1.50804,-0.46008 0.4771201,0 0.9031201,0.11076 0.43452,0.11076 0.90312,0.31524 l -0.41748,1.00536 q -0.41748,-0.1704 -0.74976,-0.26412 -0.33228,-0.09372 -0.6816001,-0.09372 -0.36636,0 -0.56232,0.1704 -0.19596,0.1704 -0.19596,0.4430401 0,0.32376 0.28968,0.5112 0.28968,0.18744 0.8605201,0.46008 0.4686,0.22152 0.79236,0.46008 0.33228,0.23856 0.5112,0.5623201 0.17892,0.32376 0.17892,0.80088 z"
         id="path1787" />
      <path
         d="M 8.9630455,0 H 5.4613253 v -6.0832803 h 3.5017202 v 1.05648 H 6.7478454 v 1.3376401 h 2.0618401 v 1.0564801 H 6.7478454 v 1.56768 h 2.2152001 z"
         id="path1789" />
      <path
         d="m 13.32896,-6.0832803 q 1.24392,0 1.8318,0.45156 0.5964,0.45156 0.5964,1.3717201 0,0.41748 -0.16188,0.73272 -0.15336,0.30672 -0.41748,0.52824 -0.2556,0.2130001 -0.5538,0.3493201 L 16.4132,0 h -1.43136 l -1.4484,-2.3344801 H 12.84332 V 0 H 11.5568 v -6.0832803 z m -0.09372,1.05648 h -0.39192 v 1.6443601 h 0.41748 q 0.639,0 0.91164,-0.213 0.28116,-0.213 0.28116,-0.63048 0,-0.4345201 -0.2982,-0.6134401 -0.28968,-0.18744 -0.92016,-0.18744 z"
         style="letter-spacing:-0.02em"
         id="path1791" />
      <path
         d="M 21.747999,-6.0832803 19.677639,0 h -1.4058 l -2.06184,-6.0832803 h 1.30356 l 1.14168,3.6210002 q 0.03408,0.09372 0.09372,0.34932 0.06816,0.24708 0.13632,0.52824 0.06816,0.27264 0.09372,0.46008 0.02556,-0.18744 0.0852,-0.46008 0.06816,-0.28116 0.13632,-0.52824 0.06816,-0.2556 0.09372,-0.34932 l 1.1502,-3.6210002 z"
         id="path1793" />
      <path
         d="m 26.016517,0 h -3.501721 v -6.0832803 h 3.501721 v 1.05648 h -2.215201 v 1.3376401 h 2.061841 v 1.0564801 h -2.061841 v 1.56768 h 2.215201 z"
         id="path1795" />
      <path
         d="m 29.058152,-6.0832803 q 1.24392,0 1.8318,0.45156 0.5964,0.45156 0.5964,1.3717201 0,0.41748 -0.16188,0.73272 -0.15336,0.30672 -0.41748,0.52824 -0.2556,0.2130001 -0.5538,0.3493201 L 32.142392,0 h -1.43136 l -1.4484,-2.3344801 h -0.69012 V 0 h -1.28652 v -6.0832803 z m -0.09372,1.05648 h -0.39192 v 1.6443601 h 0.41748 q 0.639,0 0.91164,-0.213 0.28116,-0.213 0.28116,-0.63048 0,-0.4345201 -0.2982,-0.6134401 -0.28968,-0.18744 -0.92016,-0.18744 z"
         id="path1797" />
      <path
         d="m 38.711314,-4.7200803 q 0,0.6304801 -0.3834,1.0053601 -0.37488,0.37488 -0.92868,0.5112 v 0.02556 q 0.73272,0.0852 1.1076,0.4430401 0.3834,0.35784 0.3834,0.96276 0,0.52824 -0.26412,0.95424006 -0.2556,0.41748002 -0.80088,0.66456003 Q 37.288474,0.0852 36.436474,0.0852 q -0.98832,0 -1.75512,-0.33228001 V -1.3376401 q 0.39192,0.19596 0.81792,0.2982 0.43452,0.10224005 0.80088,0.10224005 0.69012,0 0.96276,-0.23856005 0.28116,-0.23856 0.28116,-0.67308 0,-0.2556 -0.1278,-0.426 -0.1278,-0.17892 -0.45156,-0.26412 -0.31524,-0.09372 -0.88608,-0.09372 h -0.46008 v -0.9883201 h 0.4686 q 0.56232,0 0.852,-0.10224 0.2982,-0.11076 0.40044,-0.28968 0.11076,-0.18744 0.11076,-0.426 0,-0.3237601 -0.20448,-0.5026801 -0.19596,-0.18744 -0.66456,-0.18744 -0.43452,0 -0.75828,0.15336 -0.31524,0.14484 -0.53676,0.28968 l -0.5964,-0.88608 q 0.35784,-0.2556 0.83496,-0.426 0.48564,-0.1704 1.1502,-0.1704 0.9372,0 1.48248,0.3834 0.5538,0.37488 0.5538,1.065 z"
         id="path1799" />
    </g>
    <g
       id="g218">
      <g
         id="g212">
        <path
           id="rect206"
           class="h"
           style="fill:#cf2144"
           d="m 374.04001,103.89 h 2.17 v 5.66 h -2.17 z" />
        <path
           class="h"
           d="m 371.41,103.97 -4.4,2.38 c -0.06,0.03 -0.14,0.03 -0.2,0 l -4.4,-2.38 c -0.09,-0.05 -0.2,-0.08 -0.31,-0.08 v 0 c -0.33,0 -0.6,0.24 -0.6,0.53 v 5.12 c 0,0 2.17,0 2.17,0 v -2.44 c 0,-0.15 0.19,-0.24 0.33,-0.16 l 2.47,1.33 c 0.24,0.13 0.55,0.13 0.79,0 l 2.6,-1.35 c 0.14,-0.07 0.33,0.02 0.33,0.17 v 2.44 c 0,0 2.17,0 2.17,0 v -5.12 c 0,-0.29 -0.27,-0.53 -0.6,-0.53 v 0 c -0.11,0 -0.22,0.03 -0.31,0.08 z"
           id="path208" />
        <path
           class="h"
           d="m 387.03,103.89 h -2.2 c 0,0 0,2.58 0,2.58 0,0.14 -0.17,0.24 -0.32,0.17 l -5.7,-2.68 c -0.09,-0.04 -0.18,-0.06 -0.28,-0.06 v 0 c -0.33,0 -0.6,0.24 -0.6,0.53 v 5.12 c 0,0 2.18,0 2.18,0 v -2.57 c 0,-0.14 0.17,-0.24 0.32,-0.17 l 5.72,2.68 c 0.09,0.04 0.18,0.06 0.28,0.06 v 0 c 0.33,0 0.6,-0.24 0.6,-0.53 v -5.12 z"
           id="path210" />
      </g>
      <path
         class="h"
         d="m 388.74,109.55 v -5.66 h 1 v 5.66 z"
         id="path214" />
      <path
         class="h"
         d="m 395.61,109.65 c -2.69,0 -4.59,-1.13 -4.59,-2.93 0,-1.79 1.92,-2.93 4.59,-2.93 2.67,0 4.6,1.13 4.6,2.93 0,1.8 -1.88,2.93 -4.6,2.93 z m 0,-5.11 c -2,0 -3.53,0.77 -3.53,2.18 0,1.42 1.54,2.18 3.53,2.18 1.99,0 3.55,-0.76 3.55,-2.18 0,-1.41 -1.55,-2.18 -3.55,-2.18 z"
         id="path216" />
    </g>
  </g>
  <path
     id="rect222"
     class="l"
     style="fill:none;stroke:#cf2144;stroke-miterlimit:10"
     d="M 499.44,1.6 H 645.33 V 119.52 H 499.44 Z" />
  <path
     id="rect224"
     class="i"
     style="fill:#dcf3f4"
     d="m 506.70001,8.1000004 h 131.36 V 27.110001 h -131.36 z" />
  <path
     id="rect226"
     class="i"
     style="fill:#dcf3f4"
     d="m 506.70001,30.360001 h 131.36 v 19.01 h -131.36 z" />
  <path
     id="rect228"
     class="i"
     style="fill:#dcf3f4"
     d="m 506.70001,52.630001 h 131.36 v 19.01 h -131.36 z" />
  <path
     id="rect230"
     class="i"
     style="fill:#dcf3f4"
     d="m 506.70001,74.889999 h 131.36 V 93.9 h -131.36 z" />
  <g
     aria-label="COMPUTE"
     id="text234"
     class="m"
     style="font-weight:500;font-size:12.12px;font-family:Inter-Medium, Inter;font-variation-settings:'slnt' 0, 'wght' 500">
    <path
       d="m 546.73801,15.18228 q -1.29684,0 -2.02404,0.89688 -0.7272,0.88476 -0.7272,2.43612 0,1.53924 0.67872,2.424 0.67872,0.88476 2.0604,0.88476 0.55752,0 1.06656,-0.09696 0.52116,-0.10908 1.05444,-0.27876 v 1.12716 q -0.50904,0.19392 -1.04232,0.27876 -0.52116,0.09696 -1.23624,0.09696 -1.3332,0 -2.20584,-0.5454 -0.87264,-0.55752 -1.30896,-1.55136 -0.43632,-1.00596 -0.43632,-2.35128 0,-1.30896 0.47268,-2.31492 0.4848,-1.00596 1.40592,-1.56348 0.92112,-0.56964 2.25432,-0.56964 0.65448,0 1.2726,0.14544 0.63024,0.13332 1.1514,0.38784 l -0.4848,1.0908 q -0.4242,-0.19392 -0.92112,-0.33936 -0.4848,-0.15756 -1.0302,-0.15756 z"
       id="path1767" />
    <path
       d="m 558.10656,18.49104 q 0,1.34532 -0.44844,2.35128 -0.44844,0.99384 -1.34532,1.55136 -0.89688,0.55752 -2.23008,0.55752 -1.36956,0 -2.26644,-0.55752 -0.89688,-0.55752 -1.3332,-1.56348 -0.43632,-1.00596 -0.43632,-2.35128 0,-1.3332 0.43632,-2.32704 0.44844,-0.99384 1.34532,-1.55136 0.89688,-0.55752 2.26644,-0.55752 1.3332,0 2.21796,0.55752 0.89688,0.5454 1.34532,1.55136 0.44844,0.99384 0.44844,2.33916 z m -6.67812,0 q 0,1.55136 0.64236,2.44824 0.64236,0.89688 2.01192,0.89688 1.38168,0 2.01192,-0.89688 0.63024,-0.89688 0.63024,-2.44824 0,-1.55136 -0.63024,-2.43612 -0.61812,-0.88476 -1.9998,-0.88476 -1.38168,0 -2.02404,0.88476 -0.64236,0.88476 -0.64236,2.43612 z"
       id="path1769" />
    <path
       d="m 563.75448,22.83 -2.61792,-7.35684 h -0.0485 q 0.0121,0.25452 0.0364,0.6666 0.0242,0.39996 0.0364,0.87264 0.0121,0.47268 0.0121,0.93324 V 22.83 h -1.18776 v -8.65368 h 1.86648 l 2.4846,6.94476 h 0.0485 l 2.55732,-6.94476 h 1.86648 V 22.83 h -1.2726 v -4.95708 q 0,-0.41208 0.0121,-0.86052 0.0242,-0.46056 0.0364,-0.86052 0.0242,-0.39996 0.0364,-0.6666 h -0.0485 L 564.88164,22.83 Z"
       id="path1771" />
    <path
       d="m 573.53531,14.17632 q 1.6968,0 2.47248,0.69084 0.77568,0.67872 0.77568,1.90284 0,0.7272 -0.32724,1.35744 -0.31512,0.63024 -1.06656,1.0302 -0.75144,0.38784 -2.03616,0.38784 h -0.93324 V 22.83 h -1.30896 v -8.65368 z m -0.097,1.10292 h -1.01808 v 3.16332 h 0.7878 q 1.10292,0 1.66044,-0.37572 0.56964,-0.37572 0.56964,-1.24836 0,-0.77568 -0.4848,-1.1514 -0.4848,-0.38784 -1.515,-0.38784 z"
       id="path1773" />
    <path
       d="m 585.24323,19.77576 q 0,0.89688 -0.37572,1.62408 -0.37572,0.71508 -1.13928,1.13928 -0.75144,0.41208 -1.91496,0.41208 -1.64832,0 -2.50884,-0.87264 -0.8484,-0.88476 -0.8484,-2.32704 v -5.5752 h 1.30896 v 5.5146 q 0,2.14524 2.10888,2.14524 1.0908,0 1.5756,-0.58176 0.49692,-0.58176 0.49692,-1.5756 v -5.50248 h 1.29684 z"
       id="path1775" />
    <path
       d="m 590.38211,22.83 h -1.30896 v -7.52652 h -2.59368 v -1.12716 h 6.49632 v 1.12716 h -2.59368 z"
       id="path1777" />
    <path
       d="m 599.16911,22.83 h -4.87224 v -8.65368 h 4.87224 v 1.11504 h -3.56328 v 2.47248 h 3.34512 v 1.10292 h -3.34512 v 2.83608 h 3.56328 z"
       id="path1779" />
  </g>
  <g
     aria-label="STORAGE"
     id="text246"
     class="m"
     style="font-weight:500;font-size:12.12px;font-family:Inter-Medium, Inter;font-variation-settings:'slnt' 0, 'wght' 500">
    <path
       d="m 550.0606,87.070844 q 0,1.1514 -0.83628,1.80588 -0.83628,0.65448 -2.29068,0.65448 -0.70296,0 -1.3332,-0.1212 -0.61812,-0.10908 -1.05444,-0.32724 v -1.23624 q 0.4848,0.21816 1.13928,0.39996 0.65448,0.16968 1.3332,0.16968 0.87264,0 1.30896,-0.33936 0.43632,-0.33936 0.43632,-0.909 0,-0.39996 -0.20604,-0.6666 -0.19392,-0.27876 -0.61812,-0.50904 -0.4242,-0.23028 -1.11504,-0.50904 -0.64236,-0.2424 -1.13928,-0.56964 -0.4848,-0.32724 -0.76356,-0.81204 -0.27876,-0.4848 -0.27876,-1.18776 0,-1.06656 0.77568,-1.67256 0.77568,-0.606 2.03616,-0.606 0.70296,0 1.29684,0.14544 0.606,0.13332 1.1514,0.37572 l -0.41208,1.07868 q -0.49692,-0.20604 -1.01808,-0.33936 -0.50904,-0.13332 -1.05444,-0.13332 -0.71508,0 -1.0908,0.31512 -0.37572,0.31512 -0.37572,0.82416 0,0.39996 0.1818,0.67872 0.1818,0.26664 0.58176,0.4848 0.39996,0.21816 1.05444,0.4848 0.7272,0.29088 1.23624,0.61812 0.52116,0.31512 0.7878,0.77568 0.26664,0.44844 0.26664,1.12716 z"
       id="path1752" />
    <path
       d="m 555.80019,89.410004 h -1.30896 v -7.52652 h -2.59368 v -1.12716 h 6.49632 v 1.12716 h -2.59368 z"
       style="letter-spacing:-0.03em"
       id="path1754" />
    <path
       d="m 568.037,85.071044 q 0,1.34532 -0.44844,2.35128 -0.44844,0.99384 -1.34532,1.55136 -0.89688,0.55752 -2.23008,0.55752 -1.36956,0 -2.26644,-0.55752 -0.89688,-0.55752 -1.3332,-1.56348 -0.43632,-1.00596 -0.43632,-2.35128 0,-1.3332 0.43632,-2.32704 0.44844,-0.99384 1.34532,-1.55136 0.89688,-0.55752 2.26644,-0.55752 1.3332,0 2.21796,0.55752 0.89688,0.5454 1.34532,1.55136 0.44844,0.99384 0.44844,2.33916 z m -6.67812,0 q 0,1.55136 0.64236,2.44824 0.64236,0.89688 2.01192,0.89688 1.38168,0 2.01192,-0.89688 0.63024,-0.89688 0.63024,-2.44824 0,-1.55136 -0.63024,-2.43612 -0.61812,-0.88476 -1.9998,-0.88476 -1.38168,0 -2.02404,0.88476 -0.64236,0.88476 -0.64236,2.43612 z"
       id="path1756" />
    <path
       d="m 572.3396,80.756324 q 1.66044,0 2.44824,0.61812 0.79992,0.61812 0.79992,1.8786 0,0.6666 -0.25452,1.12716 -0.2424,0.44844 -0.63024,0.73932 -0.38784,0.27876 -0.81204,0.44844 l 2.424,3.84204 h -1.50288 l -2.08464,-3.50268 h -1.50288 v 3.50268 h -1.30896 v -8.65368 z m -0.0848,1.11504 h -1.0302 v 2.94516 h 1.0908 q 1.00596,0 1.46652,-0.37572 0.46056,-0.38784 0.46056,-1.13928 0,-0.77568 -0.4848,-1.10292 -0.4848,-0.32724 -1.50288,-0.32724 z"
       id="path1758" />
    <path
       d="m 582.9248,89.410004 -0.92112,-2.49672 h -3.34512 l -0.92112,2.49672 H 576.38 l 3.28452,-8.69004 h 1.35744 l 3.2724,8.69004 z m -2.15736,-6.07212 q -0.0364,-0.13332 -0.13332,-0.39996 -0.0848,-0.26664 -0.16968,-0.55752 -0.0848,-0.29088 -0.13332,-0.47268 -0.097,0.37572 -0.21816,0.79992 -0.1212,0.4242 -0.19392,0.63024 l -0.87264,2.43612 h 2.59368 z"
       style="letter-spacing:-0.03em"
       id="path1760" />
    <path
       d="m 589.20316,84.755924 h 3.12696 v 4.31472 q -0.69084,0.23028 -1.41804,0.33936 -0.71508,0.1212 -1.6362,0.1212 -1.98768,0 -3.05424,-1.17564 -1.05444,-1.18776 -1.05444,-3.2724 0,-1.35744 0.52116,-2.35128 0.53328,-1.00596 1.53924,-1.55136 1.00596,-0.5454 2.43612,-0.5454 0.71508,0 1.36956,0.14544 0.65448,0.13332 1.212,0.37572 l -0.47268,1.0908 q -0.44844,-0.19392 -1.00596,-0.33936 -0.5454,-0.14544 -1.1514,-0.14544 -1.44228,0 -2.26644,0.89688 -0.82416,0.89688 -0.82416,2.43612 0,0.98172 0.303,1.73316 0.303,0.73932 0.95748,1.16352 0.65448,0.4242 1.70892,0.4242 0.52116,0 0.87264,-0.04848 0.3636,-0.0606 0.6666,-0.13332 v -2.35128 h -1.83012 z"
       id="path1762" />
    <path
       d="m 599.27487,89.410004 h -4.87224 v -8.65368 h 4.87224 v 1.11504 h -3.56328 v 2.47248 h 3.34512 v 1.10292 h -3.34512 v 2.83608 h 3.56328 z"
       id="path1764" />
  </g>
  <g
     aria-label="MEMORY"
     id="text250"
     class="m"
     style="font-weight:500;font-size:12.12px;font-family:Inter-Medium, Inter;font-variation-settings:'slnt' 0, 'wght' 500">
    <path
       d="m 550.06073,43.07 -2.61792,-7.35684 h -0.0485 q 0.0121,0.25452 0.0364,0.6666 0.0242,0.39996 0.0364,0.87264 0.0121,0.47268 0.0121,0.93324 V 43.07 h -1.18776 v -8.65368 h 1.86648 l 2.4846,6.94476 h 0.0485 l 2.55732,-6.94476 h 1.86648 V 43.07 h -1.2726 v -4.95708 q 0,-0.41208 0.0121,-0.86052 0.0242,-0.46056 0.0364,-0.86052 0.0242,-0.39996 0.0364,-0.6666 h -0.0485 L 551.18789,43.07 Z"
       id="path1739" />
    <path
       d="m 562.28981,43.07 h -4.87224 v -8.65368 h 4.87224 v 1.11504 h -3.56328 v 2.47248 h 3.34512 v 1.10292 h -3.34512 v 2.83608 h 3.56328 z"
       id="path1741" />
    <path
       d="m 567.93772,43.07 -2.61792,-7.35684 h -0.0485 q 0.0121,0.25452 0.0364,0.6666 0.0242,0.39996 0.0364,0.87264 0.0121,0.47268 0.0121,0.93324 V 43.07 h -1.18776 v -8.65368 h 1.86648 l 2.4846,6.94476 h 0.0485 l 2.55732,-6.94476 h 1.86648 V 43.07 h -1.2726 v -4.95708 q 0,-0.41208 0.0121,-0.86052 0.0242,-0.46056 0.0364,-0.86052 0.0242,-0.39996 0.0364,-0.6666 h -0.0485 L 569.06488,43.07 Z"
       id="path1743" />
    <path
       d="m 582.93015,38.73104 q 0,1.34532 -0.44844,2.35128 -0.44844,0.99384 -1.34532,1.55136 -0.89688,0.55752 -2.23008,0.55752 -1.36956,0 -2.26644,-0.55752 -0.89688,-0.55752 -1.3332,-1.56348 -0.43632,-1.00596 -0.43632,-2.35128 0,-1.3332 0.43632,-2.32704 0.44844,-0.99384 1.34532,-1.55136 0.89688,-0.55752 2.26644,-0.55752 1.3332,0 2.21796,0.55752 0.89688,0.5454 1.34532,1.55136 0.44844,0.99384 0.44844,2.33916 z m -6.67812,0 q 0,1.55136 0.64236,2.44824 0.64236,0.89688 2.01192,0.89688 1.38168,0 2.01192,-0.89688 0.63024,-0.89688 0.63024,-2.44824 0,-1.55136 -0.63024,-2.43612 -0.61812,-0.88476 -1.9998,-0.88476 -1.38168,0 -2.02404,0.88476 -0.64236,0.88476 -0.64236,2.43612 z"
       id="path1745" />
    <path
       d="m 587.23274,34.41632 q 1.66044,0 2.44824,0.61812 0.79992,0.61812 0.79992,1.8786 0,0.6666 -0.25452,1.12716 -0.2424,0.44844 -0.63024,0.73932 -0.38784,0.27876 -0.81204,0.44844 l 2.424,3.84204 h -1.50288 l -2.08464,-3.50268 H 586.1177 V 43.07 h -1.30896 v -8.65368 z m -0.0848,1.11504 h -1.0302 v 2.94516 h 1.0908 q 1.00596,0 1.46652,-0.37572 0.46056,-0.38784 0.46056,-1.13928 0,-0.77568 -0.4848,-1.10292 -0.4848,-0.32724 -1.50288,-0.32724 z"
       id="path1747" />
    <path
       d="m 594.86834,38.4644 2.121,-4.04808 h 1.40592 l -2.88456,5.29644 V 43.07 h -1.29684 v -3.30876 l -2.88456,-5.34492 h 1.41804 z"
       id="path1749" />
  </g>
  <g
     aria-label="NETWORK"
     id="text258"
     class="m"
     style="font-weight:500;font-size:12.12px;font-family:Inter-Medium, Inter;font-variation-settings:'slnt' 0, 'wght' 500">
    <path
       d="m 550.22369,66.290001 h -1.58772 l -4.37532,-6.99324 h -0.0485 q 0.0242,0.4848 0.0606,1.11504 0.0364,0.61812 0.0364,1.2726 v 4.6056 h -1.18776 v -8.65368 h 1.5756 l 4.3632,6.95688 h 0.0364 q -0.0121,-0.25452 -0.0364,-0.64236 -0.0121,-0.38784 -0.0242,-0.82416 -0.0121,-0.44844 -0.0242,-0.83628 v -4.65408 h 1.212 z"
       id="path1724" />
    <path
       d="m 557.39874,66.290001 h -4.87224 v -8.65368 h 4.87224 v 1.11504 h -3.56328 v 2.47248 h 3.34512 v 1.10292 h -3.34512 v 2.83608 h 3.56328 z"
       id="path1726" />
    <path
       d="m 562.18613,66.290001 h -1.30896 v -7.52652 h -2.59368 v -1.12716 h 6.49632 v 1.12716 h -2.59368 z"
       id="path1728" />
    <path
       d="m 577.50586,57.636321 -2.27856,8.65368 h -1.3938 l -1.52712,-5.34492 q -0.0848,-0.29088 -0.1818,-0.65448 -0.0848,-0.3636 -0.15756,-0.67872 -0.0727,-0.32724 -0.097,-0.46056 -0.0121,0.13332 -0.0727,0.44844 -0.0606,0.31512 -0.15756,0.69084 -0.0848,0.37572 -0.16968,0.69084 l -1.50288,5.30856 h -1.3938 l -2.26644,-8.65368 h 1.34532 l 1.2726,5.11464 q 0.13332,0.52116 0.2424,1.10292 0.10908,0.56964 0.16968,1.01808 0.0606,-0.46056 0.1818,-1.05444 0.1212,-0.59388 0.26664,-1.06656 l 1.44228,-5.11464 h 1.30896 l 1.49076,5.13888 q 0.14544,0.4848 0.26664,1.0908 0.1212,0.59388 0.1818,1.00596 0.0606,-0.43632 0.16968,-1.01808 0.1212,-0.58176 0.25452,-1.10292 l 1.2726,-5.11464 z"
       style="letter-spacing:-0.04em"
       id="path1730" />
    <path
       d="m 586.417,61.951041 q 0,1.34532 -0.44844,2.35128 -0.44844,0.99384 -1.34532,1.55136 -0.89688,0.55752 -2.23008,0.55752 -1.36956,0 -2.26644,-0.55752 -0.89688,-0.55752 -1.3332,-1.56348 -0.43632,-1.00596 -0.43632,-2.35128 0,-1.3332 0.43632,-2.32704 0.44844,-0.99384 1.34532,-1.55136 0.89688,-0.55752 2.26644,-0.55752 1.3332,0 2.21796,0.55752 0.89688,0.5454 1.34532,1.55136 0.44844,0.99384 0.44844,2.33916 z m -6.67812,0 q 0,1.55136 0.64236,2.44824 0.64236,0.89688 2.01192,0.89688 1.38168,0 2.01192,-0.89688 0.63024,-0.89688 0.63024,-2.44824 0,-1.55136 -0.63024,-2.43612 -0.61812,-0.88476 -1.9998,-0.88476 -1.38168,0 -2.02404,0.88476 -0.64236,0.88476 -0.64236,2.43612 z"
       id="path1732" />
    <path
       d="m 590.7196,57.636321 q 1.66044,0 2.44824,0.61812 0.79992,0.61812 0.79992,1.8786 0,0.6666 -0.25452,1.12716 -0.2424,0.44844 -0.63024,0.73932 -0.38784,0.27876 -0.81204,0.44844 l 2.424,3.84204 h -1.50288 l -2.08464,-3.50268 h -1.50288 v 3.50268 h -1.30896 v -8.65368 z m -0.0848,1.11504 h -1.0302 v 2.94516 h 1.0908 q 1.00596,0 1.46652,-0.37572 0.46056,-0.38784 0.46056,-1.13928 0,-0.77568 -0.4848,-1.10292 -0.4848,-0.32724 -1.50288,-0.32724 z"
       id="path1734" />
    <path
       d="m 602.476,66.290001 h -1.515 l -2.83608,-3.98748 -0.8484,0.70296 v 3.28452 h -1.30896 v -8.65368 h 1.30896 v 4.1814 q 0.31512,-0.3636 0.63024,-0.7272 0.31512,-0.37572 0.63024,-0.73932 l 2.33916,-2.71488 h 1.50288 l -3.30876,3.78144 z"
       id="path1736" />
  </g>
  <g
     id="g282">
    <g
       aria-label="SERVER 4"
       transform="translate(570.11,109.65)"
       id="text266"
       class="k"
       style="font-weight:700;font-size:8.52px;font-family:Inter-Bold, Inter;font-variation-settings:'slnt' 0, 'wght' 700">
      <path
         d="m 4.3537202,-1.6869601 q 0,0.80940005 -0.58788,1.29504008 Q 3.1864802,0.0852 2.1129601,0.0852 q -0.96276,0 -1.72104008,-0.36636002 V -1.4824801 q 0.43452002,0.18744 0.89460008,0.34932 0.4686,0.15336005 0.92868,0.15336005 0.47712,0 0.6730801,-0.17892005 0.20448,-0.18744 0.20448,-0.4686 0,-0.23004 -0.16188,-0.39192 -0.1533601,-0.16188 -0.4174801,-0.2982 -0.26412,-0.14484 -0.60492,-0.30672 -0.213,-0.10224 -0.46008,-0.2385601 -0.24708,-0.14484 -0.47712005,-0.34932 -0.22152001,-0.213 -0.36636002,-0.5112 -0.14484001,-0.2982 -0.14484001,-0.71568 0,-0.8179201 0.55380008,-1.2694801 0.5538,-0.46008 1.50804,-0.46008 0.4771201,0 0.9031201,0.11076 0.43452,0.11076 0.90312,0.31524 l -0.41748,1.00536 q -0.41748,-0.1704 -0.74976,-0.26412 -0.33228,-0.09372 -0.6816001,-0.09372 -0.36636,0 -0.56232,0.1704 -0.19596,0.1704 -0.19596,0.4430401 0,0.32376 0.28968,0.5112 0.28968,0.18744 0.8605201,0.46008 0.4686,0.22152 0.79236,0.46008 0.33228,0.23856 0.5112,0.5623201 0.17892,0.32376 0.17892,0.80088 z"
         id="path1708" />
      <path
         d="M 8.9630455,0 H 5.4613253 v -6.0832803 h 3.5017202 v 1.05648 H 6.7478454 v 1.3376401 h 2.0618401 v 1.0564801 H 6.7478454 v 1.56768 h 2.2152001 z"
         id="path1710" />
      <path
         d="m 13.32896,-6.0832803 q 1.24392,0 1.8318,0.45156 0.5964,0.45156 0.5964,1.3717201 0,0.41748 -0.16188,0.73272 -0.15336,0.30672 -0.41748,0.52824 -0.2556,0.2130001 -0.5538,0.3493201 L 16.4132,0 h -1.43136 l -1.4484,-2.3344801 H 12.84332 V 0 H 11.5568 v -6.0832803 z m -0.09372,1.05648 h -0.39192 v 1.6443601 h 0.41748 q 0.639,0 0.91164,-0.213 0.28116,-0.213 0.28116,-0.63048 0,-0.4345201 -0.2982,-0.6134401 -0.28968,-0.18744 -0.92016,-0.18744 z"
         style="letter-spacing:-0.02em"
         id="path1712" />
      <path
         d="M 21.747999,-6.0832803 19.677639,0 h -1.4058 l -2.06184,-6.0832803 h 1.30356 l 1.14168,3.6210002 q 0.03408,0.09372 0.09372,0.34932 0.06816,0.24708 0.13632,0.52824 0.06816,0.27264 0.09372,0.46008 0.02556,-0.18744 0.0852,-0.46008 0.06816,-0.28116 0.13632,-0.52824 0.06816,-0.2556 0.09372,-0.34932 l 1.1502,-3.6210002 z"
         id="path1714" />
      <path
         d="m 26.016517,0 h -3.501721 v -6.0832803 h 3.501721 v 1.05648 h -2.215201 v 1.3376401 h 2.061841 v 1.0564801 h -2.061841 v 1.56768 h 2.215201 z"
         id="path1716" />
      <path
         d="m 29.058152,-6.0832803 q 1.24392,0 1.8318,0.45156 0.5964,0.45156 0.5964,1.3717201 0,0.41748 -0.16188,0.73272 -0.15336,0.30672 -0.41748,0.52824 -0.2556,0.2130001 -0.5538,0.3493201 L 32.142392,0 h -1.43136 l -1.4484,-2.3344801 h -0.69012 V 0 h -1.28652 v -6.0832803 z m -0.09372,1.05648 h -0.39192 v 1.6443601 h 0.41748 q 0.639,0 0.91164,-0.213 0.28116,-0.213 0.28116,-0.63048 0,-0.4345201 -0.2982,-0.6134401 -0.28968,-0.18744 -0.92016,-0.18744 z"
         id="path1718" />
      <path
         d="m 39.086194,-1.2609601 h -0.73272 V 0 h -1.25244 v -1.2609601 h -2.5986 v -0.8946 l 2.66676,-3.9277202 h 1.18428 v 3.8254802 h 0.73272 z m -1.98516,-2.0277601 q 0,-0.19596 0.0085,-0.47712 0.0085,-0.28116 0.01704,-0.51972 0.01704,-0.24708 0.02556,-0.32376 h -0.03408 q -0.07668,0.1704 -0.16188,0.33228 -0.0852,0.16188 -0.20448,0.33228 l -1.11612,1.6869601 h 1.46544 z"
         id="path1720" />
    </g>
    <g
       id="g280">
      <g
         id="g274">
        <path
           id="rect268"
           class="h"
           style="fill:#cf2144"
           d="m 540.52002,103.89 h 2.17 v 5.66 h -2.17 z" />
        <path
           class="h"
           d="m 537.89,103.97 -4.4,2.38 c -0.06,0.03 -0.14,0.03 -0.2,0 l -4.4,-2.38 c -0.09,-0.05 -0.2,-0.08 -0.31,-0.08 v 0 c -0.33,0 -0.6,0.24 -0.6,0.53 v 5.12 c 0,0 2.17,0 2.17,0 v -2.44 c 0,-0.15 0.19,-0.24 0.33,-0.16 l 2.47,1.33 c 0.24,0.13 0.55,0.13 0.79,0 l 2.6,-1.35 c 0.14,-0.07 0.33,0.02 0.33,0.17 v 2.44 c 0,0 2.17,0 2.17,0 v -5.12 c 0,-0.29 -0.27,-0.53 -0.6,-0.53 v 0 c -0.11,0 -0.22,0.03 -0.31,0.08 z"
           id="path270" />
        <path
           class="h"
           d="m 553.51,103.89 h -2.2 c 0,0 0,2.58 0,2.58 0,0.14 -0.17,0.24 -0.32,0.17 l -5.7,-2.68 c -0.09,-0.04 -0.18,-0.06 -0.28,-0.06 v 0 c -0.33,0 -0.6,0.24 -0.6,0.53 v 5.12 c 0,0 2.18,0 2.18,0 v -2.57 c 0,-0.14 0.17,-0.24 0.32,-0.17 l 5.72,2.68 c 0.09,0.04 0.18,0.06 0.28,0.06 v 0 c 0.33,0 0.6,-0.24 0.6,-0.53 v -5.12 z"
           id="path272" />
      </g>
      <path
         class="h"
         d="m 555.22,109.55 v -5.66 h 1 v 5.66 z"
         id="path276" />
      <path
         class="h"
         d="m 562.09,109.65 c -2.69,0 -4.59,-1.13 -4.59,-2.93 0,-1.79 1.92,-2.93 4.59,-2.93 2.67,0 4.6,1.13 4.6,2.93 0,1.8 -1.88,2.93 -4.6,2.93 z m 0,-5.11 c -2,0 -3.53,0.77 -3.53,2.18 0,1.42 1.54,2.18 3.53,2.18 1.99,0 3.55,-0.76 3.55,-2.18 0,-1.41 -1.55,-2.18 -3.55,-2.18 z"
         id="path278" />
    </g>
  </g>
</svg>
