<?xml version="1.0" encoding="UTF-8"?><svg id="a" xmlns="http://www.w3.org/2000/svg" viewBox="0 0 645.33 370.33"><defs><style>.b{font-size:14px;}.b,.c,.d{font-family:Inter-Medium, Inter;font-variation-settings:'wght' 500, 'slnt' 0;font-weight:500;}.e{stroke-width:3px;}.e,.f{fill:none;stroke:#1b1717;}.e,.f,.g{stroke-miterlimit:10;}.h{letter-spacing:-.03em;}.i{fill:#6c9cb7;}.j{fill:#577f9a;}.c{fill:#fff;font-size:18.69px;}.f{stroke-width:2px;}.g{fill:#efefef;stroke:#cf2144;stroke-width:.83px;}.d{font-size:16px;}.k{letter-spacing:-.03em;}</style></defs><rect class="g" x="2.24" y="194.11" width="76.24" height="34.23"/><text class="b" transform="translate(27.05 217.04)"><tspan x="0" y="0">SSD</tspan></text><rect class="g" x="2.24" y="253.61" width="76.24" height="34.23"/><text class="b" transform="translate(27.05 276.54)"><tspan x="0" y="0">SSD</tspan></text><polyline class="e" points="125.32 118.95 125.32 89.41 523.01 89.41 523.01 116.91"/><line class="e" x1="325.66" y1="52.57" x2="325.66" y2="89.56"/><rect class="j" x="197.6" y="-.79" width="250.13" height="52.93"/><text class="c" transform="translate(273.99 32.45)"><tspan x="0" y="0">PCI-E-BUS</tspan></text><rect class="i" x="1.57" y="116.91" width="250.13" height="52.93"/><text class="d" transform="translate(33.43 149.73)"><tspan x="0" y="0">S</tspan><tspan class="k" x="10.3" y="0">T</tspan><tspan x="20.22" y="0">OR</tspan><tspan class="h" x="42.83" y="0">A</tspan><tspan x="53.48" y="0">GE CONTROLLER</tspan></text><rect class="i" x="395.49" y="116.91" width="250.13" height="52.93"/><text class="d" transform="translate(427.36 149.73)"><tspan x="0" y="0">S</tspan><tspan class="k" x="10.3" y="0">T</tspan><tspan x="20.22" y="0">OR</tspan><tspan class="h" x="42.83" y="0">A</tspan><tspan x="53.48" y="0">GE CONTROLLER</tspan></text><line class="f" x1="127.02" y1="169.83" x2="127.02" y2="301.48"/><line class="f" x1="79.48" y1="212.22" x2="126.63" y2="212.22"/><line class="f" x1="79.48" y1="271.73" x2="126.63" y2="271.73"/><line class="f" x1="127.85" y1="242.22" x2="173" y2="242.22"/><line class="f" x1="127.85" y1="301.73" x2="173" y2="301.73"/><rect class="g" x="173.17" y="224.86" width="76.24" height="34.23"/><text class="b" transform="translate(197.98 247.79)"><tspan x="0" y="0">SSD</tspan></text><rect class="g" x="173.17" y="284.36" width="76.24" height="34.23"/><text class="b" transform="translate(197.98 307.29)"><tspan x="0" y="0">SSD</tspan></text><rect class="g" x="396.97" y="194.11" width="76.24" height="34.23"/><text class="b" transform="translate(421.78 217.04)"><tspan x="0" y="0">SSD</tspan></text><rect class="g" x="396.97" y="253.61" width="76.24" height="34.23"/><text class="b" transform="translate(421.78 276.54)"><tspan x="0" y="0">SSD</tspan></text><line class="f" x1="521.75" y1="169.83" x2="521.75" y2="301.48"/><line class="f" x1="474.21" y1="212.22" x2="521.36" y2="212.22"/><line class="f" x1="474.21" y1="271.73" x2="521.36" y2="271.73"/><line class="f" x1="522.58" y1="242.22" x2="567.73" y2="242.22"/><line class="f" x1="522.58" y1="301.73" x2="567.73" y2="301.73"/><rect class="g" x="567.9" y="224.86" width="76.24" height="34.23"/><text class="b" transform="translate(592.71 247.79)"><tspan x="0" y="0">SSD</tspan></text><rect class="g" x="567.9" y="284.36" width="76.24" height="34.23"/><text class="b" transform="translate(592.71 307.29)"><tspan x="0" y="0">SSD</tspan></text></svg>