<?xml version="1.0" encoding="UTF-8" standalone="no"?>
<svg
   id="a"
   viewBox="0 0 645.33 192.33001"
   version="1.1"
   sodipodi:docname="architecture-4-node-deploy.svg"
   inkscape:version="1.2.2 (b0a8486541, 2022-12-01)"
   width="645.33002"
   height="192.33"
   xmlns:inkscape="http://www.inkscape.org/namespaces/inkscape"
   xmlns:sodipodi="http://sodipodi.sourceforge.net/DTD/sodipodi-0.dtd"
   xmlns="http://www.w3.org/2000/svg"
   xmlns:svg="http://www.w3.org/2000/svg">
  <sodipodi:namedview
     id="namedview285"
     pagecolor="#505050"
     bordercolor="#eeeeee"
     borderopacity="1"
     inkscape:showpageshadow="0"
     inkscape:pageopacity="0"
     inkscape:pagecheckerboard="0"
     inkscape:deskcolor="#505050"
     showgrid="false"
     inkscape:zoom="3.6049406"
     inkscape:cx="288.63166"
     inkscape:cy="195.70364"
     inkscape:window-width="3840"
     inkscape:window-height="2123"
     inkscape:window-x="3840"
     inkscape:window-y="0"
     inkscape:window-maximized="1"
     inkscape:current-layer="g36" />
  <defs
     id="defs4">
    <style
       id="style2">.b{letter-spacing:0em;}.c{letter-spacing:-.02em;}.d{letter-spacing:-.03em;}.e{letter-spacing:-.03em;}.f,.g{fill:#fff;}.h{fill:#cf2144;}.i{fill:#dcf3f4;}.j{letter-spacing:-.04em;}.g{font-size:15.44px;}.g,.k{font-family:Inter-Bold, Inter;font-variation-settings:'wght' 700, 'slnt' 0;font-weight:700;}.l{fill:none;stroke:#cf2144;stroke-miterlimit:10;}.m{font-family:Inter-Medium, Inter;font-size:12.12px;font-variation-settings:'wght' 500, 'slnt' 0;font-weight:500;}.n{letter-spacing:-.03em;}.o{letter-spacing:-.03em;}.k{font-size:8.52px;}.p{letter-spacing:-.03em;}</style>
  </defs>
  <rect
     class="l"
     x="0"
     y="1.6"
     width="145.89"
     height="117.92"
     id="rect6" />
  <rect
     class="h"
     x="0"
     y="138"
     width="645.33002"
     height="52.93"
     id="rect8" />
  <g
     id="g36">
    <g
       id="g22">
      <g
         id="g16">
        <rect
           class="f"
           x="231.28999"
           y="159.56"
           width="4.4899998"
           height="11.71"
           id="rect10" />
        <path
           class="f"
           d="m 225.85,159.72 -9.11,4.92 c -0.13,0.07 -0.29,0.07 -0.42,0 l -9.11,-4.92 c -0.2,-0.11 -0.42,-0.16 -0.65,-0.16 h -0.01 c -0.69,0 -1.25,0.49 -1.25,1.1 v 10.59 c 0,0 4.49,0 4.49,0 v -5.04 c 0,-0.31 0.38,-0.5 0.68,-0.34 l 5.11,2.76 c 0.5,0.27 1.14,0.28 1.64,0.01 l 5.39,-2.79 c 0.3,-0.15 0.68,0.04 0.68,0.34 v 5.06 c 0,0 4.49,0 4.49,0 v -10.59 c 0,-0.61 -0.56,-1.1 -1.25,-1.1 h -0.01 c -0.23,0 -0.46,0.06 -0.65,0.16 z"
           id="path12" />
        <path
           class="f"
           d="m 258.17,159.56 h -4.55 c 0,0 0,5.33 0,5.33 0,0.3 -0.36,0.49 -0.66,0.35 l -11.8,-5.55 c -0.18,-0.09 -0.38,-0.13 -0.59,-0.13 v 0 c -0.69,0 -1.25,0.49 -1.25,1.1 v 10.59 c 0,0 4.52,0 4.52,0 v -5.32 c 0,-0.3 0.36,-0.49 0.66,-0.35 l 11.85,5.55 c 0.18,0.08 0.38,0.13 0.59,0.13 v 0 c 0.69,0 1.25,-0.49 1.25,-1.1 v -10.6 z"
           id="path14" />
      </g>
      <path
         class="f"
         d="m 261.7,171.27 v -11.71 h 2.07 v 11.71 z"
         id="path18" />
      <path
         class="f"
         d="m 275.93,171.48 c -5.56,0 -9.5,-2.33 -9.5,-6.06 0,-3.71 3.97,-6.06 9.5,-6.06 5.53,0 9.53,2.33 9.53,6.06 0,3.73 -3.9,6.06 -9.53,6.06 z m 0,-10.57 c -4.13,0 -7.32,1.59 -7.32,4.51 0,2.94 3.18,4.51 7.32,4.51 4.13,0 7.34,-1.57 7.34,-4.51 0,-2.94 -3.21,-4.51 -7.34,-4.51 z"
         id="path20" />
    </g>
    <text
       class="g"
       transform="translate(296.08,172.06)"
       id="text34"><tspan
         x="0"
         y="0"
         id="tspan24">OBJECT STORAGE</tspan></text>
  </g>
  <rect
     class="i"
     x="7.27"
     y="8.1000004"
     width="131.36"
     height="19.01"
     id="rect38" />
  <rect
     class="i"
     x="7.27"
     y="30.360001"
     width="131.36"
     height="19.01"
     id="rect40" />
  <rect
     class="i"
     x="7.27"
     y="52.630001"
     width="131.36"
     height="19.01"
     id="rect42" />
  <rect
     class="i"
     x="7.27"
     y="74.889999"
     width="131.36"
     height="19.01"
     id="rect44" />
  <text
     class="m"
     id="text48"
     x="42.459999"
     y="22.83"><tspan
       x="42.459999"
       y="22.83"
       id="tspan46">COMPUTE</tspan></text>
  <text
     class="m"
     id="text60"
     x="44.5"
     y="89.410004"><tspan
       x="44.5"
       y="89.410004"
       id="tspan50">S</tspan><tspan
       class="n"
       x="52.299999"
       y="89.410004"
       id="tspan52">T</tspan><tspan
       x="59.810001"
       y="89.410004"
       id="tspan54">OR</tspan><tspan
       class="d"
       x="76.940002"
       y="89.410004"
       id="tspan56">A</tspan><tspan
       x="85"
       y="89.410004"
       id="tspan58">GE</tspan></text>
  <text
     class="m"
     id="text64"
     x="45.700001"
     y="43.07"><tspan
       x="45.700001"
       y="43.07"
       id="tspan62">MEMORY</tspan></text>
  <text
     class="m"
     id="text72"
     x="42.529999"
     y="66.290001"><tspan
       x="42.529999"
       y="66.290001"
       id="tspan66">NET</tspan><tspan
       class="j"
       x="66.769997"
       y="66.290001"
       id="tspan68">W</tspan><tspan
       x="78.190002"
       y="66.290001"
       id="tspan70">ORK</tspan></text>
  <g
     id="g96">
    <text
       class="k"
       transform="translate(71.48,109.65)"
       id="text80"><tspan
         x="0"
         y="0"
         id="tspan74">SE</tspan><tspan
         class="c"
         x="10.79"
         y="0"
         id="tspan76">R</tspan><tspan
         x="16.209999"
         y="0"
         id="tspan78">VER 1</tspan></text>
    <g
       id="g94">
      <g
         id="g88">
        <rect
           class="h"
           x="41.09"
           y="103.89"
           width="2.1700001"
           height="5.6599998"
           id="rect82" />
        <path
           class="h"
           d="m 38.46,103.97 -4.4,2.38 c -0.06,0.03 -0.14,0.03 -0.2,0 l -4.4,-2.38 c -0.09,-0.05 -0.2,-0.08 -0.31,-0.08 v 0 c -0.33,0 -0.6,0.24 -0.6,0.53 v 5.12 c 0,0 2.17,0 2.17,0 v -2.44 c 0,-0.15 0.19,-0.24 0.33,-0.16 l 2.47,1.33 c 0.24,0.13 0.55,0.13 0.79,0 l 2.6,-1.35 c 0.14,-0.07 0.33,0.02 0.33,0.17 v 2.44 c 0,0 2.17,0 2.17,0 v -5.12 c 0,-0.29 -0.27,-0.53 -0.6,-0.53 v 0 c -0.11,0 -0.22,0.03 -0.31,0.08 z"
           id="path84" />
        <path
           class="h"
           d="m 54.07,103.89 h -2.2 c 0,0 0,2.58 0,2.58 0,0.14 -0.17,0.24 -0.32,0.17 l -5.7,-2.68 c -0.09,-0.04 -0.18,-0.06 -0.28,-0.06 v 0 c -0.33,0 -0.6,0.24 -0.6,0.53 v 5.12 c 0,0 2.18,0 2.18,0 v -2.57 c 0,-0.14 0.17,-0.24 0.32,-0.17 l 5.72,2.68 c 0.09,0.04 0.18,0.06 0.28,0.06 v 0 c 0.33,0 0.6,-0.24 0.6,-0.53 v -5.12 z"
           id="path86" />
      </g>
      <path
         class="h"
         d="m 55.78,109.55 v -5.66 h 1 v 5.66 z"
         id="path90" />
      <path
         class="h"
         d="m 62.65,109.65 c -2.69,0 -4.59,-1.13 -4.59,-2.93 0,-1.79 1.92,-2.93 4.59,-2.93 2.67,0 4.6,1.13 4.6,2.93 0,1.8 -1.88,2.93 -4.6,2.93 z m 0,-5.11 c -2,0 -3.53,0.77 -3.53,2.18 0,1.42 1.54,2.18 3.53,2.18 1.99,0 3.55,-0.76 3.55,-2.18 0,-1.41 -1.55,-2.18 -3.55,-2.18 z"
         id="path92" />
    </g>
  </g>
  <rect
     class="l"
     x="166.48"
     y="1.6"
     width="145.89"
     height="117.92"
     id="rect98" />
  <rect
     class="i"
     x="173.74001"
     y="8.1000004"
     width="131.36"
     height="19.01"
     id="rect100" />
  <rect
     class="i"
     x="173.74001"
     y="30.360001"
     width="131.36"
     height="19.01"
     id="rect102" />
  <rect
     class="i"
     x="173.74001"
     y="52.630001"
     width="131.36"
     height="19.01"
     id="rect104" />
  <rect
     class="i"
     x="173.74001"
     y="74.889999"
     width="131.36"
     height="19.01"
     id="rect106" />
  <text
     class="m"
     id="text110"
     x="208.94"
     y="22.83"><tspan
       x="208.94"
       y="22.83"
       id="tspan108">COMPUTE</tspan></text>
  <text
     class="m"
     id="text122"
     x="210.98"
     y="89.410004"><tspan
       x="210.98"
       y="89.410004"
       id="tspan112">S</tspan><tspan
       class="o"
       x="218.78"
       y="89.410004"
       id="tspan114">T</tspan><tspan
       x="226.28999"
       y="89.410004"
       id="tspan116">OR</tspan><tspan
       class="d"
       x="243.42"
       y="89.410004"
       id="tspan118">A</tspan><tspan
       x="251.48"
       y="89.410004"
       id="tspan120">GE</tspan></text>
  <text
     class="m"
     id="text126"
     x="212.17999"
     y="43.07"><tspan
       x="212.17999"
       y="43.07"
       id="tspan124">MEMORY</tspan></text>
  <text
     class="m"
     id="text134"
     x="209.00999"
     y="66.290001"><tspan
       x="209.00999"
       y="66.290001"
       id="tspan128">NET</tspan><tspan
       class="j"
       x="233.25"
       y="66.290001"
       id="tspan130">W</tspan><tspan
       x="244.67"
       y="66.290001"
       id="tspan132">ORK</tspan></text>
  <g
     id="g158">
    <text
       class="k"
       transform="translate(237.36,109.65)"
       id="text142"><tspan
         x="0"
         y="0"
         id="tspan136">SE</tspan><tspan
         class="c"
         x="10.79"
         y="0"
         id="tspan138">R</tspan><tspan
         x="16.209999"
         y="0"
         id="tspan140">VER 2</tspan></text>
    <g
       id="g156">
      <g
         id="g150">
        <rect
           class="h"
           x="207.56"
           y="103.89"
           width="2.1700001"
           height="5.6599998"
           id="rect144" />
        <path
           class="h"
           d="m 204.94,103.97 -4.4,2.38 c -0.06,0.03 -0.14,0.03 -0.2,0 l -4.4,-2.38 c -0.09,-0.05 -0.2,-0.08 -0.31,-0.08 v 0 c -0.33,0 -0.6,0.24 -0.6,0.53 v 5.12 c 0,0 2.17,0 2.17,0 v -2.44 c 0,-0.15 0.19,-0.24 0.33,-0.16 l 2.47,1.33 c 0.24,0.13 0.55,0.13 0.79,0 l 2.6,-1.35 c 0.14,-0.07 0.33,0.02 0.33,0.17 v 2.44 c 0,0 2.17,0 2.17,0 v -5.12 c 0,-0.29 -0.27,-0.53 -0.6,-0.53 v 0 c -0.11,0 -0.22,0.03 -0.31,0.08 z"
           id="path146" />
        <path
           class="h"
           d="m 220.55,103.89 h -2.2 c 0,0 0,2.58 0,2.58 0,0.14 -0.17,0.24 -0.32,0.17 l -5.7,-2.68 c -0.09,-0.04 -0.18,-0.06 -0.28,-0.06 v 0 c -0.33,0 -0.6,0.24 -0.6,0.53 v 5.12 c 0,0 2.18,0 2.18,0 v -2.57 c 0,-0.14 0.17,-0.24 0.32,-0.17 l 5.72,2.68 c 0.09,0.04 0.18,0.06 0.28,0.06 v 0 c 0.33,0 0.6,-0.24 0.6,-0.53 v -5.12 z"
           id="path148" />
      </g>
      <path
         class="h"
         d="m 222.26,109.55 v -5.66 h 1 v 5.66 z"
         id="path152" />
      <path
         class="h"
         d="m 229.13,109.65 c -2.69,0 -4.59,-1.13 -4.59,-2.93 0,-1.79 1.92,-2.93 4.59,-2.93 2.67,0 4.6,1.13 4.6,2.93 0,1.8 -1.88,2.93 -4.6,2.93 z m 0,-5.11 c -2,0 -3.53,0.77 -3.53,2.18 0,1.42 1.54,2.18 3.53,2.18 1.99,0 3.55,-0.76 3.55,-2.18 0,-1.41 -1.55,-2.18 -3.55,-2.18 z"
         id="path154" />
    </g>
  </g>
  <rect
     class="l"
     x="332.95999"
     y="1.6"
     width="145.89"
     height="117.92"
     id="rect160" />
  <rect
     class="i"
     x="340.22"
     y="8.1000004"
     width="131.36"
     height="19.01"
     id="rect162" />
  <rect
     class="i"
     x="340.22"
     y="30.360001"
     width="131.36"
     height="19.01"
     id="rect164" />
  <rect
     class="i"
     x="340.22"
     y="52.630001"
     width="131.36"
     height="19.01"
     id="rect166" />
  <rect
     class="i"
     x="340.22"
     y="74.889999"
     width="131.36"
     height="19.01"
     id="rect168" />
  <text
     class="m"
     id="text172"
     x="375.42001"
     y="22.83"><tspan
       x="375.42001"
       y="22.83"
       id="tspan170">COMPUTE</tspan></text>
  <text
     class="m"
     id="text184"
     x="377.45999"
     y="89.410004"><tspan
       x="377.45999"
       y="89.410004"
       id="tspan174">S</tspan><tspan
       class="o"
       x="385.26001"
       y="89.410004"
       id="tspan176">T</tspan><tspan
       x="392.76999"
       y="89.410004"
       id="tspan178">OR</tspan><tspan
       class="d"
       x="409.89999"
       y="89.410004"
       id="tspan180">A</tspan><tspan
       x="417.95999"
       y="89.410004"
       id="tspan182">GE</tspan></text>
  <text
     class="m"
     id="text188"
     x="378.66"
     y="43.07"><tspan
       x="378.66"
       y="43.07"
       id="tspan186">MEMORY</tspan></text>
  <text
     class="m"
     id="text196"
     x="375.48999"
     y="66.290001"><tspan
       x="375.48999"
       y="66.290001"
       id="tspan190">NET</tspan><tspan
       class="j"
       x="399.73001"
       y="66.290001"
       id="tspan192">W</tspan><tspan
       x="411.14999"
       y="66.290001"
       id="tspan194">ORK</tspan></text>
  <g
     id="g220">
    <text
       class="k"
       transform="translate(403.72,109.65)"
       id="text204"><tspan
         x="0"
         y="0"
         id="tspan198">SE</tspan><tspan
         class="c"
         x="10.79"
         y="0"
         id="tspan200">R</tspan><tspan
         x="16.209999"
         y="0"
         id="tspan202">VER 3</tspan></text>
    <g
       id="g218">
      <g
         id="g212">
        <rect
           class="h"
           x="374.04001"
           y="103.89"
           width="2.1700001"
           height="5.6599998"
           id="rect206" />
        <path
           class="h"
           d="m 371.41,103.97 -4.4,2.38 c -0.06,0.03 -0.14,0.03 -0.2,0 l -4.4,-2.38 c -0.09,-0.05 -0.2,-0.08 -0.31,-0.08 v 0 c -0.33,0 -0.6,0.24 -0.6,0.53 v 5.12 c 0,0 2.17,0 2.17,0 v -2.44 c 0,-0.15 0.19,-0.24 0.33,-0.16 l 2.47,1.33 c 0.24,0.13 0.55,0.13 0.79,0 l 2.6,-1.35 c 0.14,-0.07 0.33,0.02 0.33,0.17 v 2.44 c 0,0 2.17,0 2.17,0 v -5.12 c 0,-0.29 -0.27,-0.53 -0.6,-0.53 v 0 c -0.11,0 -0.22,0.03 -0.31,0.08 z"
           id="path208" />
        <path
           class="h"
           d="m 387.03,103.89 h -2.2 c 0,0 0,2.58 0,2.58 0,0.14 -0.17,0.24 -0.32,0.17 l -5.7,-2.68 c -0.09,-0.04 -0.18,-0.06 -0.28,-0.06 v 0 c -0.33,0 -0.6,0.24 -0.6,0.53 v 5.12 c 0,0 2.18,0 2.18,0 v -2.57 c 0,-0.14 0.17,-0.24 0.32,-0.17 l 5.72,2.68 c 0.09,0.04 0.18,0.06 0.28,0.06 v 0 c 0.33,0 0.6,-0.24 0.6,-0.53 v -5.12 z"
           id="path210" />
      </g>
      <path
         class="h"
         d="m 388.74,109.55 v -5.66 h 1 v 5.66 z"
         id="path214" />
      <path
         class="h"
         d="m 395.61,109.65 c -2.69,0 -4.59,-1.13 -4.59,-2.93 0,-1.79 1.92,-2.93 4.59,-2.93 2.67,0 4.6,1.13 4.6,2.93 0,1.8 -1.88,2.93 -4.6,2.93 z m 0,-5.11 c -2,0 -3.53,0.77 -3.53,2.18 0,1.42 1.54,2.18 3.53,2.18 1.99,0 3.55,-0.76 3.55,-2.18 0,-1.41 -1.55,-2.18 -3.55,-2.18 z"
         id="path216" />
    </g>
  </g>
  <rect
     class="l"
     x="499.44"
     y="1.6"
     width="145.89"
     height="117.92"
     id="rect222" />
  <rect
     class="i"
     x="506.70001"
     y="8.1000004"
     width="131.36"
     height="19.01"
     id="rect224" />
  <rect
     class="i"
     x="506.70001"
     y="30.360001"
     width="131.36"
     height="19.01"
     id="rect226" />
  <rect
     class="i"
     x="506.70001"
     y="52.630001"
     width="131.36"
     height="19.01"
     id="rect228" />
  <rect
     class="i"
     x="506.70001"
     y="74.889999"
     width="131.36"
     height="19.01"
     id="rect230" />
  <text
     class="m"
     id="text234"
     x="541.89001"
     y="22.83"><tspan
       x="541.89001"
       y="22.83"
       id="tspan232">COMPUTE</tspan></text>
  <text
     class="m"
     id="text246"
     x="543.94"
     y="89.410004"><tspan
       x="543.94"
       y="89.410004"
       id="tspan236">S</tspan><tspan
       class="o"
       x="551.73999"
       y="89.410004"
       id="tspan238">T</tspan><tspan
       x="559.25"
       y="89.410004"
       id="tspan240">OR</tspan><tspan
       class="d"
       x="576.38"
       y="89.410004"
       id="tspan242">A</tspan><tspan
       x="584.44"
       y="89.410004"
       id="tspan244">GE</tspan></text>
  <text
     class="m"
     id="text250"
     x="545.14001"
     y="43.07"><tspan
       x="545.14001"
       y="43.07"
       id="tspan248">MEMORY</tspan></text>
  <text
     class="m"
     id="text258"
     x="541.96997"
     y="66.290001"><tspan
       x="541.96997"
       y="66.290001"
       id="tspan252">NET</tspan><tspan
       class="j"
       x="566.21002"
       y="66.290001"
       id="tspan254">W</tspan><tspan
       x="577.63"
       y="66.290001"
       id="tspan256">ORK</tspan></text>
  <g
     id="g282">
    <text
       class="k"
       transform="translate(570.11,109.65)"
       id="text266"><tspan
         x="0"
         y="0"
         id="tspan260">SE</tspan><tspan
         class="c"
         x="10.79"
         y="0"
         id="tspan262">R</tspan><tspan
         x="16.209999"
         y="0"
         id="tspan264">VER 4</tspan></text>
    <g
       id="g280">
      <g
         id="g274">
        <rect
           class="h"
           x="540.52002"
           y="103.89"
           width="2.1700001"
           height="5.6599998"
           id="rect268" />
        <path
           class="h"
           d="m 537.89,103.97 -4.4,2.38 c -0.06,0.03 -0.14,0.03 -0.2,0 l -4.4,-2.38 c -0.09,-0.05 -0.2,-0.08 -0.31,-0.08 v 0 c -0.33,0 -0.6,0.24 -0.6,0.53 v 5.12 c 0,0 2.17,0 2.17,0 v -2.44 c 0,-0.15 0.19,-0.24 0.33,-0.16 l 2.47,1.33 c 0.24,0.13 0.55,0.13 0.79,0 l 2.6,-1.35 c 0.14,-0.07 0.33,0.02 0.33,0.17 v 2.44 c 0,0 2.17,0 2.17,0 v -5.12 c 0,-0.29 -0.27,-0.53 -0.6,-0.53 v 0 c -0.11,0 -0.22,0.03 -0.31,0.08 z"
           id="path270" />
        <path
           class="h"
           d="m 553.51,103.89 h -2.2 c 0,0 0,2.58 0,2.58 0,0.14 -0.17,0.24 -0.32,0.17 l -5.7,-2.68 c -0.09,-0.04 -0.18,-0.06 -0.28,-0.06 v 0 c -0.33,0 -0.6,0.24 -0.6,0.53 v 5.12 c 0,0 2.18,0 2.18,0 v -2.57 c 0,-0.14 0.17,-0.24 0.32,-0.17 l 5.72,2.68 c 0.09,0.04 0.18,0.06 0.28,0.06 v 0 c 0.33,0 0.6,-0.24 0.6,-0.53 v -5.12 z"
           id="path272" />
      </g>
      <path
         class="h"
         d="m 555.22,109.55 v -5.66 h 1 v 5.66 z"
         id="path276" />
      <path
         class="h"
         d="m 562.09,109.65 c -2.69,0 -4.59,-1.13 -4.59,-2.93 0,-1.79 1.92,-2.93 4.59,-2.93 2.67,0 4.6,1.13 4.6,2.93 0,1.8 -1.88,2.93 -4.6,2.93 z m 0,-5.11 c -2,0 -3.53,0.77 -3.53,2.18 0,1.42 1.54,2.18 3.53,2.18 1.99,0 3.55,-0.76 3.55,-2.18 0,-1.41 -1.55,-2.18 -3.55,-2.18 z"
         id="path278" />
    </g>
  </g>
</svg>
