<?xml version="1.0" encoding="UTF-8"?><svg id="a" xmlns="http://www.w3.org/2000/svg" viewBox="0 0 645.33 370.33"><defs><style>.b{font-family:RobotoMono-Regular, 'Roboto Mono';font-size:11.39px;font-variation-settings:'wght' 400;}.c{stroke-width:1.62px;}.c,.d,.e,.f,.g,.h{fill:none;stroke-miterlimit:10;}.c,.e,.f{stroke:#cf2144;}.i{fill:#f6f6f6;}.j{fill:#e8f3f3;}.k,.l{fill:#fff;}.m{fill:#cf2144;}.n{fill:#122745;}.o{fill:#1b1717;}.p{fill:#577f9a;}.l{font-family:Inter-Medium, Inter;font-size:7.79px;font-variation-settings:'wght' 500, 'slnt' 0;font-weight:500;}.d{stroke:#1b1717;stroke-width:1.47px;}.e{stroke-width:.7px;}.g{stroke-width:.31px;}.g,.h{stroke:#fff;stroke-linecap:round;}.h{stroke-width:.72px;}</style></defs><line class="d" x1="80.02" y1="301.56" x2="80.02" y2="269.5"/><line class="d" x1="80.02" y1="335.44" x2="80.02" y2="303.37"/><line class="d" x1="55.77" y1="335.44" x2="55.77" y2="303.37"/><line class="d" x1="129.81" y1="335.44" x2="129.81" y2="303.37"/><line class="d" x1="105.56" y1="335.44" x2="105.56" y2="303.37"/><line class="d" x1="177.59" y1="335.44" x2="177.59" y2="303.37"/><line class="d" x1="153.34" y1="335.44" x2="153.34" y2="303.37"/><line class="d" x1="226.37" y1="335.44" x2="226.37" y2="303.37"/><line class="d" x1="202.13" y1="335.44" x2="202.13" y2="303.37"/><line class="d" x1="104.89" y1="301.56" x2="104.89" y2="269.5"/><line class="d" x1="128.89" y1="301.56" x2="128.89" y2="269.5"/><polyline class="d" points="55.36 302.64 55.36 269.76 141.52 269.76 141.52 248.73"/><g><g><path class="m" d="M62.01,314.83h-11.25c-.7,0-1.37-.29-1.85-.8-.48-.51-.72-1.2-.67-1.9l.98-13.55c.09-1.31,1.2-2.34,2.52-2.34h9.29c1.32,0,2.42,1.03,2.52,2.34l.98,13.55c.05,.7-.19,1.39-.67,1.9-.48,.51-1.15,.8-1.85,.8Z"/><rect class="k" x="51.37" y="296.67" width="1.07" height="3.42" rx=".34" ry=".34"/><rect class="k" x="53.57" y="296.67" width="1.07" height="4.06" rx=".34" ry=".34"/><rect class="k" x="57.98" y="296.67" width="1.07" height="4.06" rx=".34" ry=".34"/><rect class="k" x="60.18" y="296.67" width="1.07" height="3.42" rx=".34" ry=".34"/><rect class="k" x="55.77" y="296.67" width="1.07" height="3.42" rx=".34" ry=".34"/><path class="c" d="M62.01,314.83h-11.25c-.7,0-1.37-.29-1.85-.8-.48-.51-.72-1.2-.67-1.9l.98-13.55c.09-1.31,1.2-2.34,2.52-2.34h9.29c1.32,0,2.42,1.03,2.52,2.34l.98,13.55c.05,.7-.19,1.39-.67,1.9-.48,.51-1.15,.8-1.85,.8Z"/></g><line class="h" x1="49.83" y1="310.85" x2="62.79" y2="310.85"/></g><g><g><path class="m" d="M86.26,314.83h-11.25c-.7,0-1.37-.29-1.85-.8-.48-.51-.72-1.2-.67-1.9l.98-13.55c.09-1.31,1.2-2.34,2.52-2.34h9.29c1.32,0,2.42,1.03,2.52,2.34l.98,13.55c.05,.7-.19,1.39-.67,1.9-.48,.51-1.15,.8-1.85,.8Z"/><rect class="k" x="75.62" y="296.67" width="1.07" height="3.42" rx=".34" ry=".34"/><rect class="k" x="77.82" y="296.67" width="1.07" height="4.06" rx=".34" ry=".34"/><rect class="k" x="82.22" y="296.67" width="1.07" height="4.06" rx=".34" ry=".34"/><rect class="k" x="84.43" y="296.67" width="1.07" height="3.42" rx=".34" ry=".34"/><rect class="k" x="80.02" y="296.67" width="1.07" height="3.42" rx=".34" ry=".34"/><path class="c" d="M86.26,314.83h-11.25c-.7,0-1.37-.29-1.85-.8-.48-.51-.72-1.2-.67-1.9l.98-13.55c.09-1.31,1.2-2.34,2.52-2.34h9.29c1.32,0,2.42,1.03,2.52,2.34l.98,13.55c.05,.7-.19,1.39-.67,1.9-.48,.51-1.15,.8-1.85,.8Z"/></g><line class="h" x1="74.15" y1="310.85" x2="87.12" y2="310.85"/></g><g><g><path class="m" d="M110.51,314.83h-11.25c-.7,0-1.37-.29-1.85-.8-.48-.51-.72-1.2-.67-1.9l.98-13.55c.09-1.31,1.2-2.34,2.52-2.34h9.29c1.32,0,2.42,1.03,2.52,2.34l.98,13.55c.05,.7-.19,1.39-.67,1.9-.48,.51-1.15,.8-1.85,.8Z"/><rect class="k" x="99.87" y="296.67" width="1.07" height="3.42" rx=".34" ry=".34"/><rect class="k" x="102.07" y="296.67" width="1.07" height="4.06" rx=".34" ry=".34"/><rect class="k" x="106.47" y="296.67" width="1.07" height="4.06" rx=".34" ry=".34"/><rect class="k" x="108.68" y="296.67" width="1.07" height="3.42" rx=".34" ry=".34"/><rect class="k" x="104.27" y="296.67" width="1.07" height="3.42" rx=".34" ry=".34"/><path class="c" d="M110.51,314.83h-11.25c-.7,0-1.37-.29-1.85-.8-.48-.51-.72-1.2-.67-1.9l.98-13.55c.09-1.31,1.2-2.34,2.52-2.34h9.29c1.32,0,2.42,1.03,2.52,2.34l.98,13.55c.05,.7-.19,1.39-.67,1.9-.48,.51-1.15,.8-1.85,.8Z"/></g><line class="h" x1="98.4" y1="310.85" x2="111.37" y2="310.85"/></g><g><g><path class="m" d="M134.76,314.83h-11.25c-.7,0-1.37-.29-1.85-.8-.48-.51-.72-1.2-.67-1.9l.98-13.55c.09-1.31,1.2-2.34,2.52-2.34h9.29c1.32,0,2.42,1.03,2.52,2.34l.98,13.55c.05,.7-.19,1.39-.67,1.9-.48,.51-1.15,.8-1.85,.8Z"/><rect class="k" x="124.12" y="296.67" width="1.07" height="3.42" rx=".34" ry=".34"/><rect class="k" x="126.32" y="296.67" width="1.07" height="4.06" rx=".34" ry=".34"/><rect class="k" x="130.72" y="296.67" width="1.07" height="4.06" rx=".34" ry=".34"/><rect class="k" x="132.92" y="296.67" width="1.07" height="3.42" rx=".34" ry=".34"/><rect class="k" x="128.52" y="296.67" width="1.07" height="3.42" rx=".34" ry=".34"/><path class="c" d="M134.76,314.83h-11.25c-.7,0-1.37-.29-1.85-.8-.48-.51-.72-1.2-.67-1.9l.98-13.55c.09-1.31,1.2-2.34,2.52-2.34h9.29c1.32,0,2.42,1.03,2.52,2.34l.98,13.55c.05,.7-.19,1.39-.67,1.9-.48,.51-1.15,.8-1.85,.8Z"/></g><line class="h" x1="122.65" y1="310.85" x2="135.62" y2="310.85"/></g><g><g><path class="m" d="M159.01,314.83h-11.25c-.7,0-1.37-.29-1.85-.8-.48-.51-.72-1.2-.67-1.9l.98-13.55c.09-1.31,1.2-2.34,2.52-2.34h9.29c1.32,0,2.42,1.03,2.52,2.34l.98,13.55c.05,.7-.19,1.39-.67,1.9-.48,.51-1.15,.8-1.85,.8Z"/><rect class="k" x="148.37" y="296.67" width="1.07" height="3.42" rx=".34" ry=".34"/><rect class="k" x="150.57" y="296.67" width="1.07" height="4.06" rx=".34" ry=".34"/><rect class="k" x="154.97" y="296.67" width="1.07" height="4.06" rx=".34" ry=".34"/><rect class="k" x="157.17" y="296.67" width="1.07" height="3.42" rx=".34" ry=".34"/><rect class="k" x="152.77" y="296.67" width="1.07" height="3.42" rx=".34" ry=".34"/><path class="c" d="M159.01,314.83h-11.25c-.7,0-1.37-.29-1.85-.8-.48-.51-.72-1.2-.67-1.9l.98-13.55c.09-1.31,1.2-2.34,2.52-2.34h9.29c1.32,0,2.42,1.03,2.52,2.34l.98,13.55c.05,.7-.19,1.39-.67,1.9-.48,.51-1.15,.8-1.85,.8Z"/></g><line class="h" x1="146.9" y1="310.85" x2="159.87" y2="310.85"/></g><g><g><path class="m" d="M183.26,314.83h-11.25c-.7,0-1.37-.29-1.85-.8-.48-.51-.72-1.2-.67-1.9l.98-13.55c.09-1.31,1.2-2.34,2.52-2.34h9.29c1.32,0,2.42,1.03,2.52,2.34l.98,13.55c.05,.7-.19,1.39-.67,1.9-.48,.51-1.15,.8-1.85,.8Z"/><rect class="k" x="172.62" y="296.67" width="1.07" height="3.42" rx=".34" ry=".34"/><rect class="k" x="174.82" y="296.67" width="1.07" height="4.06" rx=".34" ry=".34"/><rect class="k" x="179.22" y="296.67" width="1.07" height="4.06" rx=".34" ry=".34"/><rect class="k" x="181.42" y="296.67" width="1.07" height="3.42" rx=".34" ry=".34"/><rect class="k" x="177.02" y="296.67" width="1.07" height="3.42" rx=".34" ry=".34"/><path class="c" d="M183.26,314.83h-11.25c-.7,0-1.37-.29-1.85-.8-.48-.51-.72-1.2-.67-1.9l.98-13.55c.09-1.31,1.2-2.34,2.52-2.34h9.29c1.32,0,2.42,1.03,2.52,2.34l.98,13.55c.05,.7-.19,1.39-.67,1.9-.48,.51-1.15,.8-1.85,.8Z"/></g><line class="h" x1="171.15" y1="310.85" x2="184.12" y2="310.85"/></g><g><g><path class="m" d="M207.51,314.83h-11.25c-.7,0-1.37-.29-1.85-.8-.48-.51-.72-1.2-.67-1.9l.98-13.55c.09-1.31,1.2-2.34,2.52-2.34h9.29c1.32,0,2.42,1.03,2.52,2.34l.98,13.55c.05,.7-.19,1.39-.67,1.9-.48,.51-1.15,.8-1.85,.8Z"/><rect class="k" x="196.87" y="296.67" width="1.07" height="3.42" rx=".34" ry=".34"/><rect class="k" x="199.07" y="296.67" width="1.07" height="4.06" rx=".34" ry=".34"/><rect class="k" x="203.47" y="296.67" width="1.07" height="4.06" rx=".34" ry=".34"/><rect class="k" x="205.67" y="296.67" width="1.07" height="3.42" rx=".34" ry=".34"/><rect class="k" x="201.27" y="296.67" width="1.07" height="3.42" rx=".34" ry=".34"/><path class="c" d="M207.51,314.83h-11.25c-.7,0-1.37-.29-1.85-.8-.48-.51-.72-1.2-.67-1.9l.98-13.55c.09-1.31,1.2-2.34,2.52-2.34h9.29c1.32,0,2.42,1.03,2.52,2.34l.98,13.55c.05,.7-.19,1.39-.67,1.9-.48,.51-1.15,.8-1.85,.8Z"/></g><line class="h" x1="195.4" y1="310.85" x2="208.36" y2="310.85"/></g><g><g><path class="m" d="M231.76,314.83h-11.25c-.7,0-1.37-.29-1.85-.8-.48-.51-.72-1.2-.67-1.9l.98-13.55c.09-1.31,1.2-2.34,2.52-2.34h9.29c1.32,0,2.42,1.03,2.52,2.34l.98,13.55c.05,.7-.19,1.39-.67,1.9-.48,.51-1.15,.8-1.85,.8Z"/><rect class="k" x="221.12" y="296.67" width="1.07" height="3.42" rx=".34" ry=".34"/><rect class="k" x="223.32" y="296.67" width="1.07" height="4.06" rx=".34" ry=".34"/><rect class="k" x="227.72" y="296.67" width="1.07" height="4.06" rx=".34" ry=".34"/><rect class="k" x="229.92" y="296.67" width="1.07" height="3.42" rx=".34" ry=".34"/><rect class="k" x="225.52" y="296.67" width="1.07" height="3.42" rx=".34" ry=".34"/><path class="c" d="M231.76,314.83h-11.25c-.7,0-1.37-.29-1.85-.8-.48-.51-.72-1.2-.67-1.9l.98-13.55c.09-1.31,1.2-2.34,2.52-2.34h9.29c1.32,0,2.42,1.03,2.52,2.34l.98,13.55c.05,.7-.19,1.39-.67,1.9-.48,.51-1.15,.8-1.85,.8Z"/></g><line class="h" x1="219.91" y1="310.85" x2="232.87" y2="310.85"/></g><g><g><path class="m" d="M444.56,314.83h-11.25c-.7,0-1.37-.29-1.85-.8-.48-.51-.72-1.2-.67-1.9l.98-13.55c.09-1.31,1.2-2.34,2.52-2.34h9.29c1.32,0,2.42,1.03,2.52,2.34l.98,13.55c.05,.7-.19,1.39-.67,1.9-.48,.51-1.15,.8-1.85,.8Z"/><rect class="k" x="433.92" y="296.67" width="1.07" height="3.42" rx=".34" ry=".34"/><rect class="k" x="436.12" y="296.67" width="1.07" height="4.06" rx=".34" ry=".34"/><rect class="k" x="440.52" y="296.67" width="1.07" height="4.06" rx=".34" ry=".34"/><rect class="k" x="442.72" y="296.67" width="1.07" height="3.42" rx=".34" ry=".34"/><rect class="k" x="438.32" y="296.67" width="1.07" height="3.42" rx=".34" ry=".34"/><path class="c" d="M444.56,314.83h-11.25c-.7,0-1.37-.29-1.85-.8-.48-.51-.72-1.2-.67-1.9l.98-13.55c.09-1.31,1.2-2.34,2.52-2.34h9.29c1.32,0,2.42,1.03,2.52,2.34l.98,13.55c.05,.7-.19,1.39-.67,1.9-.48,.51-1.15,.8-1.85,.8Z"/></g><line class="h" x1="432.37" y1="310.85" x2="445.34" y2="310.85"/></g><g><g><path class="m" d="M468.81,314.83h-11.25c-.7,0-1.37-.29-1.85-.8-.48-.51-.72-1.2-.67-1.9l.98-13.55c.09-1.31,1.2-2.34,2.52-2.34h9.29c1.32,0,2.42,1.03,2.52,2.34l.98,13.55c.05,.7-.19,1.39-.67,1.9-.48,.51-1.15,.8-1.85,.8Z"/><rect class="k" x="458.17" y="296.67" width="1.07" height="3.42" rx=".34" ry=".34"/><rect class="k" x="460.37" y="296.67" width="1.07" height="4.06" rx=".34" ry=".34"/><rect class="k" x="464.77" y="296.67" width="1.07" height="4.06" rx=".34" ry=".34"/><rect class="k" x="466.97" y="296.67" width="1.07" height="3.42" rx=".34" ry=".34"/><rect class="k" x="462.57" y="296.67" width="1.07" height="3.42" rx=".34" ry=".34"/><path class="c" d="M468.81,314.83h-11.25c-.7,0-1.37-.29-1.85-.8-.48-.51-.72-1.2-.67-1.9l.98-13.55c.09-1.31,1.2-2.34,2.52-2.34h9.29c1.32,0,2.42,1.03,2.52,2.34l.98,13.55c.05,.7-.19,1.39-.67,1.9-.48,.51-1.15,.8-1.85,.8Z"/></g><line class="h" x1="456.7" y1="310.85" x2="469.66" y2="310.85"/></g><g><g><path class="m" d="M493.06,314.83h-11.25c-.7,0-1.37-.29-1.85-.8-.48-.51-.72-1.2-.67-1.9l.98-13.55c.09-1.31,1.2-2.34,2.52-2.34h9.29c1.32,0,2.42,1.03,2.52,2.34l.98,13.55c.05,.7-.19,1.39-.67,1.9-.48,.51-1.15,.8-1.85,.8Z"/><rect class="k" x="482.42" y="296.67" width="1.07" height="3.42" rx=".34" ry=".34"/><rect class="k" x="484.62" y="296.67" width="1.07" height="4.06" rx=".34" ry=".34"/><rect class="k" x="489.02" y="296.67" width="1.07" height="4.06" rx=".34" ry=".34"/><rect class="k" x="491.22" y="296.67" width="1.07" height="3.42" rx=".34" ry=".34"/><rect class="k" x="486.82" y="296.67" width="1.07" height="3.42" rx=".34" ry=".34"/><path class="c" d="M493.06,314.83h-11.25c-.7,0-1.37-.29-1.85-.8-.48-.51-.72-1.2-.67-1.9l.98-13.55c.09-1.31,1.2-2.34,2.52-2.34h9.29c1.32,0,2.42,1.03,2.52,2.34l.98,13.55c.05,.7-.19,1.39-.67,1.9-.48,.51-1.15,.8-1.85,.8Z"/></g><line class="h" x1="480.95" y1="310.85" x2="493.91" y2="310.85"/></g><g><g><path class="m" d="M517.31,314.83h-11.25c-.7,0-1.37-.29-1.85-.8-.48-.51-.72-1.2-.67-1.9l.98-13.55c.09-1.31,1.2-2.34,2.52-2.34h9.29c1.32,0,2.42,1.03,2.52,2.34l.98,13.55c.05,.7-.19,1.39-.67,1.9-.48,.51-1.15,.8-1.85,.8Z"/><rect class="k" x="506.67" y="296.67" width="1.07" height="3.42" rx=".34" ry=".34"/><rect class="k" x="508.87" y="296.67" width="1.07" height="4.06" rx=".34" ry=".34"/><rect class="k" x="513.27" y="296.67" width="1.07" height="4.06" rx=".34" ry=".34"/><rect class="k" x="515.47" y="296.67" width="1.07" height="3.42" rx=".34" ry=".34"/><rect class="k" x="511.07" y="296.67" width="1.07" height="3.42" rx=".34" ry=".34"/><path class="c" d="M517.31,314.83h-11.25c-.7,0-1.37-.29-1.85-.8-.48-.51-.72-1.2-.67-1.9l.98-13.55c.09-1.31,1.2-2.34,2.52-2.34h9.29c1.32,0,2.42,1.03,2.52,2.34l.98,13.55c.05,.7-.19,1.39-.67,1.9-.48,.51-1.15,.8-1.85,.8Z"/></g><line class="h" x1="505.2" y1="310.85" x2="518.16" y2="310.85"/></g><g><g><path class="m" d="M541.56,314.83h-11.25c-.7,0-1.37-.29-1.85-.8-.48-.51-.72-1.2-.67-1.9l.98-13.55c.09-1.31,1.2-2.34,2.52-2.34h9.29c1.32,0,2.42,1.03,2.52,2.34l.98,13.55c.05,.7-.19,1.39-.67,1.9-.48,.51-1.15,.8-1.85,.8Z"/><rect class="k" x="530.92" y="296.67" width="1.07" height="3.42" rx=".34" ry=".34"/><rect class="k" x="533.12" y="296.67" width="1.07" height="4.06" rx=".34" ry=".34"/><rect class="k" x="537.52" y="296.67" width="1.07" height="4.06" rx=".34" ry=".34"/><rect class="k" x="539.72" y="296.67" width="1.07" height="3.42" rx=".34" ry=".34"/><rect class="k" x="535.32" y="296.67" width="1.07" height="3.42" rx=".34" ry=".34"/><path class="c" d="M541.56,314.83h-11.25c-.7,0-1.37-.29-1.85-.8-.48-.51-.72-1.2-.67-1.9l.98-13.55c.09-1.31,1.2-2.34,2.52-2.34h9.29c1.32,0,2.42,1.03,2.52,2.34l.98,13.55c.05,.7-.19,1.39-.67,1.9-.48,.51-1.15,.8-1.85,.8Z"/></g><line class="h" x1="529.45" y1="310.85" x2="542.41" y2="310.85"/></g><g><g><path class="m" d="M565.81,314.83h-11.25c-.7,0-1.37-.29-1.85-.8-.48-.51-.72-1.2-.67-1.9l.98-13.55c.09-1.31,1.2-2.34,2.52-2.34h9.29c1.32,0,2.42,1.03,2.52,2.34l.98,13.55c.05,.7-.19,1.39-.67,1.9-.48,.51-1.15,.8-1.85,.8Z"/><rect class="k" x="555.17" y="296.67" width="1.07" height="3.42" rx=".34" ry=".34"/><rect class="k" x="557.37" y="296.67" width="1.07" height="4.06" rx=".34" ry=".34"/><rect class="k" x="561.77" y="296.67" width="1.07" height="4.06" rx=".34" ry=".34"/><rect class="k" x="563.97" y="296.67" width="1.07" height="3.42" rx=".34" ry=".34"/><rect class="k" x="559.57" y="296.67" width="1.07" height="3.42" rx=".34" ry=".34"/><path class="c" d="M565.81,314.83h-11.25c-.7,0-1.37-.29-1.85-.8-.48-.51-.72-1.2-.67-1.9l.98-13.55c.09-1.31,1.2-2.34,2.52-2.34h9.29c1.32,0,2.42,1.03,2.52,2.34l.98,13.55c.05,.7-.19,1.39-.67,1.9-.48,.51-1.15,.8-1.85,.8Z"/></g><line class="h" x1="553.7" y1="310.85" x2="566.66" y2="310.85"/></g><g><g><path class="m" d="M590.05,314.83h-11.25c-.7,0-1.37-.29-1.85-.8-.48-.51-.72-1.2-.67-1.9l.98-13.55c.09-1.31,1.2-2.34,2.52-2.34h9.29c1.32,0,2.42,1.03,2.52,2.34l.98,13.55c.05,.7-.19,1.39-.67,1.9-.48,.51-1.15,.8-1.85,.8Z"/><rect class="k" x="579.42" y="296.67" width="1.07" height="3.42" rx=".34" ry=".34"/><rect class="k" x="581.62" y="296.67" width="1.07" height="4.06" rx=".34" ry=".34"/><rect class="k" x="586.02" y="296.67" width="1.07" height="4.06" rx=".34" ry=".34"/><rect class="k" x="588.22" y="296.67" width="1.07" height="3.42" rx=".34" ry=".34"/><rect class="k" x="583.82" y="296.67" width="1.07" height="3.42" rx=".34" ry=".34"/><path class="c" d="M590.05,314.83h-11.25c-.7,0-1.37-.29-1.85-.8-.48-.51-.72-1.2-.67-1.9l.98-13.55c.09-1.31,1.2-2.34,2.52-2.34h9.29c1.32,0,2.42,1.03,2.52,2.34l.98,13.55c.05,.7-.19,1.39-.67,1.9-.48,.51-1.15,.8-1.85,.8Z"/></g><line class="h" x1="577.95" y1="310.85" x2="590.91" y2="310.85"/></g><g><g><path class="m" d="M614.3,314.83h-11.25c-.7,0-1.37-.29-1.85-.8-.48-.51-.72-1.2-.67-1.9l.98-13.55c.09-1.31,1.2-2.34,2.52-2.34h9.29c1.32,0,2.42,1.03,2.52,2.34l.98,13.55c.05,.7-.19,1.39-.67,1.9-.48,.51-1.15,.8-1.85,.8Z"/><rect class="k" x="603.67" y="296.67" width="1.07" height="3.42" rx=".34" ry=".34"/><rect class="k" x="605.87" y="296.67" width="1.07" height="4.06" rx=".34" ry=".34"/><rect class="k" x="610.27" y="296.67" width="1.07" height="4.06" rx=".34" ry=".34"/><rect class="k" x="612.47" y="296.67" width="1.07" height="3.42" rx=".34" ry=".34"/><rect class="k" x="608.07" y="296.67" width="1.07" height="3.42" rx=".34" ry=".34"/><path class="c" d="M614.3,314.83h-11.25c-.7,0-1.37-.29-1.85-.8-.48-.51-.72-1.2-.67-1.9l.98-13.55c.09-1.31,1.2-2.34,2.52-2.34h9.29c1.32,0,2.42,1.03,2.52,2.34l.98,13.55c.05,.7-.19,1.39-.67,1.9-.48,.51-1.15,.8-1.85,.8Z"/></g><line class="h" x1="602.46" y1="310.85" x2="615.42" y2="310.85"/></g><polyline class="d" points="139.41 204.24 139.41 165.48 319.07 165.48 319.07 151.36"/><rect class="p" x="-1.54" y="192.37" width="307.67" height="52.93"/><g><path d="M240.7,21.34l3.42-1.29,.32-.09-.32-.1-3.42-1.27v-1.01l4.66,2v.77l-4.66,2v-1.01Z"/><text class="b" transform="translate(246.12 23.67)"><tspan x="0" y="0">minioClient.getObject()</tspan></text></g><g><path class="k" d="M102.75,222.84v-10.72h7.22v1.87h-4.96v2.55h4.59v1.87h-4.59v2.56h4.98v1.87h-7.24Z"/><path class="k" d="M111.78,222.84v-10.72h4.23c.81,0,1.5,.14,2.08,.43,.57,.29,1.01,.69,1.31,1.22,.3,.52,.45,1.14,.45,1.85s-.15,1.32-.46,1.83-.75,.9-1.33,1.17c-.58,.27-1.28,.41-2.11,.41h-2.83v-1.82h2.47c.43,0,.79-.06,1.08-.18s.5-.3,.64-.53,.21-.53,.21-.88-.07-.66-.21-.9c-.14-.24-.36-.43-.64-.56-.29-.13-.65-.19-1.09-.19h-1.53v8.87h-2.27Zm5.79-4.88l2.66,4.88h-2.5l-2.61-4.88h2.44Z"/><path class="k" d="M123.3,222.84h-2.43l3.7-10.72h2.92l3.7,10.72h-2.43l-2.69-8.27h-.08l-2.69,8.27Zm-.15-4.21h5.74v1.77h-5.74v-1.77Z"/><path class="k" d="M138.04,215.2c-.04-.42-.22-.75-.54-.98-.32-.23-.75-.35-1.29-.35-.37,0-.68,.05-.94,.15-.25,.1-.45,.25-.58,.43s-.2,.39-.2,.62c0,.19,.03,.36,.12,.5s.21,.27,.37,.37c.16,.1,.34,.19,.54,.27,.21,.08,.43,.14,.66,.19l.96,.23c.47,.1,.9,.24,1.29,.42s.73,.39,1.02,.64c.29,.25,.51,.55,.67,.9,.16,.35,.24,.74,.24,1.19,0,.66-.17,1.22-.5,1.7-.33,.48-.8,.85-1.42,1.12-.62,.26-1.37,.4-2.24,.4s-1.62-.13-2.26-.4c-.64-.27-1.14-.66-1.5-1.18s-.55-1.17-.56-1.94h2.19c.02,.36,.13,.66,.31,.9,.18,.24,.43,.42,.74,.54,.31,.12,.66,.18,1.05,.18s.72-.06,1-.17c.28-.11,.5-.27,.66-.47,.16-.2,.24-.43,.24-.69,0-.24-.07-.44-.21-.61-.14-.16-.35-.3-.62-.42s-.6-.22-.99-.31l-1.17-.29c-.9-.22-1.62-.56-2.14-1.03-.52-.47-.78-1.1-.78-1.89,0-.65,.17-1.22,.52-1.7s.83-.86,1.45-1.14c.61-.27,1.31-.41,2.09-.41s1.49,.14,2.09,.41c.59,.27,1.06,.65,1.39,1.14s.5,1.05,.51,1.69h-2.17Z"/><path class="k" d="M148.5,212.12h2.27v6.96c0,.78-.19,1.47-.56,2.05-.37,.59-.89,1.04-1.56,1.37-.67,.33-1.44,.49-2.33,.49s-1.67-.16-2.33-.49c-.67-.33-1.18-.78-1.55-1.37-.37-.59-.55-1.27-.55-2.05v-6.96h2.27v6.77c0,.41,.09,.77,.27,1.09,.18,.32,.43,.57,.76,.75,.33,.18,.71,.27,1.15,.27s.82-.09,1.15-.27c.33-.18,.58-.43,.76-.75,.18-.32,.27-.68,.27-1.09v-6.77Z"/><path class="k" d="M152.63,222.84v-10.72h4.23c.81,0,1.5,.14,2.08,.43,.57,.29,1.01,.69,1.31,1.22,.3,.52,.45,1.14,.45,1.85s-.15,1.32-.46,1.83-.75,.9-1.33,1.17c-.58,.27-1.28,.41-2.11,.41h-2.83v-1.82h2.47c.43,0,.79-.06,1.08-.18s.5-.3,.64-.53,.21-.53,.21-.88-.07-.66-.21-.9c-.14-.24-.36-.43-.64-.56-.29-.13-.65-.19-1.09-.19h-1.53v8.87h-2.27Zm5.79-4.88l2.66,4.88h-2.5l-2.61-4.88h2.44Z"/><path class="k" d="M162.31,222.84v-10.72h7.22v1.87h-4.96v2.55h4.59v1.87h-4.59v2.56h4.98v1.87h-7.24Z"/><path class="k" d="M180.57,215.2c-.04-.42-.22-.75-.54-.98-.32-.23-.75-.35-1.29-.35-.37,0-.68,.05-.94,.15-.25,.1-.45,.25-.58,.43s-.2,.39-.2,.62c0,.19,.03,.36,.12,.5s.21,.27,.37,.37c.16,.1,.34,.19,.54,.27,.21,.08,.43,.14,.66,.19l.96,.23c.47,.1,.9,.24,1.29,.42s.73,.39,1.02,.64c.29,.25,.51,.55,.67,.9,.16,.35,.24,.74,.24,1.19,0,.66-.17,1.22-.5,1.7-.33,.48-.8,.85-1.42,1.12-.62,.26-1.37,.4-2.24,.4s-1.62-.13-2.26-.4c-.64-.27-1.14-.66-1.5-1.18s-.55-1.17-.56-1.94h2.19c.02,.36,.13,.66,.31,.9,.18,.24,.43,.42,.74,.54,.31,.12,.66,.18,1.05,.18s.72-.06,1-.17c.28-.11,.5-.27,.66-.47,.16-.2,.24-.43,.24-.69,0-.24-.07-.44-.21-.61-.14-.16-.35-.3-.62-.42s-.6-.22-.99-.31l-1.17-.29c-.9-.22-1.62-.56-2.14-1.03-.52-.47-.78-1.1-.78-1.89,0-.65,.17-1.22,.52-1.7s.83-.86,1.45-1.14c.61-.27,1.31-.41,2.09-.41s1.49,.14,2.09,.41c.59,.27,1.06,.65,1.39,1.14s.5,1.05,.51,1.69h-2.17Z"/><path class="k" d="M184.4,222.84v-10.72h7.22v1.87h-4.96v2.55h4.59v1.87h-4.59v2.56h4.98v1.87h-7.24Z"/><path class="k" d="M193.03,213.99v-1.87h8.8v1.87h-3.28v8.85h-2.24v-8.85h-3.28Z"/></g><rect class="p" x="394.45" y="192.37" width="250.13" height="52.93"/><g><path class="k" d="M465.89,222.84v-10.72h7.22v1.87h-4.96v2.55h4.59v1.87h-4.59v2.56h4.98v1.87h-7.24Z"/><path class="k" d="M474.92,222.84v-10.72h4.23c.81,0,1.5,.14,2.08,.43,.57,.29,1.01,.69,1.31,1.22,.3,.52,.45,1.14,.45,1.85s-.15,1.32-.46,1.83-.75,.9-1.33,1.17c-.58,.27-1.28,.41-2.11,.41h-2.83v-1.82h2.47c.43,0,.79-.06,1.08-.18s.5-.3,.64-.53,.21-.53,.21-.88-.07-.66-.21-.9c-.14-.24-.36-.43-.64-.56-.29-.13-.65-.19-1.09-.19h-1.53v8.87h-2.27Zm5.79-4.88l2.66,4.88h-2.5l-2.61-4.88h2.44Z"/><path class="k" d="M486.44,222.84h-2.43l3.7-10.72h2.92l3.7,10.72h-2.43l-2.69-8.27h-.08l-2.69,8.27Zm-.15-4.21h5.74v1.77h-5.74v-1.77Z"/><path class="k" d="M501.18,215.2c-.04-.42-.22-.75-.54-.98-.32-.23-.75-.35-1.29-.35-.37,0-.68,.05-.94,.15-.25,.1-.45,.25-.58,.43s-.2,.39-.2,.62c0,.19,.03,.36,.12,.5s.21,.27,.37,.37c.16,.1,.34,.19,.54,.27,.21,.08,.43,.14,.66,.19l.96,.23c.47,.1,.9,.24,1.29,.42s.73,.39,1.02,.64c.29,.25,.51,.55,.67,.9,.16,.35,.24,.74,.24,1.19,0,.66-.17,1.22-.5,1.7-.33,.48-.8,.85-1.42,1.12-.62,.26-1.37,.4-2.24,.4s-1.62-.13-2.26-.4c-.64-.27-1.14-.66-1.5-1.18s-.55-1.17-.56-1.94h2.19c.02,.36,.13,.66,.31,.9,.18,.24,.43,.42,.74,.54,.31,.12,.66,.18,1.05,.18s.72-.06,1-.17c.28-.11,.5-.27,.66-.47,.16-.2,.24-.43,.24-.69,0-.24-.07-.44-.21-.61-.14-.16-.35-.3-.62-.42s-.6-.22-.99-.31l-1.17-.29c-.9-.22-1.62-.56-2.14-1.03-.52-.47-.78-1.1-.78-1.89,0-.65,.17-1.22,.52-1.7s.83-.86,1.45-1.14c.61-.27,1.31-.41,2.09-.41s1.49,.14,2.09,.41c.59,.27,1.06,.65,1.39,1.14s.5,1.05,.51,1.69h-2.17Z"/><path class="k" d="M511.64,212.12h2.27v6.96c0,.78-.19,1.47-.56,2.05-.37,.59-.89,1.04-1.56,1.37-.67,.33-1.44,.49-2.33,.49s-1.67-.16-2.33-.49c-.67-.33-1.18-.78-1.55-1.37-.37-.59-.55-1.27-.55-2.05v-6.96h2.27v6.77c0,.41,.09,.77,.27,1.09,.18,.32,.43,.57,.76,.75,.33,.18,.71,.27,1.15,.27s.82-.09,1.15-.27c.33-.18,.58-.43,.76-.75,.18-.32,.27-.68,.27-1.09v-6.77Z"/><path class="k" d="M515.77,222.84v-10.72h4.23c.81,0,1.5,.14,2.08,.43,.57,.29,1.01,.69,1.31,1.22,.3,.52,.45,1.14,.45,1.85s-.15,1.32-.46,1.83-.75,.9-1.33,1.17c-.58,.27-1.28,.41-2.11,.41h-2.83v-1.82h2.47c.43,0,.79-.06,1.08-.18s.5-.3,.64-.53,.21-.53,.21-.88-.07-.66-.21-.9c-.14-.24-.36-.43-.64-.56-.29-.13-.65-.19-1.09-.19h-1.53v8.87h-2.27Zm5.79-4.88l2.66,4.88h-2.5l-2.61-4.88h2.44Z"/><path class="k" d="M525.44,222.84v-10.72h7.22v1.87h-4.96v2.55h4.59v1.87h-4.59v2.56h4.98v1.87h-7.24Z"/><path class="k" d="M543.71,215.2c-.04-.42-.22-.75-.54-.98-.32-.23-.75-.35-1.29-.35-.37,0-.68,.05-.94,.15-.25,.1-.45,.25-.58,.43s-.2,.39-.2,.62c0,.19,.03,.36,.12,.5s.21,.27,.37,.37c.16,.1,.34,.19,.54,.27,.21,.08,.43,.14,.66,.19l.96,.23c.47,.1,.9,.24,1.29,.42s.73,.39,1.02,.64c.29,.25,.51,.55,.67,.9,.16,.35,.24,.74,.24,1.19,0,.66-.17,1.22-.5,1.7-.33,.48-.8,.85-1.42,1.12-.62,.26-1.37,.4-2.24,.4s-1.62-.13-2.26-.4c-.64-.27-1.14-.66-1.5-1.18s-.55-1.17-.56-1.94h2.19c.02,.36,.13,.66,.31,.9,.18,.24,.43,.42,.74,.54,.31,.12,.66,.18,1.05,.18s.72-.06,1-.17c.28-.11,.5-.27,.66-.47,.16-.2,.24-.43,.24-.69,0-.24-.07-.44-.21-.61-.14-.16-.35-.3-.62-.42s-.6-.22-.99-.31l-1.17-.29c-.9-.22-1.62-.56-2.14-1.03-.52-.47-.78-1.1-.78-1.89,0-.65,.17-1.22,.52-1.7s.83-.86,1.45-1.14c.61-.27,1.31-.41,2.09-.41s1.49,.14,2.09,.41c.59,.27,1.06,.65,1.39,1.14s.5,1.05,.51,1.69h-2.17Z"/><path class="k" d="M547.54,222.84v-10.72h7.22v1.87h-4.96v2.55h4.59v1.87h-4.59v2.56h4.98v1.87h-7.24Z"/><path class="k" d="M556.16,213.99v-1.87h8.8v1.87h-3.28v8.85h-2.24v-8.85h-3.28Z"/></g><rect class="f" x="228.67" y="-.43" width="185.86" height="39.33"/><rect class="m" x="139.69" y="95.78" width="363.81" height="52.93"/><g><g><rect class="k" x="308.59" y="117.35" width="4.49" height="11.71"/><path class="k" d="M303.14,117.51l-9.11,4.92c-.13,.07-.29,.07-.42,0l-9.11-4.92c-.2-.11-.42-.16-.65-.16h-.01c-.69,0-1.25,.49-1.25,1.1v10.59s4.49,0,4.49,0v-5.04c0-.31,.38-.5,.68-.34l5.11,2.76c.5,.27,1.14,.28,1.64,.01l5.39-2.79c.3-.15,.68,.04,.68,.34v5.06s4.49,0,4.49,0v-10.59c0-.61-.56-1.1-1.25-1.1h-.01c-.23,0-.46,.06-.65,.16Z"/><path class="k" d="M335.47,117.35h-4.55s0,5.33,0,5.33c0,.3-.36,.49-.66,.35l-11.8-5.55c-.18-.09-.38-.13-.59-.13h0c-.69,0-1.25,.49-1.25,1.1v10.59s4.52,0,4.52,0v-5.32c0-.3,.36-.49,.66-.35l11.85,5.55c.18,.08,.38,.13,.59,.13h0c.69,0,1.25-.49,1.25-1.1v-10.6Z"/></g><path class="k" d="M339,129.06v-11.71h2.07v11.71h-2.07Z"/><path class="k" d="M353.22,129.27c-5.56,0-9.5-2.33-9.5-6.06,0-3.71,3.97-6.06,9.5-6.06s9.53,2.33,9.53,6.06c0,3.73-3.9,6.06-9.53,6.06Zm0-10.57c-4.13,0-7.32,1.59-7.32,4.51,0,2.94,3.18,4.51,7.32,4.51,4.13,0,7.34-1.57,7.34-4.51s-3.21-4.51-7.34-4.51Z"/></g><polyline class="o" points="321.94 90.87 324.13 90.87 321.59 95.25 319.07 90.87 320.95 90.87"/><polyline class="o" points="318.72 153.6 316.53 153.6 319.07 149.22 321.6 153.6 319.71 153.6"/><polyline class="o" points="141.18 249.67 138.99 249.67 141.52 245.29 144.05 249.67 142.17 249.67"/><line class="d" x1="321.6" y1="39.1" x2="321.6" y2="90.87"/><g><rect class="n" x="48.22" y="335.44" width="17.24" height="20.03" rx="3.25" ry="3.25"/><text class="l" transform="translate(54.03 347.57)"><tspan x="0" y="0">D</tspan></text></g><g><rect class="n" x="71.94" y="335.44" width="17.24" height="20.03" rx="3.25" ry="3.25"/><text class="l" transform="translate(77.75 347.57)"><tspan x="0" y="0">D</tspan></text></g><g><rect class="n" x="95.81" y="335.44" width="17.24" height="20.03" rx="3.25" ry="3.25"/><text class="l" transform="translate(101.62 347.57)"><tspan x="0" y="0">D</tspan></text></g><g><rect class="n" x="120.99" y="335.44" width="17.24" height="20.03" rx="3.25" ry="3.25"/><text class="l" transform="translate(126.8 347.57)"><tspan x="0" y="0">D</tspan></text></g><g><rect class="j" x="215.44" y="333.08" width="21.1" height="24.52" rx="3.25" ry="3.25"/><rect class="m" x="217.08" y="334.98" width="17.83" height="20.72" rx="3.25" ry="3.25"/><path class="k" d="M224.06,347.53v-5.86h2.09c.46,0,.83,.08,1.13,.25,.3,.17,.52,.39,.67,.68,.15,.29,.22,.61,.22,.97s-.08,.68-.22,.97-.37,.51-.68,.68-.68,.25-1.13,.25h-1.44v-.75h1.36c.29,0,.52-.05,.7-.15s.31-.24,.4-.41c.08-.17,.13-.37,.13-.59s-.04-.42-.13-.59c-.08-.17-.22-.31-.4-.4-.18-.1-.42-.15-.71-.15h-1.11v5.1h-.88Z"/></g><g><rect class="j" x="142.23" y="333.08" width="21.1" height="24.52" rx="3.25" ry="3.25"/><rect class="m" x="143.86" y="334.98" width="17.83" height="20.72" rx="3.25" ry="3.25"/><path class="k" d="M150.85,347.53v-5.86h2.09c.46,0,.83,.08,1.13,.25,.3,.17,.52,.39,.67,.68,.15,.29,.22,.61,.22,.97s-.08,.68-.22,.97-.37,.51-.68,.68-.68,.25-1.13,.25h-1.44v-.75h1.36c.29,0,.52-.05,.7-.15s.31-.24,.4-.41c.08-.17,.13-.37,.13-.59s-.04-.42-.13-.59c-.08-.17-.22-.31-.4-.4-.18-.1-.42-.15-.71-.15h-1.11v5.1h-.88Z"/></g><g><rect class="j" x="166.48" y="333.08" width="21.1" height="24.52" rx="3.25" ry="3.25"/><rect class="m" x="168.11" y="334.98" width="17.83" height="20.72" rx="3.25" ry="3.25"/><path class="k" d="M175.09,347.53v-5.86h2.09c.46,0,.83,.08,1.13,.25,.3,.17,.52,.39,.67,.68,.15,.29,.22,.61,.22,.97s-.08,.68-.22,.97-.37,.51-.68,.68-.68,.25-1.13,.25h-1.44v-.75h1.36c.29,0,.52-.05,.7-.15s.31-.24,.4-.41c.08-.17,.13-.37,.13-.59s-.04-.42-.13-.59c-.08-.17-.22-.31-.4-.4-.18-.1-.42-.15-.71-.15h-1.11v5.1h-.88Z"/></g><g><rect class="j" x="190.72" y="333.08" width="21.1" height="24.52" rx="3.25" ry="3.25"/><rect class="m" x="192.36" y="334.98" width="17.83" height="20.72" rx="3.25" ry="3.25"/><path class="k" d="M199.34,347.53v-5.86h2.09c.46,0,.83,.08,1.13,.25,.3,.17,.52,.39,.67,.68,.15,.29,.22,.61,.22,.97s-.08,.68-.22,.97-.37,.51-.68,.68-.68,.25-1.13,.25h-1.44v-.75h1.36c.29,0,.52-.05,.7-.15s.31-.24,.4-.41c.08-.17,.13-.37,.13-.59s-.04-.42-.13-.59c-.08-.17-.22-.31-.4-.4-.18-.1-.42-.15-.71-.15h-1.11v5.1h-.88Z"/></g><rect class="i" x=".02" y=".41" width="156.61" height="78.08"/><g><path d="M39.23,15.68c-.03-.27-.16-.48-.38-.63-.22-.15-.5-.22-.83-.22-.24,0-.44,.04-.62,.11s-.31,.18-.4,.31c-.1,.13-.14,.28-.14,.44,0,.14,.03,.26,.1,.36,.06,.1,.15,.18,.26,.25s.22,.12,.35,.17,.24,.08,.35,.11l.57,.15c.19,.05,.38,.11,.57,.18,.2,.08,.38,.18,.54,.31,.17,.13,.3,.28,.4,.47,.1,.19,.15,.41,.15,.67,0,.33-.08,.62-.25,.88-.17,.26-.41,.46-.74,.6-.32,.15-.71,.22-1.16,.22s-.81-.07-1.13-.21-.57-.33-.75-.59c-.18-.25-.28-.56-.3-.91h.88c.02,.21,.09,.38,.21,.52,.12,.14,.27,.24,.46,.31,.19,.07,.4,.1,.62,.1,.25,0,.47-.04,.66-.12,.19-.08,.35-.19,.46-.33s.17-.31,.17-.5c0-.17-.05-.31-.15-.42-.1-.11-.23-.2-.4-.27s-.35-.14-.56-.19l-.69-.19c-.47-.13-.83-.31-1.11-.56-.27-.25-.41-.57-.41-.98,0-.34,.09-.63,.27-.88,.18-.25,.43-.44,.74-.58s.66-.21,1.05-.21,.74,.07,1.04,.21,.54,.33,.71,.57c.17,.24,.27,.52,.27,.83h-.85Z"/><path d="M43.17,15.6v.68h-2.38v-.68h2.38Zm-1.74-1.05h.85v4.13c0,.16,.02,.29,.07,.37,.05,.08,.11,.14,.19,.17,.08,.03,.16,.04,.26,.04,.07,0,.13,0,.18-.01,.05,0,.09-.02,.12-.02l.15,.7s-.12,.04-.21,.06c-.09,.02-.2,.03-.34,.03-.22,0-.43-.04-.62-.12-.19-.08-.35-.21-.47-.39-.12-.17-.18-.39-.18-.66v-4.3Z"/><path d="M45.9,20.06c-.41,0-.77-.09-1.07-.28-.3-.19-.54-.45-.71-.79-.17-.34-.25-.73-.25-1.18s.08-.85,.25-1.19c.17-.34,.41-.6,.71-.79,.31-.19,.66-.28,1.07-.28s.77,.09,1.07,.28c.31,.19,.54,.45,.71,.79,.17,.34,.25,.73,.25,1.19s-.08,.84-.25,1.18c-.17,.34-.41,.6-.71,.79-.3,.19-.66,.28-1.07,.28Zm0-.71c.27,0,.48-.07,.66-.21,.17-.14,.3-.33,.39-.56,.08-.23,.13-.49,.13-.77s-.04-.53-.13-.77c-.08-.23-.21-.42-.39-.56-.17-.14-.39-.21-.66-.21s-.49,.07-.66,.21-.3,.33-.39,.56-.13,.49-.13,.77,.04,.54,.13,.77,.21,.42,.39,.56c.18,.14,.4,.21,.66,.21Z"/><path d="M48.88,19.97v-4.36h.82v.69h.05c.08-.23,.22-.42,.42-.56,.2-.14,.43-.2,.69-.2,.05,0,.12,0,.19,0s.13,0,.17,.01v.81s-.09-.02-.18-.03c-.09-.01-.17-.02-.26-.02-.2,0-.38,.04-.54,.13-.16,.08-.28,.2-.37,.35-.09,.15-.14,.32-.14,.51v2.66h-.85Z"/><path d="M53.19,20.06c-.28,0-.53-.05-.75-.15-.22-.1-.4-.25-.53-.45-.13-.2-.19-.44-.19-.72,0-.25,.05-.45,.14-.61s.22-.29,.38-.38,.34-.16,.54-.21c.2-.05,.4-.08,.61-.11,.26-.03,.47-.06,.64-.08,.16-.02,.28-.05,.35-.1,.07-.05,.11-.12,.11-.22v-.02c0-.25-.07-.44-.21-.58s-.35-.2-.62-.2-.51,.06-.67,.19c-.16,.13-.28,.27-.34,.42l-.8-.18c.09-.27,.23-.48,.42-.64,.18-.16,.39-.28,.63-.36s.49-.11,.75-.11c.17,0,.36,.02,.56,.06,.2,.04,.38,.12,.55,.22s.31,.26,.42,.46,.16,.46,.16,.78v2.9h-.83v-.6h-.03c-.06,.11-.14,.22-.25,.32-.11,.11-.25,.19-.42,.26-.17,.07-.38,.1-.62,.1Zm.18-.68c.23,0,.44-.05,.6-.14,.17-.09,.3-.21,.38-.36,.09-.15,.13-.31,.13-.48v-.56s-.09,.06-.17,.08c-.09,.03-.18,.05-.29,.07s-.22,.03-.32,.05c-.1,.01-.19,.03-.26,.04-.16,.02-.31,.06-.45,.1-.14,.05-.24,.12-.32,.21-.08,.09-.12,.21-.12,.36,0,.21,.08,.37,.23,.48s.35,.16,.59,.16Z"/><path d="M58.3,21.69c-.35,0-.64-.05-.89-.14-.25-.09-.45-.21-.61-.36-.16-.15-.27-.31-.35-.48l.73-.3c.05,.08,.12,.17,.21,.26,.09,.09,.2,.17,.35,.24,.15,.07,.34,.1,.58,.1,.32,0,.59-.08,.8-.23,.21-.16,.32-.4,.32-.74v-.86h-.05c-.05,.09-.12,.2-.22,.31s-.23,.21-.39,.3c-.17,.08-.38,.12-.65,.12-.34,0-.65-.08-.93-.24-.28-.16-.49-.4-.65-.72-.16-.32-.24-.71-.24-1.17s.08-.86,.24-1.19c.16-.33,.38-.59,.65-.76,.28-.18,.59-.27,.94-.27,.27,0,.49,.04,.66,.13,.17,.09,.3,.19,.39,.31,.09,.12,.17,.22,.22,.32h.06v-.71h.83v4.46c0,.37-.09,.68-.26,.92s-.41,.42-.71,.53-.63,.17-1,.17Zm0-2.49c.24,0,.45-.06,.62-.17,.17-.11,.3-.28,.39-.49,.09-.21,.13-.47,.13-.77s-.04-.55-.13-.78c-.09-.22-.21-.4-.38-.52s-.38-.19-.62-.19-.47,.07-.64,.2c-.17,.13-.3,.31-.39,.54-.09,.23-.13,.48-.13,.76s.04,.54,.13,.75c.09,.22,.22,.38,.39,.51,.17,.12,.38,.18,.63,.18Z"/><path d="M63.29,20.06c-.43,0-.8-.09-1.11-.28s-.55-.44-.72-.78c-.17-.34-.25-.73-.25-1.18s.08-.84,.25-1.18c.17-.34,.4-.61,.7-.8,.3-.19,.66-.29,1.06-.29,.25,0,.48,.04,.72,.12s.44,.21,.62,.38c.18,.17,.33,.4,.43,.68,.11,.28,.16,.61,.16,1.01v.3h-3.47v-.64h2.64c0-.22-.05-.42-.14-.6s-.22-.31-.38-.41c-.16-.1-.36-.15-.58-.15-.24,0-.45,.06-.62,.17-.18,.12-.31,.27-.41,.45-.1,.19-.14,.39-.14,.61v.5c0,.29,.05,.54,.15,.74,.1,.2,.25,.36,.43,.47,.19,.11,.4,.16,.65,.16,.16,0,.31-.02,.44-.07,.13-.05,.25-.12,.34-.21,.1-.09,.17-.21,.22-.34l.8,.15c-.06,.24-.18,.44-.35,.62-.17,.18-.37,.31-.62,.41-.25,.1-.53,.15-.85,.15Z"/><path d="M68.47,17.55c0-.71,.09-1.37,.28-1.97,.19-.6,.46-1.15,.82-1.66h.78c-.14,.19-.27,.42-.39,.69-.12,.27-.23,.57-.32,.9s-.16,.66-.21,1.01c-.05,.35-.08,.69-.08,1.03,0,.45,.04,.91,.13,1.37,.09,.46,.21,.89,.36,1.29,.15,.4,.32,.72,.51,.97h-.78c-.36-.51-.63-1.06-.82-1.66-.19-.6-.28-1.25-.28-1.97Z"/><path d="M71.32,19.97v-5.82h.88v2.53h2.9v-2.53h.88v5.82h-.88v-2.54h-2.9v2.54h-.88Z"/><path d="M79.14,19.97h-1.88v-5.82h1.94c.57,0,1.06,.12,1.47,.35s.72,.56,.94,1c.22,.43,.33,.95,.33,1.56s-.11,1.13-.33,1.56c-.22,.44-.54,.77-.96,1-.42,.23-.92,.35-1.51,.35Zm-1.01-.77h.96c.44,0,.81-.08,1.1-.25s.51-.41,.66-.73c.15-.32,.22-.71,.22-1.17s-.07-.84-.22-1.16c-.15-.32-.36-.56-.65-.72-.29-.16-.64-.25-1.07-.25h-1.01v4.28Z"/><path d="M84.91,19.97h-1.88v-5.82h1.94c.57,0,1.06,.12,1.47,.35s.72,.56,.94,1c.22,.43,.33,.95,.33,1.56s-.11,1.13-.33,1.56c-.22,.44-.54,.77-.96,1-.42,.23-.92,.35-1.51,.35Zm-1.01-.77h.96c.44,0,.81-.08,1.1-.25s.51-.41,.66-.73c.15-.32,.22-.71,.22-1.17s-.07-.84-.22-1.16c-.15-.32-.36-.56-.65-.72-.29-.16-.64-.25-1.07-.25h-1.01v4.28Z"/><path d="M89.47,19.17l-.04,.31c-.03,.23-.08,.46-.14,.71-.07,.25-.14,.48-.21,.69-.07,.21-.13,.38-.17,.51h-.6c.02-.12,.06-.28,.1-.48,.04-.2,.09-.42,.13-.67,.04-.25,.07-.5,.09-.75l.03-.32h.82Z"/><path d="M95.94,15.68c-.03-.27-.16-.48-.38-.63-.22-.15-.5-.22-.83-.22-.24,0-.44,.04-.62,.11s-.31,.18-.4,.31c-.1,.13-.14,.28-.14,.44,0,.14,.03,.26,.1,.36,.06,.1,.15,.18,.26,.25s.22,.12,.35,.17,.24,.08,.35,.11l.57,.15c.19,.05,.38,.11,.57,.18,.2,.08,.38,.18,.54,.31,.17,.13,.3,.28,.4,.47,.1,.19,.15,.41,.15,.67,0,.33-.08,.62-.25,.88-.17,.26-.41,.46-.74,.6-.32,.15-.71,.22-1.16,.22s-.81-.07-1.13-.21-.57-.33-.75-.59c-.18-.25-.28-.56-.3-.91h.88c.02,.21,.09,.38,.21,.52,.12,.14,.27,.24,.46,.31,.19,.07,.4,.1,.62,.1,.25,0,.47-.04,.66-.12,.19-.08,.35-.19,.46-.33s.17-.31,.17-.5c0-.17-.05-.31-.15-.42-.1-.11-.23-.2-.4-.27s-.35-.14-.56-.19l-.69-.19c-.47-.13-.83-.31-1.11-.56-.27-.25-.41-.57-.41-.98,0-.34,.09-.63,.27-.88,.18-.25,.43-.44,.74-.58s.66-.21,1.05-.21,.74,.07,1.04,.21,.54,.33,.71,.57c.17,.24,.27,.52,.27,.83h-.85Z"/><path d="M101.09,15.68c-.03-.27-.16-.48-.38-.63-.22-.15-.5-.22-.83-.22-.24,0-.44,.04-.62,.11s-.31,.18-.4,.31c-.1,.13-.14,.28-.14,.44,0,.14,.03,.26,.1,.36,.06,.1,.15,.18,.26,.25s.22,.12,.35,.17,.24,.08,.35,.11l.57,.15c.19,.05,.38,.11,.57,.18,.2,.08,.38,.18,.54,.31,.17,.13,.3,.28,.4,.47,.1,.19,.15,.41,.15,.67,0,.33-.08,.62-.25,.88-.17,.26-.41,.46-.74,.6-.32,.15-.71,.22-1.16,.22s-.81-.07-1.13-.21-.57-.33-.75-.59c-.18-.25-.28-.56-.3-.91h.88c.02,.21,.09,.38,.21,.52,.12,.14,.27,.24,.46,.31,.19,.07,.4,.1,.62,.1,.25,0,.47-.04,.66-.12,.19-.08,.35-.19,.46-.33s.17-.31,.17-.5c0-.17-.05-.31-.15-.42-.1-.11-.23-.2-.4-.27s-.35-.14-.56-.19l-.69-.19c-.47-.13-.83-.31-1.11-.56-.27-.25-.41-.57-.41-.98,0-.34,.09-.63,.27-.88,.18-.25,.43-.44,.74-.58s.66-.21,1.05-.21,.74,.07,1.04,.21,.54,.33,.71,.57c.17,.24,.27,.52,.27,.83h-.85Z"/><path d="M104.95,19.97h-1.88v-5.82h1.94c.57,0,1.06,.12,1.47,.35s.72,.56,.94,1c.22,.43,.33,.95,.33,1.56s-.11,1.13-.33,1.56c-.22,.44-.54,.77-.96,1-.42,.23-.92,.35-1.51,.35Zm-1.01-.77h.96c.44,0,.81-.08,1.1-.25s.51-.41,.66-.73c.15-.32,.22-.71,.22-1.17s-.07-.84-.22-1.16c-.15-.32-.36-.56-.65-.72-.29-.16-.64-.25-1.07-.25h-1.01v4.28Z"/><path d="M109.51,19.17l-.04,.31c-.03,.23-.08,.46-.14,.71-.07,.25-.14,.48-.21,.69-.07,.21-.13,.38-.17,.51h-.6c.02-.12,.06-.28,.1-.48,.04-.2,.09-.42,.13-.67,.04-.25,.07-.5,.09-.75l.03-.32h.82Z"/><path d="M117.5,14.15v5.82h-.81l-2.96-4.27h-.05v4.27h-.88v-5.82h.81l2.96,4.27h.05v-4.27h.87Z"/><path d="M119.28,14.15l1.62,4.74h.07l1.62-4.74h.95l-2.09,5.82h-1.01l-2.09-5.82h.95Z"/><path d="M124.37,14.15h1.07l1.85,4.52h.07l1.85-4.52h1.07v5.82h-.83v-4.21h-.05l-1.72,4.2h-.69l-1.72-4.2h-.05v4.21h-.84v-5.82Z"/><path d="M133.37,20.06c-.43,0-.8-.09-1.11-.28s-.55-.44-.72-.78c-.17-.34-.25-.73-.25-1.18s.08-.84,.25-1.18c.17-.34,.4-.61,.7-.8,.3-.19,.66-.29,1.06-.29,.25,0,.48,.04,.72,.12s.44,.21,.62,.38c.18,.17,.33,.4,.43,.68,.11,.28,.16,.61,.16,1.01v.3h-3.47v-.64h2.64c0-.22-.05-.42-.14-.6s-.22-.31-.38-.41c-.16-.1-.36-.15-.58-.15-.24,0-.45,.06-.62,.17-.18,.12-.31,.27-.41,.45-.1,.19-.14,.39-.14,.61v.5c0,.29,.05,.54,.15,.74,.1,.2,.25,.36,.43,.47,.19,.11,.4,.16,.65,.16,.16,0,.31-.02,.44-.07,.13-.05,.25-.12,.34-.21,.1-.09,.17-.21,.22-.34l.8,.15c-.06,.24-.18,.44-.35,.62-.17,.18-.37,.31-.62,.41-.25,.1-.53,.15-.85,.15Z"/><path d="M137.82,17.55c0,.71-.09,1.37-.28,1.97-.19,.6-.46,1.15-.82,1.66h-.78c.14-.19,.27-.42,.39-.69,.12-.27,.23-.57,.32-.9s.16-.66,.21-1.01c.05-.35,.08-.69,.08-1.03,0-.45-.04-.9-.13-1.37-.09-.46-.21-.89-.36-1.29-.15-.4-.32-.72-.51-.97h.78c.36,.51,.63,1.06,.82,1.66,.19,.6,.28,1.25,.28,1.97Z"/></g><g><path d="M37.35,41.06h-1.88v-5.82h1.94c.57,0,1.06,.12,1.47,.35s.72,.56,.94,1c.22,.43,.33,.95,.33,1.56s-.11,1.13-.33,1.56c-.22,.44-.54,.77-.96,1-.42,.23-.92,.35-1.51,.35Zm-1.01-.77h.96c.44,0,.81-.08,1.1-.25s.51-.41,.66-.73c.15-.32,.22-.71,.22-1.17s-.07-.84-.22-1.16c-.15-.32-.36-.56-.65-.72-.29-.16-.64-.25-1.07-.25h-1.01v4.28Z"/><path d="M42.44,41.16c-.28,0-.53-.05-.75-.15-.22-.1-.4-.25-.53-.45-.13-.2-.19-.44-.19-.72,0-.25,.05-.45,.14-.61s.22-.29,.38-.38,.34-.16,.54-.21c.2-.05,.4-.08,.61-.11,.26-.03,.47-.06,.64-.08,.16-.02,.28-.05,.35-.1,.07-.05,.11-.12,.11-.22v-.02c0-.25-.07-.44-.21-.58s-.35-.2-.62-.2-.51,.06-.67,.19c-.16,.13-.28,.27-.34,.42l-.8-.18c.09-.27,.23-.48,.42-.64,.18-.16,.39-.28,.63-.36s.49-.11,.75-.11c.17,0,.36,.02,.56,.06,.2,.04,.38,.12,.55,.22s.31,.26,.42,.46,.16,.46,.16,.78v2.9h-.83v-.6h-.03c-.06,.11-.14,.22-.25,.32-.11,.11-.25,.19-.42,.26-.17,.07-.38,.1-.62,.1Zm.18-.68c.23,0,.44-.05,.6-.14,.17-.09,.3-.21,.38-.36,.09-.15,.13-.31,.13-.48v-.56s-.09,.06-.17,.08c-.09,.03-.18,.05-.29,.07s-.22,.03-.32,.05c-.1,.01-.19,.03-.26,.04-.16,.02-.31,.06-.45,.1-.14,.05-.24,.12-.32,.21-.08,.09-.12,.21-.12,.36,0,.21,.08,.37,.23,.48s.35,.16,.59,.16Z"/><path d="M47.76,36.7v.68h-2.38v-.68h2.38Zm-1.74-1.05h.85v4.13c0,.16,.02,.29,.07,.37,.05,.08,.11,.14,.19,.17,.08,.03,.16,.04,.26,.04,.07,0,.13,0,.18-.01,.05,0,.09-.02,.12-.02l.15,.7s-.12,.04-.21,.06c-.09,.02-.2,.03-.34,.03-.22,0-.43-.04-.62-.12-.19-.08-.35-.21-.47-.39-.12-.17-.18-.39-.18-.66v-4.3Z"/><path d="M49.97,41.16c-.28,0-.53-.05-.75-.15-.22-.1-.4-.25-.53-.45-.13-.2-.19-.44-.19-.72,0-.25,.05-.45,.14-.61s.22-.29,.38-.38,.34-.16,.54-.21c.2-.05,.4-.08,.61-.11,.26-.03,.47-.06,.64-.08,.16-.02,.28-.05,.35-.1,.07-.05,.11-.12,.11-.22v-.02c0-.25-.07-.44-.21-.58s-.35-.2-.62-.2-.51,.06-.67,.19c-.16,.13-.28,.27-.34,.42l-.8-.18c.09-.27,.23-.48,.42-.64,.18-.16,.39-.28,.63-.36s.49-.11,.75-.11c.17,0,.36,.02,.56,.06,.2,.04,.38,.12,.55,.22s.31,.26,.42,.46,.16,.46,.16,.78v2.9h-.83v-.6h-.03c-.06,.11-.14,.22-.25,.32-.11,.11-.25,.19-.42,.26-.17,.07-.38,.1-.62,.1Zm.18-.68c.23,0,.44-.05,.6-.14,.17-.09,.3-.21,.38-.36,.09-.15,.13-.31,.13-.48v-.56s-.09,.06-.17,.08c-.09,.03-.18,.05-.29,.07s-.22,.03-.32,.05c-.1,.01-.19,.03-.26,.04-.16,.02-.31,.06-.45,.1-.14,.05-.24,.12-.32,.21-.08,.09-.12,.21-.12,.36,0,.21,.08,.37,.23,.48s.35,.16,.59,.16Z"/><path d="M58.61,36.77c-.03-.27-.16-.48-.38-.63-.22-.15-.5-.22-.83-.22-.24,0-.44,.04-.62,.11s-.31,.18-.4,.31c-.1,.13-.14,.28-.14,.44,0,.14,.03,.26,.1,.36,.06,.1,.15,.18,.26,.25s.22,.12,.35,.17,.24,.08,.35,.11l.57,.15c.19,.05,.38,.11,.57,.18,.2,.08,.38,.18,.54,.31,.17,.13,.3,.28,.4,.47,.1,.19,.15,.41,.15,.67,0,.33-.08,.62-.25,.88-.17,.26-.41,.46-.74,.6-.32,.15-.71,.22-1.16,.22s-.81-.07-1.13-.21-.57-.33-.75-.59c-.18-.25-.28-.56-.3-.91h.88c.02,.21,.09,.38,.21,.52,.12,.14,.27,.24,.46,.31,.19,.07,.4,.1,.62,.1,.25,0,.47-.04,.66-.12,.19-.08,.35-.19,.46-.33s.17-.31,.17-.5c0-.17-.05-.31-.15-.42-.1-.11-.23-.2-.4-.27s-.35-.14-.56-.19l-.69-.19c-.47-.13-.83-.31-1.11-.56-.27-.25-.41-.57-.41-.98,0-.34,.09-.63,.27-.88,.18-.25,.43-.44,.74-.58s.66-.21,1.05-.21,.74,.07,1.04,.21,.54,.33,.71,.57c.17,.24,.27,.52,.27,.83h-.85Z"/><path d="M61.37,38.47v2.59h-.85v-5.82h.84v2.17h.05c.1-.23,.26-.42,.47-.56,.21-.14,.48-.21,.82-.21,.3,0,.56,.06,.79,.18,.22,.12,.4,.31,.52,.55s.19,.55,.19,.91v2.78h-.85v-2.67c0-.32-.08-.57-.25-.75-.16-.18-.39-.27-.69-.27-.2,0-.38,.04-.54,.13-.16,.08-.28,.21-.37,.37-.09,.16-.13,.36-.13,.59Z"/><path d="M66.6,41.16c-.28,0-.53-.05-.75-.15-.22-.1-.4-.25-.53-.45-.13-.2-.19-.44-.19-.72,0-.25,.05-.45,.14-.61s.22-.29,.38-.38,.34-.16,.54-.21c.2-.05,.4-.08,.61-.11,.26-.03,.47-.06,.64-.08,.16-.02,.28-.05,.35-.1,.07-.05,.11-.12,.11-.22v-.02c0-.25-.07-.44-.21-.58s-.35-.2-.62-.2-.51,.06-.67,.19c-.16,.13-.28,.27-.34,.42l-.8-.18c.09-.27,.23-.48,.42-.64,.18-.16,.39-.28,.63-.36s.49-.11,.75-.11c.17,0,.36,.02,.56,.06,.2,.04,.38,.12,.55,.22s.31,.26,.42,.46,.16,.46,.16,.78v2.9h-.83v-.6h-.03c-.06,.11-.14,.22-.25,.32-.11,.11-.25,.19-.42,.26-.17,.07-.38,.1-.62,.1Zm.18-.68c.23,0,.44-.05,.6-.14,.17-.09,.3-.21,.38-.36,.09-.15,.13-.31,.13-.48v-.56s-.09,.06-.17,.08c-.09,.03-.18,.05-.29,.07s-.22,.03-.32,.05c-.1,.01-.19,.03-.26,.04-.16,.02-.31,.06-.45,.1-.14,.05-.24,.12-.32,.21-.08,.09-.12,.21-.12,.36,0,.21,.08,.37,.23,.48s.35,.16,.59,.16Z"/><path d="M69.89,41.06v-4.36h.82v.69h.05c.08-.23,.22-.42,.42-.56,.2-.14,.43-.2,.69-.2,.05,0,.12,0,.19,0s.13,0,.17,.01v.81s-.09-.02-.18-.03c-.09-.01-.17-.02-.26-.02-.2,0-.38,.04-.54,.13-.16,.08-.28,.2-.37,.35-.09,.15-.14,.32-.14,.51v2.66h-.85Z"/><path d="M74.44,41.14c-.35,0-.67-.09-.94-.27-.28-.18-.49-.44-.65-.78-.16-.34-.23-.74-.23-1.21s.08-.88,.24-1.21c.16-.34,.38-.59,.65-.77,.28-.18,.59-.27,.94-.27,.27,0,.49,.04,.65,.13,.17,.09,.29,.19,.39,.31,.09,.12,.16,.22,.21,.32h.05v-2.16h.85v5.82h-.83v-.68h-.07c-.05,.09-.12,.2-.22,.32s-.23,.22-.39,.31c-.17,.09-.38,.13-.65,.13Zm.19-.72c.24,0,.45-.06,.62-.19,.17-.13,.3-.31,.39-.54,.09-.23,.13-.5,.13-.81s-.04-.57-.13-.8c-.09-.23-.21-.4-.38-.53-.17-.13-.38-.19-.62-.19s-.47,.07-.64,.2c-.17,.13-.3,.31-.39,.54-.09,.23-.13,.49-.13,.78s.04,.55,.13,.79c.09,.23,.22,.42,.39,.55,.17,.14,.38,.2,.63,.2Z"/></g><g><path d="M36.01,62.97v-5.82h2.07c.45,0,.83,.08,1.12,.25s.52,.39,.67,.67c.15,.29,.22,.61,.22,.96s-.07,.68-.22,.96c-.15,.29-.37,.51-.67,.68-.3,.17-.67,.25-1.12,.25h-1.43v-.74h1.35c.29,0,.52-.05,.7-.15s.31-.24,.39-.41c.08-.17,.12-.37,.12-.59s-.04-.42-.12-.59c-.08-.17-.21-.3-.39-.4-.18-.1-.41-.14-.71-.14h-1.1v5.07h-.88Z"/><path d="M42.28,63.07c-.28,0-.53-.05-.75-.16s-.4-.25-.53-.45-.19-.44-.19-.72c0-.25,.05-.45,.14-.61s.22-.29,.38-.38,.34-.16,.54-.21c.2-.05,.4-.08,.61-.11,.26-.03,.47-.06,.64-.08,.16-.02,.28-.05,.35-.1,.07-.04,.11-.12,.11-.22v-.02c0-.25-.07-.44-.21-.58-.14-.14-.35-.21-.62-.21s-.51,.06-.67,.19c-.16,.13-.28,.27-.34,.42l-.8-.18c.09-.27,.23-.48,.42-.64,.18-.16,.39-.28,.63-.36,.24-.07,.49-.11,.75-.11,.17,0,.36,.02,.56,.06,.2,.04,.38,.12,.55,.22,.17,.11,.31,.26,.42,.46,.11,.2,.16,.46,.16,.78v2.9h-.83v-.6h-.03c-.06,.11-.14,.22-.25,.32-.11,.11-.25,.19-.42,.26-.17,.07-.38,.11-.62,.11Zm.18-.68c.23,0,.44-.05,.6-.14,.17-.09,.3-.21,.38-.37,.09-.15,.13-.31,.13-.48v-.56s-.09,.06-.17,.08c-.09,.03-.18,.05-.29,.07-.11,.02-.22,.03-.32,.05-.1,.01-.19,.03-.26,.04-.16,.02-.31,.06-.45,.1-.14,.05-.24,.12-.32,.21-.08,.09-.12,.21-.12,.37,0,.21,.08,.37,.23,.48,.16,.11,.35,.16,.59,.16Z"/><path d="M45.57,62.97v-4.36h.82v.69h.05c.08-.23,.22-.42,.42-.56,.2-.13,.43-.2,.69-.2,.05,0,.12,0,.19,0s.13,0,.17,.01v.81s-.09-.02-.18-.03c-.09-.01-.17-.02-.26-.02-.2,0-.38,.04-.54,.13s-.28,.2-.37,.35c-.09,.15-.14,.32-.14,.51v2.67h-.85Z"/><path d="M49.07,57.94c-.15,0-.27-.05-.38-.15-.1-.1-.16-.22-.16-.36s.05-.26,.16-.36c.11-.1,.23-.15,.38-.15s.27,.05,.38,.15c.1,.1,.16,.22,.16,.36s-.05,.26-.16,.36c-.11,.1-.23,.15-.38,.15Zm-.43,5.04v-4.36h.85v4.36h-.85Z"/><path d="M52.67,58.61v.68h-2.38v-.68h2.38Zm-1.74-1.04h.85v4.13c0,.16,.02,.29,.07,.37,.05,.08,.11,.14,.19,.17s.16,.04,.26,.04c.07,0,.13,0,.18-.01,.05,0,.09-.02,.12-.02l.15,.7s-.12,.04-.21,.06c-.09,.02-.2,.03-.34,.03-.22,0-.43-.04-.62-.12-.19-.08-.35-.21-.47-.39-.12-.17-.18-.39-.18-.66v-4.3Z"/><path d="M54.15,64.6c-.13,0-.24,0-.35-.03-.1-.02-.18-.04-.23-.06l.2-.7c.23,.06,.43,.07,.59,.02,.16-.05,.29-.22,.4-.5l.1-.29-1.6-4.42h.91l1.11,3.39h.05l1.1-3.39h.92s-1.8,4.95-1.8,4.95c-.08,.23-.19,.42-.32,.57s-.28,.27-.46,.35c-.18,.08-.38,.12-.62,.12Z"/><path d="M63.51,58.68c-.03-.27-.16-.48-.38-.63-.22-.15-.5-.22-.83-.22-.24,0-.44,.04-.62,.11-.17,.08-.31,.18-.4,.31-.1,.13-.14,.28-.14,.44,0,.14,.03,.26,.1,.36,.06,.1,.15,.18,.26,.25s.22,.12,.35,.17c.12,.04,.24,.08,.35,.11l.57,.15c.19,.04,.38,.11,.57,.18,.2,.08,.38,.18,.54,.31,.17,.13,.3,.28,.4,.47,.1,.19,.15,.41,.15,.67,0,.33-.08,.62-.25,.88s-.41,.46-.74,.61c-.32,.15-.71,.22-1.16,.22s-.81-.07-1.13-.21c-.32-.14-.57-.33-.75-.59-.18-.25-.28-.56-.3-.91h.88c.02,.21,.09,.38,.21,.52,.12,.14,.27,.24,.46,.31s.4,.1,.62,.1c.25,0,.47-.04,.66-.12,.19-.08,.35-.19,.46-.33,.11-.14,.17-.31,.17-.5,0-.17-.05-.31-.15-.42-.1-.11-.23-.2-.4-.27-.17-.07-.35-.14-.56-.19l-.69-.19c-.47-.13-.83-.31-1.11-.56-.27-.25-.41-.57-.41-.98,0-.33,.09-.63,.27-.88,.18-.25,.43-.44,.74-.58,.31-.14,.66-.21,1.05-.21s.74,.07,1.04,.21c.3,.14,.54,.33,.71,.57s.27,.52,.27,.83h-.85Z"/><path d="M66.26,60.38v2.59h-.85v-5.82h.84v2.17h.05c.1-.24,.26-.42,.47-.56,.21-.14,.48-.21,.82-.21,.3,0,.56,.06,.79,.18,.22,.12,.4,.31,.52,.55s.19,.55,.19,.91v2.78h-.85v-2.67c0-.32-.08-.57-.25-.75-.16-.18-.39-.27-.69-.27-.2,0-.38,.04-.54,.13-.16,.08-.28,.21-.37,.37-.09,.16-.13,.36-.13,.59Z"/><path d="M71.5,63.07c-.28,0-.53-.05-.75-.16s-.4-.25-.53-.45-.19-.44-.19-.72c0-.25,.05-.45,.14-.61s.22-.29,.38-.38,.34-.16,.54-.21c.2-.05,.4-.08,.61-.11,.26-.03,.47-.06,.64-.08,.16-.02,.28-.05,.35-.1,.07-.04,.11-.12,.11-.22v-.02c0-.25-.07-.44-.21-.58-.14-.14-.35-.21-.62-.21s-.51,.06-.67,.19c-.16,.13-.28,.27-.34,.42l-.8-.18c.09-.27,.23-.48,.42-.64,.18-.16,.39-.28,.63-.36,.24-.07,.49-.11,.75-.11,.17,0,.36,.02,.56,.06,.2,.04,.38,.12,.55,.22,.17,.11,.31,.26,.42,.46,.11,.2,.16,.46,.16,.78v2.9h-.83v-.6h-.03c-.06,.11-.14,.22-.25,.32-.11,.11-.25,.19-.42,.26-.17,.07-.38,.11-.62,.11Zm.18-.68c.23,0,.44-.05,.6-.14,.17-.09,.3-.21,.38-.37,.09-.15,.13-.31,.13-.48v-.56s-.09,.06-.17,.08c-.09,.03-.18,.05-.29,.07-.11,.02-.22,.03-.32,.05-.1,.01-.19,.03-.26,.04-.16,.02-.31,.06-.45,.1-.14,.05-.24,.12-.32,.21-.08,.09-.12,.21-.12,.37,0,.21,.08,.37,.23,.48,.16,.11,.35,.16,.59,.16Z"/><path d="M74.78,62.97v-4.36h.82v.69h.05c.08-.23,.22-.42,.42-.56,.2-.13,.43-.2,.69-.2,.05,0,.12,0,.19,0s.13,0,.17,.01v.81s-.09-.02-.18-.03c-.09-.01-.17-.02-.26-.02-.2,0-.38,.04-.54,.13s-.28,.2-.37,.35c-.09,.15-.14,.32-.14,.51v2.67h-.85Z"/><path d="M79.33,63.06c-.35,0-.67-.09-.94-.27-.28-.18-.49-.44-.65-.78s-.23-.74-.23-1.21,.08-.88,.24-1.21c.16-.33,.38-.59,.65-.77,.28-.18,.59-.27,.94-.27,.27,0,.49,.04,.65,.13,.17,.09,.29,.2,.39,.31s.16,.22,.21,.32h.05v-2.16h.85v5.82h-.83v-.68h-.07c-.05,.09-.12,.2-.22,.32s-.23,.22-.39,.31c-.17,.09-.38,.13-.65,.13Zm.19-.72c.24,0,.45-.06,.62-.19s.3-.31,.39-.54c.09-.23,.13-.5,.13-.81s-.04-.57-.13-.8c-.09-.23-.21-.4-.38-.53s-.38-.19-.62-.19-.47,.07-.64,.2-.3,.31-.39,.54c-.09,.23-.13,.49-.13,.78s.04,.55,.13,.79c.09,.23,.22,.42,.39,.55,.17,.14,.38,.2,.63,.2Z"/></g><g><g><path class="m" d="M19.91,20.55h-4.85c-.3,0-.59-.13-.8-.35-.2-.22-.31-.52-.29-.82l.42-5.84c.04-.57,.52-1.01,1.08-1.01h4c.57,0,1.04,.44,1.08,1.01l.42,5.84c.02,.3-.08,.6-.29,.82-.2,.22-.49,.35-.8,.35Z"/><rect class="k" x="15.33" y="12.73" width=".46" height="1.47" rx=".23" ry=".23"/><rect class="k" x="16.28" y="12.73" width=".46" height="1.75" rx=".23" ry=".23"/><rect class="k" x="18.17" y="12.73" width=".46" height="1.75" rx=".23" ry=".23"/><rect class="k" x="19.12" y="12.73" width=".46" height="1.47" rx=".23" ry=".23"/><rect class="k" x="17.23" y="12.73" width=".46" height="1.47" rx=".23" ry=".23"/><path class="e" d="M19.91,20.55h-4.85c-.3,0-.59-.13-.8-.35-.2-.22-.31-.52-.29-.82l.42-5.84c.04-.57,.52-1.01,1.08-1.01h4c.57,0,1.04,.44,1.08,1.01l.42,5.84c.02,.3-.08,.6-.29,.82-.2,.22-.49,.35-.8,.35Z"/></g><line class="g" x1="14.81" y1="18.83" x2="20.39" y2="18.83"/></g><rect class="n" x="13.94" y="33.38" width="8.05" height="9.36" rx="1.21" ry="1.21"/><path class="k" d="M17.74,40.06h-1.41v-4.36h1.46c.43,0,.79,.09,1.1,.26,.31,.17,.54,.42,.71,.75,.16,.32,.25,.71,.25,1.17s-.08,.84-.25,1.17c-.17,.33-.4,.58-.72,.75s-.69,.26-1.13,.26Zm-.75-.58h.72c.33,0,.61-.06,.83-.19,.22-.13,.38-.31,.49-.55,.11-.24,.16-.53,.16-.88s-.05-.63-.16-.87c-.11-.24-.27-.42-.48-.54s-.48-.19-.8-.19h-.76v3.21Z"/><g><rect class="m" x="12.94" y="53.57" width="10.05" height="11.36" rx="2.21" ry="2.21"/><path class="j" d="M20.78,54.57c.67,0,1.21,.55,1.21,1.21v6.93c0,.67-.55,1.21-1.21,1.21h-5.62c-.67,0-1.21-.55-1.21-1.21v-6.93c0-.67,.55-1.21,1.21-1.21h5.62m0-2h-5.62c-1.77,0-3.21,1.44-3.21,3.21v6.93c0,1.77,1.44,3.21,3.21,3.21h5.62c1.77,0,3.21-1.44,3.21-3.21v-6.93c0-1.77-1.44-3.21-3.21-3.21h0Z"/></g><path class="k" d="M16.57,61.17v-4.36h1.56c.34,0,.62,.06,.84,.19,.22,.12,.39,.29,.5,.51s.17,.45,.17,.72-.06,.51-.17,.72c-.11,.21-.28,.38-.5,.51-.22,.12-.5,.19-.84,.19h-1.07v-.56h1.01c.21,0,.39-.04,.52-.11,.13-.07,.23-.18,.29-.31,.06-.13,.09-.28,.09-.44s-.03-.31-.09-.44c-.06-.13-.16-.23-.29-.3-.13-.07-.31-.11-.53-.11h-.83v3.8h-.66Z"/></svg>