<?xml version="1.0" encoding="UTF-8" standalone="no"?>
<svg
   id="a"
   viewBox="0 0 645.33 370.33"
   version="1.1"
   sodipodi:docname="architecture-erasure-set-retrieve-object.svg"
   inkscape:version="1.2.2 (b0a8486541, 2022-12-01)"
   xmlns:inkscape="http://www.inkscape.org/namespaces/inkscape"
   xmlns:sodipodi="http://sodipodi.sourceforge.net/DTD/sodipodi-0.dtd"
   xmlns="http://www.w3.org/2000/svg"
   xmlns:svg="http://www.w3.org/2000/svg">
  <sodipodi:namedview
     id="namedview9851"
     pagecolor="#505050"
     bordercolor="#eeeeee"
     borderopacity="1"
     inkscape:showpageshadow="0"
     inkscape:pageopacity="0"
     inkscape:pagecheckerboard="0"
     inkscape:deskcolor="#505050"
     showgrid="false"
     inkscape:zoom="2.5705976"
     inkscape:cx="231.26918"
     inkscape:cy="253.054"
     inkscape:window-width="3840"
     inkscape:window-height="2123"
     inkscape:window-x="3840"
     inkscape:window-y="0"
     inkscape:window-maximized="1"
     inkscape:current-layer="a" />
  <defs
     id="defs9234">
    <style
       id="style9232">.b{font-family:RobotoMono-Regular, 'Roboto Mono';font-size:11.39px;font-variation-settings:'wght' 400;}.c{stroke-width:1.62px;}.c,.d,.e,.f,.g,.h{fill:none;stroke-miterlimit:10;}.c,.e,.f{stroke:#cf2144;}.i{fill:#f6f6f6;}.j{fill:#e8f3f3;}.k,.l{fill:#fff;}.m{fill:#cf2144;}.n{fill:#122745;}.o{fill:#1b1717;}.p{fill:#577f9a;}.l{font-family:Inter-Medium, Inter;font-size:7.79px;font-variation-settings:'wght' 500, 'slnt' 0;font-weight:500;}.d{stroke:#1b1717;stroke-width:1.47px;}.e{stroke-width:.7px;}.g{stroke-width:.31px;}.g,.h{stroke:#fff;stroke-linecap:round;}.h{stroke-width:.72px;}</style>
  </defs>
  <path
     id="line9236"
     class="d"
     style="fill:none;stroke:#1b1717;stroke-width:1.47px;stroke-miterlimit:10"
     d="M 80.019997,301.56 V 269.5" />
  <path
     id="line9238"
     class="d"
     style="fill:none;stroke:#1b1717;stroke-width:1.47px;stroke-miterlimit:10"
     d="M 80.019997,335.44 V 303.37" />
  <path
     id="line9240"
     class="d"
     style="fill:none;stroke:#1b1717;stroke-width:1.47px;stroke-miterlimit:10"
     d="M 55.77,335.44 V 303.37" />
  <path
     id="line9242"
     class="d"
     style="fill:none;stroke:#1b1717;stroke-width:1.47px;stroke-miterlimit:10"
     d="M 129.81,335.44 V 303.37" />
  <path
     id="line9244"
     class="d"
     style="fill:none;stroke:#1b1717;stroke-width:1.47px;stroke-miterlimit:10"
     d="M 105.56,335.44 V 303.37" />
  <path
     id="line9246"
     class="d"
     style="fill:none;stroke:#1b1717;stroke-width:1.47px;stroke-miterlimit:10"
     d="M 177.59,335.44 V 303.37" />
  <path
     id="line9248"
     class="d"
     style="fill:none;stroke:#1b1717;stroke-width:1.47px;stroke-miterlimit:10"
     d="M 153.34,335.44 V 303.37" />
  <path
     id="line9250"
     class="d"
     style="fill:none;stroke:#1b1717;stroke-width:1.47px;stroke-miterlimit:10"
     d="M 226.37,335.44 V 303.37" />
  <path
     id="line9252"
     class="d"
     style="fill:none;stroke:#1b1717;stroke-width:1.47px;stroke-miterlimit:10"
     d="M 202.13,335.44 V 303.37" />
  <path
     id="line9254"
     class="d"
     style="fill:none;stroke:#1b1717;stroke-width:1.47px;stroke-miterlimit:10"
     d="M 104.89,301.56 V 269.5" />
  <path
     id="line9256"
     class="d"
     style="fill:none;stroke:#1b1717;stroke-width:1.47px;stroke-miterlimit:10"
     d="M 128.89,301.56 V 269.5" />
  <path
     id="polyline9258"
     class="d"
     style="fill:none;stroke:#1b1717;stroke-width:1.47px;stroke-miterlimit:10"
     d="m 55.36,302.64 v -32.88 h 86.16 v -21.03" />
  <g
     id="g9278">
    <g
       id="g9274">
      <path
         class="m"
         d="M62.01,314.83h-11.25c-.7,0-1.37-.29-1.85-.8-.48-.51-.72-1.2-.67-1.9l.98-13.55c.09-1.31,1.2-2.34,2.52-2.34h9.29c1.32,0,2.42,1.03,2.52,2.34l.98,13.55c.05,.7-.19,1.39-.67,1.9-.48,.51-1.15,.8-1.85,.8Z"
         id="path9260" />
      <path
         id="rect9262"
         class="k"
         style="fill:#ffffff"
         d="m 51.709999,296.67001 h 0.39 c 0.18836,0 0.34,0.15164 0.34,0.34 v 2.74 c 0,0.18836 -0.15164,0.34 -0.34,0.34 h -0.39 c -0.18836,0 -0.34,-0.15164 -0.34,-0.34 v -2.74 c 0,-0.18836 0.15164,-0.34 0.34,-0.34 z" />
      <path
         id="rect9264"
         class="k"
         style="fill:#ffffff"
         d="m 53.91,296.67001 h 0.39 c 0.18836,0 0.34,0.15164 0.34,0.34 v 3.38 c 0,0.18836 -0.15164,0.34 -0.34,0.34 h -0.39 c -0.18836,0 -0.34,-0.15164 -0.34,-0.34 v -3.38 c 0,-0.18836 0.15164,-0.34 0.34,-0.34 z" />
      <path
         id="rect9266"
         class="k"
         style="fill:#ffffff"
         d="m 58.32,296.67001 h 0.39 c 0.18836,0 0.34,0.15164 0.34,0.34 v 3.38 c 0,0.18836 -0.15164,0.34 -0.34,0.34 h -0.39 c -0.18836,0 -0.34,-0.15164 -0.34,-0.34 v -3.38 c 0,-0.18836 0.15164,-0.34 0.34,-0.34 z" />
      <path
         id="rect9268"
         class="k"
         style="fill:#ffffff"
         d="m 60.52,296.67001 h 0.39 c 0.18836,0 0.34,0.15164 0.34,0.34 v 2.74 c 0,0.18836 -0.15164,0.34 -0.34,0.34 h -0.39 c -0.18836,0 -0.34,-0.15164 -0.34,-0.34 v -2.74 c 0,-0.18836 0.15164,-0.34 0.34,-0.34 z" />
      <path
         id="rect9270"
         class="k"
         style="fill:#ffffff"
         d="m 56.11,296.67001 h 0.390001 c 0.18836,0 0.34,0.15164 0.34,0.34 v 2.74 c 0,0.18836 -0.15164,0.34 -0.34,0.34 H 56.11 c -0.18836,0 -0.34,-0.15164 -0.34,-0.34 v -2.74 c 0,-0.18836 0.15164,-0.34 0.34,-0.34 z" />
      <path
         class="c"
         d="M62.01,314.83h-11.25c-.7,0-1.37-.29-1.85-.8-.48-.51-.72-1.2-.67-1.9l.98-13.55c.09-1.31,1.2-2.34,2.52-2.34h9.29c1.32,0,2.42,1.03,2.52,2.34l.98,13.55c.05,.7-.19,1.39-.67,1.9-.48,.51-1.15,.8-1.85,.8Z"
         id="path9272" />
    </g>
    <path
       id="line9276"
       class="h"
       style="fill:none;stroke:#ffffff;stroke-width:0.72px;stroke-linecap:round;stroke-miterlimit:10"
       d="M 49.830002,310.85001 H 62.790001" />
  </g>
  <g
     id="g9298">
    <g
       id="g9294">
      <path
         class="m"
         d="M86.26,314.83h-11.25c-.7,0-1.37-.29-1.85-.8-.48-.51-.72-1.2-.67-1.9l.98-13.55c.09-1.31,1.2-2.34,2.52-2.34h9.29c1.32,0,2.42,1.03,2.52,2.34l.98,13.55c.05,.7-.19,1.39-.67,1.9-.48,.51-1.15,.8-1.85,.8Z"
         id="path9280" />
      <path
         id="rect9282"
         class="k"
         style="fill:#ffffff"
         d="m 75.960003,296.67001 h 0.39 c 0.18836,0 0.34,0.15164 0.34,0.34 v 2.74 c 0,0.18836 -0.15164,0.34 -0.34,0.34 h -0.39 c -0.18836,0 -0.34,-0.15164 -0.34,-0.34 v -2.74 c 0,-0.18836 0.15164,-0.34 0.34,-0.34 z" />
      <path
         id="rect9284"
         class="k"
         style="fill:#ffffff"
         d="m 78.16,296.67001 h 0.39 c 0.18836,0 0.34,0.15164 0.34,0.34 v 3.38 c 0,0.18836 -0.15164,0.34 -0.34,0.34 h -0.39 c -0.18836,0 -0.34,-0.15164 -0.34,-0.34 v -3.38 c 0,-0.18836 0.15164,-0.34 0.34,-0.34 z" />
      <path
         id="rect9286"
         class="k"
         style="fill:#ffffff"
         d="m 82.560001,296.67001 h 0.39 c 0.18836,0 0.34,0.15164 0.34,0.34 v 3.38 c 0,0.18836 -0.15164,0.34 -0.34,0.34 h -0.39 c -0.18836,0 -0.34,-0.15164 -0.34,-0.34 v -3.38 c 0,-0.18836 0.15164,-0.34 0.34,-0.34 z" />
      <path
         id="rect9288"
         class="k"
         style="fill:#ffffff"
         d="m 84.77,296.67001 h 0.39 c 0.18836,0 0.34,0.15164 0.34,0.34 v 2.74 c 0,0.18836 -0.15164,0.34 -0.34,0.34 h -0.39 c -0.18836,0 -0.34,-0.15164 -0.34,-0.34 v -2.74 c 0,-0.18836 0.15164,-0.34 0.34,-0.34 z" />
      <path
         id="rect9290"
         class="k"
         style="fill:#ffffff"
         d="m 80.359997,296.67001 h 0.39 c 0.18836,0 0.34,0.15164 0.34,0.34 v 2.74 c 0,0.18836 -0.15164,0.34 -0.34,0.34 h -0.39 c -0.18836,0 -0.34,-0.15164 -0.34,-0.34 v -2.74 c 0,-0.18836 0.15164,-0.34 0.34,-0.34 z" />
      <path
         class="c"
         d="M86.26,314.83h-11.25c-.7,0-1.37-.29-1.85-.8-.48-.51-.72-1.2-.67-1.9l.98-13.55c.09-1.31,1.2-2.34,2.52-2.34h9.29c1.32,0,2.42,1.03,2.52,2.34l.98,13.55c.05,.7-.19,1.39-.67,1.9-.48,.51-1.15,.8-1.85,.8Z"
         id="path9292" />
    </g>
    <path
       id="line9296"
       class="h"
       style="fill:none;stroke:#ffffff;stroke-width:0.72px;stroke-linecap:round;stroke-miterlimit:10"
       d="M 74.150002,310.85001 H 87.120003" />
  </g>
  <g
     id="g9318">
    <g
       id="g9314">
      <path
         class="m"
         d="M110.51,314.83h-11.25c-.7,0-1.37-.29-1.85-.8-.48-.51-.72-1.2-.67-1.9l.98-13.55c.09-1.31,1.2-2.34,2.52-2.34h9.29c1.32,0,2.42,1.03,2.52,2.34l.98,13.55c.05,.7-.19,1.39-.67,1.9-.48,.51-1.15,.8-1.85,.8Z"
         id="path9300" />
      <path
         id="rect9302"
         class="k"
         style="fill:#ffffff"
         d="m 100.21,296.67001 h 0.39 c 0.18836,0 0.34,0.15164 0.34,0.34 v 2.74 c 0,0.18836 -0.15164,0.34 -0.34,0.34 h -0.39 c -0.18836,0 -0.339997,-0.15164 -0.339997,-0.34 v -2.74 c 0,-0.18836 0.151637,-0.34 0.339997,-0.34 z" />
      <path
         id="rect9304"
         class="k"
         style="fill:#ffffff"
         d="m 102.41,296.67001 h 0.39 c 0.18836,0 0.34,0.15164 0.34,0.34 v 3.38 c 0,0.18836 -0.15164,0.34 -0.34,0.34 h -0.39 c -0.18836,0 -0.34,-0.15164 -0.34,-0.34 v -3.38 c 0,-0.18836 0.15164,-0.34 0.34,-0.34 z" />
      <path
         id="rect9306"
         class="k"
         style="fill:#ffffff"
         d="m 106.81,296.67001 h 0.39 c 0.18836,0 0.34,0.15164 0.34,0.34 v 3.38 c 0,0.18836 -0.15164,0.34 -0.34,0.34 h -0.39 c -0.18836,0 -0.34,-0.15164 -0.34,-0.34 v -3.38 c 0,-0.18836 0.15164,-0.34 0.34,-0.34 z" />
      <path
         id="rect9308"
         class="k"
         style="fill:#ffffff"
         d="m 109.02,296.67001 h 0.39 c 0.18836,0 0.34,0.15164 0.34,0.34 v 2.74 c 0,0.18836 -0.15164,0.34 -0.34,0.34 h -0.39 c -0.18836,0 -0.34,-0.15164 -0.34,-0.34 v -2.74 c 0,-0.18836 0.15164,-0.34 0.34,-0.34 z" />
      <path
         id="rect9310"
         class="k"
         style="fill:#ffffff"
         d="M 104.61,296.67001 H 105 c 0.18836,0 0.34,0.15164 0.34,0.34 v 2.74 c 0,0.18836 -0.15164,0.34 -0.34,0.34 h -0.39 c -0.18836,0 -0.34,-0.15164 -0.34,-0.34 v -2.74 c 0,-0.18836 0.15164,-0.34 0.34,-0.34 z" />
      <path
         class="c"
         d="M110.51,314.83h-11.25c-.7,0-1.37-.29-1.85-.8-.48-.51-.72-1.2-.67-1.9l.98-13.55c.09-1.31,1.2-2.34,2.52-2.34h9.29c1.32,0,2.42,1.03,2.52,2.34l.98,13.55c.05,.7-.19,1.39-.67,1.9-.48,.51-1.15,.8-1.85,.8Z"
         id="path9312" />
    </g>
    <path
       id="line9316"
       class="h"
       style="fill:none;stroke:#ffffff;stroke-width:0.72px;stroke-linecap:round;stroke-miterlimit:10"
       d="M 98.400002,310.85001 H 111.37" />
  </g>
  <g
     id="g9338">
    <g
       id="g9334">
      <path
         class="m"
         d="M134.76,314.83h-11.25c-.7,0-1.37-.29-1.85-.8-.48-.51-.72-1.2-.67-1.9l.98-13.55c.09-1.31,1.2-2.34,2.52-2.34h9.29c1.32,0,2.42,1.03,2.52,2.34l.98,13.55c.05,.7-.19,1.39-.67,1.9-.48,.51-1.15,.8-1.85,.8Z"
         id="path9320" />
      <path
         id="rect9322"
         class="k"
         style="fill:#ffffff"
         d="m 124.46,296.67001 h 0.39 c 0.18836,0 0.34,0.15164 0.34,0.34 v 2.74 c 0,0.18836 -0.15164,0.34 -0.34,0.34 h -0.39 c -0.18836,0 -0.34,-0.15164 -0.34,-0.34 v -2.74 c 0,-0.18836 0.15164,-0.34 0.34,-0.34 z" />
      <path
         id="rect9324"
         class="k"
         style="fill:#ffffff"
         d="m 126.66,296.67001 h 0.39 c 0.18836,0 0.34,0.15164 0.34,0.34 v 3.38 c 0,0.18836 -0.15164,0.34 -0.34,0.34 h -0.39 c -0.18836,0 -0.34,-0.15164 -0.34,-0.34 v -3.38 c 0,-0.18836 0.15164,-0.34 0.34,-0.34 z" />
      <path
         id="rect9326"
         class="k"
         style="fill:#ffffff"
         d="m 131.06,296.67001 h 0.39 c 0.18836,0 0.34,0.15164 0.34,0.34 v 3.38 c 0,0.18836 -0.15164,0.34 -0.34,0.34 h -0.39 c -0.18836,0 -0.34,-0.15164 -0.34,-0.34 v -3.38 c 0,-0.18836 0.15164,-0.34 0.34,-0.34 z" />
      <path
         id="rect9328"
         class="k"
         style="fill:#ffffff"
         d="m 133.26,296.67001 h 0.39 c 0.18836,0 0.34,0.15164 0.34,0.34 v 2.74 c 0,0.18836 -0.15164,0.34 -0.34,0.34 h -0.39 c -0.18836,0 -0.34,-0.15164 -0.34,-0.34 v -2.74 c 0,-0.18836 0.15164,-0.34 0.34,-0.34 z" />
      <path
         id="rect9330"
         class="k"
         style="fill:#ffffff"
         d="m 128.86,296.67001 h 0.39 c 0.18836,0 0.34,0.15164 0.34,0.34 v 2.74 c 0,0.18836 -0.15164,0.34 -0.34,0.34 h -0.39 c -0.18836,0 -0.34,-0.15164 -0.34,-0.34 v -2.74 c 0,-0.18836 0.15164,-0.34 0.34,-0.34 z" />
      <path
         class="c"
         d="M134.76,314.83h-11.25c-.7,0-1.37-.29-1.85-.8-.48-.51-.72-1.2-.67-1.9l.98-13.55c.09-1.31,1.2-2.34,2.52-2.34h9.29c1.32,0,2.42,1.03,2.52,2.34l.98,13.55c.05,.7-.19,1.39-.67,1.9-.48,.51-1.15,.8-1.85,.8Z"
         id="path9332" />
    </g>
    <path
       id="line9336"
       class="h"
       style="fill:none;stroke:#ffffff;stroke-width:0.72px;stroke-linecap:round;stroke-miterlimit:10"
       d="m 122.65,310.85001 h 12.97" />
  </g>
  <g
     id="g9358">
    <g
       id="g9354">
      <path
         class="m"
         d="M159.01,314.83h-11.25c-.7,0-1.37-.29-1.85-.8-.48-.51-.72-1.2-.67-1.9l.98-13.55c.09-1.31,1.2-2.34,2.52-2.34h9.29c1.32,0,2.42,1.03,2.52,2.34l.98,13.55c.05,.7-.19,1.39-.67,1.9-.48,.51-1.15,.8-1.85,.8Z"
         id="path9340" />
      <path
         id="rect9342"
         class="k"
         style="fill:#ffffff"
         d="m 148.71,296.67001 h 0.39 c 0.18836,0 0.34,0.15164 0.34,0.34 v 2.74 c 0,0.18836 -0.15164,0.34 -0.34,0.34 h -0.39 c -0.18836,0 -0.34,-0.15164 -0.34,-0.34 v -2.74 c 0,-0.18836 0.15164,-0.34 0.34,-0.34 z" />
      <path
         id="rect9344"
         class="k"
         style="fill:#ffffff"
         d="m 150.91001,296.67001 h 0.39 c 0.18836,0 0.34,0.15164 0.34,0.34 v 3.38 c 0,0.18836 -0.15164,0.34 -0.34,0.34 h -0.39 c -0.18836,0 -0.34,-0.15164 -0.34,-0.34 v -3.38 c 0,-0.18836 0.15164,-0.34 0.34,-0.34 z" />
      <path
         id="rect9346"
         class="k"
         style="fill:#ffffff"
         d="m 155.31,296.67001 h 0.39 c 0.18836,0 0.34,0.15164 0.34,0.34 v 3.38 c 0,0.18836 -0.15164,0.34 -0.34,0.34 h -0.39 c -0.18836,0 -0.34,-0.15164 -0.34,-0.34 v -3.38 c 0,-0.18836 0.15164,-0.34 0.34,-0.34 z" />
      <path
         id="rect9348"
         class="k"
         style="fill:#ffffff"
         d="m 157.51,296.67001 h 0.39 c 0.18836,0 0.34,0.15164 0.34,0.34 v 2.74 c 0,0.18836 -0.15164,0.34 -0.34,0.34 h -0.39 c -0.18836,0 -0.34,-0.15164 -0.34,-0.34 v -2.74 c 0,-0.18836 0.15164,-0.34 0.34,-0.34 z" />
      <path
         id="rect9350"
         class="k"
         style="fill:#ffffff"
         d="m 153.11,296.67001 h 0.39 c 0.18836,0 0.34,0.15164 0.34,0.34 v 2.74 c 0,0.18836 -0.15164,0.34 -0.34,0.34 h -0.39 c -0.18836,0 -0.34,-0.15164 -0.34,-0.34 v -2.74 c 0,-0.18836 0.15164,-0.34 0.34,-0.34 z" />
      <path
         class="c"
         d="M159.01,314.83h-11.25c-.7,0-1.37-.29-1.85-.8-.48-.51-.72-1.2-.67-1.9l.98-13.55c.09-1.31,1.2-2.34,2.52-2.34h9.29c1.32,0,2.42,1.03,2.52,2.34l.98,13.55c.05,.7-.19,1.39-.67,1.9-.48,.51-1.15,.8-1.85,.8Z"
         id="path9352" />
    </g>
    <path
       id="line9356"
       class="h"
       style="fill:none;stroke:#ffffff;stroke-width:0.72px;stroke-linecap:round;stroke-miterlimit:10"
       d="M 146.89999,310.85001 H 159.87" />
  </g>
  <g
     id="g9378">
    <g
       id="g9374">
      <path
         class="m"
         d="M183.26,314.83h-11.25c-.7,0-1.37-.29-1.85-.8-.48-.51-.72-1.2-.67-1.9l.98-13.55c.09-1.31,1.2-2.34,2.52-2.34h9.29c1.32,0,2.42,1.03,2.52,2.34l.98,13.55c.05,.7-.19,1.39-.67,1.9-.48,.51-1.15,.8-1.85,.8Z"
         id="path9360" />
      <path
         id="rect9362"
         class="k"
         style="fill:#ffffff"
         d="m 172.96,296.67001 h 0.39 c 0.18836,0 0.34,0.15164 0.34,0.34 v 2.74 c 0,0.18836 -0.15164,0.34 -0.34,0.34 h -0.39 c -0.18836,0 -0.34,-0.15164 -0.34,-0.34 v -2.74 c 0,-0.18836 0.15164,-0.34 0.34,-0.34 z" />
      <path
         id="rect9364"
         class="k"
         style="fill:#ffffff"
         d="m 175.16001,296.67001 h 0.39 c 0.18836,0 0.34,0.15164 0.34,0.34 v 3.38 c 0,0.18836 -0.15164,0.34 -0.34,0.34 h -0.39 c -0.18836,0 -0.34,-0.15164 -0.34,-0.34 v -3.38 c 0,-0.18836 0.15164,-0.34 0.34,-0.34 z" />
      <path
         id="rect9366"
         class="k"
         style="fill:#ffffff"
         d="m 179.56,296.67001 h 0.39 c 0.18836,0 0.34,0.15164 0.34,0.34 v 3.38 c 0,0.18836 -0.15164,0.34 -0.34,0.34 h -0.39 c -0.18836,0 -0.34,-0.15164 -0.34,-0.34 v -3.38 c 0,-0.18836 0.15164,-0.34 0.34,-0.34 z" />
      <path
         id="rect9368"
         class="k"
         style="fill:#ffffff"
         d="m 181.76,296.67001 h 0.39 c 0.18836,0 0.34,0.15164 0.34,0.34 v 2.74 c 0,0.18836 -0.15164,0.34 -0.34,0.34 h -0.39 c -0.18836,0 -0.34,-0.15164 -0.34,-0.34 v -2.74 c 0,-0.18836 0.15164,-0.34 0.34,-0.34 z" />
      <path
         id="rect9370"
         class="k"
         style="fill:#ffffff"
         d="m 177.36,296.67001 h 0.39 c 0.18836,0 0.34,0.15164 0.34,0.34 v 2.74 c 0,0.18836 -0.15164,0.34 -0.34,0.34 h -0.39 c -0.18836,0 -0.34,-0.15164 -0.34,-0.34 v -2.74 c 0,-0.18836 0.15164,-0.34 0.34,-0.34 z" />
      <path
         class="c"
         d="M183.26,314.83h-11.25c-.7,0-1.37-.29-1.85-.8-.48-.51-.72-1.2-.67-1.9l.98-13.55c.09-1.31,1.2-2.34,2.52-2.34h9.29c1.32,0,2.42,1.03,2.52,2.34l.98,13.55c.05,.7-.19,1.39-.67,1.9-.48,.51-1.15,.8-1.85,.8Z"
         id="path9372" />
    </g>
    <path
       id="line9376"
       class="h"
       style="fill:none;stroke:#ffffff;stroke-width:0.72px;stroke-linecap:round;stroke-miterlimit:10"
       d="M 171.14999,310.85001 H 184.12" />
  </g>
  <g
     id="g9398">
    <g
       id="g9394">
      <path
         class="m"
         d="M207.51,314.83h-11.25c-.7,0-1.37-.29-1.85-.8-.48-.51-.72-1.2-.67-1.9l.98-13.55c.09-1.31,1.2-2.34,2.52-2.34h9.29c1.32,0,2.42,1.03,2.52,2.34l.98,13.55c.05,.7-.19,1.39-.67,1.9-.48,.51-1.15,.8-1.85,.8Z"
         id="path9380" />
      <path
         id="rect9382"
         class="k"
         style="fill:#ffffff"
         d="m 197.21,296.67001 h 0.39 c 0.18836,0 0.34,0.15164 0.34,0.34 v 2.74 c 0,0.18836 -0.15164,0.34 -0.34,0.34 h -0.39 c -0.18836,0 -0.34,-0.15164 -0.34,-0.34 v -2.74 c 0,-0.18836 0.15164,-0.34 0.34,-0.34 z" />
      <path
         id="rect9384"
         class="k"
         style="fill:#ffffff"
         d="m 199.41001,296.67001 h 0.39 c 0.18836,0 0.34,0.15164 0.34,0.34 v 3.38 c 0,0.18836 -0.15164,0.34 -0.34,0.34 h -0.39 c -0.18836,0 -0.34,-0.15164 -0.34,-0.34 v -3.38 c 0,-0.18836 0.15164,-0.34 0.34,-0.34 z" />
      <path
         id="rect9386"
         class="k"
         style="fill:#ffffff"
         d="m 203.81,296.67001 h 0.39 c 0.18836,0 0.34,0.15164 0.34,0.34 v 3.38 c 0,0.18836 -0.15164,0.34 -0.34,0.34 h -0.39 c -0.18836,0 -0.34,-0.15164 -0.34,-0.34 v -3.38 c 0,-0.18836 0.15164,-0.34 0.34,-0.34 z" />
      <path
         id="rect9388"
         class="k"
         style="fill:#ffffff"
         d="m 206.01,296.67001 h 0.39 c 0.18836,0 0.34,0.15164 0.34,0.34 v 2.74 c 0,0.18836 -0.15164,0.34 -0.34,0.34 h -0.39 c -0.18836,0 -0.34,-0.15164 -0.34,-0.34 v -2.74 c 0,-0.18836 0.15164,-0.34 0.34,-0.34 z" />
      <path
         id="rect9390"
         class="k"
         style="fill:#ffffff"
         d="M 201.61,296.67001 H 202 c 0.18836,0 0.34,0.15164 0.34,0.34 v 2.74 c 0,0.18836 -0.15164,0.34 -0.34,0.34 h -0.39 c -0.18836,0 -0.34,-0.15164 -0.34,-0.34 v -2.74 c 0,-0.18836 0.15164,-0.34 0.34,-0.34 z" />
      <path
         class="c"
         d="M207.51,314.83h-11.25c-.7,0-1.37-.29-1.85-.8-.48-.51-.72-1.2-.67-1.9l.98-13.55c.09-1.31,1.2-2.34,2.52-2.34h9.29c1.32,0,2.42,1.03,2.52,2.34l.98,13.55c.05,.7-.19,1.39-.67,1.9-.48,.51-1.15,.8-1.85,.8Z"
         id="path9392" />
    </g>
    <path
       id="line9396"
       class="h"
       style="fill:none;stroke:#ffffff;stroke-width:0.72px;stroke-linecap:round;stroke-miterlimit:10"
       d="M 195.39999,310.85001 H 208.36" />
  </g>
  <g
     id="g9418">
    <g
       id="g9414">
      <path
         class="m"
         d="M231.76,314.83h-11.25c-.7,0-1.37-.29-1.85-.8-.48-.51-.72-1.2-.67-1.9l.98-13.55c.09-1.31,1.2-2.34,2.52-2.34h9.29c1.32,0,2.42,1.03,2.52,2.34l.98,13.55c.05,.7-.19,1.39-.67,1.9-.48,.51-1.15,.8-1.85,.8Z"
         id="path9400" />
      <path
         id="rect9402"
         class="k"
         style="fill:#ffffff"
         d="m 221.46,296.67001 h 0.39 c 0.18836,0 0.34,0.15164 0.34,0.34 v 2.74 c 0,0.18836 -0.15164,0.34 -0.34,0.34 h -0.39 c -0.18836,0 -0.34,-0.15164 -0.34,-0.34 v -2.74 c 0,-0.18836 0.15164,-0.34 0.34,-0.34 z" />
      <path
         id="rect9404"
         class="k"
         style="fill:#ffffff"
         d="m 223.66001,296.67001 h 0.39 c 0.18836,0 0.34,0.15164 0.34,0.34 v 3.38 c 0,0.18836 -0.15164,0.34 -0.34,0.34 h -0.39 c -0.18836,0 -0.34,-0.15164 -0.34,-0.34 v -3.38 c 0,-0.18836 0.15164,-0.34 0.34,-0.34 z" />
      <path
         id="rect9406"
         class="k"
         style="fill:#ffffff"
         d="m 228.06,296.67001 h 0.39 c 0.18836,0 0.34,0.15164 0.34,0.34 v 3.38 c 0,0.18836 -0.15164,0.34 -0.34,0.34 h -0.39 c -0.18836,0 -0.34,-0.15164 -0.34,-0.34 v -3.38 c 0,-0.18836 0.15164,-0.34 0.34,-0.34 z" />
      <path
         id="rect9408"
         class="k"
         style="fill:#ffffff"
         d="m 230.26,296.67001 h 0.39 c 0.18836,0 0.34,0.15164 0.34,0.34 v 2.74 c 0,0.18836 -0.15164,0.34 -0.34,0.34 h -0.39 c -0.18836,0 -0.34,-0.15164 -0.34,-0.34 v -2.74 c 0,-0.18836 0.15164,-0.34 0.34,-0.34 z" />
      <path
         id="rect9410"
         class="k"
         style="fill:#ffffff"
         d="m 225.86,296.67001 h 0.39 c 0.18836,0 0.34,0.15164 0.34,0.34 v 2.74 c 0,0.18836 -0.15164,0.34 -0.34,0.34 h -0.39 c -0.18836,0 -0.34,-0.15164 -0.34,-0.34 v -2.74 c 0,-0.18836 0.15164,-0.34 0.34,-0.34 z" />
      <path
         class="c"
         d="M231.76,314.83h-11.25c-.7,0-1.37-.29-1.85-.8-.48-.51-.72-1.2-.67-1.9l.98-13.55c.09-1.31,1.2-2.34,2.52-2.34h9.29c1.32,0,2.42,1.03,2.52,2.34l.98,13.55c.05,.7-.19,1.39-.67,1.9-.48,.51-1.15,.8-1.85,.8Z"
         id="path9412" />
    </g>
    <path
       id="line9416"
       class="h"
       style="fill:none;stroke:#ffffff;stroke-width:0.72px;stroke-linecap:round;stroke-miterlimit:10"
       d="m 219.91,310.85001 h 12.96" />
  </g>
  <g
     id="g9438">
    <g
       id="g9434">
      <path
         class="m"
         d="M444.56,314.83h-11.25c-.7,0-1.37-.29-1.85-.8-.48-.51-.72-1.2-.67-1.9l.98-13.55c.09-1.31,1.2-2.34,2.52-2.34h9.29c1.32,0,2.42,1.03,2.52,2.34l.98,13.55c.05,.7-.19,1.39-.67,1.9-.48,.51-1.15,.8-1.85,.8Z"
         id="path9420" />
      <path
         id="rect9422"
         class="k"
         style="fill:#ffffff"
         d="m 434.26001,296.67001 h 0.39 c 0.18836,0 0.34,0.15164 0.34,0.34 v 2.74 c 0,0.18836 -0.15164,0.34 -0.34,0.34 h -0.39 c -0.18836,0 -0.34,-0.15164 -0.34,-0.34 v -2.74 c 0,-0.18836 0.15164,-0.34 0.34,-0.34 z" />
      <path
         id="rect9424"
         class="k"
         style="fill:#ffffff"
         d="m 436.46,296.67001 h 0.39 c 0.18836,0 0.34,0.15164 0.34,0.34 v 3.38 c 0,0.18836 -0.15164,0.34 -0.34,0.34 h -0.39 c -0.18836,0 -0.34,-0.15164 -0.34,-0.34 v -3.38 c 0,-0.18836 0.15164,-0.34 0.34,-0.34 z" />
      <path
         id="rect9426"
         class="k"
         style="fill:#ffffff"
         d="m 440.85999,296.67001 h 0.39 c 0.18836,0 0.34,0.15164 0.34,0.34 v 3.38 c 0,0.18836 -0.15164,0.34 -0.34,0.34 h -0.39 c -0.18836,0 -0.34,-0.15164 -0.34,-0.34 v -3.38 c 0,-0.18836 0.15164,-0.34 0.34,-0.34 z" />
      <path
         id="rect9428"
         class="k"
         style="fill:#ffffff"
         d="m 443.06,296.67001 h 0.39 c 0.18836,0 0.34,0.15164 0.34,0.34 v 2.74 c 0,0.18836 -0.15164,0.34 -0.34,0.34 h -0.39 c -0.18836,0 -0.34,-0.15164 -0.34,-0.34 v -2.74 c 0,-0.18836 0.15164,-0.34 0.34,-0.34 z" />
      <path
         id="rect9430"
         class="k"
         style="fill:#ffffff"
         d="m 438.66001,296.67001 h 0.39 c 0.18836,0 0.34,0.15164 0.34,0.34 v 2.74 c 0,0.18836 -0.15164,0.34 -0.34,0.34 h -0.39 c -0.18836,0 -0.34,-0.15164 -0.34,-0.34 v -2.74 c 0,-0.18836 0.15164,-0.34 0.34,-0.34 z" />
      <path
         class="c"
         d="M444.56,314.83h-11.25c-.7,0-1.37-.29-1.85-.8-.48-.51-.72-1.2-.67-1.9l.98-13.55c.09-1.31,1.2-2.34,2.52-2.34h9.29c1.32,0,2.42,1.03,2.52,2.34l.98,13.55c.05,.7-.19,1.39-.67,1.9-.48,.51-1.15,.8-1.85,.8Z"
         id="path9432" />
    </g>
    <path
       id="line9436"
       class="h"
       style="fill:none;stroke:#ffffff;stroke-width:0.72px;stroke-linecap:round;stroke-miterlimit:10"
       d="m 432.37,310.85001 h 12.97" />
  </g>
  <g
     id="g9458">
    <g
       id="g9454">
      <path
         class="m"
         d="M468.81,314.83h-11.25c-.7,0-1.37-.29-1.85-.8-.48-.51-.72-1.2-.67-1.9l.98-13.55c.09-1.31,1.2-2.34,2.52-2.34h9.29c1.32,0,2.42,1.03,2.52,2.34l.98,13.55c.05,.7-.19,1.39-.67,1.9-.48,.51-1.15,.8-1.85,.8Z"
         id="path9440" />
      <path
         id="rect9442"
         class="k"
         style="fill:#ffffff"
         d="m 458.51001,296.67001 h 0.39 c 0.18836,0 0.34,0.15164 0.34,0.34 v 2.74 c 0,0.18836 -0.15164,0.34 -0.34,0.34 h -0.39 c -0.18836,0 -0.34,-0.15164 -0.34,-0.34 v -2.74 c 0,-0.18836 0.15164,-0.34 0.34,-0.34 z" />
      <path
         id="rect9444"
         class="k"
         style="fill:#ffffff"
         d="m 460.71,296.67001 h 0.39 c 0.18836,0 0.34,0.15164 0.34,0.34 v 3.38 c 0,0.18836 -0.15164,0.34 -0.34,0.34 h -0.39 c -0.18836,0 -0.34,-0.15164 -0.34,-0.34 v -3.38 c 0,-0.18836 0.15164,-0.34 0.34,-0.34 z" />
      <path
         id="rect9446"
         class="k"
         style="fill:#ffffff"
         d="m 465.10999,296.67001 h 0.39 c 0.18836,0 0.34,0.15164 0.34,0.34 v 3.38 c 0,0.18836 -0.15164,0.34 -0.34,0.34 h -0.39 c -0.18836,0 -0.34,-0.15164 -0.34,-0.34 v -3.38 c 0,-0.18836 0.15164,-0.34 0.34,-0.34 z" />
      <path
         id="rect9448"
         class="k"
         style="fill:#ffffff"
         d="m 467.31,296.67001 h 0.39 c 0.18836,0 0.34,0.15164 0.34,0.34 v 2.74 c 0,0.18836 -0.15164,0.34 -0.34,0.34 h -0.39 c -0.18836,0 -0.34,-0.15164 -0.34,-0.34 v -2.74 c 0,-0.18836 0.15164,-0.34 0.34,-0.34 z" />
      <path
         id="rect9450"
         class="k"
         style="fill:#ffffff"
         d="m 462.91001,296.67001 h 0.39 c 0.18836,0 0.34,0.15164 0.34,0.34 v 2.74 c 0,0.18836 -0.15164,0.34 -0.34,0.34 h -0.39 c -0.18836,0 -0.34,-0.15164 -0.34,-0.34 v -2.74 c 0,-0.18836 0.15164,-0.34 0.34,-0.34 z" />
      <path
         class="c"
         d="M468.81,314.83h-11.25c-.7,0-1.37-.29-1.85-.8-.48-.51-.72-1.2-.67-1.9l.98-13.55c.09-1.31,1.2-2.34,2.52-2.34h9.29c1.32,0,2.42,1.03,2.52,2.34l.98,13.55c.05,.7-.19,1.39-.67,1.9-.48,.51-1.15,.8-1.85,.8Z"
         id="path9452" />
    </g>
    <path
       id="line9456"
       class="h"
       style="fill:none;stroke:#ffffff;stroke-width:0.72px;stroke-linecap:round;stroke-miterlimit:10"
       d="M 456.70001,310.85001 H 469.66" />
  </g>
  <g
     id="g9478">
    <g
       id="g9474">
      <path
         class="m"
         d="M493.06,314.83h-11.25c-.7,0-1.37-.29-1.85-.8-.48-.51-.72-1.2-.67-1.9l.98-13.55c.09-1.31,1.2-2.34,2.52-2.34h9.29c1.32,0,2.42,1.03,2.52,2.34l.98,13.55c.05,.7-.19,1.39-.67,1.9-.48,.51-1.15,.8-1.85,.8Z"
         id="path9460" />
      <path
         id="rect9462"
         class="k"
         style="fill:#ffffff"
         d="m 482.76001,296.67001 h 0.39 c 0.18836,0 0.34,0.15164 0.34,0.34 v 2.74 c 0,0.18836 -0.15164,0.34 -0.34,0.34 h -0.39 c -0.18836,0 -0.34,-0.15164 -0.34,-0.34 v -2.74 c 0,-0.18836 0.15164,-0.34 0.34,-0.34 z" />
      <path
         id="rect9464"
         class="k"
         style="fill:#ffffff"
         d="m 484.96,296.67001 h 0.39 c 0.18836,0 0.34,0.15164 0.34,0.34 v 3.38 c 0,0.18836 -0.15164,0.34 -0.34,0.34 h -0.39 c -0.18836,0 -0.34,-0.15164 -0.34,-0.34 v -3.38 c 0,-0.18836 0.15164,-0.34 0.34,-0.34 z" />
      <path
         id="rect9466"
         class="k"
         style="fill:#ffffff"
         d="m 489.35999,296.67001 h 0.39 c 0.18836,0 0.34,0.15164 0.34,0.34 v 3.38 c 0,0.18836 -0.15164,0.34 -0.34,0.34 h -0.39 c -0.18836,0 -0.34,-0.15164 -0.34,-0.34 v -3.38 c 0,-0.18836 0.15164,-0.34 0.34,-0.34 z" />
      <path
         id="rect9468"
         class="k"
         style="fill:#ffffff"
         d="m 491.56,296.67001 h 0.39 c 0.18836,0 0.34,0.15164 0.34,0.34 v 2.74 c 0,0.18836 -0.15164,0.34 -0.34,0.34 h -0.39 c -0.18836,0 -0.34,-0.15164 -0.34,-0.34 v -2.74 c 0,-0.18836 0.15164,-0.34 0.34,-0.34 z" />
      <path
         id="rect9470"
         class="k"
         style="fill:#ffffff"
         d="m 487.16001,296.67001 h 0.39 c 0.18836,0 0.34,0.15164 0.34,0.34 v 2.74 c 0,0.18836 -0.15164,0.34 -0.34,0.34 h -0.39 c -0.18836,0 -0.34,-0.15164 -0.34,-0.34 v -2.74 c 0,-0.18836 0.15164,-0.34 0.34,-0.34 z" />
      <path
         class="c"
         d="M493.06,314.83h-11.25c-.7,0-1.37-.29-1.85-.8-.48-.51-.72-1.2-.67-1.9l.98-13.55c.09-1.31,1.2-2.34,2.52-2.34h9.29c1.32,0,2.42,1.03,2.52,2.34l.98,13.55c.05,.7-.19,1.39-.67,1.9-.48,.51-1.15,.8-1.85,.8Z"
         id="path9472" />
    </g>
    <path
       id="line9476"
       class="h"
       style="fill:none;stroke:#ffffff;stroke-width:0.72px;stroke-linecap:round;stroke-miterlimit:10"
       d="M 480.95001,310.85001 H 493.91" />
  </g>
  <g
     id="g9498">
    <g
       id="g9494">
      <path
         class="m"
         d="M517.31,314.83h-11.25c-.7,0-1.37-.29-1.85-.8-.48-.51-.72-1.2-.67-1.9l.98-13.55c.09-1.31,1.2-2.34,2.52-2.34h9.29c1.32,0,2.42,1.03,2.52,2.34l.98,13.55c.05,.7-.19,1.39-.67,1.9-.48,.51-1.15,.8-1.85,.8Z"
         id="path9480" />
      <path
         id="rect9482"
         class="k"
         style="fill:#ffffff"
         d="m 507.01001,296.67001 h 0.39 c 0.18836,0 0.34,0.15164 0.34,0.34 v 2.74 c 0,0.18836 -0.15164,0.34 -0.34,0.34 h -0.39 c -0.18836,0 -0.34,-0.15164 -0.34,-0.34 v -2.74 c 0,-0.18836 0.15164,-0.34 0.34,-0.34 z" />
      <path
         id="rect9484"
         class="k"
         style="fill:#ffffff"
         d="m 509.21,296.67001 h 0.39 c 0.18836,0 0.34,0.15164 0.34,0.34 v 3.38 c 0,0.18836 -0.15164,0.34 -0.34,0.34 h -0.39 c -0.18836,0 -0.34,-0.15164 -0.34,-0.34 v -3.38 c 0,-0.18836 0.15164,-0.34 0.34,-0.34 z" />
      <path
         id="rect9486"
         class="k"
         style="fill:#ffffff"
         d="m 513.61002,296.67001 h 0.39 c 0.18836,0 0.34,0.15164 0.34,0.34 v 3.38 c 0,0.18836 -0.15164,0.34 -0.34,0.34 h -0.39 c -0.18836,0 -0.34,-0.15164 -0.34,-0.34 v -3.38 c 0,-0.18836 0.15164,-0.34 0.34,-0.34 z" />
      <path
         id="rect9488"
         class="k"
         style="fill:#ffffff"
         d="m 515.80997,296.67001 h 0.39 c 0.18836,0 0.34,0.15164 0.34,0.34 v 2.74 c 0,0.18836 -0.15164,0.34 -0.34,0.34 h -0.39 c -0.18836,0 -0.34,-0.15164 -0.34,-0.34 v -2.74 c 0,-0.18836 0.15164,-0.34 0.34,-0.34 z" />
      <path
         id="rect9490"
         class="k"
         style="fill:#ffffff"
         d="m 511.41001,296.67001 h 0.39 c 0.18836,0 0.34,0.15164 0.34,0.34 v 2.74 c 0,0.18836 -0.15164,0.34 -0.34,0.34 h -0.39 c -0.18836,0 -0.34,-0.15164 -0.34,-0.34 v -2.74 c 0,-0.18836 0.15164,-0.34 0.34,-0.34 z" />
      <path
         class="c"
         d="M517.31,314.83h-11.25c-.7,0-1.37-.29-1.85-.8-.48-.51-.72-1.2-.67-1.9l.98-13.55c.09-1.31,1.2-2.34,2.52-2.34h9.29c1.32,0,2.42,1.03,2.52,2.34l.98,13.55c.05,.7-.19,1.39-.67,1.9-.48,.51-1.15,.8-1.85,.8Z"
         id="path9492" />
    </g>
    <path
       id="line9496"
       class="h"
       style="fill:none;stroke:#ffffff;stroke-width:0.72px;stroke-linecap:round;stroke-miterlimit:10"
       d="m 505.20001,310.85001 h 12.95996" />
  </g>
  <g
     id="g9518">
    <g
       id="g9514">
      <path
         class="m"
         d="M541.56,314.83h-11.25c-.7,0-1.37-.29-1.85-.8-.48-.51-.72-1.2-.67-1.9l.98-13.55c.09-1.31,1.2-2.34,2.52-2.34h9.29c1.32,0,2.42,1.03,2.52,2.34l.98,13.55c.05,.7-.19,1.39-.67,1.9-.48,.51-1.15,.8-1.85,.8Z"
         id="path9500" />
      <path
         id="rect9502"
         class="k"
         style="fill:#ffffff"
         d="m 531.25998,296.67001 h 0.39 c 0.18836,0 0.34,0.15164 0.34,0.34 v 2.74 c 0,0.18836 -0.15164,0.34 -0.34,0.34 h -0.39 c -0.18836,0 -0.34,-0.15164 -0.34,-0.34 v -2.74 c 0,-0.18836 0.15164,-0.34 0.34,-0.34 z" />
      <path
         id="rect9504"
         class="k"
         style="fill:#ffffff"
         d="m 533.46,296.67001 h 0.39 c 0.18836,0 0.34,0.15164 0.34,0.34 v 3.38 c 0,0.18836 -0.15164,0.34 -0.34,0.34 h -0.39 c -0.18836,0 -0.34,-0.15164 -0.34,-0.34 v -3.38 c 0,-0.18836 0.15164,-0.34 0.34,-0.34 z" />
      <path
         id="rect9506"
         class="k"
         style="fill:#ffffff"
         d="m 537.86002,296.67001 h 0.39 c 0.18836,0 0.34,0.15164 0.34,0.34 v 3.38 c 0,0.18836 -0.15164,0.34 -0.34,0.34 h -0.39 c -0.18836,0 -0.34,-0.15164 -0.34,-0.34 v -3.38 c 0,-0.18836 0.15164,-0.34 0.34,-0.34 z" />
      <path
         id="rect9508"
         class="k"
         style="fill:#ffffff"
         d="m 540.05997,296.67001 h 0.39 c 0.18836,0 0.34,0.15164 0.34,0.34 v 2.74 c 0,0.18836 -0.15164,0.34 -0.34,0.34 h -0.39 c -0.18836,0 -0.34,-0.15164 -0.34,-0.34 v -2.74 c 0,-0.18836 0.15164,-0.34 0.34,-0.34 z" />
      <path
         id="rect9510"
         class="k"
         style="fill:#ffffff"
         d="m 535.66001,296.67001 h 0.39 c 0.18836,0 0.34,0.15164 0.34,0.34 v 2.74 c 0,0.18836 -0.15164,0.34 -0.34,0.34 h -0.39 c -0.18836,0 -0.34,-0.15164 -0.34,-0.34 v -2.74 c 0,-0.18836 0.15164,-0.34 0.34,-0.34 z" />
      <path
         class="c"
         d="M541.56,314.83h-11.25c-.7,0-1.37-.29-1.85-.8-.48-.51-.72-1.2-.67-1.9l.98-13.55c.09-1.31,1.2-2.34,2.52-2.34h9.29c1.32,0,2.42,1.03,2.52,2.34l.98,13.55c.05,.7-.19,1.39-.67,1.9-.48,.51-1.15,.8-1.85,.8Z"
         id="path9512" />
    </g>
    <path
       id="line9516"
       class="h"
       style="fill:none;stroke:#ffffff;stroke-width:0.72px;stroke-linecap:round;stroke-miterlimit:10"
       d="m 529.45001,310.85001 h 12.95996" />
  </g>
  <g
     id="g9538">
    <g
       id="g9534">
      <path
         class="m"
         d="M565.81,314.83h-11.25c-.7,0-1.37-.29-1.85-.8-.48-.51-.72-1.2-.67-1.9l.98-13.55c.09-1.31,1.2-2.34,2.52-2.34h9.29c1.32,0,2.42,1.03,2.52,2.34l.98,13.55c.05,.7-.19,1.39-.67,1.9-.48,.51-1.15,.8-1.85,.8Z"
         id="path9520" />
      <path
         id="rect9522"
         class="k"
         style="fill:#ffffff"
         d="m 555.50998,296.67001 h 0.39 c 0.18836,0 0.34,0.15164 0.34,0.34 v 2.74 c 0,0.18836 -0.15164,0.34 -0.34,0.34 h -0.39 c -0.18836,0 -0.34,-0.15164 -0.34,-0.34 v -2.74 c 0,-0.18836 0.15164,-0.34 0.34,-0.34 z" />
      <path
         id="rect9524"
         class="k"
         style="fill:#ffffff"
         d="m 557.71,296.67001 h 0.39 c 0.18836,0 0.34,0.15164 0.34,0.34 v 3.38 c 0,0.18836 -0.15164,0.34 -0.34,0.34 h -0.39 c -0.18836,0 -0.34,-0.15164 -0.34,-0.34 v -3.38 c 0,-0.18836 0.15164,-0.34 0.34,-0.34 z" />
      <path
         id="rect9526"
         class="k"
         style="fill:#ffffff"
         d="m 562.11002,296.67001 h 0.39 c 0.18836,0 0.34,0.15164 0.34,0.34 v 3.38 c 0,0.18836 -0.15164,0.34 -0.34,0.34 h -0.39 c -0.18836,0 -0.34,-0.15164 -0.34,-0.34 v -3.38 c 0,-0.18836 0.15164,-0.34 0.34,-0.34 z" />
      <path
         id="rect9528"
         class="k"
         style="fill:#ffffff"
         d="m 564.30997,296.67001 h 0.39 c 0.18836,0 0.34,0.15164 0.34,0.34 v 2.74 c 0,0.18836 -0.15164,0.34 -0.34,0.34 h -0.39 c -0.18836,0 -0.34,-0.15164 -0.34,-0.34 v -2.74 c 0,-0.18836 0.15164,-0.34 0.34,-0.34 z" />
      <path
         id="rect9530"
         class="k"
         style="fill:#ffffff"
         d="m 559.91001,296.67001 h 0.39 c 0.18836,0 0.34,0.15164 0.34,0.34 v 2.74 c 0,0.18836 -0.15164,0.34 -0.34,0.34 h -0.39 c -0.18836,0 -0.34,-0.15164 -0.34,-0.34 v -2.74 c 0,-0.18836 0.15164,-0.34 0.34,-0.34 z" />
      <path
         class="c"
         d="M565.81,314.83h-11.25c-.7,0-1.37-.29-1.85-.8-.48-.51-.72-1.2-.67-1.9l.98-13.55c.09-1.31,1.2-2.34,2.52-2.34h9.29c1.32,0,2.42,1.03,2.52,2.34l.98,13.55c.05,.7-.19,1.39-.67,1.9-.48,.51-1.15,.8-1.85,.8Z"
         id="path9532" />
    </g>
    <path
       id="line9536"
       class="h"
       style="fill:none;stroke:#ffffff;stroke-width:0.72px;stroke-linecap:round;stroke-miterlimit:10"
       d="m 553.70001,310.85001 h 12.95996" />
  </g>
  <g
     id="g9558">
    <g
       id="g9554">
      <path
         class="m"
         d="M590.05,314.83h-11.25c-.7,0-1.37-.29-1.85-.8-.48-.51-.72-1.2-.67-1.9l.98-13.55c.09-1.31,1.2-2.34,2.52-2.34h9.29c1.32,0,2.42,1.03,2.52,2.34l.98,13.55c.05,.7-.19,1.39-.67,1.9-.48,.51-1.15,.8-1.85,.8Z"
         id="path9540" />
      <path
         id="rect9542"
         class="k"
         style="fill:#ffffff"
         d="m 579.75998,296.67001 h 0.39 c 0.18836,0 0.34,0.15164 0.34,0.34 v 2.74 c 0,0.18836 -0.15164,0.34 -0.34,0.34 h -0.39 c -0.18836,0 -0.34,-0.15164 -0.34,-0.34 v -2.74 c 0,-0.18836 0.15164,-0.34 0.34,-0.34 z" />
      <path
         id="rect9544"
         class="k"
         style="fill:#ffffff"
         d="m 581.96,296.67001 h 0.39 c 0.18836,0 0.34,0.15164 0.34,0.34 v 3.38 c 0,0.18836 -0.15164,0.34 -0.34,0.34 h -0.39 c -0.18836,0 -0.34,-0.15164 -0.34,-0.34 v -3.38 c 0,-0.18836 0.15164,-0.34 0.34,-0.34 z" />
      <path
         id="rect9546"
         class="k"
         style="fill:#ffffff"
         d="m 586.36002,296.67001 h 0.39 c 0.18836,0 0.34,0.15164 0.34,0.34 v 3.38 c 0,0.18836 -0.15164,0.34 -0.34,0.34 h -0.39 c -0.18836,0 -0.34,-0.15164 -0.34,-0.34 v -3.38 c 0,-0.18836 0.15164,-0.34 0.34,-0.34 z" />
      <path
         id="rect9548"
         class="k"
         style="fill:#ffffff"
         d="m 588.55997,296.67001 h 0.39 c 0.18836,0 0.34,0.15164 0.34,0.34 v 2.74 c 0,0.18836 -0.15164,0.34 -0.34,0.34 h -0.39 c -0.18836,0 -0.34,-0.15164 -0.34,-0.34 v -2.74 c 0,-0.18836 0.15164,-0.34 0.34,-0.34 z" />
      <path
         id="rect9550"
         class="k"
         style="fill:#ffffff"
         d="m 584.16001,296.67001 h 0.39 c 0.18836,0 0.34,0.15164 0.34,0.34 v 2.74 c 0,0.18836 -0.15164,0.34 -0.34,0.34 h -0.39 c -0.18836,0 -0.34,-0.15164 -0.34,-0.34 v -2.74 c 0,-0.18836 0.15164,-0.34 0.34,-0.34 z" />
      <path
         class="c"
         d="M590.05,314.83h-11.25c-.7,0-1.37-.29-1.85-.8-.48-.51-.72-1.2-.67-1.9l.98-13.55c.09-1.31,1.2-2.34,2.52-2.34h9.29c1.32,0,2.42,1.03,2.52,2.34l.98,13.55c.05,.7-.19,1.39-.67,1.9-.48,.51-1.15,.8-1.85,.8Z"
         id="path9552" />
    </g>
    <path
       id="line9556"
       class="h"
       style="fill:none;stroke:#ffffff;stroke-width:0.72px;stroke-linecap:round;stroke-miterlimit:10"
       d="m 577.95001,310.85001 h 12.95996" />
  </g>
  <g
     id="g9578">
    <g
       id="g9574">
      <path
         class="m"
         d="M614.3,314.83h-11.25c-.7,0-1.37-.29-1.85-.8-.48-.51-.72-1.2-.67-1.9l.98-13.55c.09-1.31,1.2-2.34,2.52-2.34h9.29c1.32,0,2.42,1.03,2.52,2.34l.98,13.55c.05,.7-.19,1.39-.67,1.9-.48,.51-1.15,.8-1.85,.8Z"
         id="path9560" />
      <path
         id="rect9562"
         class="k"
         style="fill:#ffffff"
         d="m 604.00998,296.67001 h 0.39 c 0.18836,0 0.34,0.15164 0.34,0.34 v 2.74 c 0,0.18836 -0.15164,0.34 -0.34,0.34 h -0.39 c -0.18836,0 -0.34,-0.15164 -0.34,-0.34 v -2.74 c 0,-0.18836 0.15164,-0.34 0.34,-0.34 z" />
      <path
         id="rect9564"
         class="k"
         style="fill:#ffffff"
         d="m 606.21,296.67001 h 0.39 c 0.18836,0 0.34,0.15164 0.34,0.34 v 3.38 c 0,0.18836 -0.15164,0.34 -0.34,0.34 h -0.39 c -0.18836,0 -0.34,-0.15164 -0.34,-0.34 v -3.38 c 0,-0.18836 0.15164,-0.34 0.34,-0.34 z" />
      <path
         id="rect9566"
         class="k"
         style="fill:#ffffff"
         d="m 610.61002,296.67001 h 0.39 c 0.18836,0 0.34,0.15164 0.34,0.34 v 3.38 c 0,0.18836 -0.15164,0.34 -0.34,0.34 h -0.39 c -0.18836,0 -0.34,-0.15164 -0.34,-0.34 v -3.38 c 0,-0.18836 0.15164,-0.34 0.34,-0.34 z" />
      <path
         id="rect9568"
         class="k"
         style="fill:#ffffff"
         d="m 612.80997,296.67001 h 0.39 c 0.18836,0 0.34,0.15164 0.34,0.34 v 2.74 c 0,0.18836 -0.15164,0.34 -0.34,0.34 h -0.39 c -0.18836,0 -0.34,-0.15164 -0.34,-0.34 v -2.74 c 0,-0.18836 0.15164,-0.34 0.34,-0.34 z" />
      <path
         id="rect9570"
         class="k"
         style="fill:#ffffff"
         d="m 608.41001,296.67001 h 0.39 c 0.18836,0 0.34,0.15164 0.34,0.34 v 2.74 c 0,0.18836 -0.15164,0.34 -0.34,0.34 h -0.39 c -0.18836,0 -0.34,-0.15164 -0.34,-0.34 v -2.74 c 0,-0.18836 0.15164,-0.34 0.34,-0.34 z" />
      <path
         class="c"
         d="M614.3,314.83h-11.25c-.7,0-1.37-.29-1.85-.8-.48-.51-.72-1.2-.67-1.9l.98-13.55c.09-1.31,1.2-2.34,2.52-2.34h9.29c1.32,0,2.42,1.03,2.52,2.34l.98,13.55c.05,.7-.19,1.39-.67,1.9-.48,.51-1.15,.8-1.85,.8Z"
         id="path9572" />
    </g>
    <path
       id="line9576"
       class="h"
       style="fill:none;stroke:#ffffff;stroke-width:0.72px;stroke-linecap:round;stroke-miterlimit:10"
       d="m 602.46002,310.85001 h 12.95996" />
  </g>
  <path
     id="polyline9580"
     class="d"
     style="fill:none;stroke:#1b1717;stroke-width:1.47px;stroke-miterlimit:10"
     d="M 139.41,204.24 V 165.48 H 319.07 V 151.36" />
  <path
     id="rect9582"
     class="p"
     style="fill:#577f9a"
     d="M -1.54,192.37 H 306.13001 V 245.3 H -1.54 Z" />
  <g
     id="g9590">
    <path
       d="M240.7,21.34l3.42-1.29,.32-.09-.32-.1-3.42-1.27v-1.01l4.66,2v.77l-4.66,2v-1.01Z"
       id="path9584" />
    <g
       aria-label="minioClient.getObject()"
       transform="translate(246.12 23.67)"
       id="text9588"
       class="b"
       style="font-size:11.39px;font-family:RobotoMono-Regular, 'Roboto Mono';font-variation-settings:'wght' 400">
      <path
         d="m 7.6654702,-6.2189402 q 1.0364901,0 1.5490401,0.53533 0.51255,0.52394 0.51255,1.7085001 V 0 h -0.99093 v -3.9295501 q 0,-1.4465301 -1.2415101,-1.4465301 -0.88842,0 -1.27568,0.5125501 -0.37587,0.51255 -0.37587,1.49209 V 0 H 4.8521401 v -3.9295501 q 0,-1.4465301 -1.2529,-1.4465301 -0.92259,0 -1.27568,0.5695001 -0.35309,0.5695 -0.35309,1.64016 V 0 H 0.96815003 V -6.1050402 H 1.7768401 l 0.14807,0.83147 h 0.05695 q 0.28475,-0.47838 0.76313,-0.70618 0.48977,-0.23919 1.03649,-0.23919 1.4351401,0 1.8679601,1.0251 h 0.05695 q 0.30753,-0.52394 0.83147,-0.77452 0.53533,-0.25058 1.12761,-0.25058 z"
         id="path13641" />
      <path
         d="m 12.130344,-8.3944303 q 0.2278,0 0.39865,0.1594601 0.18224,0.14807 0.18224,0.47838 0,0.31892 -0.18224,0.47838 -0.17085,0.15946 -0.39865,0.15946 -0.25058,0 -0.42143,-0.15946 -0.17085,-0.15946 -0.17085,-0.47838 0,-0.33031 0.17085,-0.47838 0.17085,-0.1594601 0.42143,-0.1594601 z m 0.48977,2.2893901 V 0 h -1.00232 v -6.1050402 z"
         id="path13643" />
      <path
         d="m 17.495027,-6.2189402 q 1.09344,0 1.65155,0.53533 0.55811,0.52394 0.55811,1.7085001 V 0 h -0.99093 v -3.9067701 q 0,-1.4693101 -1.3668,-1.4693101 -1.01371,0 -1.40097,0.5695001 -0.38726,0.5695 -0.38726,1.64016 V 0 h -1.00232 v -6.1050402 h 0.80869 l 0.14807,0.83147 h 0.05695 q 0.29614,-0.47838 0.82008,-0.70618 0.52394,-0.23919 1.10483,-0.23919 z"
         id="path13645" />
      <path
         d="m 22.107977,-8.3944303 q 0.2278,0 0.39865,0.1594601 0.18224,0.14807 0.18224,0.47838 0,0.31892 -0.18224,0.47838 -0.17085,0.15946 -0.39865,0.15946 -0.25058,0 -0.42143,-0.15946 -0.17085,-0.15946 -0.17085,-0.47838 0,-0.33031 0.17085,-0.47838 0.17085,-0.1594601 0.42143,-0.1594601 z m 0.48977,2.2893901 V 0 h -1.00232 v -6.1050402 z"
         id="path13647" />
      <path
         d="m 29.841781,-3.0639101 q 0,1.5148701 -0.77452,2.34634008 Q 28.304131,0.1139 26.994281,0.1139 q -0.80869,0 -1.44653,-0.36448001 -0.62645,-0.37587001 -0.99093,-1.08204999 -0.36448,-0.7175701 -0.36448,-1.7312801 0,-1.51487 0.76313,-2.3349501 0.76313,-0.82008 2.07298,-0.82008 0.83147,0 1.45792,0.37587 0.63784,0.36448 0.99093,1.0706601 0.36448,0.69479 0.36448,1.7085 z m -4.61295,0 q 0,1.08205 0.42143,1.7198901 0.43282,0.62644998 1.3668,0.62644998 0.92259,0 1.35541,-0.62644998 0.43282,-0.6378401 0.43282,-1.7198901 0,-1.08205 -0.43282,-1.69711 -0.43282,-0.6150601 -1.3668,-0.6150601 -0.93398,0 -1.35541,0.6150601 -0.42143,0.61506 -0.42143,1.69711 z"
         id="path13649" />
      <path
         d="m 35.047007,-7.3465502 q -1.30985,0 -2.06159,0.87703 -0.75174,0.87703 -0.75174,2.4032901 0,1.51487 0.69479,2.40329 0.70618,0.87703008 2.10715,0.87703008 0.53533,0 1.01371,-0.09112 0.47838,-0.09112 0.93398,-0.22779997 v 0.88841999 q -0.4556,0.17085001 -0.94537,0.25058001 -0.47838,0.07973 -1.15039,0.07973 -1.24151,0 -2.07298,-0.51255001 -0.83147,-0.51255002 -1.2529,-1.45792009 -0.41004,-0.94537 -0.41004,-2.22105 0,-1.2301201 0.44421,-2.1641001 0.4556,-0.94537 1.33263,-1.46931 0.87703,-0.53533 2.12993,-0.53533 1.28707,0 2.24383,0.47838 l -0.41004,0.86564 q -0.37587,-0.17085 -0.84286,-0.30753 -0.4556,-0.13668 -1.00232,-0.13668 z"
         id="path13651" />
      <path
         d="m 39.625785,0 h -1.00232 v -8.6564003 h 1.00232 z"
         id="path13653" />
      <path
         d="m 42.074629,-8.3944303 q 0.2278,0 0.39865,0.1594601 0.18224,0.14807 0.18224,0.47838 0,0.31892 -0.18224,0.47838 -0.17085,0.15946 -0.39865,0.15946 -0.25058,0 -0.42143,-0.15946 -0.17085,-0.15946 -0.17085,-0.47838 0,-0.33031 0.17085,-0.47838 0.17085,-0.1594601 0.42143,-0.1594601 z m 0.48977,2.2893901 V 0 h -1.00232 v -6.1050402 z"
         id="path13655" />
      <path
         d="m 46.858423,-6.2189402 q 0.78591,0 1.34402,0.3417 0.5695,0.3417 0.86564,0.9681501 0.30753,0.61506 0.30753,1.44653 v 0.60367 h -4.18013 q 0.02278,1.03649 0.52394,1.5832101 0.51255,0.53532998 1.42375,0.53532998 0.58089,0 1.0251,-0.10251001 0.4556,-0.1139 0.93398,-0.31891997 v 0.87702999 Q 48.635263,-0.07973 48.179663,0.01139 q -0.4556,0.10251 -1.08205,0.10251 -0.86564,0 -1.53765,-0.35309001 -0.66062,-0.35309001 -1.03649,-1.04787999 -0.36448,-0.7061801 -0.36448,-1.7198901 0,-1.00232 0.33031,-1.71989 0.3417,-0.7175701 0.94537,-1.1048301 0.61506,-0.38726 1.42375,-0.38726 z m -0.01139,0.82008 q -0.71757,0 -1.139,0.4669901 -0.41004,0.4556 -0.48977,1.27568 h 3.10947 q -0.01139,-0.77452 -0.36448,-1.2529 -0.35309,-0.4897701 -1.11622,-0.4897701 z"
         id="path13657" />
      <path
         d="m 53.863263,-6.2189402 q 1.093441,0 1.651551,0.53533 0.55811,0.52394 0.55811,1.7085001 V 0 h -0.99093 v -3.9067701 q 0,-1.4693101 -1.366801,-1.4693101 -1.01371,0 -1.40097,0.5695001 -0.38726,0.5695 -0.38726,1.64016 V 0 h -1.00232 v -6.1050402 h 0.80869 l 0.14807,0.83147 h 0.05695 q 0.29614,-0.47838 0.82008,-0.70618 0.52394,-0.23919 1.10483,-0.23919 z"
         id="path13659" />
      <path
         d="m 60.002474,-0.70618002 q 0.2278,0 0.46699,-0.03417 0.23919,-0.04556 0.38726,-0.09112 V -0.06834 q -0.15946,0.07973 -0.4556,0.12529 -0.29614,0.05695 -0.5695,0.05695 -0.47838,0 -0.88842,-0.15946 -0.39865,-0.17085001 -0.64923,-0.58089002 -0.25058,-0.41003998 -0.25058,-1.15039008 v -3.5536801 h -0.86564 v -0.47838 l 0.87703,-0.39865 0.39865,-1.29846 h 0.59228 v 1.40097 h 1.76545 v 0.77452 h -1.76545 v 3.5309001 q 0,0.5581101 0.26197,0.83147007 0.27336,0.26197001 0.69479,0.26197001 z"
         id="path13661" />
      <path
         d="m 61.927384,-0.61506002 q 0,-0.42142998 0.20502,-0.59227998 0.20502,-0.17085 0.48977,-0.17085 0.29614,0 0.50116,0.17085 0.21641,0.17085 0.21641,0.59227998 0,0.41004001 -0.21641,0.59228002 -0.20502,0.18224 -0.50116,0.18224 -0.28475,0 -0.48977,-0.18224 -0.20502,-0.18224001 -0.20502,-0.59228002 z"
         id="path13663" />
      <path
         d="m 67.292071,-6.2189402 q 0.60367,0 1.08205,0.2278 0.48977,0.2278 0.83147,0.69479 h 0.05695 l 0.13668,-0.80869 h 0.7973 V 0.10251 q 0,1.30985 -0.67201,1.9704701 -0.66062,0.66062 -2.06159,0.66062 -1.34402,0 -2.19827,-0.38726 V 1.42375 q 0.89981,0.4783801 2.25522,0.4783801 0.78591,0 1.23012,-0.4669901 0.4556,-0.45559997 0.4556,-1.25289999 V -0.05695 q 0,-0.13668001 0.01139,-0.38726001 0.01139,-0.26197001 0.02278,-0.36448001 h -0.04556 Q 68.579141,0.1139 67.303461,0.1139 q -1.18456,0 -1.85657,-0.83147002 -0.66062,-0.83146998 -0.66062,-2.32356008 0,-1.45792 0.66062,-2.3121701 0.67201,-0.86564 1.84518,-0.86564 z m 0.13668,0.84286 q -0.76313,0 -1.18456,0.6150601 -0.42143,0.60367 -0.42143,1.73128 0,1.12761 0.41004,1.7312801 0.42143,0.59227998 1.21873,0.59227998 0.92259,0 1.34402,-0.48976998 0.42143,-0.5011601 0.42143,-1.6059901 v -0.23919 q 0,-1.2529 -0.43282,-1.78823 -0.43282,-0.5467201 -1.35541,-0.5467201 z"
         id="path13665" />
      <path
         d="m 74.490545,-6.2189402 q 0.78591,0 1.34402,0.3417 0.5695,0.3417 0.86564,0.9681501 0.30753,0.61506 0.30753,1.44653 v 0.60367 h -4.18013 q 0.02278,1.03649 0.52394,1.5832101 0.51255,0.53532998 1.42375,0.53532998 0.58089,0 1.0251,-0.10251001 0.4556,-0.1139 0.93398,-0.31891997 v 0.87702999 Q 76.267385,-0.07973 75.811785,0.01139 q -0.4556,0.10251 -1.08205,0.10251 -0.86564,0 -1.53765,-0.35309001 -0.66062,-0.35309001 -1.03649,-1.04787999 -0.36448,-0.7061801 -0.36448,-1.7198901 0,-1.00232 0.33031,-1.71989 0.3417,-0.7175701 0.94537,-1.1048301 0.61506,-0.38726 1.42375,-0.38726 z m -0.01139,0.82008 q -0.71757,0 -1.139,0.4669901 -0.41004,0.4556 -0.48977,1.27568 h 3.10947 q -0.01139,-0.77452 -0.36448,-1.2529 -0.35309,-0.4897701 -1.11622,-0.4897701 z"
         id="path13667" />
      <path
         d="m 80.595576,-0.70618002 q 0.2278,0 0.46699,-0.03417 0.23919,-0.04556 0.38726,-0.09112 V -0.06834 q -0.15946,0.07973 -0.4556,0.12529 -0.29614,0.05695 -0.5695,0.05695 -0.478381,0 -0.888421,-0.15946 -0.39865,-0.17085001 -0.64923,-0.58089002 -0.25058,-0.41003998 -0.25058,-1.15039008 v -3.5536801 h -0.86564 v -0.47838 l 0.87703,-0.39865 0.39865,-1.29846 h 0.59228 v 1.40097 h 1.765451 v 0.77452 h -1.765451 v 3.5309001 q 0,0.5581101 0.26197,0.83147007 0.27336,0.26197001 0.694791,0.26197001 z"
         id="path13669" />
      <path
         d="m 89.901209,-4.0776201 q 0,1.26429 -0.43282,2.20966 -0.42143,0.93398007 -1.2529,1.45792009 Q 87.384019,0.1139 86.153899,0.1139 q -1.26429,0 -2.10715,-0.52394001 -0.83147,-0.52394002 -1.24151,-1.46931009 -0.41004,-0.94537 -0.41004,-2.20966 0,-1.2529001 0.41004,-2.1868801 0.41004,-0.93398 1.24151,-1.45792 0.84286,-0.52394 2.11854,-0.52394 1.21873,0 2.0502,0.52394 0.83147,0.51255 1.2529,1.45792 0.43282,0.93398 0.43282,2.1982701 z m -6.42396,0 q 0,1.53765 0.64923,2.4260701 0.64923,0.87702998 2.02742,0.87702998 1.38958,0 2.02742,-0.87702998 0.63784,-0.8884201 0.63784,-2.4260701 0,-1.5376501 -0.63784,-2.4032901 -0.63784,-0.87703 -2.01603,-0.87703 -1.37819,0 -2.03881,0.87703 -0.64923,0.86564 -0.64923,2.4032901 z"
         id="path13671" />
      <path
         d="m 92.566471,-6.5492502 q 0,0.38726 -0.02278,0.72896 -0.01139,0.33031 -0.03417,0.52394 h 0.05695 q 0.26197,-0.38726 0.71757,-0.64923 0.4556,-0.26197 1.17317,-0.26197 1.139,0 1.8224,0.7973 0.69479,0.7859101 0.69479,2.3577301 0,1.5718201 -0.69479,2.36912008 Q 95.584821,0.1139 94.457211,0.1139 q -0.71757,0 -1.17317,-0.26197 -0.4556,-0.26197001 -0.71757,-0.62645002 h -0.07973 L 92.281721,0 h -0.71757 v -8.6564003 h 1.00232 z m 1.71989,1.17317 q -0.96815,0 -1.34402,0.5581101 -0.37587,0.55811 -0.37587,1.73128 v 0.04556 q 0,1.12761 0.36448,1.7312801 0.37587,0.59227998 1.37819,0.59227998 0.82008,0 1.21873,-0.60366998 0.41004,-0.6036701 0.41004,-1.7426701 0,-2.3121701 -1.65155,-2.3121701 z"
         id="path13673" />
      <path
         d="m 98.489265,-7.7565902 q 0,-0.33031 0.17085,-0.47838 0.17085,-0.1594601 0.42143,-0.1594601 0.2278,0 0.39865,0.1594601 0.18224,0.14807 0.18224,0.47838 0,0.31892 -0.18224,0.47838 -0.17085,0.15946 -0.39865,0.15946 -0.25058,0 -0.42143,-0.15946 -0.17085,-0.15946 -0.17085,-0.47838 z m -0.63784,10.4901903 q -0.28475,0 -0.50116,-0.04556 -0.21641,-0.03417 -0.37587,-0.09112 v -0.80869 q 0.17085,0.04556 0.35309,0.07973 0.18224,0.03417 0.39865,0.03417 0.36448,0 0.60367,-0.20502 0.23919,-0.1936301 0.23919,-0.75174007 V -6.1050402 h 1.00232 v 7.01624023 q 0,0.85425007 -0.41004,1.33263007 -0.41004,0.48977 -1.30985,0.48977 z"
         id="path13675" />
      <path
         d="m 103.86534,-6.2189402 q 0.78591,0 1.34402,0.3417 0.5695,0.3417 0.86564,0.9681501 0.30753,0.61506 0.30753,1.44653 v 0.60367 h -4.18013 q 0.0228,1.03649 0.52394,1.5832101 0.51255,0.53532998 1.42375,0.53532998 0.58089,0 1.0251,-0.10251001 0.4556,-0.1139 0.93398,-0.31891997 v 0.87702999 Q 105.64218,-0.07973 105.18658,0.01139 q -0.4556,0.10251 -1.08205,0.10251 -0.86564,0 -1.53765,-0.35309001 -0.66062,-0.35309001 -1.03649,-1.04787999 -0.36448,-0.7061801 -0.36448,-1.7198901 0,-1.00232 0.33031,-1.71989 0.3417,-0.7175701 0.94537,-1.1048301 0.61506,-0.38726 1.42375,-0.38726 z m -0.0114,0.82008 q -0.71757,0 -1.139,0.4669901 -0.41004,0.4556 -0.48977,1.27568 h 3.10947 q -0.0114,-0.77452 -0.36448,-1.2529 -0.35309,-0.4897701 -1.11622,-0.4897701 z"
         id="path13677" />
      <path
         d="m 110.38041,0.1139 q -0.80869,0 -1.44653,-0.33031001 -0.62645,-0.33031001 -0.99093,-1.02509999 -0.35309,-0.6947901 -0.35309,-1.7768401 0,-1.12761 0.37587,-1.83379 0.37587,-0.7061801 1.01371,-1.0364901 0.64923,-0.33031 1.46931,-0.33031 0.46699,0 0.89981,0.10251 0.43282,0.09112 0.70618,0.2278 l -0.30753,0.83147 q -0.27336,-0.10251 -0.63784,-0.19363 -0.36448,-0.09112 -0.6834,-0.09112 -1.79962,0 -1.79962,2.3121701 0,1.10483 0.43282,1.6971101 0.44421,0.58088998 1.30985,0.58088998 0.50116,0 0.87703,-0.10251001 0.38726,-0.10251 0.70618,-0.25057997 v 0.88841999 Q 111.6447,-0.05695 111.26883,0.02278 110.90435,0.1139 110.38041,0.1139 Z"
         id="path13679" />
      <path
         d="m 115.43757,-0.70618002 q 0.2278,0 0.46699,-0.03417 0.23919,-0.04556 0.38726,-0.09112 V -0.06834 q -0.15946,0.07973 -0.4556,0.12529 -0.29614,0.05695 -0.5695,0.05695 -0.47838,0 -0.88842,-0.15946 -0.39865,-0.17085001 -0.64923,-0.58089002 -0.25058,-0.41003998 -0.25058,-1.15039008 v -3.5536801 h -0.86564 v -0.47838 l 0.87703,-0.39865 0.39865,-1.29846 h 0.59228 v 1.40097 h 1.76545 v 0.77452 h -1.76545 v 3.5309001 q 0,0.5581101 0.26197,0.83147007 0.27336,0.26197001 0.69479,0.26197001 z"
         id="path13681" />
      <path
         d="m 116.998,-3.1208601 q 0,-1.38958 0.39865,-2.6766501 0.41004,-1.29846 1.27568,-2.33495 h 0.94537 q -0.7973,1.07066 -1.20734,2.35773 -0.39865,1.2870701 -0.39865,2.6424801 0,1.32124 0.39865,2.59692008 0.41004,1.26429004 1.19595,2.33495012 h -0.93398 Q 117.80669,0.79730002 117.39665,-0.46699001 116.998,-1.7426701 116.998,-3.1208601 Z"
         id="path13683" />
      <path
         d="m 122.92079,-3.1208601 q 0,1.37819 -0.41004,2.65387009 -0.39865,1.26429003 -1.26429,2.26661011 h -0.93398 q 0.78591,-1.07066008 1.18456,-2.33495012 0.41004,-1.27568008 0.41004,-2.59692008 0,-1.35541 -0.41004,-2.6424801 -0.39865,-1.28707 -1.19595,-2.35773 h 0.94537 q 0.86564,1.03649 1.26429,2.33495 0.41004,1.2870701 0.41004,2.6766501 z"
         id="path13685" />
    </g>
  </g>
  <g
     id="g9612">
    <path
       class="k"
       d="M102.75,222.84v-10.72h7.22v1.87h-4.96v2.55h4.59v1.87h-4.59v2.56h4.98v1.87h-7.24Z"
       id="path9592" />
    <path
       class="k"
       d="M111.78,222.84v-10.72h4.23c.81,0,1.5,.14,2.08,.43,.57,.29,1.01,.69,1.31,1.22,.3,.52,.45,1.14,.45,1.85s-.15,1.32-.46,1.83-.75,.9-1.33,1.17c-.58,.27-1.28,.41-2.11,.41h-2.83v-1.82h2.47c.43,0,.79-.06,1.08-.18s.5-.3,.64-.53,.21-.53,.21-.88-.07-.66-.21-.9c-.14-.24-.36-.43-.64-.56-.29-.13-.65-.19-1.09-.19h-1.53v8.87h-2.27Zm5.79-4.88l2.66,4.88h-2.5l-2.61-4.88h2.44Z"
       id="path9594" />
    <path
       class="k"
       d="M123.3,222.84h-2.43l3.7-10.72h2.92l3.7,10.72h-2.43l-2.69-8.27h-.08l-2.69,8.27Zm-.15-4.21h5.74v1.77h-5.74v-1.77Z"
       id="path9596" />
    <path
       class="k"
       d="M138.04,215.2c-.04-.42-.22-.75-.54-.98-.32-.23-.75-.35-1.29-.35-.37,0-.68,.05-.94,.15-.25,.1-.45,.25-.58,.43s-.2,.39-.2,.62c0,.19,.03,.36,.12,.5s.21,.27,.37,.37c.16,.1,.34,.19,.54,.27,.21,.08,.43,.14,.66,.19l.96,.23c.47,.1,.9,.24,1.29,.42s.73,.39,1.02,.64c.29,.25,.51,.55,.67,.9,.16,.35,.24,.74,.24,1.19,0,.66-.17,1.22-.5,1.7-.33,.48-.8,.85-1.42,1.12-.62,.26-1.37,.4-2.24,.4s-1.62-.13-2.26-.4c-.64-.27-1.14-.66-1.5-1.18s-.55-1.17-.56-1.94h2.19c.02,.36,.13,.66,.31,.9,.18,.24,.43,.42,.74,.54,.31,.12,.66,.18,1.05,.18s.72-.06,1-.17c.28-.11,.5-.27,.66-.47,.16-.2,.24-.43,.24-.69,0-.24-.07-.44-.21-.61-.14-.16-.35-.3-.62-.42s-.6-.22-.99-.31l-1.17-.29c-.9-.22-1.62-.56-2.14-1.03-.52-.47-.78-1.1-.78-1.89,0-.65,.17-1.22,.52-1.7s.83-.86,1.45-1.14c.61-.27,1.31-.41,2.09-.41s1.49,.14,2.09,.41c.59,.27,1.06,.65,1.39,1.14s.5,1.05,.51,1.69h-2.17Z"
       id="path9598" />
    <path
       class="k"
       d="M148.5,212.12h2.27v6.96c0,.78-.19,1.47-.56,2.05-.37,.59-.89,1.04-1.56,1.37-.67,.33-1.44,.49-2.33,.49s-1.67-.16-2.33-.49c-.67-.33-1.18-.78-1.55-1.37-.37-.59-.55-1.27-.55-2.05v-6.96h2.27v6.77c0,.41,.09,.77,.27,1.09,.18,.32,.43,.57,.76,.75,.33,.18,.71,.27,1.15,.27s.82-.09,1.15-.27c.33-.18,.58-.43,.76-.75,.18-.32,.27-.68,.27-1.09v-6.77Z"
       id="path9600" />
    <path
       class="k"
       d="M152.63,222.84v-10.72h4.23c.81,0,1.5,.14,2.08,.43,.57,.29,1.01,.69,1.31,1.22,.3,.52,.45,1.14,.45,1.85s-.15,1.32-.46,1.83-.75,.9-1.33,1.17c-.58,.27-1.28,.41-2.11,.41h-2.83v-1.82h2.47c.43,0,.79-.06,1.08-.18s.5-.3,.64-.53,.21-.53,.21-.88-.07-.66-.21-.9c-.14-.24-.36-.43-.64-.56-.29-.13-.65-.19-1.09-.19h-1.53v8.87h-2.27Zm5.79-4.88l2.66,4.88h-2.5l-2.61-4.88h2.44Z"
       id="path9602" />
    <path
       class="k"
       d="M162.31,222.84v-10.72h7.22v1.87h-4.96v2.55h4.59v1.87h-4.59v2.56h4.98v1.87h-7.24Z"
       id="path9604" />
    <path
       class="k"
       d="M180.57,215.2c-.04-.42-.22-.75-.54-.98-.32-.23-.75-.35-1.29-.35-.37,0-.68,.05-.94,.15-.25,.1-.45,.25-.58,.43s-.2,.39-.2,.62c0,.19,.03,.36,.12,.5s.21,.27,.37,.37c.16,.1,.34,.19,.54,.27,.21,.08,.43,.14,.66,.19l.96,.23c.47,.1,.9,.24,1.29,.42s.73,.39,1.02,.64c.29,.25,.51,.55,.67,.9,.16,.35,.24,.74,.24,1.19,0,.66-.17,1.22-.5,1.7-.33,.48-.8,.85-1.42,1.12-.62,.26-1.37,.4-2.24,.4s-1.62-.13-2.26-.4c-.64-.27-1.14-.66-1.5-1.18s-.55-1.17-.56-1.94h2.19c.02,.36,.13,.66,.31,.9,.18,.24,.43,.42,.74,.54,.31,.12,.66,.18,1.05,.18s.72-.06,1-.17c.28-.11,.5-.27,.66-.47,.16-.2,.24-.43,.24-.69,0-.24-.07-.44-.21-.61-.14-.16-.35-.3-.62-.42s-.6-.22-.99-.31l-1.17-.29c-.9-.22-1.62-.56-2.14-1.03-.52-.47-.78-1.1-.78-1.89,0-.65,.17-1.22,.52-1.7s.83-.86,1.45-1.14c.61-.27,1.31-.41,2.09-.41s1.49,.14,2.09,.41c.59,.27,1.06,.65,1.39,1.14s.5,1.05,.51,1.69h-2.17Z"
       id="path9606" />
    <path
       class="k"
       d="M184.4,222.84v-10.72h7.22v1.87h-4.96v2.55h4.59v1.87h-4.59v2.56h4.98v1.87h-7.24Z"
       id="path9608" />
    <path
       class="k"
       d="M193.03,213.99v-1.87h8.8v1.87h-3.28v8.85h-2.24v-8.85h-3.28Z"
       id="path9610" />
  </g>
  <path
     id="rect9614"
     class="p"
     style="fill:#577f9a"
     d="M 394.45001,192.37 H 644.58002 V 245.3 H 394.45001 Z" />
  <g
     id="g9636">
    <path
       class="k"
       d="M465.89,222.84v-10.72h7.22v1.87h-4.96v2.55h4.59v1.87h-4.59v2.56h4.98v1.87h-7.24Z"
       id="path9616" />
    <path
       class="k"
       d="M474.92,222.84v-10.72h4.23c.81,0,1.5,.14,2.08,.43,.57,.29,1.01,.69,1.31,1.22,.3,.52,.45,1.14,.45,1.85s-.15,1.32-.46,1.83-.75,.9-1.33,1.17c-.58,.27-1.28,.41-2.11,.41h-2.83v-1.82h2.47c.43,0,.79-.06,1.08-.18s.5-.3,.64-.53,.21-.53,.21-.88-.07-.66-.21-.9c-.14-.24-.36-.43-.64-.56-.29-.13-.65-.19-1.09-.19h-1.53v8.87h-2.27Zm5.79-4.88l2.66,4.88h-2.5l-2.61-4.88h2.44Z"
       id="path9618" />
    <path
       class="k"
       d="M486.44,222.84h-2.43l3.7-10.72h2.92l3.7,10.72h-2.43l-2.69-8.27h-.08l-2.69,8.27Zm-.15-4.21h5.74v1.77h-5.74v-1.77Z"
       id="path9620" />
    <path
       class="k"
       d="M501.18,215.2c-.04-.42-.22-.75-.54-.98-.32-.23-.75-.35-1.29-.35-.37,0-.68,.05-.94,.15-.25,.1-.45,.25-.58,.43s-.2,.39-.2,.62c0,.19,.03,.36,.12,.5s.21,.27,.37,.37c.16,.1,.34,.19,.54,.27,.21,.08,.43,.14,.66,.19l.96,.23c.47,.1,.9,.24,1.29,.42s.73,.39,1.02,.64c.29,.25,.51,.55,.67,.9,.16,.35,.24,.74,.24,1.19,0,.66-.17,1.22-.5,1.7-.33,.48-.8,.85-1.42,1.12-.62,.26-1.37,.4-2.24,.4s-1.62-.13-2.26-.4c-.64-.27-1.14-.66-1.5-1.18s-.55-1.17-.56-1.94h2.19c.02,.36,.13,.66,.31,.9,.18,.24,.43,.42,.74,.54,.31,.12,.66,.18,1.05,.18s.72-.06,1-.17c.28-.11,.5-.27,.66-.47,.16-.2,.24-.43,.24-.69,0-.24-.07-.44-.21-.61-.14-.16-.35-.3-.62-.42s-.6-.22-.99-.31l-1.17-.29c-.9-.22-1.62-.56-2.14-1.03-.52-.47-.78-1.1-.78-1.89,0-.65,.17-1.22,.52-1.7s.83-.86,1.45-1.14c.61-.27,1.31-.41,2.09-.41s1.49,.14,2.09,.41c.59,.27,1.06,.65,1.39,1.14s.5,1.05,.51,1.69h-2.17Z"
       id="path9622" />
    <path
       class="k"
       d="M511.64,212.12h2.27v6.96c0,.78-.19,1.47-.56,2.05-.37,.59-.89,1.04-1.56,1.37-.67,.33-1.44,.49-2.33,.49s-1.67-.16-2.33-.49c-.67-.33-1.18-.78-1.55-1.37-.37-.59-.55-1.27-.55-2.05v-6.96h2.27v6.77c0,.41,.09,.77,.27,1.09,.18,.32,.43,.57,.76,.75,.33,.18,.71,.27,1.15,.27s.82-.09,1.15-.27c.33-.18,.58-.43,.76-.75,.18-.32,.27-.68,.27-1.09v-6.77Z"
       id="path9624" />
    <path
       class="k"
       d="M515.77,222.84v-10.72h4.23c.81,0,1.5,.14,2.08,.43,.57,.29,1.01,.69,1.31,1.22,.3,.52,.45,1.14,.45,1.85s-.15,1.32-.46,1.83-.75,.9-1.33,1.17c-.58,.27-1.28,.41-2.11,.41h-2.83v-1.82h2.47c.43,0,.79-.06,1.08-.18s.5-.3,.64-.53,.21-.53,.21-.88-.07-.66-.21-.9c-.14-.24-.36-.43-.64-.56-.29-.13-.65-.19-1.09-.19h-1.53v8.87h-2.27Zm5.79-4.88l2.66,4.88h-2.5l-2.61-4.88h2.44Z"
       id="path9626" />
    <path
       class="k"
       d="M525.44,222.84v-10.72h7.22v1.87h-4.96v2.55h4.59v1.87h-4.59v2.56h4.98v1.87h-7.24Z"
       id="path9628" />
    <path
       class="k"
       d="M543.71,215.2c-.04-.42-.22-.75-.54-.98-.32-.23-.75-.35-1.29-.35-.37,0-.68,.05-.94,.15-.25,.1-.45,.25-.58,.43s-.2,.39-.2,.62c0,.19,.03,.36,.12,.5s.21,.27,.37,.37c.16,.1,.34,.19,.54,.27,.21,.08,.43,.14,.66,.19l.96,.23c.47,.1,.9,.24,1.29,.42s.73,.39,1.02,.64c.29,.25,.51,.55,.67,.9,.16,.35,.24,.74,.24,1.19,0,.66-.17,1.22-.5,1.7-.33,.48-.8,.85-1.42,1.12-.62,.26-1.37,.4-2.24,.4s-1.62-.13-2.26-.4c-.64-.27-1.14-.66-1.5-1.18s-.55-1.17-.56-1.94h2.19c.02,.36,.13,.66,.31,.9,.18,.24,.43,.42,.74,.54,.31,.12,.66,.18,1.05,.18s.72-.06,1-.17c.28-.11,.5-.27,.66-.47,.16-.2,.24-.43,.24-.69,0-.24-.07-.44-.21-.61-.14-.16-.35-.3-.62-.42s-.6-.22-.99-.31l-1.17-.29c-.9-.22-1.62-.56-2.14-1.03-.52-.47-.78-1.1-.78-1.89,0-.65,.17-1.22,.52-1.7s.83-.86,1.45-1.14c.61-.27,1.31-.41,2.09-.41s1.49,.14,2.09,.41c.59,.27,1.06,.65,1.39,1.14s.5,1.05,.51,1.69h-2.17Z"
       id="path9630" />
    <path
       class="k"
       d="M547.54,222.84v-10.72h7.22v1.87h-4.96v2.55h4.59v1.87h-4.59v2.56h4.98v1.87h-7.24Z"
       id="path9632" />
    <path
       class="k"
       d="M556.16,213.99v-1.87h8.8v1.87h-3.28v8.85h-2.24v-8.85h-3.28Z"
       id="path9634" />
  </g>
  <path
     id="rect9638"
     class="f"
     style="fill:none;stroke:#cf2144;stroke-miterlimit:10"
     d="M 228.67,-0.43000001 H 414.53 V 38.900002 H 228.67 Z" />
  <path
     id="rect9640"
     class="m"
     style="fill:#cf2144"
     d="M 139.69,95.779999 H 503.5 V 148.71 H 139.69 Z" />
  <g
     id="g9654">
    <g
       id="g9648">
      <path
         id="rect9642"
         class="k"
         style="fill:#ffffff"
         d="m 308.59,117.35 h 4.49 v 11.71 h -4.49 z" />
      <path
         class="k"
         d="M303.14,117.51l-9.11,4.92c-.13,.07-.29,.07-.42,0l-9.11-4.92c-.2-.11-.42-.16-.65-.16h-.01c-.69,0-1.25,.49-1.25,1.1v10.59s4.49,0,4.49,0v-5.04c0-.31,.38-.5,.68-.34l5.11,2.76c.5,.27,1.14,.28,1.64,.01l5.39-2.79c.3-.15,.68,.04,.68,.34v5.06s4.49,0,4.49,0v-10.59c0-.61-.56-1.1-1.25-1.1h-.01c-.23,0-.46,.06-.65,.16Z"
         id="path9644" />
      <path
         class="k"
         d="M335.47,117.35h-4.55s0,5.33,0,5.33c0,.3-.36,.49-.66,.35l-11.8-5.55c-.18-.09-.38-.13-.59-.13h0c-.69,0-1.25,.49-1.25,1.1v10.59s4.52,0,4.52,0v-5.32c0-.3,.36-.49,.66-.35l11.85,5.55c.18,.08,.38,.13,.59,.13h0c.69,0,1.25-.49,1.25-1.1v-10.6Z"
         id="path9646" />
    </g>
    <path
       class="k"
       d="M339,129.06v-11.71h2.07v11.71h-2.07Z"
       id="path9650" />
    <path
       class="k"
       d="M353.22,129.27c-5.56,0-9.5-2.33-9.5-6.06,0-3.71,3.97-6.06,9.5-6.06s9.53,2.33,9.53,6.06c0,3.73-3.9,6.06-9.53,6.06Zm0-10.57c-4.13,0-7.32,1.59-7.32,4.51,0,2.94,3.18,4.51,7.32,4.51,4.13,0,7.34-1.57,7.34-4.51s-3.21-4.51-7.34-4.51Z"
       id="path9652" />
  </g>
  <path
     id="polyline9656"
     class="o"
     style="fill:#1b1717"
     d="m 321.94,90.87 h 2.19 l -2.54,4.38 -2.52,-4.38 h 1.88" />
  <path
     id="polyline9658"
     class="o"
     style="fill:#1b1717"
     d="m 318.72,153.6 h -2.19 l 2.54,-4.38 2.53,4.38 h -1.89" />
  <path
     id="polyline9660"
     class="o"
     style="fill:#1b1717"
     d="m 141.18,249.67 h -2.19 l 2.53,-4.38 2.53,4.38 h -1.88" />
  <path
     id="line9662"
     class="d"
     style="fill:none;stroke:#1b1717;stroke-width:1.47px;stroke-miterlimit:10"
     d="M 321.60001,39.099998 V 90.870003" />
  <g
     id="g9670">
    <path
       id="rect9664"
       class="n"
       style="fill:#122745"
       d="m 51.470001,335.44 h 10.74 c 1.8005,0 3.25,1.4495 3.25,3.25 v 13.53 c 0,1.8005 -1.4495,3.25 -3.25,3.25 h -10.74 c -1.8005,0 -3.25,-1.4495 -3.25,-3.25 v -13.53 c 0,-1.8005 1.4495,-3.25 3.25,-3.25 z" />
    <g
       aria-label="D"
       transform="translate(54.03 347.57)"
       id="text9668"
       class="l"
       style="font-weight:500;font-size:7.79px;font-family:Inter-Medium, Inter;font-variation-settings:'slnt' 0, 'wght' 500;fill:#ffffff">
      <path
         d="m 5.24267,-2.83556 q 0,1.40999 -0.779,2.12667 Q 3.69246,0 2.29805,0 h -1.558 v -5.56206 h 1.72159 q 0.84911,0 1.47231,0.3116 0.6232,0.3116 0.96596,0.91922 0.34276,0.59983 0.34276,1.49568 z M 4.3624,-2.81219 q 0,-1.05165 -0.51414,-1.54242 Q 3.34191,-4.85317 2.40711,-4.85317 H 1.58137 v 4.14428 H 2.2591 q 2.1033,0 2.1033,-2.1033 z"
         id="path13630" />
    </g>
  </g>
  <g
     id="g9678">
    <path
       id="rect9672"
       class="n"
       style="fill:#122745"
       d="m 75.190002,335.44 h 10.74 c 1.8005,0 3.25,1.4495 3.25,3.25 v 13.53 c 0,1.8005 -1.4495,3.25 -3.25,3.25 h -10.74 c -1.8005,0 -3.25,-1.4495 -3.25,-3.25 v -13.53 c 0,-1.8005 1.4495,-3.25 3.25,-3.25 z" />
    <g
       aria-label="D"
       transform="translate(77.75 347.57)"
       id="text9676"
       class="l"
       style="font-weight:500;font-size:7.79px;font-family:Inter-Medium, Inter;font-variation-settings:'slnt' 0, 'wght' 500;fill:#ffffff">
      <path
         d="m 5.24267,-2.83556 q 0,1.40999 -0.779,2.12667 Q 3.69246,0 2.29805,0 h -1.558 v -5.56206 h 1.72159 q 0.84911,0 1.47231,0.3116 0.6232,0.3116 0.96596,0.91922 0.34276,0.59983 0.34276,1.49568 z M 4.3624,-2.81219 q 0,-1.05165 -0.51414,-1.54242 Q 3.34191,-4.85317 2.40711,-4.85317 H 1.58137 v 4.14428 H 2.2591 q 2.1033,0 2.1033,-2.1033 z"
         id="path13626" />
    </g>
  </g>
  <g
     id="g9686">
    <path
       id="rect9680"
       class="n"
       style="fill:#122745"
       d="M 99.059998,335.44 H 109.8 c 1.8005,0 3.25,1.4495 3.25,3.25 v 13.53 c 0,1.8005 -1.4495,3.25 -3.25,3.25 H 99.059998 c -1.8005,0 -3.25,-1.4495 -3.25,-3.25 v -13.53 c 0,-1.8005 1.4495,-3.25 3.25,-3.25 z" />
    <g
       aria-label="D"
       transform="translate(101.62 347.57)"
       id="text9684"
       class="l"
       style="font-weight:500;font-size:7.79px;font-family:Inter-Medium, Inter;font-variation-settings:'slnt' 0, 'wght' 500;fill:#ffffff">
      <path
         d="m 5.24267,-2.83556 q 0,1.40999 -0.779,2.12667 Q 3.69246,0 2.29805,0 h -1.558 v -5.56206 h 1.72159 q 0.84911,0 1.47231,0.3116 0.6232,0.3116 0.96596,0.91922 0.34276,0.59983 0.34276,1.49568 z M 4.3624,-2.81219 q 0,-1.05165 -0.51414,-1.54242 Q 3.34191,-4.85317 2.40711,-4.85317 H 1.58137 v 4.14428 H 2.2591 q 2.1033,0 2.1033,-2.1033 z"
         id="path13622" />
    </g>
  </g>
  <g
     id="g9694">
    <path
       id="rect9688"
       class="n"
       style="fill:#122745"
       d="m 124.24,335.44 h 10.74 c 1.8005,0 3.25,1.4495 3.25,3.25 v 13.53 c 0,1.8005 -1.4495,3.25 -3.25,3.25 h -10.74 c -1.8005,0 -3.25,-1.4495 -3.25,-3.25 v -13.53 c 0,-1.8005 1.4495,-3.25 3.25,-3.25 z" />
    <g
       aria-label="D"
       transform="translate(126.8 347.57)"
       id="text9692"
       class="l"
       style="font-weight:500;font-size:7.79px;font-family:Inter-Medium, Inter;font-variation-settings:'slnt' 0, 'wght' 500;fill:#ffffff">
      <path
         d="m 5.24267,-2.83556 q 0,1.40999 -0.779,2.12667 Q 3.69246,0 2.29805,0 h -1.558 v -5.56206 h 1.72159 q 0.84911,0 1.47231,0.3116 0.6232,0.3116 0.96596,0.91922 0.34276,0.59983 0.34276,1.49568 z M 4.3624,-2.81219 q 0,-1.05165 -0.51414,-1.54242 Q 3.34191,-4.85317 2.40711,-4.85317 H 1.58137 v 4.14428 H 2.2591 q 2.1033,0 2.1033,-2.1033 z"
         id="path13618" />
    </g>
  </g>
  <g
     id="g9702">
    <path
       id="rect9696"
       class="j"
       style="fill:#e8f3f3"
       d="m 218.69,333.07999 h 14.6 c 1.8005,0 3.25,1.4495 3.25,3.25 v 18.02 c 0,1.8005 -1.4495,3.25 -3.25,3.25 h -14.6 c -1.8005,0 -3.25,-1.4495 -3.25,-3.25 v -18.02 c 0,-1.8005 1.4495,-3.25 3.25,-3.25 z" />
    <path
       id="rect9698"
       class="m"
       style="fill:#cf2144"
       d="m 220.33,334.98001 h 11.33 c 1.8005,0 3.25,1.4495 3.25,3.25 v 14.22 c 0,1.8005 -1.4495,3.25 -3.25,3.25 h -11.33 c -1.8005,0 -3.25,-1.4495 -3.25,-3.25 v -14.22 c 0,-1.8005 1.4495,-3.25 3.25,-3.25 z" />
    <path
       class="k"
       d="M224.06,347.53v-5.86h2.09c.46,0,.83,.08,1.13,.25,.3,.17,.52,.39,.67,.68,.15,.29,.22,.61,.22,.97s-.08,.68-.22,.97-.37,.51-.68,.68-.68,.25-1.13,.25h-1.44v-.75h1.36c.29,0,.52-.05,.7-.15s.31-.24,.4-.41c.08-.17,.13-.37,.13-.59s-.04-.42-.13-.59c-.08-.17-.22-.31-.4-.4-.18-.1-.42-.15-.71-.15h-1.11v5.1h-.88Z"
       id="path9700" />
  </g>
  <g
     id="g9710">
    <path
       id="rect9704"
       class="j"
       style="fill:#e8f3f3"
       d="m 145.48,333.07999 h 14.6 c 1.8005,0 3.25,1.4495 3.25,3.25 v 18.02 c 0,1.8005 -1.4495,3.25 -3.25,3.25 h -14.6 c -1.8005,0 -3.25,-1.4495 -3.25,-3.25 v -18.02 c 0,-1.8005 1.4495,-3.25 3.25,-3.25 z" />
    <path
       id="rect9706"
       class="m"
       style="fill:#cf2144"
       d="m 147.11,334.98001 h 11.33 c 1.8005,0 3.25,1.4495 3.25,3.25 v 14.22 c 0,1.8005 -1.4495,3.25 -3.25,3.25 h -11.33 c -1.8005,0 -3.25,-1.4495 -3.25,-3.25 v -14.22 c 0,-1.8005 1.4495,-3.25 3.25,-3.25 z" />
    <path
       class="k"
       d="M150.85,347.53v-5.86h2.09c.46,0,.83,.08,1.13,.25,.3,.17,.52,.39,.67,.68,.15,.29,.22,.61,.22,.97s-.08,.68-.22,.97-.37,.51-.68,.68-.68,.25-1.13,.25h-1.44v-.75h1.36c.29,0,.52-.05,.7-.15s.31-.24,.4-.41c.08-.17,.13-.37,.13-.59s-.04-.42-.13-.59c-.08-.17-.22-.31-.4-.4-.18-.1-.42-.15-.71-.15h-1.11v5.1h-.88Z"
       id="path9708" />
  </g>
  <g
     id="g9718">
    <path
       id="rect9712"
       class="j"
       style="fill:#e8f3f3"
       d="m 169.73,333.07999 h 14.6 c 1.8005,0 3.25,1.4495 3.25,3.25 v 18.02 c 0,1.8005 -1.4495,3.25 -3.25,3.25 h -14.6 c -1.8005,0 -3.25,-1.4495 -3.25,-3.25 v -18.02 c 0,-1.8005 1.4495,-3.25 3.25,-3.25 z" />
    <path
       id="rect9714"
       class="m"
       style="fill:#cf2144"
       d="m 171.36,334.98001 h 11.33 c 1.8005,0 3.25,1.4495 3.25,3.25 v 14.22 c 0,1.8005 -1.4495,3.25 -3.25,3.25 h -11.33 c -1.8005,0 -3.25,-1.4495 -3.25,-3.25 v -14.22 c 0,-1.8005 1.4495,-3.25 3.25,-3.25 z" />
    <path
       class="k"
       d="M175.09,347.53v-5.86h2.09c.46,0,.83,.08,1.13,.25,.3,.17,.52,.39,.67,.68,.15,.29,.22,.61,.22,.97s-.08,.68-.22,.97-.37,.51-.68,.68-.68,.25-1.13,.25h-1.44v-.75h1.36c.29,0,.52-.05,.7-.15s.31-.24,.4-.41c.08-.17,.13-.37,.13-.59s-.04-.42-.13-.59c-.08-.17-.22-.31-.4-.4-.18-.1-.42-.15-.71-.15h-1.11v5.1h-.88Z"
       id="path9716" />
  </g>
  <g
     id="g9726">
    <path
       id="rect9720"
       class="j"
       style="fill:#e8f3f3"
       d="m 193.97,333.07999 h 14.6 c 1.8005,0 3.25,1.4495 3.25,3.25 v 18.02 c 0,1.8005 -1.4495,3.25 -3.25,3.25 h -14.6 c -1.8005,0 -3.25,-1.4495 -3.25,-3.25 v -18.02 c 0,-1.8005 1.4495,-3.25 3.25,-3.25 z" />
    <path
       id="rect9722"
       class="m"
       style="fill:#cf2144"
       d="m 195.61,334.98001 h 11.33 c 1.8005,0 3.25,1.4495 3.25,3.25 v 14.22 c 0,1.8005 -1.4495,3.25 -3.25,3.25 h -11.33 c -1.8005,0 -3.25,-1.4495 -3.25,-3.25 v -14.22 c 0,-1.8005 1.4495,-3.25 3.25,-3.25 z" />
    <path
       class="k"
       d="M199.34,347.53v-5.86h2.09c.46,0,.83,.08,1.13,.25,.3,.17,.52,.39,.67,.68,.15,.29,.22,.61,.22,.97s-.08,.68-.22,.97-.37,.51-.68,.68-.68,.25-1.13,.25h-1.44v-.75h1.36c.29,0,.52-.05,.7-.15s.31-.24,.4-.41c.08-.17,.13-.37,.13-.59s-.04-.42-.13-.59c-.08-.17-.22-.31-.4-.4-.18-.1-.42-.15-.71-.15h-1.11v5.1h-.88Z"
       id="path9724" />
  </g>
  <path
     id="rect9728"
     class="i"
     style="fill:#f6f6f6"
     d="M 0.02,0.41 H 156.63 V 78.490002 H 0.02 Z" />
  <g
     id="g9772">
    <path
       d="M39.23,15.68c-.03-.27-.16-.48-.38-.63-.22-.15-.5-.22-.83-.22-.24,0-.44,.04-.62,.11s-.31,.18-.4,.31c-.1,.13-.14,.28-.14,.44,0,.14,.03,.26,.1,.36,.06,.1,.15,.18,.26,.25s.22,.12,.35,.17,.24,.08,.35,.11l.57,.15c.19,.05,.38,.11,.57,.18,.2,.08,.38,.18,.54,.31,.17,.13,.3,.28,.4,.47,.1,.19,.15,.41,.15,.67,0,.33-.08,.62-.25,.88-.17,.26-.41,.46-.74,.6-.32,.15-.71,.22-1.16,.22s-.81-.07-1.13-.21-.57-.33-.75-.59c-.18-.25-.28-.56-.3-.91h.88c.02,.21,.09,.38,.21,.52,.12,.14,.27,.24,.46,.31,.19,.07,.4,.1,.62,.1,.25,0,.47-.04,.66-.12,.19-.08,.35-.19,.46-.33s.17-.31,.17-.5c0-.17-.05-.31-.15-.42-.1-.11-.23-.2-.4-.27s-.35-.14-.56-.19l-.69-.19c-.47-.13-.83-.31-1.11-.56-.27-.25-.41-.57-.41-.98,0-.34,.09-.63,.27-.88,.18-.25,.43-.44,.74-.58s.66-.21,1.05-.21,.74,.07,1.04,.21,.54,.33,.71,.57c.17,.24,.27,.52,.27,.83h-.85Z"
       id="path9730" />
    <path
       d="M43.17,15.6v.68h-2.38v-.68h2.38Zm-1.74-1.05h.85v4.13c0,.16,.02,.29,.07,.37,.05,.08,.11,.14,.19,.17,.08,.03,.16,.04,.26,.04,.07,0,.13,0,.18-.01,.05,0,.09-.02,.12-.02l.15,.7s-.12,.04-.21,.06c-.09,.02-.2,.03-.34,.03-.22,0-.43-.04-.62-.12-.19-.08-.35-.21-.47-.39-.12-.17-.18-.39-.18-.66v-4.3Z"
       id="path9732" />
    <path
       d="M45.9,20.06c-.41,0-.77-.09-1.07-.28-.3-.19-.54-.45-.71-.79-.17-.34-.25-.73-.25-1.18s.08-.85,.25-1.19c.17-.34,.41-.6,.71-.79,.31-.19,.66-.28,1.07-.28s.77,.09,1.07,.28c.31,.19,.54,.45,.71,.79,.17,.34,.25,.73,.25,1.19s-.08,.84-.25,1.18c-.17,.34-.41,.6-.71,.79-.3,.19-.66,.28-1.07,.28Zm0-.71c.27,0,.48-.07,.66-.21,.17-.14,.3-.33,.39-.56,.08-.23,.13-.49,.13-.77s-.04-.53-.13-.77c-.08-.23-.21-.42-.39-.56-.17-.14-.39-.21-.66-.21s-.49,.07-.66,.21-.3,.33-.39,.56-.13,.49-.13,.77,.04,.54,.13,.77,.21,.42,.39,.56c.18,.14,.4,.21,.66,.21Z"
       id="path9734" />
    <path
       d="M48.88,19.97v-4.36h.82v.69h.05c.08-.23,.22-.42,.42-.56,.2-.14,.43-.2,.69-.2,.05,0,.12,0,.19,0s.13,0,.17,.01v.81s-.09-.02-.18-.03c-.09-.01-.17-.02-.26-.02-.2,0-.38,.04-.54,.13-.16,.08-.28,.2-.37,.35-.09,.15-.14,.32-.14,.51v2.66h-.85Z"
       id="path9736" />
    <path
       d="M53.19,20.06c-.28,0-.53-.05-.75-.15-.22-.1-.4-.25-.53-.45-.13-.2-.19-.44-.19-.72,0-.25,.05-.45,.14-.61s.22-.29,.38-.38,.34-.16,.54-.21c.2-.05,.4-.08,.61-.11,.26-.03,.47-.06,.64-.08,.16-.02,.28-.05,.35-.1,.07-.05,.11-.12,.11-.22v-.02c0-.25-.07-.44-.21-.58s-.35-.2-.62-.2-.51,.06-.67,.19c-.16,.13-.28,.27-.34,.42l-.8-.18c.09-.27,.23-.48,.42-.64,.18-.16,.39-.28,.63-.36s.49-.11,.75-.11c.17,0,.36,.02,.56,.06,.2,.04,.38,.12,.55,.22s.31,.26,.42,.46,.16,.46,.16,.78v2.9h-.83v-.6h-.03c-.06,.11-.14,.22-.25,.32-.11,.11-.25,.19-.42,.26-.17,.07-.38,.1-.62,.1Zm.18-.68c.23,0,.44-.05,.6-.14,.17-.09,.3-.21,.38-.36,.09-.15,.13-.31,.13-.48v-.56s-.09,.06-.17,.08c-.09,.03-.18,.05-.29,.07s-.22,.03-.32,.05c-.1,.01-.19,.03-.26,.04-.16,.02-.31,.06-.45,.1-.14,.05-.24,.12-.32,.21-.08,.09-.12,.21-.12,.36,0,.21,.08,.37,.23,.48s.35,.16,.59,.16Z"
       id="path9738" />
    <path
       d="M58.3,21.69c-.35,0-.64-.05-.89-.14-.25-.09-.45-.21-.61-.36-.16-.15-.27-.31-.35-.48l.73-.3c.05,.08,.12,.17,.21,.26,.09,.09,.2,.17,.35,.24,.15,.07,.34,.1,.58,.1,.32,0,.59-.08,.8-.23,.21-.16,.32-.4,.32-.74v-.86h-.05c-.05,.09-.12,.2-.22,.31s-.23,.21-.39,.3c-.17,.08-.38,.12-.65,.12-.34,0-.65-.08-.93-.24-.28-.16-.49-.4-.65-.72-.16-.32-.24-.71-.24-1.17s.08-.86,.24-1.19c.16-.33,.38-.59,.65-.76,.28-.18,.59-.27,.94-.27,.27,0,.49,.04,.66,.13,.17,.09,.3,.19,.39,.31,.09,.12,.17,.22,.22,.32h.06v-.71h.83v4.46c0,.37-.09,.68-.26,.92s-.41,.42-.71,.53-.63,.17-1,.17Zm0-2.49c.24,0,.45-.06,.62-.17,.17-.11,.3-.28,.39-.49,.09-.21,.13-.47,.13-.77s-.04-.55-.13-.78c-.09-.22-.21-.4-.38-.52s-.38-.19-.62-.19-.47,.07-.64,.2c-.17,.13-.3,.31-.39,.54-.09,.23-.13,.48-.13,.76s.04,.54,.13,.75c.09,.22,.22,.38,.39,.51,.17,.12,.38,.18,.63,.18Z"
       id="path9740" />
    <path
       d="M63.29,20.06c-.43,0-.8-.09-1.11-.28s-.55-.44-.72-.78c-.17-.34-.25-.73-.25-1.18s.08-.84,.25-1.18c.17-.34,.4-.61,.7-.8,.3-.19,.66-.29,1.06-.29,.25,0,.48,.04,.72,.12s.44,.21,.62,.38c.18,.17,.33,.4,.43,.68,.11,.28,.16,.61,.16,1.01v.3h-3.47v-.64h2.64c0-.22-.05-.42-.14-.6s-.22-.31-.38-.41c-.16-.1-.36-.15-.58-.15-.24,0-.45,.06-.62,.17-.18,.12-.31,.27-.41,.45-.1,.19-.14,.39-.14,.61v.5c0,.29,.05,.54,.15,.74,.1,.2,.25,.36,.43,.47,.19,.11,.4,.16,.65,.16,.16,0,.31-.02,.44-.07,.13-.05,.25-.12,.34-.21,.1-.09,.17-.21,.22-.34l.8,.15c-.06,.24-.18,.44-.35,.62-.17,.18-.37,.31-.62,.41-.25,.1-.53,.15-.85,.15Z"
       id="path9742" />
    <path
       d="M68.47,17.55c0-.71,.09-1.37,.28-1.97,.19-.6,.46-1.15,.82-1.66h.78c-.14,.19-.27,.42-.39,.69-.12,.27-.23,.57-.32,.9s-.16,.66-.21,1.01c-.05,.35-.08,.69-.08,1.03,0,.45,.04,.91,.13,1.37,.09,.46,.21,.89,.36,1.29,.15,.4,.32,.72,.51,.97h-.78c-.36-.51-.63-1.06-.82-1.66-.19-.6-.28-1.25-.28-1.97Z"
       id="path9744" />
    <path
       d="M71.32,19.97v-5.82h.88v2.53h2.9v-2.53h.88v5.82h-.88v-2.54h-2.9v2.54h-.88Z"
       id="path9746" />
    <path
       d="M79.14,19.97h-1.88v-5.82h1.94c.57,0,1.06,.12,1.47,.35s.72,.56,.94,1c.22,.43,.33,.95,.33,1.56s-.11,1.13-.33,1.56c-.22,.44-.54,.77-.96,1-.42,.23-.92,.35-1.51,.35Zm-1.01-.77h.96c.44,0,.81-.08,1.1-.25s.51-.41,.66-.73c.15-.32,.22-.71,.22-1.17s-.07-.84-.22-1.16c-.15-.32-.36-.56-.65-.72-.29-.16-.64-.25-1.07-.25h-1.01v4.28Z"
       id="path9748" />
    <path
       d="M84.91,19.97h-1.88v-5.82h1.94c.57,0,1.06,.12,1.47,.35s.72,.56,.94,1c.22,.43,.33,.95,.33,1.56s-.11,1.13-.33,1.56c-.22,.44-.54,.77-.96,1-.42,.23-.92,.35-1.51,.35Zm-1.01-.77h.96c.44,0,.81-.08,1.1-.25s.51-.41,.66-.73c.15-.32,.22-.71,.22-1.17s-.07-.84-.22-1.16c-.15-.32-.36-.56-.65-.72-.29-.16-.64-.25-1.07-.25h-1.01v4.28Z"
       id="path9750" />
    <path
       d="M89.47,19.17l-.04,.31c-.03,.23-.08,.46-.14,.71-.07,.25-.14,.48-.21,.69-.07,.21-.13,.38-.17,.51h-.6c.02-.12,.06-.28,.1-.48,.04-.2,.09-.42,.13-.67,.04-.25,.07-.5,.09-.75l.03-.32h.82Z"
       id="path9752" />
    <path
       d="M95.94,15.68c-.03-.27-.16-.48-.38-.63-.22-.15-.5-.22-.83-.22-.24,0-.44,.04-.62,.11s-.31,.18-.4,.31c-.1,.13-.14,.28-.14,.44,0,.14,.03,.26,.1,.36,.06,.1,.15,.18,.26,.25s.22,.12,.35,.17,.24,.08,.35,.11l.57,.15c.19,.05,.38,.11,.57,.18,.2,.08,.38,.18,.54,.31,.17,.13,.3,.28,.4,.47,.1,.19,.15,.41,.15,.67,0,.33-.08,.62-.25,.88-.17,.26-.41,.46-.74,.6-.32,.15-.71,.22-1.16,.22s-.81-.07-1.13-.21-.57-.33-.75-.59c-.18-.25-.28-.56-.3-.91h.88c.02,.21,.09,.38,.21,.52,.12,.14,.27,.24,.46,.31,.19,.07,.4,.1,.62,.1,.25,0,.47-.04,.66-.12,.19-.08,.35-.19,.46-.33s.17-.31,.17-.5c0-.17-.05-.31-.15-.42-.1-.11-.23-.2-.4-.27s-.35-.14-.56-.19l-.69-.19c-.47-.13-.83-.31-1.11-.56-.27-.25-.41-.57-.41-.98,0-.34,.09-.63,.27-.88,.18-.25,.43-.44,.74-.58s.66-.21,1.05-.21,.74,.07,1.04,.21,.54,.33,.71,.57c.17,.24,.27,.52,.27,.83h-.85Z"
       id="path9754" />
    <path
       d="M101.09,15.68c-.03-.27-.16-.48-.38-.63-.22-.15-.5-.22-.83-.22-.24,0-.44,.04-.62,.11s-.31,.18-.4,.31c-.1,.13-.14,.28-.14,.44,0,.14,.03,.26,.1,.36,.06,.1,.15,.18,.26,.25s.22,.12,.35,.17,.24,.08,.35,.11l.57,.15c.19,.05,.38,.11,.57,.18,.2,.08,.38,.18,.54,.31,.17,.13,.3,.28,.4,.47,.1,.19,.15,.41,.15,.67,0,.33-.08,.62-.25,.88-.17,.26-.41,.46-.74,.6-.32,.15-.71,.22-1.16,.22s-.81-.07-1.13-.21-.57-.33-.75-.59c-.18-.25-.28-.56-.3-.91h.88c.02,.21,.09,.38,.21,.52,.12,.14,.27,.24,.46,.31,.19,.07,.4,.1,.62,.1,.25,0,.47-.04,.66-.12,.19-.08,.35-.19,.46-.33s.17-.31,.17-.5c0-.17-.05-.31-.15-.42-.1-.11-.23-.2-.4-.27s-.35-.14-.56-.19l-.69-.19c-.47-.13-.83-.31-1.11-.56-.27-.25-.41-.57-.41-.98,0-.34,.09-.63,.27-.88,.18-.25,.43-.44,.74-.58s.66-.21,1.05-.21,.74,.07,1.04,.21,.54,.33,.71,.57c.17,.24,.27,.52,.27,.83h-.85Z"
       id="path9756" />
    <path
       d="M104.95,19.97h-1.88v-5.82h1.94c.57,0,1.06,.12,1.47,.35s.72,.56,.94,1c.22,.43,.33,.95,.33,1.56s-.11,1.13-.33,1.56c-.22,.44-.54,.77-.96,1-.42,.23-.92,.35-1.51,.35Zm-1.01-.77h.96c.44,0,.81-.08,1.1-.25s.51-.41,.66-.73c.15-.32,.22-.71,.22-1.17s-.07-.84-.22-1.16c-.15-.32-.36-.56-.65-.72-.29-.16-.64-.25-1.07-.25h-1.01v4.28Z"
       id="path9758" />
    <path
       d="M109.51,19.17l-.04,.31c-.03,.23-.08,.46-.14,.71-.07,.25-.14,.48-.21,.69-.07,.21-.13,.38-.17,.51h-.6c.02-.12,.06-.28,.1-.48,.04-.2,.09-.42,.13-.67,.04-.25,.07-.5,.09-.75l.03-.32h.82Z"
       id="path9760" />
    <path
       d="M117.5,14.15v5.82h-.81l-2.96-4.27h-.05v4.27h-.88v-5.82h.81l2.96,4.27h.05v-4.27h.87Z"
       id="path9762" />
    <path
       d="M119.28,14.15l1.62,4.74h.07l1.62-4.74h.95l-2.09,5.82h-1.01l-2.09-5.82h.95Z"
       id="path9764" />
    <path
       d="M124.37,14.15h1.07l1.85,4.52h.07l1.85-4.52h1.07v5.82h-.83v-4.21h-.05l-1.72,4.2h-.69l-1.72-4.2h-.05v4.21h-.84v-5.82Z"
       id="path9766" />
    <path
       d="M133.37,20.06c-.43,0-.8-.09-1.11-.28s-.55-.44-.72-.78c-.17-.34-.25-.73-.25-1.18s.08-.84,.25-1.18c.17-.34,.4-.61,.7-.8,.3-.19,.66-.29,1.06-.29,.25,0,.48,.04,.72,.12s.44,.21,.62,.38c.18,.17,.33,.4,.43,.68,.11,.28,.16,.61,.16,1.01v.3h-3.47v-.64h2.64c0-.22-.05-.42-.14-.6s-.22-.31-.38-.41c-.16-.1-.36-.15-.58-.15-.24,0-.45,.06-.62,.17-.18,.12-.31,.27-.41,.45-.1,.19-.14,.39-.14,.61v.5c0,.29,.05,.54,.15,.74,.1,.2,.25,.36,.43,.47,.19,.11,.4,.16,.65,.16,.16,0,.31-.02,.44-.07,.13-.05,.25-.12,.34-.21,.1-.09,.17-.21,.22-.34l.8,.15c-.06,.24-.18,.44-.35,.62-.17,.18-.37,.31-.62,.41-.25,.1-.53,.15-.85,.15Z"
       id="path9768" />
    <path
       d="M137.82,17.55c0,.71-.09,1.37-.28,1.97-.19,.6-.46,1.15-.82,1.66h-.78c.14-.19,.27-.42,.39-.69,.12-.27,.23-.57,.32-.9s.16-.66,.21-1.01c.05-.35,.08-.69,.08-1.03,0-.45-.04-.9-.13-1.37-.09-.46-.21-.89-.36-1.29-.15-.4-.32-.72-.51-.97h.78c.36,.51,.63,1.06,.82,1.66,.19,.6,.28,1.25,.28,1.97Z"
       id="path9770" />
  </g>
  <g
     id="g9792">
    <path
       d="M37.35,41.06h-1.88v-5.82h1.94c.57,0,1.06,.12,1.47,.35s.72,.56,.94,1c.22,.43,.33,.95,.33,1.56s-.11,1.13-.33,1.56c-.22,.44-.54,.77-.96,1-.42,.23-.92,.35-1.51,.35Zm-1.01-.77h.96c.44,0,.81-.08,1.1-.25s.51-.41,.66-.73c.15-.32,.22-.71,.22-1.17s-.07-.84-.22-1.16c-.15-.32-.36-.56-.65-.72-.29-.16-.64-.25-1.07-.25h-1.01v4.28Z"
       id="path9774" />
    <path
       d="M42.44,41.16c-.28,0-.53-.05-.75-.15-.22-.1-.4-.25-.53-.45-.13-.2-.19-.44-.19-.72,0-.25,.05-.45,.14-.61s.22-.29,.38-.38,.34-.16,.54-.21c.2-.05,.4-.08,.61-.11,.26-.03,.47-.06,.64-.08,.16-.02,.28-.05,.35-.1,.07-.05,.11-.12,.11-.22v-.02c0-.25-.07-.44-.21-.58s-.35-.2-.62-.2-.51,.06-.67,.19c-.16,.13-.28,.27-.34,.42l-.8-.18c.09-.27,.23-.48,.42-.64,.18-.16,.39-.28,.63-.36s.49-.11,.75-.11c.17,0,.36,.02,.56,.06,.2,.04,.38,.12,.55,.22s.31,.26,.42,.46,.16,.46,.16,.78v2.9h-.83v-.6h-.03c-.06,.11-.14,.22-.25,.32-.11,.11-.25,.19-.42,.26-.17,.07-.38,.1-.62,.1Zm.18-.68c.23,0,.44-.05,.6-.14,.17-.09,.3-.21,.38-.36,.09-.15,.13-.31,.13-.48v-.56s-.09,.06-.17,.08c-.09,.03-.18,.05-.29,.07s-.22,.03-.32,.05c-.1,.01-.19,.03-.26,.04-.16,.02-.31,.06-.45,.1-.14,.05-.24,.12-.32,.21-.08,.09-.12,.21-.12,.36,0,.21,.08,.37,.23,.48s.35,.16,.59,.16Z"
       id="path9776" />
    <path
       d="M47.76,36.7v.68h-2.38v-.68h2.38Zm-1.74-1.05h.85v4.13c0,.16,.02,.29,.07,.37,.05,.08,.11,.14,.19,.17,.08,.03,.16,.04,.26,.04,.07,0,.13,0,.18-.01,.05,0,.09-.02,.12-.02l.15,.7s-.12,.04-.21,.06c-.09,.02-.2,.03-.34,.03-.22,0-.43-.04-.62-.12-.19-.08-.35-.21-.47-.39-.12-.17-.18-.39-.18-.66v-4.3Z"
       id="path9778" />
    <path
       d="M49.97,41.16c-.28,0-.53-.05-.75-.15-.22-.1-.4-.25-.53-.45-.13-.2-.19-.44-.19-.72,0-.25,.05-.45,.14-.61s.22-.29,.38-.38,.34-.16,.54-.21c.2-.05,.4-.08,.61-.11,.26-.03,.47-.06,.64-.08,.16-.02,.28-.05,.35-.1,.07-.05,.11-.12,.11-.22v-.02c0-.25-.07-.44-.21-.58s-.35-.2-.62-.2-.51,.06-.67,.19c-.16,.13-.28,.27-.34,.42l-.8-.18c.09-.27,.23-.48,.42-.64,.18-.16,.39-.28,.63-.36s.49-.11,.75-.11c.17,0,.36,.02,.56,.06,.2,.04,.38,.12,.55,.22s.31,.26,.42,.46,.16,.46,.16,.78v2.9h-.83v-.6h-.03c-.06,.11-.14,.22-.25,.32-.11,.11-.25,.19-.42,.26-.17,.07-.38,.1-.62,.1Zm.18-.68c.23,0,.44-.05,.6-.14,.17-.09,.3-.21,.38-.36,.09-.15,.13-.31,.13-.48v-.56s-.09,.06-.17,.08c-.09,.03-.18,.05-.29,.07s-.22,.03-.32,.05c-.1,.01-.19,.03-.26,.04-.16,.02-.31,.06-.45,.1-.14,.05-.24,.12-.32,.21-.08,.09-.12,.21-.12,.36,0,.21,.08,.37,.23,.48s.35,.16,.59,.16Z"
       id="path9780" />
    <path
       d="M58.61,36.77c-.03-.27-.16-.48-.38-.63-.22-.15-.5-.22-.83-.22-.24,0-.44,.04-.62,.11s-.31,.18-.4,.31c-.1,.13-.14,.28-.14,.44,0,.14,.03,.26,.1,.36,.06,.1,.15,.18,.26,.25s.22,.12,.35,.17,.24,.08,.35,.11l.57,.15c.19,.05,.38,.11,.57,.18,.2,.08,.38,.18,.54,.31,.17,.13,.3,.28,.4,.47,.1,.19,.15,.41,.15,.67,0,.33-.08,.62-.25,.88-.17,.26-.41,.46-.74,.6-.32,.15-.71,.22-1.16,.22s-.81-.07-1.13-.21-.57-.33-.75-.59c-.18-.25-.28-.56-.3-.91h.88c.02,.21,.09,.38,.21,.52,.12,.14,.27,.24,.46,.31,.19,.07,.4,.1,.62,.1,.25,0,.47-.04,.66-.12,.19-.08,.35-.19,.46-.33s.17-.31,.17-.5c0-.17-.05-.31-.15-.42-.1-.11-.23-.2-.4-.27s-.35-.14-.56-.19l-.69-.19c-.47-.13-.83-.31-1.11-.56-.27-.25-.41-.57-.41-.98,0-.34,.09-.63,.27-.88,.18-.25,.43-.44,.74-.58s.66-.21,1.05-.21,.74,.07,1.04,.21,.54,.33,.71,.57c.17,.24,.27,.52,.27,.83h-.85Z"
       id="path9782" />
    <path
       d="M61.37,38.47v2.59h-.85v-5.82h.84v2.17h.05c.1-.23,.26-.42,.47-.56,.21-.14,.48-.21,.82-.21,.3,0,.56,.06,.79,.18,.22,.12,.4,.31,.52,.55s.19,.55,.19,.91v2.78h-.85v-2.67c0-.32-.08-.57-.25-.75-.16-.18-.39-.27-.69-.27-.2,0-.38,.04-.54,.13-.16,.08-.28,.21-.37,.37-.09,.16-.13,.36-.13,.59Z"
       id="path9784" />
    <path
       d="M66.6,41.16c-.28,0-.53-.05-.75-.15-.22-.1-.4-.25-.53-.45-.13-.2-.19-.44-.19-.72,0-.25,.05-.45,.14-.61s.22-.29,.38-.38,.34-.16,.54-.21c.2-.05,.4-.08,.61-.11,.26-.03,.47-.06,.64-.08,.16-.02,.28-.05,.35-.1,.07-.05,.11-.12,.11-.22v-.02c0-.25-.07-.44-.21-.58s-.35-.2-.62-.2-.51,.06-.67,.19c-.16,.13-.28,.27-.34,.42l-.8-.18c.09-.27,.23-.48,.42-.64,.18-.16,.39-.28,.63-.36s.49-.11,.75-.11c.17,0,.36,.02,.56,.06,.2,.04,.38,.12,.55,.22s.31,.26,.42,.46,.16,.46,.16,.78v2.9h-.83v-.6h-.03c-.06,.11-.14,.22-.25,.32-.11,.11-.25,.19-.42,.26-.17,.07-.38,.1-.62,.1Zm.18-.68c.23,0,.44-.05,.6-.14,.17-.09,.3-.21,.38-.36,.09-.15,.13-.31,.13-.48v-.56s-.09,.06-.17,.08c-.09,.03-.18,.05-.29,.07s-.22,.03-.32,.05c-.1,.01-.19,.03-.26,.04-.16,.02-.31,.06-.45,.1-.14,.05-.24,.12-.32,.21-.08,.09-.12,.21-.12,.36,0,.21,.08,.37,.23,.48s.35,.16,.59,.16Z"
       id="path9786" />
    <path
       d="M69.89,41.06v-4.36h.82v.69h.05c.08-.23,.22-.42,.42-.56,.2-.14,.43-.2,.69-.2,.05,0,.12,0,.19,0s.13,0,.17,.01v.81s-.09-.02-.18-.03c-.09-.01-.17-.02-.26-.02-.2,0-.38,.04-.54,.13-.16,.08-.28,.2-.37,.35-.09,.15-.14,.32-.14,.51v2.66h-.85Z"
       id="path9788" />
    <path
       d="M74.44,41.14c-.35,0-.67-.09-.94-.27-.28-.18-.49-.44-.65-.78-.16-.34-.23-.74-.23-1.21s.08-.88,.24-1.21c.16-.34,.38-.59,.65-.77,.28-.18,.59-.27,.94-.27,.27,0,.49,.04,.65,.13,.17,.09,.29,.19,.39,.31,.09,.12,.16,.22,.21,.32h.05v-2.16h.85v5.82h-.83v-.68h-.07c-.05,.09-.12,.2-.22,.32s-.23,.22-.39,.31c-.17,.09-.38,.13-.65,.13Zm.19-.72c.24,0,.45-.06,.62-.19,.17-.13,.3-.31,.39-.54,.09-.23,.13-.5,.13-.81s-.04-.57-.13-.8c-.09-.23-.21-.4-.38-.53-.17-.13-.38-.19-.62-.19s-.47,.07-.64,.2c-.17,.13-.3,.31-.39,.54-.09,.23-.13,.49-.13,.78s.04,.55,.13,.79c.09,.23,.22,.42,.39,.55,.17,.14,.38,.2,.63,.2Z"
       id="path9790" />
  </g>
  <g
     id="g9816">
    <path
       d="M36.01,62.97v-5.82h2.07c.45,0,.83,.08,1.12,.25s.52,.39,.67,.67c.15,.29,.22,.61,.22,.96s-.07,.68-.22,.96c-.15,.29-.37,.51-.67,.68-.3,.17-.67,.25-1.12,.25h-1.43v-.74h1.35c.29,0,.52-.05,.7-.15s.31-.24,.39-.41c.08-.17,.12-.37,.12-.59s-.04-.42-.12-.59c-.08-.17-.21-.3-.39-.4-.18-.1-.41-.14-.71-.14h-1.1v5.07h-.88Z"
       id="path9794" />
    <path
       d="M42.28,63.07c-.28,0-.53-.05-.75-.16s-.4-.25-.53-.45-.19-.44-.19-.72c0-.25,.05-.45,.14-.61s.22-.29,.38-.38,.34-.16,.54-.21c.2-.05,.4-.08,.61-.11,.26-.03,.47-.06,.64-.08,.16-.02,.28-.05,.35-.1,.07-.04,.11-.12,.11-.22v-.02c0-.25-.07-.44-.21-.58-.14-.14-.35-.21-.62-.21s-.51,.06-.67,.19c-.16,.13-.28,.27-.34,.42l-.8-.18c.09-.27,.23-.48,.42-.64,.18-.16,.39-.28,.63-.36,.24-.07,.49-.11,.75-.11,.17,0,.36,.02,.56,.06,.2,.04,.38,.12,.55,.22,.17,.11,.31,.26,.42,.46,.11,.2,.16,.46,.16,.78v2.9h-.83v-.6h-.03c-.06,.11-.14,.22-.25,.32-.11,.11-.25,.19-.42,.26-.17,.07-.38,.11-.62,.11Zm.18-.68c.23,0,.44-.05,.6-.14,.17-.09,.3-.21,.38-.37,.09-.15,.13-.31,.13-.48v-.56s-.09,.06-.17,.08c-.09,.03-.18,.05-.29,.07-.11,.02-.22,.03-.32,.05-.1,.01-.19,.03-.26,.04-.16,.02-.31,.06-.45,.1-.14,.05-.24,.12-.32,.21-.08,.09-.12,.21-.12,.37,0,.21,.08,.37,.23,.48,.16,.11,.35,.16,.59,.16Z"
       id="path9796" />
    <path
       d="M45.57,62.97v-4.36h.82v.69h.05c.08-.23,.22-.42,.42-.56,.2-.13,.43-.2,.69-.2,.05,0,.12,0,.19,0s.13,0,.17,.01v.81s-.09-.02-.18-.03c-.09-.01-.17-.02-.26-.02-.2,0-.38,.04-.54,.13s-.28,.2-.37,.35c-.09,.15-.14,.32-.14,.51v2.67h-.85Z"
       id="path9798" />
    <path
       d="M49.07,57.94c-.15,0-.27-.05-.38-.15-.1-.1-.16-.22-.16-.36s.05-.26,.16-.36c.11-.1,.23-.15,.38-.15s.27,.05,.38,.15c.1,.1,.16,.22,.16,.36s-.05,.26-.16,.36c-.11,.1-.23,.15-.38,.15Zm-.43,5.04v-4.36h.85v4.36h-.85Z"
       id="path9800" />
    <path
       d="M52.67,58.61v.68h-2.38v-.68h2.38Zm-1.74-1.04h.85v4.13c0,.16,.02,.29,.07,.37,.05,.08,.11,.14,.19,.17s.16,.04,.26,.04c.07,0,.13,0,.18-.01,.05,0,.09-.02,.12-.02l.15,.7s-.12,.04-.21,.06c-.09,.02-.2,.03-.34,.03-.22,0-.43-.04-.62-.12-.19-.08-.35-.21-.47-.39-.12-.17-.18-.39-.18-.66v-4.3Z"
       id="path9802" />
    <path
       d="M54.15,64.6c-.13,0-.24,0-.35-.03-.1-.02-.18-.04-.23-.06l.2-.7c.23,.06,.43,.07,.59,.02,.16-.05,.29-.22,.4-.5l.1-.29-1.6-4.42h.91l1.11,3.39h.05l1.1-3.39h.92s-1.8,4.95-1.8,4.95c-.08,.23-.19,.42-.32,.57s-.28,.27-.46,.35c-.18,.08-.38,.12-.62,.12Z"
       id="path9804" />
    <path
       d="M63.51,58.68c-.03-.27-.16-.48-.38-.63-.22-.15-.5-.22-.83-.22-.24,0-.44,.04-.62,.11-.17,.08-.31,.18-.4,.31-.1,.13-.14,.28-.14,.44,0,.14,.03,.26,.1,.36,.06,.1,.15,.18,.26,.25s.22,.12,.35,.17c.12,.04,.24,.08,.35,.11l.57,.15c.19,.04,.38,.11,.57,.18,.2,.08,.38,.18,.54,.31,.17,.13,.3,.28,.4,.47,.1,.19,.15,.41,.15,.67,0,.33-.08,.62-.25,.88s-.41,.46-.74,.61c-.32,.15-.71,.22-1.16,.22s-.81-.07-1.13-.21c-.32-.14-.57-.33-.75-.59-.18-.25-.28-.56-.3-.91h.88c.02,.21,.09,.38,.21,.52,.12,.14,.27,.24,.46,.31s.4,.1,.62,.1c.25,0,.47-.04,.66-.12,.19-.08,.35-.19,.46-.33,.11-.14,.17-.31,.17-.5,0-.17-.05-.31-.15-.42-.1-.11-.23-.2-.4-.27-.17-.07-.35-.14-.56-.19l-.69-.19c-.47-.13-.83-.31-1.11-.56-.27-.25-.41-.57-.41-.98,0-.33,.09-.63,.27-.88,.18-.25,.43-.44,.74-.58,.31-.14,.66-.21,1.05-.21s.74,.07,1.04,.21c.3,.14,.54,.33,.71,.57s.27,.52,.27,.83h-.85Z"
       id="path9806" />
    <path
       d="M66.26,60.38v2.59h-.85v-5.82h.84v2.17h.05c.1-.24,.26-.42,.47-.56,.21-.14,.48-.21,.82-.21,.3,0,.56,.06,.79,.18,.22,.12,.4,.31,.52,.55s.19,.55,.19,.91v2.78h-.85v-2.67c0-.32-.08-.57-.25-.75-.16-.18-.39-.27-.69-.27-.2,0-.38,.04-.54,.13-.16,.08-.28,.21-.37,.37-.09,.16-.13,.36-.13,.59Z"
       id="path9808" />
    <path
       d="M71.5,63.07c-.28,0-.53-.05-.75-.16s-.4-.25-.53-.45-.19-.44-.19-.72c0-.25,.05-.45,.14-.61s.22-.29,.38-.38,.34-.16,.54-.21c.2-.05,.4-.08,.61-.11,.26-.03,.47-.06,.64-.08,.16-.02,.28-.05,.35-.1,.07-.04,.11-.12,.11-.22v-.02c0-.25-.07-.44-.21-.58-.14-.14-.35-.21-.62-.21s-.51,.06-.67,.19c-.16,.13-.28,.27-.34,.42l-.8-.18c.09-.27,.23-.48,.42-.64,.18-.16,.39-.28,.63-.36,.24-.07,.49-.11,.75-.11,.17,0,.36,.02,.56,.06,.2,.04,.38,.12,.55,.22,.17,.11,.31,.26,.42,.46,.11,.2,.16,.46,.16,.78v2.9h-.83v-.6h-.03c-.06,.11-.14,.22-.25,.32-.11,.11-.25,.19-.42,.26-.17,.07-.38,.11-.62,.11Zm.18-.68c.23,0,.44-.05,.6-.14,.17-.09,.3-.21,.38-.37,.09-.15,.13-.31,.13-.48v-.56s-.09,.06-.17,.08c-.09,.03-.18,.05-.29,.07-.11,.02-.22,.03-.32,.05-.1,.01-.19,.03-.26,.04-.16,.02-.31,.06-.45,.1-.14,.05-.24,.12-.32,.21-.08,.09-.12,.21-.12,.37,0,.21,.08,.37,.23,.48,.16,.11,.35,.16,.59,.16Z"
       id="path9810" />
    <path
       d="M74.78,62.97v-4.36h.82v.69h.05c.08-.23,.22-.42,.42-.56,.2-.13,.43-.2,.69-.2,.05,0,.12,0,.19,0s.13,0,.17,.01v.81s-.09-.02-.18-.03c-.09-.01-.17-.02-.26-.02-.2,0-.38,.04-.54,.13s-.28,.2-.37,.35c-.09,.15-.14,.32-.14,.51v2.67h-.85Z"
       id="path9812" />
    <path
       d="M79.33,63.06c-.35,0-.67-.09-.94-.27-.28-.18-.49-.44-.65-.78s-.23-.74-.23-1.21,.08-.88,.24-1.21c.16-.33,.38-.59,.65-.77,.28-.18,.59-.27,.94-.27,.27,0,.49,.04,.65,.13,.17,.09,.29,.2,.39,.31s.16,.22,.21,.32h.05v-2.16h.85v5.82h-.83v-.68h-.07c-.05,.09-.12,.2-.22,.32s-.23,.22-.39,.31c-.17,.09-.38,.13-.65,.13Zm.19-.72c.24,0,.45-.06,.62-.19s.3-.31,.39-.54c.09-.23,.13-.5,.13-.81s-.04-.57-.13-.8c-.09-.23-.21-.4-.38-.53s-.38-.19-.62-.19-.47,.07-.64,.2-.3,.31-.39,.54c-.09,.23-.13,.49-.13,.78s.04,.55,.13,.79c.09,.23,.22,.42,.39,.55,.17,.14,.38,.2,.63,.2Z"
       id="path9814" />
  </g>
  <g
     id="g9836">
    <g
       id="g9832">
      <path
         class="m"
         d="M19.91,20.55h-4.85c-.3,0-.59-.13-.8-.35-.2-.22-.31-.52-.29-.82l.42-5.84c.04-.57,.52-1.01,1.08-1.01h4c.57,0,1.04,.44,1.08,1.01l.42,5.84c.02,.3-.08,.6-.29,.82-.2,.22-.49,.35-.8,.35Z"
         id="path9818" />
      <path
         id="rect9820"
         class="k"
         style="fill:#ffffff"
         d="m 15.56,12.73 c 0.12742,0 0.23,0.10258 0.23,0.23 v 1.01 c 0,0.12742 -0.10258,0.23 -0.23,0.23 -0.12742,0 -0.23,-0.10258 -0.23,-0.23 v -1.01 c 0,-0.12742 0.10258,-0.23 0.23,-0.23 z" />
      <path
         id="rect9822"
         class="k"
         style="fill:#ffffff"
         d="m 16.510001,12.73 c 0.12742,0 0.23,0.10258 0.23,0.23 v 1.29 c 0,0.12742 -0.10258,0.23 -0.23,0.23 -0.12742,0 -0.23,-0.10258 -0.23,-0.23 v -1.29 c 0,-0.12742 0.10258,-0.23 0.23,-0.23 z" />
      <path
         id="rect9824"
         class="k"
         style="fill:#ffffff"
         d="m 18.4,12.73 c 0.12742,0 0.23,0.10258 0.23,0.23 v 1.29 c 0,0.12742 -0.10258,0.23 -0.23,0.23 -0.12742,0 -0.23,-0.10258 -0.23,-0.23 v -1.29 c 0,-0.12742 0.10258,-0.23 0.23,-0.23 z" />
      <path
         id="rect9826"
         class="k"
         style="fill:#ffffff"
         d="m 19.350001,12.73 c 0.12742,0 0.23,0.10258 0.23,0.23 v 1.01 c 0,0.12742 -0.10258,0.23 -0.23,0.23 -0.12742,0 -0.23,-0.10258 -0.23,-0.23 v -1.01 c 0,-0.12742 0.10258,-0.23 0.23,-0.23 z" />
      <path
         id="rect9828"
         class="k"
         style="fill:#ffffff"
         d="m 17.46,12.73 c 0.12742,0 0.23,0.10258 0.23,0.23 v 1.01 c 0,0.12742 -0.10258,0.23 -0.23,0.23 -0.12742,0 -0.23,-0.10258 -0.23,-0.23 v -1.01 c 0,-0.12742 0.10258,-0.23 0.23,-0.23 z" />
      <path
         class="e"
         d="M19.91,20.55h-4.85c-.3,0-.59-.13-.8-.35-.2-.22-.31-.52-.29-.82l.42-5.84c.04-.57,.52-1.01,1.08-1.01h4c.57,0,1.04,.44,1.08,1.01l.42,5.84c.02,.3-.08,.6-.29,.82-.2,.22-.49,.35-.8,.35Z"
         id="path9830" />
    </g>
    <path
       id="line9834"
       class="g"
       style="fill:none;stroke:#ffffff;stroke-width:0.31px;stroke-linecap:round;stroke-miterlimit:10"
       d="m 14.81,18.83 h 5.579999" />
  </g>
  <path
     id="rect9838"
     class="n"
     style="fill:#122745"
     d="m 15.15,33.380001 h 5.63 c 0.67034,0 1.21,0.53966 1.21,1.21 v 6.94 c 0,0.67034 -0.53966,1.21 -1.21,1.21 h -5.63 c -0.67034,0 -1.21,-0.53966 -1.21,-1.21 v -6.94 c 0,-0.67034 0.53966,-1.21 1.21,-1.21 z" />
  <path
     class="k"
     d="M17.74,40.06h-1.41v-4.36h1.46c.43,0,.79,.09,1.1,.26,.31,.17,.54,.42,.71,.75,.16,.32,.25,.71,.25,1.17s-.08,.84-.25,1.17c-.17,.33-.4,.58-.72,.75s-.69,.26-1.13,.26Zm-.75-.58h.72c.33,0,.61-.06,.83-.19,.22-.13,.38-.31,.49-.55,.11-.24,.16-.53,.16-.88s-.05-.63-.16-.87c-.11-.24-.27-.42-.48-.54s-.48-.19-.8-.19h-.76v3.21Z"
     id="path9840" />
  <g
     id="g9846">
    <path
       id="rect9842"
       class="m"
       style="fill:#cf2144"
       d="m 15.15,53.57 h 5.63 c 1.22434,0 2.21,0.98566 2.21,2.21 v 6.939999 c 0,1.22434 -0.98566,2.21 -2.21,2.21 h -5.63 c -1.22434,0 -2.21,-0.98566 -2.21,-2.21 V 55.78 c 0,-1.22434 0.98566,-2.21 2.21,-2.21 z" />
    <path
       class="j"
       d="M20.78,54.57c.67,0,1.21,.55,1.21,1.21v6.93c0,.67-.55,1.21-1.21,1.21h-5.62c-.67,0-1.21-.55-1.21-1.21v-6.93c0-.67,.55-1.21,1.21-1.21h5.62m0-2h-5.62c-1.77,0-3.21,1.44-3.21,3.21v6.93c0,1.77,1.44,3.21,3.21,3.21h5.62c1.77,0,3.21-1.44,3.21-3.21v-6.93c0-1.77-1.44-3.21-3.21-3.21h0Z"
       id="path9844" />
  </g>
  <path
     class="k"
     d="M16.57,61.17v-4.36h1.56c.34,0,.62,.06,.84,.19,.22,.12,.39,.29,.5,.51s.17,.45,.17,.72-.06,.51-.17,.72c-.11,.21-.28,.38-.5,.51-.22,.12-.5,.19-.84,.19h-1.07v-.56h1.01c.21,0,.39-.04,.52-.11,.13-.07,.23-.18,.29-.31,.06-.13,.09-.28,.09-.44s-.03-.31-.09-.44c-.06-.13-.16-.23-.29-.3-.13-.07-.31-.11-.53-.11h-.83v3.8h-.66Z"
     id="path9848" />
</svg>
