<svg version="1.1" viewBox="0.0 0.0 644.9606299212599 260.84776902887137" fill="none" stroke="none" stroke-linecap="square" stroke-miterlimit="10" xmlns:xlink="http://www.w3.org/1999/xlink" xmlns="http://www.w3.org/2000/svg"><clipPath id="p.0"><path d="m0 0l644.96063 0l0 260.84778l-644.96063 0l0 -260.84778z" clip-rule="nonzero"/></clipPath><g clip-path="url(#p.0)"><path fill="#000000" fill-opacity="0.0" d="m0 0l644.96063 0l0 260.84778l-644.96063 0z" fill-rule="evenodd"/><path fill="#c72e49" d="m9.245407 143.21008l0 0c0 -3.220993 2.6111364 -5.832123 5.832137 -5.832123l614.00507 0c1.5467529 0 3.0302124 0.6144409 4.1239014 1.7081909c1.09375 1.0937347 1.7081909 2.5771637 1.7081909 4.123932l0 23.327866c0 3.220993 -2.611084 5.832123 -5.8320923 5.832123l-614.00507 0c-3.2210007 0 -5.832137 -2.6111298 -5.832137 -5.832123z" fill-rule="evenodd"/><path stroke="#980000" stroke-width="4.0" stroke-linejoin="round" stroke-linecap="butt" d="m9.245407 143.21008l0 0c0 -3.220993 2.6111364 -5.832123 5.832137 -5.832123l614.00507 0c1.5467529 0 3.0302124 0.6144409 4.1239014 1.7081909c1.09375 1.0937347 1.7081909 2.5771637 1.7081909 4.123932l0 23.327866c0 3.220993 -2.611084 5.832123 -5.8320923 5.832123l-614.00507 0c-3.2210007 0 -5.832137 -2.6111298 -5.832137 -5.832123z" fill-rule="evenodd"/><path fill="#ffffff" d="m297.50076 161.794l0 -13.359375l4.03125 0l2.421875 9.109375l2.390625 -9.109375l4.046875 0l0 13.359375l-2.5 0l0 -10.515625l-2.65625 10.515625l-2.59375 0l-2.640625 -10.515625l0 10.515625l-2.5 0zm15.556427 -10.984375l0 -2.375l2.5625 0l0 2.375l-2.5625 0zm0 10.984375l0 -9.671875l2.5625 0l0 9.671875l-2.5625 0zm13.980194 0l-2.5625 0l0 -4.9375q0 -1.5625 -0.171875 -2.015625q-0.15625 -0.46875 -0.53125 -0.71875q-0.359375 -0.265625 -0.875 -0.265625q-0.671875 0 -1.203125 0.375q-0.53125 0.359375 -0.734375 0.96875q-0.1875 0.59375 -0.1875 2.21875l0 4.375l-2.546875 0l0 -9.671875l2.375 0l0 1.421875q1.265625 -1.640625 3.1875 -1.640625q0.84375 0 1.546875 0.3125q0.703125 0.296875 1.0625 0.78125q0.359375 0.46875 0.5 1.078125q0.140625 0.59375 0.140625 1.703125l0 6.015625zm2.5365906 0l0 -13.359375l2.6875 0l0 13.359375l-2.6875 0zm4.714569 -6.59375q0 -2.046875 0.609375 -3.421875q0.453125 -1.03125 1.234375 -1.828125q0.796875 -0.8125 1.734375 -1.203125q1.25 -0.53125 2.875 -0.53125q2.953125 0 4.71875 1.828125q1.78125 1.828125 1.78125 5.09375q0 3.234375 -1.765625 5.0625q-1.75 1.828125 -4.6875 1.828125q-2.984375 0 -4.75 -1.8125q-1.75 -1.828125 -1.75 -5.015625zm2.78125 -0.09375q0 2.265625 1.046875 3.4375q1.046875 1.171875 2.65625 1.171875q1.609375 0 2.640625 -1.15625q1.046875 -1.171875 1.046875 -3.484375q0 -2.296875 -1.015625 -3.421875q-1.0 -1.140625 -2.671875 -1.140625q-1.671875 0 -2.6875 1.15625q-1.015625 1.140625 -1.015625 3.4375z" fill-rule="nonzero"/><path fill="#000000" fill-opacity="0.0" d="m322.01706 54.85827l0 41.259842l0.06298828 0l0 41.25985" fill-rule="evenodd"/><path stroke="#000000" stroke-width="1.0" stroke-linejoin="round" stroke-linecap="butt" d="m322.01706 54.85827l0 41.259842l0.06298828 0l0 35.25985" fill-rule="evenodd"/><path fill="#000000" stroke="#000000" stroke-width="1.0" stroke-linecap="butt" d="m320.4283 131.37796l1.6517334 4.538086l1.6517334 -4.538086z" fill-rule="evenodd"/><path fill="#00303f" d="m9.245407 79.21009l0 0c0 -3.2210007 2.6111364 -5.832138 5.832137 -5.832138l614.00507 0c1.5467529 0 3.0302124 0.6144562 4.1239014 1.7081909c1.09375 1.0937424 1.7081909 2.5771713 1.7081909 4.123947l0 23.32785c0 3.2210007 -2.611084 5.832138 -5.8320923 5.832138l-614.00507 0c-3.2210007 0 -5.832137 -2.6111374 -5.832137 -5.832138z" fill-rule="evenodd"/><path stroke="#980000" stroke-width="4.0" stroke-linejoin="round" stroke-linecap="butt" d="m9.245407 79.21009l0 0c0 -3.2210007 2.6111364 -5.832138 5.832137 -5.832138l614.00507 0c1.5467529 0 3.0302124 0.6144562 4.1239014 1.7081909c1.09375 1.0937424 1.7081909 2.5771713 1.7081909 4.123947l0 23.32785c0 3.2210007 -2.611084 5.832138 -5.8320923 5.832138l-614.00507 0c-3.2210007 0 -5.832137 -2.6111374 -5.832137 -5.832138z" fill-rule="evenodd"/><path fill="#ffffff" d="m259.2364 97.794014l0 -13.25l2.6875 0l0 11.0l6.703125 0l0 2.25l-9.390625 0zm10.708466 -4.96875q0 -1.28125 0.625 -2.46875q0.625 -1.203125 1.78125 -1.828125q1.15625 -0.625 2.578125 -0.625q2.1875 0 3.59375 1.421875q1.40625 1.421875 1.40625 3.609375q0 2.1875 -1.421875 3.640625q-1.421875 1.4375 -3.5625 1.4375q-1.328125 0 -2.546875 -0.59375q-1.203125 -0.609375 -1.828125 -1.765625q-0.625 -1.171875 -0.625 -2.828125zm2.625 0.125q0 1.453125 0.671875 2.21875q0.6875 0.75 1.6875 0.75q1.0 0 1.671875 -0.75q0.6875 -0.765625 0.6875 -2.234375q0 -1.421875 -0.6875 -2.1875q-0.671875 -0.765625 -1.671875 -0.765625q-1.0 0 -1.6875 0.765625q-0.671875 0.765625 -0.671875 2.203125zm11.270996 -1.875l-2.328125 -0.421875q0.40625 -1.40625 1.359375 -2.078125q0.953125 -0.671875 2.84375 -0.671875q1.703125 0 2.546875 0.40625q0.84375 0.40625 1.171875 1.03125q0.34375 0.625 0.34375 2.28125l-0.015625 3.0q0 1.265625 0.109375 1.875q0.125 0.609375 0.46875 1.296875l-2.53125 0q-0.109375 -0.25 -0.25 -0.75q-0.0625 -0.234375 -0.09375 -0.3125q-0.65625 0.640625 -1.40625 0.96875q-0.734375 0.3125 -1.59375 0.3125q-1.484375 0 -2.34375 -0.8125q-0.859375 -0.8125 -0.859375 -2.046875q0 -0.828125 0.390625 -1.46875q0.390625 -0.640625 1.09375 -0.96875q0.703125 -0.34375 2.03125 -0.609375q1.796875 -0.328125 2.484375 -0.625l0 -0.25q0 -0.75 -0.359375 -1.0625q-0.359375 -0.3125 -1.375 -0.3125q-0.6875 0 -1.078125 0.28125q-0.375 0.265625 -0.609375 0.9375zm3.421875 2.078125q-0.484375 0.15625 -1.5625 0.390625q-1.0625 0.21875 -1.390625 0.4375q-0.5 0.359375 -0.5 0.90625q0 0.53125 0.40625 0.9375q0.40625 0.390625 1.015625 0.390625q0.703125 0 1.328125 -0.46875q0.46875 -0.34375 0.609375 -0.84375q0.09375 -0.328125 0.09375 -1.25l0 -0.5zm13.922607 4.640625l-2.390625 0l0 -1.421875q-0.59375 0.828125 -1.40625 1.234375q-0.796875 0.40625 -1.609375 0.40625q-1.671875 0 -2.859375 -1.34375q-1.1875 -1.34375 -1.1875 -3.75q0 -2.453125 1.15625 -3.734375q1.15625 -1.28125 2.921875 -1.28125q1.625 0 2.8125 1.34375l0 -4.8125l2.5625 0l0 13.359375zm-6.84375 -5.046875q0 1.546875 0.4375 2.234375q0.609375 1.015625 1.71875 1.015625q0.890625 0 1.5 -0.75q0.625 -0.765625 0.625 -2.25q0 -1.671875 -0.609375 -2.40625q-0.59375 -0.734375 -1.53125 -0.734375q-0.90625 0 -1.53125 0.734375q-0.609375 0.71875 -0.609375 2.15625zm14.56366 -8.3125l5.34375 0q1.59375 0 2.359375 0.140625q0.78125 0.125 1.390625 0.546875q0.625 0.421875 1.03125 1.125q0.40625 0.6875 0.40625 1.546875q0 0.9375 -0.5 1.734375q-0.5 0.78125 -1.375 1.171875q1.21875 0.359375 1.875 1.21875q0.65625 0.84375 0.65625 2.0q0 0.921875 -0.421875 1.78125q-0.421875 0.859375 -1.15625 1.375q-0.734375 0.515625 -1.796875 0.625q-0.6875 0.078125 -3.265625 0.09375l-4.546875 0l0 -13.359375zm2.703125 2.234375l0 3.078125l1.765625 0q1.578125 0 1.953125 -0.046875q0.703125 -0.078125 1.09375 -0.46875q0.40625 -0.40625 0.40625 -1.046875q0 -0.625 -0.34375 -1.0q-0.34375 -0.390625 -1.015625 -0.484375q-0.40625 -0.03125 -2.3125 -0.03125l-1.546875 0zm0 5.296875l0 3.578125l2.5 0q1.453125 0 1.84375 -0.078125q0.609375 -0.109375 0.984375 -0.53125q0.375 -0.421875 0.375 -1.140625q0 -0.59375 -0.296875 -1.015625q-0.28125 -0.421875 -0.84375 -0.609375q-0.546875 -0.203125 -2.390625 -0.203125l-2.171875 0zm12.660431 -0.890625l-2.328125 -0.421875q0.40625 -1.40625 1.359375 -2.078125q0.953125 -0.671875 2.84375 -0.671875q1.703125 0 2.546875 0.40625q0.84375 0.40625 1.171875 1.03125q0.34375 0.625 0.34375 2.28125l-0.015625 3.0q0 1.265625 0.109375 1.875q0.125 0.609375 0.46875 1.296875l-2.53125 0q-0.109375 -0.25 -0.25 -0.75q-0.0625 -0.234375 -0.09375 -0.3125q-0.65625 0.640625 -1.40625 0.96875q-0.734375 0.3125 -1.59375 0.3125q-1.484375 0 -2.34375 -0.8125q-0.859375 -0.8125 -0.859375 -2.046875q0 -0.828125 0.390625 -1.46875q0.390625 -0.640625 1.09375 -0.96875q0.703125 -0.34375 2.03125 -0.609375q1.796875 -0.328125 2.484375 -0.625l0 -0.25q0 -0.75 -0.359375 -1.0625q-0.359375 -0.3125 -1.375 -0.3125q-0.6875 0 -1.078125 0.28125q-0.375 0.265625 -0.609375 0.9375zm3.421875 2.078125q-0.484375 0.15625 -1.5625 0.390625q-1.0625 0.21875 -1.390625 0.4375q-0.5 0.359375 -0.5 0.90625q0 0.53125 0.40625 0.9375q0.40625 0.390625 1.015625 0.390625q0.703125 0 1.328125 -0.46875q0.46875 -0.34375 0.609375 -0.84375q0.09375 -0.328125 0.09375 -1.25l0 -0.5zm5.047577 4.640625l0 -13.359375l2.5625 0l0 13.359375l-2.5625 0zm7.089569 -6.71875l-2.328125 -0.421875q0.40625 -1.40625 1.359375 -2.078125q0.953125 -0.671875 2.84375 -0.671875q1.703125 0 2.546875 0.40625q0.84375 0.40625 1.171875 1.03125q0.34375 0.625 0.34375 2.28125l-0.015625 3.0q0 1.265625 0.109375 1.875q0.125 0.609375 0.46875 1.296875l-2.53125 0q-0.109375 -0.25 -0.25 -0.75q-0.0625 -0.234375 -0.09375 -0.3125q-0.65625 0.640625 -1.40625 0.96875q-0.734375 0.3125 -1.59375 0.3125q-1.484375 0 -2.34375 -0.8125q-0.859375 -0.8125 -0.859375 -2.046875q0 -0.828125 0.390625 -1.46875q0.390625 -0.640625 1.09375 -0.96875q0.703125 -0.34375 2.03125 -0.609375q1.796875 -0.328125 2.484375 -0.625l0 -0.25q0 -0.75 -0.359375 -1.0625q-0.359375 -0.3125 -1.375 -0.3125q-0.6875 0 -1.078125 0.28125q-0.375 0.265625 -0.609375 0.9375zm3.421875 2.078125q-0.484375 0.15625 -1.5625 0.390625q-1.0625 0.21875 -1.390625 0.4375q-0.5 0.359375 -0.5 0.90625q0 0.53125 0.40625 0.9375q0.40625 0.390625 1.015625 0.390625q0.703125 0 1.328125 -0.46875q0.46875 -0.34375 0.609375 -0.84375q0.09375 -0.328125 0.09375 -1.25l0 -0.5zm13.844452 4.640625l-2.5625 0l0 -4.9375q0 -1.5625 -0.171875 -2.015625q-0.15625 -0.46875 -0.53125 -0.71875q-0.359375 -0.265625 -0.875 -0.265625q-0.671875 0 -1.203125 0.375q-0.53125 0.359375 -0.734375 0.96875q-0.1875 0.59375 -0.1875 2.21875l0 4.375l-2.546875 0l0 -9.671875l2.375 0l0 1.421875q1.265625 -1.640625 3.1875 -1.640625q0.84375 0 1.546875 0.3125q0.703125 0.296875 1.0625 0.78125q0.359375 0.46875 0.5 1.078125q0.140625 0.59375 0.140625 1.703125l0 6.015625zm11.036621 -6.8125l-2.53125 0.453125q-0.125 -0.75 -0.578125 -1.125q-0.453125 -0.390625 -1.171875 -0.390625q-0.953125 0 -1.53125 0.65625q-0.5625 0.65625 -0.5625 2.203125q0 1.734375 0.578125 2.4375q0.578125 0.703125 1.546875 0.703125q0.734375 0 1.203125 -0.40625q0.46875 -0.421875 0.65625 -1.421875l2.515625 0.421875q-0.390625 1.734375 -1.515625 2.625q-1.109375 0.875 -2.96875 0.875q-2.125 0 -3.390625 -1.328125q-1.25 -1.34375 -1.25 -3.71875q0 -2.390625 1.265625 -3.71875q1.265625 -1.34375 3.421875 -1.34375q1.765625 0 2.796875 0.765625q1.046875 0.75 1.515625 2.3125zm7.5319824 3.734375l2.546875 0.421875q-0.484375 1.40625 -1.546875 2.140625q-1.0625 0.734375 -2.65625 0.734375q-2.515625 0 -3.734375 -1.65625q-0.953125 -1.3125 -0.953125 -3.328125q0 -2.40625 1.25 -3.765625q1.265625 -1.359375 3.1875 -1.359375q2.15625 0 3.40625 1.421875q1.25 1.421875 1.1875 4.375l-6.40625 0q0.03125 1.140625 0.609375 1.78125q0.59375 0.625 1.484375 0.625q0.59375 0 1.0 -0.328125q0.421875 -0.328125 0.625 -1.0625zm0.15625 -2.59375q-0.03125 -1.109375 -0.578125 -1.6875q-0.546875 -0.578125 -1.328125 -0.578125q-0.84375 0 -1.390625 0.609375q-0.546875 0.609375 -0.53125 1.65625l3.828125 0zm7.078827 5.671875l-2.5625 0l0 -9.671875l2.375 0l0 1.375q0.609375 -0.984375 1.09375 -1.28125q0.484375 -0.3125 1.109375 -0.3125q0.875 0 1.6875 0.484375l-0.796875 2.234375q-0.640625 -0.421875 -1.203125 -0.421875q-0.53125 0 -0.90625 0.296875q-0.375 0.296875 -0.59375 1.078125q-0.203125 0.765625 -0.203125 3.234375l0 2.984375z" fill-rule="nonzero"/><path fill="#efefef" d="m237.32545 6.9501314l169.51183 0l0 47.905514l-169.51183 0z" fill-rule="evenodd"/><path stroke="#c72e49" stroke-width="1.0" stroke-linejoin="round" stroke-linecap="butt" d="m237.32545 6.9501314l169.51183 0l0 47.905514l-169.51183 0z" fill-rule="evenodd"/><path fill="#000000" d="m246.74733 34.142887l0 -0.8125l3.71875 -2.093752l-3.6875 -1.875l0 -0.765625l4.515625 2.375l0 0.515625l-4.546875 2.656252zm10.640762 0.5l0 -4.875002l0.703125 0l0 0.484375q0.109375 -0.1875 0.265625 -0.3125q0.15625 -0.140625 0.34375 -0.203125q0.1875 -0.078125 0.375 -0.078125q0.21875 0 0.390625 0.09375q0.1875 0.078125 0.3125 0.25q0.125 0.15625 0.171875 0.375q0.09375 -0.21875 0.25 -0.375q0.171875 -0.171875 0.390625 -0.25q0.21875 -0.09375 0.453125 -0.09375q0.25 0 0.421875 0.09375q0.1875 0.09375 0.296875 0.265625q0.125 0.15625 0.171875 0.390625q0.0625 0.234375 0.046875 0.5l0 3.734377l-0.703125 0l0 -3.453127q0 -0.453125 -0.0625 -0.65625q-0.0625 -0.203125 -0.171875 -0.25q-0.09375 -0.0625 -0.21875 -0.0625q-0.203125 0 -0.390625 0.1875q-0.171875 0.1875 -0.28125 0.46875q-0.109375 0.265625 -0.109375 0.546875l0 3.218752l-0.71875 0l0 -3.390627q0 -0.609375 -0.109375 -0.8125q-0.109375 -0.203125 -0.421875 -0.203125q-0.125 0 -0.25 0.09375q-0.109375 0.078125 -0.21875 0.21875q-0.109375 0.140625 -0.171875 0.359375q-0.0625 0.203125 -0.0625 0.484375l0 3.250002l-0.703125 0zm5.984436 0l0 -0.625l1.25 0l0 -3.625002l-1.1875 0l0 -0.625l1.953125 0l0 4.250002l1.140625 0l0 0.625l-3.15625 0zm1.59375 -5.890627q-0.21875 0 -0.390625 -0.15625q-0.15625 -0.171875 -0.15625 -0.390625q0 -0.234375 0.15625 -0.390625q0.15625 -0.15625 0.390625 -0.15625q0.234375 0 0.390625 0.171875q0.171875 0.15625 0.171875 0.375q0 0.21875 -0.171875 0.390625q-0.15625 0.15625 -0.390625 0.15625zm3.437561 5.890627l0 -4.875002l0.75 0l0 0.875q0.1875 -0.3125 0.4375 -0.515625q0.265625 -0.21875 0.5625 -0.34375q0.3125 -0.125 0.65625 -0.125q0.390625 0 0.703125 0.203125q0.328125 0.203125 0.515625 0.65625q0.203125 0.4375 0.203125 1.171875l0 2.953127l-0.75 0l0 -2.937502q0 -0.5 -0.125 -0.796875q-0.109375 -0.3125 -0.3125 -0.4375q-0.203125 -0.140625 -0.453125 -0.140625q-0.25 0 -0.5 0.109375q-0.25 0.09375 -0.46875 0.296875q-0.203125 0.203125 -0.34375 0.484375q-0.125 0.265625 -0.125 0.625l0 2.796877l-0.75 0zm5.625061 0l0 -0.625l1.25 0l0 -3.625002l-1.1875 0l0 -0.625l1.953125 0l0 4.250002l1.140625 0l0 0.625l-3.15625 0zm1.59375 -5.890627q-0.21875 0 -0.390625 -0.15625q-0.15625 -0.171875 -0.15625 -0.390625q0 -0.234375 0.15625 -0.390625q0.15625 -0.15625 0.390625 -0.15625q0.234375 0 0.390625 0.171875q0.171875 0.15625 0.171875 0.375q0 0.21875 -0.171875 0.390625q-0.15625 0.15625 -0.390625 0.15625zm5.343811 5.968752q-0.671875 0 -1.1875 -0.3125q-0.5 -0.328125 -0.78125 -0.890625q-0.28125 -0.578125 -0.28125 -1.3125q0 -0.7500019 0.28125 -1.3125019q0.28125 -0.578125 0.78125 -0.890625q0.515625 -0.328125 1.1875 -0.328125q0.65625 0 1.15625 0.328125q0.515625 0.3125 0.796875 0.890625q0.28125 0.5625 0.28125 1.3125019q0 0.734375 -0.28125 1.3125q-0.28125 0.5625 -0.796875 0.890625q-0.5 0.3125 -1.15625 0.3125zm0 -0.625q0.421875 0 0.734375 -0.25q0.328125 -0.25 0.515625 -0.671875q0.1875 -0.421875 0.1875 -0.984375q0 -0.5468769 -0.1875 -0.9687519q-0.1875 -0.4375 -0.515625 -0.671875q-0.3125 -0.25 -0.734375 -0.25q-0.421875 0 -0.75 0.25q-0.328125 0.234375 -0.515625 0.671875q-0.1875 0.421875 -0.1875 0.9687519q0 0.5625 0.1875 0.984375q0.1875 0.421875 0.515625 0.671875q0.328125 0.25 0.75 0.25zm5.687561 0.65625q-0.53125 0 -1.0 -0.1875q-0.46875 -0.203125 -0.828125 -0.625q-0.359375 -0.421875 -0.5625 -1.046875q-0.203125 -0.640625 -0.203125 -1.5312519q0 -0.78125 0.140625 -1.359375q0.15625 -0.578125 0.40625 -0.96875q0.265625 -0.40625 0.59375 -0.640625q0.328125 -0.234375 0.6875 -0.328125q0.359375 -0.109375 0.734375 -0.109375q0.71875 0 1.21875 0.359375q0.515625 0.34375 0.78125 0.953125l-0.640625 0.296875l-0.09375 0.03125l-0.03125 -0.0625q0.03125 -0.09375 0 -0.15625q-0.03125 -0.078125 -0.125 -0.21875q-0.265625 -0.359375 -0.546875 -0.484375q-0.28125 -0.125 -0.59375 -0.125q-0.40625 0 -0.75 0.1875q-0.328125 0.1875 -0.578125 0.546875q-0.234375 0.34375 -0.359375 0.859375q-0.125 0.515625 -0.125 1.171875q0 0.625 0.140625 1.1406269q0.15625 0.5 0.40625 0.875q0.25 0.375 0.578125 0.578125q0.34375 0.203125 0.71875 0.203125q0.265625 0 0.515625 -0.09375q0.25 -0.09375 0.46875 -0.28125q0.21875 -0.1875 0.359375 -0.4375l0.5625 0.359375q-0.328125 0.53125 -0.78125 0.8125q-0.4375 0.28125 -1.09375 0.28125l0 0zm3.140686 -0.109375l0 -0.625l1.4375 0l0 -5.843752l-1.375 0l0 -0.625l2.15625 0l0 6.468752l1.421875 0l0 0.625l-3.640625 0zm5.546936 0l0 -0.625l1.25 0l0 -3.625002l-1.1875 0l0 -0.625l1.953125 0l0 4.250002l1.140625 0l0 0.625l-3.15625 0zm1.59375 -5.890627q-0.21875 0 -0.390625 -0.15625q-0.15625 -0.171875 -0.15625 -0.390625q0 -0.234375 0.15625 -0.390625q0.15625 -0.15625 0.390625 -0.15625q0.234375 0 0.390625 0.171875q0.171875 0.15625 0.171875 0.375q0 0.21875 -0.171875 0.390625q-0.15625 0.15625 -0.390625 0.15625zm5.578186 6.000002q-0.546875 0 -0.984375 -0.15625q-0.4375 -0.171875 -0.75 -0.484375q-0.3125 -0.328125 -0.484375 -0.796875q-0.171875 -0.484375 -0.171875 -1.09375q0 -0.6093769 0.171875 -1.0937519q0.1875 -0.484375 0.484375 -0.796875q0.3125 -0.328125 0.71875 -0.5q0.40625 -0.171875 0.875 -0.171875q0.40625 0 0.765625 0.140625q0.375 0.140625 0.640625 0.421875q0.265625 0.28125 0.40625 0.71875q0.15625 0.4375 0.15625 1.03125q0 0.07812691 0 0.1718769q0 0.09375 -0.015625 0.171875l-3.46875 0q0.03125 0.46875 0.171875 0.828125q0.140625 0.34375 0.359375 0.5625q0.21875 0.21875 0.515625 0.328125q0.296875 0.09375 0.625 0.09375q0.25 0 0.46875 -0.046875q0.234375 -0.0625 0.421875 -0.1875q0.203125 -0.125 0.359375 -0.3125l0.4375 0.421875q-0.203125 0.25 -0.46875 0.421875q-0.265625 0.171875 -0.578125 0.25q-0.296875 0.078125 -0.65625 0.078125zm-1.609375 -3.031252l2.671875 0q0 -0.34375 -0.09375 -0.609375q-0.09375 -0.265625 -0.265625 -0.46875q-0.15625 -0.203125 -0.390625 -0.296875q-0.21875 -0.109375 -0.515625 -0.109375q-0.25 0 -0.484375 0.09375q-0.21875 0.078125 -0.421875 0.265625q-0.1875 0.1875 -0.328125 0.46875q-0.125 0.28125 -0.171875 0.65625zm4.796936 2.921877l0 -4.875002l0.75 0l0 0.875q0.1875 -0.3125 0.4375 -0.515625q0.265625 -0.21875 0.5625 -0.34375q0.3125 -0.125 0.65625 -0.125q0.390625 0 0.703125 0.203125q0.328125 0.203125 0.515625 0.65625q0.203125 0.4375 0.203125 1.171875l0 2.953127l-0.75 0l0 -2.937502q0 -0.5 -0.125 -0.796875q-0.109375 -0.3125 -0.3125 -0.4375q-0.203125 -0.140625 -0.453125 -0.140625q-0.25 0 -0.5 0.109375q-0.25 0.09375 -0.46875 0.296875q-0.203125 0.203125 -0.34375 0.484375q-0.125 0.265625 -0.125 0.625l0 2.796877l-0.75 0zm7.750061 0.078125q-0.46875 0 -0.765625 -0.15625q-0.296875 -0.171875 -0.46875 -0.5q-0.15625 -0.34375 -0.203125 -0.84375q-0.046875 -0.515625 -0.03125 -1.21875l0.140625 -3.468752l0.796875 -0.109375l0.109375 0l0 0.0625q-0.046875 0.078125 -0.09375 0.15625q-0.03125 0.078125 -0.046875 0.25l-0.09375 1.203125l0.03125 0.203125l-0.078125 1.7500019q-0.03125 0.8125 0.03125 1.265625q0.078125 0.4375 0.265625 0.609375q0.203125 0.15625 0.515625 0.15625q0.359375 0 0.625 -0.140625q0.28125 -0.140625 0.578125 -0.359375l0.234375 0.609375q-0.359375 0.265625 -0.75 0.40625q-0.375 0.125 -0.796875 0.125l0 0zm-2.4375 -4.953127l3.5 0l0 0.640625l-3.5 0l0 -0.640625zm7.109436 5.000002q-0.25 0 -0.4375 -0.1875q-0.171875 -0.1875 -0.171875 -0.421875q0 -0.25 0.171875 -0.421875q0.1875 -0.1875 0.4375 -0.1875q0.25 0 0.421875 0.1875q0.1875 0.171875 0.1875 0.421875q0 0.234375 -0.1875 0.421875q-0.171875 0.1875 -0.421875 0.1875zm3.437561 1.65625l0 -6.656252l0.78125 0l0 0.96875q0.109375 -0.375 0.328125 -0.609375q0.21875 -0.234375 0.515625 -0.34375q0.296875 -0.109375 0.640625 -0.109375q0.390625 0 0.75 0.15625q0.375 0.140625 0.65625 0.453125q0.296875 0.3125 0.453125 0.78125q0.171875 0.46875 0.171875 1.1093769q0 0.640625 -0.1875 1.125q-0.171875 0.484375 -0.46875 0.8125q-0.28125 0.328125 -0.65625 0.5q-0.359375 0.15625 -0.75 0.15625q-0.28125 0 -0.5625 -0.09375q-0.265625 -0.078125 -0.5 -0.25q-0.21875 -0.1875 -0.390625 -0.421875l0 2.421875l-0.78125 0zm2.109375 -2.328125q0.25 0 0.5 -0.09375q0.25 -0.09375 0.453125 -0.296875q0.203125 -0.21875 0.3125 -0.578125q0.125 -0.375 0.125 -0.921875q0 -0.5937519 -0.15625 -1.0000019q-0.140625 -0.40625 -0.4375 -0.625q-0.28125 -0.234375 -0.6875 -0.25q-0.296875 -0.03125 -0.5625 0.078125q-0.25 0.109375 -0.453125 0.359375q-0.203125 0.234375 -0.3125 0.640625q-0.109375 0.40625 -0.109375 0.9687519q0 0.34375 0.0625 0.625q0.078125 0.265625 0.1875 0.484375q0.125 0.203125 0.28125 0.34375q0.15625 0.125 0.359375 0.203125q0.203125 0.0625 0.4375 0.0625zm4.937561 0.671875q-0.296875 0 -0.546875 -0.09375q-0.25 -0.078125 -0.46875 -0.25q-0.203125 -0.1875 -0.359375 -0.453125q-0.140625 -0.265625 -0.21875 -0.640625q-0.078125 -0.375 -0.078125 -0.84375l0 -2.718752l0.75 0l0 2.718752q0 0.46875 0.078125 0.78125q0.09375 0.3125 0.25 0.515625q0.15625 0.1875 0.359375 0.28125q0.203125 0.078125 0.421875 0.078125q0.25 0 0.484375 -0.09375q0.234375 -0.109375 0.421875 -0.3125q0.1875 -0.203125 0.296875 -0.515625q0.109375 -0.328125 0.109375 -0.765625l0 -2.687502l0.75 0l0 4.125002q0 0.1875 0.015625 0.375q0.015625 0.1875 0.078125 0.375l-0.734375 0q-0.046875 -0.125 -0.078125 -0.25q-0.015625 -0.125 -0.015625 -0.25q0 -0.125 0 -0.25q-0.125 0.203125 -0.28125 0.375q-0.15625 0.15625 -0.359375 0.265625q-0.203125 0.109375 -0.421875 0.171875q-0.21875 0.0625 -0.453125 0.0625zm6.156311 -0.046875q-0.46875 0 -0.765625 -0.15625q-0.296875 -0.171875 -0.46875 -0.5q-0.15625 -0.34375 -0.203125 -0.84375q-0.046875 -0.515625 -0.03125 -1.21875l0.140625 -3.468752l0.796875 -0.109375l0.109375 0l0 0.0625q-0.046875 0.078125 -0.09375 0.15625q-0.03125 0.078125 -0.046875 0.25l-0.09375 1.203125l0.03125 0.203125l-0.078125 1.7500019q-0.03125 0.8125 0.03125 1.265625q0.078125 0.4375 0.265625 0.609375q0.203125 0.15625 0.515625 0.15625q0.359375 0 0.625 -0.140625q0.28125 -0.140625 0.578125 -0.359375l0.234375 0.609375q-0.359375 0.265625 -0.75 0.40625q-0.375 0.125 -0.796875 0.125l0 0zm-2.4375 -4.953127l3.5 0l0 0.640625l-3.5 0l0 -0.640625zm7.250061 5.000002q-0.765625 0 -1.296875 -0.390625q-0.53125 -0.40625 -0.8125 -1.15625q-0.28125 -0.765625 -0.28125 -1.8593769q0 -1.0625 0.28125 -1.8125q0.28125 -0.765625 0.8125 -1.171875q0.53125 -0.421875 1.296875 -0.421875q0.765625 0 1.28125 0.421875q0.53125 0.40625 0.8125 1.171875q0.28125 0.75 0.28125 1.8125q0 1.0937519 -0.28125 1.8593769q-0.28125 0.75 -0.8125 1.15625q-0.515625 0.390625 -1.28125 0.390625zm0 -0.65625q0.5 0 0.859375 -0.3125q0.359375 -0.328125 0.546875 -0.9375q0.1875 -0.609375 0.1875 -1.5000019q0 -0.84375 -0.1875 -1.453125q-0.1875 -0.609375 -0.546875 -0.953125q-0.359375 -0.34375 -0.859375 -0.34375q-0.515625 0 -0.875 0.34375q-0.359375 0.34375 -0.546875 0.953125q-0.1875 0.609375 -0.1875 1.453125q0 0.8906269 0.1875 1.5000019q0.1875 0.609375 0.546875 0.9375q0.359375 0.3125 0.875 0.3125zm5.484436 0.65625q-0.296875 0 -0.5625 -0.09375q-0.265625 -0.09375 -0.484375 -0.265625q-0.21875 -0.171875 -0.390625 -0.40625l-0.265625 0.640625l-0.484375 0l0 -7.093752l0.765625 0l0.109375 0l0 0.078125q-0.0625 0.0625 -0.078125 0.140625q-0.015625 0.078125 -0.015625 0.25l0 2.5q0.109375 -0.1875 0.265625 -0.34375q0.171875 -0.171875 0.359375 -0.28125q0.1875 -0.125 0.40625 -0.171875q0.21875 -0.0625 0.40625 -0.0625q0.453125 0 0.8125 0.15625q0.375 0.15625 0.640625 0.46875q0.265625 0.3125 0.40625 0.78125q0.15625 0.46875 0.15625 1.0937519q0 0.65625 -0.171875 1.140625q-0.171875 0.484375 -0.46875 0.8125q-0.296875 0.328125 -0.65625 0.5q-0.359375 0.15625 -0.75 0.15625l0 0zm-0.09375 -0.6875q0.265625 0 0.5 -0.09375q0.234375 -0.09375 0.421875 -0.3125q0.203125 -0.21875 0.3125 -0.578125q0.109375 -0.375 0.109375 -0.890625q0 -0.4843769 -0.09375 -0.8437519q-0.09375 -0.359375 -0.28125 -0.59375q-0.171875 -0.234375 -0.421875 -0.34375q-0.234375 -0.109375 -0.515625 -0.109375q-0.40625 0 -0.703125 0.25q-0.296875 0.234375 -0.46875 0.671875q-0.171875 0.421875 -0.171875 0.9843769q0 0.421875 0.0625 0.765625q0.078125 0.328125 0.234375 0.578125q0.15625 0.25 0.40625 0.390625q0.25 0.125 0.609375 0.125l0 0zm4.656311 2.421875q-0.453125 0 -0.875 -0.171875q-0.40625 -0.171875 -0.671875 -0.515625l0.421875 -0.578125l0.0625 -0.078125l0.0625 0.03125q0.03125 0.09375 0.0625 0.171875q0.03125 0.078125 0.140625 0.203125q0.15625 0.125 0.34375 0.1875q0.203125 0.078125 0.453125 0.078125q0.3125 0 0.5625 -0.140625q0.25 -0.140625 0.390625 -0.453125q0.140625 -0.296875 0.140625 -0.78125l0 -4.046877l-1.8125 0l0 -0.640625l2.59375 0l0 4.640627q0 0.734375 -0.265625 1.1875q-0.25 0.46875 -0.671875 0.6875q-0.421875 0.21875 -0.9375 0.21875l0 0zm1.421875 -7.750002q-0.21875 0 -0.390625 -0.15625q-0.15625 -0.171875 -0.15625 -0.390625q0 -0.234375 0.15625 -0.390625q0.15625 -0.15625 0.390625 -0.15625q0.234375 0 0.390625 0.171875q0.171875 0.15625 0.171875 0.375q0 0.21875 -0.171875 0.390625q-0.15625 0.15625 -0.390625 0.15625zm4.750061 6.000002q-0.546875 0 -0.984375 -0.15625q-0.4375 -0.171875 -0.75 -0.484375q-0.3125 -0.328125 -0.484375 -0.796875q-0.171875 -0.484375 -0.171875 -1.09375q0 -0.6093769 0.171875 -1.0937519q0.1875 -0.484375 0.484375 -0.796875q0.3125 -0.328125 0.71875 -0.5q0.40625 -0.171875 0.875 -0.171875q0.40625 0 0.765625 0.140625q0.375 0.140625 0.640625 0.421875q0.265625 0.28125 0.40625 0.71875q0.15625 0.4375 0.15625 1.03125q0 0.07812691 0 0.1718769q0 0.09375 -0.015625 0.171875l-3.46875 0q0.03125 0.46875 0.171875 0.828125q0.140625 0.34375 0.359375 0.5625q0.21875 0.21875 0.515625 0.328125q0.296875 0.09375 0.625 0.09375q0.25 0 0.46875 -0.046875q0.234375 -0.0625 0.421875 -0.1875q0.203125 -0.125 0.359375 -0.3125l0.4375 0.421875q-0.203125 0.25 -0.46875 0.421875q-0.265625 0.171875 -0.578125 0.25q-0.296875 0.078125 -0.65625 0.078125zm-1.609375 -3.031252l2.671875 0q0 -0.34375 -0.09375 -0.609375q-0.09375 -0.265625 -0.265625 -0.46875q-0.15625 -0.203125 -0.390625 -0.296875q-0.21875 -0.109375 -0.515625 -0.109375q-0.25 0 -0.484375 0.09375q-0.21875 0.078125 -0.421875 0.265625q-0.1875 0.1875 -0.328125 0.46875q-0.125 0.28125 -0.171875 0.65625zm7.062561 3.046877q-0.53125 0 -0.984375 -0.1875q-0.4375 -0.203125 -0.765625 -0.546875q-0.328125 -0.34375 -0.515625 -0.796875q-0.171875 -0.46875 -0.171875 -1.015625q0 -0.5468769 0.171875 -1.0156269q0.1875 -0.46875 0.515625 -0.796875q0.328125 -0.34375 0.765625 -0.53125q0.453125 -0.203125 0.984375 -0.203125q0.59375 0 1.0625 0.25q0.484375 0.234375 0.78125 0.65625l-0.484375 0.46875l-0.078125 0.078125l-0.046875 -0.046875q0 -0.09375 -0.046875 -0.15625q-0.03125 -0.078125 -0.15625 -0.21875q-0.234375 -0.203125 -0.5 -0.28125q-0.265625 -0.09375 -0.625 -0.09375q-0.3125 0 -0.59375 0.125q-0.265625 0.125 -0.484375 0.375q-0.21875 0.234375 -0.34375 0.578125q-0.125 0.328125 -0.125 0.7500019q0 0.421875 0.125 0.765625q0.125 0.34375 0.34375 0.609375q0.234375 0.25 0.546875 0.390625q0.3125 0.140625 0.671875 0.140625q0.25 0 0.46875 -0.0625q0.21875 -0.078125 0.421875 -0.203125q0.203125 -0.140625 0.375 -0.328125l0.453125 0.515625q-0.359375 0.390625 -0.8125 0.59375q-0.4375 0.1875 -0.953125 0.1875l0 0zm5.484436 -0.046875q-0.46875 0 -0.765625 -0.15625q-0.296875 -0.171875 -0.46875 -0.5q-0.15625 -0.34375 -0.203125 -0.84375q-0.046875 -0.515625 -0.03125 -1.21875l0.140625 -3.468752l0.796875 -0.109375l0.109375 0l0 0.0625q-0.046875 0.078125 -0.09375 0.15625q-0.03125 0.078125 -0.046875 0.25l-0.09375 1.203125l0.03125 0.203125l-0.078125 1.7500019q-0.03125 0.8125 0.03125 1.265625q0.078125 0.4375 0.265625 0.609375q0.203125 0.15625 0.515625 0.15625q0.359375 0 0.625 -0.140625q0.28125 -0.140625 0.578125 -0.359375l0.234375 0.609375q-0.359375 0.265625 -0.75 0.40625q-0.375 0.125 -0.796875 0.125l0 0zm-2.4375 -4.953127l3.5 0l0 0.640625l-3.5 0l0 -0.640625zm8.781311 5.984377q-0.875 -0.421875 -1.53125 -1.109375q-0.65625 -0.703125 -1.015625 -1.578125q-0.359375 -0.890625 -0.359375 -1.8281269q0 -0.953125 0.34375 -1.8125q0.359375 -0.859375 1.0 -1.53125q0.640625 -0.671875 1.5 -1.078125l0.203125 0.65625q-0.5 0.28125 -0.921875 0.6875q-0.421875 0.40625 -0.734375 0.890625q-0.296875 0.484375 -0.46875 1.0625q-0.15625 0.5625 -0.15625 1.15625q0 0.59375 0.15625 1.1562519q0.171875 0.5625 0.46875 1.078125q0.3125 0.5 0.75 0.921875q0.4375 0.40625 0.96875 0.6875l-0.203125 0.640625zm2.546936 0l-0.203125 -0.640625q0.546875 -0.28125 0.96875 -0.6875q0.4375 -0.421875 0.734375 -0.921875q0.3125 -0.515625 0.46875 -1.078125q0.171875 -0.5625019 0.171875 -1.1562519q0 -0.59375 -0.171875 -1.15625q-0.15625 -0.578125 -0.46875 -1.0625q-0.296875 -0.484375 -0.71875 -0.890625q-0.40625 -0.40625 -0.921875 -0.6875l0.203125 -0.65625q0.859375 0.40625 1.5 1.078125q0.640625 0.671875 0.984375 1.53125q0.359375 0.859375 0.359375 1.8125q0 0.9375019 -0.359375 1.8281269q-0.359375 0.875 -1.015625 1.578125q-0.65625 0.6875 -1.53125 1.109375z" fill-rule="nonzero"/><path fill="#c72e49" d="m9.278075 223.21008l0 0c0 -3.220993 2.6111374 -5.832123 5.832138 -5.832123l219.35934 0c1.5467834 0 3.0302124 0.6144409 4.123947 1.7081909c1.0937347 1.0937347 1.7081909 2.5771637 1.7081909 4.123932l0 23.327866c0 3.220993 -2.6111298 5.832123 -5.832138 5.832123l-219.35934 0c-3.2210007 0 -5.832138 -2.6111298 -5.832138 -5.832123z" fill-rule="evenodd"/><path stroke="#980000" stroke-width="4.0" stroke-linejoin="round" stroke-linecap="butt" d="m9.278075 223.21008l0 0c0 -3.220993 2.6111374 -5.832123 5.832138 -5.832123l219.35934 0c1.5467834 0 3.0302124 0.6144409 4.123947 1.7081909c1.0937347 1.0937347 1.7081909 2.5771637 1.7081909 4.123932l0 23.327866c0 3.220993 -2.6111298 5.832123 -5.832138 5.832123l-219.35934 0c-3.2210007 0 -5.832138 -2.6111298 -5.832138 -5.832123z" fill-rule="evenodd"/><path fill="#ffffff" d="m66.86548 241.794l0 -13.359375l4.03125 0l2.421875 9.109375l2.390625 -9.109375l4.046875 0l0 13.359375l-2.5 0l0 -10.515625l-2.65625 10.515625l-2.59375 0l-2.640625 -10.515625l0 10.515625l-2.5 0zm15.493927 0l0 -13.359375l2.6875 0l0 13.359375l-2.6875 0zm5.292679 0l0 -13.359375l2.625 0l5.453125 8.921875l0 -8.921875l2.515625 0l0 13.359375l-2.703125 0l-5.390625 -8.703125l0 8.703125l-2.5 0zm13.363571 0l0 -13.359375l2.6875 0l0 13.359375l-2.6875 0zm4.714554 -6.59375q0 -2.046875 0.609375 -3.421875q0.453125 -1.03125 1.234375 -1.828125q0.796875 -0.8125 1.734375 -1.203125q1.25 -0.53125 2.875 -0.53125q2.953125 0 4.71875 1.828125q1.78125 1.828125 1.78125 5.09375q0 3.234375 -1.765625 5.0625q-1.75 1.828125 -4.6875 1.828125q-2.984375 0 -4.75 -1.8125q-1.75 -1.828125 -1.75 -5.015625zm2.78125 -0.09375q0 2.265625 1.046875 3.4375q1.046875 1.171875 2.65625 1.171875q1.609375 0 2.640625 -1.15625q1.046875 -1.171875 1.046875 -3.484375q0 -2.296875 -1.015625 -3.421875q-1.0 -1.140625 -2.671875 -1.140625q-1.671875 0 -2.6875 1.15625q-1.015625 1.140625 -1.015625 3.4375zm16.772858 2.34375l2.625 -0.25q0.234375 1.3125 0.953125 1.9375q0.734375 0.609375 1.96875 0.609375q1.296875 0 1.953125 -0.546875q0.671875 -0.546875 0.671875 -1.28125q0 -0.484375 -0.28125 -0.8125q-0.28125 -0.328125 -0.96875 -0.578125q-0.484375 -0.15625 -2.171875 -0.578125q-2.15625 -0.546875 -3.03125 -1.328125q-1.234375 -1.09375 -1.234375 -2.6875q0 -1.015625 0.578125 -1.90625q0.578125 -0.890625 1.65625 -1.34375q1.09375 -0.46875 2.640625 -0.46875q2.515625 0 3.78125 1.109375q1.28125 1.09375 1.34375 2.9375l-2.703125 0.109375q-0.171875 -1.03125 -0.75 -1.46875q-0.5625 -0.453125 -1.703125 -0.453125q-1.171875 0 -1.84375 0.46875q-0.421875 0.3125 -0.421875 0.84375q0 0.46875 0.40625 0.796875q0.5 0.4375 2.46875 0.90625q1.96875 0.453125 2.90625 0.953125q0.953125 0.5 1.484375 1.359375q0.53125 0.859375 0.53125 2.125q0 1.15625 -0.640625 2.15625q-0.640625 1.0 -1.8125 1.484375q-1.15625 0.484375 -2.890625 0.484375q-2.53125 0 -3.890625 -1.171875q-1.359375 -1.171875 -1.625 -3.40625zm13.052948 4.34375l0 -13.359375l2.6875 0l0 13.359375l-2.6875 0zm8.261429 0l0 -11.09375l-3.953125 0l0 -2.265625l10.609375 0l0 2.265625l-3.953125 0l0 11.09375l-2.703125 0zm8.395981 0l0 -13.359375l9.90625 0l0 2.265625l-7.21875 0l0 2.953125l6.71875 0l0 2.25l-6.71875 0l0 3.640625l7.46875 0l0 2.25l-10.15625 0zm28.981049 0l-2.9375 0l-1.171875 -3.03125l-5.328125 0l-1.109375 3.03125l-2.859375 0l5.203125 -13.359375l2.84375 0l5.359375 13.359375zm-4.96875 -5.28125l-1.84375 -4.953125l-1.796875 4.953125l3.640625 0z" fill-rule="nonzero"/><path fill="#d9d9d9" d="m406.83713 223.21008l0 0c0 -3.220993 2.611145 -5.832123 5.832123 -5.832123l216.43024 0c1.5467529 0 3.0302124 0.6144409 4.1239014 1.7081909c1.09375 1.0937347 1.708252 2.5771637 1.708252 4.123932l0 23.327866c0 3.220993 -2.611145 5.832123 -5.8321533 5.832123l-216.43024 0c-3.2209778 0 -5.832123 -2.6111298 -5.832123 -5.832123z" fill-rule="evenodd"/><path stroke="#980000" stroke-width="4.0" stroke-linejoin="round" stroke-linecap="butt" stroke-dasharray="16.0,12.0" d="m406.83713 223.21008l0 0c0 -3.220993 2.611145 -5.832123 5.832123 -5.832123l216.43024 0c1.5467529 0 3.0302124 0.6144409 4.1239014 1.7081909c1.09375 1.0937347 1.708252 2.5771637 1.708252 4.123932l0 23.327866c0 3.220993 -2.611145 5.832123 -5.8321533 5.832123l-216.43024 0c-3.2209778 0 -5.832123 -2.6111298 -5.832123 -5.832123z" fill-rule="evenodd"/><path fill="#ffffff" d="m462.61362 241.794l0 -13.359375l4.03125 0l2.421875 9.109375l2.390625 -9.109375l4.046875 0l0 13.359375l-2.5 0l0 -10.515625l-2.65625 10.515625l-2.59375 0l-2.640625 -10.515625l0 10.515625l-2.5 0zm15.493927 0l0 -13.359375l2.6875 0l0 13.359375l-2.6875 0zm5.2926636 0l0 -13.359375l2.625 0l5.453125 8.921875l0 -8.921875l2.515625 0l0 13.359375l-2.703125 0l-5.390625 -8.703125l0 8.703125l-2.5 0zm13.363586 0l0 -13.359375l2.6875 0l0 13.359375l-2.6875 0zm4.7145386 -6.59375q0 -2.046875 0.609375 -3.421875q0.453125 -1.03125 1.234375 -1.828125q0.796875 -0.8125 1.734375 -1.203125q1.25 -0.53125 2.875 -0.53125q2.953125 0 4.71875 1.828125q1.78125 1.828125 1.78125 5.09375q0 3.234375 -1.765625 5.0625q-1.75 1.828125 -4.6875 1.828125q-2.984375 0 -4.75 -1.8125q-1.75 -1.828125 -1.75 -5.015625zm2.78125 -0.09375q0 2.265625 1.046875 3.4375q1.046875 1.171875 2.65625 1.171875q1.609375 0 2.640625 -1.15625q1.046875 -1.171875 1.046875 -3.484375q0 -2.296875 -1.015625 -3.421875q-1.0 -1.140625 -2.671875 -1.140625q-1.671875 0 -2.6875 1.15625q-1.015625 1.140625 -1.015625 3.4375zm16.772888 2.34375l2.625 -0.25q0.234375 1.3125 0.953125 1.9375q0.734375 0.609375 1.96875 0.609375q1.296875 0 1.953125 -0.546875q0.671875 -0.546875 0.671875 -1.28125q0 -0.484375 -0.28125 -0.8125q-0.28125 -0.328125 -0.96875 -0.578125q-0.484375 -0.15625 -2.171875 -0.578125q-2.15625 -0.546875 -3.03125 -1.328125q-1.234375 -1.09375 -1.234375 -2.6875q0 -1.015625 0.578125 -1.90625q0.578125 -0.890625 1.65625 -1.34375q1.09375 -0.46875 2.640625 -0.46875q2.515625 0 3.78125 1.109375q1.28125 1.09375 1.34375 2.9375l-2.703125 0.109375q-0.171875 -1.03125 -0.75 -1.46875q-0.5625 -0.453125 -1.703125 -0.453125q-1.171875 0 -1.84375 0.46875q-0.421875 0.3125 -0.421875 0.84375q0 0.46875 0.40625 0.796875q0.5 0.4375 2.46875 0.90625q1.96875 0.453125 2.90625 0.953125q0.953125 0.5 1.484375 1.359375q0.53125 0.859375 0.53125 2.125q0 1.15625 -0.640625 2.15625q-0.640625 1.0 -1.8125 1.484375q-1.15625 0.484375 -2.890625 0.484375q-2.53125 0 -3.890625 -1.171875q-1.359375 -1.171875 -1.625 -3.40625zm13.0529175 4.34375l0 -13.359375l2.6875 0l0 13.359375l-2.6875 0zm8.261414 0l0 -11.09375l-3.953125 0l0 -2.265625l10.609375 0l0 2.265625l-3.953125 0l0 11.09375l-2.703125 0zm8.395996 0l0 -13.359375l9.90625 0l0 2.265625l-7.21875 0l0 2.953125l6.71875 0l0 2.25l-6.71875 0l0 3.640625l7.46875 0l0 2.25l-10.15625 0zm17.626892 -13.359375l5.34375 0q1.59375 0 2.359375 0.140625q0.78125 0.125 1.390625 0.546875q0.625 0.421875 1.03125 1.125q0.40625 0.6875 0.40625 1.546875q0 0.9375 -0.5 1.734375q-0.5 0.78125 -1.375 1.171875q1.21875 0.359375 1.875 1.21875q0.65625 0.84375 0.65625 2.0q0 0.921875 -0.421875 1.78125q-0.421875 0.859375 -1.15625 1.375q-0.734375 0.515625 -1.796875 0.625q-0.6875 0.078125 -3.265625 0.09375l-4.546875 0l0 -13.359375zm2.703125 2.234375l0 3.078125l1.765625 0q1.578125 0 1.953125 -0.046875q0.703125 -0.078125 1.09375 -0.46875q0.40625 -0.40625 0.40625 -1.046875q0 -0.625 -0.34375 -1.0q-0.34375 -0.390625 -1.015625 -0.484375q-0.40625 -0.03125 -2.3125 -0.03125l-1.546875 0zm0 5.296875l0 3.578125l2.5 0q1.453125 0 1.84375 -0.078125q0.609375 -0.109375 0.984375 -0.53125q0.375 -0.421875 0.375 -1.140625q0 -0.59375 -0.296875 -1.015625q-0.28125 -0.421875 -0.84375 -0.609375q-0.546875 -0.203125 -2.390625 -0.203125l-2.171875 0z" fill-rule="nonzero"/><path fill="#000000" fill-opacity="0.0" d="m322.08005 172.37007l0 22.503937l-197.29134 0l0 22.503952" fill-rule="evenodd"/><path stroke="#c72e49" stroke-width="1.0" stroke-linejoin="round" stroke-linecap="butt" stroke-dasharray="4.0,3.0" d="m322.08005 172.37007l0 22.503937l-197.29134 0l0 16.503952" fill-rule="evenodd"/><path fill="#c72e49" stroke="#c72e49" stroke-width="1.0" stroke-linecap="butt" d="m123.13698 211.37796l1.6517334 4.538086l1.6517334 -4.538086z" fill-rule="evenodd"/><path fill="#000000" fill-opacity="0.0" d="m240.3017 234.87401l83.26816 0l0 0.06300354l83.251526 0" fill-rule="evenodd"/><path stroke="#c72e49" stroke-width="1.0" stroke-linejoin="round" stroke-linecap="butt" stroke-dasharray="4.0,3.0" d="m246.3017 234.87401l77.26816 0l0 0.06300354l77.25156 0" fill-rule="evenodd"/><path fill="#c72e49" stroke="#c72e49" stroke-width="1.0" stroke-linecap="butt" d="m246.3017 233.22229l-4.538101 1.6517181l4.538101 1.6517334z" fill-rule="evenodd"/><path fill="#c72e49" stroke="#c72e49" stroke-width="1.0" stroke-linecap="butt" d="m400.8214 236.58875l4.538086 -1.6517334l-4.538086 -1.6517334z" fill-rule="evenodd"/><path fill="#cc0000" d="m309.32022 235.73491l0 0c0 -9.184448 7.445465 -16.629929 16.629913 -16.629929l0 0c4.4105225 0 8.640411 1.7520752 11.759125 4.870804c3.1187134 3.1187134 4.8707886 7.348587 4.8707886 11.759125l0 0c0 9.184448 -7.445465 16.629913 -16.629913 16.629913l0 0c-9.184448 0 -16.629913 -7.445465 -16.629913 -16.629913zm25.78125 4.927658c2.176117 -4.041321 1.4436951 -9.03154 -1.8018799 -12.277115c-3.245575 -3.245575 -8.235809 -3.9779816 -12.2771 -1.8018951zm-18.302704 -9.855316l0 0c-2.1760864 4.041321 -1.4436646 9.03154 1.8019104 12.277115c3.245575 3.245575 8.235779 3.9779816 12.2771 1.8018951z" fill-rule="evenodd"/><path stroke="#00303f" stroke-width="1.0" stroke-linejoin="round" stroke-linecap="butt" d="m309.32022 235.73491l0 0c0 -9.184448 7.445465 -16.629929 16.629913 -16.629929l0 0c4.4105225 0 8.640411 1.7520752 11.759125 4.870804c3.1187134 3.1187134 4.8707886 7.348587 4.8707886 11.759125l0 0c0 9.184448 -7.445465 16.629913 -16.629913 16.629913l0 0c-9.184448 0 -16.629913 -7.445465 -16.629913 -16.629913zm25.78125 4.927658c2.176117 -4.041321 1.4436951 -9.03154 -1.8018799 -12.277115c-3.245575 -3.245575 -8.235809 -3.9779816 -12.2771 -1.8018951zm-18.302704 -9.855316l0 0c-2.1760864 4.041321 -1.4436646 9.03154 1.8019104 12.277115c3.245575 3.245575 8.235779 3.9779816 12.2771 1.8018951z" fill-rule="evenodd"/></g></svg>