<?xml version="1.0" encoding="UTF-8"?><svg id="a" xmlns="http://www.w3.org/2000/svg" viewBox="0 0 645.33 370.33"><defs><style>.b{font-family:RobotoMono-Regular, 'Roboto Mono';font-size:11.39px;font-variation-settings:'wght' 400;}.c{letter-spacing:-.04em;}.d{stroke-width:1.62px;}.d,.e,.f,.g,.h,.i,.j{fill:none;stroke-miterlimit:10;}.d,.f,.g,.i{stroke:#cf2144;}.k{fill:#f6f6f6;}.l{fill:#e8f3f3;}.m,.n,.o{fill:#fff;}.p{fill:#cf2144;}.q{fill:#122745;}.r{fill:#1b1717;}.s{fill:#0c1835;}.t{fill:#577f9a;}.u{letter-spacing:-.03em;}.n{font-family:Inter-Medium, Inter;font-size:7.79px;font-variation-settings:'wght' 500, 'slnt' 0;font-weight:500;}.v{letter-spacing:.02em;}.e{stroke-width:1.47px;}.e,.h{stroke:#1b1717;}.f{stroke-dasharray:0 0 2 2;}.g{stroke-dasharray:0 0 3 3;}.w{letter-spacing:-.03em;}.x{font-size:10px;}.x,.o{font-family:Inter-Bold, Inter;font-variation-settings:'wght' 700, 'slnt' 0;font-weight:700;}.o{font-size:14px;}.j{stroke:#fff;stroke-linecap:round;stroke-width:.72px;}</style></defs><polyline class="f" points="321.6 156.22 321.6 194.99 165.94 194.99 165.94 210.11"/><polyline class="f" points="322.07 156.22 322.07 194.99 477.73 194.99 477.73 210.11"/><polyline class="r" points="321.94 121.87 324.13 121.87 321.59 126.25 319.07 121.87 320.95 121.87"/><line class="e" x1="321.6" y1="70.1" x2="321.6" y2="121.87"/><g><path d="M240.7,21.34l3.42-1.29,.32-.09-.32-.1-3.42-1.27v-1.01l4.66,2v.77l-4.66,2v-1.01Z"/><text class="b" transform="translate(246.12 23.67)"><tspan x="0" y="0">minioClient.getObject()</tspan></text></g><rect class="i" x="228.67" y="-.43" width="185.86" height="39.33"/><rect class="p" x="228.67" y="126.15" width="185.86" height="52.93"/><g><g><rect class="m" x="308.59" y="147.71" width="4.49" height="11.71"/><path class="m" d="M303.14,147.87l-9.11,4.92c-.13,.07-.29,.07-.42,0l-9.11-4.92c-.2-.11-.42-.16-.65-.16h-.01c-.69,0-1.25,.49-1.25,1.1v10.59s4.49,0,4.49,0v-5.04c0-.31,.38-.5,.68-.34l5.11,2.76c.5,.27,1.14,.28,1.64,.01l5.39-2.79c.3-.15,.68,.04,.68,.34v5.06s4.49,0,4.49,0v-10.59c0-.61-.56-1.1-1.25-1.1h-.01c-.23,0-.46,.06-.65,.16Z"/><path class="m" d="M335.47,147.71h-4.55s0,5.33,0,5.33c0,.3-.36,.49-.66,.35l-11.8-5.55c-.18-.09-.38-.13-.59-.13h0c-.69,0-1.25,.49-1.25,1.1v10.59s4.52,0,4.52,0v-5.32c0-.3,.36-.49,.66-.35l11.85,5.55c.18,.08,.38,.13,.59,.13h0c.69,0,1.25-.49,1.25-1.1v-10.6Z"/></g><path class="m" d="M339,159.42v-11.71h2.07v11.71h-2.07Z"/><path class="m" d="M353.22,159.63c-5.56,0-9.5-2.33-9.5-6.06,0-3.71,3.97-6.06,9.5-6.06,5.53,0,9.53,2.33,9.53,6.06s-3.9,6.06-9.53,6.06Zm0-10.57c-4.13,0-7.32,1.59-7.32,4.51,0,2.94,3.18,4.51,7.32,4.51,4.13,0,7.34-1.57,7.34-4.51s-3.21-4.51-7.34-4.51Z"/></g><line class="e" x1="321.6" y1="39.1" x2="321.6" y2="54.87"/><rect class="k" x=".02" y=".41" width="156.61" height="56.08"/><g><path d="M56.63,14.15v5.82h-.88v-5.82h.88Z"/><path d="M58.69,17.38v2.59h-.85v-4.36h.82v.71h.05c.1-.23,.26-.42,.47-.56,.21-.14,.49-.21,.81-.21,.3,0,.56,.06,.78,.19,.22,.12,.4,.31,.52,.55,.12,.24,.18,.55,.18,.91v2.78h-.85v-2.67c0-.32-.08-.56-.25-.74-.17-.18-.39-.27-.68-.27-.2,0-.37,.04-.52,.13-.15,.08-.27,.21-.36,.37-.09,.16-.13,.36-.13,.59Z"/><path d="M64.65,15.6v.68h-2.38v-.68h2.38Zm-1.74-1.05h.85v4.13c0,.16,.02,.29,.07,.37,.05,.08,.11,.14,.19,.17,.08,.03,.16,.04,.26,.04,.07,0,.13,0,.18-.01,.05,0,.09-.02,.12-.02l.15,.7s-.12,.04-.21,.06c-.09,.02-.2,.03-.34,.03-.22,0-.43-.04-.62-.12-.19-.08-.35-.21-.47-.39-.12-.17-.18-.39-.18-.66v-4.3Z"/><path d="M67.43,20.06c-.43,0-.8-.09-1.11-.28s-.55-.44-.72-.78c-.17-.34-.25-.73-.25-1.18s.08-.84,.25-1.18c.17-.34,.4-.61,.7-.8,.3-.19,.66-.29,1.06-.29,.25,0,.48,.04,.72,.12s.44,.21,.62,.38c.18,.17,.33,.4,.43,.68,.11,.28,.16,.61,.16,1.01v.3h-3.47v-.64h2.64c0-.22-.05-.42-.14-.6s-.22-.31-.38-.41c-.16-.1-.36-.15-.58-.15-.24,0-.45,.06-.62,.17-.18,.12-.31,.27-.41,.45-.1,.19-.14,.39-.14,.61v.5c0,.29,.05,.54,.15,.74,.1,.2,.25,.36,.43,.47,.19,.11,.4,.16,.65,.16,.16,0,.31-.02,.44-.07,.13-.05,.25-.12,.34-.21,.1-.09,.17-.21,.22-.34l.8,.15c-.06,.24-.18,.44-.35,.62-.17,.18-.37,.31-.62,.41-.25,.1-.53,.15-.85,.15Z"/><path d="M70.24,19.97v-4.36h.82v.69h.05c.08-.23,.22-.42,.42-.56,.2-.14,.43-.2,.69-.2,.05,0,.12,0,.19,0s.13,0,.17,.01v.81s-.09-.02-.18-.03c-.09-.01-.17-.02-.26-.02-.2,0-.38,.04-.54,.13-.16,.08-.28,.2-.37,.35-.09,.15-.14,.32-.14,.51v2.66h-.85Z"/><path d="M74.17,17.38v2.59h-.85v-4.36h.82v.71h.05c.1-.23,.26-.42,.47-.56,.21-.14,.49-.21,.81-.21,.3,0,.56,.06,.78,.19,.22,.12,.4,.31,.52,.55,.12,.24,.18,.55,.18,.91v2.78h-.85v-2.67c0-.32-.08-.56-.25-.74-.17-.18-.39-.27-.68-.27-.2,0-.37,.04-.52,.13-.15,.08-.27,.21-.36,.37-.09,.16-.13,.36-.13,.59Z"/><path d="M79.93,20.06c-.41,0-.77-.09-1.07-.28-.3-.19-.54-.45-.71-.79-.17-.34-.25-.73-.25-1.18s.08-.85,.25-1.19c.17-.34,.41-.6,.71-.79,.31-.19,.66-.28,1.07-.28s.77,.09,1.07,.28c.31,.19,.54,.45,.71,.79,.17,.34,.25,.73,.25,1.19s-.08,.84-.25,1.18c-.17,.34-.41,.6-.71,.79-.3,.19-.66,.28-1.07,.28Zm0-.71c.27,0,.48-.07,.66-.21,.17-.14,.3-.33,.39-.56,.08-.23,.13-.49,.13-.77s-.04-.53-.13-.77c-.08-.23-.21-.42-.39-.56-.17-.14-.39-.21-.66-.21s-.49,.07-.66,.21-.3,.33-.39,.56-.13,.49-.13,.77,.04,.54,.13,.77,.21,.42,.39,.56c.18,.14,.4,.21,.66,.21Z"/><path d="M84.55,20.05c-.35,0-.67-.09-.94-.27-.28-.18-.49-.44-.65-.78-.16-.34-.23-.74-.23-1.21s.08-.88,.24-1.21c.16-.34,.38-.59,.65-.77,.28-.18,.59-.27,.94-.27,.27,0,.49,.04,.65,.13,.17,.09,.29,.19,.39,.31,.09,.12,.16,.22,.21,.32h.05v-2.16h.85v5.82h-.83v-.68h-.07c-.05,.09-.12,.2-.22,.32s-.23,.22-.39,.31c-.17,.09-.38,.13-.65,.13Zm.19-.72c.24,0,.45-.06,.62-.19,.17-.13,.3-.31,.39-.54,.09-.23,.13-.5,.13-.81s-.04-.57-.13-.8c-.09-.23-.21-.4-.38-.53-.17-.13-.38-.19-.62-.19s-.47,.07-.64,.2c-.17,.13-.3,.31-.39,.54-.09,.23-.13,.49-.13,.78s.04,.55,.13,.79c.09,.23,.22,.42,.39,.55,.17,.14,.38,.2,.63,.2Z"/><path d="M89.8,20.06c-.43,0-.8-.09-1.11-.28s-.55-.44-.72-.78c-.17-.34-.25-.73-.25-1.18s.08-.84,.25-1.18c.17-.34,.4-.61,.7-.8,.3-.19,.66-.29,1.06-.29,.25,0,.48,.04,.72,.12s.44,.21,.62,.38c.18,.17,.33,.4,.43,.68,.11,.28,.16,.61,.16,1.01v.3h-3.47v-.64h2.64c0-.22-.05-.42-.14-.6s-.22-.31-.38-.41c-.16-.1-.36-.15-.58-.15-.24,0-.45,.06-.62,.17-.18,.12-.31,.27-.41,.45-.1,.19-.14,.39-.14,.61v.5c0,.29,.05,.54,.15,.74,.1,.2,.25,.36,.43,.47,.19,.11,.4,.16,.65,.16,.16,0,.31-.02,.44-.07,.13-.05,.25-.12,.34-.21,.1-.09,.17-.21,.22-.34l.8,.15c-.06,.24-.18,.44-.35,.62-.17,.18-.37,.31-.62,.41-.25,.1-.53,.15-.85,.15Z"/><path d="M94.52,14.91v-.76h4.5v.76h-1.82v5.06h-.88v-5.06h-1.81Z"/><path d="M99.49,19.97v-4.36h.82v.69h.05c.08-.23,.22-.42,.42-.56,.2-.14,.43-.2,.69-.2,.05,0,.12,0,.19,0s.13,0,.17,.01v.81s-.09-.02-.18-.03c-.09-.01-.17-.02-.26-.02-.2,0-.38,.04-.54,.13-.16,.08-.28,.2-.37,.35-.09,.15-.14,.32-.14,.51v2.66h-.85Z"/><path d="M103.79,20.06c-.28,0-.53-.05-.75-.15-.22-.1-.4-.25-.53-.45-.13-.2-.19-.44-.19-.72,0-.25,.05-.45,.14-.61s.22-.29,.38-.38,.34-.16,.54-.21c.2-.05,.4-.08,.61-.11,.26-.03,.47-.06,.64-.08,.16-.02,.28-.05,.35-.1,.07-.05,.11-.12,.11-.22v-.02c0-.25-.07-.44-.21-.58s-.35-.2-.62-.2-.51,.06-.67,.19c-.16,.13-.28,.27-.34,.42l-.8-.18c.09-.27,.23-.48,.42-.64,.18-.16,.39-.28,.63-.36s.49-.11,.75-.11c.17,0,.36,.02,.56,.06,.2,.04,.38,.12,.55,.22s.31,.26,.42,.46,.16,.46,.16,.78v2.9h-.83v-.6h-.03c-.06,.11-.14,.22-.25,.32-.11,.11-.25,.19-.42,.26-.17,.07-.38,.1-.62,.1Zm.18-.68c.23,0,.44-.05,.6-.14,.17-.09,.3-.21,.38-.36,.09-.15,.13-.31,.13-.48v-.56s-.09,.06-.17,.08c-.09,.03-.18,.05-.29,.07s-.22,.03-.32,.05c-.1,.01-.19,.03-.26,.04-.16,.02-.31,.06-.45,.1-.14,.05-.24,.12-.32,.21-.08,.09-.12,.21-.12,.36,0,.21,.08,.37,.23,.48s.35,.16,.59,.16Z"/><path d="M109.16,15.6v.68h-2.47v-.68h2.47Zm-1.79,4.36v-4.87c0-.27,.06-.5,.18-.68,.12-.18,.28-.32,.47-.41,.2-.09,.41-.13,.64-.13,.17,0,.32,.01,.44,.04s.21,.05,.27,.08l-.2,.69s-.09-.02-.15-.04-.14-.02-.23-.02c-.21,0-.35,.05-.44,.15-.09,.1-.13,.25-.13,.44v4.76h-.85Z"/><path d="M112.11,15.6v.68h-2.47v-.68h2.47Zm-1.79,4.36v-4.87c0-.27,.06-.5,.18-.68,.12-.18,.28-.32,.47-.41,.2-.09,.41-.13,.64-.13,.17,0,.32,.01,.44,.04s.21,.05,.27,.08l-.2,.69s-.09-.02-.15-.04-.14-.02-.23-.02c-.21,0-.35,.05-.44,.15-.09,.1-.13,.25-.13,.44v4.76h-.85Z"/><path d="M113.41,14.93c-.15,0-.27-.05-.38-.15-.1-.1-.16-.22-.16-.36s.05-.26,.16-.36c.11-.1,.23-.15,.38-.15s.27,.05,.38,.15c.1,.1,.16,.22,.16,.36s-.05,.26-.16,.36c-.11,.1-.23,.15-.38,.15Zm-.43,5.04v-4.36h.85v4.36h-.85Z"/><path d="M116.81,20.06c-.42,0-.79-.1-1.09-.29-.3-.19-.54-.46-.7-.8-.16-.34-.24-.73-.24-1.17s.08-.83,.25-1.17c.17-.34,.4-.61,.7-.8,.3-.19,.66-.29,1.07-.29,.33,0,.63,.06,.89,.18,.26,.12,.47,.29,.63,.51,.16,.22,.26,.48,.29,.77h-.83c-.05-.2-.15-.38-.31-.53-.16-.15-.38-.22-.65-.22-.24,0-.44,.06-.62,.19s-.31,.3-.41,.53c-.1,.23-.15,.5-.15,.81s.05,.59,.15,.82,.23,.41,.41,.54c.18,.13,.39,.19,.63,.19,.16,0,.31-.03,.44-.09,.13-.06,.24-.15,.33-.26,.09-.11,.15-.25,.19-.4h.83c-.03,.28-.12,.53-.28,.76s-.36,.4-.62,.52c-.26,.13-.56,.19-.9,.19Z"/></g><g><path d="M64.75,35.77c-.03-.27-.16-.48-.38-.63-.22-.15-.5-.22-.83-.22-.24,0-.44,.04-.62,.11-.17,.08-.31,.18-.4,.31-.1,.13-.14,.28-.14,.44,0,.14,.03,.26,.1,.36,.06,.1,.15,.18,.26,.25s.22,.12,.35,.17c.12,.04,.24,.08,.35,.11l.57,.15c.19,.04,.38,.11,.57,.18,.2,.08,.38,.18,.54,.31,.17,.13,.3,.28,.4,.47,.1,.19,.15,.41,.15,.67,0,.33-.08,.62-.25,.88s-.41,.46-.74,.61c-.32,.15-.71,.22-1.16,.22s-.81-.07-1.13-.21c-.32-.14-.57-.33-.75-.59-.18-.25-.28-.56-.3-.91h.88c.02,.21,.09,.38,.21,.52,.12,.14,.27,.24,.46,.31s.4,.1,.62,.1c.25,0,.47-.04,.66-.12,.19-.08,.35-.19,.46-.33,.11-.14,.17-.31,.17-.5,0-.17-.05-.31-.15-.42-.1-.11-.23-.2-.4-.27-.17-.07-.35-.14-.56-.19l-.69-.19c-.47-.13-.83-.31-1.11-.56-.27-.25-.41-.57-.41-.98,0-.33,.09-.63,.27-.88,.18-.25,.43-.44,.74-.58,.31-.14,.66-.21,1.05-.21s.74,.07,1.04,.21c.3,.14,.54,.33,.71,.57s.27,.52,.27,.83h-.85Z"/><path d="M68.67,40.14c-.39,0-.74-.07-1.04-.2-.31-.13-.55-.32-.72-.56-.18-.24-.27-.52-.29-.83h.89c.01,.17,.07,.32,.17,.45,.1,.13,.24,.22,.41,.29,.17,.07,.36,.1,.57,.1,.23,0,.43-.04,.61-.12,.18-.08,.32-.19,.42-.33,.1-.14,.15-.31,.15-.5s-.05-.37-.15-.52c-.1-.15-.24-.27-.43-.35-.19-.08-.42-.13-.69-.13h-.49v-.72h.49c.22,0,.41-.04,.57-.12,.16-.08,.29-.19,.38-.33,.09-.14,.14-.3,.14-.49s-.04-.34-.12-.47-.19-.24-.34-.31c-.15-.08-.32-.11-.52-.11s-.37,.03-.53,.1c-.16,.07-.3,.17-.4,.3-.1,.13-.16,.28-.16,.46h-.85c0-.31,.1-.59,.28-.83,.18-.24,.41-.42,.7-.56,.29-.13,.62-.2,.97-.2s.7,.07,.97,.22c.27,.14,.48,.34,.63,.58,.15,.24,.22,.5,.22,.79,0,.33-.09,.6-.27,.83s-.43,.38-.73,.46v.04c.39,.06,.69,.21,.9,.46,.21,.25,.32,.56,.32,.92,0,.32-.09,.61-.27,.86-.18,.25-.42,.45-.73,.6-.31,.14-.66,.22-1.06,.22Z"/><path d="M74.48,40.06h-.93l2.09-5.82h1.01l2.09,5.82h-.93l-1.65-4.76h-.05l-1.65,4.76Zm.16-2.28h3.02v.74h-3.02v-.74Z"/><path d="M79.59,40.06v-5.82h2.07c.45,0,.83,.08,1.12,.25s.52,.39,.67,.67c.15,.29,.22,.61,.22,.96s-.07,.68-.22,.96c-.15,.29-.37,.51-.67,.68-.3,.17-.67,.25-1.12,.25h-1.43v-.74h1.35c.29,0,.52-.05,.7-.15s.31-.24,.39-.41c.08-.17,.12-.37,.12-.59s-.04-.42-.12-.59c-.08-.17-.21-.3-.39-.4-.18-.1-.41-.14-.71-.14h-1.1v5.07h-.88Z"/><path d="M85.58,34.24v5.82h-.88v-5.82h.88Z"/><path d="M88.69,35v-.76h4.5v.76h-1.82v5.06h-.88v-5.06h-1.81Z"/><path d="M93.67,40.06v-4.36h.82v.69h.05c.08-.23,.22-.42,.42-.56,.2-.13,.43-.2,.69-.2,.05,0,.12,0,.19,0s.13,0,.17,.01v.81s-.09-.02-.18-.03c-.09-.01-.17-.02-.26-.02-.2,0-.38,.04-.54,.13s-.28,.2-.37,.35c-.09,.15-.14,.32-.14,.51v2.67h-.85Z"/><path d="M97.97,40.16c-.28,0-.53-.05-.75-.16s-.4-.25-.53-.45-.19-.44-.19-.72c0-.25,.05-.45,.14-.61s.22-.29,.38-.38,.34-.16,.54-.21c.2-.05,.4-.08,.61-.11,.26-.03,.47-.06,.64-.08,.16-.02,.28-.05,.35-.1,.07-.04,.11-.12,.11-.22v-.02c0-.25-.07-.44-.21-.58-.14-.14-.35-.21-.62-.21s-.51,.06-.67,.19c-.16,.13-.28,.27-.34,.42l-.8-.18c.09-.27,.23-.48,.42-.64,.18-.16,.39-.28,.63-.36,.24-.07,.49-.11,.75-.11,.17,0,.36,.02,.56,.06,.2,.04,.38,.12,.55,.22,.17,.11,.31,.26,.42,.46,.11,.2,.16,.46,.16,.78v2.9h-.83v-.6h-.03c-.06,.11-.14,.22-.25,.32-.11,.11-.25,.19-.42,.26-.17,.07-.38,.11-.62,.11Zm.18-.68c.23,0,.44-.05,.6-.14,.17-.09,.3-.21,.38-.37,.09-.15,.13-.31,.13-.48v-.56s-.09,.06-.17,.08c-.09,.03-.18,.05-.29,.07-.11,.02-.22,.03-.32,.05-.1,.01-.19,.03-.26,.04-.16,.02-.31,.06-.45,.1-.14,.05-.24,.12-.32,.21-.08,.09-.12,.21-.12,.37,0,.21,.08,.37,.23,.48,.16,.11,.35,.16,.59,.16Z"/><path d="M103.33,35.69v.68h-2.47v-.68h2.47Zm-1.79,4.36v-4.87c0-.27,.06-.5,.18-.68,.12-.18,.28-.32,.47-.41,.2-.09,.41-.13,.64-.13,.17,0,.32,.01,.44,.04s.21,.05,.27,.08l-.2,.69s-.09-.03-.15-.04c-.06-.02-.14-.02-.23-.02-.21,0-.35,.05-.44,.15-.09,.1-.13,.25-.13,.44v4.76h-.85Z"/><path d="M106.28,35.69v.68h-2.47v-.68h2.47Zm-1.79,4.36v-4.87c0-.27,.06-.5,.18-.68,.12-.18,.28-.32,.47-.41,.2-.09,.41-.13,.64-.13,.17,0,.32,.01,.44,.04s.21,.05,.27,.08l-.2,.69s-.09-.03-.15-.04c-.06-.02-.14-.02-.23-.02-.21,0-.35,.05-.44,.15-.09,.1-.13,.25-.13,.44v4.76h-.85Z"/><path d="M107.59,35.02c-.15,0-.27-.05-.38-.15-.1-.1-.16-.22-.16-.36s.05-.26,.16-.36c.11-.1,.23-.15,.38-.15s.27,.05,.38,.15c.1,.1,.16,.22,.16,.36s-.05,.26-.16,.36c-.11,.1-.23,.15-.38,.15Zm-.43,5.04v-4.36h.85v4.36h-.85Z"/><path d="M110.99,40.15c-.42,0-.79-.1-1.09-.29-.3-.19-.54-.46-.7-.8-.16-.34-.24-.73-.24-1.17s.08-.83,.25-1.17,.4-.61,.7-.8c.3-.19,.66-.29,1.07-.29,.33,0,.63,.06,.89,.18,.26,.12,.47,.29,.63,.51,.16,.22,.26,.48,.29,.77h-.83c-.05-.2-.15-.38-.31-.53s-.38-.22-.65-.22c-.24,0-.44,.06-.62,.19s-.31,.3-.41,.53c-.1,.23-.15,.5-.15,.81s.05,.59,.15,.82c.1,.23,.23,.41,.41,.54,.18,.13,.39,.19,.63,.19,.16,0,.31-.03,.44-.09,.13-.06,.24-.15,.33-.26s.15-.25,.19-.4h.83c-.03,.28-.12,.53-.28,.76s-.36,.4-.62,.52-.56,.19-.9,.19Z"/></g><line class="g" x1="14.26" y1="17.18" x2="46.34" y2="17.18"/><line class="h" x1="14.26" y1="37.15" x2="46.34" y2="37.15"/><rect class="s" x="228.67" y="54.06" width="185.86" height="52.93"/><text class="o" transform="translate(262.2 85.41)"><tspan class="w" x="0" y="0">L</tspan><tspan class="c" x="7.55" y="0">O</tspan><tspan x="17.92" y="0">AD BA</tspan><tspan class="v" x="61.54" y="0">L</tspan><tspan x="69.74" y="0">ANCER</tspan></text><g><rect class="i" x="42.94" y="264.44" width="104.98" height="39.33"/><text class="x" transform="translate(77.54 287.91)"><tspan x="0" y="0">NODE 1</tspan></text></g><g><rect class="i" x="188.09" y="264.44" width="104.98" height="39.33"/><text class="x" transform="translate(220.85 287.91)"><tspan x="0" y="0">NODE ..</tspan><tspan class="u" x="36.84" y="0">.</tspan></text></g><rect class="t" x="43.03" y="207.66" width="250.13" height="38.34"/><g><path class="m" d="M143.6,232.19v-10.72h4.23c.81,0,1.51,.15,2.08,.46,.57,.31,1.01,.74,1.31,1.28,.3,.55,.45,1.17,.45,1.89s-.15,1.34-.46,1.88c-.31,.54-.75,.97-1.33,1.27-.58,.3-1.28,.46-2.11,.46h-2.7v-1.82h2.33c.44,0,.8-.08,1.08-.23,.28-.15,.5-.36,.64-.63s.21-.58,.21-.93-.07-.67-.21-.93c-.14-.27-.35-.47-.64-.62s-.65-.22-1.09-.22h-1.53v8.87h-2.27Z"/><path class="m" d="M163,226.84c0,1.17-.22,2.16-.66,2.98-.44,.82-1.04,1.45-1.8,1.88-.76,.43-1.61,.65-2.56,.65s-1.81-.22-2.56-.65-1.36-1.06-1.8-1.88c-.44-.82-.66-1.81-.66-2.98s.22-2.16,.66-2.98c.44-.82,1.04-1.45,1.8-1.88,.76-.43,1.61-.65,2.56-.65s1.8,.22,2.56,.65c.76,.43,1.36,1.06,1.8,1.88,.44,.82,.66,1.81,.66,2.98Zm-2.3,0c0-.76-.11-1.4-.34-1.92s-.54-.91-.95-1.18c-.41-.27-.89-.4-1.43-.4s-1.03,.13-1.43,.4c-.41,.27-.72,.66-.95,1.18s-.34,1.16-.34,1.92,.11,1.4,.34,1.92,.54,.91,.95,1.18c.41,.27,.89,.4,1.43,.4s1.03-.13,1.43-.4,.73-.66,.95-1.18,.34-1.16,.34-1.92Z"/><path class="m" d="M174.52,226.84c0,1.17-.22,2.16-.66,2.98-.44,.82-1.04,1.45-1.8,1.88-.76,.43-1.61,.65-2.56,.65s-1.81-.22-2.56-.65-1.36-1.06-1.8-1.88c-.44-.82-.66-1.81-.66-2.98s.22-2.16,.66-2.98c.44-.82,1.04-1.45,1.8-1.88,.76-.43,1.61-.65,2.56-.65s1.8,.22,2.56,.65c.76,.43,1.36,1.06,1.8,1.88,.44,.82,.66,1.81,.66,2.98Zm-2.3,0c0-.76-.11-1.4-.34-1.92s-.54-.91-.95-1.18c-.41-.27-.89-.4-1.43-.4s-1.03,.13-1.43,.4c-.41,.27-.72,.66-.95,1.18s-.34,1.16-.34,1.92,.11,1.4,.34,1.92,.54,.91,.95,1.18c.41,.27,.89,.4,1.43,.4s1.03-.13,1.43-.4,.73-.66,.95-1.18,.34-1.16,.34-1.92Z"/><path class="m" d="M176.2,232.19v-10.72h2.27v8.85h4.6v1.87h-6.86Z"/><path class="m" d="M192.58,221.48v10.72h-2.27v-8.57h-.06l-2.46,1.54v-2.01l2.65-1.68h2.13Z"/></g><g><line class="e" x1="49.02" y1="349.92" x2="49.02" y2="327.86"/><g><g><path class="p" d="M55.25,339.31h-11.25c-.7,0-1.37-.29-1.85-.8-.48-.51-.72-1.2-.67-1.9l.98-13.55c.09-1.31,1.2-2.34,2.52-2.34h9.29c1.32,0,2.42,1.03,2.52,2.34l.98,13.55c.05,.7-.19,1.39-.67,1.9-.48,.51-1.15,.8-1.85,.8Z"/><rect class="m" x="44.61" y="321.16" width="1.07" height="3.42" rx=".34" ry=".34"/><rect class="m" x="46.82" y="321.16" width="1.07" height="4.06" rx=".34" ry=".34"/><rect class="m" x="51.22" y="321.16" width="1.07" height="4.06" rx=".34" ry=".34"/><rect class="m" x="53.42" y="321.16" width="1.07" height="3.42" rx=".34" ry=".34"/><rect class="m" x="49.02" y="321.16" width="1.07" height="3.42" rx=".34" ry=".34"/><path class="d" d="M55.25,339.31h-11.25c-.7,0-1.37-.29-1.85-.8-.48-.51-.72-1.2-.67-1.9l.98-13.55c.09-1.31,1.2-2.34,2.52-2.34h9.29c1.32,0,2.42,1.03,2.52,2.34l.98,13.55c.05,.7-.19,1.39-.67,1.9-.48,.51-1.15,.8-1.85,.8Z"/></g><line class="j" x1="43.07" y1="335.33" x2="56.03" y2="335.33"/></g><g><rect class="q" x="41.46" y="349.92" width="17.24" height="20.03" rx="3.25" ry="3.25"/><text class="n" transform="translate(47.27 362.06)"><tspan x="0" y="0">D</tspan></text></g></g><g><line class="e" x1="112.96" y1="349.92" x2="112.96" y2="327.86"/><g><g><path class="p" d="M117.91,339.31h-11.25c-.7,0-1.37-.29-1.85-.8-.48-.51-.72-1.2-.67-1.9l.98-13.55c.09-1.31,1.2-2.34,2.52-2.34h9.29c1.32,0,2.42,1.03,2.52,2.34l.98,13.55c.05,.7-.19,1.39-.67,1.9-.48,.51-1.15,.8-1.85,.8Z"/><rect class="m" x="107.28" y="321.16" width="1.07" height="3.42" rx=".34" ry=".34"/><rect class="m" x="109.48" y="321.16" width="1.07" height="4.06" rx=".34" ry=".34"/><rect class="m" x="113.88" y="321.16" width="1.07" height="4.06" rx=".34" ry=".34"/><rect class="m" x="116.08" y="321.16" width="1.07" height="3.42" rx=".34" ry=".34"/><rect class="m" x="111.68" y="321.16" width="1.07" height="3.42" rx=".34" ry=".34"/><path class="d" d="M117.91,339.31h-11.25c-.7,0-1.37-.29-1.85-.8-.48-.51-.72-1.2-.67-1.9l.98-13.55c.09-1.31,1.2-2.34,2.52-2.34h9.29c1.32,0,2.42,1.03,2.52,2.34l.98,13.55c.05,.7-.19,1.39-.67,1.9-.48,.51-1.15,.8-1.85,.8Z"/></g><line class="j" x1="105.81" y1="335.33" x2="118.77" y2="335.33"/></g><g><rect class="q" x="103.22" y="349.92" width="17.24" height="20.03" rx="3.25" ry="3.25"/><text class="n" transform="translate(109.02 362.06)"><tspan x="0" y="0">D</tspan></text></g></g><g><line class="e" x1="79.83" y1="349.92" x2="79.83" y2="327.86"/><g><g><path class="p" d="M86.06,339.31h-11.25c-.7,0-1.37-.29-1.85-.8-.48-.51-.72-1.2-.67-1.9l.98-13.55c.09-1.31,1.2-2.34,2.52-2.34h9.29c1.32,0,2.42,1.03,2.52,2.34l.98,13.55c.05,.7-.19,1.39-.67,1.9-.48,.51-1.15,.8-1.85,.8Z"/><rect class="m" x="75.43" y="321.16" width="1.07" height="3.42" rx=".34" ry=".34"/><rect class="m" x="77.63" y="321.16" width="1.07" height="4.06" rx=".34" ry=".34"/><rect class="m" x="82.03" y="321.16" width="1.07" height="4.06" rx=".34" ry=".34"/><rect class="m" x="84.23" y="321.16" width="1.07" height="3.42" rx=".34" ry=".34"/><rect class="m" x="79.83" y="321.16" width="1.07" height="3.42" rx=".34" ry=".34"/><path class="d" d="M86.06,339.31h-11.25c-.7,0-1.37-.29-1.85-.8-.48-.51-.72-1.2-.67-1.9l.98-13.55c.09-1.31,1.2-2.34,2.52-2.34h9.29c1.32,0,2.42,1.03,2.52,2.34l.98,13.55c.05,.7-.19,1.39-.67,1.9-.48,.51-1.15,.8-1.85,.8Z"/></g><line class="j" x1="73.96" y1="335.33" x2="86.92" y2="335.33"/></g><g><rect class="l" x="71.28" y="349.05" width="18.3" height="21.26" rx="3.25" ry="3.25"/><rect class="p" x="72.7" y="350.7" width="15.46" height="17.97" rx="3.25" ry="3.25"/><path class="m" d="M78.75,361.58v-5.08h1.81c.4,0,.72,.07,.98,.22,.26,.14,.45,.34,.58,.59,.13,.25,.19,.53,.19,.84s-.07,.59-.19,.84-.33,.45-.59,.59-.59,.22-.98,.22h-1.25v-.65h1.18c.25,0,.45-.04,.61-.13s.27-.21,.34-.36c.07-.15,.11-.32,.11-.51s-.04-.36-.11-.51c-.07-.15-.19-.27-.34-.35-.16-.08-.36-.13-.62-.13h-.96v4.43h-.77Z"/></g></g><g><line class="e" x1="142.4" y1="349.92" x2="142.4" y2="327.86"/><g><g><path class="p" d="M147.35,339.31h-11.25c-.7,0-1.37-.29-1.85-.8-.48-.51-.72-1.2-.67-1.9l.98-13.55c.09-1.31,1.2-2.34,2.52-2.34h9.29c1.32,0,2.42,1.03,2.52,2.34l.98,13.55c.05,.7-.19,1.39-.67,1.9-.48,.51-1.15,.8-1.85,.8Z"/><rect class="m" x="136.71" y="321.16" width="1.07" height="3.42" rx=".34" ry=".34"/><rect class="m" x="138.91" y="321.16" width="1.07" height="4.06" rx=".34" ry=".34"/><rect class="m" x="143.31" y="321.16" width="1.07" height="4.06" rx=".34" ry=".34"/><rect class="m" x="145.51" y="321.16" width="1.07" height="3.42" rx=".34" ry=".34"/><rect class="m" x="141.11" y="321.16" width="1.07" height="3.42" rx=".34" ry=".34"/><path class="d" d="M147.35,339.31h-11.25c-.7,0-1.37-.29-1.85-.8-.48-.51-.72-1.2-.67-1.9l.98-13.55c.09-1.31,1.2-2.34,2.52-2.34h9.29c1.32,0,2.42,1.03,2.52,2.34l.98,13.55c.05,.7-.19,1.39-.67,1.9-.48,.51-1.15,.8-1.85,.8Z"/></g><line class="j" x1="135.24" y1="335.33" x2="148.21" y2="335.33"/></g><g><rect class="l" x="133.03" y="349.05" width="18.3" height="21.26" rx="3.25" ry="3.25"/><rect class="p" x="134.45" y="350.7" width="15.46" height="17.97" rx="3.25" ry="3.25"/><path class="m" d="M140.51,361.58v-5.08h1.81c.4,0,.72,.07,.98,.22,.26,.14,.45,.34,.58,.59,.13,.25,.19,.53,.19,.84s-.07,.59-.19,.84-.33,.45-.59,.59-.59,.22-.98,.22h-1.25v-.65h1.18c.25,0,.45-.04,.61-.13s.27-.21,.34-.36c.07-.15,.11-.32,.11-.51s-.04-.36-.11-.51c-.07-.15-.19-.27-.34-.35-.16-.08-.36-.13-.62-.13h-.96v4.43h-.77Z"/></g></g><polyline class="f" points="93.67 264.44 93.67 253.84 240.59 253.84 240.59 264.44"/><line class="f" x1="165.94" y1="253.69" x2="165.94" y2="246.01"/><polyline class="f" points="47.89 317.27 47.89 308.71 142.18 308.71 142.18 317.27"/><line class="f" x1="79.83" y1="308.71" x2="79.83" y2="317.27"/><line class="f" x1="112.29" y1="308.71" x2="112.29" y2="317.27"/><line class="f" x1="95.04" y1="303.77" x2="95.04" y2="308.71"/><polyline class="p" points="48.16 315.08 50.35 315.08 47.81 319.46 45.28 315.08 47.17 315.08"/><polyline class="p" points="80.18 315.08 82.36 315.08 79.83 319.46 77.3 315.08 79.19 315.08"/><polyline class="p" points="112.18 315.08 114.36 315.08 111.83 319.46 109.3 315.08 111.19 315.08"/><polyline class="p" points="142.65 315.08 144.83 315.08 142.3 319.46 139.77 315.08 141.66 315.08"/><g><line class="e" x1="193.2" y1="349.92" x2="193.2" y2="327.86"/><g><g><path class="p" d="M199.44,339.31h-11.25c-.7,0-1.37-.29-1.85-.8-.48-.51-.72-1.2-.67-1.9l.98-13.55c.09-1.31,1.2-2.34,2.52-2.34h9.29c1.32,0,2.42,1.03,2.52,2.34l.98,13.55c.05,.7-.19,1.39-.67,1.9-.48,.51-1.15,.8-1.85,.8Z"/><rect class="m" x="188.8" y="321.16" width="1.07" height="3.42" rx=".34" ry=".34"/><rect class="m" x="191" y="321.16" width="1.07" height="4.06" rx=".34" ry=".34"/><rect class="m" x="195.41" y="321.16" width="1.07" height="4.06" rx=".34" ry=".34"/><rect class="m" x="197.61" y="321.16" width="1.07" height="3.42" rx=".34" ry=".34"/><rect class="m" x="193.2" y="321.16" width="1.07" height="3.42" rx=".34" ry=".34"/><path class="d" d="M199.44,339.31h-11.25c-.7,0-1.37-.29-1.85-.8-.48-.51-.72-1.2-.67-1.9l.98-13.55c.09-1.31,1.2-2.34,2.52-2.34h9.29c1.32,0,2.42,1.03,2.52,2.34l.98,13.55c.05,.7-.19,1.39-.67,1.9-.48,.51-1.15,.8-1.85,.8Z"/></g><line class="j" x1="187.26" y1="335.33" x2="200.22" y2="335.33"/></g><g><rect class="q" x="185.65" y="349.92" width="17.24" height="20.03" rx="3.25" ry="3.25"/><text class="n" transform="translate(191.46 362.06)"><tspan x="0" y="0">D</tspan></text></g></g><g><line class="e" x1="257.15" y1="349.92" x2="257.15" y2="327.86"/><g><g><path class="p" d="M262.1,339.31h-11.25c-.7,0-1.37-.29-1.85-.8-.48-.51-.72-1.2-.67-1.9l.98-13.55c.09-1.31,1.2-2.34,2.52-2.34h9.29c1.32,0,2.42,1.03,2.52,2.34l.98,13.55c.05,.7-.19,1.39-.67,1.9-.48,.51-1.15,.8-1.85,.8Z"/><rect class="m" x="251.47" y="321.16" width="1.07" height="3.42" rx=".34" ry=".34"/><rect class="m" x="253.67" y="321.16" width="1.07" height="4.06" rx=".34" ry=".34"/><rect class="m" x="258.07" y="321.16" width="1.07" height="4.06" rx=".34" ry=".34"/><rect class="m" x="260.27" y="321.16" width="1.07" height="3.42" rx=".34" ry=".34"/><rect class="m" x="255.87" y="321.16" width="1.07" height="3.42" rx=".34" ry=".34"/><path class="d" d="M262.1,339.31h-11.25c-.7,0-1.37-.29-1.85-.8-.48-.51-.72-1.2-.67-1.9l.98-13.55c.09-1.31,1.2-2.34,2.52-2.34h9.29c1.32,0,2.42,1.03,2.52,2.34l.98,13.55c.05,.7-.19,1.39-.67,1.9-.48,.51-1.15,.8-1.85,.8Z"/></g><line class="j" x1="250" y1="335.33" x2="262.96" y2="335.33"/></g><g><rect class="q" x="247.4" y="349.92" width="17.24" height="20.03" rx="3.25" ry="3.25"/><text class="n" transform="translate(253.21 362.06)"><tspan x="0" y="0">D</tspan></text></g></g><g><line class="e" x1="224.02" y1="349.92" x2="224.02" y2="327.86"/><g><g><path class="p" d="M230.25,339.31h-11.25c-.7,0-1.37-.29-1.85-.8-.48-.51-.72-1.2-.67-1.9l.98-13.55c.09-1.31,1.2-2.34,2.52-2.34h9.29c1.32,0,2.42,1.03,2.52,2.34l.98,13.55c.05,.7-.19,1.39-.67,1.9-.48,.51-1.15,.8-1.85,.8Z"/><rect class="m" x="219.62" y="321.16" width="1.07" height="3.42" rx=".34" ry=".34"/><rect class="m" x="221.82" y="321.16" width="1.07" height="4.06" rx=".34" ry=".34"/><rect class="m" x="226.22" y="321.16" width="1.07" height="4.06" rx=".34" ry=".34"/><rect class="m" x="228.42" y="321.16" width="1.07" height="3.42" rx=".34" ry=".34"/><rect class="m" x="224.02" y="321.16" width="1.07" height="3.42" rx=".34" ry=".34"/><path class="d" d="M230.25,339.31h-11.25c-.7,0-1.37-.29-1.85-.8-.48-.51-.72-1.2-.67-1.9l.98-13.55c.09-1.31,1.2-2.34,2.52-2.34h9.29c1.32,0,2.42,1.03,2.52,2.34l.98,13.55c.05,.7-.19,1.39-.67,1.9-.48,.51-1.15,.8-1.85,.8Z"/></g><line class="j" x1="218.15" y1="335.33" x2="231.11" y2="335.33"/></g><g><rect class="l" x="215.47" y="349.05" width="18.3" height="21.26" rx="3.25" ry="3.25"/><rect class="p" x="216.89" y="350.7" width="15.46" height="17.97" rx="3.25" ry="3.25"/><path class="m" d="M222.94,361.58v-5.08h1.81c.4,0,.72,.07,.98,.22,.26,.14,.45,.34,.58,.59,.13,.25,.19,.53,.19,.84s-.07,.59-.19,.84-.33,.45-.59,.59-.59,.22-.98,.22h-1.25v-.65h1.18c.25,0,.45-.04,.61-.13s.27-.21,.34-.36c.07-.15,.11-.32,.11-.51s-.04-.36-.11-.51c-.07-.15-.19-.27-.34-.35-.16-.08-.36-.13-.62-.13h-.96v4.43h-.77Z"/></g></g><g><line class="e" x1="286.59" y1="349.92" x2="286.59" y2="327.86"/><g><g><path class="p" d="M291.54,339.31h-11.25c-.7,0-1.37-.29-1.85-.8-.48-.51-.72-1.2-.67-1.9l.98-13.55c.09-1.31,1.2-2.34,2.52-2.34h9.29c1.32,0,2.42,1.03,2.52,2.34l.98,13.55c.05,.7-.19,1.39-.67,1.9-.48,.51-1.15,.8-1.85,.8Z"/><rect class="m" x="280.9" y="321.16" width="1.07" height="3.42" rx=".34" ry=".34"/><rect class="m" x="283.1" y="321.16" width="1.07" height="4.06" rx=".34" ry=".34"/><rect class="m" x="287.5" y="321.16" width="1.07" height="4.06" rx=".34" ry=".34"/><rect class="m" x="289.7" y="321.16" width="1.07" height="3.42" rx=".34" ry=".34"/><rect class="m" x="285.3" y="321.16" width="1.07" height="3.42" rx=".34" ry=".34"/><path class="d" d="M291.54,339.31h-11.25c-.7,0-1.37-.29-1.85-.8-.48-.51-.72-1.2-.67-1.9l.98-13.55c.09-1.31,1.2-2.34,2.52-2.34h9.29c1.32,0,2.42,1.03,2.52,2.34l.98,13.55c.05,.7-.19,1.39-.67,1.9-.48,.51-1.15,.8-1.85,.8Z"/></g><line class="j" x1="279.43" y1="335.33" x2="292.39" y2="335.33"/></g><g><rect class="l" x="277.22" y="349.05" width="18.3" height="21.26" rx="3.25" ry="3.25"/><rect class="p" x="278.64" y="350.7" width="15.46" height="17.97" rx="3.25" ry="3.25"/><path class="m" d="M284.69,361.58v-5.08h1.81c.4,0,.72,.07,.98,.22,.26,.14,.45,.34,.58,.59,.13,.25,.19,.53,.19,.84s-.07,.59-.19,.84-.33,.45-.59,.59-.59,.22-.98,.22h-1.25v-.65h1.18c.25,0,.45-.04,.61-.13s.27-.21,.34-.36c.07-.15,.11-.32,.11-.51s-.04-.36-.11-.51c-.07-.15-.19-.27-.34-.35-.16-.08-.36-.13-.62-.13h-.96v4.43h-.77Z"/></g></g><polyline class="f" points="192.08 317.27 192.08 308.71 286.37 308.71 286.37 317.27"/><line class="f" x1="224.02" y1="308.71" x2="224.02" y2="317.27"/><line class="f" x1="256.48" y1="308.71" x2="256.48" y2="317.27"/><line class="f" x1="239.23" y1="303.77" x2="239.23" y2="308.71"/><polyline class="p" points="192.35 315.08 194.53 315.08 192 319.46 189.47 315.08 191.36 315.08"/><polyline class="p" points="224.36 315.08 226.55 315.08 224.02 319.46 221.49 315.08 223.37 315.08"/><polyline class="p" points="256.37 315.08 258.55 315.08 256.02 319.46 253.49 315.08 255.38 315.08"/><polyline class="p" points="286.84 315.08 289.02 315.08 286.49 319.46 283.96 315.08 285.85 315.08"/><g><rect class="i" x="354.47" y="264.44" width="104.98" height="39.33"/><text class="x" transform="translate(389.07 287.91)"><tspan x="0" y="0">NODE 1</tspan></text></g><g><rect class="i" x="499.63" y="264.44" width="104.98" height="39.33"/><text class="x" transform="translate(532.38 287.91)"><tspan x="0" y="0">NODE ..</tspan><tspan class="u" x="36.84" y="0">.</tspan></text></g><rect class="t" x="354.56" y="207.66" width="250.13" height="38.34"/><g><path class="m" d="M455.13,232.19v-10.72h4.23c.81,0,1.51,.15,2.08,.46,.57,.31,1.01,.74,1.31,1.28,.3,.55,.45,1.17,.45,1.89s-.15,1.34-.46,1.88c-.31,.54-.75,.97-1.33,1.27-.58,.3-1.28,.46-2.11,.46h-2.7v-1.82h2.33c.44,0,.8-.08,1.08-.23,.28-.15,.5-.36,.64-.63s.21-.58,.21-.93-.07-.67-.21-.93c-.14-.27-.35-.47-.64-.62s-.65-.22-1.09-.22h-1.53v8.87h-2.27Z"/><path class="m" d="M474.53,226.84c0,1.17-.22,2.16-.66,2.98-.44,.82-1.04,1.45-1.8,1.88-.76,.43-1.61,.65-2.56,.65s-1.81-.22-2.56-.65-1.36-1.06-1.8-1.88c-.44-.82-.66-1.81-.66-2.98s.22-2.16,.66-2.98c.44-.82,1.04-1.45,1.8-1.88,.76-.43,1.61-.65,2.56-.65s1.8,.22,2.56,.65c.76,.43,1.36,1.06,1.8,1.88,.44,.82,.66,1.81,.66,2.98Zm-2.3,0c0-.76-.11-1.4-.34-1.92s-.54-.91-.95-1.18c-.41-.27-.89-.4-1.43-.4s-1.03,.13-1.43,.4c-.41,.27-.72,.66-.95,1.18s-.34,1.16-.34,1.92,.11,1.4,.34,1.92,.54,.91,.95,1.18c.41,.27,.89,.4,1.43,.4s1.03-.13,1.43-.4,.73-.66,.95-1.18,.34-1.16,.34-1.92Z"/><path class="m" d="M486.06,226.84c0,1.17-.22,2.16-.66,2.98-.44,.82-1.04,1.45-1.8,1.88-.76,.43-1.61,.65-2.56,.65s-1.81-.22-2.56-.65-1.36-1.06-1.8-1.88c-.44-.82-.66-1.81-.66-2.98s.22-2.16,.66-2.98c.44-.82,1.04-1.45,1.8-1.88,.76-.43,1.61-.65,2.56-.65s1.8,.22,2.56,.65c.76,.43,1.36,1.06,1.8,1.88,.44,.82,.66,1.81,.66,2.98Zm-2.3,0c0-.76-.11-1.4-.34-1.92s-.54-.91-.95-1.18c-.41-.27-.89-.4-1.43-.4s-1.03,.13-1.43,.4c-.41,.27-.72,.66-.95,1.18s-.34,1.16-.34,1.92,.11,1.4,.34,1.92,.54,.91,.95,1.18c.41,.27,.89,.4,1.43,.4s1.03-.13,1.43-.4,.73-.66,.95-1.18,.34-1.16,.34-1.92Z"/><path class="m" d="M487.73,232.19v-10.72h2.27v8.85h4.6v1.87h-6.86Z"/><path class="m" d="M504.12,221.48v10.72h-2.27v-8.57h-.06l-2.46,1.54v-2.01l2.65-1.68h2.13Z"/></g><g><line class="e" x1="360.55" y1="349.92" x2="360.55" y2="327.86"/><g><g><path class="p" d="M366.79,339.31h-11.25c-.7,0-1.37-.29-1.85-.8-.48-.51-.72-1.2-.67-1.9l.98-13.55c.09-1.31,1.2-2.34,2.52-2.34h9.29c1.32,0,2.42,1.03,2.52,2.34l.98,13.55c.05,.7-.19,1.39-.67,1.9-.48,.51-1.15,.8-1.85,.8Z"/><rect class="m" x="356.15" y="321.16" width="1.07" height="3.42" rx=".34" ry=".34"/><rect class="m" x="358.35" y="321.16" width="1.07" height="4.06" rx=".34" ry=".34"/><rect class="m" x="362.75" y="321.16" width="1.07" height="4.06" rx=".34" ry=".34"/><rect class="m" x="364.95" y="321.16" width="1.07" height="3.42" rx=".34" ry=".34"/><rect class="m" x="360.55" y="321.16" width="1.07" height="3.42" rx=".34" ry=".34"/><path class="d" d="M366.79,339.31h-11.25c-.7,0-1.37-.29-1.85-.8-.48-.51-.72-1.2-.67-1.9l.98-13.55c.09-1.31,1.2-2.34,2.52-2.34h9.29c1.32,0,2.42,1.03,2.52,2.34l.98,13.55c.05,.7-.19,1.39-.67,1.9-.48,.51-1.15,.8-1.85,.8Z"/></g><line class="j" x1="354.6" y1="335.33" x2="367.56" y2="335.33"/></g><g><rect class="q" x="353" y="349.92" width="17.24" height="20.03" rx="3.25" ry="3.25"/><text class="n" transform="translate(358.81 362.06)"><tspan x="0" y="0">D</tspan></text></g></g><g><line class="e" x1="424.5" y1="349.92" x2="424.5" y2="327.86"/><g><g><path class="p" d="M429.45,339.31h-11.25c-.7,0-1.37-.29-1.85-.8-.48-.51-.72-1.2-.67-1.9l.98-13.55c.09-1.31,1.2-2.34,2.52-2.34h9.29c1.32,0,2.42,1.03,2.52,2.34l.98,13.55c.05,.7-.19,1.39-.67,1.9-.48,.51-1.15,.8-1.85,.8Z"/><rect class="m" x="418.81" y="321.16" width="1.07" height="3.42" rx=".34" ry=".34"/><rect class="m" x="421.01" y="321.16" width="1.07" height="4.06" rx=".34" ry=".34"/><rect class="m" x="425.41" y="321.16" width="1.07" height="4.06" rx=".34" ry=".34"/><rect class="m" x="427.61" y="321.16" width="1.07" height="3.42" rx=".34" ry=".34"/><rect class="m" x="423.21" y="321.16" width="1.07" height="3.42" rx=".34" ry=".34"/><path class="d" d="M429.45,339.31h-11.25c-.7,0-1.37-.29-1.85-.8-.48-.51-.72-1.2-.67-1.9l.98-13.55c.09-1.31,1.2-2.34,2.52-2.34h9.29c1.32,0,2.42,1.03,2.52,2.34l.98,13.55c.05,.7-.19,1.39-.67,1.9-.48,.51-1.15,.8-1.85,.8Z"/></g><line class="j" x1="417.34" y1="335.33" x2="430.3" y2="335.33"/></g><g><rect class="q" x="414.75" y="349.92" width="17.24" height="20.03" rx="3.25" ry="3.25"/><text class="n" transform="translate(420.56 362.06)"><tspan x="0" y="0">D</tspan></text></g></g><g><line class="e" x1="391.36" y1="349.92" x2="391.36" y2="327.86"/><g><g><path class="p" d="M397.6,339.31h-11.25c-.7,0-1.37-.29-1.85-.8-.48-.51-.72-1.2-.67-1.9l.98-13.55c.09-1.31,1.2-2.34,2.52-2.34h9.29c1.32,0,2.42,1.03,2.52,2.34l.98,13.55c.05,.7-.19,1.39-.67,1.9-.48,.51-1.15,.8-1.85,.8Z"/><rect class="m" x="386.96" y="321.16" width="1.07" height="3.42" rx=".34" ry=".34"/><rect class="m" x="389.16" y="321.16" width="1.07" height="4.06" rx=".34" ry=".34"/><rect class="m" x="393.56" y="321.16" width="1.07" height="4.06" rx=".34" ry=".34"/><rect class="m" x="395.76" y="321.16" width="1.07" height="3.42" rx=".34" ry=".34"/><rect class="m" x="391.36" y="321.16" width="1.07" height="3.42" rx=".34" ry=".34"/><path class="d" d="M397.6,339.31h-11.25c-.7,0-1.37-.29-1.85-.8-.48-.51-.72-1.2-.67-1.9l.98-13.55c.09-1.31,1.2-2.34,2.52-2.34h9.29c1.32,0,2.42,1.03,2.52,2.34l.98,13.55c.05,.7-.19,1.39-.67,1.9-.48,.51-1.15,.8-1.85,.8Z"/></g><line class="j" x1="385.49" y1="335.33" x2="398.46" y2="335.33"/></g><g><rect class="l" x="382.82" y="349.05" width="18.3" height="21.26" rx="3.25" ry="3.25"/><rect class="p" x="384.23" y="350.7" width="15.46" height="17.97" rx="3.25" ry="3.25"/><path class="m" d="M390.29,361.58v-5.08h1.81c.4,0,.72,.07,.98,.22,.26,.14,.45,.34,.58,.59,.13,.25,.19,.53,.19,.84s-.07,.59-.19,.84-.33,.45-.59,.59-.59,.22-.98,.22h-1.25v-.65h1.18c.25,0,.45-.04,.61-.13s.27-.21,.34-.36c.07-.15,.11-.32,.11-.51s-.04-.36-.11-.51c-.07-.15-.19-.27-.34-.35-.16-.08-.36-.13-.62-.13h-.96v4.43h-.77Z"/></g></g><g><line class="e" x1="453.93" y1="349.92" x2="453.93" y2="327.86"/><g><g><path class="p" d="M458.88,339.31h-11.25c-.7,0-1.37-.29-1.85-.8-.48-.51-.72-1.2-.67-1.9l.98-13.55c.09-1.31,1.2-2.34,2.52-2.34h9.29c1.32,0,2.42,1.03,2.52,2.34l.98,13.55c.05,.7-.19,1.39-.67,1.9-.48,.51-1.15,.8-1.85,.8Z"/><rect class="m" x="448.25" y="321.16" width="1.07" height="3.42" rx=".34" ry=".34"/><rect class="m" x="450.45" y="321.16" width="1.07" height="4.06" rx=".34" ry=".34"/><rect class="m" x="454.85" y="321.16" width="1.07" height="4.06" rx=".34" ry=".34"/><rect class="m" x="457.05" y="321.16" width="1.07" height="3.42" rx=".34" ry=".34"/><rect class="m" x="452.65" y="321.16" width="1.07" height="3.42" rx=".34" ry=".34"/><path class="d" d="M458.88,339.31h-11.25c-.7,0-1.37-.29-1.85-.8-.48-.51-.72-1.2-.67-1.9l.98-13.55c.09-1.31,1.2-2.34,2.52-2.34h9.29c1.32,0,2.42,1.03,2.52,2.34l.98,13.55c.05,.7-.19,1.39-.67,1.9-.48,.51-1.15,.8-1.85,.8Z"/></g><line class="j" x1="446.78" y1="335.33" x2="459.74" y2="335.33"/></g><g><rect class="l" x="444.57" y="349.05" width="18.3" height="21.26" rx="3.25" ry="3.25"/><rect class="p" x="445.98" y="350.7" width="15.46" height="17.97" rx="3.25" ry="3.25"/><path class="m" d="M452.04,361.58v-5.08h1.81c.4,0,.72,.07,.98,.22,.26,.14,.45,.34,.58,.59,.13,.25,.19,.53,.19,.84s-.07,.59-.19,.84-.33,.45-.59,.59-.59,.22-.98,.22h-1.25v-.65h1.18c.25,0,.45-.04,.61-.13s.27-.21,.34-.36c.07-.15,.11-.32,.11-.51s-.04-.36-.11-.51c-.07-.15-.19-.27-.34-.35-.16-.08-.36-.13-.62-.13h-.96v4.43h-.77Z"/></g></g><g><line class="e" x1="504.74" y1="349.92" x2="504.74" y2="327.86"/><g><g><path class="p" d="M510.97,339.31h-11.25c-.7,0-1.37-.29-1.85-.8-.48-.51-.72-1.2-.67-1.9l.98-13.55c.09-1.31,1.2-2.34,2.52-2.34h9.29c1.32,0,2.42,1.03,2.52,2.34l.98,13.55c.05,.7-.19,1.39-.67,1.9-.48,.51-1.15,.8-1.85,.8Z"/><rect class="m" x="500.34" y="321.16" width="1.07" height="3.42" rx=".34" ry=".34"/><rect class="m" x="502.54" y="321.16" width="1.07" height="4.06" rx=".34" ry=".34"/><rect class="m" x="506.94" y="321.16" width="1.07" height="4.06" rx=".34" ry=".34"/><rect class="m" x="509.14" y="321.16" width="1.07" height="3.42" rx=".34" ry=".34"/><rect class="m" x="504.74" y="321.16" width="1.07" height="3.42" rx=".34" ry=".34"/><path class="d" d="M510.97,339.31h-11.25c-.7,0-1.37-.29-1.85-.8-.48-.51-.72-1.2-.67-1.9l.98-13.55c.09-1.31,1.2-2.34,2.52-2.34h9.29c1.32,0,2.42,1.03,2.52,2.34l.98,13.55c.05,.7-.19,1.39-.67,1.9-.48,.51-1.15,.8-1.85,.8Z"/></g><line class="j" x1="498.79" y1="335.33" x2="511.75" y2="335.33"/></g><g><rect class="q" x="497.19" y="349.92" width="17.24" height="20.03" rx="3.25" ry="3.25"/><text class="n" transform="translate(503 362.06)"><tspan x="0" y="0">D</tspan></text></g></g><g><line class="e" x1="568.69" y1="349.92" x2="568.69" y2="327.86"/><g><g><path class="p" d="M573.64,339.31h-11.25c-.7,0-1.37-.29-1.85-.8-.48-.51-.72-1.2-.67-1.9l.98-13.55c.09-1.31,1.2-2.34,2.52-2.34h9.29c1.32,0,2.42,1.03,2.52,2.34l.98,13.55c.05,.7-.19,1.39-.67,1.9-.48,.51-1.15,.8-1.85,.8Z"/><rect class="m" x="563" y="321.16" width="1.07" height="3.42" rx=".34" ry=".34"/><rect class="m" x="565.2" y="321.16" width="1.07" height="4.06" rx=".34" ry=".34"/><rect class="m" x="569.6" y="321.16" width="1.07" height="4.06" rx=".34" ry=".34"/><rect class="m" x="571.8" y="321.16" width="1.07" height="3.42" rx=".34" ry=".34"/><rect class="m" x="567.4" y="321.16" width="1.07" height="3.42" rx=".34" ry=".34"/><path class="d" d="M573.64,339.31h-11.25c-.7,0-1.37-.29-1.85-.8-.48-.51-.72-1.2-.67-1.9l.98-13.55c.09-1.31,1.2-2.34,2.52-2.34h9.29c1.32,0,2.42,1.03,2.52,2.34l.98,13.55c.05,.7-.19,1.39-.67,1.9-.48,.51-1.15,.8-1.85,.8Z"/></g><line class="j" x1="561.53" y1="335.33" x2="574.49" y2="335.33"/></g><g><rect class="q" x="558.94" y="349.92" width="17.24" height="20.03" rx="3.25" ry="3.25"/><text class="n" transform="translate(564.75 362.06)"><tspan x="0" y="0">D</tspan></text></g></g><g><line class="e" x1="535.55" y1="349.92" x2="535.55" y2="327.86"/><g><g><path class="p" d="M541.79,339.31h-11.25c-.7,0-1.37-.29-1.85-.8-.48-.51-.72-1.2-.67-1.9l.98-13.55c.09-1.31,1.2-2.34,2.52-2.34h9.29c1.32,0,2.42,1.03,2.52,2.34l.98,13.55c.05,.7-.19,1.39-.67,1.9-.48,.51-1.15,.8-1.85,.8Z"/><rect class="m" x="531.15" y="321.16" width="1.07" height="3.42" rx=".34" ry=".34"/><rect class="m" x="533.35" y="321.16" width="1.07" height="4.06" rx=".34" ry=".34"/><rect class="m" x="537.75" y="321.16" width="1.07" height="4.06" rx=".34" ry=".34"/><rect class="m" x="539.95" y="321.16" width="1.07" height="3.42" rx=".34" ry=".34"/><rect class="m" x="535.55" y="321.16" width="1.07" height="3.42" rx=".34" ry=".34"/><path class="d" d="M541.79,339.31h-11.25c-.7,0-1.37-.29-1.85-.8-.48-.51-.72-1.2-.67-1.9l.98-13.55c.09-1.31,1.2-2.34,2.52-2.34h9.29c1.32,0,2.42,1.03,2.52,2.34l.98,13.55c.05,.7-.19,1.39-.67,1.9-.48,.51-1.15,.8-1.85,.8Z"/></g><line class="j" x1="529.68" y1="335.33" x2="542.64" y2="335.33"/></g><g><rect class="l" x="527" y="349.05" width="18.3" height="21.26" rx="3.25" ry="3.25"/><rect class="p" x="528.42" y="350.7" width="15.46" height="17.97" rx="3.25" ry="3.25"/><path class="m" d="M534.48,361.58v-5.08h1.81c.4,0,.72,.07,.98,.22,.26,.14,.45,.34,.58,.59,.13,.25,.19,.53,.19,.84s-.07,.59-.19,.84-.33,.45-.59,.59-.59,.22-.98,.22h-1.25v-.65h1.18c.25,0,.45-.04,.61-.13s.27-.21,.34-.36c.07-.15,.11-.32,.11-.51s-.04-.36-.11-.51c-.07-.15-.19-.27-.34-.35-.16-.08-.36-.13-.62-.13h-.96v4.43h-.77Z"/></g></g><g><line class="e" x1="598.12" y1="349.92" x2="598.12" y2="327.86"/><g><g><path class="p" d="M603.07,339.31h-11.25c-.7,0-1.37-.29-1.85-.8-.48-.51-.72-1.2-.67-1.9l.98-13.55c.09-1.31,1.2-2.34,2.52-2.34h9.29c1.32,0,2.42,1.03,2.52,2.34l.98,13.55c.05,.7-.19,1.39-.67,1.9-.48,.51-1.15,.8-1.85,.8Z"/><rect class="m" x="592.44" y="321.16" width="1.07" height="3.42" rx=".34" ry=".34"/><rect class="m" x="594.64" y="321.16" width="1.07" height="4.06" rx=".34" ry=".34"/><rect class="m" x="599.04" y="321.16" width="1.07" height="4.06" rx=".34" ry=".34"/><rect class="m" x="601.24" y="321.16" width="1.07" height="3.42" rx=".34" ry=".34"/><rect class="m" x="596.84" y="321.16" width="1.07" height="3.42" rx=".34" ry=".34"/><path class="d" d="M603.07,339.31h-11.25c-.7,0-1.37-.29-1.85-.8-.48-.51-.72-1.2-.67-1.9l.98-13.55c.09-1.31,1.2-2.34,2.52-2.34h9.29c1.32,0,2.42,1.03,2.52,2.34l.98,13.55c.05,.7-.19,1.39-.67,1.9-.48,.51-1.15,.8-1.85,.8Z"/></g><line class="j" x1="590.97" y1="335.33" x2="603.93" y2="335.33"/></g><g><rect class="l" x="588.76" y="349.05" width="18.3" height="21.26" rx="3.25" ry="3.25"/><rect class="p" x="590.17" y="350.7" width="15.46" height="17.97" rx="3.25" ry="3.25"/><path class="m" d="M596.23,361.58v-5.08h1.81c.4,0,.72,.07,.98,.22,.26,.14,.45,.34,.58,.59,.13,.25,.19,.53,.19,.84s-.07,.59-.19,.84-.33,.45-.59,.59-.59,.22-.98,.22h-1.25v-.65h1.18c.25,0,.45-.04,.61-.13s.27-.21,.34-.36c.07-.15,.11-.32,.11-.51s-.04-.36-.11-.51c-.07-.15-.19-.27-.34-.35-.16-.08-.36-.13-.62-.13h-.96v4.43h-.77Z"/></g></g></svg>