<svg xmlns="http://www.w3.org/2000/svg" width="24" height="17" xmlns:v="https://vecta.io/nano"><path d="M17.816 7.513a3.235 3.235 0 01-.448-2.264c.118-.738.419-1.434.876-2.025.522.26.978.635 1.336 1.096.348.459.578.996.668 1.565l.803-.062a3.61 3.61 0 011.66.27c.207.106.406.229.594.366a.115.115 0 010 .125 2.963 2.963 0 01-1.398 1.712c-.637.353-1.36.52-2.087.48a.146.146 0 00-.167.114 15.068 15.068 0 01-1.711 3.246 10.435 10.435 0 01-5.667 4.017c-1.568.453-3.2.644-4.83.564a12.877 12.877 0 01-2.954-.45A5.28 5.28 0 011.81 14.61a6.918 6.918 0 01-1.22-2.16 10.633 10.633 0 01-.585-2.86v-.866a.73.73 0 01.647-.803h15.402a4.174 4.174 0 001.628-.334l.135-.073zM6.049 4.831h-.96c-.188 0-.25-.052-.25-.24V2.88c0-.177.051-.24.229-.24h1.951c.178 0 .24.063.24.24v1.711c0 .188-.062.24-.25.24h-.96zM8.95 2.66h.96c.187 0 .24.053.24.24v1.712c0 .188-.063.24-.25.24H7.968c-.178 0-.24-.052-.24-.24v-1.7c0-.189.052-.251.24-.251h.98z"/><path d="M11.777 4.831h-.97c-.177 0-.24-.062-.24-.23V2.87c0-.167.063-.23.23-.23h1.961c.167 0 .23.063.23.22v1.742c0 .167-.063.23-.23.23h-.98zM6.06 5.28h.96c.177 0 .24.052.24.22v1.742c0 .167-.063.23-.23.23H5.068c-.167 0-.23-.063-.23-.23V5.51c0-.178.063-.23.23-.23h.991zm2.89 2.191h-.96c-.178 0-.24-.052-.24-.23V5.52c0-.177.062-.24.24-.24h1.95c.168 0 .23.063.23.24v1.722c0 .177 0 .23-.23.23h-.99zm5.697-2.191h.98c.168 0 .23.063.23.22v1.742c0 .167-.062.23-.219.23h-1.982c-.157 0-.22-.063-.22-.23V5.499c0-.167.063-.219.23-.219h.981zM3.2 5.28h.991c.167 0 .23.052.23.23v1.732c0 .167-.063.23-.23.23H2.23c-.167 0-.23-.063-.23-.23V5.499c0-.156.063-.219.23-.219h.97zm8.577 0h.981c.167 0 .23.052.23.23v1.742c0 .157-.063.22-.22.22h-1.982c-.156 0-.219-.063-.219-.22V5.5c0-.167.063-.219.23-.219h.98zm0-3.089h-.98c-.178 0-.23-.052-.23-.23V.24c0-.177.063-.24.23-.24h1.95c.178 0 .24.063.24.24v1.722c0 .177-.062.23-.24.23h-.97z"/></svg>