<svg xmlns="http://www.w3.org/2000/svg" width="22" height="21" fill="#1e1e1e" xmlns:v="https://vecta.io/nano"><path d="M10.684 20.976c-1.333 0-2.667-.006-4 0a1.544 1.544 0 0 1-1.287-.607 1590.937 1590.937 0 0 0-5.012-6.135A1.47 1.47 0 0 1 .07 12.9l1.809-7.721c.092-.446.398-.821.82-1.007L9.986.742a1.565 1.565 0 0 1 1.394 0l7.29 3.42c.437.191.753.58.847 1.041a5787.78 5787.78 0 0 0 1.81 7.744 1.36 1.36 0 0 1-.283 1.238l-5.108 6.248a1.44 1.44 0 0 1-1.188.544c-1.354-.006-2.708 0-4.063 0zm-.526-15.503a5.68 5.68 0 0 0-3.591 1.682 1.343 1.343 0 0 1-.992-.577l-.239-.246a2.06 2.06 0 0 0-.223-.2.45.45 0 0 0-.606.039.45.45 0 0 0 .046.617c.081.07.169.132.262.186.43.264.954.424 1.111 1.016a5.58 5.58 0 0 0-.881 3.761c.004.04.005.107-.018.12a4.155 4.155 0 0 1-.611.317c-.168.039-.34.062-.512.067a4.74 4.74 0 0 0-.657.11.42.42 0 0 0-.293.485c.04.205.233.345.444.32.157-.017.31-.054.457-.111a1.89 1.89 0 0 1 1.298-.223c.074.022.136.07.175.136a5.671 5.671 0 0 0 2.375 2.904c.04.026.102.068.098.098a2.41 2.41 0 0 1-.113.624 5.501 5.501 0 0 1-.396.656 2.118 2.118 0 0 0-.222.408.39.39 0 0 0 .203.487.4.4 0 0 0 .51-.095c.101-.127.18-.27.23-.424.087-.488.359-.926.76-1.224a5.862 5.862 0 0 0 3.978.015 1.18 1.18 0 0 1 .6.78l.166.482c.044.121.102.235.176.34.11.161.318.224.5.151a.362.362 0 0 0 .26-.436 1.848 1.848 0 0 0-.221-.476l-.463-.766a.592.592 0 0 1 .052-.611 5.702 5.702 0 0 0 2.365-2.924c.019-.05.05-.132.083-.137.192-.042.389-.055.584-.039.251.06.498.14.737.234a3.83 3.83 0 0 0 .43.136.46.46 0 0 0 .512-.271.364.364 0 0 0-.23-.432 1.73 1.73 0 0 0-.494-.132c-.304-.05-.621-.059-.916-.135a1.024 1.024 0 0 1-.455-.283c-.056-.055.005-.214 0-.325l-.109-1.523a5.288 5.288 0 0 0-.817-2.022c.123-.51.537-.697.918-.917a2.87 2.87 0 0 0 .276-.162 1.12 1.12 0 0 0 .234-.219.445.445 0 0 0-.022-.55.432.432 0 0 0-.553-.053 2.499 2.499 0 0 0-.35.313c-.33.327-.621.71-1.164.748a5.779 5.779 0 0 0-3.495-1.7.218.218 0 0 1-.138-.072 1.161 1.161 0 0 1-.156-.87 7.73 7.73 0 0 0 .1-.82.44.44 0 0 0-.12-.334.455.455 0 0 0-.328-.142.463.463 0 0 0-.44.484 1.3 1.3 0 0 0 .008.234c.194.491.148 1.042-.123 1.495v.007z"/><path d="M13.178 14.972l-.499-1.175-.38-.923a.616.616 0 0 1 .034-.433c.078-.155.254-.176.436-.145l2.125.355c.033.006.069.018.138.037-.349.94-1 1.742-1.854 2.284zM7.46 7.912a4.57 4.57 0 0 1 2.677-1.273l-.025.386-.098 1.803a.482.482 0 0 1-.241.465c-.192.098-.342.009-.494-.1L7.46 7.912zM6.103 11.62a4.607 4.607 0 0 1 .665-2.852l1.6 1.401a1.83 1.83 0 0 1 .189.174.374.374 0 0 1-.152.612l-2.302.665zm2.105 3.35a4.593 4.593 0 0 1-1.845-2.28l1.167-.204 1-.168a.477.477 0 0 1 .513.125.47.47 0 0 1 .015.52l-.85 2.007zm5.72-7.058l-1.93 1.341a.384.384 0 0 1-.382.037.374.374 0 0 1-.22-.309l-.127-2.249a.312.312 0 0 1 .028-.079 4.502 4.502 0 0 1 2.63 1.26zm1.354 3.706l-.646-.184-1.533-.431a.44.44 0 0 1-.358-.328.399.399 0 0 1 .178-.409l1.54-1.365.164-.13a4.67 4.67 0 0 1 .655 2.847zm-6.071 3.836l.538-.965.575-1.02a.384.384 0 0 1 .695-.03l1.144 2.01a4.718 4.718 0 0 1-2.952.005zm1.498-5.075c.138.04.316.042.406.13a1.1 1.1 0 0 1 .35.533.827.827 0 0 1-.162.612.809.809 0 0 1-1.218-.011.83.83 0 0 1-.165-.618c.064-.207.19-.392.361-.528.092-.083.272-.078.428-.118z"/></svg>