<svg xmlns="http://www.w3.org/2000/svg" width="19" height="21" xmlns:v="https://vecta.io/nano"><path d="M18.014 17.15a1.245 1.245 0 0 1-.975-1.24c.01-.438-.176-.86-.508-1.156a4.922 4.922 0 0 0 .043-2.685c-.424-1.24-1.864-3.181-2.922-4.668s-.17-3.18-1.144-5.371S8.95-.036 7.557.914s-.974 3.263-.89 4.338A6.292 6.292 0 0 1 6.584 7.4c-.127.29-1.017 1.322-1.609 2.19s-.993 2.662-1.417 3.39a1.65 1.65 0 0 0-.127 1.403 1.04 1.04 0 0 0-.508.579c-.212.495-.678.702-1.525.866s-.805.661-.636 1.24a2.64 2.64 0 0 1-.211 1.653c-.212.744.847.992 1.99 1.116s2.372.826 3.43.95a1.28 1.28 0 0 0 1.398-.703 14.819 14.819 0 0 1 2.414-.288 10.45 10.45 0 0 1 2.413.247c.147.307.383.565.678.743a1.769 1.769 0 0 0 1.949-.372 16.397 16.397 0 0 1 3.05-1.859c.887-.496.692-1.198.142-1.405zM10.306 2.988a1.124 1.124 0 0 1 1.02 1.198c.01.425-.197.827-.552 1.074l-.254-.124a.7.7 0 0 0 .34-.62.624.624 0 0 0-.551-.66.624.624 0 0 0-.551.688.84.84 0 0 0 .085.372l-.466-.165a1.458 1.458 0 0 1-.127-.537c-.036-.294.049-.59.237-.823a1.15 1.15 0 0 1 .764-.417h.007l.048.014zm-.085 2.56c.296.083.593.29.55.455s-.169.165-.55.413c-.464.3-.962.549-1.483.743-.254.042-.424-.123-.678-.288s-.805-.62-.677-.827l.593-.454c.17-.165.635-.537.93-.496l1.315.454zM7.68 3.194c.466 0 .805.538.805 1.157a1.612 1.612 0 0 1-.042.33l-.34.166-.169.123a.806.806 0 0 0 .085-.495c-.042-.331-.296-.62-.551-.579s-.38.372-.338.702.296.62.55.58h.085l-.339.288a1.188 1.188 0 0 1-.549-1.115c.005-.661.385-1.157.809-1.157H7.68zm-.847 16.184c-.13.328-.368.605-.678.784-.508.166-1.906-.453-2.542-.701s-2.203-.29-2.415-.538.127-.743.17-1.24-.17-.784-.085-1.114 1.1-.33 1.483-.579.466-.908.804-1.073.89.454 1.144.826a26.55 26.55 0 0 0 1.528 2.312c.382.338.599.819.597 1.322l-.006.001zm5.797-4.46a19.23 19.23 0 0 0-.085 2.106 4.415 4.415 0 0 1-2.582 1.61 7.721 7.721 0 0 1-2.373.083l-.887-.992a.665.665 0 0 0 .598-.727v-.058c-.085-.661-2.119-1.611-2.456-2.437a3.855 3.855 0 0 1 .381-2.973c.466-.745.762-2.231 1.229-2.769a3.01 3.01 0 0 0 .677-2.066c-.127-.454.974 1.157 1.695.95s2.245-1.322 2.457-1.115 2.202 4.42 2.414 5.785a5.735 5.735 0 0 1-.127 2.355s-.81-.203-.937.252l-.004-.005zm5.036 3.015c-.296.289-2.033.95-2.542 1.486s-1.186.95-1.567.827a1.211 1.211 0 0 1-.594-1.487 9.92 9.92 0 0 0 .297-2.189c-.042-.496-.127-1.157 0-1.28a.433.433 0 0 1 .34-.042s-.086.951.465 1.198c.593.164 1.23.024 1.695-.372.171-.184.314-.393.423-.62a.532.532 0 0 1 .212.538 1.31 1.31 0 0 0 .55 1.156c.466.248 1.06.538.763.785h-.042z" fill="#1e1e1e"/></svg>