<svg xmlns="http://www.w3.org/2000/svg" width="17" height="21" xmlns:v="https://vecta.io/nano"><path d="M16.199 7.137a4.723 4.723 0 0 0-2.194 4.335 4.696 4.696 0 0 0 2.768 3.98l-.582 1.42a12.135 12.135 0 0 1-2.161 3.219 2.457 2.457 0 0 1-2.064.868 5.979 5.979 0 0 1-1.15-.297 13.36 13.36 0 0 0-1.283-.45 3.814 3.814 0 0 0-2.364.265 9.29 9.29 0 0 1-1.278.453 2.036 2.036 0 0 1-1.704-.315A5.66 5.66 0 0 1 2.95 19.39a13.326 13.326 0 0 1-2.805-6.38A8.392 8.392 0 0 1 .56 8.438 5.091 5.091 0 0 1 4.221 5.24a4.37 4.37 0 0 1 2.772.327l.964.374a1.56 1.56 0 0 0 1.122 0l1.942-.7a4.785 4.785 0 0 1 5.086 1.762l.092.134zm-7.806-2.37C8.28 2.33 10.066.233 12.453.003c.335 2.336-1.88 5.035-4.06 4.762z" fill="#1e1e1e"/></svg>