<?xml version="1.0" encoding="UTF-8" standalone="no"?>
<svg
   xmlns:osb="http://www.openswatchbook.org/uri/2009/osb"
   xmlns:dc="http://purl.org/dc/elements/1.1/"
   xmlns:cc="http://creativecommons.org/ns#"
   xmlns:rdf="http://www.w3.org/1999/02/22-rdf-syntax-ns#"
   xmlns:svg="http://www.w3.org/2000/svg"
   xmlns="http://www.w3.org/2000/svg"
   xmlns:xlink="http://www.w3.org/1999/xlink"
   xmlns:sodipodi="http://sodipodi.sourceforge.net/DTD/sodipodi-0.dtd"
   xmlns:inkscape="http://www.inkscape.org/namespaces/inkscape"
   sodipodi:docname="docs-logo.svg"
   inkscape:version="1.0 (4035a4fb49, 2020-05-01)"
   id="svg8"
   version="1.1"
   viewBox="0 0 600 80"
   height="80"
   width="600">
  <defs
     id="defs2">
    <linearGradient
       id="Glacier"
       osb:paint="solid">
      <stop
         style="stop-color:#edf7f7;stop-opacity:1;"
         offset="0"
         id="stop924" />
    </linearGradient>
    <linearGradient
       id="Meridian"
       osb:paint="solid">
      <stop
         style="stop-color:#132742;stop-opacity:1;"
         offset="0"
         id="stop918" />
    </linearGradient>
    <linearGradient
       id="Nautical"
       osb:paint="solid">
      <stop
         style="stop-color:#00303f;stop-opacity:1;"
         offset="0"
         id="stop912" />
    </linearGradient>
    <linearGradient
       id="French_Raspberry"
       osb:paint="solid">
      <stop
         style="stop-color:#c72c48;stop-opacity:1;"
         offset="0"
         id="stop847" />
    </linearGradient>
    <linearGradient
       id="Midnight"
       osb:paint="solid">
      <stop
         style="stop-color:#081c3a;stop-opacity:1;"
         offset="0"
         id="stop841" />
    </linearGradient>
    <rect
       x="200"
       y="650"
       width="150"
       height="50"
       id="rect837" />
    <linearGradient
       inkscape:collect="always"
       xlink:href="#Midnight"
       id="linearGradient851"
       x1="100"
       y1="675"
       x2="150"
       y2="675"
       gradientUnits="userSpaceOnUse"
       gradientTransform="translate(-50)" />
    <linearGradient
       inkscape:collect="always"
       xlink:href="#Nautical"
       id="linearGradient916"
       x1="100"
       y1="675"
       x2="150"
       y2="675"
       gradientUnits="userSpaceOnUse" />
    <linearGradient
       inkscape:collect="always"
       xlink:href="#Meridian"
       id="linearGradient922"
       x1="150"
       y1="675"
       x2="200"
       y2="675"
       gradientUnits="userSpaceOnUse" />
    <linearGradient
       inkscape:collect="always"
       xlink:href="#Glacier"
       id="linearGradient928"
       x1="200"
       y1="675"
       x2="250"
       y2="675"
       gradientUnits="userSpaceOnUse" />
    <style
       id="style1106">.cls-1{fill:#c72c48;}</style>
  </defs>
  <sodipodi:namedview
     inkscape:window-maximized="0"
     inkscape:window-y="0"
     inkscape:window-x="5760"
     inkscape:window-height="2119"
     inkscape:window-width="1920"
     units="px"
     showgrid="true"
     inkscape:document-rotation="0"
     inkscape:current-layer="g1133"
     inkscape:document-units="px"
     inkscape:cy="-116.65714"
     inkscape:cx="263.68744"
     inkscape:zoom="1.979899"
     inkscape:pageshadow="2"
     inkscape:pageopacity="0.0"
     borderopacity="1.0"
     bordercolor="#666666"
     pagecolor="#ffffff"
     id="base">
    <inkscape:grid
       spacingy="10"
       spacingx="10"
       id="grid10"
       type="xygrid" />
  </sodipodi:namedview>
  <metadata
     id="metadata5">
    <rdf:RDF>
      <cc:Work
         rdf:about="">
        <dc:format>image/svg+xml</dc:format>
        <dc:type
           rdf:resource="http://purl.org/dc/dcmitype/StillImage" />
        <dc:title></dc:title>
      </cc:Work>
    </rdf:RDF>
  </metadata>
  <g
     id="layer1"
     inkscape:groupmode="layer"
     inkscape:label="Layer 1">
    <rect
       style="fill:url(#French_Raspberry);fill-opacity:1"
       id="rect831"
       width="50"
       height="50"
       x="0"
       y="650" />
    <rect
       style="fill:url(#linearGradient851);fill-opacity:1"
       id="rect833"
       width="50"
       height="50"
       x="50"
       y="650" />
    <rect
       y="650"
       x="100"
       height="50"
       width="50"
       id="rect833-1"
       style="fill:url(#linearGradient916);fill-opacity:1" />
    <rect
       y="650"
       x="150"
       height="50"
       width="50"
       id="rect833-9"
       style="fill:url(#linearGradient922);fill-opacity:1" />
    <rect
       style="fill:url(#linearGradient928);fill-opacity:1"
       id="rect833-9-9"
       width="50"
       height="50"
       x="200"
       y="650" />
    <g
       transform="translate(-0.6,4.9)"
       id="g920">
      <path
         style="stroke-width:0.423287"
         class="st1"
         d="M 40.257704,15.543585 C 38.268257,12.24195 36.27881,8.9403151 34.247035,5.6810088 33.188819,3.9878627 32.130602,2.2947166 31.072386,0.60157047 30.9454,0.3899272 30.776085,0.22061259 30.649099,0.00896932 28.74431,-2.9117077 24.97706,-4.8588258 21.252138,-2.9963651 c -3.259306,1.5661602 -4.656152,5.502725 -3.089991,8.8043599 0,0.042329 0.04233,0.042329 0.04233,0.084657 0.63493,1.227531 1.693146,2.2857473 2.666705,3.3439636 3.005335,3.2169776 6.137655,6.3069696 9.100661,9.5239476 3.555607,3.809578 3.343963,9.777919 -0.465615,13.291197 -0.804245,0.761916 -1.777804,1.396845 -2.83602,1.820132 -0.08466,0 -0.126986,0 -0.211643,0 V 18.972206 C 21.167481,21.723568 16.384343,25.406161 12.40545,29.85067 6.1831378,36.792569 2.500545,45.469943 1.4,51.776912 l 10.116548,-5.164096 c 3.386292,-1.693146 6.730256,-3.386292 10.243534,-5.164095 v 28.91047 L 26.416234,75.1 V 38.909002 c 0,0 0.08466,-0.04233 0.465615,-0.253972 1.396846,-0.677259 2.793691,-1.439175 4.10588,-2.285748 6.26464,-4.40218 7.788472,-12.994896 3.386292,-19.259537 -0.423287,-0.592601 -0.846573,-1.142873 -1.354517,-1.650817 -3.47095,-3.640264 -6.984228,-7.2382 -10.412849,-10.8784641 -1.015887,-1.0582164 -0.973559,-2.4127333 0,-3.3439636 0.973559,-0.93123041 2.328076,-0.8465731 3.343964,0.2116432 l 1.439174,1.4815029 c 1.142874,1.2275309 2.285747,2.4550619 3.47095,3.6825928 2.920677,3.0899917 5.883682,6.1376548 8.804359,9.1853178 0.126986,0.169315 0.33863,0.296301 0.507944,0.423286 l 0.169315,-0.126985 c 0.08466,-0.169315 0,-0.380958 -0.08466,-0.550273 z M 21.887068,35.988324 c -0.04233,0.253972 -0.211643,0.465616 -0.423286,0.550273 -1.862461,0.973559 -3.724922,1.947118 -5.587383,2.920677 L 9.0614862,42.972552 C 12.024492,36.75024 16.426672,31.332173 21.844739,27.141636 c 0.04233,0.08466 0.08466,0.126986 0.08466,0.169315 0,2.878348 0,5.799025 -0.04233,8.677373 z"
         id="path908" />
      <g
         transform="matrix(3.2860646,0,0,3.2860646,66.04,-5.31)"
         id="g1133">
        <rect
           class="cls-1"
           x="52.75"
           y="0.41"
           width="9.1099997"
           height="23.629999"
           id="rect1112" />
        <path
           class="cls-1"
           d="m 41.71,0.74 -18.49,9.92 a 0.91,0.91 0 0 1 -0.85,0 L 3.88,0.74 A 2.78,2.78 0 0 0 2.56,0.41 v 0 A 2.41,2.41 0 0 0 0,2.64 V 24 H 9.1 V 13.84 a 0.93,0.93 0 0 1 1,-0.81 1,1 0 0 1 0.37,0.13 l 10.36,5.57 a 3.63,3.63 0 0 0 3.33,0 L 35.1,13.09 a 0.92,0.92 0 0 1 1.25,0.34 1,1 0 0 1 0.12,0.35 V 24 h 9.1 V 2.64 A 2.41,2.41 0 0 0 43.06,0.41 v 0 a 2.78,2.78 0 0 0 -1.35,0.33 z"
           id="path1114" />
        <path
           class="cls-1"
           d="M 107.28,0.41 H 98 V 11.17 A 0.93,0.93 0 0 1 97,12 1.26,1.26 0 0 1 96.67,11.9 L 72.76,0.68 A 2.73,2.73 0 0 0 71.57,0.41 v 0 A 2.41,2.41 0 0 0 69,2.64 V 24 h 9.16 V 13.27 a 0.91,0.91 0 0 1 1,-0.8 0.75,0.75 0 0 1 0.33,0.1 l 24,11.2 a 2.86,2.86 0 0 0 1.19,0.26 v 0 a 2.41,2.41 0 0 0 2.54,-2.23 z"
           id="path1116" />
        <path
           class="cls-1"
           d="M 114.44,24 V 0.41 h 4.19 V 24 Z"
           id="path1118" />
        <path
           class="cls-1"
           d="M 143.29,24.47 C 132,24.47 124,19.76 124,12.23 124,4.7 132.07,0 143.29,0 c 11.22,0 19.32,4.7 19.32,12.23 0,7.53 -7.9,12.24 -19.32,12.24 z m 0,-21.34 c -8.38,0 -14.84,3.22 -14.84,9.1 0,5.88 6.46,9.1 14.84,9.1 8.38,0 14.89,-3.17 14.89,-9.1 0,-5.93 -6.5,-9.1 -14.89,-9.1 z"
           id="path1120" />
      </g>
    </g>
  </g>
  <style
     type="text/css"
     id="style902">
	.st0{fill:none;stroke:#CCCCCC;stroke-miterlimit:10;}
	.st1{fill:#C72C48;}
</style>
</svg>
