<svg id="Layer_1" data-name="Layer 1" xmlns="http://www.w3.org/2000/svg" viewBox="0 0 162.61 24.47"><defs><style>.cls-1{fill:#c72c48;}</style></defs><title>MinIO logo</title><rect class="cls-1" x="52.75" y="0.41" width="9.11" height="23.63"/><path class="cls-1" d="M41.71.74,23.22,10.66a.91.91,0,0,1-.85,0L3.88.74A2.78,2.78,0,0,0,2.56.41h0A2.41,2.41,0,0,0,0,2.64V24H9.1V13.84a.93.93,0,0,1,1-.81,1,1,0,0,1,.37.13l10.36,5.57a3.63,3.63,0,0,0,3.33,0l10.94-5.64a.92.92,0,0,1,1.25.34,1,1,0,0,1,.12.35V24h9.1V2.64A2.41,2.41,0,0,0,43.06.41h0A2.78,2.78,0,0,0,41.71.74Z"/><path class="cls-1" d="M107.28.41H98V11.17A.93.93,0,0,1,97,12a1.26,1.26,0,0,1-.33-.1L72.76.68A2.73,2.73,0,0,0,71.57.41h0A2.41,2.41,0,0,0,69,2.64V24h9.16V13.27a.91.91,0,0,1,1-.8.75.75,0,0,1,.33.1l24,11.2a2.86,2.86,0,0,0,1.19.26h0a2.41,2.41,0,0,0,2.54-2.23Z"/><path class="cls-1" d="M114.44,24V.41h4.19V24Z"/><path class="cls-1" d="M143.29,24.47C132,24.47,124,19.76,124,12.23S132.07,0,143.29,0s19.32,4.7,19.32,12.23S154.71,24.47,143.29,24.47Zm0-21.34c-8.38,0-14.84,3.22-14.84,9.1s6.46,9.1,14.84,9.1,14.89-3.17,14.89-9.1S151.68,3.13,143.29,3.13Z"/></svg>