<?xml version="1.0" encoding="utf-8"?>
<!-- Generator: Adobe Illustrator 22.1.0, SVG Export Plug-In . SVG Version: 6.00 Build 0)  -->
<svg version="1.1" id="Layer_1" xmlns="http://www.w3.org/2000/svg" xmlns:xlink="http://www.w3.org/1999/xlink" x="0px" y="0px"
	 viewBox="0 0 297 348.5" style="enable-background:new 0 0 297 348.5;" xml:space="preserve">
<style type="text/css">
	.st0{fill:none;stroke:#CCCCCC;stroke-miterlimit:10;}
	.st1{fill:#C72C48;}
</style>
<title>Bird</title>
<polygon class="st0" points="0.6,0.5 296.5,0.5 296.5,348 0.5,348 "/>
<path class="st1" d="M194,126.8c-4.7-7.8-9.4-15.6-14.2-23.3c-2.5-4-5-8-7.5-12c-0.3-0.5-0.7-0.9-1-1.4c-4.5-6.9-13.4-11.5-22.2-7.1
	c-7.7,3.7-11,13-7.3,20.8c0,0.1,0.1,0.1,0.1,0.2c1.5,2.9,4,5.4,6.3,7.9c7.1,7.6,14.5,14.9,21.5,22.5c8.4,9,7.9,23.1-1.1,31.4
	c-1.9,1.8-4.2,3.3-6.7,4.3c-0.2,0-0.3,0-0.5,0v-35.2c-12.5,6.5-23.8,15.2-33.2,25.7c-14.7,16.4-23.4,36.9-26,51.8l23.9-12.2
	c8-4,15.9-8,24.2-12.2v68.3l11,11.2V182c0,0,0.2-0.1,1.1-0.6c3.3-1.6,6.6-3.4,9.7-5.4c14.8-10.4,18.4-30.7,8-45.5
	c-1-1.4-2-2.7-3.2-3.9c-8.2-8.6-16.5-17.1-24.6-25.7c-2.4-2.5-2.3-5.7,0-7.9s5.5-2,7.9,0.5l3.4,3.5c2.7,2.9,5.4,5.8,8.2,8.7
	c6.9,7.3,13.9,14.5,20.8,21.7c0.3,0.4,0.8,0.7,1.2,1l0.4-0.3C194.4,127.7,194.2,127.2,194,126.8z M150.6,175.1
	c-0.1,0.6-0.5,1.1-1,1.3c-4.4,2.3-8.8,4.6-13.2,6.9l-16.1,8.3c7-14.7,17.4-27.5,30.2-37.4c0.1,0.2,0.2,0.3,0.2,0.4
	C150.7,161.4,150.7,168.3,150.6,175.1L150.6,175.1z"/>
</svg>
