<?xml version="1.0" encoding="UTF-8"?>
<svg width="15px" height="15px" viewBox="0 0 15 15" version="1.1" xmlns="http://www.w3.org/2000/svg" xmlns:xlink="http://www.w3.org/1999/xlink">
    <!-- Generator: Sketch 48.2 (47327) - http://www.bohemiancoding.com/sketch -->
    <title>Page 1</title>
    <desc>Created with Sketch.</desc>
    <defs></defs>
    <g id="Page-1" stroke="none" stroke-width="1" fill="none" fill-rule="evenodd">
        <g fill="#000000" id="Fill-3">
            <path d="M10.4166659,9.16666597 L9.7583326,9.16666597 L9.52499953,8.94166556 C10.3416657,7.9916662 10.8333325,6.75833253 10.8333325,5.41666619 C10.8333325,2.42499954 8.40833285,-1.50000024e-07 5.41666619,-1.50000024e-07 C2.42499954,-1.50000024e-07 -1.49999977e-07,2.42499954 -1.49999977e-07,5.41666619 C-1.49999977e-07,8.40833285 2.42499954,10.8333325 5.41666619,10.8333325 C6.75833253,10.8333325 7.9916662,10.3416657 8.94166556,9.52499953 L9.16666597,9.7583326 L9.16666597,10.4166659 L13.3333324,14.574999 L14.574999,13.3333324 L10.4166659,9.16666597 Z M5.41666619,9.16666597 C3.34166648,9.16666597 1.66666642,7.4916659 1.66666642,5.41666619 C1.66666642,3.34166648 3.34166648,1.66666642 5.41666619,1.66666642 C7.4916659,1.66666642 9.16666597,3.34166648 9.16666597,5.41666619 C9.16666597,7.4916659 7.4916659,9.16666597 5.41666619,9.16666597 Z"></path>
        </g>
    </g>
</svg>