<?xml version="1.0" encoding="UTF-8"?>
<svg width="776.01" height="382.48" version="1.1" viewBox="0 0 776.01 382.48" xml:space="preserve" xmlns="http://www.w3.org/2000/svg"><defs><clipPath id="clipPath3012"><path d="m0 370h628v-370h-628z"/></clipPath></defs><g transform="matrix(1.3333 0 0 -1.3333 -30.8 500.03)"><path d="m221.5 280.17h-190v30h190z" fill="none" stroke="#000" stroke-miterlimit="10" stroke-width=".8"/><g transform="translate(220.43 192.04)"><path d="m0 0h187.15" fill="none" stroke="#c22e4a" stroke-dasharray="5.195, 2.857" stroke-miterlimit="10" stroke-width=".8"/></g><g transform="translate(220.43 205.53)"><path d="m0 0h187.15" fill="none" stroke="#c22e4a" stroke-dasharray="5.195, 2.857" stroke-miterlimit="10" stroke-width=".8"/></g><g transform="translate(407.7 192.04)"><path d="m0 0-5.477 3.162v-6.324z" fill="#c22e4a"/></g><g transform="translate(407.7 205.53)"><path d="m0 0-5.477 3.162v-6.324z" fill="#c22e4a"/></g><g transform="translate(407.7 198.78)"><path d="m0 0-5.477 3.162v-6.323z" fill="#c22e4a"/></g><g transform="translate(220.43 205.53)"><path d="m0 0 5.477-3.162v6.324z" fill="#c22e4a"/></g><g transform="translate(220.43 192.04)"><path d="m0 0 5.477-3.162v6.324z" fill="#c22e4a"/></g><g transform="translate(220.43 198.78)"><path d="m0 0 5.477-3.161v6.323z" fill="#c22e4a"/><path d="m0 0h187.15" fill="none" stroke="#c22e4a" stroke-miterlimit="10" stroke-width=".8"/></g><g clip-path="url(#clipPath3012)"><g transform="translate(352.09 208.71)"><path d="m0 0c0.245 1.429 0.381 2.896 0.381 4.396 0 14.244-11.548 25.791-25.792 25.791-11.066 0-20.501-6.97-24.162-16.758-2.233 1.706-5.015 2.73-8.041 2.73-7.332 0-13.275-5.942-13.275-13.274 0-0.038 5e-3 -0.074 6e-3 -0.113-9.906-1.046-17.624-9.425-17.624-19.608 0-10.892 8.829-19.722 19.721-19.722h64.296c10.247 0 16.817 8.307 16.817 18.554 0 8.698-4.251 15.996-12.327 18.004" fill="#fff"/><path d="m0 0c0.245 1.429 0.381 2.896 0.381 4.396 0 14.244-11.548 25.791-25.792 25.791-11.066 0-20.501-6.97-24.162-16.758-2.233 1.706-5.015 2.73-8.041 2.73-7.332 0-13.275-5.942-13.275-13.274 0-0.038 5e-3 -0.074 6e-3 -0.113-9.906-1.046-17.624-9.425-17.624-19.608 0-10.892 8.829-19.722 19.721-19.722h64.296c10.247 0 16.817 8.307 16.817 18.554 0 8.698-4.251 15.996-12.327 18.004z" fill="none" stroke="#707070" stroke-miterlimit="10" stroke-width="1.8"/></g><path d="m164.09 260.54h56v-137h-56z" fill="#fff" stroke="#c22e4a" stroke-miterlimit="10" stroke-width="1.8"/><g fill="none" stroke="#c22e4a" stroke-miterlimit="10" stroke-width=".8"><path d="m172.09 251.54h40v-9h-40z"/><path d="m172.09 238.06h40v-9h-40z"/><path d="m172.09 224.58h40v-9h-40z"/><path d="m172.09 211.1h40v-9h-40z"/><path d="m172.09 197.62h40v-9h-40z"/></g><g transform="translate(209.09 168.59)"><path d="m0 0c-1.657 0-3 1.343-3 3 0 1.656 1.343 3 3 3 1.656 0 3-1.344 3-3 0-1.657-1.344-3-3-3z" fill="none" stroke="#c22e4a" stroke-miterlimit="10" stroke-width=".8"/></g><path d="m97.793 260.54h56v-137h-56z" fill="#fff" stroke="#c22e4a" stroke-miterlimit="10" stroke-width="1.8"/><g fill="none" stroke="#c22e4a" stroke-miterlimit="10" stroke-width=".8"><path d="m105.79 251.54h40v-9h-40z"/><path d="m105.79 238.06h40v-9h-40z"/><path d="m105.79 224.58h40v-9h-40z"/><path d="m105.79 211.1h40v-9h-40z"/><path d="m105.79 197.62h40v-9h-40z"/></g><g transform="translate(142.79 168.59)"><path d="m0 0c-1.656 0-3 1.343-3 3 0 1.656 1.344 3 3 3 1.657 0 3-1.344 3-3 0-1.657-1.343-3-3-3z" fill="none" stroke="#c22e4a" stroke-miterlimit="10" stroke-width=".8"/></g><path d="m31.5 260.54h56v-137h-56z" fill="#fff" stroke="#c22e4a" stroke-miterlimit="10" stroke-width="1.8"/><g fill="none" stroke="#c22e4a" stroke-miterlimit="10" stroke-width=".8"><path d="m39.5 251.54h40v-9h-40z"/><path d="m39.5 238.06h40v-9h-40z"/><path d="m39.5 224.58h40v-9h-40z"/><path d="m39.5 211.1h40v-9h-40z"/><path d="m39.5 197.62h40v-9h-40z"/></g><g transform="translate(76.5 168.59)"><path d="m0 0c-1.657 0-3 1.343-3 3 0 1.656 1.343 3 3 3s3-1.344 3-3c0-1.657-1.343-3-3-3z" fill="none" stroke="#c22e4a" stroke-miterlimit="10" stroke-width=".8"/></g><g transform="translate(109.83 106.26)"><path d="m0 0c-1.132 0.723-2.387 1.141-3.736 1.141-1.778 0-2.994-0.771-2.994-1.988 0-1.102 1.036-1.53 2.765-1.777l0.923-0.124c2.157-0.294 4.287-1.188 4.287-3.659 0-2.71-2.453-4.193-5.333-4.193-1.807 0-3.974 0.599-5.352 1.787l1.169 1.711c0.913-0.835 2.633-1.463 4.173-1.463 1.741 0 3.109 0.741 3.109 1.967 0 1.046-1.045 1.531-2.994 1.797l-1.037 0.143c-1.977 0.275-3.945 1.207-3.945 3.679 0 2.67 2.367 4.154 5.248 4.154 1.939 0 3.47-0.542 4.81-1.436z"/></g><path d="m116.1 95.9h-2.148v13.309h2.148z"/><g transform="translate(129.02 107.17)"><path d="m0 0h-4.307v-11.274h-2.148v11.274h-4.306v2.034h10.761z"/></g><g transform="translate(140.89 95.9)"><path d="m0 0h-9.706v13.309h9.582v-2.015h-7.434v-3.584h7.177v-2.016h-7.177v-3.678h7.558z"/></g><g transform="translate(153.48 95.9)"><path d="m0 0h-2.063v10.523l-3.384-1.454v2.149l5.447 2.301z"/></g><g transform="translate(59.5 280.18)"><path d="m0 0v-19.065" fill="none" stroke="#000" stroke-dasharray="5.195, 2.857" stroke-miterlimit="10" stroke-width=".8"/></g><g transform="translate(192.09 280.18)"><path d="m0 0v-19.065" fill="none" stroke="#000" stroke-dasharray="5.195, 2.857" stroke-miterlimit="10" stroke-width=".8"/></g><g transform="translate(125.79 280.18)"><path d="m0 0v-19.065" fill="none" stroke="#000" stroke-dasharray="5.195, 2.857" stroke-miterlimit="10" stroke-width=".8"/></g><g transform="translate(125.79 260.12)"><path d="m0 0 3.162 5.477h-6.324z"/></g><g transform="translate(192.09 260.12)"><path d="m0 0 3.162 5.477h-6.324z"/></g><g transform="translate(59.5 260.12)"><path d="m0 0 3.162 5.477h-6.324z"/></g><g transform="translate(435.91 280.18)"><path d="m0 0v-19.065" fill="none" stroke="#000" stroke-dasharray="5.195, 2.857" stroke-miterlimit="10" stroke-width=".8"/></g><g transform="translate(568.5 280.18)"><path d="m0 0v-19.065" fill="none" stroke="#000" stroke-dasharray="5.195, 2.857" stroke-miterlimit="10" stroke-width=".8"/></g><g transform="translate(502.21 280.18)"><path d="m0 0v-19.065" fill="none" stroke="#000" stroke-dasharray="5.195, 2.857" stroke-miterlimit="10" stroke-width=".8"/></g><g transform="translate(502.21 260.12)"><path d="m0 0 3.162 5.477h-6.324z"/></g><g transform="translate(568.5 260.12)"><path d="m0 0 3.162 5.477h-6.324z"/></g><g transform="translate(435.91 260.12)"><path d="m0 0 3.162 5.477h-6.324z"/></g><g transform="translate(291.79 192.37)"><path d="m0 0v-4.407h-1.118v4.039c0 1.351-0.751 2.147-2.05 2.147-1.193 0-2.177-0.826-2.177-2.177v-4.009h-1.126v7.109h1.111v-1.013c0.578 0.848 1.524 1.156 2.395 1.156 1.756 0 2.965-1.126 2.965-2.845"/></g><g transform="translate(294.95 192.03)"><path d="m0 0h4.564c-0.142 1.329-1.013 2.185-2.221 2.185-1.315 0-2.162-0.902-2.343-2.185m5.706-0.488c0-0.143-8e-3 -0.293-0.022-0.42h-5.699c0.158-1.532 1.231-2.321 2.515-2.321 0.878 0 1.645 0.338 2.252 0.894l0.601-0.766c-0.886-0.848-1.877-1.111-2.92-1.111-2.103 0-3.596 1.494-3.596 3.693 0 2.178 1.501 3.702 3.528 3.702 1.929 0 3.325-1.509 3.341-3.671"/></g><g transform="translate(307.49 194.06)"><path d="m0 0h-3.071v-3.589c0-1.111 0.586-1.599 1.412-1.599 0.548 0 1.081 0.203 1.493 0.503l0.526-0.848c-0.533-0.405-1.239-0.706-2.11-0.706-1.531 0-2.439 0.841-2.439 2.628v3.611h-1.554v1.013h1.554v2.259h1.118v-2.259h3.071z"/></g><g transform="translate(317.31 189.13)"><path d="m0 0 2.14 5.945h1.163l-2.627-7.109h-1.329l-2.125 5.908-2.118-5.908h-1.305l-2.628 7.109h1.193l2.125-5.937 2.117 5.937h1.261z"/></g><g transform="translate(322.83 191.52)"><path d="m0 0c0-1.539 1.118-2.65 2.597-2.65 1.471 0 2.597 1.111 2.597 2.65 0 1.531-1.126 2.643-2.597 2.643-1.479 0-2.597-1.112-2.597-2.643m6.343 0c0-2.109-1.607-3.701-3.746-3.701-2.14 0-3.739 1.592-3.739 3.701 0 2.103 1.599 3.693 3.739 3.693 2.139 0 3.746-1.59 3.746-3.693"/></g><g transform="translate(335.78 194.97)"><path d="m0 0-0.271-1.104c-0.344 0.189-0.818 0.286-1.23 0.286-1.111 0-1.907-0.87-1.907-2.214v-3.98h-1.118v7.11h1.11v-0.998c0.488 0.728 1.239 1.14 2.109 1.14 0.511 0 0.932-0.067 1.307-0.24"/></g><g transform="translate(338.6 192.19)"><path d="m0 0h1.028l2.741 2.883h1.403l-3.228-3.348 3.281-3.762h-1.419l-2.785 3.206h-1.021v-3.206h-1.126v10.811h1.126z"/></g><path d="m540.5 260.54h56v-137h-56z" fill="#fff" stroke="#c22e4a" stroke-miterlimit="10" stroke-width="1.8"/><g fill="none" stroke="#c22e4a" stroke-miterlimit="10" stroke-width=".8"><path d="m548.5 251.54h40v-9h-40z"/><path d="m548.5 238.06h40v-9h-40z"/><path d="m548.5 224.58h40v-9h-40z"/><path d="m548.5 211.1h40v-9h-40z"/><path d="m548.5 197.62h40v-9h-40z"/></g><g transform="translate(585.5 168.59)"><path d="m0 0c-1.657 0-3 1.343-3 3 0 1.656 1.343 3 3 3s3-1.344 3-3c0-1.657-1.343-3-3-3z" fill="none" stroke="#c22e4a" stroke-miterlimit="10" stroke-width=".8"/></g><path d="m474.21 260.54h56v-137h-56z" fill="#fff" stroke="#c22e4a" stroke-miterlimit="10" stroke-width="1.8"/><g fill="none" stroke="#c22e4a" stroke-miterlimit="10" stroke-width=".8"><path d="m482.21 251.54h40v-9h-40z"/><path d="m482.21 238.06h40v-9h-40z"/><path d="m482.21 224.58h40v-9h-40z"/><path d="m482.21 211.1h40v-9h-40z"/><path d="m482.21 197.62h40v-9h-40z"/></g><g transform="translate(519.21 168.59)"><path d="m0 0c-1.657 0-3 1.343-3 3 0 1.656 1.343 3 3 3 1.656 0 3-1.344 3-3 0-1.657-1.344-3-3-3z" fill="none" stroke="#c22e4a" stroke-miterlimit="10" stroke-width=".8"/></g><path d="m407.91 260.54h56v-137h-56z" fill="#fff" stroke="#c22e4a" stroke-miterlimit="10" stroke-width="1.8"/><g fill="none" stroke="#c22e4a" stroke-miterlimit="10" stroke-width=".8"><path d="m415.91 251.54h40v-9h-40z"/><path d="m415.91 238.06h40v-9h-40z"/><path d="m415.91 224.58h40v-9h-40z"/><path d="m415.91 211.1h40v-9h-40z"/><path d="m415.91 197.62h40v-9h-40z"/></g><g transform="translate(452.91 168.59)"><path d="m0 0c-1.656 0-3 1.343-3 3 0 1.656 1.344 3 3 3 1.657 0 3-1.344 3-3 0-1.657-1.343-3-3-3z" fill="none" stroke="#c22e4a" stroke-miterlimit="10" stroke-width=".8"/></g><g transform="translate(484.88 106.26)"><path d="m0 0c-1.132 0.723-2.387 1.141-3.736 1.141-1.778 0-2.994-0.771-2.994-1.988 0-1.102 1.036-1.53 2.765-1.777l0.923-0.124c2.157-0.294 4.287-1.188 4.287-3.659 0-2.71-2.453-4.193-5.333-4.193-1.807 0-3.974 0.599-5.352 1.787l1.169 1.711c0.913-0.835 2.633-1.463 4.173-1.463 1.741 0 3.109 0.741 3.109 1.967 0 1.046-1.045 1.531-2.994 1.797l-1.037 0.143c-1.977 0.275-3.945 1.207-3.945 3.679 0 2.67 2.367 4.154 5.248 4.154 1.939 0 3.47-0.542 4.81-1.436z"/></g><path d="m491.16 95.9h-2.148v13.309h2.148z"/><g transform="translate(504.08 107.17)"><path d="m0 0h-4.307v-11.274h-2.148v11.274h-4.306v2.034h10.761z"/></g><g transform="translate(515.95 95.9)"><path d="m0 0h-9.706v13.309h9.582v-2.015h-7.434v-3.584h7.177v-2.016h-7.177v-3.678h7.558z"/></g><g transform="translate(523.27 107.21)"><path d="m0 0c0.637 0.865 1.845 2.225 4.25 2.225 2.756 0 4.41-1.778 4.41-4.278 0-1.674-0.95-2.843-1.767-3.726l-3.337-3.575h5.465v-1.959h-8.517v1.617l4.81 5.114c0.742 0.799 1.189 1.588 1.189 2.538 0 1.331-0.875 2.301-2.311 2.301-1.349 0-2.062-0.675-2.718-1.474z"/></g><g transform="translate(73.105 292.91)"><path d="m0 0h4.278l-2.139 5.248zm7.222-4.068h-1.291l-1.195 2.927h-5.202l-1.186-2.927h-1.254l4.317 10.509h1.494z"/></g><g transform="translate(83.311 298.21)"><path d="m0 0v-4.01h2.726c1.621 0 2.5 0.668 2.5 2.004 0 1.338-0.879 2.006-2.5 2.006zm0-5.143v-4.226h-1.208v10.51h3.971c2.357 0 3.716-1.178 3.716-3.147 0-1.967-1.359-3.137-3.716-3.137z"/></g><g transform="translate(93.271 298.21)"><path d="m0 0v-4.01h2.726c1.621 0 2.5 0.668 2.5 2.004 0 1.338-0.879 2.006-2.5 2.006zm0-5.143v-4.226h-1.208v10.51h3.971c2.357 0 3.716-1.178 3.716-3.147 0-1.967-1.359-3.137-3.716-3.137z"/></g><g transform="translate(109.31 288.84)"><path d="m0 0h-7.289v10.51h1.208v-9.369h6.081z"/></g><path d="m112.33 288.84h-1.209v10.51h1.209z"/><g transform="translate(124.46 297.32)"><path d="m0 0-1.006-0.676c-0.69 1.045-1.891 1.69-3.281 1.69-2.357 0-4.158-1.711-4.158-4.243 0-2.529 1.801-4.24 4.158-4.24 1.39 0 2.575 0.631 3.281 1.682l0.976-0.721c-0.87-1.314-2.448-2.125-4.257-2.125-3.123 0-5.428 2.252-5.428 5.404 0 3.155 2.305 5.407 5.428 5.407 1.832 0 3.461-0.826 4.287-2.178"/></g><g transform="translate(128.49 292.91)"><path d="m0 0h4.278l-2.139 5.248zm7.222-4.068h-1.291l-1.195 2.927h-5.202l-1.186-2.927h-1.254l4.317 10.509h1.494z"/></g><g transform="translate(143.95 298.21)"><path d="m0 0h-3.648v-9.369h-1.202v9.369h-3.648v1.141h8.498z"/></g><path d="m146.97 288.84h-1.208v10.51h1.208z"/><g transform="translate(150.66 294.09)"><path d="m0 0c0-2.529 1.802-4.24 4.159-4.24 2.365 0 4.167 1.711 4.167 4.24 0 2.531-1.802 4.242-4.167 4.242-2.357 0-4.159-1.711-4.159-4.242m9.587 0c0-3.152-2.297-5.404-5.428-5.404-3.123 0-5.428 2.252-5.428 5.404 0 3.154 2.305 5.406 5.428 5.406 3.131 0 5.428-2.252 5.428-5.406"/></g><g transform="translate(171.47 288.84)"><path d="m0 0h-1.089l-6.509 8.438v-8.438h-1.209v10.51h1.089l6.509-8.438v8.438h1.209z"/></g><g transform="translate(181.36 297.36)"><path d="m0 0c-0.849 0.578-1.907 0.984-3.168 0.984-1.584 0-2.718-0.713-2.718-1.9 0-0.975 0.788-1.508 2.425-1.703l0.998-0.121c1.734-0.209 3.281-0.946 3.281-2.762 0-2.08-1.891-3.16-4.159-3.16-1.524 0-3.138 0.539-4.129 1.351l0.66 0.961c0.729-0.617 2.095-1.171 3.461-1.171 1.63 0 2.913 0.66 2.913 1.914 0 1.021-0.877 1.531-2.544 1.718l-1.059 0.121c-1.794 0.204-3.101 1.036-3.101 2.778 0 1.996 1.78 3.115 3.98 3.115 1.598 0 2.807-0.473 3.775-1.148z"/></g><path d="m597.21 280.17h-190v30h190z" fill="none" stroke="#000" stroke-miterlimit="10" stroke-width=".8"/><g transform="translate(448.81 292.91)"><path d="m0 0h4.278l-2.139 5.248zm7.222-4.068h-1.291l-1.195 2.927h-5.202l-1.186-2.927h-1.254l4.317 10.509h1.494z"/></g><g transform="translate(459.02 298.21)"><path d="m0 0v-4.01h2.726c1.621 0 2.5 0.668 2.5 2.004 0 1.338-0.879 2.006-2.5 2.006zm0-5.143v-4.226h-1.208v10.51h3.971c2.357 0 3.716-1.178 3.716-3.147 0-1.967-1.359-3.137-3.716-3.137z"/></g><g transform="translate(468.98 298.21)"><path d="m0 0v-4.01h2.726c1.621 0 2.5 0.668 2.5 2.004 0 1.338-0.879 2.006-2.5 2.006zm0-5.143v-4.226h-1.208v10.51h3.971c2.357 0 3.716-1.178 3.716-3.147 0-1.967-1.359-3.137-3.716-3.137z"/></g><g transform="translate(485.02 288.84)"><path d="m0 0h-7.289v10.51h1.208v-9.369h6.081z"/></g><path d="m488.03 288.84h-1.209v10.51h1.209z"/><g transform="translate(500.17 297.32)"><path d="m0 0-1.006-0.676c-0.69 1.045-1.891 1.69-3.281 1.69-2.357 0-4.158-1.711-4.158-4.243 0-2.529 1.801-4.24 4.158-4.24 1.39 0 2.575 0.631 3.281 1.682l0.976-0.721c-0.87-1.314-2.448-2.125-4.257-2.125-3.123 0-5.428 2.252-5.428 5.404 0 3.155 2.305 5.407 5.428 5.407 1.832 0 3.461-0.826 4.287-2.178"/></g><g transform="translate(504.2 292.91)"><path d="m0 0h4.278l-2.139 5.248zm7.222-4.068h-1.291l-1.195 2.927h-5.202l-1.186-2.927h-1.254l4.317 10.509h1.494z"/></g><g transform="translate(519.66 298.21)"><path d="m0 0h-3.648v-9.369h-1.202v9.369h-3.648v1.141h8.498z"/></g><path d="m522.68 288.84h-1.208v10.51h1.208z"/><g transform="translate(526.37 294.09)"><path d="m0 0c0-2.529 1.802-4.24 4.159-4.24 2.365 0 4.167 1.711 4.167 4.24 0 2.531-1.802 4.242-4.167 4.242-2.357 0-4.159-1.711-4.159-4.242m9.587 0c0-3.152-2.297-5.404-5.428-5.404-3.123 0-5.428 2.252-5.428 5.404 0 3.154 2.305 5.406 5.428 5.406 3.131 0 5.428-2.252 5.428-5.406"/></g><g transform="translate(547.18 288.84)"><path d="m0 0h-1.089l-6.509 8.438v-8.438h-1.209v10.51h1.089l6.509-8.438v8.438h1.209z"/></g><g transform="translate(557.06 297.36)"><path d="m0 0c-0.849 0.578-1.907 0.984-3.168 0.984-1.584 0-2.718-0.713-2.718-1.9 0-0.975 0.788-1.508 2.425-1.703l0.998-0.121c1.734-0.209 3.281-0.946 3.281-2.762 0-2.08-1.891-3.16-4.159-3.16-1.524 0-3.138 0.539-4.129 1.351l0.66 0.961c0.729-0.617 2.095-1.171 3.461-1.171 1.63 0 2.913 0.66 2.913 1.914 0 1.021-0.877 1.531-2.544 1.718l-1.059 0.121c-1.794 0.204-3.101 1.036-3.101 2.778 0 1.996 1.78 3.115 3.98 3.115 1.598 0 2.807-0.473 3.775-1.148z"/></g><g transform="translate(180.13 359.23)"><path d="m0 0h4.449l-2.224 5.742zm8.86-5.428h-2.309l-1.313 3.395h-6.027l-1.312-3.395h-2.233l5.256 13.309h2.682z"/></g><g transform="translate(198.27 361.69)"><path d="m0 0-1.273-1.359c-0.637 0.599-1.313 0.941-2.187 0.941-1.53 0-2.69-1.197-2.69-2.918s1.16-2.92 2.69-2.92c0.874 0 1.654 0.41 2.233 0.951l1.227-1.369c-0.826-0.959-2.043-1.453-3.402-1.453-2.901 0-4.791 2.063-4.791 4.791 0 2.729 1.89 4.791 4.791 4.791 1.359 0 2.594-0.494 3.402-1.455"/></g><g transform="translate(206.79 361.1)"><path d="m0 0h-3.489v-3.963c0-1.226 0.646-1.703 1.445-1.703 0.618 0 1.293 0.277 1.835 0.619l0.789-1.588c-0.732-0.494-1.654-0.902-2.795-0.902-2.063 0-3.27 1.111-3.27 3.535v4.002h-1.816v1.807h1.816v2.755h1.996v-2.755h3.489z"/></g><path d="m211.2 353.8h-1.996v9.107h1.996zm0.399 12.254c0-0.789-0.617-1.389-1.406-1.389-0.79 0-1.389 0.6-1.389 1.389s0.599 1.406 1.389 1.406c0.789 0 1.406-0.617 1.406-1.406"/><g transform="translate(219 353.8)"><path d="m0 0h-2.357l-3.661 9.107h2.168l2.69-7.044 2.691 7.044h2.11z"/></g><g transform="translate(225.74 359.14)"><path d="m0 0h4.725c-0.219 1.416-1.046 2.242-2.31 2.242-1.417 0-2.206-0.912-2.415-2.242m6.759-0.771c0-0.256-0.019-0.512-0.037-0.741h-6.731c0.266-1.634 1.416-2.32 2.709-2.32 0.912 0 1.882 0.361 2.633 0.961l0.988-1.416c-1.111-0.951-2.367-1.283-3.745-1.283-2.727 0-4.657 1.9-4.657 4.791 0 2.851 1.853 4.791 4.533 4.791 2.549 0 4.297-1.94 4.307-4.783"/></g><path d="m240.17 357.97h-5.514v1.807h5.514z"/><g transform="translate(245.67 359.23)"><path d="m0 0h4.448l-2.224 5.742zm8.859-5.428h-2.31l-1.312 3.395h-6.026l-1.313-3.395h-2.234l5.258 13.309h2.68z"/></g><g transform="translate(263.81 361.69)"><path d="m0 0-1.274-1.359c-0.638 0.599-1.312 0.941-2.187 0.941-1.53 0-2.69-1.197-2.69-2.918s1.16-2.92 2.69-2.92c0.875 0 1.654 0.41 2.234 0.951l1.227-1.369c-0.828-0.959-2.045-1.453-3.404-1.453-2.899 0-4.791 2.063-4.791 4.791 0 2.729 1.892 4.791 4.791 4.791 1.359 0 2.595-0.494 3.404-1.455"/></g><g transform="translate(272.33 361.1)"><path d="m0 0h-3.488v-3.963c0-1.226 0.646-1.703 1.444-1.703 0.618 0 1.293 0.277 1.835 0.619l0.789-1.588c-0.732-0.494-1.654-0.902-2.795-0.902-2.062 0-3.27 1.111-3.27 3.535v4.002h-1.816v1.807h1.816v2.755h1.997v-2.755h3.488z"/></g><path d="m276.74 353.8h-1.996v9.107h1.996zm0.401 12.254c0-0.789-0.618-1.389-1.407-1.389s-1.388 0.6-1.388 1.389 0.599 1.406 1.388 1.406 1.407-0.617 1.407-1.406"/><g transform="translate(284.54 353.8)"><path d="m0 0h-2.357l-3.66 9.107h2.167l2.691-7.044 2.689 7.044h2.112z"/></g><g transform="translate(291.28 359.14)"><path d="m0 0h4.725c-0.219 1.416-1.045 2.242-2.311 2.242-1.416 0-2.205-0.912-2.414-2.242m6.759-0.771c0-0.256-0.019-0.512-0.038-0.741h-6.731c0.267-1.634 1.417-2.32 2.709-2.32 0.913 0 1.883 0.361 2.634 0.961l0.989-1.416c-1.113-0.951-2.367-1.283-3.746-1.283-2.728 0-4.658 1.9-4.658 4.791 0 2.851 1.853 4.791 4.535 4.791 2.547 0 4.297-1.94 4.306-4.783"/></g><g transform="translate(308.02 365.1)"><path d="m0 0v-3.744h3.271c1.73 0 2.537 0.627 2.537 1.91 0 1.264-0.856 1.834-2.537 1.834zm3.327 2.016c3.061 0 4.715-1.37 4.715-3.85 0-2.262-1.73-3.764-4.439-3.859l4.382-5.6h-2.662l-4.24 5.6h-1.083v-5.6h-2.148v13.309z"/></g><g transform="translate(319.75 359.14)"><path d="m0 0h4.725c-0.219 1.416-1.045 2.242-2.31 2.242-1.417 0-2.205-0.912-2.415-2.242m6.76-0.771c0-0.256-0.02-0.512-0.038-0.741h-6.731c0.267-1.634 1.417-2.32 2.709-2.32 0.913 0 1.882 0.361 2.634 0.961l0.988-1.416c-1.112-0.951-2.367-1.283-3.746-1.283-2.727 0-4.657 1.9-4.657 4.791 0 2.851 1.853 4.791 4.534 4.791 2.548 0 4.297-1.94 4.307-4.783"/></g><g transform="translate(330.82 358.36)"><path d="m0 0c0-1.664 1.104-2.92 2.748-2.92 1.711 0 2.746 1.322 2.746 2.92 0 1.596-1.035 2.918-2.746 2.918-1.644 0-2.748-1.256-2.748-2.918m7.539 0c0-2.785-2.006-4.791-4.555-4.791-1.292 0-2.223 0.521-2.851 1.32v-4.886h-1.987v12.91h1.987v-1.084c0.628 0.799 1.559 1.322 2.851 1.322 2.549 0 4.555-2.006 4.555-4.791"/></g><path d="m342.81 353.8h-1.996v13.689h1.996z"/><path d="m347.92 353.8h-1.996v9.107h1.996zm0.4 12.254c0-0.789-0.618-1.389-1.408-1.389-0.789 0-1.387 0.6-1.387 1.389s0.598 1.406 1.387 1.406c0.79 0 1.408-0.617 1.408-1.406"/><g transform="translate(358.57 361.69)"><path d="m0 0-1.274-1.359c-0.638 0.599-1.312 0.941-2.187 0.941-1.53 0-2.69-1.197-2.69-2.918s1.16-2.92 2.69-2.92c0.875 0 1.654 0.41 2.234 0.951l1.227-1.369c-0.828-0.959-2.045-1.453-3.404-1.453-2.899 0-4.791 2.063-4.791 4.791 0 2.729 1.892 4.791 4.791 4.791 1.359 0 2.595-0.494 3.404-1.455"/></g><g transform="translate(361.99 358.36)"><path d="m0 0c0-1.598 1.037-2.92 2.748-2.92 1.645 0 2.747 1.256 2.747 2.92 0 1.662-1.102 2.918-2.747 2.918-1.711 0-2.748-1.322-2.748-2.918m7.358-4.555h-1.987v1.094c-0.627-0.809-1.568-1.33-2.861-1.33-2.547 0-4.553 2.006-4.553 4.791s2.006 4.791 4.553 4.791c1.293 0 2.234-0.533 2.861-1.342v1.104h1.987z"/></g><g transform="translate(378.66 361.1)"><path d="m0 0h-3.488v-3.963c0-1.226 0.646-1.703 1.445-1.703 0.617 0 1.293 0.277 1.834 0.619l0.789-1.588c-0.732-0.494-1.654-0.902-2.795-0.902-2.062 0-3.269 1.111-3.269 3.535v4.002h-1.817v1.807h1.817v2.755h1.996v-2.755h3.488z"/></g><path d="m383.08 353.8h-1.996v9.107h1.996zm0.4 12.254c0-0.789-0.617-1.389-1.406-1.389s-1.389 0.6-1.389 1.389 0.6 1.406 1.389 1.406 1.406-0.617 1.406-1.406"/><g transform="translate(387.58 358.36)"><path d="m0 0c0-1.721 1.227-2.92 2.852-2.92s2.861 1.199 2.861 2.92-1.236 2.918-2.861 2.918-2.852-1.197-2.852-2.918m7.757 0c0-2.729-2.091-4.791-4.905-4.791-2.815 0-4.896 2.062-4.896 4.791s2.081 4.791 4.896 4.791c2.814 0 4.905-2.062 4.905-4.791"/></g><g transform="translate(406.26 359.53)"><path d="m0 0v-5.723h-1.996v5.067c0 1.531-0.789 2.386-2.12 2.386-1.284 0-2.359-0.845-2.359-2.404v-5.049h-1.996v9.108h1.978v-1.112c0.731 1.075 1.863 1.35 2.795 1.35 2.167 0 3.698-1.492 3.698-3.623"/></g><g transform="translate(420.2 365.67)"><path d="m0 0c-2.471-1.141-3.916-3.678-3.916-6.463s1.445-5.324 3.916-6.465l-0.703-1.834c-3.223 1.34-5.352 4.496-5.352 8.299s2.129 6.959 5.352 8.299z"/></g><g transform="translate(431.26 364.17)"><path d="m0 0c-1.131 0.723-2.387 1.143-3.736 1.143-1.778 0-2.994-0.772-2.994-1.989 0-1.101 1.036-1.529 2.765-1.777l0.923-0.123c2.157-0.295 4.287-1.19 4.287-3.66 0-2.709-2.452-4.192-5.333-4.192-1.807 0-3.974 0.598-5.351 1.787l1.168 1.711c0.914-0.837 2.634-1.464 4.173-1.464 1.741 0 3.11 0.742 3.11 1.968 0 1.045-1.046 1.53-2.995 1.797l-1.037 0.143c-1.976 0.275-3.945 1.207-3.945 3.677 0 2.672 2.367 4.155 5.248 4.155 1.94 0 3.47-0.541 4.811-1.436z"/></g><g transform="translate(443.14 363.54)"><path d="m0 0c0-1.416-0.799-2.451-2.024-3.023 1.396-0.551 2.328-1.635 2.328-3.088 0-2.596-2.291-3.852-4.705-3.852-1.978 0-3.604 0.705-4.582 1.902l1.321 1.379c0.789-0.855 2.006-1.359 3.213-1.359 1.454 0 2.595 0.654 2.595 2.023 0 1.342-1.293 2.045-2.88 2.045h-1.607v1.891h1.598c1.434 0 2.595 0.646 2.595 1.978 0 1.274-1.132 1.987-2.51 1.987-1.245 0-2.177-0.694-2.691-1.436l-1.482 1.264c0.76 1.189 2.215 2.092 4.306 2.092 2.71 0 4.525-1.512 4.525-3.803"/></g><g transform="translate(445.14 352.76)"><path d="m0 0c2.471 1.141 3.916 3.678 3.916 6.465 0 2.785-1.445 5.322-3.916 6.463l0.703 1.836c3.223-1.342 5.352-4.498 5.352-8.299 0-3.803-2.129-6.959-5.352-8.301z"/></g></g></g></svg>
