<?xml version="1.0" encoding="UTF-8"?>
<svg width="775.73" height="382.4" version="1.1" viewBox="0 0 775.73 382.4" xml:space="preserve" xmlns="http://www.w3.org/2000/svg"><defs><clipPath id="clipPath32"><path d="m0 360h628v-360h-628z"/></clipPath></defs><g transform="matrix(1.3333 0 0 -1.3333 -30.8 486.62)"><path d="m221.5 270.17h-190v30h190z" fill="none" stroke="#000" stroke-miterlimit="10" stroke-width=".8"/><g transform="translate(220.43 182.04)"><path d="m0 0h187.15" fill="none" stroke="#c22e4a" stroke-dasharray="5.195, 2.857" stroke-miterlimit="10" stroke-width=".8"/></g><g transform="translate(220.43 195.53)"><path d="m0 0h187.15" fill="none" stroke="#c22e4a" stroke-dasharray="5.195, 2.857" stroke-miterlimit="10" stroke-width=".8"/></g><g transform="translate(220.43 188.78)"><path d="m0 0h187.15" fill="none" stroke="#c22e4a" stroke-miterlimit="10" stroke-width=".8"/></g><g clip-path="url(#clipPath32)"><g transform="translate(352.09 198.72)"><path d="m0 0c0.245 1.429 0.381 2.896 0.381 4.396 0 14.244-11.548 25.791-25.792 25.791-11.066 0-20.501-6.97-24.162-16.758-2.233 1.706-5.015 2.731-8.041 2.731-7.332 0-13.275-5.943-13.275-13.275 0-0.038 5e-3 -0.074 6e-3 -0.112-9.906-1.047-17.624-9.426-17.624-19.609 0-10.892 8.829-19.721 19.721-19.721h64.296c10.247 0 16.817 8.307 16.817 18.554 0 8.698-4.251 15.995-12.327 18.003" fill="#fff"/><path d="m0 0c0.245 1.429 0.381 2.896 0.381 4.396 0 14.244-11.548 25.791-25.792 25.791-11.066 0-20.501-6.97-24.162-16.758-2.233 1.706-5.015 2.731-8.041 2.731-7.332 0-13.275-5.943-13.275-13.275 0-0.038 5e-3 -0.074 6e-3 -0.112-9.906-1.047-17.624-9.426-17.624-19.609 0-10.892 8.829-19.721 19.721-19.721h64.296c10.247 0 16.817 8.307 16.817 18.554 0 8.698-4.251 15.995-12.327 18.003z" fill="none" stroke="#707070" stroke-miterlimit="10" stroke-width="1.8"/></g><path d="m164.09 250.54h56v-137h-56z" fill="#fff" stroke="#c22e4a" stroke-miterlimit="10" stroke-width="1.8"/><g fill="none" stroke="#c22e4a" stroke-miterlimit="10" stroke-width=".8"><path d="m172.09 241.54h40v-9h-40z"/><path d="m172.09 228.06h40v-9h-40z"/><path d="m172.09 214.58h40v-9h-40z"/><path d="m172.09 201.1h40v-9h-40z"/><path d="m172.09 187.62h40v-9h-40z"/></g><g transform="translate(209.09 158.59)"><path d="m0 0c-1.657 0-3 1.343-3 3s1.343 3 3 3c1.656 0 3-1.343 3-3s-1.344-3-3-3z" fill="none" stroke="#c22e4a" stroke-miterlimit="10" stroke-width=".8"/></g><path d="m97.793 250.54h56v-137h-56z" fill="#fff" stroke="#c22e4a" stroke-miterlimit="10" stroke-width="1.8"/><g fill="none" stroke="#c22e4a" stroke-miterlimit="10" stroke-width=".8"><path d="m105.79 241.54h40v-9h-40z"/><path d="m105.79 228.06h40v-9h-40z"/><path d="m105.79 214.58h40v-9h-40z"/><path d="m105.79 201.1h40v-9h-40z"/><path d="m105.79 187.62h40v-9h-40z"/></g><g transform="translate(142.79 158.59)"><path d="m0 0c-1.656 0-3 1.343-3 3s1.344 3 3 3c1.657 0 3-1.343 3-3s-1.343-3-3-3z" fill="none" stroke="#c22e4a" stroke-miterlimit="10" stroke-width=".8"/></g><path d="m31.5 250.54h56v-137h-56z" fill="#fff" stroke="#c22e4a" stroke-miterlimit="10" stroke-width="1.8"/><g fill="none" stroke="#c22e4a" stroke-miterlimit="10" stroke-width=".8"><path d="m39.5 241.54h40v-9h-40z"/><path d="m39.5 228.06h40v-9h-40z"/><path d="m39.5 214.58h40v-9h-40z"/><path d="m39.5 201.1h40v-9h-40z"/><path d="m39.5 187.62h40v-9h-40z"/></g><g transform="translate(76.5 158.59)"><path d="m0 0c-1.657 0-3 1.343-3 3s1.343 3 3 3 3-1.343 3-3-1.343-3-3-3z" fill="none" stroke="#c22e4a" stroke-miterlimit="10" stroke-width=".8"/></g><g transform="translate(109.83 96.263)"><path d="m0 0c-1.132 0.723-2.387 1.141-3.736 1.141-1.778 0-2.994-0.77-2.994-1.987 0-1.103 1.036-1.53 2.765-1.778l0.923-0.124c2.157-0.294 4.287-1.188 4.287-3.659 0-2.71-2.453-4.193-5.333-4.193-1.807 0-3.974 0.6-5.352 1.787l1.169 1.712c0.913-0.836 2.633-1.464 4.173-1.464 1.741 0 3.109 0.741 3.109 1.968 0 1.045-1.045 1.53-2.994 1.796l-1.037 0.143c-1.977 0.276-3.945 1.207-3.945 3.679 0 2.671 2.367 4.154 5.248 4.154 1.939 0 3.47-0.542 4.81-1.435z"/></g><path d="m116.1 85.901h-2.148v13.309h2.148z"/><g transform="translate(129.02 97.176)"><path d="m0 0h-4.307v-11.274h-2.148v11.274h-4.306v2.034h10.761z"/></g><g transform="translate(140.89 85.901)"><path d="m0 0h-9.706v13.309h9.582v-2.016h-7.434v-3.584h7.177v-2.015h-7.177v-3.679h7.558z"/></g><g transform="translate(153.48 85.901)"><path d="m0 0h-2.063v10.523l-3.384-1.454v2.148l5.447 2.301z"/></g><g transform="translate(291.79 182.37)"><path d="m0 0v-4.407h-1.118v4.039c0 1.351-0.751 2.147-2.05 2.147-1.193 0-2.177-0.825-2.177-2.177v-4.009h-1.126v7.11h1.111v-1.014c0.578 0.849 1.524 1.156 2.395 1.156 1.756 0 2.965-1.126 2.965-2.845"/></g><g transform="translate(294.95 182.03)"><path d="m0 0h4.564c-0.142 1.329-1.013 2.185-2.221 2.185-1.315 0-2.162-0.901-2.343-2.185m5.706-0.488c0-0.142-8e-3 -0.293-0.022-0.42h-5.699c0.158-1.532 1.231-2.32 2.515-2.32 0.878 0 1.645 0.338 2.252 0.894l0.601-0.767c-0.886-0.848-1.877-1.11-2.92-1.11-2.103 0-3.596 1.493-3.596 3.693 0 2.177 1.501 3.701 3.528 3.701 1.929 0 3.325-1.509 3.341-3.671"/></g><g transform="translate(307.49 184.06)"><path d="m0 0h-3.071v-3.589c0-1.111 0.586-1.599 1.412-1.599 0.548 0 1.081 0.203 1.493 0.503l0.526-0.848c-0.533-0.405-1.239-0.706-2.11-0.706-1.531 0-2.439 0.841-2.439 2.628v3.611h-1.554v1.013h1.554v2.26h1.118v-2.26h3.071z"/></g><g transform="translate(317.31 179.13)"><path d="m0 0 2.14 5.946h1.163l-2.627-7.11h-1.329l-2.125 5.909-2.118-5.909h-1.305l-2.628 7.11h1.193l2.125-5.938 2.117 5.938h1.261z"/></g><g transform="translate(322.83 181.52)"><path d="m0 0c0-1.539 1.118-2.65 2.597-2.65 1.471 0 2.597 1.111 2.597 2.65 0 1.531-1.126 2.643-2.597 2.643-1.479 0-2.597-1.112-2.597-2.643m6.343 0c0-2.11-1.607-3.701-3.746-3.701-2.14 0-3.739 1.591-3.739 3.701 0 2.102 1.599 3.693 3.739 3.693 2.139 0 3.746-1.591 3.746-3.693"/></g><g transform="translate(335.78 184.97)"><path d="m0 0-0.271-1.104c-0.344 0.188-0.818 0.286-1.23 0.286-1.111 0-1.907-0.871-1.907-2.215v-3.979h-1.118v7.11h1.11v-0.999c0.488 0.729 1.239 1.141 2.109 1.141 0.511 0 0.932-0.067 1.307-0.24"/></g><g transform="translate(338.6 182.19)"><path d="m0 0h1.028l2.741 2.883h1.403l-3.228-3.348 3.281-3.762h-1.419l-2.785 3.206h-1.021v-3.206h-1.126v10.811h1.126z"/></g><path d="m540.5 250.54h56v-137h-56z" fill="#fff" stroke="#497490" stroke-miterlimit="10" stroke-width="1.8"/><g fill="none" stroke="#497490" stroke-miterlimit="10" stroke-width=".8"><path d="m548.5 241.54h40v-9h-40z"/><path d="m548.5 228.06h40v-9h-40z"/><path d="m548.5 214.58h40v-9h-40z"/><path d="m548.5 201.1h40v-9h-40z"/><path d="m548.5 187.62h40v-9h-40z"/></g><g transform="translate(585.5 158.59)"><path d="m0 0c-1.657 0-3 1.343-3 3s1.343 3 3 3 3-1.343 3-3-1.343-3-3-3z" fill="none" stroke="#497490" stroke-miterlimit="10" stroke-width=".8"/></g><path d="m474.21 250.54h56v-137h-56z" fill="#fff" stroke="#497490" stroke-miterlimit="10" stroke-width="1.8"/><g fill="none" stroke="#497490" stroke-miterlimit="10" stroke-width=".8"><path d="m482.21 241.54h40v-9h-40z"/><path d="m482.21 228.06h40v-9h-40z"/><path d="m482.21 214.58h40v-9h-40z"/><path d="m482.21 201.1h40v-9h-40z"/><path d="m482.21 187.62h40v-9h-40z"/></g><g transform="translate(519.21 158.59)"><path d="m0 0c-1.657 0-3 1.343-3 3s1.343 3 3 3c1.656 0 3-1.343 3-3s-1.344-3-3-3z" fill="none" stroke="#497490" stroke-miterlimit="10" stroke-width=".8"/></g><path d="m407.91 250.54h56v-137h-56z" fill="#fff" stroke="#497490" stroke-miterlimit="10" stroke-width="1.8"/><g fill="none" stroke="#497490" stroke-miterlimit="10" stroke-width=".8"><path d="m415.91 241.54h40v-9h-40z"/><path d="m415.91 228.06h40v-9h-40z"/><path d="m415.91 214.58h40v-9h-40z"/><path d="m415.91 201.1h40v-9h-40z"/><path d="m415.91 187.62h40v-9h-40z"/></g><g transform="translate(452.91 158.59)"><path d="m0 0c-1.656 0-3 1.343-3 3s1.344 3 3 3c1.657 0 3-1.343 3-3s-1.343-3-3-3z" fill="none" stroke="#497490" stroke-miterlimit="10" stroke-width=".8"/></g><g transform="translate(484.88 96.263)"><path d="m0 0c-1.132 0.723-2.387 1.141-3.736 1.141-1.778 0-2.994-0.77-2.994-1.987 0-1.103 1.036-1.53 2.765-1.778l0.923-0.124c2.157-0.294 4.287-1.188 4.287-3.659 0-2.71-2.453-4.193-5.333-4.193-1.807 0-3.974 0.6-5.352 1.787l1.169 1.712c0.913-0.836 2.633-1.464 4.173-1.464 1.741 0 3.109 0.741 3.109 1.968 0 1.045-1.045 1.53-2.994 1.796l-1.037 0.143c-1.977 0.276-3.945 1.207-3.945 3.679 0 2.671 2.367 4.154 5.248 4.154 1.939 0 3.47-0.542 4.81-1.435z"/></g><path d="m491.16 85.901h-2.148v13.309h2.148z"/><g transform="translate(504.08 97.176)"><path d="m0 0h-4.307v-11.274h-2.148v11.274h-4.306v2.034h10.761z"/></g><g transform="translate(515.95 85.901)"><path d="m0 0h-9.706v13.309h9.582v-2.016h-7.434v-3.584h7.177v-2.015h-7.177v-3.679h7.558z"/></g><g transform="translate(523.27 97.214)"><path d="m0 0c0.637 0.865 1.845 2.224 4.25 2.224 2.756 0 4.41-1.777 4.41-4.277 0-1.674-0.95-2.843-1.767-3.727l-3.337-3.574h5.465v-1.959h-8.517v1.617l4.81 5.114c0.742 0.798 1.189 1.587 1.189 2.538 0 1.331-0.875 2.3-2.311 2.3-1.349 0-2.062-0.674-2.718-1.473z"/></g><g transform="translate(73.105 282.91)"><path d="m0 0h4.278l-2.139 5.247zm7.222-4.069h-1.291l-1.195 2.927h-5.202l-1.186-2.927h-1.254l4.317 10.509h1.494z"/></g><g transform="translate(83.311 288.21)"><path d="m0 0v-4.009h2.726c1.621 0 2.5 0.668 2.5 2.004 0 1.337-0.879 2.005-2.5 2.005zm0-5.143v-4.226h-1.208v10.51h3.971c2.357 0 3.716-1.178 3.716-3.146 0-1.967-1.359-3.138-3.716-3.138z"/></g><g transform="translate(93.271 288.21)"><path d="m0 0v-4.009h2.726c1.621 0 2.5 0.668 2.5 2.004 0 1.337-0.879 2.005-2.5 2.005zm0-5.143v-4.226h-1.208v10.51h3.971c2.357 0 3.716-1.178 3.716-3.146 0-1.967-1.359-3.138-3.716-3.138z"/></g><g transform="translate(109.31 278.84)"><path d="m0 0h-7.289v10.51h1.208v-9.369h6.081z"/></g><path d="m112.33 278.84h-1.209v10.51h1.209z"/><g transform="translate(124.46 287.32)"><path d="m0 0-1.006-0.676c-0.69 1.044-1.891 1.69-3.281 1.69-2.357 0-4.158-1.712-4.158-4.243 0-2.529 1.801-4.241 4.158-4.241 1.39 0 2.575 0.631 3.281 1.682l0.976-0.721c-0.87-1.314-2.448-2.125-4.257-2.125-3.123 0-5.428 2.252-5.428 5.405 0 3.154 2.305 5.406 5.428 5.406 1.832 0 3.461-0.825 4.287-2.177"/></g><g transform="translate(128.49 282.91)"><path d="m0 0h4.278l-2.139 5.247zm7.222-4.069h-1.291l-1.195 2.927h-5.202l-1.186-2.927h-1.254l4.317 10.509h1.494z"/></g><g transform="translate(143.95 288.21)"><path d="m0 0h-3.648v-9.369h-1.202v9.369h-3.648v1.141h8.498z"/></g><path d="m146.97 278.84h-1.208v10.51h1.208z"/><g transform="translate(150.66 284.09)"><path d="m0 0c0-2.529 1.802-4.241 4.159-4.241 2.365 0 4.167 1.712 4.167 4.241 0 2.53-1.802 4.242-4.167 4.242-2.357 0-4.159-1.712-4.159-4.242m9.587 0c0-3.153-2.297-5.405-5.428-5.405-3.123 0-5.428 2.252-5.428 5.405s2.305 5.405 5.428 5.405c3.131 0 5.428-2.252 5.428-5.405"/></g><g transform="translate(171.47 278.84)"><path d="m0 0h-1.089l-6.509 8.438v-8.438h-1.209v10.51h1.089l6.509-8.438v8.438h1.209z"/></g><g transform="translate(181.36 287.36)"><path d="m0 0c-0.849 0.578-1.907 0.983-3.168 0.983-1.584 0-2.718-0.712-2.718-1.899 0-0.976 0.788-1.509 2.425-1.704l0.998-0.12c1.734-0.21 3.281-0.946 3.281-2.763 0-2.079-1.891-3.16-4.159-3.16-1.524 0-3.138 0.54-4.129 1.351l0.66 0.961c0.729-0.616 2.095-1.171 3.461-1.171 1.63 0 2.913 0.661 2.913 1.915 0 1.02-0.877 1.531-2.544 1.718l-1.059 0.12c-1.794 0.204-3.101 1.037-3.101 2.779 0 1.996 1.78 3.115 3.98 3.115 1.598 0 2.807-0.473 3.775-1.148z"/></g><g transform="translate(407.7 182.04)"><path d="m0 0-5.477 3.162v-6.324z" fill="#c22e4a"/></g><g transform="translate(407.7 195.53)"><path d="m0 0-5.477 3.162v-6.324z" fill="#c22e4a"/></g><g transform="translate(407.7 188.78)"><path d="m0 0-5.477 3.162v-6.324z" fill="#c22e4a"/></g><g transform="translate(59.5 270.18)"><path d="m0 0v-19.066" fill="none" stroke="#000" stroke-dasharray="5.195, 2.857" stroke-miterlimit="10" stroke-width=".8"/></g><g transform="translate(192.09 270.18)"><path d="m0 0v-19.066" fill="none" stroke="#000" stroke-dasharray="5.195, 2.857" stroke-miterlimit="10" stroke-width=".8"/></g><g transform="translate(125.79 270.18)"><path d="m0 0v-19.066" fill="none" stroke="#000" stroke-dasharray="5.195, 2.857" stroke-miterlimit="10" stroke-width=".8"/></g><g transform="translate(125.79 250.12)"><path d="m0 0 3.162 5.477h-6.324z"/></g><g transform="translate(192.09 250.12)"><path d="m0 0 3.162 5.477h-6.324z"/></g><g transform="translate(59.5 250.12)"><path d="m0 0 3.162 5.477h-6.324z"/></g><g transform="translate(251.11 349.23)"><path d="m0 0h4.449l-2.224 5.742zm8.86-5.428h-2.309l-1.313 3.394h-6.027l-1.312-3.394h-2.233l5.256 13.309h2.682z"/></g><g transform="translate(269.25 351.7)"><path d="m0 0-1.273-1.359c-0.637 0.598-1.313 0.94-2.187 0.94-1.53 0-2.69-1.197-2.69-2.918s1.16-2.919 2.69-2.919c0.874 0 1.654 0.409 2.233 0.951l1.227-1.369c-0.826-0.96-2.043-1.454-3.402-1.454-2.901 0-4.791 2.063-4.791 4.791 0 2.729 1.89 4.791 4.791 4.791 1.359 0 2.594-0.494 3.402-1.454"/></g><g transform="translate(277.77 351.11)"><path d="m0 0h-3.489v-3.964c0-1.226 0.646-1.702 1.445-1.702 0.618 0 1.293 0.276 1.835 0.618l0.789-1.588c-0.732-0.494-1.654-0.902-2.795-0.902-2.063 0-3.27 1.112-3.27 3.536v4.002h-1.816v1.807h1.816v2.755h1.996v-2.755h3.489z"/></g><path d="m282.18 343.8h-1.996v9.107h1.996zm0.398 12.254c0-0.789-0.617-1.388-1.406-1.388s-1.389 0.599-1.389 1.388 0.6 1.407 1.389 1.407 1.406-0.618 1.406-1.407"/><g transform="translate(289.97 343.8)"><path d="m0 0h-2.357l-3.661 9.107h2.168l2.69-7.044 2.691 7.044h2.11z"/></g><g transform="translate(296.72 349.14)"><path d="m0 0h4.725c-0.219 1.416-1.046 2.243-2.31 2.243-1.417 0-2.206-0.912-2.415-2.243m6.759-0.771c0-0.255-0.019-0.512-0.037-0.741h-6.731c0.266-1.634 1.416-2.319 2.709-2.319 0.912 0 1.882 0.361 2.633 0.96l0.988-1.416c-1.111-0.951-2.367-1.283-3.745-1.283-2.727 0-4.657 1.901-4.657 4.791 0 2.851 1.853 4.791 4.533 4.791 2.549 0 4.297-1.94 4.307-4.783"/></g><path d="m311.15 347.97h-5.514v1.806h5.514z"/><g transform="translate(316.36 355.09)"><path d="m0 0v-4.031h2.956c1.74 0 2.539 0.646 2.539 2.015 0 1.37-0.799 2.016-2.539 2.016zm0-6.056v-5.228h-2.148v13.308h5.162c3.07 0 4.715-1.549 4.715-4.04 0-2.49-1.645-4.04-4.715-4.04z"/></g><g transform="translate(327.65 348.36)"><path d="m0 0c0-1.598 1.037-2.919 2.748-2.919 1.645 0 2.747 1.255 2.747 2.919 0 1.663-1.102 2.918-2.747 2.918-1.711 0-2.748-1.321-2.748-2.918m7.358-4.554h-1.987v1.093c-0.627-0.808-1.568-1.33-2.861-1.33-2.547 0-4.553 2.006-4.553 4.791s2.006 4.791 4.553 4.791c1.293 0 2.234-0.532 2.861-1.341v1.104h1.987z"/></g><g transform="translate(344.31 350.63)"><path d="m0 0c-0.552 0.343-1.683 0.78-2.813 0.78-1.084 0-1.721-0.437-1.721-1.084 0-0.636 0.665-0.817 1.502-0.941l0.94-0.143c1.988-0.285 3.165-1.131 3.165-2.69 0-1.749-1.52-2.976-4.144-2.976-0.941 0-2.576 0.181-3.907 1.17l0.922 1.492c0.657-0.504 1.522-0.931 3.004-0.931 1.36 0 2.073 0.427 2.073 1.112 0 0.514-0.495 0.856-1.579 1.008l-0.95 0.123c-2.015 0.276-3.09 1.208-3.09 2.672 0 1.805 1.445 2.918 3.765 2.918 1.426 0 2.747-0.352 3.688-0.96z"/></g><g transform="translate(353.92 350.63)"><path d="m0 0c-0.552 0.343-1.683 0.78-2.814 0.78-1.084 0-1.721-0.437-1.721-1.084 0-0.636 0.666-0.817 1.502-0.941l0.941-0.143c1.987-0.285 3.166-1.131 3.166-2.69 0-1.749-1.521-2.976-4.144-2.976-0.942 0-2.576 0.181-3.909 1.17l0.923 1.492c0.656-0.504 1.521-0.931 3.004-0.931 1.36 0 2.073 0.427 2.073 1.112 0 0.514-0.495 0.856-1.579 1.008l-0.95 0.123c-2.015 0.276-3.09 1.208-3.09 2.672 0 1.805 1.446 2.918 3.765 2.918 1.426 0 2.747-0.352 3.688-0.96z"/></g><path d="m359.32 343.8h-1.996v9.107h1.996zm0.399 12.254c0-0.789-0.618-1.388-1.407-1.388s-1.388 0.599-1.388 1.388 0.599 1.407 1.388 1.407 1.407-0.618 1.407-1.407"/><g transform="translate(367.11 343.8)"><path d="m0 0h-2.358l-3.66 9.107h2.167l2.691-7.044 2.69 7.044h2.111z"/></g><g transform="translate(373.86 349.14)"><path d="m0 0h4.725c-0.219 1.416-1.046 2.243-2.311 2.243-1.416 0-2.205-0.912-2.414-2.243m6.758-0.771c0-0.255-0.018-0.512-0.037-0.741h-6.731c0.266-1.634 1.416-2.319 2.709-2.319 0.912 0 1.883 0.361 2.633 0.96l0.989-1.416c-1.112-0.951-2.367-1.283-3.745-1.283-2.728 0-4.658 1.901-4.658 4.791 0 2.851 1.853 4.791 4.534 4.791 2.548 0 4.297-1.94 4.306-4.783"/></g></g></g></svg>
