<?xml version="1.0" encoding="UTF-8"?>
<svg width="942.52" height="432.27" fill="none" stroke-linecap="square" stroke-miterlimit="10" version="1.1" viewBox="0 0 942.52 432.27" xmlns="http://www.w3.org/2000/svg">
 <clipPath id="gd8f1c0e868_0_48.0">
  <path d="m0 0h960v540h-960z"/>
 </clipPath>
 <g transform="translate(-8.769 -4.7323)" clip-path="url(#gd8f1c0e868_0_48.0)">
  <path d="m87.312 25.732h249.57v43.559h-249.57z" fill="#fff" fill-rule="evenodd"/>
  <path d="m87.312 25.732h249.57v43.559h-249.57z" fill-rule="evenodd" stroke="#c72c48" stroke-linecap="butt" stroke-linejoin="round" stroke-width="2"/>
  <path d="m121.06 53.497q-2.4688 0-3.7188-1.375-1.2344-1.375-1.2344-4.0938t1.2344-4.0938q1.25-1.375 3.7188-1.375 0.84375 0 1.6562 0.20312t1.5938 0.57812v1.1094q-0.73437-0.40625-1.5312-0.60938-0.78125-0.20312-1.5938-0.20312-1.3438 0-2.2031 0.46875-0.85938 0.46875-1.2656 1.4375t-0.40625 2.4844 0.40625 2.4844 1.2656 1.4375q0.85937 0.46875 2.2031 0.46875 0.8125 0 1.5938-0.1875 0.79688-0.20312 1.5312-0.60938v1.1094q-0.51562 0.23438-1.0625 0.42188-0.53125 0.17188-1.0781 0.25-0.54688 0.09375-1.1094 0.09375zm6.5614-0.125h-1.1562v-11.031h1.1562zm2.6183 0v-7.9844h1.1562v7.9844zm-0.0625-9.4062v-1.2656h1.2812v1.2656zm7.1369 9.6406q-1.1406 0-1.9688-0.46875-0.82812-0.46875-1.2812-1.4062-0.45312-0.95312-0.45312-2.3594 0-2.0625 0.9375-3.0938t2.5781-1.0312q1.2656 0 2.0469 0.57812t1.1094 1.5469q0.34375 0.96875 0.32813 2.2031h-6.4219l0.0781-1.0469h5.5938l-0.45313 0.15625q-0.0469-1.2031-0.60937-1.7969-0.54688-0.59375-1.6719-0.59375-0.79687 0-1.3125 0.29688-0.51562 0.28125-0.78125 1-0.25 0.70312-0.25 1.9844 0 1.4531 0.67188 2.2188 0.6875 0.76562 1.9219 0.76562 0.59375 0 1.0781-0.07813 0.5-0.09375 0.92187-0.25 0.42188-0.17188 0.73438-0.35938v1.1875q-0.57813 0.26562-1.2812 0.40625-0.6875 0.14062-1.5156 0.14062zm5.4551-7.5781q0.375-0.1875 0.78125-0.34375 0.42188-0.15625 0.84375-0.25 0.42188-0.09375 0.85938-0.14062 0.4375-0.04687 0.89062-0.04687 1.1719 0 1.8594 0.34375t1 1 0.3125 1.5781v5.2031h-1.1562v-5.2031q0-0.28125-0.0781-0.59375-0.0625-0.32812-0.28125-0.625-0.20312-0.29688-0.64062-0.48438-0.42188-0.1875-1.1406-0.1875-0.5 0-1.0312 0.09375-0.53125 0.07813-1.0625 0.23438v6.7656h-1.1562zm11.62 7.4688q-0.85938 0-1.4375-0.51562-0.5625-0.51562-0.5625-1.5469v-4.9844h-1.3906v-1.0625h1.3906v-2.25h1.1406v2.25h2.0781v1.0625h-2.0781v4.625q0 0.67188 0.20313 1.0156 0.21875 0.32812 0.85937 0.32812 0.28125 0 0.54688-0.0625 0.28125-0.0625 0.46875-0.14062v1.0938q-0.23438 0.07813-0.57813 0.125-0.34375 0.0625-0.64062 0.0625zm3.2768-4.3281v-1.125h4.875v1.125zm8.674 0.125v4.0781h-1.1562v-10.672h3.7969q1.7812 0 2.7344 0.85938 0.95313 0.84375 0.95313 2.4375t-0.95313 2.4531q-0.95312 0.84375-2.7344 0.84375zm0-1.1094h2.5q0.89063 0 1.4219-0.1875t0.79687-0.51562q0.28125-0.32812 0.375-0.70312 0.0937-0.39062 0.0937-0.78125t-0.0937-0.76562q-0.0937-0.39062-0.375-0.71875-0.26562-0.32812-0.79687-0.51562t-1.4219-0.1875h-2.5zm8.5736 5.1875v-7.3438q0.1875-0.07813 0.73438-0.26562 0.5625-0.20312 1.3281-0.35938 0.78125-0.15625 1.6094-0.15625 0.14062 0 0.26562 0.03125t0.25 0.0625v1.0156q-0.40625-0.04687-0.8125-0.04687-0.39062 0-0.76562 0.04687-0.35938 0.04687-0.73438 0.10938-0.35937 0.0625-0.71875 0.125v6.7812zm8.7533 0.23438q-1.875 0-2.7812-1.1094t-0.90625-3.0938q0-2.0781 0.95312-3.1094 0.95313-1.0469 2.7031-1.0469 1.2969 0 2.1094 0.51562t1.1875 1.4531q0.39063 0.9375 0.39063 2.1875 0 1.9688-0.95313 3.0938-0.95312 1.1094-2.7031 1.1094zm-0.0156-1.0469q0.96875 0 1.5156-0.42188 0.54687-0.42188 0.78125-1.1406 0.23437-0.71875 0.23437-1.5938 0-0.9375-0.25-1.625-0.23437-0.70312-0.79687-1.0938-0.54688-0.39062-1.4844-0.39062-0.96875 0-1.5156 0.42188-0.53125 0.42188-0.76563 1.125-0.23437 0.6875-0.23437 1.5625 0 1.4062 0.5625 2.2812t1.9531 0.875zm7.9346 0.8125-3.375-7.9844h1.2344l2.9375 7-0.25 0.0625 2.8594-7.0625h1.1562l-3.3906 7.9844zm6.4623 0v-7.9844h1.1562v7.9844zm-0.0625-9.4062v-1.2656h1.2812v1.2656zm7.1525 9.6406q-0.57812 0-1.2188-0.17188-0.64062-0.15625-1.2188-0.60938-0.5625-0.46875-0.92187-1.3125-0.35938-0.85938-0.35938-2.2344 0-1.8594 0.90625-2.9375t2.75-1.0781q0.34375 0 0.82813 0.09375 0.48437 0.09375 0.9375 0.25 0.46875 0.14062 0.78125 0.29688l-0.40625 0.39062v-4.2812h1.1562v9.9844q0 0.45312-0.3125 0.76562t-0.8125 0.5q-0.5 0.17188-1.0625 0.25-0.54688 0.09375-1.0469 0.09375zm0.0156-1.0469q0.82812 0 1.4375-0.1875 0.625-0.20312 0.625-0.48438v-5.0156q-0.5-0.28125-1.0625-0.42188t-1.0781-0.14062q-0.875 0-1.4062 0.39062-0.53125 0.375-0.78125 1.0469-0.25 0.65625-0.25 1.5312 0 0.85938 0.1875 1.6094 0.20313 0.73438 0.73438 1.2031 0.54687 0.46875 1.5938 0.46875zm9.0728 1.0469q-1.1406 0-1.9688-0.46875-0.82813-0.46875-1.2812-1.4062-0.45313-0.95312-0.45313-2.3594 0-2.0625 0.9375-3.0938t2.5781-1.0312q1.2656 0 2.0469 0.57812t1.1094 1.5469q0.34375 0.96875 0.32812 2.2031h-6.4219l0.0781-1.0469h5.5938l-0.45312 0.15625q-0.0469-1.2031-0.60938-1.7969-0.54687-0.59375-1.6719-0.59375-0.79688 0-1.3125 0.29688-0.51563 0.28125-0.78125 1-0.25 0.70312-0.25 1.9844 0 1.4531 0.67187 2.2188 0.6875 0.76562 1.9219 0.76562 0.59375 0 1.0781-0.07813 0.5-0.09375 0.92188-0.25 0.42187-0.17188 0.73437-0.35938v1.1875q-0.57812 0.26562-1.2812 0.40625-0.6875 0.14062-1.5156 0.14062zm8.7676 0q-0.57813 0-1.2188-0.17188-0.64063-0.15625-1.2188-0.60938-0.5625-0.46875-0.92188-1.3125-0.35937-0.85938-0.35937-2.2344 0-1.8594 0.90625-2.9375t2.75-1.0781q0.34375 0 0.82812 0.09375 0.48438 0.09375 0.9375 0.25 0.46875 0.14062 0.78125 0.29688l-0.40625 0.39062v-4.2812h1.1562v9.9844q0 0.45312-0.3125 0.76562t-0.8125 0.5q-0.5 0.17188-1.0625 0.25-0.54687 0.09375-1.0469 0.09375zm0.0156-1.0469q0.82813 0 1.4375-0.1875 0.625-0.20312 0.625-0.48438v-5.0156q-0.5-0.28125-1.0625-0.42188t-1.0781-0.14062q-0.875 0-1.4062 0.39062-0.53125 0.375-0.78125 1.0469-0.25 0.65625-0.25 1.5312 0 0.85938 0.1875 1.6094 0.20312 0.73438 0.73437 1.2031 0.54688 0.46875 1.5938 0.46875zm13.525 0.96875q-0.8125 0-1.375-0.10938-0.54688-0.10938-1-0.3125-0.45313-0.21875-0.96875-0.48438v-1.25q0.5 0.4375 1.3594 0.78125 0.875 0.32812 2.0312 0.32812 1.2031 0 1.75-0.51562 0.5625-0.53125 0.5625-1.3281 0-0.67188-0.375-1.0781-0.35937-0.40625-0.9375-0.67188-0.57812-0.26562-1.2188-0.5-0.53125-0.20312-1.0781-0.40625-0.53125-0.21875-0.96875-0.54688-0.42188-0.32812-0.6875-0.84375-0.25-0.53125-0.25-1.3125 0-0.4375 0.15625-0.90625 0.17187-0.48438 0.54687-0.89062 0.375-0.42188 1-0.67188 0.64063-0.26562 1.5625-0.26562 0.625 0 1.0625 0.09375 0.4375 0.07813 0.82813 0.25 0.40625 0.17188 0.90625 0.40625v1.1875q-0.42188-0.25-0.79688-0.4375-0.375-0.20312-0.82812-0.32812-0.45313-0.125-1.1094-0.125-0.78125 0-1.2656 0.23438-0.46875 0.21875-0.6875 0.59375-0.20313 0.35938-0.20313 0.78125 0 0.65625 0.28125 1.0469 0.29688 0.375 0.82813 0.625 0.54687 0.25 1.25 0.48438 0.5625 0.1875 1.125 0.42188t1.0156 0.57812q0.45313 0.34375 0.73438 0.875 0.28125 0.51562 0.28125 1.2812 0 0.71875-0.32813 1.4219-0.3125 0.6875-1.0781 1.1406-0.76563 0.45312-2.125 0.45312zm9.0675 0.07813q-1.1406 0-1.9688-0.46875-0.82813-0.46875-1.2812-1.4062-0.45313-0.95312-0.45313-2.3594 0-2.0625 0.9375-3.0938t2.5781-1.0312q1.2656 0 2.0469 0.57812t1.1094 1.5469q0.34375 0.96875 0.32812 2.2031h-6.4219l0.0781-1.0469h5.5938l-0.45312 0.15625q-0.0469-1.2031-0.60938-1.7969-0.54687-0.59375-1.6719-0.59375-0.79688 0-1.3125 0.29688-0.51563 0.28125-0.78125 1-0.25 0.70312-0.25 1.9844 0 1.4531 0.67187 2.2188 0.6875 0.76562 1.9219 0.76562 0.59375 0 1.0781-0.07813 0.5-0.09375 0.92188-0.25 0.42187-0.17188 0.73437-0.35938v1.1875q-0.57812 0.26562-1.2812 0.40625-0.6875 0.14062-1.5156 0.14062zm8.7989-0.10938q-0.64062 0-1.3125-0.15625-0.65625-0.17188-1.2188-0.60938-0.54687-0.45312-0.89062-1.2656-0.32813-0.8125-0.32813-2.0938t0.32813-2.0781q0.34375-0.8125 0.89062-1.2656 0.5625-0.45312 1.2188-0.60938 0.67188-0.17188 1.3125-0.17188 0.60938 0 1.2031 0.10938 0.60937 0.10938 1.1562 0.32812v1.1094q-0.51563-0.21875-1.0781-0.32812-0.5625-0.125-1.1562-0.125-1.4219 0-2.0781 0.73438-0.64063 0.71875-0.64063 2.2969 0 1.5938 0.64063 2.3125 0.65625 0.71875 2.0781 0.71875 0.59375 0 1.1562-0.10938 0.5625-0.125 1.0781-0.34375v1.125q-0.54688 0.20312-1.1562 0.3125-0.59375 0.10938-1.2031 0.10938zm4.5283-0.125v-7.3438q0.1875-0.07813 0.73438-0.26562 0.5625-0.20312 1.3281-0.35938 0.78125-0.15625 1.6094-0.15625 0.14062 0 0.26562 0.03125t0.25 0.0625v1.0156q-0.40625-0.04687-0.8125-0.04687-0.39062 0-0.76562 0.04687-0.35938 0.04687-0.73438 0.10938-0.35937 0.0625-0.71875 0.125v6.7812zm8.7689 0.23438q-1.1406 0-1.9688-0.46875-0.82812-0.46875-1.2812-1.4062-0.45312-0.95312-0.45312-2.3594 0-2.0625 0.9375-3.0938t2.5781-1.0312q1.2656 0 2.0469 0.57812t1.1094 1.5469q0.34375 0.96875 0.32813 2.2031h-6.4219l0.0781-1.0469h5.5938l-0.45313 0.15625q-0.0469-1.2031-0.60937-1.7969-0.54688-0.59375-1.6719-0.59375-0.79687 0-1.3125 0.29688-0.51562 0.28125-0.78125 1-0.25 0.70312-0.25 1.9844 0 1.4531 0.67188 2.2188 0.6875 0.76562 1.9219 0.76562 0.59375 0 1.0781-0.07813 0.5-0.09375 0.92187-0.25 0.42188-0.17188 0.73438-0.35938v1.1875q-0.57813 0.26562-1.2812 0.40625-0.6875 0.14062-1.5156 0.14062zm7.9708-0.10938q-0.85938 0-1.4375-0.51562-0.5625-0.51562-0.5625-1.5469v-4.9844h-1.3906v-1.0625h1.3906v-2.25h1.1406v2.25h2.0781v1.0625h-2.0781v4.625q0 0.67188 0.20313 1.0156 0.21875 0.32812 0.85937 0.32812 0.28125 0 0.54688-0.0625 0.28125-0.0625 0.46875-0.14062v1.0938q-0.23438 0.07813-0.57813 0.125-0.34375 0.0625-0.64062 0.0625zm9.0418-3.5312v-1.5l5.1719-5.7656h1.4844zm-1.0312 3.4062v-10.672h1.1562v10.672zm2.8125-6.0156 5.2344 6.0156h-1.5938l-4.5-5.2344zm10.214 6.25q-1.1406 0-1.9688-0.46875-0.82812-0.46875-1.2812-1.4062-0.45312-0.95312-0.45312-2.3594 0-2.0625 0.9375-3.0938t2.5781-1.0312q1.2656 0 2.0469 0.57812t1.1094 1.5469q0.34375 0.96875 0.32813 2.2031h-6.4219l0.0781-1.0469h5.5938l-0.45313 0.15625q-0.0469-1.2031-0.60937-1.7969-0.54688-0.59375-1.6719-0.59375-0.79687 0-1.3125 0.29688-0.51562 0.28125-0.78125 1-0.25 0.70312-0.25 1.9844 0 1.4531 0.67188 2.2188 0.6875 0.76562 1.9219 0.76562 0.59375 0 1.0781-0.07813 0.5-0.09375 0.92187-0.25 0.42188-0.17188 0.73438-0.35938v1.1875q-0.57813 0.26562-1.2812 0.40625-0.6875 0.14062-1.5156 0.14062zm5.7545 2.8594q-0.23438 0-0.4375-0.0625-0.1875-0.04687-0.3125-0.09375v-1.0469q0.10937 0.04687 0.28125 0.09375 0.1875 0.04687 0.40625 0.04687 0.54687 0 0.875-0.3125 0.34375-0.29688 0.57812-0.8125 0.23438-0.5 0.42188-1.125v0.45312l-3.3906-8.2188h1.3125l2.6562 6.8125h-0.25l2.6406-6.8125h1.1562l-3.4219 8.7656q-0.375 0.95312-0.8125 1.4375-0.4375 0.5-0.875 0.6875t-0.82812 0.1875z" fill="#000"/>
  <path d="m62.934 227.61h92.283v43.559h-92.283z" fill="#fff" fill-rule="evenodd"/>
  <path d="m62.934 227.61h92.283v43.559h-92.283z" fill-rule="evenodd" stroke="#c72c48" stroke-linecap="butt" stroke-linejoin="round" stroke-width="2"/>
  <path d="m89.035 251.84v-1.5l5.1719-5.7656h1.4844zm-1.0312 3.4062v-10.672h1.1562v10.672zm2.8125-6.0156 5.2344 6.0156h-1.5938l-4.5-5.2344zm6.9955 6.0156v-10.672h6.7344v1.0938h-5.5781v3.6719h4.9062v1.125h-4.9062v3.6875h5.5781v1.0938zm10.327-3.4062v-1.5l5.1719-5.7656h1.4844zm-1.0312 3.4062v-10.672h1.1562v10.672zm2.8125-6.0156 5.2344 6.0156h-1.5938l-4.5-5.2344zm5.6361 7.1094v-0.70312h8.7344v0.70312zm12.517-1.0938v-9.4688l-2.1406 1.4062v-1.3594l1.9688-1.25h1.3125v10.672z" fill="#000"/>
  <path d="m62.934 300.03h92.283v43.559h-92.283z" fill="#fff" fill-rule="evenodd"/>
  <path d="m62.934 300.03h92.283v43.559h-92.283z" fill-rule="evenodd" stroke="#c72c48" stroke-linecap="butt" stroke-linejoin="round" stroke-width="2"/>
  <path d="m91.546 327.82q-1.5938 0-2.6562-0.60938-1.0625-0.625-1.6094-1.8281-0.53125-1.2188-0.53125-3.0469 0-2.7188 1.2031-4.0938 1.2188-1.3906 3.5938-1.3906 1.5938 0 2.6562 0.625 1.0625 0.60937 1.5938 1.8281 0.54688 1.2031 0.54688 3.0312 0 2.7188-1.2188 4.1094-1.2031 1.375-3.5781 1.375zm0-1.0781q1.2656 0 2.0625-0.46875t1.1719-1.4375q0.375-0.98437 0.375-2.5 0-1.5156-0.375-2.4844t-1.1719-1.4375q-0.79688-0.48438-2.0625-0.48438-1.25 0-2.0625 0.48438-0.79688 0.46875-1.1719 1.4375t-0.375 2.4844q0 1.5156 0.375 2.5 0.375 0.96875 1.1719 1.4375 0.8125 0.46875 2.0625 0.46875zm7.1134 0.92188v-10.672h6.7344v1.0938h-5.5781v3.6719h4.9062v1.125h-4.9062v3.6875h5.5781v1.0938zm10.327-3.4062v-1.5l5.1719-5.7656h1.4844zm-1.0312 3.4062v-10.672h1.1562v10.672zm2.8125-6.0156 5.2344 6.0156h-1.5938l-4.5-5.2344zm5.6361 7.1094v-0.70313h8.7344v0.70313zm12.517-1.0938v-9.4688l-2.1406 1.4062v-1.3594l1.9688-1.25h1.3125v10.672z" fill="#000"/>
  <path d="m235.83 372.44h169.73v43.559h-169.73z" fill="#fff" fill-rule="evenodd"/>
  <path d="m235.83 372.44h169.73v43.559h-169.73z" fill-rule="evenodd" stroke="#c72c48" stroke-linecap="butt" stroke-linejoin="round" stroke-width="2"/>
  <path d="m255.35 400.31q-1.875 0-2.7812-1.1094-0.90625-1.1094-0.90625-3.0938 0-2.0781 0.95312-3.1094 0.95313-1.0469 2.7031-1.0469 1.2969 0 2.1094 0.51563 0.8125 0.51562 1.1875 1.4531 0.39063 0.9375 0.39063 2.1875 0 1.9688-0.95313 3.0938-0.95312 1.1094-2.7031 1.1094zm-0.0156-1.0469q0.96877 0 1.5156-0.42187 0.54687-0.42188 0.78125-1.1406 0.23437-0.71875 0.23437-1.5938 0-0.9375-0.25-1.625-0.23437-0.70312-0.79687-1.0938-0.54688-0.39062-1.4844-0.39062-0.96875 0-1.5156 0.42187-0.53125 0.42188-0.76563 1.125-0.23437 0.6875-0.23437 1.5625 0 1.4062 0.5625 2.2812t1.9531 0.875zm8.9946 1.0469q-0.625 0-1.2031-0.0781-0.5625-0.0625-1-0.23437-0.4375-0.1875-0.70312-0.48438-0.25-0.3125-0.25-0.79687v-10h1.1562v4.2812l-0.40625-0.39063q0.32812-0.15625 0.78125-0.29687 0.45312-0.15625 0.92187-0.25 0.48438-0.0937 0.84375-0.0937 1.8594 0 2.75 1.0781 0.89063 1.0781 0.89063 2.9375 0 1.375-0.375 2.2344-0.35938 0.84375-0.92188 1.3125-0.5625 0.45312-1.2188 0.60937-0.65625 0.17188-1.2656 0.17188zm-0.125-1.0469q1.1406 0 1.7188-0.46875 0.57812-0.46875 0.78125-1.2031 0.20312-0.75 0.20312-1.6094 0-0.875-0.25-1.5312-0.25-0.67187-0.78125-1.0469-0.53125-0.39063-1.4062-0.39063-0.5 0-1.0781 0.14063-0.57813 0.14062-1.0625 0.42187v4.875q0 0.34375 0.3125 0.53125 0.3125 0.17188 0.75 0.23438 0.4375 0.0469 0.8125 0.0469zm4.9478 3.9062v-1.0781q0.70313-0.0156 1.0469-0.20313 0.34375-0.1875 0.46875-0.54687 0.125-0.35938 0.125-0.85938v-8.3906h1.1406v8.4531q0 0.875-0.29687 1.4531-0.29688 0.59375-0.92188 0.875-0.60937 0.29687-1.5625 0.29687zm1.5781-12.5v-1.2656h1.2812v1.2656zm7.1317 9.6406q-1.1406 0-1.9688-0.46875-0.82812-0.46875-1.2812-1.4062-0.45312-0.95313-0.45312-2.3594 0-2.0625 0.9375-3.0938t2.5781-1.0312q1.2656 0 2.0469 0.57813 0.78125 0.57812 1.1094 1.5469 0.34375 0.96875 0.32813 2.2031h-6.4219l0.0781-1.0469h5.5938l-0.45313 0.15625q-0.0469-1.2031-0.60937-1.7969-0.54688-0.59375-1.6719-0.59375-0.79687 0-1.3125 0.29687-0.51562 0.28125-0.78125 1-0.25 0.70313-0.25 1.9844 0 1.4531 0.67188 2.2188 0.6875 0.76562 1.9219 0.76562 0.59375 0 1.0781-0.0781 0.5-0.0937 0.92187-0.25 0.42188-0.17188 0.73438-0.35938v1.1875q-0.57813 0.26563-1.2812 0.40625-0.6875 0.14063-1.5156 0.14063zm8.7989-0.10938q-0.64062 0-1.3125-0.15625-0.65625-0.17187-1.2188-0.60937-0.54687-0.45313-0.89062-1.2656-0.32813-0.8125-0.32813-2.0938t0.32813-2.0781q0.34375-0.8125 0.89062-1.2656 0.5625-0.45312 1.2188-0.60937 0.67188-0.17188 1.3125-0.17188 0.60938 0 1.2031 0.10938 0.60937 0.10937 1.1562 0.32812v1.1094q-0.51563-0.21875-1.0781-0.32813-0.5625-0.125-1.1562-0.125-1.4219 0-2.0781 0.73438-0.64063 0.71875-0.64063 2.2969 0 1.5938 0.64063 2.3125 0.65625 0.71875 2.0781 0.71875 0.59375 0 1.1562-0.10937 0.5625-0.125 1.0781-0.34375v1.125q-0.54688 0.20312-1.1562 0.3125-0.59375 0.10937-1.2031 0.10937zm7.0439 0q-0.85938 0-1.4375-0.51562-0.5625-0.51563-0.5625-1.5469v-4.9844h-1.3906v-1.0625h1.3906v-2.25h1.1406v2.25h2.0781v1.0625h-2.0781v4.625q0 0.67187 0.20313 1.0156 0.21875 0.32813 0.85937 0.32813 0.28125 0 0.54688-0.0625 0.28125-0.0625 0.46875-0.14063v1.0938q-0.23438 0.0781-0.57813 0.125-0.34375 0.0625-0.64062 0.0625zm2.0111 0.96875v-0.70312h8.7344v0.70312zm16.564-6.2969v5.2031h-1.1562v-5.2031q0-0.28125-0.0781-0.59375-0.0625-0.32813-0.28125-0.625-0.20313-0.29688-0.64063-0.48438-0.42187-0.1875-1.1406-0.1875-0.5 0-1.0312 0.0937-0.53125 0.0781-1.0625 0.23438v6.7656h-1.1562v-7.3438q0.375-0.1875 0.78125-0.34375 0.42187-0.15625 0.84375-0.25 0.42187-0.0937 0.85937-0.14062 0.4375-0.0469 0.89063-0.0469 1.1719 0 1.8594 0.34375t1 1 0.3125 1.5781zm-1.5312-1.8281q0.53125-0.39062 1.0781-0.625 0.54687-0.25 1.125-0.35937 0.59375-0.10938 1.1875-0.10938 1.1562 0 1.8438 0.34375t1 1 0.3125 1.5781v5.2031h-1.1407v-5.2031q0-0.28125-0.0781-0.59375-0.0781-0.32813-0.28125-0.625-0.20313-0.29688-0.64063-0.48438t-1.1562-0.1875q-0.48437 0-1.0156 0.15625-0.53125 0.14063-1.0781 0.48438zm12.409 7.2656q-1.1406 0-1.9688-0.46875-0.82812-0.46875-1.2812-1.4062-0.45312-0.95313-0.45312-2.3594 0-2.0625 0.9375-3.0938t2.5781-1.0312q1.2656 0 2.0469 0.57813 0.78125 0.57812 1.1094 1.5469 0.34375 0.96875 0.32813 2.2031h-6.4219l0.0781-1.0469h5.5938l-0.45313 0.15625q-0.0469-1.2031-0.60937-1.7969-0.54688-0.59375-1.6719-0.59375-0.79687 0-1.3125 0.29687-0.51562 0.28125-0.78125 1-0.25 0.70313-0.25 1.9844 0 1.4531 0.67188 2.2188 0.6875 0.76562 1.9219 0.76562 0.59375 0 1.0781-0.0781 0.5-0.0937 0.92187-0.25 0.42188-0.17188 0.73438-0.35938v1.1875q-0.57813 0.26563-1.2812 0.40625-0.6875 0.14063-1.5156 0.14063zm7.9708-0.10938q-0.85938 0-1.4375-0.51562-0.5625-0.51563-0.5625-1.5469v-4.9844h-1.3906v-1.0625h1.3906v-2.25h1.1406v2.25h2.0781v1.0625h-2.0781v4.625q0 0.67187 0.20313 1.0156 0.21875 0.32813 0.85937 0.32813 0.28125 0 0.54688-0.0625 0.28125-0.0625 0.46875-0.14063v1.0938q-0.23438 0.0781-0.57813 0.125-0.34375 0.0625-0.64062 0.0625zm6.0424 0.10938q-0.53125 0-1.0625-0.10938-0.53125-0.10937-1-0.375-0.45313-0.28125-0.73438-0.75t-0.28125-1.1875q0-1 0.375-1.5938 0.39063-0.60937 1.0469-0.85937 0.67187-0.26563 1.5312-0.26563 0.65625 0 1.125 0.0781 0.48437 0.0781 0.85937 0.23437 0.375 0.14063 0.6875 0.34375l0.21875 1.0469q-0.35937-0.26563-1.0625-0.46875-0.6875-0.20313-1.5312-0.20313-1 0-1.5469 0.39063-0.54688 0.375-0.54688 1.1094 0 0.59375 0.32813 0.95313 0.32812 0.34375 0.82812 0.5 0.51563 0.14062 1.0312 0.14062 1.0469 0 1.5781-0.15625 0.54687-0.15625 0.54687-0.6875v-3.6719q0-0.92188-0.54687-1.3594-0.54688-0.4375-1.5625-0.4375-0.625 0-1.3438 0.1875t-1.2188 0.59375v-1.1562q0.48437-0.32812 1.3125-0.48437 0.84375-0.17188 1.625-0.17188 0.53125 0 0.96875 0.10938 0.45312 0.0937 0.79687 0.29687 0.35938 0.20313 0.60938 0.51563t0.375 0.71875q0.14062 0.40625 0.14062 0.92187v3.8594q0 0.85937-0.5 1.2812-0.5 0.40625-1.3125 0.53125t-1.7344 0.125zm9.4265 0q-0.57812 0-1.2188-0.17188-0.64062-0.15625-1.2188-0.60937-0.5625-0.46875-0.92187-1.3125-0.35938-0.85938-0.35938-2.2344 0-1.8594 0.90625-2.9375 0.90625-1.0781 2.75-1.0781 0.34375 0 0.82813 0.0937 0.48437 0.0937 0.9375 0.25 0.46875 0.14062 0.78125 0.29687l-0.40625 0.39063v-4.2812h1.1562v9.9844q0 0.45313-0.3125 0.76563t-0.8125 0.5q-0.5 0.17187-1.0625 0.25-0.54688 0.0937-1.0469 0.0937zm0.0156-1.0469q0.82812 0 1.4375-0.1875 0.625-0.20312 0.625-0.48437v-5.0156q-0.5-0.28125-1.0625-0.42187-0.5625-0.14063-1.0781-0.14063-0.875 0-1.4062 0.39063-0.53125 0.375-0.78125 1.0469-0.25 0.65625-0.25 1.5312 0 0.85938 0.1875 1.6094 0.20313 0.73437 0.73438 1.2031 0.54687 0.46875 1.5938 0.46875zm8.5259 1.0469q-0.53125 0-1.0625-0.10938-0.53125-0.10937-1-0.375-0.45313-0.28125-0.73438-0.75t-0.28125-1.1875q0-1 0.375-1.5938 0.39063-0.60937 1.0469-0.85937 0.67187-0.26563 1.5312-0.26563 0.65625 0 1.125 0.0781 0.48437 0.0781 0.85937 0.23437 0.375 0.14063 0.6875 0.34375l0.21875 1.0469q-0.35937-0.26563-1.0625-0.46875-0.6875-0.20313-1.5312-0.20313-1 0-1.5469 0.39063-0.54688 0.375-0.54688 1.1094 0 0.59375 0.32813 0.95313 0.32812 0.34375 0.82812 0.5 0.51563 0.14062 1.0312 0.14062 1.0469 0 1.5781-0.15625 0.54687-0.15625 0.54687-0.6875v-3.6719q0-0.92188-0.54687-1.3594-0.54688-0.4375-1.5625-0.4375-0.625 0-1.3438 0.1875t-1.2188 0.59375v-1.1562q0.48437-0.32812 1.3125-0.48437 0.84375-0.17188 1.625-0.17188 0.53125 0 0.96875 0.10938 0.45312 0.0937 0.79687 0.29687 0.35938 0.20313 0.60938 0.51563t0.375 0.71875q0.14062 0.40625 0.14062 0.92187v3.8594q0 0.85937-0.5 1.2812-0.5 0.40625-1.3125 0.53125t-1.7344 0.125zm8.6296-0.10938q-0.85937 0-1.4375-0.51562-0.5625-0.51563-0.5625-1.5469v-4.9844h-1.3906v-1.0625h1.3906v-2.25h1.1406v2.25h2.0781v1.0625h-2.0781v4.625q0 0.67187 0.20312 1.0156 0.21875 0.32813 0.85938 0.32813 0.28125 0 0.54687-0.0625 0.28125-0.0625 0.46875-0.14063v1.0938q-0.23437 0.0781-0.57812 0.125-0.34375 0.0625-0.64063 0.0625zm6.0424 0.10938q-0.53125 0-1.0625-0.10938-0.53125-0.10937-1-0.375-0.45312-0.28125-0.73437-0.75t-0.28125-1.1875q0-1 0.375-1.5938 0.39062-0.60937 1.0469-0.85937 0.67188-0.26563 1.5312-0.26563 0.65625 0 1.125 0.0781 0.48438 0.0781 0.85938 0.23437 0.375 0.14063 0.6875 0.34375l0.21875 1.0469q-0.35938-0.26563-1.0625-0.46875-0.6875-0.20313-1.5312-0.20313-1 0-1.5469 0.39063-0.54687 0.375-0.54687 1.1094 0 0.59375 0.32812 0.95313 0.32813 0.34375 0.82813 0.5 0.51562 0.14062 1.0312 0.14062 1.0469 0 1.5781-0.15625 0.54688-0.15625 0.54688-0.6875v-3.6719q0-0.92188-0.54688-1.3594-0.54687-0.4375-1.5625-0.4375-0.625 0-1.3438 0.1875t-1.2188 0.59375v-1.1562q0.48438-0.32812 1.3125-0.48437 0.84375-0.17188 1.625-0.17188 0.53125 0 0.96875 0.10938 0.45313 0.0937 0.79688 0.29687 0.35937 0.20313 0.60937 0.51563t0.375 0.71875q0.14063 0.40625 0.14063 0.92187v3.8594q0 0.85937-0.5 1.2812-0.5 0.40625-1.3125 0.53125t-1.7344 0.125zm4.8328 0.85937v-0.70312h8.7344v0.70312zm12.517-1.0938v-9.4688l-2.1406 1.4062v-1.3594l1.9688-1.25h1.3125v10.672z" fill="#000"/>
  <path d="m62.934 155.2h92.283v43.559h-92.283z" fill="#fff" fill-rule="evenodd"/>
  <path d="m62.934 155.2h92.283v43.559h-92.283z" fill-rule="evenodd" stroke="#c72c48" stroke-linecap="butt" stroke-linejoin="round" stroke-width="2"/>
  <path d="m92.907 182.84v-10.672h6.7344v1.0938h-5.5781v3.6719h4.9062v1.125h-4.9062v3.6875h5.5781v1.0938zm10.327-3.4062v-1.5l5.1719-5.7656h1.4844zm-1.0312 3.4062v-10.672h1.1562v10.672zm2.8125-6.0156 5.2344 6.0156h-1.5938l-4.5-5.2344zm5.6361 7.1094v-0.70313h8.7344v0.70313zm12.517-1.0938v-9.4688l-2.1406 1.4062v-1.3594l1.9688-1.25h1.3125v10.672z" fill="#000"/>
  <path d="m235.83 155.2h169.73v43.559h-169.73z" fill="#fff" fill-rule="evenodd"/>
  <path d="m235.83 155.2h169.73v43.559h-169.73z" fill-rule="evenodd" stroke="#c72c48" stroke-linecap="butt" stroke-linejoin="round" stroke-width="2"/>
  <path d="m263.57 182.84v-10.672h6.7344v1.0938h-5.5781v3.6719h4.9062v1.125h-4.9062v3.6875h5.5781v1.0938zm10.327-3.4062v-1.5l5.1719-5.7656h1.4844zm-1.0312 3.4062v-10.672h1.1562v10.672zm2.8125-6.0156 5.2344 6.0156h-1.5938l-4.5-5.2344zm5.6361 7.1094v-0.70313h8.7344v0.70313zm12.517-1.0938v-9.4688l-2.1406 1.4062v-1.3594l1.9688-1.25h1.3125v10.672zm3.4348 1.0938v-0.70313h8.7344v0.70313zm13.314-0.85938q-1.1406 0-1.9688-0.46875-0.82812-0.46875-1.2812-1.4062-0.45312-0.95312-0.45312-2.3594 0-2.0625 0.9375-3.0938t2.5781-1.0312q1.2656 0 2.0469 0.57812 0.78125 0.57813 1.1094 1.5469 0.34375 0.96875 0.32813 2.2031h-6.4219l0.0781-1.0469h5.5938l-0.45313 0.15625q-0.0469-1.2031-0.60937-1.7969-0.54688-0.59375-1.6719-0.59375-0.79687 0-1.3125 0.29688-0.51562 0.28125-0.78125 1-0.25 0.70312-0.25 1.9844 0 1.4531 0.67188 2.2188 0.6875 0.76563 1.9219 0.76563 0.59375 0 1.0781-0.0781 0.5-0.0937 0.92187-0.25 0.42188-0.17187 0.73438-0.35937v1.1875q-0.57813 0.26562-1.2812 0.40625-0.6875 0.14062-1.5156 0.14062zm5.4551-7.5781q0.375-0.1875 0.78125-0.34375 0.42188-0.15625 0.84375-0.25 0.42188-0.0937 0.85938-0.14063 0.4375-0.0469 0.89062-0.0469 1.1719 0 1.8594 0.34375t1 1 0.3125 1.5781v5.2031h-1.1562v-5.2031q0-0.28125-0.0781-0.59375-0.0625-0.32812-0.28125-0.625-0.20312-0.29687-0.64062-0.48437-0.42188-0.1875-1.1406-0.1875-0.5 0-1.0312 0.0937-0.53125 0.0781-1.0625 0.23437v6.7656h-1.1562zm12.448 7.4688q-0.64063 0-1.3125-0.15625-0.65625-0.17188-1.2188-0.60938-0.54688-0.45312-0.89063-1.2656-0.32812-0.8125-0.32812-2.0938t0.32812-2.0781q0.34375-0.8125 0.89063-1.2656 0.5625-0.45313 1.2188-0.60938 0.67187-0.17187 1.3125-0.17187 0.60937 0 1.2031 0.10937 0.60938 0.10938 1.1562 0.32813v1.1094q-0.51562-0.21875-1.0781-0.32812-0.5625-0.125-1.1562-0.125-1.4219 0-2.0781 0.73437-0.64062 0.71875-0.64062 2.2969 0 1.5938 0.64062 2.3125 0.65625 0.71875 2.0781 0.71875 0.59375 0 1.1562-0.10938 0.5625-0.125 1.0781-0.34375v1.125q-0.54687 0.20313-1.1562 0.3125-0.59375 0.10938-1.2031 0.10938zm4.5283-0.125v-7.3438q0.1875-0.0781 0.73437-0.26563 0.5625-0.20312 1.3281-0.35937 0.78125-0.15625 1.6094-0.15625 0.14063 0 0.26563 0.0312t0.25 0.0625v1.0156q-0.40625-0.0469-0.8125-0.0469-0.39063 0-0.76563 0.0469-0.35937 0.0469-0.73437 0.10938-0.35938 0.0625-0.71875 0.125v6.7812zm6.8914 3.0938q-0.23437 0-0.4375-0.0625-0.1875-0.0469-0.3125-0.0937v-1.0469q0.10938 0.0469 0.28125 0.0937 0.1875 0.0469 0.40625 0.0469 0.54688 0 0.875-0.3125 0.34375-0.29688 0.57813-0.8125 0.23437-0.5 0.42187-1.125v0.45312l-3.3906-8.2188h1.3125l2.6562 6.8125h-0.25l2.6406-6.8125h1.1562l-3.4219 8.7656q-0.375 0.95312-0.8125 1.4375-0.4375 0.5-0.875 0.6875t-0.82813 0.1875zm10.921-2.875q-0.35938 0-0.79688-0.0937t-0.85937-0.23438q-0.40625-0.14062-0.73438-0.3125l0.40625-0.39062v4.2812h-1.1562v-10.016q0-0.5 0.3125-0.79687 0.3125-0.29688 0.79688-0.46875 0.5-0.17188 1.0625-0.23438 0.5625-0.0781 1.0625-0.0781 0.95312 0 1.7969 0.40625 0.85938 0.39062 1.375 1.3438 0.53125 0.95312 0.53125 2.5781 0 1.2344-0.4375 2.1406t-1.2969 1.3906q-0.84375 0.48438-2.0625 0.48438zm0-1.0469q0.875 0 1.4375-0.375 0.57812-0.375 0.85937-1.0469 0.29688-0.67188 0.29688-1.5469 0-0.85937-0.20313-1.6094-0.1875-0.75-0.73437-1.2031-0.54688-0.46875-1.5781-0.46875-0.84375 0-1.4531 0.20313-0.60938 0.1875-0.60938 0.53125v4.9531q0.48438 0.28125 0.98438 0.42188 0.5 0.14062 1 0.14062zm8.479 0.95313q-0.85937 0-1.4375-0.51563-0.5625-0.51562-0.5625-1.5469v-4.9844h-1.3906v-1.0625h1.3906v-2.25h1.1406v2.25h2.0781v1.0625h-2.0781v4.625q0 0.67188 0.20312 1.0156 0.21875 0.32812 0.85938 0.32812 0.28125 0 0.54687-0.0625 0.28125-0.0625 0.46875-0.14062v1.0938q-0.23437 0.0781-0.57812 0.125-0.34375 0.0625-0.64063 0.0625zm6.5893 0.10937q-1.1406 0-1.9688-0.46875-0.82816-0.46875-1.2813-1.4062-0.45313-0.95312-0.45313-2.3594 0-2.0625 0.9375-3.0938 0.93753-1.0312 2.5782-1.0312 1.2656 0 2.0469 0.57812 0.78125 0.57813 1.1094 1.5469 0.34375 0.96875 0.32812 2.2031h-6.4219l0.0781-1.0469h5.5938l-0.45312 0.15625q-0.0469-1.2031-0.60938-1.7969-0.54687-0.59375-1.6719-0.59375-0.79688 0-1.3125 0.29688-0.51563 0.28125-0.78128 1-0.25 0.70312-0.25 1.9844 0 1.4531 0.6719 2.2188 0.6875 0.76563 1.9219 0.76563 0.59375 0 1.0781-0.0781 0.5-0.0937 0.92188-0.25 0.42187-0.17187 0.73437-0.35937v1.1875q-0.57812 0.26562-1.2812 0.40625-0.6875 0.14062-1.5156 0.14062zm8.7676 0q-0.57813 0-1.2188-0.17187-0.64063-0.15625-1.2188-0.60938-0.5625-0.46875-0.92188-1.3125-0.35937-0.85937-0.35937-2.2344 0-1.8594 0.90625-2.9375 0.90625-1.0781 2.75-1.0781 0.34375 0 0.82812 0.0937 0.48438 0.0937 0.9375 0.25 0.46875 0.14063 0.78125 0.29688l-0.40625 0.39062v-4.2812h1.1562v9.9844q0 0.45312-0.3125 0.76562t-0.8125 0.5q-0.5 0.17188-1.0625 0.25-0.54687 0.0937-1.0469 0.0937zm0.0156-1.0469q0.82813 0 1.4375-0.1875 0.625-0.20313 0.625-0.48438v-5.0156q-0.5-0.28125-1.0625-0.42188-0.5625-0.14062-1.0781-0.14062-0.875 0-1.4062 0.39062-0.53125 0.375-0.78125 1.0469-0.25 0.65625-0.25 1.5312 0 0.85937 0.1875 1.6094 0.20312 0.73438 0.73437 1.2031 0.54688 0.46875 1.5938 0.46875z" fill="#000"/>
  <path d="m29.769 372.44h158.61v43.559h-158.61z" fill="#fff" fill-rule="evenodd"/>
  <path d="m29.769 372.44h158.61v43.559h-158.61z" fill-rule="evenodd" stroke="#c72c48" stroke-linecap="butt" stroke-linejoin="round" stroke-width="2"/>
  <path d="m50.594 400.24q-1.5938 0-2.6562-0.60938-1.0625-0.625-1.6094-1.8281-0.53125-1.2188-0.53125-3.0469 0-2.7188 1.2031-4.0938 1.2188-1.3906 3.5938-1.3906 1.5938 0 2.6562 0.625 1.0625 0.60937 1.5938 1.8281 0.54688 1.2031 0.54688 3.0312 0 2.7188-1.2188 4.1094-1.2031 1.375-3.5781 1.375zm0-1.0781q1.2656 0 2.0625-0.46875t1.1719-1.4375q0.375-0.98437 0.375-2.5 0-1.5156-0.375-2.4844t-1.1719-1.4375q-0.79688-0.48438-2.0625-0.48438-1.25 0-2.0625 0.48438-0.79688 0.46875-1.1719 1.4375t-0.375 2.4844q0 1.5156 0.375 2.5 0.375 0.96875 1.1719 1.4375 0.8125 0.46875 2.0625 0.46875zm7.1134 0.92188v-10.672h6.7344v1.0938h-5.5781v3.6719h4.9062v1.125h-4.9062v3.6875h5.5781v1.0938zm10.327-3.4062v-1.5l5.1719-5.7656h1.4844zm-1.0312 3.4062v-10.672h1.1562v10.672zm2.8125-6.0156 5.2344 6.0156h-1.5938l-4.5-5.2344zm5.6361 7.1094v-0.70313h8.7344v0.70313zm12.517-1.0938v-9.4688l-2.1406 1.4062v-1.3594l1.9688-1.25h1.3125v10.672zm3.4348 1.0938v-0.70313h8.7344v0.70313zm13.314-0.85938q-1.1406 0-1.9688-0.46875-0.82812-0.46875-1.2812-1.4062-0.45312-0.95312-0.45312-2.3594 0-2.0625 0.9375-3.0938t2.5781-1.0312q1.2656 0 2.0469 0.57812 0.78125 0.57813 1.1094 1.5469 0.34375 0.96875 0.32813 2.2031h-6.4219l0.0781-1.0469h5.5938l-0.45313 0.15625q-0.0469-1.2031-0.60937-1.7969-0.54688-0.59375-1.6719-0.59375-0.79687 0-1.3125 0.29688-0.51562 0.28125-0.78125 1-0.25 0.70312-0.25 1.9844 0 1.4531 0.67188 2.2188 0.6875 0.76563 1.9219 0.76563 0.59375 0 1.0781-0.0781 0.5-0.0937 0.92187-0.25 0.42188-0.17187 0.73438-0.35937v1.1875q-0.57813 0.26562-1.2812 0.40625-0.6875 0.14062-1.5156 0.14062zm5.4551-7.5781q0.375-0.1875 0.78125-0.34375 0.42188-0.15625 0.84375-0.25 0.42188-0.0937 0.85938-0.14063 0.4375-0.0469 0.89062-0.0469 1.1719 0 1.8594 0.34375t1 1 0.3125 1.5781v5.2031h-1.1562v-5.2031q0-0.28125-0.0781-0.59375-0.0625-0.32812-0.28125-0.625-0.20312-0.29687-0.64062-0.48437-0.42188-0.1875-1.1406-0.1875-0.5 0-1.0312 0.0937-0.53125 0.0781-1.0625 0.23437v6.7656h-1.1562zm12.448 7.4688q-0.64062 0-1.3125-0.15625-0.65625-0.17188-1.2188-0.60938-0.54687-0.45312-0.89062-1.2656-0.32813-0.8125-0.32813-2.0938t0.32813-2.0781q0.34375-0.8125 0.89062-1.2656 0.5625-0.45313 1.2188-0.60938 0.67188-0.17187 1.3125-0.17187 0.60938 0 1.2031 0.10937 0.60937 0.10938 1.1562 0.32813v1.1094q-0.51563-0.21875-1.0781-0.32812-0.5625-0.125-1.1562-0.125-1.4219 0-2.0781 0.73437-0.64063 0.71875-0.64063 2.2969 0 1.5938 0.64063 2.3125 0.65625 0.71875 2.0781 0.71875 0.59375 0 1.1562-0.10938 0.5625-0.125 1.0781-0.34375v1.125q-0.54688 0.20313-1.1562 0.3125-0.59375 0.10938-1.2031 0.10938zm4.5283-0.125v-7.3438q0.1875-0.0781 0.73437-0.26563 0.5625-0.20312 1.3281-0.35937 0.78125-0.15625 1.6094-0.15625 0.14063 0 0.26563 0.0312t0.25 0.0625v1.0156q-0.40625-0.0469-0.8125-0.0469-0.39063 0-0.76563 0.0469-0.35937 0.0469-0.73437 0.10938-0.35938 0.0625-0.71875 0.125v6.7812zm6.8914 3.0938q-0.23438 0-0.4375-0.0625-0.1875-0.0469-0.3125-0.0937v-1.0469q0.10937 0.0469 0.28125 0.0937 0.1875 0.0469 0.40625 0.0469 0.54687 0 0.875-0.3125 0.34375-0.29688 0.57812-0.8125 0.23438-0.5 0.42188-1.125v0.45312l-3.3906-8.2188h1.3125l2.6562 6.8125h-0.25l2.6406-6.8125h1.1562l-3.4219 8.7656q-0.375 0.95312-0.8125 1.4375-0.4375 0.5-0.875 0.6875t-0.82812 0.1875zm10.921-2.875q-0.35937 0-0.79687-0.0937t-0.85938-0.23438q-0.40625-0.14062-0.73437-0.3125l0.40625-0.39062v4.2812h-1.1562v-10.016q0-0.5 0.3125-0.79687 0.3125-0.29688 0.79687-0.46875 0.5-0.17188 1.0625-0.23438 0.5625-0.0781 1.0625-0.0781 0.95313 0 1.7969 0.40625 0.85937 0.39062 1.375 1.3438 0.53125 0.95312 0.53125 2.5781 0 1.2344-0.4375 2.1406t-1.2969 1.3906q-0.84375 0.48438-2.0625 0.48438zm0-1.0469q0.875 0 1.4375-0.375 0.57813-0.375 0.85938-1.0469 0.29687-0.67188 0.29687-1.5469 0-0.85937-0.20312-1.6094-0.1875-0.75-0.73438-1.2031-0.54687-0.46875-1.5781-0.46875-0.84375 0-1.4531 0.20313-0.60937 0.1875-0.60937 0.53125v4.9531q0.48437 0.28125 0.98437 0.42188 0.5 0.14062 1 0.14062zm8.479 0.95313q-0.85937 0-1.4375-0.51563-0.5625-0.51562-0.5625-1.5469v-4.9844h-1.3906v-1.0625h1.3906v-2.25h1.1406v2.25h2.0781v1.0625h-2.0781v4.625q0 0.67188 0.20312 1.0156 0.21875 0.32812 0.85938 0.32812 0.28125 0 0.54687-0.0625 0.28125-0.0625 0.46875-0.14062v1.0938q-0.23437 0.0781-0.57812 0.125-0.34375 0.0625-0.64063 0.0625zm6.5893 0.10937q-1.1406 0-1.9688-0.46875-0.82813-0.46875-1.2812-1.4062-0.45313-0.95312-0.45313-2.3594 0-2.0625 0.9375-3.0938t2.5781-1.0312q1.2656 0 2.0469 0.57812 0.78125 0.57813 1.1094 1.5469 0.34375 0.96875 0.32812 2.2031h-6.4219l0.0781-1.0469h5.5938l-0.45312 0.15625q-0.0469-1.2031-0.60938-1.7969-0.54687-0.59375-1.6719-0.59375-0.79688 0-1.3125 0.29688-0.51563 0.28125-0.78125 1-0.25 0.70312-0.25 1.9844 0 1.4531 0.67187 2.2188 0.6875 0.76563 1.9219 0.76563 0.59375 0 1.0781-0.0781 0.5-0.0937 0.92188-0.25 0.42187-0.17187 0.73437-0.35937v1.1875q-0.57812 0.26562-1.2812 0.40625-0.6875 0.14062-1.5156 0.14062zm8.7676 0q-0.57812 0-1.2188-0.17187-0.64062-0.15625-1.2188-0.60938-0.5625-0.46875-0.92187-1.3125-0.35938-0.85937-0.35938-2.2344 0-1.8594 0.90625-2.9375 0.90625-1.0781 2.75-1.0781 0.34375 0 0.82813 0.0937 0.48437 0.0937 0.9375 0.25 0.46875 0.14063 0.78125 0.29688l-0.40625 0.39062v-4.2812h1.1562v9.9844q0 0.45312-0.3125 0.76562t-0.8125 0.5q-0.5 0.17188-1.0625 0.25-0.54688 0.0937-1.0469 0.0937zm0.0156-1.0469q0.82812 0 1.4375-0.1875 0.625-0.20313 0.625-0.48438v-5.0156q-0.5-0.28125-1.0625-0.42188-0.5625-0.14062-1.0781-0.14062-0.875 0-1.4062 0.39062-0.53125 0.375-0.78125 1.0469-0.25 0.65625-0.25 1.5312 0 0.85937 0.1875 1.6094 0.20313 0.73438 0.73438 1.2031 0.54687 0.46875 1.5938 0.46875z" fill="#000"/>
  <g fill-rule="evenodd">
   <path d="m109.08 198.76v14.428h0.063v14.423" fill="#000" fill-opacity="0"/>
   <path d="m109.08 198.76v14.428h0.063v7.5684" stroke="#595959" stroke-linecap="butt" stroke-linejoin="round" stroke-width="2"/>
   <path d="m109.14 220.75-2.2492-2.2492 2.2492 6.1795 2.2492-6.1795z" fill="#595959" stroke="#595959" stroke-linecap="butt" stroke-width="2"/>
   <path d="m109.08 271.17v14.428h0.063v14.423" fill="#000" fill-opacity="0"/>
   <path d="m109.08 271.17v14.428h0.063v7.5684" stroke="#595959" stroke-linecap="butt" stroke-linejoin="round" stroke-width="2"/>
   <path d="m109.14 293.17-2.2492-2.2492 2.2492 6.1795 2.2492-6.1795z" fill="#595959" stroke="#595959" stroke-linecap="butt" stroke-width="2"/>
   <path d="m109.08 343.59v14.428h0.063v14.423" fill="#000" fill-opacity="0"/>
   <path d="m109.08 343.59v14.428h0.063v7.5684" stroke="#595959" stroke-linecap="butt" stroke-linejoin="round" stroke-width="2"/>
   <path d="m109.14 365.58-2.2492-2.2492 2.2492 6.1795 2.2492-6.1795z" fill="#595959" stroke="#595959" stroke-linecap="butt" stroke-width="2"/>
   <path d="m188.38 394.22h23.722v0.063h23.711" fill="#000" fill-opacity="0"/>
   <path d="m188.38 394.22h23.722v0.063h16.857" stroke="#595959" stroke-linecap="butt" stroke-linejoin="round" stroke-width="2"/>
   <path d="m228.96 394.28-2.2492 2.2492 6.1795-2.2492-6.1795-2.2492z" fill="#595959" stroke="#595959" stroke-linecap="butt" stroke-width="2"/>
   <path d="m320.69 198.76v86.842h0.063v86.859" fill="#000" fill-opacity="0"/>
   <path d="m320.69 198.76v86.842h0.063v80.005" stroke="#595959" stroke-linecap="butt" stroke-linejoin="round" stroke-width="2"/>
   <path d="m320.76 365.6-2.2492-2.2492 2.2492 6.1795 2.2492-6.1795z" fill="#595959" stroke="#595959" stroke-linecap="butt" stroke-width="2"/>
   <path d="m587.64 227.62h92.283v43.559h-92.283z" fill="#fff"/>
   <path d="m587.64 227.62h92.283v43.559h-92.283z" stroke="#c72c48" stroke-linecap="butt" stroke-linejoin="round" stroke-width="2"/>
  </g>
  <path d="m612.7 251.85v-1.5l5.1719-5.7656h1.4844zm-1.0312 3.4062v-10.672h1.1562v10.672zm2.8125-6.0156 5.2344 6.0156h-1.5938l-4.5-5.2344zm6.9955 6.0156v-10.672h6.7344v1.0938h-5.5781v3.6719h4.9062v1.125h-4.9062v3.6875h5.5781v1.0938zm10.327-3.4062v-1.5l5.1719-5.7656h1.4844zm-1.0312 3.4062v-10.672h1.1562v10.672zm2.8125-6.0156 5.2344 6.0156h-1.5938l-4.5-5.2344zm5.6362 7.1094v-0.70313h8.7344v0.70313zm9.9704-1.0938v-1.0156q0.54688-0.39062 1.25-0.98437 0.71875-0.59375 1.4375-1.2969 0.73438-0.71875 1.3438-1.4844 0.625-0.78125 1-1.5469 0.39063-0.78125 0.39063-1.4844 0-0.42188-0.20313-0.84375-0.1875-0.4375-0.73437-0.71875-0.53125-0.28125-1.5781-0.28125-0.95312 0-1.6719 0.3125-0.70313 0.3125-1.125 0.60937v-1.2656q0.51562-0.3125 1.2344-0.5625 0.73438-0.25 1.6562-0.25 1.3125 0 2.0938 0.45312 0.79688 0.4375 1.1406 1.125t0.34375 1.4219q0 0.71875-0.35938 1.5156-0.35937 0.78125-0.95312 1.5625-0.57813 0.78125-1.2812 1.5156-0.70313 0.73437-1.4062 1.375-0.70313 0.625-1.2812 1.0938l-0.34375-0.40625h5.7812v1.1562z" fill="#000"/>
  <path d="m587.64 300.03h92.283v43.559h-92.283z" fill="#fff" fill-rule="evenodd"/>
  <path d="m587.64 300.03h92.283v43.559h-92.283z" fill-rule="evenodd" stroke="#c72c48" stroke-linecap="butt" stroke-linejoin="round" stroke-width="2"/>
  <path d="m615.21 327.83q-1.5938 0-2.6562-0.60938-1.0625-0.625-1.6094-1.8281-0.53125-1.2188-0.53125-3.0469 0-2.7188 1.2031-4.0938 1.2188-1.3906 3.5938-1.3906 1.5938 0 2.6562 0.625 1.0625 0.60937 1.5938 1.8281 0.54688 1.2031 0.54688 3.0312 0 2.7188-1.2188 4.1094-1.2031 1.375-3.5781 1.375zm0-1.0781q1.2656 0 2.0625-0.46875 0.79688-0.46875 1.1719-1.4375 0.375-0.98437 0.375-2.5 0-1.5156-0.375-2.4844t-1.1719-1.4375q-0.79687-0.48438-2.0625-0.48438-1.25 0-2.0625 0.48438-0.79687 0.46875-1.1719 1.4375t-0.375 2.4844q0 1.5156 0.375 2.5 0.375 0.96875 1.1719 1.4375 0.8125 0.46875 2.0625 0.46875zm7.1134 0.92188v-10.672h6.7344v1.0938h-5.5781v3.6719h4.9062v1.125h-4.9062v3.6875h5.5781v1.0938zm10.327-3.4062v-1.5l5.1719-5.7656h1.4844zm-1.0312 3.4062v-10.672h1.1562v10.672zm2.8125-6.0156 5.2344 6.0156h-1.5938l-4.5-5.2344zm5.6362 7.1094v-0.70313h8.7344v0.70313zm9.9704-1.0938v-1.0156q0.54688-0.39062 1.25-0.98437 0.71875-0.59375 1.4375-1.2969 0.73438-0.71875 1.3438-1.4844 0.625-0.78125 1-1.5469 0.39063-0.78125 0.39063-1.4844 0-0.42188-0.20313-0.84375-0.1875-0.4375-0.73437-0.71875-0.53125-0.28125-1.5781-0.28125-0.95312 0-1.6719 0.3125-0.70313 0.3125-1.125 0.60937v-1.2656q0.51562-0.3125 1.2344-0.5625 0.73438-0.25 1.6562-0.25 1.3125 0 2.0938 0.45312 0.79688 0.4375 1.1406 1.125t0.34375 1.4219q0 0.71875-0.35938 1.5156-0.35937 0.78125-0.95312 1.5625-0.57813 0.78125-1.2812 1.5156-0.70313 0.73437-1.4062 1.375-0.70313 0.625-1.2812 1.0938l-0.34375-0.40625h5.7812v1.1562z" fill="#000"/>
  <path d="m760.53 372.44h169.73v43.559h-169.73z" fill="#fff" fill-rule="evenodd"/>
  <path d="m760.53 372.44h169.73v43.559h-169.73z" fill-rule="evenodd" stroke="#c72c48" stroke-linecap="butt" stroke-linejoin="round" stroke-width="2"/>
  <path d="m779.01 400.32q-1.875 0-2.7812-1.1094-0.90625-1.1094-0.90625-3.0938 0-2.0781 0.95313-3.1094 0.95312-1.0469 2.7031-1.0469 1.2969 0 2.1094 0.51563 0.8125 0.51562 1.1875 1.4531 0.39062 0.9375 0.39062 2.1875 0 1.9688-0.95312 3.0938-0.95313 1.1094-2.7031 1.1094zm-0.0156-1.0469q0.96875 0 1.5156-0.42187 0.54688-0.42188 0.78125-1.1406 0.23438-0.71875 0.23438-1.5938 0-0.9375-0.25-1.625-0.23438-0.70312-0.79688-1.0938-0.54687-0.39062-1.4844-0.39062-0.96875 0-1.5156 0.42187-0.53125 0.42188-0.76562 1.125-0.23438 0.6875-0.23438 1.5625 0 1.4062 0.5625 2.2812t1.9531 0.875zm8.9946 1.0469q-0.625 0-1.2031-0.0781-0.5625-0.0625-1-0.23437-0.4375-0.1875-0.70313-0.48438-0.25-0.3125-0.25-0.79687v-10h1.1562v4.2812l-0.40625-0.39063q0.32813-0.15625 0.78125-0.29687 0.45313-0.15625 0.92188-0.25 0.48437-0.0937 0.84375-0.0937 1.8594 0 2.75 1.0781 0.89062 1.0781 0.89062 2.9375 0 1.375-0.375 2.2344-0.35937 0.84375-0.92187 1.3125-0.5625 0.45312-1.2188 0.60937-0.65625 0.17188-1.2656 0.17188zm-0.125-1.0469q1.1406 0 1.7188-0.46875 0.57813-0.46875 0.78125-1.2031 0.20313-0.75 0.20313-1.6094 0-0.875-0.25-1.5312-0.25-0.67187-0.78125-1.0469-0.53125-0.39063-1.4062-0.39063-0.5 0-1.0781 0.14063-0.57812 0.14062-1.0625 0.42187v4.875q0 0.34375 0.3125 0.53125 0.3125 0.17188 0.75 0.23438 0.4375 0.0469 0.8125 0.0469zm4.9478 3.9062v-1.0781q0.70312-0.0156 1.0469-0.20313 0.34375-0.1875 0.46875-0.54687 0.125-0.35938 0.125-0.85938v-8.3906h1.1406v8.4531q0 0.875-0.29688 1.4531-0.29687 0.59375-0.92187 0.875-0.60938 0.29687-1.5625 0.29687zm1.5781-12.5v-1.2656h1.2812v1.2656zm7.1318 9.6406q-1.1406 0-1.9688-0.46875-0.82813-0.46875-1.2812-1.4062-0.45313-0.95313-0.45313-2.3594 0-2.0625 0.9375-3.0938t2.5781-1.0312q1.2656 0 2.0469 0.57813 0.78125 0.57812 1.1094 1.5469 0.34375 0.96875 0.32812 2.2031h-6.4219l0.0781-1.0469h5.5938l-0.45312 0.15625q-0.0469-1.2031-0.60938-1.7969-0.54687-0.59375-1.6719-0.59375-0.79688 0-1.3125 0.29687-0.51563 0.28125-0.78125 1-0.25 0.70313-0.25 1.9844 0 1.4531 0.67187 2.2188 0.6875 0.76562 1.9219 0.76562 0.59375 0 1.0781-0.0781 0.5-0.0937 0.92188-0.25 0.42187-0.17188 0.73437-0.35938v1.1875q-0.57812 0.26563-1.2812 0.40625-0.6875 0.14063-1.5156 0.14063zm8.7989-0.10938q-0.64063 0-1.3125-0.15625-0.65625-0.17187-1.2188-0.60937-0.54688-0.45313-0.89063-1.2656-0.32812-0.8125-0.32812-2.0938t0.32812-2.0781q0.34375-0.8125 0.89063-1.2656 0.5625-0.45312 1.2188-0.60937 0.67187-0.17188 1.3125-0.17188 0.60937 0 1.2031 0.10938 0.60938 0.10937 1.1562 0.32812v1.1094q-0.51562-0.21875-1.0781-0.32813-0.5625-0.125-1.1562-0.125-1.4219 0-2.0781 0.73438-0.64062 0.71875-0.64062 2.2969 0 1.5938 0.64062 2.3125 0.65625 0.71875 2.0781 0.71875 0.59375 0 1.1562-0.10937 0.5625-0.125 1.0781-0.34375v1.125q-0.54687 0.20312-1.1562 0.3125-0.59375 0.10937-1.2031 0.10937zm7.0439 0q-0.85937 0-1.4375-0.51562-0.5625-0.51563-0.5625-1.5469v-4.9844h-1.3906v-1.0625h1.3906v-2.25h1.1406v2.25h2.0781v1.0625h-2.0781v4.625q0 0.67187 0.20312 1.0156 0.21875 0.32813 0.85938 0.32813 0.28125 0 0.54687-0.0625 0.28125-0.0625 0.46875-0.14063v1.0938q-0.23437 0.0781-0.57812 0.125-0.34375 0.0625-0.64063 0.0625zm2.0111 0.96875v-0.70312h8.7344v0.70312zm16.564-6.2969v5.2031h-1.1562v-5.2031q0-0.28125-0.0781-0.59375-0.0625-0.32813-0.28125-0.625-0.20312-0.29688-0.64062-0.48438-0.42188-0.1875-1.1406-0.1875-0.5 0-1.0312 0.0937-0.53125 0.0781-1.0625 0.23438v6.7656h-1.1562v-7.3438q0.375-0.1875 0.78125-0.34375 0.42188-0.15625 0.84375-0.25 0.42188-0.0937 0.85938-0.14062 0.4375-0.0469 0.89062-0.0469 1.1719 0 1.8594 0.34375t1 1 0.3125 1.5781zm-1.5312-1.8281q0.53125-0.39062 1.0781-0.625 0.54688-0.25 1.125-0.35937 0.59375-0.10938 1.1875-0.10938 1.1562 0 1.8438 0.34375t1 1 0.3125 1.5781v5.2031h-1.1406v-5.2031q0-0.28125-0.0781-0.59375-0.0781-0.32813-0.28125-0.625-0.20312-0.29688-0.64062-0.48438t-1.1562-0.1875q-0.48438 0-1.0156 0.15625-0.53125 0.14063-1.0781 0.48438zm12.409 7.2656q-1.1406 0-1.9688-0.46875-0.82813-0.46875-1.2812-1.4062-0.45313-0.95313-0.45313-2.3594 0-2.0625 0.9375-3.0938t2.5781-1.0312q1.2656 0 2.0469 0.57813 0.78125 0.57812 1.1094 1.5469 0.34375 0.96875 0.32812 2.2031h-6.4219l0.0781-1.0469h5.5938l-0.45312 0.15625q-0.0469-1.2031-0.60938-1.7969-0.54687-0.59375-1.6719-0.59375-0.79688 0-1.3125 0.29687-0.51563 0.28125-0.78125 1-0.25 0.70313-0.25 1.9844 0 1.4531 0.67187 2.2188 0.6875 0.76562 1.9219 0.76562 0.59375 0 1.0781-0.0781 0.5-0.0937 0.92188-0.25 0.42187-0.17188 0.73437-0.35938v1.1875q-0.57812 0.26563-1.2812 0.40625-0.6875 0.14063-1.5156 0.14063zm7.9708-0.10938q-0.85937 0-1.4375-0.51562-0.5625-0.51563-0.5625-1.5469v-4.9844h-1.3906v-1.0625h1.3906v-2.25h1.1406v2.25h2.0781v1.0625h-2.0781v4.625q0 0.67187 0.20312 1.0156 0.21875 0.32813 0.85938 0.32813 0.28125 0 0.54687-0.0625 0.28125-0.0625 0.46875-0.14063v1.0938q-0.23437 0.0781-0.57812 0.125-0.34375 0.0625-0.64063 0.0625zm6.0424 0.10938q-0.53125 0-1.0625-0.10938-0.53125-0.10937-1-0.375-0.45312-0.28125-0.73437-0.75t-0.28125-1.1875q0-1 0.375-1.5938 0.39062-0.60937 1.0469-0.85937 0.67188-0.26563 1.5312-0.26563 0.65625 0 1.125 0.0781 0.48438 0.0781 0.85938 0.23437 0.375 0.14063 0.6875 0.34375l0.21875 1.0469q-0.35938-0.26563-1.0625-0.46875-0.6875-0.20313-1.5312-0.20313-1 0-1.5469 0.39063-0.54687 0.375-0.54687 1.1094 0 0.59375 0.32812 0.95313 0.32813 0.34375 0.82813 0.5 0.51562 0.14062 1.0312 0.14062 1.0469 0 1.5781-0.15625 0.54688-0.15625 0.54688-0.6875v-3.6719q0-0.92188-0.54688-1.3594-0.54687-0.4375-1.5625-0.4375-0.625 0-1.3438 0.1875t-1.2188 0.59375v-1.1562q0.48438-0.32812 1.3125-0.48437 0.84375-0.17188 1.625-0.17188 0.53125 0 0.96875 0.10938 0.45313 0.0937 0.79688 0.29687 0.35937 0.20313 0.60937 0.51563t0.375 0.71875q0.14063 0.40625 0.14063 0.92187v3.8594q0 0.85937-0.5 1.2812-0.5 0.40625-1.3125 0.53125t-1.7344 0.125zm9.4265 0q-0.57813 0-1.2188-0.17188-0.64063-0.15625-1.2188-0.60937-0.5625-0.46875-0.92188-1.3125-0.35937-0.85938-0.35937-2.2344 0-1.8594 0.90625-2.9375 0.90625-1.0781 2.75-1.0781 0.34375 0 0.82812 0.0937 0.48438 0.0937 0.9375 0.25 0.46875 0.14062 0.78125 0.29687l-0.40625 0.39063v-4.2812h1.1562v9.9844q0 0.45313-0.3125 0.76563t-0.8125 0.5q-0.5 0.17187-1.0625 0.25-0.54687 0.0937-1.0469 0.0937zm0.0156-1.0469q0.82813 0 1.4375-0.1875 0.625-0.20312 0.625-0.48437v-5.0156q-0.5-0.28125-1.0625-0.42187-0.5625-0.14063-1.0781-0.14063-0.875 0-1.4062 0.39063-0.53125 0.375-0.78125 1.0469-0.25 0.65625-0.25 1.5312 0 0.85938 0.1875 1.6094 0.20312 0.73437 0.73437 1.2031 0.54688 0.46875 1.5938 0.46875zm8.5259 1.0469q-0.53125 0-1.0625-0.10938-0.53125-0.10937-1-0.375-0.45312-0.28125-0.73437-0.75t-0.28125-1.1875q0-1 0.375-1.5938 0.39062-0.60937 1.0469-0.85937 0.67188-0.26563 1.5312-0.26563 0.65625 0 1.125 0.0781 0.48438 0.0781 0.85938 0.23437 0.375 0.14063 0.6875 0.34375l0.21875 1.0469q-0.35938-0.26563-1.0625-0.46875-0.6875-0.20313-1.5312-0.20313-1 0-1.5469 0.39063-0.54687 0.375-0.54687 1.1094 0 0.59375 0.32812 0.95313 0.32813 0.34375 0.82813 0.5 0.51562 0.14062 1.0312 0.14062 1.0469 0 1.5781-0.15625 0.54688-0.15625 0.54688-0.6875v-3.6719q0-0.92188-0.54688-1.3594-0.54687-0.4375-1.5625-0.4375-0.625 0-1.3438 0.1875t-1.2188 0.59375v-1.1562q0.48438-0.32812 1.3125-0.48437 0.84375-0.17188 1.625-0.17188 0.53125 0 0.96875 0.10938 0.45313 0.0937 0.79688 0.29687 0.35937 0.20313 0.60937 0.51563t0.375 0.71875q0.14063 0.40625 0.14063 0.92187v3.8594q0 0.85937-0.5 1.2812-0.5 0.40625-1.3125 0.53125t-1.7344 0.125zm8.6296-0.10938q-0.85937 0-1.4375-0.51562-0.5625-0.51563-0.5625-1.5469v-4.9844h-1.3906v-1.0625h1.3906v-2.25h1.1406v2.25h2.0781v1.0625h-2.0781v4.625q0 0.67187 0.20312 1.0156 0.21875 0.32813 0.85938 0.32813 0.28125 0 0.54687-0.0625 0.28125-0.0625 0.46875-0.14063v1.0938q-0.23437 0.0781-0.57812 0.125-0.34375 0.0625-0.64063 0.0625zm6.0424 0.10938q-0.53125 0-1.0625-0.10938-0.53125-0.10937-1-0.375-0.45313-0.28125-0.73438-0.75t-0.28125-1.1875q0-1 0.375-1.5938 0.39063-0.60937 1.0469-0.85937 0.67187-0.26563 1.5312-0.26563 0.65625 0 1.125 0.0781 0.48437 0.0781 0.85937 0.23437 0.375 0.14063 0.6875 0.34375l0.21875 1.0469q-0.35937-0.26563-1.0625-0.46875-0.6875-0.20313-1.5312-0.20313-1 0-1.5469 0.39063-0.54688 0.375-0.54688 1.1094 0 0.59375 0.32813 0.95313 0.32812 0.34375 0.82812 0.5 0.51563 0.14062 1.0312 0.14062 1.0469 0 1.5781-0.15625 0.54687-0.15625 0.54687-0.6875v-3.6719q0-0.92188-0.54687-1.3594-0.54688-0.4375-1.5625-0.4375-0.625 0-1.3438 0.1875t-1.2188 0.59375v-1.1562q0.48437-0.32812 1.3125-0.48437 0.84375-0.17188 1.625-0.17188 0.53125 0 0.96875 0.10938 0.45312 0.0937 0.79687 0.29687 0.35938 0.20313 0.60938 0.51563t0.375 0.71875q0.14062 0.40625 0.14062 0.92187v3.8594q0 0.85937-0.5 1.2812-0.5 0.40625-1.3125 0.53125t-1.7344 0.125zm4.8328 0.85937v-0.70312h8.7344v0.70312zm9.9704-1.0938v-1.0156q0.54688-0.39063 1.25-0.98438 0.71875-0.59375 1.4375-1.2969 0.73438-0.71875 1.3438-1.4844 0.625-0.78125 1-1.5469 0.39063-0.78125 0.39063-1.4844 0-0.42187-0.20313-0.84375-0.1875-0.4375-0.73437-0.71875-0.53125-0.28125-1.5781-0.28125-0.95312 0-1.6719 0.3125-0.70313 0.3125-1.125 0.60938v-1.2656q0.51562-0.3125 1.2344-0.5625 0.73438-0.25 1.6562-0.25 1.3125 0 2.0938 0.45313 0.79688 0.4375 1.1406 1.125t0.34375 1.4219q0 0.71875-0.35938 1.5156-0.35937 0.78125-0.95312 1.5625-0.57813 0.78125-1.2812 1.5156-0.70313 0.73438-1.4062 1.375-0.70313 0.625-1.2812 1.0938l-0.34375-0.40625h5.7812v1.1562z" fill="#000"/>
  <path d="m587.64 155.2h92.283v43.559h-92.283z" fill="#fff" fill-rule="evenodd"/>
  <path d="m587.64 155.2h92.283v43.559h-92.283z" fill-rule="evenodd" stroke="#c72c48" stroke-linecap="butt" stroke-linejoin="round" stroke-width="2"/>
  <path d="m616.57 182.84v-10.672h6.7344v1.0938h-5.5781v3.6719h4.9062v1.125h-4.9062v3.6875h5.5781v1.0938zm10.327-3.4062v-1.5l5.1719-5.7656h1.4844zm-1.0312 3.4062v-10.672h1.1562v10.672zm2.8125-6.0156 5.2344 6.0156h-1.5938l-4.5-5.2344zm5.6362 7.1094v-0.70313h8.7344v0.70313zm9.9704-1.0938v-1.0156q0.54687-0.39062 1.25-0.98437 0.71875-0.59375 1.4375-1.2969 0.73437-0.71875 1.3438-1.4844 0.625-0.78125 1-1.5469 0.39062-0.78125 0.39062-1.4844 0-0.42188-0.20312-0.84375-0.1875-0.4375-0.73438-0.71875-0.53125-0.28125-1.5781-0.28125-0.95313 0-1.6719 0.3125-0.70312 0.3125-1.125 0.60937v-1.2656q0.51563-0.3125 1.2344-0.5625 0.73437-0.25 1.6562-0.25 1.3125 0 2.0938 0.45312 0.79687 0.4375 1.1406 1.125t0.34375 1.4219q0 0.71875-0.35937 1.5156-0.35938 0.78125-0.95313 1.5625-0.57812 0.78125-1.2812 1.5156-0.70312 0.73437-1.4062 1.375-0.70312 0.625-1.2812 1.0938l-0.34375-0.40625h5.7812v1.1562z" fill="#000"/>
  <path d="m760.56 155.2h169.73v43.559h-169.73z" fill="#fff" fill-rule="evenodd"/>
  <path d="m760.56 155.2h169.73v43.559h-169.73z" fill-rule="evenodd" stroke="#c72c48" stroke-linecap="butt" stroke-linejoin="round" stroke-width="2"/>
  <path d="m787.26 182.84v-10.672h6.7344v1.0938h-5.5781v3.6719h4.9062v1.125h-4.9062v3.6875h5.5781v1.0938zm10.327-3.4062v-1.5l5.1719-5.7656h1.4844zm-1.0312 3.4062v-10.672h1.1562v10.672zm2.8125-6.0156 5.2344 6.0156h-1.5938l-4.5-5.2344zm5.6361 7.1094v-0.70313h8.7344v0.70313zm9.9704-1.0938v-1.0156q0.54687-0.39062 1.25-0.98437 0.71875-0.59375 1.4375-1.2969 0.73437-0.71875 1.3438-1.4844 0.625-0.78125 1-1.5469 0.39062-0.78125 0.39062-1.4844 0-0.42188-0.20312-0.84375-0.1875-0.4375-0.73438-0.71875-0.53125-0.28125-1.5781-0.28125-0.95313 0-1.6719 0.3125-0.70312 0.3125-1.125 0.60937v-1.2656q0.51563-0.3125 1.2344-0.5625 0.73437-0.25 1.6562-0.25 1.3125 0 2.0938 0.45312 0.79687 0.4375 1.1406 1.125t0.34375 1.4219q0 0.71875-0.35937 1.5156-0.35938 0.78125-0.95313 1.5625-0.57812 0.78125-1.2812 1.5156-0.70312 0.73437-1.4062 1.375-0.70312 0.625-1.2812 1.0938l-0.34375-0.40625h5.7812v1.1562zm8.0616 1.0938v-0.70313h8.7344v0.70313zm13.314-0.85938q-1.1406 0-1.9688-0.46875-0.82812-0.46875-1.2812-1.4062-0.45312-0.95312-0.45312-2.3594 0-2.0625 0.9375-3.0938t2.5781-1.0312q1.2656 0 2.0469 0.57812 0.78125 0.57813 1.1094 1.5469 0.34375 0.96875 0.32813 2.2031h-6.4219l0.0781-1.0469h5.5938l-0.45313 0.15625q-0.0469-1.2031-0.60937-1.7969-0.54688-0.59375-1.6719-0.59375-0.79687 0-1.3125 0.29688-0.51562 0.28125-0.78125 1-0.25 0.70312-0.25 1.9844 0 1.4531 0.67188 2.2188 0.6875 0.76563 1.9219 0.76563 0.59375 0 1.0781-0.0781 0.5-0.0937 0.92187-0.25 0.42188-0.17187 0.73438-0.35937v1.1875q-0.57813 0.26562-1.2812 0.40625-0.6875 0.14062-1.5156 0.14062zm5.4551-7.5781q0.375-0.1875 0.78125-0.34375 0.42187-0.15625 0.84375-0.25 0.42187-0.0937 0.85937-0.14063 0.4375-0.0469 0.89063-0.0469 1.1719 0 1.8594 0.34375t1 1 0.3125 1.5781v5.2031h-1.1562v-5.2031q0-0.28125-0.0781-0.59375-0.0625-0.32812-0.28125-0.625-0.20313-0.29687-0.64063-0.48437-0.42187-0.1875-1.1406-0.1875-0.5 0-1.0312 0.0937-0.53125 0.0781-1.0625 0.23437v6.7656h-1.1562zm12.448 7.4688q-0.64062 0-1.3125-0.15625-0.65625-0.17188-1.2188-0.60938-0.54687-0.45312-0.89062-1.2656-0.32813-0.8125-0.32813-2.0938t0.32813-2.0781q0.34375-0.8125 0.89062-1.2656 0.5625-0.45313 1.2188-0.60938 0.67188-0.17187 1.3125-0.17187 0.60938 0 1.2031 0.10937 0.60937 0.10938 1.1562 0.32813v1.1094q-0.51563-0.21875-1.0781-0.32812-0.5625-0.125-1.1562-0.125-1.4219 0-2.0781 0.73437-0.64063 0.71875-0.64063 2.2969 0 1.5938 0.64063 2.3125 0.65625 0.71875 2.0781 0.71875 0.59375 0 1.1562-0.10938 0.5625-0.125 1.0781-0.34375v1.125q-0.54688 0.20313-1.1562 0.3125-0.59375 0.10938-1.2031 0.10938zm4.5283-0.125v-7.3438q0.1875-0.0781 0.73438-0.26563 0.5625-0.20312 1.3281-0.35937 0.78125-0.15625 1.6094-0.15625 0.14062 0 0.26562 0.0312t0.25 0.0625v1.0156q-0.40625-0.0469-0.8125-0.0469-0.39062 0-0.76562 0.0469-0.35938 0.0469-0.73438 0.10938-0.35937 0.0625-0.71875 0.125v6.7812zm6.8914 3.0938q-0.23437 0-0.4375-0.0625-0.1875-0.0469-0.3125-0.0937v-1.0469q0.10938 0.0469 0.28125 0.0937 0.1875 0.0469 0.40625 0.0469 0.54688 0 0.875-0.3125 0.34375-0.29688 0.57813-0.8125 0.23437-0.5 0.42187-1.125v0.45312l-3.3906-8.2188h1.3125l2.6562 6.8125h-0.25l2.6406-6.8125h1.1562l-3.4219 8.7656q-0.375 0.95312-0.8125 1.4375-0.4375 0.5-0.875 0.6875t-0.82813 0.1875zm10.921-2.875q-0.35938 0-0.79688-0.0937t-0.85937-0.23438q-0.40625-0.14062-0.73438-0.3125l0.40625-0.39062v4.2812h-1.1562v-10.016q0-0.5 0.3125-0.79687 0.3125-0.29688 0.79688-0.46875 0.5-0.17188 1.0625-0.23438 0.5625-0.0781 1.0625-0.0781 0.95312 0 1.7969 0.40625 0.85938 0.39062 1.375 1.3438 0.53125 0.95312 0.53125 2.5781 0 1.2344-0.4375 2.1406t-1.2969 1.3906q-0.84375 0.48438-2.0625 0.48438zm0-1.0469q0.875 0 1.4375-0.375 0.57812-0.375 0.85937-1.0469 0.29688-0.67188 0.29688-1.5469 0-0.85937-0.20313-1.6094-0.1875-0.75-0.73437-1.2031-0.54688-0.46875-1.5781-0.46875-0.84375 0-1.4531 0.20313-0.60938 0.1875-0.60938 0.53125v4.9531q0.48438 0.28125 0.98438 0.42188 0.5 0.14062 1 0.14062zm8.479 0.95313q-0.85937 0-1.4375-0.51563-0.5625-0.51562-0.5625-1.5469v-4.9844h-1.3906v-1.0625h1.3906v-2.25h1.1406v2.25h2.0781v1.0625h-2.0781v4.625q0 0.67188 0.20312 1.0156 0.21875 0.32812 0.85938 0.32812 0.28125 0 0.54687-0.0625 0.28125-0.0625 0.46875-0.14062v1.0938q-0.23437 0.0781-0.57812 0.125-0.34375 0.0625-0.64063 0.0625zm6.5893 0.10937q-1.1406 0-1.9688-0.46875-0.82812-0.46875-1.2812-1.4062-0.45312-0.95312-0.45312-2.3594 0-2.0625 0.9375-3.0938t2.5781-1.0312q1.2656 0 2.0469 0.57812 0.78125 0.57813 1.1094 1.5469 0.34375 0.96875 0.32813 2.2031h-6.4219l0.0781-1.0469h5.5938l-0.45313 0.15625q-0.0469-1.2031-0.60937-1.7969-0.54688-0.59375-1.6719-0.59375-0.79687 0-1.3125 0.29688-0.51562 0.28125-0.78125 1-0.25 0.70312-0.25 1.9844 0 1.4531 0.67188 2.2188 0.6875 0.76563 1.9219 0.76563 0.59375 0 1.0781-0.0781 0.5-0.0937 0.92187-0.25 0.42188-0.17187 0.73438-0.35937v1.1875q-0.57813 0.26562-1.2812 0.40625-0.6875 0.14062-1.5156 0.14062zm8.7676 0q-0.57812 0-1.2188-0.17187-0.64062-0.15625-1.2188-0.60938-0.5625-0.46875-0.92187-1.3125-0.35938-0.85937-0.35938-2.2344 0-1.8594 0.90625-2.9375 0.90625-1.0781 2.75-1.0781 0.34375 0 0.82813 0.0937 0.48437 0.0937 0.9375 0.25 0.46875 0.14063 0.78125 0.29688l-0.40625 0.39062v-4.2812h1.1562v9.9844q0 0.45312-0.3125 0.76562t-0.8125 0.5q-0.5 0.17188-1.0625 0.25-0.54688 0.0937-1.0469 0.0937zm0.0156-1.0469q0.82812 0 1.4375-0.1875 0.625-0.20313 0.625-0.48438v-5.0156q-0.5-0.28125-1.0625-0.42188-0.5625-0.14062-1.0781-0.14062-0.875 0-1.4062 0.39062-0.53125 0.375-0.78125 1.0469-0.25 0.65625-0.25 1.5312 0 0.85937 0.1875 1.6094 0.20313 0.73438 0.73438 1.2031 0.54687 0.46875 1.5938 0.46875z" fill="#000"/>
  <path d="m554.47 372.44h158.61v43.559h-158.61z" fill="#fff" fill-rule="evenodd"/>
  <path d="m554.47 372.44h158.61v43.559h-158.61z" fill-rule="evenodd" stroke="#c72c48" stroke-linecap="butt" stroke-linejoin="round" stroke-width="2"/>
  <path d="m574.25 400.24q-1.5938 0-2.6562-0.60938-1.0625-0.625-1.6094-1.8281-0.53125-1.2188-0.53125-3.0469 0-2.7188 1.2031-4.0938 1.2188-1.3906 3.5938-1.3906 1.5938 0 2.6562 0.625 1.0625 0.60937 1.5938 1.8281 0.54688 1.2031 0.54688 3.0312 0 2.7188-1.2188 4.1094-1.2031 1.375-3.5781 1.375zm0-1.0781q1.2656 0 2.0625-0.46875 0.79688-0.46875 1.1719-1.4375 0.375-0.98437 0.375-2.5 0-1.5156-0.375-2.4844t-1.1719-1.4375q-0.79687-0.48438-2.0625-0.48438-1.25 0-2.0625 0.48438-0.79687 0.46875-1.1719 1.4375t-0.375 2.4844q0 1.5156 0.375 2.5 0.375 0.96875 1.1719 1.4375 0.8125 0.46875 2.0625 0.46875zm7.1134 0.92188v-10.672h6.7344v1.0938h-5.5781v3.6719h4.9062v1.125h-4.9062v3.6875h5.5781v1.0938zm10.327-3.4062v-1.5l5.1719-5.7656h1.4844zm-1.0312 3.4062v-10.672h1.1562v10.672zm2.8125-6.0156 5.2344 6.0156h-1.5938l-4.5-5.2344zm5.6362 7.1094v-0.70313h8.7344v0.70313zm9.9704-1.0938v-1.0156q0.54688-0.39062 1.25-0.98437 0.71875-0.59375 1.4375-1.2969 0.73438-0.71875 1.3438-1.4844 0.625-0.78125 1-1.5469 0.39063-0.78125 0.39063-1.4844 0-0.42188-0.20313-0.84375-0.1875-0.4375-0.73437-0.71875-0.53125-0.28125-1.5781-0.28125-0.95312 0-1.6719 0.3125-0.70313 0.3125-1.125 0.60937v-1.2656q0.51562-0.3125 1.2344-0.5625 0.73438-0.25 1.6562-0.25 1.3125 0 2.0938 0.45312 0.79688 0.4375 1.1406 1.125t0.34375 1.4219q0 0.71875-0.35938 1.5156-0.35937 0.78125-0.95312 1.5625-0.57813 0.78125-1.2812 1.5156-0.70313 0.73437-1.4062 1.375-0.70313 0.625-1.2812 1.0938l-0.34375-0.40625h5.7812v1.1562zm8.0616 1.0938v-0.70313h8.7344v0.70313zm13.314-0.85938q-1.1406 0-1.9688-0.46875-0.82812-0.46875-1.2812-1.4062-0.45312-0.95312-0.45312-2.3594 0-2.0625 0.9375-3.0938t2.5781-1.0312q1.2656 0 2.0469 0.57812 0.78125 0.57813 1.1094 1.5469 0.34375 0.96875 0.32813 2.2031h-6.4219l0.0781-1.0469h5.5938l-0.45313 0.15625q-0.0469-1.2031-0.60937-1.7969-0.54688-0.59375-1.6719-0.59375-0.79687 0-1.3125 0.29688-0.51562 0.28125-0.78125 1-0.25 0.70312-0.25 1.9844 0 1.4531 0.67188 2.2188 0.6875 0.76563 1.9219 0.76563 0.59375 0 1.0781-0.0781 0.5-0.0937 0.92187-0.25 0.42188-0.17187 0.73438-0.35937v1.1875q-0.57813 0.26562-1.2812 0.40625-0.6875 0.14062-1.5156 0.14062zm5.4551-7.5781q0.375-0.1875 0.78125-0.34375 0.42188-0.15625 0.84375-0.25 0.42188-0.0937 0.85938-0.14063 0.4375-0.0469 0.89062-0.0469 1.1719 0 1.8594 0.34375t1 1 0.3125 1.5781v5.2031h-1.1562v-5.2031q0-0.28125-0.0781-0.59375-0.0625-0.32812-0.28125-0.625-0.20312-0.29687-0.64062-0.48437-0.42188-0.1875-1.1406-0.1875-0.5 0-1.0312 0.0937-0.53125 0.0781-1.0625 0.23437v6.7656h-1.1562zm12.448 7.4688q-0.64063 0-1.3125-0.15625-0.65625-0.17188-1.2188-0.60938-0.54688-0.45312-0.89063-1.2656-0.32812-0.8125-0.32812-2.0938t0.32812-2.0781q0.34375-0.8125 0.89063-1.2656 0.5625-0.45313 1.2188-0.60938 0.67187-0.17187 1.3125-0.17187 0.60937 0 1.2031 0.10937 0.60938 0.10938 1.1562 0.32813v1.1094q-0.51562-0.21875-1.0781-0.32812-0.5625-0.125-1.1562-0.125-1.4219 0-2.0781 0.73437-0.64062 0.71875-0.64062 2.2969 0 1.5938 0.64062 2.3125 0.65625 0.71875 2.0781 0.71875 0.59375 0 1.1562-0.10938 0.5625-0.125 1.0781-0.34375v1.125q-0.54687 0.20313-1.1562 0.3125-0.59375 0.10938-1.2031 0.10938zm4.5283-0.125v-7.3438q0.1875-0.0781 0.73437-0.26563 0.5625-0.20312 1.3281-0.35937 0.78125-0.15625 1.6094-0.15625 0.14063 0 0.26563 0.0312t0.25 0.0625v1.0156q-0.40625-0.0469-0.8125-0.0469-0.39063 0-0.76563 0.0469-0.35937 0.0469-0.73437 0.10938-0.35938 0.0625-0.71875 0.125v6.7812zm6.8914 3.0938q-0.23437 0-0.4375-0.0625-0.1875-0.0469-0.3125-0.0937v-1.0469q0.10938 0.0469 0.28125 0.0937 0.1875 0.0469 0.40625 0.0469 0.54688 0 0.875-0.3125 0.34375-0.29688 0.57813-0.8125 0.23437-0.5 0.42187-1.125v0.45312l-3.3906-8.2188h1.3125l2.6562 6.8125h-0.25l2.6406-6.8125h1.1562l-3.4219 8.7656q-0.375 0.95312-0.8125 1.4375-0.4375 0.5-0.875 0.6875t-0.82813 0.1875zm10.921-2.875q-0.35938 0-0.79688-0.0937t-0.85937-0.23438q-0.40625-0.14062-0.73438-0.3125l0.40625-0.39062v4.2812h-1.1562v-10.016q0-0.5 0.3125-0.79687 0.3125-0.29688 0.79688-0.46875 0.5-0.17188 1.0625-0.23438 0.5625-0.0781 1.0625-0.0781 0.95312 0 1.7969 0.40625 0.85938 0.39062 1.375 1.3438 0.53125 0.95312 0.53125 2.5781 0 1.2344-0.4375 2.1406t-1.2969 1.3906q-0.84375 0.48438-2.0625 0.48438zm0-1.0469q0.875 0 1.4375-0.375 0.57812-0.375 0.85937-1.0469 0.29688-0.67188 0.29688-1.5469 0-0.85937-0.20313-1.6094-0.1875-0.75-0.73437-1.2031-0.54688-0.46875-1.5781-0.46875-0.84375 0-1.4531 0.20313-0.60938 0.1875-0.60938 0.53125v4.9531q0.48438 0.28125 0.98438 0.42188 0.5 0.14062 1 0.14062zm8.4791 0.95313q-0.85937 0-1.4375-0.51563-0.5625-0.51562-0.5625-1.5469v-4.9844h-1.3906v-1.0625h1.3906v-2.25h1.1406v2.25h2.0781v1.0625h-2.0781v4.625q0 0.67188 0.20312 1.0156 0.21875 0.32812 0.85938 0.32812 0.28125 0 0.54687-0.0625 0.28125-0.0625 0.46875-0.14062v1.0938q-0.23437 0.0781-0.57812 0.125-0.34375 0.0625-0.64063 0.0625zm6.5892 0.10937q-1.1406 0-1.9688-0.46875-0.82813-0.46875-1.2812-1.4062-0.45313-0.95312-0.45313-2.3594 0-2.0625 0.9375-3.0938t2.5781-1.0312q1.2656 0 2.0469 0.57812 0.78125 0.57813 1.1094 1.5469 0.34375 0.96875 0.32812 2.2031h-6.4219l0.0781-1.0469h5.5938l-0.45312 0.15625q-0.0469-1.2031-0.60938-1.7969-0.54687-0.59375-1.6719-0.59375-0.79688 0-1.3125 0.29688-0.51563 0.28125-0.78125 1-0.25 0.70312-0.25 1.9844 0 1.4531 0.67187 2.2188 0.6875 0.76563 1.9219 0.76563 0.59375 0 1.0781-0.0781 0.5-0.0937 0.92188-0.25 0.42187-0.17187 0.73437-0.35937v1.1875q-0.57812 0.26562-1.2812 0.40625-0.6875 0.14062-1.5156 0.14062zm8.7676 0q-0.57813 0-1.2188-0.17187-0.64063-0.15625-1.2188-0.60938-0.5625-0.46875-0.92188-1.3125-0.35937-0.85937-0.35937-2.2344 0-1.8594 0.90625-2.9375 0.90625-1.0781 2.75-1.0781 0.34375 0 0.82812 0.0937 0.48438 0.0937 0.9375 0.25 0.46875 0.14063 0.78125 0.29688l-0.40625 0.39062v-4.2812h1.1562v9.9844q0 0.45312-0.3125 0.76562t-0.8125 0.5q-0.5 0.17188-1.0625 0.25-0.54687 0.0937-1.0469 0.0937zm0.0156-1.0469q0.82813 0 1.4375-0.1875 0.625-0.20313 0.625-0.48438v-5.0156q-0.5-0.28125-1.0625-0.42188-0.5625-0.14062-1.0781-0.14062-0.875 0-1.4062 0.39062-0.53125 0.375-0.78125 1.0469-0.25 0.65625-0.25 1.5312 0 0.85937 0.1875 1.6094 0.20312 0.73438 0.73437 1.2031 0.54688 0.46875 1.5938 0.46875z" fill="#000"/>
  <g fill-rule="evenodd">
   <path d="m633.78 198.76v14.428h0.063v14.423" fill="#000" fill-opacity="0"/>
   <path d="m633.78 198.76v14.428h0.063v7.5684" stroke="#595959" stroke-linecap="butt" stroke-linejoin="round" stroke-width="2"/>
   <path d="m633.84 220.76-2.2492-2.2492 2.2492 6.1795 2.2492-6.1795z" fill="#595959" stroke="#595959" stroke-linecap="butt" stroke-width="2"/>
   <path d="m633.78 271.17v14.428h0.063v14.423" fill="#000" fill-opacity="0"/>
   <path d="m633.78 271.17v14.428h0.063v7.5684" stroke="#595959" stroke-linecap="butt" stroke-linejoin="round" stroke-width="2"/>
   <path d="m633.84 293.17-2.2492-2.2492 2.2492 6.1795 2.2492-6.1795z" fill="#595959" stroke="#595959" stroke-linecap="butt" stroke-width="2"/>
   <path d="m633.78 343.59v14.428h0.063v14.423" fill="#000" fill-opacity="0"/>
   <path d="m633.78 343.59v14.428h0.063v7.5685" stroke="#595959" stroke-linecap="butt" stroke-linejoin="round" stroke-width="2"/>
   <path d="m633.84 365.59-2.2492-2.2492 2.2492 6.1795 2.2492-6.1795z" fill="#595959" stroke="#595959" stroke-linecap="butt" stroke-width="2"/>
   <path d="m713.08 394.22h23.722v0.063h23.711" fill="#000" fill-opacity="0"/>
   <path d="m713.08 394.22h23.722v0.063h16.857" stroke="#595959" stroke-linecap="butt" stroke-linejoin="round" stroke-width="2"/>
   <path d="m753.66 394.29-2.2492 2.2492 6.1796-2.2492-6.1796-2.2492z" fill="#595959" stroke="#595959" stroke-linecap="butt" stroke-width="2"/>
   <path d="m845.43 198.76v86.842h0.063v86.859" fill="#000" fill-opacity="0"/>
   <path d="m845.43 198.76v86.842h0.063v80.005" stroke="#595959" stroke-linecap="butt" stroke-linejoin="round" stroke-width="2"/>
   <path d="m845.49 365.61-2.2492-2.2492 2.2492 6.1795 2.2492-6.1795z" fill="#595959" stroke="#595959" stroke-linecap="butt" stroke-width="2"/>
   <path d="m212.1 69.291v42.953h-103.02v42.968" fill="#000" fill-opacity="0"/>
   <path d="m212.1 69.291v42.953h-103.02v36.114" stroke="#595959" stroke-linecap="butt" stroke-linejoin="round" stroke-width="2"/>
   <path d="m109.08 148.36-2.2492-2.2492 2.2492 6.1795 2.2492-6.1795z" fill="#595959" stroke="#595959" stroke-linecap="butt" stroke-width="2"/>
   <path d="m212.1 69.291v42.953h108.6v42.968" fill="#000" fill-opacity="0"/>
   <path d="m212.1 69.291v42.953h108.6v36.114" stroke="#595959" stroke-linecap="butt" stroke-linejoin="round" stroke-width="2"/>
   <path d="m320.7 148.36-2.2492-2.2492 2.2492 6.1795 2.2492-6.1795z" fill="#595959" stroke="#595959" stroke-linecap="butt" stroke-width="2"/>
   <path d="m612.01 25.732h249.57v43.559h-249.57z" fill="#fff"/>
   <path d="m612.01 25.732h249.57v43.559h-249.57z" stroke="#c72c48" stroke-linecap="butt" stroke-linejoin="round" stroke-width="2"/>
  </g>
  <path d="m645.76 53.497q-2.4688 0-3.7188-1.375-1.2344-1.375-1.2344-4.0938t1.2344-4.0938q1.25-1.375 3.7188-1.375 0.84375 0 1.6562 0.20312t1.5938 0.57812v1.1094q-0.73438-0.40625-1.5312-0.60938-0.78125-0.20312-1.5938-0.20312-1.3438 0-2.2031 0.46875-0.85937 0.46875-1.2656 1.4375t-0.40625 2.4844 0.40625 2.4844 1.2656 1.4375q0.85938 0.46875 2.2031 0.46875 0.8125 0 1.5938-0.1875 0.79687-0.20312 1.5312-0.60938v1.1094q-0.51563 0.23438-1.0625 0.42188-0.53125 0.17188-1.0781 0.25-0.54687 0.09375-1.1094 0.09375zm6.5614-0.125h-1.1562v-11.031h1.1562zm2.6182 0v-7.9844h1.1562v7.9844zm-0.0625-9.4062v-1.2656h1.2812v1.2656zm7.1369 9.6406q-1.1406 0-1.9688-0.46875-0.82813-0.46875-1.2812-1.4062-0.45313-0.95312-0.45313-2.3594 0-2.0625 0.9375-3.0938t2.5781-1.0312q1.2656 0 2.0469 0.57812t1.1094 1.5469q0.34375 0.96875 0.32812 2.2031h-6.4219l0.0781-1.0469h5.5938l-0.45312 0.15625q-0.0469-1.2031-0.60938-1.7969-0.54687-0.59375-1.6719-0.59375-0.79688 0-1.3125 0.29688-0.51563 0.28125-0.78125 1-0.25 0.70312-0.25 1.9844 0 1.4531 0.67187 2.2188 0.6875 0.76562 1.9219 0.76562 0.59375 0 1.0781-0.07813 0.5-0.09375 0.92188-0.25 0.42187-0.17188 0.73437-0.35938v1.1875q-0.57812 0.26562-1.2812 0.40625-0.6875 0.14062-1.5156 0.14062zm5.4551-7.5781q0.375-0.1875 0.78125-0.34375 0.42187-0.15625 0.84375-0.25 0.42187-0.09375 0.85937-0.14062 0.4375-0.04687 0.89063-0.04687 1.1719 0 1.8594 0.34375t1 1 0.3125 1.5781v5.2031h-1.1562v-5.2031q0-0.28125-0.0781-0.59375-0.0625-0.32812-0.28125-0.625-0.20313-0.29688-0.64063-0.48438-0.42187-0.1875-1.1406-0.1875-0.5 0-1.0312 0.09375-0.53125 0.07813-1.0625 0.23438v6.7656h-1.1562zm11.62 7.4688q-0.85938 0-1.4375-0.51562-0.5625-0.51562-0.5625-1.5469v-4.9844h-1.3906v-1.0625h1.3906v-2.25h1.1406v2.25h2.0781v1.0625h-2.0781v4.625q0 0.67188 0.20313 1.0156 0.21875 0.32812 0.85937 0.32812 0.28125 0 0.54688-0.0625 0.28125-0.0625 0.46875-0.14062v1.0938q-0.23438 0.07813-0.57813 0.125-0.34375 0.0625-0.64062 0.0625zm3.2768-4.3281v-1.125h4.875v1.125zm8.674 0.125v4.0781h-1.1562v-10.672h3.7969q1.7812 0 2.7344 0.85938 0.95313 0.84375 0.95313 2.4375t-0.95313 2.4531q-0.95312 0.84375-2.7344 0.84375zm0-1.1094h2.5q0.89063 0 1.4219-0.1875t0.79687-0.51562q0.28125-0.32812 0.375-0.70312 0.0937-0.39062 0.0937-0.78125t-0.0937-0.76562q-0.0937-0.39062-0.375-0.71875-0.26562-0.32812-0.79687-0.51562t-1.4219-0.1875h-2.5zm8.5736 5.1875v-7.3438q0.1875-0.07813 0.73437-0.26562 0.5625-0.20312 1.3281-0.35938 0.78125-0.15625 1.6094-0.15625 0.14063 0 0.26563 0.03125t0.25 0.0625v1.0156q-0.40625-0.04687-0.8125-0.04687-0.39063 0-0.76563 0.04687-0.35937 0.04687-0.73437 0.10938-0.35938 0.0625-0.71875 0.125v6.7812zm8.7533 0.23438q-1.875 0-2.7812-1.1094t-0.90625-3.0938q0-2.0781 0.95312-3.1094 0.95313-1.0469 2.7031-1.0469 1.2969 0 2.1094 0.51562t1.1875 1.4531q0.39063 0.9375 0.39063 2.1875 0 1.9688-0.95313 3.0938-0.95312 1.1094-2.7031 1.1094zm-0.0156-1.0469q0.96875 0 1.5156-0.42188 0.54687-0.42188 0.78125-1.1406 0.23437-0.71875 0.23437-1.5938 0-0.9375-0.25-1.625-0.23437-0.70312-0.79687-1.0938-0.54688-0.39062-1.4844-0.39062-0.96875 0-1.5156 0.42188-0.53125 0.42188-0.76563 1.125-0.23437 0.6875-0.23437 1.5625 0 1.4062 0.5625 2.2812t1.9531 0.875zm7.9346 0.8125-3.375-7.9844h1.2344l2.9375 7-0.25 0.0625 2.8594-7.0625h1.1562l-3.3906 7.9844zm6.4623 0v-7.9844h1.1562v7.9844zm-0.0625-9.4062v-1.2656h1.2812v1.2656zm7.1525 9.6406q-0.57813 0-1.2188-0.17188-0.64063-0.15625-1.2188-0.60938-0.5625-0.46875-0.92188-1.3125-0.35937-0.85938-0.35937-2.2344 0-1.8594 0.90625-2.9375t2.75-1.0781q0.34375 0 0.82812 0.09375 0.48438 0.09375 0.9375 0.25 0.46875 0.14062 0.78125 0.29688l-0.40625 0.39062v-4.2812h1.1562v9.9844q0 0.45312-0.3125 0.76562t-0.8125 0.5q-0.5 0.17188-1.0625 0.25-0.54687 0.09375-1.0469 0.09375zm0.0156-1.0469q0.82813 0 1.4375-0.1875 0.625-0.20312 0.625-0.48438v-5.0156q-0.5-0.28125-1.0625-0.42188t-1.0781-0.14062q-0.875 0-1.4062 0.39062-0.53125 0.375-0.78125 1.0469-0.25 0.65625-0.25 1.5312 0 0.85938 0.1875 1.6094 0.20312 0.73438 0.73437 1.2031 0.54688 0.46875 1.5938 0.46875zm9.0728 1.0469q-1.1406 0-1.9688-0.46875-0.82813-0.46875-1.2812-1.4062-0.45313-0.95312-0.45313-2.3594 0-2.0625 0.9375-3.0938t2.5781-1.0312q1.2656 0 2.0469 0.57812t1.1094 1.5469q0.34375 0.96875 0.32812 2.2031h-6.4219l0.0781-1.0469h5.5938l-0.45312 0.15625q-0.0469-1.2031-0.60938-1.7969-0.54687-0.59375-1.6719-0.59375-0.79688 0-1.3125 0.29688-0.51563 0.28125-0.78125 1-0.25 0.70312-0.25 1.9844 0 1.4531 0.67187 2.2188 0.6875 0.76562 1.9219 0.76562 0.59375 0 1.0781-0.07813 0.5-0.09375 0.92188-0.25 0.42187-0.17188 0.73437-0.35938v1.1875q-0.57812 0.26562-1.2812 0.40625-0.6875 0.14062-1.5156 0.14062zm8.7676 0q-0.57813 0-1.2188-0.17188-0.64063-0.15625-1.2188-0.60938-0.5625-0.46875-0.92188-1.3125-0.35937-0.85938-0.35937-2.2344 0-1.8594 0.90625-2.9375t2.75-1.0781q0.34375 0 0.82812 0.09375 0.48438 0.09375 0.9375 0.25 0.46875 0.14062 0.78125 0.29688l-0.40625 0.39062v-4.2812h1.1562v9.9844q0 0.45312-0.3125 0.76562t-0.8125 0.5q-0.5 0.17188-1.0625 0.25-0.54687 0.09375-1.0469 0.09375zm0.0156-1.0469q0.82813 0 1.4375-0.1875 0.625-0.20312 0.625-0.48438v-5.0156q-0.5-0.28125-1.0625-0.42188t-1.0781-0.14062q-0.875 0-1.4062 0.39062-0.53125 0.375-0.78125 1.0469-0.25 0.65625-0.25 1.5312 0 0.85938 0.1875 1.6094 0.20312 0.73438 0.73437 1.2031 0.54688 0.46875 1.5938 0.46875zm13.525 0.96875q-0.8125 0-1.375-0.10938-0.54687-0.10938-1-0.3125-0.45312-0.21875-0.96875-0.48438v-1.25q0.5 0.4375 1.3594 0.78125 0.875 0.32812 2.0312 0.32812 1.2031 0 1.75-0.51562 0.5625-0.53125 0.5625-1.3281 0-0.67188-0.375-1.0781-0.35938-0.40625-0.9375-0.67188-0.57813-0.26562-1.2188-0.5-0.53125-0.20312-1.0781-0.40625-0.53125-0.21875-0.96875-0.54688-0.42187-0.32812-0.6875-0.84375-0.25-0.53125-0.25-1.3125 0-0.4375 0.15625-0.90625 0.17188-0.48438 0.54688-0.89062 0.375-0.42188 1-0.67188 0.64062-0.26562 1.5625-0.26562 0.625 0 1.0625 0.09375 0.4375 0.07813 0.82812 0.25 0.40625 0.17188 0.90625 0.40625v1.1875q-0.42187-0.25-0.79687-0.4375-0.375-0.20312-0.82813-0.32812-0.45312-0.125-1.1094-0.125-0.78125 0-1.2656 0.23438-0.46875 0.21875-0.6875 0.59375-0.20312 0.35938-0.20312 0.78125 0 0.65625 0.28125 1.0469 0.29687 0.375 0.82812 0.625 0.54688 0.25 1.25 0.48438 0.5625 0.1875 1.125 0.42188t1.0156 0.57812q0.45312 0.34375 0.73437 0.875 0.28125 0.51562 0.28125 1.2812 0 0.71875-0.32812 1.4219-0.3125 0.6875-1.0781 1.1406-0.76562 0.45312-2.125 0.45312zm9.0675 0.07813q-1.1406 0-1.9688-0.46875-0.82813-0.46875-1.2812-1.4062-0.45313-0.95312-0.45313-2.3594 0-2.0625 0.9375-3.0938t2.5781-1.0312q1.2656 0 2.0469 0.57812t1.1094 1.5469q0.34375 0.96875 0.32812 2.2031h-6.4219l0.0781-1.0469h5.5938l-0.45312 0.15625q-0.0469-1.2031-0.60938-1.7969-0.54687-0.59375-1.6719-0.59375-0.79688 0-1.3125 0.29688-0.51563 0.28125-0.78125 1-0.25 0.70312-0.25 1.9844 0 1.4531 0.67187 2.2188 0.6875 0.76562 1.9219 0.76562 0.59375 0 1.0781-0.07813 0.5-0.09375 0.92188-0.25 0.42187-0.17188 0.73437-0.35938v1.1875q-0.57812 0.26562-1.2812 0.40625-0.6875 0.14062-1.5156 0.14062zm8.7989-0.10938q-0.64063 0-1.3125-0.15625-0.65625-0.17188-1.2188-0.60938-0.54688-0.45312-0.89063-1.2656-0.32812-0.8125-0.32812-2.0938t0.32812-2.0781q0.34375-0.8125 0.89063-1.2656 0.5625-0.45312 1.2188-0.60938 0.67187-0.17188 1.3125-0.17188 0.60937 0 1.2031 0.10938 0.60938 0.10938 1.1562 0.32812v1.1094q-0.51562-0.21875-1.0781-0.32812-0.5625-0.125-1.1562-0.125-1.4219 0-2.0781 0.73438-0.64062 0.71875-0.64062 2.2969 0 1.5938 0.64062 2.3125 0.65625 0.71875 2.0781 0.71875 0.59375 0 1.1562-0.10938 0.5625-0.125 1.0781-0.34375v1.125q-0.54687 0.20312-1.1562 0.3125-0.59375 0.10938-1.2031 0.10938zm4.5282-0.125v-7.3438q0.1875-0.07813 0.73438-0.26562 0.5625-0.20312 1.3281-0.35938 0.78125-0.15625 1.6094-0.15625 0.14062 0 0.26562 0.03125t0.25 0.0625v1.0156q-0.40625-0.04687-0.8125-0.04687-0.39062 0-0.76562 0.04687-0.35938 0.04687-0.73438 0.10938-0.35937 0.0625-0.71875 0.125v6.7812zm8.7689 0.23438q-1.1406 0-1.9688-0.46875-0.82813-0.46875-1.2812-1.4062-0.45313-0.95312-0.45313-2.3594 0-2.0625 0.9375-3.0938t2.5781-1.0312q1.2656 0 2.0469 0.57812t1.1094 1.5469q0.34375 0.96875 0.32812 2.2031h-6.4219l0.0781-1.0469h5.5938l-0.45312 0.15625q-0.0469-1.2031-0.60938-1.7969-0.54687-0.59375-1.6719-0.59375-0.79688 0-1.3125 0.29688-0.51563 0.28125-0.78125 1-0.25 0.70312-0.25 1.9844 0 1.4531 0.67187 2.2188 0.6875 0.76562 1.9219 0.76562 0.59375 0 1.0781-0.07813 0.5-0.09375 0.92188-0.25 0.42187-0.17188 0.73437-0.35938v1.1875q-0.57812 0.26562-1.2812 0.40625-0.6875 0.14062-1.5156 0.14062zm7.9708-0.10938q-0.85938 0-1.4375-0.51562-0.5625-0.51562-0.5625-1.5469v-4.9844h-1.3906v-1.0625h1.3906v-2.25h1.1406v2.25h2.0781v1.0625h-2.0781v4.625q0 0.67188 0.20313 1.0156 0.21875 0.32812 0.85937 0.32812 0.28125 0 0.54688-0.0625 0.28125-0.0625 0.46875-0.14062v1.0938q-0.23438 0.07813-0.57813 0.125-0.34375 0.0625-0.64062 0.0625zm9.0418-3.5312v-1.5l5.1719-5.7656h1.4844zm-1.0312 3.4062v-10.672h1.1562v10.672zm2.8125-6.0156 5.2344 6.0156h-1.5938l-4.5-5.2344zm10.214 6.25q-1.1406 0-1.9688-0.46875-0.82812-0.46875-1.2812-1.4062-0.45312-0.95312-0.45312-2.3594 0-2.0625 0.9375-3.0938t2.5781-1.0312q1.2656 0 2.0469 0.57812t1.1094 1.5469q0.34375 0.96875 0.32813 2.2031h-6.4219l0.0781-1.0469h5.5938l-0.45313 0.15625q-0.0469-1.2031-0.60937-1.7969-0.54688-0.59375-1.6719-0.59375-0.79687 0-1.3125 0.29688-0.51562 0.28125-0.78125 1-0.25 0.70312-0.25 1.9844 0 1.4531 0.67188 2.2188 0.6875 0.76562 1.9219 0.76562 0.59375 0 1.0781-0.07813 0.5-0.09375 0.92187-0.25 0.42188-0.17188 0.73438-0.35938v1.1875q-0.57813 0.26562-1.2812 0.40625-0.6875 0.14062-1.5156 0.14062zm5.7545 2.8594q-0.23438 0-0.4375-0.0625-0.1875-0.04687-0.3125-0.09375v-1.0469q0.10937 0.04687 0.28125 0.09375 0.1875 0.04687 0.40625 0.04687 0.54687 0 0.875-0.3125 0.34375-0.29688 0.57812-0.8125 0.23438-0.5 0.42188-1.125v0.45312l-3.3906-8.2188h1.3125l2.6562 6.8125h-0.25l2.6406-6.8125h1.1562l-3.4219 8.7656q-0.375 0.95312-0.8125 1.4375-0.4375 0.5-0.875 0.6875t-0.82812 0.1875z" fill="#000"/>
  <g fill-rule="evenodd">
   <path d="m736.8 69.291v42.955h-103.02v42.967" fill="#000" fill-opacity="0"/>
   <path d="m736.8 69.291v42.955h-103.02v36.112" stroke="#595959" stroke-linecap="butt" stroke-linejoin="round" stroke-width="2"/>
   <path d="m633.78 148.36-2.2492-2.2492 2.2492 6.1795 2.2492-6.1795z" fill="#595959" stroke="#595959" stroke-linecap="butt" stroke-width="2"/>
   <path d="m736.8 69.291v42.955h108.63v42.967" fill="#000" fill-opacity="0"/>
   <path d="m736.8 69.291v42.955h108.63v36.112" stroke="#595959" stroke-linecap="butt" stroke-linejoin="round" stroke-width="2"/>
   <path d="m845.43 148.36-2.2492-2.2492 2.2492 6.1795 2.2492-6.1795z" fill="#595959" stroke="#595959" stroke-linecap="butt" stroke-width="2"/>
  </g>
 </g>
</svg>
