<?xml version="1.0" encoding="utf-8"?>
<!-- Generator: Adobe Illustrator 26.3.1, SVG Export Plug-In . SVG Version: 6.00 Build 0)  -->
<svg version="1.1" id="Layer_2" xmlns="http://www.w3.org/2000/svg" xmlns:xlink="http://www.w3.org/1999/xlink" x="0px" y="0px"
	 viewBox="0 0 525 289.9" style="enable-background:new 0 0 525 289.9;" xml:space="preserve">
<style type="text/css">
	.st0{fill:#B7B7B7;}
	.st1{fill:#D50A44;}
	.st2{fill:#326CE5;}
</style>
<g>
	<g>
		<path d="M20.5,32.6H18v-7.2l-2.1,6.2h-2.7l-2.1-6.2v7.2H8.6V22.1h3.6l2.4,6.7l2.4-6.7h3.6V32.6z"/>
		<path d="M24.9,32.6h-2.5V22.1h2.5V32.6z"/>
		<path d="M36.5,32.6h-2.4l-4.8-6.4v6.4h-2.5V22.1h2.4l4.8,6.4v-6.4h2.5V32.6z"/>
		<path d="M40.9,32.6h-2.5V22.1h2.5V32.6z"/>
		<path d="M53.4,27.4c0,3.1-2.3,5.5-5.5,5.5c-3.2,0-5.5-2.3-5.5-5.5c0-3.1,2.3-5.5,5.5-5.5C51.1,21.9,53.4,24.2,53.4,27.4z M45,27.4
			c0,1.8,1.2,3,2.9,3c1.7,0,2.9-1.2,2.9-3s-1.2-3-2.9-3C46.2,24.3,45,25.6,45,27.4z"/>
		<path d="M68.9,27.4c0,3.1-2.3,5.5-5.5,5.5s-5.5-2.3-5.5-5.5c0-3.1,2.3-5.5,5.5-5.5S68.9,24.2,68.9,27.4z M60.4,27.4
			c0,1.8,1.2,3,2.9,3s2.9-1.2,2.9-3s-1.2-3-2.9-3S60.4,25.6,60.4,27.4z"/>
		<path d="M74.9,22.1c2.7,0,4,1,4,3c0,1-0.6,1.8-1.4,2.2c0.9,0.3,1.7,1.2,1.7,2.3c0,1.9-1.3,3-4,3h-4.8V22.1H74.9z M72.9,24.2v2.1h2
			c0.9,0,1.5-0.3,1.5-1c0-0.8-0.6-1-1.5-1H72.9z M72.9,28.4v2.1H75c1,0,1.5-0.3,1.5-1.1c0-0.8-0.6-1.1-1.5-1.1H72.9z"/>
		<path d="M86.9,28.7c0,2.8-1.6,4.1-3.9,4.1c-1.6,0-2.7-0.7-3.3-1.3l1.3-1.9c0.4,0.4,1,0.8,1.9,0.8c1,0,1.6-0.6,1.6-2v-6.3h2.5V28.7
			z"/>
		<path d="M96.8,32.6h-8V22.1h8v2.3h-5.5v1.8h5.2v2.3h-5.2v1.9h5.5V32.6z"/>
		<path d="M108.1,24.4l-2.2,1.3c-0.5-0.9-1.4-1.4-2.5-1.4c-1.7,0-2.9,1.2-2.9,3c0,2,1.3,3,2.9,3c1.1,0,1.9-0.5,2.5-1.4l2.1,1.5
			c-1,1.4-2.6,2.3-4.6,2.3c-3.2,0-5.5-2.3-5.5-5.5c0-3.2,2.3-5.5,5.5-5.5C105.4,21.9,107.2,22.9,108.1,24.4z"/>
		<path d="M117.6,24.4h-3.1v8.2H112v-8.2h-3.1v-2.3h8.7V24.4z"/>
		<path d="M129.3,25.1c-0.8-0.5-1.8-0.9-3-0.9c-1,0-1.7,0.3-1.7,0.9c0,0.7,1,0.8,2.2,1l0.4,0.1c2,0.4,3.3,1.3,3.3,3
			c0,2.5-2.2,3.5-4.4,3.5c-1.8,0-3.5-0.5-4.6-1.3l1.3-2c0.8,0.5,1.9,1.1,3.4,1.1c0.9,0,1.7-0.3,1.7-1c0-0.6-0.7-0.8-2.1-1l-0.5-0.1
			c-2.2-0.3-3.3-1.3-3.3-3.2c0-2,1.8-3.3,4.2-3.3c1.4,0,2.6,0.2,4.2,1.1L129.3,25.1z"/>
		<path d="M139.9,24.4h-3.1v8.2h-2.5v-8.2h-3.1v-2.3h8.7V24.4z"/>
		<path d="M151.3,27.4c0,3.1-2.3,5.5-5.5,5.5s-5.5-2.3-5.5-5.5c0-3.1,2.3-5.5,5.5-5.5S151.3,24.2,151.3,27.4z M142.9,27.4
			c0,1.8,1.2,3,2.9,3s2.9-1.2,2.9-3s-1.2-3-2.9-3S142.9,25.6,142.9,27.4z"/>
		<path d="M157.4,22.1c2.6,0,4,1.3,4,3.4c0,1.7-1.1,2.8-2.9,3.1l3,4h-3l-2.8-3.9h-0.4v3.9h-2.5V22.1H157.4z M155.3,24.4v2.2h2
			c0.9,0,1.5-0.4,1.5-1.1c0-0.7-0.6-1.1-1.5-1.1H155.3z"/>
		<path d="M172.9,32.6h-2.7l-0.8-2.2h-4.2l-0.8,2.2h-2.6l4-10.5h3L172.9,32.6z M166.1,28.1h2.6l-1.3-3.5L166.1,28.1z"/>
		<path d="M182.4,23.4l-1.8,1.8c-0.5-0.6-1.3-0.9-2.2-0.9c-1.7,0-2.9,1.3-2.9,3.1c0,2,1.3,3.2,2.9,3.2c1.5,0,2.4-0.7,2.7-1.9h-2.6
			v-1.9h5c0,0.3,0.1,0.5,0.1,0.8c0,3.4-2.4,5.3-5.1,5.3c-3.1,0-5.6-2.2-5.6-5.4c0-3.2,2.3-5.5,5.6-5.5
			C180.1,21.9,181.5,22.5,182.4,23.4z"/>
		<path d="M193.1,32.6h-8V22.1h8v2.3h-5.5v1.8h5.2v2.3h-5.2v1.9h5.5V32.6z"/>
	</g>
</g>
<g>
	<path d="M17.6,54.5h-1v-7.3l-2.9,6.4h-1l-2.9-6.3v7.3h-1v-8.4h1.5l2.9,6.3l2.9-6.3h1.5V54.5z"/>
	<path d="M21,46.8c0,0.4-0.3,0.6-0.6,0.6c-0.4,0-0.6-0.3-0.6-0.6s0.3-0.6,0.6-0.6C20.7,46.2,21,46.4,21,46.8z M20.8,54.5h-0.9v-5.7
		h0.9V54.5z"/>
	<path d="M28.1,51v3.5h-0.9v-3.2c0-1.1-0.6-1.7-1.6-1.7c-1,0-1.7,0.7-1.7,1.7v3.2h-0.9v-5.7h0.9v0.8c0.5-0.7,1.2-0.9,1.9-0.9
		C27.1,48.7,28.1,49.6,28.1,51z"/>
	<path d="M31.2,54.5h-1v-8.4h1V54.5z"/>
	<path d="M41.9,50.3c0,2.5-1.8,4.3-4.3,4.3c-2.5,0-4.3-1.8-4.3-4.3S35,46,37.5,46C40,46,41.9,47.8,41.9,50.3z M34.2,50.3
		c0,2,1.4,3.4,3.3,3.4c1.9,0,3.3-1.4,3.3-3.4s-1.4-3.4-3.3-3.4C35.6,46.9,34.2,48.3,34.2,50.3z"/>
	<path d="M55.2,50.3c0,2.5-1.8,4.3-4.3,4.3c-2.5,0-4.3-1.8-4.3-4.3s1.8-4.3,4.3-4.3C53.4,46,55.2,47.8,55.2,50.3z M47.5,50.3
		c0,2,1.4,3.4,3.3,3.4c1.9,0,3.3-1.4,3.3-3.4s-1.4-3.4-3.3-3.4C49,46.9,47.5,48.3,47.5,50.3z"/>
	<path d="M62.8,51.7c0,1.7-1.2,3-2.8,3c-0.9,0-1.6-0.4-2.1-1v0.8H57v-8.6h0.9v3.8c0.4-0.6,1.1-1,2.1-1C61.5,48.7,62.8,50,62.8,51.7z
		 M57.8,51.7c0,1.2,0.8,2.1,2,2.1c1.2,0,2-0.9,2-2.1c0-1.2-0.8-2.1-2-2.1C58.6,49.5,57.8,50.5,57.8,51.7z"/>
	<path d="M65.4,55.4c0,1-0.6,1.6-1.4,1.6c-0.3,0-0.6-0.1-0.8-0.2l0.2-0.8c0.1,0.1,0.3,0.1,0.5,0.1c0.4,0,0.6-0.2,0.6-0.7v-6.6h0.9
		V55.4z M65.6,46.8c0,0.4-0.3,0.6-0.6,0.6c-0.4,0-0.6-0.3-0.6-0.6s0.3-0.6,0.6-0.6C65.3,46.2,65.6,46.4,65.6,46.8z"/>
	<path d="M72.5,51.6c0,0.1,0,0.2,0,0.3H68c0.1,1.2,1,1.9,2,1.9c0.7,0,1.3-0.3,1.8-0.7l0.5,0.6c-0.7,0.7-1.5,0.9-2.3,0.9
		c-1.7,0-2.9-1.2-2.9-3c0-1.7,1.2-3,2.8-3C71.4,48.7,72.5,49.9,72.5,51.6z M68,51.2h3.6c-0.1-1.1-0.8-1.7-1.8-1.7
		C68.8,49.5,68.1,50.2,68,51.2z"/>
	<path d="M78.8,49.6l-0.6,0.6c-0.4-0.4-0.9-0.7-1.6-0.7c-1.1,0-2,0.9-2,2.1c0,1.2,0.9,2.1,2,2.1c0.6,0,1.2-0.3,1.6-0.7l0.6,0.6
		c-0.5,0.6-1.3,0.9-2.1,0.9c-1.7,0-2.9-1.3-2.9-3c0-1.7,1.2-3,2.9-3C77.5,48.7,78.3,49,78.8,49.6z"/>
	<path d="M84.3,49.6h-2.5v2.9c0,0.9,0.5,1.3,1.1,1.3c0.4,0,0.9-0.2,1.2-0.4l0.4,0.7c-0.4,0.3-1,0.6-1.7,0.6c-1.2,0-1.9-0.7-1.9-2.1
		v-2.9h-1.2v-0.8h1.2V47h0.9v1.8h2.5V49.6z"/>
	<path d="M94.7,47.7c-0.7-0.5-1.5-0.8-2.5-0.8c-1.3,0-2.2,0.6-2.2,1.5c0,0.8,0.6,1.2,1.9,1.4l0.8,0.1c1.4,0.2,2.6,0.8,2.6,2.2
		c0,1.7-1.5,2.5-3.3,2.5c-1.2,0-2.5-0.4-3.3-1.1l0.5-0.8c0.6,0.5,1.7,0.9,2.8,0.9c1.3,0,2.3-0.5,2.3-1.5c0-0.8-0.7-1.2-2-1.4
		l-0.8-0.1C90,50.5,89,49.9,89,48.5c0-1.6,1.4-2.5,3.2-2.5c1.3,0,2.2,0.4,3,0.9L94.7,47.7z"/>
	<path d="M100.9,49.6h-2.5v2.9c0,0.9,0.5,1.3,1.1,1.3c0.4,0,0.9-0.2,1.2-0.4l0.4,0.7c-0.4,0.3-1,0.6-1.7,0.6c-1.2,0-1.9-0.7-1.9-2.1
		v-2.9h-1.2v-0.8h1.2V47h0.9v1.8h2.5V49.6z"/>
	<path d="M108,51.7c0,1.7-1.3,3-3,3s-3-1.3-3-3c0-1.7,1.3-3,3-3S108,50,108,51.7z M102.9,51.7c0,1.2,0.9,2.1,2.1,2.1
		c1.2,0,2.1-0.9,2.1-2.1c0-1.2-0.9-2.1-2.1-2.1C103.8,49.5,102.9,50.4,102.9,51.7z"/>
	<path d="M113.3,48.9l-0.2,0.9c-0.3-0.1-0.7-0.2-1-0.2c-0.9,0-1.5,0.7-1.5,1.8v3.2h-0.9v-5.7h0.9v0.8c0.4-0.6,1-0.9,1.7-0.9
		C112.7,48.7,113,48.8,113.3,48.9z"/>
	<path d="M119.8,54.5h-0.9v-0.8c-0.5,0.6-1.1,1-2.1,1c-1.6,0-2.8-1.2-2.8-3c0-1.7,1.2-3,2.8-3c0.9,0,1.6,0.4,2.1,1v-0.8h0.9V54.5z
		 M114.9,51.7c0,1.2,0.8,2.1,2,2.1c1.2,0,2-0.9,2-2.1c0-1.2-0.8-2.1-2-2.1C115.7,49.5,114.9,50.5,114.9,51.7z"/>
	<path d="M126.3,49.7v-0.9h0.9v5.3c0,1.9-1.2,2.9-3,2.9c-0.9,0-1.8-0.3-2.4-0.8l0.4-0.7c0.5,0.4,1.2,0.7,2,0.7c1.2,0,2.1-0.7,2.1-2
		v-0.6c-0.4,0.6-1.1,1-2,1c-1.6,0-2.8-1.2-2.8-2.9c0-1.7,1.2-2.9,2.8-2.9C125.2,48.7,125.9,49.1,126.3,49.7z M122.4,51.6
		c0,1.2,0.8,2.1,2,2.1c1.2,0,2-0.9,2-2.1c0-1.2-0.8-2.1-2-2.1C123.2,49.5,122.4,50.5,122.4,51.6z"/>
	<path d="M134.4,51.6c0,0.1,0,0.2,0,0.3h-4.6c0.1,1.2,1,1.9,2,1.9c0.7,0,1.3-0.3,1.8-0.7l0.5,0.6c-0.7,0.7-1.5,0.9-2.3,0.9
		c-1.7,0-2.9-1.2-2.9-3c0-1.7,1.2-3,2.8-3C133.2,48.7,134.4,49.9,134.4,51.6z M129.8,51.2h3.6c-0.1-1.1-0.8-1.7-1.8-1.7
		C130.6,49.5,130,50.2,129.8,51.2z"/>
	<path d="M144.9,47.7c-0.7-0.5-1.5-0.8-2.5-0.8c-1.3,0-2.2,0.6-2.2,1.5c0,0.8,0.6,1.2,1.9,1.4l0.8,0.1c1.4,0.2,2.6,0.8,2.6,2.2
		c0,1.7-1.5,2.5-3.3,2.5c-1.2,0-2.5-0.4-3.3-1.1l0.5-0.8c0.6,0.5,1.7,0.9,2.8,0.9c1.3,0,2.3-0.5,2.3-1.5c0-0.8-0.7-1.2-2-1.4
		l-0.8-0.1c-1.4-0.2-2.5-0.8-2.5-2.2c0-1.6,1.4-2.5,3.2-2.5c1.3,0,2.2,0.4,3,0.9L144.9,47.7z"/>
	<path d="M152.4,51.6c0,0.1,0,0.2,0,0.3h-4.6c0.1,1.2,1,1.9,2,1.9c0.7,0,1.3-0.3,1.8-0.7l0.5,0.6c-0.7,0.7-1.5,0.9-2.3,0.9
		c-1.7,0-2.9-1.2-2.9-3c0-1.7,1.2-3,2.8-3C151.3,48.7,152.4,49.9,152.4,51.6z M147.9,51.2h3.6c-0.1-1.1-0.8-1.7-1.8-1.7
		C148.7,49.5,148,50.2,147.9,51.2z"/>
	<path d="M157.7,48.9l-0.2,0.9c-0.3-0.1-0.7-0.2-1-0.2c-0.9,0-1.5,0.7-1.5,1.8v3.2h-0.9v-5.7h0.9v0.8c0.4-0.6,1-0.9,1.7-0.9
		C157.1,48.7,157.4,48.8,157.7,48.9z"/>
	<path d="M161.9,54.5h-1l-2.4-5.7h1l2,4.8l2-4.8h0.9L161.9,54.5z"/>
	<path d="M170.5,51.6c0,0.1,0,0.2,0,0.3H166c0.1,1.2,1,1.9,2,1.9c0.7,0,1.3-0.3,1.8-0.7l0.5,0.6c-0.7,0.7-1.5,0.9-2.3,0.9
		c-1.7,0-2.9-1.2-2.9-3c0-1.7,1.2-3,2.8-3C169.4,48.7,170.5,49.9,170.5,51.6z M166,51.2h3.6c-0.1-1.1-0.8-1.7-1.8-1.7
		C166.8,49.5,166.1,50.2,166,51.2z"/>
	<path d="M175.8,48.9l-0.2,0.9c-0.3-0.1-0.7-0.2-1-0.2c-0.9,0-1.5,0.7-1.5,1.8v3.2h-0.9v-5.7h0.9v0.8c0.4-0.6,1-0.9,1.7-0.9
		C175.2,48.7,175.5,48.8,175.8,48.9z"/>
	<path d="M10.8,65.1h-1v3.8h-1v-8.4h1v3.7h1l3.5-3.7h1.2l-3.9,4.1l4.2,4.3h-1.3L10.8,65.1z"/>
	<path d="M23.1,68.9h-5.9v-8.4H23v0.9h-4.9v2.8h4.7v0.9h-4.7V68h4.9V68.9z"/>
	<path d="M30.7,62.1c-0.7-0.5-1.5-0.8-2.5-0.8c-1.3,0-2.2,0.6-2.2,1.5c0,0.8,0.6,1.2,1.9,1.4l0.8,0.1c1.4,0.2,2.6,0.8,2.6,2.2
		c0,1.7-1.5,2.5-3.3,2.5c-1.2,0-2.5-0.4-3.3-1.1l0.5-0.8c0.6,0.5,1.7,0.9,2.8,0.9c1.3,0,2.3-0.5,2.3-1.5c0-0.8-0.7-1.2-2-1.4
		l-0.8-0.1c-1.4-0.2-2.5-0.8-2.5-2.2c0-1.6,1.4-2.5,3.2-2.5c1.3,0,2.2,0.4,3,0.9L30.7,62.1z"/>
	<path d="M38.5,65.1h-1v3.8h-1v-8.4h1v3.7h1l3.5-3.7h1.2l-3.9,4.1l4.2,4.3h-1.3L38.5,65.1z"/>
	<path d="M49.4,66c0,0.1,0,0.2,0,0.3h-4.6c0.1,1.2,1,1.9,2,1.9c0.7,0,1.3-0.3,1.8-0.7l0.5,0.6c-0.7,0.7-1.5,0.9-2.3,0.9
		c-1.7,0-2.9-1.2-2.9-3c0-1.7,1.2-3,2.8-3C48.3,63.1,49.4,64.3,49.4,66z M44.9,65.6h3.6c-0.1-1.1-0.8-1.7-1.8-1.7
		C45.7,63.9,45,64.6,44.9,65.6z"/>
	<path d="M51.5,71.3h-1l2.1-3.7L50,63.2h1l2.1,3.6l2-3.6h1L51.5,71.3z"/>
	<path d="M69.1,68.9h-1v-7.3L65.2,68h-1l-2.9-6.3v7.3h-1v-8.4h1.5l2.9,6.3l2.9-6.3h1.5V68.9z"/>
	<path d="M76.8,68.9h-0.9V68c-0.4,0.6-1.1,1-2.1,1c-1.6,0-2.8-1.2-2.8-3c0-1.7,1.2-3,2.8-3c0.9,0,1.6,0.4,2.1,1v-0.8h0.9V68.9z
		 M71.9,66.1c0,1.2,0.8,2.1,2,2.1c1.2,0,2-0.9,2-2.1c0-1.2-0.8-2.1-2-2.1C72.7,63.9,71.9,64.9,71.9,66.1z"/>
	<path d="M84,65.4v3.5h-0.9v-3.2c0-1.1-0.6-1.7-1.6-1.7c-1,0-1.7,0.7-1.7,1.7v3.2h-0.9v-5.7h0.9V64c0.5-0.7,1.2-0.9,1.9-0.9
		C83.1,63.1,84,64,84,65.4z"/>
	<path d="M91.4,68.9h-0.9V68c-0.5,0.6-1.1,1-2.1,1c-1.6,0-2.8-1.2-2.8-3c0-1.7,1.2-3,2.8-3c0.9,0,1.6,0.4,2.1,1v-0.8h0.9V68.9z
		 M86.5,66.1c0,1.2,0.8,2.1,2,2.1c1.2,0,2-0.9,2-2.1c0-1.2-0.8-2.1-2-2.1C87.4,63.9,86.5,64.9,86.5,66.1z"/>
	<path d="M98,64.1v-0.9h0.9v5.3c0,1.9-1.2,2.9-3,2.9c-0.9,0-1.8-0.3-2.4-0.8l0.4-0.7c0.5,0.4,1.2,0.7,2,0.7c1.2,0,2.1-0.7,2.1-2V68
		c-0.4,0.6-1.1,1-2,1c-1.6,0-2.8-1.2-2.8-2.9c0-1.7,1.2-2.9,2.8-2.9C96.8,63.1,97.5,63.5,98,64.1z M94,66c0,1.2,0.8,2.1,2,2.1
		c1.2,0,2-0.9,2-2.1c0-1.2-0.8-2.1-2-2.1C94.8,63.9,94,64.9,94,66z"/>
	<path d="M106,66c0,0.1,0,0.2,0,0.3h-4.6c0.1,1.2,1,1.9,2,1.9c0.7,0,1.3-0.3,1.8-0.7l0.5,0.6c-0.7,0.7-1.5,0.9-2.3,0.9
		c-1.7,0-2.9-1.2-2.9-3c0-1.7,1.2-3,2.8-3C104.9,63.1,106,64.3,106,66z M101.5,65.6h3.6c-0.1-1.1-0.8-1.7-1.8-1.7
		C102.3,63.9,101.6,64.6,101.5,65.6z"/>
	<path d="M117.1,65.4v3.5h-0.9v-3.2c0-1.1-0.6-1.7-1.6-1.7c-1,0-1.7,0.7-1.7,1.7v3.2H112v-3.2c0-1.1-0.6-1.7-1.6-1.7
		c-1,0-1.7,0.7-1.7,1.7v3.2h-0.9v-5.7h0.9V64c0.5-0.7,1.2-0.9,1.9-0.9c1,0,1.8,0.4,2.1,1.2c0.5-0.9,1.3-1.2,2.1-1.2
		C116.2,63.1,117.1,64,117.1,65.4z"/>
	<path d="M124.2,66c0,0.1,0,0.2,0,0.3h-4.6c0.1,1.2,1,1.9,2,1.9c0.7,0,1.3-0.3,1.8-0.7l0.5,0.6c-0.7,0.7-1.5,0.9-2.3,0.9
		c-1.7,0-2.9-1.2-2.9-3c0-1.7,1.2-3,2.8-3C123.1,63.1,124.2,64.3,124.2,66z M119.7,65.6h3.6c-0.1-1.1-0.8-1.7-1.8-1.7
		C120.5,63.9,119.8,64.6,119.7,65.6z"/>
	<path d="M131.1,65.4v3.5h-0.9v-3.2c0-1.1-0.6-1.7-1.6-1.7c-1,0-1.7,0.7-1.7,1.7v3.2h-0.9v-5.7h0.9V64c0.5-0.7,1.2-0.9,1.9-0.9
		C130.1,63.1,131.1,64,131.1,65.4z"/>
	<path d="M136.9,64h-2.5v2.9c0,0.9,0.5,1.3,1.1,1.3c0.4,0,0.9-0.2,1.2-0.4l0.4,0.7c-0.4,0.3-1,0.6-1.7,0.6c-1.2,0-1.9-0.7-1.9-2.1
		V64h-1.2v-0.8h1.2v-1.8h0.9v1.8h2.5V64z"/>
	<path d="M147.3,62.1c-0.7-0.5-1.5-0.8-2.5-0.8c-1.3,0-2.2,0.6-2.2,1.5c0,0.8,0.6,1.2,1.9,1.4l0.8,0.1c1.4,0.2,2.6,0.8,2.6,2.2
		c0,1.7-1.5,2.5-3.3,2.5c-1.2,0-2.5-0.4-3.3-1.1l0.5-0.8c0.6,0.5,1.7,0.9,2.8,0.9c1.3,0,2.3-0.5,2.3-1.5c0-0.8-0.7-1.2-2-1.4
		l-0.8-0.1c-1.4-0.2-2.5-0.8-2.5-2.2c0-1.6,1.4-2.5,3.2-2.5c1.3,0,2.2,0.4,3,0.9L147.3,62.1z"/>
	<path d="M154.8,66c0,0.1,0,0.2,0,0.3h-4.6c0.1,1.2,1,1.9,2,1.9c0.7,0,1.3-0.3,1.8-0.7l0.5,0.6c-0.7,0.7-1.5,0.9-2.3,0.9
		c-1.7,0-2.9-1.2-2.9-3c0-1.7,1.2-3,2.8-3C153.7,63.1,154.8,64.3,154.8,66z M150.3,65.6h3.6c-0.1-1.1-0.8-1.7-1.8-1.7
		C151.1,63.9,150.4,64.6,150.3,65.6z"/>
	<path d="M160.1,63.3l-0.2,0.9c-0.3-0.1-0.7-0.2-1-0.2c-0.9,0-1.5,0.7-1.5,1.8v3.2h-0.9v-5.7h0.9V64c0.4-0.6,1-0.9,1.7-0.9
		C159.5,63.1,159.8,63.2,160.1,63.3z"/>
	<path d="M164.3,68.9h-1l-2.4-5.7h1l2,4.8l2-4.8h0.9L164.3,68.9z"/>
	<path d="M169.1,61.2c0,0.4-0.3,0.6-0.6,0.6c-0.4,0-0.6-0.3-0.6-0.6s0.3-0.6,0.6-0.6C168.8,60.6,169.1,60.8,169.1,61.2z M168.9,68.9
		H168v-5.7h0.9V68.9z"/>
	<path d="M175.6,64l-0.6,0.6c-0.4-0.4-0.9-0.7-1.6-0.7c-1.1,0-2,0.9-2,2.1c0,1.2,0.9,2.1,2,2.1c0.6,0,1.2-0.3,1.6-0.7l0.6,0.6
		c-0.5,0.6-1.3,0.9-2.1,0.9c-1.7,0-2.9-1.3-2.9-3c0-1.7,1.2-3,2.9-3C174.3,63.1,175.1,63.4,175.6,64z"/>
	<path d="M182.1,66c0,0.1,0,0.2,0,0.3h-4.6c0.1,1.2,1,1.9,2,1.9c0.7,0,1.3-0.3,1.8-0.7l0.5,0.6c-0.7,0.7-1.5,0.9-2.3,0.9
		c-1.7,0-2.9-1.2-2.9-3c0-1.7,1.2-3,2.8-3C180.9,63.1,182.1,64.3,182.1,66z M177.5,65.6h3.6c-0.1-1.1-0.8-1.7-1.8-1.7
		C178.3,63.9,177.7,64.6,177.5,65.6z"/>
	<path d="M17.6,83.3h-1V76l-2.9,6.4h-1L9.8,76v7.3h-1v-8.4h1.5l2.9,6.3l2.9-6.3h1.5V83.3z"/>
	<path d="M21,75.6c0,0.4-0.3,0.6-0.6,0.6c-0.4,0-0.6-0.3-0.6-0.6S20,75,20.4,75C20.7,75,21,75.2,21,75.6z M20.8,83.3h-0.9v-5.7h0.9
		V83.3z"/>
	<path d="M28.1,79.8v3.5h-0.9v-3.2c0-1.1-0.6-1.7-1.6-1.7c-1,0-1.7,0.7-1.7,1.7v3.2h-0.9v-5.7h0.9v0.8c0.5-0.7,1.2-0.9,1.9-0.9
		C27.1,77.5,28.1,78.4,28.1,79.8z"/>
	<path d="M31.2,83.3h-1v-8.4h1V83.3z"/>
	<path d="M41.9,79.1c0,2.5-1.8,4.3-4.3,4.3c-2.5,0-4.3-1.8-4.3-4.3s1.8-4.3,4.3-4.3C40,74.8,41.9,76.6,41.9,79.1z M34.2,79.1
		c0,2,1.4,3.4,3.3,3.4c1.9,0,3.3-1.4,3.3-3.4s-1.4-3.4-3.3-3.4C35.6,75.7,34.2,77.1,34.2,79.1z"/>
	<path d="M54.3,76.5l-0.8,0.5c-0.6-0.8-1.5-1.3-2.6-1.3c-1.9,0-3.3,1.4-3.3,3.4s1.4,3.4,3.3,3.4c1.1,0,2.1-0.5,2.6-1.3l0.8,0.6
		c-0.7,1-2,1.7-3.4,1.7c-2.5,0-4.3-1.8-4.3-4.3s1.8-4.3,4.3-4.3C52.3,74.8,53.6,75.4,54.3,76.5z"/>
	<path d="M61.5,80.5c0,1.7-1.3,3-3,3s-3-1.3-3-3c0-1.7,1.3-3,3-3S61.5,78.8,61.5,80.5z M56.4,80.5c0,1.2,0.9,2.1,2.1,2.1
		c1.2,0,2.1-0.9,2.1-2.1c0-1.2-0.9-2.1-2.1-2.1C57.3,78.3,56.4,79.2,56.4,80.5z"/>
	<path d="M68.3,79.8v3.5h-0.9v-3.2c0-1.1-0.6-1.7-1.6-1.7c-1,0-1.7,0.7-1.7,1.7v3.2h-0.9v-5.7H64v0.8c0.5-0.7,1.2-0.9,1.9-0.9
		C67.3,77.5,68.3,78.4,68.3,79.8z"/>
	<path d="M74.2,78.8c-0.4-0.3-1.1-0.5-1.9-0.5c-0.8,0-1.3,0.3-1.3,0.9c0,0.5,0.4,0.7,1.2,0.8l0.7,0.1c1.2,0.2,1.9,0.7,1.9,1.6
		c0,1.1-1,1.8-2.5,1.8c-0.7,0-1.6-0.2-2.4-0.7l0.4-0.7c0.4,0.3,1,0.6,2,0.6c1,0,1.6-0.3,1.6-0.9c0-0.5-0.4-0.7-1.2-0.8l-0.7-0.1
		c-1.3-0.2-1.9-0.7-1.9-1.6c0-1.1,0.9-1.7,2.3-1.7c0.9,0,1.7,0.3,2.3,0.6L74.2,78.8z"/>
	<path d="M81.8,80.5c0,1.7-1.3,3-3,3s-3-1.3-3-3c0-1.7,1.3-3,3-3S81.8,78.8,81.8,80.5z M76.7,80.5c0,1.2,0.9,2.1,2.1,2.1
		c1.2,0,2.1-0.9,2.1-2.1c0-1.2-0.9-2.1-2.1-2.1C77.6,78.3,76.7,79.2,76.7,80.5z"/>
	<path d="M84.4,83.3h-0.9v-8.6h0.9V83.3z"/>
	<path d="M91.5,80.4c0,0.1,0,0.2,0,0.3H87c0.1,1.2,1,1.9,2,1.9c0.7,0,1.3-0.3,1.8-0.7l0.5,0.6c-0.7,0.7-1.5,0.9-2.3,0.9
		c-1.7,0-2.9-1.2-2.9-3c0-1.7,1.2-3,2.8-3C90.4,77.5,91.5,78.7,91.5,80.4z M87,80h3.6c-0.1-1.1-0.8-1.7-1.8-1.7
		C87.8,78.3,87.1,79,87,80z"/>
	<path d="M102.1,76.5c-0.7-0.5-1.5-0.8-2.5-0.8c-1.3,0-2.2,0.6-2.2,1.5c0,0.8,0.6,1.2,1.9,1.4l0.8,0.1c1.4,0.2,2.6,0.8,2.6,2.2
		c0,1.7-1.5,2.5-3.3,2.5c-1.2,0-2.5-0.4-3.3-1.1l0.5-0.8c0.6,0.5,1.7,0.9,2.8,0.9c1.3,0,2.3-0.5,2.3-1.5c0-0.8-0.7-1.2-2-1.4
		l-0.8-0.1c-1.4-0.2-2.5-0.8-2.5-2.2c0-1.6,1.4-2.5,3.2-2.5c1.3,0,2.2,0.4,3,0.9L102.1,76.5z"/>
	<path d="M109.6,80.4c0,0.1,0,0.2,0,0.3H105c0.1,1.2,1,1.9,2,1.9c0.7,0,1.3-0.3,1.8-0.7l0.5,0.6c-0.7,0.7-1.5,0.9-2.3,0.9
		c-1.7,0-2.9-1.2-2.9-3c0-1.7,1.2-3,2.8-3C108.5,77.5,109.6,78.7,109.6,80.4z M105,80h3.6c-0.1-1.1-0.8-1.7-1.8-1.7
		C105.9,78.3,105.2,79,105,80z"/>
	<path d="M114.9,77.7l-0.2,0.9c-0.3-0.1-0.7-0.2-1-0.2c-0.9,0-1.5,0.7-1.5,1.8v3.2h-0.9v-5.7h0.9v0.8c0.4-0.6,1-0.9,1.7-0.9
		C114.3,77.5,114.6,77.6,114.9,77.7z"/>
	<path d="M119.1,83.3h-1l-2.4-5.7h1l2,4.8l2-4.8h0.9L119.1,83.3z"/>
	<path d="M127.7,80.4c0,0.1,0,0.2,0,0.3h-4.6c0.1,1.2,1,1.9,2,1.9c0.7,0,1.3-0.3,1.8-0.7l0.5,0.6c-0.7,0.7-1.5,0.9-2.3,0.9
		c-1.7,0-2.9-1.2-2.9-3c0-1.7,1.2-3,2.8-3C126.6,77.5,127.7,78.7,127.7,80.4z M123.1,80h3.6c-0.1-1.1-0.8-1.7-1.8-1.7
		C124,78.3,123.3,79,123.1,80z"/>
	<path d="M133,77.7l-0.2,0.9c-0.3-0.1-0.7-0.2-1-0.2c-0.9,0-1.5,0.7-1.5,1.8v3.2h-0.9v-5.7h0.9v0.8c0.4-0.6,1-0.9,1.7-0.9
		C132.4,77.5,132.7,77.6,133,77.7z"/>
</g>
<g>
	<g>
		<path d="M12,125.8h-0.9v4.2H8.6v-10.5h2.5v4.1H12l3-4.1h3.1l-4.1,5.1l4.4,5.4h-3.2L12,125.8z"/>
		<path d="M28.2,125.8c0,2.9-1.7,4.4-4.6,4.4s-4.6-1.6-4.6-4.4v-6.3h2.5v6.2c0,1.4,0.8,2.1,2.1,2.1c1.3,0,2.1-0.7,2.1-2.1v-6.2h2.5
			V125.8z"/>
		<path d="M34.5,119.5c2.7,0,4,1,4,3c0,1-0.6,1.8-1.4,2.2c0.9,0.3,1.7,1.2,1.7,2.3c0,1.9-1.3,3-4,3H30v-10.5H34.5z M32.5,121.6v2.1
			h2c0.9,0,1.5-0.3,1.5-1c0-0.8-0.6-1-1.5-1H32.5z M32.5,125.8v2.1h2.1c1,0,1.5-0.3,1.5-1.1c0-0.8-0.6-1.1-1.5-1.1H32.5z"/>
		<path d="M48.3,130h-8v-10.5h8v2.3h-5.5v1.8h5.2v2.3h-5.2v1.9h5.5V130z"/>
		<path d="M54.6,119.5c2.6,0,4,1.3,4,3.4c0,1.7-1.1,2.8-2.9,3.1l3,4h-3l-2.8-3.9h-0.4v3.9H50v-10.5H54.6z M52.5,121.8v2.2h2
			c0.9,0,1.5-0.4,1.5-1.1c0-0.7-0.6-1.1-1.5-1.1H52.5z"/>
		<path d="M69.8,130h-2.4l-4.8-6.4v6.4h-2.5v-10.5h2.4l4.8,6.4v-6.4h2.5V130z"/>
		<path d="M79.7,130h-8v-10.5h8v2.3h-5.5v1.8h5.2v2.3h-5.2v1.9h5.5V130z"/>
		<path d="M89.4,121.8h-3.1v8.2h-2.5v-8.2h-3.1v-2.3h8.7V121.8z"/>
		<path d="M98.6,130h-8v-10.5h8v2.3h-5.5v1.8h5.2v2.3h-5.2v1.9h5.5V130z"/>
		<path d="M107.6,122.5c-0.8-0.5-1.8-0.9-3-0.9c-1,0-1.7,0.3-1.7,0.9c0,0.7,1,0.8,2.2,1l0.4,0.1c2,0.4,3.3,1.3,3.3,3
			c0,2.5-2.2,3.5-4.4,3.5c-1.8,0-3.5-0.5-4.6-1.3l1.3-2c0.8,0.5,1.9,1.1,3.4,1.1c0.9,0,1.7-0.3,1.7-1c0-0.6-0.7-0.8-2.1-1l-0.5-0.1
			c-2.2-0.3-3.3-1.3-3.3-3.2c0-2,1.8-3.3,4.2-3.3c1.4,0,2.7,0.2,4.2,1.1L107.6,122.5z"/>
	</g>
</g>
<g>
	<path d="M10.8,148.1h-1v3.8h-1v-8.4h1v3.7h1l3.5-3.7h1.2l-3.9,4.1l4.2,4.3h-1.3L10.8,148.1z"/>
	<path d="M21.7,149.5c0,1.7-1.2,2.5-2.6,2.5c-1.4,0-2.6-0.8-2.6-2.5v-3.3h0.9v3.2c0,1.2,0.7,1.7,1.7,1.7s1.7-0.6,1.7-1.7v-3.2h0.9
		V149.5z"/>
	<path d="M29.6,149c0,1.7-1.2,3-2.8,3c-0.9,0-1.6-0.4-2.1-1v0.8h-0.9v-8.6h0.9v3.8c0.5-0.6,1.1-1,2.1-1
		C28.3,146.1,29.6,147.3,29.6,149z M24.6,149c0,1.2,0.8,2.1,2,2.1c1.2,0,2-0.9,2-2.1c0-1.2-0.8-2.1-2-2.1
		C25.5,146.9,24.6,147.8,24.6,149z"/>
	<path d="M36.3,149c0,0.1,0,0.2,0,0.3h-4.6c0.1,1.2,1,1.9,2,1.9c0.7,0,1.3-0.3,1.8-0.7l0.5,0.6c-0.7,0.7-1.5,0.9-2.3,0.9
		c-1.7,0-2.9-1.2-2.9-3c0-1.7,1.2-3,2.8-3C35.2,146.1,36.3,147.3,36.3,149z M31.8,148.6h3.6c-0.1-1.1-0.8-1.7-1.8-1.7
		C32.6,146.9,31.9,147.6,31.8,148.6z"/>
	<path d="M41.6,146.3l-0.2,0.9c-0.3-0.1-0.7-0.2-1-0.2c-0.9,0-1.5,0.7-1.5,1.8v3.2H38v-5.7h0.9v0.8c0.4-0.6,1-0.9,1.7-0.9
		C41,146.1,41.3,146.1,41.6,146.3z"/>
	<path d="M48.1,148.4v3.5h-0.9v-3.2c0-1.1-0.6-1.7-1.6-1.7c-1,0-1.7,0.7-1.7,1.7v3.2H43v-5.7h0.9v0.8c0.5-0.7,1.2-0.9,1.9-0.9
		C47.2,146.1,48.1,147,48.1,148.4z"/>
	<path d="M55.2,149c0,0.1,0,0.2,0,0.3h-4.6c0.1,1.2,1,1.9,2,1.9c0.7,0,1.3-0.3,1.8-0.7l0.5,0.6c-0.7,0.7-1.5,0.9-2.3,0.9
		c-1.7,0-2.9-1.2-2.9-3c0-1.7,1.2-3,2.8-3C54.1,146.1,55.2,147.3,55.2,149z M50.7,148.6h3.6c-0.1-1.1-0.8-1.7-1.8-1.7
		C51.5,146.9,50.8,147.6,50.7,148.6z"/>
	<path d="M60.7,147h-2.5v2.9c0,0.9,0.5,1.3,1.1,1.3c0.4,0,0.9-0.2,1.2-0.4l0.4,0.7c-0.4,0.3-1,0.6-1.7,0.6c-1.2,0-1.9-0.7-1.9-2.1
		V147h-1.2v-0.8h1.2v-1.8h0.9v1.8h2.5V147z"/>
	<path d="M67.3,149c0,0.1,0,0.2,0,0.3h-4.6c0.1,1.2,1,1.9,2,1.9c0.7,0,1.3-0.3,1.8-0.7l0.5,0.6c-0.7,0.7-1.5,0.9-2.3,0.9
		c-1.7,0-2.9-1.2-2.9-3c0-1.7,1.2-3,2.8-3C66.2,146.1,67.3,147.3,67.3,149z M62.8,148.6h3.6c-0.1-1.1-0.8-1.7-1.8-1.7
		C63.6,146.9,62.9,147.6,62.8,148.6z"/>
	<path d="M72.8,147.4c-0.4-0.3-1.1-0.5-1.9-0.5c-0.8,0-1.3,0.3-1.3,0.9c0,0.5,0.4,0.7,1.2,0.8l0.7,0.1c1.2,0.2,1.9,0.7,1.9,1.6
		c0,1.1-1,1.8-2.5,1.8c-0.7,0-1.6-0.2-2.4-0.7l0.4-0.7c0.4,0.3,1,0.6,2,0.6c1,0,1.6-0.3,1.6-0.9c0-0.5-0.4-0.7-1.2-0.8l-0.7-0.1
		c-1.3-0.2-1.9-0.7-1.9-1.6c0-1.1,0.9-1.7,2.3-1.7c0.9,0,1.7,0.3,2.3,0.6L72.8,147.4z"/>
	<path d="M85.5,145.1l-0.8,0.5c-0.6-0.8-1.5-1.3-2.6-1.3c-1.9,0-3.3,1.4-3.3,3.4s1.4,3.4,3.3,3.4c1.1,0,2.1-0.5,2.6-1.3l0.8,0.6
		c-0.7,1-2,1.7-3.4,1.7c-2.5,0-4.3-1.8-4.3-4.3s1.8-4.3,4.3-4.3C83.6,143.4,84.9,144,85.5,145.1z"/>
	<path d="M92.7,149c0,1.7-1.3,3-3,3s-3-1.3-3-3c0-1.7,1.3-3,3-3S92.7,147.4,92.7,149z M87.7,149c0,1.2,0.9,2.1,2.1,2.1
		c1.2,0,2.1-0.9,2.1-2.1c0-1.2-0.9-2.1-2.1-2.1C88.6,146.9,87.7,147.8,87.7,149z"/>
	<path d="M99.6,148.4v3.5h-0.9v-3.2c0-1.1-0.6-1.7-1.6-1.7c-1,0-1.7,0.7-1.7,1.7v3.2h-0.9v-5.7h0.9v0.8c0.5-0.7,1.2-0.9,1.9-0.9
		C98.6,146.1,99.6,147,99.6,148.4z"/>
	<path d="M105.4,147h-2.5v2.9c0,0.9,0.5,1.3,1.1,1.3c0.4,0,0.9-0.2,1.2-0.4l0.4,0.7c-0.4,0.3-1,0.6-1.7,0.6c-1.2,0-1.9-0.7-1.9-2.1
		V147h-1.2v-0.8h1.2v-1.8h0.9v1.8h2.5V147z"/>
	<path d="M110.6,146.3l-0.2,0.9c-0.3-0.1-0.7-0.2-1-0.2c-0.9,0-1.5,0.7-1.5,1.8v3.2H107v-5.7h0.9v0.8c0.4-0.6,1-0.9,1.7-0.9
		C109.9,146.1,110.3,146.1,110.6,146.3z"/>
	<path d="M117.3,149c0,1.7-1.3,3-3,3s-3-1.3-3-3c0-1.7,1.3-3,3-3S117.3,147.4,117.3,149z M112.2,149c0,1.2,0.9,2.1,2.1,2.1
		c1.2,0,2.1-0.9,2.1-2.1c0-1.2-0.9-2.1-2.1-2.1C113.1,146.9,112.2,147.8,112.2,149z"/>
	<path d="M119.8,151.9h-0.9v-8.6h0.9V151.9z"/>
	<path d="M126.3,148.5v3.4h-1v-8.4h3.2c1.9,0,3,0.9,3,2.5s-1.1,2.5-3,2.5H126.3z M126.3,144.4v3.2h2.2c1.3,0,2-0.5,2-1.6
		s-0.7-1.6-2-1.6H126.3z"/>
	<path d="M134,151.9h-0.9v-8.6h0.9V151.9z"/>
	<path d="M141.5,151.9h-0.9V151c-0.5,0.6-1.1,1-2.1,1c-1.6,0-2.8-1.2-2.8-3c0-1.7,1.2-3,2.8-3c0.9,0,1.6,0.4,2.1,1v-0.8h0.9V151.9z
		 M136.6,149c0,1.2,0.8,2.1,2,2.1c1.2,0,2-0.9,2-2.1c0-1.2-0.8-2.1-2-2.1C137.4,146.9,136.6,147.9,136.6,149z"/>
	<path d="M148.7,148.4v3.5h-0.9v-3.2c0-1.1-0.6-1.7-1.6-1.7c-1,0-1.7,0.7-1.7,1.7v3.2h-0.9v-5.7h0.9v0.8c0.5-0.7,1.2-0.9,1.9-0.9
		C147.8,146.1,148.7,147,148.7,148.4z"/>
	<path d="M155.8,149c0,0.1,0,0.2,0,0.3h-4.6c0.1,1.2,1,1.9,2,1.9c0.7,0,1.3-0.3,1.8-0.7l0.5,0.6c-0.7,0.7-1.5,0.9-2.3,0.9
		c-1.7,0-2.9-1.2-2.9-3c0-1.7,1.2-3,2.8-3C154.7,146.1,155.8,147.3,155.8,149z M151.3,148.6h3.6c-0.1-1.1-0.8-1.7-1.8-1.7
		C152.1,146.9,151.4,147.6,151.3,148.6z"/>
	<path d="M17.6,166.3h-1V159l-2.9,6.4h-1L9.8,159v7.3h-1v-8.4h1.5l2.9,6.3l2.9-6.3h1.5V166.3z"/>
	<path d="M21,158.6c0,0.4-0.3,0.6-0.6,0.6c-0.4,0-0.6-0.3-0.6-0.6s0.3-0.6,0.6-0.6C20.7,157.9,21,158.2,21,158.6z M20.8,166.3h-0.9
		v-5.7h0.9V166.3z"/>
	<path d="M28.1,162.8v3.5h-0.9v-3.2c0-1.1-0.6-1.7-1.6-1.7c-1,0-1.7,0.7-1.7,1.7v3.2h-0.9v-5.7h0.9v0.8c0.5-0.7,1.2-0.9,1.9-0.9
		C27.1,160.5,28.1,161.4,28.1,162.8z"/>
	<path d="M31.2,166.3h-1v-8.4h1V166.3z"/>
	<path d="M41.9,162.1c0,2.5-1.8,4.3-4.3,4.3c-2.5,0-4.3-1.8-4.3-4.3s1.8-4.3,4.3-4.3C40,157.8,41.9,159.6,41.9,162.1z M34.2,162.1
		c0,2,1.4,3.4,3.3,3.4c1.9,0,3.3-1.4,3.3-3.4s-1.4-3.4-3.3-3.4C35.6,158.7,34.2,160.1,34.2,162.1z"/>
	<path d="M49,162.5h-1v3.8h-1v-8.4h1v3.7h1l3.5-3.7h1.2l-3.9,4.1l4.2,4.3h-1.3L49,162.5z"/>
	<path d="M59.9,163.9c0,1.7-1.2,2.5-2.6,2.5c-1.4,0-2.6-0.8-2.6-2.5v-3.3h0.9v3.2c0,1.2,0.7,1.7,1.7,1.7s1.7-0.6,1.7-1.7v-3.2h0.9
		V163.9z"/>
	<path d="M67.7,163.4c0,1.7-1.2,3-2.8,3c-0.9,0-1.6-0.4-2.1-1v0.8h-0.9v-8.6h0.9v3.8c0.4-0.6,1.1-1,2.1-1
		C66.5,160.5,67.7,161.7,67.7,163.4z M62.8,163.4c0,1.2,0.8,2.1,2,2.1c1.2,0,2-0.9,2-2.1c0-1.2-0.8-2.1-2-2.1
		C63.6,161.3,62.8,162.2,62.8,163.4z"/>
	<path d="M74.5,163.4c0,0.1,0,0.2,0,0.3h-4.6c0.1,1.2,1,1.9,2,1.9c0.7,0,1.3-0.3,1.8-0.7l0.5,0.6c-0.7,0.7-1.5,0.9-2.3,0.9
		c-1.7,0-2.9-1.2-2.9-3c0-1.7,1.2-3,2.8-3C73.3,160.5,74.5,161.7,74.5,163.4z M69.9,163h3.6c-0.1-1.1-0.8-1.7-1.8-1.7
		C70.7,161.3,70.1,162,69.9,163z"/>
	<path d="M79.8,160.7l-0.2,0.9c-0.3-0.1-0.7-0.2-1-0.2c-0.9,0-1.5,0.7-1.5,1.8v3.2h-0.9v-5.7H77v0.8c0.4-0.6,1-0.9,1.7-0.9
		C79.1,160.5,79.5,160.5,79.8,160.7z"/>
	<path d="M86.3,162.8v3.5h-0.9v-3.2c0-1.1-0.6-1.7-1.6-1.7c-1,0-1.7,0.7-1.7,1.7v3.2h-0.9v-5.7H82v0.8c0.5-0.7,1.2-0.9,1.9-0.9
		C85.3,160.5,86.3,161.4,86.3,162.8z"/>
	<path d="M93.4,163.4c0,0.1,0,0.2,0,0.3h-4.6c0.1,1.2,1,1.9,2,1.9c0.7,0,1.3-0.3,1.8-0.7l0.5,0.6c-0.7,0.7-1.5,0.9-2.3,0.9
		c-1.7,0-2.9-1.2-2.9-3c0-1.7,1.2-3,2.8-3C92.3,160.5,93.4,161.7,93.4,163.4z M88.8,163h3.6c-0.1-1.1-0.8-1.7-1.8-1.7
		C89.6,161.3,89,162,88.8,163z"/>
	<path d="M98.8,161.4h-2.5v2.9c0,0.9,0.5,1.3,1.1,1.3c0.4,0,0.9-0.2,1.2-0.4l0.4,0.7c-0.4,0.3-1,0.6-1.7,0.6c-1.2,0-1.9-0.7-1.9-2.1
		v-2.9h-1.2v-0.8h1.2v-1.8h0.9v1.8h2.5V161.4z"/>
	<path d="M105.5,163.4c0,0.1,0,0.2,0,0.3h-4.6c0.1,1.2,1,1.9,2,1.9c0.7,0,1.3-0.3,1.8-0.7l0.5,0.6c-0.7,0.7-1.5,0.9-2.3,0.9
		c-1.7,0-2.9-1.2-2.9-3c0-1.7,1.2-3,2.8-3C104.3,160.5,105.5,161.7,105.5,163.4z M100.9,163h3.6c-0.1-1.1-0.8-1.7-1.8-1.7
		C101.7,161.3,101.1,162,100.9,163z"/>
	<path d="M110.9,161.8c-0.4-0.3-1.1-0.5-1.9-0.5c-0.8,0-1.3,0.3-1.3,0.9c0,0.5,0.4,0.7,1.2,0.8l0.7,0.1c1.2,0.2,1.9,0.7,1.9,1.6
		c0,1.1-1,1.8-2.5,1.8c-0.7,0-1.6-0.2-2.4-0.7l0.4-0.7c0.4,0.3,1,0.6,2,0.6c1,0,1.6-0.3,1.6-0.9c0-0.5-0.4-0.7-1.2-0.8l-0.7-0.1
		c-1.3-0.2-1.9-0.7-1.9-1.6c0-1.1,0.9-1.7,2.3-1.7c0.9,0,1.7,0.3,2.3,0.6L110.9,161.8z"/>
	<path d="M117.4,162.9v3.4h-1v-8.4h3.2c1.9,0,3,0.9,3,2.5s-1.1,2.5-3,2.5H117.4z M117.4,158.8v3.2h2.2c1.3,0,2-0.5,2-1.6
		s-0.7-1.6-2-1.6H117.4z"/>
	<path d="M125.1,166.3h-0.9v-8.6h0.9V166.3z"/>
	<path d="M132.3,163.9c0,1.7-1.2,2.5-2.6,2.5c-1.4,0-2.6-0.8-2.6-2.5v-3.3h0.9v3.2c0,1.2,0.7,1.7,1.7,1.7s1.7-0.6,1.7-1.7v-3.2h0.9
		V163.9z"/>
	<path d="M138.8,161.4v-0.9h0.9v5.3c0,1.9-1.2,2.9-3,2.9c-0.9,0-1.8-0.3-2.4-0.8l0.4-0.7c0.5,0.4,1.2,0.7,2,0.7c1.2,0,2.1-0.7,2.1-2
		v-0.6c-0.4,0.6-1.1,1-2,1c-1.6,0-2.8-1.2-2.8-2.9c0-1.7,1.2-2.9,2.8-2.9C137.7,160.5,138.3,160.9,138.8,161.4z M134.8,163.4
		c0,1.2,0.8,2.1,2,2.1c1.2,0,2-0.9,2-2.1c0-1.2-0.8-2.1-2-2.1C135.6,161.3,134.8,162.2,134.8,163.4z"/>
	<path d="M142.9,158.6c0,0.4-0.3,0.6-0.6,0.6c-0.4,0-0.6-0.3-0.6-0.6s0.3-0.6,0.6-0.6C142.6,157.9,142.9,158.2,142.9,158.6z
		 M142.7,166.3h-0.9v-5.7h0.9V166.3z"/>
	<path d="M149.9,162.8v3.5H149v-3.2c0-1.1-0.6-1.7-1.6-1.7c-1,0-1.7,0.7-1.7,1.7v3.2h-0.9v-5.7h0.9v0.8c0.5-0.7,1.2-0.9,1.9-0.9
		C149,160.5,149.9,161.4,149.9,162.8z"/>
</g>
<g>
	<g>
		<path d="M11.1,229.5H8.6V219h2.5V229.5z"/>
		<path d="M22.7,229.5h-2.4l-4.8-6.4v6.4H13V219h2.4l4.8,6.4V219h2.5V229.5z"/>
		<path d="M32.2,225.5h-5.1v4h-2.5V219h7.9v2.3h-5.4v2h5.1V225.5z"/>
		<path d="M38.6,219c2.6,0,4,1.3,4,3.4c0,1.7-1.1,2.8-2.9,3.1l3,4h-3l-2.8-3.9h-0.4v3.9h-2.5V219H38.6z M36.6,221.3v2.2h2
			c0.9,0,1.5-0.4,1.5-1.1c0-0.7-0.6-1.1-1.5-1.1H36.6z"/>
		<path d="M54.2,229.5h-2.7l-0.8-2.2h-4.2l-0.8,2.2h-2.6l4-10.5h3L54.2,229.5z M47.4,225h2.6l-1.3-3.5L47.4,225z"/>
		<path d="M62.4,222c-0.8-0.5-1.8-0.9-3-0.9c-1,0-1.7,0.3-1.7,0.9c0,0.7,1,0.8,2.2,1l0.4,0.1c2,0.4,3.3,1.3,3.3,3
			c0,2.5-2.2,3.5-4.4,3.5c-1.8,0-3.5-0.5-4.6-1.3l1.3-2c0.8,0.5,1.9,1.1,3.4,1.1c0.9,0,1.7-0.3,1.7-1c0-0.6-0.7-0.8-2.1-1l-0.5-0.1
			c-2.2-0.3-3.3-1.3-3.3-3.2c0-2,1.8-3.3,4.2-3.3c1.4,0,2.6,0.2,4.2,1.1L62.4,222z"/>
		<path d="M73.1,221.3H70v8.2h-2.5v-8.2h-3.1V219h8.7V221.3z"/>
		<path d="M78.8,219c2.6,0,4,1.3,4,3.4c0,1.7-1.1,2.8-2.9,3.1l3,4h-3l-2.8-3.9h-0.4v3.9h-2.5V219H78.8z M76.7,221.3v2.2h2
			c0.9,0,1.5-0.4,1.5-1.1c0-0.7-0.6-1.1-1.5-1.1H76.7z"/>
		<path d="M93.4,225.3c0,2.9-1.7,4.4-4.6,4.4c-2.9,0-4.6-1.6-4.6-4.4V219h2.5v6.2c0,1.4,0.8,2.1,2.1,2.1c1.3,0,2.1-0.7,2.1-2.1V219
			h2.5V225.3z"/>
		<path d="M105,221.3l-2.2,1.3c-0.5-0.9-1.4-1.4-2.5-1.4c-1.7,0-2.9,1.2-2.9,3c0,2,1.3,3,2.9,3c1.1,0,1.9-0.5,2.5-1.4l2.1,1.5
			c-1,1.4-2.6,2.3-4.6,2.3c-3.2,0-5.5-2.3-5.5-5.5c0-3.2,2.3-5.5,5.5-5.5C102.3,218.8,104.1,219.7,105,221.3z"/>
		<path d="M114.5,221.3h-3.1v8.2h-2.5v-8.2h-3.1V219h8.7V221.3z"/>
		<path d="M124.7,225.3c0,2.9-1.7,4.4-4.6,4.4c-2.9,0-4.6-1.6-4.6-4.4V219h2.5v6.2c0,1.4,0.8,2.1,2.1,2.1c1.3,0,2.1-0.7,2.1-2.1V219
			h2.5V225.3z"/>
		<path d="M131.1,219c2.6,0,4,1.3,4,3.4c0,1.7-1.1,2.8-2.9,3.1l3,4h-3l-2.8-3.9H129v3.9h-2.5V219H131.1z M129,221.3v2.2h2
			c0.9,0,1.5-0.4,1.5-1.1c0-0.7-0.6-1.1-1.5-1.1H129z"/>
		<path d="M144.7,229.5h-8V219h8v2.3h-5.5v1.8h5.2v2.3h-5.2v1.9h5.5V229.5z"/>
	</g>
</g>
<g>
	<path d="M17,247.2c0,2.5-1.8,4.3-4.3,4.3c-2.5,0-4.3-1.8-4.3-4.3s1.8-4.3,4.3-4.3C15.2,242.9,17,244.7,17,247.2z M9.4,247.2
		c0,2,1.4,3.4,3.3,3.4c1.9,0,3.3-1.4,3.3-3.4s-1.4-3.4-3.3-3.4C10.8,243.8,9.4,245.2,9.4,247.2z"/>
	<path d="M24,247.9v3.5h-0.9v-3.2c0-1.1-0.6-1.7-1.6-1.7c-1,0-1.7,0.7-1.7,1.7v3.2h-0.9v-5.7h0.9v0.8c0.5-0.7,1.2-0.9,1.9-0.9
		C23,245.6,24,246.5,24,247.9z"/>
	<path d="M29.2,248.6h-3.3v-0.8h3.3V248.6z"/>
	<path d="M32.2,248v3.4h-1V243h3.2c1.9,0,3,0.9,3,2.5s-1.1,2.5-3,2.5H32.2z M32.2,243.9v3.2h2.2c1.3,0,2-0.5,2-1.6s-0.7-1.6-2-1.6
		H32.2z"/>
	<path d="M42.6,245.8l-0.2,0.9c-0.3-0.1-0.7-0.2-1-0.2c-0.9,0-1.5,0.7-1.5,1.8v3.2H39v-5.7h0.9v0.8c0.4-0.6,1-0.9,1.7-0.9
		C42,245.6,42.3,245.6,42.6,245.8z"/>
	<path d="M48.8,248.5c0,0.1,0,0.2,0,0.3h-4.6c0.1,1.2,1,1.9,2,1.9c0.7,0,1.3-0.3,1.8-0.7l0.5,0.6c-0.7,0.7-1.5,0.9-2.3,0.9
		c-1.7,0-2.9-1.2-2.9-3c0-1.7,1.2-3,2.8-3C47.7,245.6,48.8,246.8,48.8,248.5z M44.3,248.1h3.6c-0.1-1.1-0.8-1.7-1.8-1.7
		C45.1,246.4,44.4,247.1,44.3,248.1z"/>
	<path d="M59.9,247.9v3.5H59v-3.2c0-1.1-0.6-1.7-1.6-1.7c-1,0-1.7,0.7-1.7,1.7v3.2h-0.9v-3.2c0-1.1-0.6-1.7-1.6-1.7
		c-1,0-1.7,0.7-1.7,1.7v3.2h-0.9v-5.7h0.9v0.8c0.5-0.7,1.2-0.9,1.9-0.9c1,0,1.8,0.4,2.1,1.2c0.5-0.9,1.3-1.2,2.1-1.2
		C59,245.6,59.9,246.5,59.9,247.9z"/>
	<path d="M68.6,243c1.8,0,3,0.6,3,2.2c0,0.9-0.5,1.6-1.3,1.9c0.8,0.3,1.4,0.9,1.4,2c0,1.6-1.2,2.3-3.1,2.3h-3.4V243H68.6z
		 M66.3,243.9v2.8h2.3c1.2,0,2.1-0.3,2.1-1.4c0-1.1-0.9-1.4-2.1-1.4H66.3z M66.3,247.6v2.9h2.4c1.3,0,2.1-0.3,2.1-1.5
		c0-1.1-0.8-1.4-2.1-1.4H66.3z"/>
	<path d="M79,251.4h-0.9v-0.8c-0.4,0.6-1.1,1-2.1,1c-1.6,0-2.8-1.2-2.8-3c0-1.7,1.2-3,2.8-3c0.9,0,1.6,0.4,2.1,1v-0.8H79V251.4z
		 M74.1,248.5c0,1.2,0.8,2.1,2,2.1c1.2,0,2-0.9,2-2.1c0-1.2-0.8-2.1-2-2.1C74.9,246.4,74.1,247.4,74.1,248.5z"/>
	<path d="M84.7,245.8l-0.2,0.9c-0.3-0.1-0.7-0.2-1-0.2c-0.9,0-1.5,0.7-1.5,1.8v3.2h-0.9v-5.7H82v0.8c0.4-0.6,1-0.9,1.7-0.9
		C84,245.6,84.4,245.6,84.7,245.8z"/>
	<path d="M90.9,248.5c0,0.1,0,0.2,0,0.3h-4.6c0.1,1.2,1,1.9,2,1.9c0.7,0,1.3-0.3,1.8-0.7l0.5,0.6c-0.7,0.7-1.5,0.9-2.3,0.9
		c-1.7,0-2.9-1.2-2.9-3c0-1.7,1.2-3,2.8-3C89.7,245.6,90.8,246.8,90.9,248.5z M86.3,248.1h3.6c-0.1-1.1-0.8-1.7-1.8-1.7
		C87.1,246.4,86.4,247.1,86.3,248.1z"/>
	<path d="M104.7,251.4h-1v-7.3l-2.9,6.4h-1l-2.9-6.3v7.3h-1V243h1.5l2.9,6.3l2.9-6.3h1.5V251.4z"/>
	<path d="M112,248.5c0,0.1,0,0.2,0,0.3h-4.6c0.1,1.2,1,1.9,2,1.9c0.7,0,1.3-0.3,1.8-0.7l0.5,0.6c-0.7,0.7-1.5,0.9-2.3,0.9
		c-1.7,0-2.9-1.2-2.9-3c0-1.7,1.2-3,2.8-3C110.9,245.6,112,246.8,112,248.5z M107.5,248.1h3.6c-0.1-1.1-0.8-1.7-1.8-1.7
		C108.3,246.4,107.6,247.1,107.5,248.1z"/>
	<path d="M117.5,246.5H115v2.9c0,0.9,0.5,1.3,1.1,1.3c0.4,0,0.9-0.2,1.2-0.4l0.4,0.7c-0.4,0.3-1,0.6-1.7,0.6c-1.2,0-1.9-0.7-1.9-2.1
		v-2.9h-1.2v-0.8h1.2v-1.8h0.9v1.8h2.5V246.5z"/>
	<path d="M124.4,251.4h-0.9v-0.8c-0.4,0.6-1.1,1-2.1,1c-1.6,0-2.8-1.2-2.8-3c0-1.7,1.2-3,2.8-3c0.9,0,1.6,0.4,2.1,1v-0.8h0.9V251.4z
		 M119.5,248.5c0,1.2,0.8,2.1,2,2.1c1.2,0,2-0.9,2-2.1c0-1.2-0.8-2.1-2-2.1C120.3,246.4,119.5,247.4,119.5,248.5z"/>
	<path d="M127.4,251.4h-0.9v-8.6h0.9V251.4z"/>
	<path d="M138.4,244.6c-0.7-0.5-1.5-0.8-2.5-0.8c-1.3,0-2.2,0.6-2.2,1.5c0,0.8,0.6,1.2,1.9,1.4l0.8,0.1c1.4,0.2,2.6,0.8,2.6,2.2
		c0,1.7-1.5,2.5-3.3,2.5c-1.2,0-2.5-0.4-3.3-1.1l0.5-0.8c0.6,0.5,1.7,0.9,2.8,0.9c1.3,0,2.3-0.5,2.3-1.5c0-0.8-0.7-1.2-2-1.4
		l-0.8-0.1c-1.4-0.2-2.5-0.8-2.5-2.2c0-1.6,1.4-2.5,3.2-2.5c1.3,0,2.2,0.4,3,0.9L138.4,244.6z"/>
	<path d="M145.9,248.5c0,0.1,0,0.2,0,0.3h-4.6c0.1,1.2,1,1.9,2,1.9c0.7,0,1.3-0.3,1.8-0.7l0.5,0.6c-0.7,0.7-1.5,0.9-2.3,0.9
		c-1.7,0-2.9-1.2-2.9-3c0-1.7,1.2-3,2.8-3C144.8,245.6,145.9,246.8,145.9,248.5z M141.4,248.1h3.6c-0.1-1.1-0.8-1.7-1.8-1.7
		C142.2,246.4,141.5,247.1,141.4,248.1z"/>
	<path d="M151.2,245.8l-0.2,0.9c-0.3-0.1-0.7-0.2-1-0.2c-0.9,0-1.5,0.7-1.5,1.8v3.2h-0.9v-5.7h0.9v0.8c0.4-0.6,1-0.9,1.7-0.9
		C150.6,245.6,150.9,245.6,151.2,245.8z"/>
	<path d="M155.4,251.4h-1l-2.4-5.7h1l2,4.8l2-4.8h0.9L155.4,251.4z"/>
	<path d="M164,248.5c0,0.1,0,0.2,0,0.3h-4.6c0.1,1.2,1,1.9,2,1.9c0.7,0,1.3-0.3,1.8-0.7l0.5,0.6c-0.7,0.7-1.5,0.9-2.3,0.9
		c-1.7,0-2.9-1.2-2.9-3c0-1.7,1.2-3,2.8-3C162.9,245.6,164,246.8,164,248.5z M159.5,248.1h3.6c-0.1-1.1-0.8-1.7-1.8-1.7
		C160.3,246.4,159.6,247.1,159.5,248.1z"/>
	<path d="M169.3,245.8l-0.2,0.9c-0.3-0.1-0.7-0.2-1-0.2c-0.9,0-1.5,0.7-1.5,1.8v3.2h-0.9v-5.7h0.9v0.8c0.4-0.6,1-0.9,1.7-0.9
		C168.7,245.6,169,245.6,169.3,245.8z"/>
	<path d="M174.4,246.9c-0.4-0.3-1.1-0.5-1.9-0.5c-0.8,0-1.3,0.3-1.3,0.9c0,0.5,0.4,0.7,1.2,0.8l0.7,0.1c1.2,0.2,1.9,0.7,1.9,1.6
		c0,1.1-1,1.8-2.5,1.8c-0.7,0-1.6-0.2-2.4-0.7l0.4-0.7c0.4,0.3,1,0.6,2,0.6c1,0,1.6-0.3,1.6-0.9c0-0.5-0.4-0.7-1.2-0.8l-0.7-0.1
		c-1.3-0.2-1.9-0.7-1.9-1.6c0-1.1,0.9-1.7,2.3-1.7c0.9,0,1.7,0.3,2.3,0.6L174.4,246.9z"/>
	<path d="M16.1,259l-0.8,0.5c-0.6-0.8-1.5-1.3-2.6-1.3c-1.9,0-3.3,1.4-3.3,3.4s1.4,3.4,3.3,3.4c1.1,0,2.1-0.5,2.6-1.3l0.8,0.6
		c-0.7,1-2,1.7-3.4,1.7c-2.5,0-4.3-1.8-4.3-4.3s1.8-4.3,4.3-4.3C14.2,257.3,15.5,257.9,16.1,259z"/>
	<path d="M18.8,265.8h-0.9v-8.6h0.9V265.8z"/>
	<path d="M26.4,262.9c0,1.7-1.3,3-3,3s-3-1.3-3-3c0-1.7,1.3-3,3-3S26.4,261.3,26.4,262.9z M21.3,262.9c0,1.2,0.9,2.1,2.1,2.1
		c1.2,0,2.1-0.9,2.1-2.1c0-1.2-0.9-2.1-2.1-2.1C22.2,260.8,21.3,261.7,21.3,262.9z"/>
	<path d="M33.2,263.4c0,1.7-1.2,2.5-2.6,2.5c-1.4,0-2.6-0.8-2.6-2.5v-3.3h0.9v3.2c0,1.2,0.7,1.7,1.7,1.7s1.7-0.6,1.7-1.7v-3.2h0.9
		V263.4z"/>
	<path d="M39.7,260.9v-3.8h0.9v8.6h-0.9v-0.8c-0.5,0.6-1.1,1-2.1,1c-1.6,0-2.8-1.2-2.8-3c0-1.7,1.2-3,2.8-3
		C38.6,260,39.2,260.4,39.7,260.9z M35.7,262.9c0,1.2,0.8,2.1,2,2.1c1.2,0,2-0.9,2-2.1c0-1.2-0.8-2.1-2-2.1
		C36.5,260.8,35.7,261.8,35.7,262.9z"/>
	<path d="M47,261.1h5.1v-3.7h1v8.4h-1V262H47v3.8h-1v-8.4h1V261.1z"/>
	<path d="M60.9,262.9c0,1.7-1.3,3-3,3s-3-1.3-3-3c0-1.7,1.3-3,3-3S60.9,261.3,60.9,262.9z M55.8,262.9c0,1.2,0.9,2.1,2.1,2.1
		c1.2,0,2.1-0.9,2.1-2.1c0-1.2-0.9-2.1-2.1-2.1C56.7,260.8,55.8,261.7,55.8,262.9z"/>
	<path d="M66.4,261.3c-0.4-0.3-1.1-0.5-1.9-0.5c-0.8,0-1.3,0.3-1.3,0.9c0,0.5,0.4,0.7,1.2,0.8l0.7,0.1c1.2,0.2,1.9,0.7,1.9,1.6
		c0,1.1-1,1.8-2.5,1.8c-0.7,0-1.6-0.2-2.4-0.7l0.4-0.7c0.4,0.3,1,0.6,2,0.6c1,0,1.6-0.3,1.6-0.9c0-0.5-0.4-0.7-1.2-0.8l-0.7-0.1
		c-1.3-0.2-1.9-0.7-1.9-1.6c0-1.1,0.9-1.7,2.3-1.7c0.9,0,1.7,0.3,2.3,0.6L66.4,261.3z"/>
	<path d="M72.3,260.9h-2.5v2.9c0,0.9,0.5,1.3,1.1,1.3c0.4,0,0.9-0.2,1.2-0.4l0.4,0.7c-0.4,0.3-1,0.6-1.7,0.6c-1.2,0-1.9-0.7-1.9-2.1
		v-2.9h-1.2v-0.8H69v-1.8h0.9v1.8h2.5V260.9z"/>
	<path d="M78.9,262.9c0,0.1,0,0.2,0,0.3h-4.6c0.1,1.2,1,1.9,2,1.9c0.7,0,1.3-0.3,1.8-0.7l0.5,0.6c-0.7,0.7-1.5,0.9-2.3,0.9
		c-1.7,0-2.9-1.2-2.9-3c0-1.7,1.2-3,2.8-3C77.8,260,78.9,261.2,78.9,262.9z M74.4,262.5H78c-0.1-1.1-0.8-1.7-1.8-1.7
		C75.2,260.8,74.5,261.5,74.4,262.5z"/>
	<path d="M85.1,260.9v-3.8H86v8.6h-0.9v-0.8c-0.5,0.6-1.1,1-2.1,1c-1.6,0-2.8-1.2-2.8-3c0-1.7,1.2-3,2.8-3
		C84,260,84.6,260.4,85.1,260.9z M81.1,262.9c0,1.2,0.8,2.1,2,2.1c1.2,0,2-0.9,2-2.1c0-1.2-0.8-2.1-2-2.1
		C81.9,260.8,81.1,261.8,81.1,262.9z"/>
	<path d="M94.6,257.4c2.7,0,4.5,1.6,4.5,4.2s-1.7,4.2-4.5,4.2h-3.2v-8.4H94.6z M92.4,258.3v6.6h2.2c2.3,0,3.5-1.3,3.5-3.3
		c0-2-1.2-3.3-3.5-3.3H92.4z"/>
	<path d="M106,262.9c0,0.1,0,0.2,0,0.3h-4.6c0.1,1.2,1,1.9,2,1.9c0.7,0,1.3-0.3,1.8-0.7l0.5,0.6c-0.7,0.7-1.5,0.9-2.3,0.9
		c-1.7,0-2.9-1.2-2.9-3c0-1.7,1.2-3,2.8-3C104.8,260,105.9,261.2,106,262.9z M101.4,262.5h3.6c-0.1-1.1-0.8-1.7-1.8-1.7
		C102.2,260.8,101.5,261.5,101.4,262.5z"/>
	<path d="M112.1,260.9v-3.8h0.9v8.6h-0.9v-0.8c-0.4,0.6-1.1,1-2.1,1c-1.6,0-2.8-1.2-2.8-3c0-1.7,1.2-3,2.8-3
		C111,260,111.7,260.4,112.1,260.9z M108.1,262.9c0,1.2,0.8,2.1,2,2.1c1.2,0,2-0.9,2-2.1c0-1.2-0.8-2.1-2-2.1
		C108.9,260.8,108.1,261.8,108.1,262.9z"/>
	<path d="M116.2,258.1c0,0.4-0.3,0.6-0.6,0.6c-0.4,0-0.6-0.3-0.6-0.6s0.3-0.6,0.6-0.6C115.9,257.5,116.2,257.7,116.2,258.1z
		 M116,265.8h-0.9v-5.7h0.9V265.8z"/>
	<path d="M122.7,260.9l-0.6,0.6c-0.4-0.4-0.9-0.7-1.6-0.7c-1.1,0-2,0.9-2,2.1c0,1.2,0.9,2.1,2,2.1c0.6,0,1.2-0.3,1.6-0.7l0.6,0.6
		c-0.5,0.6-1.3,0.9-2.1,0.9c-1.7,0-2.9-1.3-2.9-3c0-1.7,1.2-3,2.9-3C121.4,260,122.2,260.3,122.7,260.9z"/>
	<path d="M129.5,265.8h-0.9v-0.8c-0.5,0.6-1.1,1-2.1,1c-1.6,0-2.8-1.2-2.8-3c0-1.7,1.2-3,2.8-3c0.9,0,1.6,0.4,2.1,1v-0.8h0.9V265.8z
		 M124.6,262.9c0,1.2,0.8,2.1,2,2.1c1.2,0,2-0.9,2-2.1c0-1.2-0.8-2.1-2-2.1C125.4,260.8,124.6,261.8,124.6,262.9z"/>
	<path d="M135.5,260.9H133v2.9c0,0.9,0.5,1.3,1.1,1.3c0.4,0,0.9-0.2,1.2-0.4l0.4,0.7c-0.4,0.3-1,0.6-1.7,0.6c-1.2,0-1.9-0.7-1.9-2.1
		v-2.9h-1.2v-0.8h1.2v-1.8h0.9v1.8h2.5V260.9z"/>
	<path d="M142.1,262.9c0,0.1,0,0.2,0,0.3h-4.6c0.1,1.2,1,1.9,2,1.9c0.7,0,1.3-0.3,1.8-0.7l0.5,0.6c-0.7,0.7-1.5,0.9-2.3,0.9
		c-1.7,0-2.9-1.2-2.9-3c0-1.7,1.2-3,2.8-3C141,260,142.1,261.2,142.1,262.9z M137.5,262.5h3.6c-0.1-1.1-0.8-1.7-1.8-1.7
		C138.4,260.8,137.7,261.5,137.5,262.5z"/>
	<path d="M148.2,260.9v-3.8h0.9v8.6h-0.9v-0.8c-0.4,0.6-1.1,1-2.1,1c-1.6,0-2.8-1.2-2.8-3c0-1.7,1.2-3,2.8-3
		C147.1,260,147.8,260.4,148.2,260.9z M144.2,262.9c0,1.2,0.8,2.1,2,2.1c1.2,0,2-0.9,2-2.1c0-1.2-0.8-2.1-2-2.1
		C145.1,260.8,144.2,261.8,144.2,262.9z"/>
	<path d="M160.1,259c-0.7-0.5-1.5-0.8-2.5-0.8c-1.3,0-2.2,0.6-2.2,1.5c0,0.8,0.6,1.2,1.9,1.4l0.8,0.1c1.4,0.2,2.6,0.8,2.6,2.2
		c0,1.7-1.5,2.5-3.3,2.5c-1.2,0-2.5-0.4-3.3-1.1l0.5-0.8c0.6,0.5,1.7,0.9,2.8,0.9c1.3,0,2.3-0.5,2.3-1.5c0-0.8-0.7-1.2-2-1.4
		l-0.8-0.1c-1.4-0.2-2.5-0.8-2.5-2.2c0-1.6,1.4-2.5,3.2-2.5c1.3,0,2.2,0.4,3,0.9L160.1,259z"/>
	<path d="M167.6,262.9c0,0.1,0,0.2,0,0.3h-4.6c0.1,1.2,1,1.9,2,1.9c0.7,0,1.3-0.3,1.8-0.7l0.5,0.6c-0.7,0.7-1.5,0.9-2.3,0.9
		c-1.7,0-2.9-1.2-2.9-3c0-1.7,1.2-3,2.8-3C166.5,260,167.6,261.2,167.6,262.9z M163.1,262.5h3.6c-0.1-1.1-0.8-1.7-1.8-1.7
		C163.9,260.8,163.2,261.5,163.1,262.5z"/>
	<path d="M172.9,260.2l-0.2,0.9c-0.3-0.1-0.7-0.2-1-0.2c-0.9,0-1.5,0.7-1.5,1.8v3.2h-0.9v-5.7h0.9v0.8c0.4-0.6,1-0.9,1.7-0.9
		C172.3,260,172.6,260,172.9,260.2z"/>
	<path d="M177.1,265.8h-1l-2.4-5.7h1l2,4.8l2-4.8h0.9L177.1,265.8z"/>
	<path d="M185.7,262.9c0,0.1,0,0.2,0,0.3h-4.6c0.1,1.2,1,1.9,2,1.9c0.7,0,1.3-0.3,1.8-0.7l0.5,0.6c-0.7,0.7-1.5,0.9-2.3,0.9
		c-1.7,0-2.9-1.2-2.9-3c0-1.7,1.2-3,2.8-3C184.6,260,185.7,261.2,185.7,262.9z M181.2,262.5h3.6c-0.1-1.1-0.8-1.7-1.8-1.7
		C182,260.8,181.3,261.5,181.2,262.5z"/>
	<path d="M191,260.2l-0.2,0.9c-0.3-0.1-0.7-0.2-1-0.2c-0.9,0-1.5,0.7-1.5,1.8v3.2h-0.9v-5.7h0.9v0.8c0.4-0.6,1-0.9,1.7-0.9
		C190.4,260,190.7,260,191,260.2z"/>
	<path d="M196.1,261.3c-0.4-0.3-1.1-0.5-1.9-0.5c-0.8,0-1.3,0.3-1.3,0.9c0,0.5,0.4,0.7,1.2,0.8l0.7,0.1c1.2,0.2,1.9,0.7,1.9,1.6
		c0,1.1-1,1.8-2.5,1.8c-0.7,0-1.6-0.2-2.4-0.7l0.4-0.7c0.4,0.3,1,0.6,2,0.6c1,0,1.6-0.3,1.6-0.9c0-0.5-0.4-0.7-1.2-0.8l-0.7-0.1
		c-1.3-0.2-1.9-0.7-1.9-1.6c0-1.1,0.9-1.7,2.3-1.7c0.9,0,1.7,0.3,2.3,0.6L196.1,261.3z"/>
</g>
<path class="st0" d="M307.5,84h-11.6v-1h11.6c1.8,0,3.6-0.6,5-1.8l0.6,0.8C311.6,83.3,309.6,84,307.5,84z M294.5,84h-11.6v-1h11.6
	V84z M281.4,84h-11.6v-1h11.6V84z M268.3,84h-11.6v-1h11.6V84z M255.3,84h-4.6c-2.5,0-4.9-1.1-6.6-2.9l0.7-0.7
	c1.5,1.7,3.6,2.6,5.9,2.6h4.6V84z M314.2,81l-0.8-0.7c1.3-1.4,1.9-3.3,1.9-5.2v-5.6h1v5.6C316.4,77.3,315.7,79.4,314.2,81z
	 M243.2,79.9c-0.9-1.4-1.4-3-1.4-4.7v-6.9h1v6.9c0,1.5,0.4,2.9,1.2,4.2L243.2,79.9z M316.4,68.1h-1V56.5h1V68.1z M242.8,66.8h-1
	V55.1h1V66.8z M316.4,55h-1V43.4h1V55z M242.8,53.7h-1V42.1h1V53.7z M316.4,42h-1V30.3h1V42z M242.8,40.6h-1V29h1V40.6z M316.4,28.9
	h-1V18.3c0-0.3,0-0.6-0.1-1l1-0.1c0,0.4,0.1,0.7,0.1,1.1V28.9z M242.8,27.6h-1v-9.3c0-0.8,0.1-1.7,0.3-2.5l1,0.3
	c-0.2,0.7-0.3,1.4-0.3,2.2V27.6z M315.1,16c-1-3.3-4.1-5.6-7.6-5.6h-0.9v-1h0.9c3.9,0,7.4,2.5,8.5,6.3L315.1,16z M243.6,14.8
	l-0.9-0.4c1.5-3.1,4.6-5,8-5h2.2v1h-2.2C247.7,10.4,244.9,12.1,243.6,14.8z M305.2,10.4h-11.6v-1h11.6V10.4z M292.1,10.4h-11.6v-1
	h11.6V10.4z M279.1,10.4h-11.6v-1h11.6V10.4z M266,10.4h-11.6v-1H266V10.4z"/>
<path class="st0" d="M504,181.7h-11.6v-1H504c1.7,0,3.4-0.5,4.7-1.6l0.6,0.8C507.8,181.1,505.9,181.7,504,181.7z M490.9,181.7h-11.6
	v-1h11.6V181.7z M477.8,181.7h-11.6v-1h11.6V181.7z M464.8,181.7h-11.6v-1h11.6V181.7z M451.7,181.7h-11.6v-1h11.6V181.7z
	 M438.6,181.7H427v-1h11.6V181.7z M425.6,181.7h-11.6v-1h11.6V181.7z M412.5,181.7h-11.6v-1h11.6V181.7z M399.4,181.7h-11.6v-1h11.6
	V181.7z M386.4,181.7h-11.6v-1h11.6V181.7z M373.3,181.7h-11.6v-1h11.6V181.7z M360.2,181.7h-11.6v-1h11.6V181.7z M347.2,181.7
	h-11.6v-1h11.6V181.7z M334.1,181.7h-11.6v-1h11.6V181.7z M321,181.7h-11.6v-1H321V181.7z M308,181.7h-11.6v-1H308V181.7z
	 M294.9,181.7h-11.6v-1h11.6V181.7z M281.8,181.7h-11.6v-1h11.6V181.7z M268.8,181.7h-11.6v-1h11.6V181.7z M255.7,181.7h-4.4
	c-2.6,0-5-1.1-6.7-3.1l0.8-0.7c1.5,1.7,3.7,2.7,6,2.7h4.4V181.7z M510.4,178.9l-0.7-0.7c1.4-1.5,2.1-3.4,2.1-5.4v-5.3h1v5.3
	C512.8,175.1,512,177.3,510.4,178.9z M243.7,177.4c-0.8-1.4-1.3-3-1.3-4.6v-7.1h1v7.1c0,1.4,0.4,2.8,1.1,4.1L243.7,177.4z
	 M512.8,166.1h-1v-11.6h1V166.1z M243.4,164.3h-1v-11.6h1V164.3z M512.8,153h-1v-11.6h1V153z M243.4,151.2h-1v-11.6h1V151.2z
	 M512.8,140h-1v-11.6h1V140z M243.4,138.2h-1v-11.6h1V138.2z M512.8,126.9h-1V116c0-0.2,0-0.5,0-0.7l1-0.1c0,0.2,0,0.5,0,0.8V126.9z
	 M243.4,125.1h-1V116c0-0.9,0.1-1.8,0.4-2.6l1,0.3c-0.2,0.7-0.3,1.5-0.3,2.3V125.1z M511.6,114c-0.9-3.5-4.1-5.9-7.6-5.9h-0.6v-1
	h0.6c4,0,7.6,2.7,8.6,6.6L511.6,114z M244.2,112.4l-0.9-0.5c1.5-3,4.6-4.9,7.9-4.9h2.4v1h-2.4C248.3,108.1,245.6,109.8,244.2,112.4z
	 M501.9,108.1h-11.6v-1h11.6V108.1z M488.8,108.1h-11.6v-1h11.6V108.1z M475.8,108.1h-11.6v-1h11.6V108.1z M462.7,108.1h-11.6v-1
	h11.6V108.1z M449.6,108.1H438v-1h11.6V108.1z M436.6,108.1H425v-1h11.6V108.1z M423.5,108.1h-11.6v-1h11.6V108.1z M410.4,108.1
	h-11.6v-1h11.6V108.1z M397.4,108.1h-11.6v-1h11.6V108.1z M384.3,108.1h-11.6v-1h11.6V108.1z M371.3,108.1h-11.6v-1h11.6V108.1z
	 M358.2,108.1h-11.6v-1h11.6V108.1z M345.1,108.1h-11.6v-1h11.6V108.1z M332.1,108.1h-11.6v-1h11.6V108.1z M319,108.1h-11.6v-1H319
	V108.1z M305.9,108.1h-11.6v-1h11.6V108.1z M292.9,108.1h-11.6v-1h11.6V108.1z M279.8,108.1h-11.6v-1h11.6V108.1z M266.7,108.1
	h-11.6v-1h11.6V108.1z"/>
<path class="st0" d="M503.4,279h-11.6v-1h11.6c1.7,0,3.4-0.5,4.7-1.6l0.6,0.8C507.2,278.4,505.3,279,503.4,279z M490.3,279h-11.6v-1
	h11.6V279z M477.2,279h-11.6v-1h11.6V279z M464.2,279h-11.6v-1h11.6V279z M451.1,279h-11.6v-1h11.6V279z M438,279h-11.6v-1H438V279z
	 M425,279h-11.6v-1H425V279z M411.9,279h-11.6v-1h11.6V279z M398.8,279h-11.6v-1h11.6V279z M385.8,279h-11.6v-1h11.6V279z
	 M372.7,279h-11.6v-1h11.6V279z M359.7,279H348v-1h11.6V279z M346.6,279H335v-1h11.6V279z M333.5,279h-11.6v-1h11.6V279z M320.5,279
	h-11.6v-1h11.6V279z M307.4,279h-11.6v-1h11.6V279z M294.3,279h-11.6v-1h11.6V279z M281.3,279h-11.6v-1h11.6V279z M268.2,279h-11.6
	v-1h11.6V279z M255.1,279h-4.4c-2.6,0-5-1.1-6.7-3.1l0.8-0.7c1.5,1.7,3.7,2.7,6,2.7h4.4V279z M509.9,276.2l-0.7-0.7
	c1.4-1.5,2.1-3.4,2.1-5.4v-5.3h1v5.3C512.3,272.4,511.4,274.5,509.9,276.2z M243.1,274.7c-0.8-1.4-1.3-3-1.3-4.6V263h1v7.1
	c0,1.4,0.4,2.8,1.1,4.1L243.1,274.7z M512.3,263.4h-1v-11.6h1V263.4z M242.8,261.6h-1V250h1V261.6z M512.3,250.3h-1v-11.6h1V250.3z
	 M242.8,248.5h-1v-11.6h1V248.5z M512.3,237.2h-1v-11.6h1V237.2z M242.8,235.4h-1v-11.6h1V235.4z M512.3,224.2h-1v-10.9
	c0-0.2,0-0.5,0-0.7l1-0.1c0,0.2,0,0.5,0,0.8V224.2z M242.8,222.4h-1v-9.1c0-0.9,0.1-1.8,0.4-2.6l1,0.3c-0.2,0.7-0.3,1.5-0.3,2.3
	V222.4z M511,211.2c-0.9-3.5-4.1-5.9-7.6-5.9h-0.6v-1h0.6c4,0,7.6,2.7,8.6,6.6L511,211.2z M243.7,209.7l-0.9-0.5
	c1.5-3,4.6-4.9,7.9-4.9h2.4v1h-2.4C247.7,205.4,245,207,243.7,209.7z M501.3,205.4h-11.6v-1h11.6V205.4z M488.3,205.4h-11.6v-1h11.6
	V205.4z M475.2,205.4h-11.6v-1h11.6V205.4z M462.1,205.4h-11.6v-1h11.6V205.4z M449.1,205.4h-11.6v-1h11.6V205.4z M436,205.4h-11.6
	v-1H436V205.4z M422.9,205.4h-11.6v-1h11.6V205.4z M409.9,205.4h-11.6v-1h11.6V205.4z M396.8,205.4h-11.6v-1h11.6V205.4z
	 M383.7,205.4h-11.6v-1h11.6V205.4z M370.7,205.4h-11.6v-1h11.6V205.4z M357.6,205.4H346v-1h11.6V205.4z M344.5,205.4h-11.6v-1h11.6
	V205.4z M331.5,205.4h-11.6v-1h11.6V205.4z M318.4,205.4h-11.6v-1h11.6V205.4z M305.3,205.4h-11.6v-1h11.6V205.4z M292.3,205.4
	h-11.6v-1h11.6V205.4z M279.2,205.4h-11.6v-1h11.6V205.4z M266.1,205.4h-11.6v-1h11.6V205.4z"/>
<path class="st0" d="M405.5,84h-11.6v-1h11.6c1.8,0,3.6-0.6,5-1.8l0.6,0.8C409.5,83.3,407.5,84,405.5,84z M392.4,84h-11.6v-1h11.6
	V84z M379.3,84h-11.6v-1h11.6V84z M366.3,84h-11.6v-1h11.6V84z M353.2,84h-4.6c-2.5,0-4.9-1.1-6.6-2.9l0.7-0.7
	c1.5,1.7,3.6,2.6,5.9,2.6h4.6V84z M412.2,81l-0.8-0.7c1.3-1.4,1.9-3.3,1.9-5.2v-5.6h1v5.6C414.4,77.3,413.6,79.4,412.2,81z
	 M341.1,79.9c-0.9-1.4-1.4-3-1.4-4.7v-6.9h1v6.9c0,1.5,0.4,2.9,1.2,4.2L341.1,79.9z M414.4,68.1h-1V56.5h1V68.1z M340.7,66.8h-1
	V55.1h1V66.8z M414.4,55h-1V43.4h1V55z M340.7,53.7h-1V42.1h1V53.7z M414.4,42h-1V30.3h1V42z M340.7,40.6h-1V29h1V40.6z M414.4,28.9
	h-1V18.3c0-0.3,0-0.6-0.1-1l1-0.1c0,0.4,0.1,0.7,0.1,1.1V28.9z M340.7,27.6h-1v-9.3c0-0.8,0.1-1.7,0.3-2.5l1,0.3
	c-0.2,0.7-0.3,1.4-0.3,2.2V27.6z M413,16c-1-3.3-4.1-5.6-7.6-5.6h-0.9v-1h0.9c3.9,0,7.4,2.5,8.5,6.3L413,16z M341.5,14.8l-0.9-0.4
	c1.5-3.1,4.6-5,8-5h2.2v1h-2.2C345.6,10.4,342.9,12.1,341.5,14.8z M403.1,10.4h-11.6v-1h11.6V10.4z M390,10.4h-11.6v-1H390V10.4z
	 M377,10.4h-11.6v-1H377V10.4z M363.9,10.4h-11.6v-1h11.6V10.4z"/>
<path class="st0" d="M503.4,84h-11.6v-1h11.6c1.8,0,3.6-0.6,5-1.8L509,82C507.4,83.3,505.4,84,503.4,84z M490.3,84h-11.6v-1h11.6V84
	z M477.2,84h-11.6v-1h11.6V84z M464.2,84h-11.6v-1h11.6V84z M451.1,84h-4.6c-2.5,0-4.9-1.1-6.6-2.9l0.7-0.7c1.5,1.7,3.6,2.6,5.9,2.6
	h4.6V84z M510.1,81l-0.8-0.7c1.3-1.4,1.9-3.3,1.9-5.2v-5.6h1v5.6C512.3,77.3,511.5,79.4,510.1,81z M439,79.9c-0.9-1.4-1.4-3-1.4-4.7
	v-6.9h1v6.9c0,1.5,0.4,2.9,1.2,4.2L439,79.9z M512.3,68.1h-1V56.5h1V68.1z M438.6,66.8h-1V55.1h1V66.8z M512.3,55h-1V43.4h1V55z
	 M438.6,53.7h-1V42.1h1V53.7z M512.3,42h-1V30.3h1V42z M438.6,40.6h-1V29h1V40.6z M512.3,28.9h-1V18.3c0-0.3,0-0.6-0.1-1l1-0.1
	c0,0.4,0.1,0.7,0.1,1.1V28.9z M438.6,27.6h-1v-9.3c0-0.8,0.1-1.7,0.3-2.5l1,0.3c-0.2,0.7-0.3,1.4-0.3,2.2V27.6z M510.9,16
	c-1-3.3-4.1-5.6-7.6-5.6h-0.9v-1h0.9c3.9,0,7.4,2.5,8.5,6.3L510.9,16z M439.4,14.8l-0.9-0.4c1.5-3.1,4.6-5,8-5h2.2v1h-2.2
	C443.5,10.4,440.8,12.1,439.4,14.8z M501,10.4h-11.6v-1H501V10.4z M488,10.4h-11.6v-1H488V10.4z M474.9,10.4h-11.6v-1h11.6V10.4z
	 M461.8,10.4h-11.6v-1h11.6V10.4z"/>
<path class="st1" d="M289.4,33.2c-1.1-1.8-2.1-3.5-3.2-5.3c-0.6-0.9-1.1-1.8-1.7-2.7c-0.1-0.1-0.2-0.2-0.2-0.3c-1-1.6-3-2.6-5-1.6
	c-1.7,0.8-2.5,2.9-1.6,4.7c0,0,0,0,0,0c0.3,0.7,0.9,1.2,1.4,1.8c1.6,1.7,3.3,3.4,4.9,5.1c1.9,2,1.8,5.2-0.3,7.1
	c-0.4,0.4-0.9,0.7-1.5,1c0,0-0.1,0-0.1,0V35c-2.8,1.5-5.4,3.4-7.5,5.8c-3.3,3.7-5.3,8.3-5.9,11.7l5.4-2.8c1.8-0.9,3.6-1.8,5.5-2.8
	v21.3l2.5,2.5V45.7c0,0,0.1,0,0.2-0.1c0.8-0.4,1.5-0.8,2.2-1.2c3.3-2.3,4.1-6.9,1.8-10.3c-0.2-0.3-0.5-0.6-0.7-0.9
	c-1.8-1.9-3.7-3.9-5.6-5.8c-0.5-0.6-0.5-1.3,0-1.8c0.5-0.5,1.2-0.5,1.8,0.1l0.8,0.8c0.6,0.7,1.2,1.3,1.8,2c1.6,1.6,3.1,3.3,4.7,4.9
	c0.1,0.1,0.2,0.1,0.3,0.2l0.1-0.1C289.5,33.4,289.4,33.3,289.4,33.2z M279.6,44.1c0,0.1-0.1,0.2-0.2,0.3c-1,0.5-2,1-3,1.5l-3.6,1.9
	c1.6-3.3,3.9-6.2,6.8-8.4c0,0.1,0,0.1,0,0.1C279.6,41,279.6,42.6,279.6,44.1L279.6,44.1z"/>
<path class="st1" d="M387.1,33.2c-1.1-1.8-2.1-3.5-3.2-5.3c-0.6-0.9-1.1-1.8-1.7-2.7c-0.1-0.1-0.2-0.2-0.2-0.3c-1-1.6-3-2.6-5-1.6
	c-1.7,0.8-2.5,2.9-1.6,4.7c0,0,0,0,0,0c0.3,0.7,0.9,1.2,1.4,1.8c1.6,1.7,3.3,3.4,4.9,5.1c1.9,2,1.8,5.2-0.3,7.1
	c-0.4,0.4-0.9,0.7-1.5,1c0,0-0.1,0-0.1,0V35c-2.8,1.5-5.4,3.4-7.5,5.8c-3.3,3.7-5.3,8.3-5.9,11.7l5.4-2.8c1.8-0.9,3.6-1.8,5.5-2.8
	v21.3l2.5,2.5V45.7c0,0,0.1,0,0.2-0.1c0.8-0.4,1.5-0.8,2.2-1.2c3.3-2.3,4.1-6.9,1.8-10.3c-0.2-0.3-0.5-0.6-0.7-0.9
	c-1.8-1.9-3.7-3.9-5.6-5.8c-0.5-0.6-0.5-1.3,0-1.8s1.2-0.5,1.8,0.1l0.8,0.8c0.6,0.7,1.2,1.3,1.8,2c1.6,1.6,3.1,3.3,4.7,4.9
	c0.1,0.1,0.2,0.1,0.3,0.2l0.1-0.1C387.1,33.4,387.1,33.3,387.1,33.2z M377.3,44.1c0,0.1-0.1,0.2-0.2,0.3c-1,0.5-2,1-3,1.5l-3.6,1.9
	c1.6-3.3,3.9-6.2,6.8-8.4c0,0.1,0,0.1,0,0.1C377.3,41,377.3,42.6,377.3,44.1L377.3,44.1z"/>
<path class="st1" d="M484.7,33.2c-1.1-1.8-2.1-3.5-3.2-5.3c-0.6-0.9-1.1-1.8-1.7-2.7c-0.1-0.1-0.2-0.2-0.2-0.3c-1-1.6-3-2.6-5-1.6
	c-1.7,0.8-2.5,2.9-1.6,4.7c0,0,0,0,0,0c0.3,0.7,0.9,1.2,1.4,1.8c1.6,1.7,3.3,3.4,4.9,5.1c1.9,2,1.8,5.2-0.3,7.1
	c-0.4,0.4-0.9,0.7-1.5,1c0,0-0.1,0-0.1,0V35c-2.8,1.5-5.4,3.4-7.5,5.8c-3.3,3.7-5.3,8.3-5.9,11.7l5.4-2.8c1.8-0.9,3.6-1.8,5.5-2.8
	v21.3l2.5,2.5V45.7c0,0,0.1,0,0.2-0.1c0.8-0.4,1.5-0.8,2.2-1.2c3.3-2.3,4.1-6.9,1.8-10.3c-0.2-0.3-0.5-0.6-0.7-0.9
	c-1.8-1.9-3.7-3.9-5.6-5.8c-0.5-0.6-0.5-1.3,0-1.8s1.2-0.5,1.8,0.1l0.8,0.8c0.6,0.7,1.2,1.3,1.8,2c1.6,1.6,3.1,3.3,4.7,4.9
	c0.1,0.1,0.2,0.1,0.3,0.2l0.1-0.1C484.8,33.4,484.8,33.3,484.7,33.2z M474.9,44.1c0,0.1-0.1,0.2-0.2,0.3c-1,0.5-2,1-3,1.5l-3.6,1.9
	c1.6-3.3,3.9-6.2,6.8-8.4c0,0.1,0,0.1,0,0.1C474.9,41,474.9,42.6,474.9,44.1L474.9,44.1z"/>
<path class="st1" d="M448.4,132.5c-1.1-1.8-2.1-3.5-3.2-5.3c-0.6-0.9-1.1-1.8-1.7-2.7c-0.1-0.1-0.2-0.2-0.2-0.3c-1-1.6-3-2.6-5-1.6
	c-1.7,0.8-2.5,2.9-1.6,4.7c0,0,0,0,0,0c0.3,0.7,0.9,1.2,1.4,1.8c1.6,1.7,3.3,3.4,4.9,5.1c1.9,2,1.8,5.2-0.3,7.1
	c-0.4,0.4-0.9,0.7-1.5,1c0,0-0.1,0-0.1,0v-7.9c-2.8,1.5-5.4,3.4-7.5,5.8c-3.3,3.7-5.3,8.3-5.9,11.7l5.4-2.8c1.8-0.9,3.6-1.8,5.5-2.8
	v21.3l2.5,2.5V145c0,0,0.1,0,0.2-0.1c0.8-0.4,1.5-0.8,2.2-1.2c3.3-2.3,4.1-6.9,1.8-10.3c-0.2-0.3-0.5-0.6-0.7-0.9
	c-1.8-1.9-3.7-3.9-5.6-5.8c-0.5-0.6-0.5-1.3,0-1.8s1.2-0.5,1.8,0.1l0.8,0.8c0.6,0.7,1.2,1.3,1.8,2c1.6,1.6,3.1,3.3,4.7,4.9
	c0.1,0.1,0.2,0.1,0.3,0.2l0.1-0.1C448.5,132.7,448.5,132.6,448.4,132.5z M438.6,143.4c0,0.1-0.1,0.2-0.2,0.3c-1,0.5-2,1-3,1.5
	l-3.6,1.9c1.6-3.3,3.9-6.2,6.8-8.4c0,0.1,0,0.1,0,0.1C438.6,140.3,438.6,141.9,438.6,143.4L438.6,143.4z"/>
<g>
	<path class="st2" d="M322.9,163.7c-2.7,0-5.4,0-8.1,0c-1,0-2-0.4-2.6-1.2c-3.4-4.2-6.8-8.3-10.2-12.5c-0.6-0.7-0.9-1.8-0.6-2.7
		l3.7-15.7c0.2-0.9,0.8-1.7,1.7-2l14.8-7c0.9-0.4,1.9-0.4,2.8,0l14.8,7c0.9,0.4,1.5,1.2,1.7,2.1c1.2,5.2,2.4,10.5,3.7,15.7
		c0.2,0.9,0,1.8-0.6,2.5l-10.4,12.7c-0.6,0.7-1.5,1.1-2.4,1.1C328.4,163.6,325.7,163.7,322.9,163.7L322.9,163.7z M321.8,132.1
		c-2.8,0.2-5.4,1.4-7.3,3.4c-0.8-0.1-1.6-0.5-2-1.2l-0.5-0.5c-0.1-0.1-0.3-0.3-0.5-0.4c-0.4-0.3-0.9-0.3-1.2,0.1
		c-0.3,0.4-0.3,0.9,0.1,1.3c0.2,0.1,0.3,0.3,0.5,0.4c0.9,0.5,1.9,0.9,2.3,2.1c-1.5,2.3-2.1,5-1.8,7.6c0,0.1,0,0.2,0,0.2
		c-0.4,0.2-0.8,0.5-1.2,0.6c-0.3,0.1-0.7,0.1-1,0.1c-0.4,0-0.9,0.1-1.3,0.2c-0.4,0.1-0.7,0.6-0.6,1c0.1,0.4,0.5,0.7,0.9,0.7
		c0.3,0,0.6-0.1,0.9-0.2c0.8-0.5,1.7-0.6,2.6-0.5c0.2,0,0.3,0.1,0.4,0.3c0.9,2.5,2.6,4.5,4.8,5.9c0.1,0.1,0.2,0.1,0.2,0.2
		c0,0.4-0.1,0.9-0.2,1.3c-0.2,0.5-0.5,0.9-0.8,1.3c-0.2,0.3-0.3,0.5-0.5,0.8c-0.1,0.4,0,0.8,0.4,1c0.3,0.2,0.8,0.1,1-0.2
		c0.2-0.3,0.4-0.5,0.5-0.9c0.2-1,0.7-1.9,1.5-2.5c2.6,1,5.5,1,8.1,0c0.6,0.3,1.1,0.9,1.2,1.6l0.3,1c0.1,0.2,0.2,0.5,0.4,0.7
		c0.2,0.3,0.6,0.5,1,0.3c0.4-0.1,0.6-0.5,0.5-0.9c-0.1-0.3-0.3-0.7-0.4-1l-0.9-1.6c-0.2-0.4-0.2-0.9,0.1-1.2
		c2.2-1.4,3.9-3.5,4.8-5.9c0-0.1,0.1-0.3,0.2-0.3c0.4-0.1,0.8-0.1,1.2-0.1c0.5,0.1,1,0.3,1.5,0.5c0.3,0.1,0.6,0.2,0.9,0.3
		c0.4,0.1,0.9-0.1,1-0.6c0.1-0.4-0.1-0.7-0.5-0.9c-0.3-0.1-0.7-0.2-1-0.3c-0.6-0.1-1.3-0.1-1.9-0.3c-0.4-0.1-0.7-0.3-0.9-0.6
		c-0.1-0.1,0-0.4,0-0.7l-0.2-3.1c-0.3-1.5-0.8-2.9-1.7-4.1c0.3-1,1.1-1.4,1.9-1.9c0.2-0.1,0.4-0.2,0.6-0.3c0.2-0.1,0.3-0.3,0.5-0.4
		c0.2-0.3,0.2-0.8,0-1.1c-0.3-0.3-0.8-0.3-1.1-0.1c-0.3,0.2-0.5,0.4-0.7,0.6c-0.7,0.7-1.3,1.4-2.4,1.5c-1.9-1.9-4.4-3.2-7.1-3.5
		c-0.1,0-0.2-0.1-0.3-0.1c-0.3-0.5-0.4-1.2-0.3-1.8c0.1-0.6,0.2-1.1,0.2-1.7c0-0.3-0.1-0.5-0.2-0.7c-0.2-0.2-0.4-0.3-0.7-0.3
		c-0.5,0-0.9,0.5-0.9,1c0,0.2,0,0.3,0,0.5C322.5,130.1,322.4,131.2,321.8,132.1L321.8,132.1L321.8,132.1z"/>
	<path class="st2" d="M328,151.5l-1-2.4l-0.8-1.9c-0.1-0.3-0.1-0.6,0.1-0.9c0.2-0.3,0.5-0.4,0.9-0.3l4.3,0.7c0.1,0,0.1,0,0.3,0.1
		C331,148.7,329.7,150.4,328,151.5z M316.3,137.1c1.5-1.4,3.4-2.4,5.4-2.6l-0.1,0.8l-0.2,3.7c0,0.4-0.2,0.8-0.5,0.9
		c-0.4,0.2-0.7,0-1-0.2L316.3,137.1z M313.6,144.6c-0.2-2,0.3-4.1,1.4-5.8l3.3,2.8c0.1,0.1,0.3,0.2,0.4,0.4c0.3,0.3,0.3,0.8,0,1.1
		c-0.1,0.1-0.2,0.1-0.3,0.2C318.3,143.3,313.6,144.6,313.6,144.6z M317.9,151.4c-1.7-1.1-3-2.7-3.8-4.6l2.4-0.4l2-0.3
		c0.4-0.1,0.8,0,1,0.3c0.2,0.3,0.2,0.7,0,1.1C319.6,147.4,317.9,151.4,317.9,151.4z M329.5,137.1l-3.9,2.7c-0.2,0.2-0.5,0.2-0.8,0.1
		c-0.3-0.1-0.4-0.4-0.4-0.6l-0.3-4.6c0-0.1,0-0.1,0.1-0.2C326.2,134.8,328,135.7,329.5,137.1L329.5,137.1z M332.2,144.6l-1.3-0.4
		l-3.1-0.9c-0.4-0.1-0.6-0.3-0.7-0.7c-0.1-0.3,0.1-0.7,0.4-0.8l3.1-2.8l0.3-0.3C332,140.6,332.4,142.6,332.2,144.6z M319.9,152.4
		l1.1-2l1.2-2.1c0.2-0.4,0.6-0.6,1-0.4c0.2,0.1,0.3,0.2,0.4,0.4l2.3,4.1C324,153.1,321.8,153.1,319.9,152.4z M322.9,142.1
		c0.3,0.1,0.6,0.1,0.8,0.3c0.3,0.3,0.6,0.7,0.7,1.1c0.1,0.4-0.1,0.9-0.3,1.2c-0.6,0.7-1.6,0.7-2.3,0.1c-0.1,0-0.1-0.1-0.2-0.2
		c-0.3-0.4-0.4-0.8-0.3-1.3c0.1-0.4,0.4-0.8,0.7-1.1C322.3,142.2,322.6,142.2,322.9,142.1z"/>
</g>
<polygon points="387.2,143 379.1,143 379.1,134.9 376.2,134.9 376.2,143 368.1,143 368.1,145.9 376.2,145.9 376.2,153.9 
	379.1,153.9 379.1,145.9 387.2,145.9 "/>
<g>
	<path d="M313.3,233.6H269c-1.7,0-3.1-1.4-3.1-3.1v-11.7c0-1.7,1.4-3.1,3.1-3.1h44.3c1.7,0,3.1,1.4,3.1,3.1v11.7
		C316.4,232.2,315,233.6,313.3,233.6z M269,216.7c-1.2,0-2.1,1-2.1,2.1v11.7c0,1.2,1,2.1,2.1,2.1h44.3c1.2,0,2.1-1,2.1-2.1v-11.7
		c0-1.2-1-2.1-2.1-2.1H269z"/>
	<path d="M313.3,250.7H269c-1.7,0-3.1-1.4-3.1-3.1v-11.7c0-1.7,1.4-3.1,3.1-3.1h44.3c1.7,0,3.1,1.4,3.1,3.1v11.7
		C316.4,249.3,315,250.7,313.3,250.7z M269,233.7c-1.2,0-2.1,1-2.1,2.1v11.7c0,1.2,1,2.1,2.1,2.1h44.3c1.2,0,2.1-1,2.1-2.1v-11.7
		c0-1.2-1-2.1-2.1-2.1H269z"/>
	<path d="M313.3,267.9H269c-1.7,0-3.1-1.4-3.1-3.1V253c0-1.7,1.4-3.1,3.1-3.1h44.3c1.7,0,3.1,1.4,3.1,3.1v11.7
		C316.4,266.5,315,267.9,313.3,267.9z M269,250.9c-1.2,0-2.1,1-2.1,2.1v11.7c0,1.2,1,2.1,2.1,2.1h44.3c1.2,0,2.1-1,2.1-2.1V253
		c0-1.2-1-2.1-2.1-2.1H269z"/>
	<rect x="272.7" y="220.1" width="1" height="9.4"/>
	<rect x="276" y="220.1" width="1" height="9.4"/>
	<rect x="279.4" y="220.1" width="1" height="9.4"/>
	<rect x="272.7" y="237" width="1" height="9.4"/>
	<rect x="276" y="237" width="1" height="9.4"/>
	<rect x="279.4" y="237" width="1" height="9.4"/>
	<rect x="272.7" y="253.8" width="1" height="9.4"/>
	<rect x="276" y="253.8" width="1" height="9.4"/>
	<rect x="279.4" y="253.8" width="1" height="9.4"/>
	<path d="M308.1,227.7c-1.7,0-3.1-1.4-3.1-3.1s1.4-3.1,3.1-3.1s3.1,1.4,3.1,3.1S309.8,227.7,308.1,227.7z M308.1,222.6
		c-1.1,0-2.1,0.9-2.1,2.1s0.9,2.1,2.1,2.1s2.1-0.9,2.1-2.1S309.2,222.6,308.1,222.6z"/>
	<path d="M308.1,244.7c-1.7,0-3.1-1.4-3.1-3.1s1.4-3.1,3.1-3.1s3.1,1.4,3.1,3.1S309.8,244.7,308.1,244.7z M308.1,239.6
		c-1.1,0-2.1,0.9-2.1,2.1s0.9,2.1,2.1,2.1s2.1-0.9,2.1-2.1S309.2,239.6,308.1,239.6z"/>
	<path d="M308.1,262c-1.7,0-3.1-1.4-3.1-3.1s1.4-3.1,3.1-3.1s3.1,1.4,3.1,3.1S309.8,262,308.1,262z M308.1,256.8
		c-1.1,0-2.1,0.9-2.1,2.1s0.9,2.1,2.1,2.1s2.1-0.9,2.1-2.1S309.2,256.8,308.1,256.8z"/>
</g>
<g>
	<path d="M399.2,233.6h-44.3c-1.7,0-3.1-1.4-3.1-3.1v-11.7c0-1.7,1.4-3.1,3.1-3.1h44.3c1.7,0,3.1,1.4,3.1,3.1v11.7
		C402.3,232.2,400.9,233.6,399.2,233.6z M354.9,216.7c-1.2,0-2.1,1-2.1,2.1v11.7c0,1.2,1,2.1,2.1,2.1h44.3c1.2,0,2.1-1,2.1-2.1
		v-11.7c0-1.2-1-2.1-2.1-2.1H354.9z"/>
	<path d="M399.2,250.7h-44.3c-1.7,0-3.1-1.4-3.1-3.1v-11.7c0-1.7,1.4-3.1,3.1-3.1h44.3c1.7,0,3.1,1.4,3.1,3.1v11.7
		C402.3,249.3,400.9,250.7,399.2,250.7z M354.9,233.7c-1.2,0-2.1,1-2.1,2.1v11.7c0,1.2,1,2.1,2.1,2.1h44.3c1.2,0,2.1-1,2.1-2.1
		v-11.7c0-1.2-1-2.1-2.1-2.1H354.9z"/>
	<path d="M399.2,267.9h-44.3c-1.7,0-3.1-1.4-3.1-3.1V253c0-1.7,1.4-3.1,3.1-3.1h44.3c1.7,0,3.1,1.4,3.1,3.1v11.7
		C402.3,266.5,400.9,267.9,399.2,267.9z M354.9,250.9c-1.2,0-2.1,1-2.1,2.1v11.7c0,1.2,1,2.1,2.1,2.1h44.3c1.2,0,2.1-1,2.1-2.1V253
		c0-1.2-1-2.1-2.1-2.1H354.9z"/>
	<rect x="358.6" y="220.1" width="1" height="9.4"/>
	<rect x="361.9" y="220.1" width="1" height="9.4"/>
	<rect x="365.3" y="220.1" width="1" height="9.4"/>
	<rect x="358.6" y="237" width="1" height="9.4"/>
	<rect x="361.9" y="237" width="1" height="9.4"/>
	<rect x="365.3" y="237" width="1" height="9.4"/>
	<rect x="358.6" y="253.8" width="1" height="9.4"/>
	<rect x="361.9" y="253.8" width="1" height="9.4"/>
	<rect x="365.3" y="253.8" width="1" height="9.4"/>
	<path d="M394,227.7c-1.7,0-3.1-1.4-3.1-3.1s1.4-3.1,3.1-3.1c1.7,0,3.1,1.4,3.1,3.1S395.6,227.7,394,227.7z M394,222.6
		c-1.1,0-2.1,0.9-2.1,2.1s0.9,2.1,2.1,2.1s2.1-0.9,2.1-2.1S395.1,222.6,394,222.6z"/>
	<path d="M394,244.7c-1.7,0-3.1-1.4-3.1-3.1s1.4-3.1,3.1-3.1c1.7,0,3.1,1.4,3.1,3.1S395.6,244.7,394,244.7z M394,239.6
		c-1.1,0-2.1,0.9-2.1,2.1s0.9,2.1,2.1,2.1s2.1-0.9,2.1-2.1S395.1,239.6,394,239.6z"/>
	<path d="M394,262c-1.7,0-3.1-1.4-3.1-3.1s1.4-3.1,3.1-3.1c1.7,0,3.1,1.4,3.1,3.1S395.6,262,394,262z M394,256.8
		c-1.1,0-2.1,0.9-2.1,2.1s0.9,2.1,2.1,2.1s2.1-0.9,2.1-2.1S395.1,256.8,394,256.8z"/>
</g>
<g>
	<path d="M485.1,233.6h-44.3c-1.7,0-3.1-1.4-3.1-3.1v-11.7c0-1.7,1.4-3.1,3.1-3.1h44.3c1.7,0,3.1,1.4,3.1,3.1v11.7
		C488.2,232.2,486.8,233.6,485.1,233.6z M440.8,216.7c-1.2,0-2.1,1-2.1,2.1v11.7c0,1.2,1,2.1,2.1,2.1h44.3c1.2,0,2.1-1,2.1-2.1
		v-11.7c0-1.2-1-2.1-2.1-2.1H440.8z"/>
	<path d="M485.1,250.7h-44.3c-1.7,0-3.1-1.4-3.1-3.1v-11.7c0-1.7,1.4-3.1,3.1-3.1h44.3c1.7,0,3.1,1.4,3.1,3.1v11.7
		C488.2,249.3,486.8,250.7,485.1,250.7z M440.8,233.7c-1.2,0-2.1,1-2.1,2.1v11.7c0,1.2,1,2.1,2.1,2.1h44.3c1.2,0,2.1-1,2.1-2.1
		v-11.7c0-1.2-1-2.1-2.1-2.1H440.8z"/>
	<path d="M485.1,267.9h-44.3c-1.7,0-3.1-1.4-3.1-3.1V253c0-1.7,1.4-3.1,3.1-3.1h44.3c1.7,0,3.1,1.4,3.1,3.1v11.7
		C488.2,266.5,486.8,267.9,485.1,267.9z M440.8,250.9c-1.2,0-2.1,1-2.1,2.1v11.7c0,1.2,1,2.1,2.1,2.1h44.3c1.2,0,2.1-1,2.1-2.1V253
		c0-1.2-1-2.1-2.1-2.1H440.8z"/>
	<rect x="444.5" y="220.1" width="1" height="9.4"/>
	<rect x="447.8" y="220.1" width="1" height="9.4"/>
	<rect x="451.2" y="220.1" width="1" height="9.4"/>
	<rect x="444.5" y="237" width="1" height="9.4"/>
	<rect x="447.8" y="237" width="1" height="9.4"/>
	<rect x="451.2" y="237" width="1" height="9.4"/>
	<rect x="444.5" y="253.8" width="1" height="9.4"/>
	<rect x="447.8" y="253.8" width="1" height="9.4"/>
	<rect x="451.2" y="253.8" width="1" height="9.4"/>
	<path d="M479.8,227.7c-1.7,0-3.1-1.4-3.1-3.1s1.4-3.1,3.1-3.1c1.7,0,3.1,1.4,3.1,3.1S481.5,227.7,479.8,227.7z M479.8,222.6
		c-1.1,0-2.1,0.9-2.1,2.1s0.9,2.1,2.1,2.1s2.1-0.9,2.1-2.1S481,222.6,479.8,222.6z"/>
	<path d="M479.8,244.7c-1.7,0-3.1-1.4-3.1-3.1s1.4-3.1,3.1-3.1c1.7,0,3.1,1.4,3.1,3.1S481.5,244.7,479.8,244.7z M479.8,239.6
		c-1.1,0-2.1,0.9-2.1,2.1s0.9,2.1,2.1,2.1s2.1-0.9,2.1-2.1S481,239.6,479.8,239.6z"/>
	<path d="M479.8,262c-1.7,0-3.1-1.4-3.1-3.1s1.4-3.1,3.1-3.1c1.7,0,3.1,1.4,3.1,3.1S481.5,262,479.8,262z M479.8,256.8
		c-1.1,0-2.1,0.9-2.1,2.1s0.9,2.1,2.1,2.1s2.1-0.9,2.1-2.1S481,256.8,479.8,256.8z"/>
</g>
</svg>
