<svg xmlns="http://www.w3.org/2000/svg" width="17" height="17" viewBox="0 0 17 17" fill="none">
    <g clip-path="url(#clip0_1316_8409)">
      <path fill-rule="evenodd" clip-rule="evenodd" d="M6.27713 0.819678C6.63703 0.812177 6.99479 0.876717 7.32938 1.00951C7.66397 1.14229 7.96862 1.34065 8.22543 1.5929C8.26254 1.62935 8.29853 1.66681 8.33339 1.70525C8.36825 1.66681 8.40425 1.62935 8.44135 1.5929C8.69816 1.34065 9.00282 1.14229 9.3374 1.00951C9.67199 0.876717 10.0298 0.812177 10.3896 0.819678C10.7495 0.82718 11.1043 0.906572 11.4331 1.05319C11.7618 1.1998 12.058 1.41068 12.304 1.67341C12.5501 1.93614 12.7412 2.24543 12.8659 2.58308C12.9279 2.75079 12.9729 2.92381 13.0006 3.09956C13.3071 3.23175 13.5931 3.40916 13.8488 3.62669C14.2379 3.95769 14.5465 4.37288 14.7514 4.84083C14.9563 5.30877 15.052 5.8172 15.0312 6.3276C15.0179 6.65582 14.9566 6.97932 14.8502 7.28805C15.0919 7.55991 15.2887 7.87004 15.432 8.20695C15.6467 8.7117 15.7348 9.26127 15.6887 9.80784C15.6425 10.3544 15.4636 10.8814 15.1673 11.3431C14.9528 11.6774 14.6814 11.97 14.3667 12.2085C14.3649 12.516 14.3209 12.8226 14.2355 13.1195C14.1083 13.5618 13.8918 13.9732 13.5993 14.3285C13.3068 14.6838 12.9446 14.9753 12.5351 15.1852C12.1255 15.395 11.6773 15.5186 11.2181 15.5484C10.7589 15.5782 10.2984 15.5135 9.86516 15.3584C9.43192 15.2033 9.03508 14.961 8.69914 14.6465C8.56623 14.5221 8.44398 14.3874 8.33339 14.2439C8.22281 14.3874 8.10055 14.5221 7.96764 14.6465C7.6317 14.961 7.23486 15.2033 6.80162 15.3584C6.36837 15.5135 5.90792 15.5782 5.44871 15.5484C4.9895 15.5186 4.54127 15.395 4.13171 15.1852C3.72215 14.9753 3.35995 14.6838 3.06748 14.3285C2.77501 13.9732 2.55848 13.5618 2.43126 13.1195C2.34585 12.8226 2.30191 12.516 2.30012 12.2085C1.98535 11.97 1.71402 11.6774 1.49948 11.3431C1.20322 10.8814 1.02424 10.3544 0.978113 9.80784C0.931985 9.26127 1.0201 8.7117 1.2348 8.20695C1.37811 7.87004 1.57491 7.55991 1.81655 7.28805C1.71014 6.97932 1.64889 6.65582 1.63556 6.3276C1.61483 5.8172 1.71052 5.30877 1.91538 4.84083C2.12023 4.37288 2.42889 3.95769 2.81797 3.62669C3.07367 3.40916 3.35971 3.23174 3.66619 3.09956C3.69384 2.92381 3.73885 2.75079 3.80083 2.58308C3.92563 2.24543 4.11668 1.93615 4.36275 1.67341C4.60882 1.41068 4.90495 1.1998 5.23371 1.05319C5.56248 0.906572 5.91724 0.82718 6.27713 0.819678ZM3.85319 4.5929C3.80922 4.62444 3.76649 4.65783 3.72512 4.69303C3.49784 4.88638 3.31753 5.12892 3.19786 5.40228C3.07819 5.67563 3.0223 5.97263 3.03441 6.27079C3.03742 6.34495 3.04462 6.41869 3.05591 6.49169C3.29661 6.49691 3.5282 6.62628 3.65345 6.85198C3.84105 7.19001 3.7191 7.61612 3.38107 7.80371C3.27818 7.86081 3.18212 7.92552 3.09344 7.99775L3.09278 7.99829C2.84408 8.20033 2.64852 8.46008 2.5231 8.75493C2.39768 9.04979 2.34621 9.37082 2.37315 9.69011C2.4001 10.0094 2.50465 10.3173 2.67771 10.5869C2.85074 10.8565 3.087 11.0798 3.36596 11.2373M3.85319 4.5929C3.89456 4.68914 3.9416 4.78315 3.99418 4.87441C4.18716 5.2094 4.61516 5.32452 4.95015 5.13153C5.28514 4.93855 5.40026 4.51055 5.20727 4.17556C5.10255 3.99377 5.04338 3.78934 5.03481 3.57973L5.03469 3.57709C5.02696 3.40394 5.05393 3.23099 5.11402 3.06842C5.1741 2.90585 5.26609 2.75693 5.38457 2.63043C5.50305 2.50393 5.64563 2.4024 5.80392 2.3318C5.96221 2.26121 6.13303 2.22299 6.30631 2.21937C6.47959 2.21576 6.65185 2.24684 6.81295 2.31077C6.97404 2.37471 7.12073 2.47021 7.24438 2.59167C7.36802 2.71312 7.46614 2.85807 7.53294 3.018C7.59855 3.17505 7.63267 3.34343 7.63339 3.51357C7.63338 3.51772 7.63338 3.52186 7.63339 3.52601V6.17131C7.6055 6.61913 7.44721 7.04916 7.17784 7.40832C6.90491 7.77223 6.5302 8.04703 6.1011 8.19799C5.7364 8.32628 5.54477 8.72592 5.67306 9.09061C5.80135 9.45531 6.20099 9.64694 6.56569 9.51865C6.95376 9.38213 7.31417 9.18265 7.63339 8.93012L7.63339 12.1909C7.63339 12.191 7.63339 12.1912 7.63339 12.1913C7.63305 12.46 7.57766 12.7257 7.47063 12.9722C7.36355 13.2188 7.20706 13.4408 7.01082 13.6245C6.81458 13.8082 6.58277 13.9497 6.32968 14.0404C6.0766 14.131 5.80762 14.1688 5.53937 14.1513C5.27112 14.1339 5.00928 14.0617 4.77003 13.9392C4.53078 13.8166 4.3192 13.6463 4.14835 13.4387C4.00405 13.2634 3.8914 13.0647 3.8151 12.8516C3.98603 12.8782 4.1594 12.8917 4.33372 12.8917C4.72032 12.8915 5.03357 12.5779 5.03339 12.1913C5.03321 11.8047 4.71966 11.4915 4.33306 11.4917C3.99497 11.4918 3.66182 11.4041 3.36614 11.2374M9.03339 12.1913C9.03373 12.46 9.08912 12.7257 9.19615 12.9722C9.30323 13.2188 9.45972 13.4408 9.65596 13.6245C9.8522 13.8082 10.084 13.9497 10.3371 14.0404C10.5902 14.131 10.8592 14.1688 11.1274 14.1513C11.3957 14.1339 11.6575 14.0617 11.8967 13.9392C12.136 13.8166 12.3476 13.6463 12.5184 13.4387C12.6627 13.2634 12.7754 13.0647 12.8517 12.8516C12.6808 12.8782 12.5074 12.8917 12.3331 12.8917C11.9465 12.8915 11.6332 12.5779 11.6334 12.1913C11.6336 11.8047 11.9471 11.4915 12.3337 11.4917C12.6719 11.4918 13.0051 11.4041 13.3008 11.2373C13.5798 11.0798 13.816 10.8565 13.9891 10.5869C14.1621 10.3173 14.2667 10.0094 14.2936 9.69011C14.3206 9.37082 14.2691 9.04979 14.1437 8.75493C14.0183 8.46008 13.8227 8.20033 13.574 7.99829L13.5733 7.99775C13.4847 7.92552 13.3886 7.86081 13.2857 7.80371C12.9477 7.61612 12.8257 7.19001 13.0133 6.85198C13.1386 6.62628 13.3702 6.49691 13.6109 6.49169C13.6222 6.41869 13.6294 6.34495 13.6324 6.27079C13.6445 5.97263 13.5886 5.67563 13.4689 5.40228C13.3492 5.12892 13.1689 4.88638 12.9417 4.69303C12.9003 4.65785 12.8576 4.62447 12.8137 4.59295C12.7723 4.68928 12.7251 4.78342 12.6724 4.87485C12.4791 5.20969 12.051 5.32451 11.7162 5.13128C11.3813 4.93806 11.2665 4.50997 11.4598 4.17512C11.5642 3.99421 11.6233 3.78991 11.632 3.57929L11.6321 3.57709C11.6398 3.40394 11.6128 3.23099 11.5528 3.06842C11.4927 2.90585 11.4007 2.75693 11.2822 2.63043C11.1637 2.50393 11.0212 2.4024 10.8629 2.3318C10.7046 2.26121 10.5338 2.22299 10.3605 2.21937C10.1872 2.21576 10.0149 2.24684 9.85384 2.31077C9.69274 2.37471 9.54605 2.47021 9.4224 2.59167C9.29876 2.71312 9.20064 2.85807 9.13384 3.018C9.06823 3.17505 9.03412 3.34343 9.03339 3.51357C9.0334 3.51772 9.0334 3.52186 9.03339 3.52601V6.17131C9.06129 6.61913 9.21957 7.04916 9.48894 7.40832C9.76187 7.77223 10.1366 8.04703 10.5657 8.19799C10.9304 8.32628 11.122 8.72592 10.9937 9.09061C10.8654 9.45531 10.4658 9.64694 10.1011 9.51865C9.71302 9.38213 9.35261 9.18265 9.03339 8.93012L9.03339 12.1909C9.03339 12.191 9.03339 12.1912 9.03339 12.1913Z" fill="#CF163E"/>
    </g>
    <defs>
      <clipPath id="clip0_1316_8409">
        <rect width="16" height="16" fill="white" transform="translate(0.333374 0.19165)"/>
      </clipPath>
    </defs>
</svg>