<svg xmlns="http://www.w3.org/2000/svg" width="16" height="16" fill="none" xmlns:v="https://vecta.io/nano"><g clip-path="url(#A)"><path fill-rule="evenodd" d="M2.667 2.033c-.35 0-.633.284-.633.633v2.667c0 .35.284.633.633.633h10.667c.35 0 .633-.284.633-.633V2.667c0-.35-.284-.633-.633-.633H2.667zm-2.033.633c0-1.123.91-2.033 2.033-2.033h10.667c1.123 0 2.033.91 2.033 2.033v2.667c0 1.123-.91 2.033-2.033 2.033H2.667c-1.123 0-2.033-.91-2.033-2.033V2.667zM3.3 4a.7.7 0 0 1 .7-.7h.007a.7.7 0 1 1 0 1.4H4a.7.7 0 0 1-.7-.7zm-.633 6.033c-.35 0-.633.284-.633.633v2.667c0 .35.284.633.633.633h10.667c.35 0 .633-.284.633-.633v-2.667c0-.35-.284-.633-.633-.633H2.667zm-2.033.633c0-1.123.91-2.033 2.033-2.033h10.667c1.123 0 2.033.91 2.033 2.033v2.667c0 1.123-.91 2.033-2.033 2.033H2.667c-1.123 0-2.033-.91-2.033-2.033v-2.667zM3.3 12a.7.7 0 0 1 .7-.7h.007a.7.7 0 0 1 0 1.4H4a.7.7 0 0 1-.7-.7z" fill="#cf163e"/></g><defs><clipPath id="A"><path fill="#fff" d="M0 0h16v16H0z"/></clipPath></defs></svg>