<svg xmlns="http://www.w3.org/2000/svg" width="16" height="10" fill="none" xmlns:v="https://vecta.io/nano"><path d="M4.509 3.477c0 .197.021.357.059.474a2.85 2.85 0 0 0 .17.383c.027.043.037.085.037.122 0 .053-.032.106-.101.16l-.335.224c-.048.032-.096.048-.138.048-.053 0-.106-.027-.16-.075-.075-.08-.138-.165-.192-.25l-.165-.314c-.415.49-.937.735-1.565.735-.447 0-.804-.128-1.064-.383S.662 4.004.662 3.578c0-.453.16-.82.484-1.097s.756-.415 1.304-.415a4.21 4.21 0 0 1 .564.043 7.22 7.22 0 0 1 .612.117v-.389c0-.405-.085-.687-.25-.852C3.205.82 2.918.74 2.508.74a2.42 2.42 0 0 0-.575.069 4.24 4.24 0 0 0-.575.181c-.085.037-.149.059-.186.069s-.064.016-.085.016c-.075 0-.112-.053-.112-.165V.65c0-.085.011-.149.037-.186s.075-.075.149-.112c.186-.096.41-.176.671-.24.261-.069.537-.101.83-.101.633 0 1.096.144 1.394.431.293.287.442.724.442 1.31v1.725h.011zm-2.161.809c.176 0 .357-.032.548-.096s.362-.181.506-.341c.085-.101.149-.213.181-.341s.053-.282.053-.463v-.224a4.44 4.44 0 0 0-.49-.091c-.17-.021-.335-.032-.5-.032-.357 0-.617.069-.793.213s-.261.346-.261.612c0 .25.064.437.197.564.128.133.314.197.559.197zm4.273.575c-.096 0-.16-.016-.202-.053-.043-.032-.08-.106-.112-.208L5.057.484C5.025.378 5.009.309 5.009.272c0-.085.043-.133.128-.133h.522c.101 0 .17.016.208.053.043.032.074.106.106.208l.894 3.524.83-3.524c.027-.106.059-.176.101-.208s.117-.053.213-.053h.426c.101 0 .17.016.213.053.043.032.08.106.101.208l.841 3.567.921-3.567c.032-.106.069-.176.106-.208.043-.032.112-.053.208-.053h.495c.085 0 .133.043.133.133 0 .027-.005.053-.011.085s-.016.075-.037.133l-1.282 4.115c-.032.106-.069.176-.112.208a.34.34 0 0 1-.202.053h-.458c-.101 0-.17-.016-.213-.053s-.08-.106-.101-.213l-.825-3.434-.82 3.429c-.027.106-.059.176-.101.213s-.117.053-.213.053h-.458zm6.838.144a3.52 3.52 0 0 1-.819-.096c-.266-.064-.474-.133-.612-.213-.085-.048-.144-.101-.165-.149s-.032-.101-.032-.149v-.272c0-.112.043-.165.122-.165a.3.3 0 0 1 .096.016c.032.011.08.032.133.053a2.89 2.89 0 0 0 .585.186c.213.043.42.064.633.064.335 0 .596-.059.777-.176s.277-.288.277-.506a.52.52 0 0 0-.144-.373c-.096-.101-.277-.192-.537-.277l-.772-.24c-.388-.122-.676-.303-.851-.543a1.27 1.27 0 0 1-.266-.772c0-.224.048-.421.144-.591a1.37 1.37 0 0 1 .383-.437 1.69 1.69 0 0 1 .553-.277c.213-.064.436-.091.671-.091a2.67 2.67 0 0 1 .356.021l.346.059.303.085a1.16 1.16 0 0 1 .223.096.46.46 0 0 1 .16.133c.032.043.048.101.048.176v.25c0 .112-.043.17-.122.17-.043 0-.112-.021-.202-.064-.303-.138-.644-.208-1.022-.208-.303 0-.543.048-.708.149s-.25.256-.25.474c0 .149.053.277.16.378s.303.202.585.293l.756.24c.383.122.66.293.825.511s.245.469.245.745a1.37 1.37 0 0 1-.138.618 1.43 1.43 0 0 1-.389.469c-.165.133-.362.229-.591.298a2.53 2.53 0 0 1-.761.112z" fill="#252f3e"/><path d="M14.465 7.592c-1.751 1.294-4.294 1.981-6.482 1.981-3.065 0-5.827-1.134-7.913-3.019-.165-.149-.016-.351.181-.234C2.507 7.63 5.29 8.423 8.169 8.423a15.81 15.81 0 0 0 6.04-1.235c.293-.133.543.192.256.405zm.73-.83c-.223-.287-1.479-.138-2.049-.069-.17.021-.197-.128-.043-.24 1-.703 2.645-.5 2.836-.266.192.24-.053 1.885-.99 2.673-.144.122-.282.059-.218-.101.213-.527.686-1.714.463-1.996z" fill="#f90"/></svg>