<svg xmlns="http://www.w3.org/2000/svg" width="16" height="16" viewBox="0 0 17 17" fill="none" xmlns:v="https://vecta.io/nano"><path d="M5.667 0h5.03L5.476 15.496c-.027.079-.066.154-.115.221a.8.8 0 0 1-.399.287c-.079.026-.162.039-.246.039H.801c-.127 0-.252-.03-.366-.088a.8.8 0 0 1-.285-.246c-.074-.104-.123-.223-.142-.349s-.007-.255.033-.375L4.907.546a.8.8 0 0 1 .115-.221C5.072.258 5.132.2 5.2.151a.8.8 0 0 1 .222-.112C5.501.013 5.584 0 5.667 0h0 0z" fill="url(#A)"/><path d="M14.941 16.042h-4.517a.79.79 0 0 1-.15-.014.8.8 0 0 1-.145-.042c-.047-.018-.092-.042-.135-.068a.81.81 0 0 1-.12-.092l-5.126-4.791a.37.37 0 0 1-.092-.406.37.37 0 0 1 .344-.234h7.977l1.963 5.649h0z" fill="#0078d4"/><path d="M10.716 0L7.195 10.395l5.754-.001 1.974 5.649h-4.5a.82.82 0 0 1-.139-.013c-.046-.008-.091-.02-.135-.037a.82.82 0 0 1-.241-.138l-3.46-3.232-.969 2.859c-.025.072-.06.139-.102.202a.86.86 0 0 1-.341.291.85.85 0 0 1-.215.069H.803c-.128 0-.255-.03-.369-.089a.8.8 0 0 1-.286-.25.8.8 0 0 1-.139-.354c-.017-.127-.004-.257.04-.378L4.906.557a.79.79 0 0 1 .113-.225.8.8 0 0 1 .177-.179c.068-.05.144-.088.224-.114S5.583 0 5.668 0h5.048 0z" fill="url(#B)"/><path d="M16.958 14.984c.041.121.052.249.033.375s-.067.245-.141.349a.8.8 0 0 1-.651.334h-5.607a.8.8 0 0 0 .651-.334c.074-.103.123-.223.142-.349s.007-.255-.033-.375L6.487.546a.8.8 0 0 0-.292-.395C6.127.102 6.052.064 5.973.039A.8.8 0 0 0 5.728 0h5.606a.8.8 0 0 1 .245.038c.079.026.154.063.222.112s.127.108.177.175.088.141.115.221l4.866 14.438h-.001z" fill="url(#C)"/><defs><linearGradient id="A" x1="7.503" y1="1.189" x2="2.267" y2="16.644" gradientUnits="userSpaceOnUse"><stop stop-color="#114a8b"/><stop offset="1" stop-color="#0669bc"/></linearGradient><linearGradient id="B" x1="9.133" y1="8.392" x2="7.924" y2="8.802" gradientUnits="userSpaceOnUse"><stop stop-opacity=".3"/><stop offset=".1" stop-opacity=".2"/><stop offset=".3" stop-opacity=".1"/><stop offset=".6" stop-opacity=".1"/><stop offset="1" stop-opacity="0"/></linearGradient><linearGradient id="C" x1="8.466" y1=".739" x2="14.213" y2="16.035" gradientUnits="userSpaceOnUse"><stop stop-color="#3ccbf4"/><stop offset="1" stop-color="#2892df"/></linearGradient></defs></svg>