<svg xmlns="http://www.w3.org/2000/svg" width="16" height="16" fill="none" xmlns:v="https://vecta.io/nano"><path fill-rule="evenodd" d="M2.667 3.367c-.35 0-.633.284-.633.633v.633H3.3V3.367h-.633zm0-1.4C1.544 1.967.633 2.877.633 4v8c0 1.123.91 2.033 2.033 2.033h10.667c1.123 0 2.033-.91 2.033-2.033V4c0-1.123-.91-2.033-2.033-2.033H2.667zm2.033 1.4v1.267h1.267V3.367H4.7zm2.667 0v1.267h6.6V4c0-.35-.284-.633-.633-.633H7.367zm6.6 2.667H2.033V12c0 .35.284.633.633.633h10.667c.35 0 .633-.284.633-.633V6.033z" fill="#cf163e"/></svg>