<svg xmlns="http://www.w3.org/2000/svg" width="16" height="16" fill="none" xmlns:v="https://vecta.io/nano"><path fill-rule="evenodd" d="M2.7 5.072v2.923c.002.007.009.026.033.059.044.061.132.152.295.259.328.217.853.434 1.563.61.702.174 1.529.293 2.415.345a17 17 0 0 0 2.652-.052.7.7 0 0 1 .14 1.393 18.4 18.4 0 0 1-2.873.057 14.9 14.9 0 0 1-2.67-.384c-.581-.144-1.11-.326-1.554-.547v2.935c.002.007.009.027.034.061.046.064.139.158.311.269.346.225.9.447 1.643.623a13.93 13.93 0 0 0 2.515.332 16.84 16.84 0 0 0 2.716-.091.7.7 0 1 1 .164 1.39c-.946.111-1.955.145-2.945.099s-1.939-.171-2.772-.368c-.825-.195-1.549-.465-2.083-.81-.508-.33-.988-.831-.983-1.513V8 3.333c0-.583.355-1.026.738-1.328.391-.308.914-.555 1.498-.75C4.711.863 6.289.633 8 .633s3.289.23 4.464.622c.584.195 1.106.442 1.498.75.383.302.738.746.738 1.328v2a.7.7 0 0 1-1.4 0v-.261c-.257.128-.538.241-.836.34-1.175.392-2.753.622-4.464.622s-3.289-.23-4.464-.622c-.298-.099-.579-.212-.836-.34zm10.599-1.739c-.007.022-.041.1-.204.229-.216.17-.572.354-1.074.521-.997.332-2.419.55-4.021.55s-3.024-.218-4.021-.55c-.502-.167-.858-.351-1.074-.521-.163-.128-.197-.207-.204-.229.007-.022.041-.1.204-.229.216-.17.572-.354 1.074-.521.997-.332 2.419-.55 4.021-.55s3.024.218 4.021.55c.502.167.858.351 1.074.521.163.128.197.207.204.229zm-10.6 9.335h0zM14.36 7.4a.7.7 0 0 1 .24.96l-1.364 2.273h1.43a.7.7 0 0 1 .6 1.06l-2 3.333a.7.7 0 1 1-1.2-.72l1.364-2.273H12a.7.7 0 0 1-.6-1.06l2-3.333a.7.7 0 0 1 .96-.24z" fill="#cf163e"/></svg>