<svg xmlns="http://www.w3.org/2000/svg" width="16" height="16" fill="none" xmlns:v="https://vecta.io/nano"><path fill-rule="evenodd" d="M1.034 3.034c.256-.256.604-.4.966-.4h3.448c.539 0 1.056.214 1.438.596l3.804 3.804c.431.434.674 1.021.674 1.633s-.242 1.199-.674 1.633l-.002.002-2.387 2.387-.002.002c-.434.431-1.021.674-1.633.674s-1.199-.242-1.633-.674l-.002-.002-3.803-3.803C.848 8.504.633 7.987.633 7.448V4c0-.362.144-.71.4-.966zm1 1v3.415c0 .168.067.329.186.448l3.801 3.801a.92.92 0 0 0 .647.267c.242 0 .474-.096.646-.266l2.384-2.384a.92.92 0 0 0 .267-.647c0-.242-.096-.474-.266-.646L5.896 4.219c-.119-.119-.28-.186-.448-.186H2.033zm7.472-1.195a.7.7 0 0 1 .99 0l4.199 4.199a2.3 2.3 0 0 1 .676 1.629 2.3 2.3 0 0 1-.676 1.629l-2.866 2.866a.7.7 0 1 1-.99-.99l2.868-2.868a.9.9 0 0 0 .265-.638.9.9 0 0 0-.265-.637L9.505 3.828a.7.7 0 0 1 0-.99zM3.3 6.333c0-.571.463-1.033 1.033-1.033s1.033.463 1.033 1.033-.463 1.033-1.033 1.033S3.3 6.904 3.3 6.333z" fill="#cf163e"/></svg>