<svg xmlns="http://www.w3.org/2000/svg" width="16" height="16" fill="none" xmlns:v="https://vecta.io/nano"><path fill-rule="evenodd" d="M3.333 2.7c-.35 0-.633.284-.633.633v9.333c0 .35.284.633.633.633h9.333c.35 0 .633-.284.633-.633V3.333c0-.35-.284-.633-.633-.633H3.333zM1.3 3.333C1.3 2.21 2.21 1.3 3.333 1.3h9.333c1.123 0 2.033.91 2.033 2.033v9.333c0 1.123-.91 2.033-2.033 2.033H3.333c-1.123 0-2.033-.91-2.033-2.033V3.333zm2.872.838a.7.7 0 0 1 .99 0l1.333 1.333a.7.7 0 0 1 0 .99L5.162 7.828a.7.7 0 1 1-.99-.99L5.01 6l-.838-.838a.7.7 0 0 1 0-.99zm2.462 4.495a.7.7 0 0 1 .7-.7H10a.7.7 0 1 1 0 1.4H7.333a.7.7 0 0 1-.7-.7z" fill="#cf163e"/></svg>