<svg xmlns="http://www.w3.org/2000/svg" width="20" height="20" viewBox="0 0 24 24" fill="none" xmlns:v="https://vecta.io/nano"><path fill-rule="evenodd" d="M12 1.95A1.05 1.05 0 0 1 13.05 3v9.465l3.207-3.208a1.05 1.05 0 1 1 1.485 1.485l-5 5a1.05 1.05 0 0 1-1.485 0l-5-5a1.05 1.05 0 0 1 1.485-1.485l3.208 3.208V3A1.05 1.05 0 0 1 12 1.95zm-9 12A1.05 1.05 0 0 1 4.05 15v4a.95.95 0 0 0 .95.95h14a.95.95 0 0 0 .95-.95v-4a1.05 1.05 0 1 1 2.1 0v4A3.05 3.05 0 0 1 19 22.05H5A3.05 3.05 0 0 1 1.95 19v-4A1.05 1.05 0 0 1 3 13.95z" fill="#cf163e"/></svg>