<svg xmlns="http://www.w3.org/2000/svg" width="16" height="16" fill="none" xmlns:v="https://vecta.io/nano"><path fill-rule="evenodd" d="M3.44 2.633h9.12l.906.02c.266.022.533.07.79.201.383.195.694.506.889.889.131.258.179.525.201.79.021.251.021.555.021.906v1.893a.7.7 0 1 1-1.4 0V5.467l-.016-.819c-.015-.179-.039-.241-.053-.269-.061-.119-.158-.216-.277-.277-.027-.014-.09-.039-.269-.053-.187-.015-.434-.016-.819-.016H3.467l-.819.016c-.179.015-.241.039-.269.053-.119.061-.216.158-.277.277-.014.027-.039.09-.053.269-.015.187-.016.434-.016.819v2.4l.016.819c.015.179.039.241.053.269.061.119.158.216.277.277.027.014.09.039.269.053.187.015.434.016.819.016h3.867a.7.7 0 0 1 0 1.4H3.44c-.351 0-.655 0-.906-.02-.266-.022-.533-.07-.79-.201-.383-.195-.694-.506-.889-.889-.131-.258-.179-.525-.201-.79-.021-.251-.021-.555-.02-.906V5.44l.02-.906c.022-.266.07-.533.201-.79.195-.383.506-.694.889-.889.258-.131.525-.179.79-.201.251-.021.555-.02.906-.02zm.36 4.033c0-.479.388-.867.867-.867s.867.388.867.867-.388.867-.867.867-.867-.388-.867-.867zm3.333 0c0-.479.388-.867.867-.867s.867.388.867.867-.388.867-.867.867-.867-.388-.867-.867zm3.333 0c0-.479.388-.867.867-.867s.867.388.867.867-.388.867-.867.867-.867-.388-.867-.867zm-.667 3.5c0-1.031.836-1.867 1.867-1.867s1.867.836 1.867 1.867v.489c.13.018.275.052.42.126.257.131.466.34.597.597a1.38 1.38 0 0 1 .138.526c.011.14.011.305.011.473v.577l-.011.473a1.38 1.38 0 0 1-.138.526c-.131.257-.34.466-.597.597-.186.095-.371.125-.526.138-.14.011-.305.011-.473.011h-2.577c-.168 0-.333 0-.473-.011-.154-.013-.339-.043-.526-.138-.257-.131-.466-.34-.597-.597-.095-.186-.125-.371-.138-.526-.011-.14-.011-.305-.011-.473v-.577l.011-.473a1.38 1.38 0 0 1 .138-.526c.131-.257.34-.466.597-.597.146-.074.29-.109.42-.126v-.489zm.6 1.867l-.361.005a6.4 6.4 0 0 0-.005.361v.533l.005.361a6.37 6.37 0 0 0 .361.005h2.533l.361-.005c.005-.075.005-.18.005-.361V12.4l-.005-.361-.361-.005H10.4zm1.733-1.4H11.2v-.467c0-.258.209-.467.467-.467s.467.209.467.467v.467z" fill="#cf163e"/></svg>