<svg xmlns="http://www.w3.org/2000/svg" width="24" height="24" fill="#cf163e" xmlns:v="https://vecta.io/nano"><path d="M12 3.05A4.97 4.97 0 0 0 7.05 8c0 3.655-.785 6.081-1.628 7.628l-.184.322h13.553l-.318-.556a1.05 1.05 0 1 1 1.853-.988c.359.672.71 1.13.958 1.409l.285.292.063.055.006.005A1.05 1.05 0 0 1 21 18.05H3a1.05 1.05 0 0 1-.595-1.915l.002-.001.05-.04a2.95 2.95 0 0 0 .25-.238c.222-.234.542-.63.872-1.234C4.235 13.419 4.95 11.346 4.95 8A7.07 7.07 0 0 1 12 .95a6.87 6.87 0 0 1 2.232.354 1.05 1.05 0 1 1-.664 1.992c-.49-.163-.978-.246-1.568-.246zM9.794 20.08a1.05 1.05 0 0 1 1.426.414.89.89 0 0 0 1.56 0 1.05 1.05 0 0 1 1.84 1.012 2.99 2.99 0 0 1-5.24.001 1.05 1.05 0 0 1 .414-1.426zM14.95 5A1.05 1.05 0 0 1 16 3.95h5.333c.142 0 .278.028.402.08a1.05 1.05 0 0 1 .334.221l.014.014c.186.189.301.449.301.736v5.333a1.05 1.05 0 1 1-2.1 0V7.535l-3.541 3.541a1.05 1.05 0 0 1-1.485-1.485l3.541-3.541H16A1.05 1.05 0 0 1 14.95 5z"/></svg>