<svg xmlns="http://www.w3.org/2000/svg" width="16" height="16" fill="none" xmlns:v="https://vecta.io/nano"><path fill-rule="evenodd" d="M3.333 2.7c-.35 0-.633.284-.633.633V5.3h1.933V2.7h-1.3zm0-1.4C2.21 1.3 1.3 2.21 1.3 3.333v9.333c0 1.123.91 2.033 2.033 2.033h9.333c1.123 0 2.033-.91 2.033-2.033V3.333c0-1.123-.91-2.033-2.033-2.033H3.333zm2.7 1.4v2.6h3.933V2.7H6.033zm5.333 0v2.6H13.3V3.333c0-.35-.284-.633-.633-.633h-1.3zm1.933 4H8.7v2.6h4.6V6.7zm0 4h-1.933v2.6h1.3c.35 0 .633-.284.633-.633V10.7zm-3.333 2.6v-2.6H6.033v2.6h3.933zm-5.333 0v-2.6H2.7v1.967c0 .35.284.633.633.633h1.3zM2.7 9.3h4.6V6.7H2.7v2.6z" fill="#cf163e"/></svg>