<svg xmlns="http://www.w3.org/2000/svg" width="16" height="12" preserveAspectRatio="xMidYMid" viewBox="0 0 256 206" xmlns:v="https://vecta.io/nano"><path d="M170.252 56.819l22.253-22.253 1.483-9.37C153.437-11.677 88.976-7.496 52.421 33.92 42.267 45.423 34.734 59.764 30.717 74.573l7.97-1.123 44.505-7.339 3.436-3.514c19.797-21.742 53.27-24.667 76.128-6.168z" fill="#ea4335"/><path d="M224.205 73.918a100.25 100.25 0 0 0-30.217-48.722l-31.232 31.232c13.188 10.776 20.701 27.01 20.379 44.037v5.544c15.351 0 27.797 12.445 27.797 27.796s-12.446 27.485-27.797 27.485h-55.671l-5.466 5.934v33.34l5.466 5.231h55.671c39.93.311 72.552-31.494 72.863-71.424.188-24.203-11.745-46.893-31.793-60.453" fill="#4285f4"/><path d="M71.87 205.796h55.593V161.29H71.87c-3.961-.001-7.797-.852-11.399-2.498l-7.887 2.42-22.409 22.253-1.952 7.574c12.567 9.489 27.9 14.825 43.647 14.757" fill="#34a853"/><path d="M71.87 61.426C31.939 61.664-.237 94.227.001 134.158a72.3 72.3 0 0 0 28.222 56.881l32.248-32.247c-13.991-6.321-20.208-22.786-13.887-36.776s22.786-20.207 36.775-13.887c6.165 2.785 11.102 7.723 13.887 13.887l32.248-32.247C115.773 71.831 94.453 61.344 71.87 61.425" fill="#fbbc05"/></svg>