<svg xmlns="http://www.w3.org/2000/svg" width="16" height="16" fill="none" xmlns:v="https://vecta.io/nano"><path fill-rule="evenodd" d="M4.333 2.033c-.256 0-.502.102-.684.283s-.283.427-.283.684v7.84c.301-.135.63-.206.967-.206h8.3v-8.6h-8.3zm9.7-.7a.7.7 0 0 0-.7-.7h-9c-.628 0-1.23.249-1.673.693S1.967 2.372 1.967 3v10c0 .628.249 1.23.693 1.674s1.046.693 1.673.693h9a.7.7 0 0 0 .7-.7V1.333zm-1.4 10.7h-8.3c-.256 0-.502.102-.684.283s-.283.427-.283.684.102.502.283.684.427.283.684.283h8.3v-1.933zm-2.138-7.528a.7.7 0 0 1 0 .99L7.828 8.162a.7.7 0 0 1-.99 0L5.505 6.828a.7.7 0 0 1 .99-.99l.838.838 2.172-2.172a.7.7 0 0 1 .99 0z" fill="#cf163e"/></svg>