<svg xmlns="http://www.w3.org/2000/svg" width="16" height="16" fill="none" xmlns:v="https://vecta.io/nano"><path fill-rule="evenodd" d="M8.007 2.667l-2.076 3.3h4.132l-2.055-3.3zm-.041-1.606c.201-.007.4.038.579.13s.33.229.44.398l.008.013 2.461 3.95c.114.171.181.368.194.574.014.212-.031.424-.129.613s-.246.347-.428.458-.39.17-.603.17h-.002-4.937c-.207.007-.412-.041-.595-.139-.189-.102-.347-.255-.455-.441s-.162-.398-.157-.614.069-.421.184-.601L7 1.64c.097-.167.234-.307.399-.408.171-.105.367-.164.568-.171zM2.7 10.034V13.3h3.267v-3.267H2.7zM1.3 10c0-.755.612-1.367 1.367-1.367H6c.755 0 1.367.612 1.367 1.367v3.333c0 .755-.612 1.367-1.367 1.367H2.667c-.755 0-1.367-.612-1.367-1.367V10zm10.367.033c-.902 0-1.633.731-1.633 1.633s.731 1.633 1.633 1.633 1.633-.731 1.633-1.633-.731-1.633-1.633-1.633zm-3.033 1.633c0-1.675 1.358-3.033 3.033-3.033S14.7 9.992 14.7 11.667 13.342 14.7 11.667 14.7s-3.033-1.358-3.033-3.033z" fill="#cf163e"/></svg>