<svg xmlns="http://www.w3.org/2000/svg" width="20" height="20" viewBox="0 0 24 24" fill="none" xmlns:v="https://vecta.io/nano"><path fill-rule="evenodd" d="M4.05 7.608v3.388c.004.021.042.142.305.351.321.255.851.53 1.602.78 1.491.498 3.623.824 6.043.824s4.552-.326 6.043-.824c.751-.251 1.281-.526 1.602-.78.263-.209.301-.33.305-.351V7.608a9.74 9.74 0 0 1-1.254.51c-1.762.587-4.129.933-6.696.933s-4.934-.345-6.696-.933a9.74 9.74 0 0 1-1.254-.51zM22.05 5v6c0 .871-.526 1.537-1.101 1.992-.585.464-1.367.835-2.242 1.127-1.518.507-3.488.832-5.657.912v2.105a3.06 3.06 0 0 1 1.814 1.814H21a1.05 1.05 0 1 1 0 2.1h-6.136a3.05 3.05 0 0 1-5.729 0H3a1.05 1.05 0 1 1 0-2.1h6.136a3.06 3.06 0 0 1 1.814-1.814v-2.105c-2.169-.08-4.14-.406-5.658-.912-.874-.292-1.656-.663-2.241-1.126C2.476 12.537 1.95 11.871 1.95 11V5c0-.874.532-1.539 1.107-1.992.587-.463 1.371-.833 2.247-1.125C7.066 1.295 9.433.95 12 .95s4.934.345 6.696.933c.875.292 1.66.662 2.247 1.125.575.453 1.107 1.119 1.107 1.992zm-2.102 0c-.01-.033-.061-.151-.306-.343-.324-.255-.858-.531-1.611-.782-1.495-.498-3.628-.825-6.032-.825s-4.537.326-6.032.825c-.753.251-1.287.527-1.611.782-.244.193-.296.311-.306.343.01.033.061.151.306.343.324.255.858.531 1.611.782 1.495.498 3.628.825 6.032.825s4.537-.326 6.032-.825c.753-.251 1.287-.527 1.611-.782.244-.193.296-.311.306-.343zm.002 5.992h0zm-15.901 0h0zM12 19.05a.95.95 0 0 0 0 1.9.95.95 0 0 0 0-1.9z" fill="#cf163e"/></svg>