<svg xmlns="http://www.w3.org/2000/svg" width="16" height="16" fill="none" xmlns:v="https://vecta.io/nano"><g clip-path="url(#A)"><path fill-rule="evenodd" d="M7.684 1.378a5.03 5.03 0 0 1 3.24-.738 5.04 5.04 0 0 1 2.994 1.442 5.03 5.03 0 0 1 .704 6.234c-.606.965-1.521 1.697-2.596 2.074-.933.328-1.939.372-2.893.133l-.639.639a.7.7 0 0 1-.495.205h-.633v1.3a.7.7 0 0 1-.7.7h-1.3v1.3a.7.7 0 0 1-.7.7H2c-.359 0-.713-.123-.978-.388S.633 14.359.633 14v-2a.7.7 0 0 1 .205-.495l4.639-4.639c-.239-.953-.195-1.959.133-2.893.378-1.075 1.109-1.991 2.074-2.596zm3.083.653a3.63 3.63 0 0 0-3.836 2.407c-.272.777-.274 1.622-.003 2.399a.7.7 0 0 1-.166.725L2.033 12.29v1.677h1.933v-1.3a.7.7 0 0 1 .7-.7h1.3v-1.3a.7.7 0 0 1 .7-.7H7.71l.728-.728a.7.7 0 0 1 .725-.166 3.63 3.63 0 0 0 2.399-.003c.776-.273 1.437-.8 1.874-1.497s.625-1.521.533-2.339-.46-1.579-1.041-2.161a3.63 3.63 0 0 0-2.161-1.041zM9.967 5c0-.571.463-1.033 1.033-1.033S12.033 4.43 12.033 5 11.571 6.033 11 6.033 9.967 5.571 9.967 5z" fill="#cf163e"/></g><defs><clipPath id="A"><path fill="#fff" d="M0 0h16v16H0z"/></clipPath></defs></svg>