<svg xmlns="http://www.w3.org/2000/svg" width="16" height="16" fill="none" xmlns:v="https://vecta.io/nano"><g clip-path="url(#A)"><path fill-rule="evenodd" d="M3.315 4.305A5.94 5.94 0 0 0 2.033 8a5.94 5.94 0 0 0 1.282 3.695l1.861-1.861A3.35 3.35 0 0 1 4.633 8a3.35 3.35 0 0 1 .543-1.834L3.315 4.305zm.99-.99l1.861 1.861A3.35 3.35 0 0 1 8 4.633a3.35 3.35 0 0 1 1.834.543l1.861-1.861A5.94 5.94 0 0 0 8 2.033a5.94 5.94 0 0 0-3.695 1.282zm8.38.99l-1.861 1.861A3.35 3.35 0 0 1 11.367 8a3.35 3.35 0 0 1-.543 1.834l1.861 1.861A5.94 5.94 0 0 0 13.967 8a5.94 5.94 0 0 0-1.282-3.695zm-.99 8.38l-1.861-1.861A3.35 3.35 0 0 1 8 11.367a3.35 3.35 0 0 1-1.834-.543l-1.861 1.861A5.94 5.94 0 0 0 8 13.967a5.94 5.94 0 0 0 3.695-1.281zM.633 8A7.37 7.37 0 0 1 8 .633 7.37 7.37 0 0 1 15.367 8 7.37 7.37 0 0 1 8 15.367 7.37 7.37 0 0 1 .633 8zM8 6.033c-1.086 0-1.967.881-1.967 1.967S6.914 9.967 8 9.967 9.967 9.086 9.967 8 9.086 6.033 8 6.033z" fill="#cf163e"/></g><defs><clipPath id="A"><path fill="#fff" d="M0 0h16v16H0z"/></clipPath></defs></svg>