<svg xmlns="http://www.w3.org/2000/svg" width="17" height="17" viewBox="0 0 17 17" fill="none">
    <path fill-rule="evenodd" clip-rule="evenodd" d="M3.66676 1.4917C4.05336 1.4917 4.36676 1.8051 4.36676 2.1917V2.82503H5.00009C5.38669 2.82503 5.70009 3.13843 5.70009 3.52503C5.70009 3.91163 5.38669 4.22503 5.00009 4.22503H4.36676V4.85837C4.36676 5.24497 4.05336 5.55837 3.66676 5.55837C3.28016 5.55837 2.96676 5.24497 2.96676 4.85837V4.22503H2.33342C1.94682 4.22503 1.63342 3.91163 1.63342 3.52503C1.63342 3.13843 1.94682 2.82503 2.33342 2.82503H2.96676V2.1917C2.96676 1.8051 3.28016 1.4917 3.66676 1.4917ZM8.33342 1.4917C8.63575 1.4917 8.90391 1.68579 8.99838 1.97298L10.273 5.84832L10.273 5.84833C10.304 5.94254 10.3567 6.02815 10.4268 6.09828C10.497 6.16841 10.5826 6.22109 10.6768 6.25208L10.6768 6.25208L14.5521 7.52675C14.8393 7.62121 15.0334 7.88937 15.0334 8.1917C15.0334 8.49403 14.8393 8.76219 14.5521 8.85665L10.6768 10.1313L10.6768 10.1313C10.5826 10.1623 10.497 10.215 10.4268 10.2851C10.3567 10.3552 10.304 10.4409 10.273 10.5351L10.273 10.5351L8.99838 14.4104C8.90391 14.6976 8.63575 14.8917 8.33342 14.8917C8.0311 14.8917 7.76293 14.6976 7.66847 14.4104L6.3938 10.5351L6.3938 10.5351C6.36281 10.4409 6.31013 10.3552 6.24001 10.2851C6.16988 10.215 6.08426 10.1623 5.99005 10.1313L5.99004 10.1313L2.11471 8.85665C1.82752 8.76219 1.63342 8.49403 1.63342 8.1917C1.63342 7.88937 1.82752 7.62121 2.11471 7.52675L5.99004 6.25208L5.99005 6.25208C6.08426 6.22109 6.16988 6.16841 6.24001 6.09828C6.31013 6.02815 6.36281 5.94254 6.3938 5.84833L6.3938 5.84832L7.66847 1.97298C7.76293 1.68579 8.0311 1.4917 8.33342 1.4917ZM7.72371 6.28574C7.72371 6.28574 7.72371 6.28574 7.72371 6.28575C7.62423 6.58821 7.4551 6.86309 7.22996 7.08823C7.00481 7.31338 6.72994 7.4825 6.42747 7.58199C6.42747 7.58199 6.42747 7.58199 6.42746 7.58199L4.57378 8.1917L6.42746 8.80141C6.42747 8.80141 6.42747 8.80141 6.42747 8.80141C6.72994 8.9009 7.00481 9.07002 7.22996 9.29517C7.4551 9.52031 7.62423 9.79519 7.72371 10.0977C7.72371 10.0977 7.72371 10.0977 7.72371 10.0977L8.33342 11.9513L8.94313 10.0977C8.94313 10.0977 8.94313 10.0977 8.94314 10.0977C9.04262 9.79519 9.21174 9.52031 9.43689 9.29517C9.66204 9.07002 9.93691 8.9009 10.2394 8.80141C10.2394 8.80141 10.2394 8.80141 10.2394 8.80141L12.0931 8.1917L10.2394 7.58199C10.2394 7.58199 10.2394 7.58199 10.2394 7.58199C9.93691 7.4825 9.66204 7.31338 9.43689 7.08823C9.21174 6.86309 9.04262 6.58821 8.94314 6.28575C8.94313 6.28574 8.94313 6.28574 8.94313 6.28574L8.33342 4.43206L7.72371 6.28574ZM10.4563 9.46084L10.4581 9.46637L10.4563 9.46084L9.60257 10.3146L9.60809 10.3164M13.0001 10.825C13.3867 10.825 13.7001 11.1384 13.7001 11.525V12.1584H14.3334C14.72 12.1584 15.0334 12.4718 15.0334 12.8584C15.0334 13.245 14.72 13.5584 14.3334 13.5584H13.7001V14.1917C13.7001 14.5783 13.3867 14.8917 13.0001 14.8917C12.6135 14.8917 12.3001 14.5783 12.3001 14.1917V13.5584H11.6668C11.2802 13.5584 10.9668 13.245 10.9668 12.8584C10.9668 12.4718 11.2802 12.1584 11.6668 12.1584H12.3001V11.525C12.3001 11.1384 12.6135 10.825 13.0001 10.825Z" fill="#CF163E"/>
</svg>