<svg xmlns="http://www.w3.org/2000/svg" width="16" height="16" fill="none" xmlns:v="https://vecta.io/nano"><path fill-rule="evenodd" d="M3.333 2.7c-.35 0-.633.284-.633.633v9.333c0 .35.284.633.633.633h9.333c.35 0 .633-.284.633-.633V3.333c0-.35-.284-.633-.633-.633H3.333zM1.3 3.333C1.3 2.21 2.21 1.3 3.333 1.3h9.333c1.123 0 2.033.91 2.033 2.033v9.333c0 1.123-.91 2.033-2.033 2.033H3.333c-1.123 0-2.033-.91-2.033-2.033V3.333zm6.097.636a.7.7 0 0 1 .622.56l.872 4.358.459-1.147A.7.7 0 0 1 10 7.3h1.333a.7.7 0 1 1 0 1.4h-.859l-1.157 2.893a.7.7 0 0 1-1.336-.123l-.872-4.358L6.65 8.26A.7.7 0 0 1 6 8.7H4.667a.7.7 0 0 1 0-1.4h.859l1.157-2.893a.7.7 0 0 1 .714-.437z" fill="#cf163e"/></svg>