<svg xmlns="http://www.w3.org/2000/svg" width="17" height="16" fill="none" xmlns:v="https://vecta.io/nano"><g fill="#db212f"><path d="M4.937 7.001l-2.727.993c.035.438.113.87.216 1.294l2.593-.944c-.084-.438-.114-.89-.079-1.343M17 3.983a7.79 7.79 0 0 0-.666-1.13l-2.729.993a5.11 5.11 0 0 1 .802 1.08L17 3.983z"/><path d="M10.994 3.21a5.04 5.04 0 0 1 1.474 1.05l2.729-.993A7.76 7.76 0 0 0 12.15.731 7.82 7.82 0 0 0 1.774 4.507a7.76 7.76 0 0 0-.705 3.902l2.73-.993a5.05 5.05 0 0 1 .454-1.752 5.08 5.08 0 0 1 6.741-2.453"/></g><path d="M2.593 9.226L0 10.17a7.9 7.9 0 0 0 1.219 2.644l2.723-.992c-.694-.715-1.163-1.618-1.35-2.596" fill="#ea2227"/><path d="M13.904 8.198a5 5 0 0 1-.458 1.753 5.08 5.08 0 0 1-6.741 2.453 5.02 5.02 0 0 1-1.478-1.048l-2.723.992a7.74 7.74 0 0 0 3.045 2.537 7.82 7.82 0 0 0 10.375-3.776 7.73 7.73 0 0 0 .702-3.9l-2.723.991h0z" fill="#db212f"/><path d="M14.576 4.865l-2.593.944a5.09 5.09 0 0 1 .635 2.856l2.723-.991c-.078-.977-.338-1.931-.765-2.809z" fill="#ea2227"/></svg>