<svg xmlns="http://www.w3.org/2000/svg" width="16" height="16" fill="#cf163e" xmlns:v="https://vecta.io/nano"><path fill-rule="evenodd" d="M1.3 3.333c0-.755.612-1.367 1.367-1.367H6c.755 0 1.367.612 1.367 1.367v3.333c0 .755-.612 1.367-1.367 1.367H2.667c-.755 0-1.367-.612-1.367-1.367V3.333zm1.4.033v3.267h3.267V3.367H2.7z"/><path d="M8.633 3.334a.7.7 0 0 1 .7-.7H14a.7.7 0 1 1 0 1.4H9.333a.7.7 0 0 1-.7-.7zm.7 2.633a.7.7 0 0 0 0 1.4H14a.7.7 0 1 0 0-1.4H9.333zM1.3 10a.7.7 0 0 1 .7-.7h12a.7.7 0 1 1 0 1.4H2a.7.7 0 0 1-.7-.7zm.7 2.634a.7.7 0 1 0 0 1.4h12a.7.7 0 1 0 0-1.4H2z"/></svg>