<svg xmlns="http://www.w3.org/2000/svg" width="24" height="24" fill="none" xmlns:v="https://vecta.io/nano"><style><![CDATA[.B{stroke-linejoin:round}]]></style><path d="M21 8.764l.467.522a.7.7 0 0 0 .233-.522H21zm0 4.472h.7a.7.7 0 0 0-.233-.522l-.467.522zM21 19v.7a.7.7 0 0 0 .7-.7H21zM3 19h-.7a.7.7 0 0 0 .7.7V19zm0-5.764l-.467-.522a.7.7 0 0 0-.233.522H3zm0-4.472h-.7a.7.7 0 0 0 .233.522L3 8.764zM5 4.3A2.7 2.7 0 0 0 2.3 7h1.4A1.3 1.3 0 0 1 5 5.7V4.3zm14 0H5v1.4h14V4.3zM21.7 7A2.7 2.7 0 0 0 19 4.3v1.4A1.3 1.3 0 0 1 20.3 7h1.4zm0 1.764V7h-1.4v1.764h1.4zM20.7 11c0-.681.295-1.292.767-1.715l-.934-1.043A3.69 3.69 0 0 0 19.3 11h1.4zm.767 1.714c-.472-.422-.767-1.033-.767-1.714h-1.4a3.69 3.69 0 0 0 1.233 2.758l.934-1.043zM21.7 19v-5.764h-1.4V19h1.4zM3 19.7h18v-1.4H3v1.4zm-.7-6.464V19h1.4v-5.764H2.3zM3.3 11a2.29 2.29 0 0 1-.767 1.714l.934 1.043C4.223 13.081 4.7 12.096 4.7 11H3.3zm-.767-1.715c.472.422.767 1.033.767 1.715h1.4c0-1.096-.477-2.081-1.233-2.758l-.934 1.043zM2.3 7v1.764h1.4V7H2.3z" fill="#cf163e"/><g stroke="#cf163e" class="B"><path d="M12 16v1m1-1v1m1-1v1m1-1v1m1-1v1m1-1v1m1-1v1m-7-1v1m-1-1v1m-1-1v1m-1-1v1m-1-1v1m-1-1v1" stroke-width=".4" stroke-linecap="round"/><rect x="7" y="8" width="1" height="4" rx=".5"/><rect x="10" y="8" width="1" height="4" rx=".5"/><rect x="13" y="8" width="1" height="4" rx=".5"/><rect x="16" y="8" width="1" height="4" rx=".5"/></g></svg>