<svg xmlns="http://www.w3.org/2000/svg" width="16" height="16" fill="#cf163e" xmlns:v="https://vecta.io/nano"><path d="M5.65 1.394a.7.7 0 0 1 .7 0l1.155.667a.7.7 0 0 1-.7 1.212L6 2.808 2.081 5.071v4.525l.805.465a.7.7 0 1 1-.7 1.212l-1.155-.667A.7.7 0 0 1 .681 10V4.666a.7.7 0 0 1 .35-.606L5.65 1.394zm5.017 7.939c0 .736-.597 1.333-1.333 1.333S8 10.07 8 9.333 8.597 8 9.333 8s1.333.597 1.333 1.333z"/><path fill-rule="evenodd" d="M8.983 3.394a.7.7 0 0 1 .7 0l4.619 2.667a.7.7 0 0 1 .35.606V12a.7.7 0 0 1-.35.606l-4.619 2.667a.7.7 0 0 1-.7 0l-4.619-2.667a.7.7 0 0 1-.35-.606V6.666a.7.7 0 0 1 .35-.606l4.619-2.667zM5.415 7.071v4.525l3.919 2.262 3.919-2.262V7.071L9.333 4.808 5.415 7.071z"/></svg>