<svg xmlns="http://www.w3.org/2000/svg" width="16" height="16" fill="none" xmlns:v="https://vecta.io/nano"><path fill-rule="evenodd" d="M2.7 5.072V7.33c.003.014.028.095.203.234.214.17.568.353 1.068.52.994.332 2.415.549 4.028.549s3.034-.217 4.028-.549c.501-.167.854-.351 1.068-.52.175-.139.201-.22.203-.234V5.072a6.49 6.49 0 0 1-.836.34c-1.175.392-2.753.622-4.464.622s-3.289-.23-4.464-.622c-.298-.099-.579-.212-.836-.34zm12-1.739v4c0 .581-.351 1.024-.734 1.328-.39.309-.911.556-1.494.751-1.012.338-2.325.555-3.772.608v1.403a2.04 2.04 0 0 1 1.21 1.21H14a.7.7 0 1 1 0 1.4H9.91c-.285.778-1.033 1.333-1.91 1.333s-1.624-.555-1.91-1.333H2a.7.7 0 1 1 0-1.4h4.09a2.04 2.04 0 0 1 1.21-1.21v-1.403c-1.446-.053-2.76-.27-3.772-.608-.583-.195-1.104-.442-1.494-.751-.383-.304-.734-.747-.734-1.328v-4c0-.583.355-1.026.738-1.328.391-.308.914-.555 1.498-.75C4.711.863 6.289.633 8 .633s3.289.23 4.464.622c.584.195 1.106.442 1.498.75.383.302.738.746.738 1.328zm-1.401 0c-.007-.022-.041-.1-.204-.229-.216-.17-.572-.354-1.074-.521-.997-.332-2.419-.55-4.021-.55s-3.024.218-4.021.55c-.502.167-.858.351-1.074.521-.163.128-.197.207-.204.229.007.022.041.1.204.229.216.17.572.354 1.074.521.997.332 2.419.55 4.021.55s3.024-.218 4.021-.55c.502-.167.858-.351 1.074-.521.163-.128.197-.207.204-.229zm.001 3.995h0zm-10.601 0h0zM8 12.7c-.35 0-.633.284-.633.633s.284.633.633.633.633-.284.633-.633S8.35 12.7 8 12.7z" fill="#cf163e"/></svg>