<svg xmlns="http://www.w3.org/2000/svg" viewBox="0 0 27.66 27.69" fill="#c72c49" xmlns:v="https://vecta.io/nano"><path d="M26.81 19.05l.86-3.2-.31-.22-1-.68-.54-.37v-.72h0v-.76l1.81-1.22-.87-3.22-2.21-.18-.07-.12-.65-1.14.88-1.83-2.42-2.45-1.85.88-1.28-.74-.18-2.2-3.2-.86-1.25 1.8h-1.5l-.07-.1-.92-1.38-.21-.34-3.22.87-.1 1.11c0 .38-.06.75-.09 1.1l-1.26.72-1.86-.88-2.44 2.42.39.79.52 1.07-.73 1.27-2.21.18-.86 3.19.31.22 1 .68.54.37v.72h0v.75l-1.8 1.23.86 3.22 2.21.17.07.13.65 1.14-.88 1.83 2.42 2.45 1.85-.88 1.28.74.18 2.2 3.2.86 1.25-1.8h1.5l.07.1.91 1.38.22.34 3.22-.87.09-1.11c0-.38.07-.75.1-1.1l1.26-.72 1.86.88 2.44-2.42-.39-.78-.52-1.08.73-1.27zm-2.9-.84l-1.14 2-.12.33.13.27.63 1.26v.08l-1.32 1.32-1.43-.68-.33-.09-1.88 1.11-.25.22v.29c0 .41-.07.84-.11 1.3v.34l-1.7.46-.71-1.07-.4-.58h-2.37l-.33.06-1.13 1.57-1.71-.46-.16-2-2.28-1.31-1.67.79-1.32-1.34.67-1.38.1-.34-.16-.27-.75-1.3-.23-.39-.22-.25-1.93-.16-.46-1.71 1.64-1.11v-1.34h0v-1l-.07-.33-.94-.66-.65-.44.46-1.71 1.68-.13.36-.07 1.14-2 .12-.33-.14-.27-.62-1.26v-.08l1.32-1.32 1.43.68.33.09 1.95-1.13.25-.22v-.29c0-.41.07-.84.11-1.3v-.34l1.7-.46.71 1.07.4.58h2.37l.33-.07 1.09-1.56 1.71.45.16 2 2.28 1.31 1.67-.79 1.32 1.34-.67 1.38-.09.34.15.27.75 1.3.23.39.22.25 1.93.15.46 1.72-1.64 1.11v1.34h0v1l.07.33.94.66.65.44-.46 1.71-1.68.13zm-10.04 2.92a7.38 7.38 0 1 1 7.29-8.54l-.69.11a6.68 6.68 0 1 0-5.55 7.65l.11.69a7.65 7.65 0 0 1-1.16.09z"/></svg>