<svg xmlns="http://www.w3.org/2000/svg" width="16" height="15" fill="none" xmlns:v="https://vecta.io/nano"><path d="M5.362 13.405h4.649c.102 0 .17-.034.271-.068.068-.034.136-.102.204-.17l2.953-3.699c.068-.068.102-.17.102-.238.034-.102.034-.17 0-.271l-1.12-4.514c-.034-.068-.068-.17-.102-.238-.068-.068-.136-.136-.204-.17l-4.14-2.104a.75.75 0 0 0-.543 0L3.224 4.038a.9.9 0 0 0-.204.17c-.068.068-.102.136-.102.238L1.833 8.959c-.034.102-.034.17 0 .271s.068.17.102.238l2.986 3.699c.068.068.136.136.204.17s.136.068.238.068zm4.649-.645H5.362L2.41 9.095l1.052-4.514 4.208-2.07 4.14 2.07 1.12 4.514-2.919 3.665z" fill="#238fcf"/><path d="M2.342 3.19l-.543-.441L7.364 0v.679L2.342 3.19z" fill="#1bbfd3"/><path d="M14.559 9.672l.679.136-3.869 4.887-.305-.611 3.495-4.412z" fill="#79bf43"/><path d="M8.009.713V.034l5.498 2.749-.509.441L8.009.713z" fill="#1bbfd3"/><path d="M13.337 3.699l.543-.441 1.493 5.973-.679-.136-1.357-5.396zM.679 9.061L0 9.197l1.425-5.939.543.441-1.29 5.362z" fill="#1d4489"/><path d="M.814 9.672l3.563 4.412-.305.611L.136 9.842l.679-.17z" fill="#79bf43"/><path d="M10.487 14.355l.305.645H4.615l.305-.645h5.566z" fill="#1bbfd3"/> .7,2.1,1.9,2.2c0.1,0,0.1,0,0.2,0c1.2,0.1,2.2-0.7,2.4-1.8V80L211,80z"/&gt;</svg>